<?xml version="1.0" encoding="utf-8"?>
<!-- Generator: Adobe Illustrator 16.0.0, SVG Export Plug-In . SVG Version: 6.00 Build 0)  -->
<!DOCTYPE svg PUBLIC "-//W3C//DTD SVG 1.1//EN" "http://www.w3.org/Graphics/SVG/1.1/DTD/svg11.dtd">
<svg version="1.1" id="Livello_1" xmlns="http://www.w3.org/2000/svg" xmlns:xlink="http://www.w3.org/1999/xlink" x="0px" y="0px"
	 width="126px" height="108px" viewBox="0 0 126 108" enable-background="new 0 0 126 108" xml:space="preserve">
<g>
	<path fill-rule="evenodd" clip-rule="evenodd" fill="#005FAB" d="M9.665,32.207H37.61v9.308H9.665V32.207z M9.665,8.935H37.61
		v9.309H9.665V8.935z M47.02,55.475v9.312h11.797c8.997,0,16.29-7.294,16.29-16.291c0-8.995-7.41-16.302-16.409-16.302H47.02v9.32
		h11.802c3.855,0,6.977,3.127,6.977,6.981c0,3.855-3.126,6.981-6.981,6.981L47.02,55.475z M79.623,32.202l23.269-23.268h13.205
		L88.185,36.847l27.939,27.94h-13.207L79.646,41.515L79.623,32.202z"/>
	<polyline fill="#A5A5A4" points="9.841,85.646 11.984,85.646 11.984,80.556 15.584,80.556 15.584,78.847 11.984,78.847 
		11.984,75.667 15.751,75.667 15.751,73.959 9.841,73.959 9.841,85.646 	"/>
	<path fill-rule="evenodd" clip-rule="evenodd" fill="#A5A5A4" d="M17.201,79.802c0,4.203,2.227,6.011,4.654,6.011
		s4.655-1.808,4.655-6.011s-2.228-6.011-4.655-6.011S17.201,75.599,17.201,79.802 M19.411,79.802c0-3.215,1.088-4.369,2.444-4.369
		s2.445,1.154,2.445,4.369s-1.089,4.371-2.445,4.371S19.411,83.017,19.411,79.802z"/>
	<polyline fill="#A5A5A4" points="28.038,85.646 29.98,85.646 29.98,76.536 30.014,76.536 33.882,85.646 36.442,85.646 
		36.442,73.959 34.502,73.959 34.502,83.134 34.467,83.134 30.583,73.959 28.038,73.959 28.038,85.646 	"/>
	<path fill-rule="evenodd" clip-rule="evenodd" fill="#A5A5A4" d="M40.362,75.599h0.721c2.411,0,3.499,1.641,3.499,4.203
		s-1.088,4.203-3.499,4.203h-0.721V75.599 M38.219,85.646h3.048c3.249,0,5.593-1.909,5.593-5.844c0-3.867-1.941-5.843-5.593-5.843
		h-3.048V85.646z"/>
	<path fill-rule="evenodd" clip-rule="evenodd" fill="#A5A5A4" d="M54.428,85.646h2.211L52.87,73.959h-2.344l-3.918,11.687h2.144
		l0.837-2.813h4.019L54.428,85.646 M50.041,81.192l1.607-5.459h0.032l1.475,5.459H50.041z"/>
	<polyline fill="#A5A5A4" points="57.811,85.646 64.978,85.646 64.978,83.937 60.257,83.937 64.911,75.733 64.911,73.959 
		57.946,73.959 57.946,75.667 62.416,75.667 57.811,83.771 57.811,85.646 	"/>
	<rect x="66.477" y="73.959" fill="#A5A5A4" width="2.143" height="11.687"/>
	<path fill-rule="evenodd" clip-rule="evenodd" fill="#A5A5A4" d="M70.124,79.802c0,4.203,2.228,6.011,4.657,6.011
		c2.427,0,4.653-1.808,4.653-6.011s-2.227-6.011-4.653-6.011C72.352,73.791,70.124,75.599,70.124,79.802 M72.336,79.802
		c0-3.215,1.089-4.369,2.445-4.369c1.355,0,2.442,1.154,2.442,4.369s-1.087,4.371-2.442,4.371
		C73.425,84.173,72.336,83.017,72.336,79.802z"/>
	<polyline fill="#A5A5A4" points="80.844,85.646 82.786,85.646 82.786,76.536 82.819,76.536 86.688,85.646 89.25,85.646 
		89.25,73.959 87.307,73.959 87.307,83.134 87.274,83.134 83.39,73.959 80.844,73.959 80.844,85.646 	"/>
	<polyline fill="#A5A5A4" points="90.592,85.646 96.905,85.646 96.905,83.937 92.735,83.937 92.735,80.488 96.521,80.488 
		96.521,78.78 92.735,78.78 92.735,75.667 96.737,75.667 96.737,73.959 90.592,73.959 90.592,85.646 	"/>
	<path fill-rule="evenodd" clip-rule="evenodd" fill="#A5A5A4" d="M9.841,98.903h3.573c2.079,0,3.639-1.114,3.639-3.164
		c0-1.891-1.308-2.504-2.214-2.698v-0.032c0.771-0.275,1.945-0.807,1.945-2.601c0-1.907-1.106-2.778-3.522-2.778H9.841V98.903
		 M11.921,93.864h1.123c1.325,0,1.862,0.742,1.862,1.729c0,1.051-0.639,1.728-1.795,1.728h-1.19V93.864z M11.921,89.147h1.057
		c1.023,0,1.728,0.566,1.728,1.52c0,0.92-0.622,1.68-1.677,1.68h-1.107V89.147z"/>
	<path fill-rule="evenodd" clip-rule="evenodd" fill="#A5A5A4" d="M20.534,92.54v-3.327h0.872c1.208,0,1.912,0.322,1.912,1.616
		c0,1.146-0.771,1.711-1.912,1.711H20.534 M18.387,98.903h2.147V94.06h0.486c0.789,0,1.342,0.291,1.628,1.178l1.156,3.666h2.28
		l-1.524-4.297c-0.37-1.049-0.855-1.242-1.292-1.307v-0.05c1.308-0.193,2.264-1.178,2.264-2.648c0-2.067-1.408-2.972-3.488-2.972
		h-3.657V98.903z"/>
	<path fill="#A5A5A4" d="M27.008,87.63v7.301c0,2.973,1.777,4.135,3.992,4.135c2.195,0,3.975-1.162,3.975-4.135V87.63h-2.147v7.301
		c0,1.874-0.604,2.488-1.827,2.488c-1.258,0-1.845-0.614-1.845-2.488V87.63H27.008"/>
	<polyline fill="#A5A5A4" points="36.699,98.903 38.645,98.903 38.645,90.117 38.679,90.117 42.553,98.903 45.118,98.903 
		45.118,87.63 43.173,87.63 43.173,96.481 43.14,96.481 39.248,87.63 36.699,87.63 36.699,98.903 	"/>
	<path fill-rule="evenodd" clip-rule="evenodd" fill="#A5A5A4" d="M46.593,93.267c0,4.054,2.231,5.799,4.663,5.799
		c2.431,0,4.662-1.745,4.662-5.799s-2.231-5.799-4.662-5.799C48.824,87.468,46.593,89.213,46.593,93.267 M48.807,93.267
		c0-3.102,1.09-4.215,2.449-4.215c1.357,0,2.448,1.113,2.448,4.215s-1.091,4.216-2.448,4.216
		C49.896,97.482,48.807,96.368,48.807,93.267z"/>
	<polyline fill="#A5A5A4" points="61.142,98.903 63.288,98.903 63.288,93.607 63.338,93.607 66.859,98.903 69.46,98.903 
		65.166,92.942 69.141,87.63 66.676,87.63 63.338,92.411 63.288,92.411 63.288,87.63 61.142,87.63 61.142,98.903 	"/>
	<polyline fill="#A5A5A4" points="70.584,98.903 76.906,98.903 76.906,97.257 72.73,97.257 72.73,93.929 76.521,93.929 
		76.521,92.281 72.73,92.281 72.73,89.276 76.737,89.276 76.737,87.63 70.584,87.63 70.584,98.903 	"/>
	<path fill="#A5A5A4" d="M78.184,98.564c0.587,0.339,1.493,0.501,2.667,0.501c2.229,0,3.923-1.099,3.923-3.393
		c0-1.582-0.653-2.293-2.028-3.037l-1.258-0.678c-0.654-0.354-1.241-0.678-1.241-1.518c0-0.775,0.554-1.324,1.627-1.324
		c0.989,0,1.677,0.291,2.197,0.484l0.101-1.727c-0.336-0.098-1.208-0.406-2.449-0.406c-1.962,0-3.69,1.051-3.69,3.07
		c0,1.453,0.755,2.341,1.913,2.955l1.089,0.582c1.041,0.549,1.528,0.904,1.528,1.712c0,1.13-0.84,1.632-1.778,1.632
		c-1.142,0-2.063-0.438-2.481-0.696L78.184,98.564"/>
	<path fill="#A5A5A4" d="M85.679,98.564c0.589,0.339,1.493,0.501,2.667,0.501c2.23,0,3.925-1.099,3.925-3.393
		c0-1.582-0.653-2.293-2.029-3.037l-1.258-0.678c-0.653-0.354-1.242-0.678-1.242-1.518c0-0.775,0.555-1.324,1.628-1.324
		c0.99,0,1.678,0.291,2.197,0.484l0.1-1.727c-0.336-0.098-1.206-0.406-2.448-0.406c-1.962,0-3.689,1.051-3.689,3.07
		c0,1.453,0.756,2.341,1.912,2.955l1.09,0.582c1.04,0.549,1.526,0.904,1.526,1.712c0,1.13-0.839,1.632-1.777,1.632
		c-1.141,0-2.063-0.438-2.483-0.696L85.679,98.564"/>
	<polyline fill="#A5A5A4" points="93.714,98.903 99.719,98.903 99.719,97.257 95.862,97.257 95.862,87.63 93.714,87.63 
		93.714,98.903 	"/>
	<polyline fill="#A5A5A4" points="100.921,98.903 107.243,98.903 107.243,97.257 103.067,97.257 103.067,93.929 106.858,93.929 
		106.858,92.281 103.067,92.281 103.067,89.276 107.076,89.276 107.076,87.63 100.921,87.63 100.921,98.903 	"/>
	<path fill-rule="evenodd" clip-rule="evenodd" fill="#A5A5A4" d="M110.784,92.54v-3.327h0.872c1.208,0,1.911,0.322,1.911,1.616
		c0,1.146-0.771,1.711-1.911,1.711H110.784 M108.637,98.903h2.147V94.06h0.487c0.787,0,1.34,0.291,1.626,1.178l1.157,3.666h2.28
		l-1.525-4.297c-0.368-1.049-0.855-1.242-1.292-1.307v-0.05c1.309-0.193,2.266-1.178,2.266-2.648c0-2.067-1.41-2.972-3.489-2.972
		h-3.657V98.903z"/>
</g>
</svg>
