<?xml version="1.0" encoding="utf-8"?>
<!-- Generator: Adobe Illustrator 16.0.0, SVG Export Plug-In . SVG Version: 6.00 Build 0)  -->
<!DOCTYPE svg PUBLIC "-//W3C//DTD SVG 1.1//EN" "http://www.w3.org/Graphics/SVG/1.1/DTD/svg11.dtd">
<svg version="1.1" id="Livello_1" xmlns="http://www.w3.org/2000/svg" xmlns:xlink="http://www.w3.org/1999/xlink" x="0px" y="0px"
	 width="243px" height="99px" viewBox="0 0 243 99" enable-background="new 0 0 243 99" xml:space="preserve">
<g>
	<polygon fill="#828383" points="230.92,75.761 12.08,80.106 53.833,93.97 	"/>
	
		<rect x="50.178" y="84.461" transform="matrix(-0.0741 -0.9973 0.9973 -0.0741 -33.1294 145.1725)" fill="#FFFFFF" width="1.305" height="7.012"/>
	
		<rect x="61.124" y="83.646" transform="matrix(-0.0732 -0.9973 0.9973 -0.0732 -20.6161 155.1436)" fill="#FFFFFF" width="1.307" height="7.01"/>
	
		<rect x="72.724" y="82.783" transform="matrix(-0.0741 -0.9973 0.9973 -0.0741 -7.241 165.8549)" fill="#FFFFFF" width="1.305" height="7.012"/>
	<polygon fill="#FFFFFF" fill-opacity="0.2" points="230.92,75.503 15.835,80.017 44.816,86.216 	"/>
	<g>
		<path d="M75.579,56.036c-1.712-0.844-3.952-1.701-6.72-2.567c-2.766-0.868-6.106-1.861-10.022-2.993
			c-1.356-0.42-2.917-0.905-4.688-1.467c-1.767-0.564-3.433-1.232-4.997-2.008c-1.56-0.772-2.88-1.615-3.953-2.534
			c-1.073-0.925-1.608-1.954-1.608-3.087c0-0.86,0.319-1.521,0.959-1.973c0.64-0.453,1.414-0.793,2.315-1.018
			c0.903-0.229,1.816-0.355,2.736-0.395c0.924-0.037,1.667-0.056,2.231-0.056c3.162,0,6.308,0.362,9.432,1.104
			c3.126,0.727,6.043,1.793,8.753,3.187c0.415,0.19,0.895,0.449,1.44,0.79c0.545,0.342,1.083,0.738,1.607,1.188
			c0.528,0.453,0.642,0.943,0.998,1.469c0.359,0.526,0.537,1.07,0.537,1.637c0,0.377-0.273,1.469-2.003,2.733
			c-0.461,0.337-1.141,1.281-1.141,1.281s3.083-0.22,3.555-0.673c0.468-0.451,1.52-1.029,1.764-1.591
			c0.246-0.563,0.367-1.127,0.367-1.694c0-1.13,0.03-2.16-0.573-3.08c-0.602-0.922-1.354-1.77-2.257-2.538
			c-0.904-0.774-1.902-1.446-2.995-2.036c-1.091-0.582-2.126-1.066-3.105-1.437c-2.71-1.097-5.504-1.932-8.385-2.513
			c-2.879-0.589-5.844-0.879-8.894-0.879c-1.354,0-2.671,0.124-3.954,0.374c-1.28,0.239-2.42,0.638-3.416,1.181
			c-0.997,0.543-1.797,1.245-2.401,2.094c-0.602,0.846-0.903,1.865-0.903,3.076c0,1.281,0.357,2.443,1.073,3.5
			c0.714,1.055,1.617,2,2.711,2.849c1.091,0.849,2.267,1.603,3.529,2.26c1.262,0.658,2.438,1.214,3.53,1.663
			c1.129,0.453,2.54,0.936,4.234,1.443c1.696,0.51,3.483,1.019,5.365,1.524c1.884,0.509,3.754,1.031,5.619,1.582
			c1.863,0.542,3.529,1.112,4.997,1.692c1.469,0.581,2.653,1.188,3.559,1.807c0.904,0.619,1.319,1.258,1.242,1.887
			c-0.074,1.103-0.602,2.08-1.581,2.946c-0.979,0.864-2.22,1.627-3.726,2.286c-1.506,0.654-3.182,1.222-5.025,1.697
			c-1.845,0.471-3.66,0.842-5.45,1.125c-1.788,0.288-3.455,0.482-4.999,0.619c-1.543,0.137-2.785,0.201-3.727,0.201
			c-0.979,0-2.184-0.064-3.614-0.201c-1.431-0.137-2.795-0.331-4.093-0.619c-1.299-0.283-2.407-0.648-3.332-1.107
			c-0.921-0.447-0.747-1.859-0.438-2.379c0.497-0.844,2.683-7.096,2.683-7.096s-5.435,5.813-6.832,6.561
			c-0.359,0.195-0.652,1.375-0.638,1.872c0.02,0.72,0.425,1.897,1.048,2.688c0.621,0.789,1.42,1.459,2.398,2.029
			c0.979,0.564,2.091,1.02,3.333,1.381c1.241,0.358,2.466,0.646,3.67,0.852c1.205,0.199,2.342,0.342,3.417,0.415
			c1.074,0.076,1.947,0.114,2.625,0.114c1.319,0,2.927-0.082,4.831-0.255c1.9-0.16,3.886-0.444,5.956-0.839
			c2.072-0.398,4.142-0.924,6.212-1.59c2.07-0.654,3.943-1.479,5.619-2.457c1.675-0.979,3.049-2.14,4.122-3.492
			c1.074-1.359,1.668-2.919,1.78-4.688c0.075-1.24-0.272-2.314-1.046-3.221C78.535,57.761,77.294,56.887,75.579,56.036z"/>
		<path d="M155.185,55.847c0.173-2.5,0.38-4.789,0.602-6.868h2.597c0.916,0,5.578-0.298,6.108-0.641
			c0.521-0.345,0.779-1.167,0.779-1.167l-9.142-1.654l0.429-2.24c0.172-0.921-0.057-1.666-0.731-2.244
			c-0.654-0.575-1.417-0.89-2.295-0.953c-0.858-0.062-1.667,0.19-2.405,0.73c-0.757,0.551-1.136,1.512-1.136,2.896
			c0,0.294-0.008,0.617-0.044,0.998c-0.016,0.373-0.043,0.767-0.043,1.168l-0.256,3.282c-0.122,1.67-0.258,3.497-0.431,5.485
			c-0.128,1.5-0.228,2.99-0.292,4.474c-0.132,0.412-0.376,1.021-0.736,1.837c-0.415,0.896-0.896,1.875-1.48,2.939
			c-0.568,1.065-1.237,2.178-1.978,3.328c-0.755,1.15-1.529,2.162-2.336,3.025c-0.812,0.859-1.646,1.537-2.511,2.025
			c-0.86,0.494-1.667,0.621-2.414,0.396c-0.577-0.177-1.023-0.582-1.341-1.22c-0.319-0.636-0.552-1.408-0.686-2.329
			c-0.149-0.92-0.207-1.953-0.185-3.109c0.036-1.149,0.138-2.333,0.312-3.547c0.626-0.056,1.366-0.143,2.199-0.264
			c0.834-0.104,1.656-0.299,2.464-0.557c0.803-0.258,1.559-0.594,2.247-0.992c0.687-0.407,1.27-0.926,1.729-1.561
			c0.575-0.741,0.824-1.779,0.737-3.108c-0.086-1.325-0.421-2.618-1.005-3.892c-0.567-1.263-1.387-2.371-2.452-3.326
			c-1.069-0.943-2.29-1.424-3.676-1.424c-1.444,0-2.751,0.719-3.926,2.164c-1.189,1.437-2.169,3.254-2.942,5.441
			c-0.491,1.371-0.877,2.81-1.159,4.306c-0.138,0.409-0.373,0.97-0.695,1.702c-0.407,0.896-0.896,1.875-1.472,2.939
			c-0.576,1.065-1.238,2.178-1.995,3.328c-0.749,1.15-1.521,2.162-2.33,3.025c-0.807,0.859-1.642,1.537-2.51,2.025
			c-0.859,0.494-1.667,0.621-2.415,0.396c-0.577-0.177-1.023-0.582-1.342-1.22c-0.317-0.636-0.55-1.408-0.687-2.329
			c-0.147-0.92-0.208-1.953-0.172-3.109c0.025-1.149,0.129-2.333,0.301-3.547c0.636-0.056,1.366-0.143,2.2-0.264
			c0.834-0.104,1.659-0.299,2.468-0.557c0.808-0.258,1.556-0.594,2.243-0.992c0.696-0.407,1.273-0.926,1.728-1.561
			c0.576-0.741,0.827-1.779,0.74-3.108c-0.086-1.325-0.422-2.618-1-3.892c-0.576-1.263-1.401-2.371-2.458-3.326
			c-1.074-0.943-2.294-1.424-3.678-1.424c-1.435,0-2.751,0.719-3.928,2.164c-1.189,1.437-2.167,3.254-2.939,5.441
			c-0.614,1.719-1.062,3.539-1.351,5.452c-0.138,0.488-0.311,1.044-0.52,1.674c-0.457,1.357-0.964,2.697-1.529,4.028
			c-0.566,1.325-1.124,2.486-1.656,3.5c-0.542,0.998-0.98,1.506-1.317,1.506c-0.506,0-0.819-0.464-0.939-1.373
			c-0.109-0.93-0.109-2.039,0-3.33c0.12-1.306,0.303-2.67,0.559-4.115c0.253-1.43,0.831-5.411,0.38-5.695
			c-0.458-0.287-3.1-0.289-3.863-0.174c-0.765,0.111-1.314,0.086-1.658-0.09c0.452-1.088-1.008-2.357-2.058-2.234
			c-0.88,0.104-2.44,3.36-1.932,3.878l-0.013,0.036c-0.281,0.191-0.474,0.49-0.563,0.908c-0.171,0.464-0.521,1.35-1.04,2.64
			c-0.516,1.3-1.093,2.63-1.729,3.972c-0.635,1.356-1.255,2.552-1.856,3.592c-0.606,1.044-1.082,1.555-1.428,1.555
			c-0.404,0-0.661-0.727-0.776-2.208c-0.118-1.462-0.143-3.3-0.084-5.521c0.052-2.217,0.171-4.588,0.346-7.096
			c0.171-2.5,0.368-4.789,0.601-6.868h2.597c0.918,0,8.476-0.298,8.991-0.641c0.517-0.345,0.779-1.167,0.779-1.167l-12.021-1.654
			l0.435-2.24c0.174-0.921-0.076-1.666-0.738-2.244c-0.661-0.575-1.426-0.89-2.285-0.953c-0.869-0.062-1.676,0.19-2.424,0.73
			c-0.748,0.551-1.121,1.512-1.121,2.896c0,0.294-0.014,0.617-0.044,0.998c-0.03,0.373-0.044,0.767-0.044,1.168l-0.26,3.282
			c-0.113,1.67-0.26,3.497-0.432,5.485c-0.171,1.99-0.287,3.965-0.343,5.922c-0.061,1.963-0.044,3.854,0.043,5.709
			c0.085,1.842,0.3,3.466,0.645,4.874c0.347,1.409,0.867,2.554,1.555,3.414c0.694,0.864,1.586,1.302,2.681,1.302
			c1.668,0,3.113-0.632,4.322-1.904c1.207-1.275,2.246-2.77,3.109-4.488c0.865-1.734,1.587-3.523,2.164-5.361
			c0.575-1.841,1.034-3.34,1.383-4.496c0.02-0.06,0.036-0.119,0.05-0.176c0.041-0.09,0.084-0.178,0.135-0.261
			c0.279,0,0.564,0,0.844,0c0.288,0,0.566-0.019,0.854-0.087c-0.458,1.391-0.811,3.006-1.064,4.846
			c-0.253,1.839-0.296,3.584-0.127,5.229c0.17,1.641,0.565,3.049,1.191,4.236c0.615,1.177,1.613,1.797,2.971,1.85
			c1.184,0.068,2.265-0.235,3.229-0.906c0.957-0.652,1.831-1.535,2.626-2.639c0.536-0.73,1.016-1.52,1.451-2.354
			c0.418,2.049,1.167,3.753,2.271,5.123c1.151,1.443,2.758,2.166,4.84,2.166c1.729,0,3.291-0.378,4.708-1.129
			c1.412-0.744,2.658-1.684,3.759-2.799c1.09-1.135,2.027-2.373,2.81-3.729c0.172-0.296,0.336-0.594,0.497-0.89
			c0.043,0.314,0.092,0.627,0.148,0.937c0.403,2.196,1.177,4.001,2.328,5.444s2.768,2.166,4.841,2.166
			c1.731,0,3.3-0.378,4.716-1.129c1.412-0.744,2.657-1.684,3.759-2.799c1.085-1.135,2.02-2.373,2.812-3.729
			c0.33-0.571,0.635-1.14,0.922-1.704c0.109,1.434,0.301,2.724,0.582,3.868c0.342,1.409,0.858,2.554,1.565,3.414
			c0.688,0.864,1.582,1.302,2.669,1.302c1.682,0,3.108-0.632,4.329-1.904c1.202-1.275,2.24-2.77,3.111-4.488
			c0.859-1.734,1.582-3.523,2.149-5.361c0.583-1.841,1.048-3.34,1.39-4.496c0.175-0.523,0.129-0.934-0.127-1.256
			c-0.257-0.31-0.585-0.516-0.952-0.603c-0.373-0.087-0.758-0.044-1.171,0.13c-0.395,0.171-0.652,0.515-0.775,1.031
			c-0.171,0.464-0.515,1.35-1.031,2.64c-0.533,1.3-1.102,2.63-1.736,3.972c-0.638,1.356-1.245,2.552-1.861,3.592
			c-0.608,1.044-1.081,1.555-1.424,1.555c-0.394,0-0.66-0.727-0.772-2.208c-0.122-1.462-0.157-3.3-0.086-5.521
			C154.893,60.726,155.014,58.354,155.185,55.847z M117.817,54.136c0.84-1.607,1.616-2.516,2.348-2.727
			c0.418-0.144,0.806,0.071,1.161,0.637c0.375,0.574,0.624,1.287,0.795,2.145c0.155,0.854,0.169,1.692,0.08,2.504
			c-0.112,0.826-0.377,1.448-0.795,1.876c-0.51,0.571-1.353,0.945-2.502,1.116c-1.132,0.182-2.282,0.266-3.432,0.266
			C116.201,57.679,116.977,55.733,117.817,54.136z M136.974,54.121c0.817-1.6,1.594-2.503,2.32-2.712
			c0.399-0.144,0.789,0.071,1.149,0.633c0.364,0.574,0.612,1.279,0.767,2.131c0.154,0.85,0.187,1.686,0.078,2.492
			c-0.092,0.82-0.358,1.442-0.768,1.866c-0.513,0.569-1.336,0.94-2.468,1.112c-1.134,0.182-2.261,0.266-3.396,0.266
			C135.376,57.649,136.143,55.712,136.974,54.121z"/>
	</g>
	<rect x="170.333" y="12.351" fill="#010202" width="2.249" height="3.459"/>
	<rect x="171.243" y="5.975" fill="#010202" width="0.627" height="6.593"/>
	<rect x="169.713" y="15.525" fill="#1F1E1C" width="3.58" height="5.075"/>
	<g>
		<path fill="#010202" d="M168.631,77.074c-0.459-2.816-0.786-6.216-0.957-10.175c-0.173-3.973-0.259-8.031-0.259-12.18
			c0-4.154,0.042-8.178,0.127-12.059c0.088-3.883,0.196-7.154,0.304-9.813c0-1.69,0.042-3.272,0.128-4.767
			c0.087-1.496,0.218-2.816,0.395-3.958c0.176-1.132,0.406-2.049,0.699-2.722c0.278-0.686,0.653-1.022,1.116-1.022
			c0.925,0,3.004-0.337,3.668,0.212c0.663,0.535,1.228,1.22,1.686,2.031c0.454,0.812,0.789,1.688,0.996,2.605
			c0.197,0.924,0.264,1.744,0.215,2.441c-0.171,5.221-0.338,9.795-0.474,13.732c-0.153,3.939-0.293,7.373-0.434,10.306
			c-0.153,2.935-0.259,5.421-0.348,7.456c-0.087,2.029-0.13,3.708-0.13,5.013c-0.061,0.802-0.148,1.736-0.263,2.766
			c-0.106,1.028-0.262,2.09-0.435,3.182c-0.171,1.079-0.371,2.15-0.6,3.207c-0.224,1.062-0.906,2.768-1.25,3.585"/>
	</g>
	
		<rect x="170.031" y="24.24" transform="matrix(0.9997 0.0262 -0.0262 0.9997 0.7141 -4.4729)" fill="#FFFFFF" width="1.451" height="1.452"/>
	
		<rect x="170.767" y="17.14" transform="matrix(0.9997 0.0263 -0.0263 0.9997 0.5281 -4.4961)" fill="#FFFFFF" width="1.451" height="1.451"/>
	<polygon fill="#FFFFFF" points="174.548,25.78 173.091,25.75 173.129,24.302 174.578,24.328 	"/>
	<polygon fill="#FFFFFF" points="171.409,28.289 169.961,28.255 169.982,26.801 171.432,26.84 	"/>
	<polygon fill="#FFFFFF" points="174.488,28.358 173.04,28.331 173.079,26.872 174.527,26.909 	"/>
	<polygon fill="#FFFFFF" points="171.342,30.831 169.891,30.804 169.929,29.354 171.377,29.381 	"/>
	<polygon fill="#FFFFFF" points="174.438,30.899 172.986,30.87 173.011,29.421 174.462,29.45 	"/>
	
		<rect x="122.292" y="48.507" transform="matrix(0.9996 0.0273 -0.0273 0.9996 1.3843 -3.3315)" fill="#FFFFFF" width="1.218" height="1.218"/>
	<polygon fill="#FFFFFF" points="174.367,33.562 172.916,33.534 172.954,32.082 174.404,32.11 	"/>
	<polygon fill="#FFFFFF" points="171.444,33.485 169.994,33.458 170.031,32.007 171.482,32.036 	"/>
	
		<rect x="169.796" y="34.401" transform="matrix(0.9998 0.0188 -0.0188 0.9998 0.6916 -3.2041)" fill="#FFFFFF" width="1.452" height="1.452"/>
	
		<rect x="172.885" y="34.472" transform="matrix(0.9997 0.0256 -0.0256 0.9997 0.9576 -4.4311)" fill="#FFFFFF" width="1.45" height="1.452"/>
	
		<rect x="169.73" y="37.454" transform="matrix(0.9997 0.0236 -0.0236 0.9997 0.9473 -4.0071)" fill="#FFFFFF" width="1.45" height="1.453"/>
	<polygon fill="#FFFFFF" points="174.243,38.995 172.79,38.954 172.827,37.505 174.278,37.544 	"/>
	<polygon fill="#FFFFFF" points="171.092,41.773 169.639,41.745 169.673,40.294 171.125,40.321 	"/>
	<polygon fill="#FFFFFF" points="174.186,41.849 172.735,41.812 172.765,40.362 174.217,40.397 	"/>
	<polygon fill="#FFFFFF" points="171.036,44.29 169.586,44.261 169.624,42.812 171.073,42.837 	"/>
	<polygon fill="#FFFFFF" points="174.124,44.364 172.672,44.327 172.702,42.876 174.152,42.915 	"/>
	<polygon fill="#FFFFFF" points="170.986,46.794 169.536,46.756 169.566,45.306 171.016,45.344 	"/>
	
		<rect x="172.633" y="45.39" transform="matrix(0.9997 0.0242 -0.0242 0.9997 1.167 -4.1823)" fill="#FFFFFF" width="1.453" height="1.455"/>
	
		<rect x="169.48" y="48.225" transform="matrix(0.9997 0.0263 -0.0263 0.9997 1.3461 -4.4591)" fill="#FFFFFF" width="1.448" height="1.451"/>
	<polygon fill="#FFFFFF" points="174.003,49.761 172.55,49.731 172.578,48.278 174.026,48.312 	"/>
	
		<rect x="169.425" y="50.804" transform="matrix(0.9998 0.0215 -0.0215 0.9998 1.1492 -3.6525)" fill="#FFFFFF" width="1.451" height="1.452"/>
	<polygon fill="#FFFFFF" points="173.938,52.339 172.488,52.308 172.525,50.858 173.976,50.894 	"/>
	
		<rect x="169.351" y="53.861" transform="matrix(0.9997 0.0229 -0.0229 0.9997 1.2941 -3.8787)" fill="#FFFFFF" width="1.451" height="1.454"/>
	<polygon fill="#FFFFFF" points="173.871,55.407 172.422,55.37 172.448,53.92 173.898,53.957 	"/>
	<g>
		<linearGradient id="SVGID_1_" gradientUnits="userSpaceOnUse" x1="87.9409" y1="19.4375" x2="139.0654" y2="19.4375">
			<stop  offset="0.1124" style="stop-color:#D0DA50"/>
			<stop  offset="0.2514" style="stop-color:#A3BC43"/>
			<stop  offset="0.4355" style="stop-color:#6B9C3A"/>
			<stop  offset="0.5747" style="stop-color:#448B36"/>
			<stop  offset="0.6517" style="stop-color:#328534"/>
		</linearGradient>
		<path fill="url(#SVGID_1_)" d="M118.883,18.038c-2.964-3.796-7.222-5.855-12.443-6.727c-5.305-0.887-10.499-2.064-15.243-4.275
			c-1.141-0.534-2.188-1.177-3.257-2.006c0.162,1.595,0.54,3.018,0.885,4.439c0.668,2.746,1.433,5.471,2.476,8.117
			c1.791,4.541,4.048,8.853,8.091,12.232c4.67,3.904,8.62,4.751,15.076,3.47c1.472-0.29,1.811-0.868,1.448-2.1
			c-1.246-4.234-2.359-7.235-6.625-9.501c-4.192-2.227-8.2-4.658-11.627-7.718c-0.549-0.487-0.847-1.14-1.49-1.569
			c0.334-0.37,0.585-0.199,0.837-0.018c3.816,2.773,8.241,4.738,12.627,6.774c5.475,2.539,8.69,6.544,9.564,12.072
			c1.109-1.138,1.512-2.453,2.165-3.662c1.472-2.122,3.638-3.555,6.105-4.741c2.282-1.096,4.394-2.435,6.373-3.967
			c0.261,0.326-0.054,0.479-0.2,0.635c-1.924,2.045-4.271,3.687-6.773,5.159c-2.53,1.495-3.223,3.015-4.202,5.589
			c-0.689,1.809-0.841,2.008,1.718,2.17c5.1,0.324,7.198-1.702,9.788-5.347c2.248-3.159,3.377-6.642,4.275-10.18
			c0.193-0.754,0.376-1.515,0.613-2.472c-0.957,0.557-1.674,1.119-2.506,1.525c-2.588,1.26-5.343,2.156-8.178,2.787
			c-2.811,0.629-5.248,1.723-7.216,3.61C120.534,20.849,119.917,19.361,118.883,18.038z"/>
		<linearGradient id="SVGID_2_" gradientUnits="userSpaceOnUse" x1="88.5176" y1="6.1836" x2="118.9237" y2="32.0256">
			<stop  offset="0.1124" style="stop-color:#D0DA50"/>
			<stop  offset="0.2514" style="stop-color:#A3BC43"/>
			<stop  offset="0.4355" style="stop-color:#6B9C3A"/>
			<stop  offset="0.5747" style="stop-color:#448B36"/>
			<stop  offset="0.6517" style="stop-color:#328534"/>
		</linearGradient>
		<path fill-rule="evenodd" clip-rule="evenodd" fill="url(#SVGID_2_)" d="M121.166,22.338c-0.631-1.489-1.249-2.977-2.282-4.3
			c-2.964-3.796-7.222-5.855-12.443-6.727c-5.305-0.887-10.499-2.064-15.243-4.275c-1.141-0.534-2.188-1.177-3.257-2.006
			c0.162,1.595,0.54,3.018,0.885,4.439c0.668,2.746,1.433,5.471,2.476,8.117c1.791,4.541,4.048,8.853,8.091,12.232
			c4.67,3.904,8.62,4.751,15.076,3.47c1.472-0.29,1.955-1.142,1.593-2.375c-1.245-4.235-2.504-6.96-6.77-9.226
			c-2.773-1.473-7.518-4.668-10.475-6.926c-1.512-1.156-2.427-2.217-2.643-2.361c0.334-0.37,9.078,4.721,13.464,6.757
			c5.475,2.539,8.69,6.544,9.564,12.072c1.109-1.138,1.512-2.453,2.165-3.665C121.839,25.785,121.429,24.065,121.166,22.338z"/>
		<linearGradient id="SVGID_3_" gradientUnits="userSpaceOnUse" x1="121.1655" y1="23.4316" x2="139.0654" y2="23.4316">
			<stop  offset="0" style="stop-color:#135C2A"/>
			<stop  offset="0.1657" style="stop-color:#1A5F2B"/>
			<stop  offset="0.3465" style="stop-color:#2B682D"/>
			<stop  offset="0.5344" style="stop-color:#447831"/>
			<stop  offset="0.7274" style="stop-color:#689235"/>
			<stop  offset="0.9222" style="stop-color:#99B839"/>
			<stop  offset="1" style="stop-color:#B0CC3B"/>
		</linearGradient>
		<path fill-rule="evenodd" clip-rule="evenodd" fill="url(#SVGID_3_)" d="M121.166,22.338c0.264,1.728,0.674,3.447,0.202,5.228
			c1.472-2.119,3.638-3.552,6.105-4.738c2.282-1.096,4.394-2.435,6.373-3.967c0.261,0.326-0.054,0.479-0.2,0.635
			c-1.924,2.045-4.271,3.687-6.773,5.159c-2.53,1.495-3.223,3.015-4.202,5.589c-0.689,1.809-0.841,2.008,1.718,2.17
			c5.1,0.324,7.198-1.702,9.788-5.347c2.248-3.159,3.377-6.642,4.275-10.18c0.193-0.754,0.376-1.515,0.613-2.472
			c-0.957,0.557-1.674,1.119-2.506,1.525c-2.588,1.26-5.343,2.156-8.178,2.787C125.57,19.356,123.134,20.45,121.166,22.338z"/>
		
			<linearGradient id="SVGID_4_" gradientUnits="userSpaceOnUse" x1="6262.8047" y1="-1514.1748" x2="6221.7744" y2="-1513.0709" gradientTransform="matrix(-0.7626 0.6468 0.6468 0.7626 5793.333 -2821.3337)">
			<stop  offset="0.0056" style="stop-color:#F5F5D2"/>
			<stop  offset="0.2239" style="stop-color:#F3F4CE"/>
			<stop  offset="0.4494" style="stop-color:#EEF1C4"/>
			<stop  offset="0.6782" style="stop-color:#E6ECB3"/>
			<stop  offset="0.9081" style="stop-color:#DBE49A"/>
			<stop  offset="1" style="stop-color:#D5E18E"/>
		</linearGradient>
		<path fill="url(#SVGID_4_)" d="M92.887,17.012c0,0,1.833,11.026,13.725,16.217C106.611,33.229,96.629,27.833,92.887,17.012z"/>
		<g>
			<linearGradient id="SVGID_5_" gradientUnits="userSpaceOnUse" x1="83.8042" y1="11.3037" x2="87.2868" y2="11.3037">
				<stop  offset="0.0056" style="stop-color:#F5F5D2"/>
				<stop  offset="0.2239" style="stop-color:#F3F4CE"/>
				<stop  offset="0.4494" style="stop-color:#EEF1C4"/>
				<stop  offset="0.6782" style="stop-color:#E6ECB3"/>
				<stop  offset="0.9081" style="stop-color:#DBE49A"/>
				<stop  offset="1" style="stop-color:#D5E18E"/>
			</linearGradient>
			<path fill="url(#SVGID_5_)" d="M87.958,11.399c0,0,0.42-0.086,1.168-0.191c-0.488,0.056-0.891,0.109-1.186,0.155L87.958,11.399z"
				/>
			<linearGradient id="SVGID_6_" gradientUnits="userSpaceOnUse" x1="-19.4839" y1="18.0518" x2="71.8166" y2="18.0518">
				<stop  offset="0.0056" style="stop-color:#F5F5D2"/>
				<stop  offset="0.2239" style="stop-color:#F3F4CE"/>
				<stop  offset="0.4494" style="stop-color:#EEF1C4"/>
				<stop  offset="0.6782" style="stop-color:#E6ECB3"/>
				<stop  offset="0.9081" style="stop-color:#DBE49A"/>
				<stop  offset="1" style="stop-color:#D5E18E"/>
			</linearGradient>
			<path fill="url(#SVGID_6_)" d="M88.962,6.743c1.471,5.979,34.003,2.309,30.848,22.617C123.104,8.157,90.259,12.017,88.962,6.743z
				"/>
		</g>
		
			<linearGradient id="SVGID_7_" gradientUnits="userSpaceOnUse" x1="4485.875" y1="-8893.626" x2="4460.7661" y2="-8892.9502" gradientTransform="matrix(0.621 0.7838 0.7838 -0.621 4344.3452 -8972.4863)">
			<stop  offset="0.0056" style="stop-color:#F5F5D2"/>
			<stop  offset="0.2239" style="stop-color:#F3F4CE"/>
			<stop  offset="0.4494" style="stop-color:#EEF1C4"/>
			<stop  offset="0.6782" style="stop-color:#E6ECB3"/>
			<stop  offset="0.9081" style="stop-color:#DBE49A"/>
			<stop  offset="1" style="stop-color:#D5E18E"/>
		</linearGradient>
		<path fill="url(#SVGID_7_)" d="M125.06,31.708c0,0,6.786-0.898,10.207-8.07C135.267,23.638,131.759,29.638,125.06,31.708z"/>
		
			<linearGradient id="SVGID_8_" gradientUnits="userSpaceOnUse" x1="3255.7559" y1="22.2949" x2="3304.6191" y2="22.2949" gradientTransform="matrix(-1 0 0 1 3451.5039 0)">
			<stop  offset="0.0056" style="stop-color:#F5F5D2"/>
			<stop  offset="0.2239" style="stop-color:#F3F4CE"/>
			<stop  offset="0.4494" style="stop-color:#EEF1C4"/>
			<stop  offset="0.6782" style="stop-color:#E6ECB3"/>
			<stop  offset="0.9081" style="stop-color:#DBE49A"/>
			<stop  offset="1" style="stop-color:#D5E18E"/>
		</linearGradient>
		<path fill="url(#SVGID_8_)" d="M137.709,16.253c-0.788,3.194-18.198,1.233-16.51,12.083
			C119.437,17.008,137.015,19.07,137.709,16.253z"/>
	</g>
	
		<linearGradient id="SVGID_9_" gradientUnits="userSpaceOnUse" x1="660.2363" y1="-795.9023" x2="669.8087" y2="-787.7668" gradientTransform="matrix(1.3384 -0.0447 -0.0447 1.1822 -807.5454 1003.668)">
		<stop  offset="0" style="stop-color:#135C2A"/>
		<stop  offset="0.1657" style="stop-color:#1A5F2B"/>
		<stop  offset="0.3465" style="stop-color:#2B682D"/>
		<stop  offset="0.5344" style="stop-color:#447831"/>
		<stop  offset="0.7274" style="stop-color:#689235"/>
		<stop  offset="0.9222" style="stop-color:#99B839"/>
		<stop  offset="1" style="stop-color:#B0CC3B"/>
	</linearGradient>
	<path fill-rule="evenodd" clip-rule="evenodd" fill="url(#SVGID_9_)" d="M117.483,36.447c-0.19,1.538-0.868,4.636-1.69,6.038
		c-0.459,0.781-3.035,3.11-3.035,3.11s1.8-1.14,4.871-1.519c2.46-0.302,4.541,0.387,4.541,0.387s-1.671-1.169-2.142-1.764
		c-0.638-0.807-0.917-2.987-0.795-4.506c0.188-2.322,1.187-5.088,1.708-6.137c0.375-0.752,1.394-2.531,1.394-2.531
		s-0.787,1.059-1.385,1.822c-0.751,0.959-1.938,3.009-1.938,3.009s0.005,0.362-0.517-1.919c-0.523-2.279-1.754-4.406-1.754-4.406
		s0.483,1.812,0.758,3.307C117.779,32.858,117.644,35.147,117.483,36.447z"/>
	
		<rect x="83.28" y="81.997" transform="matrix(-0.0736 -0.9973 0.9973 -0.0736 4.8437 175.5041)" fill="#FFFFFF" width="1.306" height="7.011"/>
	
		<rect x="94.226" y="81.181" transform="matrix(-0.0735 -0.9973 0.9973 -0.0735 17.399 185.5374)" fill="#FFFFFF" width="1.308" height="7.011"/>
	
		<rect x="105.954" y="80.308" transform="matrix(-0.0749 -0.9972 0.9972 -0.0749 31.0162 196.4009)" fill="#FFFFFF" width="1.31" height="7.01"/>
	
		<rect x="116.511" y="79.523" transform="matrix(-0.075 -0.9972 0.9972 -0.075 43.1588 206.0927)" fill="#FFFFFF" width="1.308" height="7.012"/>
	
		<rect x="127.46" y="78.711" transform="matrix(-0.0725 -0.9974 0.9974 -0.0725 55.3986 215.951)" fill="#FFFFFF" width="1.307" height="7.01"/>
	
		<rect x="139.45" y="77.817" transform="matrix(-0.0758 -0.9971 0.9971 -0.0758 69.6362 227.1893)" fill="#FFFFFF" width="1.307" height="7.012"/>
	
		<rect x="150.007" y="77.033" transform="matrix(-0.074 -0.9973 0.9973 -0.074 81.4927 236.7462)" fill="#FFFFFF" width="1.306" height="7.011"/>
	
		<rect x="160.955" y="76.216" transform="matrix(-0.0756 -0.9971 0.9971 -0.0756 94.3224 246.8914)" fill="#FFFFFF" width="1.305" height="7.012"/>
	
		<rect x="171.932" y="75.399" transform="matrix(-0.0745 -0.9972 0.9972 -0.0745 106.7546 256.887)" fill="#FFFFFF" width="1.304" height="7.011"/>
	
		<rect x="182.702" y="74.783" transform="matrix(-0.0744 -0.9972 0.9972 -0.0744 118.9311 266.9617)" fill="#FFFFFF" width="1.305" height="7.011"/>
	
		<rect x="192.856" y="74.168" transform="matrix(-0.074 -0.9973 0.9973 -0.074 130.3704 276.3995)" fill="#FFFFFF" width="1.306" height="7.011"/>
	
		<rect x="204.087" y="73.552" transform="matrix(-0.0743 -0.9972 0.9972 -0.0743 143.114 286.9586)" fill="#FFFFFF" width="1.307" height="7.011"/>
	<path fill="#E79E04" d="M33.136,56.472"/>
	<path fill="#E79E04" d="M33.254,54.815"/>
	<path opacity="0.05" fill="#FFFFFF" d="M33.254,54.815"/>
	<path opacity="0.05" fill="#FFFFFF" d="M33.136,56.472"/>
	<path fill="#FFFFFF" d="M26.332,70.5c-0.193,0.759-0.325,1.737-0.381,2.171"/>
	<path fill="#FFFFFF" d="M32.275,48.901c-0.013-0.107-0.549-0.188-0.568-0.298"/>
	<g>
		
			<radialGradient id="SVGID_10_" cx="15.0332" cy="55.8242" r="200.059" gradientTransform="matrix(0.9998 0.0215 -0.0065 0.2999 0.364 38.7573)" gradientUnits="userSpaceOnUse">
			<stop  offset="0.2242" style="stop-color:#34BEF0"/>
			<stop  offset="1" style="stop-color:#242A57"/>
		</radialGradient>
		<path fill="url(#SVGID_10_)" d="M74.49,55.144c-1.712-0.845-3.952-1.702-6.72-2.568c-2.766-0.868-6.106-1.861-10.021-2.992
			c-1.356-0.42-2.917-0.906-4.688-1.467c-1.768-0.564-3.434-1.232-4.998-2.006c-1.561-0.775-2.881-1.615-3.953-2.537
			c-1.073-0.924-1.608-1.953-1.608-3.086c0-0.861,0.318-1.521,0.959-1.975c0.64-0.451,1.414-0.793,2.316-1.016
			c0.903-0.229,1.817-0.357,2.736-0.396c0.924-0.036,1.667-0.055,2.233-0.055c3.16,0,6.305,0.362,9.43,1.101
			c3.126,0.73,6.043,1.794,8.753,3.188c0.415,0.192,0.896,0.452,1.44,0.792c0.546,0.342,1.083,0.738,1.608,1.188
			c0.527,0.453,0.641,0.941,0.998,1.469c0.358,0.526,0.536,1.068,0.536,1.635c0,0.377-0.273,1.471-2.004,2.734
			c-0.461,0.338-1.141,1.281-1.141,1.281s3.083-0.222,3.555-0.674c0.469-0.452,1.521-1.027,1.765-1.588
			c0.245-0.565,0.367-1.129,0.367-1.696c0-1.128,0.029-2.159-0.574-3.079c-0.601-0.922-1.354-1.771-2.257-2.539
			c-0.903-0.773-1.901-1.446-2.995-2.037c-1.091-0.58-2.126-1.064-3.105-1.436c-2.711-1.096-5.504-1.932-8.386-2.512
			c-2.88-0.589-5.844-0.879-8.894-0.879c-1.354,0-2.671,0.124-3.954,0.373c-1.28,0.239-2.419,0.637-3.416,1.182
			c-0.996,0.544-1.796,1.242-2.4,2.092c-0.603,0.848-0.904,1.865-0.904,3.076c0,1.283,0.357,2.445,1.073,3.502
			c0.714,1.055,1.619,2,2.712,2.849c1.091,0.849,2.267,1.603,3.529,2.259c1.262,0.657,2.438,1.215,3.529,1.664
			c1.129,0.451,2.542,0.936,4.234,1.443c1.695,0.51,3.483,1.018,5.365,1.522c1.884,0.511,3.754,1.034,5.62,1.583
			c1.863,0.542,3.528,1.111,4.996,1.693c1.469,0.581,2.653,1.188,3.559,1.804c0.904,0.622,1.319,1.261,1.242,1.89
			c-0.075,1.101-0.602,2.08-1.581,2.946c-0.979,0.864-2.221,1.627-3.727,2.286c-1.506,0.654-3.181,1.222-5.026,1.697
			c-1.844,0.471-3.66,0.84-5.45,1.126c-1.787,0.286-3.454,0.481-4.998,0.618c-1.542,0.137-2.785,0.199-3.727,0.199
			c-0.978,0-2.183-0.062-3.614-0.199c-1.431-0.137-2.794-0.332-4.091-0.618c-1.301-0.286-2.409-0.649-3.333-1.108
			c-0.921-0.447-0.747-1.861-0.439-2.381c0.497-0.842,2.683-7.094,2.683-7.094s-5.435,5.812-6.831,6.56
			c-0.361,0.194-0.653,1.376-0.639,1.872c0.02,0.721,0.426,1.897,1.047,2.689c0.622,0.787,1.42,1.46,2.398,2.029
			c0.979,0.562,2.092,1.02,3.333,1.381c1.241,0.358,2.467,0.645,3.67,0.852c1.206,0.198,2.342,0.342,3.417,0.416
			c1.073,0.074,1.948,0.113,2.625,0.113c1.318,0,2.925-0.082,4.829-0.255c1.9-0.16,3.886-0.444,5.956-0.841
			c2.072-0.396,4.141-0.924,6.213-1.588c2.069-0.654,3.942-1.48,5.618-2.458c1.675-0.978,3.049-2.138,4.122-3.491
			c1.074-1.359,1.667-2.922,1.778-4.688c0.076-1.241-0.27-2.314-1.045-3.219C77.446,56.868,76.205,55.995,74.49,55.144z"/>
		
			<radialGradient id="SVGID_11_" cx="15.0322" cy="55.8252" r="200.0638" gradientTransform="matrix(0.9998 0.0215 -0.0065 0.2999 0.364 38.7578)" gradientUnits="userSpaceOnUse">
			<stop  offset="0.2242" style="stop-color:#34BEF0"/>
			<stop  offset="1" style="stop-color:#242A57"/>
		</radialGradient>
		<path fill="url(#SVGID_11_)" d="M154.096,54.956c0.172-2.502,0.379-4.793,0.602-6.87h2.597c0.915,0,5.578-0.296,6.108-0.641
			c0.521-0.345,0.78-1.167,0.78-1.167l-9.142-1.654l0.429-2.24c0.172-0.92-0.058-1.666-0.73-2.246
			c-0.655-0.573-1.417-0.891-2.294-0.952c-0.859-0.061-1.667,0.19-2.406,0.73c-0.758,0.551-1.136,1.513-1.136,2.897
			c0,0.294-0.009,0.617-0.045,0.997c-0.015,0.374-0.042,0.767-0.042,1.169l-0.256,3.28c-0.122,1.673-0.258,3.499-0.431,5.487
			c-0.129,1.5-0.229,2.99-0.292,4.472c-0.133,0.412-0.377,1.02-0.737,1.839c-0.415,0.895-0.896,1.873-1.48,2.938
			c-0.568,1.067-1.238,2.177-1.978,3.327c-0.754,1.152-1.53,2.164-2.336,3.027c-0.811,0.855-1.646,1.535-2.511,2.025
			c-0.86,0.49-1.667,0.62-2.415,0.396c-0.576-0.177-1.023-0.583-1.342-1.221c-0.319-0.635-0.551-1.408-0.686-2.329
			c-0.149-0.919-0.206-1.952-0.184-3.11c0.035-1.147,0.137-2.331,0.312-3.545c0.627-0.056,1.365-0.145,2.198-0.264
			c0.836-0.104,1.657-0.301,2.464-0.559c0.804-0.256,1.559-0.592,2.248-0.988c0.687-0.409,1.27-0.928,1.728-1.562
			c0.576-0.742,0.826-1.779,0.738-3.109c-0.086-1.324-0.421-2.617-1.004-3.891c-0.568-1.262-1.388-2.371-2.453-3.326
			c-1.069-0.945-2.29-1.424-3.675-1.424c-1.445,0-2.752,0.719-3.927,2.162c-1.19,1.438-2.169,3.256-2.942,5.443
			c-0.491,1.371-0.877,2.81-1.16,4.305c-0.136,0.406-0.371,0.971-0.695,1.703c-0.405,0.895-0.895,1.873-1.471,2.938
			c-0.577,1.067-1.238,2.177-1.994,3.327c-0.75,1.152-1.522,2.164-2.33,3.027c-0.808,0.855-1.643,1.535-2.511,2.025
			c-0.86,0.49-1.667,0.62-2.415,0.396c-0.577-0.177-1.023-0.583-1.342-1.221c-0.317-0.635-0.55-1.408-0.686-2.329
			c-0.147-0.919-0.208-1.952-0.173-3.11c0.026-1.147,0.13-2.331,0.302-3.545c0.636-0.056,1.365-0.145,2.199-0.264
			c0.834-0.104,1.659-0.301,2.468-0.559c0.807-0.256,1.555-0.592,2.244-0.988c0.696-0.409,1.272-0.928,1.727-1.562
			c0.576-0.742,0.827-1.779,0.74-3.109c-0.085-1.324-0.422-2.617-0.998-3.891c-0.576-1.262-1.402-2.371-2.459-3.326
			c-1.073-0.945-2.293-1.424-3.678-1.424c-1.435,0-2.751,0.719-3.929,2.162c-1.188,1.438-2.167,3.256-2.939,5.443
			c-0.615,1.717-1.062,3.539-1.352,5.452c-0.137,0.487-0.31,1.044-0.519,1.673c-0.457,1.357-0.963,2.695-1.529,4.029
			c-0.566,1.324-1.124,2.486-1.656,3.5c-0.542,0.996-0.979,1.502-1.317,1.502c-0.506,0-0.82-0.461-0.939-1.371
			c-0.109-0.93-0.109-2.039,0-3.327c0.119-1.307,0.303-2.673,0.559-4.118c0.254-1.428,0.832-5.409,0.38-5.693
			c-0.458-0.285-3.1-0.289-3.864-0.176c-0.766,0.113-1.314,0.088-1.657-0.086c0.451-1.094-1.009-2.359-2.058-2.238
			c-0.88,0.104-2.44,3.362-1.932,3.879l-0.012,0.036c-0.282,0.192-0.475,0.491-0.564,0.911c-0.171,0.463-0.521,1.346-1.04,2.638
			c-0.516,1.3-1.092,2.63-1.729,3.971c-0.635,1.357-1.255,2.551-1.856,3.592c-0.606,1.042-1.082,1.556-1.428,1.556
			c-0.404,0-0.661-0.727-0.775-2.208c-0.12-1.462-0.144-3.303-0.086-5.521c0.053-2.217,0.173-4.59,0.347-7.094
			c0.171-2.502,0.368-4.793,0.601-6.87h2.596c0.918,0,8.476-0.296,8.993-0.641c0.517-0.345,0.778-1.167,0.778-1.167l-12.022-1.654
			l0.436-2.24c0.174-0.92-0.076-1.666-0.738-2.246c-0.661-0.573-1.426-0.891-2.285-0.952c-0.87-0.061-1.677,0.19-2.425,0.73
			c-0.748,0.551-1.121,1.513-1.121,2.897c0,0.294-0.014,0.617-0.044,0.997c-0.03,0.374-0.044,0.767-0.044,1.169l-0.259,3.28
			c-0.114,1.673-0.26,3.499-0.432,5.487c-0.171,1.992-0.288,3.965-0.343,5.924c-0.061,1.961-0.043,3.851,0.043,5.707
			c0.085,1.84,0.3,3.467,0.646,4.875c0.346,1.408,0.867,2.553,1.555,3.41c0.695,0.865,1.586,1.305,2.682,1.305
			c1.667,0,3.111-0.634,4.321-1.906c1.206-1.273,2.246-2.768,3.109-4.485c0.865-1.735,1.587-3.524,2.163-5.362
			c0.576-1.844,1.036-3.34,1.384-4.496c0.02-0.061,0.036-0.119,0.05-0.176c0.04-0.09,0.084-0.178,0.135-0.261
			c0.278,0,0.564,0,0.844,0c0.289,0,0.565-0.021,0.854-0.087c-0.458,1.391-0.811,3.006-1.064,4.846
			c-0.254,1.839-0.296,3.584-0.127,5.227c0.169,1.642,0.564,3.052,1.191,4.235c0.615,1.181,1.614,1.8,2.971,1.851
			c1.184,0.07,2.265-0.234,3.229-0.904c0.957-0.654,1.831-1.538,2.626-2.639c0.536-0.73,1.015-1.52,1.45-2.355
			c0.419,2.051,1.168,3.754,2.271,5.125c1.15,1.443,2.757,2.165,4.84,2.165c1.728,0,3.291-0.377,4.708-1.128
			c1.412-0.746,2.657-1.684,3.759-2.801c1.089-1.133,2.027-2.371,2.81-3.728c0.172-0.298,0.336-0.594,0.498-0.89
			c0.042,0.314,0.091,0.627,0.147,0.937c0.403,2.196,1.176,4.001,2.329,5.444c1.15,1.443,2.767,2.165,4.84,2.165
			c1.731,0,3.3-0.377,4.716-1.128c1.412-0.746,2.657-1.684,3.759-2.801c1.085-1.133,2.02-2.371,2.812-3.728
			c0.331-0.573,0.635-1.142,0.922-1.704c0.109,1.43,0.3,2.722,0.581,3.869c0.343,1.408,0.858,2.553,1.566,3.41
			c0.688,0.865,1.582,1.305,2.668,1.305c1.681,0,3.109-0.634,4.329-1.906c1.202-1.273,2.241-2.768,3.112-4.485
			c0.857-1.735,1.581-3.524,2.15-5.362c0.583-1.844,1.047-3.34,1.39-4.496c0.174-0.523,0.128-0.934-0.127-1.258
			c-0.258-0.308-0.586-0.514-0.952-0.601c-0.373-0.087-0.758-0.044-1.171,0.129c-0.394,0.169-0.652,0.515-0.775,1.034
			c-0.171,0.463-0.514,1.346-1.03,2.638c-0.534,1.3-1.102,2.63-1.737,3.971c-0.637,1.357-1.245,2.551-1.86,3.592
			c-0.609,1.042-1.081,1.556-1.425,1.556c-0.394,0-0.66-0.727-0.772-2.208c-0.123-1.462-0.158-3.303-0.086-5.521
			C153.803,59.833,153.924,57.46,154.096,54.956z M116.729,53.242c0.84-1.608,1.616-2.514,2.346-2.726
			c0.419-0.144,0.806,0.072,1.162,0.635c0.375,0.576,0.623,1.289,0.794,2.145c0.156,0.853,0.17,1.694,0.08,2.504
			c-0.111,0.826-0.377,1.45-0.795,1.877c-0.509,0.572-1.352,0.946-2.501,1.117c-1.132,0.182-2.282,0.266-3.433,0.266
			C115.111,56.785,115.887,54.839,116.729,53.242z M135.885,53.229c0.817-1.601,1.593-2.503,2.319-2.713
			c0.4-0.144,0.79,0.072,1.149,0.633c0.364,0.571,0.613,1.279,0.767,2.133c0.154,0.849,0.187,1.684,0.079,2.49
			c-0.092,0.822-0.358,1.442-0.768,1.866c-0.514,0.568-1.336,0.94-2.47,1.114c-1.133,0.18-2.26,0.261-3.395,0.261
			C134.287,56.755,135.053,54.817,135.885,53.229z"/>
		<path d="M198.792,49.933c0.607,0,1.142,0,1.604,0c0.918,0,4.33-0.729,4.818-1.07c0.494-0.346,0.735-1.167,0.735-1.167
			s-8.352-1.187-8.92-1.136c0.107-2.934,0.327-4.992,0.644-6.172c0.316-1.186,0.731-1.778,1.252-1.778
			c0.633,0,1.873,0.671,1.806,2.231c-0.08,1.839-0.264,4.523,0.4,4.387c0.659-0.146,1.295-0.465,1.899-0.953
			c0.607-0.489,0.962-1.135,1.081-1.945c0.114-0.694,0.1-1.424-0.042-2.209c-0.147-0.773-0.432-1.494-0.866-2.156
			c-0.433-0.662-1.009-1.193-1.73-1.6c-0.723-0.402-1.572-0.573-2.549-0.514c-2.306,0.172-4.007,1.031-5.094,2.586
			c-1.101,1.556-1.873,4.352-2.338,8.387h-1.903c-1.036,0-1.782,0.174-2.238,0.52c-0.465,0.344-0.681,0.723-0.655,1.122
			c0.026,0.405,4.815,1.589,4.815,1.589c-0.231,3.23-0.08,6.455-1.679,11.729l-1.03,3.061c-0.192,0.533-0.388,1.067-0.593,1.604
			c-0.463,1.209-0.934,2.244-1.415,3.136c-0.499,0.894-0.909,1.332-1.255,1.332c-0.52,0-0.843-0.517-0.992-1.545
			c-0.135-1.029-0.177-2.263-0.127-3.704c0.06-1.42,0.189-2.914,0.384-4.469c0.206-1.549,0.421-2.834,0.649-3.867
			c0.174-0.921-0.057-1.693-0.69-2.328c-0.626-0.629-1.371-0.996-2.229-1.113c-0.859-0.118-1.656,0.086-2.377,0.6
			c-0.709,0.514-1.07,1.463-1.07,2.842c0,1.836-0.073,3.717-0.213,5.635c-0.137,1.924-0.161,3.7-0.042,5.334
			c0.121,1.629,0.504,3.069,1.157,4.305c0.669,1.234,1.772,2.078,3.318,2.529c0.557,0.154,1.357,0.15,2.111,0.032
			c0.181-0.003,0.62-0.047,1.247-0.326c0.145-0.06,0.277-0.122,0.393-0.19c0.018-0.011,0.032-0.02,0.049-0.031
			c1.86-1.034,4.919-4.01,7.896-12.529c1.367-3.908,1.735-9.184,1.852-12.066C197.544,49.964,198.19,49.933,198.792,49.933z"/>
		<path d="M179.858,49.804c0.218,0.397,0.496,0.713,0.825,0.946c0.328,0.237,0.71,0.36,1.14,0.363c0.83,0.032,1.5-0.358,2.018-1.169
			c0.519-0.807,0.79-1.782,0.803-2.922c0.013-1.135-0.214-2.092-0.686-2.86c-0.468-0.778-1.132-1.159-1.996-1.168
			c-0.825-0.028-1.464,0.388-1.939,1.241c-0.479,0.855-0.74,1.767-0.797,2.746c-0.023,0.502,0.032,1.002,0.137,1.496
			C179.469,48.97,179.637,49.409,179.858,49.804z"/>
		<path d="M214.554,66.175c-0.303-0.119-3.607,2.639-4.513,3.561c-0.901,0.912-1.804,1.685-2.707,2.324
			c-0.905,0.64-1.797,1.107-2.682,1.4c-0.882,0.289-1.648,0.252-2.29-0.1c-0.501-0.275-0.833-0.717-1.003-1.359
			c-0.172-0.641-0.235-1.4-0.192-2.282c0.042-0.865,0.178-1.834,0.427-2.872c0.242-1.06,1.22-3.789,1.22-3.789l2.091,0.547
			c0,0,1.276,0.26,2.064,0.171c0.789-0.085,1.536-0.25,2.249-0.495c0.707-0.23,1.333-0.604,1.878-1.091
			c0.667-0.583,1.086-1.484,1.255-2.718c0.169-1.234,0.112-2.482-0.179-3.75c-0.289-1.276-0.831-2.445-1.629-3.518
			c-0.802-1.07-1.83-1.742-3.104-2c-1.319-0.271-2.653,0.145-4.008,1.24c-1.357,1.102-2.598,2.574-3.72,4.443
			c-1.127,1.859-2.042,3.917-2.757,6.156c-0.706,2.252-1.077,4.422-1.119,6.508c-0.044,2.087,0.325,3.888,1.11,5.424
			c0.785,1.535,2.13,2.509,4.031,2.897c1.584,0.33,3.093,0.274,4.533-0.139c1.431-0.424,2.758-1.054,3.971-1.872
			c1.215-0.824,2.006-1.836,2.975-2.936C213.422,70.831,214.862,66.292,214.554,66.175z M206.907,56.757
			c0.959-1.436,1.739-2.195,2.343-2.289c0.353-0.076,0.612,0.199,0.772,0.812c0.17,0.614,0.228,1.347,0.182,2.212
			c-0.056,0.861-0.203,1.683-0.444,2.464c-0.249,0.784-0.579,1.356-0.977,1.7c-0.52,0.485-4.29-0.715-4.29-0.715
			S205.936,58.193,206.907,56.757z"/>
	</g>
</g>
</svg>
