<?xml version="1.0" encoding="utf-8"?>
<!-- Generator: Adobe Illustrator 16.0.4, SVG Export Plug-In . SVG Version: 6.00 Build 0)  -->
<!DOCTYPE svg PUBLIC "-//W3C//DTD SVG 1.1//EN" "http://www.w3.org/Graphics/SVG/1.1/DTD/svg11.dtd">
<svg version="1.1" id="Livello_1" xmlns="http://www.w3.org/2000/svg" xmlns:xlink="http://www.w3.org/1999/xlink" x="0px" y="0px"
	 width="225.205px" height="214.48px" viewBox="0 0 225.205 214.48" enable-background="new 0 0 225.205 214.48"
	 xml:space="preserve">
<g>
	<circle fill="#FFFFFF" stroke="#4DAF4F" stroke-width="4" stroke-miterlimit="10" cx="109.762" cy="104.724" r="82.153"/>
	<path fill="#9A9898" d="M99.097,31.501c-7.637,1.504-14.855,4.161-21.472,7.785L97.919,82h1.809l10.134-27.842L99.097,31.501z"/>
	<path fill="#C0C0C0" d="M111.074,96.231c-9.468,0-17.142-4.693-17.142-10.482s7.674-10.48,17.142-10.48
		c9.469,0,17.143,4.691,17.143,10.48S120.542,96.231,111.074,96.231z M111.074,71.075c-13.251,0-23.999,6.57-23.999,14.674
		s10.748,14.676,23.999,14.676c13.252,0,23.999-6.572,23.999-14.676S124.326,71.075,111.074,71.075z"/>
	<g>
		<path fill="#C0C0C0" d="M110.347,88.938c-21.521,0-38.973,17.57-38.973,39.238c0,21.666,17.452,39.238,38.973,39.238
			c21.52,0,38.974-17.572,38.974-39.238C149.321,106.509,131.867,88.938,110.347,88.938z M110.347,156.204
			c-15.376,0-27.838-12.549-27.838-28.027c0-15.48,12.462-28.027,27.838-28.027c15.377,0,27.838,12.547,27.838,28.027
			C138.185,143.655,125.724,156.204,110.347,156.204z"/>
		<g>
			<path fill="#9A9898" d="M110.355,89.088c0,0-0.958,0.046-2.756,0.133c-0.447,0.033-0.955,0.018-1.499,0.1
				c-0.544,0.082-1.137,0.171-1.779,0.268c-0.639,0.109-1.336,0.174-2.062,0.338c-0.721,0.188-1.487,0.389-2.297,0.601
				c-3.197,0.929-7.064,2.378-10.887,5.059c-3.833,2.615-7.735,6.273-10.794,11.091c-3.037,4.809-5.27,10.697-5.952,17.15
				c-0.114,0.802-0.083,1.623-0.133,2.441c-0.007,0.808-0.116,1.671-0.041,2.446c0.118,1.681,0.118,3.432,0.46,5.06
				c0.417,3.328,1.525,6.683,2.893,9.901c0.385,0.79,0.772,1.584,1.161,2.381c0.388,0.797,0.909,1.524,1.359,2.295l0.7,1.143
				c0.25,0.371,0.535,0.719,0.801,1.081c0.55,0.71,1.065,1.451,1.646,2.143c2.349,2.752,5.115,5.176,8.147,7.255
				c3.085,2.014,6.478,3.559,10.016,4.678c3.543,1.044,7.349,1.504,10.947,1.567c3.927-0.134,7.438-0.652,11.013-1.75
				c3.501-1.175,6.84-2.767,9.859-4.811c2.97-2.11,5.65-4.557,7.934-7.295c2.196-2.799,4.107-5.779,5.459-8.966
				c1.332-3.176,2.406-6.438,2.808-9.749c0.333-1.637,0.318-3.293,0.431-4.917l0.03-0.536l-0.023-0.631l-0.047-1.257
				c-0.049-0.823-0.021-1.692-0.133-2.462c-0.108-0.771-0.215-1.538-0.322-2.299c-0.059-0.382-0.088-0.763-0.17-1.141l-0.269-1.132
				c-0.174-0.754-0.348-1.502-0.52-2.245c-0.22-0.729-0.482-1.438-0.717-2.151c-0.939-2.856-2.279-5.455-3.696-7.875
				c-2.954-4.782-6.746-8.462-10.497-11.125c-3.742-2.727-7.563-4.231-10.733-5.207c-0.804-0.224-1.564-0.435-2.281-0.634
				c-0.722-0.174-1.417-0.248-2.055-0.365c-0.64-0.105-1.232-0.203-1.775-0.293c-0.543-0.089-1.046-0.08-1.492-0.119
				c-1.788-0.11-2.742-0.169-2.742-0.169L110.355,89.088z M110.347,88.788c0,0,0.963,0.039,2.768,0.111
				c0.451,0.031,0.959,0.011,1.509,0.089c0.55,0.079,1.151,0.164,1.8,0.257c0.646,0.104,1.353,0.166,2.087,0.326
				c0.732,0.176,1.51,0.363,2.332,0.561c3.248,0.881,7.197,2.239,11.216,4.791c4.011,2.518,8.172,6.098,11.58,10.941
				c3.391,4.857,5.975,10.864,6.858,17.788c0.139,0.861,0.128,1.662,0.201,2.505l0.079,1.255l0.04,0.631
				c-0.001-0.041,0.007,0.144,0.004,0.155l-0.003,0.082l-0.008,0.164l-0.015,0.328c-0.101,1.752-0.083,3.538-0.422,5.31
				c-0.414,3.579-1.538,7.121-2.96,10.57c-0.408,0.842-0.817,1.688-1.228,2.536c-0.413,0.848-0.961,1.625-1.438,2.444L144,150.85
				c-0.265,0.395-0.565,0.767-0.848,1.152c-0.582,0.757-1.131,1.545-1.747,2.281c-2.487,2.939-5.44,5.511-8.671,7.718
				c-3.286,2.139-6.9,3.782-10.671,4.965c-3.762,1.106-7.907,1.605-11.655,1.647l-3.022-0.169c-0.99-0.018-1.964-0.195-2.938-0.354
				l-1.461-0.236l-0.73-0.119l-0.715-0.189l-2.854-0.762c-3.734-1.237-7.294-2.928-10.514-5.098
				c-3.168-2.237-6.037-4.831-8.458-7.756c-0.599-0.733-1.13-1.519-1.694-2.271c-0.273-0.383-0.565-0.753-0.821-1.146l-0.718-1.207
				c-0.46-0.813-0.991-1.584-1.386-2.423c-0.394-0.84-0.787-1.676-1.178-2.508c-1.386-3.407-2.476-6.857-2.874-10.42
				c-0.331-1.78-0.298-3.471-0.394-5.166c-0.006-0.229-0.023-0.384-0.022-0.672l0.04-0.643l0.08-1.278
				c0.072-0.848,0.064-1.696,0.201-2.524c0.869-6.665,3.317-12.68,6.6-17.482c3.302-4.809,7.353-8.41,11.282-10.976
				c3.938-2.597,7.841-4.011,11.062-4.939c0.816-0.209,1.588-0.407,2.315-0.594c0.73-0.17,1.435-0.241,2.08-0.354
				c0.648-0.102,1.247-0.195,1.796-0.281c0.549-0.085,1.053-0.072,1.501-0.108c1.796-0.098,2.754-0.148,2.754-0.148L110.347,88.788z
				"/>
			<path fill="#9A9898" d="M110.339,156.354c0,0-0.684-0.037-1.967-0.107c-0.321-0.027-0.68-0.018-1.073-0.079
				c-0.393-0.062-0.822-0.13-1.286-0.203c-0.462-0.081-0.966-0.133-1.488-0.254c-0.52-0.134-1.072-0.274-1.656-0.424
				c-2.304-0.663-5.098-1.668-7.927-3.511c-2.821-1.825-5.736-4.39-8.129-7.823c-2.38-3.43-4.159-7.744-4.806-12.535
				c-0.101-0.596-0.099-1.206-0.153-1.815c-0.021-0.623-0.127-1.199-0.077-1.873c0.064-1.214,0.037-2.412,0.271-3.706
				c0.282-2.578,1.057-5.056,2.049-7.517c1.026-2.449,2.479-4.745,4.16-6.899c1.74-2.114,3.803-3.991,6.086-5.611
				c2.32-1.572,4.887-2.8,7.583-3.7c1.371-0.371,2.739-0.781,4.159-0.955c0.704-0.117,1.408-0.246,2.123-0.262l2.201-0.127
				c2.651,0.018,5.702,0.37,8.417,1.161c2.732,0.845,5.354,2.026,7.739,3.567c2.346,1.59,4.495,3.444,6.3,5.573
				c1.749,2.164,3.277,4.483,4.367,6.975c1.028,2.504,1.838,5.073,2.135,7.669c0.243,1.284,0.229,2.578,0.3,3.848l0.01,0.238
				l0.005,0.119l0.003,0.06l-0.004,0.133l-0.031,0.45l-0.061,0.896c-0.055,0.604-0.05,1.168-0.152,1.796
				c-0.662,5.05-2.576,9.357-5.063,12.842c-2.499,3.469-5.524,6.013-8.427,7.789c-2.91,1.798-5.75,2.747-8.081,3.362
				c-0.59,0.138-1.148,0.268-1.673,0.39c-0.526,0.112-1.032,0.154-1.496,0.228c-0.465,0.064-0.895,0.124-1.289,0.178
				c-0.394,0.055-0.758,0.039-1.08,0.06c-1.292,0.046-1.98,0.071-1.98,0.071L110.339,156.354z M110.347,156.054
				c0,0,0.68-0.044,1.956-0.129c0.317-0.029,0.676-0.024,1.062-0.089c0.387-0.065,0.809-0.137,1.265-0.215
				c0.454-0.085,0.949-0.141,1.463-0.266c0.509-0.146,1.05-0.301,1.622-0.464c2.254-0.71,4.965-1.806,7.599-3.778
				c2.642-1.922,5.298-4.564,7.343-7.973c0.982-1.723,1.897-3.571,2.544-5.59c0.161-0.504,0.341-1.006,0.491-1.521
				c0.116-0.524,0.233-1.053,0.351-1.585c0.296-1.064,0.337-2.124,0.514-3.201c0.076-0.537,0.054-1.167,0.086-1.752l0.029-0.898
				l0.014-0.451c0.002-0.086,0,0.054-0.001,0.02l-0.003-0.053l-0.006-0.107l-0.012-0.214c-0.082-1.142-0.072-2.307-0.309-3.457
				c-0.285-2.327-1.045-4.617-1.983-6.847c-0.945-2.24-2.282-4.338-3.821-6.311c-1.602-1.927-3.478-3.656-5.562-5.148
				c-2.119-1.447-4.464-2.576-6.927-3.414c-2.526-0.782-4.944-1.154-7.775-1.264c-2.502,0.038-5.213,0.353-7.709,1.081
				c-2.5,0.782-4.899,1.865-7.083,3.28c-2.147,1.463-4.108,3.17-5.776,5.111c-1.608,1.982-3.019,4.104-4.029,6.385
				c-0.974,2.273-1.768,4.655-2.068,6.999c-0.246,1.142-0.25,2.401-0.338,3.6c-0.055,0.534,0.019,1.157,0.021,1.727
				c0.032,0.58,0.007,1.163,0.085,1.732c0.46,4.579,2.024,8.767,4.158,12.203c2.15,3.442,4.917,6.063,7.641,7.939
				c2.714,1.926,5.471,2.966,7.752,3.63c0.577,0.15,1.124,0.294,1.638,0.429c0.518,0.116,1.015,0.162,1.471,0.239
				c0.457,0.068,0.88,0.132,1.268,0.189s0.751,0.046,1.07,0.07c1.284,0.06,1.969,0.092,1.969,0.092L110.347,156.054z"/>
		</g>
	</g>
	<g>
		<circle fill="#C0C0C0" cx="110.348" cy="127.896" r="30.438"/>
		<path fill="#8C8C8C" d="M140.936,127.903c0,0-0.032,0.746-0.092,2.146c-0.024,0.35-0.011,0.74-0.071,1.17
			c-0.062,0.43-0.13,0.898-0.203,1.404c-0.085,0.505-0.129,1.058-0.238,1.634c-0.131,0.571-0.271,1.179-0.419,1.821
			c-0.075,0.321-0.152,0.65-0.231,0.989c-0.111,0.329-0.225,0.667-0.341,1.012c-0.238,0.688-0.423,1.439-0.737,2.172
			c-0.317,0.735-0.648,1.5-0.991,2.293c-0.392,0.771-0.833,1.552-1.275,2.373c-1.901,3.182-4.622,6.55-8.418,9.273
			c-3.785,2.71-8.646,4.662-13.977,5.241c-0.663,0.091-1.341,0.064-2.017,0.102l-1.019,0.031l-0.511,0.016l-0.126-0.001
			l-0.062-0.005l-0.123-0.008l-0.247-0.018c-1.32-0.122-2.616-0.159-4.045-0.479c-2.826-0.438-5.488-1.41-8.101-2.622
			c-2.607-1.233-4.982-2.954-7.234-4.821c-2.196-1.951-4.152-4.19-5.845-6.649c-1.65-2.491-2.947-5.229-3.928-8.096
			c-0.951-2.885-1.438-5.92-1.596-8.986c0.057-1.589-0.036-2.979,0.218-4.575c0.125-1.574,0.497-3.067,0.838-4.574
			c0.878-2.957,2.109-5.811,3.748-8.411c1.688-2.562,3.699-4.886,5.981-6.866c2.325-1.918,4.822-3.604,7.515-4.808
			c2.686-1.188,5.481-2.084,8.3-2.431c1.397-0.273,2.805-0.275,4.188-0.354l0.259-0.01l0.129-0.005l0.065-0.003l0.143,0.005
			l0.491,0.029l0.977,0.06c0.659,0.056,1.272,0.044,1.958,0.153c1.354,0.241,2.747,0.364,3.985,0.758
			c0.632,0.17,1.26,0.339,1.883,0.506c0.609,0.208,1.2,0.459,1.791,0.685c1.199,0.415,2.285,1.033,3.375,1.578
			c0.556,0.252,1.046,0.61,1.548,0.935c0.498,0.327,0.99,0.652,1.478,0.974c3.789,2.753,6.505,6.128,8.402,9.317
			c1.927,3.201,2.909,6.31,3.571,8.851c0.146,0.643,0.286,1.251,0.416,1.823c0.109,0.575,0.151,1.126,0.235,1.63
			c0.072,0.506,0.138,0.974,0.199,1.402c0.058,0.429,0.044,0.824,0.068,1.176c0.056,1.406,0.086,2.156,0.086,2.156V127.903z
			 M140.636,127.896c0,0-0.045-0.741-0.13-2.133c-0.03-0.347-0.024-0.737-0.091-1.159c-0.069-0.423-0.145-0.883-0.226-1.381
			c-0.086-0.497-0.155-1.036-0.296-1.596c-0.159-0.555-0.329-1.145-0.507-1.769c-0.761-2.462-1.998-5.404-4.147-8.264
			c-2.104-2.874-5.014-5.708-8.685-7.955c-1.87-1.06-3.839-2.12-6.028-2.838c-0.544-0.184-1.092-0.369-1.645-0.557
			c-0.566-0.139-1.138-0.278-1.713-0.419c-1.153-0.345-2.307-0.396-3.478-0.6c-0.583-0.091-1.271-0.069-1.908-0.11l-0.978-0.039
			l-0.491-0.02c-0.093-0.002,0.057-0.001,0.02,0.001l-0.058,0.004l-0.117,0.008l-0.234,0.015c-1.245,0.086-2.516,0.063-3.771,0.315
			c-2.542,0.298-5.042,1.12-7.502,2.102c-2.459,1.021-4.755,2.494-6.918,4.181c-2.129,1.743-3.989,3.837-5.638,6.116
			c-1.607,2.314-2.857,4.891-3.798,7.598l-0.608,2.067c-0.239,0.689-0.29,1.388-0.448,2.086c-0.335,1.342-0.357,2.956-0.508,4.346
			c-0.017,2.907,0.268,5.833,1.024,8.662c0.838,2.796,2.023,5.489,3.619,7.913c0.395,0.606,0.85,1.171,1.281,1.748
			c0.223,0.283,0.424,0.583,0.664,0.852l0.731,0.792c0.502,0.512,0.938,1.087,1.489,1.543l1.608,1.399
			c2.236,1.736,4.655,3.174,7.2,4.167c2.533,0.957,5.167,1.702,7.702,1.908c1.225,0.208,2.607,0.148,3.915,0.192l0.247,0.008
			l0.124,0.004l0.062,0.002c0.035,0.002-0.08-0.005-0.003-0.005l0.471-0.034l0.937-0.066c0.621-0.06,1.243-0.053,1.848-0.162
			c4.879-0.641,9.272-2.365,12.947-4.606c3.664-2.276,6.568-5.118,8.668-8c2.148-2.864,3.387-5.809,4.144-8.274
			c0.178-0.624,0.346-1.214,0.504-1.77c0.14-0.56,0.208-1.097,0.292-1.593c0.08-0.497,0.154-0.957,0.222-1.378
			c0.065-0.422,0.059-0.818,0.088-1.166c0.081-1.397,0.124-2.144,0.124-2.144V127.896z"/>
	</g>
	<g id="Livello_10_37_">
		<g>
			<path fill="#8B8B8B" d="M99.983,119.076c-5.628,5.994-3.366,12.54-2.442,14.933c5.721-13.231,18.956-16.387,18.956-16.387
				s-16.69,11.828-18.411,26.625c-0.134,1.168,2.695,1.84,2.901,0.445c0.632-4.158,2.181-7.578,2.181-7.578
				c3.805,0.363,10.174,0.25,13.515-4.006c4.436-5.657,1.319-14.554,8.058-21.206C126.309,110.351,107.61,110.958,99.983,119.076z"
				/>
		</g>
	</g>
	<path fill="#9A9898" d="M118.567,29.652l-8.705,23.921L99.728,81.415L99.514,82h25.169l17.136-47.076
		C134.56,31.998,126.742,30.173,118.567,29.652z"/>
	<circle fill="none" stroke="#4DAF4F" stroke-width="5" stroke-miterlimit="10" cx="109.762" cy="104.724" r="75.216"/>
	<g>
		<g>
			<path fill="#4DAF4E" stroke="#4DAF4F" stroke-width="3" stroke-miterlimit="10" d="M215.119,162.837
				c-6.562-1.224-12.94-2.78-19.114-4.636c2.933-6.103,5.539-12.271,7.816-18.473c-51.882,29.431-114.491,32.079-168.395,7.787
				c-4.848-2.195-9.624-4.608-14.315-7.239c2.547,6.378,5.444,12.724,8.695,19c-5.81,1.722-11.798,3.167-17.945,4.31
				C75.104,198.511,152.022,198.275,215.119,162.837L215.119,162.837L215.119,162.837z"/>
		</g>
	</g>
	<g>
		<g>
			<path fill="#FFFFFF" d="M31.062,164.652c1.519,0.513,3.041,1.011,4.564,1.496c0.429,0.138,0.789,0.117,1.079-0.056
				c0.291-0.174,0.611-0.647,0.959-1.42c0.326,0.102,0.652,0.201,0.978,0.302c-0.407,1.362-0.813,2.725-1.22,4.086
				c-3.025-0.932-6.042-1.923-9.048-2.97c0.062-0.247,0.124-0.496,0.186-0.742c0.65-0.502,1.861-1.197,3.613-2.106
				c1.551-0.811,2.573-1.473,3.08-1.966c0.698-0.67,1.143-1.427,1.34-2.275c0.171-0.731,0.119-1.348-0.154-1.845
				c-0.273-0.495-0.723-0.847-1.351-1.053c-0.636-0.21-1.201-0.23-1.7-0.066c-0.499,0.165-0.79,0.41-0.872,0.736
				c-0.033,0.132-0.011,0.252,0.068,0.359c0.076,0.112,0.284,0.271,0.626,0.473c0.733,0.444,1.033,0.96,0.891,1.547
				c-0.096,0.396-0.326,0.672-0.689,0.828c-0.365,0.155-0.774,0.157-1.229,0.003c-0.473-0.16-0.823-0.47-1.045-0.93
				c-0.223-0.459-0.251-1.01-0.09-1.652c0.226-0.895,0.743-1.526,1.546-1.909c0.986-0.467,2.162-0.474,3.536-0.026
				c1.228,0.401,2.147,1.019,2.766,1.875c0.617,0.854,0.827,1.732,0.624,2.642c-0.108,0.483-0.301,0.9-0.581,1.248
				c-0.376,0.471-0.825,0.854-1.347,1.149c-0.522,0.295-1.363,0.607-2.531,0.931c-1.264,0.343-2.142,0.593-2.625,0.758
				C31.952,164.236,31.495,164.432,31.062,164.652z"/>
			<path fill="#FFFFFF" d="M52.56,172.443c-0.047,0.273-0.094,0.548-0.142,0.82c-1.891-0.462-3.78-0.945-5.667-1.452
				c0.052-0.271,0.104-0.543,0.155-0.815c0.197,0.053,0.395,0.106,0.592,0.159c0.315,0.083,0.561,0.074,0.742-0.026
				c0.18-0.1,0.294-0.285,0.344-0.553c0.221-1.188,0.443-2.375,0.666-3.564c0.114-0.607,0.046-1.115-0.203-1.522
				c-0.249-0.405-0.624-0.674-1.126-0.81c-0.685-0.183-1.288-0.108-1.811,0.232c-0.521,0.338-0.872,0.948-1.048,1.827
				c-0.182,0.913-0.364,1.826-0.546,2.737c-0.053,0.27-0.016,0.494,0.114,0.678c0.128,0.182,0.318,0.31,0.564,0.377
				c0.237,0.065,0.474,0.131,0.71,0.194c-0.052,0.271-0.105,0.543-0.157,0.815c-1.958-0.533-3.914-1.092-5.866-1.671
				c0.057-0.271,0.114-0.541,0.172-0.811c0.253,0.075,0.506,0.149,0.759,0.224c0.294,0.087,0.529,0.084,0.708-0.014
				c0.179-0.095,0.295-0.276,0.351-0.545c0.335-1.619,0.672-3.238,1.011-4.857c0.059-0.279-0.001-0.533-0.178-0.759
				c-0.178-0.228-0.44-0.393-0.785-0.494c-0.13-0.038-0.261-0.076-0.391-0.116c0.054-0.251,0.108-0.504,0.162-0.757
				c1.286,0.316,2.573,0.621,3.86,0.916c0.036,0.538,0.02,1.163-0.047,1.88c0.666-0.499,1.332-0.826,2.001-0.983
				c0.669-0.157,1.338-0.148,2.009,0.027c0.913,0.238,1.582,0.696,2.011,1.374c0.423,0.677,0.55,1.503,0.376,2.475
				c-0.228,1.273-0.455,2.547-0.682,3.82c-0.052,0.292-0.012,0.522,0.119,0.691c0.13,0.166,0.364,0.293,0.699,0.374
				C52.211,172.358,52.386,172.401,52.56,172.443z"/>
			<path fill="#FFFFFF" d="M61.728,161.794c1.516,0.267,3.031,0.519,4.548,0.755c-0.509,3.628-1.012,7.256-1.509,10.886
				c-0.077,0.558-0.086,0.94-0.027,1.148c0.057,0.209,0.168,0.374,0.331,0.494c0.164,0.119,0.496,0.228,0.994,0.321
				c-0.036,0.263-0.07,0.527-0.105,0.791c-1.305-0.209-2.609-0.428-3.913-0.657c-0.018-0.56-0.034-1.115-0.05-1.673
				c-0.69,0.557-1.294,0.899-1.809,1.021c-0.516,0.122-1.135,0.106-1.855-0.053c-1.294-0.284-2.288-0.905-2.976-1.854
				c-0.687-0.949-0.916-2.073-0.696-3.373c0.243-1.436,0.86-2.473,1.842-3.12c0.982-0.646,2.093-0.832,3.339-0.56
				c0.669,0.146,1.245,0.403,1.728,0.778c0.483,0.371,0.895,0.898,1.238,1.578c0.184-1.26,0.37-2.523,0.556-3.783
				c0.066-0.449,0.068-0.781,0.006-0.994c-0.062-0.214-0.165-0.375-0.306-0.479c-0.142-0.104-0.451-0.207-0.925-0.307
				c-0.179-0.038-0.357-0.075-0.536-0.112C61.645,162.332,61.687,162.063,61.728,161.794z M60.562,167.257
				c-0.764-0.164-1.38,0.013-1.852,0.53c-0.389,0.422-0.669,1.164-0.84,2.229c-0.142,0.893-0.16,1.577-0.055,2.056
				c0.103,0.479,0.302,0.858,0.594,1.146c0.292,0.286,0.646,0.476,1.063,0.566c0.685,0.147,1.275,0.007,1.767-0.421
				c0.657-0.559,1.059-1.366,1.212-2.42c0.142-0.979,0.016-1.802-0.374-2.477C61.686,167.791,61.182,167.391,60.562,167.257z"/>
			<path fill="#FFFFFF" d="M79.879,169.442c1.037,0.14,1.972,0.463,2.807,0.979c0.836,0.514,1.441,1.123,1.815,1.826
				c0.373,0.706,0.525,1.521,0.452,2.444c-0.116,1.475-0.769,2.545-1.969,3.198c-1.2,0.653-2.523,0.883-3.963,0.688
				c-1.017-0.137-1.929-0.472-2.731-0.999c-0.801-0.527-1.391-1.168-1.768-1.921c-0.377-0.751-0.516-1.561-0.421-2.417
				c0.144-1.294,0.769-2.298,1.867-3.021C77.064,169.494,78.365,169.237,79.879,169.442z M79.856,170.303
				c-0.688-0.093-1.264,0.104-1.727,0.594c-0.462,0.488-0.766,1.421-0.906,2.795c-0.145,1.428-0.04,2.441,0.32,3.041
				c0.358,0.598,0.89,0.947,1.595,1.044c0.718,0.095,1.323-0.106,1.812-0.607c0.488-0.499,0.79-1.435,0.91-2.8
				c0.123-1.401-0.005-2.406-0.379-3.014C81.106,170.748,80.565,170.396,79.856,170.303z"/>
			<path fill="#FFFFFF" d="M91.288,171.18c0.796,0.07,1.593,0.137,2.389,0.199c-0.018,0.325-0.036,0.65-0.053,0.975
				c-0.799-0.062-1.598-0.128-2.396-0.199c-0.124,2.002-0.247,4.006-0.369,6.009c-0.015,0.232,0.026,0.399,0.123,0.5
				c0.095,0.099,0.277,0.158,0.54,0.182c0.561,0.049,1.12,0.096,1.68,0.14c-0.015,0.28-0.031,0.561-0.046,0.841
				c-2.298-0.183-4.594-0.398-6.89-0.643c0.021-0.277,0.041-0.558,0.062-0.838c0.329,0.035,0.658,0.07,0.986,0.104
				c0.297,0.029,0.507,0.002,0.629-0.082s0.19-0.238,0.205-0.459c0.137-2.001,0.276-4.001,0.415-6.003
				c-0.535-0.052-1.07-0.107-1.605-0.163c0.025-0.325,0.049-0.648,0.073-0.973c0.534,0.057,1.067,0.111,1.601,0.163
				c0.008-0.113,0.017-0.227,0.024-0.341c0.079-1.129,0.324-2.031,0.731-2.715c0.407-0.682,0.945-1.168,1.612-1.457
				c0.666-0.29,1.47-0.396,2.412-0.321c0.875,0.07,1.542,0.315,2.004,0.741c0.461,0.425,0.679,0.931,0.65,1.514
				c-0.023,0.466-0.191,0.835-0.506,1.112c-0.316,0.277-0.682,0.398-1.099,0.368c-0.39-0.029-0.71-0.172-0.96-0.423
				c-0.252-0.254-0.367-0.553-0.347-0.898c0.021-0.355,0.236-0.649,0.645-0.885c0.197-0.117,0.299-0.227,0.304-0.323
				c0.004-0.082-0.041-0.157-0.137-0.22c-0.146-0.094-0.343-0.153-0.592-0.173c-0.329-0.026-0.637,0.04-0.926,0.205
				c-0.29,0.163-0.511,0.408-0.664,0.732c-0.221,0.483-0.35,1.004-0.384,1.562C91.361,170.002,91.324,170.592,91.288,171.18z"/>
			<path fill="#FFFFFF" d="M103.881,168.477c0.292,0.012,0.585,0.021,0.878,0.032c-0.027,1.162-0.055,2.324-0.081,3.487
				c1.026,0.035,2.053,0.063,3.08,0.085c-0.004,0.327-0.009,0.653-0.014,0.979c-1.029-0.021-2.059-0.051-3.088-0.085
				c-0.042,1.796-0.083,3.592-0.125,5.388c-0.008,0.355,0.087,0.636,0.288,0.84c0.199,0.204,0.466,0.309,0.8,0.319
				c0.955,0.029,1.473-0.748,1.549-2.322c0.3,0.007,0.601,0.014,0.901,0.02c-0.031,0.84-0.188,1.511-0.474,2.016
				c-0.286,0.506-0.69,0.89-1.215,1.153c-0.526,0.264-1.117,0.386-1.771,0.362c-0.572-0.021-1.066-0.141-1.479-0.363
				c-0.413-0.221-0.738-0.545-0.973-0.961c-0.237-0.419-0.346-0.868-0.332-1.344c0.053-1.738,0.106-3.477,0.16-5.213
				c-0.553-0.026-1.106-0.052-1.659-0.08c0.01-0.278,0.02-0.555,0.03-0.832c1.017-0.071,1.818-0.388,2.4-0.949
				C103.34,170.447,103.713,169.601,103.881,168.477z"/>
			<path fill="#FFFFFF" d="M109.402,167.189c1.449-0.045,2.897-0.104,4.344-0.177c0.007,2.202,0.013,4.403,0.02,6.604
				c0.672-0.751,1.288-1.266,1.851-1.549c0.562-0.279,1.177-0.427,1.849-0.438c0.929-0.017,1.643,0.224,2.146,0.726
				c0.571,0.578,0.87,1.407,0.894,2.491c0.03,1.343,0.059,2.684,0.088,4.028c0.005,0.278,0.081,0.479,0.225,0.606
				c0.145,0.127,0.353,0.186,0.623,0.176c0.218-0.006,0.438-0.015,0.657-0.021c0.007,0.281,0.015,0.563,0.022,0.845
				c-1.92,0.065-3.839,0.109-5.76,0.132c-0.002-0.282-0.006-0.564-0.009-0.845c0.208-0.004,0.416-0.005,0.623-0.009
				c0.345-0.005,0.58-0.064,0.7-0.183c0.167-0.151,0.249-0.368,0.245-0.639c-0.019-1.319-0.039-2.638-0.057-3.957
				c-0.009-0.568-0.184-1.017-0.525-1.348c-0.342-0.332-0.766-0.488-1.272-0.486c-0.626,0.008-1.164,0.251-1.617,0.73
				c-0.452,0.48-0.678,1.132-0.676,1.952c0.003,1.05,0.006,2.099,0.01,3.148c0.001,0.272,0.074,0.474,0.221,0.607
				c0.146,0.132,0.355,0.198,0.627,0.197c0.231-0.001,0.461-0.002,0.693-0.005c0.002,0.28,0.004,0.562,0.005,0.844
				c-1.98,0.016-3.961,0.005-5.942-0.024c0.003-0.281,0.005-0.562,0.008-0.844c0.275,0.005,0.55,0.008,0.825,0.012
				c0.292,0.004,0.513-0.062,0.663-0.201c0.151-0.136,0.227-0.337,0.228-0.596c0.015-3.327,0.03-6.656,0.045-9.983
				c0.001-0.29-0.098-0.518-0.298-0.688c-0.201-0.167-0.467-0.255-0.801-0.257c-0.22-0.003-0.44-0.006-0.661-0.01
				C109.396,167.751,109.399,167.469,109.402,167.189z"/>
			<path fill="#FFFFFF" d="M133.488,175.631c-2.204,0.177-4.409,0.324-6.615,0.443c0.069,1.189,0.371,2.055,0.911,2.591
				c0.542,0.535,1.22,0.778,2.034,0.728c0.583-0.037,1.128-0.22,1.634-0.547c0.507-0.327,1.012-0.894,1.514-1.698
				c0.255,0.117,0.509,0.233,0.764,0.351c-0.521,0.954-1.144,1.652-1.868,2.095c-0.722,0.446-1.624,0.705-2.7,0.77
				c-1.566,0.096-2.851-0.262-3.843-1.064c-0.993-0.801-1.506-1.871-1.546-3.193c-0.041-1.328,0.404-2.451,1.325-3.387
				c0.921-0.936,2.066-1.439,3.446-1.525c0.955-0.059,1.784,0.062,2.489,0.371c0.707,0.307,1.271,0.787,1.694,1.443
				C133.149,173.663,133.405,174.538,133.488,175.631z M126.84,175.248c1.048-0.057,2.094-0.119,3.142-0.189
				c0.294-0.02,0.501-0.101,0.622-0.241c0.12-0.143,0.173-0.39,0.155-0.739c-0.036-0.701-0.242-1.232-0.613-1.594
				c-0.371-0.36-0.828-0.524-1.371-0.487c-0.644,0.04-1.124,0.329-1.445,0.868C127.009,173.405,126.846,174.2,126.84,175.248z"/>
			<path fill="#FFFFFF" d="M139.062,165.834c1.944-0.206,3.887-0.436,5.828-0.688c0.027,0.281,0.054,0.562,0.081,0.841
				c-0.183,0.023-0.366,0.047-0.549,0.07c-0.347,0.046-0.577,0.112-0.691,0.202c-0.115,0.091-0.165,0.21-0.151,0.361
				c0.01,0.109,0.044,0.23,0.103,0.363c1.206,2.514,2.434,5.021,3.68,7.516c0.63-2.405,1.242-4.812,1.835-7.222
				c-0.186-0.369-0.372-0.739-0.557-1.108c-0.118-0.228-0.262-0.377-0.435-0.442c-0.228-0.088-0.519-0.109-0.872-0.06
				c-0.235,0.033-0.47,0.065-0.705,0.097c-0.028-0.279-0.057-0.559-0.084-0.841c2.237-0.306,4.473-0.644,6.706-1.012
				c0.034,0.28,0.067,0.558,0.101,0.839c-0.206,0.034-0.413,0.066-0.619,0.1c-0.451,0.074-0.751,0.171-0.901,0.292
				c-0.149,0.123-0.213,0.276-0.192,0.464c0.009,0.078,0.035,0.16,0.079,0.244c1.259,2.475,2.539,4.943,3.837,7.402
				c0.539-2.45,1.059-4.901,1.558-7.355c0.051-0.225,0.063-0.436,0.037-0.633c-0.048-0.368-0.192-0.63-0.43-0.791
				c-0.238-0.158-0.529-0.209-0.875-0.148c-0.137,0.024-0.274,0.049-0.411,0.071c-0.036-0.278-0.071-0.558-0.106-0.838
				c1.567-0.272,3.133-0.56,4.698-0.862c0.04,0.279,0.079,0.556,0.119,0.835c-0.519,0.112-0.918,0.304-1.199,0.576
				c-0.281,0.271-0.464,0.628-0.55,1.077c-0.825,4.058-1.704,8.115-2.635,12.165c-0.416,0.068-0.831,0.138-1.247,0.206
				c-1.545-2.926-3.063-5.864-4.554-8.814c-0.81,3.292-1.655,6.582-2.535,9.864c-0.413,0.055-0.827,0.108-1.24,0.163
				c-1.912-3.837-3.776-7.691-5.592-11.565c-0.113-0.243-0.25-0.405-0.408-0.488c-0.159-0.083-0.357-0.112-0.593-0.087
				c-0.154,0.017-0.309,0.032-0.463,0.049C139.105,166.396,139.084,166.114,139.062,165.834z"/>
			<path fill="#FFFFFF" d="M171.346,169.698c-2.18,0.513-4.362,0.993-6.549,1.446c0.199,1.175,0.594,1.992,1.191,2.443
				c0.598,0.451,1.301,0.59,2.107,0.414c0.578-0.128,1.102-0.391,1.571-0.794c0.47-0.402,0.913-1.044,1.326-1.921
				c0.267,0.077,0.533,0.156,0.8,0.232c-0.416,1.028-0.961,1.818-1.636,2.371c-0.672,0.553-1.543,0.946-2.61,1.176
				c-1.552,0.334-2.871,0.173-3.947-0.477c-1.077-0.647-1.703-1.634-1.888-2.944c-0.185-1.314,0.136-2.503,0.95-3.573
				c0.816-1.068,1.901-1.747,3.267-2.039c0.945-0.205,1.785-0.209,2.523-0.011c0.738,0.199,1.354,0.594,1.848,1.181
				C170.792,167.792,171.143,168.624,171.346,169.698z M164.675,170.327c1.037-0.215,2.074-0.437,3.111-0.665
				c0.291-0.063,0.489-0.177,0.594-0.334c0.104-0.163,0.129-0.413,0.073-0.761c-0.113-0.693-0.376-1.187-0.786-1.491
				c-0.41-0.303-0.883-0.396-1.421-0.278c-0.637,0.139-1.084,0.498-1.344,1.084C164.641,168.468,164.566,169.28,164.675,170.327z"/>
			<path fill="#FFFFFF" d="M183.034,166.664c-2.167,0.615-4.337,1.205-6.511,1.762c0.239,1.166,0.664,1.963,1.277,2.387
				c0.615,0.423,1.325,0.527,2.126,0.312c0.575-0.154,1.091-0.442,1.547-0.869c0.457-0.425,0.878-1.087,1.262-1.984
				c0.27,0.063,0.54,0.13,0.81,0.193c-0.38,1.049-0.9,1.866-1.557,2.45c-0.655,0.586-1.515,1.021-2.575,1.302
				c-1.544,0.409-2.871,0.309-3.973-0.286c-1.101-0.596-1.762-1.553-1.993-2.856c-0.23-1.306,0.049-2.508,0.827-3.618
				c0.78-1.108,1.844-1.838,3.201-2.198c0.939-0.248,1.781-0.295,2.527-0.131c0.747,0.164,1.377,0.527,1.894,1.092
				C182.412,164.785,182.793,165.599,183.034,166.664z M176.371,167.615c1.032-0.265,2.064-0.538,3.094-0.815
				c0.291-0.078,0.485-0.199,0.584-0.364c0.099-0.164,0.115-0.419,0.046-0.763c-0.138-0.689-0.418-1.171-0.839-1.455
				c-0.422-0.282-0.898-0.351-1.434-0.209c-0.633,0.169-1.068,0.55-1.308,1.148C176.273,165.757,176.226,166.575,176.371,167.615z"
				/>
			<path fill="#FFFFFF" d="M182.727,157.097c1.412-0.455,2.821-0.921,4.228-1.403c0.699,3.023,1.392,6.047,2.079,9.071
				c0.763-0.94,1.518-1.884,2.268-2.83c0.355-0.456,0.506-0.794,0.455-1.009c-0.032-0.136-0.148-0.222-0.347-0.269
				c-0.199-0.043-0.492-0.007-0.88,0.119c-0.106,0.036-0.213,0.069-0.319,0.104c-0.062-0.269-0.126-0.534-0.189-0.802
				c1.768-0.566,3.532-1.152,5.292-1.759c0.068,0.267,0.135,0.532,0.203,0.798c-0.562,0.212-0.989,0.426-1.281,0.642
				c-0.4,0.299-0.759,0.658-1.078,1.082c-0.42,0.554-0.841,1.109-1.266,1.661c1.458,1.009,2.929,2.004,4.413,2.988
				c0.357,0.229,0.731,0.273,1.122,0.139c0.165-0.056,0.331-0.113,0.497-0.172c0.068,0.273,0.137,0.544,0.207,0.817
				c-1.949,0.676-3.902,1.327-5.859,1.954c-0.064-0.271-0.128-0.547-0.191-0.82c0.191-0.062,0.384-0.123,0.576-0.186
				c0.277-0.09,0.465-0.181,0.565-0.271c0.1-0.094,0.141-0.173,0.124-0.243c-0.015-0.064-0.064-0.124-0.148-0.18
				c-0.961-0.677-1.917-1.355-2.867-2.044c-0.354,0.43-0.708,0.858-1.064,1.286c0.124,0.548,0.248,1.095,0.372,1.644
				c0.059,0.258,0.161,0.427,0.305,0.496c0.144,0.071,0.352,0.064,0.625-0.021c0.215-0.067,0.431-0.136,0.647-0.204
				c0.062,0.274,0.126,0.547,0.188,0.821c-1.911,0.605-3.826,1.188-5.744,1.747c-0.058-0.274-0.116-0.549-0.174-0.825
				c0.236-0.068,0.473-0.138,0.709-0.207c0.341-0.102,0.572-0.245,0.697-0.438c0.125-0.191,0.156-0.435,0.092-0.729
				c-0.723-3.324-1.455-6.651-2.192-9.976c-0.05-0.225-0.164-0.374-0.342-0.445c-0.178-0.071-0.406-0.066-0.684,0.016
				c-0.287,0.086-0.575,0.169-0.862,0.254C182.844,157.634,182.785,157.364,182.727,157.097z"/>
		</g>
	</g>
</g>
</svg>
