<?xml version="1.0" encoding="utf-8"?>
<!-- Generator: Adobe Illustrator 16.0.4, SVG Export Plug-In . SVG Version: 6.00 Build 0)  -->
<!DOCTYPE svg PUBLIC "-//W3C//DTD SVG 1.1//EN" "http://www.w3.org/Graphics/SVG/1.1/DTD/svg11.dtd">
<svg version="1.1" id="Livello_1" xmlns="http://www.w3.org/2000/svg" xmlns:xlink="http://www.w3.org/1999/xlink" x="0px" y="0px"
	 width="225.205px" height="214.48px" viewBox="0 0 225.205 214.48" enable-background="new 0 0 225.205 214.48"
	 xml:space="preserve">
<g>
	<circle fill="#FFFFFF" stroke="#4DAF4F" stroke-width="4" stroke-miterlimit="10" cx="112.13" cy="104.723" r="82.153"/>
	<path fill="#926F34" d="M98.593,32.76c-7.637,1.504-14.855,4.161-21.472,7.785l20.294,42.714h1.809l10.134-27.842L98.593,32.76z"/>
	<polygon fill="none" points="109.357,54.832 99.224,82.674 122.584,82.674 	"/>
	<path fill="#A67D3C" d="M111.577,95.731c-9.469,0-17.142-4.691-17.142-10.481s7.673-10.481,17.142-10.481
		s17.142,4.691,17.142,10.481S121.046,95.731,111.577,95.731z M111.577,70.575c-13.251,0-23.999,6.572-23.999,14.675
		c0,8.104,10.748,14.675,23.999,14.675c13.252,0,23.999-6.571,23.999-14.675C135.576,77.147,124.829,70.575,111.577,70.575z"/>
	<g>
		<path fill="#A67D3C" d="M112.716,88.938c-21.521,0-38.973,17.571-38.973,39.238s17.452,39.238,38.973,39.238
			c21.52,0,38.974-17.571,38.974-39.238S134.235,88.938,112.716,88.938z M112.716,156.204c-15.377,0-27.838-12.549-27.838-28.028
			c0-15.481,12.461-28.028,27.838-28.028s27.838,12.547,27.838,28.028C140.554,143.655,128.093,156.204,112.716,156.204z"/>
		<g>
			<path fill="#C19751" d="M112.724,89.087c0,0-0.958,0.046-2.756,0.132c-0.447,0.034-0.955,0.019-1.499,0.1
				c-0.544,0.082-1.137,0.172-1.779,0.269c-0.639,0.109-1.336,0.175-2.062,0.338c-0.721,0.188-1.487,0.389-2.297,0.601
				c-3.197,0.929-7.064,2.378-10.887,5.059c-3.833,2.615-7.735,6.273-10.794,11.092c-3.037,4.809-5.27,10.696-5.952,17.149
				c-0.114,0.802-0.083,1.623-0.133,2.441c-0.007,0.808-0.116,1.671-0.041,2.446c0.118,1.681,0.118,3.432,0.46,5.061
				c0.417,3.328,1.525,6.682,2.893,9.9c0.385,0.791,0.772,1.584,1.161,2.381c0.388,0.797,0.909,1.525,1.358,2.295l0.701,1.143
				c0.25,0.371,0.535,0.72,0.801,1.081c0.55,0.71,1.064,1.451,1.645,2.143c2.35,2.752,5.115,5.176,8.148,7.256
				c3.085,2.013,6.478,3.558,10.016,4.677c3.543,1.044,7.349,1.504,10.947,1.567c3.927-0.134,7.438-0.652,11.013-1.75
				c3.501-1.175,6.84-2.767,9.859-4.811c2.97-2.11,5.65-4.557,7.934-7.294c2.196-2.8,4.107-5.78,5.459-8.967
				c1.332-3.176,2.406-6.438,2.808-9.749c0.333-1.637,0.318-3.293,0.431-4.917l0.03-0.536l-0.023-0.631l-0.047-1.257
				c-0.049-0.823-0.021-1.692-0.133-2.461c-0.108-0.772-0.215-1.539-0.322-2.3c-0.059-0.381-0.088-0.762-0.17-1.141l-0.269-1.132
				c-0.174-0.754-0.348-1.502-0.52-2.244c-0.22-0.729-0.482-1.439-0.717-2.152c-0.94-2.855-2.279-5.455-3.696-7.875
				c-2.954-4.782-6.746-8.462-10.497-11.125c-3.742-2.726-7.563-4.231-10.733-5.207c-0.804-0.224-1.565-0.435-2.281-0.634
				c-0.722-0.174-1.417-0.248-2.055-0.365c-0.64-0.105-1.232-0.203-1.775-0.293c-0.543-0.089-1.046-0.079-1.491-0.119
				c-1.789-0.11-2.743-0.169-2.743-0.169L112.724,89.087z M112.716,88.787c0,0,0.963,0.039,2.768,0.111
				c0.451,0.031,0.959,0.011,1.509,0.089c0.55,0.079,1.151,0.165,1.8,0.257c0.646,0.105,1.353,0.166,2.087,0.326
				c0.732,0.176,1.51,0.363,2.332,0.561c3.247,0.881,7.197,2.239,11.215,4.791c4.011,2.518,8.173,6.098,11.581,10.941
				c3.39,4.857,5.975,10.864,6.858,17.789c0.139,0.86,0.128,1.662,0.201,2.504l0.079,1.255l0.04,0.631
				c-0.001-0.041,0.007,0.144,0.004,0.155l-0.003,0.082l-0.008,0.164l-0.015,0.328c-0.101,1.752-0.083,3.538-0.422,5.31
				c-0.414,3.579-1.538,7.121-2.96,10.571c-0.408,0.842-0.817,1.687-1.228,2.535c-0.413,0.848-0.96,1.625-1.438,2.444l-0.745,1.217
				c-0.265,0.396-0.565,0.767-0.848,1.152c-0.582,0.757-1.131,1.546-1.747,2.282c-2.487,2.938-5.44,5.51-8.672,7.717
				c-3.286,2.139-6.9,3.782-10.671,4.965c-3.762,1.106-7.907,1.605-11.655,1.647l-3.022-0.169c-0.99-0.018-1.964-0.195-2.938-0.354
				l-1.461-0.236l-0.73-0.119l-0.715-0.189l-2.854-0.762c-3.734-1.237-7.294-2.927-10.515-5.098
				c-3.168-2.237-6.036-4.831-8.458-7.755c-0.599-0.734-1.13-1.52-1.694-2.272c-0.273-0.383-0.565-0.752-0.821-1.145l-0.718-1.208
				c-0.46-0.813-0.991-1.584-1.386-2.423c-0.395-0.84-0.787-1.676-1.178-2.508c-1.386-3.407-2.476-6.856-2.874-10.419
				c-0.331-1.781-0.298-3.471-0.394-5.166c-0.006-0.229-0.023-0.384-0.022-0.672l0.04-0.643l0.08-1.279
				c0.071-0.847,0.064-1.696,0.201-2.524c0.87-6.665,3.318-12.68,6.6-17.481c3.302-4.809,7.353-8.411,11.282-10.976
				c3.938-2.598,7.841-4.012,11.062-4.94c0.816-0.209,1.588-0.407,2.315-0.594c0.73-0.17,1.435-0.24,2.08-0.354
				c0.648-0.102,1.247-0.195,1.796-0.281s1.053-0.072,1.501-0.109c1.796-0.097,2.754-0.147,2.754-0.147L112.716,88.787z"/>
			<path fill="#C19751" d="M112.708,156.354c0,0-0.684-0.037-1.967-0.107c-0.321-0.027-0.68-0.018-1.073-0.079
				c-0.393-0.062-0.822-0.13-1.286-0.202c-0.461-0.082-0.966-0.134-1.488-0.255c-0.52-0.134-1.072-0.274-1.656-0.424
				c-2.305-0.663-5.098-1.667-7.928-3.511c-2.821-1.825-5.736-4.39-8.129-7.824c-2.379-3.43-4.158-7.744-4.806-12.535
				c-0.101-0.596-0.099-1.206-0.153-1.815c-0.021-0.623-0.127-1.199-0.078-1.873c0.065-1.214,0.037-2.412,0.271-3.706
				c0.281-2.578,1.057-5.057,2.049-7.517c1.026-2.449,2.479-4.745,4.159-6.899c1.74-2.114,3.804-3.991,6.086-5.611
				c2.32-1.573,4.887-2.801,7.583-3.701c1.371-0.371,2.739-0.781,4.159-0.955c0.704-0.117,1.408-0.246,2.123-0.262l2.201-0.127
				c2.651,0.018,5.703,0.37,8.417,1.161c2.732,0.845,5.354,2.026,7.739,3.567c2.346,1.59,4.495,3.444,6.3,5.573
				c1.75,2.165,3.277,4.484,4.367,6.976c1.028,2.503,1.838,5.073,2.135,7.668c0.243,1.285,0.229,2.579,0.3,3.849l0.01,0.238
				l0.005,0.119l0.003,0.06l-0.004,0.133l-0.031,0.449l-0.061,0.896c-0.055,0.604-0.05,1.168-0.152,1.795
				c-0.661,5.051-2.576,9.358-5.063,12.844c-2.499,3.469-5.524,6.013-8.426,7.789c-2.91,1.798-5.75,2.747-8.081,3.362
				c-0.59,0.138-1.147,0.268-1.673,0.39c-0.526,0.112-1.032,0.154-1.496,0.228c-0.465,0.064-0.895,0.124-1.289,0.178
				c-0.394,0.055-0.758,0.039-1.081,0.06c-1.292,0.046-1.98,0.071-1.98,0.071L112.708,156.354z M112.716,156.054
				c0,0,0.68-0.044,1.956-0.129c0.317-0.029,0.676-0.024,1.063-0.089c0.386-0.065,0.809-0.137,1.265-0.215
				c0.454-0.085,0.949-0.141,1.463-0.266c0.509-0.146,1.05-0.301,1.622-0.464c2.254-0.71,4.965-1.806,7.599-3.778
				c2.642-1.923,5.298-4.565,7.343-7.974c0.982-1.723,1.897-3.571,2.543-5.59c0.161-0.504,0.341-1.006,0.491-1.521
				c0.116-0.524,0.233-1.053,0.351-1.585c0.296-1.063,0.337-2.124,0.514-3.201c0.076-0.537,0.054-1.167,0.086-1.752l0.029-0.898
				l0.014-0.451c0.002-0.086,0,0.054-0.001,0.02l-0.003-0.053l-0.006-0.107l-0.012-0.214c-0.082-1.143-0.072-2.307-0.309-3.457
				c-0.285-2.327-1.045-4.617-1.983-6.848c-0.945-2.24-2.282-4.338-3.82-6.31c-1.603-1.927-3.478-3.657-5.562-5.149
				c-2.119-1.447-4.464-2.576-6.927-3.414c-2.526-0.782-4.944-1.154-7.775-1.264c-2.502,0.038-5.214,0.353-7.709,1.081
				c-2.5,0.782-4.899,1.865-7.083,3.28c-2.148,1.463-4.108,3.17-5.776,5.111c-1.608,1.982-3.019,4.104-4.029,6.386
				c-0.974,2.273-1.768,4.655-2.068,6.999c-0.246,1.142-0.25,2.401-0.338,3.6c-0.055,0.534,0.019,1.157,0.021,1.727
				c0.032,0.58,0.007,1.163,0.085,1.732c0.46,4.579,2.024,8.768,4.157,12.203c2.15,3.443,4.917,6.064,7.641,7.94
				c2.714,1.926,5.472,2.967,7.752,3.63c0.578,0.15,1.124,0.294,1.639,0.429c0.518,0.116,1.015,0.162,1.47,0.239
				c0.458,0.068,0.88,0.132,1.268,0.189s0.751,0.046,1.07,0.07c1.284,0.06,1.969,0.092,1.969,0.092L112.716,156.054z"/>
		</g>
	</g>
	<g>
		<circle fill="#C19650" cx="112.716" cy="127.896" r="30.438"/>
		<path fill="#926F34" d="M143.303,127.903c0,0-0.032,0.746-0.092,2.146c-0.024,0.35-0.011,0.74-0.071,1.17
			c-0.062,0.43-0.13,0.898-0.203,1.404c-0.085,0.505-0.129,1.058-0.238,1.634c-0.132,0.571-0.271,1.179-0.419,1.821
			c-0.667,2.537-1.647,5.644-3.576,8.839c-1.901,3.182-4.622,6.55-8.418,9.273c-3.785,2.71-8.647,4.661-13.977,5.24
			c-0.664,0.091-1.341,0.064-2.017,0.102l-1.019,0.031l-0.511,0.016l-0.126-0.001l-0.062-0.005l-0.123-0.009l-0.246-0.017
			c-1.32-0.122-2.617-0.159-4.045-0.479c-2.826-0.438-5.488-1.411-8.101-2.623c-2.607-1.233-4.982-2.953-7.234-4.821
			c-2.196-1.951-4.152-4.189-5.845-6.649c-1.65-2.491-2.947-5.229-3.928-8.096c-0.95-2.903-1.439-5.879-1.594-9.028
			c-0.038-2.92,0.264-6.143,1.056-9.107c0.878-2.957,2.109-5.811,3.749-8.411c1.688-2.562,3.699-4.886,5.98-6.867
			c2.325-1.917,4.822-3.603,7.515-4.807c2.687-1.188,5.481-2.084,8.301-2.431c1.396-0.273,2.805-0.275,4.188-0.354l0.259-0.01
			l0.13-0.005l0.064-0.003l0.144,0.005l0.491,0.029l0.977,0.06c0.659,0.056,1.271,0.044,1.958,0.154
			c1.354,0.24,2.746,0.363,3.985,0.758c0.632,0.169,1.26,0.338,1.882,0.505c0.609,0.209,1.2,0.459,1.791,0.685
			c1.199,0.415,2.285,1.034,3.375,1.579c0.556,0.252,1.046,0.61,1.548,0.934c0.498,0.328,0.99,0.653,1.478,0.975
			c3.789,2.753,6.504,6.129,8.401,9.318c1.927,3.201,2.909,6.31,3.571,8.851c0.146,0.643,0.286,1.251,0.416,1.823
			c0.109,0.575,0.151,1.126,0.235,1.63c0.072,0.506,0.138,0.974,0.199,1.402c0.058,0.429,0.044,0.824,0.068,1.176
			c0.056,1.406,0.086,2.156,0.086,2.156V127.903z M143.003,127.896c0,0-0.045-0.741-0.13-2.133c-0.03-0.347-0.024-0.737-0.091-1.159
			c-0.069-0.423-0.145-0.883-0.226-1.381c-0.086-0.497-0.155-1.036-0.296-1.596c-0.159-0.555-0.328-1.145-0.507-1.769
			c-0.761-2.462-1.998-5.404-4.147-8.264c-2.104-2.874-5.013-5.709-8.684-7.956c-1.869-1.06-3.839-2.12-6.028-2.838
			c-0.543-0.185-1.092-0.37-1.645-0.558c-0.566-0.138-1.138-0.278-1.713-0.419c-1.153-0.344-2.307-0.396-3.479-0.6
			c-0.583-0.091-1.271-0.069-1.908-0.11l-0.978-0.039l-0.491-0.02c0.016,0.001-0.123-0.005,0.021,0.001l-0.059,0.004l-0.117,0.008
			l-0.233,0.015c-1.245,0.086-2.516,0.063-3.772,0.315c-2.542,0.298-5.042,1.12-7.502,2.101c-2.459,1.022-4.755,2.495-6.918,4.181
			c-2.129,1.744-3.989,3.838-5.638,6.116c-1.606,2.315-2.857,4.892-3.799,7.599c-0.915,2.749-1.387,5.487-1.565,8.54
			c-0.015,2.824,0.267,5.811,1.024,8.621c0.838,2.796,2.023,5.489,3.618,7.913c0.395,0.607,0.85,1.171,1.281,1.748
			c0.223,0.283,0.425,0.584,0.664,0.852l0.731,0.792c0.502,0.512,0.938,1.087,1.488,1.543l1.608,1.399
			c2.237,1.736,4.655,3.175,7.2,4.167c2.533,0.958,5.167,1.703,7.702,1.909c1.224,0.207,2.606,0.148,3.914,0.192l0.247,0.008
			l0.124,0.004l0.062,0.002c0.035,0.002-0.08-0.005-0.003-0.005l0.471-0.033l0.937-0.067c0.621-0.06,1.243-0.053,1.848-0.162
			c4.879-0.64,9.273-2.364,12.947-4.605c3.664-2.276,6.569-5.118,8.668-8c2.148-2.864,3.387-5.809,4.144-8.274
			c0.178-0.624,0.346-1.214,0.504-1.77c0.14-0.56,0.208-1.097,0.292-1.593c0.08-0.497,0.154-0.957,0.222-1.378
			c0.065-0.422,0.059-0.818,0.088-1.166c0.081-1.397,0.124-2.144,0.124-2.144V127.896z"/>
	</g>
	<g id="Livello_10_36_">
		<g>
			<path fill="#A67D3C" d="M102.888,120.768c-5.628,5.994-3.366,12.54-2.442,14.933c5.721-13.231,18.956-16.387,18.956-16.387
				s-16.69,11.828-18.411,26.625c-0.134,1.168,2.695,1.84,2.901,0.445c0.632-4.158,2.181-7.578,2.181-7.578
				c3.805,0.363,10.174,0.25,13.515-4.006c4.436-5.657,1.319-14.554,8.058-21.206C129.214,112.042,110.515,112.649,102.888,120.768z
				"/>
		</g>
	</g>
	<path fill="#926F34" d="M118.062,30.911l-8.705,23.921L99.224,82.674l-0.214,0.585h25.169l17.136-47.076
		C134.056,33.257,126.237,31.432,118.062,30.911z"/>
	<circle fill="none" stroke="#4DAF4F" stroke-width="5" stroke-miterlimit="10" cx="112.13" cy="104.724" r="75.216"/>
	<g>
		<g>
			<path fill="#4DAF4E" stroke="#4DAF4F" stroke-width="3" stroke-miterlimit="10" d="M214.711,162.837
				c-6.562-1.224-12.94-2.78-19.114-4.636c2.933-6.103,5.539-12.271,7.817-18.473c-51.883,29.431-114.491,32.079-168.395,7.787
				c-4.848-2.195-9.625-4.608-14.315-7.239c2.547,6.378,5.444,12.724,8.695,19c-5.811,1.722-11.799,3.167-17.945,4.31
				C74.696,198.511,151.615,198.275,214.711,162.837L214.711,162.837L214.711,162.837z"/>
		</g>
	</g>
	<g>
		<g>
			<path fill="#FFFFFF" d="M37.541,161.66c1.011,0.599,1.725,1.262,2.141,2.004c0.415,0.743,0.537,1.508,0.36,2.303
				c-0.231,1.043-0.844,1.756-1.85,2.132c-1.001,0.376-2.282,0.315-3.828-0.192c-1.374-0.449-2.368-1.088-2.979-1.899
				c-0.611-0.809-0.805-1.647-0.587-2.506c0.132-0.521,0.387-0.878,0.764-1.067c0.377-0.189,0.803-0.206,1.275-0.044
				c0.427,0.144,0.748,0.378,0.964,0.706s0.281,0.666,0.196,1.018c-0.117,0.478-0.49,0.765-1.124,0.854
				c-0.271,0.04-0.437,0.08-0.499,0.116c-0.063,0.037-0.106,0.102-0.127,0.186c-0.05,0.207,0.058,0.448,0.328,0.728
				c0.394,0.407,0.881,0.708,1.461,0.898c0.744,0.245,1.382,0.216,1.912-0.084c0.531-0.301,0.902-0.915,1.116-1.838
				c0.212-0.912,0.173-1.649-0.113-2.214c-0.288-0.562-0.73-0.943-1.331-1.14c-0.144-0.049-0.337-0.088-0.582-0.127
				c-0.237-0.041-0.414-0.081-0.532-0.121c-0.183-0.062-0.316-0.152-0.398-0.277c-0.082-0.124-0.104-0.266-0.064-0.427
				c0.044-0.178,0.132-0.293,0.265-0.346c0.132-0.051,0.312-0.04,0.541,0.036c0.09,0.03,0.218,0.083,0.384,0.154
				c0.202,0.091,0.369,0.159,0.5,0.203c0.586,0.194,1.088,0.163,1.504-0.089c0.409-0.246,0.709-0.783,0.904-1.607
				c0.195-0.826,0.155-1.48-0.117-1.965c-0.272-0.485-0.734-0.831-1.388-1.049c-0.45-0.146-0.807-0.196-1.074-0.142
				c-0.266,0.055-0.419,0.156-0.457,0.306c-0.019,0.073-0.017,0.139,0.004,0.192c0.022,0.056,0.096,0.164,0.224,0.322
				c0.254,0.321,0.412,0.578,0.473,0.77c0.062,0.191,0.066,0.392,0.014,0.606c-0.084,0.344-0.285,0.588-0.603,0.726
				c-0.318,0.141-0.675,0.146-1.07,0.013c-0.414-0.139-0.728-0.399-0.938-0.772c-0.21-0.372-0.26-0.784-0.147-1.225
				c0.161-0.631,0.567-1.107,1.213-1.436c0.834-0.434,1.885-0.438,3.165-0.02c0.857,0.278,1.566,0.65,2.128,1.115
				c0.563,0.467,0.954,0.978,1.175,1.538c0.22,0.559,0.269,1.117,0.145,1.664c-0.134,0.596-0.461,1.068-0.983,1.413
				C39.385,161.423,38.597,161.619,37.541,161.66z"/>
			<path fill="#FFFFFF" d="M48.09,170.857c-0.052,0.273-0.104,0.545-0.157,0.816c-2.194-0.589-4.386-1.209-6.572-1.858
				c0.058-0.271,0.116-0.54,0.173-0.811c0.271,0.079,0.541,0.159,0.811,0.239c0.333,0.099,0.589,0.113,0.767,0.043
				c0.177-0.067,0.285-0.198,0.326-0.39c0.334-1.611,0.673-3.223,1.012-4.834c0.082-0.391,0.042-0.704-0.119-0.941
				c-0.161-0.239-0.422-0.411-0.781-0.514c-0.173-0.052-0.346-0.103-0.52-0.154c0.056-0.256,0.11-0.51,0.167-0.766
				c1.316,0.324,2.635,0.637,3.953,0.938c-0.182,0.888-0.362,1.779-0.542,2.668c0.412-0.827,0.95-1.402,1.616-1.725
				c0.664-0.324,1.352-0.391,2.065-0.203c0.607,0.16,1.061,0.431,1.36,0.812s0.407,0.8,0.322,1.257
				c-0.073,0.393-0.256,0.679-0.548,0.858c-0.293,0.179-0.617,0.224-0.974,0.129c-0.316-0.082-0.57-0.26-0.756-0.531
				c-0.188-0.269-0.249-0.569-0.186-0.896c0.036-0.182,0.126-0.356,0.271-0.527c0.079-0.095,0.123-0.167,0.132-0.214
				c0.016-0.083,0.006-0.147-0.029-0.198c-0.036-0.047-0.099-0.085-0.19-0.109c-0.234-0.062-0.516-0.008-0.846,0.161
				c-0.505,0.264-0.986,0.755-1.442,1.476s-0.768,1.49-0.931,2.307c-0.118,0.589-0.235,1.178-0.353,1.767
				c-0.041,0.205-0.009,0.377,0.096,0.521c0.106,0.143,0.273,0.245,0.5,0.307C47.173,170.611,47.632,170.734,48.09,170.857z"/>
			<path fill="#FFFFFF" d="M60.049,161.023c1.515,0.283,3.03,0.552,4.547,0.808c-0.544,3.621-1.083,7.244-1.614,10.865
				c-0.082,0.556-0.096,0.94-0.039,1.15c0.056,0.209,0.165,0.376,0.328,0.496c0.163,0.123,0.495,0.231,0.993,0.333
				c-0.038,0.264-0.074,0.527-0.112,0.791c-1.305-0.223-2.611-0.459-3.916-0.704c-0.012-0.558-0.023-1.117-0.034-1.675
				c-0.696,0.552-1.307,0.885-1.823,1.001c-0.518,0.114-1.137,0.093-1.86-0.075c-1.295-0.299-2.286-0.935-2.965-1.892
				c-0.68-0.955-0.897-2.083-0.664-3.381c0.258-1.431,0.887-2.462,1.878-3.095c0.991-0.635,2.105-0.807,3.351-0.52
				c0.67,0.152,1.243,0.418,1.723,0.797c0.481,0.38,0.889,0.91,1.226,1.593c0.197-1.259,0.395-2.517,0.593-3.774
				c0.071-0.448,0.076-0.781,0.016-0.995c-0.061-0.213-0.161-0.375-0.302-0.482c-0.141-0.108-0.449-0.214-0.923-0.317
				c-0.178-0.04-0.357-0.078-0.537-0.119C59.96,161.561,60.005,161.292,60.049,161.023z M58.827,166.472
				c-0.764-0.174-1.383-0.007-1.861,0.507c-0.393,0.417-0.681,1.156-0.863,2.22c-0.151,0.89-0.177,1.574-0.076,2.054
				c0.099,0.479,0.294,0.865,0.584,1.154c0.291,0.289,0.644,0.484,1.061,0.578c0.685,0.156,1.277,0.022,1.774-0.398
				c0.664-0.551,1.075-1.354,1.238-2.404c0.151-0.976,0.034-1.802-0.351-2.481C59.948,167.019,59.447,166.612,58.827,166.472z"/>
			<path fill="#FFFFFF" d="M78.154,168.869c1.037,0.148,1.971,0.483,2.803,1.006c0.833,0.522,1.434,1.138,1.803,1.844
				c0.368,0.712,0.515,1.525,0.434,2.449c-0.127,1.475-0.789,2.539-1.996,3.18c-1.207,0.64-2.535,0.858-3.976,0.647
				c-1.019-0.148-1.93-0.49-2.729-1.026c-0.798-0.535-1.384-1.187-1.756-1.94c-0.372-0.758-0.504-1.565-0.402-2.423
				c0.154-1.293,0.79-2.289,1.896-3.002C75.335,168.893,76.639,168.648,78.154,168.869z M78.124,169.728
				c-0.688-0.1-1.265,0.092-1.734,0.577c-0.467,0.484-0.779,1.412-0.929,2.786c-0.157,1.426-0.06,2.44,0.296,3.044
				c0.354,0.604,0.885,0.957,1.589,1.06c0.718,0.104,1.326-0.093,1.82-0.589c0.493-0.495,0.804-1.428,0.934-2.79
				c0.134-1.4,0.014-2.406-0.356-3.019C79.373,170.186,78.833,169.831,78.124,169.728z"/>
			<path fill="#FFFFFF" d="M89.563,170.716c0.797,0.077,1.594,0.15,2.391,0.22c-0.021,0.324-0.041,0.65-0.061,0.976
				c-0.799-0.07-1.599-0.144-2.398-0.222c-0.137,2.001-0.275,4.005-0.411,6.004c-0.016,0.234,0.023,0.403,0.12,0.503
				c0.095,0.099,0.276,0.163,0.54,0.188c0.561,0.054,1.12,0.104,1.681,0.154c-0.017,0.277-0.035,0.56-0.051,0.839
				c-2.301-0.202-4.601-0.438-6.899-0.705c0.022-0.279,0.045-0.558,0.068-0.837c0.329,0.04,0.658,0.076,0.987,0.112
				c0.298,0.033,0.508,0.008,0.631-0.075c0.123-0.082,0.192-0.237,0.208-0.458c0.152-1.998,0.306-3.999,0.459-5.997
				c-0.536-0.058-1.071-0.118-1.606-0.179c0.027-0.324,0.053-0.648,0.08-0.973c0.534,0.06,1.068,0.121,1.602,0.178
				c0.009-0.113,0.018-0.226,0.026-0.341c0.087-1.127,0.339-2.029,0.751-2.708c0.413-0.678,0.954-1.158,1.624-1.442
				c0.669-0.284,1.474-0.383,2.415-0.3c0.875,0.076,1.542,0.328,2.001,0.759c0.458,0.431,0.672,0.935,0.641,1.519
				c-0.026,0.465-0.197,0.833-0.514,1.107c-0.318,0.274-0.686,0.396-1.102,0.359c-0.391-0.033-0.71-0.176-0.959-0.432
				c-0.25-0.256-0.362-0.557-0.34-0.9c0.022-0.355,0.241-0.649,0.651-0.88c0.198-0.117,0.3-0.223,0.306-0.319
				c0.005-0.085-0.039-0.158-0.135-0.222c-0.145-0.097-0.342-0.155-0.591-0.179c-0.328-0.03-0.638,0.038-0.928,0.197
				c-0.292,0.16-0.514,0.404-0.669,0.727c-0.224,0.482-0.357,1.001-0.396,1.56C89.645,169.538,89.604,170.126,89.563,170.716z"/>
			<path fill="#FFFFFF" d="M102.185,168.118c0.293,0.014,0.586,0.025,0.879,0.037c-0.034,1.164-0.067,2.325-0.101,3.489
				c1.027,0.042,2.054,0.079,3.082,0.108c-0.006,0.326-0.013,0.652-0.02,0.979c-1.03-0.029-2.061-0.065-3.091-0.11
				c-0.052,1.797-0.104,3.592-0.155,5.389c-0.011,0.357,0.083,0.636,0.283,0.843c0.198,0.205,0.466,0.313,0.801,0.325
				c0.956,0.036,1.479-0.736,1.564-2.311c0.301,0.009,0.602,0.019,0.902,0.027c-0.036,0.839-0.197,1.511-0.485,2.012
				c-0.29,0.503-0.697,0.885-1.225,1.143c-0.528,0.262-1.12,0.376-1.775,0.349c-0.573-0.024-1.067-0.15-1.479-0.375
				c-0.413-0.227-0.735-0.548-0.969-0.969c-0.235-0.421-0.341-0.869-0.324-1.346c0.063-1.737,0.127-3.476,0.191-5.213
				c-0.554-0.03-1.106-0.061-1.66-0.093c0.011-0.277,0.023-0.556,0.034-0.833c1.019-0.06,1.823-0.372,2.409-0.931
				C101.631,170.082,102.01,169.241,102.185,168.118z"/>
			<path fill="#FFFFFF" d="M107.716,166.871c1.45-0.035,2.898-0.083,4.347-0.145c-0.004,2.201-0.01,4.404-0.014,6.605
				c0.677-0.748,1.294-1.26,1.859-1.536c0.564-0.275,1.181-0.42,1.853-0.426c0.93-0.009,1.643,0.236,2.144,0.741
				c0.569,0.581,0.865,1.413,0.884,2.496c0.024,1.344,0.047,2.688,0.071,4.031c0.006,0.277,0.08,0.479,0.224,0.607
				c0.145,0.128,0.352,0.187,0.622,0.18c0.22-0.005,0.439-0.01,0.659-0.017c0.006,0.281,0.012,0.563,0.018,0.845
				c-1.923,0.054-3.845,0.084-5.769,0.094c-0.001-0.282-0.003-0.563-0.005-0.846c0.208-0.001,0.416-0.001,0.623-0.003
				c0.346-0.002,0.581-0.062,0.702-0.178c0.168-0.153,0.25-0.367,0.248-0.639c-0.013-1.32-0.026-2.637-0.039-3.958
				c-0.006-0.568-0.18-1.018-0.52-1.351c-0.339-0.333-0.764-0.496-1.271-0.494c-0.627,0.003-1.167,0.241-1.621,0.719
				c-0.456,0.477-0.685,1.127-0.687,1.947c-0.002,1.05-0.004,2.099-0.006,3.148c-0.001,0.271,0.071,0.476,0.218,0.61
				c0.146,0.133,0.354,0.201,0.627,0.201c0.231-0.002,0.462,0.001,0.694-0.001c0,0.28,0.001,0.564,0.002,0.845
				c-1.984,0.002-3.968-0.021-5.953-0.066c0.004-0.281,0.008-0.562,0.013-0.844c0.275,0.006,0.55,0.013,0.826,0.018
				c0.292,0.004,0.514-0.06,0.665-0.196c0.152-0.136,0.229-0.333,0.231-0.595c0.032-3.328,0.065-6.657,0.098-9.984
				c0.003-0.291-0.096-0.521-0.294-0.691c-0.2-0.169-0.467-0.256-0.801-0.264c-0.22-0.002-0.44-0.009-0.661-0.012
				C107.707,167.435,107.712,167.152,107.716,166.871z"/>
			<path fill="#FFFFFF" d="M131.784,175.468c-2.207,0.165-4.416,0.301-6.624,0.406c0.063,1.189,0.364,2.06,0.903,2.598
				c0.54,0.54,1.219,0.787,2.034,0.74c0.584-0.034,1.13-0.217,1.638-0.541c0.508-0.323,1.016-0.887,1.522-1.688
				c0.254,0.118,0.508,0.236,0.763,0.355c-0.524,0.948-1.151,1.646-1.877,2.085c-0.725,0.441-1.629,0.694-2.707,0.754
				c-1.569,0.089-2.854-0.278-3.846-1.087c-0.991-0.809-1.5-1.881-1.535-3.204c-0.036-1.328,0.415-2.45,1.339-3.38
				c0.926-0.929,2.074-1.427,3.455-1.504c0.956-0.056,1.786,0.074,2.49,0.383c0.706,0.312,1.269,0.795,1.69,1.455
				C131.451,173.497,131.704,174.374,131.784,175.468z M125.129,175.047c1.048-0.05,2.098-0.107,3.146-0.171
				c0.295-0.019,0.503-0.099,0.624-0.238c0.121-0.141,0.174-0.387,0.157-0.738c-0.033-0.701-0.237-1.232-0.607-1.596
				c-0.37-0.363-0.826-0.527-1.371-0.497c-0.644,0.037-1.126,0.324-1.449,0.861C125.306,173.207,125.139,173.998,125.129,175.047z"
				/>
			<path fill="#FFFFFF" d="M137.391,165.697c1.945-0.197,3.89-0.419,5.833-0.662c0.027,0.28,0.052,0.561,0.079,0.841
				c-0.183,0.022-0.366,0.046-0.55,0.068c-0.347,0.043-0.578,0.109-0.692,0.198c-0.115,0.091-0.165,0.213-0.151,0.362
				c0.009,0.107,0.043,0.229,0.102,0.363c1.201,2.52,2.424,5.031,3.667,7.535c0.636-2.403,1.253-4.81,1.851-7.218
				c-0.186-0.37-0.371-0.74-0.555-1.111c-0.117-0.229-0.263-0.378-0.435-0.445c-0.228-0.09-0.519-0.109-0.872-0.062
				c-0.235,0.032-0.47,0.064-0.706,0.095c-0.027-0.28-0.055-0.561-0.083-0.84c2.239-0.3,4.476-0.627,6.71-0.989
				c0.034,0.28,0.067,0.56,0.101,0.84c-0.207,0.033-0.413,0.066-0.62,0.1c-0.452,0.072-0.752,0.168-0.901,0.287
				c-0.15,0.123-0.215,0.275-0.193,0.464c0.009,0.077,0.034,0.158,0.078,0.245c1.256,2.481,2.533,4.955,3.829,7.418
				c0.543-2.449,1.066-4.899,1.57-7.353c0.051-0.224,0.063-0.437,0.038-0.633c-0.048-0.367-0.191-0.631-0.43-0.793
				c-0.238-0.161-0.528-0.211-0.875-0.151c-0.137,0.023-0.274,0.047-0.411,0.07c-0.036-0.278-0.071-0.56-0.106-0.838
				c1.569-0.268,3.135-0.55,4.701-0.849c0.039,0.277,0.079,0.559,0.118,0.837c-0.519,0.11-0.919,0.304-1.2,0.571
				c-0.281,0.271-0.465,0.63-0.552,1.075c-0.83,4.058-1.715,8.111-2.653,12.162c-0.417,0.066-0.833,0.134-1.25,0.2
				c-1.543-2.934-3.059-5.876-4.544-8.834c-0.816,3.29-1.669,6.577-2.558,9.857c-0.415,0.054-0.828,0.106-1.242,0.158
				c-1.906-3.847-3.763-7.712-5.569-11.595c-0.112-0.244-0.249-0.407-0.408-0.491c-0.159-0.083-0.356-0.113-0.592-0.089
				c-0.155,0.015-0.31,0.032-0.464,0.048C137.434,166.259,137.412,165.979,137.391,165.697z"/>
			<path fill="#FFFFFF" d="M169.697,169.675c-2.183,0.506-4.369,0.983-6.558,1.431c0.198,1.177,0.593,1.994,1.191,2.446
				c0.599,0.453,1.303,0.594,2.11,0.42c0.579-0.125,1.104-0.39,1.574-0.791c0.471-0.401,0.915-1.042,1.328-1.917
				c0.267,0.078,0.534,0.157,0.802,0.233c-0.417,1.028-0.963,1.817-1.639,2.368c-0.674,0.554-1.547,0.941-2.615,1.17
				c-1.556,0.331-2.876,0.163-3.954-0.486c-1.078-0.65-1.705-1.638-1.888-2.951c-0.185-1.314,0.138-2.504,0.954-3.571
				c0.817-1.065,1.904-1.741,3.271-2.032c0.947-0.201,1.787-0.202,2.525-0.004c0.739,0.202,1.355,0.597,1.85,1.186
				C169.142,167.767,169.494,168.598,169.697,169.675z M163.016,170.288c1.039-0.214,2.078-0.433,3.116-0.658
				c0.292-0.063,0.491-0.173,0.595-0.334c0.104-0.159,0.129-0.413,0.073-0.759c-0.112-0.693-0.375-1.19-0.786-1.494
				c-0.41-0.303-0.883-0.396-1.422-0.282c-0.637,0.138-1.085,0.495-1.346,1.081C162.984,168.428,162.908,169.242,163.016,170.288z"
				/>
			<path fill="#FFFFFF" d="M181.402,166.657c-2.17,0.616-4.344,1.2-6.521,1.755c0.24,1.166,0.666,1.962,1.281,2.387
				c0.616,0.424,1.327,0.53,2.13,0.317c0.575-0.154,1.092-0.443,1.549-0.869c0.458-0.427,0.88-1.085,1.263-1.982
				c0.271,0.065,0.541,0.13,0.812,0.194c-0.38,1.048-0.901,1.864-1.559,2.449c-0.656,0.584-1.517,1.02-2.579,1.299
				c-1.546,0.405-2.877,0.307-3.979-0.293c-1.103-0.598-1.765-1.557-1.997-2.859c-0.231-1.308,0.05-2.509,0.828-3.617
				c0.78-1.107,1.845-1.836,3.204-2.195c0.94-0.247,1.783-0.29,2.53-0.126c0.748,0.163,1.379,0.528,1.896,1.095
				C180.777,164.776,181.16,165.592,181.402,166.657z M174.729,167.599c1.034-0.264,2.066-0.534,3.099-0.81
				c0.29-0.077,0.486-0.197,0.584-0.363c0.099-0.166,0.114-0.42,0.046-0.764c-0.138-0.688-0.42-1.172-0.842-1.456
				c-0.422-0.281-0.9-0.354-1.436-0.212c-0.633,0.168-1.069,0.548-1.31,1.147C174.63,165.74,174.583,166.559,174.729,167.599z"/>
			<path fill="#FFFFFF" d="M181.084,157.087c1.413-0.453,2.822-0.92,4.229-1.398c0.705,3.023,1.404,6.048,2.097,9.071
				c0.763-0.938,1.519-1.881,2.267-2.828c0.355-0.458,0.505-0.795,0.454-1.008c-0.032-0.136-0.148-0.224-0.348-0.27
				c-0.2-0.045-0.493-0.008-0.882,0.119c-0.106,0.034-0.212,0.068-0.319,0.103c-0.063-0.267-0.127-0.534-0.19-0.802
				c1.769-0.565,3.535-1.152,5.297-1.758c0.068,0.265,0.137,0.531,0.204,0.798c-0.563,0.212-0.991,0.426-1.282,0.642
				c-0.401,0.297-0.759,0.657-1.078,1.082c-0.419,0.555-0.841,1.109-1.265,1.662c1.463,1.008,2.939,2.006,4.427,2.988
				c0.359,0.227,0.734,0.275,1.124,0.14c0.166-0.059,0.333-0.114,0.498-0.173c0.069,0.272,0.138,0.545,0.208,0.816
				c-1.952,0.677-3.908,1.329-5.868,1.956c-0.064-0.273-0.128-0.547-0.193-0.821c0.192-0.061,0.385-0.122,0.577-0.186
				c0.278-0.089,0.466-0.18,0.566-0.271c0.1-0.094,0.141-0.172,0.124-0.244c-0.015-0.064-0.064-0.123-0.149-0.179
				c-0.964-0.675-1.923-1.358-2.876-2.046c-0.354,0.432-0.708,0.859-1.065,1.287c0.125,0.546,0.25,1.095,0.375,1.644
				c0.06,0.258,0.161,0.422,0.305,0.497c0.145,0.071,0.354,0.063,0.627-0.022c0.216-0.067,0.432-0.135,0.649-0.203
				c0.063,0.274,0.127,0.547,0.19,0.82c-1.915,0.605-3.833,1.188-5.753,1.746c-0.058-0.275-0.117-0.551-0.176-0.826
				c0.238-0.07,0.474-0.137,0.711-0.207c0.341-0.101,0.574-0.246,0.699-0.438c0.125-0.189,0.156-0.433,0.091-0.729
				c-0.728-3.325-1.464-6.653-2.208-9.979c-0.05-0.226-0.165-0.372-0.343-0.445c-0.178-0.072-0.407-0.066-0.684,0.014
				c-0.288,0.086-0.576,0.171-0.863,0.254C181.201,157.625,181.143,157.355,181.084,157.087z"/>
		</g>
	</g>
</g>
</svg>
