<?xml version="1.0" encoding="utf-8"?>
<!-- Generator: Adobe Illustrator 16.0.4, SVG Export Plug-In . SVG Version: 6.00 Build 0)  -->
<!DOCTYPE svg PUBLIC "-//W3C//DTD SVG 1.1//EN" "http://www.w3.org/Graphics/SVG/1.1/DTD/svg11.dtd">
<svg version="1.1" id="Livello_1" xmlns="http://www.w3.org/2000/svg" xmlns:xlink="http://www.w3.org/1999/xlink" x="0px" y="0px"
	 width="210px" height="200px" viewBox="0 0 210 200" enable-background="new 0 0 210 200" xml:space="preserve">
<circle fill="#622E88" cx="105" cy="100" r="84"/>
<circle fill="#622E88" stroke="#FFFFFF" stroke-width="5" stroke-miterlimit="10" cx="105" cy="100" r="75.216"/>
<path fill="#FFFFFF" d="M163.651,92.394c-3.109-9.758-11.432-16.141-20.821-16.038l-6.807,0.248l-2.153-5.405
	c-4.187-10.489-6.349-15.631-7.012-16.63c-0.658-1-0.735-1.013-6.936-1.013c-5.492,0-6.358,0.096-6.829,0.733
	c-0.767,1.007-0.724,1.625,0.236,2.588c0.738,0.735,1.392,0.828,5.562,0.828c3.294,0,4.851,0.157,5.119,0.521
	c0.468,0.618,2.2,4.851,2.2,5.358c0,0.197-8.688,0.349-19.302,0.349H87.598l-0.82-1.627c-0.464-0.91-0.845-1.729-0.845-1.828
	c0-0.111,1.977-0.415,4.396-0.709c4.925-0.582,6.732-1.45,5.548-2.657c-0.53-0.548-2.012-0.675-8.599-0.755
	c-5.418-0.062-8.115,0.049-8.425,0.368c-0.25,0.25-0.398,1.185-0.324,2.072c0.117,1.427,0.234,2.237,1.553,2.083l1.996-0.258
	l2.596,4.892l-8.106,12.429c-5.779-1.732-11.027-2.126-16.964-0.214c-2.855,1.201-6.902,4.075-8.752,6.243
	c-2.423,2.829-4.326,7.11-4.895,11.021c-0.062,0.433-0.106,0.873-0.137,1.3v2.973c0.612,8.419,6.454,16.296,14.622,19.006
	c3.79,1.271,3.88,1.284,7.843,1.147c2.961-0.102,4.399-0.393,6.971-1.389c3.737-1.454,5.482-2.898,9.384-7.153
	c3.95-4.331,4.361-9.263,4.517-10.577c0.325-0.115,3.558-0.227,7.19-0.227h6.614l0.06,3.325c0.037,1.828-0.093,4.159-0.074,4.561
	c0.031,0.569-0.177,0.242-1.571,0.341c-1.581,0.105-1.783,0.238-1.662,1.036c0.099,0.73,0.448,0.949,1.747,1.049
	c0.89,0.08,3.039-0.262,3.577-0.398l0.112-10.036l2.796-3.485c1.591-2.01,3.039-3.842,3.209-4.064
	c0.18-0.235,0.993-1.263,1.807-2.293c0.808-1.027,4.613-5.837,8.45-10.695c3.836-4.851,7.096-8.83,7.268-8.83
	c0.175,0,0.509,0.427,0.751,0.95c1.488,3.117,2.283,5.2,2.473,6.41c0.2,1.185,0.09,1.408-0.87,1.772
	c-1.643,0.629-6.138,5.394-7.465,7.937c-1.658,3.168-2.757,7.215-2.757,10.23c0,4.453,2.997,11.805,6.063,14.857
	c8.335,8.335,20.345,9.09,29.42,1.862c3.169-2.817,5.854-6.509,7.144-10.581C164.322,101.045,164.442,94.856,163.651,92.394z
	 M78.303,84.301c2.917,2.642,5.742,5.253,6.266,11.072l-13.344,0.192L78.303,84.301z M66.584,114.447
	c-7.971-0.266-16.363-6.361-16.277-17.549C50.378,85.841,62.253,78.18,74.6,82.443c-3.248,5.731-10.714,15.525-9.811,16.764
	c0.935,1.29,2.701,0.86,11.088,0.86h8.92C83.888,112.446,71.438,114.602,66.584,114.447z M89.052,95.309
	c-1.207-5.944-4.626-10.711-8.722-15.102l5.834-9.625c0.245,0,1.347,1.634,2.461,3.623c1.116,2.005,4.235,7.556,6.942,12.332
	c2.704,4.771,4.873,8.896,4.678,8.896L89.052,95.309z M114.829,81.012c-0.3,0.353-1.491,1.982-2.756,3.523l-7.03,8.562l-0.006-5.368
	c1.073-0.03,3.255-0.015,3.182-1.383c-0.06-1.377-3.079-1-5.174-0.906l0.21,7.836L90.403,68.089h16.868
	c14.17,0,16.867,0.099,16.867,0.587C124.139,69.124,119.394,75.409,114.829,81.012z M154.781,110.378
	c-4.431,4.283-10.888,6.019-16.571,4.459c-8.544-2.357-14.209-10.673-12.907-18.966c0.728-4.619,1.977-7.239,4.854-10.169
	c3.344-3.422,3.954-3.438,5.191-0.173c0.297,0.798,0.946,2.403,1.441,3.539c0.495,1.145,1.633,3.896,2.534,6.113
	c1.835,4.545,2.883,5.603,4.334,4.285c1.189-1.661,0.143-4.104-1.166-6.937c-0.702-1.281-4.238-10.813-4.238-11.436
	c0.993-0.986,3.288-0.507,4.674-0.461c3.977,0.177,5.028,0.381,7.107,1.346c3.078,1.438,7.069,5.434,8.511,8.533
	c0.954,2.055,1.718,2.854,1.771,7.571C160.886,102.863,157.888,106.967,154.781,110.378z"/>
<g>
	<g>
		<path fill="#7A3A8E" stroke="#FFFFFF" stroke-width="2" stroke-miterlimit="10" d="M194.768,155.904
			c-2.533-5.82-5.349-11.609-8.445-17.347c6.004-2.538,12.218-4.851,18.63-6.915c-63.973-26.855-136.118-26.687-199.987,0.509
			c0.04,0.094,0.08,0.188,0.12,0.282c6.617,2.096,13.025,4.457,19.212,7.059c-2.899,5.431-5.547,10.909-7.942,16.414
			C73.41,131.953,137.71,131.952,194.768,155.904L194.768,155.904L194.768,155.904z"/>
	</g>
</g>
<g>
	<g>
		<path fill="#FFFFFF" d="M44.748,125.484c1.31-0.442,2.39-0.882,3.24-1.328c0.852-0.447,1.694-0.997,2.532-1.65
			c0.311-0.077,0.621-0.153,0.932-0.23c1.093,4.254,2.228,8.506,3.404,12.75c0.069,0.25,0.202,0.424,0.396,0.519
			c0.196,0.098,0.43,0.111,0.705,0.046c0.73-0.177,1.461-0.348,2.193-0.517c0.084,0.324,0.167,0.648,0.25,0.972
			c-3.034,0.697-6.069,1.47-9.101,2.32c-0.104-0.32-0.206-0.639-0.309-0.96c0.573-0.16,1.147-0.316,1.72-0.474
			c0.441-0.117,0.728-0.285,0.862-0.504c0.134-0.218,0.143-0.52,0.028-0.907c-0.933-3.134-1.843-6.273-2.728-9.414
			c-0.062-0.223-0.191-0.369-0.388-0.443c-0.199-0.074-0.462-0.068-0.791,0.02c-0.889,0.237-1.778,0.481-2.668,0.731
			C44.935,126.103,44.841,125.794,44.748,125.484z"/>
		<path fill="#FFFFFF" d="M64.318,119.164c1.091-0.197,2.124-0.098,3.098,0.297c0.973,0.393,1.853,1.161,2.636,2.297
			c0.782,1.136,1.297,2.521,1.559,4.148c0.264,1.644,0.217,3.106-0.129,4.395c-0.345,1.288-0.891,2.271-1.64,2.958
			c-0.749,0.686-1.626,1.117-2.64,1.304c-1.521,0.277-2.899-0.077-4.164-1.075c-1.58-1.232-2.672-3.014-3.214-5.372
			c-0.382-1.664-0.425-3.156-0.113-4.475c0.31-1.317,0.869-2.341,1.668-3.068S63.162,119.374,64.318,119.164z M67.961,126.897
			c-0.564-3.09-1.159-5.078-1.822-5.959c-0.478-0.645-1.044-0.91-1.684-0.795c-0.767,0.14-1.24,0.751-1.406,1.825
			c-0.164,1.076,0.046,3.052,0.644,5.923c0.5,2.403,1.113,4.054,1.808,4.96c0.438,0.56,0.937,0.789,1.5,0.686
			c0.366-0.068,0.674-0.27,0.922-0.604c0.246-0.334,0.375-0.977,0.394-1.927C68.342,129.722,68.227,128.351,67.961,126.897z"/>
		<path fill="#FFFFFF" d="M79.307,117c1.088-0.118,2.101,0.057,3.032,0.52s1.745,1.291,2.433,2.482
			c0.688,1.189,1.093,2.605,1.228,4.249c0.136,1.657-0.024,3.113-0.465,4.371c-0.442,1.259-1.056,2.199-1.853,2.828
			c-0.793,0.631-1.692,0.997-2.708,1.106c-1.521,0.166-2.852-0.287-4.019-1.373c-1.456-1.345-2.389-3.199-2.741-5.589
			c-0.248-1.688-0.178-3.178,0.227-4.469c0.403-1.289,1.029-2.271,1.869-2.938C77.149,117.522,78.152,117.124,79.307,117z
			 M82.32,124.974c-0.319-3.121-0.762-5.146-1.349-6.075c-0.426-0.676-0.961-0.981-1.602-0.911c-0.768,0.081-1.279,0.656-1.52,1.716
			c-0.241,1.061-0.182,3.046,0.187,5.951c0.309,2.431,0.781,4.122,1.396,5.073c0.386,0.592,0.859,0.854,1.424,0.794
			c0.367-0.04,0.687-0.219,0.955-0.534c0.271-0.316,0.448-0.947,0.542-1.892C82.479,127.815,82.47,126.442,82.32,124.974z"/>
		<path fill="#FFFFFF" d="M99.179,116.938c0.374-0.005,0.751-0.009,1.126-0.011c0.008,1.379,0.018,2.757,0.026,4.136
			c1.277-0.008,2.554-0.004,3.831,0.013c-0.005,0.388-0.011,0.773-0.014,1.16c-1.271-0.017-2.54-0.021-3.811-0.013
			c0.016,2.13,0.029,4.262,0.043,6.392c0.004,0.423,0.123,0.749,0.363,0.981c0.238,0.231,0.554,0.347,0.94,0.348
			c1.103,0.001,1.698-0.926,1.784-2.796c0.355,0.005,0.711,0.009,1.068,0.013c-0.041,0.996-0.229,1.794-0.561,2.394
			c-0.33,0.602-0.8,1.064-1.398,1.391c-0.603,0.327-1.274,0.49-2.024,0.494c-0.656,0.005-1.228-0.111-1.713-0.348
			c-0.485-0.237-0.877-0.594-1.174-1.07c-0.298-0.478-0.457-0.998-0.47-1.563c-0.051-2.062-0.101-4.123-0.148-6.186
			c-0.683,0.015-1.365,0.033-2.047,0.056c-0.01-0.328-0.021-0.658-0.033-0.987c1.255-0.185,2.223-0.625,2.921-1.33
			C98.584,119.302,99.016,118.279,99.179,116.938z"/>
		<path fill="#FFFFFF" d="M113.806,130.503c-0.023,0.332-0.046,0.664-0.069,0.996c-2.56-0.162-5.12-0.274-7.679-0.334
			c0.009-0.333,0.017-0.666,0.024-0.999c0.32,0.008,0.639,0.016,0.958,0.025c0.394,0.011,0.683-0.049,0.868-0.183
			c0.188-0.134,0.284-0.319,0.294-0.555c0.073-1.983,0.146-3.966,0.217-5.948c0.018-0.479-0.094-0.835-0.338-1.064
			c-0.244-0.229-0.593-0.352-1.044-0.364c-0.219-0.005-0.437-0.012-0.654-0.017c0.008-0.314,0.016-0.63,0.022-0.944
			c1.656-0.036,3.312-0.052,4.973-0.047c-0.055,1.091-0.11,2.183-0.166,3.273c0.342-1.08,0.886-1.896,1.637-2.443
			c0.752-0.546,1.583-0.79,2.486-0.729c0.77,0.054,1.367,0.275,1.784,0.663c0.418,0.387,0.602,0.86,0.556,1.418
			c-0.04,0.477-0.228,0.853-0.558,1.125c-0.331,0.271-0.713,0.394-1.153,0.36c-0.39-0.028-0.717-0.181-0.979-0.456
			c-0.264-0.277-0.382-0.614-0.354-1.015c0.015-0.221,0.096-0.449,0.249-0.683c0.08-0.131,0.122-0.226,0.126-0.283
			c0.007-0.1-0.015-0.175-0.064-0.226c-0.051-0.049-0.133-0.078-0.249-0.085c-0.295-0.02-0.629,0.11-1.002,0.389
			c-0.568,0.433-1.066,1.131-1.485,2.095c-0.421,0.964-0.653,1.947-0.706,2.948c-0.039,0.723-0.08,1.445-0.12,2.166
			c-0.013,0.25,0.051,0.447,0.193,0.586c0.142,0.141,0.347,0.218,0.615,0.232C112.727,130.437,113.267,130.468,113.806,130.503z"/>
		<path fill="#FFFFFF" d="M119.825,121.882c1.727,0.089,3.457,0.198,5.187,0.331c-0.341,2.828-0.693,5.653-1.053,8.48
			c-0.028,0.228,0.027,0.413,0.176,0.557c0.145,0.144,0.382,0.233,0.713,0.274c0.248,0.03,0.495,0.061,0.743,0.093
			c-0.046,0.33-0.091,0.659-0.136,0.99c-2.199-0.276-4.399-0.515-6.6-0.713c0.033-0.332,0.066-0.663,0.1-0.995
			c0.244,0.022,0.487,0.044,0.731,0.068c0.394,0.037,0.68-0.018,0.86-0.165c0.18-0.149,0.289-0.426,0.335-0.831
			c0.211-1.932,0.418-3.861,0.62-5.792c0.039-0.364-0.053-0.657-0.275-0.881c-0.222-0.223-0.545-0.354-0.975-0.395
			c-0.172-0.017-0.347-0.032-0.518-0.048C119.764,122.531,119.795,122.207,119.825,121.882z M123.642,116.429
			c0.571,0.061,1.042,0.285,1.411,0.668c0.367,0.385,0.523,0.818,0.466,1.303c-0.056,0.484-0.31,0.87-0.751,1.163
			c-0.442,0.292-0.941,0.408-1.503,0.349c-0.569-0.061-1.035-0.282-1.404-0.663c-0.368-0.383-0.53-0.812-0.483-1.288
			c0.047-0.486,0.289-0.878,0.731-1.177C122.549,116.486,123.062,116.367,123.642,116.429z"/>
		<path fill="#FFFFFF" d="M129.026,122.979c1.587,0.132,3.178,0.28,4.771,0.448c0.083,0.674,0.085,1.332,0.007,1.974
			c0.6-0.591,1.314-1.006,2.146-1.244s1.721-0.271,2.659-0.099c1.501,0.276,2.629,0.972,3.354,2.064
			c0.727,1.091,0.893,2.469,0.511,4.122c-0.266,1.147-0.708,2.077-1.32,2.787s-1.342,1.192-2.188,1.45
			c-0.846,0.258-1.77,0.293-2.777,0.108c-0.803-0.147-1.484-0.438-2.05-0.872c-0.563-0.436-1.051-1.062-1.466-1.878
			c-0.211,1.183-0.424,2.366-0.643,3.549c-0.084,0.468-0.101,0.771-0.049,0.915c0.055,0.144,0.182,0.266,0.379,0.367
			c0.199,0.102,0.612,0.211,1.241,0.326c-0.066,0.338-0.134,0.676-0.199,1.014c-2.156-0.372-4.312-0.706-6.468-1.001
			c0.051-0.34,0.105-0.681,0.157-1.021c0.115,0.016,0.229,0.031,0.346,0.048c0.408,0.056,0.687,0.061,0.835,0.015
			c0.148-0.047,0.275-0.146,0.379-0.299c0.073-0.105,0.146-0.388,0.222-0.849c0.511-3.138,1.007-6.275,1.492-9.413
			c0.071-0.461,0.075-0.773,0.017-0.938c-0.057-0.163-0.168-0.292-0.326-0.384c-0.157-0.092-0.545-0.191-1.159-0.297
			C128.938,123.577,128.983,123.278,129.026,122.979z M136.78,125.247c-0.801-0.14-1.539,0.074-2.213,0.641
			c-0.674,0.565-1.115,1.485-1.339,2.753c-0.219,1.255-0.104,2.26,0.342,3.02c0.442,0.759,1.022,1.2,1.747,1.329
			c0.708,0.126,1.337-0.056,1.89-0.545c0.727-0.649,1.228-1.607,1.493-2.884c0.242-1.171,0.199-2.145-0.138-2.921
			S137.626,125.397,136.78,125.247z"/>
		<path fill="#FFFFFF" d="M153.936,128.198c0.349-0.202,0.698-0.403,1.051-0.604c0.253,0.068,0.507,0.136,0.761,0.206
			c-0.242,1.126-0.487,2.252-0.741,3.377c-0.33-0.09-0.661-0.179-0.991-0.268c-0.261-1.02-0.661-1.793-1.192-2.314
			c-0.529-0.52-1.248-0.896-2.151-1.117c-0.776-0.191-1.4-0.207-1.87-0.053c-0.468,0.157-0.75,0.427-0.849,0.81
			c-0.095,0.377-0.014,0.702,0.247,0.97c0.257,0.276,1.048,0.694,2.365,1.277c1.196,0.529,1.975,0.929,2.346,1.183
			c0.71,0.476,1.202,1.043,1.479,1.693c0.275,0.65,0.299,1.331,0.077,2.039c-0.28,0.895-0.934,1.531-1.943,1.92
			c-1.011,0.388-2.169,0.408-3.493,0.074c-0.641-0.162-1.201-0.374-1.682-0.635c-0.481-0.264-0.959-0.63-1.434-1.104
			c-0.356,0.227-0.714,0.454-1.069,0.683c-0.297-0.069-0.593-0.137-0.89-0.203c0.245-1.25,0.485-2.501,0.719-3.753
			c0.332,0.076,0.663,0.15,0.994,0.227c0.373,2.062,1.545,3.323,3.567,3.833c0.834,0.211,1.51,0.235,2.036,0.066
			c0.525-0.165,0.849-0.445,0.969-0.839c0.108-0.359,0.052-0.67-0.172-0.93c-0.223-0.26-0.904-0.658-2.05-1.178
			c-1.236-0.556-2.074-0.967-2.504-1.246c-0.739-0.464-1.252-0.982-1.543-1.561c-0.29-0.578-0.354-1.208-0.187-1.891
			c0.238-0.976,0.812-1.694,1.738-2.14c0.923-0.445,2.04-0.516,3.339-0.195c0.634,0.155,1.185,0.361,1.654,0.613
			C152.983,127.394,153.458,127.745,153.936,128.198z"/>
	</g>
</g>
</svg>
