<?xml version="1.0" encoding="utf-8"?>
<!-- Generator: Adobe Illustrator 16.0.4, SVG Export Plug-In . SVG Version: 6.00 Build 0)  -->
<!DOCTYPE svg PUBLIC "-//W3C//DTD SVG 1.1//EN" "http://www.w3.org/Graphics/SVG/1.1/DTD/svg11.dtd">
<svg version="1.1" id="Livello_1" xmlns="http://www.w3.org/2000/svg" xmlns:xlink="http://www.w3.org/1999/xlink" x="0px" y="0px"
	 width="210px" height="200px" viewBox="0 0 210 200" enable-background="new 0 0 210 200" xml:space="preserve">
<g>
	<circle fill="#622E88" cx="105" cy="100" r="84"/>
	<circle fill="#622E88" stroke="#FFFFFF" stroke-width="5" stroke-miterlimit="10" cx="105" cy="100" r="75.216"/>
	<path fill="#FFFFFF" d="M163.651,92.394c-3.109-9.758-11.432-16.141-20.821-16.038l-6.807,0.248l-2.153-5.405
		c-4.187-10.489-6.349-15.631-7.012-16.63c-0.658-1-0.735-1.013-6.936-1.013c-5.492,0-6.358,0.096-6.829,0.733
		c-0.767,1.007-0.724,1.625,0.236,2.588c0.738,0.735,1.392,0.828,5.562,0.828c3.294,0,4.851,0.157,5.119,0.521
		c0.468,0.618,2.2,4.851,2.2,5.358c0,0.197-8.688,0.349-19.302,0.349H87.598l-0.82-1.627c-0.464-0.91-0.845-1.729-0.845-1.828
		c0-0.111,1.977-0.415,4.396-0.709c4.925-0.582,6.732-1.45,5.548-2.657c-0.53-0.548-2.012-0.675-8.599-0.755
		c-5.418-0.062-8.115,0.049-8.425,0.368c-0.25,0.25-0.398,1.185-0.324,2.072c0.117,1.427,0.234,2.237,1.553,2.083l1.996-0.258
		l2.596,4.892l-8.106,12.429c-5.779-1.732-11.027-2.126-16.964-0.214c-2.855,1.201-6.902,4.075-8.752,6.243
		c-2.423,2.829-4.326,7.11-4.895,11.021c-0.062,0.433-0.106,0.873-0.137,1.3v2.973c0.612,8.419,6.454,16.296,14.622,19.006
		c3.79,1.271,3.88,1.284,7.843,1.147c2.961-0.102,4.399-0.393,6.971-1.389c3.737-1.454,5.482-2.898,9.384-7.153
		c3.95-4.331,4.361-9.263,4.517-10.577c0.325-0.115,3.558-0.227,7.19-0.227h6.614l0.06,3.325c0.037,1.828-0.093,4.159-0.074,4.561
		c0.031,0.569-0.177,0.242-1.571,0.341c-1.581,0.105-1.783,0.238-1.662,1.036c0.099,0.73,0.448,0.949,1.747,1.049
		c0.89,0.08,3.039-0.262,3.577-0.398l0.112-10.036l2.796-3.485c1.591-2.01,3.039-3.842,3.209-4.064
		c0.18-0.235,0.993-1.263,1.807-2.293c0.808-1.027,4.613-5.837,8.45-10.695c3.836-4.851,7.096-8.83,7.268-8.83
		c0.175,0,0.509,0.427,0.751,0.95c1.488,3.117,2.283,5.2,2.473,6.41c0.2,1.185,0.09,1.408-0.87,1.772
		c-1.643,0.629-6.138,5.394-7.465,7.937c-1.658,3.168-2.757,7.215-2.757,10.23c0,4.453,2.997,11.805,6.063,14.857
		c8.335,8.335,20.345,9.09,29.42,1.862c3.169-2.817,5.854-6.509,7.144-10.581C164.322,101.045,164.442,94.856,163.651,92.394z
		 M78.303,84.301c2.917,2.642,5.742,5.253,6.266,11.072l-13.344,0.192L78.303,84.301z M66.584,114.447
		c-7.971-0.266-16.363-6.361-16.277-17.549C50.378,85.841,62.253,78.18,74.6,82.443c-3.248,5.731-10.714,15.525-9.811,16.764
		c0.935,1.29,2.701,0.86,11.088,0.86h8.92C83.888,112.446,71.438,114.602,66.584,114.447z M89.052,95.309
		c-1.207-5.944-4.626-10.711-8.722-15.102l5.834-9.625c0.245,0,1.347,1.634,2.461,3.623c1.116,2.005,4.235,7.556,6.942,12.332
		c2.704,4.771,4.873,8.896,4.678,8.896L89.052,95.309z M114.829,81.012c-0.3,0.353-1.491,1.982-2.756,3.523l-7.03,8.562
		l-0.006-5.368c1.073-0.03,3.255-0.015,3.182-1.383c-0.06-1.377-3.079-1-5.174-0.906l0.21,7.836L90.403,68.089h16.868
		c14.17,0,16.867,0.099,16.867,0.587C124.139,69.124,119.394,75.409,114.829,81.012z M154.781,110.378
		c-4.431,4.283-10.888,6.019-16.571,4.459c-8.544-2.357-14.209-10.673-12.907-18.966c0.728-4.619,1.977-7.239,4.854-10.169
		c3.344-3.422,3.954-3.438,5.191-0.173c0.297,0.798,0.946,2.403,1.441,3.539c0.495,1.145,1.633,3.896,2.534,6.113
		c1.835,4.545,2.883,5.603,4.334,4.285c1.189-1.661,0.143-4.104-1.166-6.937c-0.702-1.281-4.238-10.813-4.238-11.436
		c0.993-0.986,3.288-0.507,4.674-0.461c3.977,0.177,5.028,0.381,7.107,1.346c3.078,1.438,7.069,5.434,8.511,8.533
		c0.954,2.055,1.718,2.854,1.771,7.571C160.886,102.863,157.888,106.967,154.781,110.378z"/>
	<g>
		<g>
			<path fill="#7A3A8E" stroke="#FFFFFF" stroke-width="2" stroke-miterlimit="10" d="M194.768,155.903
				c-2.534-5.819-5.349-11.608-8.446-17.346c6.004-2.538,12.219-4.851,18.63-6.915c-63.973-26.855-136.118-26.687-199.987,0.509
				c0.04,0.094,0.08,0.188,0.12,0.282c6.617,2.096,13.026,4.457,19.211,7.059c-2.899,5.431-5.546,10.909-7.942,16.414
				C73.411,131.953,137.71,131.952,194.768,155.903L194.768,155.903L194.768,155.903z"/>
		</g>
	</g>
	<g>
		<g>
			<path fill="#FFFFFF" d="M52.438,124.327c1.324-0.445,2.415-0.887,3.275-1.334c0.86-0.449,1.714-1.001,2.562-1.653
				c0.313-0.077,0.626-0.153,0.94-0.229c1.083,4.257,2.208,8.509,3.379,12.756c0.068,0.251,0.201,0.425,0.396,0.521
				c0.196,0.098,0.431,0.113,0.708,0.047c0.735-0.176,1.47-0.346,2.205-0.513c0.082,0.326,0.166,0.648,0.248,0.974
				c-3.051,0.688-6.1,1.458-9.146,2.311c-0.104-0.318-0.207-0.639-0.309-0.958c0.576-0.162,1.153-0.319,1.729-0.476
				c0.442-0.117,0.73-0.285,0.866-0.504c0.135-0.218,0.145-0.52,0.029-0.907c-0.933-3.137-1.841-6.276-2.722-9.417
				c-0.062-0.222-0.193-0.369-0.391-0.444c-0.2-0.074-0.464-0.067-0.796,0.021c-0.898,0.238-1.796,0.483-2.694,0.736
				C52.625,124.946,52.532,124.636,52.438,124.327z"/>
			<path fill="#FFFFFF" d="M72.219,118.035c1.1-0.192,2.143-0.086,3.12,0.314c0.979,0.398,1.857,1.173,2.635,2.317
				c0.777,1.141,1.28,2.53,1.527,4.159c0.25,1.646,0.187,3.108-0.172,4.394c-0.359,1.286-0.915,2.265-1.674,2.946
				c-0.758,0.681-1.641,1.105-2.66,1.284c-1.528,0.268-2.909-0.093-4.174-1.097c-1.58-1.24-2.668-3.024-3.199-5.387
				c-0.375-1.666-0.408-3.158-0.085-4.475c0.322-1.315,0.892-2.34,1.705-3.062C70.054,118.705,71.051,118.237,72.219,118.035z
				 M75.82,125.791c-0.54-3.094-1.122-5.086-1.782-5.972c-0.477-0.646-1.042-0.917-1.689-0.804
				c-0.776,0.136-1.258,0.743-1.433,1.818c-0.176,1.074,0.021,3.051,0.602,5.927c0.486,2.406,1.09,4.061,1.782,4.97
				c0.435,0.562,0.934,0.793,1.501,0.693c0.369-0.065,0.679-0.265,0.928-0.597c0.252-0.333,0.386-0.976,0.413-1.924
				C76.178,128.616,76.074,127.247,75.82,125.791z"/>
			<path fill="#FFFFFF" d="M99.9,116.319c0.38-0.013,0.759-0.023,1.139-0.034c0.035,1.379,0.072,2.758,0.11,4.135
				c1.288-0.033,2.576-0.054,3.864-0.062c0.002,0.387,0.005,0.773,0.007,1.16c-1.28,0.007-2.56,0.028-3.84,0.062
				c0.058,2.129,0.117,4.26,0.177,6.39c0.012,0.422,0.141,0.746,0.386,0.974c0.246,0.227,0.562,0.336,0.953,0.328
				c1.111-0.021,1.689-0.958,1.737-2.829c0.359-0.003,0.718-0.005,1.077-0.007c-0.021,0.996-0.194,1.798-0.517,2.403
				c-0.322,0.607-0.782,1.079-1.378,1.416c-0.598,0.339-1.271,0.515-2.024,0.534c-0.66,0.018-1.236-0.086-1.727-0.312
				c-0.495-0.227-0.896-0.575-1.207-1.045c-0.312-0.472-0.482-0.989-0.509-1.554c-0.097-2.062-0.193-4.122-0.287-6.182
				c-0.688,0.03-1.375,0.063-2.063,0.101c-0.019-0.329-0.038-0.656-0.056-0.987c1.262-0.212,2.232-0.673,2.919-1.394
				C99.349,118.694,99.763,117.662,99.9,116.319z"/>
			<path fill="#FFFFFF" d="M114.888,129.624c-0.018,0.333-0.035,0.665-0.054,0.998c-2.572-0.124-5.146-0.195-7.718-0.21
				c0.002-0.333,0.004-0.665,0.006-0.998c0.321,0.002,0.641,0.004,0.962,0.009c0.396,0.003,0.686-0.062,0.87-0.198
				c0.185-0.136,0.28-0.324,0.284-0.561c0.038-1.983,0.075-3.966,0.111-5.95c0.008-0.479-0.111-0.834-0.361-1.059
				c-0.248-0.226-0.602-0.342-1.058-0.345c-0.22-0.003-0.439-0.005-0.66-0.007c0.002-0.314,0.004-0.631,0.007-0.945
				c1.668-0.064,3.338-0.108,5.01-0.129c-0.037,1.093-0.073,2.184-0.111,3.275c0.325-1.087,0.859-1.911,1.608-2.467
				c0.748-0.558,1.583-0.815,2.494-0.766c0.776,0.041,1.381,0.255,1.808,0.638c0.427,0.381,0.619,0.852,0.58,1.409
				c-0.033,0.478-0.216,0.856-0.543,1.134c-0.33,0.276-0.713,0.4-1.155,0.375c-0.394-0.022-0.724-0.17-0.993-0.442
				c-0.27-0.271-0.394-0.607-0.373-1.01c0.011-0.221,0.092-0.449,0.24-0.686c0.079-0.132,0.12-0.227,0.123-0.284
				c0.005-0.1-0.018-0.175-0.069-0.225c-0.052-0.049-0.136-0.075-0.252-0.083c-0.298-0.015-0.633,0.12-1.003,0.405
				c-0.567,0.44-1.055,1.146-1.462,2.115c-0.407,0.971-0.625,1.958-0.662,2.959c-0.027,0.725-0.055,1.446-0.082,2.17
				c-0.01,0.251,0.059,0.444,0.204,0.583c0.145,0.136,0.353,0.211,0.621,0.221C113.804,129.574,114.346,129.599,114.888,129.624z"/>
			<path fill="#FFFFFF" d="M120.813,120.923c1.741,0.067,3.484,0.157,5.229,0.271c-0.309,2.831-0.627,5.661-0.953,8.491
				c-0.027,0.228,0.034,0.412,0.183,0.554c0.147,0.143,0.387,0.23,0.719,0.269c0.25,0.027,0.499,0.056,0.749,0.084
				c-0.042,0.33-0.083,0.66-0.126,0.992c-2.211-0.254-4.422-0.465-6.633-0.638c0.028-0.332,0.056-0.663,0.085-0.995
				c0.245,0.02,0.49,0.037,0.736,0.059c0.396,0.031,0.683-0.025,0.862-0.176c0.177-0.15,0.286-0.429,0.326-0.836
				c0.185-1.933,0.367-3.865,0.545-5.799c0.034-0.363-0.062-0.656-0.29-0.878c-0.226-0.22-0.556-0.349-0.987-0.383
				c-0.175-0.014-0.349-0.027-0.522-0.04C120.761,121.574,120.788,121.248,120.813,120.923z M124.586,115.425
				c0.577,0.054,1.056,0.271,1.433,0.652c0.377,0.381,0.539,0.813,0.486,1.298c-0.051,0.484-0.3,0.873-0.743,1.171
				c-0.441,0.298-0.944,0.418-1.51,0.364c-0.575-0.054-1.049-0.269-1.424-0.646c-0.376-0.378-0.546-0.806-0.505-1.284
				c0.041-0.484,0.28-0.88,0.721-1.185C123.487,115.494,124.001,115.37,124.586,115.425z"/>
			<path fill="#FFFFFF" d="M130.095,121.922c1.602,0.116,3.206,0.252,4.812,0.408c0.09,0.673,0.098,1.332,0.026,1.975
				c0.598-0.594,1.313-1.015,2.15-1.26c0.836-0.242,1.73-0.279,2.677-0.112c1.516,0.269,2.657,0.959,3.394,2.047
				c0.74,1.092,0.915,2.468,0.541,4.122c-0.26,1.15-0.702,2.081-1.312,2.793c-0.611,0.714-1.341,1.2-2.188,1.461
				c-0.849,0.262-1.775,0.303-2.788,0.124c-0.808-0.143-1.493-0.428-2.063-0.859c-0.57-0.432-1.064-1.054-1.488-1.868
				c-0.202,1.186-0.406,2.37-0.613,3.555c-0.082,0.468-0.095,0.773-0.041,0.916c0.054,0.144,0.182,0.265,0.381,0.363
				c0.201,0.102,0.616,0.205,1.247,0.316c-0.064,0.338-0.127,0.677-0.192,1.016c-2.162-0.355-4.326-0.671-6.49-0.945
				c0.05-0.342,0.099-0.682,0.148-1.023c0.116,0.016,0.231,0.031,0.348,0.046c0.408,0.052,0.687,0.055,0.835,0.007
				c0.149-0.049,0.276-0.15,0.377-0.303c0.071-0.106,0.143-0.39,0.214-0.851c0.48-3.142,0.949-6.283,1.402-9.426
				c0.067-0.461,0.069-0.774,0.008-0.938c-0.06-0.163-0.171-0.291-0.332-0.381c-0.161-0.089-0.551-0.188-1.171-0.287
				C130.016,122.518,130.056,122.221,130.095,121.922z M137.925,124.132c-0.804-0.137-1.548,0.083-2.221,0.653
				s-1.109,1.494-1.32,2.763c-0.21,1.256-0.084,2.262,0.37,3.017c0.452,0.758,1.036,1.194,1.765,1.318
				c0.713,0.12,1.343-0.063,1.895-0.557c0.724-0.652,1.222-1.614,1.479-2.892c0.236-1.173,0.184-2.146-0.161-2.919
				C139.386,124.74,138.78,124.276,137.925,124.132z"/>
			<path fill="#FFFFFF" d="M155.223,127.037c0.351-0.201,0.704-0.402,1.058-0.603c0.256,0.067,0.512,0.136,0.769,0.206
				c-0.242,1.127-0.488,2.253-0.74,3.378c-0.333-0.092-0.667-0.181-0.999-0.269c-0.266-1.021-0.67-1.793-1.208-2.316
				c-0.535-0.52-1.262-0.895-2.171-1.116c-0.784-0.19-1.414-0.206-1.885-0.051c-0.471,0.157-0.753,0.428-0.851,0.812
				c-0.095,0.377-0.011,0.699,0.252,0.968c0.26,0.276,1.059,0.695,2.387,1.274c1.205,0.53,1.99,0.929,2.364,1.184
				c0.715,0.477,1.212,1.045,1.489,1.696c0.28,0.651,0.305,1.332,0.081,2.04c-0.282,0.896-0.939,1.53-1.952,1.919
				c-1.014,0.388-2.178,0.409-3.511,0.074c-0.642-0.16-1.204-0.37-1.688-0.631c-0.485-0.263-0.964-0.629-1.443-1.102
				c-0.358,0.228-0.716,0.455-1.072,0.685c-0.298-0.067-0.597-0.135-0.895-0.201c0.24-1.25,0.476-2.501,0.707-3.752
				c0.333,0.072,0.667,0.146,1,0.221c0.384,2.062,1.564,3.321,3.597,3.829c0.836,0.21,1.517,0.233,2.045,0.065
				c0.528-0.165,0.853-0.446,0.973-0.839c0.109-0.36,0.052-0.67-0.174-0.931c-0.225-0.261-0.911-0.658-2.065-1.178
				c-1.246-0.555-2.088-0.964-2.522-1.243c-0.744-0.463-1.264-0.979-1.559-1.558c-0.295-0.577-0.362-1.207-0.197-1.892
				c0.235-0.977,0.81-1.694,1.739-2.144c0.928-0.447,2.054-0.517,3.364-0.198c0.639,0.154,1.195,0.36,1.669,0.611
				C154.262,126.23,154.741,126.584,155.223,127.037z"/>
		</g>
	</g>
</g>
</svg>
