<?xml version="1.0" encoding="utf-8"?>
<!-- Generator: Adobe Illustrator 16.0.4, SVG Export Plug-In . SVG Version: 6.00 Build 0)  -->
<!DOCTYPE svg PUBLIC "-//W3C//DTD SVG 1.1//EN" "http://www.w3.org/Graphics/SVG/1.1/DTD/svg11.dtd">
<svg version="1.1" id="Livello_1" xmlns="http://www.w3.org/2000/svg" xmlns:xlink="http://www.w3.org/1999/xlink" x="0px" y="0px"
	 width="210px" height="200px" viewBox="0 0 210 200" enable-background="new 0 0 210 200" xml:space="preserve">
<g>
	<circle fill="#622E88" cx="105" cy="100" r="84"/>
	<circle fill="#622E88" stroke="#FFFFFF" stroke-width="5" stroke-miterlimit="10" cx="105" cy="100" r="75.216"/>
	<path fill="#FFFFFF" d="M163.651,92.394c-3.109-9.758-11.432-16.141-20.821-16.038l-6.807,0.248l-2.153-5.405
		c-4.187-10.489-6.349-15.631-7.012-16.63c-0.658-1-0.735-1.013-6.936-1.013c-5.492,0-6.358,0.096-6.829,0.733
		c-0.767,1.007-0.724,1.625,0.236,2.588c0.738,0.735,1.392,0.828,5.562,0.828c3.294,0,4.851,0.157,5.119,0.521
		c0.468,0.618,2.2,4.851,2.2,5.358c0,0.197-8.688,0.349-19.302,0.349H87.598l-0.82-1.627c-0.464-0.91-0.845-1.729-0.845-1.828
		c0-0.111,1.977-0.415,4.396-0.709c4.925-0.582,6.732-1.45,5.548-2.657c-0.53-0.548-2.012-0.675-8.599-0.755
		c-5.418-0.062-8.115,0.049-8.425,0.368c-0.25,0.25-0.398,1.185-0.324,2.072c0.117,1.427,0.234,2.237,1.553,2.083l1.996-0.258
		l2.596,4.892l-8.106,12.429c-5.779-1.732-11.027-2.126-16.964-0.214c-2.855,1.201-6.902,4.075-8.752,6.243
		c-2.423,2.829-4.326,7.11-4.895,11.021c-0.062,0.433-0.106,0.873-0.137,1.3v2.973c0.612,8.419,6.454,16.296,14.622,19.006
		c3.79,1.271,3.88,1.284,7.843,1.147c2.961-0.102,4.399-0.393,6.971-1.389c3.737-1.454,5.482-2.898,9.384-7.153
		c3.95-4.331,4.361-9.263,4.517-10.577c0.325-0.115,3.558-0.227,7.19-0.227h6.614l0.06,3.325c0.037,1.828-0.093,4.159-0.074,4.561
		c0.031,0.569-0.177,0.242-1.571,0.341c-1.581,0.105-1.783,0.238-1.662,1.036c0.099,0.73,0.448,0.949,1.747,1.049
		c0.89,0.08,3.039-0.262,3.577-0.398l0.112-10.036l2.796-3.485c1.591-2.01,3.039-3.842,3.209-4.064
		c0.18-0.235,0.993-1.263,1.807-2.293c0.808-1.027,4.613-5.837,8.45-10.695c3.836-4.851,7.096-8.83,7.268-8.83
		c0.175,0,0.509,0.427,0.751,0.95c1.488,3.117,2.283,5.2,2.473,6.41c0.2,1.185,0.09,1.408-0.87,1.772
		c-1.643,0.629-6.138,5.394-7.465,7.937c-1.658,3.168-2.757,7.215-2.757,10.23c0,4.453,2.997,11.805,6.063,14.857
		c8.335,8.335,20.345,9.09,29.42,1.862c3.169-2.817,5.854-6.509,7.144-10.581C164.322,101.045,164.442,94.856,163.651,92.394z
		 M78.303,84.301c2.917,2.642,5.742,5.253,6.266,11.072l-13.344,0.192L78.303,84.301z M66.584,114.447
		c-7.971-0.266-16.363-6.361-16.277-17.549C50.378,85.841,62.253,78.18,74.6,82.443c-3.248,5.731-10.714,15.525-9.811,16.764
		c0.935,1.29,2.701,0.86,11.088,0.86h8.92C83.888,112.446,71.438,114.602,66.584,114.447z M89.052,95.309
		c-1.207-5.944-4.626-10.711-8.722-15.102l5.834-9.625c0.245,0,1.347,1.634,2.461,3.623c1.116,2.005,4.235,7.556,6.942,12.332
		c2.704,4.771,4.873,8.896,4.678,8.896L89.052,95.309z M114.829,81.012c-0.3,0.353-1.491,1.982-2.756,3.523l-7.03,8.562
		l-0.006-5.368c1.073-0.03,3.255-0.015,3.182-1.383c-0.06-1.377-3.079-1-5.174-0.906l0.21,7.836L90.403,68.089h16.868
		c14.17,0,16.867,0.099,16.867,0.587C124.139,69.124,119.394,75.409,114.829,81.012z M154.781,110.378
		c-4.431,4.283-10.888,6.019-16.571,4.459c-8.544-2.357-14.209-10.673-12.907-18.966c0.728-4.619,1.977-7.239,4.854-10.169
		c3.344-3.422,3.954-3.438,5.191-0.173c0.297,0.798,0.946,2.403,1.441,3.539c0.495,1.145,1.633,3.896,2.534,6.113
		c1.835,4.545,2.883,5.603,4.334,4.285c1.189-1.661,0.143-4.104-1.166-6.937c-0.702-1.281-4.238-10.813-4.238-11.436
		c0.993-0.986,3.288-0.507,4.674-0.461c3.977,0.177,5.028,0.381,7.107,1.346c3.078,1.438,7.069,5.434,8.511,8.533
		c0.954,2.055,1.718,2.854,1.771,7.571C160.886,102.863,157.888,106.967,154.781,110.378z"/>
	<g>
		<g>
			<path fill="#7A3A8E" stroke="#FFFFFF" stroke-width="2" stroke-miterlimit="10" d="M194.768,155.904
				c-2.533-5.82-5.349-11.609-8.445-17.347c6.004-2.538,12.218-4.851,18.63-6.915c-63.973-26.855-136.118-26.687-199.987,0.509
				c0.04,0.094,0.08,0.188,0.12,0.282c6.617,2.096,13.025,4.457,19.212,7.059c-2.899,5.431-5.547,10.909-7.942,16.414
				C73.41,131.953,137.71,131.952,194.768,155.904L194.768,155.904L194.768,155.904z"/>
		</g>
	</g>
	<g>
		<g>
			<path fill="#FFFFFF" d="M57.373,133.814c1.843-0.486,3.685-0.943,5.528-1.373c0.521-0.12,0.882-0.36,1.09-0.724
				c0.21-0.363,0.291-1.063,0.251-2.102c0.402-0.09,0.803-0.177,1.205-0.264c0.277,1.708,0.564,3.414,0.86,5.119
				c-3.567,0.776-7.134,1.661-10.7,2.657c-0.095-0.295-0.19-0.593-0.287-0.89c0.319-0.964,1.071-2.515,2.336-4.635
				c1.118-1.879,1.843-3.236,2.109-4.085c0.373-1.154,0.438-2.242,0.18-3.266c-0.225-0.885-0.632-1.499-1.229-1.842
				c-0.598-0.345-1.317-0.415-2.155-0.205c-0.847,0.211-1.504,0.578-1.963,1.095c-0.46,0.519-0.63,0.975-0.517,1.368
				c0.044,0.159,0.144,0.267,0.296,0.322c0.156,0.064,0.482,0.081,0.981,0.056c1.084-0.043,1.718,0.294,1.911,1.002
				c0.131,0.479,0.044,0.921-0.255,1.328c-0.301,0.406-0.739,0.685-1.318,0.837c-0.604,0.159-1.168,0.082-1.694-0.234
				c-0.525-0.314-0.907-0.858-1.138-1.63c-0.321-1.075-0.157-2.095,0.508-3.053c0.812-1.177,2.158-2.007,4.009-2.459
				c1.652-0.402,3.078-0.336,4.261,0.186c1.186,0.522,1.892,1.34,2.143,2.437c0.136,0.586,0.14,1.15,0.011,1.691
				c-0.168,0.735-0.457,1.419-0.867,2.056c-0.409,0.638-1.151,1.493-2.206,2.581c-1.145,1.169-1.9,2.01-2.3,2.503
				C58.024,132.787,57.674,133.296,57.373,133.814z"/>
			<path fill="#FFFFFF" d="M68.121,118.516c1.985-0.046,3.732-0.186,5.255-0.433c1.182-0.193,2.135-0.449,2.865-0.782
				c0.295-0.137,0.468-0.21,0.52-0.217c0.121-0.018,0.19,0.046,0.211,0.188c0.068,0.469-0.078,1.001-0.435,1.599
				c-0.357,0.598-0.864,1.084-1.521,1.465c-0.655,0.378-1.519,0.655-2.589,0.837c-0.81,0.137-1.737,0.228-2.786,0.274
				c0.091,0.985,0.186,1.972,0.283,2.956c0.577-0.355,1.132-0.639,1.665-0.854s1.042-0.36,1.526-0.444
				c1.604-0.268,3.049-0.033,4.32,0.695c1.271,0.73,2.002,1.85,2.225,3.345c0.229,1.537-0.146,2.867-1.099,3.999
				c-0.956,1.133-2.318,1.841-4.122,2.149c-1.435,0.249-2.654,0.125-3.67-0.383c-1.02-0.507-1.641-1.231-1.853-2.186
				c-0.137-0.625-0.052-1.16,0.261-1.61c0.313-0.448,0.771-0.73,1.372-0.843c0.528-0.1,0.994-0.032,1.396,0.198
				c0.4,0.229,0.641,0.558,0.724,0.98c0.059,0.302,0.021,0.58-0.111,0.835c-0.131,0.251-0.428,0.532-0.885,0.844
				c-0.333,0.229-0.484,0.418-0.452,0.566c0.048,0.238,0.269,0.42,0.657,0.545c0.571,0.18,1.202,0.208,1.896,0.087
				c0.869-0.151,1.5-0.582,1.901-1.297c0.403-0.716,0.475-1.837,0.211-3.37c-0.223-1.29-0.637-2.193-1.254-2.702
				c-0.62-0.51-1.333-0.697-2.138-0.558c-0.371,0.065-0.763,0.194-1.171,0.393c-0.406,0.197-0.834,0.46-1.281,0.792
				c0.103,0.551,0.099,0.94-0.012,1.174s-0.304,0.376-0.582,0.429c-0.237,0.045-0.439,0.023-0.606-0.063
				c-0.169-0.09-0.271-0.22-0.308-0.396c-0.059-0.274,0.072-0.725,0.398-1.35C68.646,123.094,68.375,120.806,68.121,118.516z"/>
			<path fill="#FFFFFF" d="M99.984,116.2c0.379-0.011,0.758-0.021,1.137-0.029c0.031,1.378,0.062,2.757,0.093,4.136
				c1.287-0.028,2.573-0.044,3.859-0.046c0.001,0.387,0.002,0.773,0.003,1.16c-1.278,0.002-2.557,0.017-3.837,0.046
				c0.05,2.13,0.098,4.261,0.149,6.39c0.008,0.423,0.136,0.748,0.381,0.977c0.244,0.227,0.561,0.336,0.95,0.332
				c1.11-0.017,1.692-0.952,1.75-2.821c0.358-0.004,0.716-0.004,1.075-0.004c-0.024,0.995-0.202,1.796-0.526,2.402
				c-0.324,0.605-0.786,1.074-1.383,1.41c-0.601,0.336-1.275,0.51-2.026,0.525c-0.66,0.014-1.234-0.093-1.727-0.32
				c-0.493-0.229-0.893-0.58-1.199-1.051c-0.309-0.473-0.479-0.991-0.501-1.556c-0.088-2.062-0.174-4.123-0.258-6.184
				c-0.688,0.027-1.375,0.058-2.062,0.093c-0.018-0.328-0.035-0.659-0.051-0.987c1.261-0.208,2.231-0.663,2.923-1.382
				C99.424,118.572,99.842,117.544,99.984,116.2z"/>
			<path fill="#FFFFFF" d="M114.906,129.562c-0.019,0.333-0.037,0.666-0.056,0.998c-2.572-0.134-5.145-0.213-7.717-0.235
				c0.004-0.334,0.007-0.666,0.012-1c0.319,0.004,0.64,0.007,0.96,0.011c0.396,0.006,0.686-0.057,0.871-0.195
				c0.186-0.135,0.281-0.321,0.286-0.558c0.046-1.982,0.089-3.966,0.134-5.949c0.01-0.479-0.109-0.833-0.356-1.06
				s-0.6-0.345-1.056-0.35c-0.219-0.004-0.438-0.007-0.659-0.008c0.004-0.315,0.007-0.631,0.011-0.945
				c1.666-0.06,3.336-0.097,5.006-0.111c-0.042,1.091-0.081,2.183-0.124,3.274c0.33-1.086,0.866-1.907,1.616-2.462
				c0.748-0.556,1.584-0.81,2.493-0.758c0.776,0.044,1.379,0.259,1.805,0.644c0.426,0.383,0.614,0.854,0.575,1.411
				c-0.034,0.479-0.219,0.855-0.546,1.132c-0.33,0.275-0.714,0.399-1.156,0.372c-0.394-0.023-0.723-0.172-0.99-0.445
				c-0.269-0.272-0.392-0.608-0.37-1.01c0.014-0.221,0.094-0.45,0.242-0.687c0.08-0.133,0.122-0.227,0.125-0.283
				c0.005-0.102-0.017-0.176-0.068-0.225c-0.051-0.049-0.135-0.078-0.251-0.084c-0.298-0.016-0.635,0.117-1.003,0.4
				c-0.568,0.439-1.058,1.144-1.468,2.113c-0.411,0.969-0.632,1.954-0.674,2.956c-0.029,0.722-0.06,1.445-0.089,2.168
				c-0.011,0.251,0.056,0.445,0.201,0.585c0.145,0.137,0.352,0.211,0.621,0.223C113.824,129.508,114.364,129.534,114.906,129.562z"
				/>
			<path fill="#FFFFFF" d="M120.857,120.878c1.738,0.071,3.479,0.165,5.223,0.285c-0.316,2.829-0.641,5.658-0.975,8.488
				c-0.027,0.229,0.033,0.412,0.182,0.555c0.147,0.143,0.386,0.23,0.719,0.27c0.249,0.027,0.498,0.057,0.747,0.086
				c-0.043,0.329-0.086,0.66-0.129,0.991c-2.21-0.259-4.42-0.478-6.63-0.654c0.03-0.331,0.059-0.664,0.088-0.995
				c0.245,0.021,0.49,0.04,0.737,0.06c0.395,0.034,0.681-0.022,0.861-0.173c0.177-0.149,0.287-0.428,0.326-0.833
				c0.191-1.933,0.378-3.865,0.562-5.798c0.035-0.364-0.06-0.657-0.286-0.878c-0.226-0.221-0.554-0.351-0.985-0.386
				c-0.174-0.015-0.348-0.029-0.522-0.043C120.801,121.527,120.829,121.203,120.857,120.878z M124.641,115.389
				c0.575,0.057,1.054,0.274,1.429,0.656c0.376,0.383,0.537,0.814,0.484,1.3c-0.054,0.485-0.304,0.873-0.746,1.17
				c-0.44,0.296-0.944,0.415-1.51,0.36c-0.574-0.057-1.046-0.271-1.42-0.65c-0.375-0.379-0.544-0.807-0.502-1.284
				c0.043-0.485,0.282-0.88,0.725-1.184C123.542,115.456,124.056,115.332,124.641,115.389z"/>
			<path fill="#FFFFFF" d="M130.128,121.898c1.599,0.118,3.201,0.259,4.805,0.417c0.09,0.674,0.096,1.332,0.023,1.975
				c0.599-0.593,1.313-1.012,2.149-1.256c0.837-0.24,1.73-0.278,2.676-0.11c1.513,0.271,2.652,0.962,3.39,2.052
				c0.735,1.092,0.911,2.468,0.534,4.121c-0.262,1.151-0.704,2.08-1.314,2.793c-0.61,0.712-1.342,1.197-2.191,1.457
				c-0.848,0.262-1.774,0.301-2.786,0.121c-0.808-0.143-1.494-0.429-2.062-0.862c-0.569-0.433-1.062-1.056-1.484-1.87
				c-0.203,1.185-0.411,2.369-0.619,3.554c-0.084,0.469-0.097,0.772-0.043,0.915s0.182,0.266,0.381,0.365
				c0.2,0.102,0.614,0.205,1.246,0.318c-0.065,0.338-0.128,0.676-0.194,1.017c-2.161-0.361-4.326-0.681-6.488-0.96
				c0.049-0.341,0.099-0.68,0.147-1.021c0.116,0.015,0.232,0.03,0.349,0.045c0.409,0.054,0.688,0.058,0.835,0.01
				c0.152-0.049,0.277-0.15,0.38-0.302c0.071-0.106,0.143-0.389,0.215-0.852c0.488-3.14,0.963-6.281,1.422-9.424
				c0.068-0.46,0.071-0.773,0.011-0.936c-0.061-0.165-0.17-0.292-0.332-0.382c-0.16-0.09-0.551-0.188-1.169-0.29
				C130.046,122.495,130.087,122.197,130.128,121.898z M137.947,124.122c-0.806-0.137-1.549,0.081-2.221,0.649
				c-0.676,0.57-1.112,1.493-1.327,2.762c-0.21,1.255-0.088,2.261,0.364,3.017c0.451,0.757,1.035,1.196,1.765,1.32
				c0.713,0.122,1.341-0.062,1.894-0.554c0.726-0.651,1.226-1.613,1.484-2.89c0.237-1.172,0.186-2.146-0.156-2.92
				C139.405,124.732,138.8,124.268,137.947,124.122z"/>
			<path fill="#FFFFFF" d="M155.229,127.037c0.353-0.2,0.705-0.403,1.059-0.603c0.256,0.068,0.511,0.137,0.767,0.206
				c-0.241,1.126-0.488,2.253-0.74,3.378c-0.332-0.09-0.666-0.181-0.998-0.269c-0.265-1.02-0.67-1.794-1.206-2.315
				c-0.534-0.521-1.26-0.895-2.168-1.117c-0.784-0.191-1.414-0.206-1.884-0.051c-0.472,0.157-0.755,0.427-0.852,0.811
				c-0.095,0.379-0.012,0.701,0.251,0.969c0.26,0.276,1.059,0.694,2.387,1.275c1.202,0.53,1.987,0.929,2.36,1.184
				c0.714,0.477,1.212,1.044,1.49,1.695c0.277,0.651,0.303,1.332,0.079,2.04c-0.281,0.896-0.938,1.53-1.952,1.919
				c-1.014,0.387-2.177,0.407-3.511,0.073c-0.642-0.161-1.204-0.372-1.688-0.633c-0.484-0.262-0.965-0.629-1.442-1.101
				c-0.358,0.228-0.716,0.455-1.072,0.685c-0.299-0.068-0.597-0.136-0.895-0.201c0.242-1.25,0.479-2.502,0.711-3.754
				c0.332,0.074,0.666,0.148,0.999,0.224c0.383,2.061,1.561,3.321,3.595,3.829c0.836,0.211,1.516,0.234,2.045,0.066
				c0.527-0.166,0.854-0.446,0.973-0.84c0.11-0.359,0.053-0.67-0.173-0.93c-0.225-0.261-0.911-0.658-2.063-1.178
				c-1.246-0.557-2.089-0.965-2.521-1.245c-0.744-0.461-1.263-0.979-1.557-1.557s-0.361-1.209-0.195-1.893
				c0.235-0.977,0.811-1.693,1.741-2.142c0.927-0.447,2.052-0.519,3.361-0.199c0.639,0.155,1.194,0.359,1.667,0.613
				C154.27,126.231,154.748,126.583,155.229,127.037z"/>
		</g>
	</g>
</g>
</svg>
