<?xml version="1.0" encoding="utf-8"?>
<!-- Generator: Adobe Illustrator 16.0.4, SVG Export Plug-In . SVG Version: 6.00 Build 0)  -->
<!DOCTYPE svg PUBLIC "-//W3C//DTD SVG 1.1//EN" "http://www.w3.org/Graphics/SVG/1.1/DTD/svg11.dtd">
<svg version="1.1" id="Livello_1" xmlns="http://www.w3.org/2000/svg" xmlns:xlink="http://www.w3.org/1999/xlink" x="0px" y="0px"
	 width="210px" height="200px" viewBox="0 0 210 200" enable-background="new 0 0 210 200" xml:space="preserve">
<g>
	<circle fill="#622E88" cx="105" cy="100" r="84"/>
	<circle fill="#622E88" stroke="#FFFFFF" stroke-width="5" stroke-miterlimit="10" cx="105" cy="100" r="75.216"/>
	<path fill="#FFFFFF" d="M163.652,92.394c-3.109-9.758-11.432-16.141-20.821-16.038l-6.807,0.248l-2.153-5.405
		c-4.187-10.489-6.349-15.631-7.012-16.63c-0.658-1-0.735-1.013-6.936-1.013c-5.492,0-6.358,0.096-6.829,0.733
		c-0.767,1.007-0.724,1.625,0.236,2.588c0.738,0.735,1.392,0.828,5.562,0.828c3.294,0,4.851,0.157,5.119,0.521
		c0.468,0.618,2.2,4.851,2.2,5.358c0,0.197-8.688,0.349-19.302,0.349H87.598l-0.82-1.627c-0.464-0.91-0.845-1.729-0.845-1.828
		c0-0.111,1.977-0.415,4.396-0.709c4.925-0.582,6.732-1.45,5.548-2.657c-0.53-0.548-2.012-0.675-8.599-0.755
		c-5.418-0.062-8.115,0.049-8.425,0.368c-0.25,0.25-0.398,1.185-0.324,2.072c0.117,1.427,0.234,2.237,1.553,2.083l1.996-0.258
		l2.596,4.892l-8.106,12.429c-5.779-1.732-11.027-2.126-16.964-0.214c-2.855,1.201-6.902,4.075-8.752,6.243
		c-2.423,2.829-4.326,7.11-4.895,11.021c-0.062,0.433-0.106,0.873-0.137,1.3v2.973c0.612,8.419,6.454,16.296,14.622,19.006
		c3.79,1.271,3.88,1.284,7.843,1.147c2.961-0.102,4.399-0.393,6.971-1.389c3.737-1.454,5.482-2.898,9.384-7.153
		c3.95-4.331,4.361-9.263,4.517-10.577c0.325-0.115,3.558-0.227,7.19-0.227h6.614l0.06,3.325c0.037,1.828-0.093,4.159-0.074,4.561
		c0.031,0.569-0.177,0.242-1.571,0.341c-1.581,0.105-1.783,0.238-1.662,1.036c0.099,0.73,0.448,0.949,1.747,1.049
		c0.89,0.08,3.039-0.262,3.577-0.398l0.112-10.036l2.796-3.485c1.591-2.01,3.039-3.842,3.209-4.064
		c0.18-0.235,0.993-1.263,1.807-2.293c0.808-1.027,4.613-5.837,8.45-10.695c3.836-4.851,7.096-8.83,7.268-8.83
		c0.175,0,0.509,0.427,0.751,0.95c1.488,3.117,2.283,5.2,2.473,6.41c0.2,1.185,0.09,1.408-0.87,1.772
		c-1.643,0.629-6.138,5.394-7.465,7.937c-1.658,3.168-2.757,7.215-2.757,10.23c0,4.453,2.997,11.805,6.063,14.857
		c8.335,8.335,20.345,9.09,29.42,1.862c3.169-2.817,5.854-6.509,7.144-10.581C164.323,101.045,164.443,94.856,163.652,92.394z
		 M78.303,84.301c2.917,2.642,5.742,5.253,6.266,11.072l-13.344,0.192L78.303,84.301z M66.584,114.447
		c-7.971-0.266-16.363-6.361-16.277-17.549C50.378,85.841,62.253,78.18,74.6,82.443c-3.248,5.731-10.714,15.525-9.811,16.764
		c0.935,1.29,2.701,0.86,11.088,0.86h8.92C83.888,112.446,71.438,114.602,66.584,114.447z M89.052,95.309
		c-1.207-5.944-4.626-10.711-8.722-15.102l5.834-9.625c0.245,0,1.347,1.634,2.461,3.623c1.116,2.005,4.235,7.556,6.942,12.332
		c2.704,4.771,4.873,8.896,4.678,8.896L89.052,95.309z M114.83,81.012c-0.3,0.353-1.491,1.982-2.756,3.523l-7.03,8.562l-0.006-5.368
		c1.073-0.03,3.255-0.015,3.182-1.383c-0.06-1.377-3.079-1-5.174-0.906l0.21,7.836L90.404,68.089h16.868
		c14.17,0,16.867,0.099,16.867,0.587C124.139,69.124,119.394,75.409,114.83,81.012z M154.782,110.378
		c-4.431,4.283-10.888,6.019-16.571,4.459c-8.544-2.357-14.209-10.673-12.907-18.966c0.728-4.619,1.977-7.239,4.854-10.169
		c3.344-3.422,3.954-3.438,5.191-0.173c0.297,0.798,0.946,2.403,1.441,3.539c0.495,1.145,1.633,3.896,2.534,6.113
		c1.835,4.545,2.883,5.603,4.334,4.285c1.189-1.661,0.143-4.104-1.166-6.937c-0.702-1.281-4.238-10.813-4.238-11.436
		c0.993-0.986,3.288-0.507,4.674-0.461c3.977,0.177,5.028,0.381,7.107,1.346c3.078,1.438,7.069,5.434,8.511,8.533
		c0.954,2.055,1.718,2.854,1.771,7.571C160.886,102.863,157.888,106.967,154.782,110.378z"/>
	<g>
		<g>
			<path fill="#7A3A8E" stroke="#FFFFFF" stroke-width="2" stroke-miterlimit="10" d="M194.768,155.903
				c-2.534-5.819-5.349-11.608-8.446-17.346c6.004-2.538,12.219-4.851,18.63-6.915c-63.973-26.855-136.118-26.687-199.987,0.509
				c0.04,0.094,0.08,0.188,0.12,0.282c6.617,2.096,13.026,4.457,19.211,7.059c-2.899,5.431-5.546,10.909-7.942,16.414
				C73.411,131.953,137.71,131.952,194.768,155.903L194.768,155.903L194.768,155.903z"/>
		</g>
	</g>
	<g>
		<g>
			<path fill="#FFFFFF" d="M64.583,123.337c1.39-0.463,2.537-0.915,3.445-1.368c0.908-0.455,1.81-1.01,2.714-1.665
				c0.329-0.077,0.659-0.153,0.988-0.228c1.018,4.27,2.09,8.534,3.219,12.795c0.066,0.25,0.199,0.427,0.397,0.522
				c0.198,0.1,0.437,0.116,0.721,0.054c0.753-0.168,1.506-0.33,2.26-0.486c0.076,0.326,0.154,0.65,0.231,0.977
				c-3.119,0.645-6.234,1.399-9.346,2.271c-0.105-0.321-0.21-0.64-0.316-0.959c0.59-0.164,1.181-0.326,1.771-0.482
				c0.454-0.12,0.748-0.287,0.889-0.506c0.139-0.219,0.152-0.521,0.039-0.909c-0.927-3.14-1.819-6.283-2.679-9.431
				c-0.062-0.223-0.193-0.369-0.399-0.443c-0.207-0.073-0.483-0.066-0.831,0.024c-0.941,0.244-1.881,0.501-2.822,0.764
				C64.771,123.956,64.677,123.647,64.583,123.337z"/>
			<path fill="#FFFFFF" d="M98.622,117.103c0.398-0.021,0.796-0.039,1.194-0.055c0.059,1.377,0.118,2.754,0.178,4.132
				c1.344-0.057,2.688-0.095,4.032-0.114c0.006,0.387,0.012,0.773,0.018,1.16c-1.333,0.019-2.666,0.057-3.999,0.112
				c0.094,2.129,0.19,4.258,0.288,6.386c0.02,0.423,0.159,0.744,0.415,0.967c0.256,0.224,0.582,0.327,0.982,0.315
				c1.139-0.037,1.722-0.979,1.753-2.851c0.37-0.006,0.739-0.013,1.109-0.017c-0.013,0.995-0.184,1.798-0.509,2.407
				c-0.325,0.611-0.791,1.086-1.396,1.431c-0.609,0.345-1.293,0.531-2.064,0.562c-0.674,0.027-1.265-0.063-1.773-0.281
				c-0.51-0.215-0.931-0.554-1.26-1.018c-0.331-0.465-0.52-0.979-0.561-1.542c-0.149-2.057-0.296-4.116-0.438-6.174
				c-0.717,0.048-1.432,0.1-2.148,0.158c-0.028-0.329-0.056-0.656-0.084-0.984c1.312-0.251,2.314-0.734,3.021-1.473
				C98.083,119.488,98.5,118.449,98.622,117.103z"/>
			<path fill="#FFFFFF" d="M114.235,130.345c-0.022,0.333-0.045,0.664-0.067,0.997c-2.633-0.156-5.266-0.235-7.898-0.238
				c0.001-0.333,0.001-0.666,0.001-0.999c0.329,0.001,0.658,0.003,0.987,0.005c0.406,0.005,0.703-0.062,0.892-0.199
				c0.19-0.136,0.287-0.323,0.291-0.56c0.038-1.982,0.074-3.966,0.109-5.95c0.009-0.48-0.116-0.833-0.376-1.059
				c-0.259-0.225-0.627-0.341-1.103-0.343c-0.229-0.003-0.457-0.004-0.687-0.005c0.001-0.314,0.001-0.63,0.002-0.945
				c1.74-0.072,3.482-0.112,5.228-0.123c-0.042,1.091-0.085,2.183-0.129,3.273c0.342-1.084,0.902-1.904,1.687-2.455
				c0.784-0.549,1.658-0.796,2.609-0.733c0.812,0.053,1.44,0.278,1.88,0.669c0.44,0.39,0.633,0.866,0.584,1.422
				c-0.043,0.478-0.24,0.852-0.583,1.122c-0.346,0.27-0.747,0.387-1.206,0.355c-0.408-0.03-0.75-0.183-1.025-0.458
				c-0.278-0.276-0.403-0.614-0.377-1.014c0.015-0.222,0.1-0.451,0.257-0.685c0.083-0.131,0.128-0.226,0.131-0.283
				c0.008-0.101-0.016-0.175-0.068-0.224c-0.054-0.051-0.141-0.079-0.261-0.086c-0.312-0.02-0.663,0.109-1.051,0.391
				c-0.595,0.434-1.107,1.135-1.536,2.102c-0.429,0.968-0.658,1.953-0.704,2.955c-0.032,0.722-0.064,1.445-0.097,2.168
				c-0.011,0.25,0.058,0.445,0.205,0.585c0.147,0.137,0.36,0.212,0.636,0.227C113.123,130.281,113.679,130.312,114.235,130.345z"/>
			<path fill="#FFFFFF" d="M120.511,121.753c1.818,0.111,3.639,0.254,5.464,0.433c-0.403,2.821-0.822,5.64-1.255,8.459
				c-0.035,0.228,0.021,0.412,0.169,0.559c0.147,0.148,0.39,0.246,0.731,0.294c0.255,0.037,0.511,0.074,0.767,0.113
				c-0.056,0.329-0.112,0.658-0.168,0.987c-2.261-0.338-4.522-0.617-6.785-0.841c0.037-0.331,0.074-0.662,0.111-0.993
				c0.251,0.023,0.503,0.05,0.755,0.075c0.406,0.043,0.702-0.007,0.89-0.153c0.187-0.146,0.306-0.42,0.357-0.825
				c0.243-1.928,0.48-3.856,0.711-5.784c0.044-0.363-0.049-0.658-0.281-0.885c-0.231-0.228-0.573-0.366-1.022-0.41
				c-0.181-0.02-0.363-0.037-0.544-0.055C120.443,122.401,120.477,122.078,120.511,121.753z M124.586,116.363
				c0.607,0.074,1.109,0.31,1.498,0.703c0.389,0.395,0.548,0.833,0.481,1.316c-0.067,0.483-0.339,0.862-0.812,1.145
				c-0.473,0.28-1.003,0.385-1.596,0.313c-0.603-0.075-1.095-0.303-1.483-0.692c-0.387-0.389-0.557-0.821-0.506-1.297
				c0.053-0.485,0.311-0.873,0.784-1.163C123.423,116.398,123.969,116.288,124.586,116.363z"/>
			<path fill="#FFFFFF" d="M130.198,123.081c1.675,0.188,3.353,0.407,5.036,0.654c0.064,0.679,0.042,1.339-0.063,1.977
				c0.655-0.56,1.427-0.939,2.318-1.131c0.893-0.192,1.837-0.174,2.827,0.058c1.585,0.372,2.751,1.147,3.462,2.293
				c0.712,1.148,0.804,2.539,0.294,4.166c-0.354,1.131-0.884,2.027-1.572,2.694c-0.688,0.667-1.483,1.1-2.38,1.303
				s-1.856,0.181-2.891-0.061c-0.825-0.192-1.514-0.52-2.076-0.983s-1.037-1.114-1.432-1.951c-0.272,1.174-0.55,2.349-0.831,3.521
				c-0.11,0.462-0.142,0.768-0.095,0.911c0.046,0.146,0.17,0.274,0.369,0.385c0.198,0.111,0.619,0.238,1.256,0.384
				c-0.087,0.336-0.174,0.671-0.262,1.005c-2.188-0.477-4.375-0.896-6.565-1.261c0.066-0.34,0.133-0.677,0.2-1.016
				c0.118,0.02,0.234,0.038,0.352,0.059c0.414,0.07,0.7,0.085,0.854,0.044c0.155-0.042,0.289-0.137,0.401-0.285
				c0.078-0.104,0.166-0.384,0.261-0.842c0.651-3.117,1.278-6.238,1.881-9.358c0.088-0.458,0.104-0.771,0.047-0.938
				c-0.058-0.166-0.168-0.299-0.334-0.396c-0.164-0.097-0.569-0.213-1.214-0.343C130.093,123.674,130.146,123.377,130.198,123.081z
				 M138.321,125.719c-0.839-0.186-1.632-0.014-2.365,0.518c-0.734,0.532-1.233,1.431-1.518,2.689
				c-0.281,1.245-0.203,2.255,0.224,3.036c0.427,0.783,1.005,1.255,1.751,1.422c0.729,0.164,1.394,0.019,1.999-0.438
				c0.792-0.605,1.375-1.534,1.725-2.794c0.32-1.154,0.324-2.134,0.006-2.933C139.825,126.423,139.212,125.917,138.321,125.719z"/>
		</g>
	</g>
</g>
</svg>
