<?xml version="1.0" encoding="utf-8"?>
<!-- Generator: Adobe Illustrator 16.0.4, SVG Export Plug-In . SVG Version: 6.00 Build 0)  -->
<!DOCTYPE svg PUBLIC "-//W3C//DTD SVG 1.1//EN" "http://www.w3.org/Graphics/SVG/1.1/DTD/svg11.dtd">
<svg version="1.1" id="Livello_1" xmlns="http://www.w3.org/2000/svg" xmlns:xlink="http://www.w3.org/1999/xlink" x="0px" y="0px"
	 width="210px" height="200px" viewBox="0 0 210 200" enable-background="new 0 0 210 200" xml:space="preserve">
<circle fill="#622E88" cx="105" cy="100" r="84"/>
<circle fill="#622E88" stroke="#FFFFFF" stroke-width="5" stroke-miterlimit="10" cx="105" cy="100" r="75.216"/>
<path fill="#FFFFFF" d="M163.651,92.394c-3.109-9.758-11.432-16.141-20.821-16.038l-6.807,0.248l-2.153-5.405
	c-4.187-10.489-6.349-15.631-7.012-16.63c-0.658-1-0.735-1.013-6.936-1.013c-5.492,0-6.358,0.096-6.829,0.733
	c-0.767,1.007-0.724,1.625,0.236,2.588c0.738,0.735,1.392,0.828,5.562,0.828c3.294,0,4.851,0.157,5.119,0.521
	c0.468,0.618,2.2,4.851,2.2,5.358c0,0.197-8.688,0.349-19.302,0.349H87.598l-0.82-1.627c-0.464-0.91-0.845-1.729-0.845-1.828
	c0-0.111,1.977-0.415,4.396-0.709c4.925-0.582,6.732-1.45,5.548-2.657c-0.53-0.548-2.012-0.675-8.599-0.755
	c-5.418-0.062-8.115,0.049-8.425,0.368c-0.25,0.25-0.398,1.185-0.324,2.072c0.117,1.427,0.234,2.237,1.553,2.083l1.996-0.258
	l2.596,4.892l-8.106,12.429c-5.779-1.732-11.027-2.126-16.964-0.214c-2.855,1.201-6.902,4.075-8.752,6.243
	c-2.423,2.829-4.326,7.11-4.895,11.021c-0.062,0.433-0.106,0.873-0.137,1.3v2.973c0.612,8.419,6.454,16.296,14.622,19.006
	c3.79,1.271,3.88,1.284,7.843,1.147c2.961-0.102,4.399-0.393,6.971-1.389c3.737-1.454,5.482-2.898,9.384-7.153
	c3.95-4.331,4.361-9.263,4.517-10.577c0.325-0.115,3.558-0.227,7.19-0.227h6.614l0.06,3.325c0.037,1.828-0.093,4.159-0.074,4.561
	c0.031,0.569-0.177,0.242-1.571,0.341c-1.581,0.105-1.783,0.238-1.662,1.036c0.099,0.73,0.448,0.949,1.747,1.049
	c0.89,0.08,3.039-0.262,3.577-0.398l0.112-10.036l2.796-3.485c1.591-2.01,3.039-3.842,3.209-4.064
	c0.18-0.235,0.993-1.263,1.807-2.293c0.808-1.027,4.613-5.837,8.45-10.695c3.836-4.851,7.096-8.83,7.268-8.83
	c0.175,0,0.509,0.427,0.751,0.95c1.488,3.117,2.283,5.2,2.473,6.41c0.2,1.185,0.09,1.408-0.87,1.772
	c-1.643,0.629-6.138,5.394-7.465,7.937c-1.658,3.168-2.757,7.215-2.757,10.23c0,4.453,2.997,11.805,6.063,14.857
	c8.335,8.335,20.345,9.09,29.42,1.862c3.169-2.817,5.854-6.509,7.144-10.581C164.322,101.045,164.442,94.856,163.651,92.394z
	 M78.303,84.301c2.917,2.642,5.742,5.253,6.266,11.072l-13.344,0.192L78.303,84.301z M66.584,114.447
	c-7.971-0.266-16.363-6.361-16.277-17.549C50.378,85.841,62.253,78.18,74.6,82.443c-3.248,5.731-10.714,15.525-9.811,16.764
	c0.935,1.29,2.701,0.86,11.088,0.86h8.92C83.888,112.446,71.438,114.602,66.584,114.447z M89.052,95.309
	c-1.207-5.944-4.626-10.711-8.722-15.102l5.834-9.625c0.245,0,1.347,1.634,2.461,3.623c1.116,2.005,4.235,7.556,6.942,12.332
	c2.704,4.771,4.873,8.896,4.678,8.896L89.052,95.309z M114.829,81.012c-0.3,0.353-1.491,1.982-2.756,3.523l-7.03,8.562l-0.006-5.368
	c1.073-0.03,3.255-0.015,3.182-1.383c-0.06-1.377-3.079-1-5.174-0.906l0.21,7.836L90.403,68.089h16.868
	c14.17,0,16.867,0.099,16.867,0.587C124.139,69.124,119.394,75.409,114.829,81.012z M154.781,110.378
	c-4.431,4.283-10.888,6.019-16.571,4.459c-8.544-2.357-14.209-10.673-12.907-18.966c0.728-4.619,1.977-7.239,4.854-10.169
	c3.344-3.422,3.954-3.438,5.191-0.173c0.297,0.798,0.946,2.403,1.441,3.539c0.495,1.145,1.633,3.896,2.534,6.113
	c1.835,4.545,2.883,5.603,4.334,4.285c1.189-1.661,0.143-4.104-1.166-6.937c-0.702-1.281-4.238-10.813-4.238-11.436
	c0.993-0.986,3.288-0.507,4.674-0.461c3.977,0.177,5.028,0.381,7.107,1.346c3.078,1.438,7.069,5.434,8.511,8.533
	c0.954,2.055,1.718,2.854,1.771,7.571C160.886,102.863,157.888,106.967,154.781,110.378z"/>
<g>
	<g>
		<path fill="#7A3A8E" stroke="#FFFFFF" stroke-width="2" stroke-miterlimit="10" d="M194.768,155.904
			c-2.533-5.82-5.349-11.609-8.445-17.347c6.004-2.538,12.218-4.851,18.63-6.915c-63.973-26.855-136.118-26.687-199.987,0.509
			c0.04,0.094,0.08,0.188,0.12,0.282c6.617,2.096,13.025,4.457,19.212,7.059c-2.899,5.431-5.547,10.909-7.942,16.414
			C73.41,131.953,137.71,131.952,194.768,155.904L194.768,155.904L194.768,155.904z"/>
	</g>
</g>
<g>
	<g>
		<path fill="#FFFFFF" d="M54.975,123.193c1.998-0.201,3.747-0.479,5.258-0.849c1.172-0.285,2.107-0.619,2.814-1.01
			c0.282-0.161,0.453-0.245,0.502-0.259c0.12-0.026,0.195,0.031,0.229,0.171c0.11,0.461,0.007,1.005-0.301,1.628
			c-0.307,0.625-0.775,1.151-1.403,1.584c-0.629,0.431-1.474,0.775-2.535,1.043c-0.803,0.201-1.729,0.363-2.784,0.495
			c0.177,0.976,0.354,1.951,0.54,2.925c0.549-0.399,1.086-0.728,1.604-0.984c0.518-0.256,1.02-0.443,1.5-0.563
			c1.59-0.396,3.067-0.28,4.409,0.344c1.341,0.624,2.176,1.681,2.534,3.152c0.368,1.514,0.111,2.871-0.747,4.078
			c-0.858,1.209-2.17,2.024-3.962,2.48c-1.427,0.363-2.67,0.339-3.744-0.086c-1.071-0.423-1.767-1.098-2.062-2.033
			c-0.194-0.611-0.156-1.154,0.123-1.627c0.273-0.473,0.714-0.79,1.312-0.951c0.525-0.141,0.999-0.11,1.427,0.087
			c0.424,0.197,0.697,0.505,0.816,0.918c0.087,0.299,0.073,0.578-0.038,0.843c-0.111,0.264-0.384,0.567-0.818,0.913
			c-0.317,0.257-0.452,0.456-0.408,0.603c0.072,0.234,0.311,0.397,0.712,0.491c0.594,0.132,1.234,0.109,1.924-0.067
			c0.863-0.224,1.46-0.702,1.803-1.448c0.34-0.747,0.312-1.871-0.09-3.376c-0.339-1.271-0.833-2.139-1.501-2.595
			c-0.668-0.457-1.401-0.587-2.2-0.385c-0.371,0.096-0.753,0.256-1.147,0.484c-0.394,0.23-0.802,0.527-1.224,0.894
			c0.149,0.54,0.181,0.932,0.091,1.17c-0.092,0.242-0.275,0.399-0.551,0.475c-0.238,0.064-0.44,0.06-0.619-0.014
			c-0.179-0.076-0.292-0.198-0.345-0.371c-0.081-0.269,0.009-0.727,0.286-1.378C55.891,127.718,55.425,125.456,54.975,123.193z"/>
		<path fill="#FFFFFF" d="M74.172,118.927c1.091-0.191,2.123-0.087,3.092,0.312c0.97,0.397,1.845,1.17,2.619,2.311
			c0.776,1.139,1.283,2.527,1.536,4.155c0.257,1.644,0.201,3.108-0.149,4.395c-0.353,1.286-0.9,2.268-1.653,2.948
			c-0.753,0.683-1.63,1.11-2.646,1.291c-1.521,0.269-2.896-0.094-4.155-1.098c-1.572-1.241-2.651-3.028-3.178-5.39
			c-0.372-1.667-0.407-3.16-0.088-4.475c0.315-1.315,0.879-2.337,1.682-3.06C72.033,119.596,73.018,119.129,74.172,118.927z
			 M77.77,126.679c-0.547-3.093-1.131-5.084-1.788-5.971c-0.474-0.646-1.036-0.914-1.676-0.802
			c-0.769,0.136-1.244,0.743-1.414,1.818c-0.171,1.073,0.028,3.049,0.61,5.926c0.487,2.405,1.09,4.059,1.779,4.968
			c0.432,0.562,0.928,0.794,1.494,0.694c0.366-0.065,0.675-0.265,0.923-0.599c0.25-0.333,0.38-0.976,0.404-1.924
			C78.138,129.504,78.026,128.134,77.77,126.679z"/>
		<path fill="#FFFFFF" d="M89.149,116.835c1.085-0.112,2.098,0.065,3.025,0.533c0.928,0.466,1.734,1.299,2.418,2.491
			c0.685,1.193,1.081,2.613,1.21,4.257c0.131,1.655-0.036,3.112-0.482,4.368c-0.447,1.257-1.066,2.195-1.864,2.821
			c-0.797,0.626-1.695,0.988-2.711,1.096c-1.523,0.158-2.85-0.303-4.009-1.393c-1.452-1.352-2.373-3.211-2.715-5.603
			c-0.239-1.688-0.159-3.179,0.248-4.466c0.408-1.289,1.038-2.267,1.881-2.93C86.991,117.349,87.995,116.955,89.149,116.835z
			 M92.125,124.823c-0.306-3.123-0.741-5.15-1.322-6.08c-0.422-0.68-0.955-0.986-1.595-0.921c-0.765,0.08-1.279,0.651-1.525,1.71
			c-0.245,1.059-0.195,3.044,0.161,5.952c0.296,2.434,0.758,4.125,1.37,5.082c0.38,0.591,0.854,0.856,1.417,0.797
			c0.368-0.038,0.687-0.214,0.959-0.529c0.271-0.314,0.453-0.945,0.548-1.889C92.271,127.665,92.269,126.292,92.125,124.823z"/>
		<path fill="#FFFFFF" d="M108.996,116.851c0.375-0.003,0.751-0.005,1.125-0.006c0.005,1.378,0.01,2.757,0.014,4.135
			c1.277-0.005,2.551,0.004,3.827,0.023c-0.005,0.388-0.012,0.773-0.018,1.16c-1.27-0.02-2.536-0.027-3.806-0.023
			c0.007,2.13,0.015,4.261,0.021,6.392c-0.001,0.422,0.124,0.749,0.36,0.982c0.237,0.231,0.55,0.35,0.938,0.35
			c1.102,0.005,1.702-0.921,1.793-2.79c0.355,0.006,0.711,0.01,1.068,0.017c-0.044,0.994-0.235,1.792-0.567,2.392
			c-0.335,0.601-0.803,1.062-1.405,1.386c-0.603,0.325-1.274,0.486-2.025,0.487c-0.655,0.003-1.228-0.115-1.707-0.353
			c-0.486-0.238-0.875-0.596-1.173-1.073c-0.297-0.479-0.454-1.001-0.464-1.566c-0.044-2.062-0.085-4.123-0.127-6.186
			c-0.682,0.013-1.363,0.029-2.044,0.05c-0.012-0.329-0.021-0.658-0.029-0.987c1.251-0.181,2.226-0.617,2.923-1.322
			C108.396,119.212,108.828,118.191,108.996,116.851z"/>
		<path fill="#FFFFFF" d="M123.575,130.457c-0.022,0.332-0.048,0.663-0.072,0.996c-2.559-0.169-5.12-0.288-7.677-0.354
			c0.009-0.334,0.019-0.667,0.029-0.998c0.316,0.007,0.637,0.016,0.954,0.026c0.397,0.012,0.686-0.048,0.871-0.181
			c0.189-0.132,0.285-0.319,0.294-0.555c0.081-1.982,0.16-3.964,0.234-5.946c0.019-0.479-0.094-0.835-0.336-1.064
			c-0.24-0.229-0.589-0.355-1.041-0.368c-0.217-0.007-0.434-0.012-0.653-0.019c0.011-0.315,0.017-0.63,0.026-0.944
			c1.653-0.031,3.312-0.043,4.968-0.033c-0.058,1.09-0.116,2.182-0.174,3.271c0.344-1.08,0.889-1.895,1.642-2.438
			c0.751-0.544,1.584-0.786,2.487-0.722c0.769,0.053,1.364,0.277,1.78,0.667c0.418,0.386,0.601,0.861,0.553,1.418
			c-0.043,0.478-0.229,0.853-0.559,1.125c-0.332,0.271-0.714,0.389-1.154,0.356c-0.391-0.028-0.717-0.182-0.977-0.458
			c-0.265-0.276-0.379-0.615-0.353-1.015c0.017-0.222,0.099-0.45,0.251-0.683c0.08-0.132,0.122-0.226,0.127-0.282
			c0.008-0.101-0.014-0.176-0.063-0.227c-0.051-0.05-0.133-0.078-0.249-0.085c-0.293-0.021-0.631,0.108-1.002,0.386
			c-0.57,0.432-1.068,1.129-1.49,2.09c-0.424,0.965-0.657,1.948-0.715,2.948c-0.042,0.722-0.082,1.445-0.125,2.167
			c-0.014,0.25,0.051,0.445,0.191,0.586c0.144,0.14,0.346,0.218,0.614,0.233C122.497,130.388,123.036,130.421,123.575,130.457z"/>
		<path fill="#FFFFFF" d="M129.613,121.85c1.725,0.09,3.452,0.204,5.183,0.34c-0.347,2.827-0.705,5.653-1.069,8.478
			c-0.029,0.229,0.029,0.414,0.175,0.558c0.144,0.144,0.382,0.235,0.713,0.276c0.247,0.03,0.496,0.061,0.743,0.094
			c-0.047,0.33-0.093,0.659-0.138,0.989c-2.2-0.279-4.399-0.52-6.598-0.726c0.032-0.33,0.068-0.663,0.1-0.994
			c0.246,0.022,0.487,0.046,0.733,0.069c0.395,0.04,0.678-0.016,0.859-0.163c0.182-0.148,0.293-0.424,0.337-0.831
			c0.214-1.93,0.427-3.859,0.634-5.79c0.036-0.363-0.053-0.657-0.275-0.88c-0.221-0.224-0.547-0.357-0.972-0.397
			c-0.173-0.017-0.348-0.033-0.519-0.049C129.55,122.498,129.581,122.173,129.613,121.85z M133.438,116.403
			c0.569,0.061,1.041,0.285,1.409,0.669c0.367,0.386,0.521,0.821,0.463,1.305c-0.056,0.483-0.311,0.87-0.752,1.161
			c-0.44,0.293-0.945,0.407-1.503,0.347c-0.568-0.062-1.035-0.282-1.401-0.666c-0.369-0.382-0.528-0.812-0.48-1.29
			c0.047-0.484,0.29-0.875,0.733-1.174C132.346,116.458,132.857,116.339,133.438,116.403z"/>
		<path fill="#FFFFFF" d="M138.807,122.964c1.588,0.132,3.176,0.282,4.769,0.452c0.082,0.676,0.081,1.332,0.004,1.974
			c0.602-0.588,1.315-1.003,2.146-1.24c0.834-0.238,1.719-0.27,2.658-0.097c1.501,0.279,2.626,0.974,3.351,2.065
			c0.726,1.095,0.892,2.47,0.507,4.123c-0.266,1.148-0.712,2.077-1.322,2.788c-0.613,0.709-1.343,1.19-2.19,1.447
			c-0.846,0.257-1.77,0.291-2.777,0.105c-0.804-0.147-1.484-0.438-2.048-0.875c-0.562-0.437-1.049-1.062-1.465-1.879
			c-0.213,1.184-0.428,2.365-0.646,3.55c-0.088,0.465-0.104,0.771-0.05,0.914c0.052,0.144,0.178,0.267,0.377,0.368
			s0.61,0.21,1.239,0.325c-0.065,0.339-0.133,0.677-0.199,1.015c-2.156-0.375-4.312-0.709-6.469-1.009
			c0.053-0.341,0.105-0.682,0.16-1.021c0.114,0.015,0.23,0.03,0.346,0.048c0.41,0.058,0.684,0.062,0.834,0.016
			c0.149-0.047,0.277-0.146,0.379-0.299c0.076-0.104,0.147-0.387,0.224-0.849c0.518-3.136,1.018-6.272,1.508-9.41
			c0.071-0.462,0.077-0.772,0.019-0.936c-0.058-0.166-0.166-0.295-0.325-0.385c-0.159-0.092-0.545-0.193-1.159-0.3
			C138.72,123.559,138.762,123.261,138.807,122.964z M146.553,125.24c-0.798-0.141-1.537,0.071-2.212,0.636
			c-0.674,0.567-1.118,1.486-1.342,2.753c-0.222,1.254-0.106,2.259,0.336,3.02c0.446,0.76,1.021,1.203,1.745,1.331
			c0.709,0.127,1.336-0.055,1.891-0.543c0.726-0.647,1.229-1.606,1.497-2.882c0.244-1.171,0.2-2.145-0.135-2.921
			C147.994,125.858,147.399,125.391,146.553,125.24z"/>
		<path fill="#FFFFFF" d="M163.697,128.198c0.351-0.202,0.7-0.401,1.051-0.603c0.254,0.067,0.507,0.136,0.761,0.205
			c-0.241,1.125-0.488,2.252-0.742,3.376c-0.331-0.089-0.658-0.179-0.99-0.267c-0.262-1.02-0.66-1.792-1.191-2.313
			c-0.528-0.521-1.246-0.896-2.147-1.118c-0.775-0.191-1.4-0.208-1.87-0.052c-0.47,0.154-0.752,0.425-0.849,0.81
			c-0.096,0.377-0.017,0.699,0.245,0.969c0.257,0.275,1.046,0.694,2.365,1.276c1.193,0.53,1.972,0.93,2.343,1.183
			c0.709,0.478,1.202,1.044,1.477,1.694c0.277,0.65,0.301,1.331,0.078,2.039c-0.283,0.896-0.936,1.531-1.943,1.919
			c-1.009,0.389-2.17,0.409-3.494,0.074c-0.642-0.163-1.199-0.374-1.682-0.635c-0.48-0.263-0.955-0.632-1.431-1.104
			c-0.358,0.226-0.716,0.453-1.071,0.682c-0.296-0.069-0.593-0.137-0.891-0.203c0.246-1.25,0.486-2.501,0.723-3.752
			c0.332,0.074,0.663,0.15,0.994,0.226c0.37,2.062,1.544,3.323,3.564,3.835c0.835,0.211,1.508,0.235,2.035,0.066
			c0.526-0.166,0.85-0.444,0.968-0.839c0.11-0.359,0.055-0.669-0.169-0.93c-0.224-0.26-0.904-0.657-2.051-1.178
			c-1.236-0.558-2.073-0.968-2.5-1.247c-0.74-0.464-1.255-0.981-1.543-1.561c-0.289-0.578-0.355-1.209-0.186-1.892
			c0.239-0.976,0.814-1.692,1.739-2.139s2.041-0.513,3.337-0.195c0.634,0.156,1.185,0.362,1.652,0.614
			C162.749,127.394,163.221,127.746,163.697,128.198z"/>
	</g>
</g>
</svg>
