<?xml version="1.0" encoding="utf-8"?>
<!-- Generator: Adobe Illustrator 16.0.4, SVG Export Plug-In . SVG Version: 6.00 Build 0)  -->
<!DOCTYPE svg PUBLIC "-//W3C//DTD SVG 1.1//EN" "http://www.w3.org/Graphics/SVG/1.1/DTD/svg11.dtd">
<svg version="1.1" id="Livello_1" xmlns="http://www.w3.org/2000/svg" xmlns:xlink="http://www.w3.org/1999/xlink" x="0px" y="0px"
	 width="210px" height="200px" viewBox="0 0 210 200" enable-background="new 0 0 210 200" xml:space="preserve">
<g>
	<circle fill="#622E88" cx="105" cy="100" r="84"/>
	<circle fill="#622E88" stroke="#FFFFFF" stroke-width="5" stroke-miterlimit="10" cx="105" cy="100" r="75.216"/>
	<path fill="#FFFFFF" d="M163.651,92.394c-3.109-9.758-11.432-16.141-20.821-16.038l-6.807,0.248l-2.153-5.405
		c-4.187-10.489-6.349-15.631-7.012-16.63c-0.658-1-0.735-1.013-6.936-1.013c-5.492,0-6.358,0.096-6.829,0.733
		c-0.767,1.007-0.724,1.625,0.236,2.588c0.738,0.735,1.392,0.828,5.562,0.828c3.294,0,4.851,0.157,5.119,0.521
		c0.468,0.618,2.2,4.851,2.2,5.358c0,0.197-8.688,0.349-19.302,0.349H87.598l-0.82-1.627c-0.464-0.91-0.845-1.729-0.845-1.828
		c0-0.111,1.977-0.415,4.396-0.709c4.925-0.582,6.732-1.45,5.548-2.657c-0.53-0.548-2.012-0.675-8.599-0.755
		c-5.418-0.062-8.115,0.049-8.425,0.368c-0.25,0.25-0.398,1.185-0.324,2.072c0.117,1.427,0.234,2.237,1.553,2.083l1.996-0.258
		l2.596,4.892l-8.106,12.429c-5.779-1.732-11.027-2.126-16.964-0.214c-2.855,1.201-6.902,4.075-8.752,6.243
		c-2.423,2.829-4.326,7.11-4.895,11.021c-0.062,0.433-0.106,0.873-0.137,1.3v2.973c0.612,8.419,6.454,16.296,14.622,19.006
		c3.79,1.271,3.88,1.284,7.843,1.147c2.961-0.102,4.399-0.393,6.971-1.389c3.737-1.454,5.482-2.898,9.384-7.153
		c3.95-4.331,4.361-9.263,4.517-10.577c0.325-0.115,3.558-0.227,7.19-0.227h6.614l0.06,3.325c0.037,1.828-0.093,4.159-0.074,4.561
		c0.031,0.569-0.177,0.242-1.571,0.341c-1.581,0.105-1.783,0.238-1.662,1.036c0.099,0.73,0.448,0.949,1.747,1.049
		c0.89,0.08,3.039-0.262,3.577-0.398l0.112-10.036l2.796-3.485c1.591-2.01,3.039-3.842,3.209-4.064
		c0.18-0.235,0.993-1.263,1.807-2.293c0.808-1.027,4.613-5.837,8.45-10.695c3.836-4.851,7.096-8.83,7.268-8.83
		c0.175,0,0.509,0.427,0.751,0.95c1.488,3.117,2.283,5.2,2.473,6.41c0.2,1.185,0.09,1.408-0.87,1.772
		c-1.643,0.629-6.138,5.394-7.465,7.937c-1.658,3.168-2.757,7.215-2.757,10.23c0,4.453,2.997,11.805,6.063,14.857
		c8.335,8.335,20.345,9.09,29.42,1.862c3.169-2.817,5.854-6.509,7.144-10.581C164.322,101.045,164.442,94.856,163.651,92.394z
		 M78.303,84.301c2.917,2.642,5.742,5.253,6.266,11.072l-13.344,0.192L78.303,84.301z M66.584,114.447
		c-7.971-0.266-16.363-6.361-16.277-17.549C50.378,85.841,62.253,78.18,74.6,82.443c-3.248,5.731-10.714,15.525-9.811,16.764
		c0.935,1.29,2.701,0.86,11.088,0.86h8.92C83.888,112.446,71.438,114.602,66.584,114.447z M89.052,95.309
		c-1.207-5.944-4.626-10.711-8.722-15.102l5.834-9.625c0.245,0,1.347,1.634,2.461,3.623c1.116,2.005,4.235,7.556,6.942,12.332
		c2.704,4.771,4.873,8.896,4.678,8.896L89.052,95.309z M114.829,81.012c-0.3,0.353-1.491,1.982-2.756,3.523l-7.03,8.562
		l-0.006-5.368c1.073-0.03,3.255-0.015,3.182-1.383c-0.06-1.377-3.079-1-5.174-0.906l0.21,7.836L90.403,68.089h16.868
		c14.17,0,16.867,0.099,16.867,0.587C124.139,69.124,119.394,75.409,114.829,81.012z M154.781,110.378
		c-4.431,4.283-10.888,6.019-16.571,4.459c-8.544-2.357-14.209-10.673-12.907-18.966c0.728-4.619,1.977-7.239,4.854-10.169
		c3.344-3.422,3.954-3.438,5.191-0.173c0.297,0.798,0.946,2.403,1.441,3.539c0.495,1.145,1.633,3.896,2.534,6.113
		c1.835,4.545,2.883,5.603,4.334,4.285c1.189-1.661,0.143-4.104-1.166-6.937c-0.702-1.281-4.238-10.813-4.238-11.436
		c0.993-0.986,3.288-0.507,4.674-0.461c3.977,0.177,5.028,0.381,7.107,1.346c3.078,1.438,7.069,5.434,8.511,8.533
		c0.954,2.055,1.718,2.854,1.771,7.571C160.886,102.863,157.888,106.967,154.781,110.378z"/>
	<g>
		<g>
			<path fill="#7A3A8E" stroke="#FFFFFF" stroke-width="2" stroke-miterlimit="10" d="M194.768,155.904
				c-2.533-5.82-5.349-11.609-8.445-17.347c6.004-2.538,12.218-4.851,18.63-6.915c-63.973-26.855-136.118-26.687-199.987,0.509
				c0.04,0.094,0.08,0.188,0.12,0.282c6.617,2.096,13.025,4.457,19.212,7.059c-2.899,5.431-5.547,10.909-7.942,16.414
				C73.41,131.953,137.71,131.952,194.768,155.904L194.768,155.904L194.768,155.904z"/>
		</g>
	</g>
	<g>
		<g>
			<path fill="#FFFFFF" d="M52.932,122.03c2.019-0.206,3.783-0.483,5.311-0.851c1.184-0.286,2.129-0.618,2.844-1.009
				c0.288-0.16,0.457-0.246,0.51-0.257c0.12-0.027,0.197,0.031,0.229,0.17c0.107,0.463,0.001,1.007-0.313,1.63
				c-0.312,0.624-0.787,1.15-1.423,1.581c-0.635,0.431-1.488,0.775-2.561,1.043c-0.811,0.201-1.747,0.364-2.81,0.496
				c0.175,0.976,0.353,1.951,0.535,2.927c0.556-0.4,1.097-0.729,1.621-0.986c0.522-0.256,1.028-0.444,1.513-0.563
				c1.605-0.398,3.093-0.278,4.439,0.349c1.349,0.627,2.183,1.688,2.536,3.16c0.362,1.515,0.096,2.87-0.77,4.076
				c-0.869,1.207-2.185,2.02-3.987,2.474c-1.433,0.361-2.682,0.337-3.758-0.087c-1.08-0.424-1.778-1.097-2.075-2.031
				c-0.194-0.612-0.153-1.154,0.126-1.629c0.276-0.473,0.72-0.791,1.321-0.952c0.527-0.14,1.006-0.111,1.436,0.086
				c0.426,0.198,0.699,0.505,0.818,0.92c0.086,0.299,0.072,0.578-0.039,0.842s-0.389,0.567-0.827,0.914
				c-0.316,0.256-0.453,0.456-0.41,0.601c0.073,0.234,0.312,0.399,0.717,0.493c0.596,0.132,1.239,0.109,1.933-0.066
				c0.868-0.222,1.468-0.701,1.814-1.446c0.346-0.747,0.32-1.872-0.078-3.379c-0.335-1.271-0.831-2.138-1.501-2.597
				c-0.67-0.458-1.411-0.588-2.216-0.385c-0.373,0.094-0.759,0.255-1.155,0.484s-0.81,0.527-1.235,0.894
				c0.149,0.541,0.178,0.932,0.088,1.173c-0.093,0.239-0.277,0.398-0.557,0.475c-0.237,0.064-0.443,0.059-0.623-0.015
				c-0.178-0.075-0.293-0.198-0.346-0.37c-0.083-0.268,0.012-0.729,0.29-1.378C53.844,126.556,53.377,124.295,52.932,122.03z"/>
			<path fill="#FFFFFF" d="M72.327,117.802c1.099-0.186,2.14-0.073,3.112,0.332c0.974,0.405,1.849,1.184,2.618,2.33
				c0.771,1.146,1.266,2.538,1.504,4.17c0.241,1.645,0.171,3.107-0.194,4.392c-0.365,1.283-0.926,2.26-1.688,2.937
				c-0.762,0.676-1.647,1.098-2.667,1.271c-1.528,0.259-2.906-0.108-4.162-1.12c-1.571-1.25-2.646-3.041-3.162-5.405
				c-0.364-1.668-0.39-3.161-0.059-4.476c0.327-1.314,0.903-2.333,1.718-3.054C70.161,118.46,71.159,117.998,72.327,117.802z
				 M75.88,125.578c-0.521-3.097-1.093-5.093-1.746-5.981c-0.474-0.65-1.036-0.921-1.683-0.812c-0.776,0.13-1.261,0.735-1.441,1.809
				s0.006,3.052,0.569,5.93c0.471,2.41,1.064,4.067,1.749,4.98c0.432,0.564,0.929,0.799,1.496,0.703
				c0.37-0.063,0.68-0.261,0.932-0.592c0.253-0.332,0.392-0.975,0.423-1.923C76.223,128.406,76.126,127.036,75.88,125.578z"/>
			<path fill="#FFFFFF" d="M99.973,116.217c0.379-0.011,0.758-0.021,1.137-0.028c0.03,1.378,0.062,2.756,0.095,4.134
				c1.287-0.029,2.573-0.044,3.86-0.047c0.002,0.387,0.003,0.773,0.004,1.16c-1.28,0.003-2.559,0.019-3.837,0.048
				c0.05,2.129,0.1,4.26,0.153,6.39c0.01,0.423,0.137,0.746,0.381,0.975c0.245,0.229,0.562,0.339,0.951,0.332
				c1.11-0.017,1.692-0.952,1.748-2.821c0.358-0.003,0.717-0.004,1.074-0.005c-0.024,0.996-0.2,1.797-0.524,2.402
				s-0.785,1.076-1.383,1.411c-0.601,0.336-1.272,0.511-2.025,0.526c-0.659,0.015-1.235-0.092-1.726-0.319
				c-0.494-0.228-0.894-0.577-1.201-1.049c-0.31-0.474-0.478-0.991-0.502-1.556c-0.09-2.062-0.177-4.122-0.262-6.185
				c-0.688,0.028-1.374,0.059-2.062,0.094c-0.017-0.328-0.033-0.657-0.052-0.986c1.263-0.207,2.233-0.664,2.925-1.383
				C99.413,118.589,99.831,117.561,99.973,116.217z"/>
			<path fill="#FFFFFF" d="M114.905,129.571c-0.02,0.333-0.038,0.665-0.057,0.997c-2.571-0.132-5.145-0.211-7.718-0.232
				c0.005-0.334,0.008-0.667,0.011-0.999c0.32,0.003,0.642,0.007,0.962,0.011c0.396,0.006,0.685-0.058,0.871-0.195
				c0.184-0.136,0.28-0.321,0.286-0.558c0.044-1.983,0.087-3.966,0.128-5.95c0.011-0.479-0.106-0.833-0.356-1.061
				c-0.247-0.225-0.6-0.343-1.057-0.349c-0.219-0.002-0.438-0.005-0.658-0.007c0.003-0.315,0.007-0.631,0.01-0.945
				c1.667-0.06,3.337-0.099,5.007-0.113c-0.041,1.09-0.08,2.182-0.121,3.273c0.328-1.085,0.865-1.908,1.613-2.463
				c0.75-0.557,1.585-0.811,2.494-0.758c0.778,0.043,1.379,0.259,1.805,0.644c0.428,0.381,0.616,0.854,0.576,1.41
				c-0.033,0.479-0.22,0.855-0.546,1.131c-0.33,0.276-0.714,0.4-1.156,0.372c-0.394-0.022-0.723-0.17-0.99-0.443
				c-0.27-0.273-0.394-0.609-0.369-1.011c0.011-0.221,0.093-0.45,0.241-0.687c0.079-0.131,0.121-0.226,0.124-0.282
				c0.005-0.1-0.018-0.177-0.067-0.226c-0.052-0.049-0.136-0.076-0.251-0.082c-0.299-0.016-0.635,0.117-1.005,0.4
				c-0.567,0.439-1.057,1.144-1.467,2.111c-0.409,0.97-0.629,1.957-0.671,2.959c-0.028,0.722-0.06,1.445-0.088,2.167
				c-0.011,0.251,0.058,0.446,0.202,0.584c0.143,0.137,0.352,0.214,0.62,0.224C113.82,129.518,114.363,129.543,114.905,129.571z"/>
			<path fill="#FFFFFF" d="M120.85,120.885c1.74,0.07,3.481,0.165,5.226,0.282c-0.315,2.83-0.641,5.659-0.973,8.489
				c-0.025,0.229,0.033,0.414,0.182,0.555c0.147,0.143,0.388,0.231,0.72,0.27c0.248,0.026,0.498,0.057,0.748,0.085
				c-0.044,0.331-0.086,0.661-0.129,0.992c-2.211-0.258-4.42-0.476-6.631-0.651c0.03-0.332,0.059-0.664,0.088-0.996
				c0.244,0.021,0.491,0.041,0.736,0.061c0.395,0.033,0.682-0.023,0.861-0.174c0.178-0.15,0.287-0.429,0.327-0.834
				c0.19-1.932,0.375-3.865,0.56-5.798c0.034-0.364-0.062-0.657-0.287-0.878s-0.554-0.351-0.985-0.386
				c-0.174-0.015-0.349-0.028-0.522-0.042C120.796,121.535,120.824,121.21,120.85,120.885z M124.633,115.394
				c0.576,0.057,1.055,0.275,1.43,0.656c0.378,0.381,0.536,0.814,0.484,1.298c-0.055,0.485-0.302,0.875-0.745,1.171
				c-0.44,0.296-0.945,0.415-1.509,0.361c-0.574-0.056-1.047-0.271-1.423-0.649c-0.374-0.379-0.544-0.808-0.502-1.285
				c0.043-0.485,0.282-0.879,0.725-1.183C123.534,115.461,124.047,115.338,124.633,115.394z"/>
			<path fill="#FFFFFF" d="M130.122,121.902c1.601,0.117,3.203,0.258,4.807,0.416c0.09,0.674,0.097,1.332,0.023,1.975
				c0.598-0.594,1.315-1.015,2.15-1.257c0.837-0.242,1.73-0.279,2.676-0.11c1.514,0.27,2.652,0.961,3.391,2.051
				c0.735,1.091,0.909,2.468,0.534,4.122c-0.26,1.149-0.702,2.079-1.313,2.792c-0.611,0.712-1.341,1.197-2.19,1.458
				c-0.848,0.261-1.774,0.302-2.787,0.121c-0.808-0.145-1.493-0.431-2.062-0.861c-0.57-0.433-1.063-1.056-1.486-1.87
				c-0.204,1.186-0.409,2.37-0.617,3.554c-0.084,0.469-0.098,0.771-0.043,0.915c0.053,0.143,0.182,0.265,0.381,0.365
				c0.2,0.102,0.614,0.205,1.246,0.318c-0.065,0.337-0.129,0.677-0.193,1.016c-2.163-0.36-4.327-0.679-6.491-0.958
				c0.05-0.34,0.1-0.68,0.151-1.021c0.114,0.014,0.229,0.027,0.347,0.044c0.408,0.055,0.687,0.058,0.837,0.008
				c0.148-0.047,0.275-0.148,0.377-0.3c0.072-0.106,0.144-0.391,0.216-0.852c0.486-3.141,0.96-6.281,1.419-9.425
				c0.066-0.459,0.071-0.771,0.01-0.936c-0.061-0.165-0.169-0.291-0.333-0.382c-0.159-0.09-0.549-0.188-1.167-0.289
				C130.042,122.499,130.083,122.2,130.122,121.902z M137.943,124.123c-0.804-0.137-1.547,0.081-2.22,0.651
				c-0.674,0.568-1.111,1.491-1.325,2.761c-0.212,1.257-0.088,2.26,0.364,3.017c0.45,0.758,1.035,1.195,1.764,1.32
				c0.712,0.122,1.342-0.062,1.895-0.554c0.725-0.653,1.225-1.613,1.482-2.891c0.239-1.171,0.188-2.146-0.155-2.92
				C139.403,124.733,138.799,124.269,137.943,124.123z"/>
			<path fill="#FFFFFF" d="M155.229,127.037c0.352-0.201,0.704-0.401,1.058-0.603c0.256,0.067,0.511,0.136,0.768,0.206
				c-0.241,1.127-0.488,2.254-0.74,3.378c-0.334-0.091-0.666-0.18-0.998-0.268c-0.267-1.021-0.671-1.795-1.207-2.315
				c-0.534-0.521-1.26-0.896-2.169-1.118c-0.783-0.191-1.413-0.207-1.884-0.05c-0.472,0.156-0.755,0.426-0.851,0.811
				c-0.096,0.377-0.012,0.7,0.251,0.97c0.261,0.274,1.058,0.692,2.386,1.273c1.203,0.53,1.988,0.929,2.362,1.184
				c0.714,0.476,1.212,1.044,1.49,1.695c0.277,0.65,0.303,1.332,0.079,2.04c-0.282,0.896-0.938,1.531-1.953,1.919
				c-1.013,0.387-2.179,0.409-3.511,0.073c-0.641-0.162-1.202-0.371-1.688-0.633c-0.483-0.262-0.964-0.628-1.441-1.101
				c-0.358,0.228-0.717,0.456-1.071,0.685c-0.299-0.067-0.597-0.135-0.896-0.201c0.243-1.25,0.48-2.502,0.712-3.754
				c0.333,0.074,0.666,0.149,1,0.224c0.383,2.062,1.562,3.321,3.595,3.829c0.834,0.211,1.517,0.234,2.045,0.067
				c0.526-0.167,0.854-0.447,0.973-0.84c0.109-0.361,0.052-0.67-0.173-0.931c-0.226-0.261-0.912-0.658-2.063-1.178
				c-1.246-0.557-2.089-0.965-2.522-1.244c-0.742-0.462-1.263-0.98-1.557-1.558c-0.293-0.578-0.359-1.209-0.194-1.892
				c0.236-0.978,0.81-1.695,1.74-2.142c0.927-0.449,2.053-0.519,3.361-0.2c0.64,0.155,1.195,0.361,1.668,0.613
				C154.269,126.232,154.746,126.583,155.229,127.037z"/>
		</g>
	</g>
</g>
</svg>
