<?xml version="1.0" encoding="utf-8"?>
<!-- Generator: Adobe Illustrator 16.0.4, SVG Export Plug-In . SVG Version: 6.00 Build 0)  -->
<!DOCTYPE svg PUBLIC "-//W3C//DTD SVG 1.1//EN" "http://www.w3.org/Graphics/SVG/1.1/DTD/svg11.dtd">
<svg version="1.1" id="Livello_1" xmlns="http://www.w3.org/2000/svg" xmlns:xlink="http://www.w3.org/1999/xlink" x="0px" y="0px"
	 width="210px" height="200px" viewBox="0 0 210 200" enable-background="new 0 0 210 200" xml:space="preserve">
<circle fill="#622E88" cx="105" cy="100" r="84"/>
<circle fill="#622E88" stroke="#FFFFFF" stroke-width="5" stroke-miterlimit="10" cx="105" cy="100" r="75.216"/>
<path fill="#FFFFFF" d="M163.651,92.394c-3.109-9.758-11.432-16.141-20.821-16.038l-6.807,0.248l-2.153-5.405
	c-4.187-10.489-6.349-15.631-7.012-16.63c-0.658-1-0.735-1.013-6.936-1.013c-5.492,0-6.358,0.096-6.829,0.733
	c-0.767,1.007-0.724,1.625,0.236,2.588c0.738,0.735,1.392,0.828,5.562,0.828c3.294,0,4.851,0.157,5.119,0.521
	c0.468,0.618,2.2,4.851,2.2,5.358c0,0.197-8.688,0.349-19.302,0.349H87.598l-0.82-1.627c-0.464-0.91-0.845-1.729-0.845-1.828
	c0-0.111,1.977-0.415,4.396-0.709c4.925-0.582,6.732-1.45,5.548-2.657c-0.53-0.548-2.012-0.675-8.599-0.755
	c-5.418-0.062-8.115,0.049-8.425,0.368c-0.25,0.25-0.398,1.185-0.324,2.072c0.117,1.427,0.234,2.237,1.553,2.083l1.996-0.258
	l2.596,4.892l-8.106,12.429c-5.779-1.732-11.027-2.126-16.964-0.214c-2.855,1.201-6.902,4.075-8.752,6.243
	c-2.423,2.829-4.326,7.11-4.895,11.021c-0.062,0.433-0.106,0.873-0.137,1.3v2.973c0.612,8.419,6.454,16.296,14.622,19.006
	c3.79,1.271,3.88,1.284,7.843,1.147c2.961-0.102,4.399-0.393,6.971-1.389c3.737-1.454,5.482-2.898,9.384-7.153
	c3.95-4.331,4.361-9.263,4.517-10.577c0.325-0.115,3.558-0.227,7.19-0.227h6.614l0.06,3.325c0.037,1.828-0.093,4.159-0.074,4.561
	c0.031,0.569-0.177,0.242-1.571,0.341c-1.581,0.105-1.783,0.238-1.662,1.036c0.099,0.73,0.448,0.949,1.747,1.049
	c0.89,0.08,3.039-0.262,3.577-0.398l0.112-10.036l2.796-3.485c1.591-2.01,3.039-3.842,3.209-4.064
	c0.18-0.235,0.993-1.263,1.807-2.293c0.808-1.027,4.613-5.837,8.45-10.695c3.836-4.851,7.096-8.83,7.268-8.83
	c0.175,0,0.509,0.427,0.751,0.95c1.488,3.117,2.283,5.2,2.473,6.41c0.2,1.185,0.09,1.408-0.87,1.772
	c-1.643,0.629-6.138,5.394-7.465,7.937c-1.658,3.168-2.757,7.215-2.757,10.23c0,4.453,2.997,11.805,6.063,14.857
	c8.335,8.335,20.345,9.09,29.42,1.862c3.169-2.817,5.854-6.509,7.144-10.581C164.322,101.045,164.442,94.856,163.651,92.394z
	 M78.303,84.301c2.917,2.642,5.742,5.253,6.266,11.072l-13.344,0.192L78.303,84.301z M66.584,114.447
	c-7.971-0.266-16.363-6.361-16.277-17.549C50.378,85.841,62.253,78.18,74.6,82.443c-3.248,5.731-10.714,15.525-9.811,16.764
	c0.935,1.29,2.701,0.86,11.088,0.86h8.92C83.888,112.446,71.438,114.602,66.584,114.447z M89.052,95.309
	c-1.207-5.944-4.626-10.711-8.722-15.102l5.834-9.625c0.245,0,1.347,1.634,2.461,3.623c1.116,2.005,4.235,7.556,6.942,12.332
	c2.704,4.771,4.873,8.896,4.678,8.896L89.052,95.309z M114.829,81.012c-0.3,0.353-1.491,1.982-2.756,3.523l-7.03,8.562l-0.006-5.368
	c1.073-0.03,3.255-0.015,3.182-1.383c-0.06-1.377-3.079-1-5.174-0.906l0.21,7.836L90.403,68.089h16.868
	c14.17,0,16.867,0.099,16.867,0.587C124.139,69.124,119.394,75.409,114.829,81.012z M154.781,110.378
	c-4.431,4.283-10.888,6.019-16.571,4.459c-8.544-2.357-14.209-10.673-12.907-18.966c0.728-4.619,1.977-7.239,4.854-10.169
	c3.344-3.422,3.954-3.438,5.191-0.173c0.297,0.798,0.946,2.403,1.441,3.539c0.495,1.145,1.633,3.896,2.534,6.113
	c1.835,4.545,2.883,5.603,4.334,4.285c1.189-1.661,0.143-4.104-1.166-6.937c-0.702-1.281-4.238-10.813-4.238-11.436
	c0.993-0.986,3.288-0.507,4.674-0.461c3.977,0.177,5.028,0.381,7.107,1.346c3.078,1.438,7.069,5.434,8.511,8.533
	c0.954,2.055,1.718,2.854,1.771,7.571C160.886,102.863,157.888,106.967,154.781,110.378z"/>
<g>
	<g>
		<path fill="#7A3A8E" stroke="#FFFFFF" stroke-width="2" stroke-miterlimit="10" d="M194.768,155.904
			c-2.533-5.82-5.349-11.609-8.445-17.347c6.004-2.538,12.218-4.851,18.63-6.915c-63.973-26.855-136.118-26.687-199.987,0.509
			c0.04,0.094,0.08,0.188,0.12,0.282c6.617,2.096,13.025,4.457,19.212,7.059c-2.899,5.431-5.547,10.909-7.942,16.414
			C73.41,131.953,137.71,131.952,194.768,155.904L194.768,155.904L194.768,155.904z"/>
	</g>
</g>
<g>
	<g>
		<path fill="#FFFFFF" d="M57.146,134.974c1.831-0.484,3.664-0.944,5.495-1.377c0.518-0.123,0.879-0.363,1.085-0.727
			c0.205-0.364,0.284-1.064,0.238-2.102c0.398-0.09,0.798-0.178,1.196-0.268c0.284,1.707,0.578,3.413,0.881,5.117
			c-3.551,0.787-7.1,1.677-10.648,2.669c-0.094-0.297-0.19-0.593-0.286-0.89c0.316-0.963,1.068-2.514,2.317-4.632
			c1.107-1.88,1.821-3.236,2.084-4.085c0.366-1.153,0.425-2.241,0.162-3.266c-0.226-0.883-0.632-1.497-1.228-1.842
			c-0.595-0.343-1.307-0.411-2.138-0.201c-0.839,0.21-1.487,0.578-1.94,1.095c-0.453,0.516-0.62,0.972-0.508,1.365
			c0.046,0.159,0.145,0.267,0.296,0.323c0.152,0.063,0.478,0.081,0.974,0.055c1.073-0.042,1.705,0.296,1.898,1.003
			c0.13,0.479,0.046,0.921-0.248,1.327c-0.298,0.405-0.733,0.684-1.307,0.835c-0.601,0.159-1.159,0.082-1.684-0.234
			c-0.52-0.317-0.901-0.859-1.131-1.631c-0.322-1.076-0.162-2.095,0.495-3.05c0.8-1.176,2.132-2.004,3.963-2.455
			c1.637-0.403,3.048-0.337,4.224,0.182c1.177,0.52,1.885,1.333,2.14,2.43c0.139,0.587,0.145,1.149,0.021,1.691
			c-0.165,0.734-0.448,1.42-0.853,2.058c-0.403,0.639-1.137,1.494-2.181,2.584c-1.134,1.169-1.882,2.008-2.279,2.504
			C57.792,133.948,57.446,134.455,57.146,134.974z"/>
		<path fill="#FFFFFF" d="M71.927,118.885c1.087-0.19,2.119-0.084,3.089,0.315s1.843,1.172,2.618,2.313s1.281,2.528,1.532,4.158
			c0.255,1.642,0.198,3.106-0.153,4.393c-0.353,1.286-0.903,2.267-1.657,2.948c-0.752,0.682-1.631,1.108-2.645,1.286
			c-1.524,0.27-2.898-0.096-4.155-1.101c-1.569-1.242-2.647-3.031-3.171-5.393c-0.371-1.668-0.404-3.16-0.085-4.476
			c0.317-1.313,0.881-2.336,1.686-3.057C69.785,119.552,70.772,119.087,71.927,118.885z M75.517,126.641
			c-0.544-3.094-1.129-5.087-1.784-5.971c-0.473-0.647-1.034-0.916-1.674-0.805c-0.77,0.135-1.243,0.741-1.415,1.816
			c-0.171,1.074,0.026,3.049,0.604,5.926c0.482,2.406,1.084,4.061,1.774,4.972c0.431,0.563,0.929,0.793,1.492,0.693
			c0.367-0.064,0.676-0.264,0.925-0.596c0.25-0.334,0.381-0.976,0.404-1.925C75.879,129.466,75.771,128.096,75.517,126.641z"/>
		<path fill="#FFFFFF" d="M86.901,116.808c1.085-0.112,2.097,0.066,3.024,0.535c0.926,0.468,1.734,1.301,2.416,2.494
			c0.683,1.192,1.079,2.611,1.206,4.255c0.129,1.657-0.038,3.111-0.486,4.369c-0.446,1.258-1.066,2.194-1.865,2.819
			c-0.797,0.625-1.698,0.987-2.712,1.093c-1.521,0.157-2.849-0.304-4.007-1.395c-1.451-1.353-2.371-3.212-2.709-5.604
			c-0.238-1.688-0.159-3.179,0.252-4.467c0.41-1.286,1.039-2.265,1.882-2.927C84.743,117.318,85.747,116.926,86.901,116.808z
			 M89.87,124.797c-0.304-3.123-0.735-5.151-1.317-6.081c-0.421-0.68-0.956-0.988-1.593-0.921c-0.768,0.078-1.28,0.65-1.526,1.708
			c-0.248,1.06-0.197,3.043,0.153,5.952c0.297,2.434,0.758,4.125,1.368,5.081c0.381,0.593,0.854,0.858,1.418,0.801
			c0.367-0.039,0.687-0.216,0.958-0.529c0.272-0.315,0.453-0.945,0.55-1.889C90.013,127.64,90.013,126.266,89.87,124.797z"/>
		<path fill="#FFFFFF" d="M106.744,116.836c0.376-0.003,0.75-0.006,1.125-0.007c0.003,1.379,0.006,2.757,0.011,4.136
			c1.275-0.003,2.551,0.006,3.827,0.026c-0.005,0.387-0.014,0.773-0.02,1.16c-1.269-0.021-2.534-0.029-3.805-0.026
			c0.006,2.131,0.011,4.261,0.018,6.392c0.002,0.423,0.12,0.75,0.359,0.983c0.238,0.232,0.549,0.348,0.938,0.35
			c1.105,0.004,1.702-0.92,1.796-2.788c0.354,0.004,0.712,0.011,1.066,0.017c-0.042,0.995-0.233,1.791-0.567,2.391
			c-0.334,0.602-0.804,1.062-1.405,1.386c-0.603,0.323-1.276,0.486-2.026,0.487c-0.657,0.001-1.223-0.117-1.708-0.354
			c-0.484-0.237-0.876-0.598-1.17-1.074c-0.298-0.479-0.452-1-0.465-1.566c-0.041-2.062-0.083-4.125-0.122-6.187
			c-0.682,0.013-1.361,0.029-2.044,0.049c-0.01-0.329-0.02-0.658-0.028-0.987c1.253-0.18,2.224-0.615,2.923-1.321
			C106.143,119.196,106.575,118.176,106.744,116.836z"/>
		<path fill="#FFFFFF" d="M121.315,130.448c-0.025,0.332-0.048,0.664-0.073,0.997c-2.559-0.17-5.117-0.29-7.677-0.357
			c0.01-0.333,0.018-0.667,0.029-0.999c0.319,0.01,0.637,0.018,0.956,0.028c0.396,0.012,0.682-0.048,0.871-0.182
			c0.187-0.132,0.283-0.316,0.295-0.553c0.08-1.981,0.156-3.965,0.236-5.947c0.02-0.479-0.094-0.835-0.336-1.065
			c-0.24-0.229-0.59-0.354-1.041-0.367c-0.219-0.006-0.435-0.013-0.653-0.019c0.011-0.316,0.018-0.63,0.027-0.944
			c1.653-0.031,3.308-0.042,4.968-0.031c-0.059,1.091-0.117,2.181-0.176,3.272c0.343-1.08,0.888-1.896,1.643-2.439
			c0.753-0.543,1.584-0.785,2.486-0.722c0.77,0.055,1.363,0.279,1.779,0.669c0.417,0.389,0.602,0.862,0.551,1.418
			c-0.04,0.478-0.227,0.853-0.557,1.125c-0.333,0.271-0.715,0.39-1.154,0.357c-0.392-0.031-0.716-0.183-0.978-0.459
			c-0.264-0.277-0.38-0.615-0.353-1.016c0.016-0.222,0.102-0.449,0.252-0.683c0.079-0.13,0.123-0.226,0.127-0.282
			c0.008-0.101-0.014-0.176-0.062-0.226c-0.053-0.049-0.135-0.079-0.25-0.086c-0.293-0.021-0.629,0.107-1.001,0.386
			c-0.572,0.431-1.068,1.128-1.49,2.09c-0.424,0.964-0.661,1.945-0.718,2.947c-0.041,0.723-0.082,1.444-0.125,2.166
			c-0.013,0.251,0.05,0.445,0.191,0.587c0.143,0.139,0.345,0.218,0.614,0.233C120.237,130.379,120.775,130.412,121.315,130.448z"/>
		<path fill="#FFFFFF" d="M127.355,121.844c1.726,0.092,3.451,0.206,5.182,0.341c-0.348,2.828-0.704,5.653-1.072,8.479
			c-0.031,0.229,0.03,0.413,0.176,0.557c0.145,0.145,0.381,0.234,0.712,0.277c0.249,0.029,0.496,0.062,0.744,0.092
			c-0.046,0.331-0.094,0.661-0.138,0.991c-2.2-0.281-4.399-0.523-6.599-0.728c0.032-0.332,0.067-0.663,0.102-0.994
			c0.243,0.022,0.487,0.046,0.732,0.069c0.394,0.038,0.68-0.016,0.858-0.164c0.18-0.148,0.294-0.424,0.338-0.829
			c0.215-1.93,0.43-3.861,0.635-5.791c0.041-0.363-0.052-0.657-0.272-0.881c-0.22-0.225-0.547-0.356-0.973-0.398
			c-0.173-0.017-0.346-0.033-0.519-0.049C127.294,122.493,127.324,122.168,127.355,121.844z M131.182,116.398
			c0.569,0.062,1.04,0.285,1.409,0.67c0.367,0.387,0.52,0.821,0.462,1.306c-0.059,0.483-0.309,0.868-0.752,1.161
			c-0.442,0.291-0.945,0.404-1.503,0.344c-0.569-0.061-1.035-0.281-1.401-0.666c-0.368-0.383-0.527-0.812-0.479-1.289
			c0.047-0.483,0.29-0.876,0.733-1.174C130.092,116.452,130.604,116.336,131.182,116.398z"/>
		<path fill="#FFFFFF" d="M136.548,122.96c1.586,0.133,3.178,0.284,4.768,0.454c0.081,0.676,0.083,1.333,0.004,1.975
			c0.601-0.59,1.314-1.004,2.147-1.24c0.833-0.237,1.719-0.271,2.657-0.097c1.502,0.278,2.627,0.976,3.351,2.065
			c0.724,1.094,0.891,2.471,0.505,4.124c-0.266,1.148-0.709,2.076-1.322,2.786c-0.612,0.709-1.343,1.193-2.19,1.449
			c-0.845,0.256-1.77,0.29-2.777,0.104c-0.803-0.146-1.486-0.438-2.048-0.875c-0.564-0.437-1.05-1.062-1.463-1.88
			c-0.215,1.184-0.43,2.366-0.647,3.551c-0.087,0.466-0.104,0.771-0.05,0.913c0.05,0.144,0.177,0.268,0.376,0.368
			c0.199,0.102,0.611,0.21,1.24,0.326c-0.067,0.339-0.134,0.677-0.2,1.016c-2.155-0.374-4.313-0.712-6.469-1.012
			c0.053-0.34,0.106-0.68,0.16-1.021c0.114,0.017,0.23,0.033,0.346,0.048c0.408,0.059,0.687,0.063,0.835,0.018
			c0.148-0.048,0.273-0.146,0.379-0.3c0.071-0.104,0.147-0.388,0.224-0.847c0.516-3.138,1.021-6.274,1.51-9.412
			c0.071-0.46,0.077-0.773,0.02-0.936c-0.056-0.165-0.168-0.294-0.326-0.385c-0.156-0.092-0.544-0.194-1.157-0.3
			C136.46,123.556,136.505,123.259,136.548,122.96z M144.292,125.24c-0.797-0.143-1.536,0.071-2.211,0.635
			c-0.675,0.566-1.119,1.484-1.343,2.752c-0.222,1.254-0.106,2.259,0.337,3.019c0.442,0.762,1.018,1.203,1.744,1.333
			c0.708,0.128,1.338-0.055,1.89-0.544c0.729-0.647,1.229-1.606,1.498-2.881c0.246-1.17,0.2-2.145-0.134-2.921
			C145.735,125.857,145.141,125.39,144.292,125.24z"/>
		<path fill="#FFFFFF" d="M161.437,128.198c0.349-0.201,0.699-0.402,1.05-0.603c0.254,0.068,0.508,0.137,0.761,0.204
			c-0.24,1.127-0.491,2.253-0.74,3.378c-0.332-0.09-0.661-0.179-0.992-0.268c-0.262-1.02-0.659-1.792-1.19-2.313
			c-0.527-0.52-1.247-0.896-2.149-1.118c-0.777-0.191-1.4-0.207-1.868-0.052c-0.469,0.154-0.752,0.426-0.85,0.809
			c-0.097,0.378-0.015,0.701,0.245,0.97c0.257,0.274,1.048,0.694,2.366,1.277c1.193,0.529,1.971,0.928,2.342,1.182
			c0.708,0.477,1.202,1.044,1.477,1.694c0.276,0.651,0.302,1.331,0.077,2.039c-0.282,0.896-0.935,1.531-1.942,1.92
			c-1.01,0.388-2.17,0.407-3.494,0.074c-0.642-0.164-1.199-0.375-1.681-0.637c-0.481-0.261-0.957-0.63-1.433-1.103
			c-0.358,0.225-0.714,0.453-1.07,0.681c-0.297-0.067-0.594-0.137-0.891-0.204c0.244-1.249,0.487-2.499,0.723-3.75
			c0.332,0.074,0.663,0.15,0.995,0.227c0.368,2.062,1.543,3.323,3.564,3.834c0.831,0.211,1.51,0.234,2.034,0.066
			c0.526-0.165,0.85-0.444,0.969-0.839c0.11-0.359,0.054-0.669-0.169-0.93c-0.224-0.26-0.905-0.657-2.051-1.178
			c-1.237-0.556-2.073-0.968-2.503-1.246c-0.736-0.465-1.251-0.983-1.541-1.562c-0.289-0.578-0.353-1.208-0.186-1.89
			c0.24-0.977,0.814-1.693,1.74-2.14c0.922-0.445,2.039-0.514,3.338-0.195c0.631,0.157,1.184,0.361,1.65,0.614
			C160.486,127.393,160.958,127.746,161.437,128.198z"/>
	</g>
</g>
</svg>
