<?xml version="1.0" encoding="utf-8"?>
<!-- Generator: Adobe Illustrator 16.0.4, SVG Export Plug-In . SVG Version: 6.00 Build 0)  -->
<!DOCTYPE svg PUBLIC "-//W3C//DTD SVG 1.1//EN" "http://www.w3.org/Graphics/SVG/1.1/DTD/svg11.dtd">
<svg version="1.1" id="Livello_1" xmlns="http://www.w3.org/2000/svg" xmlns:xlink="http://www.w3.org/1999/xlink" x="0px" y="0px"
	 width="210px" height="200px" viewBox="0 0 210 200" enable-background="new 0 0 210 200" xml:space="preserve">
<g>
	<circle fill="#622E88" cx="105" cy="100" r="84"/>
	<circle fill="#622E88" stroke="#FFFFFF" stroke-width="5" stroke-miterlimit="10" cx="105" cy="100" r="75.216"/>
	<path fill="#FFFFFF" d="M163.652,92.394c-3.109-9.758-11.432-16.141-20.821-16.038l-6.807,0.248l-2.153-5.405
		c-4.187-10.489-6.349-15.631-7.012-16.63c-0.658-1-0.735-1.013-6.936-1.013c-5.492,0-6.358,0.096-6.829,0.733
		c-0.767,1.007-0.724,1.625,0.236,2.588c0.738,0.735,1.392,0.828,5.562,0.828c3.294,0,4.851,0.157,5.119,0.521
		c0.468,0.618,2.2,4.851,2.2,5.358c0,0.197-8.688,0.349-19.302,0.349H87.598l-0.82-1.627c-0.464-0.91-0.845-1.729-0.845-1.828
		c0-0.111,1.977-0.415,4.396-0.709c4.925-0.582,6.732-1.45,5.548-2.657c-0.53-0.548-2.012-0.675-8.599-0.755
		c-5.418-0.062-8.115,0.049-8.425,0.368c-0.25,0.25-0.398,1.185-0.324,2.072c0.117,1.427,0.234,2.237,1.553,2.083l1.996-0.258
		l2.596,4.892l-8.106,12.429c-5.779-1.732-11.027-2.126-16.964-0.214c-2.855,1.201-6.902,4.075-8.752,6.243
		c-2.423,2.829-4.326,7.11-4.895,11.021c-0.062,0.433-0.106,0.873-0.137,1.3v2.973c0.612,8.419,6.454,16.296,14.622,19.006
		c3.79,1.271,3.88,1.284,7.843,1.147c2.961-0.102,4.399-0.393,6.971-1.389c3.737-1.454,5.482-2.898,9.384-7.153
		c3.95-4.331,4.361-9.263,4.517-10.577c0.325-0.115,3.558-0.227,7.19-0.227h6.614l0.06,3.325c0.037,1.828-0.093,4.159-0.074,4.561
		c0.031,0.569-0.177,0.242-1.571,0.341c-1.581,0.105-1.783,0.238-1.662,1.036c0.099,0.73,0.448,0.949,1.747,1.049
		c0.89,0.08,3.039-0.262,3.577-0.398l0.112-10.036l2.796-3.485c1.591-2.01,3.039-3.842,3.209-4.064
		c0.18-0.235,0.993-1.263,1.807-2.293c0.808-1.027,4.613-5.837,8.45-10.695c3.836-4.851,7.096-8.83,7.268-8.83
		c0.175,0,0.509,0.427,0.751,0.95c1.488,3.117,2.283,5.2,2.473,6.41c0.2,1.185,0.09,1.408-0.87,1.772
		c-1.643,0.629-6.138,5.394-7.465,7.937c-1.658,3.168-2.757,7.215-2.757,10.23c0,4.453,2.997,11.805,6.063,14.857
		c8.335,8.335,20.345,9.09,29.42,1.862c3.169-2.817,5.854-6.509,7.144-10.581C164.323,101.045,164.443,94.856,163.652,92.394z
		 M78.303,84.301c2.917,2.642,5.742,5.253,6.266,11.072l-13.344,0.192L78.303,84.301z M66.584,114.447
		c-7.971-0.266-16.363-6.361-16.277-17.549C50.378,85.841,62.253,78.18,74.6,82.443c-3.248,5.731-10.714,15.525-9.811,16.764
		c0.935,1.29,2.701,0.86,11.088,0.86h8.92C83.888,112.446,71.438,114.602,66.584,114.447z M89.052,95.309
		c-1.207-5.944-4.626-10.711-8.722-15.102l5.834-9.625c0.245,0,1.347,1.634,2.461,3.623c1.116,2.005,4.235,7.556,6.942,12.332
		c2.704,4.771,4.873,8.896,4.678,8.896L89.052,95.309z M114.83,81.012c-0.3,0.353-1.491,1.982-2.756,3.523l-7.03,8.562l-0.006-5.368
		c1.073-0.03,3.255-0.015,3.182-1.383c-0.06-1.377-3.079-1-5.174-0.906l0.21,7.836L90.404,68.089h16.868
		c14.17,0,16.867,0.099,16.867,0.587C124.139,69.124,119.394,75.409,114.83,81.012z M154.782,110.378
		c-4.431,4.283-10.888,6.019-16.571,4.459c-8.544-2.357-14.209-10.673-12.907-18.966c0.728-4.619,1.977-7.239,4.854-10.169
		c3.344-3.422,3.954-3.438,5.191-0.173c0.297,0.798,0.946,2.403,1.441,3.539c0.495,1.145,1.633,3.896,2.534,6.113
		c1.835,4.545,2.883,5.603,4.334,4.285c1.189-1.661,0.143-4.104-1.166-6.937c-0.702-1.281-4.238-10.813-4.238-11.436
		c0.993-0.986,3.288-0.507,4.674-0.461c3.977,0.177,5.028,0.381,7.107,1.346c3.078,1.438,7.069,5.434,8.511,8.533
		c0.954,2.055,1.718,2.854,1.771,7.571C160.886,102.863,157.888,106.967,154.782,110.378z"/>
	<g>
		<g>
			<path fill="#7A3A8E" stroke="#FFFFFF" stroke-width="2" stroke-miterlimit="10" d="M194.768,155.903
				c-2.534-5.819-5.349-11.608-8.446-17.346c6.004-2.538,12.219-4.851,18.63-6.915c-63.973-26.855-136.118-26.687-199.987,0.509
				c0.04,0.094,0.08,0.188,0.12,0.282c6.617,2.096,13.026,4.457,19.211,7.059c-2.899,5.431-5.546,10.909-7.942,16.414
				C73.411,131.953,137.71,131.952,194.768,155.903L194.768,155.903L194.768,155.903z"/>
		</g>
	</g>
	<g>
		<g>
			<path fill="#FFFFFF" d="M59.352,121.02c2.067-0.214,3.875-0.493,5.44-0.86c1.213-0.284,2.186-0.613,2.92-1
				c0.297-0.159,0.471-0.245,0.524-0.256c0.124-0.027,0.201,0.031,0.232,0.171c0.103,0.464-0.014,1.007-0.343,1.631
				c-0.328,0.622-0.819,1.146-1.474,1.577c-0.653,0.428-1.525,0.771-2.623,1.038c-0.829,0.202-1.786,0.365-2.873,0.5
				c0.171,0.978,0.346,1.952,0.526,2.929c0.569-0.402,1.122-0.729,1.659-0.988c0.535-0.256,1.051-0.444,1.546-0.563
				c1.64-0.396,3.153-0.272,4.517,0.363c1.364,0.634,2.197,1.7,2.536,3.177c0.348,1.52,0.063,2.872-0.824,4.072
				c-0.89,1.2-2.226,2.008-4.049,2.458c-1.45,0.358-2.711,0.333-3.802-0.091s-1.798-1.094-2.099-2.028
				c-0.197-0.613-0.154-1.156,0.131-1.631c0.283-0.475,0.733-0.793,1.345-0.954c0.538-0.144,1.024-0.115,1.457,0.084
				c0.434,0.197,0.708,0.506,0.828,0.921c0.086,0.298,0.07,0.578-0.044,0.842c-0.115,0.263-0.396,0.567-0.841,0.914
				c-0.324,0.258-0.463,0.458-0.418,0.604c0.072,0.233,0.313,0.396,0.723,0.491c0.603,0.132,1.254,0.109,1.957-0.065
				c0.878-0.22,1.489-0.696,1.844-1.441c0.354-0.745,0.338-1.871-0.052-3.38c-0.329-1.273-0.824-2.146-1.501-2.604
				c-0.678-0.459-1.43-0.591-2.251-0.389c-0.38,0.096-0.775,0.255-1.181,0.485c-0.406,0.23-0.829,0.529-1.265,0.896
				c0.149,0.541,0.177,0.932,0.083,1.173c-0.095,0.242-0.284,0.399-0.567,0.476c-0.242,0.066-0.452,0.061-0.634-0.012
				c-0.18-0.075-0.298-0.197-0.351-0.368c-0.083-0.27,0.016-0.729,0.303-1.382C60.25,125.548,59.79,123.284,59.352,121.02z"/>
			<path fill="#FFFFFF" d="M92.146,116.562c0.388-0.032,0.777-0.059,1.165-0.086c0.098,1.374,0.198,2.751,0.299,4.125
				c1.315-0.093,2.63-0.169,3.946-0.23c0.019,0.387,0.038,0.772,0.057,1.158c-1.306,0.062-2.611,0.139-3.917,0.229
				c0.158,2.125,0.319,4.251,0.484,6.375c0.032,0.421,0.179,0.739,0.439,0.955c0.26,0.215,0.587,0.311,0.983,0.287
				c1.125-0.07,1.668-1.03,1.632-2.902c0.364-0.019,0.729-0.035,1.093-0.052c0.024,0.995-0.116,1.803-0.415,2.422
				c-0.299,0.62-0.743,1.111-1.331,1.475c-0.59,0.362-1.263,0.569-2.025,0.622c-0.667,0.046-1.256-0.031-1.767-0.234
				c-0.513-0.202-0.938-0.531-1.277-0.985c-0.34-0.458-0.542-0.967-0.598-1.528c-0.205-2.054-0.405-4.109-0.602-6.162
				c-0.701,0.063-1.403,0.131-2.105,0.204c-0.036-0.329-0.071-0.656-0.107-0.983c1.281-0.275,2.251-0.783,2.922-1.537
				C91.689,118.96,92.065,117.909,92.146,116.562z"/>
			<path fill="#FFFFFF" d="M107.964,129.258c-0.006,0.332-0.011,0.666-0.017,0.998c-2.605-0.04-5.21-0.016-7.815,0.074
				c-0.013-0.333-0.025-0.666-0.038-0.999c0.325-0.012,0.65-0.022,0.975-0.03c0.401-0.012,0.691-0.088,0.873-0.232
				c0.182-0.144,0.27-0.334,0.265-0.57c-0.044-1.982-0.089-3.966-0.133-5.948c-0.01-0.479-0.146-0.829-0.41-1.044
				c-0.262-0.218-0.627-0.318-1.092-0.306c-0.224,0.007-0.448,0.014-0.673,0.021c-0.011-0.315-0.022-0.63-0.033-0.944
				c1.7-0.133,3.402-0.239,5.106-0.318c0.003,1.091,0.007,2.183,0.012,3.276c0.288-1.098,0.802-1.941,1.544-2.523
				c0.742-0.583,1.583-0.866,2.513-0.848c0.793,0.017,1.416,0.211,1.863,0.581c0.448,0.367,0.658,0.833,0.637,1.392
				c-0.018,0.479-0.191,0.861-0.514,1.149c-0.326,0.286-0.711,0.421-1.162,0.41c-0.4-0.01-0.742-0.146-1.024-0.409
				c-0.285-0.264-0.423-0.596-0.416-0.997c0.004-0.223,0.078-0.454,0.22-0.694c0.076-0.134,0.114-0.229,0.115-0.287
				c0.002-0.101-0.024-0.175-0.077-0.223c-0.054-0.047-0.141-0.072-0.259-0.075c-0.305-0.005-0.643,0.141-1.008,0.438
				c-0.562,0.461-1.032,1.182-1.41,2.165c-0.378,0.984-0.56,1.979-0.561,2.98c0.001,0.725,0.001,1.448,0.001,2.17
				c0,0.251,0.077,0.442,0.229,0.576c0.152,0.132,0.365,0.198,0.637,0.2C106.865,129.242,107.415,129.248,107.964,129.258z"/>
			<path fill="#FFFFFF" d="M113.68,120.378c1.775,0.018,3.551,0.062,5.331,0.135c-0.236,2.837-0.479,5.675-0.73,8.512
				c-0.021,0.229,0.046,0.411,0.201,0.549c0.153,0.14,0.397,0.223,0.734,0.251c0.252,0.022,0.505,0.044,0.758,0.066
				c-0.034,0.332-0.067,0.662-0.101,0.995c-2.239-0.202-4.477-0.357-6.715-0.465c0.018-0.333,0.035-0.665,0.054-0.997
				c0.248,0.011,0.497,0.023,0.746,0.035c0.401,0.022,0.688-0.043,0.864-0.199c0.175-0.154,0.277-0.437,0.304-0.844
				c0.128-1.937,0.253-3.874,0.376-5.811c0.023-0.363-0.083-0.653-0.321-0.868c-0.236-0.215-0.576-0.334-1.016-0.356
				c-0.178-0.009-0.355-0.019-0.533-0.027C113.648,121.029,113.664,120.704,113.68,120.378z M117.362,114.78
				c0.59,0.039,1.085,0.246,1.481,0.616c0.396,0.372,0.573,0.802,0.533,1.286c-0.039,0.487-0.282,0.882-0.724,1.189
				c-0.442,0.307-0.952,0.44-1.53,0.401c-0.587-0.039-1.077-0.241-1.471-0.609c-0.395-0.368-0.581-0.789-0.554-1.269
				c0.027-0.486,0.259-0.889,0.701-1.203C116.241,114.879,116.763,114.739,117.362,114.78z"/>
			<path fill="#FFFFFF" d="M123.153,121.151c1.631,0.082,3.265,0.189,4.903,0.319c0.106,0.673,0.128,1.331,0.069,1.975
				c0.595-0.604,1.314-1.035,2.159-1.292c0.846-0.254,1.755-0.306,2.721-0.148c1.547,0.25,2.721,0.93,3.487,2.013
				c0.769,1.084,0.966,2.461,0.609,4.116c-0.249,1.153-0.684,2.089-1.292,2.807c-0.609,0.72-1.34,1.213-2.193,1.483
				c-0.852,0.272-1.787,0.324-2.811,0.159c-0.818-0.132-1.515-0.407-2.099-0.829c-0.583-0.424-1.093-1.038-1.539-1.843
				c-0.18,1.188-0.362,2.377-0.547,3.563c-0.073,0.47-0.081,0.774-0.023,0.916s0.188,0.262,0.391,0.357
				c0.204,0.097,0.624,0.194,1.261,0.295c-0.059,0.339-0.117,0.68-0.175,1.02c-2.182-0.321-4.363-0.598-6.544-0.824
				c0.042-0.342,0.082-0.683,0.124-1.025c0.117,0.014,0.233,0.025,0.35,0.037c0.414,0.045,0.693,0.041,0.842-0.01
				c0.149-0.052,0.274-0.155,0.373-0.311c0.068-0.107,0.135-0.392,0.196-0.855c0.413-3.148,0.813-6.3,1.2-9.451
				c0.056-0.463,0.052-0.775-0.014-0.938c-0.065-0.161-0.181-0.287-0.348-0.374c-0.165-0.087-0.563-0.175-1.197-0.264
				C123.087,121.749,123.12,121.449,123.153,121.151z M131.163,123.229c-0.821-0.127-1.573,0.104-2.245,0.687
				c-0.671,0.58-1.095,1.51-1.283,2.782c-0.186,1.261-0.038,2.262,0.435,3.011c0.473,0.75,1.07,1.178,1.81,1.292
				c0.722,0.109,1.355-0.084,1.905-0.584c0.721-0.662,1.21-1.63,1.451-2.909c0.22-1.175,0.152-2.148-0.213-2.92
				C132.659,123.817,132.035,123.361,131.163,123.229z"/>
			<path fill="#FFFFFF" d="M148.798,126.028c0.356-0.201,0.714-0.4,1.074-0.602c0.262,0.07,0.523,0.139,0.784,0.208
				c-0.239,1.128-0.485,2.256-0.737,3.382c-0.338-0.092-0.678-0.183-1.018-0.272c-0.274-1.021-0.692-1.795-1.242-2.317
				c-0.548-0.521-1.291-0.897-2.219-1.118c-0.8-0.189-1.442-0.204-1.92-0.046c-0.479,0.158-0.762,0.43-0.857,0.815
				c-0.092,0.377-0.003,0.699,0.266,0.968c0.268,0.274,1.083,0.689,2.438,1.271c1.228,0.527,2.028,0.928,2.41,1.182
				c0.729,0.478,1.237,1.048,1.521,1.7c0.285,0.653,0.312,1.334,0.086,2.042c-0.286,0.896-0.951,1.529-1.976,1.916
				c-1.026,0.388-2.204,0.409-3.55,0.078c-0.65-0.159-1.22-0.368-1.711-0.628c-0.49-0.26-0.978-0.625-1.465-1.094
				c-0.361,0.229-0.721,0.46-1.078,0.69c-0.302-0.065-0.604-0.131-0.905-0.194c0.232-1.253,0.458-2.506,0.678-3.759
				c0.338,0.071,0.677,0.142,1.016,0.216c0.409,2.061,1.611,3.312,3.669,3.816c0.847,0.208,1.535,0.231,2.07,0.062
				c0.533-0.167,0.863-0.445,0.982-0.84c0.109-0.36,0.051-0.671-0.179-0.931c-0.229-0.26-0.926-0.659-2.099-1.176
				c-1.267-0.555-2.125-0.961-2.566-1.237c-0.759-0.462-1.291-0.975-1.596-1.552c-0.305-0.576-0.38-1.206-0.221-1.892
				c0.228-0.979,0.803-1.701,1.744-2.153c0.94-0.452,2.085-0.526,3.424-0.21c0.652,0.155,1.222,0.359,1.706,0.613
				S148.303,125.574,148.798,126.028z"/>
		</g>
	</g>
</g>
</svg>
