<?xml version="1.0" encoding="utf-8"?>
<!-- Generator: Adobe Illustrator 16.0.4, SVG Export Plug-In . SVG Version: 6.00 Build 0)  -->
<!DOCTYPE svg PUBLIC "-//W3C//DTD SVG 1.1//EN" "http://www.w3.org/Graphics/SVG/1.1/DTD/svg11.dtd">
<svg version="1.1" id="Livello_1" xmlns="http://www.w3.org/2000/svg" xmlns:xlink="http://www.w3.org/1999/xlink" x="0px" y="0px"
	 width="210px" height="200px" viewBox="0 0 210 200" enable-background="new 0 0 210 200" xml:space="preserve">
<g>
	<circle fill="#EF7C0E" cx="105" cy="100" r="84"/>
	<circle fill="#EF7C0E" stroke="#FFFFFF" stroke-width="5" stroke-miterlimit="10" cx="105" cy="100" r="75.216"/>
	<g>
		<path fill="#FFFFFF" d="M74.051,82.001c-1.771-3.026-3.877-3.685-7.262-4.557c-3.381-0.87-6.793-1-9.758-1
			c-2.964,0-6.375,0.13-9.758,1c-3.381,0.872-5.515,1.531-7.285,4.557c-1.771,3.027-3.097,18.429-3.097,19.224
			c0,0.799,0,17.393,0,17.393h2.111c0,1.057,0,4.655,0,4.693c0,1.49,2.207,2.7,3.696,2.7c1.49,0,3.696-1.209,3.696-2.7
			c0-0.038,0-3.637,0-4.693h21.63c0,1.057-0.003,4.176,0,4.215c0.342,2.699,2.871,2.938,4.361,2.938c1.488,0,2.523-0.97,2.523-2.46
			c0-0.038,0-3.637,0-4.693h2.224c0,0,0.005-15.729,0.005-16.6C77.139,101.149,75.823,85.028,74.051,82.001z M49.565,78.488h15.837
			v4.226H49.565V78.488z M44.462,115.574c-2.65,0-4.797-2.145-4.797-4.79c0-2.646,2.146-4.792,4.797-4.792
			c2.645,0,4.793,2.146,4.793,4.792C49.255,113.429,47.106,115.574,44.462,115.574z M40.046,100.666c0,0,1.109-12.804,2.3-13.994
			c1.187-1.189,28.184-1.049,29.369,0.141c1.192,1.187,2.297,13.854,2.297,13.854H40.046z M69.059,115.574
			c-2.646,0-4.797-2.145-4.797-4.79c0-2.646,2.15-4.792,4.797-4.792c2.643,0,4.792,2.146,4.792,4.792
			C73.851,113.429,71.701,115.574,69.059,115.574z"/>
		<g>
			<path fill="#FFFFFF" d="M102.936,41.267c1.101,0,1.992-0.889,1.992-1.988c0-1.099-0.892-1.989-1.992-1.989
				c-1.094,0-1.986,0.89-1.986,1.989C100.949,40.378,101.842,41.267,102.936,41.267z"/>
			<circle fill="#FFFFFF" cx="108.242" cy="39.278" r="1.989"/>
			<path fill="#FFFFFF" d="M117.431,85.286c3.509-1.088,6.054-4.359,6.054-8.228V50.546c0-4.756-3.859-8.614-8.617-8.614H96.311
				c-4.756,0-8.616,3.857-8.616,8.614v26.512c0,3.869,2.549,7.14,6.058,8.228l-8.709,14.312h5.966l5.966-9.95h17.23l5.969,9.95h5.96
				L117.431,85.286z M114.867,81.696c-1.829,0-3.31-1.484-3.31-3.312c0-1.826,1.48-3.312,3.31-3.312
				c1.832,0,3.315,1.485,3.315,3.312C118.183,80.212,116.699,81.696,114.867,81.696z M100.29,44.579c0-0.728,0.59-1.323,1.323-1.323
				h7.952c0.734,0,1.328,0.595,1.328,1.323v2.651c0,0.736-0.594,1.327-1.328,1.327h-7.952c-0.733,0-1.323-0.591-1.323-1.327V44.579z
				 M92.333,53.86c0-2.195,1.78-3.976,3.978-3.976h18.557c2.199,0,3.979,1.78,3.979,3.976v5.306c0,2.193-1.78,3.974-3.979,3.974
				H96.311c-2.197,0-3.978-1.781-3.978-3.974V53.86z M96.311,75.072c1.835,0,3.315,1.485,3.315,3.312
				c0,1.829-1.48,3.312-3.315,3.312c-1.828,0-3.31-1.484-3.31-3.312C93.001,76.558,94.482,75.072,96.311,75.072z"/>
		</g>
		<path fill="#FFFFFF" d="M172.222,88.904h-1.773c0-1.472,0-2.728,0-3.547c0-4.574-0.885-7.089-5.314-7.089h-24.82
			c-5.316,0-7.092,1.519-7.092,6.205c0,0.953,0,2.549,0,4.431h-1.771c-0.488,0-0.885,0.395-0.885,0.886v7.091
			c0,0.487,0.396,0.885,0.885,0.885h1.771c0,2.596,0,4.86,0,6.066c0,5.115,0,9.889,0,9.889c0,1.327,0.492,2.173,1.295,2.708
			l-0.406-0.048v2.656c0,0.979,0.795,1.775,1.773,1.775h3.545c0.979,0,1.773-0.796,1.773-1.775v-1.771h21.271v1.771
			c0,0.979,0.793,1.775,1.771,1.775h3.545c0.979,0,1.773-0.796,1.773-1.775v-2.656l-0.408,0.048
			c0.805-0.536,1.293-1.382,1.293-2.708c0,0,0-3.924,0-9.889c0-1.263,0-3.524,0-6.066h1.773c0.492,0,0.887-0.398,0.887-0.885V89.79
			C173.108,89.299,172.714,88.904,172.222,88.904z M142.087,81.813c0-0.491,0.396-0.886,0.885-0.886h18.615
			c0.49,0,0.887,0.395,0.887,0.886v1.773c0,0.488-0.396,0.887-0.887,0.887h-18.615c-0.488,0-0.885-0.398-0.885-0.887V81.813z
			 M139.87,113.722c-1.711,0-3.102-1.392-3.102-3.104c0-1.713,1.391-3.105,3.102-3.105c1.715,0,3.102,1.392,3.102,3.105
			C142.972,112.33,141.585,113.722,139.87,113.722z M163.804,113.722c-1.715,0-3.104-1.392-3.104-3.104
			c0-1.713,1.389-3.105,3.104-3.105s3.102,1.392,3.102,3.105C166.905,112.33,165.519,113.722,163.804,113.722z M166.905,100.425
			c0,1.772-1.732,2.589-2.66,2.589l-24.816,0.07c-1.771,0-2.66-0.887-2.66-2.659c0-2.658,0-7.851,0-10.635
			c0-1.773,0.889-2.659,2.66-2.659c7.977,0,13.93,0,24.816,0c1.773,0,2.66,0.886,2.66,2.659
			C166.905,91.561,166.905,99.518,166.905,100.425z"/>
	</g>
	<g>
		<g>
			<path fill="#F7A52D" stroke="#FFFFFF" stroke-width="2" stroke-miterlimit="10" d="M194.768,169.562
				c-2.533-5.82-5.349-11.609-8.445-17.346c6.004-2.539,12.218-4.851,18.63-6.916c-63.973-26.856-136.118-26.686-199.987,0.509
				c0.04,0.094,0.08,0.188,0.12,0.282c6.617,2.096,13.025,4.457,19.212,7.058c-2.899,5.432-5.547,10.909-7.942,16.414
				C73.41,145.611,137.71,145.61,194.768,169.562L194.768,169.562L194.768,169.562z"/>
		</g>
	</g>
	<g>
		<g>
			<path fill="#FFFFFF" d="M46.03,139.324c1.298-0.439,2.37-0.876,3.212-1.323c0.844-0.447,1.679-0.995,2.507-1.648
				c0.309-0.077,0.616-0.154,0.925-0.23c1.102,4.251,2.245,8.5,3.428,12.744c0.07,0.25,0.201,0.423,0.395,0.519
				c0.197,0.097,0.43,0.111,0.704,0.044c0.728-0.178,1.455-0.351,2.183-0.521c0.085,0.324,0.169,0.647,0.254,0.971
				c-3.023,0.705-6.047,1.479-9.066,2.326c-0.104-0.319-0.206-0.639-0.307-0.959c0.572-0.16,1.142-0.316,1.713-0.472
				c0.438-0.12,0.724-0.287,0.856-0.504c0.135-0.218,0.143-0.52,0.027-0.907c-0.933-3.135-1.844-6.272-2.731-9.412
				c-0.063-0.222-0.191-0.368-0.388-0.444c-0.197-0.075-0.459-0.068-0.784,0.02c-0.882,0.236-1.764,0.478-2.646,0.726
				C46.217,139.943,46.123,139.633,46.03,139.324z"/>
			<path fill="#FFFFFF" d="M65.428,132.982c1.078-0.202,2.108-0.108,3.077,0.281c0.97,0.387,1.849,1.149,2.637,2.28
				c0.787,1.131,1.312,2.512,1.587,4.138c0.276,1.64,0.242,3.104-0.09,4.395s-0.869,2.277-1.61,2.968
				c-0.742,0.69-1.614,1.128-2.623,1.318c-1.516,0.286-2.893-0.062-4.159-1.054c-1.58-1.227-2.676-3.004-3.228-5.361
				c-0.39-1.663-0.438-3.155-0.137-4.473c0.299-1.317,0.847-2.344,1.638-3.074C63.307,133.672,64.281,133.196,65.428,132.982z
				 M69.105,140.695c-0.585-3.087-1.193-5.072-1.857-5.95c-0.48-0.641-1.043-0.903-1.678-0.785c-0.763,0.143-1.228,0.755-1.382,1.83
				c-0.158,1.076,0.065,3.049,0.678,5.919c0.512,2.4,1.132,4.049,1.832,4.952c0.438,0.557,0.937,0.783,1.499,0.677
				c0.364-0.069,0.671-0.272,0.912-0.607c0.246-0.336,0.37-0.98,0.38-1.929C69.506,143.516,69.381,142.147,69.105,140.695z"/>
			<path fill="#FFFFFF" d="M80.287,130.711c1.077-0.127,2.084,0.037,3.016,0.491c0.93,0.452,1.747,1.272,2.445,2.455
				c0.7,1.182,1.12,2.594,1.276,4.235c0.156,1.654,0.019,3.112-0.404,4.376c-0.425,1.264-1.026,2.211-1.812,2.849
				c-0.784,0.638-1.676,1.014-2.687,1.135c-1.518,0.181-2.849-0.261-4.021-1.337c-1.466-1.331-2.411-3.179-2.784-5.566
				c-0.264-1.685-0.207-3.176,0.182-4.469c0.387-1.292,1-2.278,1.826-2.953C78.149,131.256,79.143,130.847,80.287,130.711z
				 M83.375,138.656c-0.356-3.119-0.819-5.139-1.414-6.061c-0.429-0.671-0.966-0.973-1.6-0.897c-0.761,0.09-1.261,0.669-1.49,1.73
				c-0.228,1.063-0.147,3.045,0.25,5.949c0.334,2.429,0.82,4.114,1.444,5.062c0.392,0.586,0.866,0.846,1.428,0.778
				c0.366-0.043,0.681-0.226,0.945-0.543c0.267-0.319,0.438-0.952,0.517-1.897C83.566,141.496,83.543,140.123,83.375,138.656z"/>
			<path fill="#FFFFFF" d="M107.384,130.314c0.372,0.002,0.745,0.006,1.117,0.01c-0.016,1.378-0.031,2.757-0.047,4.135
				c1.269,0.014,2.537,0.04,3.804,0.077c-0.012,0.386-0.022,0.772-0.036,1.159c-1.259-0.036-2.521-0.061-3.78-0.075
				c-0.025,2.13-0.049,4.261-0.075,6.392c-0.005,0.423,0.11,0.75,0.343,0.987c0.234,0.236,0.544,0.355,0.93,0.363
				c1.1,0.02,1.708-0.898,1.826-2.765c0.354,0.009,0.709,0.02,1.062,0.03c-0.055,0.994-0.256,1.789-0.599,2.384
				c-0.34,0.596-0.814,1.052-1.418,1.368c-0.605,0.316-1.278,0.469-2.025,0.46c-0.654-0.007-1.218-0.134-1.696-0.377
				c-0.48-0.245-0.862-0.609-1.149-1.091c-0.287-0.484-0.436-1.008-0.437-1.572c-0.011-2.062-0.02-4.126-0.028-6.188
				c-0.677,0.002-1.354,0.009-2.031,0.019c-0.004-0.33-0.01-0.659-0.015-0.989c1.248-0.161,2.22-0.583,2.923-1.277
				C106.755,132.667,107.2,131.652,107.384,130.314z"/>
			<path fill="#FFFFFF" d="M121.704,144.101c-0.028,0.333-0.058,0.664-0.085,0.996c-2.549-0.195-5.098-0.343-7.646-0.442
				c0.015-0.333,0.027-0.666,0.042-0.999c0.318,0.012,0.635,0.026,0.952,0.039c0.391,0.018,0.681-0.038,0.869-0.17
				c0.188-0.13,0.288-0.313,0.301-0.549c0.105-1.982,0.208-3.963,0.31-5.944c0.026-0.479-0.082-0.836-0.319-1.07
				c-0.236-0.232-0.581-0.36-1.029-0.379c-0.217-0.01-0.436-0.018-0.651-0.026c0.014-0.315,0.026-0.63,0.039-0.944
				c1.646-0.011,3.29-0.002,4.938,0.025c-0.07,1.09-0.141,2.181-0.212,3.27c0.356-1.076,0.907-1.884,1.663-2.42
				c0.755-0.536,1.584-0.77,2.479-0.697c0.766,0.063,1.355,0.291,1.764,0.685c0.411,0.391,0.587,0.867,0.533,1.423
				c-0.045,0.478-0.235,0.85-0.566,1.119c-0.334,0.268-0.717,0.383-1.152,0.346c-0.389-0.032-0.709-0.188-0.968-0.467
				c-0.259-0.28-0.371-0.619-0.34-1.019c0.02-0.221,0.104-0.449,0.26-0.681c0.081-0.129,0.121-0.223,0.128-0.28
				c0.009-0.1-0.012-0.175-0.061-0.226c-0.05-0.05-0.132-0.081-0.246-0.089c-0.293-0.023-0.627,0.102-1.001,0.376
				c-0.571,0.425-1.075,1.117-1.506,2.074c-0.434,0.958-0.678,1.939-0.749,2.939c-0.049,0.722-0.099,1.443-0.149,2.165
				c-0.019,0.25,0.045,0.446,0.183,0.589c0.141,0.141,0.342,0.221,0.608,0.24C120.629,144.021,121.167,144.059,121.704,144.101z"/>
			<path fill="#FFFFFF" d="M127.809,135.552c1.715,0.106,3.432,0.235,5.15,0.383c-0.371,2.824-0.749,5.647-1.141,8.47
				c-0.031,0.228,0.025,0.413,0.17,0.557c0.144,0.146,0.378,0.239,0.708,0.282c0.248,0.033,0.493,0.065,0.74,0.099
				c-0.049,0.33-0.099,0.66-0.146,0.99c-2.19-0.297-4.382-0.556-6.572-0.78c0.038-0.332,0.075-0.662,0.112-0.994
				c0.243,0.025,0.485,0.05,0.728,0.076c0.393,0.042,0.678-0.009,0.859-0.156s0.296-0.421,0.344-0.827
				c0.233-1.929,0.463-3.857,0.688-5.786c0.04-0.363-0.046-0.657-0.266-0.883c-0.216-0.225-0.538-0.361-0.963-0.406
				c-0.173-0.017-0.343-0.036-0.516-0.052C127.738,136.2,127.774,135.877,127.809,135.552z M131.663,130.138
				c0.564,0.066,1.031,0.294,1.393,0.681c0.361,0.388,0.512,0.823,0.449,1.307c-0.063,0.484-0.315,0.868-0.758,1.156
				s-0.942,0.399-1.497,0.333c-0.565-0.065-1.025-0.29-1.388-0.676c-0.362-0.386-0.517-0.817-0.466-1.293
				c0.054-0.485,0.298-0.875,0.74-1.168C130.579,130.185,131.088,130.071,131.663,130.138z"/>
			<path fill="#FFFFFF" d="M136.941,136.735c1.578,0.143,3.157,0.302,4.739,0.48c0.077,0.675,0.074,1.332-0.01,1.974
				c0.602-0.587,1.317-0.998,2.146-1.231c0.83-0.233,1.712-0.263,2.643-0.085c1.491,0.283,2.607,0.983,3.323,2.076
				c0.715,1.095,0.872,2.473,0.484,4.124c-0.27,1.148-0.716,2.075-1.329,2.783c-0.612,0.708-1.344,1.188-2.188,1.441
				c-0.845,0.254-1.767,0.285-2.77,0.095c-0.801-0.151-1.479-0.445-2.038-0.885c-0.561-0.439-1.039-1.067-1.448-1.886
				c-0.22,1.182-0.442,2.364-0.666,3.545c-0.091,0.466-0.107,0.771-0.057,0.914c0.051,0.144,0.177,0.267,0.374,0.37
				c0.198,0.104,0.609,0.214,1.235,0.333c-0.067,0.338-0.135,0.676-0.205,1.014c-2.15-0.385-4.3-0.734-6.452-1.049
				c0.057-0.339,0.112-0.679,0.168-1.019c0.115,0.016,0.229,0.034,0.346,0.051c0.405,0.059,0.683,0.067,0.832,0.021
				c0.148-0.046,0.277-0.144,0.382-0.296c0.072-0.104,0.149-0.388,0.229-0.847c0.536-3.133,1.061-6.267,1.57-9.401
				c0.074-0.46,0.083-0.772,0.027-0.936c-0.058-0.165-0.164-0.294-0.322-0.388c-0.156-0.091-0.54-0.194-1.148-0.305
				C136.852,137.331,136.896,137.033,136.941,136.735z M144.631,139.053c-0.792-0.146-1.529,0.064-2.205,0.626
				c-0.674,0.562-1.122,1.479-1.354,2.745c-0.229,1.253-0.122,2.259,0.316,3.021c0.436,0.763,1.011,1.207,1.731,1.34
				c0.705,0.129,1.334-0.048,1.888-0.535c0.726-0.645,1.232-1.602,1.505-2.876c0.248-1.169,0.211-2.144-0.119-2.921
				C146.065,139.676,145.474,139.207,144.631,139.053z"/>
			<path fill="#FFFFFF" d="M161.669,142.042c0.35-0.203,0.697-0.404,1.046-0.604c0.253,0.067,0.504,0.136,0.755,0.204
				c-0.241,1.127-0.49,2.252-0.742,3.376c-0.328-0.089-0.655-0.178-0.984-0.266c-0.258-1.021-0.653-1.792-1.18-2.312
				c-0.525-0.52-1.238-0.895-2.134-1.118c-0.771-0.192-1.393-0.208-1.859-0.054c-0.467,0.156-0.748,0.425-0.846,0.808
				c-0.098,0.376-0.017,0.7,0.24,0.969c0.255,0.276,1.041,0.696,2.35,1.278c1.186,0.53,1.959,0.929,2.33,1.182
				c0.703,0.478,1.192,1.043,1.466,1.693c0.274,0.651,0.299,1.331,0.075,2.04c-0.279,0.895-0.932,1.532-1.937,1.92
				c-1.005,0.388-2.16,0.41-3.481,0.073c-0.636-0.163-1.192-0.375-1.673-0.636c-0.479-0.263-0.953-0.632-1.425-1.105
				c-0.358,0.225-0.714,0.453-1.068,0.679c-0.296-0.069-0.592-0.137-0.887-0.205c0.248-1.25,0.49-2.499,0.73-3.749
				c0.331,0.075,0.661,0.15,0.989,0.227c0.364,2.062,1.528,3.326,3.543,3.838c0.828,0.211,1.503,0.236,2.026,0.067
				c0.525-0.166,0.848-0.446,0.967-0.84c0.107-0.359,0.052-0.669-0.17-0.929c-0.222-0.26-0.899-0.657-2.037-1.178
				c-1.232-0.557-2.063-0.968-2.49-1.249c-0.733-0.464-1.244-0.982-1.529-1.562c-0.286-0.578-0.348-1.208-0.178-1.891
				c0.241-0.976,0.814-1.69,1.738-2.135c0.919-0.444,2.027-0.512,3.317-0.192c0.629,0.156,1.176,0.36,1.641,0.614
				C160.729,141.238,161.197,141.59,161.669,142.042z"/>
		</g>
	</g>
</g>
</svg>
