<?xml version="1.0" encoding="utf-8"?>
<!-- Generator: Adobe Illustrator 16.0.4, SVG Export Plug-In . SVG Version: 6.00 Build 0)  -->
<!DOCTYPE svg PUBLIC "-//W3C//DTD SVG 1.1//EN" "http://www.w3.org/Graphics/SVG/1.1/DTD/svg11.dtd">
<svg version="1.1" id="Livello_1" xmlns="http://www.w3.org/2000/svg" xmlns:xlink="http://www.w3.org/1999/xlink" x="0px" y="0px"
	 width="210px" height="200px" viewBox="0 0 210 200" enable-background="new 0 0 210 200" xml:space="preserve">
<g>
	<circle fill="#EF7C0E" cx="106" cy="101" r="84"/>
	<circle fill="#EF7C0E" stroke="#FFFFFF" stroke-width="5" stroke-miterlimit="10" cx="106" cy="101" r="75.216"/>
	<g>
		<path fill="#FFFFFF" d="M75.051,83.001c-1.771-3.026-3.877-3.685-7.262-4.557c-3.381-0.87-6.793-1-9.758-1
			c-2.964,0-6.375,0.13-9.758,1c-3.381,0.872-5.515,1.531-7.285,4.557c-1.771,3.027-3.097,18.429-3.097,19.224
			c0,0.799,0,17.393,0,17.393h2.111c0,1.057,0,4.655,0,4.693c0,1.49,2.207,2.7,3.696,2.7c1.49,0,3.696-1.209,3.696-2.7
			c0-0.038,0-3.637,0-4.693h21.63c0,1.057-0.003,4.176,0,4.215c0.342,2.699,2.871,2.938,4.361,2.938c1.488,0,2.523-0.97,2.523-2.46
			c0-0.038,0-3.637,0-4.693h2.224c0,0,0.005-15.729,0.005-16.6C78.139,102.149,76.823,86.028,75.051,83.001z M50.565,79.488h15.837
			v4.226H50.565V79.488z M45.462,116.574c-2.65,0-4.797-2.145-4.797-4.79c0-2.646,2.146-4.792,4.797-4.792
			c2.645,0,4.793,2.146,4.793,4.792C50.255,114.429,48.106,116.574,45.462,116.574z M41.046,101.666c0,0,1.109-12.804,2.3-13.994
			c1.187-1.189,28.184-1.049,29.369,0.141c1.192,1.187,2.297,13.854,2.297,13.854H41.046z M70.059,116.574
			c-2.646,0-4.797-2.145-4.797-4.79c0-2.646,2.15-4.792,4.797-4.792c2.643,0,4.792,2.146,4.792,4.792
			C74.851,114.429,72.701,116.574,70.059,116.574z"/>
		<g>
			<path fill="#FFFFFF" d="M103.936,42.267c1.101,0,1.992-0.889,1.992-1.988c0-1.099-0.892-1.989-1.992-1.989
				c-1.094,0-1.986,0.89-1.986,1.989C101.949,41.378,102.842,42.267,103.936,42.267z"/>
			<circle fill="#FFFFFF" cx="109.242" cy="40.278" r="1.989"/>
			<path fill="#FFFFFF" d="M118.431,86.286c3.509-1.088,6.054-4.359,6.054-8.228V51.546c0-4.756-3.859-8.614-8.617-8.614H97.311
				c-4.756,0-8.616,3.857-8.616,8.614v26.512c0,3.869,2.549,7.14,6.058,8.228l-8.709,14.312h5.966l5.966-9.95h17.23l5.969,9.95h5.96
				L118.431,86.286z M115.867,82.696c-1.829,0-3.31-1.484-3.31-3.312c0-1.826,1.48-3.312,3.31-3.312
				c1.832,0,3.315,1.485,3.315,3.312C119.183,81.212,117.699,82.696,115.867,82.696z M101.29,45.579c0-0.728,0.59-1.323,1.323-1.323
				h7.952c0.734,0,1.328,0.595,1.328,1.323v2.651c0,0.736-0.594,1.327-1.328,1.327h-7.952c-0.733,0-1.323-0.591-1.323-1.327V45.579z
				 M93.333,54.86c0-2.195,1.78-3.976,3.978-3.976h18.557c2.199,0,3.979,1.78,3.979,3.976v5.306c0,2.193-1.78,3.974-3.979,3.974
				H97.311c-2.197,0-3.978-1.781-3.978-3.974V54.86z M97.311,76.072c1.835,0,3.315,1.485,3.315,3.312
				c0,1.829-1.48,3.312-3.315,3.312c-1.828,0-3.31-1.484-3.31-3.312C94.001,77.558,95.482,76.072,97.311,76.072z"/>
		</g>
		<path fill="#FFFFFF" d="M173.222,89.904h-1.773c0-1.472,0-2.728,0-3.547c0-4.574-0.885-7.089-5.314-7.089h-24.82
			c-5.316,0-7.092,1.519-7.092,6.205c0,0.953,0,2.549,0,4.431h-1.771c-0.488,0-0.885,0.395-0.885,0.886v7.091
			c0,0.487,0.396,0.885,0.885,0.885h1.771c0,2.596,0,4.86,0,6.066c0,5.115,0,9.889,0,9.889c0,1.327,0.492,2.173,1.295,2.708
			l-0.406-0.048v2.656c0,0.979,0.795,1.775,1.773,1.775h3.545c0.979,0,1.773-0.796,1.773-1.775v-1.771h21.271v1.771
			c0,0.979,0.793,1.775,1.771,1.775h3.545c0.979,0,1.773-0.796,1.773-1.775v-2.656l-0.408,0.048
			c0.805-0.536,1.293-1.382,1.293-2.708c0,0,0-3.924,0-9.889c0-1.263,0-3.524,0-6.066h1.773c0.492,0,0.887-0.398,0.887-0.885V90.79
			C174.108,90.299,173.714,89.904,173.222,89.904z M143.087,82.813c0-0.491,0.396-0.886,0.885-0.886h18.615
			c0.49,0,0.887,0.395,0.887,0.886v1.773c0,0.488-0.396,0.887-0.887,0.887h-18.615c-0.488,0-0.885-0.398-0.885-0.887V82.813z
			 M140.87,114.722c-1.711,0-3.102-1.392-3.102-3.104c0-1.713,1.391-3.105,3.102-3.105c1.715,0,3.102,1.392,3.102,3.105
			C143.972,113.33,142.585,114.722,140.87,114.722z M164.804,114.722c-1.715,0-3.104-1.392-3.104-3.104
			c0-1.713,1.389-3.105,3.104-3.105s3.102,1.392,3.102,3.105C167.905,113.33,166.519,114.722,164.804,114.722z M167.905,101.425
			c0,1.772-1.732,2.589-2.66,2.589l-24.816,0.07c-1.771,0-2.66-0.887-2.66-2.659c0-2.658,0-7.851,0-10.635
			c0-1.773,0.889-2.659,2.66-2.659c7.977,0,13.93,0,24.816,0c1.773,0,2.66,0.886,2.66,2.659
			C167.905,92.561,167.905,100.518,167.905,101.425z"/>
	</g>
	<g>
		<g>
			<path fill="#F7A52D" stroke="#FFFFFF" stroke-width="2" stroke-miterlimit="10" d="M195.768,170.562
				c-2.533-5.82-5.349-11.609-8.445-17.346c6.004-2.539,12.218-4.851,18.63-6.916c-63.973-26.856-136.118-26.686-199.987,0.509
				c0.04,0.094,0.08,0.188,0.12,0.282c6.617,2.096,13.025,4.457,19.212,7.058c-2.899,5.432-5.547,10.909-7.942,16.414
				C74.41,146.611,138.71,146.61,195.768,170.562L195.768,170.562L195.768,170.562z"/>
		</g>
	</g>
	<g>
		<g>
			<path fill="#FFFFFF" d="M47.488,138.038c1.981-0.2,3.716-0.476,5.215-0.845c1.161-0.287,2.089-0.621,2.787-1.012
				c0.281-0.16,0.449-0.248,0.498-0.258c0.117-0.028,0.194,0.029,0.228,0.169c0.11,0.462,0.012,1.005-0.291,1.629
				c-0.302,0.624-0.762,1.151-1.384,1.583c-0.623,0.43-1.459,0.777-2.515,1.044c-0.797,0.201-1.717,0.365-2.764,0.494
				c0.178,0.975,0.358,1.95,0.544,2.924c0.547-0.399,1.076-0.727,1.592-0.982c0.514-0.256,1.011-0.443,1.489-0.564
				c1.581-0.398,3.047-0.283,4.384,0.338c1.334,0.622,2.173,1.677,2.534,3.147c0.373,1.512,0.123,2.87-0.728,4.079
				c-0.853,1.21-2.155,2.029-3.942,2.487c-1.423,0.364-2.66,0.339-3.73-0.086c-1.069-0.424-1.76-1.098-2.055-2.034
				c-0.194-0.612-0.154-1.153,0.12-1.626c0.274-0.472,0.711-0.789,1.304-0.949c0.522-0.14,0.995-0.111,1.419,0.087
				c0.424,0.198,0.693,0.503,0.815,0.919c0.087,0.296,0.073,0.576-0.036,0.842c-0.108,0.262-0.383,0.566-0.814,0.913
				c-0.315,0.256-0.449,0.456-0.406,0.601c0.073,0.234,0.308,0.398,0.711,0.493c0.591,0.132,1.229,0.109,1.916-0.068
				c0.861-0.222,1.454-0.702,1.793-1.449c0.338-0.747,0.307-1.872-0.099-3.376c-0.341-1.269-0.837-2.136-1.501-2.593
				c-0.665-0.456-1.398-0.585-2.19-0.383c-0.365,0.095-0.746,0.257-1.137,0.484c-0.39,0.23-0.796,0.526-1.216,0.892
				c0.152,0.541,0.181,0.931,0.093,1.172c-0.09,0.24-0.274,0.397-0.547,0.473c-0.235,0.064-0.438,0.059-0.617-0.015
				c-0.176-0.075-0.289-0.199-0.342-0.371c-0.082-0.269,0.009-0.727,0.282-1.377C48.41,142.561,47.939,140.3,47.488,138.038z"/>
			<path fill="#FFFFFF" d="M66.521,133.739c1.08-0.196,2.105-0.097,3.072,0.297c0.966,0.391,1.839,1.157,2.622,2.293
				c0.782,1.134,1.298,2.518,1.565,4.145c0.271,1.642,0.229,3.105-0.111,4.394s-0.878,2.273-1.623,2.96
				c-0.744,0.687-1.619,1.121-2.628,1.306c-1.517,0.277-2.891-0.078-4.15-1.076c-1.572-1.235-2.655-3.019-3.194-5.377
				c-0.38-1.666-0.422-3.158-0.115-4.474s0.859-2.339,1.651-3.064C64.401,134.417,65.375,133.948,66.521,133.739z M70.157,141.471
				c-0.567-3.089-1.167-5.077-1.826-5.958c-0.476-0.644-1.037-0.909-1.671-0.793c-0.763,0.138-1.229,0.748-1.391,1.822
				c-0.161,1.075,0.05,3.049,0.647,5.923c0.501,2.403,1.11,4.054,1.805,4.959c0.438,0.561,0.934,0.789,1.495,0.686
				c0.366-0.068,0.67-0.269,0.915-0.604c0.247-0.335,0.374-0.978,0.389-1.927C70.545,144.293,70.427,142.924,70.157,141.471z"/>
			<path fill="#FFFFFF" d="M81.371,131.54c1.077-0.124,2.082,0.045,3.011,0.503c0.927,0.456,1.737,1.279,2.433,2.464
				c0.693,1.185,1.109,2.599,1.257,4.24c0.153,1.655,0.005,3.112-0.422,4.375c-0.43,1.262-1.034,2.207-1.821,2.842
				c-0.787,0.634-1.679,1.007-2.689,1.124c-1.517,0.173-2.847-0.273-4.013-1.354c-1.459-1.338-2.396-3.189-2.759-5.578
				c-0.254-1.687-0.191-3.177,0.203-4.468c0.393-1.291,1.007-2.273,1.837-2.944C79.235,132.073,80.228,131.67,81.371,131.54z
				 M84.424,139.497c-0.344-3.12-0.799-5.143-1.389-6.066c-0.428-0.673-0.96-0.977-1.594-0.904c-0.76,0.088-1.263,0.663-1.495,1.724
				c-0.235,1.061-0.161,3.045,0.224,5.95c0.321,2.43,0.803,4.117,1.42,5.068c0.388,0.588,0.862,0.849,1.424,0.784
				c0.365-0.042,0.684-0.222,0.949-0.539c0.266-0.318,0.439-0.95,0.523-1.895C84.603,142.337,84.584,140.964,84.424,139.497z"/>
			<path fill="#FFFFFF" d="M108.44,131.239c0.372,0.003,0.745,0.008,1.116,0.013c-0.018,1.379-0.039,2.757-0.058,4.136
				c1.265,0.018,2.534,0.046,3.8,0.086c-0.01,0.386-0.025,0.772-0.037,1.159c-1.26-0.04-2.519-0.068-3.779-0.086
				c-0.029,2.13-0.062,4.262-0.094,6.391c-0.005,0.423,0.109,0.752,0.341,0.989c0.231,0.235,0.542,0.357,0.928,0.365
				c1.101,0.022,1.71-0.893,1.833-2.76c0.354,0.01,0.709,0.021,1.062,0.034c-0.058,0.993-0.263,1.788-0.604,2.382
				c-0.344,0.595-0.817,1.048-1.422,1.363c-0.605,0.314-1.28,0.466-2.026,0.454c-0.653-0.009-1.217-0.136-1.695-0.382
				c-0.48-0.246-0.859-0.612-1.146-1.093c-0.285-0.485-0.431-1.009-0.432-1.574c-0.003-2.062-0.007-4.125-0.009-6.188
				c-0.677,0.001-1.354,0.004-2.029,0.012c-0.005-0.33-0.009-0.659-0.012-0.988c1.245-0.157,2.22-0.577,2.924-1.27
				C107.805,133.59,108.252,132.576,108.44,131.239z"/>
			<path fill="#FFFFFF" d="M122.718,145.061c-0.028,0.332-0.056,0.664-0.085,0.996c-2.547-0.201-5.098-0.354-7.646-0.46
				c0.014-0.333,0.029-0.666,0.045-0.998c0.318,0.013,0.635,0.026,0.952,0.042c0.391,0.018,0.683-0.038,0.868-0.168
				c0.189-0.129,0.289-0.313,0.304-0.549c0.108-1.981,0.219-3.961,0.324-5.943c0.025-0.479-0.079-0.836-0.317-1.07
				c-0.236-0.234-0.58-0.362-1.03-0.382c-0.215-0.01-0.432-0.019-0.647-0.029c0.015-0.314,0.026-0.629,0.041-0.944
				c1.642-0.007,3.289,0.006,4.935,0.037c-0.071,1.09-0.147,2.18-0.219,3.27c0.357-1.076,0.911-1.883,1.666-2.417
				c0.756-0.534,1.586-0.766,2.48-0.692c0.765,0.064,1.354,0.294,1.764,0.688c0.408,0.392,0.585,0.869,0.528,1.424
				c-0.047,0.477-0.239,0.85-0.569,1.118c-0.335,0.268-0.713,0.382-1.152,0.344c-0.388-0.034-0.71-0.19-0.965-0.47
				c-0.257-0.28-0.371-0.619-0.338-1.019c0.021-0.221,0.104-0.448,0.261-0.68c0.081-0.129,0.123-0.223,0.129-0.28
				c0.008-0.101-0.012-0.176-0.061-0.227s-0.132-0.081-0.246-0.089c-0.293-0.024-0.628,0.101-1.001,0.375
				c-0.572,0.423-1.076,1.114-1.51,2.071c-0.434,0.958-0.684,1.937-0.755,2.938c-0.053,0.722-0.102,1.443-0.155,2.165
				c-0.018,0.251,0.042,0.447,0.183,0.589c0.138,0.142,0.342,0.222,0.606,0.241C121.646,144.978,122.184,145.019,122.718,145.061z"
				/>
			<path fill="#FFFFFF" d="M128.839,136.524c1.714,0.109,3.43,0.239,5.147,0.391c-0.374,2.823-0.761,5.646-1.154,8.467
				c-0.033,0.229,0.027,0.413,0.168,0.558c0.143,0.146,0.38,0.239,0.708,0.284c0.248,0.032,0.495,0.066,0.74,0.099
				c-0.049,0.331-0.099,0.66-0.147,0.99c-2.191-0.299-4.381-0.562-6.57-0.79c0.036-0.331,0.075-0.662,0.113-0.993
				c0.242,0.026,0.484,0.051,0.728,0.077c0.394,0.042,0.679-0.009,0.86-0.155c0.18-0.146,0.296-0.421,0.346-0.827
				c0.235-1.927,0.469-3.855,0.697-5.783c0.04-0.363-0.045-0.659-0.264-0.884c-0.218-0.225-0.539-0.362-0.963-0.406
				c-0.17-0.019-0.343-0.037-0.515-0.055C128.769,137.172,128.805,136.848,128.839,136.524z M132.702,131.116
				c0.563,0.067,1.029,0.294,1.391,0.683c0.361,0.39,0.508,0.825,0.446,1.308c-0.063,0.483-0.317,0.867-0.762,1.155
				c-0.439,0.288-0.942,0.398-1.495,0.331c-0.564-0.066-1.026-0.292-1.385-0.678c-0.361-0.386-0.516-0.818-0.463-1.294
				c0.053-0.485,0.301-0.874,0.742-1.167C131.62,131.16,132.128,131.048,132.702,131.116z"/>
			<path fill="#FFFFFF" d="M137.967,137.721c1.576,0.145,3.156,0.306,4.736,0.485c0.076,0.675,0.07,1.333-0.012,1.975
				c0.602-0.586,1.314-0.997,2.146-1.229c0.829-0.232,1.714-0.261,2.642-0.083c1.491,0.285,2.604,0.984,3.319,2.078
				c0.715,1.095,0.87,2.472,0.481,4.123c-0.27,1.148-0.72,2.076-1.331,2.783c-0.613,0.707-1.346,1.187-2.189,1.439
				c-0.846,0.254-1.768,0.284-2.771,0.092c-0.799-0.152-1.478-0.446-2.037-0.886c-0.561-0.439-1.039-1.068-1.445-1.889
				c-0.223,1.182-0.445,2.363-0.672,3.545c-0.091,0.467-0.107,0.771-0.057,0.914c0.05,0.145,0.176,0.268,0.373,0.371
				c0.198,0.104,0.61,0.214,1.236,0.333c-0.067,0.338-0.138,0.676-0.206,1.014c-2.149-0.388-4.303-0.74-6.452-1.056
				c0.055-0.34,0.111-0.68,0.169-1.02c0.113,0.017,0.229,0.034,0.344,0.051c0.408,0.06,0.684,0.067,0.832,0.023
				c0.15-0.046,0.278-0.146,0.384-0.296c0.073-0.105,0.147-0.386,0.229-0.847c0.542-3.132,1.071-6.266,1.586-9.399
				c0.075-0.46,0.084-0.773,0.027-0.937c-0.057-0.165-0.164-0.294-0.32-0.387c-0.157-0.092-0.539-0.194-1.15-0.307
				C137.874,138.316,137.92,138.019,137.967,137.721z M145.65,140.046c-0.793-0.145-1.531,0.063-2.206,0.625
				c-0.676,0.561-1.121,1.478-1.356,2.743c-0.23,1.252-0.125,2.259,0.312,3.021c0.438,0.763,1.01,1.208,1.73,1.341
				c0.708,0.13,1.334-0.046,1.889-0.533c0.727-0.644,1.235-1.601,1.508-2.875c0.252-1.169,0.214-2.143-0.115-2.92
				C147.082,140.67,146.492,140.202,145.65,140.046z"/>
			<path fill="#FFFFFF" d="M162.68,143.042c0.348-0.202,0.696-0.403,1.044-0.604c0.253,0.068,0.506,0.136,0.757,0.204
				c-0.245,1.126-0.492,2.252-0.744,3.377c-0.327-0.09-0.657-0.178-0.983-0.267c-0.261-1.02-0.653-1.792-1.18-2.312
				c-0.523-0.52-1.239-0.896-2.132-1.118c-0.771-0.192-1.393-0.209-1.858-0.054c-0.467,0.156-0.747,0.425-0.847,0.809
				c-0.096,0.376-0.018,0.699,0.24,0.969c0.255,0.276,1.039,0.696,2.348,1.279c1.187,0.529,1.958,0.929,2.328,1.182
				c0.703,0.477,1.193,1.043,1.466,1.693c0.273,0.65,0.297,1.331,0.076,2.039c-0.281,0.896-0.933,1.532-1.937,1.92
				c-1.003,0.388-2.163,0.41-3.482,0.073c-0.637-0.164-1.193-0.375-1.674-0.637c-0.477-0.263-0.952-0.632-1.424-1.106
				c-0.358,0.226-0.713,0.452-1.068,0.68c-0.296-0.069-0.592-0.138-0.887-0.206c0.249-1.249,0.494-2.499,0.733-3.749
				c0.33,0.075,0.659,0.151,0.989,0.228c0.361,2.062,1.524,3.327,3.539,3.839c0.827,0.211,1.504,0.236,2.027,0.067
				c0.523-0.166,0.848-0.446,0.967-0.839c0.108-0.36,0.054-0.67-0.17-0.93c-0.221-0.259-0.899-0.656-2.037-1.177
				c-1.23-0.557-2.062-0.969-2.486-1.25c-0.734-0.464-1.243-0.984-1.531-1.562c-0.286-0.579-0.344-1.209-0.176-1.892
				c0.243-0.975,0.816-1.691,1.738-2.135c0.92-0.445,2.031-0.511,3.318-0.192c0.628,0.156,1.174,0.362,1.639,0.614
				C161.74,142.238,162.207,142.59,162.68,143.042z"/>
		</g>
	</g>
</g>
</svg>
