<?xml version="1.0" encoding="utf-8"?>
<!-- Generator: Adobe Illustrator 16.0.4, SVG Export Plug-In . SVG Version: 6.00 Build 0)  -->
<!DOCTYPE svg PUBLIC "-//W3C//DTD SVG 1.1//EN" "http://www.w3.org/Graphics/SVG/1.1/DTD/svg11.dtd">
<svg version="1.1" id="Livello_1" xmlns="http://www.w3.org/2000/svg" xmlns:xlink="http://www.w3.org/1999/xlink" x="0px" y="0px"
	 width="210px" height="200px" viewBox="0 0 210 200" enable-background="new 0 0 210 200" xml:space="preserve">
<g>
	<circle fill="#EF7C0E" cx="105" cy="100" r="84"/>
	<circle fill="#EF7C0E" stroke="#FFFFFF" stroke-width="5" stroke-miterlimit="10" cx="105" cy="100" r="75.216"/>
	<g>
		<path fill="#FFFFFF" d="M74.051,82.001c-1.771-3.026-3.877-3.685-7.262-4.557c-3.381-0.87-6.793-1-9.758-1
			c-2.964,0-6.375,0.13-9.758,1c-3.381,0.872-5.515,1.531-7.285,4.557c-1.771,3.027-3.097,18.429-3.097,19.224
			c0,0.799,0,17.393,0,17.393h2.111c0,1.057,0,4.655,0,4.693c0,1.49,2.207,2.7,3.696,2.7c1.49,0,3.696-1.209,3.696-2.7
			c0-0.038,0-3.637,0-4.693h21.63c0,1.057-0.003,4.176,0,4.215c0.342,2.699,2.871,2.938,4.361,2.938c1.488,0,2.523-0.97,2.523-2.46
			c0-0.038,0-3.637,0-4.693h2.224c0,0,0.005-15.729,0.005-16.6C77.139,101.149,75.823,85.028,74.051,82.001z M49.565,78.488h15.837
			v4.226H49.565V78.488z M44.462,115.574c-2.65,0-4.797-2.145-4.797-4.79c0-2.646,2.146-4.792,4.797-4.792
			c2.645,0,4.793,2.146,4.793,4.792C49.255,113.429,47.106,115.574,44.462,115.574z M40.046,100.666c0,0,1.109-12.804,2.3-13.994
			c1.187-1.189,28.184-1.049,29.369,0.141c1.192,1.187,2.297,13.854,2.297,13.854H40.046z M69.059,115.574
			c-2.646,0-4.797-2.145-4.797-4.79c0-2.646,2.15-4.792,4.797-4.792c2.643,0,4.792,2.146,4.792,4.792
			C73.851,113.429,71.701,115.574,69.059,115.574z"/>
		<g>
			<path fill="#FFFFFF" d="M102.936,41.267c1.101,0,1.992-0.889,1.992-1.988c0-1.099-0.892-1.989-1.992-1.989
				c-1.094,0-1.986,0.89-1.986,1.989C100.949,40.378,101.842,41.267,102.936,41.267z"/>
			<circle fill="#FFFFFF" cx="108.242" cy="39.278" r="1.989"/>
			<path fill="#FFFFFF" d="M117.431,85.286c3.509-1.088,6.054-4.359,6.054-8.228V50.546c0-4.756-3.859-8.614-8.617-8.614H96.311
				c-4.756,0-8.616,3.857-8.616,8.614v26.512c0,3.869,2.549,7.14,6.058,8.228l-8.709,14.312h5.966l5.966-9.95h17.23l5.969,9.95
				h5.961L117.431,85.286z M114.867,81.696c-1.829,0-3.31-1.484-3.31-3.312c0-1.826,1.48-3.312,3.31-3.312
				c1.832,0,3.315,1.485,3.315,3.312C118.183,80.212,116.699,81.696,114.867,81.696z M100.29,44.579c0-0.728,0.59-1.323,1.323-1.323
				h7.952c0.734,0,1.328,0.595,1.328,1.323v2.651c0,0.736-0.594,1.327-1.328,1.327h-7.952c-0.733,0-1.323-0.591-1.323-1.327V44.579z
				 M92.333,53.86c0-2.195,1.78-3.976,3.978-3.976h18.557c2.199,0,3.979,1.78,3.979,3.976v5.306c0,2.193-1.78,3.974-3.979,3.974
				H96.311c-2.197,0-3.978-1.781-3.978-3.974V53.86z M96.311,75.072c1.835,0,3.315,1.485,3.315,3.312
				c0,1.829-1.48,3.312-3.315,3.312c-1.828,0-3.31-1.484-3.31-3.312C93.001,76.558,94.482,75.072,96.311,75.072z"/>
		</g>
		<path fill="#FFFFFF" d="M172.223,88.904h-1.773c0-1.472,0-2.728,0-3.547c0-4.574-0.885-7.089-5.315-7.089h-24.819
			c-5.316,0-7.092,1.519-7.092,6.205c0,0.953,0,2.549,0,4.431h-1.771c-0.488,0-0.885,0.395-0.885,0.886v7.091
			c0,0.487,0.396,0.885,0.885,0.885h1.771c0,2.596,0,4.86,0,6.066c0,5.115,0,9.889,0,9.889c0,1.327,0.491,2.173,1.295,2.708
			l-0.407-0.048v2.656c0,0.979,0.795,1.775,1.773,1.775h3.545c0.979,0,1.773-0.796,1.773-1.775v-1.771h21.272v1.771
			c0,0.979,0.793,1.775,1.771,1.775h3.545c0.979,0,1.773-0.796,1.773-1.775v-2.656l-0.408,0.048
			c0.805-0.536,1.293-1.382,1.293-2.708c0,0,0-3.924,0-9.889c0-1.263,0-3.524,0-6.066h1.773c0.491,0,0.886-0.398,0.886-0.885V89.79
			C173.108,89.299,172.714,88.904,172.223,88.904z M142.088,81.813c0-0.491,0.396-0.886,0.885-0.886h18.614
			c0.491,0,0.888,0.395,0.888,0.886v1.773c0,0.488-0.396,0.887-0.888,0.887h-18.614c-0.488,0-0.885-0.398-0.885-0.887V81.813z
			 M139.871,113.722c-1.712,0-3.102-1.392-3.102-3.104c0-1.713,1.39-3.105,3.102-3.105c1.714,0,3.102,1.392,3.102,3.105
			C142.973,112.33,141.585,113.722,139.871,113.722z M163.805,113.722c-1.715,0-3.104-1.392-3.104-3.104
			c0-1.713,1.389-3.105,3.104-3.105c1.714,0,3.101,1.392,3.101,3.105C166.905,112.33,165.519,113.722,163.805,113.722z
			 M166.905,100.425c0,1.772-1.732,2.589-2.659,2.589l-24.817,0.07c-1.771,0-2.659-0.887-2.659-2.659c0-2.658,0-7.851,0-10.635
			c0-1.773,0.888-2.659,2.659-2.659c7.977,0,13.93,0,24.817,0c1.773,0,2.659,0.886,2.659,2.659
			C166.905,91.561,166.905,99.518,166.905,100.425z"/>
	</g>
	<g>
		<g>
			<path fill="#F7A52D" stroke="#FFFFFF" stroke-width="2" stroke-miterlimit="10" d="M194.768,169.562
				c-2.534-5.82-5.349-11.609-8.446-17.346c6.004-2.539,12.219-4.851,18.63-6.916c-63.973-26.855-136.118-26.686-199.987,0.509
				c0.04,0.094,0.08,0.188,0.12,0.282c6.617,2.096,13.026,4.457,19.211,7.058c-2.899,5.432-5.546,10.909-7.942,16.414
				C73.411,145.611,137.71,145.61,194.768,169.562L194.768,169.562L194.768,169.562z"/>
		</g>
	</g>
	<g>
		<g>
			<path fill="#FFFFFF" d="M59.353,135.019c2.067-0.213,3.874-0.492,5.439-0.859c1.214-0.285,2.185-0.614,2.92-1.001
				c0.297-0.158,0.472-0.243,0.524-0.255c0.124-0.026,0.201,0.031,0.232,0.171c0.103,0.463-0.014,1.006-0.342,1.63
				c-0.328,0.622-0.82,1.147-1.474,1.577c-0.653,0.428-1.525,0.771-2.623,1.038c-0.829,0.203-1.786,0.367-2.873,0.5
				c0.171,0.977,0.346,1.954,0.526,2.929c0.568-0.402,1.122-0.731,1.659-0.988c0.535-0.257,1.051-0.444,1.547-0.564
				c1.639-0.396,3.153-0.271,4.517,0.363c1.364,0.634,2.197,1.702,2.535,3.177c0.35,1.519,0.064,2.873-0.823,4.073
				c-0.89,1.201-2.226,2.007-4.048,2.457c-1.45,0.358-2.711,0.333-3.803-0.09c-1.091-0.422-1.798-1.094-2.099-2.029
				c-0.197-0.611-0.154-1.154,0.131-1.629s0.735-0.794,1.346-0.956c0.537-0.142,1.022-0.114,1.457,0.084
				c0.432,0.197,0.707,0.505,0.827,0.921c0.085,0.297,0.07,0.578-0.044,0.842c-0.114,0.263-0.396,0.568-0.841,0.914
				c-0.323,0.257-0.462,0.458-0.417,0.603c0.071,0.234,0.312,0.397,0.723,0.492c0.604,0.133,1.254,0.11,1.957-0.065
				c0.879-0.22,1.489-0.696,1.844-1.441c0.354-0.745,0.338-1.871-0.052-3.38c-0.329-1.272-0.824-2.143-1.501-2.604
				c-0.678-0.459-1.431-0.59-2.251-0.388c-0.38,0.094-0.775,0.255-1.181,0.485s-0.828,0.529-1.265,0.896
				c0.15,0.542,0.177,0.932,0.083,1.173c-0.095,0.241-0.284,0.4-0.566,0.477c-0.243,0.065-0.453,0.06-0.635-0.013
				c-0.18-0.075-0.298-0.198-0.351-0.37c-0.083-0.269,0.015-0.729,0.303-1.381C60.25,139.548,59.789,137.284,59.353,135.019z"/>
			<path fill="#FFFFFF" d="M92.146,130.561c0.389-0.03,0.777-0.058,1.165-0.086c0.098,1.375,0.198,2.75,0.299,4.126
				c1.316-0.092,2.63-0.17,3.946-0.231c0.019,0.386,0.039,0.772,0.057,1.159c-1.306,0.061-2.611,0.138-3.917,0.229
				c0.158,2.125,0.319,4.251,0.484,6.375c0.033,0.423,0.179,0.74,0.439,0.957c0.26,0.215,0.588,0.31,0.982,0.285
				c1.127-0.069,1.668-1.029,1.633-2.9c0.365-0.018,0.729-0.036,1.093-0.052c0.023,0.995-0.117,1.803-0.416,2.422
				c-0.299,0.621-0.743,1.11-1.331,1.474c-0.591,0.363-1.263,0.57-2.025,0.623c-0.668,0.045-1.256-0.031-1.768-0.235
				c-0.513-0.202-0.938-0.532-1.277-0.987c-0.34-0.456-0.542-0.964-0.598-1.528c-0.205-2.054-0.406-4.107-0.602-6.161
				c-0.701,0.062-1.403,0.131-2.105,0.204c-0.035-0.328-0.07-0.655-0.106-0.983c1.281-0.276,2.251-0.783,2.921-1.537
				S92.065,131.91,92.146,130.561z"/>
			<path fill="#FFFFFF" d="M107.964,143.257c-0.006,0.333-0.012,0.666-0.017,0.999c-2.605-0.04-5.209-0.015-7.815,0.073
				c-0.012-0.333-0.025-0.666-0.038-0.998c0.325-0.011,0.65-0.021,0.975-0.03c0.401-0.011,0.691-0.087,0.873-0.232
				c0.182-0.143,0.27-0.333,0.265-0.569c-0.045-1.983-0.089-3.966-0.132-5.95c-0.011-0.479-0.146-0.829-0.41-1.044
				c-0.262-0.216-0.627-0.318-1.093-0.305c-0.224,0.006-0.448,0.013-0.673,0.021c-0.011-0.314-0.021-0.63-0.033-0.945
				c1.7-0.132,3.401-0.238,5.106-0.319c0.003,1.092,0.008,2.184,0.011,3.276c0.289-1.097,0.803-1.94,1.544-2.522
				s1.583-0.867,2.513-0.848c0.793,0.016,1.416,0.211,1.863,0.581c0.448,0.368,0.659,0.833,0.637,1.392
				c-0.019,0.479-0.191,0.862-0.514,1.148c-0.326,0.287-0.712,0.424-1.162,0.412c-0.401-0.011-0.742-0.146-1.024-0.411
				c-0.284-0.263-0.423-0.594-0.416-0.996c0.004-0.222,0.077-0.454,0.22-0.694c0.075-0.135,0.114-0.23,0.115-0.288
				c0.002-0.101-0.024-0.174-0.077-0.222c-0.055-0.046-0.142-0.073-0.259-0.074c-0.305-0.005-0.643,0.141-1.008,0.437
				c-0.562,0.459-1.032,1.182-1.41,2.165c-0.377,0.985-0.561,1.978-0.561,2.98c0.001,0.723,0.001,1.447,0.001,2.17
				c0,0.251,0.077,0.442,0.229,0.576c0.152,0.132,0.365,0.199,0.637,0.2C106.865,143.243,107.415,143.249,107.964,143.257z"/>
			<path fill="#FFFFFF" d="M113.68,134.378c1.775,0.017,3.551,0.062,5.331,0.135c-0.236,2.837-0.479,5.675-0.73,8.512
				c-0.02,0.229,0.046,0.411,0.201,0.549c0.153,0.139,0.398,0.222,0.734,0.25c0.252,0.022,0.505,0.044,0.758,0.067
				c-0.033,0.332-0.067,0.663-0.101,0.995c-2.238-0.203-4.477-0.358-6.715-0.465c0.018-0.333,0.035-0.666,0.054-0.998
				c0.249,0.012,0.497,0.024,0.746,0.038c0.401,0.021,0.688-0.044,0.864-0.2c0.176-0.155,0.276-0.436,0.304-0.843
				c0.128-1.938,0.253-3.874,0.376-5.812c0.023-0.365-0.083-0.655-0.321-0.87c-0.236-0.213-0.576-0.333-1.016-0.356
				c-0.177-0.009-0.355-0.018-0.533-0.026C113.648,135.029,113.665,134.704,113.68,134.378z M117.362,128.78
				c0.591,0.039,1.085,0.246,1.481,0.616c0.396,0.373,0.573,0.801,0.533,1.287c-0.039,0.486-0.282,0.881-0.724,1.188
				c-0.442,0.308-0.952,0.44-1.53,0.402c-0.587-0.04-1.076-0.242-1.471-0.61c-0.395-0.367-0.581-0.79-0.554-1.269
				c0.027-0.486,0.259-0.887,0.701-1.203C116.24,128.878,116.762,128.739,117.362,128.78z"/>
			<path fill="#FFFFFF" d="M123.153,135.151c1.631,0.083,3.265,0.191,4.903,0.32c0.106,0.672,0.128,1.33,0.069,1.974
				c0.595-0.604,1.314-1.035,2.159-1.292c0.846-0.254,1.755-0.306,2.721-0.149c1.547,0.25,2.719,0.93,3.487,2.013
				c0.77,1.083,0.966,2.46,0.609,4.118c-0.249,1.153-0.684,2.087-1.292,2.807c-0.609,0.718-1.34,1.211-2.193,1.482
				c-0.854,0.272-1.787,0.323-2.812,0.159c-0.818-0.132-1.515-0.407-2.099-0.831c-0.583-0.422-1.093-1.036-1.539-1.842
				c-0.18,1.188-0.362,2.375-0.547,3.564c-0.073,0.469-0.08,0.774-0.023,0.915c0.057,0.143,0.188,0.263,0.391,0.358
				c0.203,0.098,0.624,0.195,1.26,0.295c-0.059,0.34-0.117,0.68-0.175,1.019c-2.182-0.321-4.363-0.596-6.545-0.824
				c0.042-0.341,0.083-0.684,0.124-1.024c0.117,0.012,0.233,0.024,0.35,0.036c0.413,0.045,0.694,0.041,0.842-0.01
				c0.149-0.052,0.274-0.155,0.373-0.309c0.069-0.108,0.135-0.394,0.195-0.855c0.414-3.15,0.814-6.3,1.2-9.452
				c0.057-0.462,0.051-0.775-0.014-0.937c-0.066-0.163-0.181-0.288-0.347-0.375c-0.166-0.087-0.564-0.176-1.198-0.263
				C123.087,135.749,123.12,135.45,123.153,135.151z M131.163,137.228c-0.821-0.125-1.573,0.104-2.245,0.686
				c-0.672,0.582-1.095,1.512-1.282,2.784c-0.186,1.259-0.039,2.262,0.435,3.011c0.472,0.75,1.071,1.178,1.81,1.291
				c0.721,0.11,1.354-0.083,1.905-0.583c0.721-0.663,1.21-1.63,1.451-2.911c0.22-1.175,0.151-2.148-0.213-2.918
				C132.659,137.817,132.035,137.36,131.163,137.228z"/>
			<path fill="#FFFFFF" d="M148.798,140.029c0.356-0.202,0.714-0.402,1.074-0.602c0.262,0.069,0.523,0.138,0.785,0.208
				c-0.24,1.127-0.486,2.254-0.737,3.38c-0.339-0.092-0.678-0.182-1.018-0.271c-0.274-1.022-0.691-1.797-1.242-2.32
				c-0.548-0.521-1.292-0.897-2.219-1.117c-0.8-0.189-1.442-0.204-1.92-0.046c-0.479,0.158-0.763,0.43-0.857,0.814
				c-0.092,0.378-0.003,0.701,0.266,0.969c0.268,0.275,1.083,0.689,2.438,1.269c1.228,0.529,2.029,0.929,2.41,1.183
				c0.729,0.479,1.237,1.047,1.521,1.7c0.285,0.652,0.312,1.333,0.086,2.042c-0.286,0.895-0.951,1.53-1.975,1.917
				c-1.026,0.387-2.203,0.409-3.55,0.077c-0.65-0.16-1.219-0.368-1.71-0.626c-0.49-0.261-0.978-0.625-1.465-1.095
				c-0.361,0.229-0.72,0.459-1.078,0.69c-0.302-0.065-0.604-0.13-0.905-0.194c0.232-1.253,0.458-2.506,0.678-3.76
				c0.338,0.072,0.678,0.144,1.016,0.217c0.409,2.061,1.61,3.312,3.669,3.816c0.846,0.208,1.535,0.231,2.07,0.063
				c0.534-0.166,0.863-0.446,0.982-0.841c0.109-0.359,0.051-0.669-0.179-0.93c-0.229-0.26-0.926-0.659-2.099-1.176
				c-1.268-0.554-2.125-0.96-2.566-1.238c-0.759-0.459-1.291-0.974-1.596-1.551c-0.304-0.576-0.38-1.206-0.221-1.891
				c0.228-0.979,0.804-1.701,1.744-2.153s2.085-0.526,3.424-0.21c0.652,0.154,1.222,0.36,1.706,0.613
				C147.813,139.222,148.303,139.575,148.798,140.029z"/>
		</g>
	</g>
</g>
</svg>
