<?xml version="1.0" encoding="utf-8"?>
<!-- Generator: Adobe Illustrator 16.0.4, SVG Export Plug-In . SVG Version: 6.00 Build 0)  -->
<!DOCTYPE svg PUBLIC "-//W3C//DTD SVG 1.1//EN" "http://www.w3.org/Graphics/SVG/1.1/DTD/svg11.dtd">
<svg version="1.1" id="Livello_1" xmlns="http://www.w3.org/2000/svg" xmlns:xlink="http://www.w3.org/1999/xlink" x="0px" y="0px"
	 width="210px" height="200px" viewBox="0 0 210 200" enable-background="new 0 0 210 200" xml:space="preserve">
<g>
	<circle fill="#EF7C0E" cx="105" cy="100" r="84"/>
	<circle fill="#EF7C0E" stroke="#FFFFFF" stroke-width="5" stroke-miterlimit="10" cx="105" cy="100" r="75.216"/>
	<g>
		<path fill="#FFFFFF" d="M74.051,82.001c-1.771-3.026-3.877-3.685-7.262-4.557c-3.381-0.87-6.793-1-9.758-1
			c-2.964,0-6.375,0.13-9.758,1c-3.381,0.872-5.515,1.531-7.285,4.557c-1.771,3.027-3.097,18.429-3.097,19.224
			c0,0.799,0,17.393,0,17.393h2.111c0,1.057,0,4.655,0,4.693c0,1.49,2.207,2.7,3.696,2.7c1.49,0,3.696-1.209,3.696-2.7
			c0-0.038,0-3.637,0-4.693h21.63c0,1.057-0.003,4.176,0,4.215c0.342,2.699,2.871,2.938,4.361,2.938c1.488,0,2.523-0.97,2.523-2.46
			c0-0.038,0-3.637,0-4.693h2.224c0,0,0.005-15.729,0.005-16.6C77.139,101.149,75.823,85.028,74.051,82.001z M49.565,78.488h15.837
			v4.226H49.565V78.488z M44.462,115.574c-2.65,0-4.797-2.145-4.797-4.79c0-2.646,2.146-4.792,4.797-4.792
			c2.645,0,4.793,2.146,4.793,4.792C49.255,113.429,47.106,115.574,44.462,115.574z M40.046,100.666c0,0,1.109-12.804,2.3-13.994
			c1.187-1.189,28.184-1.049,29.369,0.141c1.192,1.187,2.297,13.854,2.297,13.854H40.046z M69.059,115.574
			c-2.646,0-4.797-2.145-4.797-4.79c0-2.646,2.15-4.792,4.797-4.792c2.643,0,4.792,2.146,4.792,4.792
			C73.851,113.429,71.701,115.574,69.059,115.574z"/>
		<g>
			<path fill="#FFFFFF" d="M102.936,41.267c1.101,0,1.992-0.889,1.992-1.988c0-1.099-0.892-1.989-1.992-1.989
				c-1.094,0-1.986,0.89-1.986,1.989C100.949,40.378,101.842,41.267,102.936,41.267z"/>
			<circle fill="#FFFFFF" cx="108.242" cy="39.278" r="1.989"/>
			<path fill="#FFFFFF" d="M117.431,85.286c3.509-1.088,6.054-4.359,6.054-8.228V50.546c0-4.756-3.859-8.614-8.617-8.614H96.311
				c-4.756,0-8.616,3.857-8.616,8.614v26.512c0,3.869,2.549,7.14,6.058,8.228l-8.709,14.312h5.966l5.966-9.95h17.23l5.969,9.95
				h5.961L117.431,85.286z M114.867,81.696c-1.829,0-3.31-1.484-3.31-3.312c0-1.826,1.48-3.312,3.31-3.312
				c1.832,0,3.315,1.485,3.315,3.312C118.183,80.212,116.699,81.696,114.867,81.696z M100.29,44.579c0-0.728,0.59-1.323,1.323-1.323
				h7.952c0.734,0,1.328,0.595,1.328,1.323v2.651c0,0.736-0.594,1.327-1.328,1.327h-7.952c-0.733,0-1.323-0.591-1.323-1.327V44.579z
				 M92.333,53.86c0-2.195,1.78-3.976,3.978-3.976h18.557c2.199,0,3.979,1.78,3.979,3.976v5.306c0,2.193-1.78,3.974-3.979,3.974
				H96.311c-2.197,0-3.978-1.781-3.978-3.974V53.86z M96.311,75.072c1.835,0,3.315,1.485,3.315,3.312
				c0,1.829-1.48,3.312-3.315,3.312c-1.828,0-3.31-1.484-3.31-3.312C93.001,76.558,94.482,75.072,96.311,75.072z"/>
		</g>
		<path fill="#FFFFFF" d="M172.223,88.904h-1.773c0-1.472,0-2.728,0-3.547c0-4.574-0.885-7.089-5.315-7.089h-24.819
			c-5.316,0-7.092,1.519-7.092,6.205c0,0.953,0,2.549,0,4.431h-1.771c-0.488,0-0.885,0.395-0.885,0.886v7.091
			c0,0.487,0.396,0.885,0.885,0.885h1.771c0,2.596,0,4.86,0,6.066c0,5.115,0,9.889,0,9.889c0,1.327,0.491,2.173,1.295,2.708
			l-0.407-0.048v2.656c0,0.979,0.795,1.775,1.773,1.775h3.545c0.979,0,1.773-0.796,1.773-1.775v-1.771h21.272v1.771
			c0,0.979,0.793,1.775,1.771,1.775h3.545c0.979,0,1.773-0.796,1.773-1.775v-2.656l-0.408,0.048
			c0.805-0.536,1.293-1.382,1.293-2.708c0,0,0-3.924,0-9.889c0-1.263,0-3.524,0-6.066h1.773c0.491,0,0.886-0.398,0.886-0.885V89.79
			C173.108,89.299,172.714,88.904,172.223,88.904z M142.088,81.813c0-0.491,0.396-0.886,0.885-0.886h18.614
			c0.491,0,0.888,0.395,0.888,0.886v1.773c0,0.488-0.396,0.887-0.888,0.887h-18.614c-0.488,0-0.885-0.398-0.885-0.887V81.813z
			 M139.871,113.722c-1.712,0-3.102-1.392-3.102-3.104c0-1.713,1.39-3.105,3.102-3.105c1.714,0,3.102,1.392,3.102,3.105
			C142.973,112.33,141.585,113.722,139.871,113.722z M163.805,113.722c-1.715,0-3.104-1.392-3.104-3.104
			c0-1.713,1.389-3.105,3.104-3.105c1.714,0,3.101,1.392,3.101,3.105C166.905,112.33,165.519,113.722,163.805,113.722z
			 M166.905,100.425c0,1.772-1.732,2.589-2.659,2.589l-24.817,0.07c-1.771,0-2.659-0.887-2.659-2.659c0-2.658,0-7.851,0-10.635
			c0-1.773,0.888-2.659,2.659-2.659c7.977,0,13.93,0,24.817,0c1.773,0,2.659,0.886,2.659,2.659
			C166.905,91.561,166.905,99.518,166.905,100.425z"/>
	</g>
	<g>
		<g>
			<path fill="#F7A52D" stroke="#FFFFFF" stroke-width="2" stroke-miterlimit="10" d="M194.768,169.562
				c-2.534-5.82-5.349-11.609-8.446-17.346c6.004-2.539,12.219-4.851,18.63-6.916c-63.973-26.855-136.118-26.686-199.987,0.509
				c0.04,0.094,0.08,0.188,0.12,0.282c6.617,2.096,13.026,4.457,19.211,7.058c-2.899,5.432-5.546,10.909-7.942,16.414
				C73.41,145.611,137.71,145.61,194.768,169.562L194.768,169.562L194.768,169.562z"/>
		</g>
	</g>
	<g>
		<g>
			<path fill="#FFFFFF" d="M52.438,137.327c1.324-0.445,2.415-0.886,3.275-1.334c0.86-0.449,1.713-0.999,2.562-1.652
				c0.313-0.077,0.626-0.154,0.94-0.23c1.083,4.256,2.209,8.509,3.379,12.757c0.068,0.25,0.201,0.423,0.396,0.519
				c0.197,0.098,0.431,0.113,0.708,0.047c0.734-0.175,1.47-0.345,2.205-0.511c0.082,0.324,0.166,0.648,0.248,0.972
				c-3.05,0.689-6.1,1.46-9.146,2.312c-0.104-0.32-0.207-0.638-0.309-0.958c0.576-0.161,1.153-0.32,1.729-0.475
				c0.442-0.12,0.73-0.287,0.866-0.504c0.135-0.218,0.145-0.521,0.029-0.908c-0.934-3.136-1.841-6.275-2.722-9.417
				c-0.062-0.223-0.193-0.369-0.391-0.444c-0.2-0.074-0.465-0.067-0.797,0.021c-0.898,0.239-1.795,0.483-2.693,0.735
				C52.625,137.946,52.532,137.636,52.438,137.327z"/>
			<path fill="#FFFFFF" d="M72.219,131.035c1.1-0.191,2.143-0.086,3.12,0.315c0.978,0.399,1.858,1.172,2.635,2.316
				c0.778,1.142,1.279,2.531,1.527,4.161c0.25,1.644,0.187,3.107-0.172,4.393c-0.36,1.286-0.914,2.264-1.674,2.946
				c-0.758,0.681-1.641,1.106-2.66,1.286c-1.529,0.268-2.91-0.094-4.174-1.097c-1.58-1.241-2.668-3.025-3.199-5.386
				c-0.375-1.667-0.409-3.159-0.086-4.476c0.322-1.316,0.893-2.339,1.706-3.064C70.054,131.706,71.051,131.238,72.219,131.035z
				 M75.819,138.792c-0.539-3.095-1.122-5.086-1.781-5.973c-0.477-0.646-1.042-0.915-1.689-0.803
				c-0.776,0.136-1.258,0.744-1.433,1.818c-0.175,1.075,0.021,3.05,0.602,5.927c0.486,2.405,1.09,4.06,1.782,4.969
				c0.435,0.562,0.934,0.792,1.501,0.694c0.37-0.066,0.679-0.264,0.928-0.597c0.252-0.333,0.386-0.975,0.413-1.924
				C76.178,141.617,76.074,140.247,75.819,138.792z"/>
			<path fill="#FFFFFF" d="M99.9,129.319c0.379-0.012,0.759-0.023,1.139-0.033c0.036,1.378,0.072,2.756,0.11,4.134
				c1.288-0.034,2.576-0.054,3.864-0.062c0.002,0.387,0.005,0.773,0.007,1.16c-1.28,0.007-2.56,0.028-3.84,0.061
				c0.058,2.13,0.117,4.26,0.177,6.39c0.012,0.423,0.141,0.746,0.386,0.974c0.246,0.227,0.563,0.336,0.953,0.329
				c1.111-0.021,1.689-0.958,1.737-2.829c0.359-0.003,0.718-0.005,1.077-0.006c-0.021,0.996-0.194,1.796-0.517,2.403
				c-0.322,0.607-0.782,1.079-1.378,1.416c-0.598,0.338-1.271,0.514-2.024,0.534c-0.66,0.017-1.235-0.088-1.727-0.313
				c-0.495-0.227-0.896-0.575-1.207-1.045c-0.312-0.472-0.482-0.989-0.509-1.554c-0.097-2.061-0.193-4.121-0.287-6.182
				c-0.688,0.03-1.375,0.064-2.063,0.102c-0.019-0.329-0.037-0.657-0.056-0.987c1.262-0.212,2.232-0.673,2.919-1.395
				C99.35,131.694,99.763,130.664,99.9,129.319z"/>
			<path fill="#FFFFFF" d="M114.888,142.624c-0.018,0.333-0.036,0.666-0.054,0.998c-2.572-0.125-5.146-0.195-7.718-0.209
				c0.002-0.333,0.004-0.666,0.006-0.999c0.321,0.001,0.641,0.004,0.962,0.007c0.396,0.004,0.686-0.061,0.87-0.198
				c0.186-0.135,0.28-0.322,0.284-0.558c0.038-1.984,0.075-3.968,0.111-5.951c0.009-0.479-0.111-0.833-0.361-1.059
				c-0.248-0.225-0.603-0.342-1.058-0.346c-0.22-0.003-0.44-0.004-0.66-0.005c0.002-0.315,0.004-0.63,0.007-0.945
				c1.668-0.065,3.338-0.108,5.01-0.129c-0.037,1.091-0.073,2.184-0.111,3.275c0.325-1.086,0.859-1.911,1.608-2.469
				c0.748-0.557,1.583-0.813,2.494-0.764c0.776,0.042,1.381,0.255,1.808,0.639c0.426,0.38,0.619,0.852,0.58,1.409
				c-0.033,0.478-0.216,0.856-0.543,1.133c-0.33,0.277-0.713,0.402-1.155,0.376c-0.394-0.023-0.724-0.171-0.993-0.442
				c-0.27-0.272-0.394-0.609-0.373-1.01c0.011-0.222,0.091-0.451,0.24-0.687c0.079-0.131,0.12-0.227,0.123-0.284
				c0.005-0.1-0.018-0.175-0.069-0.225c-0.052-0.048-0.136-0.077-0.252-0.082c-0.298-0.015-0.633,0.12-1.003,0.404
				c-0.567,0.441-1.055,1.146-1.462,2.116c-0.407,0.971-0.625,1.957-0.662,2.96c-0.027,0.722-0.055,1.446-0.083,2.168
				c-0.01,0.251,0.059,0.445,0.204,0.583c0.145,0.137,0.353,0.211,0.621,0.222C113.804,142.575,114.346,142.598,114.888,142.624z"/>
			<path fill="#FFFFFF" d="M120.813,133.923c1.741,0.066,3.484,0.157,5.229,0.271c-0.309,2.831-0.627,5.661-0.953,8.491
				c-0.027,0.228,0.034,0.413,0.183,0.554c0.147,0.142,0.387,0.231,0.72,0.268c0.25,0.028,0.499,0.056,0.749,0.084
				c-0.042,0.331-0.084,0.662-0.126,0.992c-2.211-0.253-4.422-0.466-6.633-0.637c0.028-0.332,0.056-0.664,0.085-0.997
				c0.246,0.019,0.49,0.039,0.736,0.059c0.396,0.032,0.682-0.025,0.862-0.175c0.177-0.15,0.286-0.429,0.326-0.834
				c0.185-1.934,0.367-3.866,0.545-5.8c0.034-0.363-0.062-0.656-0.29-0.877c-0.226-0.221-0.556-0.35-0.987-0.383
				c-0.174-0.015-0.349-0.028-0.522-0.041C120.761,134.572,120.788,134.248,120.813,133.923z M124.587,128.424
				c0.576,0.055,1.055,0.273,1.433,0.653c0.377,0.381,0.539,0.813,0.486,1.298c-0.051,0.485-0.3,0.874-0.743,1.171
				c-0.441,0.296-0.944,0.418-1.51,0.364c-0.575-0.054-1.048-0.269-1.424-0.647c-0.376-0.376-0.546-0.805-0.505-1.282
				c0.041-0.486,0.28-0.88,0.721-1.185C123.487,128.494,124.001,128.369,124.587,128.424z"/>
			<path fill="#FFFFFF" d="M130.095,134.922c1.602,0.115,3.206,0.251,4.812,0.408c0.089,0.673,0.097,1.332,0.025,1.975
				c0.598-0.594,1.314-1.016,2.15-1.259c0.836-0.242,1.73-0.282,2.677-0.114c1.516,0.268,2.657,0.96,3.394,2.048
				c0.739,1.091,0.915,2.467,0.541,4.121c-0.26,1.151-0.701,2.08-1.312,2.794c-0.611,0.712-1.341,1.199-2.188,1.46
				c-0.849,0.262-1.775,0.302-2.787,0.124c-0.808-0.142-1.494-0.428-2.064-0.859c-0.57-0.431-1.063-1.053-1.488-1.867
				c-0.202,1.185-0.406,2.37-0.613,3.554c-0.081,0.468-0.095,0.772-0.041,0.915c0.054,0.143,0.182,0.265,0.381,0.364
				c0.201,0.102,0.616,0.206,1.247,0.316c-0.064,0.339-0.127,0.678-0.192,1.016c-2.162-0.355-4.326-0.672-6.49-0.946
				c0.05-0.341,0.099-0.682,0.148-1.022c0.116,0.014,0.231,0.029,0.348,0.044c0.408,0.053,0.687,0.055,0.836,0.007
				c0.149-0.049,0.275-0.151,0.377-0.303c0.071-0.105,0.143-0.389,0.214-0.851c0.48-3.141,0.949-6.283,1.402-9.426
				c0.067-0.461,0.069-0.773,0.008-0.936c-0.06-0.164-0.172-0.292-0.333-0.382c-0.161-0.089-0.551-0.186-1.171-0.286
				C130.016,135.519,130.056,135.221,130.095,134.922z M137.925,137.132c-0.805-0.136-1.548,0.082-2.221,0.653
				c-0.673,0.57-1.108,1.494-1.32,2.763c-0.209,1.256-0.084,2.26,0.37,3.017c0.453,0.756,1.037,1.194,1.766,1.318
				c0.712,0.121,1.343-0.065,1.895-0.557c0.724-0.653,1.222-1.614,1.479-2.892c0.236-1.172,0.184-2.145-0.161-2.92
				C139.386,137.74,138.78,137.276,137.925,137.132z"/>
			<path fill="#FFFFFF" d="M155.223,140.037c0.351-0.202,0.704-0.402,1.058-0.603c0.256,0.068,0.512,0.137,0.769,0.206
				c-0.242,1.127-0.488,2.253-0.74,3.378c-0.333-0.09-0.667-0.18-0.999-0.269c-0.266-1.02-0.67-1.793-1.208-2.315
				c-0.534-0.521-1.262-0.896-2.171-1.118c-0.784-0.191-1.414-0.207-1.885-0.05s-0.753,0.427-0.851,0.811
				c-0.094,0.377-0.011,0.701,0.252,0.969c0.26,0.275,1.059,0.693,2.388,1.274c1.205,0.528,1.989,0.928,2.364,1.182
				c0.715,0.477,1.212,1.045,1.49,1.696c0.279,0.651,0.304,1.332,0.081,2.04c-0.283,0.895-0.939,1.531-1.953,1.918
				c-1.014,0.388-2.178,0.41-3.511,0.075c-0.642-0.161-1.204-0.372-1.688-0.632c-0.485-0.262-0.964-0.629-1.443-1.1
				c-0.359,0.227-0.717,0.455-1.072,0.684c-0.298-0.067-0.597-0.134-0.895-0.2c0.241-1.251,0.477-2.502,0.707-3.754
				c0.333,0.073,0.667,0.147,1.001,0.223c0.383,2.062,1.563,3.32,3.597,3.828c0.836,0.21,1.517,0.234,2.045,0.065
				c0.528-0.166,0.853-0.446,0.973-0.84c0.109-0.36,0.052-0.67-0.173-0.93s-0.911-0.658-2.065-1.177
				c-1.246-0.556-2.088-0.964-2.522-1.243c-0.745-0.463-1.264-0.979-1.559-1.557s-0.362-1.208-0.197-1.892
				c0.235-0.977,0.81-1.694,1.739-2.143c0.928-0.449,2.054-0.519,3.364-0.2c0.639,0.155,1.196,0.36,1.669,0.614
				C154.262,139.231,154.741,139.584,155.223,140.037z"/>
		</g>
	</g>
</g>
</svg>
