<?xml version="1.0" encoding="utf-8"?>
<!-- Generator: Adobe Illustrator 16.0.4, SVG Export Plug-In . SVG Version: 6.00 Build 0)  -->
<!DOCTYPE svg PUBLIC "-//W3C//DTD SVG 1.1//EN" "http://www.w3.org/Graphics/SVG/1.1/DTD/svg11.dtd">
<svg version="1.1" id="Livello_1" xmlns="http://www.w3.org/2000/svg" xmlns:xlink="http://www.w3.org/1999/xlink" x="0px" y="0px"
	 width="210px" height="200px" viewBox="0 0 210 200" enable-background="new 0 0 210 200" xml:space="preserve">
<g>
	<circle fill="#EF7C0E" cx="106" cy="101" r="84"/>
	<circle fill="#EF7C0E" stroke="#FFFFFF" stroke-width="5" stroke-miterlimit="10" cx="106" cy="101" r="75.216"/>
	<g>
		<path fill="#FFFFFF" d="M75.051,83.001c-1.771-3.026-3.877-3.685-7.262-4.557c-3.381-0.87-6.793-1-9.758-1
			c-2.964,0-6.375,0.13-9.758,1c-3.381,0.872-5.515,1.531-7.285,4.557c-1.771,3.027-3.097,18.429-3.097,19.224
			c0,0.799,0,17.393,0,17.393h2.111c0,1.057,0,4.655,0,4.693c0,1.49,2.207,2.7,3.696,2.7c1.49,0,3.696-1.209,3.696-2.7
			c0-0.038,0-3.637,0-4.693h21.63c0,1.057-0.003,4.176,0,4.215c0.342,2.699,2.871,2.938,4.361,2.938c1.488,0,2.523-0.97,2.523-2.46
			c0-0.038,0-3.637,0-4.693h2.224c0,0,0.005-15.729,0.005-16.6C78.139,102.149,76.823,86.028,75.051,83.001z M50.565,79.488h15.837
			v4.226H50.565V79.488z M45.462,116.574c-2.65,0-4.797-2.145-4.797-4.79c0-2.646,2.146-4.792,4.797-4.792
			c2.645,0,4.793,2.146,4.793,4.792C50.255,114.429,48.106,116.574,45.462,116.574z M41.046,101.666c0,0,1.109-12.804,2.3-13.994
			c1.187-1.189,28.184-1.049,29.369,0.141c1.192,1.187,2.297,13.854,2.297,13.854H41.046z M70.059,116.574
			c-2.646,0-4.797-2.145-4.797-4.79c0-2.646,2.15-4.792,4.797-4.792c2.643,0,4.792,2.146,4.792,4.792
			C74.851,114.429,72.701,116.574,70.059,116.574z"/>
		<g>
			<path fill="#FFFFFF" d="M103.936,42.267c1.101,0,1.992-0.889,1.992-1.988c0-1.099-0.892-1.989-1.992-1.989
				c-1.094,0-1.986,0.89-1.986,1.989C101.949,41.378,102.842,42.267,103.936,42.267z"/>
			<circle fill="#FFFFFF" cx="109.242" cy="40.278" r="1.989"/>
			<path fill="#FFFFFF" d="M118.431,86.286c3.509-1.088,6.054-4.359,6.054-8.228V51.546c0-4.756-3.859-8.614-8.617-8.614H97.311
				c-4.756,0-8.616,3.857-8.616,8.614v26.512c0,3.869,2.549,7.14,6.058,8.228l-8.709,14.312h5.966l5.966-9.95h17.23l5.969,9.95h5.96
				L118.431,86.286z M115.867,82.696c-1.829,0-3.31-1.484-3.31-3.312c0-1.826,1.48-3.312,3.31-3.312
				c1.832,0,3.315,1.485,3.315,3.312C119.183,81.212,117.699,82.696,115.867,82.696z M101.29,45.579c0-0.728,0.59-1.323,1.323-1.323
				h7.952c0.734,0,1.328,0.595,1.328,1.323v2.651c0,0.736-0.594,1.327-1.328,1.327h-7.952c-0.733,0-1.323-0.591-1.323-1.327V45.579z
				 M93.333,54.86c0-2.195,1.78-3.976,3.978-3.976h18.557c2.199,0,3.979,1.78,3.979,3.976v5.306c0,2.193-1.78,3.974-3.979,3.974
				H97.311c-2.197,0-3.978-1.781-3.978-3.974V54.86z M97.311,76.072c1.835,0,3.315,1.485,3.315,3.312
				c0,1.829-1.48,3.312-3.315,3.312c-1.828,0-3.31-1.484-3.31-3.312C94.001,77.558,95.482,76.072,97.311,76.072z"/>
		</g>
		<path fill="#FFFFFF" d="M173.222,89.904h-1.773c0-1.472,0-2.728,0-3.547c0-4.574-0.885-7.089-5.314-7.089h-24.82
			c-5.316,0-7.092,1.519-7.092,6.205c0,0.953,0,2.549,0,4.431h-1.771c-0.488,0-0.885,0.395-0.885,0.886v7.091
			c0,0.487,0.396,0.885,0.885,0.885h1.771c0,2.596,0,4.86,0,6.066c0,5.115,0,9.889,0,9.889c0,1.327,0.492,2.173,1.295,2.708
			l-0.406-0.048v2.656c0,0.979,0.795,1.775,1.773,1.775h3.545c0.979,0,1.773-0.796,1.773-1.775v-1.771h21.271v1.771
			c0,0.979,0.793,1.775,1.771,1.775h3.545c0.979,0,1.773-0.796,1.773-1.775v-2.656l-0.408,0.048
			c0.805-0.536,1.293-1.382,1.293-2.708c0,0,0-3.924,0-9.889c0-1.263,0-3.524,0-6.066h1.773c0.492,0,0.887-0.398,0.887-0.885V90.79
			C174.108,90.299,173.714,89.904,173.222,89.904z M143.087,82.813c0-0.491,0.396-0.886,0.885-0.886h18.615
			c0.49,0,0.887,0.395,0.887,0.886v1.773c0,0.488-0.396,0.887-0.887,0.887h-18.615c-0.488,0-0.885-0.398-0.885-0.887V82.813z
			 M140.87,114.722c-1.711,0-3.102-1.392-3.102-3.104c0-1.713,1.391-3.105,3.102-3.105c1.715,0,3.102,1.392,3.102,3.105
			C143.972,113.33,142.585,114.722,140.87,114.722z M164.804,114.722c-1.715,0-3.104-1.392-3.104-3.104
			c0-1.713,1.389-3.105,3.104-3.105s3.102,1.392,3.102,3.105C167.905,113.33,166.519,114.722,164.804,114.722z M167.905,101.425
			c0,1.772-1.732,2.589-2.66,2.589l-24.816,0.07c-1.771,0-2.66-0.887-2.66-2.659c0-2.658,0-7.851,0-10.635
			c0-1.773,0.889-2.659,2.66-2.659c7.977,0,13.93,0,24.816,0c1.773,0,2.66,0.886,2.66,2.659
			C167.905,92.561,167.905,100.518,167.905,101.425z"/>
	</g>
	<g>
		<g>
			<path fill="#F7A52D" stroke="#FFFFFF" stroke-width="2" stroke-miterlimit="10" d="M195.768,170.562
				c-2.533-5.82-5.349-11.609-8.445-17.346c6.004-2.539,12.218-4.851,18.63-6.916c-63.973-26.856-136.118-26.686-199.987,0.509
				c0.04,0.094,0.08,0.188,0.12,0.282c6.617,2.096,13.025,4.457,19.212,7.058c-2.899,5.432-5.547,10.909-7.942,16.414
				C74.41,146.611,138.71,146.61,195.768,170.562L195.768,170.562L195.768,170.562z"/>
		</g>
	</g>
	<g>
		<g>
			<path fill="#FFFFFF" d="M51.92,149.816c1.821-0.485,3.646-0.945,5.468-1.381c0.516-0.123,0.874-0.365,1.077-0.728
				c0.204-0.364,0.28-1.064,0.229-2.103c0.397-0.091,0.794-0.181,1.19-0.269c0.29,1.706,0.591,3.409,0.898,5.113
				c-3.536,0.799-7.074,1.691-10.606,2.68c-0.096-0.297-0.19-0.594-0.285-0.891c0.315-0.963,1.06-2.511,2.302-4.63
				c1.099-1.878,1.804-3.236,2.062-4.084c0.358-1.153,0.413-2.241,0.148-3.264c-0.227-0.883-0.635-1.497-1.227-1.839
				c-0.59-0.343-1.3-0.412-2.123-0.204c-0.83,0.211-1.475,0.578-1.922,1.093c-0.449,0.516-0.614,0.972-0.501,1.365
				c0.046,0.16,0.143,0.267,0.294,0.323c0.152,0.064,0.474,0.081,0.967,0.056c1.068-0.041,1.694,0.296,1.89,1.003
				c0.132,0.478,0.051,0.919-0.244,1.326s-0.726,0.685-1.295,0.835c-0.597,0.158-1.152,0.08-1.674-0.238
				c-0.518-0.315-0.896-0.859-1.127-1.631c-0.322-1.074-0.163-2.092,0.483-3.048c0.793-1.173,2.108-1.999,3.925-2.451
				c1.622-0.403,3.025-0.339,4.195,0.178c1.17,0.517,1.878,1.331,2.138,2.426c0.14,0.585,0.149,1.149,0.028,1.691
				c-0.159,0.735-0.438,1.419-0.838,2.057c-0.397,0.64-1.124,1.498-2.159,2.588c-1.125,1.17-1.867,2.01-2.262,2.505
				C52.562,148.791,52.218,149.299,51.92,149.816z"/>
			<path fill="#FFFFFF" d="M66.537,133.696c1.079-0.196,2.105-0.095,3.07,0.299c0.966,0.393,1.84,1.16,2.62,2.296
				c0.781,1.135,1.296,2.519,1.562,4.146c0.27,1.642,0.226,3.105-0.113,4.394c-0.341,1.289-0.879,2.272-1.627,2.959
				c-0.747,0.686-1.619,1.119-2.631,1.303c-1.514,0.277-2.888-0.08-4.146-1.08c-1.572-1.237-2.655-3.021-3.191-5.38
				c-0.378-1.666-0.417-3.158-0.108-4.474c0.307-1.315,0.86-2.338,1.652-3.062C64.417,134.374,65.392,133.903,66.537,133.696z
				 M70.165,141.431c-0.564-3.09-1.161-5.078-1.819-5.96c-0.479-0.644-1.037-0.909-1.671-0.794c-0.762,0.138-1.23,0.748-1.392,1.821
				c-0.162,1.074,0.046,3.049,0.643,5.923c0.498,2.403,1.106,4.055,1.8,4.961c0.434,0.561,0.931,0.789,1.491,0.687
				c0.367-0.067,0.671-0.268,0.918-0.602c0.245-0.335,0.374-0.979,0.391-1.927C70.548,144.254,70.432,142.884,70.165,141.431z"/>
			<path fill="#FFFFFF" d="M81.384,131.509c1.077-0.123,2.084,0.046,3.011,0.504c0.926,0.458,1.737,1.281,2.432,2.467
				c0.692,1.185,1.104,2.6,1.253,4.241c0.149,1.656,0.004,3.112-0.425,4.374c-0.43,1.262-1.036,2.207-1.823,2.841
				c-0.786,0.634-1.681,1.006-2.691,1.122c-1.515,0.173-2.844-0.275-4.011-1.357c-1.46-1.34-2.394-3.192-2.754-5.581
				c-0.254-1.687-0.188-3.177,0.207-4.468c0.395-1.292,1.009-2.274,1.839-2.943C79.248,132.042,80.242,131.638,81.384,131.509z
				 M84.43,139.468c-0.34-3.119-0.793-5.143-1.383-6.067c-0.426-0.674-0.958-0.977-1.594-0.905c-0.76,0.086-1.262,0.662-1.495,1.723
				c-0.235,1.06-0.162,3.044,0.219,5.95c0.319,2.429,0.799,4.118,1.417,5.069c0.387,0.588,0.861,0.85,1.423,0.786
				c0.366-0.042,0.683-0.222,0.948-0.539c0.268-0.317,0.44-0.949,0.525-1.895C84.607,142.308,84.589,140.935,84.43,139.468z"/>
			<path fill="#FFFFFF" d="M108.45,131.226c0.372,0.003,0.745,0.008,1.116,0.013c-0.019,1.378-0.039,2.757-0.06,4.136
				c1.268,0.017,2.533,0.047,3.8,0.087c-0.013,0.387-0.025,0.773-0.038,1.159c-1.26-0.04-2.521-0.068-3.78-0.087
				c-0.03,2.13-0.063,4.261-0.095,6.391c-0.007,0.423,0.105,0.751,0.339,0.988c0.232,0.236,0.541,0.358,0.927,0.366
				c1.102,0.022,1.71-0.894,1.835-2.759c0.354,0.01,0.709,0.021,1.062,0.033c-0.062,0.994-0.263,1.788-0.606,2.382
				c-0.343,0.595-0.818,1.048-1.423,1.362c-0.605,0.314-1.28,0.464-2.026,0.454c-0.653-0.01-1.217-0.137-1.694-0.384
				c-0.479-0.246-0.86-0.611-1.146-1.094c-0.284-0.485-0.431-1.009-0.432-1.574c-0.001-2.062-0.003-4.125-0.005-6.187
				c-0.677,0-1.353,0.005-2.03,0.011c-0.002-0.329-0.008-0.658-0.011-0.988c1.247-0.156,2.219-0.575,2.925-1.268
				C107.813,133.577,108.261,132.563,108.45,131.226z"/>
			<path fill="#FFFFFF" d="M122.72,145.054c-0.027,0.331-0.058,0.664-0.085,0.996c-2.548-0.203-5.097-0.356-7.646-0.463
				c0.015-0.333,0.032-0.666,0.045-0.998c0.318,0.013,0.635,0.027,0.953,0.042c0.392,0.018,0.68-0.038,0.868-0.168
				c0.19-0.13,0.29-0.312,0.304-0.549c0.111-1.981,0.22-3.962,0.328-5.943c0.025-0.479-0.08-0.836-0.316-1.07
				c-0.236-0.233-0.581-0.362-1.03-0.382c-0.215-0.01-0.433-0.02-0.648-0.028c0.015-0.315,0.028-0.63,0.042-0.944
				c1.643-0.006,3.288,0.007,4.935,0.039c-0.073,1.089-0.147,2.179-0.222,3.269c0.357-1.075,0.913-1.882,1.668-2.417
				c0.756-0.534,1.586-0.765,2.48-0.69c0.766,0.063,1.352,0.294,1.763,0.688c0.409,0.392,0.583,0.869,0.529,1.425
				c-0.048,0.478-0.24,0.85-0.57,1.118c-0.335,0.268-0.718,0.382-1.152,0.343c-0.389-0.033-0.711-0.19-0.966-0.47
				c-0.259-0.28-0.37-0.619-0.335-1.02c0.019-0.22,0.104-0.448,0.258-0.679c0.081-0.129,0.125-0.223,0.13-0.28
				c0.009-0.101-0.011-0.176-0.061-0.226s-0.13-0.081-0.245-0.09c-0.293-0.024-0.627,0.101-1.001,0.374
				c-0.573,0.423-1.078,1.114-1.512,2.071c-0.434,0.957-0.684,1.937-0.756,2.937c-0.05,0.722-0.103,1.443-0.156,2.165
				c-0.019,0.25,0.042,0.447,0.182,0.589s0.343,0.223,0.608,0.242C121.647,144.97,122.184,145.01,122.72,145.054z"/>
			<path fill="#FFFFFF" d="M128.844,136.519c1.714,0.11,3.431,0.24,5.147,0.392c-0.377,2.823-0.763,5.646-1.156,8.468
				c-0.032,0.227,0.023,0.413,0.167,0.557c0.145,0.146,0.379,0.239,0.708,0.284c0.247,0.032,0.494,0.065,0.741,0.099
				c-0.05,0.329-0.1,0.66-0.149,0.989c-2.19-0.299-4.381-0.563-6.57-0.792c0.038-0.332,0.076-0.662,0.113-0.994
				c0.242,0.025,0.486,0.05,0.729,0.077c0.393,0.042,0.678-0.008,0.86-0.154c0.181-0.146,0.295-0.42,0.345-0.826
				c0.237-1.928,0.471-3.855,0.699-5.784c0.043-0.363-0.044-0.658-0.261-0.884c-0.218-0.226-0.539-0.362-0.963-0.408
				c-0.173-0.019-0.343-0.035-0.516-0.053C128.773,137.167,128.809,136.842,128.844,136.519z M132.708,131.113
				c0.565,0.066,1.03,0.295,1.391,0.683c0.362,0.389,0.51,0.824,0.446,1.308c-0.063,0.483-0.318,0.867-0.76,1.155
				c-0.443,0.287-0.943,0.396-1.498,0.331c-0.564-0.067-1.023-0.293-1.385-0.68c-0.359-0.386-0.514-0.817-0.46-1.294
				c0.053-0.485,0.299-0.873,0.74-1.166C131.626,131.157,132.134,131.044,132.708,131.113z"/>
			<path fill="#FFFFFF" d="M137.97,137.718c1.577,0.145,3.156,0.307,4.737,0.487c0.077,0.675,0.07,1.332-0.013,1.974
				c0.602-0.585,1.316-0.996,2.145-1.229c0.83-0.232,1.713-0.261,2.644-0.083c1.489,0.285,2.604,0.984,3.318,2.078
				c0.714,1.096,0.87,2.473,0.48,4.124c-0.27,1.149-0.719,2.076-1.332,2.783c-0.613,0.708-1.345,1.187-2.191,1.439
				c-0.845,0.254-1.766,0.283-2.769,0.092c-0.8-0.152-1.479-0.446-2.036-0.886c-0.559-0.44-1.04-1.069-1.444-1.889
				c-0.223,1.182-0.447,2.363-0.674,3.545c-0.09,0.466-0.107,0.771-0.057,0.914c0.051,0.144,0.176,0.268,0.374,0.371
				c0.197,0.104,0.609,0.214,1.236,0.334c-0.068,0.338-0.14,0.676-0.208,1.014c-2.15-0.388-4.301-0.74-6.453-1.057
				c0.058-0.34,0.114-0.679,0.171-1.02c0.114,0.017,0.229,0.034,0.344,0.051c0.405,0.061,0.684,0.068,0.833,0.023
				c0.149-0.046,0.276-0.145,0.382-0.295c0.072-0.105,0.149-0.386,0.229-0.846c0.542-3.133,1.071-6.265,1.589-9.399
				c0.074-0.46,0.082-0.772,0.027-0.936c-0.058-0.166-0.163-0.294-0.321-0.388c-0.156-0.092-0.539-0.196-1.149-0.308
				C137.879,138.313,137.924,138.016,137.97,137.718z M145.652,140.045c-0.793-0.146-1.529,0.062-2.204,0.625
				c-0.677,0.561-1.124,1.477-1.358,2.743c-0.23,1.253-0.125,2.259,0.312,3.021c0.435,0.764,1.008,1.21,1.73,1.342
				c0.706,0.13,1.332-0.046,1.888-0.534c0.728-0.645,1.235-1.6,1.509-2.875c0.25-1.169,0.214-2.142-0.115-2.92
				C147.085,140.671,146.495,140.2,145.652,140.045z"/>
			<path fill="#FFFFFF" d="M162.682,143.042c0.348-0.202,0.695-0.404,1.046-0.604c0.252,0.067,0.501,0.136,0.755,0.204
				c-0.243,1.126-0.49,2.252-0.745,3.377c-0.327-0.089-0.655-0.179-0.983-0.266c-0.259-1.02-0.653-1.792-1.179-2.312
				c-0.524-0.52-1.238-0.895-2.132-1.118c-0.771-0.191-1.393-0.208-1.858-0.054c-0.467,0.155-0.746,0.424-0.847,0.808
				c-0.098,0.377-0.017,0.7,0.24,0.969c0.256,0.276,1.039,0.697,2.348,1.279c1.187,0.53,1.958,0.929,2.327,1.182
				c0.705,0.477,1.193,1.042,1.466,1.692c0.274,0.65,0.298,1.331,0.076,2.039c-0.28,0.896-0.932,1.533-1.937,1.92
				c-1.006,0.389-2.161,0.41-3.482,0.073c-0.636-0.164-1.194-0.375-1.673-0.637c-0.479-0.264-0.955-0.632-1.425-1.106
				c-0.357,0.226-0.713,0.452-1.068,0.68c-0.296-0.07-0.591-0.138-0.887-0.206c0.25-1.249,0.494-2.498,0.733-3.749
				c0.331,0.075,0.659,0.152,0.989,0.228c0.363,2.063,1.525,3.327,3.54,3.84c0.828,0.211,1.503,0.236,2.026,0.067
				c0.524-0.166,0.849-0.445,0.967-0.839c0.11-0.359,0.054-0.67-0.169-0.93c-0.221-0.26-0.899-0.657-2.037-1.178
				c-1.23-0.557-2.063-0.969-2.488-1.25c-0.733-0.465-1.241-0.983-1.527-1.563c-0.288-0.578-0.347-1.208-0.178-1.892
				c0.243-0.975,0.817-1.689,1.739-2.134c0.918-0.445,2.03-0.512,3.316-0.192c0.628,0.156,1.175,0.362,1.641,0.614
				C161.74,142.238,162.208,142.59,162.682,143.042z"/>
		</g>
	</g>
</g>
</svg>
