<?xml version="1.0" encoding="utf-8"?>
<!-- Generator: Adobe Illustrator 16.0.4, SVG Export Plug-In . SVG Version: 6.00 Build 0)  -->
<!DOCTYPE svg PUBLIC "-//W3C//DTD SVG 1.1//EN" "http://www.w3.org/Graphics/SVG/1.1/DTD/svg11.dtd">
<svg version="1.1" id="Livello_1" xmlns="http://www.w3.org/2000/svg" xmlns:xlink="http://www.w3.org/1999/xlink" x="0px" y="0px"
	 width="210px" height="200px" viewBox="0 0 210 200" enable-background="new 0 0 210 200" xml:space="preserve">
<g>
	<circle fill="#EF7C0E" cx="105" cy="100" r="84"/>
	<circle fill="#EF7C0E" stroke="#FFFFFF" stroke-width="5" stroke-miterlimit="10" cx="105" cy="100" r="75.216"/>
	<g>
		<path fill="#FFFFFF" d="M74.051,82.001c-1.771-3.026-3.877-3.685-7.262-4.557c-3.381-0.87-6.793-1-9.758-1
			c-2.964,0-6.375,0.13-9.758,1c-3.381,0.872-5.515,1.531-7.285,4.557c-1.771,3.027-3.097,18.429-3.097,19.224
			c0,0.799,0,17.393,0,17.393h2.111c0,1.057,0,4.655,0,4.693c0,1.49,2.207,2.7,3.696,2.7c1.49,0,3.696-1.209,3.696-2.7
			c0-0.038,0-3.637,0-4.693h21.63c0,1.057-0.003,4.176,0,4.215c0.342,2.699,2.871,2.938,4.361,2.938c1.488,0,2.523-0.97,2.523-2.46
			c0-0.038,0-3.637,0-4.693h2.224c0,0,0.005-15.729,0.005-16.6C77.139,101.149,75.823,85.028,74.051,82.001z M49.565,78.488h15.837
			v4.226H49.565V78.488z M44.462,115.574c-2.65,0-4.797-2.145-4.797-4.79c0-2.646,2.146-4.792,4.797-4.792
			c2.645,0,4.793,2.146,4.793,4.792C49.255,113.429,47.106,115.574,44.462,115.574z M40.046,100.666c0,0,1.109-12.804,2.3-13.994
			c1.187-1.189,28.184-1.049,29.369,0.141c1.192,1.187,2.297,13.854,2.297,13.854H40.046z M69.059,115.574
			c-2.646,0-4.797-2.145-4.797-4.79c0-2.646,2.15-4.792,4.797-4.792c2.643,0,4.792,2.146,4.792,4.792
			C73.851,113.429,71.701,115.574,69.059,115.574z"/>
		<g>
			<path fill="#FFFFFF" d="M102.936,41.267c1.101,0,1.992-0.889,1.992-1.988c0-1.099-0.892-1.989-1.992-1.989
				c-1.094,0-1.986,0.89-1.986,1.989C100.949,40.378,101.842,41.267,102.936,41.267z"/>
			<circle fill="#FFFFFF" cx="108.242" cy="39.278" r="1.989"/>
			<path fill="#FFFFFF" d="M117.431,85.286c3.509-1.088,6.054-4.359,6.054-8.228V50.546c0-4.756-3.859-8.614-8.617-8.614H96.311
				c-4.756,0-8.616,3.857-8.616,8.614v26.512c0,3.869,2.549,7.14,6.058,8.228l-8.709,14.312h5.966l5.966-9.95h17.23l5.969,9.95h5.96
				L117.431,85.286z M114.867,81.696c-1.829,0-3.31-1.484-3.31-3.312c0-1.826,1.48-3.312,3.31-3.312
				c1.832,0,3.315,1.485,3.315,3.312C118.183,80.212,116.699,81.696,114.867,81.696z M100.29,44.579c0-0.728,0.59-1.323,1.323-1.323
				h7.952c0.734,0,1.328,0.595,1.328,1.323v2.651c0,0.736-0.594,1.327-1.328,1.327h-7.952c-0.733,0-1.323-0.591-1.323-1.327V44.579z
				 M92.333,53.86c0-2.195,1.78-3.976,3.978-3.976h18.557c2.199,0,3.979,1.78,3.979,3.976v5.306c0,2.193-1.78,3.974-3.979,3.974
				H96.311c-2.197,0-3.978-1.781-3.978-3.974V53.86z M96.311,75.072c1.835,0,3.315,1.485,3.315,3.312
				c0,1.829-1.48,3.312-3.315,3.312c-1.828,0-3.31-1.484-3.31-3.312C93.001,76.558,94.482,75.072,96.311,75.072z"/>
		</g>
		<path fill="#FFFFFF" d="M172.222,88.904h-1.773c0-1.472,0-2.728,0-3.547c0-4.574-0.885-7.089-5.314-7.089h-24.82
			c-5.316,0-7.092,1.519-7.092,6.205c0,0.953,0,2.549,0,4.431h-1.771c-0.488,0-0.885,0.395-0.885,0.886v7.091
			c0,0.487,0.396,0.885,0.885,0.885h1.771c0,2.596,0,4.86,0,6.066c0,5.115,0,9.889,0,9.889c0,1.327,0.492,2.173,1.295,2.708
			l-0.406-0.048v2.656c0,0.979,0.795,1.775,1.773,1.775h3.545c0.979,0,1.773-0.796,1.773-1.775v-1.771h21.271v1.771
			c0,0.979,0.793,1.775,1.771,1.775h3.545c0.979,0,1.773-0.796,1.773-1.775v-2.656l-0.408,0.048
			c0.805-0.536,1.293-1.382,1.293-2.708c0,0,0-3.924,0-9.889c0-1.263,0-3.524,0-6.066h1.773c0.492,0,0.887-0.398,0.887-0.885V89.79
			C173.108,89.299,172.714,88.904,172.222,88.904z M142.087,81.813c0-0.491,0.396-0.886,0.885-0.886h18.615
			c0.49,0,0.887,0.395,0.887,0.886v1.773c0,0.488-0.396,0.887-0.887,0.887h-18.615c-0.488,0-0.885-0.398-0.885-0.887V81.813z
			 M139.87,113.722c-1.711,0-3.102-1.392-3.102-3.104c0-1.713,1.391-3.105,3.102-3.105c1.715,0,3.102,1.392,3.102,3.105
			C142.972,112.33,141.585,113.722,139.87,113.722z M163.804,113.722c-1.715,0-3.104-1.392-3.104-3.104
			c0-1.713,1.389-3.105,3.104-3.105s3.102,1.392,3.102,3.105C166.905,112.33,165.519,113.722,163.804,113.722z M166.905,100.425
			c0,1.772-1.732,2.589-2.66,2.589l-24.816,0.07c-1.771,0-2.66-0.887-2.66-2.659c0-2.658,0-7.851,0-10.635
			c0-1.773,0.889-2.659,2.66-2.659c7.977,0,13.93,0,24.816,0c1.773,0,2.66,0.886,2.66,2.659
			C166.905,91.561,166.905,99.518,166.905,100.425z"/>
	</g>
	<g>
		<g>
			<path fill="#F7A52D" stroke="#FFFFFF" stroke-width="2" stroke-miterlimit="10" d="M194.768,169.562
				c-2.533-5.82-5.349-11.609-8.445-17.346c6.004-2.539,12.218-4.851,18.63-6.916c-63.973-26.856-136.118-26.686-199.987,0.509
				c0.04,0.094,0.08,0.188,0.12,0.282c6.617,2.096,13.025,4.457,19.212,7.058c-2.899,5.432-5.547,10.909-7.942,16.414
				C73.41,145.611,137.71,145.61,194.768,169.562L194.768,169.562L194.768,169.562z"/>
		</g>
	</g>
	<g>
		<g>
			<path fill="#FFFFFF" d="M52.933,135.031c2.018-0.206,3.782-0.483,5.31-0.852c1.183-0.286,2.129-0.618,2.844-1.007
				c0.288-0.16,0.457-0.246,0.51-0.258c0.119-0.027,0.197,0.03,0.229,0.17c0.107,0.462,0,1.005-0.313,1.63
				c-0.312,0.623-0.787,1.149-1.423,1.58c-0.635,0.431-1.487,0.774-2.561,1.042c-0.81,0.202-1.746,0.365-2.81,0.497
				c0.174,0.976,0.353,1.952,0.535,2.926c0.557-0.401,1.097-0.729,1.621-0.985c0.522-0.257,1.028-0.444,1.513-0.564
				c1.605-0.397,3.093-0.277,4.439,0.349c1.349,0.627,2.183,1.688,2.536,3.16c0.361,1.515,0.095,2.87-0.77,4.076
				c-0.869,1.207-2.187,2.021-3.987,2.474c-1.433,0.362-2.682,0.338-3.758-0.086c-1.08-0.425-1.778-1.097-2.075-2.032
				c-0.194-0.612-0.153-1.155,0.126-1.628c0.276-0.473,0.72-0.792,1.321-0.952c0.527-0.141,1.006-0.113,1.435,0.085
				c0.427,0.198,0.7,0.504,0.82,0.92c0.085,0.297,0.071,0.578-0.039,0.841c-0.113,0.263-0.39,0.567-0.826,0.914
				c-0.318,0.256-0.456,0.457-0.412,0.602c0.073,0.234,0.312,0.397,0.718,0.491c0.595,0.132,1.238,0.11,1.932-0.067
				c0.868-0.221,1.469-0.701,1.814-1.446c0.345-0.747,0.319-1.871-0.078-3.378c-0.336-1.271-0.831-2.138-1.501-2.597
				s-1.412-0.587-2.216-0.385c-0.373,0.094-0.759,0.255-1.155,0.485c-0.397,0.229-0.81,0.527-1.235,0.893
				c0.149,0.541,0.178,0.932,0.088,1.173c-0.092,0.241-0.279,0.398-0.557,0.474c-0.238,0.065-0.443,0.06-0.623-0.014
				c-0.178-0.075-0.293-0.198-0.346-0.37c-0.083-0.268,0.012-0.728,0.29-1.379C53.843,139.557,53.378,137.295,52.933,135.031z"/>
			<path fill="#FFFFFF" d="M72.327,130.802c1.099-0.185,2.14-0.074,3.112,0.332c0.976,0.405,1.848,1.183,2.618,2.33
				c0.771,1.146,1.266,2.539,1.504,4.169c0.241,1.645,0.172,3.108-0.194,4.392c-0.365,1.284-0.927,2.259-1.688,2.937
				c-0.762,0.676-1.647,1.098-2.667,1.271c-1.528,0.26-2.905-0.11-4.162-1.12c-1.571-1.25-2.647-3.042-3.162-5.405
				c-0.364-1.669-0.39-3.162-0.059-4.476c0.327-1.314,0.903-2.334,1.718-3.053C70.163,131.46,71.161,131,72.327,130.802z
				 M75.88,138.578c-0.521-3.096-1.093-5.092-1.746-5.981c-0.473-0.65-1.036-0.921-1.683-0.812c-0.775,0.131-1.261,0.736-1.44,1.809
				c-0.182,1.073,0.004,3.052,0.568,5.931c0.471,2.408,1.064,4.065,1.75,4.979c0.431,0.566,0.929,0.799,1.495,0.703
				c0.37-0.062,0.68-0.259,0.932-0.592c0.254-0.332,0.392-0.972,0.423-1.921C76.223,141.405,76.127,140.036,75.88,138.578z"/>
			<path fill="#FFFFFF" d="M99.973,129.217c0.38-0.011,0.757-0.02,1.137-0.029c0.032,1.378,0.063,2.756,0.095,4.135
				c1.287-0.03,2.573-0.045,3.86-0.048c0.002,0.387,0.002,0.773,0.003,1.16c-1.277,0.003-2.557,0.02-3.836,0.048
				c0.05,2.13,0.101,4.26,0.153,6.39c0.009,0.422,0.137,0.747,0.381,0.975c0.244,0.227,0.562,0.337,0.951,0.332
				c1.111-0.016,1.692-0.952,1.748-2.822c0.357-0.002,0.717-0.003,1.074-0.003c-0.025,0.995-0.2,1.795-0.522,2.401
				c-0.326,0.606-0.787,1.077-1.385,1.411c-0.6,0.336-1.272,0.511-2.025,0.528c-0.66,0.014-1.234-0.092-1.726-0.32
				c-0.493-0.228-0.894-0.578-1.201-1.05c-0.31-0.473-0.479-0.991-0.503-1.556c-0.088-2.061-0.176-4.122-0.261-6.183
				c-0.688,0.028-1.374,0.059-2.062,0.093c-0.017-0.329-0.034-0.658-0.052-0.986c1.262-0.208,2.232-0.665,2.924-1.384
				C99.414,131.59,99.831,130.561,99.973,129.217z"/>
			<path fill="#FFFFFF" d="M114.905,142.571c-0.019,0.333-0.039,0.666-0.057,0.998c-2.572-0.132-5.146-0.209-7.718-0.233
				c0.004-0.333,0.009-0.666,0.011-0.999c0.32,0.002,0.641,0.007,0.962,0.011c0.396,0.005,0.685-0.058,0.871-0.196
				c0.186-0.136,0.279-0.322,0.286-0.558c0.043-1.983,0.087-3.967,0.128-5.95c0.012-0.479-0.106-0.833-0.356-1.06
				c-0.247-0.227-0.6-0.345-1.056-0.351c-0.22-0.002-0.438-0.004-0.659-0.007c0.004-0.315,0.007-0.63,0.01-0.945
				c1.666-0.059,3.336-0.097,5.006-0.114c-0.039,1.091-0.079,2.183-0.12,3.274c0.329-1.084,0.864-1.908,1.613-2.463
				c0.75-0.555,1.586-0.809,2.494-0.758c0.777,0.044,1.381,0.259,1.807,0.643c0.426,0.382,0.614,0.854,0.574,1.412
				c-0.034,0.478-0.218,0.855-0.546,1.132c-0.331,0.274-0.714,0.399-1.155,0.372c-0.395-0.023-0.723-0.172-0.991-0.445
				c-0.269-0.272-0.393-0.609-0.369-1.01c0.012-0.221,0.093-0.451,0.241-0.686c0.08-0.132,0.122-0.228,0.124-0.285
				c0.006-0.101-0.018-0.175-0.067-0.224c-0.054-0.049-0.135-0.077-0.251-0.083c-0.299-0.016-0.635,0.117-1.005,0.401
				c-0.566,0.439-1.058,1.144-1.466,2.113c-0.41,0.969-0.631,1.955-0.671,2.957c-0.029,0.723-0.06,1.446-0.089,2.168
				c-0.012,0.25,0.058,0.445,0.202,0.583c0.144,0.138,0.352,0.212,0.62,0.224C113.82,142.518,114.361,142.543,114.905,142.571z"/>
			<path fill="#FFFFFF" d="M120.85,133.885c1.74,0.071,3.48,0.164,5.226,0.282c-0.316,2.83-0.641,5.66-0.973,8.489
				c-0.027,0.229,0.033,0.413,0.182,0.555c0.147,0.143,0.388,0.231,0.719,0.269c0.249,0.027,0.498,0.057,0.749,0.085
				c-0.043,0.33-0.086,0.661-0.129,0.992c-2.21-0.257-4.421-0.475-6.631-0.651c0.03-0.332,0.059-0.664,0.088-0.995
				c0.245,0.019,0.491,0.04,0.736,0.06c0.396,0.033,0.682-0.024,0.861-0.175c0.178-0.15,0.287-0.426,0.327-0.834
				c0.19-1.933,0.376-3.865,0.56-5.797c0.035-0.363-0.062-0.657-0.286-0.878c-0.226-0.22-0.556-0.351-0.986-0.386
				c-0.175-0.015-0.349-0.028-0.522-0.042C120.796,134.534,120.823,134.209,120.85,133.885z M124.633,128.394
				c0.575,0.056,1.053,0.275,1.43,0.655c0.378,0.382,0.537,0.815,0.484,1.3c-0.053,0.483-0.302,0.873-0.745,1.17
				c-0.441,0.296-0.945,0.415-1.509,0.36c-0.574-0.055-1.048-0.271-1.423-0.649c-0.374-0.378-0.544-0.806-0.502-1.284
				c0.042-0.485,0.282-0.88,0.725-1.183C123.534,128.461,124.048,128.338,124.633,128.394z"/>
			<path fill="#FFFFFF" d="M130.123,134.902c1.599,0.119,3.202,0.257,4.806,0.416c0.09,0.674,0.096,1.333,0.023,1.975
				c0.598-0.594,1.314-1.013,2.15-1.256c0.835-0.241,1.73-0.28,2.676-0.11c1.515,0.27,2.653,0.961,3.391,2.05
				c0.737,1.091,0.91,2.467,0.534,4.122c-0.26,1.15-0.702,2.08-1.313,2.793c-0.61,0.711-1.341,1.197-2.19,1.458
				c-0.849,0.262-1.775,0.3-2.786,0.121c-0.808-0.144-1.494-0.43-2.062-0.862c-0.569-0.432-1.063-1.055-1.486-1.869
				c-0.205,1.185-0.409,2.37-0.617,3.554c-0.083,0.468-0.098,0.772-0.043,0.915c0.053,0.143,0.181,0.266,0.381,0.365
				c0.199,0.102,0.615,0.206,1.246,0.317c-0.065,0.338-0.13,0.677-0.193,1.016c-2.163-0.359-4.327-0.678-6.491-0.957
				c0.05-0.34,0.101-0.681,0.151-1.021c0.114,0.015,0.23,0.03,0.347,0.045c0.408,0.054,0.687,0.056,0.837,0.008
				c0.148-0.048,0.274-0.149,0.377-0.302c0.071-0.105,0.144-0.388,0.216-0.85c0.486-3.14,0.96-6.282,1.419-9.424
				c0.066-0.462,0.07-0.774,0.01-0.937c-0.061-0.164-0.171-0.291-0.333-0.382c-0.159-0.089-0.549-0.188-1.167-0.289
				C130.042,135.499,130.083,135.201,130.123,134.902z M137.943,137.123c-0.805-0.137-1.548,0.081-2.22,0.651
				c-0.675,0.57-1.112,1.492-1.325,2.762c-0.211,1.255-0.088,2.259,0.364,3.017c0.45,0.758,1.036,1.196,1.765,1.321
				c0.712,0.122,1.341-0.063,1.894-0.555c0.725-0.652,1.225-1.614,1.483-2.89c0.237-1.171,0.186-2.145-0.157-2.92
				C139.403,137.733,138.797,137.268,137.943,137.123z"/>
			<path fill="#FFFFFF" d="M155.229,140.038c0.351-0.202,0.704-0.403,1.058-0.603c0.256,0.068,0.512,0.137,0.768,0.206
				c-0.241,1.126-0.489,2.253-0.741,3.379c-0.331-0.091-0.666-0.18-0.998-0.269c-0.264-1.021-0.67-1.794-1.206-2.314
				c-0.534-0.521-1.26-0.896-2.169-1.118c-0.782-0.191-1.413-0.208-1.884-0.051c-0.472,0.156-0.754,0.427-0.851,0.811
				c-0.097,0.377-0.012,0.7,0.251,0.969c0.26,0.276,1.059,0.693,2.386,1.275c1.203,0.529,1.987,0.929,2.362,1.183
				c0.714,0.478,1.212,1.045,1.49,1.696c0.277,0.652,0.303,1.332,0.079,2.041c-0.283,0.896-0.939,1.532-1.953,1.918
				c-1.013,0.388-2.179,0.41-3.51,0.075c-0.642-0.162-1.204-0.372-1.689-0.632c-0.482-0.263-0.963-0.629-1.441-1.102
				c-0.358,0.227-0.716,0.456-1.071,0.684c-0.299-0.068-0.597-0.134-0.896-0.201c0.243-1.25,0.48-2.502,0.712-3.754
				c0.332,0.074,0.665,0.147,1,0.223c0.382,2.062,1.562,3.321,3.595,3.831c0.834,0.209,1.516,0.234,2.044,0.065
				c0.528-0.166,0.854-0.445,0.974-0.84c0.109-0.359,0.052-0.67-0.173-0.93c-0.226-0.259-0.911-0.658-2.063-1.177
				c-1.246-0.556-2.088-0.964-2.522-1.244c-0.742-0.463-1.262-0.979-1.557-1.558c-0.293-0.577-0.36-1.208-0.194-1.892
				c0.236-0.978,0.81-1.695,1.74-2.143c0.928-0.448,2.053-0.518,3.361-0.199c0.639,0.155,1.195,0.361,1.668,0.613
				C154.268,139.232,154.746,139.584,155.229,140.038z"/>
		</g>
	</g>
</g>
</svg>
