<?xml version="1.0" encoding="utf-8"?>
<!-- Generator: Adobe Illustrator 16.0.4, SVG Export Plug-In . SVG Version: 6.00 Build 0)  -->
<!DOCTYPE svg PUBLIC "-//W3C//DTD SVG 1.1//EN" "http://www.w3.org/Graphics/SVG/1.1/DTD/svg11.dtd">
<svg version="1.1" id="Livello_1" xmlns="http://www.w3.org/2000/svg" xmlns:xlink="http://www.w3.org/1999/xlink" x="0px" y="0px"
	 width="210px" height="200px" viewBox="0 0 210 200" enable-background="new 0 0 210 200" xml:space="preserve">
<g>
	<circle fill="#EF7C0E" cx="105" cy="100" r="84"/>
	<circle fill="#EF7C0E" stroke="#FFFFFF" stroke-width="5" stroke-miterlimit="10" cx="105" cy="100" r="75.216"/>
	<g>
		<path fill="#FFFFFF" d="M74.051,82.001c-1.771-3.026-3.877-3.685-7.262-4.557c-3.381-0.87-6.793-1-9.758-1
			c-2.964,0-6.375,0.13-9.758,1c-3.381,0.872-5.515,1.531-7.285,4.557c-1.771,3.027-3.097,18.429-3.097,19.224
			c0,0.799,0,17.393,0,17.393h2.111c0,1.057,0,4.655,0,4.693c0,1.49,2.207,2.7,3.696,2.7c1.49,0,3.696-1.209,3.696-2.7
			c0-0.038,0-3.637,0-4.693h21.63c0,1.057-0.003,4.176,0,4.215c0.342,2.699,2.871,2.938,4.361,2.938c1.488,0,2.523-0.97,2.523-2.46
			c0-0.038,0-3.637,0-4.693h2.224c0,0,0.005-15.729,0.005-16.6C77.139,101.149,75.823,85.028,74.051,82.001z M49.565,78.488h15.837
			v4.226H49.565V78.488z M44.462,115.574c-2.65,0-4.797-2.145-4.797-4.79c0-2.646,2.146-4.792,4.797-4.792
			c2.645,0,4.793,2.146,4.793,4.792C49.255,113.429,47.106,115.574,44.462,115.574z M40.046,100.666c0,0,1.109-12.804,2.3-13.994
			c1.187-1.189,28.184-1.049,29.369,0.141c1.192,1.187,2.297,13.854,2.297,13.854H40.046z M69.059,115.574
			c-2.646,0-4.797-2.145-4.797-4.79c0-2.646,2.15-4.792,4.797-4.792c2.643,0,4.792,2.146,4.792,4.792
			C73.851,113.429,71.701,115.574,69.059,115.574z"/>
		<g>
			<path fill="#FFFFFF" d="M102.936,41.267c1.101,0,1.992-0.889,1.992-1.988c0-1.099-0.892-1.989-1.992-1.989
				c-1.094,0-1.986,0.89-1.986,1.989C100.949,40.378,101.842,41.267,102.936,41.267z"/>
			<circle fill="#FFFFFF" cx="108.242" cy="39.278" r="1.989"/>
			<path fill="#FFFFFF" d="M117.431,85.286c3.509-1.088,6.054-4.359,6.054-8.228V50.546c0-4.756-3.859-8.614-8.617-8.614H96.311
				c-4.756,0-8.616,3.857-8.616,8.614v26.512c0,3.869,2.549,7.14,6.058,8.228l-8.709,14.312h5.966l5.966-9.95h17.23l5.969,9.95h5.96
				L117.431,85.286z M114.867,81.696c-1.829,0-3.31-1.484-3.31-3.312c0-1.826,1.48-3.312,3.31-3.312
				c1.832,0,3.315,1.485,3.315,3.312C118.183,80.212,116.699,81.696,114.867,81.696z M100.29,44.579c0-0.728,0.59-1.323,1.323-1.323
				h7.952c0.734,0,1.328,0.595,1.328,1.323v2.651c0,0.736-0.594,1.327-1.328,1.327h-7.952c-0.733,0-1.323-0.591-1.323-1.327V44.579z
				 M92.333,53.86c0-2.195,1.78-3.976,3.978-3.976h18.557c2.199,0,3.979,1.78,3.979,3.976v5.306c0,2.193-1.78,3.974-3.979,3.974
				H96.311c-2.197,0-3.978-1.781-3.978-3.974V53.86z M96.311,75.072c1.835,0,3.315,1.485,3.315,3.312
				c0,1.829-1.48,3.312-3.315,3.312c-1.828,0-3.31-1.484-3.31-3.312C93.001,76.558,94.482,75.072,96.311,75.072z"/>
		</g>
		<path fill="#FFFFFF" d="M172.222,88.904h-1.773c0-1.472,0-2.728,0-3.547c0-4.574-0.885-7.089-5.314-7.089h-24.82
			c-5.316,0-7.092,1.519-7.092,6.205c0,0.953,0,2.549,0,4.431h-1.771c-0.488,0-0.885,0.395-0.885,0.886v7.091
			c0,0.487,0.396,0.885,0.885,0.885h1.771c0,2.596,0,4.86,0,6.066c0,5.115,0,9.889,0,9.889c0,1.327,0.492,2.173,1.295,2.708
			l-0.406-0.048v2.656c0,0.979,0.795,1.775,1.773,1.775h3.545c0.979,0,1.773-0.796,1.773-1.775v-1.771h21.271v1.771
			c0,0.979,0.793,1.775,1.771,1.775h3.545c0.979,0,1.773-0.796,1.773-1.775v-2.656l-0.408,0.048
			c0.805-0.536,1.293-1.382,1.293-2.708c0,0,0-3.924,0-9.889c0-1.263,0-3.524,0-6.066h1.773c0.492,0,0.887-0.398,0.887-0.885V89.79
			C173.108,89.299,172.714,88.904,172.222,88.904z M142.087,81.813c0-0.491,0.396-0.886,0.885-0.886h18.615
			c0.49,0,0.887,0.395,0.887,0.886v1.773c0,0.488-0.396,0.887-0.887,0.887h-18.615c-0.488,0-0.885-0.398-0.885-0.887V81.813z
			 M139.87,113.722c-1.711,0-3.102-1.392-3.102-3.104c0-1.713,1.391-3.105,3.102-3.105c1.715,0,3.102,1.392,3.102,3.105
			C142.972,112.33,141.585,113.722,139.87,113.722z M163.804,113.722c-1.715,0-3.104-1.392-3.104-3.104
			c0-1.713,1.389-3.105,3.104-3.105s3.102,1.392,3.102,3.105C166.905,112.33,165.519,113.722,163.804,113.722z M166.905,100.425
			c0,1.772-1.732,2.589-2.66,2.589l-24.816,0.07c-1.771,0-2.66-0.887-2.66-2.659c0-2.658,0-7.851,0-10.635
			c0-1.773,0.889-2.659,2.66-2.659c7.977,0,13.93,0,24.816,0c1.773,0,2.66,0.886,2.66,2.659
			C166.905,91.561,166.905,99.518,166.905,100.425z"/>
	</g>
	<g>
		<g>
			<path fill="#F7A52D" stroke="#FFFFFF" stroke-width="2" stroke-miterlimit="10" d="M194.768,169.562
				c-2.534-5.82-5.349-11.609-8.446-17.346c6.004-2.539,12.219-4.851,18.63-6.916c-63.973-26.855-136.118-26.686-199.987,0.509
				c0.04,0.094,0.08,0.188,0.12,0.282c6.617,2.096,13.026,4.457,19.211,7.058c-2.899,5.432-5.546,10.909-7.942,16.414
				C73.411,145.611,137.71,145.61,194.768,169.562L194.768,169.562L194.768,169.562z"/>
		</g>
	</g>
	<g>
		<g>
			<path fill="#FFFFFF" d="M57.373,146.814c1.842-0.486,3.685-0.943,5.527-1.373c0.52-0.122,0.883-0.362,1.091-0.724
				c0.21-0.363,0.292-1.064,0.25-2.103c0.402-0.089,0.804-0.176,1.206-0.263c0.277,1.708,0.563,3.414,0.861,5.119
				c-3.569,0.776-7.137,1.662-10.701,2.658c-0.096-0.297-0.191-0.594-0.287-0.891c0.318-0.963,1.072-2.515,2.335-4.635
				c1.119-1.879,1.842-3.237,2.11-4.085c0.373-1.154,0.437-2.241,0.178-3.265c-0.224-0.884-0.63-1.499-1.229-1.843
				c-0.598-0.344-1.317-0.413-2.156-0.204c-0.847,0.211-1.502,0.579-1.962,1.097c-0.459,0.517-0.63,0.973-0.517,1.367
				c0.045,0.16,0.144,0.267,0.297,0.323c0.154,0.063,0.481,0.081,0.981,0.054c1.083-0.042,1.718,0.295,1.911,1.002
				c0.131,0.478,0.044,0.92-0.255,1.328c-0.302,0.407-0.739,0.685-1.319,0.837c-0.604,0.159-1.168,0.083-1.694-0.234
				c-0.525-0.315-0.907-0.858-1.137-1.63c-0.322-1.076-0.158-2.095,0.507-3.053c0.813-1.176,2.158-2.006,4.009-2.458
				c1.652-0.404,3.078-0.336,4.261,0.185c1.184,0.522,1.891,1.338,2.144,2.436c0.135,0.587,0.138,1.151,0.01,1.693
				c-0.169,0.733-0.459,1.418-0.868,2.055s-1.151,1.493-2.206,2.581c-1.145,1.169-1.901,2.008-2.301,2.504
				C58.023,145.788,57.675,146.296,57.373,146.814z"/>
			<path fill="#FFFFFF" d="M68.121,131.516c1.986-0.048,3.733-0.185,5.256-0.433c1.182-0.192,2.134-0.45,2.865-0.782
				c0.294-0.137,0.468-0.209,0.519-0.217c0.12-0.018,0.191,0.046,0.212,0.188c0.068,0.469-0.079,1.002-0.436,1.599
				c-0.356,0.598-0.864,1.084-1.521,1.464c-0.657,0.379-1.519,0.656-2.59,0.838c-0.809,0.137-1.736,0.227-2.786,0.274
				c0.091,0.985,0.186,1.971,0.283,2.956c0.576-0.355,1.132-0.64,1.665-0.853c0.533-0.215,1.042-0.362,1.526-0.443
				c1.604-0.271,3.05-0.036,4.321,0.694c1.27,0.73,2.002,1.851,2.224,3.345c0.23,1.537-0.145,2.866-1.099,4
				c-0.956,1.132-2.317,1.839-4.122,2.149c-1.435,0.248-2.653,0.124-3.671-0.383c-1.018-0.507-1.641-1.232-1.851-2.186
				c-0.138-0.625-0.052-1.161,0.262-1.611c0.311-0.449,0.771-0.73,1.371-0.843c0.528-0.099,0.994-0.032,1.396,0.198
				c0.4,0.231,0.642,0.557,0.725,0.979c0.058,0.303,0.021,0.581-0.111,0.835c-0.132,0.253-0.428,0.534-0.886,0.845
				c-0.333,0.229-0.484,0.418-0.454,0.566c0.05,0.239,0.271,0.42,0.657,0.546c0.572,0.179,1.204,0.207,1.898,0.085
				c0.869-0.152,1.498-0.583,1.901-1.297c0.402-0.716,0.473-1.838,0.21-3.369c-0.222-1.292-0.637-2.194-1.254-2.704
				c-0.619-0.509-1.333-0.696-2.137-0.557c-0.373,0.064-0.763,0.195-1.17,0.392s-0.835,0.461-1.282,0.792
				c0.102,0.55,0.097,0.941-0.012,1.174c-0.111,0.232-0.305,0.375-0.583,0.428c-0.237,0.045-0.439,0.023-0.607-0.063
				c-0.168-0.089-0.271-0.221-0.308-0.396c-0.058-0.274,0.073-0.724,0.399-1.35C68.646,136.093,68.375,133.805,68.121,131.516z"/>
			<path fill="#FFFFFF" d="M99.985,129.2c0.379-0.01,0.757-0.02,1.136-0.028c0.03,1.378,0.061,2.756,0.092,4.135
				c1.287-0.028,2.574-0.044,3.861-0.046c0.001,0.387,0.001,0.773,0.002,1.16c-1.279,0.002-2.559,0.018-3.837,0.046
				c0.048,2.13,0.099,4.26,0.148,6.39c0.01,0.423,0.137,0.747,0.381,0.976c0.244,0.229,0.561,0.338,0.95,0.332
				c1.111-0.016,1.693-0.951,1.75-2.821c0.359-0.001,0.717-0.002,1.075-0.001c-0.025,0.995-0.201,1.795-0.526,2.4
				c-0.325,0.606-0.786,1.076-1.384,1.411c-0.6,0.334-1.272,0.51-2.026,0.525c-0.659,0.014-1.233-0.092-1.725-0.321
				c-0.493-0.228-0.893-0.578-1.201-1.05c-0.309-0.474-0.478-0.991-0.501-1.557c-0.087-2.061-0.173-4.121-0.257-6.183
				c-0.688,0.027-1.374,0.058-2.061,0.092c-0.018-0.329-0.034-0.658-0.051-0.987c1.26-0.207,2.231-0.662,2.922-1.382
				C99.425,131.573,99.842,130.544,99.985,129.2z"/>
			<path fill="#FFFFFF" d="M114.907,142.562c-0.019,0.333-0.039,0.665-0.057,0.998c-2.572-0.134-5.144-0.212-7.716-0.236
				c0.003-0.333,0.007-0.666,0.01-0.999c0.32,0.003,0.641,0.007,0.961,0.012c0.396,0.005,0.686-0.059,0.871-0.195
				c0.186-0.136,0.281-0.322,0.287-0.559c0.045-1.983,0.089-3.966,0.133-5.949c0.011-0.48-0.107-0.833-0.355-1.061
				c-0.248-0.226-0.601-0.343-1.056-0.35c-0.22-0.003-0.439-0.005-0.659-0.008c0.003-0.315,0.006-0.629,0.01-0.945
				c1.667-0.058,3.335-0.095,5.006-0.11c-0.041,1.091-0.082,2.183-0.123,3.274c0.329-1.084,0.865-1.908,1.615-2.462
				c0.75-0.555,1.585-0.809,2.494-0.757c0.777,0.044,1.379,0.259,1.805,0.644c0.425,0.383,0.616,0.854,0.575,1.412
				c-0.035,0.478-0.219,0.854-0.546,1.131c-0.33,0.276-0.714,0.399-1.156,0.372c-0.394-0.024-0.723-0.171-0.99-0.445
				c-0.27-0.273-0.392-0.609-0.37-1.01c0.012-0.221,0.093-0.451,0.243-0.686c0.079-0.131,0.12-0.226,0.124-0.284
				c0.006-0.102-0.018-0.174-0.068-0.225c-0.051-0.049-0.136-0.077-0.25-0.083c-0.298-0.017-0.634,0.117-1.004,0.4
				c-0.568,0.439-1.058,1.144-1.468,2.111c-0.411,0.97-0.631,1.956-0.672,2.958c-0.03,0.723-0.061,1.446-0.091,2.167
				c-0.01,0.251,0.058,0.446,0.202,0.584c0.145,0.137,0.353,0.212,0.621,0.224C113.823,142.508,114.365,142.534,114.907,142.562z"/>
			<path fill="#FFFFFF" d="M120.856,133.879c1.739,0.071,3.48,0.165,5.224,0.284c-0.316,2.83-0.642,5.66-0.976,8.489
				c-0.027,0.228,0.034,0.412,0.182,0.554c0.146,0.143,0.386,0.232,0.719,0.27c0.249,0.028,0.499,0.056,0.747,0.086
				c-0.042,0.331-0.085,0.661-0.128,0.992c-2.21-0.258-4.419-0.477-6.63-0.654c0.029-0.332,0.059-0.664,0.088-0.996
				c0.246,0.02,0.491,0.04,0.736,0.061c0.396,0.034,0.682-0.024,0.862-0.174c0.178-0.149,0.288-0.427,0.328-0.833
				c0.191-1.932,0.378-3.864,0.562-5.798c0.034-0.363-0.061-0.656-0.287-0.877c-0.226-0.221-0.554-0.351-0.985-0.386
				c-0.174-0.015-0.348-0.029-0.523-0.043C120.802,134.528,120.83,134.203,120.856,133.879z M124.641,128.389
				c0.575,0.056,1.054,0.275,1.43,0.656c0.376,0.382,0.535,0.815,0.482,1.299c-0.052,0.484-0.302,0.873-0.745,1.169
				c-0.442,0.296-0.944,0.416-1.51,0.361c-0.574-0.056-1.046-0.272-1.421-0.65c-0.375-0.379-0.543-0.807-0.501-1.284
				c0.042-0.486,0.283-0.88,0.725-1.183C123.542,128.456,124.057,128.333,124.641,128.389z"/>
			<path fill="#FFFFFF" d="M130.127,134.899c1.6,0.119,3.202,0.258,4.807,0.417c0.088,0.674,0.095,1.332,0.021,1.975
				c0.599-0.593,1.315-1.014,2.15-1.255c0.837-0.242,1.729-0.28,2.675-0.111c1.515,0.271,2.653,0.962,3.39,2.051
				c0.737,1.09,0.91,2.467,0.534,4.122c-0.261,1.15-0.703,2.08-1.314,2.793c-0.611,0.711-1.343,1.197-2.191,1.458
				c-0.848,0.262-1.774,0.3-2.787,0.12c-0.807-0.144-1.493-0.43-2.062-0.862c-0.569-0.433-1.062-1.056-1.484-1.869
				c-0.205,1.184-0.41,2.369-0.62,3.553c-0.083,0.467-0.096,0.772-0.042,0.915c0.053,0.143,0.182,0.266,0.381,0.365
				c0.2,0.101,0.616,0.207,1.246,0.317c-0.064,0.338-0.128,0.678-0.193,1.016c-2.163-0.36-4.326-0.679-6.491-0.958
				c0.051-0.341,0.101-0.68,0.151-1.022c0.116,0.015,0.231,0.03,0.347,0.045c0.409,0.054,0.687,0.058,0.836,0.009
				c0.149-0.049,0.275-0.149,0.377-0.302c0.071-0.106,0.144-0.389,0.216-0.85c0.489-3.141,0.962-6.282,1.422-9.423
				c0.068-0.461,0.071-0.773,0.01-0.937c-0.06-0.164-0.17-0.292-0.331-0.382c-0.16-0.089-0.55-0.188-1.169-0.289
				C130.047,135.496,130.087,135.198,130.127,134.899z M137.947,137.122c-0.804-0.137-1.547,0.081-2.221,0.65
				c-0.674,0.57-1.112,1.491-1.325,2.761c-0.212,1.256-0.088,2.261,0.363,3.017c0.451,0.758,1.035,1.197,1.763,1.321
				c0.712,0.122,1.343-0.062,1.896-0.555c0.724-0.652,1.224-1.612,1.483-2.889c0.237-1.172,0.188-2.146-0.156-2.921
				C139.406,137.731,138.801,137.268,137.947,137.122z"/>
			<path fill="#FFFFFF" d="M155.229,140.038c0.351-0.202,0.704-0.403,1.058-0.603c0.256,0.067,0.511,0.136,0.767,0.205
				c-0.242,1.127-0.488,2.253-0.741,3.378c-0.333-0.09-0.666-0.18-0.999-0.269c-0.264-1.021-0.668-1.793-1.205-2.315
				c-0.534-0.521-1.26-0.896-2.168-1.118c-0.783-0.191-1.413-0.207-1.883-0.051c-0.472,0.156-0.755,0.427-0.852,0.811
				c-0.096,0.376-0.011,0.7,0.252,0.969c0.259,0.276,1.058,0.694,2.385,1.275c1.204,0.529,1.988,0.929,2.362,1.183
				c0.714,0.478,1.211,1.045,1.489,1.696c0.279,0.651,0.303,1.332,0.08,2.041c-0.283,0.895-0.94,1.531-1.953,1.918
				c-1.014,0.388-2.179,0.41-3.51,0.075c-0.643-0.162-1.205-0.372-1.689-0.632c-0.483-0.263-0.963-0.63-1.44-1.102
				c-0.359,0.227-0.717,0.456-1.073,0.684c-0.298-0.067-0.597-0.134-0.895-0.2c0.242-1.251,0.479-2.501,0.71-3.754
				c0.334,0.074,0.667,0.148,1,0.224c0.382,2.062,1.561,3.32,3.595,3.83c0.835,0.21,1.515,0.235,2.044,0.066
				c0.528-0.167,0.854-0.446,0.974-0.84c0.109-0.359,0.052-0.669-0.173-0.93c-0.226-0.26-0.911-0.658-2.064-1.177
				c-1.246-0.556-2.088-0.965-2.521-1.244c-0.744-0.464-1.263-0.979-1.557-1.558c-0.294-0.578-0.361-1.208-0.195-1.892
				c0.236-0.977,0.811-1.694,1.741-2.142c0.928-0.448,2.053-0.518,3.361-0.199c0.638,0.155,1.194,0.36,1.667,0.613
				C154.27,139.232,154.748,139.584,155.229,140.038z"/>
		</g>
	</g>
</g>
</svg>
