<?xml version="1.0" encoding="utf-8"?>
<!-- Generator: Adobe Illustrator 16.0.4, SVG Export Plug-In . SVG Version: 6.00 Build 0)  -->
<!DOCTYPE svg PUBLIC "-//W3C//DTD SVG 1.1//EN" "http://www.w3.org/Graphics/SVG/1.1/DTD/svg11.dtd">
<svg version="1.1" id="Livello_1" xmlns="http://www.w3.org/2000/svg" xmlns:xlink="http://www.w3.org/1999/xlink" x="0px" y="0px"
	 width="210px" height="200px" viewBox="0 0 210 200" enable-background="new 0 0 210 200" xml:space="preserve">
<g>
	<circle fill="#BC1818" cx="105" cy="100" r="84"/>
	<path fill="#BC1818" stroke="#FFFFFF" stroke-width="5" stroke-miterlimit="10" d="M180.215,100
		c0,41.541-33.674,75.217-75.217,75.217c-41.539,0-75.213-33.676-75.213-75.217c0-41.539,33.674-75.217,75.213-75.217
		C146.541,24.783,180.215,58.461,180.215,100z"/>
	<path fill="#E41815" stroke="#FFFFFF" stroke-width="2" stroke-miterlimit="10" d="M129.381,107.062
		c-4.205,0-8.01,1.712-10.768,4.451L83.4,91.958c0.209-1.027,0.324-2.073,0.324-3.158c0-1.084-0.115-2.13-0.324-3.159l35.23-19.556
		c2.74,2.74,6.545,4.452,10.75,4.452c8.408,0,15.219-6.811,15.219-15.219c0-8.409-6.811-15.219-15.219-15.219
		c-8.41,0-15.221,6.81-15.221,15.219c0,0.913,0.076,1.787,0.229,2.663L78.91,77.691c-2.738-2.549-6.391-4.109-10.406-4.109
		c-8.408,0-15.217,6.81-15.217,15.219c0,8.408,6.809,15.219,15.217,15.219c4.016,0,7.668-1.56,10.406-4.11l35.479,19.709
		c-0.152,0.856-0.229,1.75-0.229,2.663c0,8.409,6.811,15.219,15.221,15.219c8.408,0,15.219-6.81,15.219-15.219
		C144.6,113.874,137.789,107.062,129.381,107.062z M129.396,45.236c1.799,0,3.27,1.445,3.27,3.21c0,1.766-1.471,3.211-3.27,3.211
		c-1.797,0-3.268-1.445-3.268-3.211C126.129,46.681,127.6,45.236,129.396,45.236z M121.771,57.757c0-2.515,5.064-3.746,7.625-3.746
		s7.783,1.23,7.783,3.746v2.889h-15.408V57.757z M67.76,79.479c1.799,0,3.27,1.445,3.27,3.21c0,1.766-1.471,3.211-3.27,3.211
		c-1.797,0-3.268-1.445-3.268-3.211C64.492,80.923,65.963,79.479,67.76,79.479z M75.543,94.888H60.135v-2.889
		c0-2.515,5.066-3.746,7.625-3.746c2.561,0,7.783,1.23,7.783,3.746V94.888z M129.396,113.721c1.799,0,3.27,1.445,3.27,3.211
		c0,1.765-1.471,3.21-3.27,3.21c-1.797,0-3.268-1.445-3.268-3.21C126.129,115.166,127.6,113.721,129.396,113.721z M137.18,129.13
		h-15.408v-2.889c0-2.515,5.064-3.746,7.625-3.746s7.783,1.23,7.783,3.746V129.13z"/>
	<g>
		<g>
			<path fill="#D51116" stroke="#FFFFFF" stroke-width="2" stroke-miterlimit="10" d="M194.767,168.589
				c-2.533-5.82-5.349-11.609-8.445-17.346c6.004-2.539,12.218-4.851,18.63-6.916c-63.972-26.855-136.116-26.686-199.985,0.509
				c0.04,0.094,0.08,0.188,0.12,0.282c6.617,2.096,13.025,4.457,19.212,7.058c-2.899,5.432-5.547,10.909-7.942,16.414
				C73.411,144.638,137.71,144.637,194.767,168.589L194.767,168.589L194.767,168.589z"/>
		</g>
	</g>
	<g>
		<g>
			<path fill="#FFFFFF" d="M49.078,150.31c1.722-0.548,3.446-1.071,5.174-1.566c0.486-0.141,0.818-0.394,0.996-0.763
				c0.18-0.37,0.217-1.07,0.119-2.104c0.376-0.104,0.753-0.207,1.131-0.309c0.361,1.691,0.729,3.381,1.106,5.07
				c-3.354,0.913-6.694,1.922-10.022,3.034c-0.106-0.291-0.213-0.585-0.319-0.877c0.252-0.971,0.883-2.54,1.963-4.695
				c0.956-1.91,1.563-3.289,1.768-4.144c0.286-1.162,0.283-2.25-0.025-3.259c-0.266-0.871-0.69-1.47-1.279-1.789
				c-0.589-0.321-1.276-0.363-2.059-0.125c-0.791,0.241-1.39,0.63-1.794,1.161c-0.403,0.529-0.537,0.991-0.407,1.379
				c0.053,0.157,0.154,0.261,0.302,0.311c0.15,0.058,0.461,0.063,0.934,0.02c1.025-0.081,1.647,0.234,1.873,0.93
				c0.152,0.47,0.097,0.915-0.163,1.331c-0.262,0.417-0.661,0.708-1.202,0.88c-0.562,0.178-1.102,0.121-1.618-0.176
				c-0.516-0.294-0.91-0.824-1.176-1.583c-0.368-1.059-0.274-2.077,0.295-3.054c0.698-1.198,1.922-2.071,3.65-2.588
				c1.544-0.463,2.903-0.447,4.06,0.026c1.156,0.474,1.879,1.261,2.187,2.344c0.163,0.579,0.2,1.141,0.111,1.686
				c-0.117,0.739-0.352,1.429-0.703,2.08c-0.352,0.649-1.007,1.532-1.945,2.653c-1.021,1.207-1.69,2.069-2.042,2.577
				C49.641,149.265,49.337,149.782,49.078,150.31z"/>
			<path fill="#FFFFFF" d="M58.389,134.661c1.887-0.129,3.542-0.337,4.979-0.652c1.112-0.243,2.004-0.542,2.68-0.904
				c0.272-0.149,0.434-0.229,0.482-0.24c0.113-0.021,0.184,0.037,0.213,0.178c0.094,0.463-0.013,1.001-0.317,1.614
				c-0.302,0.612-0.755,1.119-1.358,1.526c-0.603,0.408-1.405,0.72-2.415,0.947c-0.762,0.172-1.64,0.299-2.636,0.39
				c0.147,0.979,0.297,1.957,0.449,2.935c0.527-0.378,1.039-0.684,1.533-0.92c0.495-0.236,0.971-0.404,1.426-0.506
				c1.511-0.339,2.903-0.166,4.157,0.504c1.255,0.671,2.02,1.757,2.32,3.237c0.309,1.524,0.028,2.868-0.814,4.039
				c-0.846,1.173-2.104,1.937-3.805,2.324c-1.354,0.309-2.522,0.234-3.52-0.229c-0.998-0.464-1.631-1.161-1.886-2.104
				c-0.168-0.617-0.116-1.156,0.155-1.616c0.271-0.459,0.691-0.759,1.257-0.896c0.497-0.119,0.943-0.074,1.341,0.14
				c0.395,0.211,0.644,0.529,0.746,0.947c0.073,0.301,0.054,0.577-0.057,0.837c-0.111,0.257-0.378,0.55-0.796,0.879
				c-0.304,0.242-0.437,0.438-0.398,0.583c0.062,0.236,0.28,0.409,0.656,0.517c0.555,0.155,1.158,0.157,1.812,0.006
				c0.82-0.188,1.396-0.644,1.738-1.374c0.342-0.731,0.344-1.854,0.004-3.37c-0.288-1.278-0.737-2.161-1.355-2.642
				c-0.619-0.48-1.312-0.637-2.067-0.464c-0.351,0.08-0.716,0.226-1.092,0.439c-0.374,0.215-0.767,0.494-1.172,0.844
				c0.129,0.544,0.147,0.933,0.059,1.17c-0.092,0.236-0.269,0.387-0.53,0.451c-0.223,0.056-0.416,0.041-0.581-0.039
				c-0.165-0.08-0.27-0.21-0.316-0.381c-0.07-0.271,0.026-0.723,0.3-1.361C59.171,139.202,58.773,136.933,58.389,134.661z"/>
			<path fill="#FFFFFF" d="M83.534,135.504c0.949-0.108,1.897-0.21,2.847-0.305c0.039,0.384,0.078,0.769,0.118,1.154
				c-0.943,0.094-1.887,0.195-2.829,0.304c0.279,2.369,0.563,4.737,0.85,7.106c0.033,0.277,0.112,0.463,0.239,0.557
				c0.125,0.094,0.334,0.125,0.628,0.092c0.619-0.068,1.24-0.134,1.86-0.196c0.035,0.332,0.069,0.663,0.105,0.994
				c-2.527,0.252-5.053,0.558-7.573,0.919c-0.05-0.33-0.1-0.659-0.15-0.988c0.364-0.052,0.729-0.103,1.092-0.153
				c0.332-0.044,0.551-0.132,0.664-0.263c0.112-0.13,0.149-0.328,0.112-0.589c-0.328-2.364-0.652-4.728-0.974-7.091
				c-0.632,0.083-1.264,0.171-1.896,0.259c-0.057-0.383-0.112-0.766-0.168-1.148c0.636-0.09,1.271-0.177,1.907-0.261
				c-0.018-0.134-0.035-0.269-0.054-0.403c-0.181-1.334-0.109-2.451,0.219-3.355c0.329-0.903,0.87-1.61,1.625-2.118
				c0.752-0.506,1.721-0.826,2.897-0.946c1.097-0.115,1.966,0.039,2.608,0.449c0.64,0.41,0.987,0.962,1.048,1.655
				c0.047,0.549-0.098,1.018-0.43,1.401c-0.333,0.386-0.75,0.602-1.254,0.65c-0.472,0.044-0.881-0.054-1.229-0.296
				c-0.35-0.241-0.547-0.565-0.589-0.975c-0.046-0.421,0.157-0.813,0.611-1.177c0.22-0.181,0.324-0.33,0.312-0.444
				c-0.009-0.1-0.079-0.176-0.207-0.228c-0.198-0.081-0.45-0.107-0.76-0.075c-0.407,0.042-0.771,0.191-1.093,0.451
				c-0.319,0.258-0.538,0.595-0.654,1.013c-0.167,0.616-0.209,1.257-0.132,1.918C83.369,134.109,83.451,134.807,83.534,135.504z"/>
			<path fill="#FFFFFF" d="M96.121,143.545c0.017,0.333,0.035,0.665,0.053,0.998c-2.448,0.125-4.896,0.299-7.341,0.523
				c-0.032-0.332-0.064-0.664-0.097-0.995c0.305-0.028,0.609-0.056,0.914-0.082c0.376-0.032,0.645-0.125,0.806-0.278
				c0.162-0.152,0.232-0.346,0.213-0.583c-0.168-1.978-0.334-3.954-0.498-5.932c-0.04-0.477-0.189-0.819-0.448-1.02
				c-0.258-0.203-0.604-0.284-1.037-0.246c-0.209,0.019-0.418,0.037-0.626,0.056c-0.029-0.314-0.059-0.628-0.089-0.941
				c1.576-0.219,3.154-0.419,4.734-0.599c0.075,1.09,0.148,2.18,0.224,3.269c0.197-1.111,0.621-1.984,1.273-2.608
				c0.651-0.627,1.416-0.963,2.28-1.002c0.738-0.034,1.329,0.119,1.77,0.458c0.441,0.337,0.67,0.788,0.689,1.346
				c0.016,0.479-0.118,0.873-0.398,1.181c-0.283,0.308-0.632,0.468-1.053,0.487c-0.374,0.016-0.701-0.1-0.982-0.344
				c-0.282-0.245-0.434-0.567-0.453-0.967c-0.012-0.222,0.04-0.458,0.157-0.707c0.061-0.139,0.091-0.237,0.089-0.294
				c-0.005-0.1-0.035-0.174-0.088-0.217c-0.054-0.044-0.137-0.063-0.246-0.057c-0.282,0.014-0.586,0.18-0.908,0.499
				c-0.491,0.494-0.882,1.243-1.169,2.246c-0.288,1.005-0.394,2.008-0.326,3.008c0.048,0.722,0.097,1.444,0.145,2.166
				c0.017,0.25,0.102,0.438,0.253,0.561c0.152,0.123,0.355,0.176,0.612,0.161C95.089,143.602,95.605,143.571,96.121,143.545z"/>
			<path fill="#FFFFFF" d="M100.825,134.309c1.646-0.106,3.295-0.192,4.944-0.257c-0.006,2.848-0.013,5.694-0.02,8.541
				c-0.001,0.229,0.077,0.406,0.231,0.532s0.388,0.19,0.705,0.192c0.237,0.001,0.475,0.005,0.712,0.007
				c-0.004,0.333-0.008,0.666-0.012,0.999c-2.104-0.023-4.21-0.011-6.315,0.039c-0.008-0.333-0.016-0.666-0.024-0.999
				c0.233-0.006,0.467-0.01,0.701-0.016c0.377-0.007,0.64-0.093,0.793-0.261c0.151-0.167,0.225-0.457,0.218-0.863
				c-0.028-1.94-0.057-3.88-0.085-5.821c-0.005-0.364-0.125-0.647-0.36-0.843s-0.559-0.29-0.968-0.283
				c-0.166,0.004-0.331,0.007-0.497,0.011C100.84,134.96,100.833,134.635,100.825,134.309z M103.835,128.46
				c0.546-0.003,1.019,0.165,1.409,0.505c0.392,0.341,0.584,0.753,0.583,1.241c-0.001,0.487-0.195,0.9-0.582,1.241
				c-0.386,0.339-0.847,0.511-1.383,0.515c-0.546,0.004-1.013-0.162-1.403-0.499c-0.392-0.338-0.593-0.746-0.602-1.226
				c-0.009-0.487,0.178-0.904,0.563-1.25C102.807,128.641,103.279,128.464,103.835,128.46z"/>
			<path fill="#FFFFFF" d="M120.723,139.985c-2.525-0.209-5.052-0.368-7.579-0.474c-0.037,1.411,0.22,2.463,0.765,3.158
				c0.545,0.695,1.263,1.067,2.164,1.121c0.645,0.039,1.269-0.093,1.873-0.396c0.606-0.303,1.249-0.88,1.94-1.73
				c0.265,0.183,0.528,0.366,0.792,0.55c-0.739,1.016-1.534,1.726-2.392,2.125c-0.855,0.403-1.869,0.565-3.051,0.501
				c-1.719-0.095-3.084-0.646-4.122-1.684c-1.036-1.037-1.552-2.332-1.515-3.9c0.037-1.567,0.622-2.868,1.783-3.884
				c1.161-1.017,2.583-1.489,4.235-1.399c1.145,0.062,2.115,0.336,2.904,0.814c0.79,0.479,1.377,1.143,1.762,1.988
				C120.667,137.622,120.811,138.693,120.723,139.985z M113.187,138.535c1.209,0.051,2.418,0.113,3.627,0.188
				c0.34,0.02,0.588-0.042,0.747-0.189c0.156-0.147,0.25-0.43,0.279-0.843c0.057-0.829-0.105-1.484-0.493-1.965
				c-0.386-0.479-0.905-0.738-1.552-0.775c-0.765-0.041-1.366,0.237-1.799,0.834C113.562,136.383,113.294,137.298,113.187,138.535z"
				/>
			<path fill="#FFFFFF" d="M136.769,146.049c-0.061,0.328-0.122,0.655-0.184,0.983c-2.096-0.367-4.195-0.697-6.295-0.99
				c0.048-0.329,0.098-0.659,0.146-0.988c0.222,0.03,0.443,0.062,0.665,0.093c0.353,0.051,0.627,0.005,0.827-0.141
				c0.2-0.144,0.325-0.38,0.377-0.705c0.226-1.438,0.45-2.875,0.673-4.312c0.114-0.736,0.019-1.328-0.291-1.776
				c-0.311-0.445-0.768-0.713-1.369-0.796c-0.818-0.113-1.524,0.078-2.111,0.571c-0.587,0.491-0.944,1.277-1.082,2.35
				c-0.143,1.112-0.286,2.224-0.431,3.335c-0.043,0.327,0.014,0.588,0.167,0.78c0.156,0.192,0.371,0.305,0.649,0.342
				c0.267,0.035,0.533,0.068,0.8,0.104c-0.047,0.332-0.093,0.66-0.14,0.99c-2.184-0.291-4.369-0.54-6.557-0.751
				c0.034-0.331,0.067-0.664,0.101-0.994c0.286,0.027,0.572,0.057,0.857,0.085c0.331,0.033,0.591-0.027,0.779-0.179
				c0.187-0.153,0.302-0.394,0.338-0.721c0.222-1.982,0.442-3.966,0.66-5.949c0.037-0.342-0.06-0.626-0.293-0.858
				c-0.234-0.228-0.561-0.365-0.978-0.406c-0.157-0.016-0.314-0.031-0.472-0.047c0.03-0.309,0.061-0.619,0.092-0.93
				c1.555,0.074,3.11,0.167,4.667,0.281c0.09,0.631,0.124,1.375,0.103,2.231c0.74-0.71,1.505-1.212,2.29-1.504
				c0.786-0.291,1.59-0.381,2.401-0.26c1.105,0.163,1.926,0.629,2.452,1.387c0.518,0.759,0.672,1.725,0.469,2.897
				c-0.265,1.532-0.531,3.066-0.8,4.597c-0.062,0.354-0.021,0.623,0.125,0.806c0.146,0.185,0.404,0.307,0.778,0.373
				C136.379,145.98,136.574,146.015,136.769,146.049z"/>
			<path fill="#FFFFFF" d="M148.266,133.095c1.9,0.354,3.802,0.738,5.702,1.15c-1.099,4.249-2.22,8.495-3.363,12.737
				c-0.175,0.652-0.247,1.103-0.214,1.351c0.031,0.25,0.13,0.447,0.296,0.599c0.166,0.15,0.523,0.296,1.075,0.439
				c-0.088,0.308-0.175,0.615-0.262,0.923c-1.435-0.332-2.869-0.647-4.305-0.943c0.057-0.657,0.113-1.314,0.167-1.974
				c-0.859,0.646-1.582,1.043-2.177,1.189c-0.597,0.145-1.287,0.131-2.081-0.038c-1.423-0.303-2.484-0.985-3.204-2.067
				c-0.719-1.081-0.938-2.396-0.637-3.952c0.334-1.717,1.088-2.988,2.294-3.801c1.205-0.813,2.569-1.061,4.068-0.742
				c0.805,0.172,1.486,0.485,2.037,0.938c0.554,0.45,0.999,1.086,1.334,1.902c0.364-1.483,0.727-2.969,1.087-4.452
				c0.129-0.528,0.164-0.923,0.106-1.179c-0.058-0.257-0.169-0.449-0.338-0.581c-0.169-0.129-0.549-0.265-1.138-0.397
				c-0.222-0.049-0.443-0.099-0.666-0.148C148.121,133.73,148.194,133.413,148.266,133.095z M146.394,139.553
				c-0.908-0.2-1.666,0.013-2.265,0.637c-0.492,0.504-0.872,1.394-1.147,2.663c-0.228,1.058-0.302,1.868-0.22,2.432
				c0.083,0.561,0.276,1.011,0.582,1.341c0.305,0.333,0.688,0.551,1.153,0.651c0.762,0.167,1.447,0.004,2.062-0.496
				c0.818-0.651,1.39-1.593,1.698-2.833c0.285-1.148,0.234-2.127-0.161-2.937C147.7,140.201,147.129,139.714,146.394,139.553z"/>
			<path fill="#FFFFFF" d="M163.789,143.67c0.345-0.188,0.691-0.376,1.038-0.562c0.238,0.076,0.477,0.153,0.715,0.231
				c-0.298,1.113-0.599,2.225-0.902,3.335c-0.31-0.102-0.62-0.202-0.931-0.302c-0.191-1.024-0.528-1.809-1.007-2.347
				c-0.475-0.538-1.141-0.937-1.989-1.192c-0.731-0.22-1.328-0.258-1.786-0.122c-0.456,0.138-0.741,0.396-0.856,0.775
				c-0.112,0.372-0.052,0.697,0.182,0.975c0.23,0.285,0.964,0.73,2.189,1.359c1.111,0.57,1.832,0.996,2.172,1.263
				c0.65,0.501,1.089,1.083,1.314,1.74c0.228,0.658,0.213,1.337-0.038,2.034c-0.316,0.88-0.973,1.491-1.954,1.843
				c-0.982,0.35-2.089,0.331-3.336-0.051c-0.601-0.185-1.124-0.415-1.569-0.693c-0.446-0.281-0.881-0.662-1.311-1.152
				c-0.353,0.212-0.705,0.426-1.057,0.641c-0.28-0.08-0.56-0.156-0.839-0.235c0.298-1.237,0.594-2.475,0.885-3.714
				c0.312,0.085,0.626,0.173,0.938,0.261c0.245,2.069,1.298,3.369,3.201,3.951c0.781,0.24,1.426,0.287,1.937,0.14
				c0.511-0.147,0.835-0.413,0.969-0.802c0.124-0.354,0.086-0.665-0.112-0.933c-0.199-0.266-0.827-0.685-1.892-1.247
				c-1.151-0.599-1.928-1.039-2.322-1.333c-0.682-0.49-1.145-1.023-1.39-1.612c-0.246-0.586-0.272-1.218-0.074-1.892
				c0.282-0.964,0.871-1.656,1.781-2.067c0.908-0.411,1.98-0.435,3.204-0.071c0.597,0.179,1.111,0.403,1.545,0.672
				C162.927,142.834,163.358,143.201,163.789,143.67z"/>
		</g>
	</g>
</g>
</svg>
