<?xml version="1.0" encoding="utf-8"?>
<!-- Generator: Adobe Illustrator 16.0.4, SVG Export Plug-In . SVG Version: 6.00 Build 0)  -->
<!DOCTYPE svg PUBLIC "-//W3C//DTD SVG 1.1//EN" "http://www.w3.org/Graphics/SVG/1.1/DTD/svg11.dtd">
<svg version="1.1" id="Livello_1" xmlns="http://www.w3.org/2000/svg" xmlns:xlink="http://www.w3.org/1999/xlink" x="0px" y="0px"
	 width="210px" height="200px" viewBox="0 0 210 200" enable-background="new 0 0 210 200" xml:space="preserve">
<g>
	<circle fill="#BC1818" cx="105" cy="100" r="84"/>
	<circle fill="#BC1818" stroke="#FFFFFF" stroke-width="5" stroke-miterlimit="10" cx="105" cy="100" r="75.216"/>
	<path fill="#E41815" stroke="#FFFFFF" stroke-width="2" stroke-miterlimit="10" d="M129.38,107.062
		c-4.205,0-8.009,1.712-10.767,4.451L83.4,91.958c0.209-1.027,0.324-2.073,0.324-3.158c0-1.084-0.114-2.13-0.324-3.159
		l35.232-19.556c2.739,2.74,6.543,4.452,10.748,4.452c8.409,0,15.219-6.811,15.219-15.219c0-8.409-6.81-15.219-15.219-15.219
		s-15.219,6.81-15.219,15.219c0,0.913,0.076,1.787,0.228,2.663L78.91,77.691c-2.738-2.549-6.391-4.109-10.405-4.109
		c-8.409,0-15.219,6.81-15.219,15.219c0,8.408,6.81,15.219,15.219,15.219c4.014,0,7.667-1.56,10.405-4.11l35.479,19.709
		c-0.152,0.856-0.228,1.75-0.228,2.663c0,8.409,6.81,15.219,15.219,15.219s15.219-6.81,15.219-15.219
		C144.599,113.874,137.789,107.062,129.38,107.062z M129.396,45.236c1.798,0,3.27,1.445,3.27,3.21c0,1.766-1.472,3.211-3.27,3.211
		c-1.797,0-3.268-1.445-3.268-3.211C126.128,46.681,127.6,45.236,129.396,45.236z M121.771,57.757c0-2.515,5.066-3.746,7.626-3.746
		c2.561,0,7.783,1.23,7.783,3.746v2.889h-15.409V57.757z M67.761,79.479c1.798,0,3.27,1.445,3.27,3.21
		c0,1.766-1.471,3.211-3.27,3.211c-1.797,0-3.268-1.445-3.268-3.211C64.493,80.923,65.964,79.479,67.761,79.479z M75.543,94.888
		H60.135v-2.889c0-2.515,5.066-3.746,7.626-3.746c2.561,0,7.783,1.23,7.783,3.746V94.888z M129.396,113.721
		c1.798,0,3.27,1.445,3.27,3.211c0,1.765-1.472,3.21-3.27,3.21c-1.797,0-3.268-1.445-3.268-3.21
		C126.128,115.166,127.6,113.721,129.396,113.721z M137.18,129.13h-15.409v-2.889c0-2.515,5.066-3.746,7.626-3.746
		c2.561,0,7.783,1.23,7.783,3.746V129.13z"/>
	<g>
		<g>
			<path fill="#D51116" stroke="#FFFFFF" stroke-width="2" stroke-miterlimit="10" d="M194.768,168.588
				c-2.534-5.82-5.349-11.609-8.446-17.346c6.004-2.538,12.219-4.851,18.63-6.916c-63.973-26.855-136.118-26.686-199.987,0.509
				c0.04,0.094,0.08,0.188,0.12,0.282c6.617,2.096,13.026,4.457,19.211,7.058c-2.899,5.432-5.546,10.909-7.942,16.414
				C73.411,144.638,137.71,144.637,194.768,168.588L194.768,168.588L194.768,168.588z"/>
		</g>
	</g>
	<g>
		<g>
			<path fill="#FFFFFF" d="M50.646,136.739c1.922-0.279,3.599-0.619,5.044-1.04c1.121-0.327,2.011-0.691,2.676-1.104
				c0.268-0.169,0.427-0.262,0.476-0.275c0.114-0.031,0.191,0.024,0.229,0.162c0.128,0.458,0.054,1.002-0.214,1.635
				c-0.268,0.632-0.695,1.173-1.281,1.625c-0.586,0.451-1.383,0.825-2.396,1.128c-0.765,0.231-1.651,0.426-2.662,0.595
				c0.222,0.966,0.447,1.931,0.675,2.896c0.509-0.418,1.007-0.764,1.494-1.038c0.486-0.275,0.959-0.479,1.417-0.615
				c1.514-0.45,2.944-0.384,4.266,0.195s2.173,1.61,2.581,3.066c0.421,1.499,0.232,2.86-0.534,4.09
				c-0.769,1.231-1.982,2.084-3.673,2.596c-1.345,0.408-2.532,0.424-3.58,0.038c-1.048-0.385-1.747-1.029-2.081-1.952
				c-0.218-0.603-0.209-1.146,0.031-1.626c0.239-0.48,0.643-0.812,1.208-0.993c0.496-0.159,0.954-0.148,1.373,0.036
				c0.417,0.183,0.694,0.48,0.83,0.889c0.098,0.294,0.099,0.574,0.007,0.839c-0.093,0.266-0.34,0.578-0.739,0.938
				c-0.289,0.267-0.408,0.47-0.358,0.613c0.08,0.232,0.316,0.386,0.706,0.466c0.574,0.111,1.185,0.068,1.835-0.131
				c0.815-0.25,1.362-0.746,1.654-1.501c0.291-0.755,0.211-1.876-0.246-3.364c-0.385-1.256-0.904-2.104-1.568-2.538
				c-0.665-0.434-1.38-0.537-2.137-0.307c-0.351,0.106-0.712,0.281-1.079,0.523c-0.366,0.243-0.744,0.552-1.131,0.934
				c0.174,0.534,0.222,0.921,0.148,1.164c-0.075,0.245-0.243,0.407-0.503,0.492c-0.224,0.072-0.421,0.075-0.595,0.007
				c-0.174-0.068-0.291-0.188-0.351-0.356c-0.093-0.265-0.029-0.727,0.201-1.383C51.778,141.211,51.205,138.976,50.646,136.739z"/>
			<path fill="#FFFFFF" d="M76.3,135.832c0.955-0.165,1.911-0.321,2.867-0.47c0.062,0.381,0.123,0.764,0.184,1.146
				c-0.949,0.146-1.898,0.304-2.847,0.467c0.421,2.349,0.847,4.697,1.279,7.046c0.051,0.276,0.142,0.458,0.274,0.542
				c0.132,0.087,0.345,0.105,0.638,0.056c0.62-0.104,1.24-0.205,1.86-0.301c0.055,0.328,0.109,0.657,0.164,0.986
				c-2.525,0.393-5.046,0.85-7.562,1.365c-0.072-0.326-0.144-0.652-0.215-0.978c0.364-0.075,0.727-0.148,1.091-0.22
				c0.33-0.067,0.546-0.166,0.651-0.303c0.104-0.136,0.13-0.337,0.077-0.595c-0.479-2.34-0.952-4.681-1.42-7.021
				c-0.635,0.122-1.271,0.249-1.905,0.376c-0.081-0.377-0.161-0.757-0.241-1.136c0.64-0.13,1.28-0.257,1.919-0.38
				c-0.027-0.132-0.053-0.267-0.08-0.399c-0.262-1.32-0.256-2.442,0.025-3.364c0.282-0.922,0.792-1.663,1.531-2.214
				c0.736-0.553,1.704-0.927,2.894-1.117c1.108-0.176,2.001-0.073,2.675,0.3c0.671,0.375,1.053,0.909,1.15,1.595
				c0.078,0.548-0.044,1.021-0.361,1.423c-0.317,0.405-0.728,0.643-1.235,0.719c-0.476,0.072-0.896-0.004-1.263-0.226
				c-0.366-0.22-0.585-0.535-0.651-0.939c-0.068-0.418,0.116-0.823,0.558-1.212c0.212-0.194,0.31-0.347,0.292-0.46
				c-0.015-0.099-0.09-0.172-0.223-0.216c-0.205-0.07-0.462-0.082-0.775-0.031c-0.411,0.066-0.773,0.238-1.085,0.514
				c-0.312,0.276-0.514,0.626-0.608,1.05c-0.135,0.627-0.143,1.269-0.026,1.924C76.053,134.449,76.176,135.141,76.3,135.832z"/>
			<path fill="#FFFFFF" d="M89.437,143.182c0.035,0.331,0.07,0.663,0.105,0.994c-2.45,0.245-4.898,0.546-7.342,0.904
				c-0.052-0.329-0.103-0.659-0.154-0.988c0.305-0.045,0.61-0.089,0.915-0.131c0.376-0.054,0.641-0.159,0.794-0.322
				c0.154-0.161,0.214-0.359,0.181-0.594c-0.278-1.965-0.554-3.931-0.827-5.896c-0.066-0.476-0.234-0.807-0.507-0.994
				c-0.271-0.187-0.626-0.251-1.062-0.189c-0.21,0.029-0.42,0.06-0.63,0.091c-0.047-0.312-0.094-0.625-0.141-0.935
				c1.583-0.307,3.169-0.592,4.759-0.854c0.13,1.085,0.261,2.17,0.394,3.254c0.142-1.119,0.525-2.013,1.152-2.671
				c0.627-0.659,1.383-1.032,2.255-1.115c0.745-0.07,1.35,0.053,1.811,0.373c0.461,0.315,0.713,0.755,0.759,1.312
				c0.04,0.477-0.077,0.877-0.345,1.198c-0.271,0.319-0.615,0.498-1.038,0.537c-0.376,0.034-0.711-0.064-1.007-0.296
				c-0.297-0.23-0.466-0.544-0.506-0.944c-0.022-0.22,0.019-0.459,0.125-0.713c0.055-0.142,0.08-0.242,0.075-0.299
				c-0.01-0.1-0.044-0.172-0.099-0.212c-0.057-0.041-0.14-0.055-0.251-0.045c-0.286,0.029-0.584,0.208-0.892,0.543
				c-0.473,0.519-0.829,1.285-1.067,2.303c-0.238,1.019-0.292,2.026-0.172,3.021c0.086,0.719,0.173,1.436,0.26,2.155
				c0.031,0.249,0.125,0.432,0.285,0.546c0.159,0.115,0.367,0.157,0.623,0.13C88.403,143.287,88.92,143.234,89.437,143.182z"/>
			<path fill="#FFFFFF" d="M93.725,133.733c1.658-0.183,3.318-0.34,4.981-0.474c0.115,2.844,0.231,5.688,0.35,8.533
				c0.01,0.229,0.094,0.403,0.255,0.521c0.16,0.119,0.398,0.175,0.715,0.164c0.238-0.009,0.477-0.016,0.714-0.022
				c0.01,0.333,0.021,0.665,0.031,0.999c-2.109,0.061-4.218,0.165-6.326,0.31c-0.024-0.332-0.049-0.664-0.073-0.996
				c0.234-0.017,0.468-0.032,0.703-0.047c0.378-0.024,0.638-0.122,0.783-0.296c0.145-0.174,0.205-0.464,0.18-0.872
				c-0.118-1.937-0.235-3.874-0.352-5.812c-0.021-0.366-0.155-0.641-0.402-0.826c-0.246-0.186-0.577-0.267-0.99-0.239
				c-0.167,0.011-0.333,0.022-0.5,0.033C93.771,134.383,93.748,134.057,93.725,133.733z M96.51,127.755
				c0.554-0.028,1.039,0.12,1.449,0.443c0.41,0.323,0.623,0.729,0.642,1.216c0.02,0.485-0.16,0.908-0.536,1.264
				c-0.375,0.357-0.833,0.546-1.376,0.575c-0.552,0.029-1.03-0.116-1.441-0.438c-0.41-0.32-0.633-0.719-0.663-1.198
				c-0.03-0.486,0.141-0.911,0.517-1.275C95.477,127.98,95.947,127.784,96.51,127.755z"/>
			<path fill="#FFFFFF" d="M113.98,138.643c-2.542-0.131-5.084-0.205-7.628-0.218c0.016,1.412,0.315,2.452,0.887,3.128
				c0.573,0.675,1.305,1.021,2.21,1.043c0.648,0.017,1.267-0.138,1.862-0.458c0.596-0.322,1.22-0.92,1.885-1.792
				c0.272,0.175,0.542,0.35,0.812,0.525c-0.708,1.037-1.48,1.771-2.324,2.2c-0.843,0.43-1.851,0.627-3.036,0.604
				c-1.723-0.035-3.11-0.536-4.192-1.533c-1.08-0.996-1.65-2.269-1.678-3.838c-0.026-1.568,0.509-2.89,1.64-3.95
				c1.13-1.061,2.547-1.583,4.217-1.553c1.156,0.021,2.145,0.262,2.956,0.715c0.812,0.452,1.426,1.098,1.841,1.931
				C113.847,136.281,114.027,137.347,113.98,138.643z M106.358,137.447c1.217,0.007,2.436,0.026,3.652,0.06
				c0.343,0.01,0.59-0.061,0.744-0.214c0.152-0.153,0.237-0.437,0.251-0.852c0.028-0.832-0.158-1.48-0.564-1.947
				c-0.406-0.467-0.938-0.708-1.591-0.721c-0.772-0.015-1.368,0.285-1.782,0.897C106.654,135.281,106.419,136.208,106.358,137.447z"
				/>
			<path fill="#FFFFFF" d="M130.224,144.301c-0.054,0.329-0.108,0.657-0.164,0.987c-2.103-0.327-4.209-0.611-6.317-0.853
				c0.04-0.331,0.081-0.663,0.121-0.992c0.222,0.026,0.445,0.052,0.667,0.078c0.354,0.042,0.629-0.011,0.825-0.16
				c0.196-0.148,0.316-0.387,0.359-0.713c0.192-1.441,0.383-2.885,0.572-4.326c0.097-0.74-0.014-1.329-0.337-1.77
				c-0.323-0.44-0.79-0.695-1.396-0.765c-0.827-0.094-1.533,0.116-2.109,0.622c-0.576,0.505-0.914,1.302-1.023,2.376
				c-0.112,1.116-0.226,2.231-0.34,3.347c-0.033,0.327,0.03,0.586,0.189,0.774c0.161,0.189,0.38,0.298,0.659,0.326
				c0.268,0.028,0.536,0.056,0.803,0.085c-0.038,0.331-0.075,0.662-0.113,0.992c-2.191-0.236-4.384-0.427-6.579-0.572
				c0.023-0.332,0.047-0.665,0.07-0.997c0.287,0.019,0.574,0.039,0.861,0.059c0.333,0.024,0.589-0.042,0.774-0.201
				c0.183-0.159,0.29-0.401,0.316-0.73c0.164-1.988,0.326-3.976,0.486-5.964c0.028-0.342-0.079-0.625-0.32-0.85
				c-0.243-0.223-0.574-0.35-0.996-0.379c-0.159-0.011-0.318-0.022-0.477-0.033c0.021-0.311,0.042-0.621,0.064-0.932
				c1.568,0.029,3.137,0.08,4.708,0.153c0.109,0.63,0.163,1.372,0.166,2.228c0.725-0.728,1.481-1.249,2.265-1.559
				c0.783-0.311,1.59-0.417,2.412-0.316c1.116,0.138,1.954,0.587,2.502,1.335c0.539,0.747,0.714,1.711,0.537,2.888
				c-0.231,1.537-0.466,3.076-0.701,4.612c-0.054,0.354-0.007,0.621,0.143,0.803c0.15,0.181,0.412,0.299,0.788,0.357
				C129.833,144.241,130.028,144.271,130.224,144.301z"/>
			<path fill="#FFFFFF" d="M141.548,131.171c1.927,0.333,3.853,0.699,5.78,1.097c-1.053,4.259-2.13,8.515-3.231,12.769
				c-0.168,0.654-0.236,1.104-0.201,1.353c0.034,0.25,0.135,0.447,0.303,0.597c0.168,0.147,0.527,0.291,1.08,0.43
				c-0.084,0.308-0.168,0.616-0.253,0.924c-1.438-0.319-2.877-0.619-4.317-0.899c0.049-0.658,0.098-1.316,0.144-1.976
				c-0.853,0.654-1.571,1.062-2.164,1.216c-0.594,0.155-1.285,0.147-2.082-0.009c-1.428-0.283-2.5-0.948-3.24-2.016
				c-0.739-1.067-0.985-2.38-0.712-3.94c0.301-1.722,1.034-3.008,2.232-3.839c1.196-0.833,2.566-1.1,4.082-0.8
				c0.813,0.162,1.505,0.468,2.067,0.913c0.565,0.446,1.022,1.076,1.371,1.887c0.347-1.488,0.69-2.976,1.032-4.464
				c0.121-0.531,0.152-0.926,0.09-1.18c-0.062-0.257-0.178-0.45-0.351-0.578c-0.173-0.129-0.559-0.259-1.155-0.386
				c-0.225-0.047-0.45-0.094-0.675-0.141C141.413,131.81,141.481,131.491,141.548,131.171z M139.766,137.653
				c-0.917-0.189-1.676,0.036-2.268,0.667c-0.487,0.513-0.853,1.406-1.106,2.679c-0.211,1.062-0.271,1.873-0.18,2.435
				c0.092,0.561,0.292,1.006,0.604,1.333c0.312,0.328,0.699,0.541,1.165,0.635c0.766,0.156,1.449-0.014,2.058-0.523
				c0.811-0.66,1.372-1.607,1.665-2.851c0.272-1.152,0.208-2.133-0.202-2.936C141.091,138.287,140.509,137.806,139.766,137.653z"/>
			<path fill="#FFFFFF" d="M157.326,141.668c0.347-0.188,0.695-0.375,1.044-0.561c0.241,0.077,0.481,0.155,0.722,0.232
				c-0.295,1.114-0.595,2.227-0.898,3.337c-0.312-0.102-0.625-0.204-0.938-0.303c-0.196-1.025-0.54-1.81-1.023-2.349
				c-0.481-0.537-1.155-0.937-2.012-1.19c-0.739-0.218-1.34-0.257-1.8-0.117c-0.459,0.139-0.744,0.4-0.856,0.778
				c-0.111,0.372-0.048,0.698,0.189,0.974c0.233,0.286,0.975,0.728,2.211,1.354c1.12,0.569,1.847,0.994,2.189,1.261
				c0.655,0.5,1.098,1.084,1.327,1.742c0.229,0.659,0.216,1.337-0.036,2.035c-0.318,0.881-0.977,1.491-1.96,1.842
				c-0.984,0.351-2.092,0.333-3.341-0.045c-0.603-0.182-1.126-0.412-1.574-0.687c-0.447-0.277-0.886-0.659-1.317-1.146
				c-0.354,0.215-0.705,0.43-1.055,0.647c-0.281-0.079-0.561-0.154-0.842-0.229c0.291-1.24,0.578-2.48,0.861-3.72
				c0.314,0.083,0.629,0.17,0.943,0.256c0.26,2.069,1.321,3.363,3.229,3.939c0.784,0.238,1.43,0.284,1.941,0.135
				c0.511-0.147,0.835-0.415,0.971-0.804c0.123-0.355,0.085-0.665-0.115-0.933c-0.201-0.267-0.832-0.688-1.903-1.244
				c-1.158-0.597-1.94-1.034-2.339-1.326c-0.686-0.487-1.155-1.02-1.406-1.606c-0.251-0.586-0.283-1.216-0.09-1.892
				c0.275-0.966,0.862-1.664,1.776-2.076c0.912-0.414,1.993-0.445,3.229-0.081c0.603,0.178,1.124,0.404,1.562,0.671
				C156.454,140.832,156.891,141.2,157.326,141.668z"/>
		</g>
	</g>
</g>
</svg>
