<?xml version="1.0" encoding="utf-8"?>
<!-- Generator: Adobe Illustrator 16.0.4, SVG Export Plug-In . SVG Version: 6.00 Build 0)  -->
<!DOCTYPE svg PUBLIC "-//W3C//DTD SVG 1.1//EN" "http://www.w3.org/Graphics/SVG/1.1/DTD/svg11.dtd">
<svg version="1.1" id="Livello_1" xmlns="http://www.w3.org/2000/svg" xmlns:xlink="http://www.w3.org/1999/xlink" x="0px" y="0px"
	 width="210px" height="200px" viewBox="0 0 210 200" enable-background="new 0 0 210 200" xml:space="preserve">
<g>
	<circle fill="#BC1818" cx="105" cy="100" r="84"/>
	<circle fill="#BC1818" stroke="#FFFFFF" stroke-width="5" stroke-miterlimit="10" cx="105" cy="100" r="75.215"/>
	<path fill="#E41815" stroke="#FFFFFF" stroke-width="2" stroke-miterlimit="10" d="M129.38,107.062
		c-4.205,0-8.01,1.712-10.767,4.451L83.4,91.958c0.209-1.027,0.324-2.073,0.324-3.158c0-1.084-0.115-2.13-0.324-3.159l35.231-19.556
		c2.739,2.74,6.544,4.452,10.749,4.452c8.408,0,15.219-6.811,15.219-15.219c0-8.409-6.811-15.219-15.219-15.219
		c-8.409,0-15.22,6.81-15.22,15.219c0,0.913,0.076,1.787,0.229,2.663L78.91,77.691c-2.738-2.549-6.391-4.109-10.405-4.109
		c-8.408,0-15.218,6.81-15.218,15.219c0,8.408,6.81,15.219,15.218,15.219c4.015,0,7.667-1.56,10.405-4.11l35.479,19.709
		c-0.152,0.856-0.229,1.75-0.229,2.663c0,8.409,6.811,15.219,15.22,15.219c8.408,0,15.219-6.81,15.219-15.219
		C144.599,113.874,137.789,107.062,129.38,107.062z M129.396,45.236c1.799,0,3.27,1.445,3.27,3.21c0,1.766-1.471,3.211-3.27,3.211
		c-1.797,0-3.268-1.445-3.268-3.211C126.128,46.681,127.599,45.236,129.396,45.236z M121.771,57.757
		c0-2.515,5.065-3.746,7.625-3.746c2.562,0,7.783,1.23,7.783,3.746v2.889h-15.408V57.757z M67.76,79.479
		c1.799,0,3.27,1.445,3.27,3.21c0,1.766-1.471,3.211-3.27,3.211c-1.797,0-3.268-1.445-3.268-3.211
		C64.493,80.923,65.963,79.479,67.76,79.479z M75.543,94.888H60.134v-2.889c0-2.515,5.066-3.746,7.626-3.746
		c2.561,0,7.783,1.23,7.783,3.746V94.888z M129.396,113.721c1.799,0,3.27,1.445,3.27,3.211c0,1.765-1.471,3.21-3.27,3.21
		c-1.797,0-3.268-1.445-3.268-3.21C126.128,115.166,127.599,113.721,129.396,113.721z M137.179,129.13h-15.408v-2.889
		c0-2.515,5.065-3.746,7.625-3.746c2.562,0,7.783,1.23,7.783,3.746V129.13z"/>
	<g>
		<g>
			<path fill="#D51116" stroke="#FFFFFF" stroke-width="2" stroke-miterlimit="10" d="M194.768,168.588
				c-2.534-5.82-5.35-11.609-8.446-17.346c6.005-2.538,12.219-4.851,18.63-6.916c-63.972-26.855-136.117-26.686-199.987,0.509
				c0.041,0.094,0.08,0.188,0.121,0.282c6.617,2.096,13.025,4.457,19.211,7.058c-2.899,5.432-5.547,10.909-7.941,16.414
				C73.411,144.638,137.71,144.637,194.768,168.588L194.768,168.588L194.768,168.588z"/>
		</g>
	</g>
	<g>
		<g>
			<path fill="#FFFFFF" d="M43.887,140.007c1.227-0.485,2.234-0.96,3.022-1.435c0.789-0.476,1.563-1.053,2.328-1.731
				c0.293-0.088,0.586-0.176,0.879-0.262c1.289,4.199,2.604,8.394,3.944,12.585c0.079,0.247,0.214,0.415,0.405,0.503
				c0.191,0.09,0.415,0.099,0.675,0.021c0.689-0.199,1.378-0.398,2.068-0.59c0.096,0.32,0.192,0.641,0.289,0.96
				c-2.864,0.8-5.72,1.674-8.565,2.62c-0.114-0.315-0.228-0.63-0.342-0.945c0.538-0.179,1.077-0.354,1.615-0.529
				c0.413-0.132,0.678-0.311,0.795-0.532c0.116-0.221,0.11-0.525-0.02-0.904c-1.052-3.093-2.089-6.188-3.112-9.284
				c-0.072-0.219-0.205-0.361-0.397-0.428c-0.194-0.068-0.445-0.052-0.754,0.047c-0.836,0.267-1.672,0.541-2.507,0.819
				C44.102,140.617,43.994,140.312,43.887,140.007z"/>
			<path fill="#FFFFFF" d="M62.287,133.015c1.036-0.236,2.036-0.174,2.991,0.183c0.956,0.356,1.84,1.09,2.649,2.196
				c0.81,1.106,1.372,2.468,1.704,4.083c0.335,1.628,0.361,3.093,0.093,4.391c-0.268,1.297-0.741,2.299-1.426,3.01
				c-0.684,0.712-1.502,1.173-2.463,1.394c-1.441,0.331-2.776,0.026-4.036-0.924c-1.573-1.176-2.706-2.914-3.348-5.246
				c-0.453-1.648-0.574-3.13-0.346-4.457c0.226-1.321,0.707-2.367,1.435-3.119C60.268,133.771,61.188,133.268,62.287,133.015z
				 M66.181,140.598c-0.696-3.062-1.372-5.024-2.053-5.88c-0.494-0.624-1.048-0.868-1.657-0.73
				c-0.731,0.167-1.152,0.792-1.253,1.871c-0.102,1.078,0.206,3.041,0.925,5.884c0.603,2.379,1.271,4.005,1.981,4.884
				c0.445,0.542,0.934,0.753,1.468,0.63c0.349-0.08,0.632-0.292,0.852-0.634c0.221-0.344,0.313-0.987,0.283-1.936
				C66.688,143.402,66.509,142.039,66.181,140.598z"/>
			<path fill="#FFFFFF" d="M83.486,134.679c0.949-0.113,1.898-0.22,2.848-0.317c0.041,0.385,0.082,0.77,0.123,1.154
				c-0.944,0.097-1.887,0.203-2.83,0.316c0.291,2.367,0.584,4.735,0.881,7.102c0.035,0.277,0.115,0.461,0.242,0.556
				c0.126,0.093,0.335,0.122,0.628,0.089c0.62-0.072,1.24-0.14,1.86-0.204c0.037,0.33,0.073,0.663,0.109,0.994
				c-2.526,0.263-5.05,0.581-7.57,0.953c-0.052-0.329-0.103-0.659-0.155-0.988c0.364-0.054,0.728-0.106,1.092-0.158
				c0.33-0.047,0.55-0.135,0.662-0.266c0.112-0.131,0.148-0.328,0.11-0.59c-0.339-2.363-0.675-4.725-1.006-7.087
				c-0.633,0.085-1.265,0.175-1.896,0.268c-0.058-0.382-0.116-0.765-0.173-1.147c0.636-0.093,1.272-0.184,1.908-0.27
				c-0.019-0.133-0.037-0.269-0.056-0.403c-0.187-1.333-0.121-2.451,0.204-3.356c0.326-0.904,0.865-1.615,1.618-2.125
				c0.751-0.511,1.719-0.833,2.897-0.96c1.096-0.117,1.968,0.03,2.612,0.438c0.643,0.408,0.993,0.959,1.056,1.651
				c0.05,0.548-0.093,1.017-0.424,1.402c-0.332,0.389-0.749,0.605-1.252,0.655c-0.472,0.047-0.882-0.051-1.232-0.291
				s-0.548-0.562-0.593-0.972c-0.046-0.422,0.155-0.815,0.609-1.18c0.218-0.183,0.322-0.331,0.31-0.445
				c-0.011-0.1-0.08-0.175-0.208-0.227c-0.198-0.082-0.451-0.105-0.761-0.072c-0.407,0.045-0.771,0.195-1.091,0.456
				c-0.319,0.259-0.536,0.597-0.651,1.016c-0.165,0.618-0.204,1.258-0.124,1.918C83.315,133.285,83.4,133.982,83.486,134.679z"/>
			<path fill="#FFFFFF" d="M96.11,142.67c0.02,0.333,0.039,0.665,0.058,0.998c-2.448,0.134-4.895,0.316-7.34,0.552
				c-0.034-0.331-0.067-0.663-0.101-0.995c0.305-0.029,0.61-0.057,0.914-0.085c0.376-0.035,0.644-0.128,0.805-0.282
				c0.161-0.154,0.231-0.348,0.21-0.583c-0.176-1.977-0.35-3.954-0.522-5.93c-0.042-0.479-0.192-0.818-0.452-1.018
				c-0.259-0.2-0.606-0.282-1.039-0.242c-0.209,0.019-0.417,0.039-0.626,0.059c-0.031-0.313-0.062-0.628-0.092-0.94
				c1.576-0.225,3.154-0.433,4.735-0.618c0.078,1.089,0.157,2.179,0.235,3.268c0.194-1.113,0.614-1.986,1.264-2.614
				c0.65-0.629,1.413-0.966,2.278-1.01c0.739-0.037,1.331,0.114,1.773,0.452c0.442,0.336,0.672,0.787,0.693,1.343
				c0.019,0.479-0.114,0.873-0.394,1.183c-0.282,0.307-0.631,0.473-1.051,0.49c-0.374,0.019-0.702-0.097-0.983-0.34
				c-0.284-0.244-0.437-0.565-0.458-0.966c-0.012-0.222,0.04-0.458,0.156-0.708c0.061-0.139,0.09-0.237,0.086-0.295
				c-0.005-0.101-0.035-0.172-0.087-0.216c-0.055-0.043-0.137-0.063-0.247-0.057c-0.283,0.015-0.587,0.182-0.906,0.502
				c-0.491,0.495-0.878,1.246-1.162,2.25c-0.284,1.006-0.385,2.008-0.314,3.009c0.051,0.721,0.102,1.443,0.153,2.165
				c0.018,0.25,0.104,0.437,0.255,0.559c0.152,0.122,0.357,0.176,0.613,0.159C95.079,142.728,95.595,142.697,96.11,142.67z"/>
			<path fill="#FFFFFF" d="M100.783,133.416c1.646-0.112,3.295-0.204,4.946-0.272c0.003,2.847,0.005,5.693,0.008,8.54
				c0,0.228,0.078,0.406,0.233,0.531c0.154,0.125,0.389,0.189,0.706,0.19c0.237,0,0.474,0.002,0.712,0.004
				c-0.002,0.333-0.006,0.666-0.009,0.999c-2.105-0.017-4.21,0.002-6.314,0.059c-0.009-0.332-0.019-0.665-0.028-0.998
				c0.233-0.007,0.467-0.013,0.701-0.018c0.376-0.01,0.64-0.095,0.792-0.264c0.151-0.167,0.223-0.456,0.216-0.863
				c-0.036-1.941-0.07-3.881-0.105-5.822c-0.006-0.366-0.127-0.646-0.364-0.842c-0.236-0.196-0.56-0.29-0.97-0.28
				c-0.166,0.002-0.331,0.009-0.497,0.013C100.801,134.067,100.792,133.742,100.783,133.416z M103.775,127.558
				c0.547-0.006,1.019,0.161,1.412,0.5c0.392,0.339,0.587,0.753,0.587,1.24c0,0.487-0.193,0.9-0.579,1.242
				c-0.385,0.341-0.845,0.514-1.383,0.52c-0.546,0.005-1.013-0.158-1.406-0.495c-0.393-0.337-0.596-0.745-0.606-1.224
				c-0.011-0.487,0.175-0.904,0.561-1.253C102.748,127.741,103.219,127.565,103.775,127.558z"/>
			<path fill="#FFFFFF" d="M120.703,139.035c-2.525-0.204-5.053-0.355-7.581-0.455c-0.034,1.411,0.227,2.462,0.773,3.157
				c0.547,0.694,1.265,1.062,2.167,1.114c0.646,0.037,1.269-0.096,1.873-0.4c0.604-0.305,1.246-0.882,1.935-1.735
				c0.265,0.182,0.53,0.365,0.794,0.548c-0.737,1.019-1.531,1.728-2.386,2.131c-0.854,0.405-1.868,0.571-3.049,0.509
				c-1.719-0.089-3.085-0.639-4.126-1.673c-1.04-1.032-1.559-2.326-1.526-3.895c0.032-1.568,0.613-2.869,1.772-3.889
				c1.158-1.02,2.579-1.494,4.233-1.412c1.145,0.059,2.117,0.33,2.907,0.807c0.792,0.477,1.381,1.141,1.768,1.984
				C120.642,136.671,120.789,137.742,120.703,139.035z M113.163,137.604c1.209,0.047,2.419,0.107,3.628,0.178
				c0.34,0.021,0.587-0.043,0.746-0.191c0.156-0.147,0.25-0.428,0.277-0.844c0.055-0.829-0.109-1.484-0.498-1.964
				c-0.388-0.478-0.908-0.737-1.555-0.771c-0.765-0.04-1.366,0.241-1.797,0.839C113.532,135.451,113.267,136.369,113.163,137.604z"
				/>
			<path fill="#FFFFFF" d="M136.761,145.068c-0.061,0.329-0.121,0.654-0.182,0.984c-2.096-0.366-4.195-0.689-6.296-0.98
				c0.047-0.329,0.096-0.658,0.144-0.989c0.222,0.03,0.443,0.061,0.665,0.093c0.354,0.05,0.628,0.003,0.828-0.143
				c0.2-0.144,0.325-0.38,0.375-0.706c0.224-1.437,0.446-2.875,0.666-4.313c0.113-0.737,0.016-1.329-0.295-1.775
				c-0.312-0.445-0.769-0.712-1.37-0.794c-0.82-0.111-1.526,0.082-2.111,0.575c-0.585,0.493-0.942,1.278-1.078,2.352
				c-0.14,1.112-0.282,2.225-0.424,3.337c-0.042,0.327,0.015,0.585,0.169,0.778c0.155,0.192,0.372,0.305,0.649,0.341
				c0.267,0.034,0.534,0.068,0.8,0.103c-0.046,0.33-0.091,0.66-0.138,0.99c-2.184-0.287-4.37-0.533-6.557-0.737
				c0.033-0.332,0.065-0.663,0.099-0.995c0.285,0.025,0.572,0.055,0.857,0.083c0.331,0.033,0.589-0.028,0.778-0.181
				c0.187-0.153,0.3-0.395,0.335-0.722c0.218-1.982,0.434-3.968,0.647-5.95c0.037-0.343-0.061-0.626-0.295-0.857
				c-0.235-0.228-0.561-0.365-0.979-0.404c-0.158-0.016-0.315-0.031-0.473-0.045c0.03-0.312,0.06-0.621,0.09-0.931
				c1.555,0.072,3.112,0.161,4.669,0.271c0.091,0.631,0.127,1.374,0.107,2.231c0.739-0.71,1.503-1.216,2.289-1.508
				c0.785-0.293,1.588-0.381,2.402-0.264c1.105,0.16,1.927,0.625,2.455,1.384c0.52,0.757,0.674,1.725,0.474,2.896
				c-0.262,1.533-0.526,3.065-0.793,4.598c-0.061,0.354-0.019,0.622,0.126,0.805c0.146,0.184,0.405,0.307,0.78,0.371
				C136.372,145.001,136.566,145.034,136.761,145.068z"/>
			<path fill="#FFFFFF" d="M148.243,132.101c1.902,0.353,3.805,0.736,5.707,1.146c-1.095,4.248-2.212,8.495-3.353,12.739
				c-0.174,0.652-0.246,1.101-0.213,1.351c0.031,0.25,0.131,0.448,0.296,0.599c0.167,0.147,0.524,0.294,1.075,0.438
				c-0.087,0.309-0.174,0.615-0.26,0.923c-1.435-0.331-2.87-0.644-4.305-0.939c0.057-0.659,0.113-1.316,0.166-1.974
				c-0.859,0.646-1.582,1.045-2.176,1.191c-0.595,0.147-1.286,0.133-2.08-0.035c-1.423-0.301-2.485-0.982-3.206-2.063
				c-0.721-1.081-0.942-2.395-0.643-3.95c0.331-1.717,1.084-2.991,2.29-3.805c1.203-0.813,2.568-1.063,4.068-0.746
				c0.805,0.171,1.488,0.486,2.039,0.936c0.554,0.451,1,1.085,1.336,1.901c0.364-1.484,0.725-2.967,1.083-4.453
				c0.128-0.529,0.164-0.921,0.105-1.179c-0.058-0.256-0.17-0.452-0.339-0.581c-0.169-0.131-0.549-0.265-1.138-0.397
				c-0.223-0.05-0.445-0.099-0.667-0.148C148.1,132.736,148.171,132.418,148.243,132.101z M146.377,138.561
				c-0.909-0.198-1.666,0.018-2.264,0.64c-0.492,0.506-0.871,1.396-1.144,2.664c-0.228,1.058-0.3,1.869-0.217,2.433
				c0.083,0.561,0.276,1.01,0.583,1.34c0.307,0.333,0.69,0.55,1.154,0.65c0.763,0.167,1.447,0.001,2.061-0.498
				c0.818-0.651,1.387-1.594,1.694-2.834c0.285-1.148,0.234-2.128-0.163-2.937C147.686,139.207,147.113,138.722,146.377,138.561z"/>
			<path fill="#FFFFFF" d="M163.78,142.67c0.345-0.188,0.691-0.376,1.039-0.562c0.238,0.077,0.477,0.154,0.715,0.231
				c-0.297,1.113-0.598,2.226-0.901,3.336c-0.311-0.102-0.62-0.203-0.931-0.302c-0.191-1.024-0.529-1.81-1.007-2.347
				c-0.476-0.538-1.142-0.937-1.991-1.192c-0.732-0.22-1.329-0.258-1.786-0.121c-0.457,0.138-0.742,0.396-0.856,0.775
				c-0.113,0.372-0.052,0.695,0.182,0.975c0.23,0.284,0.964,0.732,2.19,1.358c1.111,0.57,1.832,0.996,2.173,1.262
				c0.649,0.501,1.088,1.083,1.314,1.741c0.228,0.658,0.213,1.336-0.038,2.034c-0.317,0.883-0.973,1.491-1.955,1.843
				s-2.088,0.332-3.334-0.051c-0.602-0.185-1.124-0.414-1.57-0.692c-0.446-0.278-0.881-0.662-1.31-1.151
				c-0.354,0.212-0.707,0.427-1.057,0.641c-0.28-0.08-0.56-0.157-0.839-0.234c0.298-1.236,0.592-2.476,0.884-3.714
				c0.313,0.087,0.625,0.173,0.938,0.261c0.246,2.07,1.299,3.369,3.202,3.95c0.782,0.238,1.426,0.289,1.937,0.139
				c0.51-0.146,0.833-0.414,0.968-0.802c0.123-0.354,0.086-0.666-0.112-0.932c-0.2-0.268-0.828-0.687-1.893-1.247
				c-1.15-0.6-1.928-1.038-2.322-1.333c-0.681-0.489-1.144-1.023-1.391-1.611c-0.246-0.585-0.272-1.217-0.076-1.893
				c0.282-0.963,0.871-1.656,1.782-2.067c0.908-0.41,1.981-0.436,3.205-0.071c0.596,0.179,1.112,0.402,1.545,0.672
				C162.918,141.833,163.35,142.202,163.78,142.67z"/>
		</g>
	</g>
</g>
</svg>
