<?xml version="1.0" encoding="utf-8"?>
<!-- Generator: Adobe Illustrator 16.0.4, SVG Export Plug-In . SVG Version: 6.00 Build 0)  -->
<!DOCTYPE svg PUBLIC "-//W3C//DTD SVG 1.1//EN" "http://www.w3.org/Graphics/SVG/1.1/DTD/svg11.dtd">
<svg version="1.1" id="Livello_1" xmlns="http://www.w3.org/2000/svg" xmlns:xlink="http://www.w3.org/1999/xlink" x="0px" y="0px"
	 width="210px" height="200px" viewBox="0 0 210 200" enable-background="new 0 0 210 200" xml:space="preserve">
<g>
	<circle fill="#BC1818" cx="105" cy="100" r="84"/>
	<circle fill="#BC1818" stroke="#FFFFFF" stroke-width="5" stroke-miterlimit="10" cx="105" cy="100" r="75.216"/>
	<path fill="#E41815" stroke="#FFFFFF" stroke-width="2" stroke-miterlimit="10" d="M129.38,107.062
		c-4.205,0-8.009,1.712-10.767,4.451L83.4,91.958c0.209-1.027,0.324-2.073,0.324-3.158c0-1.084-0.114-2.13-0.324-3.159
		l35.232-19.556c2.739,2.74,6.543,4.452,10.748,4.452c8.409,0,15.219-6.811,15.219-15.219c0-8.409-6.81-15.219-15.219-15.219
		s-15.219,6.81-15.219,15.219c0,0.913,0.076,1.787,0.228,2.663L78.91,77.691c-2.738-2.549-6.391-4.109-10.405-4.109
		c-8.409,0-15.219,6.81-15.219,15.219c0,8.408,6.81,15.219,15.219,15.219c4.014,0,7.667-1.56,10.405-4.11l35.479,19.709
		c-0.152,0.856-0.228,1.75-0.228,2.663c0,8.409,6.81,15.219,15.219,15.219s15.219-6.81,15.219-15.219
		C144.599,113.874,137.789,107.062,129.38,107.062z M129.396,45.236c1.798,0,3.27,1.445,3.27,3.21c0,1.766-1.472,3.211-3.27,3.211
		c-1.797,0-3.268-1.445-3.268-3.211C126.128,46.681,127.6,45.236,129.396,45.236z M121.771,57.757c0-2.515,5.066-3.746,7.626-3.746
		c2.561,0,7.783,1.23,7.783,3.746v2.889h-15.409V57.757z M67.761,79.479c1.798,0,3.27,1.445,3.27,3.21
		c0,1.766-1.471,3.211-3.27,3.211c-1.797,0-3.268-1.445-3.268-3.211C64.493,80.923,65.964,79.479,67.761,79.479z M75.543,94.888
		H60.135v-2.889c0-2.515,5.066-3.746,7.626-3.746c2.561,0,7.783,1.23,7.783,3.746V94.888z M129.396,113.721
		c1.798,0,3.27,1.445,3.27,3.211c0,1.765-1.472,3.21-3.27,3.21c-1.797,0-3.268-1.445-3.268-3.21
		C126.128,115.166,127.6,113.721,129.396,113.721z M137.18,129.13h-15.409v-2.889c0-2.515,5.066-3.746,7.626-3.746
		c2.561,0,7.783,1.23,7.783,3.746V129.13z"/>
	<g>
		<g>
			<path fill="#D51116" stroke="#FFFFFF" stroke-width="2" stroke-miterlimit="10" d="M194.768,168.588
				c-2.534-5.82-5.349-11.609-8.446-17.346c6.004-2.538,12.219-4.851,18.63-6.916c-63.973-26.855-136.118-26.686-199.987,0.509
				c0.04,0.094,0.08,0.188,0.12,0.282c6.617,2.096,13.026,4.457,19.211,7.058c-2.899,5.432-5.546,10.909-7.942,16.414
				C73.411,144.638,137.71,144.637,194.768,168.588L194.768,168.588L194.768,168.588z"/>
		</g>
	</g>
	<g>
		<g>
			<path fill="#FFFFFF" d="M58.413,141.98c1.37-0.064,2.474,0.167,3.311,0.679c0.837,0.51,1.382,1.246,1.648,2.193
				c0.349,1.245,0.146,2.379-0.587,3.406c-0.734,1.027-1.944,1.779-3.65,2.292c-1.515,0.456-2.795,0.499-3.863,0.116
				c-1.067-0.383-1.793-1.075-2.161-2.091c-0.223-0.615-0.223-1.157,0.004-1.622c0.225-0.465,0.616-0.787,1.167-0.965
				c0.498-0.159,0.953-0.148,1.364,0.033s0.685,0.48,0.823,0.896c0.188,0.567,0.016,1.117-0.51,1.652
				c-0.223,0.229-0.351,0.384-0.384,0.468c-0.034,0.08-0.033,0.175,0.002,0.276c0.085,0.246,0.337,0.413,0.757,0.506
				c0.615,0.138,1.242,0.109,1.886-0.088c0.829-0.251,1.399-0.705,1.715-1.366c0.318-0.661,0.311-1.542-0.026-2.641
				c-0.333-1.085-0.804-1.826-1.424-2.214c-0.621-0.389-1.291-0.476-2.003-0.262c-0.17,0.051-0.388,0.144-0.65,0.276
				c-0.258,0.125-0.456,0.206-0.595,0.251c-0.216,0.065-0.404,0.066-0.563,0.001c-0.159-0.067-0.271-0.196-0.335-0.387
				c-0.071-0.212-0.059-0.39,0.04-0.538c0.097-0.146,0.282-0.264,0.555-0.348c0.109-0.034,0.269-0.072,0.479-0.113
				c0.258-0.05,0.465-0.097,0.621-0.144c0.702-0.211,1.185-0.585,1.454-1.128c0.263-0.532,0.249-1.291-0.048-2.273
				c-0.296-0.984-0.733-1.632-1.318-1.938c-0.585-0.308-1.292-0.339-2.117-0.089c-0.565,0.172-0.971,0.384-1.214,0.632
				c-0.243,0.25-0.335,0.462-0.276,0.64c0.029,0.089,0.072,0.154,0.129,0.19c0.057,0.039,0.203,0.094,0.438,0.163
				c0.47,0.138,0.796,0.285,0.98,0.435c0.184,0.149,0.316,0.353,0.398,0.605c0.132,0.411,0.081,0.8-0.151,1.168
				c-0.23,0.368-0.586,0.628-1.065,0.78c-0.503,0.158-0.982,0.132-1.438-0.087c-0.458-0.217-0.778-0.588-0.959-1.111
				c-0.259-0.748-0.168-1.526,0.283-2.335c0.574-1.05,1.684-1.838,3.313-2.323c1.091-0.327,2.083-0.437,2.968-0.34
				c0.887,0.097,1.609,0.368,2.17,0.808c0.562,0.438,0.931,0.988,1.113,1.644c0.199,0.712,0.123,1.418-0.215,2.119
				C60.136,140.508,59.446,141.228,58.413,141.98z"/>
			<path fill="#FFFFFF" d="M76.292,135.842c0.955-0.164,1.911-0.323,2.867-0.471c0.062,0.382,0.123,0.764,0.185,1.146
				c-0.949,0.147-1.898,0.304-2.847,0.467c0.421,2.349,0.849,4.698,1.281,7.046c0.05,0.275,0.143,0.457,0.274,0.542
				c0.132,0.086,0.344,0.104,0.638,0.055c0.62-0.104,1.24-0.205,1.861-0.302c0.055,0.329,0.109,0.658,0.164,0.986
				c-2.525,0.395-5.046,0.85-7.562,1.367c-0.072-0.325-0.145-0.652-0.216-0.978c0.363-0.074,0.728-0.148,1.091-0.22
				c0.331-0.065,0.547-0.167,0.651-0.303c0.105-0.138,0.13-0.335,0.077-0.596c-0.48-2.34-0.954-4.679-1.422-7.021
				c-0.636,0.123-1.271,0.249-1.906,0.378c-0.081-0.379-0.161-0.758-0.241-1.136c0.64-0.13,1.28-0.257,1.919-0.38
				c-0.026-0.133-0.053-0.267-0.079-0.399c-0.263-1.319-0.258-2.441,0.023-3.363c0.282-0.923,0.792-1.663,1.53-2.215
				c0.736-0.553,1.705-0.928,2.895-1.118c1.108-0.177,2.001-0.075,2.675,0.299c0.671,0.375,1.053,0.907,1.151,1.594
				c0.078,0.546-0.045,1.021-0.36,1.424c-0.317,0.404-0.729,0.643-1.236,0.719c-0.476,0.072-0.897-0.002-1.264-0.226
				c-0.367-0.223-0.585-0.535-0.651-0.939c-0.068-0.418,0.116-0.822,0.558-1.212c0.212-0.193,0.31-0.346,0.292-0.46
				c-0.016-0.099-0.09-0.171-0.223-0.215c-0.205-0.07-0.463-0.082-0.775-0.031c-0.412,0.066-0.773,0.236-1.085,0.514
				c-0.311,0.277-0.514,0.627-0.608,1.05c-0.135,0.626-0.142,1.269-0.025,1.924C76.045,134.459,76.167,135.15,76.292,135.842z"/>
			<path fill="#FFFFFF" d="M89.431,143.189c0.035,0.332,0.07,0.662,0.105,0.994c-2.45,0.245-4.898,0.547-7.343,0.905
				c-0.051-0.33-0.103-0.659-0.154-0.987c0.304-0.045,0.61-0.089,0.915-0.132c0.377-0.053,0.641-0.16,0.794-0.322
				s0.214-0.359,0.181-0.593c-0.279-1.966-0.555-3.932-0.828-5.897c-0.066-0.476-0.234-0.808-0.507-0.994
				c-0.271-0.188-0.626-0.25-1.062-0.189c-0.21,0.03-0.42,0.061-0.63,0.091c-0.047-0.312-0.094-0.625-0.141-0.935
				c1.583-0.307,3.17-0.592,4.759-0.854c0.131,1.084,0.262,2.17,0.395,3.253c0.142-1.119,0.525-2.013,1.152-2.671
				c0.627-0.658,1.383-1.031,2.255-1.114c0.745-0.072,1.35,0.054,1.812,0.372c0.461,0.315,0.714,0.754,0.759,1.312
				c0.04,0.479-0.077,0.876-0.345,1.198c-0.271,0.322-0.615,0.5-1.038,0.537c-0.376,0.034-0.712-0.063-1.007-0.295
				c-0.298-0.23-0.466-0.545-0.507-0.944c-0.022-0.221,0.019-0.459,0.125-0.713c0.055-0.142,0.08-0.243,0.074-0.299
				c-0.01-0.1-0.043-0.171-0.099-0.212c-0.056-0.041-0.14-0.055-0.25-0.045c-0.286,0.03-0.585,0.208-0.893,0.544
				c-0.472,0.517-0.829,1.285-1.066,2.303c-0.238,1.018-0.292,2.025-0.172,3.021c0.087,0.719,0.173,1.437,0.261,2.155
				c0.03,0.25,0.125,0.431,0.285,0.547c0.159,0.114,0.367,0.158,0.623,0.13C88.398,143.295,88.915,143.241,89.431,143.189z"/>
			<path fill="#FFFFFF" d="M93.719,133.738c1.658-0.182,3.318-0.341,4.981-0.475c0.115,2.844,0.232,5.689,0.351,8.533
				c0.01,0.229,0.094,0.401,0.255,0.522c0.16,0.119,0.398,0.173,0.715,0.162c0.238-0.008,0.477-0.016,0.714-0.022
				c0.011,0.333,0.021,0.666,0.031,0.999c-2.109,0.061-4.219,0.167-6.327,0.311c-0.024-0.332-0.048-0.664-0.073-0.996
				c0.234-0.017,0.469-0.031,0.703-0.047c0.377-0.026,0.638-0.123,0.784-0.297c0.144-0.174,0.205-0.465,0.179-0.871
				c-0.119-1.937-0.236-3.875-0.353-5.812c-0.022-0.365-0.155-0.642-0.402-0.827c-0.246-0.187-0.577-0.266-0.99-0.239
				c-0.167,0.011-0.333,0.021-0.5,0.034C93.764,134.389,93.741,134.064,93.719,133.738z M96.502,127.761
				c0.554-0.027,1.039,0.121,1.449,0.442c0.411,0.324,0.624,0.73,0.643,1.216c0.019,0.487-0.161,0.908-0.536,1.264
				s-0.834,0.547-1.376,0.575c-0.551,0.029-1.03-0.116-1.441-0.438c-0.411-0.32-0.633-0.72-0.663-1.197
				c-0.03-0.486,0.14-0.913,0.516-1.275C95.469,127.987,95.939,127.79,96.502,127.761z"/>
			<path fill="#FFFFFF" d="M113.976,138.646c-2.542-0.132-5.084-0.204-7.628-0.217c0.016,1.411,0.314,2.453,0.887,3.128
				c0.573,0.676,1.305,1.02,2.209,1.044c0.648,0.015,1.267-0.137,1.863-0.459c0.595-0.323,1.22-0.92,1.884-1.792
				c0.272,0.174,0.543,0.349,0.813,0.524c-0.708,1.038-1.48,1.772-2.324,2.2c-0.843,0.432-1.851,0.628-3.035,0.604
				c-1.724-0.033-3.11-0.535-4.193-1.532c-1.081-0.994-1.651-2.269-1.678-3.838c-0.027-1.566,0.508-2.891,1.64-3.95
				c1.13-1.059,2.547-1.583,4.216-1.552c1.156,0.021,2.146,0.262,2.956,0.714c0.813,0.453,1.426,1.098,1.842,1.931
				C113.843,136.284,114.022,137.35,113.976,138.646z M106.353,137.451c1.218,0.006,2.436,0.027,3.653,0.06
				c0.342,0.01,0.589-0.062,0.744-0.214c0.152-0.154,0.237-0.436,0.251-0.852c0.028-0.83-0.158-1.482-0.565-1.947
				c-0.406-0.467-0.938-0.709-1.591-0.721c-0.772-0.015-1.368,0.285-1.782,0.898C106.649,135.286,106.414,136.212,106.353,137.451z"
				/>
			<path fill="#FFFFFF" d="M130.221,144.302c-0.054,0.329-0.108,0.658-0.163,0.987c-2.104-0.326-4.21-0.61-6.318-0.853
				c0.041-0.332,0.081-0.662,0.121-0.992c0.223,0.024,0.445,0.052,0.667,0.078c0.355,0.044,0.629-0.01,0.825-0.159
				c0.196-0.15,0.316-0.386,0.36-0.714c0.192-1.441,0.382-2.883,0.571-4.326c0.097-0.74-0.014-1.329-0.337-1.77
				c-0.323-0.44-0.79-0.696-1.396-0.764c-0.827-0.094-1.533,0.115-2.109,0.622c-0.576,0.506-0.914,1.3-1.022,2.376
				c-0.113,1.117-0.226,2.231-0.34,3.346c-0.034,0.329,0.03,0.585,0.189,0.774c0.16,0.189,0.379,0.295,0.658,0.325
				c0.268,0.028,0.536,0.056,0.803,0.084c-0.037,0.331-0.075,0.662-0.113,0.993c-2.191-0.235-4.385-0.427-6.579-0.572
				c0.023-0.332,0.046-0.664,0.07-0.996c0.288,0.02,0.574,0.04,0.861,0.06c0.333,0.023,0.589-0.044,0.774-0.202
				c0.184-0.158,0.29-0.401,0.317-0.73c0.164-1.988,0.325-3.976,0.485-5.965c0.027-0.342-0.079-0.625-0.32-0.849
				c-0.243-0.221-0.575-0.351-0.997-0.379c-0.159-0.011-0.318-0.021-0.477-0.032c0.021-0.311,0.042-0.623,0.063-0.933
				c1.568,0.03,3.138,0.081,4.709,0.153c0.108,0.63,0.164,1.372,0.166,2.229c0.725-0.73,1.48-1.25,2.264-1.561
				c0.784-0.312,1.591-0.416,2.413-0.315c1.116,0.139,1.954,0.585,2.502,1.335c0.539,0.748,0.715,1.712,0.538,2.888
				c-0.232,1.538-0.465,3.075-0.701,4.612c-0.054,0.354-0.007,0.622,0.143,0.803c0.149,0.181,0.412,0.301,0.788,0.356
				C129.83,144.241,130.025,144.272,130.221,144.302z"/>
			<path fill="#FFFFFF" d="M141.545,131.171c1.926,0.333,3.854,0.699,5.78,1.097c-1.053,4.258-2.13,8.515-3.23,12.769
				c-0.169,0.654-0.237,1.104-0.201,1.353c0.034,0.249,0.135,0.447,0.303,0.596c0.168,0.147,0.527,0.291,1.08,0.43
				c-0.084,0.308-0.169,0.617-0.253,0.925c-1.438-0.32-2.877-0.62-4.317-0.899c0.05-0.658,0.098-1.317,0.144-1.976
				c-0.854,0.655-1.571,1.062-2.165,1.215c-0.594,0.154-1.285,0.149-2.082-0.008c-1.428-0.282-2.5-0.946-3.24-2.016
				c-0.739-1.069-0.985-2.378-0.713-3.939c0.301-1.722,1.034-3.008,2.232-3.84c1.196-0.831,2.567-1.101,4.083-0.8
				c0.813,0.161,1.505,0.467,2.067,0.913c0.564,0.445,1.022,1.076,1.371,1.887c0.346-1.487,0.69-2.977,1.031-4.464
				c0.122-0.531,0.153-0.925,0.091-1.18c-0.063-0.256-0.179-0.448-0.351-0.578c-0.173-0.128-0.558-0.26-1.155-0.386
				c-0.226-0.048-0.45-0.094-0.675-0.141C141.41,131.81,141.478,131.49,141.545,131.171z M139.763,137.653
				c-0.917-0.188-1.676,0.037-2.268,0.668c-0.487,0.512-0.853,1.408-1.107,2.679c-0.211,1.061-0.271,1.873-0.18,2.435
				c0.091,0.561,0.292,1.005,0.604,1.333c0.312,0.33,0.699,0.54,1.165,0.635c0.766,0.157,1.449-0.016,2.059-0.523
				c0.812-0.661,1.371-1.611,1.665-2.851c0.272-1.151,0.208-2.133-0.203-2.936C141.088,138.287,140.506,137.807,139.763,137.653z"/>
			<path fill="#FFFFFF" d="M157.325,141.668c0.347-0.187,0.695-0.375,1.044-0.562c0.241,0.078,0.481,0.155,0.722,0.233
				c-0.295,1.114-0.595,2.227-0.898,3.337c-0.313-0.101-0.625-0.203-0.938-0.303c-0.196-1.026-0.539-1.81-1.023-2.349
				c-0.481-0.538-1.155-0.938-2.012-1.191c-0.739-0.219-1.341-0.254-1.8-0.117c-0.459,0.139-0.744,0.399-0.857,0.779
				c-0.111,0.372-0.047,0.697,0.189,0.975c0.234,0.283,0.975,0.73,2.211,1.354c1.121,0.57,1.847,0.995,2.19,1.261
				c0.655,0.5,1.098,1.084,1.326,1.742c0.23,0.659,0.216,1.337-0.036,2.035c-0.317,0.881-0.977,1.491-1.96,1.842
				c-0.984,0.35-2.093,0.333-3.341-0.046c-0.602-0.182-1.127-0.411-1.574-0.687c-0.447-0.278-0.885-0.661-1.317-1.146
				c-0.354,0.214-0.705,0.43-1.055,0.646c-0.281-0.078-0.561-0.153-0.842-0.229c0.291-1.239,0.578-2.479,0.861-3.719
				c0.314,0.084,0.629,0.169,0.943,0.256c0.26,2.069,1.322,3.363,3.23,3.939c0.785,0.239,1.429,0.284,1.941,0.135
				c0.511-0.146,0.836-0.415,0.971-0.804c0.123-0.354,0.085-0.666-0.115-0.933c-0.2-0.267-0.832-0.686-1.903-1.244
				c-1.158-0.597-1.94-1.034-2.339-1.326c-0.686-0.487-1.155-1.021-1.407-1.606c-0.251-0.587-0.283-1.217-0.09-1.893
				c0.275-0.967,0.863-1.66,1.776-2.076c0.912-0.415,1.994-0.444,3.229-0.081c0.603,0.177,1.124,0.402,1.562,0.671
				C156.452,140.833,156.89,141.199,157.325,141.668z"/>
		</g>
	</g>
</g>
</svg>
