<?xml version="1.0" encoding="utf-8"?>
<!-- Generator: Adobe Illustrator 16.0.0, SVG Export Plug-In . SVG Version: 6.00 Build 0)  -->
<!DOCTYPE svg PUBLIC "-//W3C//DTD SVG 1.1//EN" "http://www.w3.org/Graphics/SVG/1.1/DTD/svg11.dtd">
<svg version="1.1" id="Livello_1" xmlns="http://www.w3.org/2000/svg" xmlns:xlink="http://www.w3.org/1999/xlink" x="0px" y="0px"
	 width="230px" height="200px" viewBox="0 0 230 200" enable-background="new 0 0 230 200" xml:space="preserve">
<g>
	<circle fill="#55ABE0" cx="113.481" cy="96.397" r="82.153"/>
	<path fill="#0572B7" d="M99.942,23.85c-7.636,1.505-14.855,4.161-21.472,7.785l20.294,42.714h1.809l10.134-27.842L99.942,23.85z"/>
	<polygon fill="none" points="110.707,46.507 100.573,74.349 123.935,74.349 	"/>
	<path fill="#A67D3C" d="M112.928,87.407c-9.469,0-17.143-4.693-17.143-10.482s7.674-10.481,17.143-10.481
		c9.468,0,17.142,4.692,17.142,10.481S122.396,87.407,112.928,87.407z M112.928,62.25c-13.252,0-24,6.571-24,14.675
		s10.748,14.674,24,14.674c13.251,0,23.998-6.57,23.998-14.674S126.179,62.25,112.928,62.25z"/>
	<g>
		<path fill="#A67D3C" d="M114.066,80.611c-21.521,0-38.974,17.571-38.974,39.239c0,21.666,17.453,39.238,38.974,39.238
			c21.519,0,38.973-17.572,38.973-39.238C153.039,98.183,135.585,80.611,114.066,80.611z M114.066,147.878
			c-15.377,0-27.838-12.547-27.838-28.027c0-15.481,12.461-28.028,27.838-28.028c15.376,0,27.838,12.547,27.838,28.028
			C141.904,135.331,129.442,147.878,114.066,147.878z"/>
		<g>
			<path fill="#C19751" d="M114.074,80.761c0,0-0.959,0.046-2.756,0.132c-0.447,0.034-0.955,0.019-1.499,0.1
				c-0.544,0.082-1.137,0.172-1.778,0.269c-0.639,0.108-1.336,0.175-2.062,0.338c-0.721,0.188-1.486,0.389-2.297,0.601
				c-3.197,0.929-7.064,2.378-10.887,5.059C88.963,89.873,85.061,93.531,82,98.349c-3.036,4.809-5.27,10.696-5.951,17.15
				c-0.114,0.802-0.084,1.623-0.133,2.44c-0.008,0.809-0.116,1.672-0.041,2.447c0.118,1.68,0.117,3.432,0.46,5.06
				c0.417,3.328,1.525,6.683,2.893,9.901c0.386,0.791,0.772,1.584,1.161,2.381c0.388,0.797,0.909,1.524,1.359,2.295l0.7,1.143
				c0.249,0.371,0.535,0.719,0.801,1.081c0.55,0.71,1.065,1.451,1.646,2.143c2.35,2.752,5.114,5.176,8.147,7.256
				c3.085,2.013,6.478,3.559,10.016,4.678c3.57,1.042,7.287,1.506,11.008,1.565c1.772-0.145,3.858-0.13,5.58-0.516l1.349-0.221
				l0.674-0.109l0.671-0.182l2.679-0.721c3.501-1.174,6.84-2.767,9.858-4.811c2.97-2.11,5.65-4.557,7.935-7.294
				c2.196-2.8,4.106-5.78,5.459-8.966c1.332-3.177,2.406-6.438,2.808-9.75c0.334-1.637,0.319-3.293,0.431-4.917l0.031-0.536
				l-0.023-0.631l-0.047-1.257c-0.05-0.822-0.021-1.691-0.134-2.461c-0.108-0.772-0.215-1.539-0.321-2.3
				c-0.06-0.381-0.089-0.762-0.171-1.141l-0.269-1.131c-0.175-0.755-0.348-1.503-0.52-2.245c-0.221-0.729-0.482-1.438-0.717-2.152
				c-0.94-2.856-2.279-5.455-3.697-7.875c-2.953-4.782-6.745-8.462-10.496-11.125c-3.742-2.727-7.562-4.231-10.733-5.208
				c-0.804-0.224-1.564-0.435-2.28-0.634c-0.723-0.174-1.418-0.248-2.055-0.365c-0.641-0.105-1.233-0.203-1.775-0.293
				c-0.543-0.089-1.047-0.079-1.492-0.119c-1.788-0.11-2.742-0.169-2.742-0.169L114.074,80.761z M114.066,80.461
				c0,0,0.963,0.039,2.768,0.111c0.45,0.031,0.959,0.011,1.509,0.089c0.55,0.079,1.15,0.165,1.8,0.257
				c0.646,0.105,1.353,0.166,2.087,0.326c0.731,0.176,1.51,0.363,2.331,0.561c3.248,0.882,7.197,2.24,11.216,4.792
				c4.011,2.517,8.173,6.098,11.58,10.941c3.39,4.857,5.975,10.864,6.857,17.789c0.139,0.86,0.129,1.662,0.2,2.505l0.08,1.255
				l0.039,0.63c0-0.041,0.008,0.144,0.005,0.155l-0.004,0.082l-0.007,0.164l-0.016,0.329c-0.101,1.752-0.082,3.537-0.422,5.309
				c-0.414,3.58-1.537,7.121-2.96,10.571c-0.408,0.842-0.817,1.687-1.229,2.535c-0.412,0.848-0.96,1.626-1.438,2.444l-0.744,1.217
				c-0.266,0.396-0.566,0.768-0.848,1.152c-0.582,0.758-1.131,1.546-1.747,2.282c-2.487,2.938-5.44,5.51-8.672,7.717
				c-3.286,2.14-6.899,3.783-10.671,4.965l-2.878,0.719l-0.72,0.179l-0.746,0.109l-1.493,0.216
				c-0.996,0.146-1.998,0.307-2.942,0.306l-2.937,0.121c-3.955-0.116-7.894-0.671-11.66-1.832
				c-3.734-1.237-7.294-2.928-10.515-5.099c-3.168-2.237-6.035-4.831-8.457-7.755c-0.599-0.734-1.131-1.52-1.694-2.272
				c-0.273-0.383-0.565-0.753-0.821-1.146l-0.719-1.207c-0.46-0.813-0.99-1.584-1.386-2.424c-0.394-0.839-0.787-1.675-1.178-2.507
				c-1.387-3.407-2.476-6.856-2.874-10.42c-0.331-1.78-0.298-3.471-0.394-5.166c-0.007-0.229-0.023-0.384-0.021-0.672l0.039-0.643
				l0.079-1.278c0.072-0.848,0.064-1.696,0.201-2.524c0.869-6.665,3.318-12.68,6.601-17.482c3.302-4.808,7.354-8.41,11.282-10.976
				c3.938-2.597,7.842-4.011,11.062-4.939c0.816-0.209,1.589-0.407,2.315-0.594c0.73-0.17,1.435-0.24,2.079-0.354
				c0.648-0.102,1.248-0.195,1.797-0.281s1.053-0.072,1.502-0.109c1.796-0.097,2.754-0.147,2.754-0.147L114.066,80.461z"/>
			<path fill="#C19751" d="M114.059,148.027c0,0-0.685-0.037-1.968-0.107c-0.32-0.027-0.679-0.018-1.072-0.079
				c-0.394-0.062-0.822-0.13-1.286-0.202c-0.461-0.082-0.966-0.134-1.488-0.255c-0.52-0.133-1.072-0.274-1.656-0.424
				c-2.304-0.662-5.098-1.667-7.928-3.511c-2.82-1.824-5.735-4.389-8.129-7.823c-2.379-3.43-4.158-7.744-4.805-12.535
				c-0.102-0.596-0.1-1.206-0.153-1.815c-0.021-0.623-0.127-1.199-0.077-1.873c0.064-1.214,0.037-2.412,0.271-3.706
				c0.281-2.578,1.057-5.057,2.049-7.517c1.025-2.449,2.479-4.745,4.159-6.9c1.739-2.113,3.804-3.99,6.086-5.61
				c2.319-1.573,4.887-2.801,7.582-3.701c2.719-0.847,5.564-1.255,8.423-1.346c1.507,0.082,2.73,0.024,4.242,0.292
				c1.473,0.147,2.846,0.528,4.235,0.871c2.732,0.846,5.354,2.026,7.739,3.567c2.346,1.59,4.494,3.444,6.3,5.573
				c1.749,2.165,3.277,4.484,4.367,6.975c1.028,2.504,1.838,5.074,2.135,7.669c0.243,1.285,0.229,2.579,0.301,3.849l0.011,0.238
				l0.005,0.119l0.002,0.059l-0.004,0.133l-0.03,0.45l-0.062,0.896c-0.055,0.604-0.05,1.167-0.152,1.795
				c-0.661,5.051-2.576,9.357-5.063,12.843c-2.498,3.469-5.524,6.013-8.427,7.789c-2.909,1.798-5.75,2.747-8.081,3.362
				c-0.589,0.138-1.147,0.268-1.672,0.39c-0.527,0.112-1.032,0.154-1.496,0.228c-0.465,0.064-0.895,0.124-1.289,0.178
				c-0.394,0.055-0.758,0.039-1.08,0.06c-1.291,0.046-1.98,0.071-1.98,0.071L114.059,148.027z M114.066,147.728
				c0,0,0.68-0.044,1.955-0.129c0.318-0.029,0.676-0.024,1.063-0.089c0.387-0.065,0.809-0.137,1.265-0.215
				c0.454-0.085,0.949-0.141,1.463-0.266c0.51-0.146,1.051-0.301,1.622-0.464c2.254-0.71,4.965-1.806,7.599-3.777
				c2.643-1.923,5.299-4.565,7.344-7.974c0.981-1.723,1.896-3.572,2.543-5.59c0.161-0.505,0.342-1.006,0.491-1.521
				c0.116-0.523,0.233-1.052,0.351-1.584c0.297-1.064,0.338-2.124,0.515-3.201c0.075-0.537,0.054-1.168,0.085-1.753l0.029-0.897
				l0.014-0.451c0.002-0.086,0,0.054-0.001,0.02l-0.003-0.054l-0.006-0.106l-0.013-0.215c-0.082-1.142-0.071-2.307-0.309-3.456
				c-0.285-2.327-1.045-4.617-1.983-6.848c-0.944-2.24-2.281-4.338-3.82-6.31c-1.603-1.928-3.479-3.657-5.562-5.149
				c-2.118-1.447-4.464-2.576-6.927-3.414c-1.255-0.34-2.514-0.726-3.771-0.882c-1.183-0.275-2.717-0.272-3.943-0.38
				c-2.624,0.035-5.248,0.352-7.771,1.079c-2.499,0.782-4.899,1.865-7.083,3.28c-2.147,1.463-4.108,3.17-5.776,5.111
				c-1.607,1.982-3.019,4.104-4.028,6.386c-0.974,2.273-1.768,4.655-2.068,6.999c-0.246,1.142-0.25,2.401-0.338,3.6
				c-0.055,0.534,0.02,1.157,0.021,1.727c0.032,0.58,0.007,1.163,0.085,1.732c0.46,4.579,2.023,8.768,4.157,12.203
				c2.15,3.443,4.916,6.064,7.641,7.939c2.715,1.927,5.472,2.967,7.752,3.63c0.578,0.151,1.124,0.294,1.639,0.429
				c0.518,0.116,1.015,0.162,1.471,0.239c0.457,0.068,0.88,0.132,1.268,0.189s0.751,0.046,1.07,0.07
				c1.284,0.06,1.969,0.092,1.969,0.092L114.066,147.728z"/>
		</g>
	</g>
	<g>
		<circle fill="#C19650" cx="114.066" cy="119.569" r="30.438"/>
		<path fill="#926F34" d="M144.654,119.577c0,0-0.033,0.746-0.093,2.146c-0.024,0.35-0.012,0.74-0.071,1.17
			c-0.062,0.43-0.129,0.898-0.203,1.404c-0.085,0.505-0.129,1.058-0.238,1.634c-0.131,0.571-0.271,1.179-0.418,1.821
			c-0.076,0.321-0.152,0.651-0.232,0.989c-0.11,0.329-0.225,0.667-0.341,1.012c-0.238,0.688-0.423,1.439-0.737,2.173
			c-0.317,0.734-0.647,1.499-0.99,2.292c-0.393,0.771-0.834,1.552-1.275,2.374c-1.9,3.182-4.622,6.549-8.418,9.273
			c-3.785,2.71-8.646,4.661-13.978,5.24c-0.663,0.091-1.341,0.064-2.017,0.102l-1.019,0.031l-0.511,0.016l-0.127-0.001l-0.062-0.005
			l-0.123-0.008l-0.246-0.018c-1.32-0.122-2.616-0.159-4.045-0.479c-2.826-0.438-5.488-1.41-8.102-2.623
			c-2.606-1.232-4.981-2.953-7.233-4.821c-2.196-1.95-4.152-4.189-5.846-6.648c-1.65-2.491-2.947-5.229-3.928-8.097
			c-0.95-2.903-1.439-5.878-1.595-9.027c-0.038-2.92,0.264-6.144,1.056-9.107c0.878-2.958,2.109-5.812,3.748-8.411
			c1.688-2.562,3.699-4.887,5.98-6.867c2.325-1.918,4.822-3.604,7.516-4.808c2.686-1.188,5.48-2.084,8.301-2.43
			c1.396-0.274,2.805-0.275,4.188-0.355l0.259-0.01l0.13-0.005l0.064-0.003l0.144,0.005l0.491,0.029l0.977,0.06
			c0.659,0.056,1.271,0.044,1.957,0.154c1.354,0.24,2.747,0.363,3.986,0.757c0.632,0.17,1.26,0.339,1.882,0.506
			c0.61,0.208,1.2,0.459,1.791,0.685c1.2,0.415,2.286,1.033,3.375,1.578c0.556,0.253,1.046,0.611,1.548,0.935
			c0.498,0.328,0.99,0.652,1.479,0.974c3.789,2.754,6.504,6.129,8.401,9.318c1.927,3.201,2.909,6.31,3.571,8.851
			c0.146,0.643,0.285,1.251,0.416,1.823c0.108,0.575,0.151,1.126,0.234,1.63c0.072,0.506,0.139,0.974,0.199,1.402
			c0.059,0.429,0.045,0.824,0.067,1.176c0.057,1.406,0.087,2.156,0.087,2.156V119.577z M144.354,119.569c0,0-0.045-0.741-0.13-2.133
			c-0.03-0.347-0.024-0.737-0.091-1.159c-0.069-0.423-0.145-0.883-0.227-1.381c-0.086-0.497-0.154-1.036-0.295-1.596
			c-0.16-0.555-0.329-1.145-0.508-1.769c-0.761-2.462-1.998-5.404-4.147-8.264c-2.104-2.874-5.014-5.709-8.685-7.955
			c-1.869-1.06-3.839-2.12-6.027-2.839c-0.544-0.184-1.092-0.369-1.645-0.557c-0.567-0.139-1.139-0.278-1.714-0.419
			c-1.153-0.345-2.307-0.396-3.479-0.6c-0.582-0.091-1.271-0.069-1.907-0.11l-0.979-0.039l-0.491-0.02
			c-0.093-0.002,0.058-0.001,0.021,0.001l-0.059,0.004l-0.116,0.008l-0.233,0.015c-1.245,0.086-2.516,0.063-3.771,0.315
			c-2.543,0.299-5.043,1.12-7.503,2.102c-2.459,1.021-4.755,2.494-6.919,4.181c-2.129,1.743-3.988,3.838-5.638,6.116
			c-1.606,2.315-2.857,4.892-3.798,7.599c-0.916,2.748-1.388,5.487-1.565,8.54c-0.015,2.824,0.268,5.811,1.024,8.621
			c0.839,2.796,2.023,5.489,3.619,7.913c0.395,0.606,0.85,1.171,1.281,1.748c0.223,0.283,0.424,0.583,0.664,0.852l0.73,0.791
			c0.502,0.512,0.938,1.087,1.489,1.544l1.608,1.399c2.236,1.736,4.654,3.174,7.199,4.166c2.533,0.958,5.167,1.703,7.702,1.909
			c1.225,0.208,2.606,0.148,3.915,0.192l0.246,0.008l0.123,0.004l0.062,0.002c0.035,0.002-0.079-0.005-0.003-0.005l0.471-0.034
			l0.937-0.066c0.62-0.06,1.243-0.053,1.849-0.162c4.879-0.64,9.271-2.365,12.947-4.606c3.663-2.276,6.568-5.118,8.668-8
			c2.148-2.864,3.387-5.809,4.143-8.274c0.178-0.624,0.347-1.214,0.505-1.77c0.14-0.56,0.208-1.097,0.292-1.593
			c0.08-0.497,0.154-0.957,0.222-1.378c0.065-0.422,0.059-0.818,0.088-1.166c0.081-1.397,0.124-2.144,0.124-2.144V119.569z"/>
	</g>
	<path fill="#328ACA" d="M119.413,22.585l-8.706,23.922l-10.134,27.842l-0.214,0.586h25.17l17.135-47.078
		C135.406,24.931,127.587,23.106,119.413,22.585z"/>
	<circle fill="none" stroke="#A67D3C" stroke-width="5" stroke-miterlimit="10" cx="113.481" cy="96.397" r="75.216"/>
	<g>
		<g>
			<path fill="#0572B7" stroke="#A67D3C" stroke-width="4" stroke-miterlimit="10" d="M218.189,153.939
				c-6.562-1.267-12.94-2.861-19.115-4.75c2.964-6.088,5.604-12.242,7.921-18.431c-52.148,29.121-114.772,31.745-168.899,7.72
				c-4.867-2.171-9.666-4.558-14.381-7.16c2.587,6.365,5.521,12.695,8.804,18.955c-5.812,1.755-11.8,3.237-17.947,4.422
				C78.048,189.194,154.859,188.956,218.189,153.939L218.189,153.939L218.189,153.939z"/>
		</g>
	</g>
	<g>
		<g>
			<path fill="#A67D3C" d="M50.288,147.341c2.497,1.03,5.013,2,7.544,2.908c1.49,0.534,2.553,1.23,3.191,2.123
				c0.637,0.892,0.846,1.804,0.607,2.747c-0.199,0.786-0.652,1.364-1.359,1.721c-0.71,0.357-1.685,0.502-2.915,0.416
				c1.341,0.771,2.304,1.557,2.871,2.387c0.567,0.826,0.746,1.688,0.521,2.591c-0.17,0.688-0.529,1.231-1.079,1.628
				c-0.553,0.396-1.358,0.617-2.427,0.654c-1.068,0.035-2.223-0.164-3.452-0.612c-2.617-0.948-5.218-1.959-7.798-3.03
				c0.071-0.229,0.144-0.458,0.217-0.687c0.418,0.175,0.839,0.347,1.261,0.519c0.38,0.154,0.675,0.209,0.884,0.17
				c0.211-0.039,0.335-0.129,0.38-0.271c1.108-3.632,2.216-7.262,3.325-10.894c0.079-0.257,0.057-0.484-0.066-0.682
				c-0.123-0.194-0.34-0.356-0.653-0.483c-0.423-0.171-0.845-0.344-1.269-0.518C50.145,147.799,50.213,147.568,50.288,147.341z
				 M52.758,155.322c0.942,0.36,1.884,0.712,2.832,1.056c0.874,0.317,1.635,0.327,2.277,0.036c0.645-0.293,1.105-0.977,1.39-2.051
				c0.174-0.666,0.191-1.227,0.048-1.682s-0.422-0.849-0.834-1.181c-0.418-0.335-1.18-0.696-2.307-1.112
				c-0.794-0.293-1.305-0.429-1.524-0.392c-0.221,0.035-0.376,0.187-0.452,0.458C53.713,152.076,53.234,153.699,52.758,155.322z
				 M52.554,156.015c-0.514,1.754-1.03,3.508-1.546,5.263c-0.074,0.246-0.046,0.463,0.081,0.647c0.127,0.186,0.403,0.358,0.827,0.52
				c0.623,0.234,1.244,0.463,1.868,0.69c1.243,0.452,2.229,0.529,2.95,0.245c0.728-0.283,1.22-0.944,1.486-1.979
				c0.248-0.947,0.138-1.797-0.32-2.547c-0.455-0.751-1.211-1.312-2.261-1.691C54.609,156.79,53.579,156.405,52.554,156.015z"/>
			<path fill="#A67D3C" d="M63.163,157.548c1.158,0.308,2.318,0.6,3.479,0.883c-0.268,1.193-0.539,2.388-0.807,3.581
				c0.641-1.07,1.284-1.832,1.939-2.29c0.654-0.457,1.361-0.583,2.128-0.375c0.519,0.143,0.907,0.399,1.16,0.775
				c0.253,0.378,0.333,0.814,0.231,1.308c-0.08,0.399-0.246,0.684-0.506,0.85c-0.257,0.168-0.545,0.209-0.864,0.123
				c-0.313-0.083-0.544-0.247-0.696-0.489s-0.19-0.522-0.123-0.847c0.042-0.209,0.141-0.391,0.289-0.543
				c0.139-0.136,0.211-0.222,0.217-0.252c0.021-0.096-0.033-0.159-0.166-0.196c-0.283-0.077-0.637-0.013-1.056,0.191
				c-0.587,0.286-1.095,0.756-1.529,1.418c-0.67,1.028-1.085,1.885-1.239,2.571c-0.143,0.634-0.283,1.268-0.426,1.9
				c-0.048,0.215,0,0.401,0.146,0.565c0.143,0.164,0.424,0.307,0.834,0.421c0.421,0.119,0.844,0.239,1.268,0.355
				c-0.052,0.238-0.099,0.475-0.151,0.712c-2.074-0.574-4.141-1.184-6.199-1.834c0.056-0.235,0.111-0.47,0.17-0.704
				c0.328,0.104,0.655,0.204,0.985,0.307c0.331,0.104,0.596,0.121,0.792,0.056c0.196-0.064,0.317-0.179,0.353-0.343
				c0.438-1.877,0.873-3.754,1.309-5.63c0.097-0.427,0.075-0.771-0.079-1.027c-0.154-0.258-0.411-0.444-0.78-0.558
				c-0.281-0.086-0.56-0.174-0.839-0.262C63.056,157.994,63.109,157.77,63.163,157.548z"/>
			<path fill="#A67D3C" d="M77.258,161.057c1.305,0.292,2.327,0.96,3.085,2.02c0.755,1.058,1.034,2.304,0.817,3.734
				c-0.15,0.99-0.482,1.791-1.002,2.406c-0.52,0.613-1.197,1.043-2.028,1.285c-0.835,0.24-1.694,0.264-2.581,0.062
				c-1.312-0.296-2.344-1.004-3.077-2.104c-0.738-1.101-0.959-2.353-0.686-3.752c0.274-1.402,0.944-2.431,1.987-3.093
				C74.818,160.952,75.977,160.768,77.258,161.057z M77.14,161.737c-0.774-0.175-1.47,0.002-2.087,0.531
				c-0.618,0.529-1.059,1.488-1.32,2.883c-0.263,1.421-0.207,2.521,0.184,3.299c0.387,0.778,0.992,1.263,1.806,1.446
				c0.84,0.188,1.578,0.009,2.206-0.541c0.627-0.549,1.061-1.577,1.301-3.076c0.223-1.39,0.135-2.449-0.262-3.177
				C78.57,162.377,77.963,161.922,77.14,161.737z"/>
			<path fill="#A67D3C" d="M83.262,162.573c1.088,0.142,2.181,0.272,3.271,0.394c0.058,0.59,0.069,1.271,0.035,2.043
				c0.528-0.583,1.11-0.995,1.746-1.229c0.637-0.236,1.332-0.299,2.085-0.188c0.649,0.096,1.182,0.288,1.598,0.585
				c0.417,0.296,0.73,0.715,0.948,1.265c0.215,0.545,0.295,1.141,0.232,1.774c-0.145,1.479-0.289,2.958-0.437,4.438
				c-0.032,0.33,0.028,0.577,0.182,0.738c0.152,0.158,0.426,0.269,0.818,0.313c0.239,0.029,0.479,0.059,0.72,0.087
				c-0.021,0.244-0.043,0.487-0.066,0.73c-1.802-0.212-3.601-0.452-5.396-0.72c0.029-0.242,0.055-0.484,0.083-0.728
				c0.17,0.025,0.344,0.05,0.512,0.075c0.481,0.07,0.82,0.048,1.022-0.062c0.203-0.109,0.318-0.301,0.348-0.574
				c0.138-1.297,0.275-2.598,0.413-3.897c0.09-0.851,0.016-1.497-0.222-1.945c-0.333-0.639-0.895-1.016-1.695-1.134
				c-0.789-0.12-1.486,0.07-2.092,0.572c-0.602,0.502-0.969,1.22-1.091,2.163c-0.145,1.121-0.289,2.239-0.434,3.36
				c-0.04,0.33,0.01,0.577,0.165,0.745c0.147,0.169,0.425,0.283,0.812,0.346c0.236,0.037,0.472,0.075,0.707,0.112
				c-0.029,0.243-0.059,0.485-0.088,0.728c-1.801-0.283-3.598-0.595-5.394-0.933c0.037-0.241,0.072-0.483,0.104-0.724
				c0.235,0.044,0.47,0.088,0.703,0.131c0.353,0.066,0.633,0.05,0.833-0.047c0.203-0.096,0.315-0.24,0.343-0.434
				c0.268-1.95,0.535-3.898,0.801-5.85c0.051-0.385-0.018-0.7-0.221-0.939c-0.198-0.24-0.512-0.397-0.937-0.478
				c-0.167-0.03-0.335-0.062-0.502-0.094C83.201,162.991,83.23,162.782,83.262,162.573z"/>
			<path fill="#A67D3C" d="M97.249,164.617c2.606,0.273,5.216,0.488,7.828,0.645c-0.009,0.195-0.019,0.391-0.026,0.587
				c-2.197,2.497-4.467,4.947-6.805,7.352c1.045,0.102,2.092,0.193,3.139,0.276c0.723,0.055,1.311-0.104,1.762-0.48
				c0.451-0.378,0.818-1.108,1.104-2.195c0.239,0.016,0.483,0.03,0.724,0.045c-0.134,1.197-0.268,2.395-0.403,3.592
				c-2.887-0.179-5.768-0.424-8.643-0.738c0.021-0.225,0.037-0.449,0.057-0.674c2.357-2.357,4.645-4.764,6.861-7.214
				c-0.878-0.064-1.755-0.133-2.633-0.211c-0.547-0.048-0.963-0.018-1.246,0.098c-0.281,0.116-0.533,0.323-0.756,0.626
				s-0.451,0.839-0.682,1.608c-0.264-0.026-0.527-0.054-0.79-0.082C96.909,166.772,97.082,165.695,97.249,164.617z"/>
			<path fill="#A67D3C" d="M116.043,170.24c-2.412,0.005-4.823-0.037-7.235-0.13c-0.001,1.402,0.256,2.399,0.789,2.994
				c0.611,0.67,1.405,1.017,2.38,1.037c1.434,0.03,2.594-0.692,3.452-2.152c0.236,0.093,0.472,0.184,0.708,0.274
				c-1.049,1.862-2.607,2.79-4.635,2.742c-1.382-0.031-2.533-0.52-3.443-1.448c-0.91-0.93-1.326-2.093-1.279-3.478
				c0.058-1.49,0.553-2.67,1.477-3.553c0.926-0.88,2.025-1.304,3.328-1.274c0.957,0.022,1.777,0.261,2.476,0.726
				c0.695,0.464,1.224,1.123,1.58,1.981C115.89,168.563,116.024,169.322,116.043,170.24z M108.828,169.413
				c1.455,0.056,2.908,0.093,4.363,0.112c0.262,0.004,0.458-0.074,0.604-0.233c0.145-0.16,0.218-0.432,0.219-0.818
				c0.004-0.722-0.236-1.333-0.716-1.845c-0.483-0.511-1.045-0.77-1.702-0.786c-0.735-0.018-1.357,0.27-1.89,0.86
				C109.179,167.294,108.883,168.199,108.828,169.413z"/>
			<path fill="#A67D3C" d="M124.179,165.355c0.941-0.101,1.88-0.214,2.819-0.33c0.19,0.674,0.328,1.316,0.411,1.936
				c0.5-0.754,1.006-1.299,1.524-1.633c0.517-0.335,1.092-0.529,1.734-0.585c0.682-0.061,1.254,0.054,1.724,0.343
				c0.47,0.288,0.854,0.797,1.156,1.521c0.415-0.759,0.896-1.346,1.438-1.762s1.151-0.665,1.83-0.748
				c0.894-0.11,1.587,0.048,2.09,0.484c0.644,0.575,1.025,1.374,1.14,2.406c0.167,1.518,0.335,3.034,0.503,4.551
				c0.028,0.274,0.126,0.448,0.29,0.526c0.219,0.122,0.527,0.154,0.928,0.097c0.17-0.025,0.339-0.049,0.511-0.075
				c0.028,0.244,0.06,0.489,0.086,0.733c-1.712,0.254-3.43,0.483-5.146,0.687c-0.023-0.243-0.047-0.489-0.069-0.734
				c0.17-0.021,0.342-0.041,0.512-0.062c0.434-0.053,0.734-0.158,0.896-0.311c0.158-0.151,0.228-0.36,0.2-0.622
				c-0.157-1.52-0.314-3.04-0.467-4.561c-0.071-0.679-0.307-1.183-0.7-1.511c-0.394-0.325-0.886-0.455-1.466-0.386
				c-0.441,0.052-0.831,0.209-1.171,0.467s-0.595,0.602-0.766,1.03c-0.254,0.614-0.367,1.125-0.333,1.531
				c0.108,1.319,0.218,2.64,0.326,3.958c0.021,0.271,0.119,0.459,0.288,0.57c0.171,0.11,0.425,0.148,0.759,0.113
				c0.234-0.024,0.463-0.05,0.698-0.077c0.021,0.247,0.044,0.489,0.065,0.735c-1.744,0.195-3.49,0.365-5.238,0.51
				c-0.017-0.246-0.031-0.49-0.049-0.736c0.197-0.016,0.394-0.032,0.59-0.05c0.37-0.031,0.644-0.123,0.817-0.27
				c0.172-0.15,0.254-0.323,0.235-0.526c-0.104-1.415-0.21-2.828-0.314-4.24c-0.066-0.896-0.289-1.532-0.66-1.906
				c-0.373-0.374-0.843-0.536-1.424-0.489c-0.75,0.061-1.307,0.343-1.685,0.841c-0.535,0.711-0.784,1.508-0.733,2.398
				c0.065,1.225,0.133,2.451,0.199,3.676c0.014,0.28,0.094,0.47,0.238,0.566c0.203,0.124,0.519,0.17,0.932,0.141
				c0.173-0.013,0.35-0.025,0.525-0.039c0.015,0.247,0.03,0.49,0.045,0.737c-1.727,0.13-3.454,0.237-5.185,0.318
				c-0.01-0.246-0.019-0.492-0.028-0.737c0.257-0.013,0.521-0.025,0.777-0.038c0.293-0.017,0.514-0.092,0.665-0.233
				c0.152-0.142,0.221-0.31,0.212-0.515c-0.096-2.011-0.186-4.022-0.279-6.034c-0.014-0.334-0.121-0.578-0.31-0.731
				c-0.191-0.153-0.563-0.237-1.116-0.256C124.197,165.808,124.188,165.583,124.179,165.355z"/>
			<path fill="#A67D3C" d="M152.653,166.35c-2.372,0.504-4.751,0.958-7.137,1.365c0.221,1.386,0.64,2.32,1.259,2.798
				c0.708,0.536,1.545,0.716,2.508,0.534c1.418-0.268,2.439-1.22,3.049-2.841c0.247,0.044,0.494,0.085,0.741,0.126
				c-0.733,2.058-2.114,3.296-4.117,3.668c-1.368,0.252-2.575,0.008-3.621-0.723c-1.042-0.731-1.646-1.793-1.818-3.175
				c-0.188-1.485,0.114-2.756,0.879-3.817s1.785-1.706,3.067-1.945c0.943-0.174,1.791-0.11,2.553,0.207
				c0.759,0.314,1.383,0.857,1.873,1.632C152.23,164.723,152.49,165.447,152.653,166.35z M145.424,167.021
				c1.439-0.245,2.876-0.508,4.311-0.789c0.256-0.05,0.439-0.168,0.555-0.355c0.117-0.188,0.143-0.471,0.084-0.854
				c-0.111-0.713-0.445-1.271-1.002-1.677c-0.552-0.405-1.155-0.547-1.802-0.426c-0.724,0.135-1.297,0.548-1.72,1.24
				C145.428,164.855,145.281,165.807,145.424,167.021z"/>
			<path fill="#A67D3C" d="M157.832,154.867c1.217-0.37,2.431-0.754,3.639-1.153c0.9,4.104,1.795,8.212,2.692,12.317
				c0.104,0.479,0.279,0.795,0.528,0.942c0.247,0.149,0.572,0.164,0.977,0.05c0.23-0.066,0.461-0.134,0.691-0.2
				c0.055,0.238,0.109,0.48,0.164,0.719c-1.136,0.331-2.279,0.651-3.421,0.959c-0.212-0.59-0.431-1.181-0.643-1.77
				c-0.267,0.764-0.642,1.382-1.119,1.855c-0.479,0.475-1.06,0.794-1.742,0.964c-1.145,0.285-2.211,0.085-3.172-0.594
				c-0.967-0.679-1.563-1.735-1.812-3.156c-0.272-1.54,0.018-2.877,0.848-4.027c0.65-0.9,1.477-1.471,2.487-1.726
				c0.616-0.155,1.203-0.153,1.751,0.007c0.549,0.161,1.068,0.484,1.559,0.969c-0.357-1.697-0.714-3.394-1.071-5.092
				c-0.057-0.27-0.211-0.453-0.462-0.552c-0.255-0.099-0.609-0.086-1.073,0.035c-0.226,0.059-0.448,0.117-0.676,0.175
				C157.929,155.35,157.88,155.107,157.832,154.867z M158.386,160.778c-0.743,0.189-1.282,0.619-1.612,1.3
				c-0.332,0.68-0.372,1.701-0.122,3.061c0.274,1.477,0.699,2.463,1.274,2.954c0.58,0.493,1.232,0.647,1.963,0.464
				c0.779-0.194,1.374-0.705,1.787-1.52c0.408-0.816,0.478-1.869,0.205-3.16c-0.257-1.219-0.748-2.102-1.465-2.648
				C159.793,160.742,159.116,160.595,158.386,160.778z"/>
			<path fill="#A67D3C" d="M177.781,162.792c0.176,0.132,0.351,0.261,0.527,0.391c-0.376,0.657-0.877,1.103-1.5,1.323
				c-0.48,0.17-0.913,0.194-1.302,0.075c-0.39-0.121-0.786-0.433-1.188-0.938c-0.495,0.86-0.976,1.48-1.426,1.861
				c-0.452,0.38-1.036,0.688-1.752,0.915c-1.018,0.324-1.846,0.368-2.469,0.135c-0.626-0.235-1.009-0.662-1.153-1.281
				c-0.218-0.935,0.202-1.882,1.245-2.869c1.042-0.984,2.514-1.898,4.417-2.771c-0.121-0.45-0.237-0.898-0.358-1.348
				c-0.127-0.48-0.446-0.821-0.949-1.022c-0.505-0.201-1.074-0.195-1.711,0.014c-0.592,0.192-1.068,0.474-1.444,0.839
				c-0.265,0.269-0.375,0.486-0.336,0.652c0.025,0.096,0.142,0.219,0.356,0.37c0.262,0.191,0.418,0.386,0.466,0.583
				c0.073,0.287,0.028,0.551-0.126,0.796c-0.152,0.244-0.395,0.42-0.719,0.52c-0.345,0.108-0.659,0.089-0.943-0.059
				c-0.282-0.145-0.465-0.389-0.544-0.726c-0.149-0.631,0.101-1.324,0.73-2.083c0.634-0.76,1.56-1.335,2.783-1.74
				c1.127-0.374,2.046-0.442,2.765-0.195c0.719,0.253,1.17,0.707,1.352,1.362c0.443,1.614,0.889,3.229,1.333,4.846
				c0.119,0.429,0.278,0.719,0.491,0.864c0.212,0.155,0.436,0.187,0.684,0.1C177.282,163.307,177.541,163.104,177.781,162.792z
				 M173.348,160.259c-1.688,0.821-2.844,1.581-3.456,2.32c-0.456,0.556-0.603,1.183-0.429,1.883
				c0.119,0.491,0.355,0.829,0.714,1.014c0.356,0.186,0.767,0.204,1.234,0.055c0.833-0.269,1.478-0.792,1.936-1.562
				c0.46-0.772,0.565-1.585,0.34-2.438C173.574,161.106,173.46,160.683,173.348,160.259z"/>
			<path fill="#A67D3C" d="M178.972,147.746c1.312,4.239,2.63,8.478,3.94,12.716c0.056,0.177,0.153,0.287,0.301,0.332
				c0.211,0.058,0.441,0.033,0.689-0.067c0.342-0.139,0.684-0.278,1.024-0.419c0.073,0.233,0.149,0.467,0.224,0.699
				c-1.836,0.758-3.679,1.485-5.532,2.18c-0.069-0.235-0.138-0.471-0.205-0.706c0.325-0.123,0.654-0.246,0.979-0.371
				c0.323-0.122,0.535-0.284,0.651-0.481c0.116-0.198,0.132-0.421,0.058-0.673c-1.072-3.569-2.146-7.137-3.221-10.705
				c-0.096-0.314-0.251-0.506-0.472-0.582c-0.303-0.105-0.632-0.092-0.983,0.043c-0.277,0.105-0.551,0.21-0.826,0.313
				c-0.068-0.235-0.139-0.472-0.205-0.706C176.593,148.809,177.785,148.285,178.972,147.746z"/>
		</g>
	</g>
	<g>
		<g>
			<path fill="#A67D3C" d="M96.815,130.404l-3.676,0.773c2.077,3.673,5.142,6.816,9.006,8.987l0.52-3.922
				C100.233,134.747,98.255,132.732,96.815,130.404z"/>
			<path fill="#A67D3C" d="M102.875,102.714l-0.775-3.919c-3.672,2.077-6.813,5.142-8.986,9.007l3.923,0.762
				C98.531,106.133,100.548,104.153,102.875,102.714z"/>
			<path fill="#A67D3C" d="M130.81,108.286l3.674-0.53c-2.077-3.673-5.14-6.814-9.006-8.987l-0.52,3.68
				C127.391,103.942,129.37,105.958,130.81,108.286z"/>
			<path fill="#A67D3C" d="M109.698,139.175l-2.223,3.191c4.273,1.188,8.66,1.122,12.723-0.015l-2.234-3.188
				C115.302,139.798,112.478,139.829,109.698,139.175z"/>
			<path fill="#A67D3C" d="M136.696,113.079l-3.061,1.721c0.634,2.663,0.666,5.487,0.01,8.266l3.065,2.737
				C137.898,121.53,137.833,117.143,136.696,113.079z"/>
		</g>
		<path fill="#A67D3C" d="M117.129,106.896h-10.591v25.593h6.051v-8.53h4.54c5.016,0,9.078-3.818,9.078-8.531
			C126.207,110.713,122.145,106.896,117.129,106.896z M117.431,118.27h-4.842v-5.687h4.842c1.672,0,3.027,1.272,3.027,2.844
			C120.458,116.997,119.103,118.27,117.431,118.27z"/>
		<g>
			<g>
				<circle fill="#A67D3C" cx="95.367" cy="113.163" r="1.031"/>
			</g>
			<g>
				<path fill="#A67D3C" d="M95.493,118.264h2.796v-1.03h-2.077l-1.146-1.908c-0.168-0.287-0.479-0.476-0.836-0.476
					c-0.098,0-0.192,0.015-0.281,0.04l-3.107,0.968l-0.42,2.979h1.031l0.42-2.1l1.207-0.375l-2.238,8.774h1.031l1.644-4.645
					l1.335,1.781v2.863h1.031v-3.668l-1.427-2.601l0.422-1.645L95.493,118.264z"/>
			</g>
		</g>
		<path fill="#A67D3C" d="M122.46,99.14c-0.433-1.354-1.588-2.241-2.892-2.227l-0.945,0.034l-0.3-0.751
			c-0.58-1.456-0.881-2.17-0.973-2.309s-0.103-0.141-0.963-0.141c-0.763,0-0.883,0.014-0.947,0.102
			c-0.107,0.14-0.101,0.226,0.031,0.359c0.104,0.103,0.193,0.115,0.772,0.115c0.458,0,0.673,0.021,0.712,0.072
			c0.064,0.086,0.306,0.674,0.306,0.743c0,0.028-1.207,0.049-2.682,0.049h-2.681l-0.114-0.226c-0.064-0.126-0.117-0.239-0.117-0.254
			c0-0.016,0.274-0.058,0.611-0.098c0.683-0.081,0.933-0.202,0.77-0.369c-0.074-0.076-0.279-0.094-1.194-0.105
			c-0.752-0.009-1.127,0.008-1.17,0.051c-0.033,0.035-0.055,0.164-0.045,0.289c0.016,0.197,0.033,0.311,0.217,0.289l0.276-0.036
			l0.36,0.679l-1.127,1.727c-0.802-0.241-1.529-0.295-2.354-0.03c-0.396,0.167-0.958,0.565-1.215,0.866
			c-0.337,0.394-0.601,0.988-0.68,1.531c-0.01,0.061-0.015,0.121-0.019,0.181v0.412c0.084,1.169,0.896,2.263,2.03,2.64
			c0.526,0.176,0.538,0.179,1.089,0.159c0.411-0.014,0.61-0.055,0.968-0.193c0.519-0.201,0.761-0.401,1.304-0.993
			c0.547-0.602,0.604-1.286,0.626-1.468c0.046-0.017,0.494-0.032,0.999-0.032h0.918l0.009,0.462
			c0.005,0.254-0.013,0.577-0.011,0.634c0.005,0.079-0.023,0.033-0.219,0.047c-0.22,0.014-0.247,0.033-0.23,0.145
			c0.014,0.102,0.062,0.131,0.242,0.146c0.125,0.011,0.423-0.037,0.497-0.057l0.017-1.393l0.388-0.483
			c0.221-0.279,0.422-0.535,0.445-0.564c0.025-0.033,0.139-0.176,0.251-0.319s0.641-0.811,1.173-1.484
			c0.534-0.674,0.986-1.228,1.009-1.228c0.025,0,0.072,0.06,0.105,0.133c0.206,0.434,0.317,0.722,0.344,0.891
			c0.027,0.164,0.012,0.194-0.122,0.246c-0.227,0.087-0.853,0.748-1.036,1.102c-0.23,0.44-0.382,1.002-0.382,1.42
			c0,0.619,0.415,1.641,0.842,2.064c1.156,1.156,2.825,1.262,4.085,0.258c0.439-0.391,0.812-0.904,0.991-1.47
			C122.553,100.341,122.569,99.481,122.46,99.14z M110.608,98.016c0.405,0.368,0.797,0.73,0.871,1.537l-1.854,0.028L110.608,98.016z
			 M108.981,102.202c-1.107-0.037-2.271-0.884-2.26-2.437c0.01-1.535,1.659-2.6,3.373-2.008c-0.451,0.796-1.487,2.155-1.363,2.327
			c0.13,0.18,0.376,0.12,1.54,0.12h1.239C111.384,101.924,109.655,102.224,108.981,102.202z M112.101,99.545
			c-0.168-0.825-0.642-1.487-1.211-2.098l0.811-1.337c0.034,0,0.188,0.229,0.342,0.504c0.154,0.278,0.588,1.049,0.964,1.713
			c0.376,0.662,0.677,1.234,0.649,1.234L112.101,99.545z M115.681,97.56c-0.041,0.049-0.207,0.274-0.383,0.489l-0.977,1.189
			l-0.001-0.746c0.15-0.004,0.452-0.003,0.441-0.192c-0.007-0.191-0.427-0.139-0.718-0.125l0.029,1.087l-1.785-3.497h2.343
			c1.968,0,2.342,0.014,2.342,0.082C116.973,95.909,116.313,96.781,115.681,97.56z M121.228,101.638
			c-0.614,0.594-1.512,0.835-2.3,0.619c-1.187-0.328-1.975-1.482-1.793-2.635c0.101-0.641,0.274-1.005,0.673-1.41
			c0.466-0.477,0.55-0.479,0.722-0.025c0.042,0.111,0.131,0.334,0.2,0.492s0.227,0.54,0.353,0.848
			c0.254,0.632,0.399,0.779,0.602,0.596c0.165-0.231,0.021-0.569-0.161-0.963c-0.098-0.178-0.59-1.502-0.59-1.588
			c0.139-0.137,0.457-0.071,0.649-0.064c0.553,0.024,0.698,0.053,0.987,0.187c0.427,0.2,0.982,0.755,1.182,1.186
			c0.133,0.285,0.238,0.396,0.246,1.052C122.075,100.594,121.659,101.163,121.228,101.638z"/>
		<path fill="#A67D3C" d="M133.426,131.009c-0.41-0.705-0.901-0.857-1.688-1.061c-0.787-0.201-1.581-0.232-2.27-0.232
			s-1.481,0.031-2.269,0.232c-0.786,0.203-1.282,0.355-1.693,1.061c-0.412,0.703-0.721,4.285-0.721,4.469c0,0.187,0,4.044,0,4.044
			h0.492c0,0.246,0,1.081,0,1.091c0,0.347,0.512,0.628,0.859,0.628c0.346,0,0.859-0.281,0.859-0.628c0-0.01,0-0.845,0-1.091h5.027
			c0,0.246,0,0.972,0,0.98c0.08,0.628,0.669,0.683,1.015,0.683c0.347,0,0.587-0.226,0.587-0.572c0-0.01,0-0.845,0-1.091h0.518
			c0,0,0.001-3.657,0.001-3.86C134.145,135.461,133.839,131.712,133.426,131.009z M127.733,130.19h3.683v0.982h-3.683V130.19z
			 M126.547,138.813c-0.617,0-1.116-0.497-1.116-1.113s0.499-1.113,1.116-1.113c0.614,0,1.114,0.497,1.114,1.113
			S127.161,138.813,126.547,138.813z M125.519,135.348c0,0,0.26-2.978,0.535-3.254c0.277-0.276,6.554-0.243,6.83,0.033
			c0.277,0.275,0.533,3.221,0.533,3.221H125.519z M132.266,138.813c-0.616,0-1.114-0.497-1.114-1.113s0.498-1.113,1.114-1.113
			c0.613,0,1.115,0.497,1.115,1.113S132.879,138.813,132.266,138.813z"/>
	</g>
</g>
</svg>
