<?xml version="1.0" encoding="utf-8"?>
<!-- Generator: Adobe Illustrator 16.0.0, SVG Export Plug-In . SVG Version: 6.00 Build 0)  -->
<!DOCTYPE svg PUBLIC "-//W3C//DTD SVG 1.1//EN" "http://www.w3.org/Graphics/SVG/1.1/DTD/svg11.dtd">
<svg version="1.1" id="Livello_1" xmlns="http://www.w3.org/2000/svg" xmlns:xlink="http://www.w3.org/1999/xlink" x="0px" y="0px"
	 width="230px" height="200px" viewBox="0 0 230 200" enable-background="new 0 0 230 200" xml:space="preserve">
<g>
	<circle fill="#55ABE0" cx="114.155" cy="93.177" r="82.153"/>
	<g>
		<path fill="#0572B7" d="M99.432,20.81c-7.636,1.504-14.855,4.16-21.472,7.785l20.294,42.713h1.809l10.134-27.842L99.432,20.81z"/>
		<polygon fill="#0572B7" points="110.196,43.466 100.062,71.308 123.424,71.308 		"/>
	</g>
	<path fill="#DAA620" d="M114.173,84.366c-9.469,0-17.142-4.692-17.142-10.482c0-5.789,7.673-10.481,17.142-10.481
		s17.142,4.692,17.142,10.481C131.314,79.674,123.642,84.366,114.173,84.366z M114.173,59.21c-13.252,0-23.999,6.571-23.999,14.674
		c0,8.104,10.747,14.676,23.999,14.676c13.251,0,23.999-6.572,23.999-14.676C138.172,65.781,127.424,59.21,114.173,59.21z"/>
	<path fill="#328ACA" d="M118.902,19.545l-8.706,23.921l-10.134,27.842l-0.214,0.586h25.17l17.135-47.077
		C134.896,21.891,127.076,20.065,118.902,19.545z"/>
	<g>
		<path fill="#DAA620" d="M114.74,77.392c-21.521,0-38.974,17.571-38.974,39.238c0,21.666,17.453,39.238,38.974,39.238
			c21.519,0,38.973-17.572,38.973-39.238C153.713,94.963,136.259,77.392,114.74,77.392z M114.74,144.657
			c-15.377,0-27.839-12.547-27.839-28.027s12.462-28.027,27.839-28.027c15.376,0,27.838,12.547,27.838,28.027
			S130.116,144.657,114.74,144.657z"/>
		<g>
			<path fill="#C4941A" d="M114.748,77.541c0,0-0.958,0.046-2.756,0.133c-0.447,0.033-0.955,0.018-1.499,0.1
				c-0.543,0.082-1.137,0.171-1.778,0.268c-0.64,0.109-1.336,0.174-2.062,0.338c-0.722,0.188-1.488,0.389-2.298,0.601
				c-3.196,0.929-7.063,2.378-10.887,5.059c-3.833,2.615-7.735,6.273-10.794,11.091c-3.037,4.809-5.271,10.696-5.953,17.149
				c-0.113,0.802-0.083,1.623-0.133,2.441c-0.006,0.808-0.115,1.671-0.04,2.446c0.118,1.681,0.118,3.433,0.46,5.061
				c0.417,3.328,1.525,6.682,2.893,9.9c0.386,0.791,0.773,1.584,1.161,2.381s0.909,1.525,1.359,2.295l0.7,1.143
				c0.25,0.371,0.535,0.72,0.801,1.081c0.55,0.71,1.065,1.451,1.646,2.143c2.35,2.752,5.114,5.176,8.147,7.256
				c3.086,2.013,6.478,3.559,10.016,4.678c3.57,1.042,7.287,1.506,11.008,1.565c1.772-0.145,3.859-0.13,5.58-0.516l1.349-0.221
				l0.675-0.109l0.67-0.182l2.678-0.721c3.502-1.174,6.84-2.767,9.859-4.811c2.97-2.109,5.65-4.556,7.934-7.294
				c2.197-2.8,4.107-5.78,5.46-8.966c1.332-3.176,2.406-6.438,2.808-9.749c0.334-1.637,0.318-3.293,0.431-4.917l0.031-0.536
				l-0.023-0.632l-0.047-1.256c-0.05-0.823-0.021-1.692-0.134-2.462c-0.107-0.771-0.215-1.538-0.321-2.3
				c-0.06-0.381-0.089-0.762-0.171-1.14l-0.269-1.132c-0.175-0.754-0.349-1.502-0.521-2.245c-0.22-0.729-0.481-1.438-0.717-2.151
				c-0.939-2.856-2.279-5.455-3.696-7.875c-2.953-4.782-6.745-8.462-10.496-11.125c-3.742-2.727-7.563-4.232-10.733-5.208
				c-0.804-0.224-1.564-0.435-2.28-0.634c-0.723-0.174-1.418-0.248-2.056-0.365c-0.64-0.105-1.232-0.203-1.775-0.293
				c-0.543-0.089-1.045-0.08-1.491-0.119c-1.788-0.11-2.742-0.169-2.742-0.169L114.748,77.541z M114.74,77.241
				c0,0,0.963,0.039,2.768,0.111c0.45,0.031,0.959,0.011,1.509,0.089c0.55,0.079,1.15,0.164,1.8,0.257
				c0.646,0.105,1.353,0.167,2.087,0.326c0.732,0.176,1.51,0.363,2.331,0.561c3.248,0.882,7.198,2.239,11.216,4.792
				c4.011,2.517,8.172,6.098,11.58,10.941c3.391,4.857,5.975,10.864,6.857,17.788c0.139,0.861,0.129,1.662,0.201,2.505l0.078,1.255
				l0.04,0.631c-0.001-0.041,0.008,0.144,0.005,0.155l-0.004,0.082l-0.007,0.164l-0.015,0.328c-0.102,1.752-0.084,3.537-0.423,5.31
				c-0.414,3.579-1.538,7.121-2.96,10.57c-0.408,0.842-0.817,1.688-1.229,2.536c-0.412,0.847-0.961,1.625-1.438,2.444l-0.745,1.216
				c-0.265,0.396-0.565,0.768-0.848,1.152c-0.581,0.758-1.13,1.546-1.746,2.282c-2.487,2.939-5.44,5.51-8.672,7.717
				c-3.286,2.14-6.9,3.783-10.671,4.965l-2.878,0.719l-0.721,0.179l-0.746,0.109l-1.492,0.216c-0.996,0.146-1.998,0.307-2.941,0.306
				l-2.938,0.121c-3.955-0.116-7.894-0.671-11.66-1.832c-3.734-1.237-7.294-2.928-10.514-5.099
				c-3.169-2.237-6.037-4.831-8.458-7.755c-0.599-0.734-1.13-1.519-1.694-2.272c-0.273-0.383-0.565-0.752-0.821-1.145l-0.718-1.208
				c-0.461-0.813-0.991-1.584-1.387-2.423c-0.394-0.84-0.787-1.676-1.178-2.508c-1.387-3.407-2.477-6.856-2.874-10.419
				c-0.331-1.781-0.298-3.471-0.394-5.166c-0.007-0.229-0.023-0.384-0.021-0.672l0.039-0.643l0.08-1.279
				c0.071-0.847,0.063-1.696,0.2-2.524c0.87-6.665,3.318-12.679,6.601-17.481c3.303-4.809,7.354-8.41,11.283-10.976
				c3.938-2.597,7.841-4.011,11.062-4.939c0.815-0.209,1.588-0.407,2.314-0.594c0.73-0.17,1.435-0.241,2.08-0.354
				c0.647-0.102,1.247-0.195,1.796-0.281c0.55-0.085,1.053-0.072,1.501-0.108c1.797-0.098,2.755-0.148,2.755-0.148L114.74,77.241z"
				/>
			<path fill="#C4941A" d="M114.732,144.807c0,0-0.685-0.037-1.968-0.107c-0.32-0.027-0.68-0.018-1.072-0.079
				c-0.394-0.062-0.822-0.13-1.286-0.202c-0.462-0.082-0.966-0.134-1.488-0.255c-0.52-0.133-1.072-0.274-1.655-0.424
				c-2.305-0.662-5.099-1.667-7.928-3.51c-2.821-1.825-5.736-4.39-8.13-7.823c-2.38-3.43-4.159-7.744-4.806-12.536
				c-0.102-0.595-0.1-1.206-0.153-1.815c-0.021-0.623-0.127-1.199-0.077-1.873c0.064-1.213,0.036-2.411,0.271-3.705
				c0.282-2.578,1.058-5.057,2.05-7.517c1.025-2.449,2.479-4.745,4.159-6.9c1.74-2.113,3.804-3.99,6.086-5.61
				c2.319-1.573,4.888-2.801,7.583-3.701c2.719-0.846,5.563-1.254,8.422-1.346c1.507,0.082,2.73,0.024,4.242,0.292
				c1.474,0.147,2.847,0.527,4.236,0.871c2.732,0.845,5.354,2.025,7.738,3.567c2.347,1.59,4.495,3.444,6.301,5.572
				c1.749,2.165,3.277,4.484,4.367,6.975c1.028,2.504,1.838,5.074,2.135,7.669c0.243,1.285,0.23,2.579,0.301,3.849l0.01,0.238
				l0.006,0.119l0.002,0.059l-0.004,0.133l-0.03,0.45l-0.062,0.896c-0.055,0.604-0.05,1.167-0.152,1.795
				c-0.661,5.051-2.576,9.357-5.063,12.843c-2.498,3.469-5.524,6.013-8.427,7.789c-2.91,1.798-5.75,2.747-8.081,3.362
				c-0.589,0.138-1.147,0.268-1.673,0.39c-0.525,0.112-1.031,0.154-1.495,0.228c-0.465,0.064-0.895,0.124-1.289,0.178
				c-0.394,0.055-0.758,0.039-1.08,0.06c-1.292,0.046-1.98,0.071-1.98,0.071L114.732,144.807z M114.74,144.507
				c0,0,0.681-0.044,1.955-0.129c0.317-0.029,0.677-0.024,1.063-0.089c0.387-0.065,0.809-0.137,1.265-0.215
				c0.454-0.085,0.949-0.141,1.463-0.266c0.509-0.146,1.05-0.301,1.622-0.464c2.254-0.71,4.965-1.806,7.599-3.777
				c2.643-1.923,5.299-4.565,7.343-7.974c0.982-1.723,1.897-3.571,2.544-5.59c0.161-0.504,0.341-1.006,0.491-1.521
				c0.116-0.524,0.233-1.053,0.352-1.585c0.296-1.064,0.337-2.124,0.514-3.201c0.076-0.537,0.054-1.168,0.085-1.753l0.029-0.897
				l0.015-0.451c0.002-0.086,0,0.054-0.002,0.02l-0.003-0.054l-0.007-0.106l-0.012-0.215c-0.082-1.142-0.072-2.307-0.309-3.456
				c-0.285-2.327-1.045-4.617-1.983-6.848c-0.944-2.239-2.282-4.337-3.821-6.31c-1.602-1.927-3.478-3.656-5.562-5.149
				c-2.118-1.446-4.464-2.575-6.927-3.413c-1.255-0.34-2.514-0.727-3.771-0.881c-1.183-0.277-2.717-0.273-3.943-0.381
				c-2.624,0.035-5.248,0.352-7.77,1.08c-2.5,0.781-4.899,1.864-7.084,3.279c-2.147,1.463-4.108,3.17-5.775,5.111
				c-1.608,1.982-3.02,4.104-4.029,6.386c-0.974,2.272-1.768,4.655-2.068,6.999c-0.246,1.141-0.25,2.401-0.338,3.6
				c-0.055,0.533,0.02,1.157,0.021,1.727c0.032,0.58,0.007,1.163,0.085,1.731c0.46,4.58,2.024,8.768,4.157,12.204
				c2.15,3.442,4.918,6.063,7.642,7.938c2.714,1.927,5.472,2.967,7.752,3.63c0.577,0.151,1.124,0.294,1.639,0.429
				c0.518,0.116,1.015,0.162,1.471,0.239c0.457,0.068,0.88,0.132,1.268,0.189s0.751,0.046,1.07,0.07
				c1.284,0.06,1.969,0.092,1.969,0.092L114.74,144.507z"/>
		</g>
	</g>
	<g>
		<circle fill="#C4941A" cx="114.74" cy="116.349" r="30.438"/>
		<path fill="#987314" d="M145.327,116.356c0,0-0.031,0.746-0.092,2.146c-0.024,0.35-0.012,0.74-0.07,1.17
			c-0.062,0.43-0.131,0.898-0.203,1.404c-0.086,0.505-0.129,1.058-0.239,1.634c-0.131,0.571-0.271,1.179-0.418,1.821
			c-0.075,0.321-0.153,0.65-0.231,0.989c-0.111,0.329-0.225,0.667-0.342,1.012c-0.238,0.688-0.422,1.439-0.736,2.172
			c-0.318,0.735-0.648,1.5-0.992,2.293c-0.391,0.771-0.833,1.552-1.274,2.373c-1.901,3.182-4.622,6.55-8.418,9.273
			c-3.784,2.71-8.646,4.662-13.978,5.241c-0.662,0.091-1.341,0.064-2.017,0.102l-1.019,0.031l-0.511,0.016l-0.127-0.001
			l-0.062-0.005l-0.123-0.008l-0.246-0.018c-1.319-0.122-2.616-0.159-4.045-0.479c-2.826-0.438-5.487-1.41-8.102-2.622
			c-2.606-1.233-4.981-2.954-7.233-4.821c-2.196-1.951-4.152-4.189-5.845-6.649c-1.65-2.491-2.947-5.228-3.929-8.096
			c-0.95-2.885-1.438-5.92-1.596-8.986c0.057-1.589-0.036-2.979,0.218-4.574c0.125-1.575,0.497-3.067,0.838-4.575
			c0.879-2.957,2.109-5.811,3.749-8.411c1.688-2.562,3.698-4.886,5.98-6.866c2.325-1.918,4.821-3.604,7.515-4.808
			c2.687-1.188,5.481-2.084,8.301-2.43c1.396-0.274,2.805-0.276,4.188-0.355l0.26-0.01l0.13-0.005l0.064-0.002l0.144,0.004
			l0.49,0.029l0.977,0.06c0.66,0.056,1.272,0.044,1.958,0.153c1.354,0.241,2.747,0.363,3.985,0.758
			c0.633,0.17,1.26,0.339,1.883,0.506c0.609,0.208,1.199,0.459,1.791,0.685c1.199,0.415,2.285,1.033,3.375,1.578
			c0.556,0.252,1.046,0.61,1.548,0.935c0.497,0.327,0.99,0.652,1.478,0.974c3.789,2.753,6.505,6.128,8.402,9.317
			c1.927,3.201,2.908,6.31,3.571,8.851c0.146,0.643,0.285,1.251,0.416,1.823c0.108,0.575,0.151,1.126,0.234,1.63
			c0.072,0.506,0.139,0.974,0.199,1.402c0.058,0.429,0.044,0.824,0.067,1.176c0.057,1.406,0.086,2.156,0.086,2.156V116.356z
			 M145.028,116.349c0,0-0.046-0.741-0.131-2.133c-0.03-0.347-0.024-0.737-0.092-1.159c-0.068-0.423-0.144-0.883-0.226-1.381
			c-0.086-0.497-0.154-1.036-0.296-1.596c-0.159-0.555-0.328-1.145-0.507-1.768c-0.761-2.463-1.997-5.405-4.147-8.265
			c-2.104-2.874-5.014-5.708-8.685-7.955c-1.87-1.06-3.839-2.12-6.028-2.838c-0.543-0.184-1.092-0.37-1.645-0.557
			c-0.566-0.139-1.138-0.278-1.713-0.419c-1.153-0.345-2.307-0.396-3.479-0.6c-0.583-0.091-1.271-0.069-1.908-0.11l-0.978-0.039
			l-0.491-0.02c-0.093-0.002,0.057-0.001,0.021,0.001l-0.059,0.004l-0.116,0.008l-0.234,0.015c-1.244,0.086-2.516,0.063-3.771,0.315
			c-2.542,0.299-5.042,1.12-7.502,2.102c-2.459,1.021-4.756,2.494-6.919,4.181c-2.129,1.743-3.989,3.837-5.638,6.116
			c-1.607,2.314-2.857,4.892-3.799,7.598l-0.607,2.067c-0.239,0.689-0.29,1.389-0.448,2.086c-0.335,1.342-0.357,2.957-0.508,4.346
			c-0.017,2.907,0.268,5.834,1.024,8.662c0.838,2.796,2.023,5.489,3.618,7.914c0.395,0.605,0.85,1.17,1.281,1.747
			c0.223,0.283,0.425,0.584,0.664,0.852l0.731,0.792c0.502,0.512,0.938,1.087,1.488,1.543l1.608,1.399
			c2.237,1.736,4.655,3.174,7.2,4.167c2.533,0.957,5.166,1.702,7.701,1.908c1.225,0.208,2.607,0.148,3.915,0.192l0.247,0.008
			l0.123,0.004l0.062,0.002c0.034,0.002-0.08-0.005-0.004-0.005l0.471-0.034l0.937-0.066c0.621-0.06,1.243-0.053,1.849-0.162
			c4.879-0.64,9.272-2.365,12.947-4.606c3.663-2.276,6.568-5.118,8.667-8c2.149-2.864,3.388-5.809,4.144-8.274
			c0.179-0.624,0.347-1.214,0.505-1.77c0.141-0.56,0.208-1.097,0.292-1.593c0.08-0.497,0.154-0.957,0.222-1.378
			c0.065-0.422,0.059-0.818,0.088-1.166c0.081-1.397,0.125-2.144,0.125-2.144V116.349z"/>
	</g>
	<circle fill="none" stroke="#DAA620" stroke-width="5" stroke-miterlimit="10" cx="114.155" cy="93.177" r="75.216"/>
	<g>
		<g>
			<path fill="#816214" d="M97.879,128.568l-3.676,0.773c2.077,3.673,5.142,6.816,9.006,8.987l0.52-3.922
				C101.297,132.911,99.318,130.896,97.879,128.568z"/>
			<path fill="#816214" d="M103.938,100.878l-0.775-3.919c-3.672,2.077-6.813,5.142-8.986,9.007l3.923,0.762
				C99.595,104.297,101.611,102.317,103.938,100.878z"/>
			<path fill="#816214" d="M131.873,106.45l3.674-0.53c-2.077-3.673-5.14-6.814-9.006-8.987l-0.52,3.68
				C128.454,102.106,130.434,104.122,131.873,106.45z"/>
			<path fill="#816214" d="M110.762,137.339l-2.223,3.191c4.273,1.188,8.66,1.122,12.723-0.015l-2.234-3.188
				C116.365,137.962,113.541,137.993,110.762,137.339z"/>
			<path fill="#816214" d="M137.76,111.243l-3.061,1.721c0.634,2.663,0.666,5.487,0.01,8.266l3.065,2.737
				C138.962,119.694,138.896,115.307,137.76,111.243z"/>
		</g>
		<path fill="#816214" d="M118.192,105.06h-10.591v25.593h6.051v-8.53h4.54c5.016,0,9.078-3.818,9.078-8.531
			C127.271,108.877,123.208,105.06,118.192,105.06z M118.494,116.434h-4.842v-5.687h4.842c1.672,0,3.027,1.272,3.027,2.844
			C121.521,115.161,120.166,116.434,118.494,116.434z"/>
		<g>
			<g>
				<circle fill="#816214" cx="96.431" cy="111.327" r="1.031"/>
			</g>
			<g>
				<path fill="#816214" d="M96.557,116.428h2.796v-1.03h-2.077l-1.146-1.908c-0.168-0.287-0.479-0.476-0.836-0.476
					c-0.098,0-0.192,0.015-0.281,0.04l-3.107,0.968l-0.42,2.979h1.031l0.42-2.1l1.207-0.375l-2.238,8.774h1.031l1.644-4.645
					l1.335,1.781v2.863h1.031v-3.668l-1.427-2.601l0.422-1.645L96.557,116.428z"/>
			</g>
		</g>
		<path fill="#816214" d="M123.523,97.304c-0.433-1.354-1.588-2.241-2.892-2.227l-0.945,0.034l-0.3-0.751
			c-0.58-1.456-0.881-2.17-0.973-2.309s-0.103-0.141-0.963-0.141c-0.763,0-0.883,0.014-0.947,0.102
			c-0.107,0.14-0.101,0.226,0.031,0.359c0.104,0.103,0.193,0.115,0.772,0.115c0.458,0,0.673,0.021,0.712,0.072
			c0.064,0.086,0.306,0.674,0.306,0.743c0,0.028-1.207,0.049-2.682,0.049h-2.681l-0.114-0.226c-0.064-0.126-0.117-0.239-0.117-0.254
			c0-0.016,0.274-0.058,0.611-0.098c0.683-0.081,0.933-0.202,0.77-0.369c-0.074-0.076-0.279-0.094-1.194-0.105
			c-0.752-0.009-1.127,0.008-1.17,0.051c-0.033,0.035-0.055,0.164-0.045,0.289c0.016,0.197,0.033,0.311,0.217,0.289l0.276-0.036
			l0.36,0.679l-1.127,1.727c-0.802-0.241-1.529-0.295-2.354-0.03c-0.396,0.167-0.958,0.565-1.215,0.866
			c-0.337,0.394-0.601,0.988-0.68,1.531c-0.01,0.061-0.015,0.121-0.019,0.181v0.412c0.084,1.169,0.896,2.263,2.03,2.64
			c0.526,0.176,0.538,0.179,1.089,0.159c0.411-0.014,0.61-0.055,0.968-0.193c0.519-0.201,0.761-0.401,1.304-0.993
			c0.547-0.602,0.604-1.286,0.626-1.468c0.046-0.017,0.494-0.032,0.999-0.032h0.918l0.009,0.462
			c0.005,0.254-0.013,0.577-0.011,0.634c0.005,0.079-0.023,0.033-0.219,0.047c-0.22,0.014-0.247,0.033-0.23,0.145
			c0.014,0.102,0.062,0.131,0.242,0.146c0.125,0.011,0.423-0.037,0.497-0.057l0.017-1.393l0.388-0.483
			c0.221-0.279,0.422-0.535,0.445-0.564c0.025-0.033,0.139-0.176,0.251-0.319s0.641-0.811,1.173-1.484
			c0.534-0.674,0.986-1.228,1.009-1.228c0.025,0,0.072,0.06,0.105,0.133c0.206,0.434,0.317,0.722,0.344,0.891
			c0.027,0.164,0.012,0.194-0.122,0.246c-0.227,0.087-0.853,0.748-1.036,1.102c-0.23,0.44-0.382,1.002-0.382,1.42
			c0,0.619,0.415,1.641,0.842,2.064c1.156,1.156,2.825,1.262,4.085,0.258c0.439-0.391,0.812-0.904,0.991-1.47
			C123.616,98.505,123.633,97.646,123.523,97.304z M111.672,96.18c0.405,0.368,0.797,0.73,0.871,1.537l-1.854,0.028L111.672,96.18z
			 M110.045,100.366c-1.107-0.037-2.271-0.884-2.26-2.437c0.01-1.535,1.659-2.6,3.373-2.008c-0.451,0.796-1.487,2.155-1.363,2.327
			c0.13,0.18,0.376,0.12,1.54,0.12h1.239C112.447,100.088,110.719,100.388,110.045,100.366z M113.164,97.709
			c-0.168-0.825-0.642-1.487-1.211-2.098l0.811-1.337c0.034,0,0.188,0.229,0.342,0.504c0.154,0.278,0.588,1.049,0.964,1.713
			c0.376,0.662,0.677,1.234,0.649,1.234L113.164,97.709z M116.744,95.724c-0.041,0.049-0.207,0.274-0.383,0.489l-0.977,1.189
			l-0.001-0.746c0.15-0.004,0.452-0.003,0.441-0.192c-0.007-0.191-0.427-0.139-0.718-0.125l0.029,1.087l-1.785-3.497h2.343
			c1.968,0,2.342,0.014,2.342,0.082C118.036,94.073,117.377,94.945,116.744,95.724z M122.291,99.802
			c-0.614,0.594-1.512,0.835-2.3,0.619c-1.187-0.328-1.975-1.482-1.793-2.635c0.101-0.641,0.274-1.005,0.673-1.41
			c0.466-0.477,0.55-0.479,0.722-0.025c0.042,0.111,0.131,0.334,0.2,0.492s0.227,0.54,0.353,0.848
			c0.254,0.632,0.399,0.779,0.602,0.596c0.165-0.231,0.021-0.569-0.161-0.963c-0.098-0.178-0.59-1.502-0.59-1.588
			c0.139-0.137,0.457-0.071,0.649-0.064c0.553,0.024,0.698,0.053,0.987,0.187c0.427,0.2,0.982,0.755,1.182,1.186
			c0.133,0.285,0.238,0.396,0.246,1.052C123.139,98.758,122.723,99.327,122.291,99.802z"/>
		<path fill="#816214" d="M134.489,129.173c-0.41-0.705-0.901-0.857-1.688-1.061c-0.787-0.201-1.581-0.232-2.27-0.232
			s-1.481,0.031-2.269,0.232c-0.786,0.203-1.282,0.355-1.693,1.061c-0.412,0.703-0.721,4.285-0.721,4.469c0,0.187,0,4.044,0,4.044
			h0.492c0,0.246,0,1.081,0,1.091c0,0.347,0.512,0.628,0.859,0.628c0.346,0,0.859-0.281,0.859-0.628c0-0.01,0-0.845,0-1.091h5.027
			c0,0.246,0,0.972,0,0.98c0.08,0.628,0.669,0.683,1.015,0.683c0.347,0,0.587-0.226,0.587-0.572c0-0.01,0-0.845,0-1.091h0.518
			c0,0,0.001-3.657,0.001-3.86C135.208,133.625,134.902,129.876,134.489,129.173z M128.797,128.354h3.683v0.982h-3.683V128.354z
			 M127.61,136.978c-0.617,0-1.116-0.497-1.116-1.113s0.499-1.113,1.116-1.113c0.614,0,1.114,0.497,1.114,1.113
			S128.225,136.978,127.61,136.978z M126.582,133.512c0,0,0.26-2.978,0.535-3.254c0.277-0.276,6.554-0.243,6.83,0.033
			c0.277,0.275,0.533,3.221,0.533,3.221H126.582z M133.329,136.978c-0.616,0-1.114-0.497-1.114-1.113s0.498-1.113,1.114-1.113
			c0.613,0,1.115,0.497,1.115,1.113S133.942,136.978,133.329,136.978z"/>
	</g>
	<g>
		<g>
			<path fill="#0572B7" stroke="#DAA620" stroke-width="4" stroke-miterlimit="10" d="M216.7,153.443
				c-6.562-1.267-12.94-2.861-19.115-4.75c2.963-6.088,5.604-12.242,7.921-18.431c-52.148,29.121-114.772,31.745-168.899,7.72
				c-4.867-2.171-9.666-4.558-14.381-7.16c2.587,6.365,5.521,12.695,8.804,18.955c-5.812,1.755-11.8,3.237-17.947,4.422
				C76.559,188.698,153.37,188.46,216.7,153.443L216.7,153.443L216.7,153.443z"/>
		</g>
	</g>
	<g>
		<g>
			<path fill="#DAA620" d="M72.487,154.977c0.398-0.39,0.797-0.78,1.192-1.171c0.232,0.063,0.469,0.124,0.706,0.186
				c-0.301,1.901-0.589,3.804-0.874,5.708c-0.232-0.06-0.467-0.124-0.705-0.186c-0.172-1.753-0.53-3.084-1.079-4
				c-0.697-1.166-1.63-1.918-2.804-2.262c-0.899-0.267-1.769-0.284-2.608-0.049c-0.835,0.232-1.58,0.742-2.221,1.524
				c-0.641,0.785-1.199,1.999-1.664,3.647c-0.451,1.599-0.604,2.912-0.451,3.945c0.157,1.031,0.528,1.877,1.131,2.528
				c0.603,0.654,1.386,1.126,2.352,1.413c1.31,0.393,2.405,0.368,3.26-0.05c0.856-0.417,1.396-1.122,1.623-2.103
				c0.101-0.438,0.205-0.878,0.305-1.316c0.053-0.206-0.01-0.395-0.166-0.56c-0.16-0.164-0.449-0.305-0.878-0.425
				c-0.458-0.128-0.914-0.256-1.37-0.389c0.053-0.221,0.109-0.439,0.163-0.66c2.256,0.649,4.52,1.253,6.79,1.812
				c-0.043,0.224-0.096,0.446-0.14,0.668c-0.309-0.075-0.617-0.152-0.925-0.229c-0.408-0.104-0.717-0.119-0.924-0.04
				c-0.199,0.077-0.331,0.234-0.382,0.47c-0.395,1.791-0.785,3.582-1.177,5.371c-0.25-0.062-0.498-0.129-0.747-0.195
				c-0.085-0.907-0.188-1.784-0.306-2.627c-0.733,0.626-1.545,1.026-2.41,1.195c-0.869,0.17-1.802,0.106-2.784-0.185
				c-1.412-0.416-2.632-1.123-3.66-2.104c-1.024-0.979-1.726-2.134-2.091-3.444c-0.369-1.315-0.341-2.65,0.067-4.013
				c0.41-1.37,1.109-2.478,2.088-3.342c0.978-0.866,2.116-1.43,3.428-1.714c1.31-0.283,2.529-0.258,3.682,0.084
				c0.658,0.193,1.26,0.477,1.806,0.844C71.261,153.68,71.856,154.233,72.487,154.977z"/>
			<path fill="#DAA620" d="M81.901,161.213c1.371,0.287,2.443,0.951,3.244,2.004c0.797,1.054,1.099,2.3,0.879,3.737
				c-0.151,0.994-0.493,1.8-1.032,2.42c-0.542,0.616-1.245,1.054-2.121,1.299c-0.871,0.249-1.779,0.273-2.715,0.075
				c-1.383-0.293-2.474-0.996-3.255-2.098c-0.784-1.102-1.024-2.355-0.741-3.757c0.287-1.408,0.983-2.436,2.083-3.104
				C79.341,161.119,80.551,160.933,81.901,161.213z M81.78,161.895c-0.816-0.169-1.539,0.01-2.191,0.543
				c-0.647,0.532-1.111,1.495-1.377,2.895c-0.272,1.423-0.205,2.525,0.21,3.303c0.417,0.779,1.05,1.264,1.911,1.442
				c0.886,0.188,1.659,0.001,2.314-0.553c0.659-0.552,1.104-1.585,1.347-3.09c0.228-1.393,0.127-2.455-0.292-3.182
				C83.287,162.527,82.646,162.077,81.78,161.895z"/>
			<path fill="#DAA620" d="M92.766,157.878c-0.566,4.4-1.12,8.801-1.665,13.199c-0.025,0.182,0.023,0.33,0.143,0.447
				c0.176,0.156,0.396,0.259,0.669,0.298c0.378,0.055,0.755,0.107,1.131,0.16c-0.028,0.243-0.054,0.486-0.085,0.729
				c-2.022-0.282-4.048-0.599-6.066-0.948c0.029-0.242,0.07-0.485,0.102-0.727c0.359,0.064,0.715,0.123,1.071,0.184
				c0.349,0.059,0.618,0.029,0.808-0.085c0.188-0.116,0.302-0.3,0.337-0.562c0.491-3.686,0.986-7.374,1.493-11.061
				c0.046-0.324-0.021-0.576-0.191-0.756c-0.238-0.252-0.546-0.404-0.929-0.469c-0.3-0.05-0.599-0.101-0.897-0.152
				c0.036-0.241,0.07-0.482,0.107-0.726C90.114,157.584,91.438,157.737,92.766,157.878z"/>
			<path fill="#DAA620" d="M101.52,159.113c1.307,0.068,2.622,0.125,3.926,0.163c-0.264,4.196-0.525,8.387-0.778,12.581
				c-0.025,0.488,0.055,0.85,0.264,1.074c0.201,0.225,0.529,0.355,0.958,0.384c0.25,0.017,0.493,0.033,0.743,0.05
				c-0.012,0.245-0.019,0.491-0.037,0.736c-1.224-0.079-2.447-0.171-3.671-0.273c-0.051-0.633-0.1-1.264-0.146-1.896
				c-0.477,0.629-1.027,1.087-1.633,1.367c-0.61,0.283-1.278,0.383-2.006,0.308c-1.224-0.129-2.225-0.688-2.992-1.663
				c-0.771-0.977-1.068-2.183-0.913-3.612c0.166-1.549,0.834-2.711,1.982-3.51c0.903-0.626,1.878-0.879,2.957-0.77
				c0.652,0.066,1.239,0.271,1.735,0.613c0.502,0.342,0.927,0.826,1.275,1.454c0.122-1.728,0.245-3.458,0.369-5.186
				c0.013-0.275-0.082-0.501-0.304-0.683c-0.221-0.179-0.577-0.292-1.071-0.337c-0.238-0.023-0.478-0.044-0.72-0.066
				C101.48,159.6,101.501,159.358,101.52,159.113z M100.399,164.894c-0.794-0.081-1.445,0.142-1.967,0.67
				c-0.521,0.526-0.854,1.477-0.985,2.851c-0.145,1.49,0.002,2.57,0.437,3.234c0.439,0.665,1.049,1.041,1.824,1.119
				c0.83,0.086,1.568-0.189,2.204-0.818c0.642-0.627,0.998-1.604,1.09-2.918c0.085-1.243-0.153-2.244-0.712-3.011
				C101.807,165.346,101.175,164.972,100.399,164.894z"/>
			<path fill="#DAA620" d="M115.065,165.218c0.982-0.038,1.964-0.085,2.949-0.141c0.16,0.687,0.271,1.341,0.322,1.963
				c0.562-0.72,1.121-1.231,1.673-1.53c0.555-0.3,1.169-0.458,1.836-0.471c0.714-0.015,1.303,0.135,1.774,0.454
				c0.471,0.319,0.844,0.852,1.122,1.596c0.474-0.731,0.999-1.288,1.588-1.669c0.585-0.383,1.233-0.592,1.94-0.634
				c0.933-0.054,1.652,0.149,2.152,0.615c0.641,0.614,1,1.442,1.066,2.479c0.096,1.527,0.197,3.057,0.293,4.582
				c0.016,0.277,0.105,0.458,0.275,0.543c0.223,0.136,0.539,0.188,0.962,0.155c0.182-0.015,0.359-0.029,0.538-0.043
				c0.016,0.245,0.036,0.491,0.052,0.737c-1.801,0.149-3.603,0.271-5.403,0.367c-0.013-0.246-0.024-0.493-0.033-0.739
				c0.18-0.01,0.357-0.019,0.537-0.029c0.458-0.029,0.775-0.111,0.95-0.255c0.171-0.142,0.255-0.346,0.24-0.608
				c-0.084-1.53-0.172-3.06-0.253-4.591c-0.038-0.684-0.256-1.203-0.652-1.555c-0.394-0.351-0.898-0.512-1.506-0.479
				c-0.463,0.024-0.879,0.154-1.242,0.392c-0.368,0.241-0.651,0.564-0.851,0.981c-0.296,0.599-0.442,1.102-0.426,1.51
				c0.042,1.328,0.089,2.654,0.131,3.98c0.008,0.271,0.1,0.467,0.271,0.588c0.173,0.122,0.438,0.178,0.786,0.162
				c0.246-0.01,0.486-0.023,0.731-0.033c0.008,0.247,0.021,0.493,0.03,0.739c-1.829,0.083-3.659,0.143-5.488,0.172
				c-0.005-0.247-0.01-0.492-0.013-0.739c0.207-0.004,0.412-0.008,0.618-0.012c0.391-0.008,0.679-0.08,0.866-0.217
				c0.186-0.136,0.282-0.307,0.274-0.511c-0.034-1.419-0.069-2.839-0.104-4.26c-0.019-0.901-0.217-1.552-0.586-1.948
				c-0.367-0.399-0.851-0.594-1.455-0.583c-0.776,0.011-1.383,0.254-1.798,0.729c-0.6,0.673-0.893,1.457-0.893,2.349
				c0.001,1.232,0.009,2.456,0.008,3.688c-0.001,0.282,0.075,0.478,0.218,0.582c0.209,0.138,0.527,0.207,0.963,0.204
				c0.182-0.003,0.37-0.003,0.55-0.005c0.006,0.249,0.003,0.492,0.007,0.739c-1.806,0.015-3.613,0.007-5.421-0.031
				c0.004-0.246,0.009-0.492,0.012-0.739c0.27,0.006,0.542,0.011,0.812,0.017c0.307,0.004,0.542-0.058,0.706-0.188
				c0.165-0.131,0.247-0.298,0.249-0.5c0.015-2.018,0.025-4.034,0.039-6.05c0-0.336-0.097-0.588-0.281-0.754
				c-0.191-0.165-0.572-0.273-1.146-0.33C115.061,165.671,115.062,165.445,115.065,165.218z"/>
			<path fill="#DAA620" d="M144.675,167.991c-2.501,0.368-5.006,0.685-7.518,0.949c0.162,1.4,0.557,2.357,1.176,2.874
				c0.715,0.578,1.58,0.809,2.595,0.683c1.489-0.183,2.612-1.079,3.324-2.667c0.26,0.057,0.512,0.11,0.769,0.168
				c-0.864,2.019-2.372,3.176-4.482,3.433c-1.438,0.172-2.692-0.145-3.746-0.938c-1.055-0.796-1.632-1.894-1.74-3.286
				c-0.119-1.498,0.25-2.748,1.102-3.765c0.851-1.018,1.943-1.599,3.29-1.764c0.993-0.123,1.873-0.003,2.651,0.355
				c0.775,0.36,1.403,0.938,1.883,1.741C144.31,166.336,144.54,167.077,144.675,167.991z M137.093,168.24
				c1.514-0.157,3.027-0.337,4.538-0.535c0.271-0.036,0.471-0.141,0.597-0.322c0.129-0.18,0.173-0.466,0.127-0.852
				c-0.085-0.72-0.411-1.298-0.968-1.735c-0.562-0.435-1.182-0.615-1.859-0.53c-0.758,0.092-1.378,0.47-1.851,1.14
				C137.198,166.073,137.005,167.018,137.093,168.24z"/>
			<path fill="#DAA620" d="M150.584,156.791c1.282-0.306,2.569-0.624,3.847-0.957c0.785,4.155,1.557,8.309,2.318,12.466
				c0.089,0.487,0.26,0.809,0.512,0.971c0.253,0.162,0.594,0.195,1.025,0.101c0.245-0.056,0.492-0.107,0.737-0.166
				c0.047,0.243,0.097,0.486,0.14,0.729c-1.213,0.275-2.427,0.533-3.64,0.783c-0.2-0.603-0.395-1.203-0.593-1.805
				c-0.317,0.748-0.732,1.349-1.26,1.796c-0.527,0.449-1.152,0.739-1.874,0.872c-1.217,0.222-2.321-0.033-3.296-0.768
				c-0.977-0.735-1.555-1.822-1.748-3.261c-0.214-1.554,0.15-2.878,1.067-3.981c0.72-0.864,1.606-1.392,2.675-1.59
				c0.652-0.122,1.262-0.085,1.832,0.102c0.565,0.192,1.102,0.543,1.592,1.054c-0.304-1.718-0.607-3.437-0.915-5.152
				c-0.05-0.273-0.202-0.464-0.462-0.577c-0.265-0.112-0.63-0.12-1.123-0.022c-0.239,0.046-0.476,0.093-0.712,0.138
				C150.665,157.277,150.624,157.034,150.584,156.791z M150.919,162.736c-0.785,0.146-1.365,0.551-1.742,1.211
				c-0.373,0.662-0.467,1.682-0.264,3.056c0.223,1.495,0.615,2.503,1.199,3.027c0.58,0.526,1.264,0.715,2.035,0.571
				c0.824-0.152,1.476-0.632,1.945-1.426c0.467-0.797,0.585-1.848,0.355-3.152c-0.218-1.233-0.691-2.142-1.422-2.729
				C152.396,162.775,151.69,162.592,150.919,162.736z"/>
			<path fill="#DAA620" d="M171.243,165.725c0.181,0.139,0.36,0.276,0.541,0.415c-0.421,0.641-0.972,1.063-1.643,1.256
				c-0.514,0.148-0.973,0.151-1.379,0.015c-0.406-0.141-0.813-0.472-1.216-0.994c-0.558,0.838-1.089,1.436-1.584,1.795
				c-0.491,0.359-1.124,0.636-1.888,0.831c-1.088,0.275-1.96,0.275-2.607,0.012c-0.646-0.263-1.032-0.716-1.157-1.341
				c-0.187-0.944,0.296-1.875,1.432-2.809c1.14-0.937,2.728-1.774,4.766-2.558c-0.112-0.455-0.222-0.911-0.328-1.366
				c-0.118-0.487-0.436-0.84-0.962-1.069c-0.524-0.224-1.119-0.247-1.802-0.068c-0.631,0.165-1.143,0.421-1.551,0.768
				c-0.286,0.257-0.413,0.467-0.379,0.635c0.024,0.099,0.14,0.226,0.361,0.389c0.264,0.206,0.424,0.406,0.467,0.607
				c0.064,0.287,0.01,0.554-0.163,0.79c-0.171,0.234-0.435,0.398-0.778,0.484c-0.366,0.09-0.698,0.054-0.99-0.106
				c-0.291-0.162-0.474-0.412-0.542-0.754c-0.129-0.642,0.152-1.319,0.85-2.048c0.693-0.727,1.694-1.258,2.992-1.603
				c1.202-0.319,2.175-0.345,2.919-0.062c0.747,0.287,1.21,0.761,1.378,1.427c0.408,1.638,0.814,3.274,1.219,4.912
				c0.107,0.436,0.27,0.733,0.484,0.891c0.214,0.161,0.454,0.206,0.717,0.13C170.692,166.218,170.977,166.024,171.243,165.725z
				 M166.659,162.981c-1.812,0.74-3.062,1.446-3.737,2.154c-0.501,0.531-0.68,1.154-0.53,1.864c0.105,0.496,0.341,0.847,0.709,1.049
				c0.368,0.201,0.801,0.244,1.298,0.115c0.89-0.229,1.595-0.72,2.108-1.469c0.517-0.748,0.664-1.561,0.459-2.426
				C166.865,163.842,166.759,163.411,166.659,162.981z"/>
			<path fill="#DAA620" d="M173.018,150.724c1.27,4.296,2.522,8.595,3.755,12.895c0.051,0.18,0.153,0.295,0.307,0.346
				c0.221,0.067,0.469,0.051,0.734-0.037c0.367-0.123,0.738-0.25,1.105-0.377c0.069,0.236,0.144,0.474,0.211,0.711
				c-1.979,0.681-3.965,1.329-5.958,1.942c-0.062-0.24-0.129-0.479-0.189-0.716c0.354-0.109,0.703-0.219,1.053-0.329
				c0.345-0.108,0.581-0.257,0.71-0.453c0.129-0.192,0.161-0.416,0.088-0.672c-1.002-3.621-2.012-7.241-3.043-10.855
				c-0.087-0.317-0.246-0.52-0.479-0.604c-0.313-0.12-0.664-0.12-1.039-0.001c-0.295,0.093-0.586,0.184-0.881,0.275
				c-0.061-0.238-0.133-0.479-0.195-0.717C170.472,151.679,171.745,151.207,173.018,150.724z"/>
		</g>
	</g>
</g>
</svg>
