<?xml version="1.0" encoding="utf-8"?>
<!-- Generator: Adobe Illustrator 16.0.0, SVG Export Plug-In . SVG Version: 6.00 Build 0)  -->
<!DOCTYPE svg PUBLIC "-//W3C//DTD SVG 1.1//EN" "http://www.w3.org/Graphics/SVG/1.1/DTD/svg11.dtd">
<svg version="1.1" id="Livello_1" xmlns="http://www.w3.org/2000/svg" xmlns:xlink="http://www.w3.org/1999/xlink" x="0px" y="0px"
	 width="210px" height="260px" viewBox="0 0 210 260" enable-background="new 0 0 210 260" xml:space="preserve">
<g>
	<path fill="#0572B7" d="M91.936,71.192c-1.084,3.724-4.982,5.864-8.707,4.78l-13.073-3.805c-3.725-1.085-5.865-4.983-4.781-8.708
		l3.806-13.073c1.084-3.725,4.982-5.865,8.707-4.781l13.073,3.806c3.725,1.085,5.865,4.983,4.781,8.708L91.936,71.192z"/>
	<path fill="#0572B7" d="M149.392,66.246c0.974,3.754-1.28,7.588-5.035,8.562l-13.179,3.421c-3.755,0.975-7.589-1.278-8.563-5.034
		l-3.422-13.179c-0.975-3.755,1.279-7.589,5.034-8.564l13.18-3.421c3.755-0.975,7.589,1.279,8.563,5.035L149.392,66.246z"/>
	<path fill="#55ABE0" d="M158.602,65.58H133.22c-0.338-0.567-0.802-1.176-1.375-1.765l-22.729-23.392
		c-1.586-1.632-3.36-2.48-3.965-1.893L77.314,65.58H51.827c-2.276,0-4.12,1.845-4.12,4.121l11.329,32.615
		c0,2.275,1.846,4.12,4.121,4.12h86.518c2.275,0,4.119-1.845,4.119-4.12l8.928-32.615C162.722,67.425,160.877,65.58,158.602,65.58z"
		/>
	<circle fill="#D5584C" cx="42.498" cy="60.79" r="6.378"/>
	<circle fill="#0572B7" cx="67.427" cy="38.345" r="5.193"/>
	<circle fill="#0572B7" cx="149.617" cy="42.373" r="5.193"/>
	<circle fill="#55ABE0" cx="169.101" cy="60.79" r="6.378"/>
	<polygon fill="#55ABE0" points="105.977,41.989 111.22,28.107 121.083,24.841 111.22,21.576 105.977,7.695 100.732,21.576 
		90.871,24.841 100.732,28.107 	"/>
	<circle fill="#55ABE0" cx="42.498" cy="60.79" r="6.378"/>
	<g>
		<circle fill="#0572B7" cx="105" cy="168.305" r="84"/>
		<circle fill="#0572B7" stroke="#FFFFFF" stroke-width="5" stroke-miterlimit="10" cx="105" cy="168.305" r="75.216"/>
		<path fill="none" d="M41.531,151.451h31.434v31.435H41.531V151.451z"/>
		<rect x="130.005" y="189.654" fill="none" width="24.543" height="24.956"/>
		<g>
			<g>
				<path fill="#55ABE0" stroke="#FFFFFF" stroke-miterlimit="10" d="M65.938,195.39l-8.353,1.761
					c4.722,8.347,11.686,15.49,20.472,20.428l1.18-8.916C73.711,205.263,69.212,200.681,65.938,195.39z"/>
				<path fill="#55ABE0" stroke="#FFFFFF" stroke-miterlimit="10" d="M79.714,132.444l-1.762-8.906
					c-8.346,4.721-15.488,11.686-20.427,20.473l8.917,1.732C69.841,140.216,74.423,135.718,79.714,132.444z"/>
				<path fill="#55ABE0" stroke="#FFFFFF" stroke-miterlimit="10" d="M143.212,145.112l8.354-1.207
					c-4.721-8.348-11.685-15.49-20.472-20.428l-1.18,8.363C135.441,135.238,139.94,139.821,143.212,145.112z"/>
				<path fill="#55ABE0" stroke="#FFFFFF" stroke-miterlimit="10" d="M95.226,215.325l-5.052,7.256
					c9.712,2.699,19.685,2.551,28.919-0.033l-5.078-7.247C107.962,216.741,101.541,216.815,95.226,215.325z"/>
				<path fill="#55ABE0" stroke="#FFFFFF" stroke-miterlimit="10" d="M156.595,156.01l-6.955,3.909
					c1.44,6.052,1.514,12.474,0.022,18.789l6.966,6.223C159.328,175.219,159.18,165.243,156.595,156.01z"/>
			</g>
			<path fill="#55ABE0" stroke="#FFFFFF" stroke-width="2" stroke-miterlimit="10" d="M112.116,141.951H88.041v58.177h13.757
				v-19.393h10.318c11.4,0,20.635-8.678,20.635-19.393S123.517,141.951,112.116,141.951z M112.804,167.807h-11.006v-12.928h11.006
				c3.799,0,6.879,2.893,6.879,6.464C119.683,164.915,116.603,167.807,112.804,167.807z"/>
			<g>
				<g>
					<path fill="#FFFFFF" d="M62.595,158.539c1.289,0.03,2.367-0.993,2.396-2.288c0.029-1.297-0.999-2.368-2.288-2.398
						c-1.295-0.029-2.367,0.992-2.397,2.289C60.276,157.437,61.3,158.509,62.595,158.539z"/>
				</g>
				<g>
					<path fill="#FFFFFF" d="M62.935,167.792h6.355v-2.343h-4.722l-2.604-4.337c-0.384-0.65-1.093-1.08-1.901-1.08
						c-0.221,0-0.436,0.032-0.638,0.09l-7.064,2.201l-0.955,6.771h2.344l0.955-4.771l2.742-0.854l-5.086,19.948h2.344l3.737-10.56
						l3.034,4.05v6.51h2.343v-8.34l-3.242-5.912l0.958-3.735L62.935,167.792z"/>
				</g>
			</g>
			<path fill="#FFFFFF" d="M124.233,124.321c-0.981-3.08-3.608-5.095-6.572-5.062l-2.148,0.078l-0.68-1.706
				c-1.321-3.311-2.004-4.934-2.213-5.249c-0.208-0.315-0.232-0.319-2.189-0.319c-1.733,0-2.007,0.03-2.155,0.231
				c-0.242,0.317-0.229,0.513,0.074,0.816c0.233,0.232,0.439,0.262,1.756,0.262c1.04,0,1.531,0.05,1.616,0.164
				c0.147,0.195,0.694,1.531,0.694,1.691c0,0.062-2.742,0.11-6.093,0.11h-6.096l-0.259-0.514c-0.146-0.287-0.267-0.546-0.267-0.577
				c0-0.035,0.624-0.131,1.388-0.224c1.555-0.184,2.125-0.458,1.751-0.839c-0.167-0.173-0.635-0.213-2.714-0.238
				c-1.71-0.02-2.562,0.016-2.659,0.116c-0.079,0.079-0.126,0.374-0.103,0.654c0.037,0.45,0.074,0.706,0.49,0.657l0.63-0.081
				l0.819,1.544l-2.559,3.923c-1.824-0.547-3.48-0.671-5.354-0.067c-0.901,0.379-2.179,1.286-2.763,1.971
				c-0.765,0.893-1.365,2.244-1.545,3.479c-0.02,0.137-0.033,0.275-0.043,0.41v0.938c0.193,2.657,2.037,5.144,4.615,5.999
				c1.196,0.401,1.225,0.405,2.476,0.362c0.935-0.032,1.389-0.124,2.2-0.438c1.18-0.459,1.73-0.915,2.962-2.258
				c1.247-1.367,1.377-2.924,1.426-3.339c0.103-0.036,1.123-0.071,2.27-0.071h2.088l0.019,1.05c0.012,0.577-0.029,1.312-0.023,1.439
				c0.01,0.18-0.056,0.076-0.496,0.107c-0.499,0.033-0.562,0.075-0.524,0.327c0.031,0.23,0.142,0.3,0.552,0.331
				c0.28,0.025,0.959-0.083,1.129-0.126l0.035-3.168l0.883-1.1c0.502-0.635,0.959-1.213,1.013-1.283
				c0.057-0.074,0.313-0.398,0.57-0.724c0.255-0.324,1.456-1.843,2.667-3.376c1.211-1.531,2.24-2.787,2.294-2.787
				c0.056,0,0.161,0.135,0.237,0.3c0.47,0.984,0.721,1.642,0.78,2.023c0.063,0.374,0.028,0.444-0.274,0.56
				c-0.519,0.198-1.938,1.702-2.356,2.505c-0.523,1-0.87,2.277-0.87,3.229c0,1.405,0.946,3.726,1.914,4.689
				c2.631,2.631,6.422,2.869,9.286,0.588c1-0.89,1.848-2.055,2.255-3.34C124.445,127.052,124.483,125.099,124.233,124.321z
				 M97.294,121.767c0.921,0.834,1.812,1.658,1.978,3.495l-4.212,0.061L97.294,121.767z M93.595,131.282
				c-2.516-0.084-5.165-2.008-5.138-5.539c0.022-3.49,3.771-5.908,7.668-4.562c-1.025,1.809-3.382,4.9-3.097,5.291
				c0.295,0.407,0.853,0.271,3.5,0.271h2.815C99.057,130.65,95.127,131.331,93.595,131.282z M100.687,125.241
				c-0.381-1.876-1.46-3.381-2.753-4.767l1.842-3.038c0.077,0,0.425,0.516,0.776,1.144c0.353,0.633,1.337,2.385,2.191,3.893
				c0.854,1.506,1.538,2.808,1.477,2.808L100.687,125.241z M108.823,120.729c-0.095,0.111-0.471,0.626-0.87,1.112l-2.219,2.702
				l-0.002-1.694c0.339-0.01,1.027-0.005,1.004-0.437c-0.019-0.435-0.972-0.315-1.633-0.286l0.066,2.474l-4.057-7.95h5.324
				c4.473,0,5.324,0.031,5.324,0.186C111.762,116.977,110.264,118.96,108.823,120.729z M121.434,129.998
				c-1.398,1.352-3.437,1.899-5.23,1.407c-2.697-0.744-4.485-3.369-4.074-5.986c0.229-1.458,0.624-2.285,1.532-3.21
				c1.056-1.08,1.248-1.085,1.639-0.055c0.094,0.252,0.299,0.759,0.455,1.117c0.156,0.361,0.516,1.229,0.8,1.93
				c0.579,1.435,0.91,1.769,1.368,1.353c0.375-0.524,0.045-1.295-0.368-2.189c-0.222-0.404-1.338-3.413-1.338-3.609
				c0.313-0.312,1.038-0.16,1.476-0.146c1.255,0.056,1.587,0.12,2.243,0.425c0.972,0.454,2.231,1.715,2.687,2.693
				c0.301,0.648,0.542,0.9,0.559,2.39C123.36,127.626,122.414,128.921,121.434,129.998z"/>
			<path fill="#FFFFFF" d="M147.798,192.763c-0.936-1.6-2.049-1.948-3.838-2.408c-1.787-0.46-3.591-0.529-5.157-0.529
				s-3.369,0.069-5.157,0.529c-1.787,0.46-2.915,0.809-3.851,2.408c-0.937,1.6-1.637,9.74-1.637,10.16c0,0.422,0,9.192,0,9.192
				h1.116c0,0.559,0,2.46,0,2.48c0,0.787,1.166,1.427,1.953,1.427c0.788,0,1.954-0.64,1.954-1.427c0-0.021,0-1.922,0-2.48h11.432
				c0,0.559-0.002,2.207,0,2.228c0.181,1.427,1.518,1.553,2.305,1.553s1.334-0.513,1.334-1.3c0-0.021,0-1.922,0-2.48h1.176
				c0,0,0.002-8.313,0.002-8.773C149.43,202.883,148.734,194.362,147.798,192.763z M134.856,190.905h8.371v2.233h-8.371V190.905z
				 M132.159,210.507c-1.4,0-2.535-1.134-2.535-2.532s1.135-2.532,2.535-2.532c1.398,0,2.533,1.134,2.533,2.532
				S133.558,210.507,132.159,210.507z M129.825,202.627c0,0,0.587-6.768,1.216-7.396c0.627-0.628,14.896-0.554,15.522,0.075
				c0.63,0.627,1.214,7.321,1.214,7.321H129.825z M145.159,210.507c-1.398,0-2.535-1.134-2.535-2.532s1.137-2.532,2.535-2.532
				c1.396,0,2.533,1.134,2.533,2.532S146.556,210.507,145.159,210.507z"/>
		</g>
	</g>
	<g>
		<g>
			<path fill="#328ACA" stroke="#FFFFFF" stroke-width="2" stroke-miterlimit="10" d="M192.646,208.228
				c-2.534-5.82-5.349-11.609-8.445-17.347c6.004-2.538,12.218-4.851,18.63-6.915c-63.973-26.856-136.117-26.687-199.987,0.509
				c0.04,0.094,0.08,0.188,0.12,0.282c6.617,2.096,13.025,4.457,19.211,7.058c-2.898,5.432-5.547,10.909-7.941,16.415
				C71.289,184.276,135.589,184.275,192.646,208.228L192.646,208.228L192.646,208.228z"/>
		</g>
	</g>
	<g>
		<g>
			<path fill="#FFFFFF" d="M22.018,181.812c2.283-0.723,4.565-1.414,6.853-2.074c0.065,0.219,0.132,0.439,0.199,0.659
				c-0.486,0.139-0.969,0.28-1.456,0.425c-0.308,0.092-0.533,0.231-0.652,0.422c-0.124,0.192-0.153,0.395-0.085,0.609
				c0.629,2.002,1.263,4.007,1.901,6.008c1.271-2.279,2.586-4.549,3.95-6.81c0.233-0.395,0.314-0.727,0.235-0.997
				c-0.058-0.207-0.219-0.346-0.478-0.412c-0.258-0.066-0.646-0.031-1.149,0.11c-0.137,0.04-0.275,0.077-0.415,0.116
				c-0.064-0.219-0.129-0.439-0.193-0.66c2.054-0.576,4.109-1.129,6.167-1.655c0.06,0.221,0.119,0.443,0.176,0.663
				c-0.16,0.04-0.315,0.083-0.476,0.124c-0.409,0.105-0.836,0.329-1.271,0.671c-0.433,0.342-0.808,0.758-1.118,1.247
				c-0.856,1.361-1.694,2.728-2.515,4.098c2.259,1.657,4.479,3.341,6.662,5.054c0.365,0.29,0.71,0.472,1.034,0.549
				c0.324,0.076,0.678,0.065,1.065-0.033c0.175-0.045,0.349-0.088,0.521-0.133c0.062,0.223,0.119,0.443,0.18,0.664
				c-2.136,0.541-4.271,1.111-6.4,1.712c-0.066-0.219-0.135-0.438-0.2-0.658c0.245-0.068,0.487-0.139,0.731-0.204
				c0.53-0.15,0.875-0.285,1.026-0.418c0.152-0.129,0.208-0.257,0.173-0.379c-0.031-0.112-0.104-0.214-0.211-0.304
				c-1.827-1.401-3.683-2.785-5.564-4.149c-0.543,0.947-1.073,1.896-1.597,2.848c0.337,1.062,0.683,2.121,1.024,3.182
				c0.064,0.199,0.176,0.324,0.333,0.38c0.251,0.077,0.519,0.077,0.798-0.007c0.458-0.136,0.922-0.27,1.383-0.405
				c0.068,0.218,0.139,0.439,0.205,0.658c-2.162,0.623-4.314,1.28-6.467,1.964c-0.076-0.216-0.152-0.433-0.227-0.65
				c0.415-0.134,0.83-0.264,1.248-0.393c0.32-0.101,0.532-0.233,0.65-0.4c0.115-0.168,0.139-0.346,0.074-0.537
				c-1.146-3.433-2.275-6.866-3.386-10.303c-0.067-0.206-0.21-0.333-0.427-0.391c-0.219-0.059-0.543-0.02-0.975,0.114
				c-0.371,0.116-0.738,0.233-1.112,0.35C22.162,182.248,22.093,182.031,22.018,181.812z"/>
			<path fill="#FFFFFF" d="M39.103,182.115c1.23-0.345,2.459-0.683,3.693-1.009c0.593,2.391,1.191,4.776,1.795,7.164
				c0.048,0.197,0.137,0.321,0.26,0.38c0.18,0.086,0.383,0.1,0.605,0.046c0.339-0.079,0.683-0.159,1.023-0.236
				c0.053,0.224,0.109,0.444,0.164,0.667c-1.711,0.394-3.418,0.807-5.125,1.236c-0.06-0.22-0.121-0.443-0.18-0.663
				c0.318-0.082,0.635-0.16,0.954-0.239c0.282-0.069,0.476-0.184,0.571-0.345c0.099-0.159,0.116-0.359,0.053-0.603
				c-0.456-1.745-0.906-3.49-1.354-5.236c-0.085-0.331-0.253-0.557-0.509-0.671c-0.256-0.118-0.59-0.123-1.01-0.021
				c-0.257,0.064-0.511,0.13-0.766,0.192C39.222,182.558,39.161,182.336,39.103,182.115z M40.447,176.507
				c0.305-0.072,0.599-0.036,0.878,0.11c0.281,0.146,0.453,0.356,0.52,0.629c0.064,0.267,0.008,0.526-0.163,0.772
				c-0.172,0.246-0.419,0.412-0.727,0.484c-0.311,0.076-0.6,0.043-0.876-0.1c-0.277-0.143-0.451-0.349-0.518-0.614
				c-0.068-0.265-0.014-0.527,0.166-0.786C39.908,176.745,40.149,176.581,40.447,176.507z"/>
			<path fill="#FFFFFF" d="M45.714,180.534c1.021-0.29,2.044-0.574,3.066-0.852c0.242,0.498,0.473,1.092,0.687,1.783
				c0.28-0.696,0.679-1.257,1.179-1.678c0.504-0.421,1.119-0.707,1.838-0.849c0.619-0.122,1.161-0.113,1.625,0.024
				s0.867,0.42,1.212,0.847c0.343,0.425,0.57,0.934,0.685,1.52c0.267,1.366,0.533,2.733,0.803,4.098
				c0.06,0.305,0.178,0.509,0.352,0.61c0.173,0.101,0.434,0.118,0.783,0.056c0.212-0.039,0.425-0.075,0.638-0.115
				c0.042,0.224,0.085,0.448,0.129,0.673c-1.588,0.286-3.178,0.588-4.766,0.905c-0.047-0.224-0.096-0.447-0.143-0.671
				c0.149-0.032,0.304-0.062,0.454-0.091c0.43-0.084,0.708-0.207,0.852-0.363c0.141-0.16,0.187-0.364,0.137-0.614
				c-0.245-1.199-0.486-2.398-0.729-3.599c-0.157-0.784-0.407-1.337-0.748-1.665c-0.481-0.464-1.1-0.625-1.856-0.472
				c-0.75,0.151-1.318,0.553-1.699,1.199c-0.384,0.646-0.473,1.406-0.277,2.276c0.229,1.034,0.459,2.067,0.693,3.102
				c0.065,0.305,0.193,0.504,0.372,0.601c0.178,0.095,0.446,0.106,0.792,0.036c0.211-0.044,0.419-0.088,0.629-0.131
				c0.047,0.222,0.098,0.448,0.146,0.672c-1.596,0.325-3.185,0.669-4.777,1.029c-0.051-0.223-0.107-0.446-0.16-0.67
				c0.21-0.046,0.419-0.094,0.629-0.14c0.315-0.071,0.539-0.183,0.676-0.339c0.138-0.154,0.184-0.32,0.143-0.499
				c-0.416-1.8-0.833-3.599-1.244-5.401c-0.082-0.357-0.251-0.605-0.508-0.741c-0.259-0.138-0.59-0.163-0.996-0.069
				c-0.157,0.034-0.318,0.07-0.478,0.105C45.803,180.92,45.759,180.729,45.714,180.534z"/>
			<path fill="#FFFFFF" d="M65.472,177.352c0.572-0.708,1.147-1.1,1.707-1.179c0.334-0.049,0.627,0.013,0.873,0.175
				c0.25,0.165,0.391,0.384,0.43,0.662c0.034,0.223-0.02,0.419-0.147,0.587c-0.132,0.17-0.295,0.268-0.491,0.295
				c-0.379,0.053-0.666-0.124-0.859-0.527c-0.077-0.174-0.18-0.249-0.309-0.234c-0.227,0.033-0.459,0.204-0.679,0.515
				c0.34,0.314,0.583,0.595,0.725,0.844c0.144,0.245,0.239,0.522,0.282,0.822c0.078,0.524,0.009,1.01-0.209,1.45
				c-0.216,0.441-0.62,0.862-1.207,1.263c-0.589,0.403-1.17,0.65-1.754,0.741c-0.355,0.056-0.711,0.113-1.066,0.169
				c-0.758,0.122-1.246,0.279-1.467,0.463c-0.222,0.191-0.306,0.433-0.255,0.72c0.042,0.235,0.174,0.398,0.396,0.49
				c0.223,0.094,0.614,0.094,1.171,0.003c0.799-0.145,1.596-0.286,2.392-0.424c1.215-0.186,2.114-0.123,2.705,0.178
				c0.587,0.3,0.932,0.782,1.027,1.441c0.104,0.726-0.106,1.376-0.629,1.955c-0.727,0.821-1.916,1.35-3.56,1.611
				c-1.364,0.214-2.417,0.146-3.163-0.213c-0.588-0.283-0.926-0.655-1.014-1.117c-0.063-0.354,0.041-0.709,0.325-1.06
				c0.285-0.355,0.812-0.668,1.585-0.945c-0.666-0.04-1.178-0.169-1.555-0.393c-0.377-0.227-0.598-0.544-0.673-0.958
				c-0.069-0.383,0.001-0.741,0.212-1.071c0.213-0.331,0.627-0.653,1.245-0.967c-0.603-0.191-1.083-0.459-1.436-0.812
				c-0.354-0.351-0.576-0.785-0.67-1.303c-0.146-0.815,0.082-1.563,0.7-2.235c0.615-0.672,1.5-1.104,2.641-1.283
				c0.465-0.074,0.93-0.083,1.382-0.027C64.578,177.042,65.026,177.163,65.472,177.352z M64.725,185.654
				c-1.183,0.182-2.003,0.478-2.453,0.866c-0.452,0.389-0.636,0.801-0.559,1.234c0.073,0.41,0.319,0.699,0.735,0.871
				c0.556,0.231,1.285,0.269,2.199,0.125c1.095-0.171,1.887-0.465,2.389-0.892c0.502-0.424,0.72-0.847,0.657-1.27
				c-0.039-0.247-0.161-0.466-0.365-0.655c-0.205-0.189-0.506-0.312-0.905-0.366C66.026,185.512,65.458,185.54,64.725,185.654z
				 M62.819,177.597c-0.595,0.095-1.055,0.368-1.37,0.825c-0.317,0.458-0.416,1.041-0.295,1.752c0.133,0.756,0.423,1.312,0.874,1.67
				c0.455,0.354,0.967,0.487,1.558,0.395c0.59-0.093,1.037-0.37,1.351-0.835c0.312-0.463,0.411-1.075,0.294-1.834
				c-0.108-0.705-0.389-1.236-0.842-1.585C63.936,177.634,63.409,177.503,62.819,177.597z"/>
			<path fill="#FFFFFF" d="M79.334,174.95c1.265-0.117,2.361,0.207,3.289,0.971c0.925,0.76,1.429,1.826,1.534,3.18
				c0.074,0.937-0.055,1.747-0.375,2.437c-0.319,0.688-0.812,1.253-1.465,1.69c-0.659,0.442-1.377,0.694-2.17,0.769
				c-1.175,0.107-2.207-0.209-3.121-0.961c-0.91-0.751-1.449-1.789-1.6-3.122c-0.15-1.34,0.144-2.475,0.9-3.399
				C77.083,175.589,78.088,175.065,79.334,174.95z M79.395,175.596c-0.744,0.069-1.334,0.436-1.747,1.101
				c-0.414,0.665-0.554,1.657-0.411,2.988c0.142,1.352,0.481,2.317,1.011,2.896s1.153,0.832,1.886,0.766
				c0.757-0.07,1.338-0.433,1.755-1.101c0.416-0.664,0.562-1.711,0.445-3.131c-0.109-1.315-0.43-2.253-0.953-2.802
				C80.854,175.764,80.19,175.522,79.395,175.596z"/>
			<path fill="#FFFFFF" d="M88.405,174.532c0.783-0.045,1.566-0.085,2.349-0.122c0.013,0.265,0.026,0.528,0.038,0.794
				c-0.78,0.036-1.559,0.078-2.341,0.122c0.122,2.081,0.241,4.164,0.366,6.245c0.014,0.287,0.101,0.483,0.249,0.591
				c0.204,0.143,0.479,0.203,0.829,0.185c0.414-0.021,0.832-0.04,1.244-0.062c0.015,0.229,0.021,0.458,0.035,0.686
				c-1.855,0.09-3.704,0.195-5.562,0.327c-0.019-0.229-0.032-0.457-0.05-0.685c0.256-0.019,0.511-0.035,0.767-0.053
				c0.343-0.024,0.579-0.093,0.709-0.211c0.126-0.119,0.185-0.292,0.17-0.523c-0.14-2.134-0.278-4.267-0.417-6.4
				c-0.54,0.035-1.077,0.072-1.62,0.107c-0.017-0.263-0.041-0.527-0.056-0.793c0.542-0.034,1.082-0.075,1.625-0.107
				c-0.015-0.217-0.027-0.432-0.042-0.648c-0.101-1.506,0.174-2.679,0.827-3.512c0.652-0.834,1.5-1.279,2.537-1.33
				c0.767-0.038,1.381,0.104,1.826,0.419c0.444,0.316,0.678,0.747,0.701,1.29c0.015,0.353-0.078,0.637-0.276,0.849
				c-0.201,0.212-0.452,0.325-0.772,0.339c-0.283,0.013-0.521-0.057-0.715-0.214c-0.192-0.157-0.293-0.358-0.31-0.608
				c-0.012-0.287,0.096-0.528,0.333-0.721c0.188-0.156,0.282-0.269,0.281-0.344c-0.008-0.103-0.083-0.192-0.242-0.271
				c-0.158-0.076-0.389-0.109-0.693-0.096c-0.578,0.028-1.054,0.285-1.423,0.766c-0.372,0.478-0.532,1.176-0.478,2.084
				C88.333,173.266,88.366,173.899,88.405,174.532z"/>
			<path fill="#FFFFFF" d="M100.188,170.639c0.228-0.002,0.455-0.006,0.683-0.007c0.012,1.164,0.018,2.33,0.03,3.494
				c1.014-0.009,2.027-0.011,3.039-0.007c-0.001,0.28,0.002,0.561-0.002,0.841c-1.009-0.004-2.021,0-3.032,0.007
				c0.019,1.833,0.03,3.663,0.047,5.497c0.004,0.476,0.129,0.839,0.37,1.09c0.246,0.252,0.55,0.376,0.917,0.375
				c0.442-0.002,0.82-0.193,1.131-0.576c0.311-0.385,0.498-1.021,0.551-1.901c0.218,0,0.438,0.003,0.657,0.002
				c-0.047,1.138-0.324,1.986-0.842,2.536c-0.513,0.55-1.176,0.826-1.989,0.829c-0.751,0.006-1.333-0.186-1.765-0.566
				c-0.428-0.381-0.653-0.886-0.659-1.514c-0.028-1.916-0.06-3.835-0.088-5.752c-0.546,0.008-1.084,0.018-1.63,0.029
				c-0.006-0.216-0.01-0.426-0.014-0.639c0.74-0.133,1.306-0.425,1.688-0.881C99.853,172.812,100.151,171.859,100.188,170.639z"/>
			<path fill="#FFFFFF" d="M105.556,169.171c1.212-0.041,2.424-0.071,3.635-0.095c-0.052,2.2-0.104,4.401-0.156,6.601
				c0.51-0.574,1.052-0.994,1.627-1.269c0.577-0.272,1.184-0.399,1.821-0.374c0.603,0.021,1.14,0.176,1.61,0.457
				c0.365,0.224,0.666,0.599,0.906,1.131c0.238,0.528,0.339,1.149,0.304,1.854c-0.069,1.356-0.134,2.71-0.203,4.065
				c-0.012,0.262,0.052,0.455,0.186,0.581c0.135,0.126,0.357,0.196,0.661,0.212c0.26,0.015,0.516,0.025,0.777,0.042
				c-0.012,0.228-0.027,0.455-0.039,0.685c-1.634-0.09-3.27-0.164-4.904-0.221c0.011-0.229,0.018-0.457,0.025-0.686
				c0.181,0.006,0.361,0.012,0.545,0.02c0.415,0.012,0.703-0.033,0.868-0.153c0.165-0.118,0.253-0.3,0.262-0.552
				c0.058-1.354,0.12-2.712,0.177-4.067c0.029-0.715-0.132-1.276-0.493-1.69c-0.36-0.417-0.835-0.631-1.421-0.652
				c-0.461-0.015-0.89,0.085-1.291,0.299c-0.398,0.215-0.742,0.548-1.025,1.001c-0.284,0.454-0.432,0.939-0.443,1.449
				c-0.027,1.139-0.055,2.278-0.082,3.419c-0.012,0.303,0.054,0.523,0.187,0.654c0.132,0.131,0.358,0.201,0.667,0.209
				c0.257,0.007,0.52,0.016,0.778,0.023c-0.008,0.229-0.017,0.456-0.021,0.685c-1.6-0.048-3.2-0.079-4.798-0.097
				c0.004-0.229,0.006-0.458,0.007-0.686c0.18,0,0.364,0.003,0.544,0.005c0.369,0.006,0.632-0.061,0.792-0.194
				c0.161-0.135,0.238-0.346,0.243-0.631c0.062-3.409,0.122-6.816,0.18-10.225c0.006-0.364-0.099-0.642-0.307-0.823
				c-0.213-0.183-0.521-0.279-0.929-0.283c-0.233-0.003-0.464-0.005-0.695-0.008C105.554,169.629,105.557,169.401,105.556,169.171z"
				/>
			<path fill="#FFFFFF" d="M126.704,179.568c-2.202-0.209-4.404-0.383-6.613-0.533c-0.057,1.306,0.141,2.24,0.587,2.811
				c0.514,0.64,1.2,0.994,2.06,1.062c1.268,0.1,2.35-0.485,3.252-1.772c0.205,0.104,0.41,0.21,0.612,0.314
				c-1.123,1.636-2.559,2.376-4.339,2.236c-1.212-0.094-2.201-0.577-2.979-1.459c-0.772-0.882-1.129-1.965-1.051-3.255
				c0.085-1.388,0.578-2.486,1.474-3.286c0.897-0.8,1.978-1.154,3.213-1.06c0.909,0.07,1.679,0.347,2.304,0.831
				c0.622,0.483,1.063,1.139,1.318,1.964C126.72,178.002,126.771,178.717,126.704,179.568z M120.136,178.388
				c1.338,0.09,2.675,0.191,4.014,0.302c0.236,0.021,0.43-0.038,0.572-0.177c0.146-0.137,0.237-0.385,0.266-0.743
				c0.061-0.669-0.117-1.257-0.532-1.762c-0.416-0.506-0.939-0.783-1.559-0.832c-0.696-0.056-1.308,0.187-1.829,0.718
				C120.54,176.426,120.239,177.255,120.136,178.388z"/>
			<path fill="#FFFFFF" d="M134.143,175.998c1.375,0.165,2.747,0.343,4.12,0.531c-0.03,0.208-0.06,0.415-0.089,0.625
				c-0.181-0.024-0.359-0.049-0.54-0.073c-0.262-0.037-0.461-0.025-0.584,0.037c-0.127,0.061-0.195,0.152-0.211,0.282
				c-0.018,0.134-0.003,0.277,0.041,0.438c0.482,1.695,0.946,3.389,1.399,5.085c0.818-1.435,1.646-2.866,2.485-4.292
				c-0.178-0.526-0.357-0.858-0.531-1.006c-0.173-0.145-0.506-0.254-0.991-0.323c0.029-0.207,0.057-0.415,0.089-0.624
				c1.51,0.214,3.02,0.441,4.533,0.682c-0.036,0.207-0.065,0.414-0.104,0.623c-0.126-0.021-0.251-0.039-0.379-0.061
				c-0.346-0.053-0.588-0.052-0.734,0.01c-0.144,0.062-0.227,0.166-0.249,0.309c-0.015,0.109-0.007,0.24,0.03,0.395
				c0.449,1.707,0.887,3.412,1.306,5.119c0.792-1.328,1.592-2.65,2.399-3.972c0.162-0.263,0.261-0.493,0.297-0.691
				c0.039-0.199-0.023-0.366-0.178-0.505c-0.153-0.133-0.468-0.255-0.946-0.353c0.037-0.208,0.071-0.415,0.106-0.621
				c1.215,0.201,2.436,0.41,3.65,0.63c-0.04,0.208-0.079,0.414-0.117,0.621c-0.462-0.016-0.828,0.051-1.097,0.199
				c-0.269,0.146-0.515,0.403-0.745,0.766c-1.307,2.116-2.597,4.244-3.861,6.378c-0.189-0.03-0.379-0.062-0.568-0.093
				c-0.515-2.106-1.05-4.215-1.611-6.318c-1.089,1.859-2.156,3.721-3.209,5.592c-0.187-0.026-0.372-0.053-0.56-0.078
				c-0.717-2.649-1.472-5.299-2.271-7.941c-0.078-0.25-0.176-0.424-0.298-0.521c-0.122-0.099-0.343-0.174-0.662-0.224
				C134.095,176.415,134.118,176.205,134.143,175.998z"/>
			<path fill="#FFFFFF" d="M158.042,184.475c-2.193-0.484-4.391-0.938-6.586-1.361c-0.227,1.287-0.153,2.238,0.224,2.861
				c0.432,0.703,1.074,1.136,1.933,1.313c1.262,0.258,2.429-0.187,3.504-1.348c0.193,0.129,0.383,0.26,0.576,0.39
				c-1.345,1.48-2.89,2.033-4.659,1.671c-1.206-0.246-2.138-0.85-2.803-1.821c-0.664-0.973-0.882-2.091-0.633-3.363
				c0.27-1.366,0.897-2.394,1.901-3.074c1.005-0.682,2.133-0.899,3.367-0.648c0.906,0.185,1.641,0.558,2.213,1.114
				c0.564,0.557,0.924,1.266,1.076,2.115C158.264,182.922,158.221,183.641,158.042,184.475z M151.584,182.476
				c1.335,0.259,2.667,0.526,3.997,0.805c0.236,0.048,0.437,0.017,0.6-0.102c0.162-0.119,0.291-0.356,0.364-0.706
				c0.147-0.657,0.044-1.259-0.31-1.815c-0.357-0.555-0.84-0.896-1.462-1.021c-0.695-0.142-1.338,0.021-1.933,0.482
				C152.246,180.58,151.829,181.366,151.584,182.476z"/>
			<path fill="#FFFFFF" d="M168.073,186.894c-2.188-0.573-4.379-1.117-6.57-1.632c-0.283,1.277-0.248,2.231,0.105,2.87
				c0.406,0.719,1.035,1.177,1.888,1.392c1.258,0.31,2.444-0.087,3.585-1.203c0.187,0.139,0.376,0.274,0.562,0.412
				c-1.417,1.428-2.989,1.911-4.761,1.479c-1.205-0.295-2.113-0.937-2.74-1.936c-0.63-0.999-0.794-2.128-0.495-3.387
				c0.322-1.352,1.001-2.356,2.041-2.995s2.181-0.812,3.414-0.511c0.907,0.222,1.638,0.626,2.181,1.205
				c0.551,0.58,0.881,1.304,0.995,2.158C168.359,185.349,168.29,186.067,168.073,186.894z M161.659,184.631
				c1.33,0.311,2.659,0.635,3.988,0.968c0.235,0.061,0.438,0.033,0.607-0.078c0.168-0.111,0.302-0.34,0.396-0.688
				c0.175-0.648,0.098-1.259-0.236-1.829c-0.334-0.567-0.81-0.93-1.428-1.081c-0.692-0.169-1.349-0.032-1.964,0.403
				C162.403,182.765,161.954,183.532,161.659,184.631z"/>
			<path fill="#FFFFFF" d="M171.858,178.251c1.228,0.273,2.45,0.559,3.681,0.848c-0.882,2.999-1.774,5.997-2.676,8.992
				c1.228-0.496,2.461-0.983,3.709-1.463c0.36-0.14,0.565-0.3,0.62-0.466c0.047-0.147-0.005-0.285-0.15-0.417
				c-0.225-0.192-0.615-0.379-1.195-0.559c0.062-0.205,0.128-0.409,0.188-0.614c1.654,0.48,3.308,0.976,4.959,1.49
				c-0.066,0.203-0.136,0.406-0.201,0.61c-0.997-0.257-1.812-0.257-2.458-0.005c-0.885,0.343-1.771,0.687-2.648,1.038
				c0.703,1.737,1.383,3.477,2.038,5.218c0.125,0.314,0.434,0.547,0.938,0.706c0.166,0.052,0.336,0.104,0.499,0.156
				c-0.07,0.218-0.148,0.435-0.224,0.652c-1.633-0.513-3.266-1.011-4.9-1.49c0.07-0.219,0.138-0.437,0.207-0.655
				c0.166,0.047,0.329,0.096,0.492,0.144c0.363,0.107,0.619,0.152,0.762,0.13c0.146-0.019,0.227-0.071,0.254-0.153
				c0.029-0.081,0.023-0.171-0.016-0.273c-0.481-1.288-0.98-2.57-1.488-3.855c-0.553,0.225-1.102,0.45-1.649,0.677
				c-0.204,0.694-0.419,1.39-0.631,2.082c-0.052,0.17-0.026,0.313,0.068,0.431c0.139,0.161,0.362,0.284,0.671,0.373
				c0.209,0.06,0.417,0.119,0.625,0.18c-0.068,0.218-0.137,0.439-0.205,0.657c-1.608-0.465-3.215-0.915-4.827-1.346
				c0.065-0.221,0.128-0.44,0.191-0.66c0.26,0.07,0.521,0.141,0.78,0.211c0.324,0.086,0.576,0.088,0.767,0.009
				c0.19-0.083,0.319-0.224,0.377-0.43c1.005-3.393,1.997-6.784,2.971-10.178c0.075-0.266,0.036-0.486-0.126-0.663
				c-0.23-0.252-0.59-0.443-1.071-0.574c-0.174-0.046-0.343-0.094-0.516-0.14C171.733,178.692,171.795,178.472,171.858,178.251z"/>
		</g>
	</g>
</g>
</svg>
