<?xml version="1.0" encoding="utf-8"?>
<!-- Generator: Adobe Illustrator 16.0.0, SVG Export Plug-In . SVG Version: 6.00 Build 0)  -->
<!DOCTYPE svg PUBLIC "-//W3C//DTD SVG 1.1//EN" "http://www.w3.org/Graphics/SVG/1.1/DTD/svg11.dtd">
<svg version="1.1" id="Livello_1" xmlns="http://www.w3.org/2000/svg" xmlns:xlink="http://www.w3.org/1999/xlink" x="0px" y="0px"
	 width="210px" height="200px" viewBox="0 0 210 200" enable-background="new 0 0 210 200" xml:space="preserve">
<g>
	<g>
		<circle fill="#0572B7" cx="105" cy="100" r="84"/>
		<circle fill="#0572B7" stroke="#FFFFFF" stroke-width="5" stroke-miterlimit="10" cx="105" cy="100" r="75.216"/>
		<path fill="none" d="M41.531,83.146h31.434v31.435H41.531V83.146z"/>
		<rect x="130.005" y="121.35" fill="none" width="24.543" height="24.956"/>
		<g>
			<g>
				<path fill="#55ABE0" stroke="#FFFFFF" stroke-miterlimit="10" d="M65.938,127.085l-8.353,1.761
					c4.722,8.347,11.686,15.49,20.472,20.428l1.18-8.916C73.711,136.958,69.212,132.376,65.938,127.085z"/>
				<path fill="#55ABE0" stroke="#FFFFFF" stroke-miterlimit="10" d="M79.714,64.14l-1.762-8.906
					c-8.346,4.721-15.488,11.686-20.427,20.473l8.917,1.732C69.841,71.911,74.423,67.413,79.714,64.14z"/>
				<path fill="#55ABE0" stroke="#FFFFFF" stroke-miterlimit="10" d="M143.212,76.808l8.354-1.207
					c-4.721-8.348-11.685-15.49-20.472-20.428l-1.18,8.363C135.441,66.934,139.94,71.517,143.212,76.808z"/>
				<path fill="#55ABE0" stroke="#FFFFFF" stroke-miterlimit="10" d="M95.226,147.021l-5.052,7.256
					c9.712,2.699,19.685,2.551,28.919-0.033l-5.078-7.247C107.962,148.437,101.541,148.511,95.226,147.021z"/>
				<path fill="#55ABE0" stroke="#FFFFFF" stroke-miterlimit="10" d="M156.595,87.705l-6.955,3.909
					c1.44,6.052,1.514,12.474,0.022,18.789l6.966,6.223C159.328,106.914,159.18,96.938,156.595,87.705z"/>
			</g>
			<path fill="#55ABE0" stroke="#FFFFFF" stroke-width="2" stroke-miterlimit="10" d="M112.116,73.646H88.041v58.177h13.757v-19.393
				h10.318c11.4,0,20.635-8.678,20.635-19.393S123.517,73.646,112.116,73.646z M112.804,99.502h-11.006V86.574h11.006
				c3.799,0,6.879,2.893,6.879,6.464C119.683,96.61,116.603,99.502,112.804,99.502z"/>
			<g>
				<g>
					<path fill="#FFFFFF" d="M62.595,90.234c1.289,0.03,2.367-0.993,2.396-2.288c0.029-1.297-0.999-2.368-2.288-2.398
						c-1.295-0.029-2.367,0.992-2.397,2.289C60.276,89.132,61.3,90.204,62.595,90.234z"/>
				</g>
				<g>
					<path fill="#FFFFFF" d="M62.935,99.487h6.355v-2.343h-4.722l-2.604-4.337c-0.384-0.65-1.093-1.08-1.901-1.08
						c-0.221,0-0.436,0.032-0.638,0.09l-7.064,2.201l-0.955,6.771h2.344l0.955-4.771l2.742-0.854l-5.086,19.948h2.344l3.737-10.56
						l3.034,4.05v6.51h2.343v-8.34l-3.242-5.912l0.958-3.735L62.935,99.487z"/>
				</g>
			</g>
			<path fill="#FFFFFF" d="M124.233,56.017c-0.981-3.08-3.608-5.095-6.572-5.062l-2.148,0.078l-0.68-1.706
				c-1.321-3.311-2.004-4.934-2.213-5.249c-0.208-0.315-0.232-0.319-2.189-0.319c-1.733,0-2.007,0.03-2.155,0.231
				c-0.242,0.317-0.229,0.513,0.074,0.816c0.233,0.232,0.439,0.262,1.756,0.262c1.04,0,1.531,0.05,1.616,0.164
				c0.147,0.195,0.694,1.531,0.694,1.691c0,0.062-2.742,0.11-6.093,0.11h-6.096l-0.259-0.514c-0.146-0.287-0.267-0.546-0.267-0.577
				c0-0.035,0.624-0.131,1.388-0.224c1.555-0.184,2.125-0.458,1.751-0.839c-0.167-0.173-0.635-0.213-2.714-0.238
				c-1.71-0.02-2.562,0.016-2.659,0.116c-0.079,0.079-0.126,0.374-0.103,0.654c0.037,0.45,0.074,0.706,0.49,0.657l0.63-0.081
				l0.819,1.544l-2.559,3.923c-1.824-0.547-3.48-0.671-5.354-0.067c-0.901,0.379-2.179,1.286-2.763,1.971
				c-0.765,0.893-1.365,2.244-1.545,3.479c-0.02,0.137-0.033,0.275-0.043,0.41v0.938c0.193,2.657,2.037,5.144,4.615,5.999
				c1.196,0.401,1.225,0.405,2.476,0.362c0.935-0.032,1.389-0.124,2.2-0.438c1.18-0.459,1.73-0.915,2.962-2.258
				c1.247-1.367,1.377-2.924,1.426-3.339c0.103-0.036,1.123-0.071,2.27-0.071h2.088l0.019,1.05c0.012,0.577-0.029,1.312-0.023,1.439
				c0.01,0.18-0.056,0.076-0.496,0.107c-0.499,0.033-0.562,0.075-0.524,0.327c0.031,0.23,0.142,0.3,0.552,0.331
				c0.28,0.025,0.959-0.083,1.129-0.126l0.035-3.168l0.883-1.1c0.502-0.635,0.959-1.213,1.013-1.283
				c0.057-0.074,0.313-0.398,0.57-0.724c0.255-0.324,1.456-1.843,2.667-3.376c1.211-1.531,2.24-2.787,2.294-2.787
				c0.056,0,0.161,0.135,0.237,0.3c0.47,0.984,0.721,1.642,0.78,2.023c0.063,0.374,0.028,0.444-0.274,0.56
				c-0.519,0.198-1.938,1.702-2.356,2.505c-0.523,1-0.87,2.277-0.87,3.229c0,1.405,0.946,3.726,1.914,4.689
				c2.631,2.631,6.422,2.869,9.286,0.588c1-0.89,1.848-2.055,2.255-3.34C124.445,58.747,124.483,56.794,124.233,56.017z
				 M97.294,53.462c0.921,0.834,1.812,1.658,1.978,3.495l-4.212,0.061L97.294,53.462z M93.595,62.978
				c-2.516-0.084-5.165-2.008-5.138-5.539c0.022-3.49,3.771-5.908,7.668-4.562c-1.025,1.809-3.382,4.9-3.097,5.291
				c0.295,0.407,0.853,0.271,3.5,0.271h2.815C99.057,62.346,95.127,63.026,93.595,62.978z M100.687,56.937
				c-0.381-1.876-1.46-3.381-2.753-4.767l1.842-3.038c0.077,0,0.425,0.516,0.776,1.144c0.353,0.633,1.337,2.385,2.191,3.893
				c0.854,1.506,1.538,2.808,1.477,2.808L100.687,56.937z M108.823,52.424c-0.095,0.111-0.471,0.626-0.87,1.112l-2.219,2.702
				l-0.002-1.694c0.339-0.01,1.027-0.005,1.004-0.437c-0.019-0.435-0.972-0.315-1.633-0.286l0.066,2.474l-4.057-7.95h5.324
				c4.473,0,5.324,0.031,5.324,0.186C111.762,48.672,110.264,50.655,108.823,52.424z M121.434,61.693
				c-1.398,1.352-3.437,1.899-5.23,1.407c-2.697-0.744-4.485-3.369-4.074-5.986c0.229-1.458,0.624-2.285,1.532-3.21
				c1.056-1.08,1.248-1.085,1.639-0.055c0.094,0.252,0.299,0.759,0.455,1.117c0.156,0.361,0.516,1.229,0.8,1.93
				c0.579,1.435,0.91,1.769,1.368,1.353c0.375-0.524,0.045-1.295-0.368-2.189c-0.222-0.404-1.338-3.413-1.338-3.609
				c0.313-0.312,1.038-0.16,1.476-0.146c1.255,0.056,1.587,0.12,2.243,0.425c0.972,0.454,2.231,1.715,2.687,2.693
				c0.301,0.648,0.542,0.9,0.559,2.39C123.36,59.321,122.414,60.616,121.434,61.693z"/>
			<path fill="#FFFFFF" d="M147.798,124.458c-0.936-1.6-2.049-1.948-3.838-2.408c-1.787-0.46-3.591-0.529-5.157-0.529
				s-3.369,0.069-5.157,0.529c-1.787,0.46-2.915,0.809-3.851,2.408c-0.937,1.6-1.637,9.74-1.637,10.16c0,0.422,0,9.192,0,9.192
				h1.116c0,0.559,0,2.46,0,2.48c0,0.787,1.166,1.427,1.953,1.427c0.788,0,1.954-0.64,1.954-1.427c0-0.021,0-1.922,0-2.48h11.432
				c0,0.559-0.002,2.207,0,2.228c0.181,1.427,1.518,1.553,2.305,1.553s1.334-0.513,1.334-1.3c0-0.021,0-1.922,0-2.48h1.176
				c0,0,0.002-8.313,0.002-8.773C149.43,134.578,148.734,126.058,147.798,124.458z M134.856,122.601h8.371v2.233h-8.371V122.601z
				 M132.159,142.202c-1.4,0-2.535-1.134-2.535-2.532s1.135-2.532,2.535-2.532c1.398,0,2.533,1.134,2.533,2.532
				S133.558,142.202,132.159,142.202z M129.825,134.322c0,0,0.587-6.768,1.216-7.396c0.627-0.628,14.896-0.554,15.522,0.075
				c0.63,0.627,1.214,7.321,1.214,7.321H129.825z M145.159,142.202c-1.398,0-2.535-1.134-2.535-2.532s1.137-2.532,2.535-2.532
				c1.396,0,2.533,1.134,2.533,2.532S146.556,142.202,145.159,142.202z"/>
		</g>
	</g>
	<path fill="none" d="M41.531,83.146h31.434v31.435H41.531V83.146z"/>
	<g>
		<g>
			<path fill="#328ACA" stroke="#FFFFFF" stroke-width="2" stroke-miterlimit="10" d="M196.483,137.891
				c-2.533-5.82-5.349-11.609-8.445-17.347c6.004-2.538,12.219-4.851,18.63-6.915C142.695,86.773,70.55,86.942,6.681,114.138
				c0.04,0.095,0.08,0.188,0.12,0.282c6.617,2.096,13.025,4.457,19.212,7.058c-2.9,5.432-5.547,10.909-7.942,16.415
				C75.126,113.939,139.427,113.938,196.483,137.891L196.483,137.891L196.483,137.891z"/>
		</g>
	</g>
	<g>
		<g>
			<path fill="#FFFFFF" d="M27.414,113.068c0.961,2.899,1.933,5.797,2.914,8.693c0.045,0.13,0.125,0.214,0.25,0.252
				c0.176,0.052,0.37,0.045,0.578-0.021c0.483-0.152,0.965-0.303,1.449-0.452c0.057,0.175,0.115,0.348,0.171,0.522
				c-1.786,0.553-3.568,1.129-5.353,1.722c-0.062-0.174-0.122-0.346-0.184-0.52c0.41-0.138,0.822-0.272,1.234-0.408
				c0.259-0.082,0.429-0.205,0.515-0.358c0.084-0.155,0.093-0.325,0.028-0.517c-0.754-2.185-1.502-4.371-2.243-6.557
				c-0.046-0.137-0.144-0.226-0.294-0.284c-0.15-0.054-0.317-0.051-0.502,0.01c-0.57,0.187-1.142,0.375-1.711,0.565
				c-0.057-0.159-0.113-0.318-0.168-0.478c0.772-0.36,1.383-0.702,1.831-1.018c0.449-0.32,0.82-0.664,1.124-1.038
				C27.174,113.145,27.296,113.106,27.414,113.068z"/>
			<path fill="#FFFFFF" d="M35.26,110.504c1.018-0.289,1.963-0.164,2.842,0.365c1.083,0.654,1.866,1.879,2.367,3.67
				c0.463,1.662,0.468,3.025,0.015,4.082c-0.452,1.059-1.159,1.727-2.147,2.006c-0.949,0.27-1.852,0.14-2.716-0.398
				c-1.085-0.677-1.903-1.867-2.446-3.586c-0.516-1.634-0.534-3.051-0.053-4.25C33.508,111.432,34.228,110.799,35.26,110.504z
				 M35.456,110.998c-0.683,0.194-1.132,0.646-1.335,1.35c-0.203,0.704-0.017,1.987,0.554,3.85c0.56,1.82,1.132,2.979,1.699,3.474
				c0.57,0.499,1.171,0.651,1.815,0.47c0.647-0.186,1.063-0.605,1.248-1.267c0.219-0.785,0.076-2.07-0.438-3.852
				c-0.528-1.844-1.081-3.024-1.662-3.538C36.754,110.971,36.126,110.808,35.456,110.998z"/>
			<path fill="#FFFFFF" d="M44.163,108.143c1.019-0.252,1.956-0.092,2.808,0.47c1.051,0.692,1.785,1.945,2.217,3.752
				c0.4,1.678,0.353,3.038-0.134,4.078c-0.486,1.044-1.222,1.68-2.208,1.925c-0.952,0.236-1.841,0.07-2.682-0.496
				c-1.053-0.716-1.82-1.936-2.297-3.673c-0.449-1.651-0.422-3.069,0.104-4.247C42.389,109.004,43.124,108.398,44.163,108.143z
				 M44.339,108.644c-0.688,0.169-1.146,0.604-1.375,1.299c-0.229,0.696-0.089,1.985,0.411,3.866
				c0.489,1.838,1.008,3.016,1.559,3.532c0.549,0.518,1.143,0.693,1.785,0.535c0.65-0.16,1.076-0.564,1.287-1.219
				c0.247-0.776,0.148-2.065-0.294-3.865c-0.456-1.86-0.96-3.062-1.522-3.595C45.631,108.662,45.011,108.478,44.339,108.644z"/>
			<path fill="#FFFFFF" d="M53.589,105.512c1.913-0.396,3.828-0.769,5.743-1.121c1.3-0.239,2.339-0.142,3.113,0.281
				c0.777,0.423,1.233,1.072,1.383,1.942c0.148,0.873-0.051,1.587-0.585,2.15c-0.737,0.774-1.724,1.271-2.959,1.501
				c-0.675,0.124-1.351,0.252-2.027,0.382c0.24,1.21,0.481,2.42,0.725,3.63c0.041,0.21,0.126,0.352,0.249,0.423
				c0.165,0.088,0.363,0.109,0.6,0.064c0.423-0.08,0.846-0.159,1.269-0.236c0.033,0.179,0.069,0.358,0.103,0.539
				c-1.782,0.329-3.568,0.678-5.349,1.047c-0.038-0.179-0.077-0.359-0.116-0.538c0.372-0.077,0.749-0.154,1.12-0.229
				c0.222-0.045,0.376-0.12,0.462-0.225s0.117-0.229,0.086-0.373c-0.585-2.82-1.164-5.642-1.741-8.463
				c-0.042-0.219-0.146-0.357-0.3-0.428c-0.154-0.067-0.424-0.064-0.801,0.013c-0.288,0.061-0.573,0.118-0.861,0.178
				C53.663,105.87,53.626,105.69,53.589,105.512z M58.153,110.121c0.515-0.098,1.03-0.196,1.545-0.292
				c0.978-0.182,1.651-0.499,2.015-0.958c0.365-0.458,0.47-1.129,0.313-2.008c-0.108-0.616-0.292-1.071-0.55-1.366
				c-0.258-0.296-0.593-0.486-1.005-0.576c-0.414-0.089-1.061-0.057-1.938,0.108c-0.583,0.109-0.94,0.229-1.074,0.36
				c-0.135,0.131-0.177,0.319-0.128,0.569C57.604,107.348,57.879,108.734,58.153,110.121z"/>
			<path fill="#FFFFFF" d="M73.415,112.373c0.109,0.123,0.218,0.246,0.327,0.371c-0.318,0.411-0.701,0.646-1.149,0.707
				c-0.339,0.046-0.644-0.003-0.901-0.15c-0.261-0.146-0.514-0.432-0.755-0.854c-0.408,0.551-0.779,0.936-1.117,1.149
				c-0.339,0.214-0.761,0.363-1.269,0.439c-0.724,0.109-1.296,0.048-1.723-0.19c-0.429-0.239-0.68-0.588-0.76-1.059
				c-0.119-0.702,0.217-1.359,1.016-1.961c0.796-0.604,1.918-1.092,3.355-1.455c-0.05-0.343-0.1-0.688-0.149-1.029
				c-0.054-0.367-0.259-0.658-0.61-0.874c-0.354-0.214-0.777-0.289-1.26-0.215c-0.45,0.066-0.825,0.212-1.123,0.437
				c-0.21,0.165-0.308,0.313-0.287,0.438c0.011,0.073,0.092,0.178,0.239,0.312c0.181,0.172,0.282,0.33,0.305,0.48
				c0.035,0.215-0.013,0.406-0.139,0.565c-0.127,0.16-0.312,0.259-0.55,0.297c-0.258,0.039-0.483-0.007-0.683-0.144
				c-0.198-0.136-0.319-0.333-0.36-0.588c-0.079-0.477,0.137-0.959,0.648-1.445c0.511-0.485,1.24-0.803,2.177-0.942
				c0.864-0.127,1.554-0.046,2.057,0.237c0.505,0.291,0.793,0.688,0.863,1.19c0.173,1.238,0.348,2.475,0.522,3.714
				c0.049,0.328,0.137,0.563,0.271,0.703c0.134,0.146,0.288,0.205,0.465,0.182C73.025,112.662,73.218,112.557,73.415,112.373z
				 M70.51,109.851c-1.273,0.354-2.147,0.769-2.629,1.233c-0.355,0.352-0.491,0.792-0.404,1.323
				c0.061,0.372,0.211,0.647,0.451,0.823c0.239,0.179,0.529,0.242,0.859,0.191c0.596-0.093,1.074-0.384,1.448-0.878
				c0.37-0.496,0.512-1.068,0.417-1.723C70.604,110.498,70.557,110.175,70.51,109.851z"/>
			<path fill="#FFFFFF" d="M73.636,106.182c0.868-0.151,1.737-0.301,2.606-0.443c0.109,0.917,0.22,1.838,0.329,2.757
				c0.167-0.938,0.423-1.665,0.762-2.175c0.337-0.511,0.803-0.796,1.383-0.86c0.394-0.041,0.721,0.037,0.981,0.24
				c0.26,0.199,0.407,0.493,0.447,0.871c0.032,0.304-0.021,0.551-0.161,0.736c-0.14,0.188-0.329,0.293-0.563,0.317
				c-0.232,0.022-0.421-0.028-0.582-0.159c-0.16-0.13-0.252-0.319-0.279-0.566c-0.018-0.16,0.006-0.315,0.075-0.464
				c0.063-0.136,0.097-0.215,0.092-0.239c-0.006-0.073-0.062-0.104-0.16-0.094c-0.214,0.023-0.44,0.165-0.683,0.429
				c-0.333,0.367-0.568,0.845-0.703,1.436c-0.207,0.917-0.271,1.643-0.211,2.17c0.06,0.487,0.116,0.975,0.176,1.463
				c0.02,0.166,0.097,0.281,0.228,0.356c0.132,0.072,0.341,0.093,0.638,0.061c0.301-0.033,0.6-0.068,0.9-0.1
				c0.021,0.182,0.041,0.363,0.062,0.545c-1.465,0.16-2.932,0.333-4.397,0.521c-0.023-0.182-0.048-0.362-0.072-0.545
				c0.234-0.03,0.469-0.06,0.704-0.088c0.237-0.03,0.411-0.097,0.521-0.201c0.11-0.105,0.155-0.221,0.142-0.347
				c-0.182-1.447-0.365-2.892-0.543-4.34c-0.04-0.328-0.146-0.562-0.314-0.695c-0.168-0.135-0.393-0.184-0.673-0.15
				c-0.21,0.027-0.425,0.055-0.637,0.08C73.68,106.525,73.658,106.355,73.636,106.182z"/>
			<path fill="#FFFFFF" d="M80.302,101.431c0.939-0.135,1.88-0.264,2.821-0.388c0.221,2.487,0.441,4.975,0.666,7.462
				c0.721-0.714,1.447-1.425,2.184-2.132c0.212-0.208,0.312-0.383,0.301-0.521c-0.01-0.122-0.084-0.211-0.223-0.269
				c-0.209-0.081-0.542-0.107-0.997-0.081c-0.015-0.17-0.029-0.34-0.042-0.512c1.295-0.105,2.59-0.201,3.885-0.287
				c0.013,0.171,0.022,0.342,0.035,0.513c-0.766,0.09-1.339,0.321-1.715,0.691c-0.521,0.505-1.042,1.011-1.557,1.52
				c0.996,1.097,1.974,2.2,2.942,3.309c0.177,0.198,0.463,0.284,0.863,0.259c0.132-0.009,0.263-0.018,0.395-0.025
				c0.013,0.183,0.024,0.364,0.037,0.547c-1.294,0.083-2.587,0.177-3.876,0.279c-0.016-0.182-0.031-0.365-0.045-0.547
				c0.129-0.011,0.259-0.021,0.387-0.03c0.289-0.021,0.48-0.063,0.574-0.118c0.096-0.057,0.142-0.117,0.135-0.187
				c-0.005-0.068-0.035-0.133-0.092-0.199c-0.715-0.821-1.436-1.638-2.161-2.453c-0.323,0.321-0.647,0.644-0.966,0.968
				c0.053,0.576,0.104,1.151,0.156,1.729c0.014,0.141,0.07,0.24,0.172,0.301c0.146,0.08,0.34,0.111,0.582,0.091
				c0.162-0.014,0.327-0.027,0.492-0.042c0.017,0.183,0.031,0.365,0.047,0.547c-1.269,0.105-2.537,0.221-3.804,0.346
				c-0.019-0.181-0.038-0.363-0.056-0.547c0.203-0.019,0.407-0.04,0.613-0.06c0.254-0.024,0.434-0.094,0.547-0.206
				c0.11-0.113,0.158-0.255,0.143-0.425c-0.271-2.811-0.537-5.621-0.801-8.431c-0.018-0.218-0.115-0.373-0.274-0.46
				c-0.234-0.125-0.537-0.17-0.912-0.133c-0.134,0.013-0.269,0.024-0.402,0.039C80.337,101.796,80.32,101.613,80.302,101.431z"/>
			<path fill="#FFFFFF" d="M95.255,104.987c0.72,1.045,1.255,1.811,1.628,2.292c0.371,0.482,0.773,0.951,1.206,1.412
				c0.77-0.971,1.154-1.751,1.139-2.348c-0.008-0.268-0.113-0.477-0.319-0.628c-0.203-0.152-0.506-0.221-0.912-0.209
				c-0.137,0.003-0.276,0.008-0.411,0.012c-0.005-0.167-0.011-0.337-0.017-0.505c1.44-0.045,2.879-0.078,4.32-0.099
				c0.003,0.169,0.005,0.338,0.007,0.506c-0.108,0.002-0.218,0.003-0.325,0.005c-0.278,0.004-0.513,0.048-0.688,0.129
				c-0.182,0.082-0.343,0.203-0.493,0.372c-0.149,0.166-0.326,0.473-0.532,0.917c-0.417,0.893-0.869,1.646-1.346,2.262
				c0.718,0.662,1.328,0.99,1.846,0.979c0.318-0.005,0.574-0.132,0.781-0.374c0.206-0.244,0.341-0.658,0.402-1.245
				c0.161-0.003,0.322-0.004,0.482-0.008c0.01,0.916-0.18,1.61-0.581,2.09c-0.4,0.481-0.907,0.727-1.529,0.741
				c-0.349,0.005-0.702-0.069-1.069-0.23c-0.367-0.16-0.812-0.46-1.339-0.891c-0.573,0.468-1.083,0.798-1.537,0.986
				c-0.452,0.188-0.94,0.293-1.466,0.316c-0.951,0.044-1.756-0.209-2.414-0.767c-0.656-0.556-1.018-1.265-1.068-2.125
				c-0.04-0.665,0.124-1.272,0.5-1.827c0.373-0.554,1.071-1.121,2.104-1.692c-0.541-0.928-0.827-1.707-0.858-2.342
				c-0.036-0.687,0.202-1.284,0.721-1.795c0.518-0.506,1.17-0.78,1.959-0.81c0.748-0.029,1.351,0.129,1.792,0.472
				c0.445,0.343,0.672,0.81,0.69,1.399c0.019,0.561-0.172,1.08-0.566,1.56C96.968,104.024,96.263,104.502,95.255,104.987z
				 M93.923,105.617c-1.065,0.621-1.566,1.339-1.525,2.136c0.032,0.614,0.32,1.246,0.854,1.896c0.535,0.65,1.175,0.958,1.918,0.928
				c0.632-0.026,1.266-0.298,1.91-0.812c-0.512-0.549-0.978-1.093-1.394-1.632C95.271,107.595,94.686,106.754,93.923,105.617z
				 M94.938,104.436c0.734-0.338,1.235-0.684,1.506-1.043c0.27-0.357,0.398-0.782,0.381-1.27c-0.016-0.459-0.158-0.818-0.43-1.078
				c-0.27-0.26-0.607-0.38-1.014-0.365c-0.4,0.016-0.728,0.158-0.98,0.426c-0.252,0.269-0.366,0.61-0.348,1.038
				C94.08,102.763,94.376,103.527,94.938,104.436z"/>
			<path fill="#FFFFFF" d="M103.128,100.199c2.017-0.016,4.033-0.014,6.051,0.019c1.175,0.017,2.076,0.285,2.708,0.794
				c0.634,0.509,0.933,1.167,0.91,1.966c-0.014,0.48-0.155,0.901-0.415,1.268c-0.265,0.366-0.636,0.655-1.113,0.865
				c-0.48,0.212-1.226,0.354-2.24,0.438c0.735,0.2,1.238,0.397,1.511,0.587c0.276,0.188,0.492,0.43,0.651,0.726
				c0.16,0.292,0.338,0.891,0.53,1.79c0.138,0.643,0.289,1.083,0.455,1.322c0.123,0.184,0.266,0.281,0.419,0.284
				c0.154,0.004,0.305-0.102,0.448-0.321c0.141-0.217,0.234-0.605,0.285-1.167c0.173,0.006,0.347,0.012,0.52,0.018
				c-0.16,1.656-0.816,2.462-1.988,2.431c-0.366-0.01-0.685-0.107-0.951-0.295c-0.266-0.186-0.462-0.455-0.593-0.81
				c-0.102-0.266-0.208-0.961-0.319-2.08c-0.064-0.65-0.178-1.114-0.339-1.39c-0.162-0.277-0.423-0.502-0.774-0.674
				c-0.352-0.169-0.776-0.258-1.274-0.262c-0.312-0.003-0.625-0.006-0.938-0.007c-0.007,1.42-0.015,2.837-0.022,4.255
				c-0.001,0.182,0.046,0.307,0.143,0.382c0.124,0.095,0.31,0.142,0.569,0.144c0.358,0.003,0.718,0.007,1.077,0.011
				c-0.002,0.185-0.005,0.366-0.008,0.55c-1.735-0.021-3.47-0.026-5.204-0.01c-0.001-0.183-0.003-0.365-0.004-0.549
				c0.368-0.003,0.731-0.006,1.101-0.008c0.243-0.002,0.422-0.047,0.535-0.142c0.114-0.093,0.171-0.222,0.17-0.381
				c-0.003-2.885-0.009-5.771-0.013-8.657c0-0.186-0.061-0.323-0.183-0.418c-0.121-0.091-0.308-0.137-0.553-0.137
				c-0.381,0.002-0.764,0.004-1.146,0.008C103.133,100.565,103.128,100.384,103.128,100.199z M106.674,105.173
				c0.453,0.003,0.904,0.007,1.358,0.011c0.909,0.012,1.626-0.142,2.148-0.454c0.522-0.315,0.795-0.884,0.813-1.713
				c0.013-0.569-0.076-1.025-0.266-1.358c-0.19-0.337-0.444-0.568-0.763-0.696c-0.32-0.128-0.95-0.199-1.894-0.209
				c-0.621-0.007-1.007,0.031-1.155,0.11c-0.146,0.08-0.224,0.218-0.224,0.412C106.687,102.575,106.68,103.875,106.674,105.173z"/>
			<path fill="#FFFFFF" d="M114.668,104.33c0.968,0.009,1.943,0.023,2.91,0.045c-0.096,1.967-0.195,3.932-0.294,5.896
				c-0.008,0.161,0.026,0.276,0.104,0.35c0.11,0.103,0.258,0.16,0.434,0.169c0.269,0.014,0.535,0.026,0.805,0.042
				c-0.012,0.182-0.021,0.365-0.031,0.548c-1.346-0.073-2.689-0.136-4.037-0.186c0.009-0.184,0.014-0.364,0.022-0.549
				c0.249,0.008,0.502,0.021,0.751,0.03c0.221,0.008,0.386-0.035,0.496-0.139c0.107-0.101,0.166-0.25,0.177-0.449
				c0.064-1.439,0.13-2.88,0.192-4.317c0.016-0.273-0.064-0.483-0.221-0.629c-0.164-0.146-0.404-0.225-0.73-0.239
				c-0.199-0.008-0.398-0.017-0.599-0.022C114.653,104.696,114.662,104.514,114.668,104.33z M116.881,100.324
				c0.236,0.011,0.443,0.104,0.613,0.277c0.172,0.176,0.25,0.374,0.24,0.599c-0.011,0.219-0.107,0.405-0.287,0.559
				s-0.393,0.225-0.634,0.212c-0.24-0.011-0.448-0.101-0.615-0.273c-0.169-0.17-0.25-0.367-0.239-0.585
				c0.009-0.22,0.108-0.409,0.293-0.566C116.441,100.387,116.646,100.313,116.881,100.324z"/>
			<path fill="#FFFFFF" d="M124.268,100.891c0.969,0.03,1.939,0.067,2.906,0.108c-0.27,3.118-0.541,6.237-0.816,9.354
				c-0.034,0.365,0.018,0.632,0.146,0.8c0.131,0.17,0.34,0.267,0.627,0.291c0.165,0.015,0.328,0.03,0.493,0.045
				c-0.017,0.182-0.034,0.364-0.051,0.546c-0.809-0.073-1.614-0.143-2.423-0.21c-0.02-0.47-0.043-0.938-0.064-1.407
				c-0.331,0.472-0.697,0.818-1.104,1.04c-0.405,0.223-0.85,0.313-1.327,0.28c-0.811-0.057-1.469-0.431-1.999-1.117
				c-0.528-0.688-0.765-1.568-0.697-2.642c0.069-1.158,0.499-2.064,1.286-2.709c0.618-0.505,1.315-0.727,2.08-0.675
				c0.466,0.034,0.881,0.175,1.232,0.423s0.651,0.604,0.887,1.069c0.105-1.287,0.211-2.575,0.315-3.862
				c0.019-0.204-0.056-0.372-0.216-0.505c-0.16-0.134-0.426-0.213-0.787-0.242c-0.176-0.013-0.353-0.026-0.529-0.04
				C124.241,101.255,124.255,101.073,124.268,100.891z M123.489,105.218c-0.561-0.041-1.024,0.147-1.378,0.557
				c-0.357,0.413-0.572,1.134-0.638,2.159c-0.076,1.118,0.037,1.914,0.336,2.391c0.3,0.477,0.701,0.734,1.22,0.771
				c0.551,0.041,1.042-0.178,1.476-0.655c0.436-0.479,0.694-1.204,0.776-2.183c0.074-0.925-0.078-1.669-0.464-2.234
				C124.482,105.527,124.039,105.259,123.489,105.218z"/>
			<path fill="#FFFFFF" d="M135.398,109.469c-1.715-0.211-3.429-0.401-5.146-0.575c-0.083,1.042,0.046,1.798,0.379,2.263
				c0.385,0.527,0.91,0.824,1.583,0.898c0.99,0.11,1.846-0.336,2.586-1.344c0.156,0.087,0.314,0.173,0.471,0.263
				c-0.916,1.286-2.061,1.848-3.448,1.695c-0.948-0.105-1.706-0.518-2.29-1.241c-0.582-0.726-0.826-1.602-0.727-2.632
				c0.108-1.108,0.52-1.973,1.243-2.591c0.725-0.617,1.565-0.877,2.53-0.771c0.703,0.075,1.298,0.318,1.768,0.716
				c0.472,0.398,0.798,0.931,0.978,1.599C135.447,108.216,135.475,108.79,135.398,109.469z M130.307,108.376
				c1.041,0.105,2.083,0.218,3.121,0.337c0.185,0.02,0.334-0.022,0.452-0.129c0.115-0.107,0.192-0.304,0.226-0.591
				c0.064-0.533-0.059-1.005-0.369-1.421c-0.31-0.414-0.708-0.647-1.19-0.7c-0.539-0.06-1.02,0.119-1.443,0.531
				C130.678,106.816,130.417,107.474,130.307,108.376z"/>
			<path fill="#FFFFFF" d="M144.773,103.128c-0.518,3.276-1.041,6.551-1.572,9.825c-0.022,0.135,0.004,0.244,0.078,0.332
				c0.109,0.114,0.256,0.188,0.437,0.217c0.249,0.04,0.499,0.081,0.749,0.12c-0.03,0.181-0.061,0.361-0.092,0.542
				c-1.334-0.216-2.669-0.421-4.006-0.615c0.027-0.182,0.052-0.362,0.082-0.543c0.236,0.034,0.475,0.069,0.711,0.104
				c0.229,0.034,0.416,0.007,0.543-0.084c0.13-0.087,0.209-0.229,0.241-0.422c0.431-2.75,0.853-5.503,1.275-8.255
				c0.038-0.241-0.005-0.429-0.131-0.561c-0.171-0.185-0.396-0.296-0.682-0.338c-0.222-0.033-0.439-0.064-0.661-0.097
				c0.025-0.181,0.052-0.362,0.079-0.543C142.807,102.91,143.791,103.016,144.773,103.128z"/>
			<path fill="#FFFFFF" d="M152.523,112.174c-1.707-0.329-3.417-0.644-5.127-0.938c-0.158,1.033-0.083,1.795,0.217,2.283
				c0.349,0.553,0.854,0.888,1.525,1.009c0.984,0.18,1.877-0.206,2.695-1.158c0.152,0.099,0.303,0.197,0.453,0.296
				c-1.014,1.218-2.204,1.698-3.587,1.446c-0.942-0.17-1.677-0.634-2.209-1.399c-0.532-0.762-0.715-1.657-0.54-2.677
				c0.188-1.097,0.663-1.933,1.434-2.497c0.772-0.565,1.638-0.765,2.596-0.592c0.703,0.126,1.276,0.408,1.727,0.841
				c0.447,0.434,0.734,0.986,0.867,1.664C152.666,110.927,152.644,111.502,152.523,112.174z M147.487,110.723
				c1.038,0.18,2.074,0.364,3.11,0.557c0.186,0.033,0.338,0,0.464-0.096c0.125-0.1,0.214-0.288,0.269-0.572
				c0.101-0.529,0.013-1.01-0.27-1.444s-0.663-0.698-1.146-0.784c-0.538-0.097-1.032,0.048-1.487,0.429
				C147.975,109.193,147.663,109.831,147.487,110.723z"/>
			<path fill="#FFFFFF" d="M160.562,116.571c0.057,0.153,0.115,0.308,0.174,0.462c-0.452,0.271-0.901,0.359-1.345,0.256
				c-0.342-0.076-0.606-0.23-0.797-0.457c-0.192-0.227-0.325-0.585-0.399-1.064c-0.588,0.372-1.076,0.598-1.474,0.681
				c-0.396,0.081-0.847,0.071-1.354-0.036c-0.722-0.151-1.238-0.408-1.551-0.783c-0.315-0.373-0.423-0.789-0.327-1.255
				c0.146-0.698,0.699-1.194,1.668-1.476c0.969-0.282,2.201-0.346,3.688-0.18c0.079-0.339,0.155-0.676,0.231-1.015
				c0.084-0.362-0.005-0.706-0.26-1.032c-0.256-0.327-0.629-0.542-1.11-0.645c-0.45-0.097-0.854-0.089-1.215,0.014
				c-0.259,0.081-0.4,0.184-0.428,0.308c-0.017,0.072,0.021,0.197,0.112,0.375c0.107,0.224,0.146,0.406,0.113,0.556
				c-0.044,0.215-0.159,0.377-0.334,0.48c-0.18,0.104-0.387,0.133-0.627,0.084c-0.256-0.054-0.451-0.176-0.588-0.373
				c-0.137-0.198-0.182-0.423-0.127-0.676c0.098-0.474,0.475-0.852,1.131-1.125c0.656-0.272,1.453-0.316,2.391-0.114
				c0.862,0.186,1.482,0.503,1.854,0.945c0.372,0.45,0.503,0.922,0.385,1.417c-0.284,1.219-0.57,2.438-0.856,3.655
				c-0.078,0.323-0.076,0.575-0.002,0.751c0.072,0.182,0.197,0.294,0.372,0.333C160.087,116.702,160.31,116.674,160.562,116.571z
				 M158.74,113.19c-1.332-0.117-2.307-0.036-2.926,0.229c-0.465,0.203-0.748,0.568-0.861,1.094
				c-0.081,0.367-0.039,0.678,0.123,0.928c0.162,0.253,0.404,0.41,0.738,0.48c0.59,0.124,1.151,0.022,1.685-0.311
				c0.532-0.332,0.876-0.819,1.021-1.463C158.593,113.83,158.667,113.51,158.74,113.19z"/>
			<path fill="#FFFFFF" d="M162.822,110.816c1.188,0.277,2.375,0.565,3.56,0.859c-0.042,0.161-0.084,0.323-0.126,0.483
				c-0.474-0.106-0.784-0.145-0.934-0.106c-0.15,0.038-0.24,0.117-0.271,0.247c-0.026,0.104-0.029,0.214-0.002,0.331
				c0.304,1.468,0.593,2.932,0.871,4.398c0.904-1.124,1.816-2.243,2.738-3.358c0.043-0.06,0.071-0.121,0.092-0.188
				c0.096-0.343-0.215-0.654-0.93-0.929c0.041-0.16,0.086-0.322,0.127-0.481c0.997,0.254,1.995,0.517,2.99,0.783
				c-0.043,0.16-0.088,0.32-0.134,0.48c-0.312-0.052-0.571-0.042-0.785,0.033c-0.214,0.077-0.396,0.203-0.552,0.387
				c-1.391,1.644-2.766,3.296-4.122,4.96c-0.136-0.034-0.271-0.068-0.404-0.103c-0.409-2.164-0.847-4.328-1.312-6.492
				c-0.049-0.23-0.139-0.407-0.266-0.526c-0.126-0.116-0.345-0.214-0.658-0.294C162.743,111.14,162.784,110.977,162.822,110.816z"/>
			<path fill="#FFFFFF" d="M177.332,118.304c-1.692-0.511-3.387-1.001-5.083-1.475c-0.27,1.013-0.272,1.777-0.022,2.297
				c0.295,0.584,0.766,0.973,1.432,1.163c0.978,0.282,1.921-0.007,2.849-0.868c0.143,0.114,0.284,0.227,0.427,0.342
				c-1.155,1.103-2.41,1.457-3.78,1.062c-0.933-0.271-1.626-0.808-2.081-1.625c-0.454-0.817-0.547-1.725-0.26-2.721
				c0.306-1.073,0.874-1.853,1.71-2.335c0.837-0.481,1.734-0.587,2.686-0.315c0.696,0.201,1.251,0.543,1.655,1.019
				c0.406,0.476,0.639,1.059,0.702,1.747C177.609,117.077,177.528,117.646,177.332,118.304z M172.396,116.329
				c1.029,0.285,2.059,0.581,3.085,0.88c0.182,0.054,0.343,0.037,0.478-0.046c0.137-0.086,0.249-0.265,0.333-0.542
				c0.159-0.516,0.119-1.004-0.119-1.467c-0.24-0.463-0.6-0.761-1.076-0.899c-0.533-0.153-1.05-0.062-1.547,0.271
				C173.051,114.857,172.665,115.459,172.396,116.329z"/>
			<path fill="#FFFFFF" d="M179.034,119.66c0.047,0.903,0.22,1.57,0.515,2.006c0.297,0.436,0.737,0.746,1.324,0.936
				c0.539,0.174,0.993,0.2,1.362,0.074c0.367-0.125,0.608-0.355,0.729-0.693c0.065-0.192,0.075-0.383,0.017-0.563
				c-0.057-0.182-0.171-0.339-0.333-0.474c-0.167-0.133-0.624-0.402-1.377-0.797c-0.716-0.382-1.204-0.698-1.454-0.944
				c-0.249-0.248-0.419-0.532-0.499-0.854c-0.084-0.323-0.069-0.642,0.032-0.96c0.155-0.479,0.469-0.862,0.95-1.144
				c0.618-0.357,1.337-0.405,2.157-0.145c0.623,0.199,1.143,0.564,1.551,1.094c0.224-0.106,0.448-0.213,0.674-0.319
				c0.104,0.033,0.209,0.067,0.314,0.104c-0.203,0.795-0.405,1.589-0.611,2.383c-0.169-0.056-0.338-0.111-0.507-0.167
				c0.005-0.73-0.136-1.304-0.417-1.717c-0.283-0.415-0.707-0.711-1.269-0.892c-0.485-0.155-0.903-0.167-1.25-0.036
				s-0.57,0.354-0.673,0.663c-0.09,0.273-0.036,0.543,0.156,0.804c0.188,0.265,0.624,0.561,1.311,0.901
				c0.796,0.397,1.304,0.687,1.525,0.857c0.367,0.274,0.608,0.595,0.735,0.958c0.125,0.366,0.11,0.752-0.036,1.168
				c-0.203,0.575-0.618,0.977-1.242,1.215c-0.623,0.237-1.307,0.237-2.051-0.004c-0.688-0.223-1.258-0.637-1.706-1.251
				c-0.246,0.138-0.493,0.277-0.739,0.417c-0.13-0.041-0.264-0.082-0.395-0.122c0.234-0.886,0.469-1.769,0.701-2.653
				C178.697,119.557,178.866,119.608,179.034,119.66z"/>
		</g>
	</g>
</g>
</svg>
