<?xml version="1.0" encoding="utf-8"?>
<!-- Generator: Adobe Illustrator 16.0.0, SVG Export Plug-In . SVG Version: 6.00 Build 0)  -->
<!DOCTYPE svg PUBLIC "-//W3C//DTD SVG 1.1//EN" "http://www.w3.org/Graphics/SVG/1.1/DTD/svg11.dtd">
<svg version="1.1" id="Livello_1" xmlns="http://www.w3.org/2000/svg" xmlns:xlink="http://www.w3.org/1999/xlink" x="0px" y="0px"
	 width="210px" height="200px" viewBox="0 0 210 200" enable-background="new 0 0 210 200" xml:space="preserve">
<g>
	<g>
		<circle fill="#0572B7" cx="105" cy="100" r="84"/>
		<circle fill="#0572B7" stroke="#FFFFFF" stroke-width="5" stroke-miterlimit="10" cx="105" cy="100" r="75.216"/>
		<path fill="none" d="M41.531,83.146h31.434v31.435H41.531V83.146z"/>
		<rect x="130.005" y="121.35" fill="none" width="24.543" height="24.956"/>
		<g>
			<g>
				<path fill="#55ABE0" stroke="#FFFFFF" stroke-miterlimit="10" d="M65.938,127.085l-8.353,1.761
					c4.722,8.347,11.686,15.49,20.472,20.428l1.18-8.916C73.711,136.958,69.212,132.376,65.938,127.085z"/>
				<path fill="#55ABE0" stroke="#FFFFFF" stroke-miterlimit="10" d="M79.714,64.14l-1.762-8.906
					c-8.346,4.721-15.488,11.686-20.427,20.473l8.917,1.732C69.841,71.911,74.423,67.413,79.714,64.14z"/>
				<path fill="#55ABE0" stroke="#FFFFFF" stroke-miterlimit="10" d="M143.212,76.808l8.354-1.207
					c-4.721-8.348-11.685-15.49-20.472-20.428l-1.18,8.363C135.441,66.934,139.94,71.517,143.212,76.808z"/>
				<path fill="#55ABE0" stroke="#FFFFFF" stroke-miterlimit="10" d="M95.226,147.021l-5.052,7.256
					c9.712,2.699,19.685,2.551,28.919-0.033l-5.078-7.247C107.962,148.437,101.541,148.511,95.226,147.021z"/>
				<path fill="#55ABE0" stroke="#FFFFFF" stroke-miterlimit="10" d="M156.595,87.705l-6.955,3.909
					c1.44,6.052,1.514,12.474,0.022,18.789l6.966,6.223C159.328,106.914,159.18,96.938,156.595,87.705z"/>
			</g>
			<path fill="#55ABE0" stroke="#FFFFFF" stroke-width="2" stroke-miterlimit="10" d="M112.116,73.646H88.041v58.177h13.757v-19.393
				h10.318c11.4,0,20.635-8.678,20.635-19.393S123.517,73.646,112.116,73.646z M112.804,99.502h-11.006V86.574h11.006
				c3.799,0,6.879,2.893,6.879,6.464C119.683,96.61,116.603,99.502,112.804,99.502z"/>
			<g>
				<g>
					<path fill="#FFFFFF" d="M62.595,90.234c1.289,0.03,2.367-0.993,2.396-2.288c0.029-1.297-0.999-2.368-2.288-2.398
						c-1.295-0.029-2.367,0.992-2.397,2.289C60.276,89.132,61.3,90.204,62.595,90.234z"/>
				</g>
				<g>
					<path fill="#FFFFFF" d="M62.935,99.487h6.355v-2.343h-4.722l-2.604-4.337c-0.384-0.65-1.093-1.08-1.901-1.08
						c-0.221,0-0.436,0.032-0.638,0.09l-7.064,2.201l-0.955,6.771h2.344l0.955-4.771l2.742-0.854l-5.086,19.948h2.344l3.737-10.56
						l3.034,4.05v6.51h2.343v-8.34l-3.242-5.912l0.958-3.735L62.935,99.487z"/>
				</g>
			</g>
			<path fill="#FFFFFF" d="M124.233,56.017c-0.981-3.08-3.608-5.095-6.572-5.062l-2.148,0.078l-0.68-1.706
				c-1.321-3.311-2.004-4.934-2.213-5.249c-0.208-0.315-0.232-0.319-2.189-0.319c-1.733,0-2.007,0.03-2.155,0.231
				c-0.242,0.317-0.229,0.513,0.074,0.816c0.233,0.232,0.439,0.262,1.756,0.262c1.04,0,1.531,0.05,1.616,0.164
				c0.147,0.195,0.694,1.531,0.694,1.691c0,0.062-2.742,0.11-6.093,0.11h-6.096l-0.259-0.514c-0.146-0.287-0.267-0.546-0.267-0.577
				c0-0.035,0.624-0.131,1.388-0.224c1.555-0.184,2.125-0.458,1.751-0.839c-0.167-0.173-0.635-0.213-2.714-0.238
				c-1.71-0.02-2.562,0.016-2.659,0.116c-0.079,0.079-0.126,0.374-0.103,0.654c0.037,0.45,0.074,0.706,0.49,0.657l0.63-0.081
				l0.819,1.544l-2.559,3.923c-1.824-0.547-3.48-0.671-5.354-0.067c-0.901,0.379-2.179,1.286-2.763,1.971
				c-0.765,0.893-1.365,2.244-1.545,3.479c-0.02,0.137-0.033,0.275-0.043,0.41v0.938c0.193,2.657,2.037,5.144,4.615,5.999
				c1.196,0.401,1.225,0.405,2.476,0.362c0.935-0.032,1.389-0.124,2.2-0.438c1.18-0.459,1.73-0.915,2.962-2.258
				c1.247-1.367,1.377-2.924,1.426-3.339c0.103-0.036,1.123-0.071,2.27-0.071h2.088l0.019,1.05c0.012,0.577-0.029,1.312-0.023,1.439
				c0.01,0.18-0.056,0.076-0.496,0.107c-0.499,0.033-0.562,0.075-0.524,0.327c0.031,0.23,0.142,0.3,0.552,0.331
				c0.28,0.025,0.959-0.083,1.129-0.126l0.035-3.168l0.883-1.1c0.502-0.635,0.959-1.213,1.013-1.283
				c0.057-0.074,0.313-0.398,0.57-0.724c0.255-0.324,1.456-1.843,2.667-3.376c1.211-1.531,2.24-2.787,2.294-2.787
				c0.056,0,0.161,0.135,0.237,0.3c0.47,0.984,0.721,1.642,0.78,2.023c0.063,0.374,0.028,0.444-0.274,0.56
				c-0.519,0.198-1.938,1.702-2.356,2.505c-0.523,1-0.87,2.277-0.87,3.229c0,1.405,0.946,3.726,1.914,4.689
				c2.631,2.631,6.422,2.869,9.286,0.588c1-0.89,1.848-2.055,2.255-3.34C124.445,58.747,124.483,56.794,124.233,56.017z
				 M97.294,53.462c0.921,0.834,1.812,1.658,1.978,3.495l-4.212,0.061L97.294,53.462z M93.595,62.978
				c-2.516-0.084-5.165-2.008-5.138-5.539c0.022-3.49,3.771-5.908,7.668-4.562c-1.025,1.809-3.382,4.9-3.097,5.291
				c0.295,0.407,0.853,0.271,3.5,0.271h2.815C99.057,62.346,95.127,63.026,93.595,62.978z M100.687,56.937
				c-0.381-1.876-1.46-3.381-2.753-4.767l1.842-3.038c0.077,0,0.425,0.516,0.776,1.144c0.353,0.633,1.337,2.385,2.191,3.893
				c0.854,1.506,1.538,2.808,1.477,2.808L100.687,56.937z M108.823,52.424c-0.095,0.111-0.471,0.626-0.87,1.112l-2.219,2.702
				l-0.002-1.694c0.339-0.01,1.027-0.005,1.004-0.437c-0.019-0.435-0.972-0.315-1.633-0.286l0.066,2.474l-4.057-7.95h5.324
				c4.473,0,5.324,0.031,5.324,0.186C111.762,48.672,110.264,50.655,108.823,52.424z M121.434,61.693
				c-1.398,1.352-3.437,1.899-5.23,1.407c-2.697-0.744-4.485-3.369-4.074-5.986c0.229-1.458,0.624-2.285,1.532-3.21
				c1.056-1.08,1.248-1.085,1.639-0.055c0.094,0.252,0.299,0.759,0.455,1.117c0.156,0.361,0.516,1.229,0.8,1.93
				c0.579,1.435,0.91,1.769,1.368,1.353c0.375-0.524,0.045-1.295-0.368-2.189c-0.222-0.404-1.338-3.413-1.338-3.609
				c0.313-0.312,1.038-0.16,1.476-0.146c1.255,0.056,1.587,0.12,2.243,0.425c0.972,0.454,2.231,1.715,2.687,2.693
				c0.301,0.648,0.542,0.9,0.559,2.39C123.36,59.321,122.414,60.616,121.434,61.693z"/>
			<path fill="#FFFFFF" d="M147.798,124.458c-0.936-1.6-2.049-1.948-3.838-2.408c-1.787-0.46-3.591-0.529-5.157-0.529
				s-3.369,0.069-5.157,0.529c-1.787,0.46-2.915,0.809-3.851,2.408c-0.937,1.6-1.637,9.74-1.637,10.16c0,0.422,0,9.192,0,9.192
				h1.116c0,0.559,0,2.46,0,2.48c0,0.787,1.166,1.427,1.953,1.427c0.788,0,1.954-0.64,1.954-1.427c0-0.021,0-1.922,0-2.48h11.432
				c0,0.559-0.002,2.207,0,2.228c0.181,1.427,1.518,1.553,2.305,1.553s1.334-0.513,1.334-1.3c0-0.021,0-1.922,0-2.48h1.176
				c0,0,0.002-8.313,0.002-8.773C149.43,134.578,148.734,126.058,147.798,124.458z M134.856,122.601h8.371v2.233h-8.371V122.601z
				 M132.159,142.202c-1.4,0-2.535-1.134-2.535-2.532s1.135-2.532,2.535-2.532c1.398,0,2.533,1.134,2.533,2.532
				S133.558,142.202,132.159,142.202z M129.825,134.322c0,0,0.587-6.768,1.216-7.396c0.627-0.628,14.896-0.554,15.522,0.075
				c0.63,0.627,1.214,7.321,1.214,7.321H129.825z M145.159,142.202c-1.398,0-2.535-1.134-2.535-2.532s1.137-2.532,2.535-2.532
				c1.396,0,2.533,1.134,2.533,2.532S146.556,142.202,145.159,142.202z"/>
		</g>
	</g>
	<g>
		<g>
			<path fill="#328ACA" stroke="#FFFFFF" stroke-width="2" stroke-miterlimit="10" d="M196.483,137.891
				c-2.533-5.82-5.349-11.609-8.445-17.347c6.004-2.538,12.219-4.851,18.63-6.915C142.695,86.773,70.55,86.942,6.681,114.138
				c0.04,0.095,0.08,0.188,0.12,0.282c6.617,2.096,13.025,4.457,19.212,7.058c-2.9,5.432-5.547,10.909-7.942,16.415
				C75.126,113.939,139.427,113.938,196.483,137.891L196.483,137.891L196.483,137.891z"/>
		</g>
	</g>
	<g>
		<g>
			<path fill="#FFFFFF" d="M24.724,113.351c2.298-0.771,4.6-1.507,6.904-2.209c1.563-0.477,2.853-0.511,3.862-0.118
				c1.009,0.393,1.66,1.104,1.96,2.122c0.3,1.018,0.158,1.902-0.419,2.648c-0.794,1.029-1.924,1.766-3.405,2.218
				c-0.807,0.247-1.614,0.498-2.422,0.754c0.47,1.407,0.943,2.815,1.419,4.222c0.084,0.244,0.205,0.403,0.367,0.468
				c0.212,0.08,0.459,0.075,0.741-0.012c0.502-0.157,1.005-0.313,1.508-0.467c0.067,0.21,0.136,0.419,0.204,0.629
				c-2.12,0.649-4.239,1.329-6.354,2.041c-0.075-0.208-0.149-0.417-0.225-0.623c0.443-0.15,0.888-0.297,1.331-0.443
				c0.263-0.087,0.441-0.198,0.529-0.336c0.089-0.138,0.104-0.29,0.046-0.457c-1.141-3.275-2.268-6.554-3.382-9.833
				c-0.087-0.249-0.229-0.404-0.432-0.462s-0.53-0.012-0.984,0.138c-0.344,0.114-0.688,0.229-1.031,0.344
				C24.868,113.767,24.796,113.559,24.724,113.351z M31,118.155c0.615-0.195,1.232-0.389,1.849-0.578
				c1.172-0.361,1.946-0.834,2.326-1.438c0.383-0.6,0.417-1.413,0.104-2.441c-0.219-0.717-0.506-1.234-0.862-1.549
				s-0.793-0.497-1.313-0.543c-0.519-0.046-1.308,0.09-2.366,0.417c-0.698,0.217-1.12,0.413-1.267,0.59
				c-0.146,0.175-0.174,0.408-0.077,0.698C29.925,114.927,30.462,116.54,31,118.155z"/>
			<path fill="#FFFFFF" d="M49.896,118.725c0.149,0.134,0.298,0.269,0.445,0.401c-0.332,0.532-0.764,0.861-1.298,0.992
				c-0.408,0.1-0.777,0.081-1.113-0.061c-0.333-0.142-0.676-0.447-1.028-0.922c-0.421,0.71-0.82,1.219-1.201,1.52
				c-0.38,0.303-0.873,0.532-1.477,0.694c-0.862,0.228-1.566,0.234-2.119,0.008c-0.552-0.227-0.908-0.61-1.07-1.158
				c-0.243-0.823,0.076-1.651,0.965-2.481c0.891-0.827,2.188-1.564,3.89-2.187c-0.106-0.402-0.214-0.806-0.318-1.209
				c-0.113-0.432-0.399-0.753-0.858-0.963c-0.458-0.212-0.981-0.241-1.564-0.087c-0.539,0.14-0.979,0.367-1.312,0.674
				c-0.235,0.228-0.333,0.415-0.291,0.562c0.023,0.087,0.135,0.196,0.333,0.339c0.242,0.179,0.39,0.356,0.438,0.53
				c0.07,0.254,0.039,0.487-0.094,0.694c-0.133,0.209-0.345,0.352-0.631,0.431c-0.306,0.083-0.591,0.057-0.851-0.078
				c-0.261-0.136-0.435-0.354-0.521-0.651c-0.161-0.557,0.034-1.165,0.595-1.814c0.561-0.65,1.407-1.13,2.534-1.42
				c1.041-0.27,1.888-0.266,2.541,0.008c0.654,0.278,1.055,0.715,1.205,1.306c0.372,1.456,0.747,2.91,1.123,4.366
				c0.1,0.387,0.239,0.654,0.419,0.804c0.182,0.155,0.378,0.208,0.588,0.156C49.457,119.121,49.683,118.97,49.896,118.725z
				 M46.037,116.093c-1.502,0.591-2.512,1.207-3.032,1.825c-0.385,0.467-0.488,1.014-0.311,1.634
				c0.125,0.436,0.346,0.742,0.662,0.921c0.317,0.182,0.672,0.217,1.069,0.112c0.707-0.188,1.253-0.601,1.637-1.241
				c0.385-0.641,0.479-1.344,0.276-2.11C46.237,116.854,46.137,116.473,46.037,116.093z"/>
			<path fill="#FFFFFF" d="M49.371,111.307c1.038-0.294,2.077-0.58,3.119-0.861c0.246,1.082,0.494,2.169,0.741,3.251
				c0.089-1.143,0.308-2.041,0.659-2.691c0.352-0.652,0.878-1.049,1.579-1.196c0.475-0.099,0.883-0.042,1.222,0.166
				c0.339,0.211,0.555,0.538,0.648,0.987c0.075,0.362,0.039,0.661-0.106,0.9c-0.147,0.239-0.364,0.387-0.647,0.446
				c-0.276,0.058-0.521,0.018-0.729-0.119c-0.205-0.136-0.341-0.351-0.405-0.644c-0.04-0.189-0.027-0.377,0.035-0.564
				c0.062-0.168,0.088-0.27,0.082-0.296c-0.02-0.086-0.087-0.116-0.204-0.092c-0.256,0.054-0.517,0.253-0.779,0.596
				c-0.363,0.478-0.59,1.079-0.68,1.802c-0.137,1.122-0.127,1.994,0.014,2.617c0.133,0.576,0.264,1.15,0.396,1.725
				c0.044,0.192,0.151,0.329,0.319,0.397c0.17,0.073,0.43,0.069,0.778-0.006c0.36-0.077,0.719-0.154,1.079-0.229
				c0.047,0.216,0.094,0.43,0.142,0.645c-1.754,0.367-3.505,0.758-5.255,1.166c-0.052-0.213-0.104-0.427-0.157-0.641
				c0.28-0.065,0.561-0.13,0.841-0.195c0.284-0.066,0.485-0.166,0.604-0.305c0.122-0.139,0.163-0.282,0.128-0.431
				c-0.404-1.704-0.807-3.409-1.206-5.114c-0.091-0.388-0.247-0.653-0.47-0.79c-0.224-0.139-0.502-0.171-0.838-0.094
				c-0.254,0.06-0.51,0.119-0.765,0.177C49.469,111.711,49.419,111.51,49.371,111.307z"/>
			<path fill="#FFFFFF" d="M56.928,104.803c1.132-0.274,2.265-0.54,3.398-0.799c0.549,2.946,1.101,5.894,1.662,8.841
				c0.791-0.937,1.593-1.866,2.404-2.797c0.233-0.271,0.335-0.49,0.307-0.658c-0.025-0.144-0.125-0.242-0.301-0.295
				c-0.262-0.073-0.669-0.07-1.22,0.017c-0.036-0.202-0.073-0.404-0.109-0.605c1.561-0.275,3.124-0.534,4.688-0.778
				c0.031,0.203,0.064,0.405,0.097,0.607c-0.917,0.19-1.587,0.533-2.004,1.017c-0.577,0.66-1.149,1.326-1.716,1.99
				c1.328,1.198,2.639,2.409,3.93,3.628c0.235,0.218,0.593,0.29,1.071,0.214c0.158-0.023,0.315-0.049,0.474-0.072
				c0.035,0.217,0.07,0.434,0.104,0.651c-1.549,0.237-3.097,0.49-4.644,0.758c-0.038-0.216-0.078-0.433-0.117-0.648
				c0.154-0.026,0.31-0.053,0.464-0.08c0.346-0.06,0.571-0.127,0.68-0.205c0.109-0.076,0.154-0.156,0.141-0.237
				c-0.015-0.08-0.058-0.156-0.134-0.228c-0.955-0.902-1.92-1.798-2.895-2.687c-0.355,0.421-0.708,0.841-1.057,1.265
				c0.129,0.684,0.26,1.364,0.391,2.048c0.031,0.166,0.114,0.281,0.244,0.34c0.185,0.079,0.422,0.093,0.713,0.041
				c0.196-0.034,0.394-0.071,0.59-0.105c0.04,0.217,0.081,0.432,0.121,0.648c-1.52,0.269-3.039,0.554-4.555,0.853
				c-0.045-0.216-0.09-0.431-0.134-0.646c0.245-0.049,0.49-0.096,0.735-0.144c0.303-0.057,0.514-0.163,0.636-0.31
				c0.12-0.149,0.163-0.325,0.122-0.526c-0.66-3.324-1.312-6.65-1.955-9.977c-0.05-0.26-0.18-0.431-0.387-0.518
				c-0.3-0.122-0.678-0.14-1.129-0.051c-0.161,0.031-0.324,0.063-0.486,0.096C57.015,105.235,56.973,105.019,56.928,104.803z"/>
			<path fill="#FFFFFF" d="M75.497,107.397c0.976,1.176,1.703,2.041,2.201,2.577c0.496,0.537,1.027,1.06,1.596,1.569
				c0.832-1.235,1.219-2.206,1.143-2.917c-0.034-0.321-0.181-0.561-0.445-0.723c-0.263-0.159-0.639-0.213-1.125-0.16
				c-0.166,0.017-0.332,0.038-0.496,0.056c-0.023-0.201-0.048-0.402-0.07-0.603c1.738-0.196,3.479-0.374,5.219-0.533
				c0.018,0.202,0.038,0.403,0.057,0.604c-0.131,0.013-0.262,0.025-0.394,0.037c-0.337,0.032-0.609,0.104-0.819,0.219
				c-0.209,0.114-0.398,0.278-0.561,0.492c-0.164,0.214-0.35,0.594-0.556,1.146c-0.42,1.109-0.884,2.054-1.4,2.835
				c0.93,0.723,1.698,1.057,2.321,0.995c0.379-0.036,0.678-0.212,0.903-0.521c0.227-0.311,0.347-0.819,0.366-1.527
				c0.192-0.018,0.387-0.036,0.581-0.054c0.101,1.092-0.069,1.942-0.501,2.554c-0.435,0.612-1.023,0.955-1.767,1.03
				c-0.419,0.044-0.855-0.015-1.312-0.173c-0.457-0.157-1.021-0.471-1.7-0.935c-0.642,0.614-1.226,1.062-1.751,1.331
				c-0.524,0.271-1.102,0.446-1.73,0.528c-1.144,0.149-2.137-0.073-2.99-0.668c-0.854-0.597-1.363-1.402-1.52-2.429
				c-0.119-0.788,0.013-1.531,0.407-2.235c0.392-0.701,1.182-1.454,2.373-2.244c-0.748-1.053-1.181-1.956-1.284-2.71
				c-0.113-0.82,0.115-1.561,0.692-2.222c0.576-0.661,1.348-1.054,2.302-1.171c0.91-0.112,1.653,0.019,2.227,0.383
				c0.572,0.365,0.896,0.902,0.976,1.606c0.074,0.67-0.106,1.311-0.536,1.923C77.473,106.073,76.669,106.713,75.497,107.397z
				 M73.947,108.286c-1.226,0.854-1.761,1.763-1.624,2.713c0.105,0.731,0.52,1.455,1.235,2.179c0.714,0.723,1.515,1.022,2.407,0.912
				c0.759-0.096,1.497-0.483,2.219-1.163c-0.672-0.607-1.289-1.209-1.846-1.812C75.78,110.516,74.986,109.567,73.947,108.286z
				 M75.055,106.77c0.855-0.479,1.432-0.943,1.722-1.401c0.29-0.456,0.403-0.973,0.334-1.557c-0.063-0.547-0.271-0.962-0.625-1.245
				c-0.354-0.282-0.778-0.395-1.271-0.334c-0.485,0.06-0.869,0.264-1.148,0.61c-0.28,0.345-0.385,0.77-0.319,1.276
				C73.846,104.857,74.285,105.739,75.055,106.77z"/>
			<path fill="#FFFFFF" d="M84.584,100.905c2.447-0.207,4.896-0.381,7.345-0.516c1.425-0.079,2.542,0.166,3.351,0.724
				c0.808,0.559,1.229,1.319,1.264,2.28c0.021,0.575-0.113,1.09-0.4,1.551c-0.286,0.46-0.711,0.835-1.271,1.127
				c-0.559,0.291-1.449,0.526-2.667,0.711c0.904,0.179,1.526,0.374,1.875,0.576c0.347,0.201,0.627,0.475,0.846,0.812
				c0.219,0.342,0.48,1.038,0.789,2.1c0.219,0.76,0.439,1.275,0.658,1.547c0.167,0.211,0.344,0.312,0.525,0.306
				c0.188-0.006,0.359-0.147,0.512-0.418c0.152-0.273,0.235-0.745,0.249-1.421c0.209-0.007,0.417-0.014,0.627-0.021
				c-0.055,1.994-0.782,3.014-2.188,3.069c-0.442,0.018-0.831-0.073-1.166-0.275c-0.339-0.201-0.598-0.508-0.784-0.921
				c-0.145-0.311-0.329-1.132-0.561-2.462c-0.132-0.774-0.312-1.318-0.53-1.636c-0.219-0.315-0.549-0.563-0.99-0.738
				c-0.441-0.176-0.963-0.245-1.562-0.206c-0.379,0.023-0.756,0.048-1.134,0.073c0.117,1.698,0.236,3.396,0.355,5.095
				c0.016,0.216,0.083,0.366,0.205,0.444c0.153,0.102,0.386,0.142,0.696,0.122c0.433-0.027,0.864-0.057,1.298-0.08
				c0.013,0.219,0.026,0.438,0.039,0.658c-2.086,0.122-4.17,0.273-6.256,0.449c-0.018-0.219-0.038-0.438-0.057-0.656
				c0.44-0.038,0.882-0.074,1.323-0.109c0.292-0.022,0.501-0.096,0.631-0.216c0.127-0.124,0.184-0.276,0.169-0.472
				c-0.27-3.453-0.538-6.904-0.802-10.359c-0.017-0.222-0.103-0.382-0.259-0.481c-0.155-0.101-0.384-0.138-0.684-0.114
				c-0.463,0.037-0.928,0.074-1.39,0.114C84.621,101.343,84.604,101.124,84.584,100.905z M89.328,106.537
				c0.546-0.037,1.095-0.072,1.642-0.106c1.102-0.067,1.949-0.305,2.556-0.727c0.604-0.42,0.884-1.125,0.838-2.117
				c-0.032-0.683-0.177-1.221-0.434-1.605c-0.259-0.384-0.586-0.642-0.984-0.767c-0.398-0.126-1.168-0.16-2.312-0.091
				c-0.754,0.047-1.219,0.127-1.391,0.234c-0.172,0.106-0.251,0.277-0.234,0.513C89.114,103.428,89.22,104.982,89.328,106.537z"/>
			<path fill="#FFFFFF" d="M98.913,104.862c1.172-0.064,2.346-0.121,3.519-0.171c0.033,2.361,0.067,4.722,0.103,7.083
				c0.004,0.195,0.053,0.33,0.152,0.412c0.141,0.114,0.319,0.172,0.532,0.168c0.322-0.004,0.646-0.006,0.969-0.009
				c0.003,0.221,0.004,0.44,0.005,0.659c-1.619,0.012-3.238,0.041-4.857,0.084c-0.006-0.219-0.013-0.438-0.019-0.658
				c0.301-0.008,0.603-0.017,0.904-0.023c0.267-0.006,0.463-0.073,0.585-0.201c0.123-0.129,0.182-0.312,0.177-0.554
				c-0.037-1.728-0.074-3.458-0.11-5.185c-0.006-0.327-0.111-0.572-0.315-0.736c-0.203-0.163-0.506-0.237-0.899-0.229
				c-0.242,0.006-0.483,0.015-0.725,0.02C98.925,105.302,98.921,105.082,98.913,104.862z M101.276,99.894
				c0.289-0.007,0.542,0.092,0.765,0.285c0.221,0.197,0.333,0.43,0.337,0.698c0.004,0.265-0.099,0.494-0.307,0.69
				c-0.206,0.197-0.457,0.298-0.749,0.303c-0.293,0.006-0.548-0.088-0.766-0.278c-0.22-0.192-0.33-0.421-0.337-0.684
				c-0.005-0.264,0.099-0.497,0.312-0.701C100.744,100.002,100.994,99.898,101.276,99.894z"/>
			<path fill="#FFFFFF" d="M110.266,100.038c1.173-0.031,2.35-0.051,3.524-0.063c-0.117,3.753-0.237,7.508-0.358,11.261
				c-0.015,0.44,0.063,0.755,0.229,0.949c0.168,0.193,0.427,0.292,0.772,0.308c0.198,0.008,0.396,0.015,0.594,0.022
				c-0.009,0.22-0.018,0.439-0.025,0.658c-0.972-0.036-1.945-0.067-2.917-0.094c-0.058-0.561-0.116-1.121-0.175-1.684
				c-0.362,0.587-0.783,1.029-1.253,1.32c-0.474,0.293-0.995,0.437-1.572,0.427c-0.972-0.013-1.794-0.41-2.479-1.197
				c-0.684-0.787-1.033-1.823-1.034-3.112c-0.001-1.395,0.443-2.509,1.35-3.338c0.712-0.646,1.535-0.966,2.461-0.953
				c0.566,0.008,1.073,0.149,1.517,0.422c0.445,0.271,0.826,0.681,1.145,1.222c0.039-1.55,0.079-3.099,0.118-4.648
				c0.005-0.245-0.093-0.442-0.298-0.593c-0.204-0.149-0.526-0.227-0.968-0.236c-0.215-0.003-0.429-0.006-0.643-0.011
				C110.256,100.477,110.263,100.257,110.266,100.038z M109.626,105.274c-0.678-0.009-1.22,0.245-1.622,0.764
				c-0.401,0.518-0.605,1.396-0.612,2.633c-0.009,1.341,0.187,2.287,0.578,2.839c0.394,0.552,0.897,0.83,1.52,0.84
				c0.666,0.008,1.236-0.282,1.727-0.887c0.486-0.602,0.75-1.488,0.78-2.667c0.028-1.115-0.207-1.998-0.712-2.646
				C110.847,105.579,110.293,105.286,109.626,105.274z"/>
			<path fill="#FFFFFF" d="M124.236,109.633c-2.072-0.157-4.146-0.287-6.219-0.392c-0.032,1.256,0.165,2.15,0.597,2.689
				c0.492,0.606,1.144,0.934,1.952,0.983c1.191,0.073,2.194-0.512,3.023-1.761c0.192,0.097,0.386,0.193,0.579,0.29
				c-1.027,1.591-2.36,2.328-4.035,2.229c-1.141-0.069-2.078-0.517-2.82-1.35c-0.746-0.835-1.096-1.867-1.041-3.108
				c0.059-1.335,0.497-2.397,1.331-3.182c0.831-0.785,1.834-1.146,3-1.076c0.856,0.052,1.581,0.304,2.177,0.756
				c0.592,0.453,1.015,1.073,1.269,1.861C124.227,108.126,124.288,108.815,124.236,109.633z M118.05,108.618
				c1.257,0.063,2.516,0.136,3.772,0.219c0.224,0.014,0.401-0.045,0.535-0.181c0.136-0.135,0.214-0.374,0.237-0.72
				c0.045-0.644-0.13-1.203-0.528-1.683c-0.399-0.479-0.892-0.734-1.477-0.771c-0.653-0.037-1.224,0.203-1.706,0.723
				C118.399,106.726,118.123,107.53,118.05,108.618z"/>
			<path fill="#FFFFFF" d="M135.202,101.561c-0.466,3.952-0.938,7.903-1.418,11.854c-0.02,0.163,0.017,0.294,0.109,0.393
				c0.136,0.135,0.315,0.215,0.534,0.24c0.302,0.036,0.603,0.075,0.902,0.111c-0.027,0.217-0.057,0.436-0.084,0.653
				c-1.609-0.199-3.218-0.383-4.828-0.548c0.024-0.219,0.048-0.438,0.07-0.656c0.286,0.029,0.571,0.06,0.858,0.09
				c0.279,0.029,0.494-0.012,0.646-0.125s0.24-0.285,0.267-0.518c0.382-3.318,0.755-6.638,1.128-9.958
				c0.032-0.292-0.03-0.514-0.188-0.667c-0.216-0.211-0.497-0.338-0.841-0.373c-0.269-0.027-0.537-0.057-0.806-0.084
				c0.023-0.22,0.046-0.438,0.068-0.655C132.815,101.39,134.009,101.472,135.202,101.561z"/>
			<path fill="#FFFFFF" d="M144.941,112.099c-2.064-0.336-4.132-0.646-6.2-0.927c-0.144,1.244-0.022,2.156,0.36,2.73
				c0.44,0.646,1.062,1.029,1.868,1.147c1.188,0.175,2.246-0.319,3.188-1.492c0.186,0.113,0.37,0.226,0.556,0.339
				c-1.171,1.495-2.577,2.116-4.244,1.871c-1.137-0.169-2.035-0.692-2.706-1.587c-0.673-0.895-0.93-1.956-0.768-3.188
				c0.177-1.324,0.71-2.345,1.612-3.056c0.902-0.71,1.939-0.981,3.102-0.812c0.853,0.124,1.561,0.44,2.115,0.94
				c0.555,0.502,0.926,1.157,1.109,1.966C145.063,110.599,145.065,111.288,144.941,112.099z M138.829,110.553
				c1.254,0.172,2.509,0.353,3.762,0.544c0.223,0.033,0.404-0.009,0.553-0.134c0.146-0.121,0.247-0.354,0.301-0.696
				c0.102-0.637-0.023-1.211-0.383-1.723c-0.355-0.51-0.828-0.811-1.411-0.896c-0.651-0.093-1.244,0.097-1.774,0.573
				S139,109.476,138.829,110.553z"/>
			<path fill="#FFFFFF" d="M154.736,117.122c0.074,0.182,0.147,0.365,0.222,0.549c-0.537,0.339-1.069,0.451-1.605,0.344
				c-0.409-0.082-0.731-0.258-0.969-0.526c-0.237-0.268-0.405-0.687-0.509-1.266c-0.691,0.463-1.275,0.75-1.747,0.861
				c-0.473,0.112-1.013,0.113-1.622,0c-0.869-0.156-1.496-0.452-1.886-0.888s-0.536-0.934-0.438-1.493
				c0.148-0.845,0.795-1.455,1.951-1.827c1.156-0.371,2.634-0.486,4.429-0.328c0.081-0.408,0.165-0.816,0.246-1.225
				c0.088-0.438-0.026-0.848-0.345-1.23c-0.319-0.385-0.771-0.632-1.359-0.741c-0.544-0.102-1.031-0.083-1.463,0.055
				c-0.312,0.105-0.479,0.233-0.506,0.383c-0.016,0.087,0.034,0.235,0.149,0.447c0.138,0.261,0.188,0.483,0.156,0.661
				c-0.048,0.26-0.178,0.456-0.387,0.588c-0.211,0.133-0.46,0.174-0.751,0.122c-0.309-0.056-0.55-0.198-0.721-0.431
				c-0.173-0.231-0.231-0.501-0.178-0.807c0.101-0.571,0.538-1.035,1.32-1.386c0.781-0.352,1.744-0.422,2.878-0.21
				c1.048,0.195,1.806,0.559,2.269,1.081c0.464,0.528,0.631,1.093,0.508,1.688c-0.306,1.47-0.613,2.94-0.923,4.41
				c-0.081,0.391-0.076,0.691,0.019,0.901c0.094,0.216,0.246,0.345,0.457,0.388C154.168,117.293,154.437,117.251,154.736,117.122z
				 M152.448,113.117c-1.604-0.103-2.773,0.026-3.508,0.363c-0.549,0.259-0.881,0.706-0.998,1.341
				c-0.081,0.444-0.021,0.813,0.181,1.108c0.201,0.296,0.502,0.479,0.901,0.552c0.714,0.129,1.382-0.009,2.01-0.426
				c0.627-0.414,1.023-1.008,1.18-1.784C152.292,113.887,152.37,113.502,152.448,113.117z"/>
			<path fill="#FFFFFF" d="M157.296,110.161c1.438,0.305,2.879,0.621,4.315,0.953c-0.044,0.194-0.092,0.388-0.138,0.582
				c-0.576-0.12-0.951-0.156-1.13-0.108c-0.179,0.046-0.284,0.147-0.32,0.303c-0.03,0.124-0.028,0.259,0.005,0.397
				c0.401,1.75,0.786,3.508,1.15,5.258c1.063-1.367,2.138-2.727,3.224-4.081c0.052-0.072,0.086-0.147,0.106-0.227
				c0.105-0.415-0.273-0.783-1.142-1.099c0.049-0.193,0.096-0.389,0.144-0.581c1.21,0.288,2.418,0.587,3.626,0.893
				c-0.052,0.194-0.101,0.386-0.153,0.579c-0.375-0.061-0.69-0.043-0.946,0.051c-0.257,0.095-0.473,0.251-0.657,0.472
				c-1.646,1.996-3.262,4.005-4.855,6.028c-0.162-0.038-0.324-0.076-0.486-0.113c-0.537-2.586-1.115-5.173-1.734-7.76
				c-0.068-0.278-0.18-0.488-0.334-0.625c-0.156-0.139-0.422-0.251-0.802-0.338C157.211,110.55,157.254,110.354,157.296,110.161z"/>
			<path fill="#FFFFFF" d="M174.926,118.919c-2.042-0.601-4.09-1.172-6.139-1.719c-0.309,1.22-0.305,2.137,0.006,2.756
				c0.359,0.699,0.937,1.157,1.734,1.381c1.179,0.326,2.309-0.029,3.416-1.071c0.171,0.137,0.345,0.272,0.517,0.408
				c-1.381,1.335-2.881,1.768-4.532,1.311c-1.125-0.312-1.96-0.95-2.521-1.923c-0.56-0.975-0.682-2.06-0.356-3.261
				c0.35-1.293,1.02-2.235,2.022-2.826c1-0.588,2.084-0.727,3.234-0.409c0.845,0.233,1.521,0.636,2.015,1.207
				c0.496,0.567,0.786,1.268,0.866,2.093C175.245,117.444,175.157,118.131,174.926,118.919z M168.956,116.599
				c1.243,0.33,2.485,0.671,3.727,1.022c0.221,0.061,0.411,0.044,0.575-0.062c0.166-0.103,0.295-0.319,0.396-0.651
				c0.185-0.619,0.133-1.206-0.164-1.759c-0.293-0.554-0.732-0.912-1.309-1.071c-0.646-0.178-1.27-0.063-1.866,0.341
				C169.72,114.823,169.267,115.552,168.956,116.599z"/>
			<path fill="#FFFFFF" d="M176.987,120.538c0.063,1.083,0.271,1.884,0.631,2.403c0.359,0.522,0.891,0.892,1.596,1.118
				c0.65,0.208,1.197,0.237,1.638,0.088c0.444-0.148,0.735-0.429,0.878-0.832c0.082-0.233,0.087-0.461,0.02-0.676
				c-0.068-0.219-0.204-0.406-0.402-0.568c-0.202-0.16-0.754-0.481-1.662-0.954c-0.866-0.46-1.453-0.833-1.758-1.131
				c-0.303-0.297-0.508-0.636-0.607-1.024c-0.102-0.387-0.09-0.77,0.029-1.151c0.184-0.576,0.562-1.037,1.14-1.377
				c0.742-0.43,1.613-0.494,2.604-0.18c0.758,0.239,1.387,0.678,1.882,1.314c0.271-0.128,0.542-0.257,0.813-0.384
				c0.127,0.043,0.254,0.083,0.381,0.125c-0.241,0.955-0.484,1.908-0.729,2.861c-0.205-0.066-0.41-0.135-0.614-0.202
				c0.006-0.877-0.165-1.562-0.51-2.062c-0.345-0.496-0.857-0.854-1.538-1.068c-0.59-0.186-1.093-0.2-1.511-0.041
				c-0.417,0.156-0.688,0.422-0.808,0.797c-0.105,0.329-0.042,0.65,0.194,0.964c0.227,0.315,0.756,0.673,1.588,1.08
				c0.962,0.478,1.574,0.823,1.842,1.028c0.441,0.33,0.737,0.713,0.889,1.15c0.151,0.437,0.135,0.906-0.04,1.403
				c-0.245,0.688-0.745,1.173-1.497,1.456c-0.751,0.287-1.57,0.284-2.465,0c-0.83-0.264-1.512-0.762-2.057-1.495
				c-0.295,0.167-0.59,0.336-0.886,0.503c-0.157-0.049-0.316-0.095-0.476-0.145c0.278-1.062,0.553-2.123,0.826-3.188
				C176.581,120.415,176.784,120.476,176.987,120.538z"/>
		</g>
	</g>
</g>
</svg>
