<?xml version="1.0" encoding="utf-8"?>
<!-- Generator: Adobe Illustrator 16.0.0, SVG Export Plug-In . SVG Version: 6.00 Build 0)  -->
<!DOCTYPE svg PUBLIC "-//W3C//DTD SVG 1.1//EN" "http://www.w3.org/Graphics/SVG/1.1/DTD/svg11.dtd">
<svg version="1.1" id="Livello_1" xmlns="http://www.w3.org/2000/svg" xmlns:xlink="http://www.w3.org/1999/xlink" x="0px" y="0px"
	 width="210px" height="200px" viewBox="0 0 210 200" enable-background="new 0 0 210 200" xml:space="preserve">
<g>
	<g>
		<circle fill="#0572B7" cx="105" cy="100" r="84"/>
		<circle fill="#0572B7" stroke="#FFFFFF" stroke-width="5" stroke-miterlimit="10" cx="105" cy="100" r="75.216"/>
		<path fill="none" d="M41.531,83.146h31.434v31.435H41.531V83.146z"/>
		<rect x="130.005" y="121.35" fill="none" width="24.543" height="24.956"/>
		<g>
			<g>
				<path fill="#55ABE0" stroke="#FFFFFF" stroke-miterlimit="10" d="M65.938,127.085l-8.353,1.761
					c4.722,8.347,11.686,15.49,20.472,20.428l1.18-8.916C73.711,136.958,69.212,132.376,65.938,127.085z"/>
				<path fill="#55ABE0" stroke="#FFFFFF" stroke-miterlimit="10" d="M79.714,64.14l-1.762-8.906
					c-8.346,4.721-15.488,11.686-20.427,20.473l8.917,1.732C69.841,71.911,74.423,67.413,79.714,64.14z"/>
				<path fill="#55ABE0" stroke="#FFFFFF" stroke-miterlimit="10" d="M143.212,76.808l8.354-1.207
					c-4.721-8.348-11.685-15.49-20.472-20.428l-1.18,8.363C135.441,66.934,139.94,71.517,143.212,76.808z"/>
				<path fill="#55ABE0" stroke="#FFFFFF" stroke-miterlimit="10" d="M95.226,147.021l-5.052,7.256
					c9.712,2.699,19.685,2.551,28.919-0.033l-5.078-7.247C107.962,148.437,101.541,148.511,95.226,147.021z"/>
				<path fill="#55ABE0" stroke="#FFFFFF" stroke-miterlimit="10" d="M156.595,87.705l-6.955,3.909
					c1.44,6.052,1.514,12.474,0.022,18.789l6.966,6.223C159.328,106.914,159.18,96.938,156.595,87.705z"/>
			</g>
			<path fill="#55ABE0" stroke="#FFFFFF" stroke-width="2" stroke-miterlimit="10" d="M112.116,73.646H88.041v58.177h13.757v-19.393
				h10.318c11.4,0,20.635-8.678,20.635-19.393S123.517,73.646,112.116,73.646z M112.804,99.502h-11.006V86.574h11.006
				c3.799,0,6.879,2.893,6.879,6.464C119.683,96.61,116.603,99.502,112.804,99.502z"/>
			<g>
				<g>
					<path fill="#FFFFFF" d="M62.595,90.234c1.289,0.03,2.367-0.993,2.396-2.288c0.029-1.297-0.999-2.368-2.288-2.398
						c-1.295-0.029-2.367,0.992-2.397,2.289C60.276,89.132,61.3,90.204,62.595,90.234z"/>
				</g>
				<g>
					<path fill="#FFFFFF" d="M62.935,99.487h6.355v-2.343h-4.722l-2.604-4.337c-0.384-0.65-1.093-1.08-1.901-1.08
						c-0.221,0-0.436,0.032-0.638,0.09l-7.064,2.201l-0.955,6.771h2.344l0.955-4.771l2.742-0.854l-5.086,19.948h2.344l3.737-10.56
						l3.034,4.05v6.51h2.343v-8.34l-3.242-5.912l0.958-3.735L62.935,99.487z"/>
				</g>
			</g>
			<path fill="#FFFFFF" d="M124.233,56.017c-0.981-3.08-3.608-5.095-6.572-5.062l-2.148,0.078l-0.68-1.706
				c-1.321-3.311-2.004-4.934-2.213-5.249c-0.208-0.315-0.232-0.319-2.189-0.319c-1.733,0-2.007,0.03-2.155,0.231
				c-0.242,0.317-0.229,0.513,0.074,0.816c0.233,0.232,0.439,0.262,1.756,0.262c1.04,0,1.531,0.05,1.616,0.164
				c0.147,0.195,0.694,1.531,0.694,1.691c0,0.062-2.742,0.11-6.093,0.11h-6.096l-0.259-0.514c-0.146-0.287-0.267-0.546-0.267-0.577
				c0-0.035,0.624-0.131,1.388-0.224c1.555-0.184,2.125-0.458,1.751-0.839c-0.167-0.173-0.635-0.213-2.714-0.238
				c-1.71-0.02-2.562,0.016-2.659,0.116c-0.079,0.079-0.126,0.374-0.103,0.654c0.037,0.45,0.074,0.706,0.49,0.657l0.63-0.081
				l0.819,1.544l-2.559,3.923c-1.824-0.547-3.48-0.671-5.354-0.067c-0.901,0.379-2.179,1.286-2.763,1.971
				c-0.765,0.893-1.365,2.244-1.545,3.479c-0.02,0.137-0.033,0.275-0.043,0.41v0.938c0.193,2.657,2.037,5.144,4.615,5.999
				c1.196,0.401,1.225,0.405,2.476,0.362c0.935-0.032,1.389-0.124,2.2-0.438c1.18-0.459,1.73-0.915,2.962-2.258
				c1.247-1.367,1.377-2.924,1.426-3.339c0.103-0.036,1.123-0.071,2.27-0.071h2.088l0.019,1.05c0.012,0.577-0.029,1.312-0.023,1.439
				c0.01,0.18-0.056,0.076-0.496,0.107c-0.499,0.033-0.562,0.075-0.524,0.327c0.031,0.23,0.142,0.3,0.552,0.331
				c0.28,0.025,0.959-0.083,1.129-0.126l0.035-3.168l0.883-1.1c0.502-0.635,0.959-1.213,1.013-1.283
				c0.057-0.074,0.313-0.398,0.57-0.724c0.255-0.324,1.456-1.843,2.667-3.376c1.211-1.531,2.24-2.787,2.294-2.787
				c0.056,0,0.161,0.135,0.237,0.3c0.47,0.984,0.721,1.642,0.78,2.023c0.063,0.374,0.028,0.444-0.274,0.56
				c-0.519,0.198-1.938,1.702-2.356,2.505c-0.523,1-0.87,2.277-0.87,3.229c0,1.405,0.946,3.726,1.914,4.689
				c2.631,2.631,6.422,2.869,9.286,0.588c1-0.89,1.848-2.055,2.255-3.34C124.445,58.747,124.483,56.794,124.233,56.017z
				 M97.294,53.462c0.921,0.834,1.812,1.658,1.978,3.495l-4.212,0.061L97.294,53.462z M93.595,62.978
				c-2.516-0.084-5.165-2.008-5.138-5.539c0.022-3.49,3.771-5.908,7.668-4.562c-1.025,1.809-3.382,4.9-3.097,5.291
				c0.295,0.407,0.853,0.271,3.5,0.271h2.815C99.057,62.346,95.127,63.026,93.595,62.978z M100.687,56.937
				c-0.381-1.876-1.46-3.381-2.753-4.767l1.842-3.038c0.077,0,0.425,0.516,0.776,1.144c0.353,0.633,1.337,2.385,2.191,3.893
				c0.854,1.506,1.538,2.808,1.477,2.808L100.687,56.937z M108.823,52.424c-0.095,0.111-0.471,0.626-0.87,1.112l-2.219,2.702
				l-0.002-1.694c0.339-0.01,1.027-0.005,1.004-0.437c-0.019-0.435-0.972-0.315-1.633-0.286l0.066,2.474l-4.057-7.95h5.324
				c4.473,0,5.324,0.031,5.324,0.186C111.762,48.672,110.264,50.655,108.823,52.424z M121.434,61.693
				c-1.398,1.352-3.437,1.899-5.23,1.407c-2.697-0.744-4.485-3.369-4.074-5.986c0.229-1.458,0.624-2.285,1.532-3.21
				c1.056-1.08,1.248-1.085,1.639-0.055c0.094,0.252,0.299,0.759,0.455,1.117c0.156,0.361,0.516,1.229,0.8,1.93
				c0.579,1.435,0.91,1.769,1.368,1.353c0.375-0.524,0.045-1.295-0.368-2.189c-0.222-0.404-1.338-3.413-1.338-3.609
				c0.313-0.312,1.038-0.16,1.476-0.146c1.255,0.056,1.587,0.12,2.243,0.425c0.972,0.454,2.231,1.715,2.687,2.693
				c0.301,0.648,0.542,0.9,0.559,2.39C123.36,59.321,122.414,60.616,121.434,61.693z"/>
			<path fill="#FFFFFF" d="M147.798,124.458c-0.936-1.6-2.049-1.948-3.838-2.408c-1.787-0.46-3.591-0.529-5.157-0.529
				s-3.369,0.069-5.157,0.529c-1.787,0.46-2.915,0.809-3.851,2.408c-0.937,1.6-1.637,9.74-1.637,10.16c0,0.422,0,9.192,0,9.192
				h1.116c0,0.559,0,2.46,0,2.48c0,0.787,1.166,1.427,1.953,1.427c0.788,0,1.954-0.64,1.954-1.427c0-0.021,0-1.922,0-2.48h11.432
				c0,0.559-0.002,2.207,0,2.228c0.181,1.427,1.518,1.553,2.305,1.553s1.334-0.513,1.334-1.3c0-0.021,0-1.922,0-2.48h1.176
				c0,0,0.002-8.313,0.002-8.773C149.43,134.578,148.734,126.058,147.798,124.458z M134.856,122.601h8.371v2.233h-8.371V122.601z
				 M132.159,142.202c-1.4,0-2.535-1.134-2.535-2.532s1.135-2.532,2.535-2.532c1.398,0,2.533,1.134,2.533,2.532
				S133.558,142.202,132.159,142.202z M129.825,134.322c0,0,0.587-6.768,1.216-7.396c0.627-0.628,14.896-0.554,15.522,0.075
				c0.63,0.627,1.214,7.321,1.214,7.321H129.825z M145.159,142.202c-1.398,0-2.535-1.134-2.535-2.532s1.137-2.532,2.535-2.532
				c1.396,0,2.533,1.134,2.533,2.532S146.556,142.202,145.159,142.202z"/>
		</g>
	</g>
	<g>
		<g>
			<path fill="#328ACA" stroke="#FFFFFF" stroke-width="2" stroke-miterlimit="10" d="M196.483,137.247
				c-2.534-5.82-5.349-11.609-8.445-17.347c6.004-2.538,12.218-4.851,18.63-6.915C142.695,86.129,70.551,86.299,6.681,113.494
				c0.04,0.094,0.08,0.188,0.12,0.282c6.617,2.096,13.025,4.457,19.211,7.058c-2.899,5.432-5.546,10.909-7.941,16.415
				C75.127,113.296,139.426,113.295,196.483,137.247L196.483,137.247L196.483,137.247z"/>
		</g>
	</g>
	<g>
		<g>
			<path fill="#FFFFFF" d="M31.411,121.51c-0.138,0.362,1.075,0.109,3.646-0.689c0.386-0.12,0.631-0.298,0.734-0.536
				c0.104-0.239,0.123-0.815,0.063-1.733c0.179-0.056,0.359-0.108,0.539-0.163c0.232,1.026,0.468,2.054,0.706,3.078
				c-2.3,0.694-4.595,1.426-6.886,2.191c-0.047-0.13-0.094-0.259-0.138-0.387c0.463-1.039,0.937-2.079,1.419-3.115
				c0.828-1.674,1.335-2.71,1.484-3.118c0.215-0.582,0.336-1.113,0.366-1.604c0.027-0.486-0.014-0.91-0.13-1.268
				c-0.191-0.59-0.521-1.002-0.995-1.228c-0.475-0.228-1.036-0.237-1.685-0.033c-0.73,0.23-1.272,0.58-1.626,1.041
				s-0.469,0.866-0.349,1.215c0.041,0.122,0.107,0.198,0.197,0.239c0.084,0.043,0.244,0.052,0.472,0.03
				c0.576-0.061,0.939,0.138,1.091,0.588c0.081,0.244,0.063,0.475-0.062,0.694c-0.125,0.22-0.327,0.373-0.605,0.464
				c-0.32,0.105-0.65,0.062-0.986-0.127c-0.336-0.188-0.582-0.503-0.734-0.937c-0.17-0.489-0.183-0.975-0.043-1.469
				c0.141-0.492,0.453-0.961,0.935-1.4c0.481-0.44,1.051-0.767,1.706-0.974c0.651-0.206,1.296-0.266,1.932-0.189
				c0.636,0.078,1.157,0.282,1.563,0.605c0.406,0.322,0.684,0.728,0.836,1.209c0.105,0.333,0.142,0.691,0.114,1.075
				c-0.029,0.384-0.128,0.766-0.296,1.145c-0.288,0.655-0.608,1.235-0.964,1.751c-0.516,0.748-1.024,1.498-1.527,2.249
				C31.808,120.686,31.551,121.148,31.411,121.51z"/>
			<path fill="#FFFFFF" d="M39.676,109.563c1.049-0.291,2.033-0.157,2.935,0.398c1.114,0.682,1.914,1.956,2.416,3.811
				c0.464,1.724,0.457,3.127-0.021,4.218c-0.477,1.09-1.214,1.772-2.234,2.055c-0.98,0.271-1.913,0.129-2.802-0.431
				c-1.113-0.706-1.954-1.942-2.502-3.723c-0.52-1.692-0.532-3.158-0.021-4.393C37.854,110.508,38.601,109.859,39.676,109.563z
				 M39.873,110.074c-0.71,0.197-1.178,0.66-1.392,1.387c-0.219,0.725-0.035,2.051,0.542,3.979c0.565,1.884,1.146,3.085,1.729,3.603
				c0.586,0.516,1.207,0.684,1.873,0.5c0.671-0.186,1.104-0.617,1.299-1.299c0.232-0.812,0.093-2.14-0.42-3.985
				c-0.529-1.911-1.091-3.133-1.688-3.668C41.216,110.056,40.567,109.883,39.873,110.074z"/>
			<path fill="#FFFFFF" d="M49.408,106.563c1.979-0.464,3.96-0.903,5.941-1.318c1.344-0.28,2.427-0.208,3.242,0.207
				c0.816,0.416,1.311,1.073,1.485,1.971c0.176,0.897-0.009,1.643-0.552,2.238c-0.746,0.818-1.754,1.358-3.033,1.628
				c-0.698,0.146-1.396,0.297-2.094,0.45c0.281,1.243,0.565,2.486,0.851,3.729c0.05,0.217,0.141,0.361,0.271,0.431
				c0.174,0.085,0.381,0.104,0.624,0.05c0.437-0.094,0.872-0.187,1.309-0.279c0.041,0.186,0.081,0.37,0.122,0.556
				c-1.842,0.388-3.683,0.796-5.52,1.229c-0.045-0.185-0.091-0.368-0.136-0.553c0.386-0.091,0.771-0.181,1.155-0.268
				c0.23-0.054,0.388-0.134,0.474-0.245c0.084-0.109,0.112-0.239,0.077-0.386c-0.687-2.899-1.366-5.799-2.039-8.697
				c-0.052-0.222-0.159-0.366-0.324-0.433c-0.163-0.064-0.44-0.056-0.832,0.036c-0.296,0.067-0.593,0.137-0.89,0.206
				C49.495,106.931,49.453,106.748,49.408,106.563z M54.276,111.199c0.531-0.115,1.063-0.231,1.597-0.344
				c1.01-0.217,1.699-0.56,2.066-1.045c0.369-0.484,0.457-1.177,0.272-2.083c-0.129-0.632-0.329-1.098-0.605-1.396
				c-0.273-0.299-0.626-0.489-1.06-0.57c-0.43-0.079-1.102-0.027-2.011,0.166c-0.604,0.129-0.969,0.262-1.106,0.401
				c-0.136,0.139-0.176,0.335-0.119,0.592C53.631,108.348,53.952,109.775,54.276,111.199z"/>
			<path fill="#FFFFFF" d="M70.164,113.133c0.116,0.126,0.233,0.251,0.35,0.376c-0.322,0.432-0.71,0.685-1.174,0.758
				c-0.353,0.057-0.665,0.015-0.938-0.132c-0.271-0.144-0.541-0.436-0.804-0.866c-0.41,0.579-0.783,0.985-1.129,1.217
				c-0.342,0.229-0.778,0.39-1.302,0.484c-0.747,0.132-1.341,0.083-1.792-0.153c-0.45-0.235-0.721-0.593-0.815-1.072
				c-0.141-0.725,0.19-1.408,1.004-2.053c0.813-0.643,1.961-1.176,3.442-1.587c-0.06-0.354-0.119-0.706-0.181-1.061
				c-0.063-0.377-0.28-0.675-0.653-0.888c-0.372-0.214-0.811-0.278-1.312-0.191c-0.467,0.08-0.85,0.242-1.154,0.481
				c-0.214,0.176-0.312,0.328-0.287,0.458c0.014,0.075,0.1,0.18,0.256,0.315c0.188,0.171,0.3,0.336,0.329,0.488
				c0.042,0.223-0.006,0.421-0.131,0.588c-0.126,0.17-0.315,0.275-0.562,0.321c-0.265,0.049-0.502,0.003-0.712-0.132
				c-0.209-0.136-0.34-0.336-0.39-0.597c-0.093-0.492,0.117-0.998,0.637-1.512c0.522-0.514,1.267-0.859,2.237-1.025
				c0.895-0.153,1.608-0.087,2.14,0.193c0.533,0.285,0.84,0.691,0.923,1.208c0.21,1.273,0.423,2.551,0.634,3.824
				c0.057,0.339,0.155,0.58,0.296,0.72c0.143,0.146,0.305,0.203,0.486,0.176C69.766,113.441,69.966,113.327,70.164,113.133z
				 M67.091,110.597c-1.311,0.397-2.21,0.849-2.694,1.341c-0.36,0.374-0.486,0.83-0.385,1.378c0.072,0.38,0.234,0.662,0.487,0.839
				c0.255,0.177,0.553,0.235,0.896,0.175c0.614-0.108,1.105-0.42,1.479-0.942c0.372-0.521,0.503-1.117,0.389-1.789
				C67.206,111.264,67.147,110.931,67.091,110.597z"/>
			<path fill="#FFFFFF" d="M70.244,106.732c0.897-0.179,1.794-0.352,2.693-0.521c0.135,0.946,0.269,1.894,0.405,2.841
				c0.152-0.975,0.4-1.73,0.74-2.264c0.339-0.536,0.813-0.843,1.414-0.92c0.407-0.055,0.752,0.023,1.022,0.225
				c0.275,0.202,0.436,0.498,0.484,0.89c0.04,0.314-0.011,0.57-0.15,0.767c-0.142,0.196-0.333,0.309-0.577,0.339
				c-0.239,0.031-0.441-0.019-0.608-0.15c-0.165-0.132-0.267-0.324-0.301-0.58c-0.021-0.164,0.002-0.325,0.066-0.481
				c0.064-0.14,0.095-0.225,0.091-0.247c-0.01-0.075-0.064-0.108-0.168-0.095c-0.221,0.029-0.453,0.182-0.698,0.459
				c-0.338,0.385-0.573,0.887-0.697,1.499c-0.191,0.955-0.246,1.701-0.168,2.247c0.072,0.502,0.145,1.004,0.216,1.506
				c0.024,0.169,0.104,0.292,0.244,0.364c0.139,0.072,0.359,0.089,0.661,0.048c0.311-0.043,0.621-0.084,0.932-0.124
				c0.025,0.188,0.051,0.375,0.077,0.562c-1.516,0.198-3.029,0.411-4.542,0.64c-0.03-0.187-0.059-0.373-0.088-0.561
				c0.24-0.037,0.485-0.072,0.726-0.108c0.246-0.036,0.424-0.11,0.535-0.221c0.112-0.11,0.156-0.229,0.138-0.36
				c-0.222-1.49-0.443-2.98-0.663-4.471c-0.051-0.34-0.165-0.578-0.343-0.711c-0.178-0.137-0.41-0.183-0.701-0.14
				c-0.219,0.032-0.439,0.065-0.658,0.099C70.3,107.088,70.271,106.909,70.244,106.732z"/>
			<path fill="#FFFFFF" d="M77.054,101.67c0.972-0.161,1.944-0.314,2.919-0.464c0.28,2.565,0.562,5.132,0.849,7.697
				c0.731-0.752,1.471-1.503,2.217-2.249c0.216-0.221,0.315-0.403,0.302-0.547c-0.014-0.124-0.093-0.215-0.237-0.271
				c-0.221-0.081-0.564-0.1-1.035-0.062c-0.018-0.176-0.036-0.353-0.055-0.527c1.342-0.137,2.68-0.264,4.021-0.378
				c0.016,0.176,0.031,0.353,0.046,0.528c-0.789,0.107-1.379,0.359-1.762,0.75c-0.529,0.531-1.057,1.066-1.58,1.602
				c1.051,1.114,2.09,2.233,3.115,3.359c0.188,0.2,0.486,0.284,0.899,0.249c0.136-0.013,0.271-0.023,0.408-0.035
				c0.017,0.188,0.033,0.378,0.049,0.565c-1.335,0.112-2.67,0.234-4.005,0.367c-0.021-0.188-0.039-0.375-0.059-0.564
				c0.133-0.014,0.267-0.026,0.399-0.039c0.298-0.03,0.495-0.074,0.592-0.135c0.1-0.06,0.144-0.124,0.136-0.195
				c-0.007-0.07-0.04-0.137-0.099-0.203c-0.756-0.832-1.52-1.662-2.291-2.488c-0.328,0.339-0.654,0.678-0.979,1.02
				c0.066,0.593,0.133,1.188,0.199,1.782c0.018,0.145,0.077,0.247,0.186,0.308c0.151,0.079,0.351,0.105,0.603,0.08
				c0.17-0.019,0.34-0.035,0.51-0.053c0.02,0.188,0.041,0.376,0.061,0.564c-1.312,0.136-2.621,0.283-3.932,0.438
				c-0.023-0.188-0.047-0.376-0.069-0.562c0.211-0.025,0.423-0.05,0.634-0.075c0.262-0.029,0.448-0.106,0.562-0.227
				c0.112-0.117,0.159-0.267,0.138-0.441c-0.342-2.896-0.678-5.795-1.013-8.692c-0.026-0.226-0.127-0.381-0.294-0.469
				c-0.245-0.126-0.563-0.163-0.949-0.118c-0.139,0.018-0.278,0.032-0.417,0.051C77.1,102.046,77.077,101.858,77.054,101.67z"/>
			<path fill="#FFFFFF" d="M92.628,105.037c0.762,1.068,1.337,1.85,1.728,2.338c0.393,0.489,0.818,0.966,1.274,1.436
				c0.778-1.016,1.161-1.829,1.136-2.445c-0.012-0.276-0.127-0.491-0.341-0.645c-0.216-0.15-0.533-0.217-0.95-0.198
				c-0.142,0.006-0.283,0.014-0.426,0.021c-0.009-0.175-0.018-0.348-0.025-0.521c1.49-0.072,2.98-0.133,4.471-0.18
				c0.006,0.174,0.012,0.347,0.018,0.522c-0.112,0.003-0.224,0.008-0.337,0.011c-0.289,0.01-0.525,0.057-0.71,0.145
				c-0.184,0.087-0.352,0.219-0.504,0.394c-0.151,0.175-0.329,0.494-0.535,0.956c-0.416,0.932-0.867,1.717-1.351,2.36
				c0.755,0.671,1.395,1.001,1.929,0.98c0.328-0.011,0.592-0.146,0.801-0.4c0.209-0.255,0.339-0.686,0.394-1.293
				c0.166-0.005,0.333-0.012,0.499-0.017c0.03,0.942-0.16,1.666-0.564,2.169c-0.404,0.501-0.927,0.768-1.567,0.792
				c-0.358,0.017-0.73-0.059-1.111-0.218c-0.38-0.162-0.847-0.459-1.399-0.896c-0.586,0.494-1.107,0.845-1.572,1.048
				c-0.464,0.202-0.967,0.323-1.509,0.355c-0.984,0.062-1.82-0.187-2.514-0.746c-0.691-0.56-1.078-1.285-1.149-2.175
				c-0.055-0.686,0.105-1.315,0.48-1.896c0.377-0.579,1.088-1.18,2.148-1.79c-0.576-0.947-0.891-1.748-0.937-2.403
				c-0.05-0.709,0.186-1.331,0.713-1.868c0.526-0.533,1.201-0.828,2.016-0.874c0.778-0.044,1.401,0.107,1.868,0.453
				c0.467,0.347,0.714,0.822,0.741,1.434c0.028,0.579-0.159,1.12-0.561,1.623C94.383,104.008,93.661,104.518,92.628,105.037z
				 M91.259,105.713c-1.09,0.663-1.599,1.412-1.538,2.236c0.046,0.635,0.357,1.282,0.923,1.942c0.566,0.662,1.232,0.968,2.002,0.922
				c0.654-0.039,1.305-0.333,1.962-0.875c-0.541-0.558-1.034-1.11-1.475-1.659C92.693,107.732,92.07,106.876,91.259,105.713z
				 M92.286,104.474c0.755-0.364,1.269-0.731,1.542-1.108c0.272-0.375,0.396-0.816,0.369-1.318
				c-0.024-0.476-0.178-0.844-0.463-1.104c-0.285-0.264-0.638-0.381-1.059-0.358c-0.417,0.024-0.75,0.177-1.008,0.458
				c-0.255,0.281-0.37,0.639-0.341,1.079C91.368,102.761,91.689,103.543,92.286,104.474z"/>
			<path fill="#FFFFFF" d="M100.697,99.947c2.091-0.054,4.181-0.079,6.269-0.081c1.215,0.001,2.157,0.263,2.819,0.777
				c0.664,0.518,0.982,1.192,0.972,2.019c-0.008,0.495-0.146,0.933-0.411,1.316c-0.266,0.381-0.646,0.688-1.139,0.91
				c-0.491,0.226-1.262,0.385-2.31,0.487c0.761,0.195,1.288,0.392,1.572,0.582c0.287,0.189,0.515,0.437,0.686,0.739
				c0.17,0.3,0.364,0.915,0.576,1.841c0.151,0.664,0.317,1.115,0.492,1.36c0.134,0.188,0.279,0.285,0.437,0.287
				c0.164,0.002,0.312-0.109,0.458-0.338c0.144-0.229,0.235-0.631,0.277-1.211c0.18,0.003,0.358,0.008,0.538,0.011
				c-0.135,1.714-0.81,2.556-2.018,2.542c-0.381-0.004-0.709-0.103-0.987-0.289c-0.28-0.191-0.487-0.465-0.627-0.829
				c-0.11-0.272-0.229-0.987-0.362-2.144c-0.078-0.671-0.201-1.149-0.375-1.432c-0.17-0.283-0.444-0.511-0.811-0.682
				c-0.369-0.171-0.812-0.257-1.324-0.252c-0.323,0.003-0.646,0.006-0.97,0.009c0.016,1.465,0.031,2.931,0.048,4.396
				c0.001,0.187,0.053,0.317,0.154,0.393c0.127,0.094,0.322,0.14,0.591,0.138c0.37-0.003,0.743-0.004,1.114-0.005
				c0,0.189,0,0.379,0.002,0.566c-1.795,0.005-3.588,0.03-5.382,0.078c-0.004-0.189-0.01-0.38-0.015-0.567
				c0.379-0.01,0.758-0.018,1.14-0.026c0.25-0.005,0.434-0.058,0.55-0.155s0.174-0.229,0.17-0.396
				c-0.054-2.982-0.107-5.963-0.161-8.944c-0.005-0.192-0.068-0.335-0.196-0.429c-0.129-0.094-0.319-0.136-0.575-0.132
				c-0.396,0.009-0.792,0.017-1.188,0.027C100.709,100.326,100.702,100.136,100.697,99.947z M104.454,105.026
				c0.469-0.005,0.936-0.008,1.405-0.011c0.942-0.005,1.681-0.17,2.217-0.505c0.536-0.332,0.81-0.926,0.814-1.782
				c0.003-0.59-0.093-1.056-0.297-1.399c-0.201-0.345-0.469-0.579-0.8-0.706c-0.331-0.126-0.987-0.192-1.965-0.187
				c-0.645,0.003-1.043,0.049-1.194,0.134c-0.151,0.086-0.227,0.229-0.225,0.43C104.425,102.34,104.439,103.685,104.454,105.026z"/>
			<path fill="#FFFFFF" d="M112.715,104.031c1.002-0.005,2.008-0.004,3.012,0.004c-0.072,2.033-0.146,4.063-0.218,6.098
				c-0.007,0.166,0.032,0.285,0.112,0.359c0.117,0.104,0.268,0.161,0.451,0.167c0.277,0.011,0.555,0.022,0.833,0.033
				c-0.009,0.189-0.015,0.376-0.025,0.566c-1.39-0.058-2.781-0.101-4.174-0.134c0.004-0.189,0.008-0.377,0.014-0.567
				c0.259,0.006,0.52,0.013,0.777,0.02c0.23,0.006,0.398-0.045,0.511-0.149c0.111-0.105,0.17-0.26,0.177-0.467
				c0.044-1.488,0.09-2.976,0.134-4.464c0.01-0.282-0.071-0.5-0.238-0.647c-0.168-0.148-0.42-0.227-0.76-0.235
				c-0.205-0.004-0.412-0.011-0.618-0.015C112.706,104.41,112.71,104.221,112.715,104.031z M114.946,99.859
				c0.245,0.008,0.457,0.101,0.64,0.279c0.18,0.177,0.266,0.384,0.257,0.614c-0.009,0.227-0.105,0.421-0.289,0.581
				c-0.186,0.16-0.402,0.234-0.654,0.229c-0.25-0.008-0.461-0.1-0.64-0.273c-0.178-0.174-0.262-0.374-0.257-0.602
				c0.007-0.227,0.104-0.425,0.295-0.59S114.704,99.853,114.946,99.859z"/>
			<path fill="#FFFFFF" d="M122.604,100.347c1.003,0.019,2.006,0.044,3.012,0.074c-0.238,3.226-0.482,6.45-0.728,9.677
				c-0.027,0.377,0.024,0.65,0.162,0.824c0.136,0.173,0.354,0.271,0.651,0.292c0.168,0.014,0.34,0.026,0.51,0.04
				c-0.014,0.188-0.03,0.378-0.047,0.565c-0.834-0.065-1.669-0.128-2.504-0.187c-0.027-0.484-0.059-0.97-0.086-1.455
				c-0.335,0.493-0.711,0.854-1.128,1.09c-0.417,0.232-0.872,0.335-1.368,0.306c-0.835-0.048-1.523-0.425-2.08-1.128
				c-0.555-0.703-0.81-1.609-0.758-2.718c0.057-1.2,0.483-2.141,1.293-2.816c0.634-0.529,1.351-0.772,2.142-0.725
				c0.485,0.028,0.911,0.169,1.282,0.42c0.37,0.25,0.682,0.617,0.932,1.094c0.092-1.329,0.185-2.662,0.276-3.993
				c0.015-0.212-0.062-0.385-0.231-0.521c-0.169-0.136-0.441-0.216-0.816-0.24c-0.183-0.011-0.366-0.023-0.55-0.034
				C122.581,100.724,122.59,100.535,122.604,100.347z M121.854,104.826c-0.581-0.037-1.053,0.165-1.418,0.595
				c-0.364,0.429-0.575,1.176-0.631,2.239c-0.062,1.154,0.067,1.976,0.382,2.466c0.313,0.488,0.736,0.748,1.271,0.78
				c0.569,0.032,1.075-0.198,1.517-0.697c0.442-0.496,0.703-1.254,0.773-2.265c0.065-0.955-0.102-1.725-0.509-2.303
				C122.886,105.133,122.426,104.859,121.854,104.826z"/>
			<path fill="#FFFFFF" d="M134.223,109.081c-1.774-0.198-3.551-0.378-5.325-0.538c-0.074,1.078,0.067,1.854,0.418,2.333
				c0.403,0.539,0.949,0.842,1.644,0.911c1.025,0.101,1.906-0.369,2.66-1.417c0.162,0.088,0.325,0.178,0.488,0.267
				c-0.935,1.338-2.108,1.931-3.545,1.788c-0.98-0.096-1.769-0.513-2.38-1.255c-0.611-0.746-0.874-1.647-0.782-2.712
				c0.1-1.147,0.514-2.046,1.255-2.691c0.739-0.647,1.61-0.923,2.606-0.825c0.73,0.07,1.346,0.312,1.838,0.72
				c0.494,0.407,0.835,0.956,1.027,1.643C134.263,107.785,134.293,108.379,134.223,109.081z M128.946,108.008
				c1.078,0.097,2.153,0.201,3.23,0.312c0.191,0.021,0.345-0.025,0.466-0.138c0.118-0.112,0.196-0.315,0.227-0.611
				c0.061-0.553-0.071-1.038-0.396-1.465c-0.327-0.423-0.741-0.66-1.24-0.711c-0.557-0.057-1.057,0.134-1.487,0.565
				C129.313,106.392,129.049,107.074,128.946,108.008z"/>
			<path fill="#FFFFFF" d="M143.856,102.441c-0.507,3.389-1.018,6.776-1.536,10.164c-0.021,0.14,0.007,0.254,0.083,0.342
				c0.114,0.119,0.267,0.193,0.454,0.222c0.26,0.038,0.516,0.078,0.774,0.118c-0.03,0.188-0.059,0.374-0.09,0.561
				c-1.381-0.213-2.761-0.414-4.144-0.601c0.024-0.188,0.053-0.375,0.079-0.562c0.247,0.033,0.49,0.066,0.736,0.101
				c0.24,0.033,0.425,0.004,0.561-0.09c0.134-0.092,0.214-0.241,0.243-0.438c0.419-2.849,0.832-5.692,1.244-8.541
				c0.033-0.251-0.013-0.442-0.142-0.579c-0.178-0.188-0.415-0.303-0.71-0.343c-0.228-0.033-0.455-0.063-0.685-0.094
				c0.026-0.188,0.052-0.375,0.077-0.562C141.82,102.232,142.838,102.335,143.856,102.441z"/>
			<path fill="#FFFFFF" d="M151.949,111.73c-1.77-0.331-3.537-0.643-5.308-0.933c-0.154,1.069-0.072,1.856,0.242,2.358
				c0.365,0.569,0.89,0.909,1.583,1.031c1.018,0.177,1.94-0.225,2.777-1.217c0.158,0.1,0.313,0.202,0.471,0.303
				c-1.038,1.265-2.264,1.767-3.695,1.52c-0.978-0.168-1.738-0.643-2.293-1.429c-0.556-0.787-0.754-1.706-0.581-2.762
				c0.186-1.137,0.669-2.002,1.461-2.592c0.793-0.591,1.688-0.801,2.68-0.63c0.727,0.124,1.327,0.411,1.792,0.854
				c0.467,0.443,0.768,1.014,0.909,1.715C152.086,110.44,152.071,111.035,151.949,111.73z M146.731,110.268
				c1.074,0.176,2.147,0.36,3.22,0.551c0.19,0.033,0.35-0.001,0.478-0.104c0.129-0.102,0.219-0.3,0.274-0.593
				c0.101-0.546,0.007-1.041-0.289-1.49c-0.297-0.449-0.693-0.716-1.191-0.801c-0.555-0.097-1.068,0.055-1.535,0.453
				C147.221,108.685,146.903,109.344,146.731,110.268z"/>
			<path fill="#FFFFFF" d="M160.283,116.227c0.062,0.157,0.123,0.316,0.184,0.476c-0.469,0.282-0.928,0.374-1.389,0.271
				c-0.353-0.078-0.628-0.235-0.826-0.469c-0.198-0.235-0.34-0.599-0.418-1.099c-0.604,0.387-1.11,0.625-1.519,0.713
				c-0.411,0.087-0.875,0.076-1.399-0.029c-0.745-0.151-1.28-0.416-1.606-0.799c-0.33-0.382-0.442-0.814-0.347-1.294
				c0.146-0.724,0.715-1.237,1.715-1.536c0.999-0.297,2.272-0.373,3.811-0.207c0.078-0.35,0.157-0.7,0.234-1.051
				c0.084-0.374-0.012-0.729-0.274-1.064c-0.267-0.334-0.652-0.557-1.153-0.66c-0.466-0.096-0.883-0.088-1.257,0.021
				c-0.267,0.086-0.415,0.193-0.441,0.32c-0.015,0.074,0.026,0.203,0.119,0.388c0.114,0.229,0.153,0.42,0.122,0.573
				c-0.046,0.222-0.16,0.389-0.344,0.498c-0.182,0.112-0.398,0.141-0.646,0.091c-0.266-0.052-0.468-0.18-0.612-0.382
				c-0.143-0.203-0.188-0.436-0.135-0.697c0.097-0.492,0.482-0.882,1.161-1.17c0.679-0.289,1.504-0.333,2.472-0.132
				c0.893,0.187,1.536,0.511,1.926,0.968c0.389,0.46,0.523,0.949,0.405,1.461c-0.286,1.26-0.573,2.521-0.864,3.782
				c-0.077,0.334-0.076,0.594,0.001,0.776c0.077,0.188,0.206,0.3,0.388,0.342C159.791,116.363,160.023,116.332,160.283,116.227z
				 M158.381,112.741c-1.377-0.114-2.384-0.023-3.022,0.254c-0.478,0.213-0.771,0.592-0.884,1.137
				c-0.078,0.38-0.035,0.699,0.134,0.957c0.168,0.258,0.426,0.42,0.766,0.491c0.614,0.126,1.19,0.016,1.739-0.33
				c0.548-0.346,0.898-0.852,1.047-1.518C158.233,113.401,158.307,113.072,158.381,112.741z"/>
			<path fill="#FFFFFF" d="M162.591,110.269c1.229,0.282,2.458,0.572,3.687,0.874c-0.043,0.166-0.084,0.333-0.127,0.499
				c-0.492-0.107-0.814-0.146-0.968-0.105c-0.153,0.038-0.245,0.122-0.278,0.256c-0.027,0.105-0.027,0.223-0.001,0.344
				c0.319,1.513,0.626,3.025,0.919,4.54c0.931-1.165,1.869-2.326,2.817-3.48c0.046-0.062,0.077-0.125,0.096-0.195
				c0.095-0.354-0.228-0.676-0.966-0.955c0.043-0.167,0.087-0.333,0.131-0.5c1.033,0.262,2.062,0.526,3.096,0.802
				c-0.047,0.165-0.091,0.331-0.137,0.497c-0.321-0.054-0.592-0.041-0.812,0.036c-0.22,0.079-0.41,0.211-0.567,0.4
				c-1.435,1.704-2.849,3.416-4.244,5.14c-0.14-0.034-0.278-0.069-0.418-0.103c-0.433-2.235-0.895-4.469-1.387-6.703
				c-0.053-0.239-0.147-0.423-0.277-0.543c-0.13-0.121-0.357-0.224-0.682-0.301C162.512,110.604,162.551,110.436,162.591,110.269z"
				/>
			<path fill="#FFFFFF" d="M177.627,117.963c-1.751-0.524-3.505-1.028-5.261-1.513c-0.274,1.045-0.279,1.835-0.017,2.371
				c0.302,0.607,0.797,1.003,1.481,1.2c1.011,0.289,1.987-0.011,2.944-0.903c0.146,0.118,0.295,0.236,0.441,0.354
				c-1.191,1.143-2.488,1.508-3.905,1.103c-0.967-0.275-1.682-0.831-2.156-1.674c-0.475-0.844-0.566-1.78-0.277-2.812
				c0.313-1.108,0.898-1.918,1.763-2.416c0.864-0.501,1.794-0.61,2.776-0.332c0.722,0.207,1.296,0.555,1.718,1.049
				c0.423,0.492,0.662,1.094,0.729,1.806C177.909,116.696,177.828,117.285,177.627,117.963z M172.517,115.932
				c1.064,0.294,2.128,0.595,3.191,0.903c0.188,0.056,0.353,0.04,0.495-0.05c0.14-0.087,0.255-0.275,0.343-0.56
				c0.163-0.531,0.12-1.036-0.127-1.514c-0.251-0.479-0.621-0.788-1.116-0.93c-0.551-0.155-1.085-0.062-1.601,0.283
				C173.187,114.409,172.793,115.032,172.517,115.932z"/>
			<path fill="#FFFFFF" d="M179.389,119.363c0.048,0.934,0.227,1.622,0.534,2.071c0.309,0.451,0.763,0.771,1.37,0.966
				c0.56,0.179,1.027,0.206,1.407,0.077c0.382-0.13,0.633-0.368,0.754-0.717c0.07-0.2,0.076-0.395,0.018-0.582
				c-0.058-0.187-0.173-0.35-0.346-0.488c-0.169-0.139-0.644-0.416-1.423-0.822c-0.74-0.397-1.246-0.721-1.506-0.977
				c-0.261-0.256-0.431-0.553-0.518-0.884c-0.088-0.333-0.075-0.663,0.031-0.991c0.158-0.497,0.485-0.891,0.982-1.183
				c0.639-0.369,1.384-0.422,2.232-0.15c0.647,0.205,1.184,0.584,1.606,1.132c0.232-0.111,0.464-0.222,0.696-0.332
				c0.108,0.036,0.218,0.072,0.327,0.107c-0.208,0.823-0.421,1.642-0.631,2.464c-0.176-0.059-0.351-0.116-0.526-0.173
				c0.005-0.756-0.14-1.348-0.433-1.775s-0.729-0.738-1.314-0.922c-0.502-0.16-0.934-0.171-1.293-0.036
				c-0.358,0.135-0.591,0.361-0.694,0.686c-0.094,0.283-0.04,0.56,0.162,0.83c0.19,0.273,0.648,0.583,1.358,0.931
				c0.822,0.411,1.347,0.71,1.577,0.888c0.377,0.282,0.632,0.612,0.761,0.989c0.129,0.376,0.115,0.778-0.036,1.208
				c-0.209,0.592-0.64,1.009-1.285,1.254c-0.647,0.247-1.349,0.244-2.12-0.003c-0.713-0.229-1.299-0.659-1.765-1.292
				c-0.255,0.144-0.51,0.286-0.765,0.432c-0.136-0.042-0.272-0.085-0.407-0.126c0.243-0.913,0.483-1.827,0.721-2.741
				C179.039,119.256,179.215,119.311,179.389,119.363z"/>
		</g>
	</g>
</g>
</svg>
