<?xml version="1.0" encoding="utf-8"?>
<!-- Generator: Adobe Illustrator 16.0.0, SVG Export Plug-In . SVG Version: 6.00 Build 0)  -->
<!DOCTYPE svg PUBLIC "-//W3C//DTD SVG 1.1//EN" "http://www.w3.org/Graphics/SVG/1.1/DTD/svg11.dtd">
<svg version="1.1" id="Livello_1" xmlns="http://www.w3.org/2000/svg" xmlns:xlink="http://www.w3.org/1999/xlink" x="0px" y="0px"
	 width="210px" height="200px" viewBox="0 0 210 200" enable-background="new 0 0 210 200" xml:space="preserve">
<g>
	<g>
		<circle fill="#0572B7" cx="105" cy="100" r="84"/>
		<circle fill="#0572B7" stroke="#FFFFFF" stroke-width="5" stroke-miterlimit="10" cx="105" cy="100" r="75.216"/>
		<path fill="none" d="M41.531,83.146h31.434v31.435H41.531V83.146z"/>
		<rect x="130.005" y="121.35" fill="none" width="24.543" height="24.956"/>
		<g>
			<g>
				<path fill="#55ABE0" stroke="#FFFFFF" stroke-miterlimit="10" d="M65.938,127.085l-8.353,1.761
					c4.722,8.347,11.686,15.49,20.472,20.428l1.18-8.916C73.711,136.958,69.212,132.376,65.938,127.085z"/>
				<path fill="#55ABE0" stroke="#FFFFFF" stroke-miterlimit="10" d="M79.714,64.14l-1.762-8.906
					c-8.346,4.721-15.488,11.686-20.427,20.473l8.917,1.732C69.841,71.911,74.423,67.413,79.714,64.14z"/>
				<path fill="#55ABE0" stroke="#FFFFFF" stroke-miterlimit="10" d="M143.212,76.808l8.354-1.207
					c-4.721-8.348-11.685-15.49-20.472-20.428l-1.18,8.363C135.441,66.934,139.94,71.517,143.212,76.808z"/>
				<path fill="#55ABE0" stroke="#FFFFFF" stroke-miterlimit="10" d="M95.226,147.021l-5.052,7.256
					c9.712,2.699,19.685,2.551,28.919-0.033l-5.078-7.247C107.962,148.437,101.541,148.511,95.226,147.021z"/>
				<path fill="#55ABE0" stroke="#FFFFFF" stroke-miterlimit="10" d="M156.595,87.705l-6.955,3.909
					c1.44,6.052,1.514,12.474,0.022,18.789l6.966,6.223C159.328,106.914,159.18,96.938,156.595,87.705z"/>
			</g>
			<path fill="#55ABE0" stroke="#FFFFFF" stroke-width="2" stroke-miterlimit="10" d="M112.116,73.646H88.041v58.177h13.757v-19.393
				h10.318c11.4,0,20.635-8.678,20.635-19.393S123.517,73.646,112.116,73.646z M112.804,99.502h-11.006V86.574h11.006
				c3.799,0,6.879,2.893,6.879,6.464C119.683,96.61,116.603,99.502,112.804,99.502z"/>
			<g>
				<g>
					<path fill="#FFFFFF" d="M62.595,90.234c1.289,0.03,2.367-0.993,2.396-2.288c0.029-1.297-0.999-2.368-2.288-2.398
						c-1.295-0.029-2.367,0.992-2.397,2.289C60.276,89.132,61.3,90.204,62.595,90.234z"/>
				</g>
				<g>
					<path fill="#FFFFFF" d="M62.935,99.487h6.355v-2.343h-4.722l-2.604-4.337c-0.384-0.65-1.093-1.08-1.901-1.08
						c-0.221,0-0.436,0.032-0.638,0.09l-7.064,2.201l-0.955,6.771h2.344l0.955-4.771l2.742-0.854l-5.086,19.948h2.344l3.737-10.56
						l3.034,4.05v6.51h2.343v-8.34l-3.242-5.912l0.958-3.735L62.935,99.487z"/>
				</g>
			</g>
			<path fill="#FFFFFF" d="M124.233,56.017c-0.981-3.08-3.608-5.095-6.572-5.062l-2.148,0.078l-0.68-1.706
				c-1.321-3.311-2.004-4.934-2.213-5.249c-0.208-0.315-0.232-0.319-2.189-0.319c-1.733,0-2.007,0.03-2.155,0.231
				c-0.242,0.317-0.229,0.513,0.074,0.816c0.233,0.232,0.439,0.262,1.756,0.262c1.04,0,1.531,0.05,1.616,0.164
				c0.147,0.195,0.694,1.531,0.694,1.691c0,0.062-2.742,0.11-6.093,0.11h-6.096l-0.259-0.514c-0.146-0.287-0.267-0.546-0.267-0.577
				c0-0.035,0.624-0.131,1.388-0.224c1.555-0.184,2.125-0.458,1.751-0.839c-0.167-0.173-0.635-0.213-2.714-0.238
				c-1.71-0.02-2.562,0.016-2.659,0.116c-0.079,0.079-0.126,0.374-0.103,0.654c0.037,0.45,0.074,0.706,0.49,0.657l0.63-0.081
				l0.819,1.544l-2.559,3.923c-1.824-0.547-3.48-0.671-5.354-0.067c-0.901,0.379-2.179,1.286-2.763,1.971
				c-0.765,0.893-1.365,2.244-1.545,3.479c-0.02,0.137-0.033,0.275-0.043,0.41v0.938c0.193,2.657,2.037,5.144,4.615,5.999
				c1.196,0.401,1.225,0.405,2.476,0.362c0.935-0.032,1.389-0.124,2.2-0.438c1.18-0.459,1.73-0.915,2.962-2.258
				c1.247-1.367,1.377-2.924,1.426-3.339c0.103-0.036,1.123-0.071,2.27-0.071h2.088l0.019,1.05c0.012,0.577-0.029,1.312-0.023,1.439
				c0.01,0.18-0.056,0.076-0.496,0.107c-0.499,0.033-0.562,0.075-0.524,0.327c0.031,0.23,0.142,0.3,0.552,0.331
				c0.28,0.025,0.959-0.083,1.129-0.126l0.035-3.168l0.883-1.1c0.502-0.635,0.959-1.213,1.013-1.283
				c0.057-0.074,0.313-0.398,0.57-0.724c0.255-0.324,1.456-1.843,2.667-3.376c1.211-1.531,2.24-2.787,2.294-2.787
				c0.056,0,0.161,0.135,0.237,0.3c0.47,0.984,0.721,1.642,0.78,2.023c0.063,0.374,0.028,0.444-0.274,0.56
				c-0.519,0.198-1.938,1.702-2.356,2.505c-0.523,1-0.87,2.277-0.87,3.229c0,1.405,0.946,3.726,1.914,4.689
				c2.631,2.631,6.422,2.869,9.286,0.588c1-0.89,1.848-2.055,2.255-3.34C124.445,58.747,124.483,56.794,124.233,56.017z
				 M97.294,53.462c0.921,0.834,1.812,1.658,1.978,3.495l-4.212,0.061L97.294,53.462z M93.595,62.978
				c-2.516-0.084-5.165-2.008-5.138-5.539c0.022-3.49,3.771-5.908,7.668-4.562c-1.025,1.809-3.382,4.9-3.097,5.291
				c0.295,0.407,0.853,0.271,3.5,0.271h2.815C99.057,62.346,95.127,63.026,93.595,62.978z M100.687,56.937
				c-0.381-1.876-1.46-3.381-2.753-4.767l1.842-3.038c0.077,0,0.425,0.516,0.776,1.144c0.353,0.633,1.337,2.385,2.191,3.893
				c0.854,1.506,1.538,2.808,1.477,2.808L100.687,56.937z M108.823,52.424c-0.095,0.111-0.471,0.626-0.87,1.112l-2.219,2.702
				l-0.002-1.694c0.339-0.01,1.027-0.005,1.004-0.437c-0.019-0.435-0.972-0.315-1.633-0.286l0.066,2.474l-4.057-7.95h5.324
				c4.473,0,5.324,0.031,5.324,0.186C111.762,48.672,110.264,50.655,108.823,52.424z M121.434,61.693
				c-1.398,1.352-3.437,1.899-5.23,1.407c-2.697-0.744-4.485-3.369-4.074-5.986c0.229-1.458,0.624-2.285,1.532-3.21
				c1.056-1.08,1.248-1.085,1.639-0.055c0.094,0.252,0.299,0.759,0.455,1.117c0.156,0.361,0.516,1.229,0.8,1.93
				c0.579,1.435,0.91,1.769,1.368,1.353c0.375-0.524,0.045-1.295-0.368-2.189c-0.222-0.404-1.338-3.413-1.338-3.609
				c0.313-0.312,1.038-0.16,1.476-0.146c1.255,0.056,1.587,0.12,2.243,0.425c0.972,0.454,2.231,1.715,2.687,2.693
				c0.301,0.648,0.542,0.9,0.559,2.39C123.36,59.321,122.414,60.616,121.434,61.693z"/>
			<path fill="#FFFFFF" d="M147.798,124.458c-0.936-1.6-2.049-1.948-3.838-2.408c-1.787-0.46-3.591-0.529-5.157-0.529
				s-3.369,0.069-5.157,0.529c-1.787,0.46-2.915,0.809-3.851,2.408c-0.937,1.6-1.637,9.74-1.637,10.16c0,0.422,0,9.192,0,9.192
				h1.116c0,0.559,0,2.46,0,2.48c0,0.787,1.166,1.427,1.953,1.427c0.788,0,1.954-0.64,1.954-1.427c0-0.021,0-1.922,0-2.48h11.432
				c0,0.559-0.002,2.207,0,2.228c0.181,1.427,1.518,1.553,2.305,1.553s1.334-0.513,1.334-1.3c0-0.021,0-1.922,0-2.48h1.176
				c0,0,0.002-8.313,0.002-8.773C149.43,134.578,148.734,126.058,147.798,124.458z M134.856,122.601h8.371v2.233h-8.371V122.601z
				 M132.159,142.202c-1.4,0-2.535-1.134-2.535-2.532s1.135-2.532,2.535-2.532c1.398,0,2.533,1.134,2.533,2.532
				S133.558,142.202,132.159,142.202z M129.825,134.322c0,0,0.587-6.768,1.216-7.396c0.627-0.628,14.896-0.554,15.522,0.075
				c0.63,0.627,1.214,7.321,1.214,7.321H129.825z M145.159,142.202c-1.398,0-2.535-1.134-2.535-2.532s1.137-2.532,2.535-2.532
				c1.396,0,2.533,1.134,2.533,2.532S146.556,142.202,145.159,142.202z"/>
		</g>
	</g>
	<g>
		<g>
			<path fill="#328ACA" stroke="#FFFFFF" stroke-width="2" stroke-miterlimit="10" d="M196.483,137.891
				c-2.533-5.82-5.349-11.609-8.445-17.347c6.004-2.538,12.219-4.851,18.63-6.915C142.695,86.773,70.55,86.942,6.681,114.138
				c0.04,0.095,0.08,0.188,0.12,0.282c6.617,2.096,13.025,4.457,19.212,7.058c-2.9,5.432-5.547,10.909-7.942,16.415
				C75.126,113.939,139.427,113.938,196.483,137.891L196.483,137.891L196.483,137.891z"/>
		</g>
	</g>
	<g>
		<g>
			<path fill="#FFFFFF" d="M29.065,113.844c1.454-0.167,2.607-0.381,3.465-0.65c0.401-0.126,0.768-0.279,1.1-0.46
				c0.332-0.179,0.572-0.341,0.723-0.486c0.078-0.07,0.127-0.111,0.156-0.119c0.053-0.018,0.094,0.012,0.115,0.084
				c0.054,0.168,0.002,0.429-0.15,0.779c-0.154,0.352-0.412,0.672-0.771,0.964c-0.361,0.292-0.811,0.522-1.35,0.693
				c-0.626,0.199-1.397,0.351-2.319,0.46c0.226,0.943,0.454,1.886,0.685,2.827c0.338-0.313,0.675-0.573,1.006-0.782
				c0.334-0.208,0.666-0.364,0.992-0.47c1.035-0.33,2.01-0.288,2.914,0.124c0.903,0.409,1.5,1.079,1.792,2
				c0.325,1.022,0.224,1.974-0.291,2.858s-1.351,1.506-2.505,1.878c-0.887,0.283-1.688,0.283-2.41-0.003
				c-0.723-0.287-1.204-0.751-1.434-1.401c-0.139-0.391-0.156-0.724-0.053-0.996s0.296-0.454,0.578-0.547
				c0.275-0.091,0.529-0.08,0.764,0.033c0.233,0.112,0.396,0.305,0.49,0.578c0.071,0.207,0.083,0.38,0.038,0.522
				c-0.046,0.145-0.169,0.289-0.369,0.44c-0.199,0.157-0.281,0.286-0.243,0.393c0.055,0.152,0.19,0.297,0.41,0.43
				c0.219,0.134,0.504,0.206,0.854,0.223c0.351,0.02,0.729-0.041,1.128-0.168c0.787-0.252,1.307-0.668,1.57-1.255
				c0.263-0.586,0.229-1.395-0.108-2.423c-0.307-0.94-0.753-1.556-1.34-1.85c-0.589-0.293-1.231-0.328-1.93-0.105
				c-0.314,0.101-0.617,0.256-0.894,0.463c-0.281,0.207-0.541,0.469-0.783,0.783c0.076,0.348,0.092,0.593,0.036,0.735
				c-0.054,0.144-0.157,0.238-0.302,0.287c-0.105,0.034-0.199,0.03-0.285-0.017c-0.086-0.046-0.15-0.13-0.193-0.248
				c-0.072-0.212-0.042-0.454,0.104-0.73c0.041-0.084,0.066-0.152,0.076-0.21c-0.184-0.724-0.367-1.444-0.549-2.169
				C29.569,115.453,29.329,114.631,29.065,113.844z"/>
			<path fill="#FFFFFF" d="M40.64,110.333c1.053-0.29,2.032-0.158,2.937,0.395c1.12,0.679,1.917,1.953,2.423,3.806
				c0.469,1.721,0.462,3.126-0.013,4.219c-0.476,1.092-1.212,1.774-2.231,2.058c-0.98,0.272-1.914,0.135-2.805-0.426
				c-1.114-0.705-1.955-1.939-2.507-3.719c-0.524-1.69-0.54-3.155-0.03-4.392C38.82,111.282,39.564,110.631,40.64,110.333z
				 M40.839,110.844c-0.709,0.197-1.176,0.663-1.391,1.389c-0.215,0.725-0.031,2.053,0.55,3.979
				c0.569,1.884,1.148,3.083,1.735,3.601c0.587,0.515,1.208,0.682,1.874,0.496c0.669-0.188,1.101-0.617,1.298-1.301
				c0.23-0.812,0.087-2.141-0.428-3.984c-0.534-1.909-1.094-3.131-1.695-3.666C42.185,110.823,41.533,110.651,40.839,110.844z"/>
			<path fill="#FFFFFF" d="M50.37,107.317c1.978-0.467,3.962-0.91,5.943-1.327c1.341-0.284,2.428-0.211,3.243,0.202
				c0.818,0.414,1.312,1.072,1.488,1.969c0.18,0.896-0.008,1.643-0.549,2.238c-0.743,0.82-1.753,1.36-3.032,1.633
				c-0.697,0.146-1.395,0.3-2.093,0.453c0.284,1.243,0.567,2.484,0.856,3.729c0.051,0.216,0.143,0.361,0.271,0.43
				c0.173,0.086,0.383,0.102,0.624,0.049c0.437-0.094,0.872-0.188,1.309-0.28c0.041,0.186,0.084,0.368,0.123,0.555
				c-1.841,0.391-3.68,0.803-5.519,1.237c-0.045-0.185-0.094-0.369-0.138-0.553c0.386-0.09,0.772-0.18,1.157-0.27
				c0.227-0.052,0.387-0.134,0.473-0.245c0.088-0.11,0.112-0.239,0.076-0.388c-0.691-2.896-1.377-5.795-2.053-8.693
				c-0.052-0.222-0.161-0.365-0.325-0.432c-0.163-0.064-0.442-0.054-0.833,0.037c-0.296,0.068-0.593,0.138-0.889,0.208
				C50.459,107.686,50.416,107.501,50.37,107.317z M55.247,111.945c0.532-0.118,1.064-0.231,1.597-0.347
				c1.012-0.218,1.699-0.562,2.067-1.047c0.367-0.484,0.457-1.18,0.27-2.084c-0.131-0.634-0.333-1.098-0.608-1.396
				c-0.276-0.297-0.628-0.483-1.061-0.567c-0.431-0.082-1.103-0.027-2.012,0.168c-0.602,0.129-0.968,0.267-1.105,0.403
				c-0.135,0.138-0.176,0.335-0.118,0.593C54.599,109.095,54.923,110.521,55.247,111.945z"/>
			<path fill="#FFFFFF" d="M71.143,113.857c0.116,0.124,0.233,0.249,0.349,0.374c-0.321,0.433-0.708,0.686-1.172,0.761
				c-0.352,0.056-0.667,0.013-0.938-0.132c-0.272-0.145-0.541-0.433-0.806-0.863c-0.408,0.577-0.783,0.987-1.128,1.217
				c-0.341,0.232-0.778,0.393-1.301,0.486c-0.748,0.134-1.344,0.085-1.794-0.15c-0.447-0.234-0.721-0.592-0.815-1.072
				c-0.143-0.723,0.19-1.409,1.001-2.054c0.812-0.646,1.959-1.179,3.441-1.591c-0.061-0.352-0.121-0.708-0.182-1.061
				c-0.066-0.377-0.283-0.674-0.656-0.887c-0.372-0.215-0.811-0.279-1.312-0.19c-0.466,0.082-0.848,0.244-1.154,0.482
				c-0.215,0.179-0.31,0.331-0.287,0.46c0.014,0.074,0.1,0.18,0.257,0.314c0.192,0.171,0.303,0.333,0.329,0.488
				c0.041,0.223-0.002,0.418-0.129,0.588c-0.126,0.17-0.314,0.275-0.562,0.322c-0.268,0.048-0.501,0.004-0.712-0.13
				c-0.209-0.136-0.34-0.336-0.39-0.599c-0.094-0.489,0.115-0.996,0.634-1.511c0.519-0.517,1.265-0.862,2.235-1.03
				c0.896-0.155,1.609-0.089,2.142,0.191c0.532,0.287,0.837,0.689,0.925,1.207c0.213,1.275,0.425,2.55,0.639,3.824
				c0.059,0.336,0.156,0.579,0.298,0.719c0.144,0.144,0.304,0.206,0.486,0.176C70.744,114.165,70.943,114.05,71.143,113.857z
				 M68.065,111.324c-1.312,0.399-2.208,0.853-2.693,1.345c-0.358,0.373-0.488,0.833-0.384,1.379
				c0.072,0.38,0.236,0.661,0.489,0.838c0.254,0.177,0.555,0.233,0.896,0.174c0.612-0.108,1.104-0.422,1.477-0.945
				c0.372-0.521,0.505-1.117,0.388-1.789C68.181,111.991,68.122,111.658,68.065,111.324z"/>
			<path fill="#FFFFFF" d="M71.214,107.456c0.898-0.18,1.795-0.355,2.692-0.523c0.138,0.945,0.272,1.893,0.409,2.84
				c0.152-0.974,0.398-1.732,0.737-2.266c0.34-0.536,0.812-0.845,1.413-0.922c0.407-0.053,0.75,0.021,1.023,0.225
				c0.274,0.201,0.436,0.498,0.486,0.889c0.039,0.314-0.009,0.571-0.151,0.767c-0.138,0.193-0.333,0.308-0.577,0.34
				c-0.237,0.028-0.44-0.02-0.607-0.149c-0.166-0.132-0.266-0.323-0.302-0.579c-0.018-0.167-0.002-0.325,0.065-0.481
				c0.062-0.141,0.094-0.224,0.091-0.249c-0.01-0.073-0.067-0.107-0.169-0.093c-0.218,0.028-0.451,0.182-0.695,0.458
				c-0.34,0.389-0.571,0.89-0.696,1.501c-0.189,0.956-0.245,1.702-0.165,2.247c0.072,0.501,0.146,1.004,0.218,1.507
				c0.025,0.169,0.104,0.291,0.245,0.362c0.135,0.072,0.357,0.089,0.661,0.048c0.311-0.042,0.62-0.084,0.931-0.125
				c0.025,0.187,0.051,0.374,0.078,0.562c-1.513,0.2-3.029,0.415-4.542,0.645c-0.028-0.187-0.06-0.373-0.089-0.56
				c0.241-0.038,0.484-0.074,0.727-0.109c0.244-0.036,0.422-0.111,0.533-0.222c0.112-0.11,0.158-0.23,0.139-0.361
				c-0.225-1.488-0.447-2.979-0.67-4.469c-0.053-0.34-0.161-0.577-0.343-0.711c-0.178-0.135-0.412-0.181-0.702-0.139
				c-0.22,0.033-0.439,0.065-0.657,0.1C71.27,107.811,71.241,107.634,71.214,107.456z"/>
			<path fill="#FFFFFF" d="M78.019,102.386c0.97-0.162,1.944-0.317,2.918-0.468c0.283,2.564,0.572,5.13,0.859,7.695
				c0.731-0.753,1.468-1.505,2.214-2.251c0.216-0.221,0.315-0.402,0.3-0.547c-0.01-0.125-0.092-0.216-0.236-0.272
				c-0.218-0.078-0.564-0.102-1.035-0.062c-0.02-0.174-0.038-0.353-0.056-0.527c1.341-0.139,2.682-0.266,4.021-0.382
				c0.017,0.176,0.03,0.353,0.047,0.528c-0.79,0.111-1.378,0.361-1.763,0.752c-0.529,0.534-1.055,1.068-1.577,1.604
				c1.051,1.111,2.094,2.231,3.119,3.356c0.187,0.2,0.485,0.282,0.9,0.247c0.136-0.012,0.272-0.022,0.408-0.035
				c0.017,0.188,0.032,0.377,0.049,0.565c-1.335,0.112-2.669,0.236-4.005,0.372c-0.021-0.188-0.039-0.376-0.059-0.564
				c0.133-0.014,0.267-0.027,0.398-0.04c0.302-0.029,0.494-0.073,0.594-0.136c0.096-0.059,0.141-0.124,0.135-0.194
				c-0.007-0.071-0.042-0.138-0.1-0.203c-0.758-0.833-1.522-1.661-2.295-2.486c-0.327,0.339-0.652,0.681-0.978,1.021
				c0.067,0.593,0.135,1.187,0.202,1.78c0.016,0.146,0.077,0.25,0.186,0.309c0.151,0.08,0.354,0.109,0.604,0.079
				c0.17-0.018,0.34-0.037,0.51-0.054c0.021,0.188,0.04,0.375,0.061,0.564c-1.311,0.136-2.622,0.285-3.931,0.443
				c-0.023-0.188-0.047-0.375-0.07-0.562c0.21-0.026,0.423-0.051,0.634-0.076c0.259-0.031,0.449-0.107,0.561-0.226
				c0.111-0.119,0.16-0.269,0.139-0.443c-0.345-2.896-0.687-5.795-1.023-8.69c-0.027-0.227-0.124-0.381-0.295-0.469
				c-0.248-0.123-0.562-0.163-0.951-0.116c-0.14,0.017-0.277,0.034-0.416,0.05C78.063,102.761,78.042,102.573,78.019,102.386z"/>
			<path fill="#FFFFFF" d="M93.599,105.733c0.765,1.067,1.338,1.848,1.73,2.336c0.394,0.489,0.818,0.968,1.276,1.436
				c0.777-1.018,1.157-1.831,1.133-2.446c-0.015-0.276-0.125-0.493-0.341-0.645c-0.221-0.151-0.534-0.218-0.951-0.197
				c-0.142,0.006-0.284,0.013-0.426,0.021c-0.009-0.175-0.018-0.349-0.026-0.522c1.487-0.074,2.981-0.137,4.473-0.183
				c0.006,0.173,0.012,0.349,0.017,0.521c-0.111,0.003-0.225,0.008-0.337,0.012c-0.292,0.009-0.528,0.058-0.711,0.146
				c-0.184,0.086-0.351,0.22-0.503,0.394c-0.148,0.176-0.328,0.492-0.534,0.956c-0.413,0.932-0.865,1.719-1.348,2.363
				c0.755,0.671,1.397,0.998,1.929,0.978c0.324-0.013,0.594-0.148,0.801-0.401c0.209-0.254,0.34-0.687,0.393-1.294
				c0.166-0.005,0.332-0.01,0.499-0.017c0.032,0.945-0.159,1.665-0.562,2.17c-0.403,0.503-0.922,0.769-1.566,0.794
				c-0.357,0.014-0.729-0.058-1.111-0.217c-0.381-0.159-0.85-0.458-1.401-0.895c-0.586,0.494-1.107,0.843-1.571,1.048
				c-0.463,0.204-0.966,0.323-1.508,0.358c-0.985,0.063-1.819-0.185-2.516-0.744c-0.695-0.561-1.075-1.284-1.151-2.173
				c-0.055-0.686,0.103-1.318,0.479-1.898c0.376-0.579,1.087-1.18,2.146-1.792c-0.576-0.946-0.894-1.75-0.938-2.401
				c-0.052-0.71,0.187-1.334,0.712-1.869c0.525-0.536,1.198-0.827,2.016-0.877c0.774-0.043,1.399,0.107,1.866,0.452
				c0.47,0.345,0.714,0.822,0.745,1.433c0.027,0.58-0.161,1.119-0.559,1.623C95.35,104.704,94.631,105.212,93.599,105.733z
				 M92.23,106.412c-1.089,0.663-1.6,1.412-1.536,2.237c0.049,0.634,0.357,1.279,0.926,1.941c0.569,0.661,1.23,0.965,2.002,0.919
				c0.652-0.04,1.307-0.33,1.961-0.878c-0.541-0.559-1.037-1.108-1.476-1.656C93.665,108.426,93.046,107.573,92.23,106.412z
				 M93.258,105.17c0.756-0.363,1.267-0.73,1.539-1.108c0.271-0.375,0.396-0.815,0.369-1.319c-0.026-0.474-0.181-0.841-0.466-1.105
				c-0.285-0.262-0.637-0.379-1.059-0.356c-0.416,0.024-0.751,0.178-1.008,0.46c-0.254,0.28-0.369,0.642-0.34,1.079
				C92.337,103.459,92.659,104.243,93.258,105.17z"/>
			<path fill="#FFFFFF" d="M101.663,100.636c2.091-0.056,4.18-0.084,6.271-0.087c1.214-0.003,2.159,0.261,2.82,0.775
				c0.663,0.517,0.985,1.19,0.974,2.018c-0.006,0.495-0.145,0.934-0.41,1.316c-0.264,0.382-0.643,0.687-1.138,0.911
				c-0.493,0.226-1.263,0.386-2.311,0.489c0.766,0.196,1.288,0.39,1.574,0.582c0.286,0.189,0.514,0.435,0.687,0.737
				c0.168,0.303,0.364,0.914,0.578,1.841c0.154,0.662,0.314,1.117,0.492,1.36c0.134,0.188,0.278,0.282,0.437,0.286
				c0.162,0.002,0.314-0.112,0.458-0.339c0.145-0.226,0.232-0.631,0.276-1.21c0.18,0.003,0.36,0.006,0.538,0.011
				c-0.136,1.714-0.806,2.557-2.016,2.542c-0.381-0.004-0.71-0.1-0.987-0.288c-0.28-0.19-0.488-0.465-0.628-0.829
				c-0.109-0.272-0.23-0.985-0.363-2.142c-0.078-0.673-0.204-1.147-0.377-1.432c-0.173-0.283-0.444-0.51-0.812-0.681
				c-0.368-0.172-0.809-0.254-1.322-0.251c-0.325,0.002-0.648,0.006-0.972,0.01c0.017,1.465,0.034,2.931,0.054,4.396
				c0.001,0.188,0.052,0.32,0.154,0.394c0.125,0.093,0.322,0.139,0.59,0.137c0.371-0.001,0.743-0.006,1.114-0.006
				c0.001,0.189,0.002,0.376,0.003,0.567c-1.796,0.007-3.587,0.034-5.381,0.081c-0.005-0.188-0.011-0.378-0.016-0.566
				c0.378-0.009,0.762-0.02,1.139-0.027c0.25-0.005,0.435-0.059,0.55-0.155c0.116-0.099,0.173-0.23,0.17-0.398
				c-0.057-2.981-0.114-5.961-0.169-8.943c-0.002-0.19-0.071-0.334-0.197-0.428c-0.129-0.096-0.319-0.138-0.575-0.132
				c-0.396,0.009-0.792,0.018-1.188,0.028C101.673,101.015,101.668,100.826,101.663,100.636z M105.426,105.712
				c0.468-0.006,0.938-0.01,1.406-0.013c0.942-0.005,1.68-0.173,2.217-0.506c0.534-0.334,0.806-0.927,0.812-1.783
				c0.004-0.591-0.094-1.055-0.297-1.399c-0.202-0.345-0.473-0.579-0.803-0.705c-0.333-0.126-0.986-0.19-1.964-0.186
				c-0.645,0.004-1.042,0.051-1.194,0.135c-0.152,0.086-0.227,0.229-0.225,0.43C105.393,103.027,105.412,104.369,105.426,105.712z"
				/>
			<path fill="#FFFFFF" d="M113.687,104.71c1.003-0.006,2.009-0.005,3.012,0.002c-0.07,2.031-0.141,4.063-0.213,6.097
				c-0.004,0.164,0.032,0.287,0.114,0.359c0.114,0.103,0.266,0.161,0.45,0.167c0.275,0.01,0.555,0.021,0.832,0.032
				c-0.008,0.189-0.017,0.378-0.023,0.566c-1.393-0.056-2.784-0.1-4.174-0.131c0.001-0.188,0.01-0.378,0.013-0.567
				c0.26,0.006,0.519,0.013,0.776,0.02c0.229,0.005,0.402-0.045,0.512-0.149c0.109-0.106,0.171-0.261,0.176-0.468
				c0.042-1.487,0.086-2.977,0.13-4.464c0.005-0.283-0.067-0.497-0.238-0.647c-0.169-0.148-0.421-0.226-0.76-0.234
				c-0.205-0.005-0.414-0.01-0.619-0.015C113.679,105.087,113.683,104.897,113.687,104.71z M115.915,100.535
				c0.245,0.006,0.461,0.101,0.64,0.279c0.179,0.177,0.268,0.382,0.258,0.614c-0.006,0.225-0.105,0.423-0.289,0.58
				c-0.185,0.162-0.401,0.237-0.653,0.23c-0.25-0.009-0.465-0.1-0.642-0.273s-0.264-0.376-0.256-0.601
				c0.009-0.229,0.105-0.424,0.294-0.59C115.457,100.608,115.676,100.528,115.915,100.535z"/>
			<path fill="#FFFFFF" d="M123.573,101.016c1.004,0.02,2.008,0.044,3.012,0.074c-0.238,3.226-0.478,6.451-0.721,9.677
				c-0.029,0.376,0.026,0.651,0.163,0.824c0.136,0.171,0.354,0.268,0.651,0.292c0.172,0.012,0.34,0.027,0.51,0.04
				c-0.015,0.188-0.031,0.376-0.046,0.565c-0.835-0.066-1.67-0.129-2.505-0.186c-0.028-0.484-0.058-0.97-0.087-1.455
				c-0.335,0.493-0.71,0.856-1.126,1.09c-0.417,0.235-0.874,0.337-1.368,0.308c-0.835-0.047-1.527-0.423-2.081-1.126
				c-0.557-0.703-0.811-1.61-0.761-2.719c0.058-1.199,0.482-2.14,1.292-2.817c0.634-0.53,1.352-0.773,2.141-0.726
				c0.486,0.028,0.913,0.17,1.281,0.42c0.367,0.251,0.68,0.614,0.934,1.093c0.093-1.331,0.182-2.663,0.274-3.995
				c0.013-0.213-0.061-0.384-0.232-0.519c-0.17-0.135-0.44-0.217-0.816-0.239c-0.184-0.012-0.366-0.024-0.55-0.034
				C123.55,101.394,123.562,101.206,123.573,101.016z M122.828,105.497c-0.58-0.033-1.052,0.164-1.419,0.595
				c-0.365,0.431-0.571,1.177-0.629,2.241c-0.061,1.152,0.069,1.975,0.384,2.465c0.313,0.488,0.737,0.749,1.271,0.779
				c0.569,0.035,1.074-0.197,1.517-0.698c0.44-0.499,0.7-1.253,0.771-2.265c0.068-0.955-0.102-1.725-0.51-2.303
				C123.861,105.804,123.396,105.53,122.828,105.497z"/>
			<path fill="#FFFFFF" d="M135.199,109.745c-1.776-0.199-3.55-0.376-5.326-0.535c-0.072,1.076,0.067,1.853,0.419,2.333
				c0.402,0.54,0.951,0.841,1.646,0.909c1.024,0.103,1.906-0.369,2.658-1.419c0.163,0.088,0.325,0.178,0.488,0.267
				c-0.933,1.338-2.105,1.932-3.543,1.79c-0.98-0.095-1.771-0.513-2.381-1.254c-0.609-0.742-0.874-1.646-0.784-2.71
				c0.098-1.147,0.51-2.045,1.253-2.693c0.738-0.648,1.61-0.924,2.606-0.827c0.732,0.073,1.343,0.312,1.84,0.72
				c0.494,0.406,0.836,0.954,1.027,1.641C135.237,108.448,135.27,109.041,135.199,109.745z M129.922,108.673
				c1.08,0.098,2.153,0.2,3.23,0.311c0.19,0.02,0.346-0.025,0.466-0.138c0.118-0.111,0.194-0.315,0.227-0.612
				c0.058-0.551-0.072-1.041-0.398-1.465s-0.74-0.662-1.239-0.709c-0.558-0.056-1.056,0.133-1.487,0.565
				C130.288,107.057,130.023,107.74,129.922,108.673z"/>
			<path fill="#FFFFFF" d="M144.829,103.099c-0.502,3.389-1.014,6.777-1.53,10.166c-0.023,0.14,0.009,0.252,0.083,0.342
				c0.117,0.119,0.265,0.193,0.455,0.221c0.257,0.039,0.516,0.078,0.772,0.117c-0.028,0.187-0.062,0.375-0.089,0.561
				c-1.381-0.21-2.763-0.41-4.144-0.598c0.026-0.188,0.052-0.375,0.078-0.562c0.247,0.033,0.491,0.067,0.737,0.102
				c0.236,0.032,0.427,0.003,0.56-0.091c0.135-0.093,0.214-0.239,0.244-0.438c0.418-2.846,0.829-5.695,1.238-8.542
				c0.036-0.251-0.011-0.441-0.142-0.578c-0.178-0.188-0.414-0.302-0.709-0.344c-0.229-0.03-0.456-0.062-0.686-0.093
				c0.028-0.188,0.053-0.374,0.077-0.562C142.793,102.893,143.812,102.993,144.829,103.099z"/>
			<path fill="#FFFFFF" d="M152.927,112.386c-1.77-0.33-3.536-0.641-5.309-0.931c-0.156,1.067-0.07,1.854,0.245,2.357
				c0.366,0.568,0.891,0.909,1.582,1.03c1.018,0.177,1.94-0.227,2.777-1.218c0.157,0.102,0.312,0.202,0.47,0.304
				c-1.035,1.264-2.265,1.769-3.694,1.521c-0.975-0.17-1.735-0.643-2.294-1.429c-0.557-0.786-0.754-1.704-0.581-2.762
				c0.184-1.137,0.667-2.001,1.46-2.592c0.789-0.591,1.687-0.803,2.679-0.632c0.729,0.125,1.324,0.411,1.792,0.854
				c0.467,0.442,0.77,1.016,0.91,1.714C153.062,111.096,153.05,111.688,152.927,112.386z M147.708,110.924
				c1.076,0.177,2.146,0.359,3.221,0.55c0.19,0.034,0.35,0,0.478-0.104c0.129-0.102,0.22-0.299,0.273-0.593
				c0.103-0.545,0.006-1.043-0.29-1.491c-0.296-0.447-0.692-0.714-1.191-0.8c-0.555-0.096-1.07,0.057-1.535,0.454
				C148.199,109.341,147.881,110.001,147.708,110.924z"/>
			<path fill="#FFFFFF" d="M161.263,116.878c0.062,0.159,0.122,0.317,0.184,0.476c-0.465,0.283-0.928,0.374-1.389,0.272
				c-0.349-0.081-0.629-0.233-0.826-0.469c-0.199-0.234-0.34-0.601-0.418-1.098c-0.604,0.386-1.109,0.624-1.52,0.713
				c-0.408,0.086-0.875,0.077-1.398-0.029c-0.745-0.149-1.278-0.417-1.607-0.799c-0.33-0.383-0.442-0.815-0.347-1.294
				c0.146-0.723,0.712-1.238,1.714-1.536c1-0.298,2.271-0.372,3.812-0.208c0.077-0.351,0.156-0.7,0.233-1.051
				c0.081-0.374-0.009-0.729-0.275-1.064c-0.267-0.334-0.652-0.557-1.153-0.659c-0.467-0.098-0.88-0.089-1.257,0.021
				c-0.268,0.085-0.412,0.193-0.441,0.321c-0.015,0.073,0.026,0.204,0.12,0.386c0.113,0.229,0.153,0.421,0.122,0.574
				c-0.046,0.222-0.161,0.389-0.345,0.498c-0.182,0.113-0.397,0.142-0.645,0.092c-0.265-0.053-0.471-0.182-0.612-0.383
				c-0.143-0.203-0.186-0.436-0.136-0.697c0.099-0.491,0.483-0.88,1.161-1.169c0.681-0.29,1.503-0.333,2.472-0.134
				c0.896,0.188,1.536,0.512,1.927,0.967c0.387,0.464,0.521,0.95,0.406,1.461c-0.287,1.262-0.574,2.522-0.863,3.783
				c-0.078,0.335-0.076,0.592,0.001,0.776c0.076,0.187,0.204,0.303,0.387,0.343C160.773,117.017,161.003,116.985,161.263,116.878z
				 M159.358,113.394c-1.377-0.113-2.384-0.022-3.021,0.255c-0.475,0.214-0.773,0.593-0.883,1.138
				c-0.077,0.381-0.035,0.699,0.134,0.956c0.171,0.258,0.423,0.42,0.765,0.491c0.612,0.127,1.191,0.017,1.738-0.331
				c0.548-0.347,0.898-0.852,1.047-1.517C159.212,114.054,159.285,113.725,159.358,113.394z"/>
			<path fill="#FFFFFF" d="M163.568,110.92c1.23,0.28,2.458,0.571,3.687,0.873c-0.041,0.167-0.085,0.331-0.127,0.5
				c-0.491-0.109-0.815-0.146-0.967-0.106c-0.153,0.037-0.248,0.124-0.279,0.256c-0.026,0.107-0.026,0.223,0,0.344
				c0.318,1.514,0.626,3.027,0.919,4.541c0.932-1.166,1.871-2.326,2.818-3.481c0.045-0.061,0.075-0.125,0.095-0.196
				c0.096-0.354-0.228-0.676-0.967-0.955c0.043-0.166,0.086-0.332,0.13-0.498c1.032,0.26,2.065,0.525,3.097,0.8
				c-0.046,0.166-0.09,0.331-0.137,0.497c-0.321-0.054-0.591-0.04-0.811,0.037c-0.221,0.077-0.411,0.209-0.569,0.4
				c-1.434,1.701-2.848,3.416-4.242,5.141c-0.14-0.034-0.278-0.071-0.419-0.104c-0.432-2.234-0.895-4.468-1.387-6.702
				c-0.055-0.242-0.146-0.422-0.278-0.543c-0.13-0.122-0.356-0.222-0.682-0.301C163.491,111.255,163.53,111.087,163.568,110.92z"/>
			<path fill="#FFFFFF" d="M178.605,118.612c-1.75-0.525-3.506-1.029-5.26-1.513c-0.275,1.047-0.279,1.834-0.018,2.371
				c0.306,0.604,0.799,1.005,1.482,1.2c1.011,0.289,1.987-0.011,2.944-0.903c0.145,0.119,0.293,0.236,0.441,0.354
				c-1.193,1.143-2.488,1.508-3.905,1.103c-0.966-0.274-1.683-0.832-2.155-1.674c-0.473-0.845-0.569-1.777-0.278-2.812
				c0.311-1.109,0.897-1.916,1.763-2.417c0.862-0.499,1.794-0.61,2.775-0.331c0.722,0.207,1.299,0.556,1.718,1.049
				c0.424,0.49,0.663,1.096,0.729,1.805C178.889,117.344,178.81,117.934,178.605,118.612z M173.495,116.581
				c1.064,0.293,2.129,0.596,3.192,0.903c0.19,0.055,0.354,0.038,0.494-0.05c0.14-0.089,0.255-0.275,0.344-0.561
				c0.163-0.531,0.121-1.035-0.128-1.514c-0.25-0.477-0.619-0.789-1.115-0.929c-0.552-0.157-1.085-0.062-1.602,0.282
				C174.165,115.06,173.772,115.684,173.495,116.581z"/>
			<path fill="#FFFFFF" d="M180.367,120.012c0.05,0.933,0.224,1.623,0.535,2.071c0.308,0.45,0.765,0.773,1.37,0.966
				c0.559,0.18,1.028,0.206,1.408,0.077c0.381-0.129,0.633-0.367,0.753-0.717c0.07-0.2,0.076-0.395,0.019-0.582
				c-0.057-0.187-0.172-0.352-0.346-0.488c-0.171-0.139-0.646-0.415-1.424-0.823c-0.742-0.396-1.246-0.72-1.506-0.976
				c-0.26-0.258-0.433-0.553-0.518-0.884c-0.083-0.334-0.074-0.662,0.031-0.991c0.16-0.495,0.485-0.89,0.981-1.183
				c0.642-0.369,1.385-0.422,2.233-0.15c0.645,0.207,1.183,0.583,1.606,1.132c0.233-0.111,0.465-0.222,0.698-0.332
				c0.107,0.036,0.216,0.072,0.325,0.107c-0.209,0.822-0.417,1.643-0.632,2.464c-0.175-0.06-0.351-0.115-0.525-0.173
				c0.007-0.757-0.138-1.348-0.433-1.775c-0.294-0.428-0.733-0.734-1.314-0.922c-0.503-0.159-0.934-0.172-1.294-0.035
				c-0.359,0.133-0.591,0.363-0.695,0.685c-0.093,0.285-0.035,0.561,0.164,0.83c0.191,0.274,0.646,0.581,1.357,0.931
				c0.821,0.412,1.348,0.711,1.578,0.888c0.379,0.284,0.631,0.613,0.76,0.989c0.129,0.377,0.119,0.779-0.035,1.208
				c-0.21,0.594-0.641,1.008-1.285,1.255c-0.646,0.244-1.352,0.245-2.119-0.004c-0.714-0.229-1.301-0.66-1.766-1.291
				c-0.254,0.143-0.509,0.287-0.764,0.431c-0.137-0.041-0.271-0.084-0.408-0.126c0.242-0.912,0.482-1.828,0.721-2.741
				C180.021,119.905,180.193,119.958,180.367,120.012z"/>
		</g>
	</g>
</g>
</svg>
