<?xml version="1.0" encoding="utf-8"?>
<!-- Generator: Adobe Illustrator 16.0.0, SVG Export Plug-In . SVG Version: 6.00 Build 0)  -->
<!DOCTYPE svg PUBLIC "-//W3C//DTD SVG 1.1//EN" "http://www.w3.org/Graphics/SVG/1.1/DTD/svg11.dtd">
<svg version="1.1" id="Livello_1" xmlns="http://www.w3.org/2000/svg" xmlns:xlink="http://www.w3.org/1999/xlink" x="0px" y="0px"
	 width="210px" height="200px" viewBox="0 0 210 200" enable-background="new 0 0 210 200" xml:space="preserve">
<g>
	<g>
		<circle fill="#0572B7" cx="105" cy="100" r="84"/>
		<circle fill="#0572B7" stroke="#FFFFFF" stroke-width="5" stroke-miterlimit="10" cx="105" cy="100" r="75.216"/>
		<path fill="none" d="M41.531,83.146h31.434v31.435H41.531V83.146z"/>
		<rect x="130.005" y="121.35" fill="none" width="24.543" height="24.956"/>
		<g>
			<g>
				<path fill="#55ABE0" stroke="#FFFFFF" stroke-miterlimit="10" d="M65.938,127.085l-8.353,1.761
					c4.722,8.347,11.686,15.49,20.472,20.428l1.18-8.916C73.711,136.958,69.212,132.376,65.938,127.085z"/>
				<path fill="#55ABE0" stroke="#FFFFFF" stroke-miterlimit="10" d="M79.714,64.14l-1.762-8.906
					c-8.346,4.721-15.488,11.686-20.427,20.473l8.917,1.732C69.841,71.911,74.423,67.413,79.714,64.14z"/>
				<path fill="#55ABE0" stroke="#FFFFFF" stroke-miterlimit="10" d="M143.212,76.808l8.354-1.207
					c-4.721-8.348-11.685-15.49-20.472-20.428l-1.18,8.363C135.441,66.934,139.94,71.517,143.212,76.808z"/>
				<path fill="#55ABE0" stroke="#FFFFFF" stroke-miterlimit="10" d="M95.226,147.021l-5.052,7.256
					c9.712,2.699,19.685,2.551,28.919-0.033l-5.078-7.247C107.962,148.437,101.541,148.511,95.226,147.021z"/>
				<path fill="#55ABE0" stroke="#FFFFFF" stroke-miterlimit="10" d="M156.595,87.705l-6.955,3.909
					c1.44,6.052,1.514,12.474,0.022,18.789l6.966,6.223C159.328,106.914,159.18,96.938,156.595,87.705z"/>
			</g>
			<path fill="#55ABE0" stroke="#FFFFFF" stroke-width="2" stroke-miterlimit="10" d="M112.116,73.646H88.041v58.177h13.757v-19.393
				h10.318c11.4,0,20.635-8.678,20.635-19.393S123.517,73.646,112.116,73.646z M112.804,99.502h-11.006V86.574h11.006
				c3.799,0,6.879,2.893,6.879,6.464C119.683,96.61,116.603,99.502,112.804,99.502z"/>
			<g>
				<g>
					<path fill="#FFFFFF" d="M62.595,90.234c1.289,0.03,2.367-0.993,2.396-2.288c0.029-1.297-0.999-2.368-2.288-2.398
						c-1.295-0.029-2.367,0.992-2.397,2.289C60.276,89.132,61.3,90.204,62.595,90.234z"/>
				</g>
				<g>
					<path fill="#FFFFFF" d="M62.935,99.487h6.355v-2.343h-4.722l-2.604-4.337c-0.384-0.65-1.093-1.08-1.901-1.08
						c-0.221,0-0.436,0.032-0.638,0.09l-7.064,2.201l-0.955,6.771h2.344l0.955-4.771l2.742-0.854l-5.086,19.948h2.344l3.737-10.56
						l3.034,4.05v6.51h2.343v-8.34l-3.242-5.912l0.958-3.735L62.935,99.487z"/>
				</g>
			</g>
			<path fill="#FFFFFF" d="M124.233,56.017c-0.981-3.08-3.608-5.095-6.572-5.062l-2.148,0.078l-0.68-1.706
				c-1.321-3.311-2.004-4.934-2.213-5.249c-0.208-0.315-0.232-0.319-2.189-0.319c-1.733,0-2.007,0.03-2.155,0.231
				c-0.242,0.317-0.229,0.513,0.074,0.816c0.233,0.232,0.439,0.262,1.756,0.262c1.04,0,1.531,0.05,1.616,0.164
				c0.147,0.195,0.694,1.531,0.694,1.691c0,0.062-2.742,0.11-6.093,0.11h-6.096l-0.259-0.514c-0.146-0.287-0.267-0.546-0.267-0.577
				c0-0.035,0.624-0.131,1.388-0.224c1.555-0.184,2.125-0.458,1.751-0.839c-0.167-0.173-0.635-0.213-2.714-0.238
				c-1.71-0.02-2.562,0.016-2.659,0.116c-0.079,0.079-0.126,0.374-0.103,0.654c0.037,0.45,0.074,0.706,0.49,0.657l0.63-0.081
				l0.819,1.544l-2.559,3.923c-1.824-0.547-3.48-0.671-5.354-0.067c-0.901,0.379-2.179,1.286-2.763,1.971
				c-0.765,0.893-1.365,2.244-1.545,3.479c-0.02,0.137-0.033,0.275-0.043,0.41v0.938c0.193,2.657,2.037,5.144,4.615,5.999
				c1.196,0.401,1.225,0.405,2.476,0.362c0.935-0.032,1.389-0.124,2.2-0.438c1.18-0.459,1.73-0.915,2.962-2.258
				c1.247-1.367,1.377-2.924,1.426-3.339c0.103-0.036,1.123-0.071,2.27-0.071h2.088l0.019,1.05c0.012,0.577-0.029,1.312-0.023,1.439
				c0.01,0.18-0.056,0.076-0.496,0.107c-0.499,0.033-0.562,0.075-0.524,0.327c0.031,0.23,0.142,0.3,0.552,0.331
				c0.28,0.025,0.959-0.083,1.129-0.126l0.035-3.168l0.883-1.1c0.502-0.635,0.959-1.213,1.013-1.283
				c0.057-0.074,0.313-0.398,0.57-0.724c0.255-0.324,1.456-1.843,2.667-3.376c1.211-1.531,2.24-2.787,2.294-2.787
				c0.056,0,0.161,0.135,0.237,0.3c0.47,0.984,0.721,1.642,0.78,2.023c0.063,0.374,0.028,0.444-0.274,0.56
				c-0.519,0.198-1.938,1.702-2.356,2.505c-0.523,1-0.87,2.277-0.87,3.229c0,1.405,0.946,3.726,1.914,4.689
				c2.631,2.631,6.422,2.869,9.286,0.588c1-0.89,1.848-2.055,2.255-3.34C124.445,58.747,124.483,56.794,124.233,56.017z
				 M97.294,53.462c0.921,0.834,1.812,1.658,1.978,3.495l-4.212,0.061L97.294,53.462z M93.595,62.978
				c-2.516-0.084-5.165-2.008-5.138-5.539c0.022-3.49,3.771-5.908,7.668-4.562c-1.025,1.809-3.382,4.9-3.097,5.291
				c0.295,0.407,0.853,0.271,3.5,0.271h2.815C99.057,62.346,95.127,63.026,93.595,62.978z M100.687,56.937
				c-0.381-1.876-1.46-3.381-2.753-4.767l1.842-3.038c0.077,0,0.425,0.516,0.776,1.144c0.353,0.633,1.337,2.385,2.191,3.893
				c0.854,1.506,1.538,2.808,1.477,2.808L100.687,56.937z M108.823,52.424c-0.095,0.111-0.471,0.626-0.87,1.112l-2.219,2.702
				l-0.002-1.694c0.339-0.01,1.027-0.005,1.004-0.437c-0.019-0.435-0.972-0.315-1.633-0.286l0.066,2.474l-4.057-7.95h5.324
				c4.473,0,5.324,0.031,5.324,0.186C111.762,48.672,110.264,50.655,108.823,52.424z M121.434,61.693
				c-1.398,1.352-3.437,1.899-5.23,1.407c-2.697-0.744-4.485-3.369-4.074-5.986c0.229-1.458,0.624-2.285,1.532-3.21
				c1.056-1.08,1.248-1.085,1.639-0.055c0.094,0.252,0.299,0.759,0.455,1.117c0.156,0.361,0.516,1.229,0.8,1.93
				c0.579,1.435,0.91,1.769,1.368,1.353c0.375-0.524,0.045-1.295-0.368-2.189c-0.222-0.404-1.338-3.413-1.338-3.609
				c0.313-0.312,1.038-0.16,1.476-0.146c1.255,0.056,1.587,0.12,2.243,0.425c0.972,0.454,2.231,1.715,2.687,2.693
				c0.301,0.648,0.542,0.9,0.559,2.39C123.36,59.321,122.414,60.616,121.434,61.693z"/>
			<path fill="#FFFFFF" d="M147.798,124.458c-0.936-1.6-2.049-1.948-3.838-2.408c-1.787-0.46-3.591-0.529-5.157-0.529
				s-3.369,0.069-5.157,0.529c-1.787,0.46-2.915,0.809-3.851,2.408c-0.937,1.6-1.637,9.74-1.637,10.16c0,0.422,0,9.192,0,9.192
				h1.116c0,0.559,0,2.46,0,2.48c0,0.787,1.166,1.427,1.953,1.427c0.788,0,1.954-0.64,1.954-1.427c0-0.021,0-1.922,0-2.48h11.432
				c0,0.559-0.002,2.207,0,2.228c0.181,1.427,1.518,1.553,2.305,1.553s1.334-0.513,1.334-1.3c0-0.021,0-1.922,0-2.48h1.176
				c0,0,0.002-8.313,0.002-8.773C149.43,134.578,148.734,126.058,147.798,124.458z M134.856,122.601h8.371v2.233h-8.371V122.601z
				 M132.159,142.202c-1.4,0-2.535-1.134-2.535-2.532s1.135-2.532,2.535-2.532c1.398,0,2.533,1.134,2.533,2.532
				S133.558,142.202,132.159,142.202z M129.825,134.322c0,0,0.587-6.768,1.216-7.396c0.627-0.628,14.896-0.554,15.522,0.075
				c0.63,0.627,1.214,7.321,1.214,7.321H129.825z M145.159,142.202c-1.398,0-2.535-1.134-2.535-2.532s1.137-2.532,2.535-2.532
				c1.396,0,2.533,1.134,2.533,2.532S146.556,142.202,145.159,142.202z"/>
		</g>
	</g>
	<g>
		<g>
			<path fill="#328ACA" stroke="#FFFFFF" stroke-width="2" stroke-miterlimit="10" d="M192.857,142.154
				c-2.534-5.82-5.349-11.609-8.445-17.347c6.004-2.538,12.219-4.851,18.63-6.915C139.069,91.037,66.924,91.207,3.055,118.401
				c0.04,0.094,0.081,0.188,0.12,0.282c6.617,2.096,13.025,4.457,19.211,7.058c-2.898,5.432-5.546,10.909-7.941,16.415
				C71.5,118.203,135.8,118.202,192.857,142.154L192.857,142.154L192.857,142.154z"/>
		</g>
	</g>
	<g>
		<g>
			<path fill="#FFFFFF" d="M25.431,126.47c-0.133,0.352,1.04,0.108,3.525-0.668c0.375-0.116,0.608-0.29,0.711-0.521
				c0.098-0.23,0.121-0.791,0.058-1.677c0.174-0.053,0.347-0.105,0.522-0.159c0.227,0.992,0.454,1.984,0.688,2.978
				c-2.225,0.675-4.443,1.384-6.66,2.125c-0.044-0.125-0.092-0.249-0.133-0.373c0.447-1.005,0.905-2.013,1.371-3.015
				c0.801-1.619,1.287-2.623,1.432-3.018c0.208-0.563,0.322-1.078,0.35-1.553c0.028-0.472-0.016-0.88-0.127-1.226
				c-0.184-0.571-0.502-0.969-0.963-1.188c-0.459-0.217-1.001-0.229-1.627-0.03c-0.704,0.224-1.227,0.562-1.568,1.006
				c-0.34,0.446-0.45,0.838-0.334,1.177c0.038,0.114,0.102,0.192,0.19,0.23c0.083,0.041,0.235,0.051,0.455,0.029
				c0.555-0.058,0.906,0.133,1.054,0.569c0.082,0.233,0.061,0.459-0.06,0.671c-0.122,0.213-0.313,0.361-0.584,0.449
				c-0.311,0.103-0.631,0.061-0.954-0.123c-0.324-0.185-0.56-0.485-0.709-0.907c-0.164-0.472-0.181-0.945-0.042-1.421
				c0.134-0.476,0.435-0.927,0.899-1.354c0.463-0.428,1.012-0.741,1.646-0.941c0.628-0.199,1.249-0.261,1.863-0.184
				c0.615,0.076,1.119,0.271,1.512,0.583c0.392,0.313,0.66,0.703,0.81,1.17c0.103,0.325,0.139,0.667,0.112,1.04
				c-0.025,0.373-0.122,0.74-0.282,1.107c-0.277,0.634-0.587,1.199-0.93,1.694c-0.496,0.726-0.985,1.452-1.472,2.179
				C25.813,125.671,25.565,126.122,25.431,126.47z"/>
			<path fill="#FFFFFF" d="M33.391,114.9c1.018-0.283,1.962-0.156,2.837,0.379c1.078,0.659,1.857,1.887,2.349,3.68
				c0.458,1.665,0.454,3.026-0.002,4.082c-0.459,1.057-1.169,1.72-2.154,1.994c-0.951,0.267-1.854,0.131-2.714-0.408
				c-1.08-0.684-1.895-1.879-2.427-3.599c-0.51-1.636-0.522-3.056-0.033-4.25C31.636,115.821,32.355,115.189,33.391,114.9z
				 M33.584,115.395c-0.685,0.191-1.136,0.642-1.339,1.344c-0.209,0.701-0.029,1.987,0.535,3.852
				c0.552,1.822,1.116,2.983,1.683,3.482c0.567,0.5,1.169,0.658,1.812,0.478c0.648-0.181,1.063-0.602,1.253-1.261
				c0.223-0.786,0.082-2.07-0.421-3.854c-0.518-1.848-1.065-3.029-1.646-3.545C34.884,115.374,34.253,115.207,33.584,115.395z"/>
			<path fill="#FFFFFF" d="M42.295,112.579c1.019-0.248,1.956-0.084,2.804,0.481c1.049,0.695,1.778,1.952,2.201,3.761
				c0.396,1.679,0.339,3.037-0.15,4.077c-0.491,1.041-1.224,1.676-2.215,1.916c-0.955,0.231-1.845,0.064-2.68-0.508
				c-1.047-0.72-1.81-1.945-2.278-3.684c-0.446-1.652-0.405-3.069,0.121-4.246C40.522,113.434,41.256,112.832,42.295,112.579z
				 M42.47,113.079c-0.688,0.166-1.146,0.602-1.379,1.295c-0.229,0.693-0.101,1.985,0.393,3.866c0.482,1.841,0.996,3.02,1.544,3.539
				c0.545,0.52,1.138,0.699,1.782,0.544c0.652-0.157,1.075-0.561,1.291-1.214c0.248-0.775,0.156-2.065-0.277-3.866
				c-0.45-1.863-0.949-3.066-1.506-3.602C43.762,113.105,43.141,112.916,42.47,113.079z"/>
			<path fill="#FFFFFF" d="M51.724,109.986c1.913-0.389,3.826-0.754,5.744-1.098c1.301-0.234,2.339-0.133,3.111,0.293
				c0.775,0.424,1.227,1.074,1.374,1.947c0.144,0.874-0.053,1.586-0.593,2.147c-0.739,0.773-1.726,1.268-2.963,1.49
				c-0.676,0.122-1.351,0.247-2.026,0.374c0.237,1.211,0.472,2.422,0.71,3.632c0.039,0.213,0.125,0.354,0.246,0.425
				c0.163,0.088,0.363,0.111,0.601,0.066c0.422-0.078,0.845-0.156,1.268-0.232c0.034,0.182,0.067,0.359,0.102,0.54
				c-1.784,0.323-3.569,0.664-5.351,1.026c-0.037-0.18-0.076-0.357-0.114-0.537c0.374-0.077,0.748-0.151,1.12-0.226
				c0.221-0.044,0.377-0.118,0.463-0.223c0.087-0.104,0.117-0.228,0.087-0.372c-0.573-2.823-1.144-5.647-1.706-8.471
				c-0.043-0.216-0.143-0.358-0.299-0.427c-0.156-0.069-0.426-0.067-0.802,0.009c-0.286,0.057-0.574,0.114-0.86,0.174
				C51.798,110.346,51.762,110.166,51.724,109.986z M56.269,114.614c0.515-0.096,1.031-0.191,1.545-0.286
				c0.979-0.179,1.654-0.493,2.018-0.951c0.366-0.458,0.475-1.125,0.32-2.007c-0.107-0.615-0.289-1.072-0.544-1.367
				c-0.256-0.295-0.588-0.488-1.002-0.581c-0.413-0.09-1.062-0.059-1.938,0.103c-0.581,0.105-0.938,0.226-1.074,0.355
				c-0.135,0.13-0.178,0.32-0.13,0.569C55.73,111.838,55.999,113.227,56.269,114.614z"/>
			<path fill="#FFFFFF" d="M71.516,116.921c0.11,0.123,0.218,0.247,0.327,0.371c-0.322,0.411-0.703,0.646-1.151,0.704
				c-0.341,0.045-0.645-0.006-0.901-0.153c-0.259-0.146-0.51-0.433-0.752-0.856c-0.41,0.549-0.781,0.931-1.121,1.146
				c-0.342,0.212-0.762,0.357-1.269,0.435c-0.725,0.108-1.298,0.044-1.724-0.195c-0.426-0.24-0.681-0.592-0.754-1.062
				c-0.118-0.702,0.223-1.358,1.022-1.958c0.802-0.599,1.92-1.084,3.359-1.442c-0.051-0.343-0.098-0.687-0.147-1.03
				c-0.049-0.367-0.256-0.661-0.607-0.876c-0.35-0.217-0.77-0.29-1.258-0.22c-0.449,0.066-0.824,0.211-1.123,0.434
				c-0.214,0.164-0.311,0.311-0.289,0.436c0.011,0.072,0.089,0.177,0.238,0.312c0.181,0.172,0.277,0.33,0.303,0.481
				c0.032,0.214-0.013,0.406-0.141,0.565c-0.125,0.159-0.312,0.258-0.552,0.295c-0.255,0.037-0.482-0.009-0.681-0.146
				c-0.197-0.138-0.318-0.334-0.358-0.59c-0.075-0.478,0.136-0.957,0.653-1.443c0.511-0.483,1.241-0.797,2.18-0.933
				c0.865-0.124,1.551-0.043,2.055,0.244c0.503,0.291,0.788,0.688,0.858,1.192c0.17,1.24,0.341,2.477,0.511,3.717
				c0.047,0.328,0.136,0.563,0.267,0.704c0.134,0.142,0.286,0.207,0.465,0.183C71.126,117.209,71.318,117.103,71.516,116.921z
				 M68.62,114.388c-1.273,0.35-2.152,0.764-2.631,1.225c-0.357,0.351-0.494,0.793-0.41,1.322c0.059,0.372,0.209,0.645,0.448,0.825
				c0.24,0.178,0.526,0.242,0.858,0.193c0.595-0.088,1.075-0.379,1.451-0.873c0.372-0.493,0.515-1.066,0.422-1.72
				C68.712,115.036,68.666,114.713,68.62,114.388z"/>
			<path fill="#FFFFFF" d="M71.758,110.73c0.867-0.15,1.737-0.294,2.606-0.436c0.107,0.919,0.213,1.839,0.32,2.758
				c0.172-0.939,0.429-1.663,0.768-2.172c0.346-0.509,0.802-0.794,1.386-0.855c0.393-0.041,0.722,0.041,0.981,0.242
				c0.258,0.202,0.405,0.492,0.444,0.873c0.03,0.304-0.024,0.554-0.164,0.736c-0.142,0.188-0.325,0.289-0.564,0.315
				c-0.23,0.025-0.427-0.031-0.582-0.161c-0.155-0.131-0.251-0.32-0.276-0.568c-0.016-0.157,0.01-0.314,0.075-0.463
				c0.067-0.135,0.097-0.215,0.093-0.239c-0.006-0.073-0.062-0.104-0.158-0.094c-0.217,0.022-0.438,0.165-0.684,0.426
				c-0.333,0.366-0.572,0.846-0.71,1.435c-0.207,0.918-0.276,1.64-0.216,2.169c0.058,0.488,0.113,0.975,0.171,1.463
				c0.021,0.165,0.093,0.285,0.226,0.357c0.131,0.074,0.344,0.095,0.638,0.062c0.299-0.032,0.6-0.066,0.9-0.098
				c0.019,0.183,0.042,0.365,0.06,0.546c-1.466,0.156-2.933,0.324-4.398,0.508c-0.024-0.183-0.048-0.364-0.07-0.546
				c0.234-0.028,0.47-0.058,0.704-0.086c0.241-0.028,0.411-0.097,0.522-0.199c0.108-0.106,0.158-0.218,0.142-0.346
				c-0.177-1.447-0.353-2.894-0.527-4.341c-0.038-0.33-0.146-0.563-0.312-0.698c-0.167-0.136-0.393-0.185-0.672-0.151
				c-0.212,0.027-0.425,0.053-0.635,0.079C71.804,111.073,71.776,110.902,71.758,110.73z"/>
			<path fill="#FFFFFF" d="M78.437,106.002c0.939-0.132,1.879-0.26,2.82-0.381c0.211,2.488,0.426,4.977,0.643,7.465
				c0.725-0.711,1.453-1.421,2.189-2.125c0.214-0.208,0.312-0.38,0.303-0.521c-0.008-0.121-0.084-0.212-0.222-0.268
				c-0.208-0.082-0.542-0.11-0.997-0.085c-0.014-0.171-0.026-0.34-0.04-0.512c1.296-0.103,2.591-0.194,3.886-0.276
				c0.011,0.17,0.021,0.344,0.032,0.512c-0.765,0.089-1.339,0.318-1.716,0.688c-0.522,0.504-1.043,1.008-1.561,1.516
				c0.988,1.1,1.967,2.206,2.932,3.317c0.176,0.198,0.463,0.286,0.862,0.261c0.13-0.008,0.263-0.017,0.396-0.024
				c0.011,0.184,0.022,0.364,0.033,0.548c-1.291,0.079-2.584,0.167-3.875,0.268c-0.013-0.184-0.03-0.365-0.043-0.548
				c0.131-0.01,0.259-0.02,0.387-0.029c0.288-0.021,0.479-0.061,0.574-0.116c0.096-0.057,0.141-0.118,0.136-0.187
				c-0.005-0.067-0.038-0.134-0.091-0.198c-0.711-0.823-1.43-1.644-2.154-2.46c-0.326,0.319-0.646,0.642-0.968,0.964
				c0.05,0.577,0.1,1.152,0.151,1.729c0.012,0.141,0.068,0.241,0.171,0.302c0.146,0.082,0.335,0.112,0.58,0.092
				c0.165-0.013,0.329-0.026,0.493-0.04c0.016,0.184,0.029,0.365,0.045,0.547c-1.27,0.102-2.537,0.214-3.805,0.334
				c-0.018-0.181-0.037-0.364-0.055-0.546c0.207-0.02,0.409-0.038,0.614-0.058c0.253-0.023,0.436-0.092,0.546-0.205
				c0.115-0.113,0.159-0.256,0.146-0.425c-0.26-2.812-0.52-5.621-0.773-8.433c-0.022-0.219-0.112-0.372-0.274-0.461
				c-0.232-0.126-0.537-0.172-0.91-0.136c-0.133,0.012-0.269,0.026-0.402,0.038C78.472,106.366,78.455,106.184,78.437,106.002z"/>
			<path fill="#FFFFFF" d="M93.374,109.601c0.716,1.048,1.249,1.814,1.621,2.296c0.371,0.483,0.771,0.952,1.201,1.415
				c0.773-0.967,1.158-1.746,1.146-2.344c-0.006-0.267-0.112-0.479-0.317-0.629c-0.205-0.151-0.508-0.224-0.912-0.212
				c-0.138,0.005-0.273,0.006-0.411,0.012c-0.003-0.168-0.013-0.336-0.016-0.506c1.441-0.042,2.879-0.07,4.32-0.087
				c0.002,0.169,0.004,0.336,0.006,0.506c-0.107,0.001-0.216,0.001-0.325,0.004c-0.277,0.005-0.511,0.044-0.688,0.127
				c-0.182,0.081-0.343,0.204-0.494,0.371c-0.148,0.166-0.326,0.472-0.535,0.915c-0.422,0.892-0.868,1.645-1.352,2.258
				c0.717,0.666,1.326,0.996,1.845,0.985c0.315-0.007,0.572-0.13,0.78-0.372c0.205-0.242,0.343-0.657,0.406-1.244
				c0.161-0.004,0.321-0.005,0.482-0.006c0.011,0.914-0.187,1.609-0.587,2.087c-0.401,0.48-0.909,0.724-1.53,0.737
				c-0.348,0.009-0.703-0.07-1.069-0.232c-0.368-0.162-0.81-0.46-1.335-0.895c-0.574,0.466-1.088,0.794-1.541,0.981
				c-0.454,0.188-0.942,0.293-1.466,0.314c-0.952,0.04-1.754-0.218-2.411-0.774c-0.658-0.557-1.012-1.266-1.062-2.128
				c-0.036-0.663,0.129-1.271,0.504-1.825c0.374-0.551,1.074-1.119,2.109-1.687c-0.537-0.931-0.824-1.71-0.854-2.345
				c-0.033-0.688,0.203-1.285,0.727-1.793c0.52-0.507,1.174-0.774,1.96-0.805c0.751-0.027,1.346,0.133,1.791,0.476
				c0.445,0.345,0.671,0.812,0.688,1.401c0.015,0.562-0.177,1.081-0.572,1.559C95.089,108.641,94.381,109.118,93.374,109.601z
				 M92.04,110.228c-1.065,0.62-1.573,1.332-1.531,2.131c0.032,0.614,0.315,1.246,0.85,1.899c0.535,0.651,1.17,0.96,1.914,0.932
				c0.635-0.025,1.268-0.292,1.913-0.807c-0.514-0.551-0.976-1.096-1.39-1.636C93.384,112.208,92.8,111.368,92.04,110.228z
				 M93.058,109.048c0.734-0.335,1.238-0.683,1.509-1.039c0.271-0.357,0.397-0.78,0.383-1.27c-0.015-0.46-0.157-0.818-0.427-1.078
				c-0.267-0.259-0.607-0.382-1.012-0.367c-0.399,0.016-0.729,0.156-0.981,0.423c-0.253,0.266-0.37,0.611-0.35,1.037
				C92.206,107.374,92.501,108.138,93.058,109.048z"/>
			<path fill="#FFFFFF" d="M101.257,104.833c2.016-0.013,4.033-0.002,6.048,0.032c1.173,0.021,2.075,0.289,2.707,0.801
				c0.631,0.509,0.931,1.167,0.905,1.967c-0.018,0.48-0.155,0.902-0.419,1.267c-0.263,0.366-0.635,0.652-1.114,0.862
				c-0.479,0.211-1.225,0.353-2.24,0.434c0.733,0.201,1.237,0.4,1.51,0.589c0.272,0.189,0.489,0.433,0.647,0.728
				c0.162,0.295,0.336,0.891,0.528,1.791c0.137,0.643,0.283,1.085,0.451,1.324c0.125,0.183,0.263,0.281,0.418,0.285
				c0.154,0.006,0.305-0.102,0.448-0.32c0.14-0.216,0.238-0.606,0.288-1.167c0.174,0.007,0.348,0.013,0.521,0.019
				c-0.158,1.659-0.824,2.459-1.993,2.427c-0.367-0.012-0.688-0.108-0.951-0.296c-0.267-0.188-0.463-0.457-0.592-0.812
				c-0.102-0.267-0.205-0.96-0.312-2.081c-0.062-0.65-0.178-1.115-0.338-1.392c-0.161-0.275-0.419-0.501-0.771-0.674
				c-0.354-0.17-0.778-0.26-1.274-0.266c-0.313-0.004-0.624-0.007-0.938-0.009c-0.012,1.418-0.02,2.838-0.032,4.255
				c-0.004,0.181,0.045,0.309,0.142,0.383c0.124,0.095,0.31,0.142,0.569,0.145c0.359,0.004,0.719,0.007,1.077,0.013
				c-0.004,0.184-0.005,0.367-0.009,0.549c-1.733-0.026-3.471-0.032-5.204-0.021c-0.002-0.184-0.004-0.366-0.004-0.549
				c0.367-0.003,0.735-0.004,1.103-0.005c0.242-0.001,0.42-0.049,0.533-0.141c0.116-0.094,0.172-0.221,0.173-0.381
				c0.002-2.887,0.005-5.771,0.007-8.657c0.001-0.185-0.061-0.323-0.181-0.417c-0.121-0.092-0.304-0.139-0.553-0.139
				c-0.38,0-0.764,0.003-1.146,0.005C101.261,105.199,101.257,105.017,101.257,104.833z M104.789,109.814
				c0.452,0.005,0.906,0.006,1.358,0.015c0.912,0.011,1.628-0.139,2.148-0.45c0.523-0.313,0.797-0.882,0.817-1.711
				c0.014-0.57-0.069-1.024-0.262-1.359c-0.189-0.335-0.443-0.568-0.761-0.697c-0.322-0.128-0.951-0.201-1.894-0.214
				c-0.623-0.008-1.007,0.03-1.154,0.108c-0.146,0.08-0.223,0.215-0.226,0.412C104.809,107.217,104.798,108.515,104.789,109.814z"/>
			<path fill="#FFFFFF" d="M112.785,108.989c0.97,0.011,1.938,0.029,2.909,0.051c-0.103,1.965-0.203,3.931-0.306,5.896
				c-0.007,0.16,0.024,0.278,0.104,0.35c0.11,0.104,0.258,0.159,0.433,0.169c0.269,0.014,0.536,0.03,0.805,0.044
				c-0.01,0.183-0.021,0.366-0.031,0.549c-1.347-0.077-2.692-0.141-4.037-0.194c0.008-0.184,0.014-0.365,0.022-0.549
				c0.251,0.01,0.501,0.021,0.751,0.031c0.227,0.01,0.388-0.036,0.497-0.137c0.107-0.099,0.169-0.25,0.178-0.449
				c0.067-1.439,0.134-2.879,0.201-4.317c0.011-0.272-0.059-0.483-0.221-0.629c-0.16-0.146-0.406-0.228-0.729-0.24
				c-0.197-0.009-0.398-0.017-0.598-0.024C112.771,109.357,112.777,109.173,112.785,108.989z M115.005,104.988
				c0.235,0.011,0.44,0.103,0.613,0.279c0.171,0.173,0.249,0.374,0.238,0.598c-0.01,0.219-0.108,0.406-0.288,0.559
				c-0.183,0.152-0.393,0.222-0.634,0.211s-0.446-0.103-0.614-0.274c-0.167-0.172-0.248-0.365-0.238-0.586
				c0.009-0.22,0.105-0.41,0.294-0.565C114.562,105.05,114.772,104.977,115.005,104.988z"/>
			<path fill="#FFFFFF" d="M122.389,105.569c0.97,0.031,1.938,0.07,2.906,0.112c-0.275,3.118-0.553,6.236-0.835,9.354
				c-0.032,0.364,0.017,0.633,0.146,0.8c0.127,0.168,0.34,0.267,0.627,0.292c0.164,0.014,0.328,0.029,0.492,0.046
				c-0.018,0.181-0.035,0.364-0.053,0.546c-0.804-0.075-1.615-0.146-2.42-0.213c-0.021-0.471-0.043-0.939-0.063-1.41
				c-0.33,0.473-0.699,0.819-1.106,1.039c-0.404,0.22-0.85,0.313-1.327,0.277c-0.81-0.057-1.468-0.432-1.998-1.12
				c-0.526-0.691-0.76-1.569-0.691-2.642c0.071-1.159,0.498-2.066,1.292-2.708c0.622-0.501,1.314-0.728,2.08-0.671
				c0.467,0.035,0.877,0.177,1.232,0.426c0.354,0.246,0.648,0.606,0.884,1.07c0.109-1.287,0.216-2.574,0.323-3.861
				c0.016-0.205-0.054-0.374-0.215-0.506c-0.162-0.134-0.426-0.213-0.787-0.243c-0.176-0.013-0.351-0.028-0.528-0.041
				C122.36,105.935,122.374,105.751,122.389,105.569z M121.603,109.894c-0.559-0.04-1.021,0.144-1.379,0.555
				c-0.357,0.412-0.573,1.133-0.642,2.159c-0.075,1.116,0.034,1.912,0.331,2.391c0.301,0.479,0.703,0.735,1.219,0.773
				c0.55,0.041,1.043-0.176,1.477-0.652c0.435-0.478,0.697-1.205,0.78-2.182c0.077-0.924-0.074-1.671-0.46-2.235
				C122.593,110.206,122.151,109.934,121.603,109.894z"/>
			<path fill="#FFFFFF" d="M133.504,114.166c-1.716-0.214-3.429-0.407-5.145-0.584c-0.083,1.042,0.044,1.797,0.376,2.264
				c0.383,0.526,0.907,0.823,1.58,0.9c0.992,0.111,1.849-0.333,2.59-1.341c0.156,0.088,0.312,0.177,0.469,0.265
				c-0.919,1.283-2.062,1.843-3.451,1.689c-0.949-0.105-1.708-0.519-2.287-1.245c-0.579-0.726-0.824-1.601-0.723-2.632
				c0.109-1.109,0.524-1.975,1.248-2.591s1.569-0.873,2.531-0.767c0.705,0.078,1.295,0.317,1.767,0.719
				c0.472,0.4,0.798,0.933,0.975,1.601C133.559,112.91,133.579,113.486,133.504,114.166z M128.414,113.063
				c1.041,0.108,2.08,0.221,3.121,0.342c0.182,0.023,0.333-0.022,0.451-0.128c0.118-0.108,0.192-0.302,0.228-0.59
				c0.064-0.532-0.057-1.007-0.367-1.421c-0.309-0.415-0.706-0.651-1.189-0.703c-0.537-0.06-1.021,0.116-1.444,0.529
				C128.789,111.505,128.528,112.162,128.414,113.063z"/>
			<path fill="#FFFFFF" d="M142.888,107.836c-0.523,3.275-1.052,6.549-1.586,9.823c-0.021,0.136,0.006,0.245,0.078,0.332
				c0.11,0.115,0.255,0.189,0.438,0.218c0.248,0.041,0.497,0.081,0.748,0.121c-0.029,0.181-0.061,0.361-0.092,0.542
				c-1.334-0.218-2.67-0.425-4.007-0.62c0.027-0.182,0.055-0.363,0.083-0.544c0.238,0.035,0.475,0.07,0.712,0.106
				c0.232,0.034,0.411,0.007,0.542-0.083c0.131-0.088,0.212-0.228,0.242-0.422c0.434-2.752,0.861-5.503,1.287-8.253
				c0.038-0.242-0.004-0.428-0.13-0.562c-0.174-0.186-0.397-0.297-0.683-0.339c-0.22-0.032-0.438-0.064-0.66-0.098
				c0.027-0.182,0.053-0.36,0.08-0.543C140.923,107.617,141.904,107.724,142.888,107.836z"/>
			<path fill="#FFFFFF" d="M150.627,116.891c-1.71-0.332-3.415-0.647-5.127-0.943c-0.161,1.034-0.087,1.794,0.216,2.284
				c0.347,0.554,0.854,0.889,1.522,1.011c0.989,0.181,1.883-0.205,2.697-1.156c0.151,0.098,0.302,0.196,0.453,0.297
				c-1.017,1.216-2.207,1.693-3.589,1.442c-0.941-0.171-1.673-0.638-2.208-1.402c-0.532-0.765-0.711-1.656-0.537-2.678
				c0.19-1.098,0.664-1.93,1.437-2.495c0.771-0.563,1.637-0.762,2.596-0.588c0.705,0.129,1.279,0.41,1.726,0.842
				s0.733,0.988,0.866,1.665C150.771,115.646,150.752,116.218,150.627,116.891z M145.592,115.435c1.038,0.181,2.073,0.366,3.11,0.56
				c0.183,0.035,0.337,0.004,0.463-0.096c0.126-0.099,0.215-0.287,0.271-0.572c0.101-0.527,0.013-1.009-0.269-1.444
				c-0.283-0.435-0.666-0.697-1.146-0.785c-0.536-0.097-1.032,0.045-1.487,0.428C146.079,113.905,145.768,114.544,145.592,115.435z"
				/>
			<path fill="#FFFFFF" d="M158.663,121.295c0.058,0.153,0.115,0.307,0.174,0.462c-0.453,0.27-0.899,0.356-1.347,0.254
				c-0.339-0.077-0.604-0.23-0.796-0.458c-0.193-0.228-0.322-0.582-0.399-1.064c-0.587,0.371-1.076,0.598-1.475,0.681
				c-0.396,0.081-0.847,0.068-1.354-0.037c-0.72-0.15-1.236-0.412-1.551-0.785c-0.313-0.373-0.421-0.791-0.325-1.255
				c0.146-0.698,0.699-1.193,1.67-1.474c0.971-0.284,2.199-0.345,3.688-0.177c0.08-0.339,0.155-0.677,0.233-1.016
				c0.082-0.361-0.002-0.707-0.259-1.033c-0.259-0.326-0.629-0.541-1.109-0.645c-0.449-0.096-0.854-0.092-1.216,0.014
				c-0.255,0.08-0.403,0.184-0.428,0.308c-0.015,0.073,0.021,0.198,0.112,0.375c0.107,0.222,0.146,0.406,0.112,0.556
				c-0.044,0.215-0.156,0.373-0.335,0.479c-0.178,0.105-0.386,0.132-0.626,0.083c-0.255-0.051-0.452-0.175-0.589-0.373
				c-0.137-0.197-0.177-0.423-0.125-0.677c0.099-0.475,0.477-0.849,1.131-1.123c0.656-0.273,1.455-0.313,2.391-0.112
				c0.86,0.187,1.483,0.503,1.854,0.946c0.374,0.449,0.5,0.923,0.384,1.417c-0.286,1.218-0.571,2.438-0.859,3.655
				c-0.074,0.324-0.076,0.574-0.004,0.751c0.073,0.183,0.199,0.292,0.373,0.333C158.187,121.427,158.407,121.396,158.663,121.295z
				 M156.841,117.912c-1.333-0.119-2.306-0.038-2.924,0.227c-0.464,0.203-0.748,0.569-0.863,1.094
				c-0.081,0.366-0.037,0.677,0.122,0.928c0.159,0.252,0.409,0.411,0.737,0.48c0.594,0.126,1.152,0.021,1.686-0.309
				c0.532-0.333,0.875-0.818,1.023-1.462C156.694,118.552,156.769,118.23,156.841,117.912z"/>
			<path fill="#FFFFFF" d="M160.926,115.541c1.187,0.277,2.372,0.565,3.558,0.861c-0.043,0.161-0.083,0.322-0.125,0.483
				c-0.473-0.106-0.787-0.143-0.934-0.106c-0.146,0.039-0.239,0.117-0.271,0.246c-0.027,0.104-0.025,0.215-0.002,0.332
				c0.301,1.467,0.592,2.934,0.868,4.398c0.905-1.124,1.819-2.243,2.739-3.357c0.044-0.06,0.076-0.122,0.093-0.188
				c0.095-0.343-0.214-0.654-0.93-0.931c0.043-0.161,0.089-0.32,0.128-0.481c0.997,0.256,1.993,0.518,2.99,0.786
				c-0.043,0.159-0.091,0.32-0.134,0.48c-0.311-0.054-0.575-0.041-0.786,0.033c-0.212,0.075-0.396,0.203-0.551,0.386
				c-1.394,1.643-2.766,3.296-4.126,4.957c-0.135-0.033-0.27-0.068-0.403-0.103c-0.41-2.162-0.846-4.327-1.31-6.492
				c-0.051-0.231-0.14-0.408-0.265-0.526c-0.124-0.117-0.346-0.215-0.658-0.295C160.849,115.865,160.887,115.703,160.926,115.541z"
				/>
			<path fill="#FFFFFF" d="M175.432,123.033c-1.69-0.51-3.386-1.001-5.082-1.475c-0.269,1.012-0.275,1.777-0.024,2.296
				c0.293,0.585,0.768,0.974,1.432,1.164c0.978,0.282,1.923-0.005,2.85-0.867c0.143,0.114,0.285,0.229,0.426,0.343
				c-1.154,1.104-2.406,1.453-3.779,1.06c-0.936-0.269-1.625-0.808-2.082-1.625c-0.455-0.817-0.543-1.723-0.259-2.722
				c0.303-1.072,0.874-1.853,1.712-2.334c0.836-0.482,1.732-0.584,2.686-0.314c0.693,0.199,1.25,0.542,1.654,1.018
				c0.406,0.478,0.64,1.061,0.701,1.749C175.707,121.808,175.628,122.377,175.432,123.033z M170.496,121.059
				c1.024,0.286,2.058,0.58,3.084,0.881c0.181,0.053,0.341,0.039,0.479-0.047c0.134-0.084,0.245-0.264,0.333-0.542
				c0.158-0.513,0.118-1.003-0.119-1.465c-0.238-0.462-0.6-0.764-1.075-0.901c-0.532-0.154-1.051-0.062-1.548,0.271
				C171.149,119.586,170.769,120.189,170.496,121.059z"/>
			<path fill="#FFFFFF" d="M177.133,124.391c0.047,0.903,0.216,1.568,0.516,2.006c0.295,0.434,0.736,0.746,1.323,0.936
				c0.541,0.175,0.995,0.199,1.362,0.074c0.365-0.123,0.612-0.355,0.729-0.692c0.068-0.196,0.075-0.382,0.018-0.563
				c-0.058-0.181-0.168-0.339-0.335-0.474c-0.166-0.134-0.621-0.402-1.375-0.797c-0.719-0.382-1.202-0.697-1.454-0.945
				c-0.249-0.246-0.418-0.531-0.499-0.854c-0.082-0.32-0.071-0.643,0.033-0.96c0.152-0.478,0.472-0.862,0.95-1.143
				c0.614-0.357,1.337-0.405,2.156-0.146c0.623,0.201,1.143,0.565,1.551,1.096c0.225-0.108,0.449-0.215,0.673-0.321
				c0.104,0.034,0.211,0.069,0.314,0.104c-0.201,0.793-0.406,1.59-0.611,2.383c-0.169-0.057-0.336-0.112-0.506-0.168
				c0.004-0.73-0.131-1.302-0.417-1.717c-0.284-0.415-0.708-0.713-1.269-0.891c-0.486-0.154-0.904-0.166-1.25-0.036
				c-0.346,0.128-0.57,0.35-0.673,0.663c-0.089,0.274-0.036,0.542,0.156,0.803c0.188,0.264,0.627,0.562,1.311,0.902
				c0.797,0.398,1.304,0.685,1.524,0.857c0.366,0.274,0.61,0.596,0.735,0.958c0.122,0.363,0.11,0.754-0.036,1.169
				c-0.203,0.573-0.617,0.976-1.242,1.213s-1.308,0.237-2.05-0.003c-0.688-0.222-1.257-0.637-1.708-1.251
				c-0.246,0.138-0.492,0.276-0.738,0.416c-0.131-0.041-0.265-0.081-0.395-0.123c0.236-0.883,0.469-1.768,0.701-2.651
				C176.797,124.286,176.964,124.34,177.133,124.391z"/>
		</g>
	</g>
</g>
</svg>
