<?xml version="1.0" encoding="utf-8"?>
<!-- Generator: Adobe Illustrator 16.0.0, SVG Export Plug-In . SVG Version: 6.00 Build 0)  -->
<!DOCTYPE svg PUBLIC "-//W3C//DTD SVG 1.1//EN" "http://www.w3.org/Graphics/SVG/1.1/DTD/svg11.dtd">
<svg version="1.1" id="Livello_1" xmlns="http://www.w3.org/2000/svg" xmlns:xlink="http://www.w3.org/1999/xlink" x="0px" y="0px"
	 width="210px" height="200px" viewBox="0 0 210 200" enable-background="new 0 0 210 200" xml:space="preserve">
<g>
	<g>
		<circle fill="#0572B7" cx="105" cy="100" r="84"/>
		<circle fill="#0572B7" stroke="#FFFFFF" stroke-width="5" stroke-miterlimit="10" cx="105" cy="100" r="75.216"/>
		<path fill="none" d="M41.531,83.146h31.434v31.435H41.531V83.146z"/>
		<rect x="130.005" y="121.35" fill="none" width="24.543" height="24.956"/>
		<g>
			<g>
				<path fill="#55ABE0" stroke="#FFFFFF" stroke-miterlimit="10" d="M65.938,127.085l-8.353,1.761
					c4.722,8.347,11.686,15.49,20.472,20.428l1.18-8.916C73.711,136.958,69.212,132.376,65.938,127.085z"/>
				<path fill="#55ABE0" stroke="#FFFFFF" stroke-miterlimit="10" d="M79.714,64.14l-1.762-8.906
					c-8.346,4.721-15.488,11.686-20.427,20.473l8.917,1.732C69.841,71.911,74.423,67.413,79.714,64.14z"/>
				<path fill="#55ABE0" stroke="#FFFFFF" stroke-miterlimit="10" d="M143.212,76.808l8.354-1.207
					c-4.721-8.348-11.685-15.49-20.472-20.428l-1.18,8.363C135.441,66.934,139.94,71.517,143.212,76.808z"/>
				<path fill="#55ABE0" stroke="#FFFFFF" stroke-miterlimit="10" d="M95.226,147.021l-5.052,7.256
					c9.712,2.699,19.685,2.551,28.919-0.033l-5.078-7.247C107.962,148.437,101.541,148.511,95.226,147.021z"/>
				<path fill="#55ABE0" stroke="#FFFFFF" stroke-miterlimit="10" d="M156.595,87.705l-6.955,3.909
					c1.44,6.052,1.514,12.474,0.022,18.789l6.966,6.223C159.328,106.914,159.18,96.938,156.595,87.705z"/>
			</g>
			<path fill="#55ABE0" stroke="#FFFFFF" stroke-width="2" stroke-miterlimit="10" d="M112.116,73.646H88.041v58.177h13.757v-19.393
				h10.318c11.4,0,20.635-8.678,20.635-19.393S123.517,73.646,112.116,73.646z M112.804,99.502h-11.006V86.574h11.006
				c3.799,0,6.879,2.893,6.879,6.464C119.683,96.61,116.603,99.502,112.804,99.502z"/>
			<g>
				<g>
					<path fill="#FFFFFF" d="M62.595,90.234c1.289,0.03,2.367-0.993,2.396-2.288c0.029-1.297-0.999-2.368-2.288-2.398
						c-1.295-0.029-2.367,0.992-2.397,2.289C60.276,89.132,61.3,90.204,62.595,90.234z"/>
				</g>
				<g>
					<path fill="#FFFFFF" d="M62.935,99.487h6.355v-2.343h-4.722l-2.604-4.337c-0.384-0.65-1.093-1.08-1.901-1.08
						c-0.221,0-0.436,0.032-0.638,0.09l-7.064,2.201l-0.955,6.771h2.344l0.955-4.771l2.742-0.854l-5.086,19.948h2.344l3.737-10.56
						l3.034,4.05v6.51h2.343v-8.34l-3.242-5.912l0.958-3.735L62.935,99.487z"/>
				</g>
			</g>
			<path fill="#FFFFFF" d="M124.233,56.017c-0.981-3.08-3.608-5.095-6.572-5.062l-2.148,0.078l-0.68-1.706
				c-1.321-3.311-2.004-4.934-2.213-5.249c-0.208-0.315-0.232-0.319-2.189-0.319c-1.733,0-2.007,0.03-2.155,0.231
				c-0.242,0.317-0.229,0.513,0.074,0.816c0.233,0.232,0.439,0.262,1.756,0.262c1.04,0,1.531,0.05,1.616,0.164
				c0.147,0.195,0.694,1.531,0.694,1.691c0,0.062-2.742,0.11-6.093,0.11h-6.096l-0.259-0.514c-0.146-0.287-0.267-0.546-0.267-0.577
				c0-0.035,0.624-0.131,1.388-0.224c1.555-0.184,2.125-0.458,1.751-0.839c-0.167-0.173-0.635-0.213-2.714-0.238
				c-1.71-0.02-2.562,0.016-2.659,0.116c-0.079,0.079-0.126,0.374-0.103,0.654c0.037,0.45,0.074,0.706,0.49,0.657l0.63-0.081
				l0.819,1.544l-2.559,3.923c-1.824-0.547-3.48-0.671-5.354-0.067c-0.901,0.379-2.179,1.286-2.763,1.971
				c-0.765,0.893-1.365,2.244-1.545,3.479c-0.02,0.137-0.033,0.275-0.043,0.41v0.938c0.193,2.657,2.037,5.144,4.615,5.999
				c1.196,0.401,1.225,0.405,2.476,0.362c0.935-0.032,1.389-0.124,2.2-0.438c1.18-0.459,1.73-0.915,2.962-2.258
				c1.247-1.367,1.377-2.924,1.426-3.339c0.103-0.036,1.123-0.071,2.27-0.071h2.088l0.019,1.05c0.012,0.577-0.029,1.312-0.023,1.439
				c0.01,0.18-0.056,0.076-0.496,0.107c-0.499,0.033-0.562,0.075-0.524,0.327c0.031,0.23,0.142,0.3,0.552,0.331
				c0.28,0.025,0.959-0.083,1.129-0.126l0.035-3.168l0.883-1.1c0.502-0.635,0.959-1.213,1.013-1.283
				c0.057-0.074,0.313-0.398,0.57-0.724c0.255-0.324,1.456-1.843,2.667-3.376c1.211-1.531,2.24-2.787,2.294-2.787
				c0.056,0,0.161,0.135,0.237,0.3c0.47,0.984,0.721,1.642,0.78,2.023c0.063,0.374,0.028,0.444-0.274,0.56
				c-0.519,0.198-1.938,1.702-2.356,2.505c-0.523,1-0.87,2.277-0.87,3.229c0,1.405,0.946,3.726,1.914,4.689
				c2.631,2.631,6.422,2.869,9.286,0.588c1-0.89,1.848-2.055,2.255-3.34C124.445,58.747,124.483,56.794,124.233,56.017z
				 M97.294,53.462c0.921,0.834,1.812,1.658,1.978,3.495l-4.212,0.061L97.294,53.462z M93.595,62.978
				c-2.516-0.084-5.165-2.008-5.138-5.539c0.022-3.49,3.771-5.908,7.668-4.562c-1.025,1.809-3.382,4.9-3.097,5.291
				c0.295,0.407,0.853,0.271,3.5,0.271h2.815C99.057,62.346,95.127,63.026,93.595,62.978z M100.687,56.937
				c-0.381-1.876-1.46-3.381-2.753-4.767l1.842-3.038c0.077,0,0.425,0.516,0.776,1.144c0.353,0.633,1.337,2.385,2.191,3.893
				c0.854,1.506,1.538,2.808,1.477,2.808L100.687,56.937z M108.823,52.424c-0.095,0.111-0.471,0.626-0.87,1.112l-2.219,2.702
				l-0.002-1.694c0.339-0.01,1.027-0.005,1.004-0.437c-0.019-0.435-0.972-0.315-1.633-0.286l0.066,2.474l-4.057-7.95h5.324
				c4.473,0,5.324,0.031,5.324,0.186C111.762,48.672,110.264,50.655,108.823,52.424z M121.434,61.693
				c-1.398,1.352-3.437,1.899-5.23,1.407c-2.697-0.744-4.485-3.369-4.074-5.986c0.229-1.458,0.624-2.285,1.532-3.21
				c1.056-1.08,1.248-1.085,1.639-0.055c0.094,0.252,0.299,0.759,0.455,1.117c0.156,0.361,0.516,1.229,0.8,1.93
				c0.579,1.435,0.91,1.769,1.368,1.353c0.375-0.524,0.045-1.295-0.368-2.189c-0.222-0.404-1.338-3.413-1.338-3.609
				c0.313-0.312,1.038-0.16,1.476-0.146c1.255,0.056,1.587,0.12,2.243,0.425c0.972,0.454,2.231,1.715,2.687,2.693
				c0.301,0.648,0.542,0.9,0.559,2.39C123.36,59.321,122.414,60.616,121.434,61.693z"/>
			<path fill="#FFFFFF" d="M147.798,124.458c-0.936-1.6-2.049-1.948-3.838-2.408c-1.787-0.46-3.591-0.529-5.157-0.529
				s-3.369,0.069-5.157,0.529c-1.787,0.46-2.915,0.809-3.851,2.408c-0.937,1.6-1.637,9.74-1.637,10.16c0,0.422,0,9.192,0,9.192
				h1.116c0,0.559,0,2.46,0,2.48c0,0.787,1.166,1.427,1.953,1.427c0.788,0,1.954-0.64,1.954-1.427c0-0.021,0-1.922,0-2.48h11.432
				c0,0.559-0.002,2.207,0,2.228c0.181,1.427,1.518,1.553,2.305,1.553s1.334-0.513,1.334-1.3c0-0.021,0-1.922,0-2.48h1.176
				c0,0,0.002-8.313,0.002-8.773C149.43,134.578,148.734,126.058,147.798,124.458z M134.856,122.601h8.371v2.233h-8.371V122.601z
				 M132.159,142.202c-1.4,0-2.535-1.134-2.535-2.532s1.135-2.532,2.535-2.532c1.398,0,2.533,1.134,2.533,2.532
				S133.558,142.202,132.159,142.202z M129.825,134.322c0,0,0.587-6.768,1.216-7.396c0.627-0.628,14.896-0.554,15.522,0.075
				c0.63,0.627,1.214,7.321,1.214,7.321H129.825z M145.159,142.202c-1.398,0-2.535-1.134-2.535-2.532s1.137-2.532,2.535-2.532
				c1.396,0,2.533,1.134,2.533,2.532S146.556,142.202,145.159,142.202z"/>
		</g>
	</g>
	<g>
		<g>
			<path fill="#328ACA" stroke="#FFFFFF" stroke-width="2" stroke-miterlimit="10" d="M196.483,137.891
				c-2.533-5.82-5.349-11.609-8.445-17.347c6.004-2.538,12.219-4.851,18.63-6.915C142.695,86.773,70.55,86.942,6.681,114.138
				c0.04,0.095,0.08,0.188,0.12,0.282c6.617,2.096,13.025,4.457,19.212,7.058c-2.9,5.432-5.547,10.909-7.942,16.415
				C75.126,113.939,139.427,113.938,196.483,137.891L196.483,137.891L196.483,137.891z"/>
		</g>
	</g>
	<g>
		<g>
			<path fill="#FFFFFF" d="M30.494,113.548c0.99,2.996,1.991,5.991,3.003,8.986c0.046,0.134,0.132,0.22,0.259,0.26
				c0.183,0.054,0.383,0.046,0.598-0.021c0.5-0.157,1-0.312,1.498-0.466c0.059,0.181,0.118,0.361,0.177,0.541
				c-1.848,0.568-3.692,1.16-5.534,1.775c-0.062-0.178-0.127-0.356-0.191-0.536c0.426-0.143,0.851-0.283,1.277-0.424
				c0.268-0.089,0.445-0.211,0.532-0.369c0.088-0.16,0.1-0.336,0.03-0.533c-0.778-2.258-1.55-4.517-2.315-6.776
				c-0.048-0.141-0.148-0.235-0.304-0.294c-0.154-0.056-0.328-0.051-0.521,0.011c-0.592,0.192-1.183,0.388-1.773,0.586
				c-0.058-0.164-0.114-0.329-0.173-0.493c0.8-0.374,1.435-0.726,1.899-1.055c0.464-0.329,0.853-0.687,1.164-1.072
				C30.245,113.626,30.369,113.588,30.494,113.548z"/>
			<path fill="#FFFFFF" d="M38.628,110.907c1.053-0.297,2.033-0.167,2.94,0.385c1.119,0.675,1.925,1.947,2.435,3.799
				c0.475,1.721,0.471,3.127-0.001,4.219c-0.47,1.093-1.207,1.777-2.225,2.065c-0.981,0.275-1.914,0.138-2.807-0.418
				c-1.117-0.701-1.964-1.935-2.521-3.711c-0.529-1.688-0.547-3.155-0.043-4.392C36.811,111.861,37.554,111.21,38.628,110.907z
				 M38.83,111.418c-0.711,0.199-1.178,0.665-1.389,1.393c-0.213,0.726-0.024,2.05,0.562,3.978c0.574,1.882,1.16,3.079,1.748,3.595
				c0.588,0.513,1.21,0.678,1.876,0.49c0.67-0.189,1.099-0.624,1.293-1.305c0.229-0.812,0.084-2.142-0.438-3.983
				c-0.539-1.907-1.105-3.129-1.707-3.66C40.175,111.394,39.523,111.221,38.83,111.418z"/>
			<path fill="#FFFFFF" d="M48.356,107.862c1.979-0.473,3.96-0.921,5.942-1.345c1.343-0.288,2.426-0.22,3.246,0.193
				c0.817,0.412,1.314,1.069,1.494,1.965c0.18,0.898-0.003,1.642-0.544,2.239c-0.742,0.822-1.748,1.367-3.029,1.642
				c-0.697,0.149-1.396,0.303-2.093,0.459c0.287,1.241,0.576,2.484,0.867,3.727c0.05,0.216,0.143,0.361,0.273,0.429
				c0.172,0.085,0.382,0.102,0.624,0.047c0.437-0.094,0.872-0.19,1.308-0.283c0.042,0.185,0.084,0.369,0.125,0.555
				c-1.842,0.396-3.68,0.812-5.517,1.251c-0.046-0.183-0.092-0.367-0.139-0.551c0.384-0.093,0.769-0.183,1.155-0.273
				c0.229-0.055,0.387-0.135,0.473-0.247c0.086-0.11,0.111-0.239,0.076-0.387c-0.701-2.896-1.394-5.792-2.079-8.688
				c-0.053-0.222-0.163-0.367-0.326-0.432c-0.162-0.063-0.443-0.053-0.833,0.039c-0.296,0.07-0.594,0.14-0.89,0.211
				C48.447,108.229,48.402,108.046,48.356,107.862z M53.248,112.476c0.532-0.118,1.064-0.235,1.597-0.352
				c1.011-0.218,1.699-0.566,2.064-1.052c0.363-0.486,0.453-1.181,0.264-2.085c-0.131-0.632-0.335-1.096-0.611-1.393
				c-0.275-0.297-0.63-0.484-1.063-0.565c-0.432-0.079-1.103-0.023-2.012,0.175c-0.601,0.129-0.969,0.267-1.104,0.405
				s-0.175,0.337-0.116,0.593C52.591,109.627,52.919,111.052,53.248,112.476z"/>
			<path fill="#FFFFFF" d="M69.153,114.347c0.116,0.124,0.232,0.248,0.35,0.373c-0.318,0.435-0.709,0.686-1.17,0.764
				c-0.353,0.056-0.666,0.016-0.94-0.129c-0.272-0.144-0.542-0.431-0.806-0.862c-0.408,0.581-0.782,0.987-1.126,1.22
				c-0.344,0.231-0.775,0.394-1.3,0.489c-0.748,0.136-1.345,0.09-1.795-0.146c-0.45-0.232-0.723-0.589-0.818-1.07
				c-0.146-0.723,0.186-1.408,0.996-2.056c0.812-0.646,1.956-1.184,3.438-1.601c-0.062-0.352-0.122-0.706-0.186-1.059
				c-0.065-0.376-0.285-0.674-0.658-0.886c-0.372-0.214-0.812-0.277-1.313-0.187c-0.466,0.083-0.851,0.246-1.152,0.485
				c-0.217,0.179-0.311,0.331-0.286,0.46c0.013,0.076,0.102,0.18,0.257,0.313c0.192,0.171,0.303,0.333,0.331,0.487
				c0.042,0.223,0,0.42-0.128,0.589c-0.125,0.17-0.313,0.277-0.562,0.323c-0.266,0.049-0.501,0.006-0.713-0.129
				c-0.209-0.134-0.341-0.335-0.392-0.596c-0.097-0.49,0.113-0.997,0.63-1.514c0.518-0.515,1.265-0.863,2.235-1.035
				c0.896-0.157,1.609-0.095,2.142,0.186c0.531,0.285,0.841,0.686,0.929,1.205c0.216,1.273,0.431,2.548,0.647,3.821
				c0.06,0.338,0.158,0.578,0.3,0.719c0.144,0.146,0.305,0.204,0.487,0.174C68.754,114.655,68.954,114.54,69.153,114.347z
				 M66.068,111.821c-1.311,0.402-2.208,0.859-2.69,1.352c-0.359,0.374-0.485,0.831-0.379,1.379c0.072,0.381,0.237,0.66,0.491,0.837
				s0.553,0.234,0.896,0.171c0.615-0.109,1.104-0.425,1.476-0.947c0.371-0.523,0.502-1.12,0.384-1.791
				C66.186,112.487,66.127,112.155,66.068,111.821z"/>
			<path fill="#FFFFFF" d="M69.209,107.944c0.897-0.182,1.794-0.358,2.692-0.53c0.139,0.946,0.276,1.893,0.416,2.84
				c0.15-0.974,0.393-1.732,0.731-2.267c0.339-0.535,0.811-0.847,1.412-0.926c0.409-0.055,0.75,0.021,1.024,0.222
				c0.274,0.202,0.438,0.498,0.487,0.889c0.042,0.313-0.01,0.569-0.148,0.767c-0.14,0.194-0.33,0.311-0.576,0.341
				c-0.238,0.032-0.441-0.018-0.609-0.149c-0.167-0.131-0.268-0.322-0.302-0.578c-0.023-0.163-0.001-0.324,0.064-0.481
				c0.062-0.142,0.093-0.224,0.089-0.248c-0.01-0.076-0.067-0.105-0.168-0.093c-0.22,0.029-0.453,0.183-0.695,0.46
				c-0.34,0.388-0.568,0.891-0.693,1.503c-0.188,0.954-0.238,1.704-0.159,2.246c0.074,0.503,0.147,1.005,0.222,1.507
				c0.024,0.168,0.108,0.292,0.245,0.362c0.138,0.073,0.36,0.088,0.662,0.046c0.309-0.044,0.62-0.085,0.931-0.127
				c0.025,0.187,0.052,0.374,0.079,0.562c-1.515,0.204-3.029,0.422-4.541,0.656c-0.03-0.188-0.06-0.372-0.091-0.561
				c0.242-0.037,0.484-0.075,0.727-0.111c0.247-0.037,0.423-0.111,0.534-0.222c0.11-0.109,0.157-0.229,0.137-0.36
				c-0.229-1.49-0.456-2.979-0.681-4.469c-0.053-0.34-0.167-0.576-0.345-0.71c-0.181-0.134-0.415-0.181-0.703-0.137
				c-0.22,0.034-0.438,0.065-0.657,0.101C69.266,108.298,69.237,108.122,69.209,107.944z"/>
			<path fill="#FFFFFF" d="M76.004,102.857c0.973-0.162,1.945-0.322,2.919-0.473c0.29,2.564,0.581,5.128,0.876,7.692
				c0.729-0.756,1.467-1.506,2.21-2.256c0.214-0.221,0.313-0.402,0.299-0.548c-0.013-0.126-0.092-0.215-0.238-0.271
				c-0.219-0.079-0.563-0.098-1.035-0.059c-0.019-0.178-0.037-0.352-0.057-0.528c1.342-0.142,2.681-0.271,4.022-0.39
				c0.015,0.177,0.031,0.352,0.048,0.527c-0.791,0.11-1.378,0.365-1.761,0.756c-0.528,0.533-1.055,1.068-1.575,1.606
				c1.057,1.109,2.099,2.227,3.128,3.349c0.187,0.202,0.487,0.282,0.899,0.246c0.136-0.012,0.272-0.023,0.408-0.035
				c0.018,0.188,0.033,0.375,0.051,0.565c-1.336,0.114-2.669,0.241-4.004,0.38c-0.021-0.188-0.042-0.375-0.062-0.563
				c0.135-0.016,0.266-0.028,0.4-0.042c0.299-0.029,0.494-0.075,0.592-0.136c0.098-0.06,0.141-0.127,0.135-0.196
				c-0.007-0.068-0.041-0.139-0.101-0.202c-0.759-0.829-1.526-1.657-2.3-2.481c-0.326,0.34-0.651,0.682-0.976,1.023
				c0.068,0.595,0.137,1.188,0.206,1.781c0.018,0.145,0.08,0.248,0.186,0.308c0.152,0.08,0.354,0.105,0.604,0.078
				c0.17-0.02,0.339-0.034,0.509-0.056c0.021,0.188,0.042,0.376,0.062,0.564c-1.31,0.14-2.621,0.291-3.93,0.453
				c-0.024-0.189-0.049-0.377-0.072-0.563c0.211-0.025,0.424-0.053,0.635-0.078c0.261-0.029,0.446-0.108,0.56-0.227
				s0.158-0.268,0.137-0.443c-0.351-2.896-0.699-5.792-1.044-8.688c-0.025-0.228-0.125-0.383-0.295-0.468
				c-0.247-0.125-0.563-0.163-0.951-0.116c-0.137,0.02-0.277,0.036-0.415,0.053C76.052,103.232,76.027,103.047,76.004,102.857z"/>
			<path fill="#FFFFFF" d="M91.597,106.175c0.764,1.062,1.341,1.843,1.734,2.331c0.396,0.488,0.82,0.967,1.279,1.433
				c0.774-1.019,1.157-1.832,1.128-2.448c-0.012-0.275-0.127-0.49-0.342-0.644c-0.218-0.15-0.533-0.218-0.951-0.196
				c-0.142,0.007-0.285,0.016-0.426,0.022c-0.009-0.173-0.02-0.348-0.028-0.521c1.491-0.078,2.983-0.142,4.474-0.191
				c0.007,0.173,0.012,0.347,0.018,0.521c-0.112,0.004-0.225,0.008-0.337,0.012c-0.289,0.009-0.526,0.058-0.709,0.146
				c-0.184,0.09-0.354,0.221-0.503,0.396c-0.152,0.174-0.329,0.495-0.532,0.957c-0.414,0.93-0.862,1.721-1.345,2.364
				c0.758,0.671,1.397,0.995,1.932,0.975c0.325-0.014,0.592-0.147,0.799-0.402c0.21-0.256,0.34-0.687,0.391-1.295
				c0.166-0.006,0.335-0.011,0.499-0.017c0.033,0.943-0.156,1.666-0.559,2.17c-0.402,0.505-0.922,0.77-1.564,0.796
				c-0.359,0.016-0.729-0.056-1.111-0.215c-0.382-0.158-0.849-0.455-1.402-0.892c-0.584,0.496-1.106,0.848-1.57,1.052
				c-0.464,0.205-0.967,0.323-1.509,0.36c-0.983,0.064-1.82-0.18-2.515-0.738c-0.693-0.559-1.08-1.28-1.156-2.171
				c-0.058-0.684,0.101-1.317,0.474-1.898c0.375-0.578,1.086-1.182,2.144-1.797c-0.579-0.946-0.897-1.746-0.944-2.399
				c-0.051-0.709,0.184-1.335,0.708-1.871c0.526-0.536,1.199-0.83,2.014-0.88c0.778-0.047,1.401,0.103,1.87,0.448
				c0.468,0.344,0.716,0.821,0.746,1.431c0.03,0.58-0.156,1.122-0.556,1.624C93.348,105.142,92.629,105.651,91.597,106.175z
				 M90.229,106.855c-1.088,0.663-1.595,1.415-1.531,2.239c0.051,0.635,0.36,1.281,0.93,1.939c0.57,0.66,1.233,0.967,2.005,0.916
				c0.654-0.04,1.304-0.334,1.958-0.881c-0.543-0.556-1.035-1.108-1.479-1.655C91.668,108.866,91.046,108.014,90.229,106.855z
				 M91.254,105.61c0.754-0.366,1.267-0.734,1.538-1.11s0.394-0.817,0.365-1.32c-0.025-0.474-0.181-0.841-0.467-1.104
				c-0.287-0.26-0.64-0.378-1.06-0.354c-0.416,0.024-0.752,0.181-1.007,0.461c-0.256,0.282-0.368,0.642-0.338,1.08
				C90.328,103.901,90.655,104.683,91.254,105.61z"/>
			<path fill="#FFFFFF" d="M99.654,101.062c2.09-0.059,4.18-0.092,6.271-0.098c1.216-0.003,2.158,0.257,2.822,0.771
				c0.664,0.516,0.987,1.189,0.978,2.017c-0.006,0.494-0.143,0.933-0.408,1.316c-0.267,0.382-0.644,0.688-1.136,0.914
				c-0.492,0.225-1.262,0.389-2.311,0.492c0.765,0.193,1.288,0.389,1.575,0.578c0.285,0.189,0.518,0.437,0.687,0.737
				c0.169,0.302,0.365,0.915,0.581,1.84c0.155,0.661,0.319,1.115,0.495,1.36c0.132,0.187,0.279,0.281,0.438,0.284
				c0.161,0.002,0.313-0.11,0.456-0.338c0.143-0.229,0.234-0.633,0.276-1.211c0.179,0.003,0.358,0.005,0.538,0.009
				c-0.134,1.715-0.802,2.558-2.013,2.547c-0.38-0.004-0.709-0.098-0.987-0.288c-0.278-0.188-0.488-0.464-0.629-0.827
				c-0.111-0.271-0.23-0.987-0.368-2.143c-0.077-0.672-0.204-1.147-0.379-1.431c-0.172-0.283-0.444-0.51-0.812-0.68
				c-0.369-0.168-0.812-0.252-1.324-0.247c-0.325,0.002-0.649,0.007-0.972,0.011c0.021,1.466,0.041,2.931,0.061,4.396
				c0.004,0.188,0.055,0.318,0.156,0.393c0.126,0.094,0.322,0.139,0.59,0.138c0.371-0.004,0.744-0.007,1.115-0.01
				c0,0.188,0.002,0.38,0.003,0.568c-1.794,0.009-3.588,0.039-5.381,0.091c-0.005-0.189-0.011-0.379-0.017-0.567
				c0.379-0.01,0.758-0.021,1.138-0.029c0.253-0.006,0.436-0.06,0.552-0.156c0.115-0.1,0.172-0.232,0.168-0.398
				c-0.062-2.979-0.123-5.963-0.185-8.943c-0.003-0.19-0.071-0.333-0.198-0.428c-0.127-0.092-0.32-0.136-0.575-0.131
				c-0.397,0.009-0.792,0.021-1.188,0.031C99.665,101.439,99.66,101.251,99.654,101.062z M103.426,106.131
				c0.468-0.007,0.938-0.011,1.406-0.016c0.943-0.007,1.68-0.173,2.215-0.509c0.536-0.335,0.807-0.928,0.811-1.785
				c0.003-0.589-0.097-1.055-0.3-1.398s-0.469-0.579-0.804-0.704c-0.334-0.126-0.987-0.189-1.965-0.183
				c-0.646,0.006-1.041,0.053-1.194,0.138s-0.227,0.229-0.225,0.43C103.389,103.445,103.407,104.787,103.426,106.131z"/>
			<path fill="#FFFFFF" d="M111.686,105.114c1.004-0.007,2.009-0.008,3.013-0.002c-0.067,2.031-0.135,4.065-0.204,6.097
				c-0.006,0.167,0.032,0.286,0.113,0.359c0.117,0.105,0.267,0.16,0.451,0.167c0.278,0.011,0.556,0.021,0.832,0.031
				c-0.008,0.19-0.016,0.378-0.021,0.567c-1.392-0.055-2.785-0.097-4.175-0.126c0.004-0.188,0.007-0.377,0.012-0.567
				c0.26,0.007,0.517,0.013,0.777,0.019c0.229,0.005,0.401-0.045,0.511-0.15s0.168-0.259,0.175-0.469
				c0.042-1.487,0.081-2.975,0.124-4.464c0.008-0.281-0.072-0.497-0.239-0.646c-0.17-0.147-0.422-0.229-0.761-0.234
				c-0.207-0.005-0.413-0.01-0.619-0.014C111.678,105.493,111.68,105.304,111.686,105.114z M113.908,100.938
				c0.245,0.007,0.46,0.098,0.641,0.277c0.181,0.177,0.266,0.381,0.259,0.614c-0.009,0.228-0.104,0.419-0.289,0.581
				c-0.186,0.16-0.403,0.235-0.652,0.23c-0.249-0.007-0.465-0.098-0.642-0.272c-0.178-0.174-0.264-0.372-0.258-0.601
				c0.005-0.228,0.104-0.424,0.293-0.591C113.451,101.013,113.665,100.931,113.908,100.938z"/>
			<path fill="#FFFFFF" d="M121.568,101.407c1.004,0.018,2.008,0.04,3.012,0.07c-0.232,3.226-0.469,6.452-0.708,9.678
				c-0.026,0.376,0.025,0.65,0.164,0.824c0.137,0.172,0.354,0.268,0.652,0.291c0.17,0.012,0.34,0.025,0.51,0.039
				c-0.015,0.189-0.03,0.378-0.045,0.565c-0.833-0.063-1.67-0.126-2.505-0.182c-0.029-0.485-0.06-0.97-0.089-1.455
				c-0.335,0.492-0.709,0.858-1.125,1.092c-0.417,0.235-0.872,0.338-1.368,0.309c-0.833-0.047-1.525-0.42-2.082-1.122
				c-0.557-0.703-0.813-1.608-0.764-2.718c0.052-1.203,0.477-2.141,1.286-2.819c0.636-0.53,1.35-0.773,2.142-0.729
				c0.482,0.026,0.913,0.167,1.281,0.418c0.372,0.25,0.684,0.615,0.935,1.092c0.092-1.331,0.182-2.664,0.27-3.995
				c0.015-0.211-0.062-0.384-0.232-0.52c-0.169-0.134-0.442-0.214-0.818-0.238c-0.183-0.011-0.366-0.022-0.548-0.033
				C121.547,101.784,121.558,101.597,121.568,101.407z M120.829,105.891c-0.579-0.035-1.054,0.167-1.417,0.596
				c-0.363,0.433-0.571,1.18-0.626,2.242c-0.06,1.152,0.071,1.975,0.387,2.464c0.315,0.49,0.737,0.747,1.271,0.779
				c0.572,0.031,1.075-0.199,1.517-0.701c0.439-0.499,0.699-1.255,0.768-2.266c0.066-0.957-0.105-1.725-0.514-2.303
				C121.861,106.193,121.398,105.923,120.829,105.891z"/>
			<path fill="#FFFFFF" d="M133.207,110.123c-1.775-0.198-3.552-0.373-5.328-0.53c-0.07,1.078,0.07,1.854,0.422,2.333
				c0.406,0.54,0.952,0.841,1.647,0.908c1.023,0.1,1.903-0.372,2.656-1.423c0.163,0.091,0.327,0.178,0.489,0.268
				c-0.932,1.338-2.104,1.934-3.541,1.793c-0.979-0.094-1.771-0.51-2.383-1.252c-0.61-0.741-0.877-1.643-0.787-2.709
				c0.096-1.146,0.509-2.046,1.249-2.693c0.738-0.647,1.611-0.927,2.605-0.831c0.731,0.07,1.345,0.312,1.84,0.718
				c0.493,0.406,0.837,0.954,1.031,1.641C133.243,108.827,133.275,109.418,133.207,110.123z M127.928,109.058
				c1.077,0.096,2.153,0.197,3.23,0.307c0.193,0.021,0.346-0.027,0.467-0.139c0.118-0.112,0.193-0.314,0.225-0.612
				c0.061-0.552-0.074-1.039-0.399-1.464c-0.326-0.425-0.74-0.66-1.241-0.709c-0.559-0.056-1.053,0.135-1.486,0.568
				C128.293,107.442,128.027,108.124,127.928,109.058z"/>
			<path fill="#FFFFFF" d="M142.832,103.467c-0.503,3.392-1.009,6.78-1.522,10.168c-0.022,0.139,0.007,0.255,0.082,0.343
				c0.118,0.119,0.269,0.19,0.455,0.22c0.258,0.037,0.516,0.077,0.774,0.116c-0.029,0.188-0.059,0.373-0.088,0.562
				c-1.383-0.21-2.764-0.409-4.145-0.595c0.026-0.186,0.051-0.373,0.077-0.562c0.247,0.032,0.49,0.066,0.737,0.1
				c0.238,0.033,0.428,0.003,0.56-0.091c0.133-0.092,0.214-0.239,0.244-0.439c0.414-2.847,0.824-5.695,1.229-8.543
				c0.036-0.249-0.012-0.443-0.141-0.577c-0.18-0.188-0.415-0.302-0.711-0.343c-0.228-0.031-0.457-0.062-0.686-0.093
				c0.025-0.188,0.052-0.375,0.076-0.562C140.794,103.263,141.812,103.361,142.832,103.467z"/>
			<path fill="#FFFFFF" d="M150.937,112.747c-1.769-0.328-3.539-0.637-5.31-0.925c-0.151,1.068-0.068,1.854,0.246,2.356
				c0.365,0.569,0.891,0.908,1.583,1.029c1.021,0.177,1.942-0.229,2.777-1.22c0.158,0.101,0.315,0.202,0.47,0.303
				c-1.037,1.266-2.26,1.771-3.692,1.523c-0.977-0.166-1.739-0.64-2.295-1.425c-0.558-0.786-0.755-1.705-0.584-2.762
				c0.183-1.139,0.666-2.001,1.457-2.594c0.792-0.591,1.687-0.803,2.679-0.633c0.729,0.124,1.328,0.408,1.793,0.853
				c0.467,0.442,0.769,1.016,0.912,1.714C151.071,111.459,151.059,112.049,150.937,112.747z M145.717,111.29
				c1.073,0.175,2.148,0.357,3.221,0.548c0.19,0.032,0.35-0.001,0.478-0.104c0.127-0.103,0.22-0.299,0.273-0.594
				c0.1-0.545,0.004-1.041-0.291-1.489s-0.693-0.714-1.192-0.8c-0.558-0.097-1.068,0.057-1.534,0.455
				C146.204,109.706,145.889,110.366,145.717,111.29z"/>
			<path fill="#FFFFFF" d="M159.274,117.235c0.062,0.159,0.123,0.316,0.184,0.476c-0.465,0.284-0.93,0.375-1.389,0.273
				c-0.353-0.078-0.627-0.235-0.826-0.469s-0.34-0.599-0.419-1.098c-0.604,0.386-1.11,0.626-1.519,0.714
				c-0.407,0.088-0.874,0.078-1.397-0.027c-0.746-0.15-1.279-0.413-1.607-0.798c-0.329-0.384-0.444-0.813-0.349-1.294
				c0.146-0.723,0.712-1.238,1.713-1.537c0.999-0.298,2.273-0.374,3.812-0.21c0.078-0.351,0.154-0.703,0.232-1.052
				c0.08-0.373-0.008-0.731-0.276-1.064c-0.266-0.333-0.651-0.557-1.152-0.659c-0.466-0.097-0.884-0.085-1.257,0.024
				c-0.266,0.085-0.413,0.191-0.441,0.319c-0.015,0.075,0.023,0.204,0.12,0.388c0.113,0.229,0.153,0.42,0.122,0.573
				c-0.046,0.222-0.16,0.388-0.344,0.498c-0.182,0.11-0.398,0.143-0.646,0.092c-0.265-0.052-0.468-0.18-0.612-0.382
				c-0.144-0.202-0.188-0.436-0.136-0.697c0.099-0.492,0.483-0.884,1.16-1.171s1.505-0.335,2.473-0.134
				c0.894,0.187,1.533,0.51,1.926,0.966c0.39,0.462,0.523,0.949,0.408,1.461c-0.286,1.262-0.574,2.521-0.862,3.783
				c-0.076,0.335-0.076,0.593,0.001,0.776c0.079,0.187,0.206,0.303,0.389,0.341C158.783,117.375,159.015,117.343,159.274,117.235z
				 M157.368,113.752c-1.376-0.112-2.384-0.02-3.021,0.257c-0.476,0.213-0.769,0.593-0.882,1.138
				c-0.08,0.381-0.034,0.699,0.135,0.956c0.169,0.259,0.424,0.421,0.766,0.491c0.612,0.126,1.189,0.014,1.737-0.332
				c0.547-0.346,0.898-0.852,1.046-1.518C157.222,114.414,157.295,114.083,157.368,113.752z"/>
			<path fill="#FFFFFF" d="M161.577,111.276c1.229,0.28,2.458,0.57,3.687,0.871c-0.041,0.168-0.084,0.333-0.126,0.5
				c-0.492-0.107-0.813-0.145-0.967-0.106c-0.153,0.041-0.246,0.124-0.28,0.258c-0.025,0.107-0.025,0.222,0.001,0.343
				c0.319,1.513,0.629,3.028,0.922,4.54c0.929-1.166,1.868-2.326,2.815-3.482c0.044-0.061,0.077-0.124,0.095-0.194
				c0.095-0.355-0.229-0.678-0.966-0.956c0.043-0.166,0.086-0.332,0.13-0.498c1.034,0.26,2.065,0.524,3.097,0.799
				c-0.045,0.166-0.092,0.331-0.137,0.496c-0.32-0.052-0.591-0.04-0.812,0.038c-0.222,0.08-0.409,0.211-0.567,0.401
				c-1.434,1.703-2.847,3.417-4.241,5.142c-0.14-0.035-0.278-0.069-0.418-0.104c-0.434-2.233-0.897-4.467-1.392-6.702
				c-0.055-0.239-0.146-0.422-0.278-0.542c-0.13-0.12-0.358-0.222-0.681-0.301C161.499,111.611,161.539,111.442,161.577,111.276z"/>
			<path fill="#FFFFFF" d="M176.618,118.964c-1.752-0.523-3.505-1.028-5.261-1.512c-0.275,1.047-0.278,1.837-0.017,2.372
				c0.304,0.606,0.798,1.003,1.481,1.199c1.011,0.289,1.988-0.01,2.945-0.904c0.146,0.118,0.294,0.236,0.441,0.354
				c-1.192,1.145-2.488,1.509-3.906,1.104c-0.965-0.272-1.681-0.829-2.155-1.672c-0.474-0.844-0.569-1.781-0.279-2.812
				c0.313-1.109,0.897-1.919,1.763-2.418c0.863-0.501,1.795-0.611,2.776-0.333c0.723,0.206,1.298,0.558,1.717,1.049
				c0.423,0.492,0.666,1.094,0.73,1.806C176.898,117.695,176.82,118.284,176.618,118.964z M171.507,116.935
				c1.064,0.291,2.13,0.594,3.192,0.902c0.188,0.053,0.353,0.039,0.494-0.051c0.142-0.086,0.256-0.274,0.343-0.559
				c0.163-0.531,0.122-1.037-0.127-1.515c-0.25-0.479-0.621-0.789-1.116-0.928c-0.552-0.156-1.087-0.065-1.601,0.281
				C172.177,115.412,171.784,116.035,171.507,116.935z"/>
			<path fill="#FFFFFF" d="M178.38,120.364c0.05,0.932,0.227,1.621,0.535,2.07c0.308,0.451,0.765,0.771,1.37,0.966
				c0.559,0.181,1.028,0.208,1.408,0.077c0.379-0.128,0.633-0.368,0.753-0.716c0.071-0.202,0.077-0.396,0.018-0.583
				c-0.06-0.187-0.172-0.35-0.346-0.488c-0.171-0.139-0.646-0.414-1.423-0.823c-0.742-0.396-1.246-0.719-1.506-0.976
				c-0.262-0.255-0.434-0.55-0.519-0.883c-0.085-0.334-0.073-0.664,0.031-0.992c0.159-0.496,0.488-0.89,0.981-1.183
				c0.64-0.367,1.386-0.421,2.233-0.15c0.646,0.206,1.185,0.582,1.607,1.132c0.231-0.112,0.464-0.221,0.696-0.332
				c0.109,0.037,0.217,0.071,0.327,0.108c-0.209,0.821-0.42,1.642-0.632,2.463c-0.174-0.059-0.351-0.117-0.525-0.173
				c0.005-0.756-0.139-1.347-0.433-1.775c-0.293-0.428-0.733-0.735-1.314-0.921c-0.501-0.161-0.935-0.171-1.294-0.036
				c-0.355,0.134-0.592,0.363-0.694,0.686c-0.092,0.283-0.04,0.561,0.162,0.83c0.195,0.272,0.646,0.583,1.358,0.931
				c0.823,0.413,1.349,0.71,1.578,0.887c0.377,0.283,0.632,0.612,0.761,0.989c0.131,0.376,0.114,0.779-0.036,1.209
				c-0.211,0.592-0.64,1.007-1.285,1.254c-0.646,0.245-1.351,0.243-2.119-0.003c-0.712-0.229-1.3-0.659-1.766-1.292
				c-0.255,0.143-0.51,0.287-0.764,0.432c-0.135-0.043-0.273-0.085-0.408-0.126c0.243-0.913,0.482-1.829,0.722-2.741
				C178.033,120.257,178.205,120.31,178.38,120.364z"/>
		</g>
	</g>
</g>
</svg>
