<?xml version="1.0" encoding="utf-8"?>
<!-- Generator: Adobe Illustrator 16.0.4, SVG Export Plug-In . SVG Version: 6.00 Build 0)  -->
<!DOCTYPE svg PUBLIC "-//W3C//DTD SVG 1.1//EN" "http://www.w3.org/Graphics/SVG/1.1/DTD/svg11.dtd">
<svg version="1.1" id="Livello_1" xmlns="http://www.w3.org/2000/svg" xmlns:xlink="http://www.w3.org/1999/xlink" x="0px" y="0px"
	 width="210px" height="200px" viewBox="0 0 210 200" enable-background="new 0 0 210 200" xml:space="preserve">
<g>
	<circle fill="#0572B7" cx="105" cy="100" r="84"/>
	<circle fill="#0572B7" stroke="#FFFFFF" stroke-width="5" stroke-miterlimit="10" cx="105" cy="100" r="75.216"/>
	<g>
		<g>
			<path fill="#55ABE0" stroke="#FFFFFF" stroke-miterlimit="10" d="M65.938,127.085l-8.353,1.761
				c4.722,8.347,11.686,15.49,20.472,20.428l1.18-8.916C73.711,136.958,69.212,132.376,65.938,127.085z"/>
			<path fill="#55ABE0" stroke="#FFFFFF" stroke-miterlimit="10" d="M79.714,64.14l-1.762-8.906
				c-8.346,4.721-15.488,11.686-20.427,20.473l8.917,1.732C69.841,71.911,74.423,67.413,79.714,64.14z"/>
			<path fill="#55ABE0" stroke="#FFFFFF" stroke-miterlimit="10" d="M143.212,76.808l8.354-1.207
				c-4.721-8.348-11.685-15.49-20.472-20.428l-1.18,8.363C135.441,66.934,139.94,71.517,143.212,76.808z"/>
			<path fill="#55ABE0" stroke="#FFFFFF" stroke-miterlimit="10" d="M95.226,147.021l-5.052,7.256
				c9.712,2.699,19.685,2.551,28.919-0.033l-5.078-7.247C107.962,148.437,101.541,148.511,95.226,147.021z"/>
			<path fill="#55ABE0" stroke="#FFFFFF" stroke-miterlimit="10" d="M156.595,87.705l-6.955,3.909
				c1.44,6.052,1.514,12.474,0.022,18.789l6.966,6.223C159.328,106.914,159.18,96.938,156.595,87.705z"/>
		</g>
		<path fill="#55ABE0" stroke="#FFFFFF" stroke-width="2" stroke-miterlimit="10" d="M112.116,73.646H88.041v58.177h13.757v-19.393
			h10.318c11.4,0,20.635-8.678,20.635-19.393S123.517,73.646,112.116,73.646z M112.804,99.502h-11.006V86.574h11.006
			c3.799,0,6.879,2.893,6.879,6.464C119.683,96.61,116.603,99.502,112.804,99.502z"/>
		<g>
			<g>
				<path fill="#FFFFFF" d="M62.595,90.234c1.289,0.03,2.367-0.993,2.396-2.288c0.029-1.297-0.999-2.368-2.288-2.398
					c-1.295-0.029-2.367,0.992-2.397,2.289C60.276,89.132,61.3,90.204,62.595,90.234z"/>
			</g>
			<g>
				<path fill="#FFFFFF" d="M62.935,99.487h6.355v-2.343h-4.722l-2.604-4.337c-0.384-0.65-1.093-1.08-1.901-1.08
					c-0.221,0-0.436,0.032-0.638,0.09l-7.064,2.201l-0.955,6.771h2.344l0.955-4.771l2.742-0.854l-5.086,19.948h2.344l3.737-10.56
					l3.034,4.05v6.51h2.343v-8.34l-3.242-5.912l0.958-3.735L62.935,99.487z"/>
			</g>
		</g>
		<path fill="#FFFFFF" d="M124.233,56.017c-0.981-3.08-3.608-5.095-6.572-5.062l-2.148,0.078l-0.68-1.706
			c-1.321-3.311-2.004-4.934-2.213-5.249c-0.208-0.315-0.232-0.319-2.189-0.319c-1.733,0-2.007,0.03-2.155,0.231
			c-0.242,0.317-0.229,0.513,0.074,0.816c0.233,0.232,0.439,0.262,1.756,0.262c1.04,0,1.531,0.05,1.616,0.164
			c0.147,0.195,0.694,1.531,0.694,1.691c0,0.062-2.742,0.11-6.093,0.11h-6.096l-0.259-0.514c-0.146-0.287-0.267-0.546-0.267-0.577
			c0-0.035,0.624-0.131,1.388-0.224c1.555-0.184,2.125-0.458,1.751-0.839c-0.167-0.173-0.635-0.213-2.714-0.238
			c-1.71-0.02-2.562,0.016-2.659,0.116c-0.079,0.079-0.126,0.374-0.103,0.654c0.037,0.45,0.074,0.706,0.49,0.657l0.63-0.081
			l0.819,1.544l-2.559,3.923c-1.824-0.547-3.48-0.671-5.354-0.067c-0.901,0.379-2.179,1.286-2.763,1.971
			c-0.765,0.893-1.365,2.244-1.545,3.479c-0.02,0.137-0.033,0.275-0.043,0.41v0.938c0.193,2.657,2.037,5.144,4.615,5.999
			c1.196,0.401,1.225,0.405,2.476,0.362c0.935-0.032,1.389-0.124,2.2-0.438c1.18-0.459,1.73-0.915,2.962-2.258
			c1.247-1.367,1.377-2.924,1.426-3.339c0.103-0.036,1.123-0.071,2.27-0.071h2.088l0.019,1.05c0.012,0.577-0.029,1.312-0.023,1.439
			c0.01,0.18-0.056,0.076-0.496,0.107c-0.499,0.033-0.562,0.075-0.524,0.327c0.031,0.23,0.142,0.3,0.552,0.331
			c0.28,0.025,0.959-0.083,1.129-0.126l0.035-3.168l0.883-1.1c0.502-0.635,0.959-1.213,1.013-1.283
			c0.057-0.074,0.313-0.398,0.57-0.724c0.255-0.324,1.456-1.843,2.667-3.376c1.211-1.531,2.24-2.787,2.294-2.787
			c0.056,0,0.161,0.135,0.237,0.3c0.47,0.984,0.721,1.642,0.78,2.023c0.063,0.374,0.028,0.444-0.274,0.56
			c-0.519,0.198-1.938,1.702-2.356,2.505c-0.523,1-0.87,2.277-0.87,3.229c0,1.405,0.946,3.726,1.914,4.689
			c2.631,2.631,6.422,2.869,9.286,0.588c1-0.89,1.848-2.055,2.255-3.34C124.445,58.747,124.483,56.794,124.233,56.017z
			 M97.294,53.462c0.921,0.834,1.812,1.658,1.978,3.495l-4.212,0.061L97.294,53.462z M93.595,62.978
			c-2.516-0.084-5.165-2.008-5.138-5.539c0.022-3.49,3.771-5.908,7.668-4.562c-1.025,1.809-3.382,4.9-3.097,5.291
			c0.295,0.407,0.853,0.271,3.5,0.271h2.815C99.057,62.346,95.127,63.026,93.595,62.978z M100.687,56.937
			c-0.381-1.876-1.46-3.381-2.753-4.767l1.842-3.038c0.077,0,0.425,0.516,0.776,1.144c0.353,0.633,1.337,2.385,2.191,3.893
			c0.854,1.506,1.538,2.808,1.477,2.808L100.687,56.937z M108.823,52.424c-0.095,0.111-0.471,0.626-0.87,1.112l-2.219,2.702
			l-0.002-1.694c0.339-0.01,1.027-0.005,1.004-0.437c-0.019-0.435-0.972-0.315-1.633-0.286l0.066,2.474l-4.057-7.95h5.324
			c4.473,0,5.324,0.031,5.324,0.186C111.762,48.672,110.264,50.655,108.823,52.424z M121.434,61.693
			c-1.398,1.352-3.437,1.899-5.23,1.407c-2.697-0.744-4.485-3.369-4.074-5.986c0.229-1.458,0.624-2.285,1.532-3.21
			c1.056-1.08,1.248-1.085,1.639-0.055c0.094,0.252,0.299,0.759,0.455,1.117c0.156,0.361,0.516,1.229,0.8,1.93
			c0.579,1.435,0.91,1.769,1.368,1.353c0.375-0.524,0.045-1.295-0.368-2.189c-0.222-0.404-1.338-3.413-1.338-3.609
			c0.313-0.312,1.038-0.16,1.476-0.146c1.255,0.056,1.587,0.12,2.243,0.425c0.972,0.454,2.231,1.715,2.687,2.693
			c0.301,0.648,0.542,0.9,0.559,2.39C123.36,59.321,122.414,60.616,121.434,61.693z"/>
		<path fill="#FFFFFF" d="M147.798,124.458c-0.936-1.6-2.049-1.948-3.838-2.408c-1.787-0.46-3.591-0.529-5.157-0.529
			s-3.369,0.069-5.157,0.529c-1.787,0.46-2.915,0.809-3.851,2.408c-0.937,1.6-1.637,9.74-1.637,10.16c0,0.422,0,9.192,0,9.192h1.116
			c0,0.559,0,2.46,0,2.48c0,0.787,1.166,1.427,1.953,1.427c0.788,0,1.954-0.64,1.954-1.427c0-0.021,0-1.922,0-2.48h11.432
			c0,0.559-0.002,2.207,0,2.228c0.181,1.427,1.518,1.553,2.305,1.553s1.334-0.513,1.334-1.3c0-0.021,0-1.922,0-2.48h1.176
			c0,0,0.002-8.313,0.002-8.773C149.43,134.578,148.734,126.058,147.798,124.458z M134.856,122.601h8.371v2.233h-8.371V122.601z
			 M132.159,142.202c-1.4,0-2.535-1.134-2.535-2.532s1.135-2.532,2.535-2.532c1.398,0,2.533,1.134,2.533,2.532
			S133.558,142.202,132.159,142.202z M129.825,134.322c0,0,0.587-6.768,1.216-7.396c0.627-0.628,14.896-0.554,15.522,0.075
			c0.63,0.627,1.214,7.321,1.214,7.321H129.825z M145.159,142.202c-1.398,0-2.535-1.134-2.535-2.532s1.137-2.532,2.535-2.532
			c1.396,0,2.533,1.134,2.533,2.532S146.556,142.202,145.159,142.202z"/>
	</g>
	<g>
		<g>
			<path fill="#328ACA" stroke="#FFFFFF" stroke-width="2" stroke-miterlimit="10" d="M194.768,147.089
				c-2.534-5.82-5.349-11.609-8.446-17.346c6.004-2.538,12.219-4.851,18.63-6.916C140.979,95.972,68.834,96.142,4.965,123.337
				c0.04,0.094,0.08,0.188,0.12,0.282c6.617,2.096,13.026,4.457,19.211,7.058c-2.899,5.432-5.546,10.909-7.942,16.414
				C73.41,123.139,137.71,123.138,194.768,147.089L194.768,147.089L194.768,147.089z"/>
		</g>
	</g>
	<g>
		<g>
			<path fill="#FFFFFF" d="M27.422,123.875c1.652-0.554,3.307-1.089,4.963-1.606c1.122-0.35,2.052-0.384,2.782-0.107
				c0.732,0.276,1.208,0.784,1.434,1.518c0.227,0.732,0.131,1.371-0.282,1.917c-0.568,0.751-1.385,1.29-2.457,1.625
				c-0.585,0.184-1.169,0.369-1.754,0.556c0.343,1.016,0.688,2.031,1.035,3.046c0.061,0.177,0.149,0.29,0.267,0.335
				c0.155,0.058,0.334,0.053,0.54-0.012c0.366-0.117,0.732-0.233,1.098-0.347c0.051,0.15,0.101,0.302,0.151,0.453
				c-1.547,0.485-3.091,0.986-4.634,1.505c-0.054-0.15-0.108-0.3-0.161-0.451c0.323-0.109,0.646-0.216,0.97-0.324
				c0.192-0.065,0.32-0.145,0.386-0.244c0.064-0.1,0.076-0.21,0.034-0.33c-0.825-2.365-1.643-4.731-2.453-7.098
				c-0.062-0.18-0.165-0.291-0.31-0.333c-0.146-0.042-0.383-0.007-0.709,0.1c-0.247,0.083-0.495,0.164-0.742,0.248
				C27.528,124.176,27.475,124.026,27.422,123.875z M31.96,127.337c0.446-0.142,0.892-0.285,1.337-0.425
				c0.847-0.267,1.407-0.616,1.68-1.053c0.272-0.436,0.292-1.024,0.059-1.764c-0.164-0.519-0.375-0.889-0.635-1.113
				c-0.259-0.226-0.576-0.352-0.951-0.385c-0.375-0.03-0.942,0.072-1.702,0.312c-0.502,0.159-0.806,0.301-0.911,0.429
				c-0.104,0.127-0.123,0.296-0.052,0.504C31.174,125.008,31.566,126.174,31.96,127.337z"/>
			<path fill="#FFFFFF" d="M45.71,127.54c0.111,0.094,0.221,0.188,0.331,0.282c-0.235,0.392-0.545,0.637-0.934,0.741
				c-0.297,0.081-0.568,0.071-0.815-0.023c-0.246-0.097-0.5-0.312-0.762-0.651c-0.3,0.522-0.586,0.895-0.861,1.119
				c-0.274,0.223-0.631,0.397-1.071,0.522c-0.628,0.178-1.144,0.192-1.548,0.034c-0.404-0.157-0.669-0.43-0.79-0.823
				c-0.182-0.592,0.043-1.197,0.683-1.806c0.64-0.608,1.576-1.159,2.804-1.633c-0.083-0.29-0.166-0.579-0.248-0.869
				c-0.088-0.31-0.299-0.537-0.635-0.683c-0.336-0.144-0.715-0.16-1.137-0.042c-0.389,0.109-0.704,0.277-0.941,0.504
				c-0.17,0.167-0.238,0.304-0.206,0.409c0.018,0.06,0.1,0.139,0.246,0.24c0.178,0.125,0.286,0.253,0.323,0.377
				c0.055,0.184,0.034,0.352-0.061,0.503c-0.095,0.152-0.245,0.259-0.454,0.319c-0.222,0.063-0.428,0.048-0.619-0.048
				c-0.19-0.093-0.318-0.25-0.384-0.464c-0.122-0.402,0.015-0.842,0.414-1.319c0.399-0.475,1.007-0.831,1.82-1.056
				c0.75-0.209,1.365-0.217,1.842-0.031c0.478,0.192,0.775,0.5,0.894,0.924c0.292,1.045,0.584,2.091,0.877,3.136
				c0.079,0.279,0.184,0.467,0.317,0.573c0.134,0.109,0.278,0.143,0.432,0.102C45.396,127.833,45.559,127.722,45.71,127.54z
				 M42.862,125.704c-1.085,0.45-1.813,0.909-2.186,1.362c-0.275,0.343-0.345,0.737-0.21,1.185c0.094,0.313,0.258,0.532,0.491,0.657
				c0.232,0.128,0.492,0.148,0.781,0.066c0.516-0.146,0.909-0.452,1.183-0.921c0.273-0.47,0.333-0.978,0.176-1.529
				C43.018,126.25,42.939,125.978,42.862,125.704z"/>
			<path fill="#FFFFFF" d="M45.21,122.191c0.748-0.23,1.497-0.458,2.246-0.682c0.2,0.777,0.4,1.555,0.602,2.332
				c0.042-0.826,0.185-1.479,0.427-1.958c0.241-0.477,0.615-0.779,1.12-0.899c0.342-0.081,0.639-0.05,0.89,0.093
				c0.251,0.143,0.416,0.375,0.493,0.696c0.063,0.259,0.043,0.478-0.058,0.654c-0.101,0.176-0.254,0.288-0.459,0.337
				c-0.202,0.048-0.379,0.025-0.533-0.069c-0.153-0.094-0.256-0.247-0.308-0.456c-0.034-0.137-0.03-0.271,0.013-0.409
				c0.04-0.122,0.058-0.193,0.053-0.214c-0.015-0.062-0.065-0.081-0.15-0.062c-0.185,0.044-0.37,0.193-0.553,0.448
				c-0.254,0.353-0.407,0.792-0.458,1.315c-0.077,0.812-0.055,1.444,0.061,1.89c0.107,0.412,0.214,0.825,0.32,1.238
				c0.037,0.14,0.117,0.231,0.242,0.281c0.125,0.046,0.313,0.04,0.567-0.023c0.261-0.064,0.523-0.127,0.784-0.19
				c0.039,0.154,0.078,0.309,0.117,0.463c-1.275,0.308-2.55,0.626-3.823,0.956c-0.042-0.153-0.083-0.307-0.125-0.461
				c0.204-0.053,0.408-0.105,0.612-0.157c0.206-0.052,0.352-0.131,0.437-0.232c0.085-0.103,0.114-0.206,0.085-0.313
				c-0.324-1.224-0.647-2.447-0.968-3.671c-0.073-0.278-0.192-0.466-0.356-0.562c-0.163-0.096-0.367-0.115-0.609-0.051
				c-0.183,0.047-0.367,0.094-0.552,0.142C45.289,122.482,45.25,122.336,45.21,122.191z"/>
			<path fill="#FFFFFF" d="M57.175,123.688c0.153,0.009,0.305,0.018,0.457,0.027c-0.089,1.261-0.713,2.01-1.879,2.266
				c-0.855,0.187-1.616,0.078-2.289-0.33c-0.672-0.409-1.117-1.05-1.329-1.932c-0.246-1.021-0.131-1.885,0.348-2.586
				c0.479-0.702,1.137-1.146,1.967-1.326c0.623-0.135,1.172-0.088,1.646,0.142c0.474,0.229,0.752,0.535,0.834,0.921
				c0.05,0.233,0.015,0.439-0.102,0.622c-0.117,0.182-0.279,0.296-0.484,0.338c-0.201,0.043-0.385,0.018-0.551-0.083
				c-0.167-0.098-0.27-0.238-0.31-0.419c-0.041-0.18-0.003-0.371,0.113-0.568c0.055-0.094,0.077-0.163,0.067-0.209
				c-0.026-0.118-0.139-0.218-0.339-0.293c-0.201-0.078-0.452-0.08-0.753-0.015c-0.55,0.12-0.925,0.396-1.123,0.826
				c-0.282,0.621-0.32,1.367-0.117,2.237c0.194,0.828,0.52,1.415,0.971,1.763c0.453,0.348,0.95,0.461,1.495,0.343
				C56.549,125.249,57.006,124.676,57.175,123.688z"/>
			<path fill="#FFFFFF" d="M56.728,115.989c0.806-0.202,1.612-0.398,2.419-0.592c0.296,1.5,0.593,2.999,0.893,4.498
				c0.253-0.463,0.553-0.831,0.898-1.101c0.346-0.271,0.735-0.443,1.164-0.524c0.407-0.075,0.791-0.052,1.149,0.069
				c0.279,0.097,0.539,0.306,0.781,0.628c0.242,0.323,0.406,0.726,0.494,1.209c0.167,0.928,0.334,1.855,0.503,2.782
				c0.032,0.179,0.105,0.301,0.216,0.365c0.112,0.064,0.272,0.079,0.479,0.042c0.177-0.03,0.354-0.061,0.53-0.091
				c0.028,0.157,0.056,0.312,0.083,0.469c-1.115,0.19-2.228,0.389-3.342,0.595c-0.03-0.157-0.06-0.312-0.09-0.468
				c0.124-0.023,0.247-0.045,0.37-0.068c0.282-0.052,0.47-0.13,0.562-0.235c0.092-0.104,0.122-0.242,0.091-0.412
				c-0.173-0.926-0.346-1.853-0.517-2.779c-0.091-0.487-0.287-0.843-0.593-1.07c-0.305-0.227-0.657-0.304-1.053-0.229
				c-0.312,0.057-0.586,0.19-0.821,0.394c-0.235,0.203-0.415,0.482-0.536,0.831c-0.122,0.348-0.147,0.699-0.078,1.047
				c0.156,0.776,0.312,1.552,0.468,2.329c0.042,0.208,0.117,0.347,0.228,0.416c0.11,0.07,0.271,0.083,0.482,0.042
				c0.177-0.033,0.353-0.068,0.529-0.101c0.031,0.156,0.061,0.312,0.092,0.468c-1.089,0.206-2.178,0.42-3.267,0.643
				c-0.033-0.156-0.066-0.311-0.099-0.467c0.123-0.025,0.247-0.05,0.37-0.075c0.252-0.051,0.421-0.133,0.507-0.248
				c0.086-0.114,0.11-0.269,0.069-0.465c-0.479-2.319-0.954-4.637-1.425-6.956c-0.05-0.251-0.16-0.42-0.329-0.515
				c-0.168-0.094-0.39-0.113-0.664-0.058c-0.156,0.032-0.311,0.063-0.466,0.095C56.793,116.302,56.76,116.145,56.728,115.989z"/>
			<path fill="#FFFFFF" d="M72.476,119.818c-1.5,0.212-2.999,0.438-4.497,0.68c0.17,0.891,0.452,1.493,0.846,1.807
				c0.448,0.353,0.965,0.486,1.552,0.395c0.866-0.131,1.49-0.7,1.881-1.709c0.154,0.038,0.307,0.076,0.46,0.114
				c-0.477,1.282-1.314,2.01-2.53,2.196c-0.829,0.126-1.571-0.046-2.235-0.521c-0.664-0.475-1.074-1.153-1.226-2.039
				c-0.163-0.952-0.011-1.768,0.461-2.447c0.473-0.68,1.132-1.085,1.969-1.214c0.617-0.095,1.172-0.028,1.664,0.199
				c0.492,0.226,0.891,0.602,1.194,1.117C72.229,118.759,72.382,119.233,72.476,119.818z M67.905,120.054
				c0.908-0.145,1.816-0.287,2.725-0.423c0.161-0.024,0.279-0.095,0.353-0.21c0.074-0.116,0.092-0.297,0.055-0.543
				c-0.069-0.46-0.282-0.83-0.64-1.106c-0.358-0.277-0.749-0.382-1.168-0.318c-0.471,0.073-0.84,0.33-1.104,0.77
				C67.862,118.665,67.789,119.275,67.905,120.054z"/>
			<path fill="#FFFFFF" d="M77.951,116.411c0.403-0.478,0.796-0.737,1.178-0.778c0.228-0.026,0.424,0.021,0.588,0.14
				c0.165,0.118,0.257,0.275,0.278,0.467c0.018,0.157-0.019,0.291-0.109,0.405c-0.09,0.114-0.203,0.179-0.338,0.194
				c-0.258,0.028-0.448-0.1-0.573-0.385c-0.05-0.123-0.119-0.177-0.205-0.167c-0.153,0.016-0.311,0.131-0.469,0.34
				c0.223,0.227,0.381,0.427,0.475,0.601c0.093,0.176,0.152,0.368,0.176,0.578c0.042,0.366-0.016,0.699-0.171,1.001
				c-0.156,0.301-0.438,0.583-0.847,0.849c-0.41,0.264-0.812,0.423-1.208,0.472c-0.243,0.029-0.486,0.061-0.729,0.091
				c-0.518,0.065-0.854,0.16-1.009,0.284c-0.156,0.125-0.219,0.292-0.191,0.493c0.022,0.164,0.108,0.278,0.257,0.351
				c0.149,0.069,0.415,0.08,0.796,0.031c0.546-0.081,1.093-0.159,1.639-0.235c0.831-0.1,1.444-0.037,1.84,0.185
				c0.397,0.224,0.619,0.562,0.671,1.02c0.057,0.504-0.101,0.952-0.472,1.344c-0.518,0.551-1.341,0.896-2.476,1.037
				c-0.939,0.117-1.658,0.042-2.159-0.227c-0.395-0.212-0.615-0.478-0.661-0.802c-0.035-0.247,0.047-0.488,0.25-0.727
				c0.203-0.235,0.571-0.441,1.105-0.613c-0.451-0.044-0.8-0.148-1.048-0.313c-0.248-0.167-0.394-0.392-0.434-0.682
				c-0.038-0.267,0.02-0.514,0.173-0.737c0.152-0.225,0.442-0.436,0.87-0.638c-0.405-0.146-0.725-0.347-0.955-0.6
				c-0.231-0.254-0.371-0.56-0.421-0.92c-0.079-0.57,0.095-1.08,0.528-1.531c0.433-0.45,1.039-0.725,1.814-0.821
				c0.317-0.038,0.629-0.034,0.935,0.014C77.353,116.176,77.654,116.271,77.951,116.411z M77.264,122.151
				c-0.812,0.1-1.378,0.282-1.695,0.541c-0.317,0.259-0.455,0.541-0.414,0.842c0.039,0.285,0.2,0.492,0.48,0.622
				c0.372,0.173,0.87,0.22,1.5,0.142c0.753-0.093,1.305-0.278,1.657-0.564c0.353-0.284,0.513-0.572,0.478-0.866
				c-0.02-0.173-0.099-0.325-0.236-0.462c-0.136-0.135-0.339-0.227-0.61-0.274C78.155,122.083,77.767,122.091,77.264,122.151z
				 M76.151,116.52c-0.403,0.051-0.718,0.229-0.944,0.537c-0.227,0.309-0.307,0.712-0.241,1.206c0.07,0.529,0.255,0.922,0.554,1.18
				c0.298,0.258,0.647,0.361,1.049,0.312c0.402-0.05,0.713-0.231,0.936-0.545c0.222-0.315,0.302-0.736,0.238-1.266
				c-0.059-0.491-0.237-0.865-0.537-1.119C76.907,116.572,76.555,116.468,76.151,116.52z"/>
			<path fill="#FFFFFF" d="M85.426,115.66c0.418-0.464,0.818-0.711,1.201-0.741c0.228-0.019,0.421,0.035,0.582,0.158
				c0.161,0.123,0.248,0.282,0.263,0.476c0.012,0.158-0.028,0.29-0.123,0.401c-0.093,0.111-0.208,0.173-0.344,0.184
				c-0.257,0.02-0.444-0.114-0.559-0.402c-0.046-0.123-0.113-0.182-0.198-0.174c-0.154,0.011-0.314,0.122-0.479,0.325
				c0.215,0.233,0.367,0.438,0.455,0.615c0.087,0.178,0.14,0.372,0.157,0.583c0.03,0.367-0.039,0.699-0.203,0.994
				c-0.165,0.296-0.457,0.568-0.872,0.822c-0.418,0.251-0.824,0.398-1.22,0.434c-0.244,0.022-0.487,0.045-0.73,0.068
				c-0.518,0.048-0.856,0.134-1.015,0.251c-0.159,0.122-0.228,0.285-0.207,0.487c0.017,0.163,0.098,0.282,0.245,0.359
				c0.147,0.073,0.411,0.092,0.793,0.055c0.547-0.062,1.095-0.124,1.642-0.183c0.832-0.074,1.442,0.008,1.829,0.243
				c0.388,0.233,0.6,0.58,0.637,1.041c0.041,0.507-0.131,0.948-0.514,1.329c-0.535,0.536-1.367,0.852-2.504,0.958
				c-0.94,0.088-1.654-0.01-2.145-0.296c-0.387-0.224-0.598-0.497-0.633-0.822c-0.026-0.247,0.063-0.486,0.273-0.717
				c0.21-0.23,0.584-0.422,1.122-0.578c-0.448-0.059-0.793-0.173-1.035-0.346c-0.242-0.173-0.38-0.404-0.411-0.695
				c-0.028-0.267,0.037-0.513,0.197-0.732c0.159-0.219,0.456-0.421,0.888-0.609c-0.399-0.159-0.711-0.37-0.933-0.63
				s-0.352-0.571-0.39-0.933c-0.06-0.573,0.129-1.078,0.575-1.514c0.445-0.436,1.058-0.69,1.835-0.763
				c0.317-0.029,0.628-0.015,0.932,0.043C84.838,115.407,85.136,115.511,85.426,115.66z M84.557,121.376
				c-0.813,0.074-1.383,0.238-1.708,0.486c-0.325,0.249-0.471,0.525-0.439,0.829c0.029,0.285,0.183,0.498,0.458,0.637
				c0.364,0.185,0.86,0.248,1.491,0.189c0.754-0.07,1.31-0.238,1.67-0.512c0.361-0.271,0.531-0.556,0.506-0.851
				c-0.015-0.173-0.089-0.33-0.221-0.469c-0.132-0.141-0.332-0.238-0.6-0.294C85.448,121.337,85.062,121.33,84.557,121.376z
				 M83.629,115.711c-0.404,0.038-0.724,0.205-0.958,0.507c-0.236,0.301-0.329,0.701-0.279,1.198
				c0.053,0.531,0.225,0.929,0.515,1.197c0.288,0.267,0.633,0.383,1.035,0.345c0.402-0.037,0.719-0.209,0.951-0.516
				c0.231-0.307,0.325-0.727,0.279-1.258c-0.043-0.493-0.209-0.872-0.5-1.135C84.38,115.785,84.033,115.674,83.629,115.711z"/>
			<path fill="#FFFFFF" d="M87.877,115.129c0.845-0.086,1.691-0.167,2.537-0.245c0.109,1.703,0.219,3.403,0.33,5.106
				c0.009,0.14,0.052,0.236,0.126,0.29c0.108,0.079,0.238,0.112,0.394,0.103c0.235-0.015,0.47-0.028,0.705-0.042
				c0.01,0.16,0.019,0.317,0.028,0.476c-1.18,0.069-2.359,0.146-3.539,0.233c-0.012-0.158-0.023-0.317-0.035-0.475
				c0.219-0.017,0.438-0.032,0.659-0.048c0.195-0.013,0.334-0.068,0.419-0.165c0.085-0.097,0.121-0.232,0.108-0.406
				c-0.087-1.245-0.173-2.49-0.26-3.735c-0.017-0.237-0.101-0.411-0.254-0.521c-0.153-0.111-0.373-0.155-0.658-0.135
				c-0.174,0.013-0.349,0.025-0.524,0.039C87.901,115.445,87.889,115.288,87.877,115.129z M89.41,111.464
				c0.209-0.015,0.396,0.047,0.561,0.179c0.165,0.132,0.254,0.298,0.267,0.492c0.012,0.19-0.053,0.358-0.196,0.509
				c-0.141,0.148-0.318,0.23-0.529,0.244c-0.21,0.014-0.398-0.044-0.562-0.175c-0.163-0.13-0.252-0.291-0.266-0.481
				c-0.013-0.189,0.054-0.362,0.201-0.517C89.033,111.562,89.208,111.477,89.41,111.464z"/>
			<path fill="#FFFFFF" d="M95.398,114.513c0.861-0.037,1.594,0.226,2.195,0.784c0.602,0.557,0.915,1.31,0.943,2.254
				c0.019,0.651-0.093,1.21-0.334,1.677c-0.241,0.466-0.594,0.843-1.055,1.124c-0.463,0.285-0.965,0.437-1.509,0.46
				c-0.806,0.036-1.501-0.224-2.093-0.779c-0.592-0.554-0.919-1.295-0.971-2.224c-0.053-0.934,0.191-1.708,0.736-2.322
				S94.552,114.549,95.398,114.513z M95.417,114.963c-0.508,0.021-0.917,0.256-1.221,0.7c-0.305,0.445-0.433,1.13-0.386,2.056
				c0.048,0.942,0.243,1.624,0.583,2.043c0.339,0.421,0.758,0.617,1.258,0.597c0.52-0.021,0.93-0.255,1.236-0.703
				c0.305-0.446,0.443-1.166,0.408-2.156c-0.032-0.917-0.216-1.576-0.556-1.974C96.399,115.128,95.958,114.94,95.417,114.963z"/>
			<path fill="#FFFFFF" d="M102.991,111.048c1.136-0.012,2.271-0.016,3.406-0.011c1.01,2.475,1.989,4.957,2.934,7.443
				c0.951-2.456,1.93-4.906,2.938-7.351c1.162,0.033,2.323,0.074,3.484,0.123c-0.006,0.159-0.013,0.317-0.02,0.476
				c-0.284-0.012-0.567-0.023-0.85-0.035c-0.299-0.012-0.502,0.023-0.609,0.099c-0.105,0.076-0.163,0.214-0.17,0.412
				c-0.089,2.477-0.179,4.953-0.27,7.429c-0.006,0.148,0.05,0.265,0.167,0.35c0.118,0.084,0.322,0.132,0.615,0.144
				c0.25,0.009,0.502,0.02,0.752,0.03c-0.007,0.159-0.014,0.318-0.021,0.477c-1.5-0.063-2.999-0.113-4.498-0.148
				c0.003-0.158,0.007-0.317,0.011-0.476c0.281,0.007,0.562,0.014,0.843,0.021c0.24,0.006,0.42-0.031,0.538-0.115
				c0.119-0.084,0.18-0.191,0.184-0.328c0.081-2.656,0.162-5.312,0.241-7.969c-1.214,2.937-2.388,5.88-3.519,8.834
				c-0.149-0.003-0.298-0.005-0.448-0.007c-1.125-2.974-2.295-5.94-3.51-8.896c0.003,2.274,0.006,4.548,0.009,6.823
				c0,0.406,0.055,0.709,0.161,0.911c0.107,0.202,0.259,0.355,0.457,0.464c0.198,0.109,0.526,0.174,0.982,0.203
				c-0.001,0.159-0.002,0.318-0.003,0.477c-1.235-0.007-2.472-0.003-3.707,0.009c-0.002-0.158-0.003-0.318-0.005-0.477
				c0.608-0.042,1.02-0.171,1.237-0.383c0.216-0.213,0.324-0.586,0.322-1.125c-0.008-2.158-0.017-4.316-0.024-6.475
				c-0.001-0.158-0.053-0.278-0.159-0.351c-0.107-0.073-0.304-0.11-0.594-0.108c-0.29,0.002-0.58,0.005-0.87,0.007
				C102.995,111.367,102.993,111.206,102.991,111.048z"/>
			<path fill="#FFFFFF" d="M122.775,120.412c0.071,0.124,0.141,0.248,0.212,0.373c-0.348,0.293-0.717,0.424-1.11,0.397
				c-0.301-0.021-0.548-0.117-0.744-0.287c-0.194-0.171-0.357-0.457-0.485-0.859c-0.451,0.396-0.838,0.653-1.167,0.776
				c-0.327,0.122-0.714,0.17-1.161,0.146c-0.636-0.035-1.114-0.189-1.434-0.469c-0.319-0.278-0.47-0.622-0.451-1.032
				c0.029-0.618,0.437-1.112,1.228-1.481c0.79-0.368,1.832-0.582,3.122-0.634c0.02-0.301,0.04-0.6,0.06-0.9
				c0.021-0.32-0.098-0.604-0.359-0.85c-0.261-0.246-0.606-0.381-1.034-0.406c-0.394-0.024-0.739,0.034-1.032,0.17
				c-0.211,0.103-0.319,0.208-0.325,0.32c-0.003,0.062,0.045,0.164,0.146,0.307c0.122,0.175,0.18,0.331,0.172,0.46
				c-0.011,0.19-0.084,0.343-0.223,0.455c-0.137,0.114-0.311,0.165-0.523,0.155c-0.225-0.012-0.409-0.093-0.553-0.245
				c-0.143-0.15-0.21-0.339-0.2-0.562c0.021-0.419,0.292-0.789,0.816-1.11c0.523-0.321,1.199-0.457,2.021-0.408
				c0.76,0.046,1.331,0.236,1.708,0.567c0.378,0.334,0.551,0.722,0.52,1.161c-0.077,1.08-0.154,2.161-0.231,3.242
				c-0.02,0.288,0.014,0.502,0.102,0.643c0.087,0.146,0.209,0.225,0.364,0.236C122.387,120.587,122.574,120.534,122.775,120.412z
				 M120.757,117.758c-1.149,0.076-1.971,0.27-2.465,0.578c-0.367,0.233-0.562,0.585-0.587,1.049
				c-0.017,0.326,0.061,0.585,0.232,0.778c0.171,0.194,0.403,0.298,0.696,0.315c0.523,0.03,0.987-0.132,1.396-0.486
				c0.408-0.354,0.633-0.815,0.671-1.385C120.72,118.324,120.738,118.042,120.757,117.758z"/>
			<path fill="#FFFFFF" d="M124.192,115.212c0.709,0.015,1.419,0.034,2.128,0.055c0.053,0.377,0.078,0.818,0.074,1.319
				c0.323-0.404,0.689-0.696,1.097-0.876c0.408-0.178,0.858-0.246,1.349-0.196c0.422,0.042,0.769,0.154,1.039,0.337
				s0.473,0.451,0.608,0.801c0.136,0.351,0.182,0.732,0.137,1.145c-0.105,0.959-0.21,1.918-0.315,2.878
				c-0.024,0.215,0.01,0.372,0.102,0.474c0.092,0.101,0.258,0.163,0.497,0.19c0.146,0.017,0.292,0.033,0.438,0.049
				c-0.018,0.158-0.037,0.315-0.055,0.474c-1.091-0.122-2.183-0.236-3.275-0.343c0.016-0.158,0.031-0.316,0.047-0.474
				c0.104,0.01,0.208,0.02,0.312,0.03c0.292,0.03,0.5,0.006,0.625-0.071c0.125-0.075,0.196-0.204,0.215-0.381
				c0.089-0.844,0.177-1.687,0.265-2.531c0.058-0.552,0.01-0.969-0.144-1.252c-0.214-0.405-0.579-0.632-1.096-0.683
				c-0.512-0.05-0.957,0.103-1.333,0.457c-0.376,0.352-0.592,0.835-0.647,1.452c-0.066,0.732-0.133,1.462-0.199,2.194
				c-0.019,0.214,0.019,0.373,0.115,0.472c0.096,0.1,0.264,0.16,0.503,0.182c0.144,0.014,0.288,0.026,0.431,0.04
				c-0.015,0.159-0.03,0.317-0.045,0.475c-1.097-0.103-2.194-0.197-3.292-0.284c0.013-0.159,0.026-0.317,0.039-0.475
				c0.144,0.012,0.288,0.022,0.432,0.035c0.218,0.019,0.386-0.011,0.507-0.086c0.12-0.075,0.185-0.175,0.196-0.301
				c0.11-1.276,0.219-2.552,0.328-3.827c0.022-0.253-0.035-0.45-0.172-0.593c-0.136-0.144-0.342-0.227-0.618-0.249
				c-0.108-0.009-0.217-0.018-0.326-0.026C124.17,115.485,124.181,115.349,124.192,115.212z"/>
			<path fill="#FFFFFF" d="M132.586,116.021c0.849,0.073,1.698,0.151,2.547,0.233c-0.215,1.693-0.432,3.385-0.65,5.076
				c-0.018,0.138,0.005,0.242,0.067,0.309c0.092,0.099,0.214,0.155,0.37,0.175c0.234,0.029,0.469,0.06,0.704,0.091
				c-0.021,0.157-0.042,0.314-0.063,0.472c-1.178-0.154-2.355-0.298-3.534-0.433c0.019-0.158,0.038-0.316,0.057-0.474
				c0.219,0.026,0.438,0.051,0.658,0.077c0.196,0.022,0.343-0.005,0.445-0.084c0.102-0.079,0.164-0.206,0.185-0.378
				c0.153-1.239,0.306-2.478,0.458-3.717c0.028-0.236-0.022-0.421-0.152-0.559c-0.129-0.137-0.337-0.222-0.623-0.256
				c-0.175-0.02-0.349-0.04-0.523-0.06C132.55,116.336,132.568,116.179,132.586,116.021z M134.79,112.707
				c0.208,0.026,0.381,0.12,0.519,0.281s0.196,0.341,0.171,0.533c-0.024,0.188-0.12,0.345-0.29,0.463
				c-0.167,0.12-0.357,0.167-0.567,0.141c-0.21-0.027-0.385-0.118-0.521-0.276c-0.136-0.158-0.194-0.333-0.171-0.523
				c0.022-0.188,0.121-0.346,0.295-0.47C134.4,112.732,134.588,112.684,134.79,112.707z"/>
			<path fill="#FFFFFF" d="M139.272,116.88c0.53,0.075,1.06,0.153,1.589,0.232c-0.028,0.182-0.056,0.364-0.083,0.545
				c-0.529-0.079-1.057-0.156-1.586-0.231c-0.209,1.432-0.418,2.865-0.63,4.297c-0.029,0.196-0.001,0.343,0.084,0.436
				c0.117,0.124,0.295,0.203,0.534,0.237c0.283,0.041,0.566,0.083,0.849,0.125c-0.024,0.157-0.049,0.313-0.073,0.471
				c-1.266-0.189-2.533-0.369-3.8-0.537c0.021-0.157,0.043-0.314,0.064-0.472c0.175,0.023,0.35,0.047,0.524,0.07
				c0.234,0.032,0.403,0.018,0.507-0.045c0.104-0.062,0.167-0.173,0.189-0.333c0.209-1.469,0.417-2.939,0.624-4.408
				c-0.366-0.051-0.732-0.101-1.098-0.149c0.025-0.182,0.05-0.366,0.075-0.547c0.367,0.048,0.733,0.099,1.1,0.149
				c0.021-0.149,0.042-0.297,0.063-0.447c0.145-1.036,0.49-1.797,1.041-2.276c0.549-0.48,1.176-0.668,1.875-0.565
				c0.518,0.077,0.906,0.254,1.162,0.529c0.256,0.275,0.354,0.598,0.294,0.971c-0.038,0.242-0.138,0.422-0.298,0.541
				c-0.162,0.119-0.349,0.162-0.563,0.129c-0.191-0.029-0.342-0.11-0.45-0.242c-0.108-0.131-0.15-0.283-0.124-0.455
				c0.03-0.195,0.136-0.346,0.32-0.445c0.148-0.079,0.227-0.146,0.234-0.196c0.011-0.069-0.031-0.145-0.125-0.218
				c-0.094-0.073-0.245-0.125-0.45-0.156c-0.389-0.057-0.741,0.052-1.055,0.329c-0.313,0.277-0.514,0.73-0.604,1.354
				C139.399,116.009,139.336,116.445,139.272,116.88z"/>
			<path fill="#FFFFFF" d="M147.473,123.577c0.058,0.131,0.115,0.263,0.172,0.393c-0.381,0.255-0.767,0.346-1.158,0.275
				c-0.3-0.054-0.538-0.174-0.715-0.364c-0.176-0.191-0.308-0.493-0.392-0.908c-0.496,0.346-0.913,0.561-1.255,0.647
				c-0.341,0.086-0.734,0.094-1.179,0.021c-0.634-0.102-1.096-0.309-1.385-0.62c-0.289-0.311-0.403-0.668-0.338-1.074
				c0.097-0.611,0.56-1.06,1.391-1.342c0.832-0.28,1.9-0.381,3.199-0.295c0.053-0.296,0.105-0.592,0.158-0.888
				c0.056-0.317-0.033-0.611-0.268-0.884c-0.235-0.271-0.566-0.443-0.992-0.515c-0.393-0.065-0.745-0.046-1.054,0.059
				c-0.223,0.081-0.342,0.173-0.36,0.284c-0.01,0.062,0.028,0.168,0.114,0.32c0.104,0.188,0.144,0.347,0.122,0.476
				c-0.031,0.188-0.122,0.333-0.272,0.43c-0.151,0.097-0.33,0.13-0.541,0.097c-0.225-0.036-0.4-0.136-0.527-0.303
				c-0.127-0.166-0.174-0.358-0.139-0.58c0.066-0.414,0.378-0.753,0.938-1.017c0.559-0.262,1.251-0.326,2.071-0.188
				c0.757,0.127,1.309,0.376,1.652,0.747c0.343,0.373,0.474,0.777,0.395,1.21c-0.194,1.066-0.39,2.133-0.586,3.199
				c-0.052,0.283-0.042,0.5,0.031,0.65c0.071,0.155,0.185,0.245,0.34,0.273C147.064,123.71,147.258,123.676,147.473,123.577z
				 M145.739,120.722c-1.161-0.05-2.005,0.058-2.533,0.31c-0.394,0.194-0.628,0.519-0.704,0.98
				c-0.053,0.321-0.003,0.589,0.147,0.798c0.15,0.211,0.371,0.339,0.663,0.388c0.521,0.084,1.004-0.025,1.453-0.334
				c0.449-0.309,0.725-0.741,0.825-1.305C145.64,121.28,145.69,121.001,145.739,120.722z"/>
			<path fill="#FFFFFF" d="M151.609,116.497c0.153,0.03,0.306,0.06,0.458,0.089c-0.158,0.793-0.318,1.587-0.478,2.38
				c0.685,0.135,1.369,0.271,2.053,0.412c-0.04,0.19-0.08,0.381-0.12,0.572c-0.683-0.14-1.366-0.276-2.048-0.41
				c-0.251,1.247-0.503,2.494-0.757,3.741c-0.066,0.323-0.034,0.588,0.094,0.792c0.127,0.205,0.317,0.331,0.569,0.381
				c0.3,0.06,0.583-0.019,0.851-0.236c0.267-0.219,0.482-0.624,0.646-1.217c0.149,0.03,0.298,0.062,0.447,0.092
				c-0.193,0.77-0.506,1.305-0.934,1.609c-0.427,0.304-0.918,0.399-1.472,0.29c-0.51-0.101-0.881-0.312-1.117-0.63
				c-0.236-0.319-0.312-0.694-0.228-1.12c0.259-1.307,0.517-2.613,0.773-3.92c-0.367-0.069-0.735-0.141-1.102-0.208
				c0.028-0.146,0.056-0.293,0.083-0.438c0.518,0.015,0.938-0.105,1.263-0.362C151.072,117.925,151.414,117.322,151.609,116.497z"/>
			<path fill="#FFFFFF" d="M157.064,117.619c0.152,0.032,0.305,0.067,0.458,0.1c-0.178,0.789-0.355,1.579-0.534,2.368
				c0.684,0.15,1.367,0.304,2.05,0.46c-0.044,0.19-0.089,0.379-0.134,0.569c-0.682-0.156-1.363-0.308-2.045-0.458
				c-0.281,1.241-0.564,2.482-0.848,3.724c-0.074,0.322-0.048,0.586,0.076,0.794c0.123,0.207,0.311,0.338,0.562,0.394
				c0.3,0.067,0.585-0.006,0.858-0.216c0.273-0.212,0.499-0.613,0.677-1.202c0.149,0.035,0.297,0.067,0.446,0.103
				c-0.211,0.765-0.538,1.292-0.975,1.586c-0.436,0.294-0.931,0.379-1.484,0.256c-0.508-0.112-0.876-0.332-1.105-0.656
				c-0.229-0.324-0.296-0.701-0.202-1.126c0.291-1.3,0.58-2.601,0.868-3.901c-0.367-0.079-0.733-0.157-1.101-0.234
				c0.032-0.145,0.063-0.29,0.094-0.436c0.519,0.027,0.944-0.083,1.275-0.333C156.491,119.034,156.848,118.439,157.064,117.619z"/>
			<path fill="#FFFFFF" d="M162.449,121.241c-0.322,1.276-0.645,2.552-0.969,3.827c-0.119,0.469-0.085,0.86,0.102,1.178
				c0.188,0.316,0.481,0.523,0.879,0.623c0.491,0.124,0.957,0.044,1.402-0.238c0.444-0.283,0.743-0.701,0.894-1.257
				c0.194-0.718,0.387-1.438,0.58-2.156c0.053-0.196,0.016-0.369-0.109-0.517c-0.126-0.149-0.408-0.286-0.844-0.409
				c0.037-0.144,0.075-0.286,0.113-0.429c0.749,0.151,1.498,0.309,2.247,0.468c-0.429,1.572-0.86,3.145-1.294,4.716
				c-0.06,0.216-0.04,0.399,0.06,0.551c0.099,0.152,0.268,0.258,0.504,0.321c0.129,0.035,0.258,0.068,0.387,0.104
				c-0.039,0.136-0.077,0.274-0.116,0.411c-0.693-0.17-1.387-0.338-2.08-0.501c0.059-0.388,0.117-0.776,0.175-1.164
				c-0.478,0.308-0.931,0.52-1.358,0.63c-0.427,0.11-0.83,0.118-1.21,0.024c-0.556-0.139-0.976-0.426-1.264-0.867
				c-0.295-0.437-0.34-1.069-0.135-1.895c0.208-0.837,0.417-1.674,0.624-2.512c0.055-0.222,0-0.412-0.164-0.574
				c-0.115-0.115-0.381-0.226-0.797-0.333c0.035-0.144,0.069-0.288,0.104-0.431C160.936,120.951,161.692,121.095,162.449,121.241z"
				/>
			<path fill="#FFFFFF" d="M168.596,122.937c0.767,0.17,1.534,0.346,2.3,0.523c-0.226,0.771-0.453,1.542-0.68,2.312
				c0.464-0.693,0.925-1.186,1.382-1.479c0.457-0.292,0.937-0.366,1.44-0.22c0.341,0.1,0.584,0.273,0.73,0.522
				c0.145,0.25,0.169,0.532,0.071,0.847c-0.08,0.256-0.209,0.434-0.389,0.537c-0.179,0.101-0.372,0.121-0.576,0.062
				c-0.201-0.059-0.343-0.167-0.428-0.324c-0.085-0.156-0.096-0.34-0.033-0.546c0.041-0.135,0.114-0.251,0.222-0.347
				c0.098-0.084,0.151-0.14,0.157-0.159c0.019-0.06-0.015-0.103-0.1-0.127c-0.184-0.054-0.422-0.017-0.713,0.111
				c-0.403,0.178-0.763,0.482-1.078,0.909c-0.486,0.664-0.794,1.218-0.926,1.661c-0.121,0.409-0.243,0.818-0.365,1.227
				c-0.041,0.138-0.021,0.259,0.063,0.362c0.083,0.104,0.251,0.189,0.504,0.262c0.261,0.074,0.521,0.148,0.782,0.225
				c-0.047,0.152-0.094,0.304-0.14,0.457c-1.271-0.368-2.542-0.725-3.814-1.071c0.044-0.153,0.088-0.306,0.132-0.459
				c0.204,0.055,0.408,0.112,0.612,0.167c0.205,0.056,0.372,0.062,0.499,0.016c0.127-0.048,0.207-0.122,0.237-0.229
				c0.355-1.215,0.709-2.431,1.061-3.647c0.08-0.277,0.074-0.498-0.02-0.661c-0.092-0.166-0.259-0.281-0.501-0.347
				c-0.184-0.051-0.368-0.101-0.552-0.15C168.514,123.226,168.555,123.081,168.596,122.937z"/>
			<path fill="#FFFFFF" d="M179.7,131.821c0.039,0.138,0.078,0.276,0.116,0.415c-0.423,0.196-0.828,0.229-1.213,0.104
				c-0.295-0.096-0.519-0.25-0.67-0.465c-0.15-0.214-0.239-0.533-0.264-0.957c-0.553,0.27-1.007,0.422-1.366,0.458
				c-0.358,0.037-0.757-0.015-1.196-0.151c-0.627-0.195-1.063-0.466-1.31-0.815c-0.246-0.35-0.309-0.721-0.184-1.113
				c0.188-0.59,0.721-0.97,1.604-1.127s1.979-0.103,3.282,0.172c0.097-0.286,0.193-0.571,0.289-0.857
				c0.104-0.305,0.056-0.611-0.143-0.915c-0.199-0.304-0.509-0.522-0.93-0.654c-0.388-0.122-0.748-0.154-1.075-0.095
				c-0.237,0.047-0.372,0.123-0.406,0.229c-0.019,0.06,0.003,0.171,0.069,0.333c0.077,0.201,0.095,0.364,0.055,0.49
				c-0.06,0.182-0.172,0.31-0.339,0.385c-0.166,0.076-0.353,0.082-0.561,0.019c-0.222-0.068-0.385-0.193-0.489-0.376
				c-0.105-0.181-0.124-0.381-0.056-0.595c0.127-0.399,0.491-0.692,1.096-0.871c0.604-0.179,1.313-0.142,2.124,0.114
				c0.748,0.236,1.271,0.563,1.565,0.98c0.293,0.419,0.367,0.839,0.224,1.257c-0.354,1.028-0.708,2.056-1.063,3.084
				c-0.095,0.272-0.116,0.488-0.065,0.649c0.05,0.163,0.152,0.27,0.304,0.32C179.266,131.893,179.467,131.888,179.7,131.821z
				 M178.363,128.739c-1.168-0.219-2.039-0.234-2.61-0.062c-0.427,0.135-0.711,0.425-0.855,0.869
				c-0.101,0.312-0.09,0.582,0.032,0.812c0.122,0.231,0.326,0.392,0.614,0.481c0.514,0.16,1.02,0.121,1.52-0.119
				c0.5-0.241,0.843-0.63,1.027-1.173C178.181,129.278,178.272,129.009,178.363,128.739z"/>
		</g>
	</g>
</g>
</svg>
