<?xml version="1.0" encoding="utf-8"?>
<!-- Generator: Adobe Illustrator 16.0.4, SVG Export Plug-In . SVG Version: 6.00 Build 0)  -->
<!DOCTYPE svg PUBLIC "-//W3C//DTD SVG 1.1//EN" "http://www.w3.org/Graphics/SVG/1.1/DTD/svg11.dtd">
<svg version="1.1" id="Livello_1" xmlns="http://www.w3.org/2000/svg" xmlns:xlink="http://www.w3.org/1999/xlink" x="0px" y="0px"
	 width="210px" height="200px" viewBox="0 0 210 200" enable-background="new 0 0 210 200" xml:space="preserve">
<g>
	<circle fill="#0572B7" cx="105" cy="100" r="84"/>
	<circle fill="#0572B7" stroke="#FFFFFF" stroke-width="5" stroke-miterlimit="10" cx="105" cy="100" r="75.216"/>
	<g>
		<g>
			<path fill="#55ABE0" stroke="#FFFFFF" stroke-miterlimit="10" d="M65.938,127.085l-8.353,1.761
				c4.722,8.347,11.686,15.49,20.472,20.428l1.18-8.916C73.711,136.958,69.212,132.376,65.938,127.085z"/>
			<path fill="#55ABE0" stroke="#FFFFFF" stroke-miterlimit="10" d="M79.714,64.14l-1.762-8.906
				c-8.346,4.721-15.488,11.686-20.427,20.473l8.917,1.732C69.841,71.911,74.423,67.413,79.714,64.14z"/>
			<path fill="#55ABE0" stroke="#FFFFFF" stroke-miterlimit="10" d="M143.212,76.808l8.354-1.207
				c-4.721-8.348-11.685-15.49-20.472-20.428l-1.18,8.363C135.441,66.934,139.94,71.517,143.212,76.808z"/>
			<path fill="#55ABE0" stroke="#FFFFFF" stroke-miterlimit="10" d="M95.226,147.021l-5.052,7.256
				c9.712,2.699,19.685,2.551,28.919-0.033l-5.078-7.247C107.962,148.437,101.541,148.511,95.226,147.021z"/>
			<path fill="#55ABE0" stroke="#FFFFFF" stroke-miterlimit="10" d="M156.595,87.705l-6.955,3.909
				c1.44,6.052,1.514,12.474,0.022,18.789l6.966,6.223C159.328,106.914,159.18,96.938,156.595,87.705z"/>
		</g>
		<path fill="#55ABE0" stroke="#FFFFFF" stroke-width="2" stroke-miterlimit="10" d="M112.116,73.646H88.041v58.177h13.757v-19.393
			h10.318c11.4,0,20.635-8.678,20.635-19.393S123.517,73.646,112.116,73.646z M112.804,99.502h-11.006V86.574h11.006
			c3.799,0,6.879,2.893,6.879,6.464C119.683,96.61,116.603,99.502,112.804,99.502z"/>
		<g>
			<g>
				<path fill="#FFFFFF" d="M62.595,90.234c1.289,0.03,2.367-0.993,2.396-2.288c0.029-1.297-0.999-2.368-2.288-2.398
					c-1.295-0.029-2.367,0.992-2.397,2.289C60.276,89.132,61.3,90.204,62.595,90.234z"/>
			</g>
			<g>
				<path fill="#FFFFFF" d="M62.935,99.487h6.355v-2.343h-4.722l-2.604-4.337c-0.384-0.65-1.093-1.08-1.901-1.08
					c-0.221,0-0.436,0.032-0.638,0.09l-7.064,2.201l-0.955,6.771h2.344l0.955-4.771l2.742-0.854l-5.086,19.948h2.344l3.737-10.56
					l3.034,4.05v6.51h2.343v-8.34l-3.242-5.912l0.958-3.735L62.935,99.487z"/>
			</g>
		</g>
		<path fill="#FFFFFF" d="M124.233,56.017c-0.981-3.08-3.608-5.095-6.572-5.062l-2.148,0.078l-0.68-1.706
			c-1.321-3.311-2.004-4.934-2.213-5.249c-0.208-0.315-0.232-0.319-2.189-0.319c-1.733,0-2.007,0.03-2.155,0.231
			c-0.242,0.317-0.229,0.513,0.074,0.816c0.233,0.232,0.439,0.262,1.756,0.262c1.04,0,1.531,0.05,1.616,0.164
			c0.147,0.195,0.694,1.531,0.694,1.691c0,0.062-2.742,0.11-6.093,0.11h-6.096l-0.259-0.514c-0.146-0.287-0.267-0.546-0.267-0.577
			c0-0.035,0.624-0.131,1.388-0.224c1.555-0.184,2.125-0.458,1.751-0.839c-0.167-0.173-0.635-0.213-2.714-0.238
			c-1.71-0.02-2.562,0.016-2.659,0.116c-0.079,0.079-0.126,0.374-0.103,0.654c0.037,0.45,0.074,0.706,0.49,0.657l0.63-0.081
			l0.819,1.544l-2.559,3.923c-1.824-0.547-3.48-0.671-5.354-0.067c-0.901,0.379-2.179,1.286-2.763,1.971
			c-0.765,0.893-1.365,2.244-1.545,3.479c-0.02,0.137-0.033,0.275-0.043,0.41v0.938c0.193,2.657,2.037,5.144,4.615,5.999
			c1.196,0.401,1.225,0.405,2.476,0.362c0.935-0.032,1.389-0.124,2.2-0.438c1.18-0.459,1.73-0.915,2.962-2.258
			c1.247-1.367,1.377-2.924,1.426-3.339c0.103-0.036,1.123-0.071,2.27-0.071h2.088l0.019,1.05c0.012,0.577-0.029,1.312-0.023,1.439
			c0.01,0.18-0.056,0.076-0.496,0.107c-0.499,0.033-0.562,0.075-0.524,0.327c0.031,0.23,0.142,0.3,0.552,0.331
			c0.28,0.025,0.959-0.083,1.129-0.126l0.035-3.168l0.883-1.1c0.502-0.635,0.959-1.213,1.013-1.283
			c0.057-0.074,0.313-0.398,0.57-0.724c0.255-0.324,1.456-1.843,2.667-3.376c1.211-1.531,2.24-2.787,2.294-2.787
			c0.056,0,0.161,0.135,0.237,0.3c0.47,0.984,0.721,1.642,0.78,2.023c0.063,0.374,0.028,0.444-0.274,0.56
			c-0.519,0.198-1.938,1.702-2.356,2.505c-0.523,1-0.87,2.277-0.87,3.229c0,1.405,0.946,3.726,1.914,4.689
			c2.631,2.631,6.422,2.869,9.286,0.588c1-0.89,1.848-2.055,2.255-3.34C124.445,58.747,124.483,56.794,124.233,56.017z
			 M97.294,53.462c0.921,0.834,1.812,1.658,1.978,3.495l-4.212,0.061L97.294,53.462z M93.595,62.978
			c-2.516-0.084-5.165-2.008-5.138-5.539c0.022-3.49,3.771-5.908,7.668-4.562c-1.025,1.809-3.382,4.9-3.097,5.291
			c0.295,0.407,0.853,0.271,3.5,0.271h2.815C99.057,62.346,95.127,63.026,93.595,62.978z M100.687,56.937
			c-0.381-1.876-1.46-3.381-2.753-4.767l1.842-3.038c0.077,0,0.425,0.516,0.776,1.144c0.353,0.633,1.337,2.385,2.191,3.893
			c0.854,1.506,1.538,2.808,1.477,2.808L100.687,56.937z M108.823,52.424c-0.095,0.111-0.471,0.626-0.87,1.112l-2.219,2.702
			l-0.002-1.694c0.339-0.01,1.027-0.005,1.004-0.437c-0.019-0.435-0.972-0.315-1.633-0.286l0.066,2.474l-4.057-7.95h5.324
			c4.473,0,5.324,0.031,5.324,0.186C111.762,48.672,110.264,50.655,108.823,52.424z M121.434,61.693
			c-1.398,1.352-3.437,1.899-5.23,1.407c-2.697-0.744-4.485-3.369-4.074-5.986c0.229-1.458,0.624-2.285,1.532-3.21
			c1.056-1.08,1.248-1.085,1.639-0.055c0.094,0.252,0.299,0.759,0.455,1.117c0.156,0.361,0.516,1.229,0.8,1.93
			c0.579,1.435,0.91,1.769,1.368,1.353c0.375-0.524,0.045-1.295-0.368-2.189c-0.222-0.404-1.338-3.413-1.338-3.609
			c0.313-0.312,1.038-0.16,1.476-0.146c1.255,0.056,1.587,0.12,2.243,0.425c0.972,0.454,2.231,1.715,2.687,2.693
			c0.301,0.648,0.542,0.9,0.559,2.39C123.36,59.321,122.414,60.616,121.434,61.693z"/>
		<path fill="#FFFFFF" d="M147.798,124.458c-0.936-1.6-2.049-1.948-3.838-2.408c-1.787-0.46-3.591-0.529-5.157-0.529
			s-3.369,0.069-5.157,0.529c-1.787,0.46-2.915,0.809-3.851,2.408c-0.937,1.6-1.637,9.74-1.637,10.16c0,0.422,0,9.192,0,9.192h1.116
			c0,0.559,0,2.46,0,2.48c0,0.787,1.166,1.427,1.953,1.427c0.788,0,1.954-0.64,1.954-1.427c0-0.021,0-1.922,0-2.48h11.432
			c0,0.559-0.002,2.207,0,2.228c0.181,1.427,1.518,1.553,2.305,1.553s1.334-0.513,1.334-1.3c0-0.021,0-1.922,0-2.48h1.176
			c0,0,0.002-8.313,0.002-8.773C149.43,134.578,148.734,126.058,147.798,124.458z M134.856,122.601h8.371v2.233h-8.371V122.601z
			 M132.159,142.202c-1.4,0-2.535-1.134-2.535-2.532s1.135-2.532,2.535-2.532c1.398,0,2.533,1.134,2.533,2.532
			S133.558,142.202,132.159,142.202z M129.825,134.322c0,0,0.587-6.768,1.216-7.396c0.627-0.628,14.896-0.554,15.522,0.075
			c0.63,0.627,1.214,7.321,1.214,7.321H129.825z M145.159,142.202c-1.398,0-2.535-1.134-2.535-2.532s1.137-2.532,2.535-2.532
			c1.396,0,2.533,1.134,2.533,2.532S146.556,142.202,145.159,142.202z"/>
	</g>
	<g>
		<g>
			<path fill="#328ACA" stroke="#FFFFFF" stroke-width="2" stroke-miterlimit="10" d="M194.768,147.089
				c-2.534-5.82-5.349-11.609-8.446-17.346c6.004-2.538,12.219-4.851,18.63-6.916C140.979,95.972,68.834,96.142,4.965,123.337
				c0.04,0.094,0.08,0.188,0.12,0.282c6.617,2.096,13.026,4.457,19.211,7.058c-2.899,5.432-5.546,10.909-7.942,16.414
				C73.411,123.139,137.71,123.138,194.768,147.089L194.768,147.089L194.768,147.089z"/>
		</g>
	</g>
	<g>
		<g>
			<path fill="#FFFFFF" d="M31.789,121.127c2.076-0.695,4.155-1.359,6.237-1.995c1.41-0.429,2.576-0.467,3.483-0.121
				c0.909,0.345,1.492,0.976,1.76,1.881c0.268,0.906,0.136,1.692-0.389,2.359c-0.721,0.921-1.743,1.578-3.082,1.988
				c-0.73,0.223-1.459,0.45-2.188,0.681c0.418,1.252,0.839,2.504,1.262,3.753c0.074,0.218,0.184,0.357,0.329,0.414
				c0.191,0.072,0.414,0.067,0.668-0.013c0.455-0.142,0.909-0.284,1.364-0.422c0.061,0.187,0.122,0.373,0.182,0.559
				c-1.918,0.588-3.833,1.203-5.745,1.846c-0.066-0.184-0.133-0.369-0.2-0.554c0.401-0.135,0.802-0.268,1.203-0.4
				c0.239-0.08,0.399-0.179,0.479-0.302c0.082-0.122,0.096-0.257,0.045-0.407c-1.014-2.912-2.016-5.826-3.007-8.74
				c-0.076-0.222-0.205-0.358-0.386-0.41c-0.182-0.051-0.479-0.008-0.889,0.127c-0.311,0.102-0.622,0.206-0.932,0.31
				C31.919,121.498,31.854,121.312,31.789,121.127z M37.43,125.379c0.556-0.177,1.113-0.351,1.669-0.522
				c1.059-0.326,1.759-0.753,2.106-1.288c0.347-0.536,0.382-1.261,0.103-2.174c-0.196-0.639-0.452-1.099-0.772-1.376
				c-0.319-0.278-0.714-0.438-1.183-0.478c-0.468-0.039-1.181,0.085-2.135,0.38c-0.631,0.194-1.013,0.374-1.146,0.53
				c-0.135,0.157-0.158,0.365-0.073,0.622C36.474,122.509,36.951,123.944,37.43,125.379z"/>
			<path fill="#FFFFFF" d="M54.485,125.811c0.134,0.118,0.268,0.236,0.401,0.354c-0.302,0.475-0.693,0.77-1.176,0.888
				c-0.369,0.09-0.704,0.074-1.005-0.05c-0.302-0.123-0.61-0.396-0.926-0.817c-0.384,0.636-0.746,1.088-1.09,1.358
				c-0.344,0.271-0.789,0.477-1.336,0.623c-0.779,0.208-1.417,0.215-1.914,0.016c-0.498-0.198-0.819-0.54-0.962-1.025
				c-0.214-0.732,0.075-1.47,0.882-2.212c0.808-0.742,1.981-1.398,3.519-1.961c-0.095-0.359-0.189-0.716-0.283-1.075
				c-0.101-0.382-0.358-0.668-0.771-0.854c-0.414-0.185-0.886-0.209-1.413-0.072c-0.488,0.128-0.883,0.33-1.186,0.605
				c-0.214,0.204-0.302,0.369-0.266,0.5c0.021,0.075,0.122,0.175,0.3,0.3c0.218,0.158,0.349,0.313,0.392,0.47
				c0.063,0.226,0.035,0.434-0.086,0.619c-0.121,0.186-0.311,0.315-0.571,0.386c-0.277,0.075-0.532,0.052-0.768-0.066
				c-0.234-0.119-0.391-0.312-0.468-0.578c-0.144-0.498,0.035-1.036,0.544-1.618c0.508-0.581,1.274-1.009,2.292-1.273
				c0.939-0.243,1.705-0.243,2.293-0.002c0.589,0.244,0.95,0.632,1.084,1.157c0.331,1.294,0.664,2.587,0.998,3.881
				c0.089,0.343,0.215,0.582,0.376,0.713c0.163,0.138,0.339,0.184,0.53,0.137C54.089,126.163,54.292,126.029,54.485,125.811z
				 M51.009,123.483c-1.359,0.533-2.272,1.083-2.744,1.636c-0.35,0.416-0.445,0.904-0.287,1.456
				c0.111,0.387,0.309,0.658,0.594,0.817c0.286,0.158,0.606,0.19,0.965,0.095c0.641-0.171,1.134-0.54,1.484-1.111
				c0.349-0.572,0.437-1.198,0.256-1.878C51.188,124.158,51.099,123.821,51.009,123.483z"/>
			<path fill="#FFFFFF" d="M54.035,119.211c0.938-0.265,1.878-0.525,2.818-0.777c0.219,0.963,0.439,1.927,0.66,2.89
				c0.083-1.018,0.285-1.816,0.604-2.397c0.317-0.581,0.797-0.938,1.428-1.07c0.429-0.09,0.797-0.041,1.104,0.144
				c0.307,0.185,0.5,0.479,0.583,0.875c0.067,0.322,0.034,0.587-0.1,0.802c-0.133,0.212-0.328,0.347-0.585,0.399
				c-0.251,0.052-0.469,0.017-0.657-0.104c-0.187-0.121-0.309-0.312-0.365-0.571c-0.036-0.168-0.025-0.334,0.032-0.502
				c0.056-0.149,0.082-0.236,0.075-0.263c-0.017-0.077-0.078-0.104-0.185-0.081c-0.23,0.047-0.466,0.227-0.704,0.532
				c-0.33,0.427-0.536,0.963-0.619,1.605c-0.126,0.999-0.122,1.774,0.005,2.328c0.117,0.511,0.234,1.022,0.353,1.533
				c0.039,0.172,0.136,0.29,0.288,0.353c0.152,0.063,0.387,0.06,0.703-0.008c0.325-0.071,0.65-0.139,0.975-0.208
				c0.042,0.191,0.085,0.382,0.127,0.572c-1.585,0.335-3.168,0.687-4.751,1.057c-0.046-0.189-0.094-0.38-0.14-0.57
				c0.253-0.06,0.507-0.118,0.76-0.177c0.257-0.059,0.439-0.15,0.548-0.274c0.108-0.124,0.147-0.251,0.116-0.383
				c-0.36-1.515-0.717-3.03-1.073-4.545c-0.082-0.347-0.222-0.58-0.422-0.702c-0.201-0.123-0.453-0.15-0.756-0.08
				c-0.231,0.054-0.461,0.105-0.691,0.161C54.122,119.571,54.078,119.392,54.035,119.211z"/>
			<path fill="#FFFFFF" d="M68.807,121.488c0.188,0.019,0.376,0.037,0.563,0.056c-0.176,1.546-0.981,2.438-2.431,2.7
				c-1.063,0.191-1.997,0.027-2.808-0.502c-0.812-0.528-1.334-1.335-1.56-2.428c-0.261-1.265-0.082-2.324,0.545-3.169
				c0.627-0.845,1.467-1.364,2.508-1.551c0.781-0.141,1.461-0.057,2.038,0.246c0.577,0.304,0.904,0.694,0.986,1.173
				c0.049,0.288-0.002,0.541-0.158,0.759c-0.155,0.22-0.36,0.352-0.617,0.395c-0.251,0.044-0.478,0.001-0.68-0.127
				c-0.201-0.129-0.323-0.305-0.364-0.529c-0.041-0.225,0.016-0.457,0.17-0.694c0.072-0.113,0.104-0.198,0.094-0.253
				c-0.026-0.149-0.162-0.272-0.407-0.376c-0.245-0.103-0.558-0.119-0.936-0.052c-0.689,0.125-1.167,0.448-1.435,0.97
				c-0.379,0.753-0.459,1.672-0.247,2.749c0.203,1.027,0.578,1.762,1.121,2.208c0.542,0.446,1.151,0.609,1.829,0.487
				C67.955,123.379,68.546,122.695,68.807,121.488z"/>
			<path fill="#FFFFFF" d="M68.663,111.997c1.017-0.211,2.035-0.414,3.053-0.61c0.279,1.858,0.561,3.72,0.845,5.578
				c0.342-0.557,0.736-0.993,1.181-1.305c0.446-0.313,0.938-0.507,1.478-0.58c0.51-0.07,0.985-0.018,1.423,0.15
				c0.34,0.132,0.65,0.407,0.93,0.818c0.28,0.412,0.456,0.917,0.532,1.516c0.147,1.15,0.294,2.3,0.442,3.45
				c0.029,0.222,0.11,0.376,0.244,0.462c0.134,0.086,0.329,0.113,0.588,0.082c0.22-0.026,0.439-0.052,0.659-0.079
				c0.024,0.194,0.047,0.388,0.071,0.582c-1.387,0.163-2.771,0.34-4.156,0.529c-0.028-0.193-0.055-0.387-0.083-0.581
				c0.154-0.021,0.308-0.042,0.461-0.062c0.351-0.046,0.586-0.134,0.707-0.256c0.121-0.123,0.166-0.292,0.137-0.503
				c-0.155-1.149-0.31-2.297-0.464-3.446c-0.081-0.604-0.303-1.055-0.667-1.351c-0.364-0.295-0.796-0.409-1.293-0.341
				c-0.39,0.055-0.738,0.201-1.042,0.439c-0.306,0.238-0.542,0.569-0.714,0.992c-0.172,0.423-0.223,0.852-0.157,1.284
				c0.147,0.962,0.296,1.925,0.445,2.889c0.04,0.257,0.125,0.432,0.257,0.522c0.132,0.091,0.33,0.118,0.593,0.079
				c0.22-0.032,0.439-0.062,0.659-0.095c0.029,0.193,0.057,0.387,0.085,0.581c-1.354,0.192-2.708,0.398-4.061,0.616
				c-0.033-0.192-0.064-0.385-0.098-0.578c0.153-0.024,0.307-0.05,0.461-0.073c0.312-0.051,0.525-0.143,0.638-0.279
				c0.113-0.137,0.15-0.324,0.111-0.567c-0.464-2.875-0.923-5.751-1.376-8.628c-0.049-0.31-0.175-0.525-0.381-0.648
				c-0.205-0.123-0.48-0.16-0.826-0.103c-0.195,0.03-0.391,0.064-0.587,0.095C68.726,112.382,68.694,112.189,68.663,111.997z"/>
			<path fill="#FFFFFF" d="M87.972,117.66c-1.873,0.149-3.744,0.32-5.615,0.519c0.148,1.105,0.455,1.864,0.917,2.277
				c0.528,0.465,1.156,0.66,1.887,0.593c1.077-0.101,1.888-0.753,2.452-1.964c0.186,0.058,0.372,0.116,0.558,0.175
				c-0.689,1.54-1.776,2.369-3.288,2.514c-1.03,0.099-1.933-0.165-2.718-0.792s-1.248-1.487-1.375-2.584
				c-0.137-1.18,0.106-2.174,0.742-2.979c0.635-0.804,1.482-1.261,2.534-1.361c0.772-0.075,1.458,0.049,2.051,0.362
				c0.593,0.314,1.058,0.802,1.396,1.459C87.75,116.339,87.902,116.934,87.972,117.66z M82.297,117.627
				c1.135-0.121,2.271-0.231,3.406-0.332c0.202-0.019,0.352-0.095,0.453-0.232c0.101-0.138,0.138-0.359,0.11-0.665
				c-0.051-0.571-0.286-1.038-0.71-1.404c-0.423-0.364-0.901-0.523-1.428-0.472c-0.59,0.056-1.066,0.347-1.425,0.871
				C82.344,115.917,82.21,116.661,82.297,117.627z"/>
			<path fill="#FFFFFF" d="M95.044,113.912c0.542-0.551,1.057-0.836,1.534-0.855c0.285-0.012,0.524,0.064,0.718,0.223
				c0.193,0.161,0.294,0.36,0.303,0.6c0.007,0.191-0.051,0.355-0.174,0.486c-0.123,0.133-0.269,0.202-0.438,0.208
				c-0.322,0.013-0.547-0.161-0.676-0.521c-0.052-0.154-0.132-0.229-0.24-0.225c-0.192,0.008-0.398,0.135-0.614,0.378
				c0.257,0.296,0.437,0.556,0.536,0.778s0.155,0.464,0.167,0.724c0.02,0.454-0.082,0.857-0.302,1.213
				c-0.22,0.357-0.595,0.679-1.124,0.971c-0.53,0.29-1.04,0.452-1.535,0.479c-0.303,0.018-0.605,0.035-0.909,0.053
				c-0.645,0.04-1.068,0.129-1.271,0.268c-0.203,0.143-0.294,0.34-0.277,0.59c0.014,0.203,0.111,0.353,0.29,0.451
				c0.179,0.098,0.504,0.131,0.98,0.101c0.681-0.055,1.362-0.106,2.043-0.155c1.033-0.054,1.785,0.076,2.253,0.383
				c0.469,0.305,0.713,0.745,0.735,1.311c0.025,0.625-0.21,1.16-0.702,1.608c-0.686,0.633-1.726,0.983-3.132,1.063
				c-1.163,0.069-2.038-0.08-2.632-0.451c-0.467-0.292-0.718-0.635-0.749-1.036c-0.023-0.307,0.098-0.598,0.368-0.873
				c0.269-0.276,0.739-0.498,1.411-0.667c-0.551-0.09-0.974-0.244-1.266-0.468c-0.293-0.221-0.453-0.513-0.479-0.871
				c-0.025-0.332,0.066-0.63,0.273-0.893c0.207-0.262,0.583-0.502,1.127-0.714c-0.489-0.214-0.867-0.484-1.132-0.813
				c-0.265-0.33-0.415-0.715-0.447-1.163c-0.051-0.707,0.207-1.32,0.781-1.839c0.574-0.52,1.35-0.809,2.322-0.863
				c0.398-0.023,0.785,0.008,1.16,0.094C94.324,113.573,94.689,113.715,95.044,113.912z M93.693,120.903
				c-1.009,0.054-1.722,0.233-2.135,0.525c-0.413,0.293-0.604,0.627-0.578,1.001c0.025,0.354,0.205,0.621,0.539,0.803
				c0.442,0.243,1.052,0.34,1.833,0.296c0.932-0.053,1.626-0.236,2.085-0.554c0.458-0.317,0.681-0.658,0.665-1.023
				c-0.01-0.212-0.093-0.41-0.249-0.587c-0.157-0.178-0.398-0.308-0.727-0.389C94.796,120.894,94.319,120.869,93.693,120.903z
				 M92.8,113.895c-0.505,0.029-0.912,0.225-1.218,0.585c-0.307,0.361-0.439,0.849-0.399,1.462c0.043,0.654,0.24,1.151,0.586,1.493
				c0.346,0.342,0.77,0.498,1.271,0.469c0.501-0.029,0.902-0.226,1.205-0.593c0.303-0.366,0.439-0.878,0.407-1.534
				c-0.031-0.609-0.219-1.082-0.569-1.419C93.733,114.02,93.305,113.865,92.8,113.895z"/>
			<path fill="#FFFFFF" d="M104.405,113.675c0.565-0.529,1.09-0.792,1.568-0.791c0.285,0.001,0.521,0.085,0.708,0.253
				c0.187,0.167,0.279,0.372,0.277,0.611c-0.001,0.193-0.066,0.353-0.194,0.479c-0.128,0.127-0.277,0.189-0.447,0.189
				c-0.322-0.001-0.539-0.184-0.652-0.549c-0.045-0.157-0.122-0.235-0.229-0.235c-0.192,0-0.403,0.118-0.629,0.353
				c0.244,0.307,0.412,0.572,0.501,0.8c0.09,0.227,0.135,0.471,0.135,0.73c0,0.453-0.118,0.853-0.353,1.2s-0.623,0.653-1.164,0.922
				c-0.542,0.269-1.058,0.407-1.553,0.415c-0.303,0.004-0.606,0.01-0.909,0.014c-0.646,0.013-1.071,0.084-1.28,0.215
				c-0.208,0.134-0.309,0.328-0.302,0.578c0.005,0.202,0.096,0.358,0.27,0.462c0.173,0.105,0.498,0.152,0.973,0.143
				c0.682-0.026,1.364-0.05,2.046-0.07c1.033-0.01,1.778,0.151,2.233,0.477s0.68,0.774,0.677,1.341
				c-0.002,0.625-0.261,1.149-0.771,1.577c-0.712,0.605-1.767,0.911-3.173,0.931c-1.164,0.019-2.03-0.165-2.607-0.562
				c-0.454-0.311-0.689-0.665-0.702-1.066c-0.01-0.308,0.124-0.592,0.405-0.855c0.28-0.264,0.759-0.467,1.437-0.607
				c-0.546-0.112-0.96-0.285-1.243-0.52c-0.282-0.234-0.43-0.531-0.44-0.891c-0.01-0.333,0.093-0.627,0.311-0.88
				c0.218-0.252,0.604-0.476,1.156-0.666c-0.479-0.233-0.845-0.519-1.094-0.86c-0.25-0.34-0.383-0.733-0.396-1.181
				c-0.021-0.708,0.262-1.311,0.857-1.805c0.595-0.495,1.381-0.752,2.354-0.765c0.398-0.006,0.783,0.042,1.154,0.142
				C103.699,113.306,104.058,113.462,104.405,113.675z M102.755,120.603c-1.01,0.013-1.729,0.159-2.154,0.436
				c-0.425,0.275-0.63,0.602-0.62,0.976c0.009,0.355,0.177,0.628,0.502,0.824c0.431,0.26,1.035,0.384,1.816,0.372
				c0.932-0.014,1.633-0.166,2.105-0.465c0.472-0.299,0.709-0.63,0.708-0.994c0-0.214-0.075-0.413-0.223-0.597
				c-0.148-0.184-0.384-0.326-0.709-0.419C103.857,120.64,103.381,120.595,102.755,120.603z M102.165,113.563
				c-0.505,0.007-0.92,0.185-1.241,0.533c-0.321,0.348-0.474,0.829-0.46,1.444c0.015,0.656,0.189,1.16,0.521,1.517
				c0.331,0.355,0.747,0.529,1.248,0.521c0.502-0.006,0.91-0.188,1.229-0.542s0.476-0.858,0.471-1.515
				c-0.003-0.61-0.172-1.09-0.506-1.441C103.091,113.729,102.67,113.555,102.165,113.563z"/>
			<path fill="#FFFFFF" d="M107.507,113.269c1.06-0.019,2.121-0.029,3.182-0.033c-0.051,2.098-0.102,4.197-0.153,6.295
				c-0.004,0.173,0.038,0.294,0.124,0.37c0.125,0.107,0.282,0.163,0.476,0.169c0.292,0.007,0.584,0.016,0.875,0.024
				c-0.006,0.196-0.012,0.391-0.018,0.586c-1.464-0.044-2.928-0.075-4.392-0.089c0.002-0.195,0.004-0.391,0.006-0.586
				c0.272,0.002,0.545,0.006,0.818,0.01c0.243,0.003,0.421-0.049,0.536-0.16c0.114-0.11,0.175-0.271,0.179-0.485
				c0.027-1.537,0.055-3.072,0.082-4.609c0.005-0.291-0.081-0.514-0.26-0.665c-0.179-0.152-0.447-0.229-0.804-0.234
				c-0.218-0.002-0.437-0.005-0.655-0.007C107.503,113.659,107.504,113.463,107.507,113.269z M109.809,108.934
				c0.26,0.006,0.489,0.099,0.681,0.28c0.192,0.181,0.286,0.393,0.28,0.632c-0.006,0.235-0.106,0.435-0.299,0.603
				c-0.194,0.167-0.423,0.25-0.688,0.244c-0.264-0.004-0.491-0.097-0.681-0.274c-0.19-0.178-0.284-0.383-0.28-0.618
				c0.003-0.234,0.105-0.438,0.305-0.612C109.326,109.016,109.553,108.929,109.809,108.934z"/>
			<path fill="#FFFFFF" d="M116.938,113.338c1.075,0.054,1.959,0.465,2.639,1.22c0.681,0.758,0.976,1.716,0.894,2.875
				c-0.057,0.799-0.265,1.47-0.622,2.014c-0.357,0.543-0.839,0.958-1.445,1.251c-0.605,0.292-1.244,0.421-1.918,0.386
				c-0.999-0.051-1.826-0.447-2.495-1.193c-0.668-0.746-0.987-1.688-0.946-2.833c0.04-1.151,0.43-2.074,1.178-2.763
				C114.972,113.603,115.88,113.282,116.938,113.338z M116.91,113.892c-0.635-0.032-1.171,0.208-1.602,0.717
				c-0.432,0.51-0.669,1.336-0.718,2.476c-0.049,1.16,0.113,2.017,0.483,2.57c0.37,0.552,0.863,0.845,1.485,0.877
				c0.644,0.033,1.18-0.205,1.612-0.717c0.433-0.513,0.69-1.375,0.768-2.592c0.071-1.129-0.078-1.957-0.452-2.485
				C118.112,114.21,117.585,113.926,116.91,113.892z"/>
			<path fill="#FFFFFF" d="M134.661,111.792c0.302-0.299,0.606-0.599,0.911-0.897c0.211,0.028,0.422,0.057,0.633,0.085
				c-0.174,1.394-0.349,2.787-0.525,4.18c-0.187-0.026-0.374-0.051-0.562-0.076c-0.177-1.328-0.578-2.331-1.201-3.008
				c-0.623-0.678-1.394-1.071-2.306-1.177c-0.762-0.088-1.41,0.049-1.938,0.406c-0.528,0.357-0.822,0.834-0.884,1.424
				c-0.039,0.368,0.018,0.7,0.171,0.997c0.152,0.295,0.399,0.552,0.739,0.764c0.342,0.213,1,0.471,1.972,0.785
				c1.365,0.445,2.306,0.854,2.829,1.21c0.522,0.357,0.89,0.772,1.104,1.24c0.213,0.468,0.277,0.993,0.194,1.57
				c-0.148,1.031-0.646,1.833-1.479,2.413c-0.834,0.578-1.829,0.795-2.995,0.654c-1.253-0.151-2.295-0.654-3.143-1.52
				c-0.351,0.324-0.698,0.65-1.046,0.976c-0.197-0.021-0.395-0.04-0.592-0.059c0.152-1.485,0.302-2.97,0.452-4.454
				c0.202,0.019,0.403,0.039,0.604,0.06c0.108,1.253,0.527,2.272,1.254,3.07c0.727,0.797,1.585,1.253,2.59,1.375
				c0.812,0.099,1.503-0.042,2.08-0.427c0.576-0.385,0.911-0.898,1-1.543c0.051-0.367-0.001-0.701-0.159-1.002
				s-0.436-0.576-0.836-0.818c-0.4-0.244-1.208-0.58-2.426-0.995c-1.339-0.458-2.243-0.895-2.706-1.32
				c-0.649-0.601-0.928-1.385-0.831-2.354c0.101-1.01,0.54-1.804,1.325-2.375c0.786-0.57,1.744-0.795,2.868-0.663
				c0.538,0.062,1.041,0.208,1.505,0.439C133.729,110.979,134.195,111.327,134.661,111.792z"/>
			<path fill="#FFFFFF" d="M140.272,112.97c0.192,0.029,0.384,0.061,0.577,0.09c-0.158,0.982-0.316,1.965-0.475,2.947
				c0.857,0.135,1.715,0.275,2.572,0.421c-0.041,0.237-0.082,0.472-0.123,0.709c-0.854-0.145-1.709-0.285-2.564-0.42
				c-0.25,1.545-0.502,3.091-0.756,4.637c-0.065,0.401-0.014,0.725,0.154,0.97c0.167,0.247,0.408,0.394,0.72,0.445
				c0.374,0.061,0.718-0.049,1.039-0.328c0.32-0.279,0.568-0.788,0.744-1.524c0.186,0.031,0.371,0.063,0.557,0.095
				c-0.206,0.954-0.567,1.624-1.082,2.016c-0.516,0.391-1.115,0.531-1.803,0.42c-0.635-0.101-1.104-0.342-1.41-0.725
				c-0.306-0.382-0.419-0.838-0.336-1.368c0.255-1.619,0.508-3.238,0.759-4.857c-0.46-0.069-0.92-0.138-1.381-0.204
				c0.027-0.181,0.054-0.361,0.081-0.541c0.645-0.006,1.162-0.172,1.551-0.505C139.676,114.751,140.068,113.992,140.272,112.97z"/>
			<path fill="#FFFFFF" d="M151.435,124.702c0.066,0.164,0.132,0.327,0.197,0.492c-0.485,0.296-0.968,0.391-1.453,0.289
				c-0.37-0.078-0.661-0.238-0.874-0.478c-0.213-0.24-0.363-0.618-0.455-1.131c-0.63,0.403-1.156,0.654-1.584,0.749
				c-0.428,0.095-0.917,0.087-1.467-0.017c-0.785-0.148-1.351-0.417-1.702-0.809c-0.35-0.392-0.48-0.836-0.388-1.333
				c0.139-0.748,0.726-1.286,1.773-1.605s2.384-0.404,4.006-0.247c0.076-0.362,0.152-0.724,0.229-1.086
				c0.082-0.387-0.021-0.755-0.306-1.099c-0.287-0.345-0.696-0.569-1.226-0.672c-0.491-0.097-0.932-0.083-1.323,0.034
				c-0.28,0.09-0.433,0.202-0.458,0.335c-0.015,0.077,0.03,0.209,0.133,0.399c0.124,0.235,0.168,0.432,0.138,0.59
				c-0.044,0.23-0.163,0.404-0.353,0.519c-0.191,0.116-0.416,0.149-0.679,0.101c-0.279-0.051-0.495-0.183-0.65-0.389
				c-0.154-0.208-0.207-0.448-0.157-0.719c0.095-0.508,0.493-0.915,1.202-1.22s1.579-0.358,2.602-0.158
				c0.944,0.186,1.628,0.516,2.046,0.985c0.417,0.474,0.566,0.977,0.451,1.507c-0.283,1.304-0.567,2.608-0.853,3.912
				c-0.076,0.348-0.071,0.614,0.013,0.802c0.083,0.193,0.22,0.311,0.412,0.351C150.92,124.847,151.163,124.814,151.435,124.702z
				 M149.382,121.116c-1.449-0.106-2.508-0.005-3.173,0.288c-0.498,0.224-0.8,0.62-0.909,1.183
				c-0.077,0.395-0.024,0.723,0.157,0.988c0.182,0.265,0.452,0.432,0.813,0.5c0.645,0.125,1.25,0.003,1.82-0.357
				c0.569-0.362,0.93-0.887,1.075-1.575C149.238,121.8,149.31,121.458,149.382,121.116z"/>
			<path fill="#FFFFFF" d="M159.642,115.543c1.061,0.212,2.123,0.432,3.185,0.659c-0.855,3.231-1.721,6.461-2.598,9.69
				c-0.103,0.379-0.098,0.667,0.013,0.869c0.112,0.202,0.322,0.342,0.632,0.423c0.176,0.048,0.354,0.092,0.53,0.14
				c-0.053,0.189-0.106,0.376-0.159,0.565c-0.868-0.229-1.736-0.454-2.605-0.674c0.063-0.498,0.126-0.997,0.188-1.495
				c-0.447,0.438-0.913,0.734-1.397,0.891c-0.484,0.157-0.982,0.176-1.499,0.052c-0.869-0.208-1.525-0.717-1.978-1.538
				c-0.452-0.821-0.552-1.789-0.292-2.906c0.281-1.207,0.905-2.086,1.886-2.621c0.769-0.417,1.571-0.528,2.4-0.33
				c0.507,0.122,0.935,0.346,1.278,0.672c0.344,0.327,0.605,0.757,0.782,1.291c0.349-1.336,0.696-2.671,1.041-4.006
				c0.055-0.212,0.005-0.403-0.149-0.573c-0.154-0.171-0.429-0.305-0.824-0.401c-0.192-0.047-0.384-0.094-0.576-0.141
				C159.548,115.922,159.595,115.732,159.642,115.543z M158.019,119.955c-0.607-0.147-1.145-0.035-1.61,0.333
				c-0.467,0.37-0.826,1.087-1.083,2.158c-0.281,1.161-0.3,2.019-0.06,2.577c0.24,0.559,0.635,0.901,1.191,1.035
				c0.594,0.144,1.17,0.004,1.732-0.419c0.561-0.422,0.979-1.14,1.246-2.153c0.252-0.958,0.219-1.772-0.104-2.437
				C159.054,120.463,158.614,120.098,158.019,119.955z"/>
			<path fill="#FFFFFF" d="M163.902,121.007c1.056,0.253,2.111,0.514,3.166,0.783c-0.597,2.016-1.198,4.034-1.805,6.049
				c-0.049,0.166-0.041,0.295,0.025,0.39c0.095,0.136,0.236,0.23,0.427,0.285c0.288,0.082,0.575,0.166,0.863,0.249
				c-0.058,0.188-0.116,0.375-0.174,0.562c-1.442-0.42-2.885-0.824-4.33-1.213c0.054-0.188,0.108-0.377,0.162-0.565
				c0.27,0.072,0.538,0.146,0.808,0.219c0.239,0.065,0.43,0.061,0.573-0.017c0.143-0.077,0.245-0.218,0.305-0.424
				c0.433-1.478,0.863-2.957,1.292-4.436c0.081-0.282,0.054-0.517-0.085-0.71c-0.138-0.192-0.383-0.336-0.736-0.432
				c-0.215-0.059-0.431-0.117-0.647-0.175C163.797,121.384,163.85,121.195,163.902,121.007z M167.308,117.403
				c0.257,0.071,0.459,0.222,0.604,0.445c0.145,0.225,0.183,0.454,0.116,0.683c-0.066,0.226-0.217,0.395-0.454,0.506
				c-0.236,0.113-0.484,0.132-0.746,0.06c-0.261-0.073-0.463-0.22-0.606-0.44c-0.143-0.222-0.182-0.443-0.118-0.67
				c0.064-0.226,0.218-0.396,0.46-0.514C166.808,117.356,167.055,117.333,167.308,117.403z"/>
			<path fill="#FFFFFF" d="M173.263,123.5c1.059,0.332,1.835,0.956,2.316,1.865c0.482,0.909,0.523,1.914,0.135,3.012
				c-0.269,0.758-0.655,1.354-1.156,1.787c-0.502,0.433-1.093,0.71-1.775,0.835c-0.683,0.125-1.354,0.084-2.017-0.124
				c-0.98-0.307-1.698-0.905-2.165-1.797c-0.466-0.894-0.533-1.888-0.191-2.985c0.343-1.103,0.973-1.894,1.897-2.369
				S172.222,123.172,173.263,123.5z M173.089,124.028c-0.625-0.195-1.222-0.102-1.785,0.28c-0.563,0.383-1.017,1.119-1.366,2.209
				c-0.355,1.11-0.421,1.981-0.2,2.61c0.221,0.63,0.635,1.041,1.246,1.231c0.632,0.199,1.229,0.107,1.798-0.276
				c0.568-0.381,1.055-1.151,1.454-2.308c0.37-1.073,0.439-1.913,0.204-2.521C174.206,124.646,173.754,124.236,173.089,124.028z"/>
		</g>
	</g>
</g>
</svg>
