<?xml version="1.0" encoding="utf-8"?>
<!-- Generator: Adobe Illustrator 16.0.0, SVG Export Plug-In . SVG Version: 6.00 Build 0)  -->
<!DOCTYPE svg PUBLIC "-//W3C//DTD SVG 1.1//EN" "http://www.w3.org/Graphics/SVG/1.1/DTD/svg11.dtd">
<svg version="1.1" id="Livello_1" xmlns="http://www.w3.org/2000/svg" xmlns:xlink="http://www.w3.org/1999/xlink" x="0px" y="0px"
	 width="230px" height="200px" viewBox="0 0 230 200" enable-background="new 0 0 230 200" xml:space="preserve">
<g>
	<circle fill="#55ABE0" cx="115" cy="93.517" r="82.153"/>
	<g>
		<path fill="#0572B7" d="M101.57,21.468c-7.636,1.504-14.855,4.161-21.472,7.785l20.294,42.714h1.809l10.134-27.843L101.57,21.468z
			"/>
		<polygon fill="#0572B7" points="112.335,44.124 102.201,71.967 125.562,71.967 		"/>
	</g>
	<path fill="#C0C0C0" d="M116.311,85.024c-9.468,0-17.142-4.691-17.142-10.481s7.674-10.481,17.142-10.481
		c9.469,0,17.143,4.691,17.143,10.481S125.779,85.024,116.311,85.024z M116.311,59.868c-13.251,0-23.998,6.571-23.998,14.675
		s10.747,14.675,23.998,14.675c13.252,0,24-6.571,24-14.675S129.562,59.868,116.311,59.868z"/>
	<path fill="#328ACA" d="M121.041,20.204l-8.706,23.92l-10.134,27.843l-0.214,0.585h25.17l17.135-47.076
		C137.033,22.55,129.215,20.724,121.041,20.204z"/>
	<g>
		<path fill="#C0C0C0" d="M115.585,77.731c-21.521,0-38.974,17.571-38.974,39.238c0,21.666,17.453,39.238,38.974,39.238
			c21.519,0,38.973-17.572,38.973-39.238C154.558,95.303,137.104,77.731,115.585,77.731z M115.585,144.997
			c-15.377,0-27.839-12.548-27.839-28.027c0-15.48,12.462-28.028,27.839-28.028c15.376,0,27.838,12.548,27.838,28.028
			C143.423,132.449,130.961,144.997,115.585,144.997z"/>
		<g>
			<path fill="#9A9898" d="M115.593,77.881c0,0-0.958,0.046-2.756,0.133c-0.447,0.033-0.955,0.018-1.499,0.1
				c-0.543,0.082-1.137,0.171-1.778,0.268c-0.64,0.109-1.336,0.174-2.062,0.338c-0.722,0.188-1.488,0.389-2.298,0.601
				c-3.196,0.929-7.063,2.378-10.887,5.059c-3.833,2.615-7.735,6.273-10.794,11.091c-3.037,4.809-5.271,10.696-5.953,17.149
				c-0.113,0.802-0.083,1.623-0.133,2.441c-0.006,0.808-0.115,1.671-0.04,2.446c0.118,1.681,0.118,3.433,0.46,5.061
				c0.417,3.328,1.525,6.682,2.893,9.9c0.386,0.791,0.773,1.584,1.161,2.381s0.909,1.525,1.359,2.295l0.7,1.143
				c0.25,0.371,0.535,0.72,0.801,1.081c0.55,0.71,1.065,1.451,1.646,2.143c2.35,2.752,5.114,5.176,8.147,7.256
				c3.086,2.013,6.478,3.559,10.016,4.678c3.57,1.042,7.287,1.506,11.008,1.565c1.772-0.145,3.859-0.13,5.58-0.516l1.349-0.221
				l0.675-0.109l0.67-0.182l2.678-0.721c3.502-1.174,6.84-2.767,9.859-4.811c2.97-2.109,5.65-4.556,7.934-7.294
				c2.197-2.8,4.107-5.78,5.46-8.966c1.332-3.176,2.406-6.438,2.808-9.749c0.334-1.637,0.318-3.293,0.431-4.917l0.031-0.536
				l-0.023-0.632l-0.047-1.256c-0.05-0.823-0.021-1.692-0.134-2.462c-0.107-0.771-0.215-1.538-0.321-2.3
				c-0.06-0.381-0.089-0.762-0.171-1.14l-0.269-1.132c-0.175-0.754-0.349-1.502-0.521-2.245c-0.22-0.729-0.481-1.438-0.717-2.151
				c-0.939-2.856-2.279-5.455-3.696-7.875c-2.953-4.782-6.745-8.462-10.496-11.125c-3.742-2.727-7.563-4.232-10.733-5.208
				c-0.804-0.224-1.564-0.435-2.28-0.634c-0.723-0.174-1.418-0.248-2.056-0.365c-0.64-0.105-1.232-0.203-1.775-0.293
				c-0.543-0.089-1.045-0.08-1.491-0.119c-1.788-0.11-2.742-0.169-2.742-0.169L115.593,77.881z M115.585,77.581
				c0,0,0.963,0.039,2.768,0.111c0.45,0.031,0.959,0.011,1.509,0.089c0.55,0.079,1.15,0.164,1.8,0.257
				c0.646,0.105,1.353,0.167,2.087,0.326c0.732,0.176,1.51,0.363,2.331,0.561c3.248,0.882,7.198,2.239,11.216,4.792
				c4.011,2.517,8.172,6.098,11.58,10.941c3.391,4.857,5.975,10.864,6.857,17.788c0.139,0.861,0.129,1.662,0.201,2.505l0.078,1.255
				l0.04,0.631c-0.001-0.041,0.008,0.144,0.005,0.155l-0.004,0.082l-0.007,0.164l-0.015,0.328c-0.102,1.752-0.084,3.537-0.423,5.31
				c-0.414,3.579-1.538,7.121-2.96,10.57c-0.408,0.842-0.817,1.688-1.229,2.536c-0.412,0.847-0.961,1.625-1.438,2.444l-0.745,1.216
				c-0.265,0.396-0.565,0.768-0.848,1.152c-0.581,0.758-1.13,1.546-1.746,2.282c-2.487,2.939-5.44,5.51-8.672,7.717
				c-3.286,2.14-6.9,3.783-10.671,4.965l-2.878,0.719l-0.721,0.179l-0.746,0.109l-1.492,0.216c-0.996,0.146-1.998,0.307-2.941,0.306
				l-2.938,0.121c-3.955-0.116-7.894-0.671-11.66-1.832c-3.734-1.237-7.294-2.928-10.514-5.099
				c-3.169-2.237-6.037-4.831-8.458-7.755c-0.599-0.734-1.13-1.519-1.694-2.272c-0.273-0.383-0.565-0.752-0.821-1.145l-0.718-1.208
				c-0.461-0.813-0.991-1.584-1.387-2.423c-0.394-0.84-0.787-1.676-1.178-2.508c-1.387-3.407-2.477-6.856-2.874-10.419
				c-0.331-1.781-0.298-3.471-0.394-5.166c-0.007-0.229-0.023-0.384-0.021-0.672l0.039-0.643l0.08-1.279
				c0.071-0.847,0.063-1.696,0.2-2.524c0.87-6.665,3.318-12.679,6.601-17.481c3.303-4.809,7.354-8.41,11.283-10.976
				c3.938-2.597,7.841-4.011,11.062-4.939c0.815-0.209,1.588-0.407,2.314-0.594c0.73-0.17,1.435-0.241,2.08-0.354
				c0.647-0.102,1.247-0.195,1.796-0.281c0.55-0.085,1.053-0.072,1.501-0.108c1.797-0.098,2.755-0.148,2.755-0.148L115.585,77.581z"
				/>
			<path fill="#9A9898" d="M115.577,145.146c0,0-0.685-0.037-1.968-0.107c-0.32-0.027-0.68-0.018-1.072-0.079
				c-0.394-0.062-0.822-0.13-1.286-0.202c-0.462-0.082-0.966-0.134-1.488-0.255c-0.52-0.133-1.072-0.274-1.655-0.424
				c-2.305-0.663-5.099-1.667-7.928-3.511c-2.821-1.824-5.736-4.389-8.13-7.823c-2.38-3.43-4.159-7.744-4.806-12.535
				c-0.102-0.596-0.1-1.206-0.153-1.815c-0.021-0.623-0.127-1.199-0.077-1.873c0.064-1.213,0.036-2.412,0.271-3.705
				c0.281-2.579,1.057-5.057,2.049-7.518c1.025-2.449,2.479-4.745,4.159-6.899c1.74-2.114,3.804-3.991,6.086-5.611
				c2.319-1.573,4.888-2.8,7.583-3.701c2.719-0.846,5.563-1.255,8.422-1.346c1.507,0.082,2.73,0.024,4.242,0.292
				c1.474,0.147,2.847,0.527,4.236,0.871c2.732,0.846,5.354,2.026,7.738,3.567c2.346,1.59,4.495,3.444,6.301,5.573
				c1.749,2.164,3.277,4.484,4.367,6.975c1.028,2.504,1.838,5.074,2.135,7.669c0.243,1.284,0.23,2.579,0.301,3.849l0.01,0.238
				l0.006,0.118l0.002,0.06l-0.004,0.133l-0.03,0.45l-0.062,0.896c-0.055,0.604-0.05,1.167-0.152,1.795
				c-0.661,5.051-2.576,9.357-5.063,12.843c-2.499,3.469-5.524,6.013-8.427,7.789c-2.91,1.798-5.75,2.747-8.08,3.362
				c-0.59,0.138-1.148,0.268-1.674,0.39c-0.525,0.112-1.031,0.154-1.495,0.228c-0.465,0.064-0.895,0.124-1.289,0.178
				c-0.394,0.055-0.758,0.039-1.08,0.06c-1.292,0.046-1.98,0.071-1.98,0.071L115.577,145.146z M115.585,144.847
				c0,0,0.681-0.044,1.955-0.129c0.317-0.029,0.677-0.024,1.063-0.089c0.387-0.065,0.809-0.137,1.265-0.215
				c0.454-0.085,0.949-0.141,1.463-0.266c0.51-0.146,1.05-0.301,1.622-0.464c2.254-0.71,4.965-1.806,7.599-3.778
				c2.643-1.923,5.299-4.565,7.343-7.973c0.982-1.724,1.897-3.572,2.544-5.591c0.161-0.504,0.341-1.006,0.491-1.521
				c0.116-0.523,0.233-1.052,0.352-1.584c0.296-1.064,0.337-2.125,0.514-3.202c0.076-0.536,0.054-1.167,0.085-1.752l0.029-0.897
				l0.015-0.451c0.002-0.086,0,0.053-0.002,0.02l-0.003-0.054l-0.007-0.107l-0.012-0.214c-0.082-1.142-0.072-2.307-0.309-3.457
				c-0.285-2.326-1.045-4.617-1.983-6.847c-0.945-2.24-2.282-4.338-3.821-6.31c-1.602-1.928-3.478-3.657-5.562-5.15
				c-2.118-1.446-4.464-2.575-6.927-3.413c-1.255-0.341-2.514-0.726-3.771-0.882c-1.183-0.275-2.717-0.272-3.943-0.38
				c-2.624,0.035-5.248,0.352-7.77,1.08c-2.5,0.782-4.899,1.864-7.084,3.28c-2.147,1.463-4.107,3.17-5.775,5.111
				c-1.607,1.982-3.02,4.104-4.029,6.385c-0.974,2.273-1.768,4.655-2.068,6.999c-0.246,1.142-0.25,2.401-0.338,3.601
				c-0.055,0.533,0.02,1.156,0.021,1.727c0.032,0.58,0.007,1.162,0.085,1.731c0.46,4.579,2.024,8.768,4.157,12.203
				c2.151,3.443,4.918,6.064,7.642,7.939c2.714,1.927,5.472,2.967,7.752,3.63c0.577,0.15,1.124,0.294,1.639,0.429
				c0.518,0.116,1.015,0.162,1.471,0.239c0.457,0.068,0.88,0.132,1.268,0.189s0.751,0.046,1.07,0.07
				c1.284,0.06,1.969,0.092,1.969,0.092L115.585,144.847z"/>
		</g>
	</g>
	<g>
		<circle fill="#C0C0C0" cx="115.584" cy="116.688" r="30.438"/>
		<path fill="#8C8C8C" d="M146.172,116.696c0,0-0.031,0.746-0.092,2.146c-0.024,0.35-0.012,0.74-0.07,1.17
			c-0.062,0.43-0.131,0.898-0.203,1.404c-0.086,0.505-0.129,1.058-0.239,1.634c-0.131,0.571-0.271,1.179-0.418,1.821
			c-0.075,0.321-0.153,0.65-0.231,0.989c-0.111,0.329-0.225,0.667-0.342,1.012c-0.238,0.688-0.422,1.439-0.736,2.172
			c-0.318,0.735-0.648,1.5-0.992,2.293c-0.391,0.771-0.833,1.552-1.274,2.373c-1.901,3.183-4.622,6.55-8.418,9.273
			c-3.784,2.711-8.646,4.662-13.978,5.241c-0.662,0.091-1.341,0.064-2.017,0.102l-1.019,0.031l-0.511,0.016l-0.127-0.001
			l-0.062-0.005l-0.123-0.008l-0.246-0.018c-1.32-0.122-2.616-0.159-4.045-0.479c-2.826-0.438-5.488-1.41-8.102-2.622
			c-2.606-1.233-4.981-2.954-7.233-4.821c-2.196-1.951-4.152-4.19-5.845-6.649c-1.651-2.491-2.947-5.229-3.929-8.096
			c-0.95-2.903-1.439-5.879-1.595-9.028c-0.037-2.92,0.263-6.143,1.055-9.107c0.879-2.957,2.109-5.811,3.749-8.411
			c1.688-2.562,3.698-4.886,5.98-6.866c2.325-1.918,4.822-3.604,7.515-4.808c2.687-1.188,5.481-2.084,8.301-2.43
			c1.397-0.274,2.805-0.276,4.188-0.355l0.26-0.01l0.13-0.005l0.064-0.002l0.144,0.004l0.49,0.029l0.978,0.06
			c0.659,0.056,1.271,0.044,1.957,0.153c1.354,0.241,2.747,0.363,3.985,0.758c0.633,0.17,1.26,0.339,1.883,0.506
			c0.609,0.208,1.199,0.459,1.791,0.685c1.199,0.414,2.285,1.033,3.375,1.577c0.556,0.253,1.046,0.611,1.548,0.935
			c0.497,0.328,0.99,0.653,1.479,0.974c3.788,2.754,6.505,6.129,8.401,9.318c1.927,3.201,2.908,6.31,3.571,8.851
			c0.146,0.643,0.285,1.251,0.416,1.823c0.108,0.575,0.151,1.126,0.234,1.63c0.072,0.506,0.139,0.974,0.199,1.402
			c0.058,0.429,0.044,0.824,0.067,1.176c0.057,1.406,0.086,2.156,0.086,2.156V116.696z M145.873,116.688
			c0,0-0.046-0.741-0.131-2.133c-0.03-0.347-0.024-0.737-0.092-1.159c-0.068-0.423-0.144-0.883-0.226-1.381
			c-0.086-0.497-0.154-1.036-0.296-1.596c-0.158-0.555-0.328-1.145-0.507-1.769c-0.761-2.462-1.997-5.404-4.147-8.264
			c-2.104-2.874-5.014-5.708-8.685-7.955c-1.869-1.06-3.839-2.12-6.028-2.838c-0.543-0.184-1.092-0.37-1.645-0.557
			c-0.566-0.139-1.138-0.278-1.713-0.419c-1.152-0.345-2.307-0.396-3.479-0.6c-0.582-0.091-1.271-0.069-1.908-0.11l-0.978-0.039
			l-0.491-0.02c-0.093-0.002,0.057-0.001,0.021,0.001l-0.059,0.004l-0.116,0.008l-0.234,0.015c-1.244,0.086-2.516,0.063-3.771,0.315
			c-2.542,0.299-5.042,1.12-7.502,2.102c-2.459,1.021-4.756,2.494-6.919,4.181c-2.13,1.743-3.989,3.837-5.638,6.116
			c-1.607,2.314-2.857,4.891-3.799,7.598c-0.915,2.749-1.387,5.487-1.564,8.541c-0.015,2.823,0.268,5.811,1.025,8.62
			c0.838,2.796,2.023,5.489,3.618,7.913c0.395,0.606,0.85,1.171,1.281,1.748c0.223,0.283,0.425,0.583,0.664,0.852l0.731,0.792
			c0.502,0.512,0.938,1.087,1.488,1.543l1.608,1.399c2.236,1.736,4.655,3.174,7.2,4.167c2.533,0.957,5.166,1.702,7.701,1.908
			c1.225,0.208,2.607,0.148,3.915,0.192l0.246,0.008l0.124,0.004l0.061,0.002c0.035,0.002-0.079-0.005-0.003-0.005l0.471-0.034
			l0.937-0.066c0.621-0.06,1.243-0.053,1.849-0.162c4.879-0.64,9.272-2.365,12.946-4.606c3.664-2.276,6.569-5.118,8.668-8
			c2.148-2.864,3.388-5.809,4.144-8.274c0.179-0.624,0.347-1.214,0.505-1.77c0.141-0.56,0.208-1.097,0.292-1.593
			c0.08-0.497,0.154-0.957,0.222-1.378c0.065-0.422,0.059-0.818,0.088-1.166c0.081-1.397,0.125-2.144,0.125-2.144V116.688z"/>
	</g>
	<circle fill="none" stroke="#C0C0C0" stroke-width="5" stroke-miterlimit="10" cx="115" cy="93.517" r="75.216"/>
	<g>
		<g>
			<path fill="#8B8B8B" d="M97.816,127.236l-3.676,0.773c2.077,3.673,5.142,6.816,9.006,8.987l0.52-3.922
				C101.234,131.579,99.256,129.564,97.816,127.236z"/>
			<path fill="#8B8B8B" d="M103.876,99.546l-0.775-3.919c-3.672,2.077-6.813,5.142-8.986,9.007l3.923,0.762
				C99.532,102.965,101.549,100.985,103.876,99.546z"/>
			<path fill="#8B8B8B" d="M131.811,105.118l3.674-0.53c-2.077-3.673-5.14-6.814-9.006-8.987l-0.52,3.68
				C128.392,100.774,130.371,102.79,131.811,105.118z"/>
			<path fill="#8B8B8B" d="M110.699,136.007l-2.223,3.191c4.273,1.188,8.66,1.122,12.723-0.015l-2.234-3.188
				C116.303,136.63,113.479,136.661,110.699,136.007z"/>
			<path fill="#8B8B8B" d="M137.697,109.911l-3.061,1.721c0.634,2.663,0.666,5.487,0.01,8.266l3.065,2.737
				C138.899,118.362,138.834,113.975,137.697,109.911z"/>
		</g>
		<path fill="#8B8B8B" d="M118.13,103.728h-10.591v25.593h6.051v-8.53h4.54c5.016,0,9.078-3.818,9.078-8.531
			C127.208,107.545,123.146,103.728,118.13,103.728z M118.432,115.102h-4.842v-5.687h4.842c1.672,0,3.027,1.272,3.027,2.844
			C121.459,113.829,120.104,115.102,118.432,115.102z"/>
		<g>
			<g>
				<circle fill="#8B8B8B" cx="96.368" cy="109.995" r="1.031"/>
			</g>
			<g>
				<path fill="#8B8B8B" d="M96.494,115.096h2.796v-1.03h-2.077l-1.146-1.908c-0.168-0.287-0.479-0.476-0.836-0.476
					c-0.098,0-0.192,0.015-0.281,0.04l-3.107,0.968l-0.42,2.979h1.031l0.42-2.1l1.207-0.375l-2.238,8.774h1.031l1.644-4.645
					l1.335,1.781v2.863h1.031v-3.668l-1.427-2.601l0.422-1.645L96.494,115.096z"/>
			</g>
		</g>
		<path fill="#8B8B8B" d="M123.461,95.972c-0.433-1.354-1.588-2.241-2.892-2.227l-0.945,0.034l-0.3-0.751
			c-0.58-1.456-0.881-2.17-0.973-2.309s-0.103-0.141-0.963-0.141c-0.763,0-0.883,0.014-0.947,0.102
			c-0.107,0.14-0.101,0.226,0.031,0.359c0.104,0.103,0.193,0.115,0.772,0.115c0.458,0,0.673,0.021,0.712,0.072
			c0.064,0.086,0.306,0.674,0.306,0.743c0,0.028-1.207,0.049-2.682,0.049H112.9l-0.114-0.226c-0.064-0.126-0.117-0.239-0.117-0.254
			c0-0.016,0.274-0.058,0.611-0.098c0.683-0.081,0.933-0.202,0.77-0.369c-0.074-0.076-0.279-0.094-1.194-0.105
			c-0.752-0.009-1.127,0.008-1.17,0.051c-0.033,0.035-0.055,0.164-0.045,0.289c0.016,0.197,0.033,0.311,0.217,0.289l0.276-0.036
			l0.36,0.679l-1.127,1.727c-0.802-0.241-1.529-0.295-2.354-0.03c-0.396,0.167-0.958,0.565-1.215,0.866
			c-0.337,0.394-0.601,0.988-0.68,1.531c-0.01,0.061-0.015,0.121-0.019,0.181v0.412c0.084,1.169,0.896,2.263,2.03,2.64
			c0.526,0.176,0.538,0.179,1.089,0.159c0.411-0.014,0.61-0.055,0.968-0.193c0.519-0.201,0.761-0.401,1.304-0.993
			c0.547-0.602,0.604-1.286,0.626-1.468c0.046-0.017,0.494-0.032,0.999-0.032h0.918l0.009,0.462
			c0.005,0.254-0.013,0.577-0.011,0.634c0.005,0.079-0.023,0.033-0.219,0.047c-0.22,0.014-0.247,0.033-0.23,0.145
			c0.014,0.102,0.062,0.131,0.242,0.146c0.125,0.011,0.423-0.037,0.497-0.057l0.017-1.393l0.388-0.483
			c0.221-0.279,0.422-0.535,0.445-0.564c0.025-0.033,0.139-0.176,0.251-0.319s0.641-0.811,1.173-1.484
			c0.534-0.674,0.986-1.228,1.009-1.228c0.025,0,0.072,0.06,0.105,0.133c0.206,0.434,0.317,0.722,0.344,0.891
			c0.027,0.164,0.012,0.194-0.122,0.246c-0.227,0.087-0.853,0.748-1.036,1.102c-0.23,0.44-0.382,1.002-0.382,1.42
			c0,0.619,0.415,1.641,0.842,2.064c1.156,1.156,2.825,1.262,4.085,0.258c0.439-0.391,0.812-0.904,0.991-1.47
			C123.554,97.173,123.57,96.313,123.461,95.972z M111.609,94.848c0.405,0.368,0.797,0.73,0.871,1.537l-1.854,0.028L111.609,94.848z
			 M109.982,99.034c-1.107-0.037-2.271-0.884-2.26-2.437c0.01-1.535,1.659-2.6,3.373-2.008c-0.451,0.796-1.487,2.155-1.363,2.327
			c0.13,0.18,0.376,0.12,1.54,0.12h1.239C112.385,98.756,110.656,99.056,109.982,99.034z M113.102,96.377
			c-0.168-0.825-0.642-1.487-1.211-2.098l0.811-1.337c0.034,0,0.188,0.229,0.342,0.504c0.154,0.278,0.588,1.049,0.964,1.713
			c0.376,0.662,0.677,1.234,0.649,1.234L113.102,96.377z M116.682,94.392c-0.041,0.049-0.207,0.274-0.383,0.489l-0.977,1.189
			l-0.001-0.746c0.15-0.004,0.452-0.003,0.441-0.192c-0.007-0.191-0.427-0.139-0.718-0.125l0.029,1.087l-1.785-3.497h2.343
			c1.968,0,2.342,0.014,2.342,0.082C117.974,92.741,117.314,93.613,116.682,94.392z M122.229,98.47
			c-0.614,0.594-1.512,0.835-2.3,0.619c-1.187-0.328-1.975-1.482-1.793-2.635c0.101-0.641,0.274-1.005,0.673-1.41
			c0.466-0.477,0.55-0.479,0.722-0.025c0.042,0.111,0.131,0.334,0.2,0.492s0.227,0.54,0.353,0.848
			c0.254,0.632,0.399,0.779,0.602,0.596c0.165-0.231,0.021-0.569-0.161-0.963c-0.098-0.178-0.59-1.502-0.59-1.588
			c0.139-0.137,0.457-0.071,0.649-0.064c0.553,0.024,0.698,0.053,0.987,0.187c0.427,0.2,0.982,0.755,1.182,1.186
			c0.133,0.285,0.238,0.396,0.246,1.052C123.076,97.426,122.66,97.995,122.229,98.47z"/>
		<path fill="#8B8B8B" d="M134.427,127.841c-0.41-0.705-0.901-0.857-1.688-1.061c-0.787-0.201-1.581-0.232-2.27-0.232
			s-1.481,0.031-2.269,0.232c-0.786,0.203-1.282,0.355-1.693,1.061c-0.412,0.703-0.721,4.285-0.721,4.469c0,0.187,0,4.044,0,4.044
			h0.492c0,0.246,0,1.081,0,1.091c0,0.347,0.512,0.628,0.859,0.628c0.346,0,0.859-0.281,0.859-0.628c0-0.01,0-0.845,0-1.091h5.027
			c0,0.246,0,0.972,0,0.98c0.08,0.628,0.669,0.683,1.015,0.683c0.347,0,0.587-0.226,0.587-0.572c0-0.01,0-0.845,0-1.091h0.518
			c0,0,0.001-3.657,0.001-3.86C135.146,132.293,134.84,128.544,134.427,127.841z M128.734,127.022h3.683v0.982h-3.683V127.022z
			 M127.548,135.646c-0.617,0-1.116-0.497-1.116-1.113s0.499-1.113,1.116-1.113c0.614,0,1.114,0.497,1.114,1.113
			S128.162,135.646,127.548,135.646z M126.52,132.18c0,0,0.26-2.978,0.535-3.254c0.277-0.276,6.554-0.243,6.83,0.033
			c0.277,0.275,0.533,3.221,0.533,3.221H126.52z M133.267,135.646c-0.616,0-1.114-0.497-1.114-1.113s0.498-1.113,1.114-1.113
			c0.613,0,1.115,0.497,1.115,1.113S133.88,135.646,133.267,135.646z"/>
	</g>
	<g>
		<g>
			<path fill="#0572B7" stroke="#C0C0C0" stroke-width="4" stroke-miterlimit="10" d="M218.508,153.79
				c-6.562-1.267-12.939-2.861-19.114-4.75c2.964-6.088,5.604-12.241,7.921-18.431c-52.148,29.121-114.771,31.746-168.899,7.72
				c-4.867-2.171-9.665-4.558-14.381-7.16c2.587,6.364,5.521,12.695,8.804,18.955c-5.811,1.755-11.8,3.237-17.947,4.421
				C78.367,189.045,155.178,188.807,218.508,153.79L218.508,153.79L218.508,153.79z"/>
		</g>
	</g>
	<g>
		<g>
			<path fill="#C0C0C0" d="M65.062,153.475c0.402-0.323,0.802-0.646,1.2-0.971c0.25,0.068,0.503,0.134,0.756,0.2
				c-0.339,1.709-0.673,3.421-1.006,5.131c-0.233-0.062-0.467-0.124-0.7-0.185c-0.111-1.685-0.5-3.001-1.189-3.95
				c-0.688-0.954-1.564-1.583-2.661-1.9c-0.91-0.267-1.719-0.241-2.42,0.077c-0.703,0.317-1.148,0.832-1.322,1.545
				c-0.107,0.443-0.097,0.868,0.047,1.271c0.145,0.406,0.41,0.778,0.808,1.124c0.397,0.344,1.184,0.822,2.376,1.42
				c1.67,0.841,2.826,1.516,3.461,2.056c0.631,0.536,1.071,1.112,1.315,1.734c0.24,0.621,0.292,1.284,0.151,1.994
				c-0.251,1.268-0.947,2.191-2.1,2.763c-1.151,0.57-2.513,0.637-4.071,0.191c-1.677-0.48-3.024-1.385-4.032-2.688
				c-0.512,0.306-1.028,0.608-1.545,0.909c-0.263-0.085-0.523-0.167-0.787-0.25c0.439-1.788,0.886-3.572,1.333-5.361
				c0.261,0.082,0.516,0.162,0.771,0.244c-0.064,1.572,0.327,2.954,1.182,4.136c0.854,1.179,1.958,1.968,3.295,2.35
				c1.078,0.308,2.02,0.279,2.817-0.09c0.795-0.368,1.273-0.947,1.436-1.741c0.094-0.447,0.049-0.875-0.133-1.28
				c-0.181-0.406-0.524-0.797-1.015-1.178c-0.494-0.38-1.51-0.954-3.021-1.743c-1.663-0.875-2.755-1.646-3.269-2.291
				c-0.729-0.911-0.94-1.955-0.646-3.121c0.309-1.216,0.998-2.074,2.053-2.585c1.055-0.515,2.244-0.569,3.58-0.183
				c0.641,0.185,1.231,0.464,1.761,0.834C64.02,152.306,64.541,152.821,65.062,153.475z"/>
			<path fill="#C0C0C0" d="M68.338,158.631c1.326,0.295,2.652,0.576,3.982,0.845c-0.465,2.568-0.923,5.137-1.374,7.708
				c-0.038,0.212-0.006,0.374,0.097,0.49c0.145,0.165,0.343,0.28,0.604,0.337c0.385,0.09,0.771,0.176,1.164,0.262
				c-0.041,0.238-0.078,0.479-0.121,0.719c-1.957-0.432-3.91-0.895-5.866-1.386c0.046-0.236,0.094-0.475,0.137-0.714
				c0.362,0.091,0.724,0.182,1.086,0.27c0.321,0.08,0.569,0.067,0.745-0.032c0.175-0.102,0.286-0.283,0.334-0.544
				c0.346-1.877,0.691-3.754,1.043-5.63c0.063-0.357,0.002-0.651-0.19-0.89c-0.194-0.236-0.511-0.406-0.961-0.518
				c-0.273-0.067-0.547-0.136-0.82-0.203C68.244,159.105,68.289,158.868,68.338,158.631z M72.098,153.964
				c0.312,0.073,0.563,0.245,0.761,0.516c0.194,0.271,0.27,0.555,0.216,0.847c-0.056,0.287-0.213,0.51-0.483,0.666
				c-0.271,0.159-0.563,0.2-0.888,0.123c-0.322-0.075-0.58-0.251-0.771-0.519c-0.198-0.269-0.264-0.548-0.207-0.832
				c0.053-0.286,0.221-0.511,0.5-0.669C71.5,153.937,71.796,153.892,72.098,153.964z"/>
			<path fill="#C0C0C0" d="M79.984,155.651c-0.675,4.359-1.338,8.719-1.981,13.078c-0.027,0.182,0.015,0.33,0.125,0.452
				c0.159,0.163,0.38,0.271,0.643,0.322c0.364,0.069,0.727,0.137,1.091,0.206c-0.033,0.241-0.068,0.484-0.102,0.724
				c-1.955-0.364-3.909-0.758-5.857-1.178c0.035-0.24,0.075-0.48,0.116-0.719c0.343,0.072,0.69,0.146,1.033,0.219
				c0.339,0.072,0.602,0.053,0.786-0.056c0.186-0.106,0.302-0.288,0.341-0.544c0.569-3.654,1.146-7.308,1.735-10.96
				c0.053-0.319-0.003-0.575-0.17-0.76c-0.225-0.26-0.525-0.426-0.9-0.505c-0.294-0.059-0.589-0.123-0.88-0.186
				c0.042-0.239,0.083-0.479,0.123-0.719C77.386,155.25,78.686,155.457,79.984,155.651z"/>
			<path fill="#C0C0C0" d="M81.824,161.535c1.639,0.296,3.284,0.573,4.924,0.83c-0.027,0.219-0.053,0.438-0.08,0.658
				c-0.661-0.089-1.088-0.104-1.28-0.04c-0.196,0.062-0.3,0.184-0.323,0.356c-0.018,0.143-0.004,0.291,0.055,0.443
				c0.665,1.931,1.352,3.859,2.054,5.787c1.023-1.609,2.036-3.227,3.031-4.853c0.047-0.086,0.075-0.174,0.085-0.264
				c0.049-0.476-0.434-0.839-1.447-1.103c0.029-0.221,0.049-0.44,0.075-0.659c1.383,0.199,2.765,0.387,4.149,0.561
				c-0.018,0.22-0.045,0.44-0.063,0.661c-0.428-0.013-0.77,0.046-1.038,0.184c-0.271,0.136-0.484,0.34-0.651,0.604
				c-1.495,2.416-3.021,4.812-4.581,7.191c-0.199-0.031-0.398-0.062-0.599-0.093c-1.052-2.854-2.066-5.712-3.03-8.574
				c-0.107-0.31-0.249-0.537-0.439-0.686c-0.186-0.147-0.497-0.265-0.933-0.35C81.761,161.973,81.795,161.754,81.824,161.535z"/>
			<path fill="#C0C0C0" d="M103.176,168.935c-2.436-0.182-4.877-0.406-7.315-0.674c-0.079,1.396,0.128,2.411,0.638,3.043
				c0.582,0.712,1.365,1.116,2.347,1.21c1.443,0.137,2.655-0.494,3.608-1.884c0.229,0.109,0.467,0.22,0.699,0.33
				c-1.172,1.774-2.793,2.578-4.834,2.38c-1.393-0.137-2.529-0.705-3.4-1.698c-0.87-0.991-1.236-2.181-1.111-3.559
				c0.133-1.48,0.702-2.622,1.687-3.435c0.983-0.812,2.132-1.15,3.452-1.024c0.967,0.093,1.794,0.395,2.471,0.91
				c0.679,0.516,1.174,1.213,1.486,2.097C103.122,167.252,103.209,168.02,103.176,168.935z M95.918,167.567
				c1.471,0.16,2.942,0.309,4.414,0.437c0.262,0.025,0.471-0.038,0.624-0.188c0.157-0.148,0.248-0.413,0.27-0.798
				c0.044-0.718-0.164-1.347-0.619-1.895c-0.457-0.545-1.021-0.846-1.684-0.911c-0.745-0.07-1.394,0.17-1.966,0.717
				C96.39,165.482,96.042,166.357,95.918,167.567z"/>
			<path fill="#C0C0C0" d="M104.83,164.378c1.209,0.024,2.414,0.039,3.62,0.043c-0.047,1.239-0.088,2.479-0.138,3.721
				c0.436-1.206,0.936-2.109,1.5-2.715c0.567-0.605,1.246-0.894,2.047-0.867c0.543,0.02,0.973,0.183,1.295,0.495
				c0.316,0.312,0.475,0.725,0.467,1.236c-0.006,0.415-0.123,0.73-0.348,0.955c-0.224,0.224-0.503,0.331-0.835,0.322
				c-0.325-0.011-0.583-0.119-0.78-0.321c-0.192-0.202-0.285-0.471-0.277-0.806c0.004-0.218,0.065-0.416,0.189-0.603
				c0.112-0.169,0.167-0.266,0.168-0.3c0-0.099-0.064-0.149-0.2-0.155c-0.293-0.009-0.634,0.138-1.013,0.437
				c-0.528,0.418-0.952,1.003-1.257,1.757c-0.472,1.171-0.729,2.114-0.753,2.826c-0.024,0.658-0.049,1.317-0.07,1.974
				c-0.006,0.221,0.076,0.398,0.248,0.523c0.173,0.126,0.475,0.2,0.901,0.219c0.438,0.02,0.878,0.037,1.317,0.053
				c-0.005,0.246-0.017,0.489-0.019,0.737c-2.155-0.082-4.309-0.194-6.458-0.341c0.013-0.244,0.024-0.489,0.036-0.734
				c0.343,0.023,0.686,0.046,1.029,0.066c0.35,0.023,0.612-0.023,0.793-0.133c0.181-0.11,0.274-0.25,0.283-0.422
				c0.083-1.952,0.166-3.906,0.248-5.857c0.019-0.446-0.07-0.773-0.27-0.994c-0.198-0.221-0.497-0.338-0.88-0.363
				c-0.295-0.02-0.584-0.037-0.881-0.057C104.807,164.842,104.818,164.611,104.83,164.378z"/>
			<path fill="#C0C0C0" d="M121.468,164.813c0.96-0.069,1.921-0.147,2.873-0.229c0.173,0.683,0.296,1.331,0.358,1.951
				c0.53-0.736,1.062-1.261,1.598-1.575c0.535-0.313,1.128-0.488,1.78-0.518c0.694-0.031,1.273,0.104,1.738,0.413
				c0.468,0.309,0.837,0.831,1.121,1.568c0.449-0.741,0.956-1.311,1.521-1.701c0.571-0.391,1.193-0.616,1.888-0.669
				c0.913-0.071,1.611,0.12,2.104,0.577c0.633,0.605,0.989,1.424,1.063,2.46c0.112,1.524,0.215,3.051,0.327,4.574
				c0.019,0.276,0.11,0.456,0.271,0.54c0.217,0.133,0.525,0.179,0.934,0.14c0.174-0.017,0.343-0.033,0.52-0.051
				c0.02,0.247,0.037,0.492,0.056,0.737c-1.741,0.172-3.481,0.323-5.222,0.451c-0.013-0.246-0.028-0.492-0.043-0.738
				c0.172-0.014,0.346-0.027,0.52-0.039c0.444-0.033,0.747-0.126,0.918-0.27c0.164-0.146,0.24-0.353,0.226-0.614
				c-0.101-1.529-0.196-3.054-0.297-4.581c-0.045-0.683-0.266-1.196-0.651-1.543c-0.389-0.346-0.877-0.493-1.474-0.45
				c-0.45,0.032-0.854,0.171-1.206,0.416c-0.357,0.243-0.626,0.576-0.814,0.997c-0.275,0.604-0.41,1.11-0.391,1.519
				c0.064,1.323,0.127,2.649,0.189,3.974c0.012,0.268,0.105,0.466,0.271,0.582c0.167,0.119,0.421,0.167,0.762,0.145
				c0.235-0.015,0.469-0.03,0.708-0.047c0.014,0.245,0.026,0.491,0.04,0.738c-1.769,0.118-3.54,0.217-5.304,0.293
				c-0.009-0.247-0.021-0.492-0.026-0.738c0.202-0.008,0.397-0.016,0.599-0.026c0.378-0.018,0.654-0.097,0.834-0.236
				c0.175-0.14,0.263-0.316,0.255-0.518c-0.054-1.419-0.114-2.836-0.174-4.255c-0.036-0.898-0.239-1.542-0.604-1.932
				c-0.366-0.392-0.838-0.57-1.43-0.546c-0.761,0.032-1.341,0.291-1.735,0.775c-0.566,0.69-0.836,1.481-0.816,2.372
				c0.03,1.227,0.059,2.456,0.088,3.684c0.006,0.284,0.08,0.473,0.223,0.575c0.203,0.132,0.516,0.189,0.936,0.177
				c0.174-0.005,0.356-0.012,0.532-0.019c0.009,0.246,0.014,0.491,0.022,0.738c-1.743,0.065-3.494,0.107-5.239,0.127
				c-0.004-0.246-0.005-0.492-0.008-0.738c0.262-0.003,0.523-0.007,0.785-0.011c0.294-0.004,0.521-0.074,0.679-0.209
				c0.156-0.135,0.232-0.301,0.229-0.507c-0.038-2.015-0.071-4.03-0.105-6.047c-0.004-0.334-0.104-0.583-0.293-0.742
				c-0.188-0.161-0.568-0.257-1.125-0.295C121.474,165.266,121.471,165.041,121.468,164.813z"/>
			<path fill="#C0C0C0" d="M150.335,167.093c-2.435,0.374-4.868,0.702-7.306,0.988c0.164,1.397,0.548,2.351,1.152,2.861
				c0.691,0.571,1.532,0.796,2.513,0.665c1.444-0.195,2.526-1.09,3.225-2.677c0.248,0.055,0.497,0.111,0.745,0.167
				c-0.844,2.016-2.305,3.178-4.345,3.444c-1.389,0.185-2.604-0.126-3.629-0.907c-1.024-0.782-1.585-1.874-1.704-3.264
				c-0.127-1.494,0.232-2.75,1.053-3.774c0.824-1.022,1.887-1.617,3.206-1.791c0.97-0.128,1.829-0.014,2.588,0.342
				c0.761,0.354,1.368,0.932,1.83,1.732C149.985,165.441,150.215,166.182,150.335,167.093z M142.965,167.384
				c1.471-0.173,2.945-0.362,4.412-0.566c0.26-0.035,0.454-0.146,0.58-0.327c0.127-0.178,0.167-0.463,0.125-0.848
				c-0.081-0.719-0.395-1.296-0.941-1.73c-0.548-0.435-1.152-0.605-1.813-0.52c-0.744,0.1-1.34,0.48-1.803,1.152
				C143.062,165.218,142.876,166.162,142.965,167.384z"/>
			<path fill="#C0C0C0" d="M156.189,155.911c1.264-0.297,2.527-0.608,3.789-0.932c0.703,4.158,1.394,8.317,2.069,12.476
				c0.083,0.486,0.238,0.811,0.482,0.976c0.241,0.163,0.574,0.202,0.99,0.111c0.237-0.05,0.48-0.103,0.716-0.155
				c0.041,0.242,0.083,0.484,0.123,0.729c-1.176,0.258-2.353,0.504-3.529,0.741c-0.186-0.602-0.37-1.206-0.553-1.809
				c-0.312,0.745-0.729,1.346-1.24,1.786c-0.514,0.444-1.12,0.728-1.821,0.857c-1.178,0.217-2.243-0.044-3.184-0.779
				c-0.938-0.734-1.493-1.823-1.678-3.259c-0.198-1.556,0.165-2.874,1.065-3.978c0.711-0.861,1.576-1.386,2.624-1.58
				c0.644-0.118,1.236-0.08,1.788,0.111c0.555,0.195,1.063,0.547,1.538,1.062c-0.272-1.717-0.545-3.436-0.823-5.153
				c-0.046-0.271-0.195-0.467-0.444-0.579c-0.247-0.113-0.621-0.124-1.101-0.03c-0.233,0.047-0.466,0.091-0.701,0.136
				C156.266,156.398,156.228,156.155,156.189,155.911z M156.451,161.852c-0.764,0.143-1.34,0.541-1.711,1.205
				c-0.373,0.657-0.467,1.676-0.282,3.052c0.202,1.493,0.581,2.503,1.141,3.026c0.56,0.526,1.215,0.722,1.966,0.581
				c0.799-0.149,1.437-0.62,1.898-1.411c0.464-0.79,0.587-1.84,0.385-3.146c-0.196-1.233-0.643-2.144-1.349-2.735
				C157.887,161.9,157.207,161.709,156.451,161.852z"/>
			<path fill="#C0C0C0" d="M176.135,165.145c0.17,0.143,0.34,0.286,0.512,0.429c-0.428,0.629-0.973,1.035-1.622,1.213
				c-0.503,0.137-0.941,0.128-1.333-0.019c-0.391-0.146-0.771-0.486-1.15-1.021c-0.564,0.826-1.092,1.41-1.574,1.76
				c-0.485,0.349-1.098,0.612-1.842,0.794c-1.059,0.259-1.902,0.243-2.521-0.031c-0.625-0.277-0.984-0.73-1.096-1.356
				c-0.17-0.947,0.32-1.868,1.441-2.784c1.125-0.916,2.684-1.726,4.687-2.467c-0.096-0.458-0.188-0.913-0.283-1.371
				c-0.098-0.491-0.405-0.85-0.909-1.087c-0.503-0.233-1.088-0.269-1.754-0.103c-0.616,0.155-1.126,0.402-1.529,0.741
				c-0.287,0.251-0.416,0.46-0.383,0.628c0.016,0.096,0.133,0.23,0.343,0.394c0.253,0.211,0.4,0.413,0.441,0.614
				c0.056,0.291-0.004,0.551-0.177,0.786c-0.171,0.235-0.428,0.393-0.766,0.472c-0.361,0.085-0.682,0.046-0.961-0.121
				c-0.281-0.165-0.449-0.418-0.513-0.761c-0.115-0.64,0.177-1.314,0.869-2.032c0.696-0.716,1.678-1.231,2.955-1.552
				c1.18-0.296,2.129-0.304,2.848-0.006c0.721,0.305,1.158,0.784,1.301,1.454c0.352,1.644,0.706,3.29,1.05,4.935
				c0.094,0.437,0.239,0.738,0.445,0.899c0.205,0.167,0.436,0.219,0.69,0.148C175.586,165.623,175.867,165.437,176.135,165.145z
				 M171.766,162.299c-1.778,0.7-3.004,1.386-3.676,2.081c-0.501,0.523-0.684,1.141-0.553,1.853c0.094,0.498,0.313,0.85,0.665,1.061
				c0.353,0.211,0.771,0.257,1.253,0.138c0.864-0.21,1.556-0.69,2.073-1.426c0.517-0.74,0.679-1.543,0.503-2.412
				C171.947,163.161,171.854,162.729,171.766,162.299z"/>
			<path fill="#C0C0C0" d="M178.351,150.211c1.084,4.328,2.155,8.658,3.196,12.988c0.045,0.181,0.135,0.298,0.284,0.355
				c0.213,0.072,0.448,0.066,0.711-0.015c0.36-0.113,0.72-0.226,1.081-0.341c0.061,0.238,0.117,0.479,0.178,0.717
				c-1.936,0.615-3.876,1.201-5.816,1.757c-0.059-0.239-0.107-0.48-0.161-0.721c0.341-0.098,0.684-0.196,1.027-0.298
				c0.336-0.098,0.569-0.243,0.7-0.432c0.131-0.191,0.167-0.41,0.107-0.667c-0.852-3.642-1.714-7.285-2.595-10.927
				c-0.079-0.32-0.228-0.524-0.45-0.615c-0.303-0.131-0.644-0.137-1.017-0.028c-0.29,0.085-0.582,0.17-0.872,0.253
				c-0.057-0.24-0.111-0.481-0.168-0.72C175.827,151.095,177.092,150.66,178.351,150.211z"/>
		</g>
	</g>
</g>
</svg>
