<?xml version="1.0" encoding="utf-8"?>
<!-- Generator: Adobe Illustrator 16.0.4, SVG Export Plug-In . SVG Version: 6.00 Build 0)  -->
<!DOCTYPE svg PUBLIC "-//W3C//DTD SVG 1.1//EN" "http://www.w3.org/Graphics/SVG/1.1/DTD/svg11.dtd">
<svg version="1.1" id="Livello_1" xmlns="http://www.w3.org/2000/svg" xmlns:xlink="http://www.w3.org/1999/xlink" x="0px" y="0px"
	 width="210px" height="200px" viewBox="0 0 210 200" enable-background="new 0 0 210 200" xml:space="preserve">
<circle fill="#0572B7" cx="105" cy="100" r="84"/>
<circle fill="#0572B7" stroke="#FFFFFF" stroke-width="5" stroke-miterlimit="10" cx="105" cy="100" r="75.216"/>
<g>
	<g>
		<path fill="#55ABE0" stroke="#FFFFFF" stroke-miterlimit="10" d="M65.938,127.085l-8.353,1.761
			c4.722,8.347,11.686,15.49,20.472,20.428l1.18-8.916C73.711,136.958,69.212,132.376,65.938,127.085z"/>
		<path fill="#55ABE0" stroke="#FFFFFF" stroke-miterlimit="10" d="M79.714,64.14l-1.762-8.906
			c-8.346,4.721-15.488,11.686-20.427,20.473l8.917,1.732C69.841,71.911,74.423,67.413,79.714,64.14z"/>
		<path fill="#55ABE0" stroke="#FFFFFF" stroke-miterlimit="10" d="M143.212,76.808l8.354-1.207
			c-4.721-8.348-11.685-15.49-20.472-20.428l-1.18,8.363C135.441,66.934,139.94,71.517,143.212,76.808z"/>
		<path fill="#55ABE0" stroke="#FFFFFF" stroke-miterlimit="10" d="M95.226,147.021l-5.052,7.256
			c9.712,2.699,19.685,2.551,28.919-0.033l-5.078-7.247C107.962,148.437,101.541,148.511,95.226,147.021z"/>
		<path fill="#55ABE0" stroke="#FFFFFF" stroke-miterlimit="10" d="M156.595,87.705l-6.955,3.909
			c1.44,6.052,1.514,12.474,0.022,18.789l6.966,6.223C159.328,106.914,159.18,96.938,156.595,87.705z"/>
	</g>
	<path fill="#55ABE0" stroke="#FFFFFF" stroke-width="2" stroke-miterlimit="10" d="M112.116,73.646H88.041v58.177h13.757v-19.393
		h10.318c11.4,0,20.635-8.678,20.635-19.393S123.517,73.646,112.116,73.646z M112.804,99.502h-11.006V86.574h11.006
		c3.799,0,6.879,2.893,6.879,6.464C119.683,96.61,116.603,99.502,112.804,99.502z"/>
	<g>
		<g>
			<path fill="#FFFFFF" d="M62.595,90.234c1.289,0.03,2.367-0.993,2.396-2.288c0.029-1.297-0.999-2.368-2.288-2.398
				c-1.295-0.029-2.367,0.992-2.397,2.289C60.276,89.132,61.3,90.204,62.595,90.234z"/>
		</g>
		<g>
			<path fill="#FFFFFF" d="M62.935,99.487h6.355v-2.343h-4.722l-2.604-4.337c-0.384-0.65-1.093-1.08-1.901-1.08
				c-0.221,0-0.436,0.032-0.638,0.09l-7.064,2.201l-0.955,6.771h2.344l0.955-4.771l2.742-0.854l-5.086,19.948h2.344l3.737-10.56
				l3.034,4.05v6.51h2.343v-8.34l-3.242-5.912l0.958-3.735L62.935,99.487z"/>
		</g>
	</g>
	<path fill="#FFFFFF" d="M124.233,56.017c-0.981-3.08-3.608-5.095-6.572-5.062l-2.148,0.078l-0.68-1.706
		c-1.321-3.311-2.004-4.934-2.213-5.249c-0.208-0.315-0.232-0.319-2.189-0.319c-1.733,0-2.007,0.03-2.155,0.231
		c-0.242,0.317-0.229,0.513,0.074,0.816c0.233,0.232,0.439,0.262,1.756,0.262c1.04,0,1.531,0.05,1.616,0.164
		c0.147,0.195,0.694,1.531,0.694,1.691c0,0.062-2.742,0.11-6.093,0.11h-6.096l-0.259-0.514c-0.146-0.287-0.267-0.546-0.267-0.577
		c0-0.035,0.624-0.131,1.388-0.224c1.555-0.184,2.125-0.458,1.751-0.839c-0.167-0.173-0.635-0.213-2.714-0.238
		c-1.71-0.02-2.562,0.016-2.659,0.116c-0.079,0.079-0.126,0.374-0.103,0.654c0.037,0.45,0.074,0.706,0.49,0.657l0.63-0.081
		l0.819,1.544l-2.559,3.923c-1.824-0.547-3.48-0.671-5.354-0.067c-0.901,0.379-2.179,1.286-2.763,1.971
		c-0.765,0.893-1.365,2.244-1.545,3.479c-0.02,0.137-0.033,0.275-0.043,0.41v0.938c0.193,2.657,2.037,5.144,4.615,5.999
		c1.196,0.401,1.225,0.405,2.476,0.362c0.935-0.032,1.389-0.124,2.2-0.438c1.18-0.459,1.73-0.915,2.962-2.258
		c1.247-1.367,1.377-2.924,1.426-3.339c0.103-0.036,1.123-0.071,2.27-0.071h2.088l0.019,1.05c0.012,0.577-0.029,1.312-0.023,1.439
		c0.01,0.18-0.056,0.076-0.496,0.107c-0.499,0.033-0.562,0.075-0.524,0.327c0.031,0.23,0.142,0.3,0.552,0.331
		c0.28,0.025,0.959-0.083,1.129-0.126l0.035-3.168l0.883-1.1c0.502-0.635,0.959-1.213,1.013-1.283
		c0.057-0.074,0.313-0.398,0.57-0.724c0.255-0.324,1.456-1.843,2.667-3.376c1.211-1.531,2.24-2.787,2.294-2.787
		c0.056,0,0.161,0.135,0.237,0.3c0.47,0.984,0.721,1.642,0.78,2.023c0.063,0.374,0.028,0.444-0.274,0.56
		c-0.519,0.198-1.938,1.702-2.356,2.505c-0.523,1-0.87,2.277-0.87,3.229c0,1.405,0.946,3.726,1.914,4.689
		c2.631,2.631,6.422,2.869,9.286,0.588c1-0.89,1.848-2.055,2.255-3.34C124.445,58.747,124.483,56.794,124.233,56.017z
		 M97.294,53.462c0.921,0.834,1.812,1.658,1.978,3.495l-4.212,0.061L97.294,53.462z M93.595,62.978
		c-2.516-0.084-5.165-2.008-5.138-5.539c0.022-3.49,3.771-5.908,7.668-4.562c-1.025,1.809-3.382,4.9-3.097,5.291
		c0.295,0.407,0.853,0.271,3.5,0.271h2.815C99.057,62.346,95.127,63.026,93.595,62.978z M100.687,56.937
		c-0.381-1.876-1.46-3.381-2.753-4.767l1.842-3.038c0.077,0,0.425,0.516,0.776,1.144c0.353,0.633,1.337,2.385,2.191,3.893
		c0.854,1.506,1.538,2.808,1.477,2.808L100.687,56.937z M108.823,52.424c-0.095,0.111-0.471,0.626-0.87,1.112l-2.219,2.702
		l-0.002-1.694c0.339-0.01,1.027-0.005,1.004-0.437c-0.019-0.435-0.972-0.315-1.633-0.286l0.066,2.474l-4.057-7.95h5.324
		c4.473,0,5.324,0.031,5.324,0.186C111.762,48.672,110.264,50.655,108.823,52.424z M121.434,61.693
		c-1.398,1.352-3.437,1.899-5.23,1.407c-2.697-0.744-4.485-3.369-4.074-5.986c0.229-1.458,0.624-2.285,1.532-3.21
		c1.056-1.08,1.248-1.085,1.639-0.055c0.094,0.252,0.299,0.759,0.455,1.117c0.156,0.361,0.516,1.229,0.8,1.93
		c0.579,1.435,0.91,1.769,1.368,1.353c0.375-0.524,0.045-1.295-0.368-2.189c-0.222-0.404-1.338-3.413-1.338-3.609
		c0.313-0.312,1.038-0.16,1.476-0.146c1.255,0.056,1.587,0.12,2.243,0.425c0.972,0.454,2.231,1.715,2.687,2.693
		c0.301,0.648,0.542,0.9,0.559,2.39C123.36,59.321,122.414,60.616,121.434,61.693z"/>
	<path fill="#FFFFFF" d="M147.798,124.458c-0.936-1.6-2.049-1.948-3.838-2.408c-1.787-0.46-3.591-0.529-5.157-0.529
		s-3.369,0.069-5.157,0.529c-1.787,0.46-2.915,0.809-3.851,2.408c-0.937,1.6-1.637,9.74-1.637,10.16c0,0.422,0,9.192,0,9.192h1.116
		c0,0.559,0,2.46,0,2.48c0,0.787,1.166,1.427,1.953,1.427c0.788,0,1.954-0.64,1.954-1.427c0-0.021,0-1.922,0-2.48h11.432
		c0,0.559-0.002,2.207,0,2.228c0.181,1.427,1.518,1.553,2.305,1.553s1.334-0.513,1.334-1.3c0-0.021,0-1.922,0-2.48h1.176
		c0,0,0.002-8.313,0.002-8.773C149.43,134.578,148.734,126.058,147.798,124.458z M134.856,122.601h8.371v2.233h-8.371V122.601z
		 M132.159,142.202c-1.4,0-2.535-1.134-2.535-2.532s1.135-2.532,2.535-2.532c1.398,0,2.533,1.134,2.533,2.532
		S133.558,142.202,132.159,142.202z M129.825,134.322c0,0,0.587-6.768,1.216-7.396c0.627-0.628,14.896-0.554,15.522,0.075
		c0.63,0.627,1.214,7.321,1.214,7.321H129.825z M145.159,142.202c-1.398,0-2.535-1.134-2.535-2.532s1.137-2.532,2.535-2.532
		c1.396,0,2.533,1.134,2.533,2.532S146.556,142.202,145.159,142.202z"/>
</g>
<g>
	<g>
		<path fill="#328ACA" stroke="#FFFFFF" stroke-width="2" stroke-miterlimit="10" d="M194.768,147.089
			c-2.534-5.82-5.349-11.609-8.446-17.346c6.005-2.538,12.219-4.851,18.631-6.916C140.979,95.972,68.835,96.142,4.965,123.337
			c0.04,0.094,0.08,0.188,0.12,0.282c6.617,2.096,13.025,4.457,19.211,7.058c-2.898,5.432-5.546,10.909-7.941,16.414
			C73.41,123.139,137.71,123.138,194.768,147.089L194.768,147.089L194.768,147.089z"/>
	</g>
</g>
<g>
	<g>
		<path fill="#FFFFFF" d="M30.127,122.377c1.656-0.556,3.314-1.091,4.974-1.608c1.125-0.35,2.057-0.382,2.787-0.106
			c0.732,0.277,1.208,0.784,1.434,1.519c0.225,0.733,0.128,1.372-0.287,1.917c-0.57,0.75-1.388,1.288-2.462,1.624
			c-0.585,0.184-1.171,0.369-1.756,0.557c0.343,1.015,0.688,2.031,1.033,3.046c0.06,0.177,0.148,0.289,0.267,0.335
			c0.154,0.056,0.333,0.054,0.539-0.012c0.367-0.116,0.733-0.231,1.1-0.347c0.05,0.151,0.1,0.303,0.15,0.454
			c-1.548,0.484-3.093,0.986-4.636,1.504c-0.054-0.15-0.108-0.3-0.162-0.451c0.324-0.109,0.647-0.217,0.971-0.324
			c0.192-0.064,0.32-0.144,0.386-0.244c0.065-0.1,0.076-0.21,0.034-0.331c-0.824-2.363-1.641-4.731-2.451-7.098
			c-0.062-0.18-0.165-0.291-0.31-0.333c-0.146-0.042-0.383-0.008-0.71,0.1c-0.248,0.082-0.496,0.165-0.743,0.248
			C30.233,122.679,30.18,122.527,30.127,122.377z M34.668,125.839c0.447-0.143,0.893-0.284,1.339-0.426
			c0.848-0.267,1.409-0.614,1.684-1.052c0.273-0.435,0.294-1.023,0.062-1.764c-0.164-0.52-0.374-0.887-0.634-1.114
			c-0.258-0.225-0.576-0.354-0.952-0.384c-0.376-0.031-0.944,0.072-1.706,0.312c-0.503,0.159-0.807,0.302-0.913,0.429
			c-0.105,0.128-0.123,0.295-0.053,0.504C33.885,123.511,34.276,124.673,34.668,125.839z"/>
		<path fill="#FFFFFF" d="M48.428,126.06c0.111,0.095,0.22,0.188,0.331,0.282c-0.236,0.391-0.547,0.637-0.937,0.739
			c-0.297,0.078-0.568,0.07-0.815-0.026c-0.246-0.098-0.499-0.312-0.761-0.652c-0.301,0.522-0.588,0.893-0.863,1.116
			c-0.275,0.223-0.633,0.397-1.073,0.521c-0.628,0.176-1.144,0.189-1.549,0.031c-0.404-0.157-0.668-0.431-0.789-0.824
			c-0.182-0.592,0.045-1.197,0.687-1.805s1.58-1.155,2.81-1.629c-0.082-0.29-0.164-0.58-0.245-0.869
			c-0.087-0.311-0.298-0.539-0.634-0.685c-0.335-0.146-0.715-0.16-1.138-0.043c-0.389,0.108-0.706,0.275-0.944,0.502
			c-0.171,0.167-0.239,0.303-0.208,0.409c0.018,0.06,0.1,0.14,0.246,0.241c0.178,0.125,0.285,0.251,0.322,0.377
			c0.054,0.184,0.033,0.352-0.062,0.504c-0.095,0.153-0.246,0.258-0.455,0.319c-0.222,0.062-0.429,0.046-0.62-0.049
			c-0.19-0.095-0.318-0.247-0.384-0.465c-0.121-0.402,0.017-0.841,0.417-1.318c0.401-0.476,1.011-0.828,1.824-1.053
			c0.752-0.208,1.368-0.216,1.845-0.027c0.478,0.191,0.774,0.499,0.892,0.926c0.288,1.046,0.578,2.092,0.87,3.138
			c0.077,0.279,0.183,0.47,0.315,0.575c0.134,0.11,0.278,0.143,0.432,0.103C48.113,126.353,48.275,126.239,48.428,126.06z
			 M45.583,124.217c-1.086,0.449-1.816,0.904-2.19,1.357c-0.277,0.342-0.347,0.737-0.213,1.185c0.094,0.314,0.258,0.532,0.49,0.658
			c0.232,0.126,0.492,0.148,0.781,0.068c0.516-0.145,0.91-0.45,1.186-0.919c0.274-0.469,0.335-0.978,0.179-1.529
			C45.737,124.763,45.66,124.49,45.583,124.217z"/>
		<path fill="#FFFFFF" d="M47.945,120.709c0.749-0.229,1.499-0.455,2.25-0.676c0.197,0.778,0.395,1.557,0.593,2.334
			c0.045-0.827,0.191-1.479,0.435-1.957c0.243-0.476,0.619-0.775,1.125-0.895c0.343-0.081,0.64-0.048,0.891,0.095
			c0.251,0.144,0.414,0.376,0.491,0.698c0.062,0.26,0.042,0.478-0.061,0.654c-0.102,0.175-0.256,0.286-0.461,0.335
			c-0.202,0.048-0.379,0.022-0.533-0.071c-0.153-0.095-0.255-0.247-0.306-0.457c-0.034-0.137-0.03-0.272,0.014-0.409
			c0.041-0.122,0.059-0.193,0.054-0.214c-0.015-0.061-0.065-0.083-0.15-0.062c-0.185,0.043-0.371,0.192-0.555,0.445
			c-0.256,0.354-0.411,0.791-0.463,1.314c-0.08,0.812-0.06,1.444,0.054,1.891c0.105,0.413,0.21,0.826,0.316,1.238
			c0.036,0.139,0.116,0.234,0.241,0.281c0.125,0.05,0.313,0.04,0.568-0.021c0.261-0.063,0.523-0.126,0.785-0.188
			c0.039,0.154,0.077,0.309,0.115,0.464c-1.276,0.303-2.552,0.618-3.827,0.944c-0.041-0.153-0.083-0.308-0.124-0.461
			c0.204-0.053,0.409-0.104,0.613-0.156c0.205-0.052,0.351-0.129,0.437-0.231c0.085-0.102,0.115-0.208,0.086-0.313
			c-0.32-1.224-0.639-2.449-0.957-3.674c-0.072-0.278-0.19-0.466-0.354-0.562c-0.163-0.097-0.366-0.115-0.609-0.053
			c-0.185,0.047-0.369,0.093-0.553,0.141C48.021,121,47.983,120.854,47.945,120.709z"/>
		<path fill="#FFFFFF" d="M59.911,122.249c0.152,0.009,0.305,0.02,0.457,0.03c-0.097,1.26-0.723,2.008-1.891,2.256
			c-0.857,0.184-1.617,0.07-2.288-0.338c-0.67-0.412-1.113-1.056-1.321-1.938c-0.241-1.024-0.124-1.884,0.359-2.585
			c0.483-0.702,1.144-1.139,1.976-1.318c0.624-0.132,1.174-0.084,1.647,0.148c0.473,0.23,0.75,0.54,0.83,0.925
			c0.048,0.232,0.013,0.44-0.105,0.621c-0.118,0.182-0.281,0.294-0.486,0.336c-0.202,0.041-0.386,0.014-0.552-0.085
			c-0.166-0.1-0.269-0.239-0.309-0.421c-0.039-0.181-0.001-0.37,0.116-0.567c0.056-0.094,0.079-0.164,0.068-0.209
			c-0.025-0.12-0.138-0.218-0.338-0.294c-0.2-0.077-0.452-0.082-0.754-0.019c-0.551,0.117-0.927,0.393-1.127,0.821
			c-0.285,0.621-0.326,1.367-0.126,2.237c0.19,0.828,0.513,1.417,0.963,1.767c0.451,0.35,0.948,0.465,1.494,0.35
			C59.276,123.805,59.736,123.237,59.911,122.249z"/>
		<path fill="#FFFFFF" d="M59.504,114.548c0.808-0.197,1.616-0.391,2.425-0.58c0.287,1.501,0.576,3.002,0.867,4.502
			c0.257-0.462,0.559-0.828,0.906-1.096c0.348-0.269,0.738-0.441,1.168-0.517c0.408-0.074,0.792-0.048,1.15,0.074
			c0.278,0.097,0.538,0.309,0.777,0.633c0.24,0.326,0.402,0.728,0.486,1.213c0.161,0.928,0.323,1.856,0.485,2.784
			c0.031,0.18,0.104,0.301,0.214,0.367c0.111,0.066,0.271,0.08,0.479,0.044c0.176-0.029,0.354-0.059,0.53-0.087
			c0.026,0.157,0.053,0.314,0.08,0.47c-1.115,0.182-2.23,0.375-3.345,0.574c-0.029-0.156-0.059-0.312-0.087-0.469
			c0.124-0.022,0.247-0.044,0.371-0.066c0.282-0.051,0.47-0.126,0.562-0.231c0.093-0.104,0.124-0.241,0.093-0.412
			c-0.167-0.927-0.334-1.855-0.5-2.782c-0.088-0.486-0.282-0.846-0.586-1.074c-0.304-0.228-0.656-0.307-1.053-0.235
			c-0.312,0.056-0.587,0.187-0.823,0.39c-0.237,0.203-0.418,0.478-0.542,0.827c-0.125,0.349-0.151,0.698-0.083,1.047
			c0.151,0.777,0.302,1.554,0.454,2.332c0.041,0.207,0.116,0.347,0.227,0.416c0.109,0.07,0.27,0.085,0.481,0.045
			c0.177-0.033,0.354-0.065,0.53-0.098c0.03,0.156,0.06,0.312,0.089,0.468c-1.091,0.201-2.181,0.408-3.27,0.625
			c-0.032-0.155-0.064-0.312-0.096-0.467c0.124-0.025,0.247-0.049,0.37-0.074c0.253-0.05,0.421-0.131,0.508-0.245
			c0.087-0.115,0.111-0.268,0.072-0.464c-0.467-2.321-0.929-4.643-1.387-6.963c-0.049-0.25-0.158-0.421-0.327-0.516
			c-0.168-0.095-0.39-0.115-0.665-0.062c-0.156,0.032-0.312,0.062-0.468,0.093C59.566,114.859,59.535,114.704,59.504,114.548z"/>
		<path fill="#FFFFFF" d="M75.241,118.471c-1.502,0.201-3.003,0.417-4.504,0.648c0.164,0.891,0.442,1.497,0.833,1.813
			c0.446,0.356,0.962,0.492,1.55,0.406c0.867-0.125,1.495-0.69,1.895-1.696c0.153,0.04,0.306,0.079,0.458,0.118
			c-0.487,1.281-1.33,1.999-2.547,2.178c-0.83,0.122-1.57-0.056-2.231-0.536c-0.661-0.48-1.066-1.16-1.212-2.046
			c-0.157-0.953,0-1.767,0.479-2.444c0.478-0.677,1.141-1.077,1.98-1.201c0.618-0.091,1.173-0.021,1.664,0.21
			s0.886,0.605,1.187,1.125C75.001,117.41,75.151,117.885,75.241,118.471z M70.666,118.674c0.91-0.14,1.819-0.275,2.729-0.404
			c0.162-0.024,0.281-0.092,0.355-0.208c0.075-0.115,0.095-0.295,0.06-0.543c-0.066-0.461-0.276-0.831-0.633-1.11
			c-0.357-0.279-0.746-0.387-1.167-0.326c-0.472,0.07-0.843,0.324-1.11,0.763C70.633,117.286,70.555,117.895,70.666,118.674z"/>
		<path fill="#FFFFFF" d="M80.748,115.107c0.408-0.475,0.804-0.729,1.186-0.768c0.228-0.024,0.424,0.024,0.588,0.145
			c0.164,0.119,0.254,0.276,0.274,0.469c0.016,0.156-0.021,0.29-0.114,0.404c-0.091,0.112-0.205,0.178-0.34,0.191
			c-0.258,0.025-0.448-0.102-0.57-0.39c-0.049-0.122-0.117-0.179-0.203-0.169c-0.154,0.016-0.312,0.127-0.473,0.336
			c0.222,0.229,0.378,0.429,0.471,0.605c0.091,0.175,0.149,0.367,0.171,0.579c0.039,0.366-0.022,0.699-0.181,0.999
			c-0.158,0.3-0.444,0.58-0.855,0.843c-0.413,0.262-0.815,0.416-1.213,0.461c-0.243,0.029-0.486,0.056-0.73,0.085
			c-0.518,0.062-0.854,0.153-1.012,0.276c-0.156,0.125-0.221,0.29-0.195,0.492c0.021,0.162,0.105,0.281,0.254,0.353
			c0.149,0.069,0.414,0.082,0.796,0.036c0.546-0.075,1.094-0.149,1.641-0.222c0.831-0.094,1.445-0.024,1.838,0.2
			c0.395,0.225,0.614,0.567,0.663,1.025c0.053,0.505-0.109,0.951-0.484,1.34c-0.522,0.547-1.348,0.883-2.484,1.015
			c-0.94,0.109-1.657,0.029-2.156-0.244c-0.393-0.215-0.611-0.483-0.654-0.807c-0.033-0.247,0.052-0.488,0.256-0.724
			c0.204-0.233,0.575-0.438,1.11-0.604c-0.451-0.047-0.799-0.154-1.045-0.321c-0.248-0.168-0.391-0.395-0.429-0.685
			c-0.035-0.268,0.024-0.514,0.179-0.737c0.154-0.221,0.447-0.433,0.875-0.63c-0.404-0.15-0.722-0.352-0.95-0.607
			c-0.229-0.254-0.367-0.563-0.414-0.923c-0.074-0.571,0.104-1.081,0.541-1.527c0.437-0.446,1.045-0.716,1.822-0.806
			c0.318-0.038,0.63-0.031,0.936,0.021C80.152,114.868,80.452,114.965,80.748,115.107z M80.011,120.841
			c-0.813,0.093-1.381,0.27-1.7,0.527c-0.319,0.256-0.459,0.537-0.42,0.839c0.037,0.285,0.195,0.494,0.475,0.625
			c0.37,0.176,0.868,0.226,1.499,0.154c0.753-0.088,1.307-0.268,1.661-0.551c0.355-0.28,0.518-0.568,0.486-0.862
			c-0.019-0.173-0.096-0.327-0.232-0.464c-0.136-0.136-0.337-0.231-0.607-0.279C80.902,120.782,80.515,120.783,80.011,120.841z
			 M78.946,115.2c-0.404,0.047-0.722,0.224-0.95,0.53c-0.229,0.307-0.312,0.708-0.251,1.205c0.066,0.529,0.248,0.924,0.544,1.185
			c0.296,0.261,0.645,0.366,1.047,0.32c0.402-0.046,0.715-0.225,0.94-0.537c0.226-0.312,0.31-0.735,0.25-1.264
			c-0.055-0.493-0.231-0.867-0.528-1.123C79.701,115.258,79.35,115.154,78.946,115.2z"/>
		<path fill="#FFFFFF" d="M88.238,114.424c0.422-0.46,0.826-0.701,1.208-0.729c0.229-0.015,0.422,0.039,0.582,0.164
			c0.159,0.124,0.245,0.285,0.258,0.479c0.01,0.157-0.031,0.289-0.127,0.4c-0.095,0.111-0.21,0.171-0.346,0.18
			c-0.258,0.017-0.443-0.118-0.556-0.408c-0.045-0.124-0.111-0.183-0.197-0.176c-0.154,0.012-0.316,0.118-0.483,0.321
			c0.213,0.234,0.363,0.441,0.449,0.619c0.085,0.18,0.136,0.373,0.151,0.585c0.027,0.365-0.046,0.699-0.213,0.992
			c-0.168,0.296-0.462,0.564-0.881,0.814c-0.42,0.247-0.827,0.39-1.225,0.421c-0.244,0.021-0.488,0.04-0.731,0.062
			c-0.519,0.044-0.858,0.125-1.019,0.242c-0.16,0.119-0.23,0.283-0.211,0.485c0.016,0.163,0.096,0.283,0.242,0.36
			c0.146,0.074,0.41,0.097,0.792,0.063c0.548-0.058,1.096-0.113,1.645-0.167c0.832-0.066,1.442,0.021,1.827,0.26
			c0.386,0.238,0.594,0.587,0.626,1.046c0.036,0.508-0.141,0.947-0.527,1.324c-0.54,0.531-1.375,0.838-2.512,0.933
			c-0.941,0.078-1.654-0.024-2.142-0.315c-0.384-0.228-0.593-0.503-0.625-0.828c-0.024-0.249,0.067-0.487,0.28-0.715
			c0.211-0.227,0.588-0.418,1.127-0.568c-0.448-0.063-0.792-0.18-1.032-0.355c-0.241-0.175-0.376-0.408-0.404-0.699
			c-0.026-0.27,0.041-0.513,0.203-0.73c0.162-0.218,0.459-0.418,0.894-0.602c-0.398-0.164-0.708-0.375-0.928-0.639
			c-0.219-0.263-0.347-0.575-0.381-0.937c-0.055-0.572,0.14-1.077,0.59-1.508c0.45-0.433,1.066-0.682,1.844-0.746
			c0.318-0.026,0.629-0.009,0.932,0.052C87.652,114.165,87.948,114.271,88.238,114.424z M87.311,120.13
			c-0.814,0.065-1.386,0.226-1.713,0.471c-0.327,0.246-0.476,0.522-0.447,0.825c0.027,0.286,0.178,0.499,0.453,0.641
			c0.363,0.188,0.858,0.255,1.489,0.204c0.755-0.062,1.312-0.225,1.676-0.496c0.364-0.268,0.536-0.55,0.514-0.846
			c-0.013-0.174-0.085-0.329-0.216-0.471c-0.13-0.142-0.329-0.242-0.596-0.299C88.202,120.1,87.815,120.091,87.311,120.13z
			 M86.438,114.458c-0.405,0.034-0.727,0.199-0.965,0.498c-0.239,0.3-0.336,0.698-0.291,1.195c0.048,0.531,0.216,0.932,0.503,1.202
			c0.287,0.27,0.63,0.387,1.033,0.355c0.403-0.034,0.721-0.202,0.956-0.507c0.235-0.306,0.333-0.723,0.292-1.255
			c-0.039-0.494-0.202-0.874-0.489-1.139C87.189,114.541,86.843,114.425,86.438,114.458z"/>
		<path fill="#FFFFFF" d="M90.697,113.917c0.847-0.079,1.695-0.151,2.542-0.219c0.091,1.703,0.182,3.406,0.274,5.109
			c0.007,0.139,0.049,0.237,0.123,0.292c0.107,0.08,0.237,0.115,0.393,0.107c0.235-0.013,0.471-0.024,0.706-0.035
			c0.007,0.159,0.015,0.318,0.023,0.476c-1.181,0.056-2.362,0.122-3.542,0.196c-0.01-0.159-0.021-0.317-0.031-0.477
			c0.22-0.013,0.44-0.027,0.66-0.041c0.196-0.011,0.335-0.065,0.421-0.161c0.085-0.096,0.123-0.23,0.113-0.404
			c-0.074-1.246-0.147-2.492-0.22-3.738c-0.014-0.236-0.096-0.411-0.249-0.524c-0.152-0.11-0.371-0.16-0.658-0.141
			c-0.175,0.01-0.35,0.022-0.525,0.033C90.717,114.234,90.707,114.074,90.697,113.917z M92.271,110.267
			c0.209-0.011,0.396,0.051,0.56,0.185c0.165,0.136,0.252,0.301,0.263,0.495c0.01,0.19-0.057,0.358-0.202,0.506
			c-0.144,0.149-0.321,0.226-0.533,0.239c-0.21,0.011-0.398-0.049-0.56-0.181c-0.162-0.133-0.25-0.293-0.261-0.484
			c-0.011-0.189,0.058-0.361,0.207-0.514C91.892,110.361,92.068,110.278,92.271,110.267z"/>
		<path fill="#FFFFFF" d="M98.234,113.382c0.862-0.026,1.593,0.243,2.189,0.81c0.596,0.565,0.9,1.322,0.917,2.265
			c0.011,0.651-0.108,1.208-0.355,1.673c-0.247,0.464-0.604,0.834-1.07,1.111c-0.466,0.279-0.97,0.426-1.514,0.443
			c-0.807,0.025-1.499-0.242-2.085-0.803c-0.586-0.561-0.904-1.307-0.946-2.234c-0.042-0.935,0.211-1.707,0.763-2.313
			C96.684,113.726,97.386,113.407,98.234,113.382z M98.248,113.832c-0.509,0.015-0.921,0.245-1.231,0.687
			c-0.311,0.441-0.447,1.124-0.41,2.05c0.037,0.943,0.225,1.626,0.559,2.05c0.335,0.423,0.751,0.627,1.252,0.611
			c0.521-0.016,0.934-0.244,1.245-0.688c0.311-0.443,0.458-1.162,0.435-2.151c-0.021-0.918-0.199-1.579-0.533-1.98
			C99.229,114.009,98.79,113.815,98.248,113.832z"/>
		<path fill="#FFFFFF" d="M105.82,113.451c1.05,0.002,2.099,0.012,3.149,0.029c-0.002,0.144-0.004,0.287-0.007,0.432
			c-0.418,0-0.686,0.033-0.802,0.093c-0.117,0.061-0.176,0.148-0.177,0.261c-0.001,0.094,0.021,0.186,0.064,0.28
			c0.549,1.177,1.088,2.356,1.62,3.537c0.527-1.125,1.061-2.247,1.603-3.368c0.024-0.059,0.037-0.116,0.039-0.176
			c0.008-0.308-0.312-0.511-0.963-0.6c0.003-0.145,0.006-0.288,0.01-0.431c0.883,0.02,1.767,0.045,2.65,0.074
			c-0.005,0.145-0.01,0.287-0.015,0.431c-0.269,0.017-0.484,0.077-0.647,0.183c-0.163,0.104-0.289,0.249-0.38,0.432
			c-0.828,1.658-1.638,3.322-2.431,4.99c-0.12-0.002-0.24-0.005-0.359-0.006c-0.786-1.742-1.591-3.48-2.416-5.214
			c-0.09-0.188-0.199-0.317-0.328-0.393c-0.13-0.075-0.333-0.115-0.609-0.119C105.819,113.738,105.819,113.595,105.82,113.451z"/>
		<path fill="#FFFFFF" d="M113.489,113.596c0.85,0.006,1.7,0.019,2.551,0.035c-0.081,1.703-0.162,3.407-0.244,5.11
			c-0.007,0.14,0.024,0.24,0.092,0.303c0.098,0.09,0.224,0.138,0.38,0.146c0.235,0.012,0.471,0.023,0.706,0.036
			c-0.008,0.158-0.017,0.317-0.025,0.476c-1.181-0.062-2.362-0.114-3.543-0.157c0.006-0.159,0.012-0.318,0.018-0.477
			c0.22,0.007,0.44,0.017,0.66,0.025c0.196,0.007,0.34-0.031,0.436-0.118s0.146-0.217,0.153-0.391
			c0.054-1.248,0.106-2.494,0.16-3.742c0.01-0.236-0.055-0.419-0.195-0.545c-0.14-0.125-0.353-0.194-0.64-0.206
			c-0.175-0.007-0.35-0.014-0.524-0.02C113.477,113.912,113.483,113.755,113.489,113.596z M115.419,110.121
			c0.209,0.01,0.389,0.089,0.539,0.24c0.15,0.151,0.221,0.324,0.212,0.518c-0.009,0.191-0.092,0.351-0.251,0.484
			c-0.158,0.133-0.343,0.193-0.554,0.184c-0.211-0.008-0.391-0.087-0.54-0.235c-0.148-0.148-0.219-0.315-0.211-0.508
			c0.008-0.19,0.093-0.354,0.257-0.491C115.033,110.177,115.216,110.113,115.419,110.121z"/>
		<path fill="#FFFFFF" d="M124.312,119.551c0.07,0.125,0.139,0.25,0.208,0.375c-0.351,0.288-0.723,0.417-1.116,0.385
			c-0.301-0.023-0.548-0.123-0.742-0.294c-0.193-0.173-0.353-0.46-0.477-0.865c-0.456,0.391-0.847,0.645-1.176,0.764
			c-0.329,0.117-0.717,0.164-1.164,0.134c-0.637-0.042-1.114-0.203-1.431-0.483c-0.316-0.282-0.464-0.627-0.44-1.036
			c0.036-0.616,0.448-1.109,1.243-1.47c0.795-0.359,1.841-0.564,3.134-0.603c0.023-0.3,0.045-0.599,0.068-0.899
			c0.025-0.32-0.092-0.606-0.352-0.854c-0.259-0.249-0.603-0.387-1.031-0.417c-0.395-0.027-0.741,0.026-1.036,0.16
			c-0.213,0.1-0.321,0.207-0.329,0.316c-0.004,0.063,0.044,0.166,0.144,0.308c0.121,0.177,0.176,0.331,0.168,0.462
			c-0.013,0.191-0.088,0.341-0.228,0.453c-0.139,0.112-0.313,0.162-0.525,0.149c-0.226-0.014-0.41-0.098-0.552-0.25
			c-0.142-0.153-0.208-0.34-0.194-0.564c0.024-0.418,0.3-0.786,0.828-1.102c0.528-0.315,1.206-0.445,2.03-0.388
			c0.761,0.054,1.331,0.25,1.707,0.584c0.375,0.338,0.544,0.729,0.508,1.167c-0.088,1.079-0.177,2.16-0.266,3.239
			c-0.024,0.287,0.008,0.501,0.094,0.645c0.085,0.147,0.207,0.227,0.362,0.24C123.922,119.723,124.11,119.669,124.312,119.551z
			 M122.32,116.876c-1.152,0.061-1.977,0.25-2.474,0.552c-0.371,0.231-0.569,0.579-0.599,1.043c-0.021,0.325,0.054,0.586,0.225,0.78
			c0.169,0.195,0.4,0.303,0.693,0.322c0.523,0.035,0.99-0.123,1.403-0.472c0.413-0.35,0.643-0.807,0.686-1.378
			C122.277,117.441,122.298,117.159,122.32,116.876z"/>
		<path fill="#FFFFFF" d="M130.016,111.323c1.583,0.168,3.165,0.353,4.747,0.555c-0.021,0.158-0.041,0.315-0.061,0.472
			c-0.377-0.047-0.754-0.095-1.132-0.141c-0.18-0.022-0.317,0.005-0.413,0.081s-0.154,0.207-0.177,0.391
			c-0.297,2.452-0.598,4.903-0.9,7.354c-0.022,0.177,0.015,0.31,0.109,0.395c0.095,0.086,0.3,0.147,0.614,0.186
			c0.46,0.057,0.92,0.115,1.38,0.175c0.735,0.096,1.366-0.055,1.901-0.453c0.533-0.399,0.991-1.153,1.375-2.265
			c0.157,0.022,0.314,0.045,0.472,0.068c-0.253,1.18-0.506,2.359-0.759,3.541c-2.72-0.392-5.444-0.732-8.169-1.022
			c0.018-0.158,0.035-0.317,0.052-0.474c0.268,0.028,0.537,0.057,0.804,0.087c0.275,0.031,0.475,0.002,0.597-0.083
			c0.122-0.086,0.196-0.239,0.221-0.458c0.284-2.429,0.565-4.855,0.844-7.284c0.018-0.157-0.016-0.278-0.104-0.369
			c-0.087-0.091-0.225-0.148-0.414-0.168c-0.346-0.039-0.69-0.075-1.036-0.113C129.982,111.638,129.999,111.48,130.016,111.323z"/>
		<path fill="#FFFFFF" d="M138.851,115.913c0.85,0.102,1.7,0.208,2.55,0.319c-0.273,1.684-0.548,3.368-0.824,5.052
			c-0.022,0.137-0.003,0.242,0.058,0.311c0.088,0.1,0.209,0.163,0.364,0.187c0.234,0.039,0.469,0.076,0.703,0.115
			c-0.027,0.158-0.053,0.314-0.08,0.47c-1.176-0.193-2.353-0.376-3.529-0.551c0.024-0.157,0.048-0.314,0.072-0.471
			c0.219,0.033,0.438,0.065,0.658,0.098c0.195,0.03,0.344,0.007,0.449-0.069c0.105-0.076,0.171-0.2,0.198-0.372
			c0.196-1.233,0.391-2.467,0.584-3.7c0.038-0.235-0.007-0.421-0.134-0.564c-0.125-0.14-0.331-0.233-0.616-0.275
			c-0.174-0.026-0.349-0.052-0.523-0.078C138.803,116.226,138.827,116.069,138.851,115.913z M141.173,112.674
			c0.208,0.032,0.379,0.132,0.512,0.298c0.133,0.167,0.185,0.347,0.154,0.539c-0.03,0.189-0.132,0.338-0.306,0.454
			c-0.172,0.114-0.365,0.154-0.575,0.122s-0.382-0.13-0.513-0.294c-0.132-0.163-0.184-0.339-0.155-0.528
			c0.029-0.187,0.133-0.341,0.312-0.459C140.78,112.686,140.971,112.643,141.173,112.674z"/>
		<path fill="#FFFFFF" d="M147.604,113.873c0.848,0.12,1.696,0.244,2.545,0.373c-0.527,2.662-1.061,5.323-1.6,7.984
			c-0.063,0.312-0.045,0.546,0.053,0.703c0.1,0.158,0.274,0.262,0.526,0.311c0.144,0.029,0.287,0.057,0.43,0.086
			c-0.032,0.156-0.064,0.312-0.097,0.467c-0.704-0.142-1.409-0.279-2.114-0.414c0.026-0.407,0.052-0.814,0.077-1.221
			c-0.337,0.375-0.694,0.64-1.073,0.791c-0.379,0.151-0.776,0.191-1.195,0.114c-0.705-0.127-1.253-0.511-1.651-1.156
			c-0.398-0.645-0.521-1.426-0.361-2.342c0.172-0.993,0.632-1.73,1.389-2.211c0.593-0.374,1.225-0.5,1.891-0.38
			c0.408,0.075,0.756,0.235,1.044,0.482c0.289,0.248,0.515,0.583,0.681,1.006c0.215-1.099,0.428-2.197,0.641-3.297
			c0.034-0.175-0.015-0.327-0.144-0.458c-0.13-0.13-0.352-0.225-0.669-0.283c-0.154-0.028-0.307-0.057-0.46-0.085
			C147.546,114.186,147.576,114.029,147.604,113.873z M146.513,117.527c-0.489-0.089-0.911,0.027-1.265,0.349
			c-0.354,0.32-0.609,0.92-0.767,1.799c-0.172,0.954-0.148,1.651,0.068,2.091c0.217,0.441,0.549,0.7,1,0.783
			c0.482,0.086,0.935-0.053,1.363-0.424c0.428-0.369,0.724-0.971,0.889-1.808c0.155-0.79,0.092-1.445-0.196-1.969
			C147.356,117.89,146.992,117.615,146.513,117.527z"/>
		<path fill="#FFFFFF" d="M154.385,118.562c0.855,0.185,1.509,0.628,1.955,1.322c0.447,0.694,0.557,1.502,0.336,2.421
			c-0.153,0.634-0.411,1.145-0.772,1.534c-0.361,0.389-0.807,0.659-1.336,0.814c-0.53,0.155-1.063,0.175-1.604,0.056
			c-0.799-0.174-1.412-0.601-1.847-1.289c-0.435-0.688-0.56-1.486-0.368-2.397c0.193-0.916,0.634-1.603,1.329-2.056
			C152.773,118.515,153.543,118.379,154.385,118.562z M154.287,119.002c-0.505-0.108-0.967,0.011-1.383,0.363
			c-0.416,0.351-0.72,0.98-0.917,1.887c-0.2,0.922-0.188,1.632,0.034,2.124c0.222,0.491,0.581,0.792,1.077,0.9
			c0.516,0.112,0.981-0.008,1.4-0.361c0.418-0.353,0.744-1.013,0.97-1.978c0.21-0.895,0.2-1.581-0.029-2.051
			C155.209,119.414,154.824,119.118,154.287,119.002z"/>
		<path fill="#FFFFFF" d="M158.188,119.604c0.769,0.144,1.538,0.292,2.307,0.443c-0.198,0.777-0.396,1.556-0.595,2.334
			c0.437-0.709,0.878-1.218,1.322-1.525c0.443-0.309,0.919-0.398,1.424-0.27c0.343,0.087,0.59,0.254,0.744,0.496
			c0.154,0.245,0.188,0.524,0.101,0.844c-0.07,0.258-0.193,0.44-0.368,0.549c-0.175,0.106-0.365,0.135-0.57,0.081
			c-0.202-0.052-0.348-0.155-0.438-0.309c-0.09-0.154-0.107-0.337-0.052-0.544c0.036-0.137,0.104-0.253,0.208-0.354
			c0.095-0.089,0.146-0.145,0.151-0.165c0.016-0.061-0.018-0.102-0.104-0.124c-0.185-0.047-0.42-0.001-0.705,0.136
			c-0.396,0.193-0.742,0.507-1.039,0.946c-0.461,0.679-0.748,1.245-0.862,1.692c-0.106,0.412-0.212,0.826-0.319,1.238
			c-0.036,0.14-0.01,0.259,0.076,0.359c0.086,0.1,0.256,0.18,0.511,0.244c0.262,0.065,0.523,0.131,0.785,0.197
			c-0.041,0.154-0.082,0.308-0.123,0.462c-1.275-0.324-2.552-0.636-3.829-0.937c0.038-0.154,0.076-0.309,0.114-0.463
			c0.205,0.049,0.41,0.097,0.614,0.145c0.206,0.049,0.372,0.049,0.497-0.001c0.125-0.05,0.2-0.13,0.228-0.236
			c0.309-1.227,0.617-2.454,0.924-3.681c0.069-0.279,0.056-0.5-0.043-0.66c-0.098-0.161-0.269-0.269-0.512-0.329
			c-0.185-0.044-0.369-0.087-0.554-0.131C158.117,119.897,158.152,119.749,158.188,119.604z"/>
		<path fill="#FFFFFF" d="M164.435,121.163c0.71,0.146,1.421,0.295,2.132,0.447c-0.017,0.382-0.074,0.82-0.171,1.312
			c0.401-0.338,0.824-0.558,1.268-0.659c0.445-0.099,0.911-0.08,1.396,0.058c0.418,0.119,0.747,0.294,0.984,0.525
			c0.238,0.229,0.393,0.531,0.463,0.901c0.072,0.37,0.046,0.755-0.076,1.152c-0.286,0.924-0.573,1.847-0.861,2.771
			c-0.064,0.206-0.061,0.369,0.013,0.485c0.074,0.117,0.229,0.209,0.465,0.28c0.144,0.042,0.288,0.085,0.432,0.129
			c-0.048,0.152-0.097,0.304-0.146,0.456c-1.077-0.325-2.155-0.639-3.233-0.947c0.046-0.153,0.092-0.305,0.138-0.458
			c0.103,0.028,0.205,0.059,0.308,0.088c0.289,0.083,0.502,0.098,0.643,0.046c0.141-0.052,0.237-0.165,0.289-0.334
			c0.249-0.813,0.497-1.627,0.744-2.44c0.162-0.532,0.192-0.951,0.091-1.259c-0.14-0.438-0.466-0.73-0.978-0.875
			c-0.507-0.143-0.983-0.078-1.428,0.202c-0.444,0.277-0.752,0.713-0.922,1.309c-0.204,0.708-0.408,1.414-0.612,2.122
			c-0.06,0.206-0.051,0.37,0.027,0.486c0.078,0.116,0.235,0.206,0.472,0.272c0.142,0.039,0.284,0.079,0.426,0.119
			c-0.045,0.153-0.09,0.305-0.135,0.458c-1.084-0.303-2.169-0.599-3.255-0.887c0.043-0.153,0.086-0.307,0.128-0.46
			c0.143,0.038,0.285,0.075,0.427,0.113c0.216,0.058,0.39,0.061,0.526,0.009c0.135-0.052,0.219-0.136,0.253-0.26
			c0.35-1.235,0.698-2.469,1.045-3.704c0.069-0.246,0.049-0.451-0.062-0.616c-0.11-0.167-0.302-0.286-0.576-0.358
			c-0.108-0.029-0.215-0.057-0.324-0.085C164.362,121.428,164.398,121.294,164.435,121.163z"/>
		<path fill="#FFFFFF" d="M175.894,124.312c0.848,0.271,1.467,0.775,1.85,1.512c0.384,0.734,0.416,1.553,0.1,2.445
			c-0.217,0.617-0.53,1.1-0.935,1.452c-0.404,0.351-0.883,0.576-1.434,0.678c-0.552,0.103-1.093,0.067-1.628-0.103
			c-0.792-0.252-1.369-0.738-1.74-1.467c-0.371-0.726-0.418-1.535-0.134-2.425c0.286-0.894,0.8-1.533,1.547-1.916
			S175.06,124.047,175.894,124.312z M175.751,124.74c-0.501-0.158-0.981-0.084-1.437,0.225c-0.455,0.31-0.825,0.906-1.114,1.79
			c-0.294,0.899-0.353,1.605-0.177,2.119c0.175,0.513,0.508,0.846,1,1.003c0.511,0.162,0.994,0.09,1.454-0.222
			c0.459-0.312,0.854-0.933,1.179-1.875c0.301-0.871,0.359-1.552,0.173-2.045C176.644,125.242,176.283,124.91,175.751,124.74z"/>
	</g>
</g>
</svg>
