<?xml version="1.0" encoding="utf-8"?>
<!-- Generator: Adobe Illustrator 16.0.4, SVG Export Plug-In . SVG Version: 6.00 Build 0)  -->
<!DOCTYPE svg PUBLIC "-//W3C//DTD SVG 1.1//EN" "http://www.w3.org/Graphics/SVG/1.1/DTD/svg11.dtd">
<svg version="1.1" id="Livello_1" xmlns="http://www.w3.org/2000/svg" xmlns:xlink="http://www.w3.org/1999/xlink" x="0px" y="0px"
	 width="210px" height="200px" viewBox="0 0 210 200" enable-background="new 0 0 210 200" xml:space="preserve">
<circle fill="#0572B7" cx="105" cy="100" r="84"/>
<circle fill="#0572B7" stroke="#FFFFFF" stroke-width="5" stroke-miterlimit="10" cx="105" cy="100" r="75.216"/>
<g>
	<g>
		<path fill="#55ABE0" stroke="#FFFFFF" stroke-miterlimit="10" d="M65.938,127.085l-8.353,1.761
			c4.722,8.347,11.686,15.49,20.472,20.428l1.18-8.916C73.711,136.958,69.212,132.376,65.938,127.085z"/>
		<path fill="#55ABE0" stroke="#FFFFFF" stroke-miterlimit="10" d="M79.714,64.14l-1.762-8.906
			c-8.346,4.721-15.488,11.686-20.427,20.473l8.917,1.732C69.841,71.911,74.423,67.413,79.714,64.14z"/>
		<path fill="#55ABE0" stroke="#FFFFFF" stroke-miterlimit="10" d="M143.212,76.808l8.354-1.207
			c-4.721-8.348-11.685-15.49-20.472-20.428l-1.18,8.363C135.441,66.934,139.94,71.517,143.212,76.808z"/>
		<path fill="#55ABE0" stroke="#FFFFFF" stroke-miterlimit="10" d="M95.226,147.021l-5.052,7.256
			c9.712,2.699,19.685,2.551,28.919-0.033l-5.078-7.247C107.962,148.437,101.541,148.511,95.226,147.021z"/>
		<path fill="#55ABE0" stroke="#FFFFFF" stroke-miterlimit="10" d="M156.595,87.705l-6.955,3.909
			c1.44,6.052,1.514,12.474,0.022,18.789l6.966,6.223C159.328,106.914,159.18,96.938,156.595,87.705z"/>
	</g>
	<path fill="#55ABE0" stroke="#FFFFFF" stroke-width="2" stroke-miterlimit="10" d="M112.116,73.646H88.041v58.177h13.757v-19.393
		h10.318c11.4,0,20.635-8.678,20.635-19.393S123.517,73.646,112.116,73.646z M112.804,99.502h-11.006V86.574h11.006
		c3.799,0,6.879,2.893,6.879,6.464C119.683,96.61,116.603,99.502,112.804,99.502z"/>
	<g>
		<g>
			<path fill="#FFFFFF" d="M62.595,90.234c1.289,0.03,2.367-0.993,2.396-2.288c0.029-1.297-0.999-2.368-2.288-2.398
				c-1.295-0.029-2.367,0.992-2.397,2.289C60.276,89.132,61.3,90.204,62.595,90.234z"/>
		</g>
		<g>
			<path fill="#FFFFFF" d="M62.935,99.487h6.355v-2.343h-4.722l-2.604-4.337c-0.384-0.65-1.093-1.08-1.901-1.08
				c-0.221,0-0.436,0.032-0.638,0.09l-7.064,2.201l-0.955,6.771h2.344l0.955-4.771l2.742-0.854l-5.086,19.948h2.344l3.737-10.56
				l3.034,4.05v6.51h2.343v-8.34l-3.242-5.912l0.958-3.735L62.935,99.487z"/>
		</g>
	</g>
	<path fill="#FFFFFF" d="M124.233,56.017c-0.981-3.08-3.608-5.095-6.572-5.062l-2.148,0.078l-0.68-1.706
		c-1.321-3.311-2.004-4.934-2.213-5.249c-0.208-0.315-0.232-0.319-2.189-0.319c-1.733,0-2.007,0.03-2.155,0.231
		c-0.242,0.317-0.229,0.513,0.074,0.816c0.233,0.232,0.439,0.262,1.756,0.262c1.04,0,1.531,0.05,1.616,0.164
		c0.147,0.195,0.694,1.531,0.694,1.691c0,0.062-2.742,0.11-6.093,0.11h-6.096l-0.259-0.514c-0.146-0.287-0.267-0.546-0.267-0.577
		c0-0.035,0.624-0.131,1.388-0.224c1.555-0.184,2.125-0.458,1.751-0.839c-0.167-0.173-0.635-0.213-2.714-0.238
		c-1.71-0.02-2.562,0.016-2.659,0.116c-0.079,0.079-0.126,0.374-0.103,0.654c0.037,0.45,0.074,0.706,0.49,0.657l0.63-0.081
		l0.819,1.544l-2.559,3.923c-1.824-0.547-3.48-0.671-5.354-0.067c-0.901,0.379-2.179,1.286-2.763,1.971
		c-0.765,0.893-1.365,2.244-1.545,3.479c-0.02,0.137-0.033,0.275-0.043,0.41v0.938c0.193,2.657,2.037,5.144,4.615,5.999
		c1.196,0.401,1.225,0.405,2.476,0.362c0.935-0.032,1.389-0.124,2.2-0.438c1.18-0.459,1.73-0.915,2.962-2.258
		c1.247-1.367,1.377-2.924,1.426-3.339c0.103-0.036,1.123-0.071,2.27-0.071h2.088l0.019,1.05c0.012,0.577-0.029,1.312-0.023,1.439
		c0.01,0.18-0.056,0.076-0.496,0.107c-0.499,0.033-0.562,0.075-0.524,0.327c0.031,0.23,0.142,0.3,0.552,0.331
		c0.28,0.025,0.959-0.083,1.129-0.126l0.035-3.168l0.883-1.1c0.502-0.635,0.959-1.213,1.013-1.283
		c0.057-0.074,0.313-0.398,0.57-0.724c0.255-0.324,1.456-1.843,2.667-3.376c1.211-1.531,2.24-2.787,2.294-2.787
		c0.056,0,0.161,0.135,0.237,0.3c0.47,0.984,0.721,1.642,0.78,2.023c0.063,0.374,0.028,0.444-0.274,0.56
		c-0.519,0.198-1.938,1.702-2.356,2.505c-0.523,1-0.87,2.277-0.87,3.229c0,1.405,0.946,3.726,1.914,4.689
		c2.631,2.631,6.422,2.869,9.286,0.588c1-0.89,1.848-2.055,2.255-3.34C124.445,58.747,124.483,56.794,124.233,56.017z
		 M97.294,53.462c0.921,0.834,1.812,1.658,1.978,3.495l-4.212,0.061L97.294,53.462z M93.595,62.978
		c-2.516-0.084-5.165-2.008-5.138-5.539c0.022-3.49,3.771-5.908,7.668-4.562c-1.025,1.809-3.382,4.9-3.097,5.291
		c0.295,0.407,0.853,0.271,3.5,0.271h2.815C99.057,62.346,95.127,63.026,93.595,62.978z M100.687,56.937
		c-0.381-1.876-1.46-3.381-2.753-4.767l1.842-3.038c0.077,0,0.425,0.516,0.776,1.144c0.353,0.633,1.337,2.385,2.191,3.893
		c0.854,1.506,1.538,2.808,1.477,2.808L100.687,56.937z M108.823,52.424c-0.095,0.111-0.471,0.626-0.87,1.112l-2.219,2.702
		l-0.002-1.694c0.339-0.01,1.027-0.005,1.004-0.437c-0.019-0.435-0.972-0.315-1.633-0.286l0.066,2.474l-4.057-7.95h5.324
		c4.473,0,5.324,0.031,5.324,0.186C111.762,48.672,110.264,50.655,108.823,52.424z M121.434,61.693
		c-1.398,1.352-3.437,1.899-5.23,1.407c-2.697-0.744-4.485-3.369-4.074-5.986c0.229-1.458,0.624-2.285,1.532-3.21
		c1.056-1.08,1.248-1.085,1.639-0.055c0.094,0.252,0.299,0.759,0.455,1.117c0.156,0.361,0.516,1.229,0.8,1.93
		c0.579,1.435,0.91,1.769,1.368,1.353c0.375-0.524,0.045-1.295-0.368-2.189c-0.222-0.404-1.338-3.413-1.338-3.609
		c0.313-0.312,1.038-0.16,1.476-0.146c1.255,0.056,1.587,0.12,2.243,0.425c0.972,0.454,2.231,1.715,2.687,2.693
		c0.301,0.648,0.542,0.9,0.559,2.39C123.36,59.321,122.414,60.616,121.434,61.693z"/>
	<path fill="#FFFFFF" d="M147.798,124.458c-0.936-1.6-2.049-1.948-3.838-2.408c-1.787-0.46-3.591-0.529-5.157-0.529
		s-3.369,0.069-5.157,0.529c-1.787,0.46-2.915,0.809-3.851,2.408c-0.937,1.6-1.637,9.74-1.637,10.16c0,0.422,0,9.192,0,9.192h1.116
		c0,0.559,0,2.46,0,2.48c0,0.787,1.166,1.427,1.953,1.427c0.788,0,1.954-0.64,1.954-1.427c0-0.021,0-1.922,0-2.48h11.432
		c0,0.559-0.002,2.207,0,2.228c0.181,1.427,1.518,1.553,2.305,1.553s1.334-0.513,1.334-1.3c0-0.021,0-1.922,0-2.48h1.176
		c0,0,0.002-8.313,0.002-8.773C149.43,134.578,148.734,126.058,147.798,124.458z M134.856,122.601h8.371v2.233h-8.371V122.601z
		 M132.159,142.202c-1.4,0-2.535-1.134-2.535-2.532s1.135-2.532,2.535-2.532c1.398,0,2.533,1.134,2.533,2.532
		S133.558,142.202,132.159,142.202z M129.825,134.322c0,0,0.587-6.768,1.216-7.396c0.627-0.628,14.896-0.554,15.522,0.075
		c0.63,0.627,1.214,7.321,1.214,7.321H129.825z M145.159,142.202c-1.398,0-2.535-1.134-2.535-2.532s1.137-2.532,2.535-2.532
		c1.396,0,2.533,1.134,2.533,2.532S146.556,142.202,145.159,142.202z"/>
</g>
<g>
	<g>
		<path fill="#328ACA" stroke="#FFFFFF" stroke-width="2" stroke-miterlimit="10" d="M194.753,156.26
			c-1.94-7.207-4.247-14.418-6.921-21.605c6.594-3.912,13.482-7.565,20.649-10.929C142.271,95.785,67.523,95.941,1.407,124.195
			c0.054,0.126,0.108,0.252,0.162,0.378c7.398,3.436,14.502,7.182,21.293,11.203c-2.494,6.798-4.659,13.618-6.498,20.434
			C73.398,132.18,137.729,132.196,194.753,156.26L194.753,156.26L194.753,156.26z"/>
	</g>
</g>
<g>
	<g>
		<path fill="#FFFFFF" d="M24.533,120.621c1.772-0.594,3.547-1.168,5.324-1.722c1.204-0.374,2.197-0.426,2.97-0.162
			c0.773,0.266,1.271,0.765,1.495,1.5c0.226,0.733,0.109,1.378-0.344,1.934c-0.624,0.767-1.507,1.325-2.658,1.685
			c-0.628,0.196-1.256,0.396-1.884,0.597c0.343,1.015,0.687,2.031,1.032,3.046c0.061,0.177,0.151,0.288,0.276,0.333
			c0.164,0.054,0.354,0.047,0.576-0.023c0.394-0.125,0.786-0.249,1.18-0.373c0.051,0.152,0.1,0.303,0.15,0.454
			c-1.661,0.519-3.321,1.058-4.979,1.616c-0.055-0.151-0.108-0.301-0.161-0.451c0.348-0.117,0.694-0.232,1.041-0.348
			c0.207-0.067,0.346-0.153,0.419-0.254c0.071-0.101,0.086-0.213,0.043-0.333c-0.821-2.365-1.638-4.731-2.447-7.099
			c-0.062-0.179-0.169-0.291-0.323-0.329s-0.407,0-0.758,0.116c-0.266,0.087-0.531,0.177-0.796,0.265
			C24.638,120.922,24.585,120.771,24.533,120.621z M29.288,124.012c0.479-0.153,0.958-0.305,1.436-0.456
			c0.91-0.287,1.515-0.648,1.816-1.094c0.301-0.444,0.336-1.036,0.103-1.776c-0.163-0.519-0.379-0.887-0.651-1.108
			c-0.271-0.221-0.606-0.345-1.005-0.368c-0.4-0.024-1.008,0.091-1.822,0.348c-0.54,0.17-0.866,0.322-0.981,0.451
			c-0.114,0.131-0.138,0.3-0.067,0.509C28.505,121.683,28.896,122.848,29.288,124.012z"/>
		<path fill="#FFFFFF" d="M43.965,123.965c0.116,0.092,0.232,0.185,0.348,0.277c-0.26,0.396-0.597,0.65-1.016,0.759
			c-0.319,0.085-0.608,0.08-0.87-0.011c-0.262-0.093-0.527-0.307-0.8-0.642c-0.332,0.53-0.646,0.909-0.945,1.139
			c-0.298,0.23-0.684,0.41-1.157,0.544c-0.675,0.19-1.226,0.211-1.653,0.062c-0.43-0.151-0.705-0.421-0.826-0.814
			c-0.181-0.593,0.074-1.203,0.771-1.828c0.697-0.624,1.71-1.193,3.031-1.691c-0.081-0.29-0.164-0.58-0.245-0.869
			c-0.087-0.31-0.309-0.537-0.663-0.676c-0.354-0.142-0.76-0.148-1.213-0.022c-0.417,0.115-0.758,0.291-1.017,0.522
			c-0.186,0.171-0.261,0.31-0.229,0.415c0.019,0.06,0.104,0.14,0.258,0.238c0.187,0.122,0.299,0.248,0.336,0.374
			c0.055,0.184,0.028,0.354-0.076,0.508c-0.104,0.156-0.268,0.265-0.492,0.329c-0.237,0.068-0.458,0.057-0.659-0.036
			c-0.201-0.092-0.335-0.245-0.4-0.46c-0.121-0.401,0.035-0.847,0.472-1.334c0.437-0.486,1.094-0.853,1.966-1.093
			c0.806-0.224,1.463-0.242,1.969-0.061c0.506,0.184,0.817,0.489,0.934,0.914c0.289,1.046,0.579,2.093,0.869,3.138
			c0.077,0.277,0.187,0.468,0.326,0.571c0.141,0.107,0.295,0.138,0.46,0.096C43.623,124.265,43.799,124.148,43.965,123.965z
			 M40.961,122.164c-1.169,0.472-1.957,0.943-2.365,1.406c-0.302,0.35-0.385,0.748-0.252,1.196c0.094,0.313,0.265,0.53,0.511,0.652
			c0.245,0.123,0.521,0.141,0.832,0.053c0.555-0.154,0.981-0.47,1.285-0.946c0.302-0.477,0.377-0.988,0.222-1.54
			C41.115,122.711,41.038,122.438,40.961,122.164z"/>
		<path fill="#FFFFFF" d="M43.548,118.597c0.803-0.243,1.607-0.481,2.413-0.717c0.196,0.777,0.396,1.556,0.593,2.333
			c0.063-0.832,0.229-1.488,0.498-1.972c0.268-0.483,0.674-0.789,1.216-0.917c0.368-0.086,0.685-0.059,0.95,0.081
			c0.266,0.142,0.437,0.371,0.513,0.693c0.062,0.26,0.036,0.479-0.074,0.658c-0.113,0.177-0.279,0.293-0.499,0.343
			c-0.217,0.051-0.406,0.03-0.568-0.062s-0.269-0.243-0.319-0.453c-0.033-0.136-0.026-0.272,0.021-0.411
			c0.046-0.124,0.066-0.194,0.062-0.217c-0.016-0.061-0.068-0.083-0.159-0.06c-0.199,0.046-0.399,0.199-0.601,0.457
			c-0.278,0.358-0.452,0.801-0.517,1.328c-0.1,0.817-0.089,1.45,0.024,1.897c0.105,0.412,0.212,0.826,0.316,1.239
			c0.036,0.14,0.12,0.232,0.252,0.279c0.133,0.047,0.334,0.034,0.607-0.031c0.281-0.067,0.562-0.135,0.843-0.202
			c0.039,0.154,0.077,0.309,0.115,0.463c-1.371,0.326-2.741,0.665-4.109,1.015c-0.041-0.154-0.082-0.308-0.124-0.461
			c0.22-0.056,0.439-0.112,0.659-0.167c0.22-0.057,0.377-0.136,0.471-0.24c0.094-0.104,0.127-0.209,0.099-0.316
			c-0.32-1.224-0.639-2.449-0.956-3.673c-0.072-0.277-0.195-0.466-0.368-0.559c-0.174-0.095-0.39-0.108-0.65-0.043
			c-0.197,0.051-0.396,0.1-0.593,0.151C43.624,118.888,43.585,118.743,43.548,118.597z"/>
		<path fill="#FFFFFF" d="M56.312,119.949c0.162,0.007,0.325,0.016,0.488,0.023c-0.121,1.266-0.805,2.024-2.059,2.293
			c-0.92,0.199-1.731,0.095-2.443-0.304c-0.71-0.402-1.174-1.041-1.381-1.924c-0.242-1.023-0.103-1.889,0.424-2.6
			c0.527-0.711,1.24-1.163,2.132-1.353c0.669-0.142,1.256-0.102,1.758,0.125c0.502,0.224,0.794,0.529,0.875,0.916
			c0.048,0.233,0.008,0.44-0.121,0.625c-0.13,0.184-0.305,0.298-0.525,0.344c-0.217,0.045-0.412,0.02-0.589-0.077
			c-0.177-0.097-0.284-0.235-0.323-0.418c-0.039-0.18,0.004-0.373,0.133-0.571c0.061-0.095,0.085-0.164,0.075-0.21
			c-0.025-0.119-0.145-0.217-0.357-0.291c-0.213-0.074-0.481-0.076-0.806-0.007c-0.591,0.125-0.998,0.407-1.217,0.841
			c-0.314,0.626-0.371,1.377-0.172,2.247c0.191,0.829,0.527,1.414,1.003,1.758c0.478,0.342,1.008,0.453,1.593,0.328
			C55.609,121.521,56.109,120.941,56.312,119.949z"/>
		<path fill="#FFFFFF" d="M55.984,112.231c0.865-0.209,1.731-0.414,2.598-0.614c0.289,1.5,0.578,3.001,0.869,4.502
			c0.281-0.466,0.609-0.837,0.983-1.111c0.376-0.273,0.795-0.451,1.256-0.534c0.437-0.078,0.847-0.058,1.229,0.06
			c0.296,0.095,0.571,0.303,0.824,0.625c0.253,0.323,0.422,0.725,0.506,1.209c0.162,0.928,0.324,1.856,0.487,2.785
			c0.03,0.179,0.106,0.298,0.225,0.364c0.118,0.064,0.29,0.076,0.513,0.039c0.189-0.032,0.378-0.063,0.568-0.094
			c0.027,0.156,0.054,0.313,0.081,0.47c-1.198,0.197-2.396,0.403-3.593,0.619c-0.029-0.157-0.059-0.312-0.088-0.469
			c0.133-0.024,0.266-0.047,0.398-0.072c0.304-0.054,0.506-0.132,0.606-0.239s0.135-0.245,0.104-0.415
			c-0.167-0.928-0.335-1.854-0.501-2.782c-0.087-0.489-0.291-0.845-0.613-1.069c-0.323-0.225-0.698-0.299-1.124-0.222
			c-0.335,0.062-0.63,0.194-0.886,0.401c-0.257,0.207-0.453,0.486-0.59,0.836c-0.138,0.351-0.172,0.701-0.104,1.051
			c0.152,0.778,0.304,1.553,0.456,2.331c0.04,0.209,0.118,0.347,0.236,0.415c0.115,0.07,0.288,0.081,0.516,0.039
			c0.189-0.035,0.38-0.071,0.568-0.105c0.03,0.157,0.061,0.312,0.09,0.468c-1.171,0.216-2.342,0.44-3.511,0.673
			c-0.033-0.156-0.065-0.312-0.098-0.467c0.133-0.026,0.266-0.053,0.398-0.079c0.271-0.053,0.452-0.137,0.547-0.253
			c0.096-0.114,0.123-0.27,0.085-0.466c-0.468-2.319-0.931-4.643-1.391-6.963c-0.048-0.25-0.162-0.42-0.341-0.513
			c-0.18-0.092-0.416-0.109-0.71-0.052c-0.167,0.033-0.334,0.066-0.501,0.1C56.048,112.543,56.017,112.387,55.984,112.231z"/>
		<path fill="#FFFFFF" d="M72.775,115.971c-1.61,0.216-3.222,0.45-4.832,0.698c0.166,0.891,0.458,1.493,0.873,1.806
			c0.474,0.352,1.025,0.481,1.657,0.39c0.931-0.137,1.61-0.707,2.047-1.72c0.164,0.038,0.328,0.076,0.491,0.113
			c-0.534,1.286-1.445,2.016-2.752,2.208c-0.891,0.131-1.684-0.041-2.388-0.511c-0.702-0.472-1.129-1.149-1.276-2.035
			c-0.157-0.952,0.021-1.771,0.541-2.455c0.518-0.683,1.231-1.094,2.131-1.226c0.662-0.098,1.256-0.032,1.778,0.193
			c0.523,0.226,0.943,0.597,1.261,1.115C72.53,114.911,72.686,115.384,72.775,115.971z M67.873,116.224
			c0.976-0.15,1.952-0.297,2.929-0.435c0.172-0.025,0.301-0.096,0.382-0.212c0.081-0.115,0.104-0.297,0.069-0.543
			c-0.066-0.461-0.287-0.831-0.667-1.106c-0.379-0.275-0.796-0.379-1.246-0.313c-0.506,0.074-0.905,0.334-1.196,0.775
			C67.853,114.833,67.763,115.444,67.873,116.224z"/>
		<path fill="#FFFFFF" d="M78.704,112.552c0.44-0.478,0.866-0.737,1.275-0.779c0.244-0.025,0.455,0.021,0.629,0.141
			c0.175,0.118,0.271,0.274,0.29,0.467c0.017,0.157-0.024,0.292-0.124,0.405c-0.098,0.114-0.221,0.18-0.366,0.194
			c-0.276,0.029-0.479-0.1-0.607-0.385c-0.052-0.123-0.124-0.177-0.217-0.167c-0.165,0.017-0.336,0.13-0.509,0.34
			c0.235,0.227,0.402,0.427,0.499,0.601c0.097,0.174,0.157,0.369,0.18,0.578c0.039,0.366-0.029,0.702-0.201,1.002
			c-0.172,0.301-0.479,0.582-0.922,0.85c-0.444,0.265-0.879,0.422-1.305,0.473c-0.261,0.03-0.522,0.061-0.784,0.092
			c-0.555,0.066-0.917,0.162-1.086,0.285c-0.169,0.128-0.24,0.293-0.214,0.494c0.021,0.162,0.11,0.28,0.27,0.35
			c0.159,0.068,0.443,0.079,0.854,0.03c0.587-0.082,1.175-0.161,1.763-0.238c0.893-0.101,1.55-0.04,1.971,0.184
			c0.422,0.222,0.655,0.562,0.703,1.021c0.053,0.505-0.123,0.953-0.528,1.345c-0.565,0.552-1.455,0.896-2.676,1.039
			c-1.011,0.119-1.779,0.046-2.313-0.224c-0.419-0.212-0.65-0.478-0.694-0.801c-0.032-0.247,0.06-0.49,0.282-0.728
			c0.221-0.238,0.62-0.442,1.196-0.616c-0.482-0.043-0.856-0.146-1.118-0.311c-0.265-0.167-0.416-0.392-0.454-0.682
			c-0.035-0.268,0.031-0.516,0.198-0.739c0.168-0.224,0.483-0.436,0.944-0.639c-0.432-0.146-0.771-0.346-1.013-0.6
			c-0.243-0.253-0.389-0.56-0.437-0.92c-0.074-0.572,0.121-1.083,0.593-1.535c0.471-0.45,1.125-0.727,1.958-0.823
			c0.341-0.041,0.675-0.036,1.002,0.013C78.067,112.318,78.389,112.411,78.704,112.552z M77.87,118.298
			c-0.873,0.1-1.483,0.284-1.828,0.543c-0.346,0.261-0.497,0.541-0.458,0.844c0.036,0.284,0.204,0.492,0.504,0.621
			c0.396,0.173,0.93,0.22,1.607,0.14c0.81-0.094,1.405-0.281,1.788-0.566c0.384-0.284,0.561-0.574,0.528-0.867
			c-0.02-0.173-0.101-0.326-0.246-0.462c-0.144-0.137-0.359-0.229-0.649-0.274C78.827,118.23,78.411,118.236,77.87,118.298z
			 M76.773,112.661c-0.433,0.051-0.773,0.23-1.021,0.539c-0.249,0.309-0.341,0.711-0.278,1.208c0.065,0.528,0.258,0.922,0.573,1.181
			c0.314,0.258,0.688,0.362,1.119,0.311c0.432-0.05,0.769-0.232,1.012-0.546c0.244-0.315,0.338-0.738,0.278-1.268
			c-0.056-0.493-0.241-0.865-0.558-1.119S77.207,112.611,76.773,112.661z"/>
		<path fill="#FFFFFF" d="M86.733,111.813c0.455-0.463,0.889-0.708,1.299-0.737c0.244-0.019,0.452,0.036,0.623,0.161
			c0.169,0.123,0.26,0.284,0.272,0.477c0.012,0.156-0.033,0.29-0.137,0.4c-0.102,0.111-0.226,0.173-0.372,0.182
			c-0.276,0.019-0.475-0.117-0.594-0.405c-0.047-0.123-0.117-0.181-0.21-0.175c-0.165,0.012-0.339,0.119-0.519,0.324
			c0.228,0.234,0.387,0.439,0.479,0.617c0.091,0.179,0.145,0.373,0.159,0.583c0.027,0.368-0.052,0.699-0.233,0.994
			c-0.182,0.296-0.498,0.567-0.949,0.819c-0.451,0.251-0.89,0.395-1.316,0.431c-0.261,0.022-0.522,0.042-0.784,0.066
			c-0.556,0.048-0.921,0.131-1.094,0.25c-0.172,0.122-0.248,0.284-0.229,0.487c0.015,0.162,0.101,0.283,0.257,0.358
			c0.157,0.075,0.438,0.094,0.851,0.058c0.588-0.061,1.176-0.121,1.765-0.179c0.895-0.071,1.548,0.014,1.96,0.249
			c0.413,0.236,0.635,0.583,0.667,1.043c0.036,0.506-0.155,0.949-0.572,1.328c-0.582,0.533-1.48,0.847-2.704,0.95
			c-1.012,0.085-1.776-0.012-2.299-0.3c-0.411-0.226-0.634-0.5-0.665-0.824c-0.025-0.249,0.076-0.486,0.306-0.718
			c0.228-0.23,0.633-0.423,1.213-0.576c-0.479-0.061-0.849-0.175-1.104-0.348c-0.257-0.173-0.401-0.407-0.43-0.697
			c-0.026-0.269,0.048-0.513,0.224-0.732c0.174-0.218,0.495-0.421,0.962-0.608c-0.427-0.161-0.757-0.372-0.99-0.632
			c-0.234-0.26-0.369-0.574-0.403-0.934c-0.056-0.574,0.156-1.078,0.641-1.514c0.484-0.435,1.146-0.69,1.98-0.759
			c0.341-0.028,0.675-0.014,0.998,0.046C86.106,111.558,86.424,111.663,86.733,111.813z M85.711,117.528
			c-0.875,0.073-1.489,0.234-1.842,0.483c-0.353,0.248-0.514,0.525-0.485,0.828c0.027,0.286,0.188,0.499,0.482,0.638
			c0.388,0.186,0.919,0.25,1.598,0.193c0.811-0.067,1.41-0.234,1.803-0.507c0.392-0.271,0.578-0.553,0.556-0.85
			c-0.013-0.173-0.09-0.329-0.229-0.47s-0.352-0.239-0.639-0.295S86.253,117.484,85.711,117.528z M84.805,111.858
			c-0.434,0.036-0.78,0.205-1.036,0.505c-0.259,0.301-0.363,0.701-0.319,1.198c0.05,0.531,0.228,0.931,0.533,1.199
			c0.305,0.268,0.674,0.383,1.105,0.348c0.433-0.036,0.774-0.207,1.028-0.513c0.253-0.305,0.36-0.726,0.318-1.257
			c-0.039-0.493-0.211-0.874-0.518-1.137C85.608,111.937,85.238,111.822,84.805,111.858z"/>
		<path fill="#FFFFFF" d="M89.37,111.292c0.908-0.083,1.816-0.16,2.726-0.231c0.092,1.703,0.185,3.406,0.279,5.108
			c0.007,0.139,0.051,0.237,0.13,0.292c0.115,0.079,0.256,0.113,0.422,0.104c0.253-0.012,0.506-0.025,0.758-0.037
			c0.009,0.158,0.016,0.318,0.024,0.476c-1.27,0.061-2.537,0.132-3.805,0.214c-0.011-0.158-0.021-0.317-0.031-0.476
			c0.235-0.016,0.472-0.03,0.709-0.044c0.209-0.013,0.359-0.067,0.452-0.164c0.093-0.098,0.133-0.231,0.122-0.406
			c-0.074-1.246-0.149-2.491-0.223-3.738c-0.015-0.236-0.102-0.411-0.266-0.522c-0.162-0.112-0.397-0.157-0.703-0.138
			c-0.188,0.012-0.376,0.023-0.563,0.036C89.391,111.608,89.381,111.449,89.37,111.292z M91.069,107.632
			c0.223-0.013,0.423,0.048,0.599,0.183c0.176,0.134,0.27,0.3,0.279,0.493c0.01,0.19-0.062,0.36-0.218,0.508
			c-0.154,0.149-0.345,0.229-0.571,0.241c-0.226,0.013-0.426-0.046-0.599-0.178c-0.174-0.131-0.268-0.292-0.278-0.483
			c-0.011-0.19,0.062-0.361,0.223-0.515C90.663,107.728,90.852,107.646,91.069,107.632z"/>
		<path fill="#FFFFFF" d="M97.45,110.724c0.924-0.03,1.706,0.238,2.345,0.803c0.639,0.563,0.964,1.318,0.981,2.263
			c0.013,0.652-0.116,1.208-0.381,1.674c-0.267,0.465-0.65,0.836-1.149,1.114c-0.502,0.28-1.044,0.428-1.628,0.447
			c-0.865,0.028-1.608-0.236-2.237-0.795c-0.628-0.558-0.968-1.3-1.01-2.231c-0.043-0.934,0.229-1.708,0.822-2.316
			C95.787,111.072,96.541,110.753,97.45,110.724z M97.464,111.174c-0.546,0.017-0.987,0.248-1.32,0.69
			c-0.334,0.442-0.481,1.126-0.444,2.053c0.038,0.943,0.237,1.625,0.596,2.048c0.358,0.422,0.806,0.625,1.344,0.607
			c0.559-0.017,1.002-0.247,1.338-0.692c0.333-0.444,0.491-1.163,0.468-2.152c-0.022-0.918-0.211-1.579-0.57-1.979
			C98.515,111.346,98.044,111.156,97.464,111.174z"/>
		<path fill="#FFFFFF" d="M105.58,110.776c1.125,0.002,2.25,0.011,3.375,0.027c-0.002,0.144-0.005,0.288-0.006,0.432
			c-0.449,0.001-0.735,0.032-0.86,0.093c-0.125,0.06-0.188,0.147-0.189,0.261c-0.001,0.094,0.022,0.187,0.07,0.28
			c0.59,1.178,1.172,2.356,1.745,3.537c0.562-1.124,1.133-2.247,1.71-3.367c0.025-0.058,0.039-0.117,0.041-0.176
			c0.008-0.308-0.336-0.512-1.034-0.601c0.003-0.144,0.006-0.288,0.009-0.432c0.946,0.02,1.894,0.045,2.84,0.076
			c-0.005,0.144-0.009,0.288-0.014,0.432c-0.288,0.016-0.519,0.076-0.693,0.182c-0.174,0.103-0.31,0.249-0.407,0.431
			c-0.881,1.658-1.745,3.322-2.592,4.989c-0.13-0.002-0.258-0.004-0.387-0.007c-0.849-1.741-1.716-3.481-2.603-5.213
			c-0.096-0.188-0.214-0.318-0.352-0.393c-0.139-0.076-0.356-0.114-0.654-0.119C105.579,111.064,105.58,110.921,105.58,110.776z"/>
		<path fill="#FFFFFF" d="M113.8,110.924c0.91,0.007,1.822,0.021,2.733,0.039c-0.079,1.702-0.157,3.407-0.237,5.11
			c-0.006,0.139,0.028,0.241,0.101,0.303c0.106,0.09,0.241,0.14,0.409,0.146c0.252,0.013,0.505,0.025,0.758,0.038
			c-0.008,0.159-0.017,0.317-0.024,0.476c-1.269-0.064-2.537-0.119-3.806-0.165c0.006-0.159,0.011-0.317,0.018-0.476
			c0.235,0.009,0.473,0.017,0.708,0.025c0.21,0.009,0.365-0.031,0.468-0.117c0.102-0.086,0.155-0.218,0.162-0.391
			c0.052-1.247,0.104-2.494,0.154-3.741c0.011-0.237-0.06-0.418-0.211-0.546c-0.15-0.125-0.379-0.196-0.686-0.207
			c-0.188-0.007-0.376-0.014-0.563-0.021C113.789,111.24,113.794,111.082,113.8,110.924z M115.854,107.451
			c0.224,0.009,0.416,0.09,0.577,0.241c0.161,0.152,0.238,0.325,0.229,0.519c-0.009,0.19-0.098,0.352-0.267,0.484
			c-0.168,0.132-0.367,0.192-0.593,0.183s-0.419-0.088-0.579-0.236c-0.159-0.148-0.235-0.315-0.228-0.508
			c0.007-0.189,0.098-0.354,0.272-0.491C115.44,107.505,115.637,107.441,115.854,107.451z"/>
		<path fill="#FFFFFF" d="M125.441,116.913c0.076,0.125,0.151,0.25,0.228,0.375c-0.375,0.288-0.772,0.413-1.195,0.38
			c-0.323-0.026-0.589-0.125-0.799-0.297c-0.207-0.175-0.381-0.461-0.518-0.868c-0.486,0.389-0.904,0.642-1.256,0.76
			c-0.353,0.118-0.769,0.16-1.249,0.13c-0.685-0.044-1.196-0.205-1.538-0.488c-0.343-0.283-0.503-0.628-0.479-1.038
			c0.035-0.617,0.475-1.108,1.325-1.466c0.851-0.356,1.972-0.559,3.356-0.592c0.022-0.3,0.045-0.599,0.068-0.899
			c0.023-0.322-0.104-0.606-0.383-0.855c-0.279-0.249-0.649-0.389-1.108-0.42c-0.422-0.029-0.795,0.023-1.109,0.156
			c-0.228,0.101-0.344,0.205-0.351,0.316c-0.004,0.062,0.049,0.166,0.156,0.308c0.131,0.177,0.192,0.331,0.184,0.462
			c-0.013,0.19-0.093,0.342-0.241,0.453c-0.147,0.112-0.335,0.161-0.562,0.147c-0.242-0.014-0.439-0.099-0.593-0.252
			c-0.152-0.153-0.225-0.34-0.212-0.564c0.024-0.418,0.316-0.788,0.881-1.101c0.564-0.313,1.289-0.442,2.173-0.381
			c0.815,0.055,1.428,0.256,1.831,0.591c0.406,0.341,0.59,0.731,0.555,1.169c-0.087,1.08-0.175,2.16-0.262,3.24
			c-0.022,0.287,0.013,0.501,0.106,0.645c0.093,0.148,0.224,0.227,0.391,0.241C125.024,117.082,125.226,117.029,125.441,116.913z
			 M123.285,114.228c-1.235,0.059-2.118,0.243-2.649,0.543c-0.396,0.231-0.607,0.576-0.637,1.042
			c-0.02,0.326,0.062,0.586,0.247,0.781c0.183,0.196,0.432,0.304,0.746,0.325c0.562,0.037,1.061-0.118,1.502-0.468
			c0.44-0.348,0.684-0.805,0.728-1.375C123.243,114.793,123.264,114.51,123.285,114.228z"/>
		<path fill="#FFFFFF" d="M131.396,108.7c1.886,0.198,3.772,0.417,5.658,0.658c1.097,0.141,1.918,0.468,2.462,0.975
			c0.544,0.507,0.765,1.105,0.665,1.792c-0.059,0.41-0.23,0.759-0.513,1.046c-0.281,0.287-0.657,0.496-1.127,0.626
			c-0.471,0.13-1.187,0.174-2.146,0.136c0.67,0.254,1.122,0.476,1.361,0.668c0.239,0.191,0.419,0.422,0.541,0.694
			c0.121,0.271,0.23,0.803,0.324,1.598c0.067,0.571,0.167,0.966,0.299,1.19c0.103,0.172,0.225,0.266,0.367,0.288
			c0.148,0.021,0.298-0.055,0.453-0.227c0.154-0.172,0.282-0.498,0.383-0.974c0.163,0.023,0.325,0.047,0.488,0.071
			c-0.307,1.41-1.01,2.033-2.109,1.88c-0.346-0.048-0.634-0.167-0.866-0.356c-0.233-0.189-0.392-0.444-0.48-0.763
			c-0.067-0.239-0.1-0.848-0.095-1.825c0.003-0.567-0.058-0.979-0.184-1.235c-0.126-0.255-0.346-0.476-0.661-0.66
			c-0.314-0.186-0.705-0.307-1.171-0.364c-0.293-0.036-0.585-0.07-0.878-0.105c-0.147,1.221-0.295,2.442-0.443,3.663
			c-0.02,0.156,0.013,0.27,0.095,0.344c0.104,0.093,0.278,0.154,0.521,0.184c0.339,0.041,0.676,0.083,1.015,0.125
			c-0.021,0.158-0.041,0.316-0.062,0.473c-1.631-0.204-3.263-0.392-4.895-0.563c0.017-0.158,0.034-0.316,0.051-0.474
			c0.346,0.036,0.69,0.072,1.035,0.111c0.228,0.025,0.401,0.004,0.519-0.064c0.114-0.067,0.182-0.172,0.197-0.31
			c0.287-2.485,0.569-4.971,0.851-7.456c0.018-0.16-0.025-0.286-0.129-0.378c-0.104-0.093-0.273-0.152-0.506-0.177
			c-0.356-0.038-0.714-0.077-1.072-0.115C131.361,109.016,131.378,108.858,131.396,108.7z M134.224,113.359
			c0.423,0.049,0.848,0.102,1.271,0.154c0.854,0.105,1.541,0.053,2.061-0.162c0.521-0.214,0.831-0.677,0.929-1.389
			c0.067-0.49,0.028-0.888-0.117-1.198c-0.146-0.31-0.361-0.537-0.648-0.682c-0.287-0.144-0.87-0.273-1.754-0.382
			c-0.581-0.073-0.944-0.08-1.09-0.027c-0.147,0.053-0.229,0.164-0.25,0.331C134.492,111.124,134.357,112.242,134.224,113.359z"/>
		<path fill="#FFFFFF" d="M148.19,119.908c0.064,0.132,0.128,0.264,0.191,0.396c-0.405,0.25-0.816,0.338-1.237,0.264
			c-0.321-0.058-0.579-0.181-0.771-0.373c-0.192-0.193-0.337-0.496-0.435-0.914c-0.525,0.341-0.97,0.553-1.335,0.636
			c-0.364,0.083-0.785,0.086-1.264,0.01c-0.682-0.108-1.18-0.319-1.495-0.632c-0.314-0.314-0.441-0.674-0.379-1.079
			c0.096-0.612,0.583-1.058,1.471-1.333c0.887-0.275,2.03-0.368,3.423-0.269c0.052-0.296,0.104-0.592,0.155-0.889
			c0.056-0.316-0.045-0.614-0.301-0.888c-0.257-0.274-0.614-0.451-1.07-0.525c-0.422-0.069-0.8-0.053-1.128,0.05
			c-0.238,0.079-0.364,0.174-0.382,0.281c-0.01,0.061,0.032,0.169,0.126,0.321c0.114,0.188,0.161,0.35,0.14,0.478
			c-0.031,0.189-0.127,0.332-0.285,0.428c-0.159,0.097-0.352,0.128-0.578,0.093c-0.241-0.037-0.432-0.14-0.569-0.307
			c-0.14-0.167-0.192-0.361-0.158-0.583c0.064-0.415,0.394-0.752,0.988-1.011c0.597-0.258,1.336-0.317,2.216-0.172
			c0.813,0.134,1.407,0.39,1.78,0.764c0.374,0.377,0.52,0.783,0.443,1.217c-0.192,1.067-0.385,2.134-0.577,3.201
			c-0.052,0.284-0.036,0.501,0.043,0.652c0.079,0.156,0.203,0.249,0.369,0.278C147.755,120.037,147.962,120.004,148.19,119.908z
			 M146.288,117.028c-1.244-0.061-2.148,0.038-2.71,0.288c-0.419,0.191-0.665,0.516-0.739,0.976
			c-0.052,0.322,0.006,0.589,0.17,0.802c0.165,0.213,0.403,0.345,0.718,0.394c0.559,0.091,1.075-0.017,1.552-0.321
			c0.476-0.304,0.764-0.739,0.863-1.301C146.19,117.587,146.239,117.308,146.288,117.028z"/>
		<path fill="#FFFFFF" d="M155.395,116.248c0.573-0.319,1.064-0.432,1.472-0.346c0.243,0.052,0.431,0.16,0.561,0.327
			c0.131,0.166,0.175,0.344,0.132,0.534c-0.033,0.153-0.115,0.269-0.246,0.346c-0.131,0.079-0.27,0.102-0.414,0.072
			c-0.275-0.059-0.43-0.243-0.463-0.554c-0.012-0.132-0.064-0.207-0.155-0.226c-0.165-0.034-0.365,0.021-0.598,0.167
			c0.156,0.288,0.252,0.53,0.291,0.725c0.038,0.197,0.035,0.398-0.01,0.605c-0.079,0.36-0.25,0.656-0.51,0.89
			c-0.261,0.233-0.646,0.406-1.156,0.524c-0.51,0.115-0.977,0.131-1.401,0.047c-0.26-0.052-0.521-0.104-0.78-0.154
			c-0.554-0.108-0.931-0.127-1.132-0.063c-0.202,0.067-0.321,0.204-0.361,0.404c-0.031,0.161,0.018,0.3,0.147,0.415
			c0.131,0.115,0.399,0.212,0.808,0.292c0.588,0.103,1.177,0.209,1.765,0.318c0.889,0.18,1.5,0.442,1.834,0.783
			c0.334,0.342,0.449,0.737,0.35,1.188c-0.109,0.497-0.424,0.867-0.938,1.114c-0.72,0.35-1.684,0.402-2.898,0.161
			c-1.006-0.198-1.719-0.506-2.142-0.925c-0.334-0.329-0.471-0.656-0.408-0.975c0.047-0.244,0.213-0.446,0.502-0.604
			c0.287-0.158,0.733-0.23,1.34-0.217c-0.448-0.19-0.772-0.403-0.971-0.641c-0.2-0.237-0.273-0.5-0.218-0.787
			c0.051-0.266,0.192-0.481,0.425-0.642c0.231-0.161,0.6-0.267,1.105-0.317c-0.367-0.272-0.628-0.566-0.78-0.881
			c-0.151-0.316-0.195-0.652-0.126-1.009c0.108-0.566,0.457-0.991,1.05-1.276c0.593-0.283,1.305-0.347,2.136-0.181
			c0.339,0.068,0.658,0.174,0.957,0.322C154.856,115.827,155.136,116.017,155.395,116.248z M152.773,121.452
			c-0.868-0.175-1.512-0.188-1.924-0.048c-0.413,0.141-0.648,0.362-0.708,0.661c-0.056,0.281,0.039,0.532,0.283,0.746
			c0.324,0.286,0.82,0.494,1.495,0.628c0.806,0.16,1.437,0.167,1.896,0.014c0.459-0.151,0.722-0.372,0.785-0.661
			c0.037-0.17,0.007-0.342-0.088-0.515c-0.096-0.174-0.274-0.327-0.537-0.461C153.714,121.683,153.313,121.56,152.773,121.452z
			 M153.507,115.756c-0.432-0.084-0.814-0.02-1.149,0.198c-0.336,0.217-0.551,0.572-0.647,1.062
			c-0.104,0.524-0.044,0.956,0.177,1.299c0.22,0.342,0.544,0.555,0.974,0.641c0.431,0.085,0.812,0.017,1.144-0.208
			c0.334-0.224,0.558-0.597,0.668-1.118c0.103-0.485,0.041-0.897-0.182-1.236C154.267,116.054,153.938,115.843,153.507,115.756z"/>
		<path fill="#FFFFFF" d="M164.092,123.318c0.057,0.136,0.111,0.272,0.166,0.408c-0.426,0.223-0.845,0.282-1.264,0.179
			c-0.32-0.08-0.57-0.22-0.752-0.425c-0.18-0.205-0.305-0.518-0.374-0.94c-0.553,0.303-1.015,0.486-1.388,0.544
			s-0.797,0.034-1.272-0.076c-0.679-0.154-1.165-0.398-1.461-0.733c-0.295-0.334-0.397-0.702-0.307-1.102
			c0.139-0.603,0.659-1.017,1.571-1.23c0.911-0.214,2.068-0.229,3.464-0.035c0.073-0.292,0.145-0.584,0.217-0.875
			c0.077-0.312-0.003-0.615-0.242-0.908c-0.24-0.292-0.588-0.491-1.042-0.597c-0.42-0.097-0.8-0.105-1.139-0.027
			c-0.244,0.062-0.378,0.146-0.403,0.254c-0.013,0.061,0.021,0.171,0.106,0.33c0.102,0.197,0.137,0.358,0.106,0.486
			c-0.043,0.186-0.148,0.322-0.316,0.407c-0.168,0.086-0.362,0.104-0.588,0.054c-0.24-0.054-0.424-0.168-0.552-0.346
			c-0.129-0.175-0.169-0.375-0.119-0.592c0.094-0.409,0.447-0.724,1.064-0.941c0.616-0.218,1.365-0.225,2.241-0.021
			c0.809,0.189,1.39,0.485,1.74,0.884c0.35,0.402,0.471,0.817,0.362,1.245c-0.267,1.051-0.533,2.103-0.801,3.154
			c-0.071,0.278-0.071,0.497-0.001,0.654c0.069,0.16,0.187,0.261,0.353,0.302C163.646,123.417,163.855,123.398,164.092,123.318z
			 M162.375,120.314c-1.249-0.145-2.165-0.107-2.748,0.103c-0.434,0.162-0.703,0.471-0.811,0.924
			c-0.074,0.317-0.035,0.587,0.116,0.811s0.384,0.371,0.694,0.442c0.557,0.127,1.083,0.056,1.584-0.215
			c0.5-0.27,0.82-0.684,0.959-1.239C162.238,120.866,162.306,120.59,162.375,120.314z"/>
		<path fill="#FFFFFF" d="M167.111,118.614c1.794,0.459,3.585,0.94,5.374,1.441c-0.035,0.122-0.071,0.244-0.106,0.366
			c-1.893,1.234-3.757,2.491-5.595,3.769c0.676,0.177,1.353,0.356,2.029,0.539c0.465,0.127,0.874,0.103,1.227-0.074
			c0.35-0.177,0.702-0.586,1.054-1.231c0.159,0.044,0.318,0.089,0.478,0.133c-0.273,0.735-0.545,1.469-0.816,2.203
			c-1.85-0.517-3.702-1.013-5.557-1.486c0.039-0.142,0.076-0.282,0.114-0.424c1.821-1.279,3.672-2.538,5.549-3.776
			c-0.6-0.164-1.2-0.325-1.799-0.485c-0.376-0.1-0.669-0.127-0.878-0.09c-0.209,0.039-0.409,0.143-0.598,0.311
			c-0.189,0.167-0.408,0.485-0.655,0.95c-0.178-0.046-0.354-0.092-0.531-0.136C166.638,119.952,166.875,119.283,167.111,118.614z"/>
		<path fill="#FFFFFF" d="M174.233,120.55c1.788,0.515,3.575,1.048,5.358,1.605c-0.039,0.121-0.079,0.242-0.118,0.363
			c-1.939,1.177-3.853,2.375-5.737,3.597c0.674,0.198,1.347,0.397,2.021,0.602c0.465,0.141,0.875,0.13,1.235-0.038
			c0.357-0.164,0.724-0.566,1.098-1.199c0.157,0.049,0.316,0.099,0.475,0.148c-0.296,0.725-0.592,1.452-0.889,2.177
			c-1.842-0.574-3.688-1.126-5.536-1.654c0.042-0.14,0.084-0.281,0.126-0.42c1.87-1.223,3.768-2.427,5.691-3.608
			c-0.598-0.182-1.195-0.361-1.793-0.539c-0.374-0.11-0.669-0.15-0.88-0.116c-0.212,0.033-0.415,0.13-0.609,0.292
			c-0.195,0.161-0.425,0.473-0.688,0.93c-0.177-0.051-0.354-0.102-0.529-0.153C173.717,121.875,173.976,121.213,174.233,120.55z"/>
		<path fill="#FFFFFF" d="M180.6,122.472c0.902,0.26,1.805,0.526,2.706,0.797c-0.556,1.617-1.116,3.235-1.679,4.852
			c-0.047,0.132-0.041,0.239,0.015,0.319c0.078,0.117,0.199,0.201,0.364,0.255c0.247,0.083,0.496,0.164,0.743,0.248
			c-0.053,0.149-0.106,0.301-0.16,0.451c-1.243-0.416-2.487-0.822-3.734-1.217c0.051-0.15,0.103-0.303,0.152-0.453
			c0.231,0.074,0.464,0.146,0.696,0.222c0.206,0.066,0.371,0.072,0.497,0.017c0.125-0.056,0.217-0.166,0.272-0.331
			c0.405-1.186,0.809-2.37,1.211-3.557c0.076-0.225,0.058-0.42-0.057-0.584c-0.114-0.163-0.321-0.293-0.624-0.39
			c-0.184-0.059-0.369-0.116-0.554-0.176C180.499,122.772,180.55,122.622,180.6,122.472z M183.611,119.7
			c0.222,0.072,0.39,0.201,0.509,0.393c0.118,0.19,0.146,0.379,0.083,0.563c-0.062,0.18-0.195,0.311-0.401,0.391
			c-0.204,0.081-0.418,0.083-0.641,0.012c-0.222-0.073-0.393-0.201-0.51-0.388c-0.116-0.187-0.146-0.371-0.085-0.553
			c0.06-0.18,0.196-0.313,0.408-0.396C183.186,119.637,183.398,119.631,183.611,119.7z"/>
		<path fill="#FFFFFF" d="M87.933,123.58c0.844-0.099,1.689-0.193,2.534-0.283c0.179,2.708,0.358,5.415,0.541,8.122
			c0.021,0.317,0.101,0.539,0.236,0.665c0.137,0.128,0.33,0.182,0.584,0.167c0.144-0.008,0.288-0.017,0.433-0.025
			c0.01,0.158,0.021,0.317,0.029,0.476c-0.709,0.041-1.418,0.085-2.127,0.134c-0.083-0.399-0.165-0.799-0.248-1.199
			c-0.225,0.449-0.496,0.793-0.818,1.035c-0.323,0.242-0.694,0.379-1.114,0.412c-0.709,0.054-1.337-0.177-1.888-0.7
			c-0.552-0.521-0.875-1.245-0.962-2.172c-0.096-1.003,0.153-1.834,0.755-2.487c0.472-0.513,1.047-0.794,1.716-0.845
			c0.41-0.031,0.786,0.035,1.126,0.202c0.34,0.167,0.646,0.435,0.913,0.802c-0.079-1.117-0.159-2.233-0.239-3.35
			c-0.013-0.177-0.098-0.313-0.256-0.406c-0.157-0.093-0.396-0.128-0.715-0.105c-0.154,0.011-0.31,0.022-0.464,0.034
			C87.957,123.896,87.944,123.738,87.933,123.58z M87.831,127.389c-0.492,0.037-0.867,0.258-1.122,0.655
			c-0.257,0.399-0.345,1.042-0.267,1.934c0.085,0.966,0.291,1.634,0.615,2.004c0.323,0.371,0.71,0.539,1.162,0.504
			c0.485-0.037,0.883-0.289,1.194-0.754c0.312-0.465,0.438-1.122,0.378-1.971c-0.059-0.802-0.291-1.42-0.701-1.854
			C88.733,127.526,88.312,127.351,87.831,127.389z"/>
		<path fill="#FFFFFF" d="M98.714,129.486c-1.51,0.044-3.019,0.103-4.526,0.176c0.068,0.902,0.28,1.535,0.634,1.89
			c0.403,0.401,0.899,0.587,1.49,0.564c0.87-0.035,1.552-0.53,2.054-1.49c0.147,0.055,0.295,0.11,0.442,0.165
			c-0.618,1.221-1.528,1.85-2.751,1.9c-0.834,0.035-1.547-0.22-2.15-0.765c-0.603-0.546-0.934-1.265-0.985-2.161
			c-0.055-0.962,0.185-1.757,0.729-2.38c0.542-0.625,1.24-0.954,2.084-0.989c0.622-0.026,1.164,0.102,1.626,0.382
			c0.461,0.281,0.814,0.694,1.058,1.243C98.589,128.406,98.686,128.896,98.714,129.486z M94.164,129.213
			c0.914-0.045,1.829-0.084,2.743-0.117c0.162-0.007,0.287-0.063,0.373-0.17c0.087-0.107,0.125-0.285,0.116-0.534
			c-0.017-0.466-0.187-0.854-0.51-1.17c-0.325-0.315-0.699-0.463-1.122-0.445c-0.475,0.02-0.868,0.234-1.179,0.642
			C94.276,127.827,94.136,128.425,94.164,129.213z"/>
		<path fill="#FFFFFF" d="M101.983,122.851c0.042,2.873,0.085,5.746,0.128,8.619c0.001,0.119,0.041,0.21,0.118,0.271
			c0.112,0.084,0.249,0.124,0.409,0.122c0.219-0.002,0.439-0.006,0.66-0.007c0.002,0.158,0.002,0.318,0.004,0.477
			c-1.178,0.011-2.355,0.03-3.533,0.06c-0.005-0.159-0.009-0.317-0.013-0.477c0.209-0.005,0.417-0.01,0.625-0.015
			c0.205-0.004,0.357-0.053,0.455-0.148c0.098-0.095,0.146-0.228,0.143-0.397c-0.049-2.412-0.098-4.824-0.146-7.235
			c-0.005-0.211-0.069-0.363-0.197-0.459c-0.173-0.132-0.386-0.196-0.635-0.19c-0.193,0.004-0.388,0.009-0.583,0.014
			c-0.003-0.159-0.007-0.317-0.012-0.477C100.266,122.951,101.124,122.899,101.983,122.851z"/>
		<path fill="#FFFFFF" d="M109.767,122.712c0.072,0.09,0.145,0.18,0.217,0.27c-0.465,0.292-0.807,0.585-1.026,0.877
			c-0.219,0.292-0.33,0.548-0.333,0.764c-0.002,0.144,0.052,0.215,0.162,0.217c0.022-0.001,0.046-0.003,0.069-0.005
			c0.11-0.023,0.203-0.034,0.276-0.034c0.202,0.003,0.374,0.075,0.517,0.215c0.141,0.141,0.21,0.313,0.206,0.516
			c-0.005,0.224-0.085,0.413-0.241,0.57c-0.156,0.156-0.335,0.232-0.536,0.229c-0.292-0.005-0.547-0.124-0.768-0.358
			c-0.222-0.234-0.331-0.534-0.326-0.901C107.994,124.187,108.583,123.396,109.767,122.712z"/>
		<path fill="#FFFFFF" d="M116.136,128.022c-0.315,0.401-0.674,0.697-1.075,0.89c-0.402,0.193-0.846,0.278-1.333,0.261
			c-0.676-0.025-1.28-0.267-1.82-0.727c-0.541-0.459-0.801-1.121-0.779-1.984c0.022-0.841,0.353-1.551,0.994-2.122
			c0.642-0.572,1.401-0.841,2.27-0.808c0.959,0.038,1.74,0.438,2.338,1.196c0.598,0.758,0.854,1.796,0.78,3.11
			c-0.062,1.09-0.287,2.002-0.67,2.734c-0.384,0.732-0.863,1.269-1.44,1.608c-0.578,0.341-1.215,0.497-1.915,0.471
			c-0.678-0.024-1.202-0.183-1.578-0.481c-0.376-0.297-0.559-0.644-0.547-1.041c0.008-0.263,0.093-0.471,0.257-0.627
			c0.164-0.157,0.368-0.233,0.611-0.225c0.222,0.007,0.405,0.082,0.553,0.228c0.148,0.146,0.218,0.315,0.212,0.509
			c-0.005,0.141-0.082,0.292-0.229,0.456c-0.09,0.103-0.136,0.191-0.139,0.268c-0.004,0.119,0.065,0.225,0.208,0.316
			c0.145,0.092,0.378,0.144,0.703,0.154c0.461,0.017,0.872-0.089,1.234-0.316c0.363-0.229,0.667-0.613,0.913-1.16
			c0.247-0.547,0.393-1.26,0.438-2.143C116.126,128.399,116.131,128.211,116.136,128.022z M114.395,123.99
			c-0.516-0.021-0.949,0.163-1.294,0.546c-0.346,0.385-0.529,0.974-0.557,1.77c-0.022,0.727,0.123,1.275,0.437,1.643
			c0.312,0.37,0.73,0.562,1.255,0.583c0.52,0.019,0.966-0.153,1.34-0.522c0.374-0.369,0.579-0.9,0.613-1.593
			c0.036-0.718-0.122-1.298-0.478-1.737S114.916,124.01,114.395,123.99z"/>
		<path fill="#FFFFFF" d="M123.874,128.521c-0.33,0.39-0.7,0.672-1.108,0.852c-0.409,0.179-0.856,0.249-1.343,0.216
			c-0.675-0.048-1.271-0.31-1.796-0.789c-0.523-0.478-0.762-1.148-0.708-2.009c0.052-0.841,0.406-1.537,1.069-2.087
			c0.661-0.548,1.432-0.794,2.299-0.73c0.958,0.07,1.727,0.496,2.297,1.274c0.57,0.778,0.792,1.823,0.671,3.135
			c-0.101,1.087-0.358,1.99-0.768,2.709c-0.41,0.718-0.911,1.239-1.5,1.559c-0.591,0.321-1.233,0.455-1.933,0.406
			c-0.678-0.048-1.197-0.226-1.562-0.535c-0.366-0.308-0.536-0.662-0.511-1.058c0.018-0.261,0.11-0.469,0.279-0.62
			c0.171-0.151,0.377-0.219,0.62-0.203c0.222,0.014,0.402,0.097,0.545,0.246c0.144,0.149,0.207,0.321,0.193,0.516
			c-0.011,0.14-0.093,0.289-0.245,0.448c-0.094,0.1-0.143,0.187-0.147,0.264c-0.009,0.119,0.057,0.225,0.197,0.322
			c0.142,0.097,0.372,0.155,0.696,0.179c0.462,0.031,0.877-0.059,1.247-0.275c0.372-0.215,0.689-0.591,0.955-1.128
			c0.268-0.537,0.44-1.246,0.515-2.127C123.851,128.897,123.862,128.708,123.874,128.521z M122.274,124.431
			c-0.516-0.038-0.956,0.13-1.313,0.502c-0.36,0.373-0.565,0.956-0.62,1.75c-0.049,0.726,0.076,1.278,0.378,1.657
			c0.3,0.378,0.711,0.588,1.235,0.625c0.519,0.038,0.972-0.121,1.359-0.477c0.386-0.355,0.61-0.879,0.67-1.571
			c0.062-0.716-0.077-1.3-0.417-1.752C123.228,124.713,122.796,124.47,122.274,124.431z"/>
	</g>
</g>
</svg>
