<?xml version="1.0" encoding="utf-8"?>
<!-- Generator: Adobe Illustrator 16.0.4, SVG Export Plug-In . SVG Version: 6.00 Build 0)  -->
<!DOCTYPE svg PUBLIC "-//W3C//DTD SVG 1.1//EN" "http://www.w3.org/Graphics/SVG/1.1/DTD/svg11.dtd">
<svg version="1.1" id="Livello_1" xmlns="http://www.w3.org/2000/svg" xmlns:xlink="http://www.w3.org/1999/xlink" x="0px" y="0px"
	 width="210px" height="200px" viewBox="0 0 210 200" enable-background="new 0 0 210 200" xml:space="preserve">
<circle fill="#0572B7" cx="105" cy="100" r="84"/>
<circle fill="#0572B7" stroke="#FFFFFF" stroke-width="5" stroke-miterlimit="10" cx="105" cy="100" r="75.216"/>
<g>
	<g>
		<path fill="#55ABE0" stroke="#FFFFFF" stroke-miterlimit="10" d="M65.938,127.085l-8.353,1.761
			c4.722,8.347,11.686,15.49,20.472,20.428l1.18-8.916C73.711,136.958,69.212,132.376,65.938,127.085z"/>
		<path fill="#55ABE0" stroke="#FFFFFF" stroke-miterlimit="10" d="M79.714,64.14l-1.762-8.906
			c-8.346,4.721-15.488,11.686-20.427,20.473l8.917,1.732C69.841,71.911,74.423,67.413,79.714,64.14z"/>
		<path fill="#55ABE0" stroke="#FFFFFF" stroke-miterlimit="10" d="M143.212,76.808l8.354-1.207
			c-4.721-8.348-11.685-15.49-20.472-20.428l-1.18,8.363C135.441,66.934,139.94,71.517,143.212,76.808z"/>
		<path fill="#55ABE0" stroke="#FFFFFF" stroke-miterlimit="10" d="M95.226,147.021l-5.052,7.256
			c9.712,2.699,19.685,2.551,28.919-0.033l-5.078-7.247C107.962,148.437,101.541,148.511,95.226,147.021z"/>
		<path fill="#55ABE0" stroke="#FFFFFF" stroke-miterlimit="10" d="M156.595,87.705l-6.955,3.909
			c1.44,6.052,1.514,12.474,0.022,18.789l6.966,6.223C159.328,106.914,159.18,96.938,156.595,87.705z"/>
	</g>
	<path fill="#55ABE0" stroke="#FFFFFF" stroke-width="2" stroke-miterlimit="10" d="M112.116,73.646H88.041v58.177h13.757v-19.393
		h10.318c11.4,0,20.635-8.678,20.635-19.393S123.517,73.646,112.116,73.646z M112.804,99.502h-11.006V86.574h11.006
		c3.799,0,6.879,2.893,6.879,6.464C119.683,96.61,116.603,99.502,112.804,99.502z"/>
	<g>
		<g>
			<path fill="#FFFFFF" d="M62.595,90.234c1.289,0.03,2.367-0.993,2.396-2.288c0.029-1.297-0.999-2.368-2.288-2.398
				c-1.295-0.029-2.367,0.992-2.397,2.289C60.276,89.132,61.3,90.204,62.595,90.234z"/>
		</g>
		<g>
			<path fill="#FFFFFF" d="M62.935,99.487h6.355v-2.343h-4.722l-2.604-4.337c-0.384-0.65-1.093-1.08-1.901-1.08
				c-0.221,0-0.436,0.032-0.638,0.09l-7.064,2.201l-0.955,6.771h2.344l0.955-4.771l2.742-0.854l-5.086,19.948h2.344l3.737-10.56
				l3.034,4.05v6.51h2.343v-8.34l-3.242-5.912l0.958-3.735L62.935,99.487z"/>
		</g>
	</g>
	<path fill="#FFFFFF" d="M124.233,56.017c-0.981-3.08-3.608-5.095-6.572-5.062l-2.148,0.078l-0.68-1.706
		c-1.321-3.311-2.004-4.934-2.213-5.249c-0.208-0.315-0.232-0.319-2.189-0.319c-1.733,0-2.007,0.03-2.155,0.231
		c-0.242,0.317-0.229,0.513,0.074,0.816c0.233,0.232,0.439,0.262,1.756,0.262c1.04,0,1.531,0.05,1.616,0.164
		c0.147,0.195,0.694,1.531,0.694,1.691c0,0.062-2.742,0.11-6.093,0.11h-6.096l-0.259-0.514c-0.146-0.287-0.267-0.546-0.267-0.577
		c0-0.035,0.624-0.131,1.388-0.224c1.555-0.184,2.125-0.458,1.751-0.839c-0.167-0.173-0.635-0.213-2.714-0.238
		c-1.71-0.02-2.562,0.016-2.659,0.116c-0.079,0.079-0.126,0.374-0.103,0.654c0.037,0.45,0.074,0.706,0.49,0.657l0.63-0.081
		l0.819,1.544l-2.559,3.923c-1.824-0.547-3.48-0.671-5.354-0.067c-0.901,0.379-2.179,1.286-2.763,1.971
		c-0.765,0.893-1.365,2.244-1.545,3.479c-0.02,0.137-0.033,0.275-0.043,0.41v0.938c0.193,2.657,2.037,5.144,4.615,5.999
		c1.196,0.401,1.225,0.405,2.476,0.362c0.935-0.032,1.389-0.124,2.2-0.438c1.18-0.459,1.73-0.915,2.962-2.258
		c1.247-1.367,1.377-2.924,1.426-3.339c0.103-0.036,1.123-0.071,2.27-0.071h2.088l0.019,1.05c0.012,0.577-0.029,1.312-0.023,1.439
		c0.01,0.18-0.056,0.076-0.496,0.107c-0.499,0.033-0.562,0.075-0.524,0.327c0.031,0.23,0.142,0.3,0.552,0.331
		c0.28,0.025,0.959-0.083,1.129-0.126l0.035-3.168l0.883-1.1c0.502-0.635,0.959-1.213,1.013-1.283
		c0.057-0.074,0.313-0.398,0.57-0.724c0.255-0.324,1.456-1.843,2.667-3.376c1.211-1.531,2.24-2.787,2.294-2.787
		c0.056,0,0.161,0.135,0.237,0.3c0.47,0.984,0.721,1.642,0.78,2.023c0.063,0.374,0.028,0.444-0.274,0.56
		c-0.519,0.198-1.938,1.702-2.356,2.505c-0.523,1-0.87,2.277-0.87,3.229c0,1.405,0.946,3.726,1.914,4.689
		c2.631,2.631,6.422,2.869,9.286,0.588c1-0.89,1.848-2.055,2.255-3.34C124.445,58.747,124.483,56.794,124.233,56.017z
		 M97.294,53.462c0.921,0.834,1.812,1.658,1.978,3.495l-4.212,0.061L97.294,53.462z M93.595,62.978
		c-2.516-0.084-5.165-2.008-5.138-5.539c0.022-3.49,3.771-5.908,7.668-4.562c-1.025,1.809-3.382,4.9-3.097,5.291
		c0.295,0.407,0.853,0.271,3.5,0.271h2.815C99.057,62.346,95.127,63.026,93.595,62.978z M100.687,56.937
		c-0.381-1.876-1.46-3.381-2.753-4.767l1.842-3.038c0.077,0,0.425,0.516,0.776,1.144c0.353,0.633,1.337,2.385,2.191,3.893
		c0.854,1.506,1.538,2.808,1.477,2.808L100.687,56.937z M108.823,52.424c-0.095,0.111-0.471,0.626-0.87,1.112l-2.219,2.702
		l-0.002-1.694c0.339-0.01,1.027-0.005,1.004-0.437c-0.019-0.435-0.972-0.315-1.633-0.286l0.066,2.474l-4.057-7.95h5.324
		c4.473,0,5.324,0.031,5.324,0.186C111.762,48.672,110.264,50.655,108.823,52.424z M121.434,61.693
		c-1.398,1.352-3.437,1.899-5.23,1.407c-2.697-0.744-4.485-3.369-4.074-5.986c0.229-1.458,0.624-2.285,1.532-3.21
		c1.056-1.08,1.248-1.085,1.639-0.055c0.094,0.252,0.299,0.759,0.455,1.117c0.156,0.361,0.516,1.229,0.8,1.93
		c0.579,1.435,0.91,1.769,1.368,1.353c0.375-0.524,0.045-1.295-0.368-2.189c-0.222-0.404-1.338-3.413-1.338-3.609
		c0.313-0.312,1.038-0.16,1.476-0.146c1.255,0.056,1.587,0.12,2.243,0.425c0.972,0.454,2.231,1.715,2.687,2.693
		c0.301,0.648,0.542,0.9,0.559,2.39C123.36,59.321,122.414,60.616,121.434,61.693z"/>
	<path fill="#FFFFFF" d="M147.798,124.458c-0.936-1.6-2.049-1.948-3.838-2.408c-1.787-0.46-3.591-0.529-5.157-0.529
		s-3.369,0.069-5.157,0.529c-1.787,0.46-2.915,0.809-3.851,2.408c-0.937,1.6-1.637,9.74-1.637,10.16c0,0.422,0,9.192,0,9.192h1.116
		c0,0.559,0,2.46,0,2.48c0,0.787,1.166,1.427,1.953,1.427c0.788,0,1.954-0.64,1.954-1.427c0-0.021,0-1.922,0-2.48h11.432
		c0,0.559-0.002,2.207,0,2.228c0.181,1.427,1.518,1.553,2.305,1.553s1.334-0.513,1.334-1.3c0-0.021,0-1.922,0-2.48h1.176
		c0,0,0.002-8.313,0.002-8.773C149.43,134.578,148.734,126.058,147.798,124.458z M134.856,122.601h8.371v2.233h-8.371V122.601z
		 M132.159,142.202c-1.4,0-2.535-1.134-2.535-2.532s1.135-2.532,2.535-2.532c1.398,0,2.533,1.134,2.533,2.532
		S133.558,142.202,132.159,142.202z M129.825,134.322c0,0,0.587-6.768,1.216-7.396c0.627-0.628,14.896-0.554,15.522,0.075
		c0.63,0.627,1.214,7.321,1.214,7.321H129.825z M145.159,142.202c-1.398,0-2.535-1.134-2.535-2.532s1.137-2.532,2.535-2.532
		c1.396,0,2.533,1.134,2.533,2.532S146.556,142.202,145.159,142.202z"/>
</g>
<g>
	<g>
		<path fill="#328ACA" stroke="#FFFFFF" stroke-width="2" stroke-miterlimit="10" d="M194.768,147.089
			c-2.534-5.82-5.349-11.609-8.446-17.346c6.004-2.538,12.219-4.851,18.63-6.916C140.979,95.972,68.834,96.142,4.965,123.337
			c0.04,0.094,0.08,0.188,0.12,0.282c6.617,2.096,13.026,4.457,19.211,7.058c-2.899,5.432-5.546,10.909-7.942,16.414
			C73.411,123.139,137.71,123.138,194.768,147.089L194.768,147.089L194.768,147.089z"/>
	</g>
</g>
<g>
	<g>
		<path fill="#FFFFFF" d="M24.693,123.376c1.648-0.554,3.298-1.087,4.95-1.605c1.12-0.35,2.047-0.385,2.776-0.108
			c0.73,0.276,1.206,0.784,1.433,1.516c0.227,0.734,0.133,1.372-0.279,1.917c-0.566,0.751-1.381,1.292-2.451,1.626
			c-0.583,0.184-1.167,0.369-1.75,0.557c0.343,1.015,0.688,2.03,1.034,3.045c0.061,0.178,0.149,0.289,0.267,0.335
			c0.154,0.058,0.333,0.055,0.538-0.012c0.365-0.116,0.731-0.233,1.097-0.348c0.05,0.152,0.1,0.303,0.151,0.453
			c-1.544,0.486-3.087,0.988-4.627,1.506c-0.054-0.15-0.107-0.3-0.161-0.451c0.323-0.109,0.646-0.216,0.969-0.323
			c0.191-0.063,0.32-0.145,0.385-0.244c0.064-0.1,0.076-0.209,0.034-0.33c-0.824-2.366-1.641-4.731-2.451-7.098
			c-0.062-0.181-0.165-0.291-0.31-0.333c-0.145-0.043-0.382-0.009-0.707,0.099c-0.248,0.083-0.494,0.164-0.74,0.248
			C24.798,123.677,24.745,123.526,24.693,123.376z M29.222,126.839c0.445-0.143,0.89-0.285,1.334-0.426
			c0.846-0.266,1.404-0.616,1.676-1.052c0.271-0.437,0.291-1.023,0.057-1.764c-0.165-0.518-0.375-0.888-0.635-1.113
			c-0.258-0.226-0.575-0.353-0.949-0.384c-0.374-0.031-0.941,0.072-1.699,0.312c-0.5,0.158-0.803,0.302-0.909,0.429
			c-0.104,0.127-0.121,0.294-0.051,0.504C28.437,124.51,28.829,125.674,29.222,126.839z"/>
		<path fill="#FFFFFF" d="M42.953,127.029c0.11,0.094,0.221,0.188,0.332,0.281c-0.234,0.392-0.544,0.638-0.932,0.743
			c-0.297,0.08-0.568,0.072-0.814-0.023c-0.246-0.096-0.5-0.312-0.762-0.65c-0.299,0.523-0.584,0.896-0.858,1.12
			c-0.273,0.224-0.63,0.399-1.069,0.524c-0.627,0.178-1.142,0.191-1.547,0.035c-0.404-0.155-0.668-0.429-0.789-0.822
			c-0.183-0.593,0.042-1.195,0.68-1.806c0.637-0.609,1.572-1.159,2.797-1.637c-0.083-0.29-0.166-0.578-0.249-0.868
			c-0.088-0.31-0.299-0.539-0.635-0.682c-0.335-0.146-0.714-0.159-1.135-0.04c-0.388,0.109-0.703,0.278-0.939,0.504
			c-0.169,0.168-0.237,0.303-0.206,0.41c0.019,0.062,0.101,0.141,0.246,0.24c0.178,0.125,0.286,0.251,0.323,0.377
			c0.055,0.185,0.035,0.351-0.06,0.504s-0.245,0.26-0.453,0.32c-0.222,0.063-0.428,0.048-0.619-0.047
			c-0.19-0.094-0.319-0.248-0.384-0.463c-0.122-0.402,0.014-0.842,0.412-1.319c0.398-0.477,1.004-0.831,1.815-1.057
			c0.749-0.21,1.363-0.22,1.839-0.033c0.478,0.19,0.775,0.498,0.894,0.923c0.293,1.044,0.587,2.089,0.883,3.134
			c0.079,0.277,0.184,0.468,0.317,0.573c0.134,0.109,0.277,0.142,0.431,0.101C42.64,127.325,42.801,127.21,42.953,127.029z
			 M40.104,125.197c-1.082,0.452-1.809,0.911-2.18,1.364c-0.275,0.344-0.344,0.738-0.208,1.186c0.094,0.313,0.259,0.532,0.491,0.656
			c0.231,0.126,0.492,0.147,0.78,0.065c0.515-0.146,0.907-0.452,1.18-0.923c0.272-0.47,0.331-0.978,0.173-1.529
			C40.261,125.744,40.183,125.471,40.104,125.197z"/>
		<path fill="#FFFFFF" d="M42.443,121.682c0.746-0.232,1.493-0.461,2.24-0.686c0.202,0.777,0.403,1.553,0.606,2.331
			c0.04-0.826,0.181-1.479,0.421-1.958c0.239-0.477,0.612-0.78,1.116-0.901c0.341-0.082,0.638-0.052,0.889,0.09
			c0.251,0.143,0.416,0.374,0.495,0.695c0.063,0.261,0.044,0.477-0.056,0.654c-0.101,0.177-0.253,0.289-0.458,0.338
			c-0.201,0.049-0.378,0.026-0.532-0.068c-0.153-0.093-0.256-0.245-0.309-0.454c-0.034-0.136-0.031-0.271,0.011-0.409
			c0.039-0.123,0.058-0.193,0.053-0.215c-0.016-0.061-0.066-0.082-0.15-0.061c-0.184,0.044-0.368,0.194-0.551,0.448
			c-0.253,0.354-0.404,0.792-0.453,1.316c-0.075,0.813-0.052,1.442,0.065,1.89c0.108,0.412,0.215,0.823,0.323,1.237
			c0.036,0.139,0.117,0.232,0.242,0.28c0.125,0.047,0.312,0.038,0.566-0.024c0.261-0.065,0.522-0.129,0.783-0.192
			c0.039,0.154,0.079,0.308,0.118,0.462c-1.274,0.311-2.546,0.633-3.817,0.964c-0.042-0.154-0.084-0.307-0.125-0.46
			c0.203-0.053,0.407-0.106,0.611-0.159c0.206-0.053,0.351-0.13,0.436-0.233c0.084-0.103,0.113-0.207,0.084-0.313
			c-0.327-1.222-0.651-2.445-0.975-3.669c-0.074-0.276-0.192-0.465-0.357-0.561c-0.164-0.096-0.366-0.115-0.608-0.05
			c-0.184,0.047-0.368,0.094-0.551,0.144C42.521,121.972,42.482,121.827,42.443,121.682z"/>
		<path fill="#FFFFFF" d="M54.395,123.15c0.153,0.008,0.304,0.017,0.457,0.026c-0.085,1.26-0.706,2.014-1.871,2.271
			c-0.854,0.189-1.614,0.082-2.288-0.322c-0.672-0.407-1.119-1.048-1.333-1.929c-0.248-1.021-0.137-1.885,0.339-2.586
			c0.477-0.705,1.132-1.149,1.96-1.331c0.622-0.136,1.17-0.092,1.644,0.136c0.474,0.228,0.752,0.534,0.835,0.919
			c0.051,0.233,0.018,0.438-0.099,0.622c-0.116,0.184-0.277,0.296-0.482,0.34c-0.201,0.042-0.384,0.017-0.551-0.081
			c-0.167-0.098-0.27-0.237-0.311-0.418c-0.041-0.182-0.004-0.37,0.111-0.568c0.055-0.094,0.077-0.165,0.066-0.209
			c-0.026-0.119-0.14-0.216-0.34-0.292c-0.2-0.075-0.452-0.08-0.753-0.013c-0.549,0.121-0.922,0.398-1.118,0.829
			c-0.279,0.624-0.315,1.37-0.109,2.238c0.196,0.827,0.523,1.414,0.975,1.76c0.453,0.346,0.95,0.459,1.494,0.339
			C53.774,124.713,54.229,124.137,54.395,123.15z"/>
		<path fill="#FFFFFF" d="M53.92,115.453c0.804-0.204,1.608-0.404,2.413-0.599c0.301,1.499,0.604,2.997,0.908,4.495
			c0.251-0.464,0.549-0.833,0.892-1.104c0.345-0.271,0.732-0.446,1.16-0.527c0.406-0.077,0.79-0.057,1.147,0.063
			c0.278,0.095,0.54,0.304,0.783,0.625c0.243,0.323,0.409,0.723,0.498,1.208c0.171,0.927,0.343,1.854,0.515,2.78
			c0.033,0.178,0.105,0.299,0.218,0.364c0.112,0.062,0.272,0.076,0.479,0.04c0.176-0.031,0.352-0.063,0.529-0.093
			c0.028,0.156,0.056,0.313,0.085,0.469c-1.113,0.194-2.225,0.396-3.336,0.607c-0.031-0.156-0.061-0.312-0.092-0.468
			c0.124-0.022,0.248-0.048,0.37-0.07c0.282-0.054,0.469-0.13,0.561-0.237c0.091-0.105,0.121-0.243,0.088-0.413
			c-0.177-0.926-0.353-1.851-0.528-2.777c-0.092-0.487-0.29-0.844-0.596-1.068c-0.306-0.226-0.658-0.3-1.053-0.225
			c-0.312,0.059-0.584,0.191-0.817,0.396c-0.235,0.205-0.413,0.482-0.533,0.832c-0.121,0.35-0.145,0.699-0.074,1.048
			c0.158,0.775,0.317,1.552,0.476,2.327c0.043,0.208,0.119,0.346,0.23,0.415c0.109,0.069,0.271,0.082,0.482,0.041
			c0.176-0.035,0.352-0.069,0.528-0.103c0.031,0.156,0.062,0.312,0.093,0.468c-1.087,0.21-2.174,0.427-3.261,0.654
			c-0.034-0.155-0.067-0.312-0.101-0.467c0.123-0.025,0.247-0.051,0.37-0.076c0.251-0.051,0.42-0.134,0.505-0.25
			c0.086-0.115,0.108-0.269,0.068-0.464c-0.487-2.316-0.97-4.633-1.449-6.951c-0.052-0.25-0.161-0.42-0.331-0.513
			c-0.168-0.092-0.39-0.112-0.663-0.056c-0.156,0.032-0.31,0.064-0.465,0.096C53.987,115.764,53.954,115.607,53.92,115.453z"/>
		<path fill="#FFFFFF" d="M69.661,119.218c-1.497,0.219-2.993,0.453-4.489,0.701c0.173,0.891,0.459,1.491,0.853,1.804
			c0.449,0.351,0.967,0.479,1.553,0.388c0.864-0.135,1.485-0.708,1.871-1.718c0.154,0.036,0.307,0.074,0.46,0.111
			c-0.47,1.285-1.303,2.016-2.517,2.208c-0.827,0.131-1.569-0.039-2.235-0.511c-0.666-0.472-1.079-1.149-1.234-2.033
			c-0.167-0.95-0.02-1.768,0.45-2.449c0.468-0.683,1.125-1.09,1.96-1.224c0.615-0.097,1.17-0.034,1.662,0.191
			c0.492,0.228,0.892,0.595,1.198,1.112C69.409,118.16,69.563,118.633,69.661,119.218z M65.097,119.476
			c0.906-0.151,1.813-0.296,2.72-0.436c0.162-0.025,0.279-0.096,0.352-0.211c0.074-0.116,0.091-0.298,0.053-0.544
			c-0.072-0.46-0.285-0.829-0.645-1.103c-0.359-0.275-0.75-0.379-1.168-0.312c-0.47,0.074-0.837,0.332-1.098,0.774
			C65.048,118.086,64.977,118.697,65.097,119.476z"/>
		<path fill="#FFFFFF" d="M75.109,115.783c0.4-0.48,0.791-0.74,1.171-0.786c0.227-0.025,0.423,0.018,0.588,0.137
			c0.165,0.117,0.257,0.272,0.28,0.465c0.018,0.157-0.017,0.291-0.107,0.406c-0.089,0.115-0.202,0.181-0.337,0.196
			c-0.256,0.029-0.448-0.096-0.574-0.381c-0.051-0.122-0.12-0.177-0.206-0.167c-0.153,0.017-0.31,0.132-0.467,0.343
			c0.224,0.224,0.384,0.423,0.479,0.598s0.153,0.367,0.179,0.577c0.044,0.366-0.012,0.7-0.166,1.001
			c-0.154,0.302-0.434,0.585-0.841,0.854c-0.408,0.268-0.809,0.427-1.204,0.479c-0.243,0.031-0.485,0.063-0.729,0.095
			c-0.516,0.069-0.851,0.165-1.006,0.289c-0.154,0.127-0.216,0.293-0.188,0.495c0.023,0.162,0.109,0.278,0.259,0.348
			c0.15,0.068,0.415,0.078,0.796,0.027c0.545-0.083,1.09-0.165,1.636-0.244c0.83-0.105,1.443-0.046,1.839,0.174
			c0.398,0.219,0.622,0.558,0.677,1.017c0.061,0.503-0.095,0.953-0.463,1.347c-0.514,0.557-1.335,0.9-2.469,1.05
			c-0.938,0.123-1.656,0.052-2.159-0.216c-0.395-0.209-0.617-0.476-0.665-0.799c-0.036-0.247,0.045-0.487,0.247-0.727
			c0.201-0.236,0.568-0.445,1.101-0.619c-0.45-0.042-0.8-0.143-1.048-0.308c-0.249-0.164-0.396-0.391-0.437-0.68
			c-0.039-0.267,0.017-0.514,0.169-0.739c0.151-0.224,0.44-0.438,0.865-0.642c-0.406-0.146-0.725-0.343-0.957-0.595
			c-0.231-0.252-0.374-0.558-0.425-0.918c-0.082-0.57,0.089-1.082,0.519-1.534c0.429-0.451,1.032-0.729,1.807-0.831
			c0.316-0.04,0.628-0.039,0.933,0.01C74.511,115.552,74.812,115.645,75.109,115.783z M74.456,121.527
			c-0.812,0.104-1.375,0.29-1.691,0.55s-0.451,0.542-0.408,0.844c0.041,0.284,0.202,0.491,0.483,0.619
			c0.372,0.17,0.871,0.215,1.5,0.134c0.752-0.096,1.302-0.287,1.652-0.573c0.351-0.285,0.509-0.575,0.473-0.869
			c-0.021-0.172-0.101-0.324-0.239-0.46c-0.138-0.135-0.34-0.225-0.61-0.271C75.346,121.455,74.958,121.463,74.456,121.527z
			 M73.313,115.901c-0.402,0.053-0.716,0.233-0.939,0.542c-0.225,0.311-0.303,0.713-0.234,1.208c0.073,0.528,0.26,0.921,0.56,1.177
			c0.298,0.256,0.648,0.358,1.049,0.306c0.401-0.051,0.71-0.235,0.931-0.55c0.221-0.316,0.298-0.738,0.231-1.267
			c-0.062-0.492-0.243-0.863-0.542-1.115C74.067,115.95,73.716,115.85,73.313,115.901z"/>
		<path fill="#FFFFFF" d="M82.568,114.988c0.414-0.468,0.812-0.716,1.193-0.75c0.228-0.02,0.421,0.033,0.583,0.155
			s0.248,0.28,0.265,0.474c0.013,0.157-0.026,0.292-0.119,0.402c-0.092,0.11-0.207,0.175-0.342,0.185
			c-0.258,0.022-0.444-0.11-0.561-0.399c-0.046-0.123-0.114-0.181-0.2-0.172c-0.153,0.014-0.313,0.123-0.476,0.329
			c0.216,0.232,0.369,0.436,0.458,0.612c0.088,0.177,0.142,0.372,0.161,0.582c0.033,0.367-0.034,0.699-0.196,0.996
			c-0.162,0.297-0.452,0.572-0.866,0.828c-0.415,0.254-0.819,0.401-1.215,0.44c-0.243,0.024-0.486,0.048-0.729,0.073
			c-0.517,0.053-0.854,0.139-1.013,0.258c-0.158,0.123-0.226,0.286-0.203,0.488c0.018,0.164,0.101,0.283,0.247,0.356
			c0.148,0.074,0.411,0.089,0.793,0.051c0.546-0.067,1.092-0.13,1.639-0.194c0.83-0.08,1.44-0.001,1.829,0.23
			c0.39,0.231,0.603,0.577,0.643,1.037c0.044,0.506-0.124,0.95-0.504,1.332c-0.53,0.539-1.36,0.86-2.496,0.974
			c-0.938,0.093-1.652,0-2.145-0.282c-0.388-0.223-0.6-0.494-0.637-0.819c-0.028-0.247,0.061-0.487,0.269-0.72
			c0.208-0.23,0.581-0.426,1.117-0.584c-0.448-0.056-0.794-0.168-1.036-0.34c-0.243-0.172-0.382-0.404-0.414-0.693
			c-0.031-0.269,0.033-0.513,0.191-0.733c0.158-0.22,0.453-0.424,0.883-0.615c-0.4-0.157-0.712-0.366-0.936-0.624
			c-0.223-0.258-0.355-0.569-0.395-0.931c-0.064-0.573,0.123-1.079,0.565-1.517c0.442-0.439,1.052-0.697,1.827-0.774
			c0.317-0.031,0.627-0.019,0.93,0.038C81.979,114.738,82.277,114.84,82.568,114.988z M81.737,120.708
			c-0.812,0.079-1.381,0.248-1.704,0.498c-0.322,0.251-0.467,0.528-0.434,0.831c0.031,0.285,0.186,0.497,0.462,0.634
			c0.365,0.183,0.861,0.242,1.491,0.18c0.753-0.074,1.308-0.245,1.666-0.522c0.359-0.274,0.526-0.56,0.499-0.854
			c-0.016-0.173-0.09-0.328-0.223-0.467c-0.133-0.139-0.333-0.235-0.601-0.29C82.627,120.665,82.241,120.66,81.737,120.708z
			 M80.774,115.05c-0.403,0.039-0.721,0.211-0.954,0.514c-0.234,0.303-0.324,0.702-0.271,1.199c0.056,0.53,0.23,0.929,0.521,1.194
			c0.29,0.266,0.635,0.377,1.036,0.338c0.402-0.04,0.716-0.213,0.946-0.521c0.229-0.31,0.321-0.728,0.271-1.259
			c-0.047-0.493-0.215-0.872-0.506-1.132C81.524,115.122,81.177,115.011,80.774,115.05z"/>
		<path fill="#FFFFFF" d="M85.011,114.44c0.843-0.093,1.687-0.178,2.531-0.262c0.122,1.701,0.243,3.401,0.366,5.103
			c0.01,0.14,0.053,0.237,0.128,0.29c0.108,0.078,0.239,0.11,0.394,0.1c0.235-0.016,0.47-0.032,0.705-0.047
			c0.011,0.158,0.021,0.317,0.032,0.476c-1.178,0.078-2.356,0.162-3.534,0.258c-0.013-0.158-0.026-0.317-0.04-0.475
			c0.22-0.018,0.439-0.035,0.659-0.052c0.195-0.015,0.333-0.071,0.417-0.168c0.084-0.098,0.119-0.233,0.105-0.407
			c-0.096-1.244-0.191-2.489-0.287-3.733c-0.018-0.236-0.103-0.41-0.258-0.519c-0.152-0.108-0.373-0.152-0.658-0.13
			c-0.174,0.014-0.348,0.028-0.522,0.042C85.037,114.757,85.024,114.599,85.011,114.44z M86.516,110.765
			c0.208-0.016,0.395,0.044,0.561,0.176c0.166,0.133,0.257,0.296,0.27,0.49c0.014,0.189-0.05,0.36-0.192,0.51
			c-0.14,0.15-0.316,0.231-0.526,0.248c-0.21,0.016-0.398-0.042-0.562-0.17c-0.164-0.128-0.253-0.29-0.269-0.48
			c-0.015-0.188,0.051-0.362,0.196-0.517C86.14,110.866,86.314,110.779,86.516,110.765z"/>
		<path fill="#FFFFFF" d="M92.514,113.771c0.859-0.042,1.592,0.214,2.197,0.767c0.605,0.553,0.923,1.303,0.959,2.246
			c0.024,0.652-0.083,1.21-0.32,1.679c-0.237,0.469-0.586,0.847-1.045,1.132c-0.459,0.289-0.96,0.444-1.503,0.472
			c-0.804,0.042-1.5-0.214-2.096-0.763c-0.596-0.55-0.928-1.288-0.986-2.217c-0.06-0.934,0.179-1.71,0.717-2.327
			C90.975,114.143,91.67,113.813,92.514,113.771z M92.537,114.221c-0.507,0.026-0.913,0.262-1.214,0.709
			c-0.301,0.448-0.424,1.134-0.37,2.059c0.055,0.941,0.254,1.621,0.596,2.039c0.342,0.417,0.763,0.614,1.262,0.588
			c0.519-0.025,0.927-0.264,1.229-0.712c0.302-0.451,0.433-1.17,0.39-2.159c-0.04-0.917-0.229-1.572-0.571-1.969
			C93.518,114.379,93.076,114.194,92.537,114.221z"/>
		<path fill="#FFFFFF" d="M107.035,118.948c0.079,0.119,0.158,0.239,0.236,0.358c-0.327,0.315-0.685,0.469-1.078,0.467
			c-0.3-0.001-0.554-0.079-0.759-0.237c-0.205-0.157-0.385-0.434-0.539-0.827c-0.423,0.424-0.792,0.708-1.11,0.85
			c-0.317,0.144-0.699,0.215-1.146,0.22c-0.637,0.005-1.122-0.117-1.458-0.376c-0.336-0.259-0.509-0.59-0.516-1.001
			c-0.011-0.616,0.362-1.138,1.125-1.557c0.762-0.418,1.786-0.698,3.065-0.833c0-0.3,0-0.601,0-0.901
			c0-0.322-0.137-0.597-0.413-0.825c-0.276-0.229-0.627-0.341-1.054-0.339c-0.393,0.003-0.733,0.082-1.016,0.236
			c-0.204,0.117-0.304,0.23-0.302,0.34c0,0.062,0.056,0.161,0.166,0.296c0.133,0.168,0.2,0.317,0.201,0.448
			c0.002,0.192-0.062,0.348-0.192,0.469c-0.129,0.123-0.299,0.186-0.51,0.188c-0.226,0.004-0.414-0.067-0.566-0.209
			c-0.153-0.14-0.231-0.324-0.235-0.548c-0.007-0.418,0.239-0.805,0.74-1.16c0.5-0.352,1.164-0.532,1.984-0.536
			c0.758-0.003,1.338,0.151,1.735,0.456c0.398,0.309,0.595,0.686,0.592,1.125c-0.005,1.083-0.011,2.166-0.018,3.25
			c-0.001,0.289,0.047,0.5,0.143,0.636c0.097,0.141,0.223,0.209,0.379,0.211C106.661,119.147,106.843,119.081,107.035,118.948z
			 M104.854,116.43c-1.138,0.148-1.943,0.395-2.414,0.734c-0.35,0.256-0.522,0.62-0.516,1.084c0.004,0.326,0.098,0.58,0.282,0.762
			c0.183,0.183,0.421,0.272,0.713,0.27c0.522-0.003,0.974-0.195,1.357-0.575c0.383-0.379,0.577-0.854,0.577-1.425
			C104.854,116.997,104.854,116.713,104.854,116.43z"/>
		<path fill="#FFFFFF" d="M108,113.665c0.764-0.025,1.53-0.048,2.295-0.066c-0.019,0.802-0.037,1.603-0.056,2.404
			c0.261-0.786,0.569-1.376,0.925-1.773c0.354-0.397,0.787-0.587,1.295-0.572c0.345,0.012,0.617,0.119,0.816,0.323
			c0.199,0.204,0.292,0.471,0.28,0.8c-0.01,0.268-0.086,0.473-0.229,0.615c-0.143,0.143-0.317,0.211-0.523,0.204
			c-0.204-0.007-0.365-0.076-0.484-0.207c-0.12-0.131-0.176-0.304-0.169-0.519c0.004-0.142,0.044-0.27,0.121-0.391
			c0.07-0.107,0.107-0.171,0.107-0.193c0.003-0.064-0.04-0.097-0.125-0.099c-0.186-0.005-0.4,0.089-0.641,0.286
			c-0.334,0.272-0.595,0.656-0.782,1.147c-0.289,0.761-0.438,1.375-0.449,1.836c-0.01,0.427-0.021,0.852-0.031,1.276
			c-0.003,0.143,0.047,0.255,0.151,0.333c0.104,0.079,0.285,0.121,0.542,0.127c0.264,0.006,0.527,0.015,0.791,0.022
			c-0.004,0.159-0.01,0.318-0.014,0.476c-1.287-0.039-2.575-0.066-3.862-0.083c0.002-0.159,0.004-0.319,0.007-0.477
			c0.206,0.003,0.412,0.005,0.619,0.009c0.208,0.004,0.366-0.034,0.474-0.109c0.108-0.075,0.163-0.17,0.165-0.279
			c0.024-1.263,0.049-2.526,0.073-3.79c0.006-0.287-0.056-0.5-0.186-0.635c-0.127-0.136-0.315-0.206-0.559-0.209
			c-0.186-0.003-0.371-0.006-0.557-0.009C107.996,113.966,107.998,113.815,108,113.665z"/>
		<path fill="#FFFFFF" d="M120.069,117.146c-1.502-0.096-3.004-0.177-4.506-0.245c-0.02,0.905,0.129,1.552,0.445,1.939
			c0.361,0.436,0.835,0.669,1.424,0.702c0.868,0.046,1.593-0.384,2.182-1.292c0.141,0.067,0.282,0.136,0.423,0.205
			c-0.729,1.158-1.696,1.7-2.915,1.636c-0.831-0.043-1.514-0.363-2.059-0.962c-0.544-0.6-0.802-1.346-0.765-2.243
			c0.039-0.964,0.354-1.732,0.952-2.302c0.598-0.568,1.32-0.834,2.159-0.79c0.618,0.033,1.143,0.209,1.574,0.531
			c0.431,0.322,0.741,0.768,0.931,1.335C120.047,116.061,120.098,116.556,120.069,117.146z M115.584,116.452
			c0.91,0.041,1.821,0.087,2.731,0.139c0.161,0.008,0.291-0.037,0.386-0.135c0.096-0.096,0.151-0.272,0.166-0.521
			c0.027-0.465-0.103-0.869-0.394-1.212c-0.291-0.343-0.648-0.526-1.068-0.547c-0.472-0.025-0.882,0.152-1.229,0.529
			C115.829,115.084,115.633,115.667,115.584,116.452z"/>
		<path fill="#FFFFFF" d="M127.464,120.022c0.068,0.125,0.136,0.25,0.204,0.376c-0.354,0.285-0.726,0.409-1.119,0.373
			c-0.3-0.027-0.546-0.128-0.737-0.302c-0.191-0.176-0.347-0.464-0.466-0.871c-0.459,0.386-0.853,0.636-1.183,0.751
			c-0.331,0.116-0.718,0.156-1.163,0.122c-0.636-0.049-1.11-0.214-1.422-0.5s-0.457-0.631-0.427-1.041
			c0.043-0.617,0.461-1.104,1.258-1.455c0.797-0.35,1.844-0.543,3.133-0.567c0.026-0.299,0.053-0.599,0.079-0.898
			c0.027-0.32-0.085-0.607-0.341-0.857c-0.256-0.251-0.597-0.394-1.024-0.429c-0.393-0.031-0.739,0.018-1.035,0.148
			c-0.214,0.1-0.323,0.202-0.331,0.313c-0.005,0.062,0.042,0.166,0.14,0.309c0.119,0.18,0.172,0.333,0.162,0.464
			c-0.016,0.191-0.093,0.34-0.232,0.451s-0.314,0.159-0.526,0.143c-0.225-0.018-0.406-0.102-0.547-0.257
			c-0.14-0.154-0.203-0.341-0.187-0.566c0.029-0.417,0.308-0.783,0.838-1.092s1.207-0.431,2.028-0.365
			c0.758,0.062,1.324,0.265,1.694,0.603c0.37,0.342,0.535,0.733,0.494,1.172c-0.1,1.079-0.2,2.158-0.301,3.236
			c-0.027,0.287,0.002,0.502,0.087,0.646c0.083,0.147,0.205,0.229,0.359,0.243C127.073,120.189,127.261,120.138,127.464,120.022z
			 M125.505,117.326c-1.15,0.049-1.975,0.227-2.475,0.524c-0.372,0.227-0.575,0.572-0.61,1.037
			c-0.024,0.325,0.047,0.586,0.215,0.782c0.167,0.198,0.396,0.308,0.689,0.33c0.521,0.041,0.989-0.111,1.406-0.457
			c0.416-0.344,0.65-0.802,0.7-1.37C125.456,117.89,125.48,117.609,125.505,117.326z"/>
		<path fill="#FFFFFF" d="M138.392,119.018c-1.498-0.211-2.996-0.407-4.495-0.59c-0.09,0.902,0.008,1.558,0.294,1.968
			c0.328,0.461,0.784,0.732,1.372,0.809c0.866,0.111,1.625-0.26,2.287-1.122c0.137,0.079,0.273,0.157,0.409,0.237
			c-0.822,1.098-1.832,1.564-3.048,1.408c-0.829-0.107-1.488-0.478-1.987-1.117c-0.498-0.639-0.697-1.404-0.591-2.294
			c0.113-0.958,0.489-1.7,1.131-2.222c0.642-0.522,1.386-0.731,2.223-0.622c0.616,0.079,1.128,0.295,1.536,0.65
			c0.407,0.354,0.684,0.823,0.829,1.403C138.454,117.934,138.468,118.43,138.392,119.018z M133.953,117.981
			c0.908,0.11,1.816,0.227,2.725,0.347c0.161,0.021,0.294-0.015,0.397-0.105c0.104-0.091,0.172-0.259,0.206-0.505
			c0.064-0.462-0.035-0.873-0.3-1.239c-0.266-0.364-0.609-0.574-1.028-0.627c-0.471-0.061-0.896,0.084-1.271,0.434
			C134.305,116.636,134.062,117.201,133.953,117.981z"/>
		<path fill="#FFFFFF" d="M139.675,116.155c1.022,0.147,2.043,0.301,3.064,0.461c-0.023,0.144-0.046,0.288-0.069,0.433
			c-0.499-0.062-0.759-0.018-0.782,0.128c-0.01,0.068,0.017,0.159,0.081,0.275c0.292,0.504,0.583,1.009,0.871,1.515
			c0.422-0.357,0.846-0.714,1.271-1.07c0.092-0.079,0.145-0.161,0.158-0.245c0.03-0.178-0.224-0.336-0.761-0.471
			c0.023-0.144,0.047-0.288,0.07-0.432c0.893,0.144,1.784,0.291,2.677,0.444c-0.025,0.145-0.051,0.288-0.076,0.431
			c-0.66-0.014-1.193,0.154-1.602,0.5c-0.495,0.412-0.989,0.825-1.479,1.24c0.518,0.887,1.028,1.776,1.531,2.666
			c0.101,0.177,0.221,0.31,0.359,0.4c0.139,0.09,0.353,0.159,0.644,0.21c-0.028,0.157-0.056,0.312-0.084,0.47
			c-1.054-0.183-2.108-0.358-3.163-0.527c0.026-0.157,0.052-0.313,0.078-0.471c0.075,0.013,0.15,0.024,0.226,0.036
			c0.234,0.037,0.409,0.043,0.528,0.015c0.076-0.022,0.118-0.057,0.127-0.107c0.008-0.045-0.021-0.132-0.086-0.253
			c-0.328-0.586-0.659-1.17-0.993-1.754c-0.401,0.351-0.802,0.705-1.2,1.058c-0.168,0.148-0.26,0.276-0.277,0.38
			c-0.016,0.104,0.021,0.191,0.109,0.26c0.124,0.097,0.35,0.171,0.674,0.226c-0.025,0.157-0.051,0.313-0.076,0.47
			c-0.897-0.139-1.793-0.274-2.691-0.403c0.024-0.157,0.047-0.314,0.07-0.472c0.332,0.02,0.593-0.011,0.785-0.084
			c0.318-0.128,0.616-0.313,0.893-0.553c0.489-0.432,0.981-0.861,1.476-1.29c-0.495-0.84-0.996-1.679-1.502-2.515
			c-0.169-0.282-0.474-0.462-0.915-0.539C139.632,116.444,139.654,116.299,139.675,116.155z"/>
		<path fill="#FFFFFF" d="M152.34,114.81c2.303,0.449,4.604,0.93,6.902,1.445c-0.035,0.155-0.07,0.31-0.106,0.464
			c-2.552,2.311-5.044,4.662-7.475,7.046c0.706,0.141,1.412,0.285,2.119,0.432c0.607,0.127,1.125,0.14,1.554,0.038
			c0.429-0.102,0.806-0.312,1.13-0.628c0.325-0.317,0.688-0.889,1.087-1.716c0.156,0.034,0.313,0.069,0.469,0.104
			c-0.326,1.132-0.652,2.264-0.979,3.396c-2.347-0.526-4.695-1.014-7.046-1.467c0.027-0.139,0.056-0.278,0.083-0.418
			c2.434-2.414,4.932-4.792,7.489-7.133c-0.696-0.151-1.392-0.299-2.088-0.445c-0.571-0.119-1.025-0.148-1.366-0.093
			c-0.462,0.076-0.87,0.296-1.223,0.658c-0.353,0.365-0.652,0.884-0.901,1.561c-0.158-0.031-0.316-0.062-0.474-0.093
			C151.792,116.911,152.065,115.861,152.34,114.81z"/>
		<path fill="#FFFFFF" d="M161.75,120.257c-0.313,1.278-0.628,2.555-0.944,3.833c-0.116,0.469-0.08,0.861,0.109,1.176
			c0.189,0.314,0.482,0.521,0.88,0.618c0.491,0.119,0.955,0.038,1.396-0.248c0.441-0.285,0.736-0.705,0.883-1.263
			c0.188-0.719,0.377-1.439,0.564-2.159c0.052-0.197,0.014-0.369-0.112-0.517c-0.127-0.147-0.408-0.282-0.844-0.403
			c0.037-0.144,0.074-0.287,0.11-0.43c0.748,0.147,1.496,0.298,2.243,0.453c-0.418,1.576-0.838,3.149-1.261,4.725
			c-0.059,0.216-0.038,0.401,0.062,0.55c0.101,0.152,0.269,0.257,0.505,0.318c0.128,0.034,0.258,0.067,0.387,0.101
			c-0.037,0.138-0.075,0.274-0.113,0.412c-0.692-0.167-1.384-0.329-2.077-0.489c0.057-0.387,0.112-0.776,0.167-1.164
			c-0.475,0.312-0.925,0.526-1.35,0.639c-0.425,0.114-0.827,0.125-1.207,0.032c-0.556-0.134-0.977-0.419-1.267-0.858
			c-0.296-0.437-0.345-1.066-0.145-1.895c0.203-0.838,0.405-1.676,0.607-2.515c0.054-0.222-0.001-0.414-0.167-0.573
			c-0.115-0.114-0.38-0.224-0.796-0.327c0.034-0.145,0.067-0.289,0.102-0.432C160.24,119.976,160.995,120.113,161.75,120.257z"/>
		<path fill="#FFFFFF" d="M170.14,122.52c0.524,0.144,1.048,0.29,1.572,0.437c-0.052,0.178-0.104,0.354-0.156,0.531
			c-0.522-0.147-1.044-0.292-1.567-0.437c-0.398,1.394-0.798,2.788-1.201,4.182c-0.055,0.191-0.046,0.34,0.027,0.443
			c0.102,0.137,0.271,0.239,0.507,0.305c0.28,0.078,0.56,0.156,0.839,0.235c-0.045,0.152-0.09,0.306-0.136,0.458
			c-1.251-0.354-2.504-0.696-3.758-1.029c0.042-0.153,0.085-0.307,0.128-0.46c0.172,0.047,0.346,0.093,0.518,0.139
			c0.232,0.062,0.404,0.069,0.517,0.021c0.113-0.049,0.191-0.151,0.234-0.306c0.405-1.431,0.808-2.861,1.208-4.292
			c-0.361-0.098-0.724-0.194-1.085-0.291c0.049-0.177,0.098-0.355,0.146-0.533c0.363,0.095,0.726,0.194,1.088,0.292
			c0.041-0.145,0.081-0.29,0.122-0.435c0.282-1.008,0.729-1.721,1.345-2.123c0.615-0.405,1.271-0.51,1.962-0.316
			c0.512,0.144,0.881,0.369,1.103,0.676c0.223,0.305,0.279,0.638,0.171,1.001c-0.07,0.235-0.194,0.401-0.372,0.498
			c-0.178,0.096-0.373,0.114-0.585,0.055c-0.188-0.054-0.33-0.153-0.422-0.298c-0.092-0.143-0.114-0.3-0.065-0.468
			c0.055-0.189,0.183-0.324,0.381-0.4c0.16-0.061,0.248-0.115,0.262-0.164c0.021-0.069-0.013-0.146-0.097-0.233
			c-0.085-0.085-0.23-0.157-0.434-0.213c-0.384-0.108-0.753-0.046-1.105,0.189c-0.352,0.235-0.613,0.656-0.785,1.265
			C170.382,121.671,170.262,122.097,170.14,122.52z"/>
		<path fill="#FFFFFF" d="M174.72,123.825c0.522,0.154,1.045,0.31,1.568,0.469c-0.056,0.176-0.111,0.352-0.167,0.527
			c-0.521-0.158-1.043-0.313-1.564-0.468c-0.427,1.386-0.856,2.772-1.287,4.158c-0.059,0.191-0.053,0.339,0.018,0.443
			c0.1,0.14,0.267,0.244,0.503,0.315c0.279,0.084,0.559,0.167,0.837,0.252c-0.049,0.151-0.097,0.304-0.146,0.455
			c-1.249-0.378-2.499-0.746-3.75-1.103c0.046-0.152,0.092-0.305,0.138-0.458c0.172,0.049,0.345,0.099,0.517,0.148
			c0.232,0.067,0.404,0.078,0.518,0.031c0.114-0.045,0.195-0.147,0.242-0.301c0.435-1.422,0.867-2.845,1.297-4.268
			c-0.361-0.104-0.723-0.209-1.084-0.312c0.053-0.177,0.105-0.354,0.157-0.53c0.362,0.104,0.725,0.208,1.086,0.313
			c0.044-0.144,0.087-0.289,0.131-0.433c0.303-1.005,0.765-1.706,1.392-2.097c0.625-0.394,1.286-0.485,1.975-0.278
			c0.512,0.154,0.877,0.387,1.094,0.698c0.218,0.311,0.267,0.644,0.152,1.004c-0.075,0.235-0.202,0.397-0.383,0.491
			c-0.18,0.093-0.376,0.106-0.588,0.042c-0.189-0.057-0.329-0.159-0.417-0.307c-0.089-0.146-0.108-0.302-0.057-0.469
			c0.059-0.19,0.189-0.321,0.391-0.393c0.162-0.056,0.25-0.111,0.266-0.159c0.022-0.069-0.01-0.146-0.093-0.235
			c-0.084-0.086-0.228-0.161-0.43-0.222c-0.384-0.116-0.756-0.06-1.114,0.167c-0.357,0.228-0.627,0.646-0.813,1.249
			C174.979,122.982,174.849,123.404,174.72,123.825z"/>
		<path fill="#FFFFFF" d="M180.162,125.312c0.845,0.27,1.46,0.774,1.841,1.511c0.382,0.736,0.413,1.551,0.098,2.445
			c-0.217,0.617-0.529,1.1-0.933,1.452c-0.403,0.352-0.881,0.576-1.431,0.679c-0.551,0.103-1.092,0.067-1.625-0.104
			c-0.79-0.253-1.367-0.742-1.735-1.469c-0.369-0.727-0.415-1.536-0.129-2.424c0.288-0.893,0.802-1.533,1.548-1.915
			C178.54,125.103,179.331,125.046,180.162,125.312z M180.019,125.74c-0.499-0.16-0.978-0.084-1.432,0.224
			c-0.455,0.309-0.825,0.905-1.115,1.789c-0.294,0.897-0.354,1.605-0.18,2.118c0.175,0.514,0.506,0.847,0.997,1.004
			c0.51,0.163,0.992,0.09,1.45-0.221c0.458-0.31,0.853-0.936,1.178-1.874c0.3-0.87,0.36-1.553,0.175-2.045
			C180.908,126.242,180.549,125.91,180.019,125.74z"/>
	</g>
</g>
</svg>
