<?xml version="1.0" encoding="utf-8"?>
<!-- Generator: Adobe Illustrator 16.0.4, SVG Export Plug-In . SVG Version: 6.00 Build 0)  -->
<!DOCTYPE svg PUBLIC "-//W3C//DTD SVG 1.1//EN" "http://www.w3.org/Graphics/SVG/1.1/DTD/svg11.dtd">
<svg version="1.1" id="Livello_1" xmlns="http://www.w3.org/2000/svg" xmlns:xlink="http://www.w3.org/1999/xlink" x="0px" y="0px"
	 width="210px" height="200px" viewBox="0 0 210 200" enable-background="new 0 0 210 200" xml:space="preserve">
<circle fill="#0572B7" cx="105" cy="100" r="84"/>
<circle fill="#0572B7" stroke="#FFFFFF" stroke-width="5" stroke-miterlimit="10" cx="105" cy="100" r="75.216"/>
<g>
	<g>
		<path fill="#55ABE0" stroke="#FFFFFF" stroke-miterlimit="10" d="M65.938,127.085l-8.353,1.761
			c4.722,8.347,11.686,15.49,20.472,20.428l1.18-8.916C73.711,136.958,69.212,132.376,65.938,127.085z"/>
		<path fill="#55ABE0" stroke="#FFFFFF" stroke-miterlimit="10" d="M79.714,64.14l-1.762-8.906
			c-8.346,4.721-15.488,11.686-20.427,20.473l8.917,1.732C69.841,71.911,74.423,67.413,79.714,64.14z"/>
		<path fill="#55ABE0" stroke="#FFFFFF" stroke-miterlimit="10" d="M143.212,76.808l8.354-1.207
			c-4.721-8.348-11.685-15.49-20.472-20.428l-1.18,8.363C135.441,66.934,139.94,71.517,143.212,76.808z"/>
		<path fill="#55ABE0" stroke="#FFFFFF" stroke-miterlimit="10" d="M95.226,147.021l-5.052,7.256
			c9.712,2.699,19.685,2.551,28.919-0.033l-5.078-7.247C107.962,148.437,101.541,148.511,95.226,147.021z"/>
		<path fill="#55ABE0" stroke="#FFFFFF" stroke-miterlimit="10" d="M156.595,87.705l-6.955,3.909
			c1.44,6.052,1.514,12.474,0.022,18.789l6.966,6.223C159.328,106.914,159.18,96.938,156.595,87.705z"/>
	</g>
	<path fill="#55ABE0" stroke="#FFFFFF" stroke-width="2" stroke-miterlimit="10" d="M112.116,73.646H88.041v58.177h13.757v-19.393
		h10.318c11.4,0,20.635-8.678,20.635-19.393S123.517,73.646,112.116,73.646z M112.804,99.502h-11.006V86.574h11.006
		c3.799,0,6.879,2.893,6.879,6.464C119.683,96.61,116.603,99.502,112.804,99.502z"/>
	<g>
		<g>
			<path fill="#FFFFFF" d="M62.595,90.234c1.289,0.03,2.367-0.993,2.396-2.288c0.029-1.297-0.999-2.368-2.288-2.398
				c-1.295-0.029-2.367,0.992-2.397,2.289C60.276,89.132,61.3,90.204,62.595,90.234z"/>
		</g>
		<g>
			<path fill="#FFFFFF" d="M62.935,99.487h6.355v-2.343h-4.722l-2.604-4.337c-0.384-0.65-1.093-1.08-1.901-1.08
				c-0.221,0-0.436,0.032-0.638,0.09l-7.064,2.201l-0.955,6.771h2.344l0.955-4.771l2.742-0.854l-5.086,19.948h2.344l3.737-10.56
				l3.034,4.05v6.51h2.343v-8.34l-3.242-5.912l0.958-3.735L62.935,99.487z"/>
		</g>
	</g>
	<path fill="#FFFFFF" d="M124.233,56.017c-0.981-3.08-3.608-5.095-6.572-5.062l-2.148,0.078l-0.68-1.706
		c-1.321-3.311-2.004-4.934-2.213-5.249c-0.208-0.315-0.232-0.319-2.189-0.319c-1.733,0-2.007,0.03-2.155,0.231
		c-0.242,0.317-0.229,0.513,0.074,0.816c0.233,0.232,0.439,0.262,1.756,0.262c1.04,0,1.531,0.05,1.616,0.164
		c0.147,0.195,0.694,1.531,0.694,1.691c0,0.062-2.742,0.11-6.093,0.11h-6.096l-0.259-0.514c-0.146-0.287-0.267-0.546-0.267-0.577
		c0-0.035,0.624-0.131,1.388-0.224c1.555-0.184,2.125-0.458,1.751-0.839c-0.167-0.173-0.635-0.213-2.714-0.238
		c-1.71-0.02-2.562,0.016-2.659,0.116c-0.079,0.079-0.126,0.374-0.103,0.654c0.037,0.45,0.074,0.706,0.49,0.657l0.63-0.081
		l0.819,1.544l-2.559,3.923c-1.824-0.547-3.48-0.671-5.354-0.067c-0.901,0.379-2.179,1.286-2.763,1.971
		c-0.765,0.893-1.365,2.244-1.545,3.479c-0.02,0.137-0.033,0.275-0.043,0.41v0.938c0.193,2.657,2.037,5.144,4.615,5.999
		c1.196,0.401,1.225,0.405,2.476,0.362c0.935-0.032,1.389-0.124,2.2-0.438c1.18-0.459,1.73-0.915,2.962-2.258
		c1.247-1.367,1.377-2.924,1.426-3.339c0.103-0.036,1.123-0.071,2.27-0.071h2.088l0.019,1.05c0.012,0.577-0.029,1.312-0.023,1.439
		c0.01,0.18-0.056,0.076-0.496,0.107c-0.499,0.033-0.562,0.075-0.524,0.327c0.031,0.23,0.142,0.3,0.552,0.331
		c0.28,0.025,0.959-0.083,1.129-0.126l0.035-3.168l0.883-1.1c0.502-0.635,0.959-1.213,1.013-1.283
		c0.057-0.074,0.313-0.398,0.57-0.724c0.255-0.324,1.456-1.843,2.667-3.376c1.211-1.531,2.24-2.787,2.294-2.787
		c0.056,0,0.161,0.135,0.237,0.3c0.47,0.984,0.721,1.642,0.78,2.023c0.063,0.374,0.028,0.444-0.274,0.56
		c-0.519,0.198-1.938,1.702-2.356,2.505c-0.523,1-0.87,2.277-0.87,3.229c0,1.405,0.946,3.726,1.914,4.689
		c2.631,2.631,6.422,2.869,9.286,0.588c1-0.89,1.848-2.055,2.255-3.34C124.445,58.747,124.483,56.794,124.233,56.017z
		 M97.294,53.462c0.921,0.834,1.812,1.658,1.978,3.495l-4.212,0.061L97.294,53.462z M93.595,62.978
		c-2.516-0.084-5.165-2.008-5.138-5.539c0.022-3.49,3.771-5.908,7.668-4.562c-1.025,1.809-3.382,4.9-3.097,5.291
		c0.295,0.407,0.853,0.271,3.5,0.271h2.815C99.057,62.346,95.127,63.026,93.595,62.978z M100.687,56.937
		c-0.381-1.876-1.46-3.381-2.753-4.767l1.842-3.038c0.077,0,0.425,0.516,0.776,1.144c0.353,0.633,1.337,2.385,2.191,3.893
		c0.854,1.506,1.538,2.808,1.477,2.808L100.687,56.937z M108.823,52.424c-0.095,0.111-0.471,0.626-0.87,1.112l-2.219,2.702
		l-0.002-1.694c0.339-0.01,1.027-0.005,1.004-0.437c-0.019-0.435-0.972-0.315-1.633-0.286l0.066,2.474l-4.057-7.95h5.324
		c4.473,0,5.324,0.031,5.324,0.186C111.762,48.672,110.264,50.655,108.823,52.424z M121.434,61.693
		c-1.398,1.352-3.437,1.899-5.23,1.407c-2.697-0.744-4.485-3.369-4.074-5.986c0.229-1.458,0.624-2.285,1.532-3.21
		c1.056-1.08,1.248-1.085,1.639-0.055c0.094,0.252,0.299,0.759,0.455,1.117c0.156,0.361,0.516,1.229,0.8,1.93
		c0.579,1.435,0.91,1.769,1.368,1.353c0.375-0.524,0.045-1.295-0.368-2.189c-0.222-0.404-1.338-3.413-1.338-3.609
		c0.313-0.312,1.038-0.16,1.476-0.146c1.255,0.056,1.587,0.12,2.243,0.425c0.972,0.454,2.231,1.715,2.687,2.693
		c0.301,0.648,0.542,0.9,0.559,2.39C123.36,59.321,122.414,60.616,121.434,61.693z"/>
	<path fill="#FFFFFF" d="M147.798,124.458c-0.936-1.6-2.049-1.948-3.838-2.408c-1.787-0.46-3.591-0.529-5.157-0.529
		s-3.369,0.069-5.157,0.529c-1.787,0.46-2.915,0.809-3.851,2.408c-0.937,1.6-1.637,9.74-1.637,10.16c0,0.422,0,9.192,0,9.192h1.116
		c0,0.559,0,2.46,0,2.48c0,0.787,1.166,1.427,1.953,1.427c0.788,0,1.954-0.64,1.954-1.427c0-0.021,0-1.922,0-2.48h11.432
		c0,0.559-0.002,2.207,0,2.228c0.181,1.427,1.518,1.553,2.305,1.553s1.334-0.513,1.334-1.3c0-0.021,0-1.922,0-2.48h1.176
		c0,0,0.002-8.313,0.002-8.773C149.43,134.578,148.734,126.058,147.798,124.458z M134.856,122.601h8.371v2.233h-8.371V122.601z
		 M132.159,142.202c-1.4,0-2.535-1.134-2.535-2.532s1.135-2.532,2.535-2.532c1.398,0,2.533,1.134,2.533,2.532
		S133.558,142.202,132.159,142.202z M129.825,134.322c0,0,0.587-6.768,1.216-7.396c0.627-0.628,14.896-0.554,15.522,0.075
		c0.63,0.627,1.214,7.321,1.214,7.321H129.825z M145.159,142.202c-1.398,0-2.535-1.134-2.535-2.532s1.137-2.532,2.535-2.532
		c1.396,0,2.533,1.134,2.533,2.532S146.556,142.202,145.159,142.202z"/>
</g>
<g>
	<g>
		<path fill="#328ACA" stroke="#FFFFFF" stroke-width="2" stroke-miterlimit="10" d="M194.753,156.26
			c-1.94-7.207-4.247-14.418-6.921-21.605c6.594-3.912,13.482-7.565,20.649-10.929C142.271,95.785,67.523,95.941,1.407,124.195
			c0.054,0.126,0.108,0.252,0.162,0.378c7.398,3.436,14.502,7.182,21.293,11.203c-2.494,6.798-4.659,13.618-6.497,20.434
			C73.398,132.18,137.729,132.196,194.753,156.26L194.753,156.26L194.753,156.26z"/>
	</g>
</g>
<g>
	<g>
		<path fill="#FFFFFF" d="M28.652,118.82c1.782-0.551,3.564-1.084,5.351-1.596c1.21-0.347,2.2-0.375,2.965-0.094
			c0.765,0.282,1.25,0.794,1.458,1.533s0.077,1.378-0.388,1.925c-0.64,0.753-1.534,1.289-2.691,1.622
			c-0.631,0.182-1.262,0.366-1.892,0.554c0.317,1.022,0.638,2.046,0.959,3.068c0.055,0.179,0.145,0.291,0.268,0.338
			c0.162,0.058,0.354,0.055,0.574-0.01c0.397-0.117,0.792-0.232,1.188-0.345c0.047,0.153,0.093,0.305,0.14,0.457
			c-1.671,0.481-3.34,0.981-5.007,1.499c-0.05-0.151-0.1-0.302-0.149-0.455c0.35-0.108,0.697-0.216,1.047-0.323
			c0.208-0.062,0.349-0.144,0.424-0.244c0.074-0.101,0.091-0.211,0.052-0.332c-0.766-2.383-1.525-4.768-2.277-7.152
			c-0.057-0.181-0.161-0.294-0.313-0.336c-0.152-0.043-0.406-0.008-0.759,0.099c-0.267,0.081-0.534,0.165-0.801,0.247
			C28.751,119.124,28.702,118.972,28.652,118.82z M33.316,122.321c0.481-0.143,0.962-0.283,1.443-0.422
			c0.914-0.267,1.525-0.612,1.837-1.051c0.311-0.436,0.359-1.029,0.143-1.773c-0.151-0.522-0.357-0.896-0.625-1.123
			c-0.265-0.228-0.597-0.359-0.994-0.391c-0.397-0.033-1.005,0.068-1.824,0.306c-0.542,0.158-0.872,0.3-0.989,0.428
			c-0.118,0.127-0.144,0.297-0.079,0.507C32.589,119.974,32.952,121.147,33.316,122.321z"/>
		<path fill="#FFFFFF" d="M47.963,122.607c0.113,0.095,0.227,0.189,0.34,0.285c-0.268,0.39-0.61,0.637-1.029,0.737
			c-0.321,0.077-0.611,0.067-0.87-0.03c-0.257-0.1-0.521-0.318-0.783-0.66c-0.344,0.523-0.666,0.894-0.969,1.118
			c-0.304,0.223-0.692,0.395-1.167,0.518c-0.678,0.174-1.229,0.185-1.653,0.024c-0.424-0.16-0.692-0.437-0.804-0.833
			c-0.167-0.597,0.102-1.203,0.81-1.81c0.71-0.608,1.732-1.153,3.062-1.622c-0.074-0.291-0.149-0.583-0.224-0.875
			c-0.08-0.311-0.296-0.543-0.647-0.691c-0.351-0.148-0.754-0.165-1.21-0.05c-0.418,0.106-0.764,0.273-1.026,0.499
			c-0.188,0.167-0.267,0.305-0.237,0.411c0.016,0.06,0.101,0.141,0.251,0.243c0.184,0.127,0.293,0.255,0.328,0.381
			c0.048,0.185,0.021,0.354-0.088,0.505c-0.108,0.154-0.272,0.259-0.499,0.318c-0.239,0.062-0.459,0.045-0.657-0.052
			c-0.198-0.096-0.328-0.253-0.388-0.469c-0.112-0.405,0.054-0.846,0.5-1.322c0.447-0.476,1.109-0.826,1.986-1.048
			c0.81-0.203,1.465-0.208,1.965-0.017c0.501,0.197,0.804,0.507,0.912,0.936c0.266,1.052,0.53,2.104,0.796,3.156
			c0.072,0.279,0.177,0.472,0.312,0.579c0.139,0.11,0.291,0.146,0.457,0.105C47.615,122.898,47.792,122.788,47.963,122.607z
			 M45.005,120.74c-1.177,0.445-1.975,0.899-2.392,1.353c-0.31,0.344-0.402,0.738-0.279,1.189c0.088,0.315,0.252,0.537,0.494,0.663
			c0.242,0.128,0.518,0.151,0.83,0.072c0.557-0.144,0.99-0.448,1.304-0.918s0.398-0.98,0.256-1.534
			C45.146,121.291,45.076,121.015,45.005,120.74z"/>
		<path fill="#FFFFFF" d="M47.666,117.232c0.808-0.226,1.616-0.447,2.426-0.664c0.179,0.782,0.358,1.565,0.54,2.347
			c0.081-0.829,0.262-1.482,0.541-1.96c0.277-0.476,0.689-0.774,1.233-0.891c0.368-0.078,0.684-0.043,0.946,0.102
			c0.261,0.148,0.427,0.381,0.496,0.704c0.057,0.262,0.026,0.479-0.089,0.656c-0.116,0.174-0.284,0.287-0.505,0.333
			c-0.219,0.046-0.406,0.021-0.566-0.075c-0.159-0.098-0.262-0.249-0.309-0.459c-0.031-0.138-0.021-0.274,0.03-0.411
			c0.048-0.123,0.07-0.192,0.066-0.215c-0.015-0.062-0.065-0.082-0.157-0.062c-0.2,0.042-0.403,0.19-0.609,0.442
			c-0.287,0.353-0.469,0.791-0.546,1.316c-0.117,0.813-0.121,1.448-0.017,1.897c0.096,0.416,0.191,0.831,0.287,1.245
			c0.032,0.141,0.115,0.236,0.246,0.284c0.131,0.049,0.333,0.042,0.606-0.018c0.282-0.062,0.564-0.123,0.847-0.183
			c0.034,0.155,0.07,0.31,0.104,0.465c-1.376,0.297-2.751,0.605-4.125,0.925c-0.039-0.153-0.075-0.31-0.113-0.463
			c0.22-0.051,0.44-0.102,0.66-0.153c0.223-0.05,0.381-0.127,0.477-0.229c0.096-0.102,0.131-0.208,0.105-0.314
			c-0.292-1.23-0.583-2.462-0.873-3.693c-0.065-0.28-0.184-0.468-0.354-0.566c-0.171-0.098-0.387-0.118-0.648-0.058
			c-0.197,0.046-0.396,0.092-0.594,0.138C47.737,117.526,47.702,117.378,47.666,117.232z"/>
		<path fill="#FFFFFF" d="M60.378,118.862c0.163,0.011,0.325,0.022,0.487,0.033c-0.148,1.263-0.847,2.007-2.104,2.249
			c-0.923,0.176-1.732,0.059-2.434-0.357c-0.7-0.417-1.148-1.066-1.337-1.953c-0.219-1.027-0.06-1.891,0.481-2.59
			c0.541-0.698,1.262-1.137,2.156-1.306c0.671-0.128,1.257-0.074,1.753,0.162c0.496,0.234,0.78,0.547,0.853,0.935
			c0.043,0.233-0.002,0.44-0.135,0.621c-0.134,0.182-0.311,0.293-0.532,0.333c-0.216,0.041-0.411,0.01-0.585-0.089
			c-0.174-0.1-0.279-0.242-0.313-0.425c-0.036-0.183,0.012-0.371,0.145-0.568c0.062-0.093,0.089-0.162,0.08-0.209
			c-0.022-0.12-0.139-0.219-0.351-0.298c-0.211-0.078-0.48-0.086-0.805-0.024c-0.592,0.113-1.004,0.387-1.233,0.814
			c-0.327,0.621-0.399,1.368-0.22,2.242c0.173,0.833,0.495,1.425,0.963,1.779c0.469,0.354,0.995,0.475,1.583,0.362
			C59.643,120.42,60.155,119.851,60.378,118.862z"/>
		<path fill="#FFFFFF" d="M60.219,111.14c0.868-0.192,1.736-0.377,2.606-0.559c0.255,1.506,0.513,3.013,0.771,4.519
			c0.29-0.46,0.626-0.824,1.005-1.09c0.381-0.264,0.803-0.435,1.265-0.506c0.438-0.069,0.849-0.04,1.227,0.085
			c0.294,0.101,0.565,0.315,0.811,0.642c0.246,0.329,0.405,0.733,0.479,1.219c0.142,0.931,0.283,1.863,0.426,2.794
			c0.028,0.181,0.102,0.302,0.218,0.369c0.116,0.065,0.287,0.082,0.511,0.05c0.19-0.028,0.381-0.056,0.57-0.083
			c0.023,0.158,0.047,0.315,0.07,0.472c-1.201,0.173-2.402,0.353-3.603,0.543c-0.024-0.157-0.051-0.314-0.076-0.471
			c0.133-0.021,0.267-0.041,0.398-0.063c0.305-0.047,0.509-0.123,0.611-0.227c0.103-0.103,0.141-0.24,0.113-0.412
			c-0.146-0.931-0.295-1.861-0.441-2.792c-0.076-0.49-0.272-0.849-0.59-1.082c-0.318-0.231-0.69-0.313-1.117-0.245
			c-0.336,0.053-0.634,0.182-0.893,0.382c-0.261,0.202-0.464,0.477-0.607,0.824c-0.146,0.348-0.186,0.697-0.126,1.048
			c0.134,0.78,0.269,1.56,0.404,2.34c0.036,0.208,0.111,0.349,0.228,0.42c0.114,0.071,0.286,0.088,0.514,0.049
			c0.19-0.031,0.381-0.062,0.57-0.093c0.026,0.157,0.054,0.313,0.08,0.471c-1.176,0.19-2.35,0.389-3.522,0.598
			c-0.029-0.155-0.058-0.313-0.086-0.469c0.133-0.024,0.267-0.047,0.399-0.071c0.271-0.047,0.455-0.127,0.552-0.241
			c0.097-0.113,0.129-0.269,0.093-0.464c-0.416-2.329-0.827-4.661-1.236-6.99c-0.044-0.25-0.154-0.425-0.33-0.52
			c-0.177-0.096-0.413-0.12-0.708-0.067c-0.167,0.03-0.334,0.059-0.502,0.089C60.274,111.453,60.247,111.297,60.219,111.14z"/>
		<path fill="#FFFFFF" d="M76.909,115.229c-1.615,0.184-3.229,0.384-4.843,0.6c0.146,0.893,0.426,1.5,0.833,1.824
			c0.467,0.36,1.016,0.503,1.648,0.423c0.933-0.116,1.623-0.674,2.082-1.677c0.163,0.042,0.326,0.081,0.488,0.123
			c-0.561,1.274-1.486,1.987-2.798,2.151c-0.893,0.113-1.682-0.073-2.374-0.561c-0.691-0.487-1.104-1.172-1.231-2.061
			c-0.137-0.956,0.06-1.77,0.591-2.443c0.532-0.672,1.254-1.067,2.154-1.181c0.663-0.084,1.256-0.007,1.772,0.229
			c0.519,0.236,0.932,0.619,1.236,1.141C76.685,114.164,76.83,114.641,76.909,115.229z M72.005,115.382
			c0.979-0.13,1.955-0.255,2.934-0.374c0.175-0.021,0.305-0.089,0.387-0.204c0.085-0.113,0.111-0.295,0.081-0.543
			c-0.057-0.464-0.269-0.835-0.643-1.119s-0.787-0.396-1.239-0.338c-0.507,0.063-0.911,0.314-1.21,0.75
			C72.014,113.99,71.912,114.602,72.005,115.382z"/>
		<path fill="#FFFFFF" d="M82.902,111.932c0.45-0.469,0.881-0.72,1.291-0.754c0.244-0.019,0.453,0.031,0.626,0.153
			c0.171,0.122,0.264,0.279,0.28,0.473c0.013,0.156-0.031,0.292-0.134,0.402c-0.099,0.112-0.223,0.175-0.369,0.187
			c-0.276,0.022-0.477-0.111-0.599-0.397c-0.05-0.123-0.122-0.181-0.214-0.172c-0.165,0.014-0.338,0.124-0.515,0.33
			c0.229,0.231,0.393,0.435,0.487,0.611c0.092,0.177,0.148,0.372,0.166,0.582c0.032,0.367-0.044,0.7-0.221,0.997
			c-0.177,0.298-0.491,0.574-0.939,0.832c-0.449,0.256-0.887,0.406-1.312,0.446c-0.263,0.025-0.523,0.05-0.785,0.077
			c-0.558,0.055-0.921,0.144-1.093,0.263c-0.171,0.124-0.245,0.287-0.224,0.489c0.018,0.164,0.104,0.283,0.262,0.356
			c0.159,0.072,0.441,0.087,0.853,0.046c0.589-0.069,1.178-0.137,1.767-0.202c0.895-0.083,1.551-0.008,1.967,0.224
			c0.417,0.23,0.642,0.575,0.682,1.035c0.043,0.507-0.143,0.95-0.557,1.334c-0.575,0.541-1.471,0.866-2.696,0.984
			c-1.012,0.099-1.78,0.011-2.307-0.271c-0.415-0.22-0.641-0.491-0.678-0.815c-0.027-0.248,0.069-0.488,0.298-0.721
			c0.226-0.233,0.628-0.43,1.208-0.592c-0.481-0.053-0.853-0.164-1.112-0.334s-0.407-0.4-0.439-0.69
			c-0.028-0.27,0.041-0.514,0.216-0.735c0.171-0.22,0.49-0.427,0.955-0.62c-0.428-0.156-0.763-0.361-1-0.62
			c-0.237-0.258-0.376-0.568-0.416-0.929c-0.062-0.573,0.144-1.08,0.624-1.521c0.479-0.441,1.139-0.704,1.973-0.784
			c0.342-0.034,0.676-0.021,1.001,0.034C82.272,111.684,82.591,111.784,82.902,111.932z M81.952,117.659
			c-0.876,0.083-1.489,0.254-1.84,0.506c-0.35,0.253-0.507,0.531-0.476,0.834c0.031,0.287,0.195,0.496,0.491,0.632
			c0.393,0.181,0.926,0.238,1.604,0.172c0.812-0.078,1.41-0.251,1.8-0.53c0.388-0.275,0.571-0.561,0.545-0.856
			c-0.015-0.174-0.094-0.328-0.235-0.467c-0.143-0.14-0.355-0.234-0.645-0.287C82.909,117.611,82.494,117.609,81.952,117.659z
			 M80.971,112.001c-0.434,0.041-0.777,0.216-1.031,0.519c-0.255,0.304-0.355,0.705-0.303,1.202
			c0.056,0.531,0.238,0.928,0.548,1.192c0.309,0.264,0.68,0.375,1.112,0.333s0.771-0.217,1.022-0.526
			c0.25-0.311,0.352-0.73,0.305-1.261c-0.045-0.493-0.225-0.871-0.534-1.131C81.778,112.068,81.404,111.96,80.971,112.001z"/>
		<path fill="#FFFFFF" d="M90.943,111.352c0.464-0.454,0.902-0.691,1.312-0.711c0.244-0.012,0.45,0.046,0.619,0.173
			c0.167,0.126,0.255,0.289,0.264,0.482c0.008,0.156-0.039,0.29-0.145,0.398c-0.104,0.109-0.23,0.167-0.376,0.175
			c-0.276,0.014-0.472-0.125-0.585-0.417c-0.045-0.125-0.114-0.185-0.206-0.179c-0.166,0.009-0.342,0.112-0.526,0.314
			c0.223,0.238,0.379,0.446,0.467,0.626c0.087,0.181,0.137,0.374,0.147,0.587c0.02,0.368-0.065,0.697-0.254,0.99
			c-0.187,0.291-0.509,0.557-0.965,0.8c-0.456,0.241-0.897,0.377-1.324,0.404c-0.262,0.017-0.524,0.034-0.786,0.051
			c-0.558,0.037-0.923,0.113-1.098,0.228c-0.176,0.118-0.254,0.279-0.239,0.482c0.012,0.164,0.096,0.285,0.249,0.364
			c0.156,0.077,0.438,0.102,0.85,0.074c0.589-0.051,1.179-0.098,1.769-0.145c0.896-0.054,1.547,0.043,1.954,0.287
			c0.409,0.244,0.623,0.596,0.647,1.056c0.024,0.506-0.174,0.945-0.6,1.316c-0.594,0.521-1.499,0.817-2.724,0.897
			c-1.012,0.065-1.776-0.048-2.292-0.345c-0.407-0.232-0.623-0.512-0.649-0.837c-0.019-0.247,0.087-0.486,0.32-0.711
			c0.232-0.226,0.642-0.41,1.226-0.553c-0.479-0.069-0.845-0.191-1.098-0.37s-0.393-0.413-0.415-0.705
			c-0.021-0.269,0.058-0.513,0.237-0.728c0.179-0.214,0.504-0.411,0.975-0.589c-0.422-0.168-0.749-0.386-0.978-0.651
			c-0.229-0.265-0.357-0.58-0.385-0.942c-0.043-0.574,0.179-1.075,0.673-1.5c0.492-0.427,1.159-0.667,1.993-0.721
			c0.342-0.022,0.675,0.001,0.998,0.066C90.32,111.084,90.636,111.196,90.943,111.352z M89.806,117.046
			c-0.876,0.055-1.494,0.205-1.852,0.446c-0.357,0.242-0.524,0.514-0.502,0.819c0.021,0.287,0.178,0.502,0.469,0.647
			c0.385,0.193,0.916,0.268,1.595,0.224c0.812-0.051,1.415-0.207,1.812-0.471c0.397-0.262,0.589-0.543,0.573-0.838
			c-0.01-0.173-0.083-0.331-0.22-0.474c-0.137-0.145-0.347-0.246-0.633-0.308C90.763,117.028,90.348,117.013,89.806,117.046z
			 M89.014,111.36c-0.434,0.027-0.784,0.188-1.046,0.485c-0.265,0.295-0.379,0.694-0.343,1.191c0.038,0.531,0.207,0.936,0.509,1.209
			c0.3,0.274,0.665,0.396,1.099,0.369c0.432-0.027,0.777-0.191,1.038-0.492c0.259-0.301,0.375-0.72,0.343-1.251
			c-0.028-0.495-0.193-0.877-0.495-1.147C89.815,111.454,89.448,111.333,89.014,111.36z"/>
		<path fill="#FFFFFF" d="M93.589,110.882c0.909-0.063,1.819-0.125,2.73-0.179c0.059,1.704,0.117,3.409,0.178,5.113
			c0.004,0.139,0.047,0.238,0.124,0.294c0.114,0.082,0.253,0.118,0.421,0.113c0.253-0.008,0.506-0.016,0.759-0.023
			c0.005,0.158,0.01,0.318,0.014,0.477c-1.27,0.038-2.54,0.083-3.809,0.141c-0.008-0.159-0.015-0.318-0.021-0.477
			c0.235-0.011,0.473-0.021,0.709-0.03c0.21-0.009,0.362-0.06,0.456-0.155c0.095-0.093,0.137-0.228,0.131-0.403
			c-0.051-1.248-0.101-2.495-0.149-3.741c-0.01-0.237-0.095-0.413-0.256-0.527c-0.161-0.115-0.394-0.164-0.701-0.152
			c-0.188,0.008-0.375,0.017-0.563,0.024C93.603,111.199,93.597,111.04,93.589,110.882z M95.358,107.257
			c0.224-0.009,0.423,0.058,0.596,0.194c0.173,0.138,0.264,0.304,0.27,0.499c0.007,0.19-0.068,0.358-0.227,0.504
			c-0.156,0.145-0.351,0.221-0.576,0.229c-0.227,0.009-0.425-0.055-0.596-0.189c-0.172-0.134-0.261-0.297-0.269-0.488
			c-0.008-0.188,0.069-0.361,0.232-0.511C94.952,107.345,95.142,107.265,95.358,107.257z"/>
		<path fill="#FFFFFF" d="M101.679,110.47c0.926-0.012,1.704,0.271,2.331,0.847c0.628,0.575,0.939,1.337,0.938,2.281
			c0,0.652-0.139,1.208-0.414,1.667c-0.274,0.46-0.666,0.823-1.172,1.092c-0.508,0.271-1.051,0.408-1.637,0.416
			c-0.866,0.012-1.604-0.267-2.222-0.837s-0.944-1.32-0.968-2.25c-0.024-0.934,0.264-1.703,0.869-2.3
			C100.01,110.787,100.771,110.482,101.679,110.47z M101.685,110.92c-0.546,0.006-0.991,0.229-1.334,0.665
			c-0.343,0.437-0.503,1.116-0.483,2.044c0.019,0.943,0.206,1.628,0.556,2.059c0.351,0.43,0.794,0.64,1.333,0.633
			c0.559-0.007,1.008-0.229,1.351-0.667c0.343-0.439,0.516-1.152,0.51-2.143c-0.004-0.918-0.181-1.582-0.532-1.989
			C102.733,111.114,102.266,110.915,101.685,110.92z"/>
		<path fill="#FFFFFF" d="M109.812,110.677c1.126,0.022,2.252,0.052,3.377,0.089c-0.005,0.144-0.01,0.288-0.015,0.432
			c-0.448-0.007-0.736,0.019-0.861,0.078c-0.128,0.057-0.191,0.143-0.195,0.256c-0.002,0.094,0.02,0.188,0.065,0.282
			c0.569,1.187,1.128,2.377,1.68,3.568c0.585-1.114,1.177-2.226,1.775-3.335c0.027-0.058,0.041-0.117,0.045-0.176
			c0.014-0.309-0.328-0.516-1.025-0.619c0.007-0.144,0.012-0.288,0.019-0.432c0.946,0.038,1.894,0.08,2.841,0.128
			c-0.008,0.144-0.016,0.287-0.022,0.431c-0.289,0.011-0.521,0.066-0.696,0.169c-0.178,0.102-0.315,0.244-0.416,0.425
			c-0.912,1.641-1.81,3.289-2.689,4.94c-0.128-0.005-0.258-0.009-0.387-0.014c-0.815-1.758-1.651-3.512-2.507-5.261
			c-0.092-0.188-0.207-0.322-0.344-0.399c-0.139-0.077-0.355-0.122-0.651-0.13C109.807,110.964,109.81,110.82,109.812,110.677z"/>
		<path fill="#FFFFFF" d="M118.037,110.975c0.911,0.024,1.823,0.054,2.735,0.089c-0.109,1.702-0.22,3.404-0.332,5.106
			c-0.009,0.139,0.023,0.241,0.096,0.304c0.104,0.091,0.239,0.144,0.407,0.154c0.252,0.016,0.505,0.034,0.758,0.051
			c-0.012,0.158-0.022,0.316-0.033,0.476c-1.27-0.088-2.539-0.165-3.809-0.233c0.009-0.158,0.019-0.318,0.026-0.476
			c0.236,0.013,0.473,0.025,0.71,0.039c0.209,0.012,0.365-0.024,0.469-0.109c0.104-0.085,0.16-0.213,0.171-0.388
			c0.074-1.246,0.15-2.492,0.224-3.738c0.016-0.236-0.053-0.419-0.201-0.549c-0.146-0.129-0.376-0.203-0.683-0.22
			c-0.188-0.01-0.375-0.021-0.563-0.03C118.021,111.292,118.028,111.133,118.037,110.975z M120.156,107.54
			c0.224,0.013,0.415,0.099,0.573,0.252c0.159,0.154,0.232,0.329,0.22,0.522c-0.013,0.19-0.104,0.351-0.275,0.479
			c-0.171,0.13-0.37,0.187-0.597,0.173c-0.226-0.014-0.419-0.096-0.574-0.247c-0.157-0.15-0.23-0.322-0.22-0.512
			c0.012-0.189,0.104-0.352,0.282-0.485C119.742,107.587,119.939,107.529,120.156,107.54z"/>
		<path fill="#FFFFFF" d="M129.588,117.173c0.073,0.127,0.147,0.253,0.221,0.38c-0.381,0.28-0.782,0.4-1.205,0.358
			c-0.322-0.032-0.588-0.135-0.795-0.311c-0.205-0.177-0.373-0.47-0.503-0.877c-0.493,0.38-0.916,0.626-1.272,0.738
			c-0.355,0.11-0.772,0.147-1.252,0.107c-0.686-0.056-1.196-0.226-1.534-0.516c-0.336-0.289-0.491-0.637-0.46-1.045
			c0.046-0.617,0.495-1.101,1.354-1.442c0.857-0.342,1.984-0.523,3.373-0.532c0.028-0.3,0.057-0.597,0.084-0.898
			c0.03-0.321-0.093-0.607-0.368-0.861s-0.644-0.403-1.103-0.441c-0.422-0.037-0.796,0.01-1.113,0.137
			c-0.229,0.096-0.348,0.199-0.356,0.31c-0.005,0.062,0.045,0.166,0.151,0.311c0.127,0.179,0.185,0.336,0.175,0.466
			c-0.017,0.191-0.1,0.339-0.25,0.448c-0.15,0.11-0.338,0.156-0.566,0.138c-0.241-0.02-0.438-0.106-0.589-0.263
			c-0.151-0.155-0.219-0.345-0.202-0.568c0.032-0.418,0.333-0.78,0.902-1.084c0.571-0.303,1.299-0.419,2.184-0.342
			c0.815,0.071,1.425,0.281,1.823,0.624c0.4,0.348,0.577,0.742,0.533,1.179c-0.105,1.077-0.213,2.155-0.319,3.234
			c-0.028,0.286,0.003,0.501,0.094,0.647c0.091,0.149,0.222,0.232,0.388,0.248C129.166,117.335,129.369,117.287,129.588,117.173z
			 M127.476,114.45c-1.238,0.036-2.127,0.205-2.665,0.497c-0.399,0.223-0.617,0.565-0.655,1.03
			c-0.026,0.325,0.051,0.586,0.232,0.786c0.18,0.199,0.428,0.312,0.742,0.337c0.561,0.047,1.065-0.099,1.513-0.44
			c0.448-0.341,0.7-0.794,0.754-1.362C127.423,115.015,127.448,114.732,127.476,114.45z"/>
		<path fill="#FFFFFF" d="M140.645,109.522c0.166,0.024,0.331,0.047,0.496,0.071c0.898,3.023,1.745,6.048,2.542,9.077
			c0.096,0.366,0.379,0.586,0.85,0.664c0.108,0.017,0.219,0.035,0.328,0.054c-0.026,0.156-0.055,0.313-0.081,0.47
			c-1.399-0.231-2.8-0.45-4.2-0.657c0.024-0.158,0.048-0.314,0.072-0.472c0.111,0.017,0.224,0.033,0.335,0.05
			c0.438,0.066,0.755,0.07,0.947,0.014c0.133-0.039,0.21-0.118,0.229-0.24c0.011-0.071,0.005-0.149-0.015-0.233
			c-0.188-0.701-0.378-1.402-0.571-2.104c-1.407-0.211-2.815-0.409-4.224-0.596c-0.216,0.355-0.432,0.712-0.646,1.067
			c-0.17,0.286-0.269,0.517-0.291,0.692c-0.026,0.205,0.059,0.396,0.255,0.571s0.503,0.289,0.918,0.346
			c0.118,0.015,0.237,0.031,0.355,0.048c-0.022,0.158-0.044,0.313-0.066,0.473c-1.272-0.173-2.547-0.337-3.821-0.49
			c0.02-0.158,0.039-0.316,0.06-0.474c0.41,0.049,0.744,0.011,1.001-0.116c0.259-0.129,0.517-0.399,0.776-0.815
			C137.441,114.44,139.025,111.974,140.645,109.522z M140.172,111.283c-0.85,1.289-1.688,2.581-2.518,3.877
			c1.26,0.167,2.52,0.347,3.778,0.533C141.024,114.223,140.604,112.752,140.172,111.283z"/>
		<path fill="#FFFFFF" d="M146.372,117.852c0.171,0.771,0.421,1.329,0.753,1.673c0.333,0.344,0.778,0.565,1.337,0.667
			c0.52,0.095,0.935,0.068,1.25-0.077c0.316-0.147,0.506-0.372,0.564-0.674c0.033-0.175,0.013-0.338-0.066-0.487
			c-0.076-0.151-0.2-0.275-0.37-0.373c-0.17-0.097-0.624-0.28-1.363-0.541c-0.707-0.255-1.192-0.476-1.456-0.663
			c-0.264-0.187-0.455-0.415-0.574-0.686c-0.119-0.268-0.155-0.546-0.106-0.828c0.075-0.43,0.31-0.792,0.707-1.085
			c0.511-0.372,1.156-0.491,1.937-0.353c0.595,0.104,1.114,0.366,1.56,0.781c0.188-0.116,0.376-0.233,0.565-0.348
			c0.1,0.02,0.199,0.037,0.299,0.057c-0.07,0.706-0.142,1.412-0.215,2.118c-0.162-0.031-0.324-0.061-0.484-0.091
			c-0.098-0.631-0.307-1.108-0.621-1.436s-0.74-0.539-1.275-0.634c-0.462-0.083-0.843-0.049-1.14,0.1
			c-0.298,0.147-0.469,0.362-0.519,0.642c-0.043,0.245,0.041,0.471,0.255,0.675c0.206,0.208,0.646,0.42,1.317,0.64
			c0.778,0.261,1.28,0.456,1.505,0.578c0.371,0.198,0.639,0.447,0.805,0.749c0.164,0.3,0.21,0.638,0.136,1.012
			c-0.103,0.515-0.422,0.906-0.955,1.176c-0.533,0.271-1.153,0.341-1.865,0.212c-0.659-0.118-1.235-0.418-1.732-0.899
			c-0.205,0.146-0.41,0.291-0.614,0.436c-0.125-0.022-0.251-0.042-0.377-0.064c0.089-0.786,0.177-1.572,0.263-2.357
			C146.052,117.798,146.211,117.825,146.372,117.852z"/>
		<path fill="#FFFFFF" d="M152.968,115.285c0.911,0.154,1.821,0.312,2.731,0.476c-0.354,1.67-0.711,3.34-1.069,5.008
			c-0.029,0.136-0.012,0.243,0.051,0.315c0.092,0.106,0.22,0.176,0.386,0.21c0.251,0.053,0.503,0.105,0.754,0.159
			c-0.034,0.155-0.068,0.311-0.103,0.466c-1.262-0.268-2.523-0.524-3.785-0.771c0.031-0.156,0.063-0.312,0.096-0.468
			c0.234,0.046,0.47,0.092,0.704,0.14c0.209,0.041,0.371,0.027,0.487-0.042c0.115-0.07,0.191-0.189,0.227-0.36
			c0.257-1.223,0.512-2.445,0.765-3.669c0.05-0.232,0.007-0.424-0.123-0.573c-0.13-0.15-0.348-0.254-0.653-0.314
			c-0.188-0.038-0.374-0.073-0.561-0.11C152.905,115.597,152.937,115.441,152.968,115.285z M155.583,112.185
			c0.223,0.045,0.402,0.156,0.54,0.331c0.139,0.177,0.188,0.358,0.146,0.549c-0.039,0.187-0.154,0.332-0.346,0.435
			c-0.188,0.104-0.398,0.132-0.623,0.086c-0.225-0.045-0.406-0.154-0.541-0.326c-0.136-0.171-0.186-0.35-0.147-0.538
			c0.038-0.186,0.155-0.333,0.353-0.441C155.16,112.174,155.368,112.141,155.583,112.185z"/>
		<path fill="#FFFFFF" d="M163.677,123.066c0.055,0.136,0.109,0.271,0.166,0.408c-0.426,0.223-0.846,0.283-1.265,0.183
			c-0.321-0.079-0.571-0.217-0.755-0.422c-0.181-0.205-0.308-0.517-0.378-0.94c-0.552,0.306-1.014,0.489-1.388,0.548
			s-0.798,0.035-1.274-0.072c-0.68-0.152-1.168-0.395-1.465-0.728c-0.295-0.333-0.401-0.702-0.31-1.102
			c0.136-0.604,0.656-1.017,1.569-1.235c0.911-0.217,2.069-0.234,3.468-0.045c0.072-0.292,0.144-0.584,0.214-0.877
			c0.077-0.313-0.004-0.616-0.245-0.906c-0.24-0.291-0.589-0.488-1.045-0.594c-0.42-0.096-0.802-0.104-1.141-0.024
			c-0.244,0.063-0.378,0.148-0.402,0.256c-0.014,0.06,0.022,0.172,0.107,0.329c0.102,0.197,0.139,0.359,0.107,0.486
			c-0.043,0.187-0.147,0.322-0.314,0.408c-0.168,0.087-0.363,0.105-0.589,0.056c-0.241-0.055-0.425-0.168-0.555-0.344
			c-0.128-0.176-0.169-0.373-0.119-0.592c0.092-0.411,0.444-0.725,1.062-0.945c0.617-0.219,1.366-0.23,2.243-0.028
			c0.811,0.186,1.395,0.481,1.747,0.878c0.351,0.402,0.473,0.817,0.366,1.244c-0.263,1.054-0.527,2.105-0.792,3.158
			c-0.07,0.279-0.069,0.497,0.001,0.654c0.07,0.16,0.188,0.261,0.354,0.3C163.228,123.166,163.439,123.148,163.677,123.066z
			 M161.946,120.068c-1.251-0.142-2.168-0.101-2.751,0.111c-0.435,0.163-0.703,0.472-0.809,0.927
			c-0.074,0.317-0.034,0.589,0.119,0.811c0.151,0.223,0.383,0.369,0.696,0.44c0.557,0.126,1.085,0.053,1.586-0.22
			c0.5-0.273,0.819-0.688,0.955-1.242C161.811,120.62,161.879,120.344,161.946,120.068z"/>
		<path fill="#FFFFFF" d="M171.188,119.881c0.6-0.282,1.104-0.361,1.51-0.25c0.242,0.067,0.424,0.188,0.545,0.363
			c0.121,0.174,0.153,0.355,0.1,0.542c-0.045,0.152-0.136,0.26-0.273,0.33c-0.136,0.07-0.279,0.084-0.423,0.044
			c-0.273-0.077-0.418-0.271-0.432-0.583c-0.004-0.133-0.051-0.211-0.142-0.236c-0.164-0.046-0.371-0.004-0.614,0.127
			c0.138,0.297,0.22,0.546,0.247,0.743c0.025,0.2,0.008,0.4-0.051,0.604c-0.103,0.355-0.295,0.64-0.573,0.855
			c-0.277,0.216-0.679,0.363-1.201,0.447c-0.523,0.082-0.996,0.068-1.418-0.044c-0.26-0.068-0.519-0.137-0.778-0.205
			c-0.552-0.144-0.93-0.188-1.138-0.137c-0.209,0.056-0.34,0.183-0.392,0.38c-0.043,0.158-0.001,0.301,0.12,0.425
			c0.125,0.123,0.391,0.237,0.798,0.343c0.587,0.142,1.174,0.287,1.761,0.433c0.885,0.236,1.486,0.54,1.8,0.901
			c0.315,0.363,0.406,0.766,0.275,1.208c-0.145,0.489-0.485,0.838-1.021,1.051c-0.751,0.303-1.728,0.292-2.939-0.028
			c-1.002-0.264-1.7-0.617-2.101-1.063c-0.313-0.352-0.431-0.683-0.347-1c0.062-0.241,0.244-0.431,0.546-0.57
			c0.3-0.138,0.756-0.182,1.367-0.129c-0.439-0.218-0.753-0.453-0.938-0.703c-0.186-0.252-0.241-0.517-0.167-0.8
			c0.068-0.262,0.226-0.466,0.471-0.613c0.243-0.146,0.622-0.227,1.137-0.245c-0.354-0.295-0.598-0.606-0.73-0.931
			c-0.133-0.325-0.153-0.663-0.061-1.015c0.146-0.558,0.525-0.96,1.143-1.206c0.617-0.245,1.34-0.261,2.168-0.041
			c0.337,0.088,0.653,0.216,0.945,0.383C170.673,119.426,170.941,119.635,171.188,119.881z M168.2,124.906
			c-0.866-0.229-1.514-0.285-1.94-0.172c-0.425,0.113-0.678,0.319-0.757,0.614c-0.075,0.277,0.004,0.531,0.236,0.763
			c0.308,0.307,0.795,0.548,1.467,0.725c0.804,0.214,1.44,0.261,1.914,0.138c0.474-0.121,0.754-0.324,0.836-0.609
			c0.049-0.167,0.029-0.34-0.055-0.52c-0.084-0.179-0.255-0.345-0.512-0.496C169.134,125.199,168.737,125.048,168.2,124.906z
			 M169.313,119.268c-0.432-0.114-0.82-0.072-1.173,0.123c-0.353,0.196-0.593,0.536-0.723,1.018
			c-0.139,0.516-0.106,0.952,0.093,1.309c0.199,0.356,0.514,0.59,0.942,0.703c0.428,0.113,0.816,0.069,1.168-0.132
			c0.352-0.202,0.602-0.56,0.747-1.073c0.135-0.478,0.102-0.893-0.103-1.246C170.061,119.614,169.744,119.381,169.313,119.268z"/>
		<path fill="#FFFFFF" d="M177.298,121.087c0.912,0.272,1.59,0.781,2.027,1.522c0.439,0.742,0.508,1.562,0.21,2.462
			c-0.205,0.62-0.518,1.106-0.933,1.46s-0.915,0.58-1.497,0.681c-0.584,0.103-1.162,0.065-1.739-0.105
			c-0.854-0.254-1.491-0.745-1.916-1.478c-0.425-0.731-0.508-1.545-0.241-2.439c0.269-0.899,0.79-1.543,1.569-1.927
			C175.559,120.879,176.398,120.82,177.298,121.087z M177.162,121.519c-0.538-0.161-1.046-0.085-1.519,0.226
			c-0.472,0.311-0.841,0.912-1.112,1.8c-0.276,0.904-0.31,1.615-0.102,2.132c0.209,0.516,0.577,0.853,1.107,1.011
			c0.551,0.165,1.062,0.092,1.538-0.222c0.476-0.311,0.869-0.938,1.176-1.885c0.284-0.876,0.317-1.562,0.1-2.059
			C178.133,122.025,177.735,121.688,177.162,121.519z"/>
		<path fill="#FFFFFF" d="M29.32,135.047c1.416-0.469,2.835-0.924,4.254-1.366c0.051,0.151,0.102,0.302,0.152,0.454
			c-0.245,0.077-0.491,0.153-0.736,0.23c-0.304,0.096-0.5,0.194-0.587,0.292c-0.086,0.099-0.112,0.203-0.073,0.312
			c0.028,0.083,0.11,0.195,0.247,0.329c0.032,0.037,0.064,0.072,0.098,0.109c1.566,1.712,3.113,3.439,4.638,5.176
			c0.119-2.139,0.266-4.282,0.439-6.429c0.009-0.126-0.014-0.271-0.063-0.433c-0.072-0.227-0.201-0.38-0.39-0.463
			c-0.187-0.082-0.41-0.086-0.67-0.008c-0.23,0.069-0.461,0.137-0.69,0.207c-0.049-0.152-0.099-0.304-0.148-0.456
			c1.247-0.375,2.493-0.74,3.742-1.092c0.046,0.152,0.093,0.306,0.139,0.458c-0.101,0.029-0.201,0.056-0.301,0.085
			c-0.228,0.066-0.428,0.226-0.593,0.481c-0.167,0.255-0.272,0.629-0.315,1.12c-0.25,2.81-0.453,5.613-0.61,8.414
			c-0.157,0.048-0.315,0.097-0.476,0.146c-2.041-2.313-4.119-4.605-6.235-6.875c-0.215-0.224-0.423-0.361-0.619-0.412
			c-0.198-0.05-0.435-0.029-0.713,0.062c-0.108,0.036-0.217,0.072-0.326,0.108C29.428,135.349,29.374,135.197,29.32,135.047z"/>
		<path fill="#FFFFFF" d="M40.837,135.13c0.833-0.26,1.665-0.515,2.5-0.764c0.479,1.643,0.962,3.286,1.446,4.928
			c0.04,0.135,0.103,0.222,0.189,0.258c0.125,0.055,0.265,0.061,0.418,0.019c0.233-0.062,0.467-0.125,0.699-0.186
			c0.043,0.153,0.089,0.307,0.133,0.459c-1.168,0.31-2.335,0.629-3.5,0.958c-0.048-0.152-0.095-0.305-0.141-0.458
			c0.216-0.061,0.433-0.123,0.651-0.183c0.191-0.054,0.319-0.136,0.384-0.248c0.064-0.112,0.07-0.252,0.02-0.419
			c-0.361-1.201-0.721-2.4-1.08-3.601c-0.067-0.228-0.19-0.381-0.37-0.458c-0.177-0.076-0.409-0.074-0.69,0.004
			c-0.173,0.048-0.346,0.097-0.521,0.146C40.931,135.435,40.884,135.283,40.837,135.13z M41.587,131.226
			c0.208-0.056,0.408-0.036,0.604,0.06s0.321,0.239,0.375,0.426c0.054,0.183,0.024,0.363-0.088,0.538
			c-0.109,0.176-0.271,0.292-0.479,0.348c-0.209,0.058-0.41,0.04-0.604-0.054c-0.192-0.093-0.316-0.233-0.371-0.417
			c-0.055-0.182-0.024-0.365,0.091-0.546C41.229,131.399,41.387,131.281,41.587,131.226z"/>
		<path fill="#FFFFFF" d="M46.791,129.862c0.742,2.783,1.493,5.566,2.251,8.347c0.031,0.114,0.093,0.196,0.185,0.236
			c0.132,0.056,0.278,0.062,0.437,0.022c0.218-0.054,0.436-0.108,0.653-0.161c0.041,0.153,0.081,0.308,0.122,0.462
			c-1.164,0.286-2.33,0.581-3.493,0.886c-0.044-0.154-0.087-0.307-0.131-0.46c0.206-0.054,0.412-0.107,0.618-0.161
			c0.203-0.053,0.341-0.134,0.415-0.251c0.074-0.115,0.088-0.255,0.042-0.419c-0.648-2.332-1.292-4.664-1.931-6.998
			c-0.055-0.204-0.157-0.337-0.308-0.4c-0.205-0.088-0.431-0.1-0.678-0.036c-0.191,0.049-0.384,0.1-0.576,0.15
			c-0.043-0.153-0.086-0.308-0.129-0.46C45.108,130.363,45.95,130.11,46.791,129.862z"/>
		<path fill="#FFFFFF" d="M51.235,128.794c0.684,2.797,1.376,5.593,2.074,8.388c0.027,0.116,0.09,0.197,0.18,0.239
			c0.131,0.057,0.275,0.067,0.435,0.031c0.218-0.05,0.436-0.1,0.653-0.148c0.037,0.153,0.076,0.309,0.114,0.464
			c-1.169,0.263-2.335,0.536-3.501,0.817c-0.04-0.153-0.081-0.308-0.122-0.462c0.208-0.05,0.414-0.1,0.621-0.149
			c0.202-0.05,0.342-0.127,0.417-0.242c0.076-0.115,0.094-0.253,0.051-0.418c-0.599-2.344-1.193-4.688-1.782-7.033
			c-0.052-0.206-0.15-0.341-0.299-0.406c-0.202-0.092-0.428-0.108-0.675-0.049c-0.192,0.046-0.385,0.092-0.577,0.139
			c-0.039-0.154-0.079-0.309-0.119-0.462C49.547,129.26,50.391,129.027,51.235,128.794z"/>
		<path fill="#FFFFFF" d="M61.853,135.607c0.105,0.1,0.209,0.202,0.311,0.303c-0.256,0.374-0.581,0.597-0.974,0.674
			c-0.299,0.058-0.567,0.031-0.807-0.081c-0.238-0.112-0.476-0.347-0.714-0.701c-0.332,0.501-0.638,0.851-0.924,1.055
			c-0.286,0.204-0.652,0.352-1.096,0.447c-0.634,0.135-1.145,0.11-1.537-0.073c-0.39-0.184-0.635-0.475-0.73-0.875
			c-0.145-0.603,0.117-1.189,0.79-1.751c0.673-0.564,1.635-1.044,2.884-1.436c-0.063-0.295-0.127-0.588-0.19-0.883
			c-0.067-0.314-0.264-0.558-0.587-0.725c-0.324-0.168-0.699-0.208-1.126-0.119c-0.393,0.082-0.717,0.228-0.966,0.437
			c-0.179,0.155-0.255,0.287-0.229,0.395c0.014,0.062,0.09,0.147,0.229,0.256c0.169,0.137,0.268,0.27,0.296,0.398
			c0.043,0.188,0.013,0.352-0.092,0.498c-0.103,0.144-0.258,0.242-0.47,0.287c-0.226,0.048-0.429,0.018-0.611-0.09
			c-0.183-0.106-0.301-0.27-0.353-0.488c-0.096-0.41,0.068-0.838,0.494-1.286c0.425-0.448,1.052-0.757,1.871-0.927
			c0.758-0.158,1.369-0.124,1.831,0.096c0.463,0.224,0.738,0.55,0.828,0.983c0.224,1.062,0.448,2.124,0.672,3.186
			c0.06,0.282,0.152,0.479,0.278,0.593c0.125,0.119,0.267,0.162,0.421,0.131C61.523,135.878,61.689,135.777,61.853,135.607z
			 M59.145,133.58c-1.104,0.374-1.856,0.78-2.255,1.207c-0.294,0.323-0.388,0.711-0.282,1.167c0.073,0.318,0.222,0.548,0.445,0.688
			c0.222,0.141,0.479,0.182,0.77,0.12c0.521-0.108,0.929-0.389,1.231-0.836c0.302-0.451,0.393-0.951,0.271-1.512
			C59.265,134.135,59.204,133.858,59.145,133.58z"/>
		<path fill="#FFFFFF" d="M62.375,130.115c1.687-0.311,3.374-0.603,5.063-0.875c0.021,0.125,0.042,0.25,0.063,0.375
			c-1.049,1.89-2.064,3.788-3.045,5.689c0.635-0.114,1.271-0.226,1.906-0.333c0.438-0.076,0.766-0.262,0.981-0.566
			c0.214-0.303,0.333-0.816,0.352-1.545c0.15-0.024,0.301-0.049,0.45-0.073c0.084,0.776,0.168,1.552,0.254,2.328
			c-1.742,0.283-3.482,0.584-5.222,0.909c-0.029-0.144-0.058-0.286-0.087-0.43c0.97-1.898,1.972-3.79,3.009-5.676
			c-0.565,0.095-1.13,0.191-1.694,0.291c-0.354,0.062-0.609,0.154-0.767,0.275c-0.157,0.12-0.28,0.296-0.366,0.524
			c-0.087,0.229-0.136,0.604-0.145,1.127c-0.168,0.03-0.333,0.062-0.5,0.092C62.543,131.523,62.459,130.819,62.375,130.115z"/>
		<path fill="#FFFFFF" d="M69.088,128.979c1.689-0.261,3.381-0.503,5.071-0.727c0.019,0.126,0.035,0.25,0.054,0.377
			c-1.104,1.858-2.174,3.725-3.211,5.597c0.638-0.095,1.273-0.188,1.911-0.278c0.438-0.063,0.771-0.24,0.994-0.538
			c0.225-0.295,0.357-0.806,0.399-1.533c0.15-0.02,0.3-0.041,0.45-0.06c0.06,0.778,0.12,1.556,0.182,2.334
			c-1.746,0.231-3.489,0.484-5.232,0.755c-0.023-0.144-0.049-0.288-0.072-0.432c1.023-1.869,2.081-3.731,3.172-5.586
			c-0.566,0.079-1.131,0.159-1.696,0.242c-0.354,0.052-0.612,0.137-0.773,0.253c-0.161,0.115-0.287,0.288-0.38,0.513
			c-0.093,0.226-0.154,0.601-0.18,1.123c-0.167,0.026-0.334,0.051-0.5,0.077C69.214,130.392,69.15,129.685,69.088,128.979z"/>
		<path fill="#FFFFFF" d="M82.555,132.614c0.094,0.109,0.185,0.221,0.278,0.33c-0.292,0.349-0.634,0.541-1.027,0.581
			c-0.302,0.031-0.562-0.02-0.787-0.154c-0.224-0.134-0.437-0.388-0.637-0.763c-0.375,0.468-0.714,0.788-1.015,0.965
			c-0.303,0.176-0.676,0.292-1.123,0.344c-0.638,0.076-1.14,0.004-1.508-0.214c-0.368-0.219-0.58-0.532-0.635-0.938
			c-0.083-0.613,0.23-1.172,0.948-1.671c0.718-0.498,1.713-0.89,2.982-1.163c-0.035-0.299-0.069-0.597-0.104-0.896
			c-0.036-0.32-0.205-0.578-0.508-0.775c-0.305-0.196-0.67-0.272-1.1-0.222c-0.395,0.046-0.728,0.161-0.994,0.346
			c-0.191,0.138-0.278,0.261-0.265,0.371c0.008,0.062,0.076,0.156,0.201,0.276c0.152,0.154,0.238,0.293,0.254,0.423
			c0.024,0.19-0.023,0.351-0.139,0.487c-0.116,0.136-0.279,0.217-0.492,0.242c-0.227,0.027-0.423-0.021-0.593-0.146
			c-0.17-0.124-0.27-0.297-0.299-0.52c-0.056-0.415,0.146-0.826,0.609-1.234c0.463-0.405,1.108-0.657,1.934-0.75
			c0.763-0.087,1.362,0.003,1.797,0.263c0.436,0.266,0.674,0.616,0.722,1.055c0.118,1.077,0.236,2.155,0.355,3.232
			c0.03,0.286,0.104,0.492,0.215,0.616c0.114,0.128,0.248,0.186,0.404,0.169C82.203,132.853,82.379,132.768,82.555,132.614z
			 M80.08,130.348c-1.126,0.271-1.906,0.605-2.34,0.994c-0.321,0.294-0.451,0.672-0.392,1.134c0.041,0.324,0.166,0.566,0.371,0.726
			c0.205,0.162,0.455,0.225,0.748,0.19c0.523-0.061,0.955-0.301,1.295-0.719s0.479-0.912,0.413-1.479
			C80.144,130.912,80.111,130.63,80.08,130.348z"/>
		<path fill="#FFFFFF" d="M83.027,127.249c0.704-0.106,1.41-0.21,2.116-0.31c0.12,0.362,0.223,0.793,0.307,1.286
			c0.248-0.455,0.559-0.804,0.93-1.051c0.372-0.245,0.805-0.388,1.299-0.424c0.424-0.03,0.786,0.021,1.085,0.155
			c0.299,0.133,0.546,0.363,0.741,0.685c0.196,0.322,0.309,0.69,0.338,1.104c0.066,0.962,0.133,1.926,0.2,2.888
			c0.015,0.215,0.074,0.365,0.184,0.449c0.109,0.085,0.284,0.117,0.524,0.103c0.146-0.01,0.293-0.018,0.439-0.027
			c0.011,0.159,0.021,0.318,0.031,0.476c-1.097,0.065-2.193,0.141-3.29,0.222c-0.013-0.158-0.025-0.316-0.038-0.475
			c0.104-0.007,0.209-0.015,0.313-0.023c0.293-0.021,0.494-0.082,0.604-0.177c0.11-0.097,0.157-0.233,0.145-0.411
			c-0.063-0.847-0.125-1.693-0.188-2.539c-0.041-0.552-0.163-0.956-0.363-1.209c-0.283-0.363-0.685-0.525-1.203-0.485
			c-0.515,0.04-0.928,0.265-1.237,0.677c-0.31,0.413-0.436,0.925-0.381,1.542c0.065,0.731,0.131,1.463,0.196,2.195
			c0.019,0.214,0.084,0.365,0.197,0.445c0.113,0.082,0.29,0.113,0.53,0.093c0.144-0.012,0.288-0.023,0.433-0.034
			c0.013,0.158,0.027,0.317,0.04,0.475c-1.101,0.087-2.201,0.183-3.303,0.285c-0.015-0.159-0.031-0.317-0.047-0.475
			c0.145-0.014,0.289-0.026,0.434-0.04c0.219-0.021,0.38-0.076,0.485-0.171c0.105-0.093,0.152-0.204,0.14-0.33
			c-0.121-1.275-0.24-2.55-0.36-3.825c-0.025-0.253-0.115-0.438-0.275-0.555s-0.38-0.164-0.656-0.138
			c-0.109,0.011-0.22,0.021-0.328,0.031C83.054,127.523,83.04,127.387,83.027,127.249z"/>
		<path fill="#FFFFFF" d="M94.609,126.274c0.864-0.04,1.602,0.223,2.208,0.78c0.606,0.558,0.923,1.309,0.953,2.252
			c0.021,0.651-0.091,1.21-0.331,1.677c-0.241,0.466-0.594,0.842-1.058,1.125c-0.463,0.286-0.967,0.438-1.512,0.462
			c-0.81,0.036-1.508-0.222-2.104-0.775c-0.597-0.554-0.927-1.292-0.983-2.222c-0.057-0.934,0.187-1.71,0.73-2.324
			C93.058,126.639,93.759,126.312,94.609,126.274z M94.63,126.724c-0.511,0.023-0.921,0.257-1.225,0.703
			c-0.306,0.446-0.433,1.131-0.381,2.056c0.05,0.942,0.249,1.624,0.591,2.043c0.343,0.419,0.763,0.617,1.266,0.595
			c0.522-0.022,0.933-0.256,1.238-0.705c0.305-0.448,0.442-1.167,0.404-2.157c-0.035-0.917-0.222-1.575-0.564-1.973
			C95.617,126.888,95.173,126.7,94.63,126.724z"/>
		<path fill="#FFFFFF" d="M108.58,123.526c0.212-0.269,0.425-0.539,0.639-0.808c0.17,0.003,0.34,0.006,0.509,0.01
			c-0.01,1.141-0.021,2.281-0.032,3.422c-0.15-0.004-0.302-0.006-0.453-0.009c-0.262-1.057-0.671-1.83-1.226-2.319
			c-0.553-0.49-1.2-0.736-1.932-0.74c-0.611-0.003-1.113,0.164-1.5,0.499c-0.389,0.334-0.58,0.744-0.579,1.227
			c0.002,0.302,0.076,0.564,0.223,0.791c0.147,0.226,0.367,0.409,0.656,0.552c0.29,0.141,0.837,0.293,1.638,0.458
			c1.125,0.236,1.911,0.479,2.359,0.72c0.448,0.24,0.778,0.539,0.991,0.898c0.215,0.358,0.316,0.774,0.304,1.247
			c-0.021,0.847-0.339,1.541-0.951,2.085c-0.61,0.545-1.386,0.811-2.333,0.802c-1.017-0.01-1.897-0.323-2.653-0.947
			c-0.252,0.292-0.502,0.585-0.752,0.879c-0.16,0-0.319,0.002-0.479,0.003c-0.011-1.213-0.021-2.426-0.033-3.638
			c0.163-0.001,0.325-0.003,0.489-0.003c0.196,1.002,0.623,1.792,1.275,2.371c0.653,0.579,1.383,0.87,2.197,0.878
			c0.659,0.006,1.199-0.172,1.622-0.536c0.424-0.364,0.643-0.807,0.652-1.337c0.006-0.301-0.066-0.564-0.22-0.794
			c-0.154-0.229-0.399-0.424-0.741-0.583c-0.342-0.159-1.015-0.357-2.023-0.583c-1.109-0.252-1.867-0.524-2.273-0.827
			c-0.57-0.428-0.861-1.039-0.868-1.829c-0.006-0.826,0.274-1.504,0.849-2.034c0.574-0.529,1.314-0.792,2.215-0.788
			c0.434,0.001,0.843,0.076,1.23,0.22C107.768,122.955,108.169,123.195,108.58,123.526z"/>
		<path fill="#FFFFFF" d="M113.125,123.946c0.155,0.005,0.31,0.011,0.464,0.017c-0.031,0.808-0.062,1.616-0.095,2.424
			c0.693,0.025,1.386,0.054,2.077,0.086c-0.01,0.194-0.019,0.389-0.028,0.583c-0.689-0.031-1.381-0.06-2.07-0.085
			c-0.05,1.271-0.1,2.541-0.15,3.812c-0.014,0.33,0.062,0.585,0.218,0.768c0.159,0.181,0.364,0.277,0.618,0.287
			c0.304,0.013,0.566-0.109,0.794-0.366c0.228-0.257,0.374-0.69,0.439-1.302c0.15,0.007,0.302,0.015,0.452,0.021
			c-0.067,0.79-0.288,1.367-0.658,1.733c-0.371,0.366-0.836,0.539-1.395,0.516c-0.515-0.021-0.912-0.17-1.194-0.448
			c-0.282-0.279-0.416-0.635-0.401-1.07c0.046-1.33,0.091-2.66,0.137-3.99c-0.372-0.012-0.743-0.023-1.114-0.033
			c0.005-0.148,0.009-0.297,0.013-0.446c0.511-0.065,0.905-0.25,1.182-0.554C112.823,125.441,113.062,124.79,113.125,123.946z"/>
		<path fill="#FFFFFF" d="M123.134,132.253c0.069,0.125,0.14,0.249,0.209,0.374c-0.352,0.291-0.725,0.42-1.118,0.39
			c-0.302-0.023-0.551-0.12-0.744-0.291c-0.195-0.172-0.354-0.458-0.48-0.863c-0.457,0.393-0.847,0.649-1.177,0.77
			c-0.329,0.12-0.719,0.166-1.166,0.139c-0.64-0.039-1.117-0.197-1.437-0.477c-0.317-0.281-0.468-0.624-0.444-1.034
			c0.035-0.617,0.446-1.112,1.243-1.475c0.796-0.364,1.846-0.571,3.142-0.616c0.022-0.299,0.045-0.599,0.068-0.899
			c0.023-0.321-0.094-0.604-0.355-0.852c-0.26-0.246-0.606-0.385-1.035-0.413c-0.396-0.024-0.743,0.028-1.039,0.164
			c-0.214,0.102-0.322,0.208-0.328,0.318c-0.005,0.062,0.043,0.166,0.145,0.307c0.121,0.178,0.178,0.331,0.169,0.461
			c-0.012,0.191-0.088,0.342-0.227,0.454c-0.14,0.114-0.314,0.164-0.526,0.151c-0.227-0.012-0.412-0.095-0.554-0.248
			c-0.143-0.152-0.209-0.339-0.196-0.563c0.023-0.417,0.299-0.788,0.828-1.105c0.528-0.317,1.208-0.45,2.034-0.396
			c0.765,0.05,1.337,0.244,1.714,0.577c0.376,0.336,0.549,0.725,0.512,1.165c-0.087,1.08-0.173,2.16-0.261,3.24
			c-0.021,0.288,0.011,0.502,0.097,0.644c0.086,0.146,0.208,0.226,0.363,0.238C122.743,132.426,122.93,132.374,123.134,132.253z
			 M121.131,129.587c-1.156,0.068-1.982,0.259-2.48,0.563c-0.371,0.233-0.569,0.58-0.599,1.046c-0.02,0.326,0.057,0.584,0.227,0.779
			c0.172,0.195,0.403,0.301,0.697,0.319c0.524,0.033,0.991-0.127,1.405-0.478c0.413-0.353,0.643-0.81,0.686-1.381
			C121.088,130.152,121.109,129.87,121.131,129.587z"/>
		<path fill="#FFFFFF" d="M125.18,127.112c1.695,0.148,3.39,0.314,5.083,0.499c-0.016,0.126-0.029,0.252-0.044,0.378
			c-1.535,1.539-3.042,3.095-4.52,4.664c0.64,0.059,1.277,0.119,1.916,0.184c0.439,0.045,0.807-0.049,1.099-0.283
			c0.291-0.234,0.55-0.697,0.774-1.392c0.151,0.017,0.302,0.033,0.452,0.049c-0.141,0.768-0.279,1.537-0.419,2.305
			c-1.747-0.191-3.495-0.36-5.244-0.511c0.013-0.146,0.026-0.291,0.04-0.436c1.462-1.568,2.953-3.122,4.475-4.661
			c-0.566-0.059-1.134-0.115-1.701-0.169c-0.354-0.034-0.625-0.014-0.809,0.062s-0.35,0.211-0.496,0.407
			c-0.147,0.198-0.299,0.547-0.456,1.046c-0.167-0.016-0.334-0.029-0.502-0.044C124.945,128.509,125.062,127.81,125.18,127.112z"/>
		<path fill="#FFFFFF" d="M131.219,127.717c0.853,0.072,1.706,0.152,2.56,0.233c-0.225,1.691-0.447,3.384-0.674,5.075
			c-0.019,0.139,0.005,0.241,0.067,0.309c0.092,0.097,0.214,0.156,0.369,0.175c0.236,0.029,0.472,0.06,0.707,0.09
			c-0.022,0.157-0.045,0.315-0.065,0.472c-1.182-0.154-2.363-0.296-3.545-0.432c0.02-0.158,0.038-0.316,0.058-0.474
			c0.22,0.025,0.441,0.051,0.661,0.076c0.195,0.023,0.344-0.004,0.446-0.084s0.165-0.206,0.188-0.378
			c0.158-1.238,0.315-2.477,0.473-3.716c0.03-0.234-0.021-0.422-0.15-0.559s-0.338-0.222-0.625-0.255
			c-0.176-0.021-0.35-0.04-0.525-0.06C131.18,128.032,131.2,127.874,131.219,127.717z M133.444,124.403
			c0.211,0.026,0.384,0.12,0.521,0.282c0.139,0.162,0.194,0.34,0.171,0.533c-0.025,0.189-0.122,0.343-0.293,0.463
			c-0.169,0.12-0.36,0.166-0.571,0.14c-0.212-0.026-0.386-0.117-0.522-0.276c-0.137-0.159-0.193-0.332-0.171-0.522
			c0.023-0.188,0.122-0.346,0.298-0.469C133.053,124.43,133.241,124.377,133.444,124.403z"/>
		<path fill="#FFFFFF" d="M138.794,128.521c0.862,0.126,1.539,0.521,2.028,1.183c0.487,0.66,0.649,1.458,0.49,2.39
			c-0.111,0.642-0.334,1.17-0.665,1.583c-0.333,0.413-0.759,0.714-1.272,0.904c-0.516,0.192-1.044,0.247-1.588,0.167
			c-0.805-0.119-1.442-0.501-1.919-1.157c-0.478-0.655-0.654-1.443-0.523-2.365c0.132-0.927,0.525-1.642,1.186-2.141
			C137.189,128.586,137.947,128.396,138.794,128.521z M138.726,128.966c-0.509-0.074-0.961,0.079-1.351,0.458
			c-0.39,0.38-0.651,1.029-0.786,1.946c-0.139,0.934-0.08,1.639,0.173,2.115c0.253,0.477,0.628,0.749,1.129,0.823
			c0.519,0.076,0.972-0.076,1.365-0.458c0.393-0.381,0.672-1.06,0.833-2.039c0.149-0.907,0.097-1.587-0.162-2.042
			C139.668,129.312,139.266,129.045,138.726,128.966z"/>
		<path fill="#FFFFFF" d="M142.739,129.312c0.714,0.077,1.427,0.155,2.142,0.238c0.019,0.38,0.002,0.822-0.048,1.32
			c0.364-0.375,0.76-0.634,1.188-0.778c0.429-0.142,0.889-0.17,1.38-0.079c0.421,0.079,0.762,0.221,1.017,0.426
			c0.255,0.206,0.435,0.489,0.539,0.851c0.105,0.36,0.115,0.745,0.03,1.152c-0.195,0.946-0.393,1.893-0.589,2.839
			c-0.045,0.211-0.027,0.372,0.057,0.48c0.084,0.108,0.244,0.187,0.484,0.233c0.145,0.029,0.29,0.057,0.436,0.086
			c-0.032,0.155-0.065,0.312-0.099,0.467c-1.09-0.216-2.18-0.424-3.27-0.624c0.03-0.156,0.062-0.312,0.093-0.468
			c0.104,0.019,0.207,0.039,0.311,0.057c0.292,0.055,0.504,0.049,0.638-0.017c0.133-0.065,0.218-0.187,0.253-0.36
			c0.168-0.833,0.337-1.666,0.506-2.499c0.11-0.544,0.101-0.964-0.027-1.26c-0.179-0.421-0.527-0.68-1.043-0.774
			c-0.513-0.094-0.976,0.02-1.388,0.34s-0.673,0.782-0.787,1.391c-0.134,0.722-0.27,1.445-0.404,2.168
			c-0.04,0.21-0.017,0.373,0.071,0.48c0.088,0.107,0.25,0.183,0.49,0.225c0.143,0.025,0.287,0.05,0.431,0.077
			c-0.03,0.156-0.061,0.312-0.091,0.469c-1.095-0.196-2.19-0.385-3.287-0.564c0.026-0.156,0.055-0.313,0.082-0.47
			c0.145,0.024,0.287,0.046,0.432,0.071c0.219,0.037,0.391,0.023,0.519-0.042c0.128-0.064,0.203-0.158,0.226-0.283
			c0.229-1.261,0.457-2.522,0.686-3.784c0.046-0.25,0.006-0.453-0.118-0.605c-0.124-0.155-0.325-0.255-0.602-0.301
			c-0.107-0.018-0.217-0.036-0.325-0.054C142.692,129.583,142.716,129.448,142.739,129.312z"/>
		<path fill="#FFFFFF" d="M156.51,135.087c-1.497-0.342-2.994-0.669-4.493-0.981c-0.177,0.891-0.139,1.553,0.11,1.986
			c0.287,0.49,0.723,0.796,1.31,0.924c0.864,0.188,1.669-0.118,2.422-0.916c0.13,0.089,0.26,0.181,0.39,0.271
			c-0.937,1.023-2.006,1.397-3.219,1.135c-0.828-0.179-1.458-0.605-1.901-1.286c-0.442-0.68-0.57-1.459-0.38-2.337
			c0.205-0.944,0.653-1.65,1.354-2.115c0.699-0.463,1.473-0.607,2.311-0.426c0.617,0.133,1.116,0.395,1.495,0.782
			c0.379,0.39,0.613,0.879,0.706,1.47C156.678,134.011,156.644,134.507,156.51,135.087z M152.115,133.666
			c0.908,0.189,1.816,0.384,2.725,0.584c0.161,0.036,0.299,0.012,0.412-0.07c0.114-0.081,0.199-0.243,0.258-0.486
			c0.109-0.454,0.048-0.874-0.187-1.26c-0.233-0.386-0.562-0.626-0.982-0.715c-0.472-0.102-0.916,0.006-1.328,0.321
			C152.598,132.357,152.3,132.897,152.115,133.666z"/>
		<path fill="#FFFFFF" d="M163.234,130.046c2.76,0.694,5.514,1.438,8.263,2.234c-0.277,1.052-0.557,2.103-0.838,3.154
			c-0.155-0.045-0.31-0.09-0.465-0.135c0.127-1.131,0.049-1.914-0.229-2.345c-0.317-0.5-0.879-0.864-1.684-1.085
			c-0.54-0.149-1.082-0.296-1.623-0.441c-0.16-0.043-0.288-0.04-0.379,0.007c-0.093,0.047-0.157,0.14-0.196,0.274
			c-0.311,1.092-0.622,2.184-0.938,3.275c0.286,0.077,0.571,0.153,0.856,0.229c0.476,0.129,0.897,0.09,1.265-0.116
			s0.652-0.604,0.854-1.192c0.162,0.046,0.324,0.091,0.487,0.136c-0.409,1.357-0.819,2.712-1.231,4.068
			c-0.16-0.044-0.32-0.09-0.479-0.133c0.174-0.684,0.167-1.208-0.019-1.573c-0.188-0.364-0.522-0.61-1.006-0.742
			c-0.285-0.078-0.569-0.153-0.854-0.229c-0.331,1.151-0.663,2.301-0.997,3.453c-0.059,0.205-0.048,0.361,0.033,0.474
			c0.08,0.112,0.251,0.201,0.511,0.272c0.338,0.09,0.676,0.183,1.013,0.275c-0.045,0.153-0.092,0.306-0.137,0.458
			c-1.558-0.428-3.115-0.837-4.675-1.23c0.042-0.154,0.085-0.307,0.126-0.461c0.335,0.084,0.67,0.169,1.003,0.255
			c0.202,0.052,0.356,0.052,0.464-0.001c0.106-0.052,0.187-0.167,0.233-0.337c0.68-2.403,1.354-4.808,2.021-7.212
			c0.045-0.163,0.028-0.293-0.045-0.387c-0.074-0.094-0.229-0.171-0.461-0.23c-0.331-0.084-0.664-0.17-0.996-0.253
			C163.151,130.353,163.193,130.199,163.234,130.046z"/>
		<path fill="#FFFFFF" d="M178.134,135.054c0.294-0.193,0.589-0.388,0.884-0.579c0.167,0.054,0.333,0.108,0.499,0.163
			c-0.367,1.085-0.737,2.171-1.109,3.256c-0.148-0.049-0.296-0.096-0.444-0.145c0.075-1.085-0.085-1.948-0.478-2.581
			c-0.393-0.634-0.951-1.064-1.671-1.287c-0.601-0.186-1.146-0.177-1.632,0.027c-0.487,0.204-0.804,0.537-0.953,0.998
			c-0.094,0.286-0.103,0.562-0.031,0.82c0.075,0.26,0.232,0.5,0.472,0.723c0.24,0.224,0.73,0.53,1.466,0.929
			c1.032,0.562,1.73,1.03,2.095,1.395c0.366,0.364,0.597,0.75,0.693,1.156c0.097,0.406,0.064,0.833-0.098,1.281
			c-0.29,0.8-0.828,1.367-1.604,1.702c-0.777,0.336-1.624,0.356-2.552,0.064c-0.996-0.313-1.761-0.879-2.304-1.699
			c-0.34,0.204-0.679,0.408-1.018,0.614c-0.157-0.047-0.313-0.094-0.471-0.14c0.377-1.159,0.752-2.318,1.126-3.479
			c0.159,0.047,0.319,0.095,0.479,0.143c-0.124,1.015,0.043,1.895,0.498,2.642c0.456,0.747,1.081,1.246,1.879,1.497
			c0.645,0.204,1.234,0.195,1.767-0.023c0.533-0.22,0.891-0.577,1.07-1.08c0.101-0.284,0.115-0.559,0.036-0.824
			c-0.079-0.265-0.26-0.525-0.545-0.779c-0.285-0.255-0.887-0.645-1.807-1.164c-1.011-0.573-1.668-1.058-1.972-1.469
			c-0.425-0.578-0.519-1.249-0.275-2.005c0.254-0.791,0.742-1.354,1.471-1.687c0.729-0.333,1.539-0.364,2.426-0.089
			c0.424,0.131,0.806,0.324,1.144,0.579C177.512,134.264,177.833,134.614,178.134,135.054z"/>
	</g>
</g>
</svg>
