<?xml version="1.0" encoding="utf-8"?>
<!-- Generator: Adobe Illustrator 16.0.4, SVG Export Plug-In . SVG Version: 6.00 Build 0)  -->
<!DOCTYPE svg PUBLIC "-//W3C//DTD SVG 1.1//EN" "http://www.w3.org/Graphics/SVG/1.1/DTD/svg11.dtd">
<svg version="1.1" id="Livello_1" xmlns="http://www.w3.org/2000/svg" xmlns:xlink="http://www.w3.org/1999/xlink" x="0px" y="0px"
	 width="210px" height="200px" viewBox="0 0 210 200" enable-background="new 0 0 210 200" xml:space="preserve">
<circle fill="#0572B7" cx="105" cy="100" r="84"/>
<circle fill="#0572B7" stroke="#FFFFFF" stroke-width="5" stroke-miterlimit="10" cx="105" cy="100" r="75.216"/>
<g>
	<g>
		<path fill="#55ABE0" stroke="#FFFFFF" stroke-miterlimit="10" d="M65.938,127.085l-8.353,1.761
			c4.722,8.347,11.686,15.49,20.472,20.428l1.18-8.916C73.711,136.958,69.212,132.376,65.938,127.085z"/>
		<path fill="#55ABE0" stroke="#FFFFFF" stroke-miterlimit="10" d="M79.714,64.14l-1.762-8.906
			c-8.346,4.721-15.488,11.686-20.427,20.473l8.917,1.732C69.841,71.911,74.423,67.413,79.714,64.14z"/>
		<path fill="#55ABE0" stroke="#FFFFFF" stroke-miterlimit="10" d="M143.212,76.808l8.354-1.207
			c-4.721-8.348-11.685-15.49-20.472-20.428l-1.18,8.363C135.441,66.934,139.94,71.517,143.212,76.808z"/>
		<path fill="#55ABE0" stroke="#FFFFFF" stroke-miterlimit="10" d="M95.226,147.021l-5.052,7.256
			c9.712,2.699,19.685,2.551,28.919-0.033l-5.078-7.247C107.962,148.437,101.541,148.511,95.226,147.021z"/>
		<path fill="#55ABE0" stroke="#FFFFFF" stroke-miterlimit="10" d="M156.595,87.705l-6.955,3.909
			c1.44,6.052,1.514,12.474,0.022,18.789l6.966,6.223C159.328,106.914,159.18,96.938,156.595,87.705z"/>
	</g>
	<path fill="#55ABE0" stroke="#FFFFFF" stroke-width="2" stroke-miterlimit="10" d="M112.116,73.646H88.041v58.177h13.757v-19.393
		h10.318c11.4,0,20.635-8.678,20.635-19.393S123.517,73.646,112.116,73.646z M112.804,99.502h-11.006V86.574h11.006
		c3.799,0,6.879,2.893,6.879,6.464C119.683,96.61,116.603,99.502,112.804,99.502z"/>
	<g>
		<g>
			<path fill="#FFFFFF" d="M62.595,90.234c1.289,0.03,2.367-0.993,2.396-2.288c0.029-1.297-0.999-2.368-2.288-2.398
				c-1.295-0.029-2.367,0.992-2.397,2.289C60.276,89.132,61.3,90.204,62.595,90.234z"/>
		</g>
		<g>
			<path fill="#FFFFFF" d="M62.935,99.487h6.355v-2.343h-4.722l-2.604-4.337c-0.384-0.65-1.093-1.08-1.901-1.08
				c-0.221,0-0.436,0.032-0.638,0.09l-7.064,2.201l-0.955,6.771h2.344l0.955-4.771l2.742-0.854l-5.086,19.948h2.344l3.737-10.56
				l3.034,4.05v6.51h2.343v-8.34l-3.242-5.912l0.958-3.735L62.935,99.487z"/>
		</g>
	</g>
	<path fill="#FFFFFF" d="M124.233,56.017c-0.981-3.08-3.608-5.095-6.572-5.062l-2.148,0.078l-0.68-1.706
		c-1.321-3.311-2.004-4.934-2.213-5.249c-0.208-0.315-0.232-0.319-2.189-0.319c-1.733,0-2.007,0.03-2.155,0.231
		c-0.242,0.317-0.229,0.513,0.074,0.816c0.233,0.232,0.439,0.262,1.756,0.262c1.04,0,1.531,0.05,1.616,0.164
		c0.147,0.195,0.694,1.531,0.694,1.691c0,0.062-2.742,0.11-6.093,0.11h-6.096l-0.259-0.514c-0.146-0.287-0.267-0.546-0.267-0.577
		c0-0.035,0.624-0.131,1.388-0.224c1.555-0.184,2.125-0.458,1.751-0.839c-0.167-0.173-0.635-0.213-2.714-0.238
		c-1.71-0.02-2.562,0.016-2.659,0.116c-0.079,0.079-0.126,0.374-0.103,0.654c0.037,0.45,0.074,0.706,0.49,0.657l0.63-0.081
		l0.819,1.544l-2.559,3.923c-1.824-0.547-3.48-0.671-5.354-0.067c-0.901,0.379-2.179,1.286-2.763,1.971
		c-0.765,0.893-1.365,2.244-1.545,3.479c-0.02,0.137-0.033,0.275-0.043,0.41v0.938c0.193,2.657,2.037,5.144,4.615,5.999
		c1.196,0.401,1.225,0.405,2.476,0.362c0.935-0.032,1.389-0.124,2.2-0.438c1.18-0.459,1.73-0.915,2.962-2.258
		c1.247-1.367,1.377-2.924,1.426-3.339c0.103-0.036,1.123-0.071,2.27-0.071h2.088l0.019,1.05c0.012,0.577-0.029,1.312-0.023,1.439
		c0.01,0.18-0.056,0.076-0.496,0.107c-0.499,0.033-0.562,0.075-0.524,0.327c0.031,0.23,0.142,0.3,0.552,0.331
		c0.28,0.025,0.959-0.083,1.129-0.126l0.035-3.168l0.883-1.1c0.502-0.635,0.959-1.213,1.013-1.283
		c0.057-0.074,0.313-0.398,0.57-0.724c0.255-0.324,1.456-1.843,2.667-3.376c1.211-1.531,2.24-2.787,2.294-2.787
		c0.056,0,0.161,0.135,0.237,0.3c0.47,0.984,0.721,1.642,0.78,2.023c0.063,0.374,0.028,0.444-0.274,0.56
		c-0.519,0.198-1.938,1.702-2.356,2.505c-0.523,1-0.87,2.277-0.87,3.229c0,1.405,0.946,3.726,1.914,4.689
		c2.631,2.631,6.422,2.869,9.286,0.588c1-0.89,1.848-2.055,2.255-3.34C124.445,58.747,124.483,56.794,124.233,56.017z
		 M97.294,53.462c0.921,0.834,1.812,1.658,1.978,3.495l-4.212,0.061L97.294,53.462z M93.595,62.978
		c-2.516-0.084-5.165-2.008-5.138-5.539c0.022-3.49,3.771-5.908,7.668-4.562c-1.025,1.809-3.382,4.9-3.097,5.291
		c0.295,0.407,0.853,0.271,3.5,0.271h2.815C99.057,62.346,95.127,63.026,93.595,62.978z M100.687,56.937
		c-0.381-1.876-1.46-3.381-2.753-4.767l1.842-3.038c0.077,0,0.425,0.516,0.776,1.144c0.353,0.633,1.337,2.385,2.191,3.893
		c0.854,1.506,1.538,2.808,1.477,2.808L100.687,56.937z M108.823,52.424c-0.095,0.111-0.471,0.626-0.87,1.112l-2.219,2.702
		l-0.002-1.694c0.339-0.01,1.027-0.005,1.004-0.437c-0.019-0.435-0.972-0.315-1.633-0.286l0.066,2.474l-4.057-7.95h5.324
		c4.473,0,5.324,0.031,5.324,0.186C111.762,48.672,110.264,50.655,108.823,52.424z M121.434,61.693
		c-1.398,1.352-3.437,1.899-5.23,1.407c-2.697-0.744-4.485-3.369-4.074-5.986c0.229-1.458,0.624-2.285,1.532-3.21
		c1.056-1.08,1.248-1.085,1.639-0.055c0.094,0.252,0.299,0.759,0.455,1.117c0.156,0.361,0.516,1.229,0.8,1.93
		c0.579,1.435,0.91,1.769,1.368,1.353c0.375-0.524,0.045-1.295-0.368-2.189c-0.222-0.404-1.338-3.413-1.338-3.609
		c0.313-0.312,1.038-0.16,1.476-0.146c1.255,0.056,1.587,0.12,2.243,0.425c0.972,0.454,2.231,1.715,2.687,2.693
		c0.301,0.648,0.542,0.9,0.559,2.39C123.36,59.321,122.414,60.616,121.434,61.693z"/>
	<path fill="#FFFFFF" d="M147.798,124.458c-0.936-1.6-2.049-1.948-3.838-2.408c-1.787-0.46-3.591-0.529-5.157-0.529
		s-3.369,0.069-5.157,0.529c-1.787,0.46-2.915,0.809-3.851,2.408c-0.937,1.6-1.637,9.74-1.637,10.16c0,0.422,0,9.192,0,9.192h1.116
		c0,0.559,0,2.46,0,2.48c0,0.787,1.166,1.427,1.953,1.427c0.788,0,1.954-0.64,1.954-1.427c0-0.021,0-1.922,0-2.48h11.432
		c0,0.559-0.002,2.207,0,2.228c0.181,1.427,1.518,1.553,2.305,1.553s1.334-0.513,1.334-1.3c0-0.021,0-1.922,0-2.48h1.176
		c0,0,0.002-8.313,0.002-8.773C149.43,134.578,148.734,126.058,147.798,124.458z M134.856,122.601h8.371v2.233h-8.371V122.601z
		 M132.159,142.202c-1.4,0-2.535-1.134-2.535-2.532s1.135-2.532,2.535-2.532c1.398,0,2.533,1.134,2.533,2.532
		S133.558,142.202,132.159,142.202z M129.825,134.322c0,0,0.587-6.768,1.216-7.396c0.627-0.628,14.896-0.554,15.522,0.075
		c0.63,0.627,1.214,7.321,1.214,7.321H129.825z M145.159,142.202c-1.398,0-2.535-1.134-2.535-2.532s1.137-2.532,2.535-2.532
		c1.396,0,2.533,1.134,2.533,2.532S146.556,142.202,145.159,142.202z"/>
</g>
<g>
	<g>
		<path fill="#328ACA" stroke="#FFFFFF" stroke-width="2" stroke-miterlimit="10" d="M194.753,156.26
			c-1.94-7.207-4.247-14.418-6.921-21.605c6.594-3.912,13.482-7.565,20.649-10.929C142.271,95.785,67.523,95.941,1.407,124.195
			c0.055,0.126,0.108,0.252,0.162,0.378c7.398,3.436,14.502,7.182,21.293,11.203c-2.494,6.798-4.659,13.618-6.498,20.434
			C73.398,132.18,137.729,132.196,194.753,156.26L194.753,156.26L194.753,156.26z"/>
	</g>
</g>
<g>
	<g>
		<path fill="#FFFFFF" d="M39.44,118.472c1.836-0.614,3.672-1.203,5.512-1.764c1.247-0.381,2.271-0.432,3.06-0.167
			c0.792,0.266,1.293,0.77,1.511,1.505c0.218,0.736,0.086,1.38-0.388,1.938c-0.652,0.769-1.567,1.328-2.753,1.69
			c-0.646,0.199-1.293,0.4-1.939,0.605c0.341,1.017,0.681,2.033,1.024,3.05c0.06,0.177,0.152,0.286,0.279,0.331
			c0.167,0.054,0.362,0.046,0.589-0.024c0.404-0.127,0.807-0.252,1.211-0.376c0.049,0.151,0.1,0.304,0.147,0.455
			c-1.703,0.523-3.405,1.07-5.103,1.641c-0.055-0.15-0.108-0.301-0.162-0.451c0.356-0.119,0.712-0.238,1.068-0.355
			c0.211-0.07,0.354-0.155,0.429-0.258c0.074-0.102,0.09-0.214,0.049-0.334c-0.822-2.366-1.637-4.734-2.441-7.102
			c-0.062-0.18-0.171-0.29-0.328-0.327c-0.159-0.038-0.421,0.003-0.782,0.123c-0.275,0.09-0.55,0.182-0.824,0.274
			C39.547,118.772,39.493,118.622,39.44,118.472z M44.295,121.838c0.494-0.156,0.986-0.312,1.479-0.463
			c0.938-0.289,1.562-0.652,1.88-1.099c0.315-0.445,0.361-1.038,0.134-1.781c-0.158-0.52-0.375-0.89-0.65-1.111
			c-0.276-0.222-0.617-0.345-1.029-0.367c-0.411-0.023-1.038,0.093-1.882,0.354c-0.557,0.173-0.896,0.326-1.018,0.458
			c-0.118,0.131-0.145,0.301-0.075,0.51C43.52,119.506,43.906,120.672,44.295,121.838z"/>
		<path fill="#FFFFFF" d="M59.317,121.854c0.117,0.095,0.232,0.188,0.35,0.282c-0.276,0.393-0.627,0.642-1.055,0.747
			c-0.328,0.082-0.624,0.074-0.889-0.021c-0.264-0.096-0.531-0.312-0.802-0.651c-0.352,0.529-0.679,0.905-0.99,1.131
			c-0.309,0.227-0.706,0.406-1.19,0.536c-0.693,0.187-1.256,0.202-1.69,0.05c-0.436-0.153-0.713-0.425-0.829-0.82
			c-0.175-0.596,0.098-1.206,0.822-1.828c0.726-0.621,1.773-1.183,3.14-1.67c-0.078-0.29-0.155-0.582-0.231-0.873
			c-0.082-0.311-0.303-0.54-0.664-0.684c-0.36-0.144-0.776-0.154-1.244-0.032c-0.431,0.114-0.783,0.286-1.054,0.517
			c-0.193,0.17-0.274,0.308-0.244,0.415c0.017,0.061,0.104,0.141,0.259,0.24c0.188,0.125,0.302,0.25,0.337,0.376
			c0.052,0.184,0.021,0.354-0.089,0.508c-0.108,0.156-0.278,0.264-0.51,0.327c-0.246,0.066-0.471,0.054-0.675-0.041
			c-0.205-0.093-0.339-0.247-0.401-0.463c-0.116-0.403,0.052-0.85,0.51-1.334s1.142-0.847,2.041-1.083
			c0.832-0.216,1.508-0.229,2.021-0.043c0.515,0.19,0.825,0.498,0.935,0.926c0.271,1.051,0.542,2.101,0.814,3.152
			c0.072,0.281,0.178,0.47,0.319,0.576c0.141,0.109,0.296,0.143,0.466,0.102C58.961,122.149,59.144,122.036,59.317,121.854z
			 M56.29,120.017c-1.207,0.46-2.022,0.927-2.45,1.389c-0.316,0.347-0.409,0.747-0.28,1.195c0.09,0.314,0.26,0.534,0.508,0.657
			c0.248,0.125,0.53,0.145,0.849,0.059c0.569-0.15,1.012-0.462,1.332-0.936s0.408-0.986,0.261-1.541
			C56.436,120.565,56.363,120.292,56.29,120.017z"/>
		<path fill="#FFFFFF" d="M59.031,116.474c0.832-0.233,1.663-0.46,2.497-0.682c0.178,0.783,0.357,1.565,0.538,2.347
			c0.088-0.83,0.279-1.486,0.569-1.965c0.288-0.479,0.715-0.778,1.275-0.896c0.379-0.08,0.704-0.046,0.971,0.1
			c0.269,0.147,0.436,0.381,0.503,0.704c0.055,0.263,0.022,0.48-0.098,0.657c-0.121,0.174-0.295,0.287-0.522,0.334
			c-0.224,0.046-0.417,0.021-0.58-0.074c-0.162-0.095-0.266-0.249-0.312-0.459c-0.029-0.138-0.019-0.274,0.035-0.412
			c0.051-0.123,0.075-0.193,0.07-0.215c-0.013-0.063-0.067-0.083-0.161-0.063c-0.205,0.042-0.415,0.191-0.63,0.446
			c-0.297,0.354-0.488,0.793-0.569,1.32c-0.126,0.815-0.135,1.45-0.031,1.899c0.095,0.415,0.192,0.83,0.288,1.245
			c0.031,0.14,0.114,0.235,0.249,0.284c0.134,0.049,0.339,0.042,0.62-0.02c0.289-0.063,0.578-0.125,0.867-0.186
			c0.034,0.155,0.068,0.31,0.104,0.466c-1.409,0.299-2.814,0.614-4.221,0.944c-0.038-0.154-0.076-0.309-0.114-0.463
			c0.226-0.053,0.45-0.105,0.676-0.158c0.227-0.051,0.391-0.13,0.488-0.233c0.099-0.103,0.135-0.207,0.109-0.314
			c-0.294-1.23-0.586-2.462-0.876-3.693c-0.067-0.279-0.188-0.469-0.362-0.565c-0.174-0.097-0.396-0.115-0.664-0.052
			c-0.204,0.046-0.409,0.095-0.612,0.143C59.103,116.767,59.066,116.62,59.031,116.474z"/>
		<path fill="#FFFFFF" d="M72.051,118.098c0.166,0.013,0.331,0.025,0.497,0.038c-0.173,1.264-0.897,2.001-2.186,2.235
			c-0.945,0.171-1.768,0.05-2.48-0.366c-0.711-0.421-1.163-1.068-1.347-1.957c-0.213-1.029-0.041-1.895,0.522-2.592
			c0.564-0.698,1.312-1.134,2.234-1.301c0.691-0.125,1.292-0.068,1.797,0.171c0.506,0.239,0.792,0.554,0.86,0.942
			c0.041,0.233-0.01,0.441-0.149,0.621c-0.139,0.181-0.322,0.29-0.55,0.33c-0.223,0.037-0.423,0.008-0.6-0.094
			c-0.176-0.102-0.282-0.244-0.315-0.426s0.019-0.373,0.158-0.568c0.065-0.093,0.094-0.161,0.085-0.208
			c-0.021-0.12-0.141-0.221-0.355-0.3c-0.215-0.08-0.49-0.09-0.825-0.029c-0.61,0.11-1.038,0.382-1.278,0.811
			c-0.345,0.62-0.428,1.368-0.254,2.244c0.167,0.834,0.489,1.428,0.963,1.783c0.476,0.355,1.012,0.479,1.613,0.369
			C71.274,119.65,71.806,119.085,72.051,118.098z"/>
		<path fill="#FFFFFF" d="M72.021,110.369c0.899-0.184,1.8-0.362,2.699-0.535c0.23,1.509,0.462,3.021,0.696,4.531
			c0.307-0.458,0.658-0.816,1.055-1.078c0.397-0.261,0.836-0.423,1.312-0.489c0.451-0.062,0.873-0.027,1.258,0.105
			c0.299,0.104,0.571,0.324,0.815,0.655c0.244,0.332,0.397,0.741,0.46,1.228c0.122,0.934,0.243,1.868,0.367,2.802
			c0.023,0.18,0.094,0.304,0.212,0.373c0.117,0.067,0.292,0.087,0.521,0.059c0.195-0.024,0.39-0.047,0.586-0.072
			c0.019,0.159,0.039,0.315,0.059,0.473c-1.23,0.148-2.461,0.308-3.691,0.479c-0.022-0.157-0.044-0.314-0.067-0.471
			c0.137-0.019,0.272-0.038,0.409-0.057c0.312-0.043,0.521-0.115,0.629-0.217c0.107-0.102,0.149-0.239,0.126-0.41
			c-0.129-0.933-0.258-1.868-0.385-2.8c-0.066-0.49-0.26-0.855-0.579-1.092c-0.32-0.236-0.701-0.323-1.141-0.262
			c-0.346,0.049-0.654,0.172-0.925,0.371c-0.272,0.198-0.486,0.47-0.642,0.816c-0.155,0.346-0.205,0.695-0.151,1.047
			c0.122,0.782,0.244,1.564,0.367,2.346c0.033,0.209,0.107,0.35,0.224,0.422c0.115,0.073,0.291,0.09,0.524,0.056
			c0.195-0.029,0.39-0.057,0.585-0.085c0.023,0.158,0.046,0.314,0.069,0.472c-1.202,0.173-2.404,0.359-3.605,0.556
			c-0.027-0.156-0.055-0.313-0.08-0.47c0.136-0.023,0.272-0.045,0.408-0.067c0.278-0.044,0.468-0.123,0.569-0.235
			c0.102-0.112,0.136-0.268,0.104-0.463c-0.381-2.336-0.759-4.671-1.132-7.008c-0.041-0.25-0.15-0.426-0.33-0.523
			c-0.18-0.099-0.422-0.122-0.728-0.073c-0.173,0.028-0.346,0.056-0.519,0.084C72.074,110.682,72.049,110.526,72.021,110.369z"/>
		<path fill="#FFFFFF" d="M89.059,114.765c-1.66,0.137-3.319,0.295-4.979,0.475c0.125,0.897,0.392,1.513,0.8,1.843
			c0.465,0.373,1.022,0.525,1.671,0.463c0.956-0.093,1.68-0.63,2.182-1.62c0.167,0.045,0.33,0.091,0.496,0.137
			c-0.618,1.258-1.587,1.942-2.928,2.075c-0.916,0.089-1.714-0.115-2.407-0.618c-0.693-0.501-1.097-1.195-1.202-2.087
			c-0.114-0.958,0.108-1.77,0.675-2.43c0.566-0.661,1.318-1.041,2.248-1.132c0.685-0.066,1.29,0.025,1.814,0.275
			c0.521,0.25,0.934,0.643,1.229,1.174C88.866,113.694,88.998,114.176,89.059,114.765z M84.031,114.792
			c1.006-0.109,2.011-0.21,3.019-0.303c0.178-0.017,0.312-0.082,0.401-0.194c0.09-0.112,0.123-0.292,0.101-0.541
			c-0.042-0.464-0.249-0.844-0.623-1.136c-0.374-0.294-0.795-0.416-1.26-0.37c-0.522,0.052-0.946,0.292-1.267,0.722
			C84.081,113.399,83.958,114.009,84.031,114.792z"/>
		<path fill="#FFFFFF" d="M95.331,111.665c0.48-0.452,0.935-0.686,1.357-0.705c0.253-0.01,0.465,0.047,0.637,0.177
			c0.171,0.128,0.26,0.29,0.268,0.484c0.007,0.157-0.043,0.29-0.153,0.397c-0.107,0.109-0.237,0.166-0.388,0.172
			c-0.285,0.013-0.485-0.128-0.599-0.42c-0.046-0.125-0.116-0.185-0.212-0.181c-0.17,0.008-0.353,0.113-0.543,0.311
			c0.227,0.239,0.385,0.449,0.475,0.629c0.088,0.18,0.138,0.377,0.147,0.588c0.017,0.368-0.073,0.697-0.269,0.988
			c-0.195,0.291-0.527,0.555-0.997,0.796c-0.471,0.238-0.923,0.374-1.362,0.399c-0.269,0.016-0.537,0.032-0.806,0.05
			c-0.573,0.037-0.946,0.113-1.127,0.227c-0.181,0.118-0.263,0.28-0.248,0.483c0.012,0.164,0.097,0.285,0.255,0.363
			c0.159,0.077,0.448,0.103,0.871,0.075c0.604-0.05,1.208-0.098,1.812-0.141c0.917-0.05,1.585,0.05,2,0.296
			c0.417,0.247,0.633,0.599,0.652,1.061c0.023,0.506-0.186,0.944-0.623,1.312c-0.611,0.519-1.536,0.81-2.787,0.886
			c-1.034,0.063-1.812-0.051-2.34-0.347c-0.415-0.232-0.636-0.511-0.661-0.836c-0.02-0.248,0.09-0.486,0.329-0.712
			c0.239-0.224,0.658-0.41,1.255-0.552c-0.49-0.069-0.863-0.19-1.122-0.37c-0.26-0.179-0.401-0.414-0.424-0.704
			c-0.021-0.27,0.061-0.513,0.246-0.729c0.183-0.216,0.518-0.411,1-0.59c-0.433-0.169-0.768-0.386-1-0.651
			c-0.233-0.265-0.366-0.579-0.394-0.942c-0.043-0.574,0.187-1.075,0.696-1.501c0.509-0.426,1.196-0.668,2.057-0.719
			c0.352-0.022,0.695,0.002,1.027,0.068C94.692,111.395,95.017,111.507,95.331,111.665z M94.125,117.355
			c-0.896,0.052-1.53,0.202-1.896,0.443c-0.367,0.242-0.537,0.517-0.516,0.819c0.021,0.286,0.182,0.502,0.478,0.647
			c0.393,0.194,0.933,0.268,1.628,0.226c0.829-0.049,1.446-0.203,1.854-0.465c0.408-0.261,0.606-0.539,0.592-0.835
			c-0.009-0.173-0.082-0.332-0.221-0.476c-0.14-0.145-0.354-0.247-0.646-0.312C95.106,117.342,94.682,117.322,94.125,117.355z
			 M93.345,111.667c-0.448,0.027-0.808,0.188-1.079,0.483c-0.273,0.295-0.392,0.694-0.357,1.191c0.036,0.532,0.209,0.936,0.518,1.21
			c0.306,0.274,0.681,0.396,1.126,0.37c0.444-0.026,0.799-0.189,1.067-0.489c0.269-0.3,0.392-0.717,0.362-1.25
			c-0.026-0.494-0.193-0.878-0.502-1.149C94.17,111.764,93.792,111.64,93.345,111.667z"/>
		<path fill="#FFFFFF" d="M103.618,111.423c0.5-0.432,0.962-0.646,1.385-0.647c0.253,0,0.463,0.067,0.628,0.204
			c0.166,0.134,0.248,0.301,0.247,0.495c0,0.157-0.056,0.287-0.17,0.39c-0.111,0.104-0.244,0.155-0.395,0.156
			c-0.284,0-0.479-0.148-0.58-0.444c-0.04-0.126-0.108-0.189-0.203-0.189c-0.17,0-0.357,0.097-0.556,0.288
			c0.216,0.25,0.366,0.464,0.448,0.648c0.08,0.183,0.121,0.38,0.122,0.593c0.002,0.367-0.103,0.694-0.311,0.976
			c-0.206,0.282-0.55,0.532-1.028,0.754c-0.479,0.22-0.938,0.334-1.377,0.343c-0.268,0.005-0.537,0.011-0.807,0.016
			c-0.572,0.013-0.95,0.073-1.135,0.181c-0.185,0.11-0.273,0.27-0.268,0.472c0.006,0.164,0.085,0.288,0.239,0.374
			c0.156,0.084,0.443,0.121,0.865,0.11c0.605-0.025,1.211-0.045,1.815-0.065c0.918-0.014,1.581,0.116,1.984,0.378
			c0.406,0.263,0.606,0.625,0.606,1.086c0,0.508-0.227,0.936-0.679,1.285c-0.632,0.493-1.569,0.745-2.82,0.77
			c-1.035,0.021-1.807-0.125-2.32-0.443c-0.403-0.251-0.611-0.537-0.623-0.863c-0.009-0.249,0.109-0.482,0.359-0.698
			c0.247-0.214,0.674-0.383,1.275-0.5c-0.485-0.09-0.854-0.228-1.104-0.417c-0.252-0.188-0.383-0.429-0.393-0.721
			c-0.01-0.27,0.082-0.51,0.275-0.717c0.192-0.208,0.534-0.391,1.023-0.548c-0.425-0.188-0.749-0.416-0.971-0.692
			c-0.221-0.274-0.339-0.594-0.352-0.957c-0.019-0.575,0.23-1.067,0.757-1.471c0.526-0.405,1.221-0.619,2.083-0.634
			c0.353-0.006,0.693,0.031,1.022,0.111C102.992,111.125,103.311,111.253,103.618,111.423z M102.174,117.059
			c-0.897,0.015-1.535,0.139-1.911,0.364c-0.378,0.226-0.56,0.491-0.551,0.797c0.01,0.287,0.159,0.509,0.448,0.666
			c0.384,0.21,0.92,0.306,1.615,0.294c0.829-0.015,1.452-0.141,1.87-0.388c0.418-0.245,0.63-0.514,0.627-0.81
			c0-0.173-0.067-0.334-0.199-0.484c-0.133-0.15-0.343-0.262-0.632-0.338C103.153,117.086,102.729,117.049,102.174,117.059z
			 M101.636,111.342c-0.448,0.008-0.814,0.155-1.098,0.438c-0.285,0.284-0.42,0.677-0.406,1.176c0.014,0.533,0.17,0.943,0.464,1.229
			c0.295,0.287,0.664,0.426,1.108,0.417c0.445-0.008,0.806-0.157,1.087-0.445c0.281-0.29,0.419-0.7,0.414-1.233
			c-0.005-0.496-0.155-0.885-0.452-1.169C102.455,111.473,102.082,111.333,101.636,111.342z"/>
		<path fill="#FFFFFF" d="M106.362,111.083c0.939-0.018,1.879-0.031,2.818-0.036c-0.034,1.706-0.068,3.411-0.102,5.116
			c-0.003,0.14,0.035,0.24,0.111,0.3c0.111,0.088,0.252,0.131,0.424,0.136c0.258,0.006,0.518,0.013,0.777,0.02
			c-0.005,0.159-0.009,0.317-0.013,0.476c-1.301-0.035-2.602-0.055-3.901-0.062c0-0.159,0.002-0.317,0.002-0.477
			c0.243,0,0.485,0.003,0.728,0.005c0.216,0.003,0.373-0.041,0.475-0.131c0.102-0.09,0.153-0.222,0.155-0.395
			c0.017-1.249,0.033-2.496,0.05-3.744c0.004-0.237-0.075-0.417-0.233-0.54c-0.159-0.122-0.396-0.186-0.713-0.188
			c-0.193-0.001-0.387-0.002-0.581-0.004C106.361,111.399,106.362,111.241,106.362,111.083z M108.378,107.554
			c0.232,0.004,0.434,0.079,0.605,0.226c0.17,0.146,0.254,0.317,0.25,0.512c-0.004,0.191-0.091,0.354-0.262,0.491
			c-0.17,0.136-0.373,0.201-0.605,0.199c-0.234-0.004-0.437-0.077-0.604-0.22c-0.169-0.143-0.254-0.311-0.251-0.502
			c0.003-0.19,0.091-0.356,0.268-0.498C107.954,107.621,108.153,107.552,108.378,107.554z"/>
		<path fill="#FFFFFF" d="M114.71,111.122c0.953,0.044,1.737,0.376,2.347,0.991c0.611,0.615,0.88,1.395,0.819,2.337
			c-0.043,0.65-0.222,1.195-0.533,1.636c-0.311,0.441-0.735,0.78-1.271,1.016c-0.536,0.237-1.101,0.342-1.7,0.315
			c-0.887-0.043-1.625-0.362-2.223-0.968c-0.599-0.605-0.888-1.371-0.86-2.302c0.029-0.936,0.369-1.686,1.026-2.247
			C112.973,111.338,113.773,111.079,114.71,111.122z M114.688,111.572c-0.562-0.025-1.034,0.169-1.412,0.584
			c-0.379,0.415-0.583,1.084-0.618,2.012c-0.036,0.942,0.114,1.638,0.447,2.088c0.332,0.449,0.774,0.685,1.324,0.711
			c0.573,0.028,1.045-0.165,1.426-0.582c0.379-0.416,0.602-1.118,0.658-2.106c0.054-0.917-0.087-1.59-0.422-2.019
			C115.756,111.829,115.286,111.6,114.688,111.572z"/>
		<path fill="#FFFFFF" d="M131.907,110.125c0.25-0.282,0.501-0.565,0.752-0.847c0.171,0.023,0.343,0.048,0.515,0.07
			c-0.078,1.25-0.158,2.5-0.24,3.748c-0.162-0.022-0.325-0.044-0.488-0.067c-0.228-1.118-0.571-1.952-1.024-2.495
			c-0.579-0.692-1.302-1.09-2.158-1.192c-0.658-0.078-1.265,0.009-1.816,0.26c-0.554,0.251-1,0.668-1.339,1.254
			c-0.34,0.586-0.565,1.438-0.681,2.552c-0.111,1.081-0.064,1.939,0.139,2.578c0.203,0.636,0.521,1.125,0.959,1.464
			c0.436,0.338,0.967,0.543,1.594,0.617c0.854,0.101,1.536-0.023,2.057-0.374c0.521-0.351,0.829-0.851,0.918-1.501
			c0.039-0.292,0.078-0.582,0.118-0.874c0.019-0.139-0.03-0.255-0.146-0.346c-0.117-0.092-0.319-0.156-0.607-0.193
			c-0.31-0.04-0.621-0.079-0.932-0.117c0.019-0.147,0.037-0.293,0.056-0.44c1.543,0.188,3.086,0.397,4.627,0.623
			c-0.022,0.146-0.044,0.292-0.065,0.439c-0.209-0.03-0.417-0.061-0.626-0.09c-0.277-0.039-0.481-0.027-0.613,0.039
			c-0.13,0.064-0.208,0.174-0.229,0.33c-0.169,1.183-0.34,2.368-0.511,3.551c-0.16-0.022-0.32-0.043-0.479-0.065
			c-0.096-0.578-0.206-1.133-0.326-1.667c-0.44,0.467-0.927,0.797-1.465,0.99c-0.539,0.195-1.125,0.253-1.762,0.178
			c-0.91-0.107-1.728-0.403-2.463-0.888c-0.733-0.485-1.294-1.116-1.678-1.893c-0.384-0.779-0.535-1.63-0.449-2.557
			c0.087-0.933,0.399-1.745,0.939-2.438c0.542-0.692,1.247-1.216,2.116-1.562c0.869-0.345,1.729-0.472,2.575-0.372
			c0.48,0.058,0.932,0.18,1.351,0.366C130.943,109.391,131.405,109.698,131.907,110.125z"/>
		<path fill="#FFFFFF" d="M135.719,109.912c0.91,0.101,1.821,0.206,2.733,0.32c-0.25,1.507-0.502,3.015-0.756,4.522
			c0.436-0.341,0.885-0.574,1.344-0.7c0.461-0.126,0.931-0.146,1.405-0.062c0.452,0.081,0.843,0.242,1.169,0.487
			c0.252,0.191,0.443,0.484,0.572,0.875c0.13,0.39,0.146,0.826,0.052,1.31c-0.179,0.925-0.36,1.85-0.542,2.774
			c-0.035,0.178-0.007,0.319,0.084,0.42c0.09,0.101,0.251,0.173,0.479,0.216c0.194,0.039,0.39,0.076,0.583,0.113
			c-0.031,0.156-0.063,0.312-0.095,0.467c-1.227-0.238-2.453-0.466-3.68-0.682c0.028-0.156,0.057-0.312,0.085-0.469
			c0.138,0.024,0.273,0.048,0.409,0.072c0.311,0.055,0.534,0.051,0.67-0.012c0.134-0.063,0.219-0.181,0.251-0.35
			c0.175-0.926,0.351-1.853,0.524-2.778c0.092-0.487,0.023-0.892-0.209-1.216c-0.23-0.323-0.567-0.524-1.005-0.601
			c-0.347-0.061-0.68-0.038-1,0.067c-0.321,0.105-0.612,0.297-0.868,0.579c-0.258,0.281-0.416,0.598-0.475,0.949
			c-0.133,0.78-0.265,1.561-0.397,2.341c-0.035,0.208-0.01,0.366,0.079,0.47c0.085,0.104,0.246,0.175,0.48,0.215
			c0.193,0.032,0.39,0.066,0.584,0.098c-0.028,0.156-0.055,0.313-0.084,0.47c-1.201-0.204-2.403-0.398-3.606-0.581
			c0.025-0.157,0.049-0.314,0.074-0.471c0.137,0.021,0.272,0.042,0.409,0.062c0.278,0.042,0.483,0.027,0.615-0.049
			c0.132-0.076,0.214-0.211,0.247-0.408c0.382-2.335,0.76-4.671,1.133-7.007c0.042-0.25-0.01-0.45-0.15-0.6
			c-0.14-0.148-0.362-0.246-0.668-0.292c-0.173-0.026-0.346-0.053-0.519-0.079C135.67,110.227,135.695,110.069,135.719,109.912z"/>
		<path fill="#FFFFFF" d="M144.641,114.961c0.937,0.163,1.875,0.332,2.812,0.508c-0.366,1.667-0.735,3.333-1.108,5
			c-0.029,0.138-0.013,0.242,0.053,0.316c0.093,0.106,0.225,0.178,0.394,0.214c0.257,0.056,0.515,0.112,0.771,0.169
			c-0.036,0.154-0.071,0.311-0.108,0.465c-1.288-0.284-2.579-0.555-3.87-0.813c0.032-0.155,0.065-0.311,0.098-0.467
			c0.24,0.048,0.48,0.098,0.723,0.146c0.213,0.044,0.379,0.03,0.497-0.037c0.12-0.069,0.196-0.189,0.233-0.358
			c0.264-1.222,0.525-2.443,0.787-3.665c0.049-0.231,0.009-0.425-0.127-0.575c-0.134-0.151-0.357-0.258-0.673-0.321
			c-0.192-0.039-0.384-0.078-0.576-0.116C144.577,115.272,144.609,115.117,144.641,114.961z M147.333,111.886
			c0.23,0.049,0.415,0.162,0.558,0.338c0.143,0.176,0.193,0.362,0.151,0.552c-0.04,0.186-0.159,0.329-0.356,0.43
			c-0.195,0.101-0.41,0.127-0.643,0.079c-0.231-0.049-0.42-0.159-0.559-0.333c-0.141-0.174-0.192-0.354-0.152-0.541
			c0.039-0.185,0.159-0.333,0.362-0.438C146.896,111.87,147.109,111.839,147.333,111.886z"/>
		<path fill="#FFFFFF" d="M155.596,122.932c0.055,0.138,0.109,0.275,0.165,0.413c-0.438,0.213-0.871,0.265-1.299,0.153
			c-0.327-0.084-0.582-0.231-0.767-0.439c-0.183-0.209-0.311-0.524-0.377-0.949c-0.57,0.295-1.044,0.468-1.427,0.521
			c-0.384,0.053-0.818,0.02-1.305-0.096c-0.695-0.166-1.193-0.415-1.494-0.754s-0.407-0.707-0.312-1.107
			c0.142-0.603,0.678-1.011,1.616-1.211c0.938-0.203,2.128-0.197,3.563,0.022c0.076-0.29,0.152-0.582,0.229-0.874
			c0.081-0.311,0.001-0.616-0.245-0.913c-0.246-0.296-0.604-0.503-1.071-0.617c-0.433-0.105-0.825-0.12-1.175-0.045
			c-0.251,0.057-0.39,0.143-0.415,0.249c-0.016,0.062,0.021,0.171,0.107,0.332c0.105,0.197,0.141,0.361,0.109,0.489
			c-0.046,0.186-0.154,0.318-0.327,0.403s-0.374,0.099-0.605,0.045c-0.247-0.058-0.437-0.174-0.567-0.354
			c-0.132-0.178-0.173-0.375-0.121-0.594c0.097-0.408,0.462-0.719,1.099-0.928c0.634-0.208,1.408-0.206,2.311,0.015
			c0.834,0.204,1.432,0.511,1.791,0.917c0.358,0.41,0.479,0.829,0.364,1.254c-0.28,1.049-0.563,2.096-0.848,3.144
			c-0.075,0.279-0.077,0.497-0.007,0.655c0.069,0.163,0.189,0.265,0.359,0.31C155.135,123.022,155.352,123.008,155.596,122.932z
			 M153.854,119.891c-1.283-0.17-2.227-0.145-2.826,0.057c-0.447,0.156-0.725,0.46-0.836,0.914
			c-0.078,0.318-0.039,0.588,0.117,0.813c0.153,0.226,0.389,0.377,0.709,0.453c0.57,0.138,1.111,0.073,1.627-0.189
			c0.515-0.264,0.847-0.67,0.992-1.223C153.71,120.44,153.782,120.166,153.854,119.891z"/>
		<path fill="#FFFFFF" d="M157.986,118.082c0.935,0.227,1.868,0.461,2.802,0.702c-0.486,1.639-0.976,3.276-1.468,4.915
			c-0.04,0.132-0.03,0.241,0.03,0.318c0.087,0.114,0.213,0.193,0.382,0.242c0.255,0.073,0.512,0.147,0.767,0.222
			c-0.047,0.153-0.095,0.305-0.142,0.457c-1.281-0.374-2.562-0.735-3.847-1.081c0.044-0.154,0.088-0.307,0.131-0.46
			c0.239,0.064,0.479,0.13,0.718,0.196c0.213,0.057,0.381,0.059,0.505-0.002c0.125-0.059,0.212-0.173,0.261-0.341
			c0.351-1.201,0.702-2.401,1.051-3.604c0.066-0.227,0.037-0.423-0.088-0.583s-0.344-0.282-0.656-0.368
			c-0.191-0.051-0.383-0.104-0.573-0.155C157.901,118.387,157.944,118.234,157.986,118.082z M160.916,115.199
			c0.229,0.064,0.408,0.19,0.539,0.376c0.13,0.187,0.17,0.374,0.114,0.561c-0.054,0.183-0.184,0.318-0.39,0.405
			c-0.203,0.087-0.423,0.099-0.653,0.033c-0.23-0.063-0.411-0.188-0.541-0.37c-0.129-0.183-0.17-0.367-0.116-0.551
			c0.052-0.182,0.185-0.32,0.396-0.411C160.477,115.152,160.694,115.137,160.916,115.199z"/>
		<path fill="#FFFFFF" d="M168.451,124.381c-1.631-0.542-3.263-1.061-4.899-1.56c-0.254,0.871-0.257,1.541-0.011,2.008
			c0.282,0.527,0.741,0.891,1.38,1.093c0.941,0.299,1.851,0.096,2.74-0.607c0.137,0.108,0.273,0.216,0.411,0.324
			c-1.108,0.902-2.313,1.143-3.634,0.725c-0.9-0.285-1.566-0.791-2.01-1.527c-0.441-0.737-0.533-1.532-0.264-2.392
			c0.288-0.923,0.831-1.578,1.635-1.958c0.805-0.38,1.671-0.427,2.587-0.138c0.675,0.21,1.21,0.54,1.603,0.978
			c0.394,0.441,0.621,0.964,0.681,1.571C168.713,123.321,168.64,123.817,168.451,124.381z M163.69,122.391
			c0.992,0.302,1.982,0.612,2.973,0.93c0.176,0.056,0.33,0.051,0.461-0.016c0.132-0.066,0.238-0.219,0.318-0.455
			c0.151-0.442,0.113-0.871-0.12-1.29c-0.233-0.418-0.58-0.701-1.04-0.845c-0.514-0.163-1.014-0.11-1.492,0.155
			C164.311,121.136,163.944,121.645,163.69,122.391z"/>
		<path fill="#FFFFFF" d="M68.076,130.477c1.057-0.217,2.114-0.425,3.172-0.624c0.029,0.141,0.058,0.282,0.086,0.424
			c-0.42,0.086-0.684,0.173-0.786,0.256c-0.105,0.083-0.145,0.181-0.122,0.291c0.02,0.092,0.062,0.179,0.125,0.261
			c0.805,1.039,1.6,2.082,2.383,3.13c0.284-1.206,0.579-2.415,0.886-3.621c0.012-0.062,0.012-0.122,0.002-0.181
			c-0.057-0.305-0.421-0.436-1.094-0.393c-0.026-0.141-0.054-0.283-0.082-0.425c0.893-0.16,1.783-0.313,2.676-0.46
			c0.025,0.143,0.05,0.283,0.074,0.426c-0.266,0.07-0.469,0.172-0.609,0.308c-0.142,0.134-0.239,0.302-0.291,0.5
			c-0.481,1.791-0.938,3.583-1.365,5.375c-0.12,0.022-0.24,0.045-0.36,0.067c-1.159-1.546-2.342-3.081-3.547-4.606
			c-0.131-0.164-0.269-0.27-0.414-0.316c-0.147-0.047-0.359-0.043-0.64,0.011C68.139,130.758,68.106,130.618,68.076,130.477z"/>
		<path fill="#FFFFFF" d="M75.811,129.056c0.854-0.163,1.709-0.318,2.564-0.468c0.266,1.686,0.532,3.372,0.802,5.058
			c0.022,0.138,0.074,0.231,0.154,0.279c0.116,0.068,0.251,0.091,0.407,0.068c0.236-0.034,0.473-0.068,0.709-0.101
			c0.023,0.158,0.048,0.314,0.071,0.472c-1.184,0.167-2.368,0.345-3.552,0.537c-0.027-0.157-0.055-0.314-0.082-0.47
			c0.221-0.036,0.441-0.07,0.662-0.105c0.196-0.031,0.331-0.097,0.408-0.201c0.076-0.104,0.1-0.241,0.071-0.414
			c-0.206-1.233-0.41-2.466-0.613-3.698c-0.038-0.234-0.142-0.399-0.308-0.497c-0.166-0.094-0.394-0.123-0.684-0.076
			c-0.177,0.028-0.354,0.057-0.53,0.085C75.865,129.369,75.838,129.213,75.811,129.056z M77.039,125.268
			c0.213-0.032,0.41,0.012,0.591,0.13c0.182,0.119,0.287,0.273,0.317,0.466c0.029,0.189-0.021,0.363-0.154,0.524
			c-0.132,0.16-0.305,0.257-0.519,0.29c-0.215,0.033-0.412-0.008-0.592-0.125c-0.179-0.115-0.284-0.267-0.315-0.456
			c-0.031-0.188,0.021-0.366,0.158-0.532C76.662,125.399,76.833,125.299,77.039,125.268z"/>
		<path fill="#FFFFFF" d="M87.793,132.835c0.093,0.11,0.185,0.22,0.278,0.33c-0.292,0.35-0.636,0.542-1.031,0.583
			c-0.302,0.033-0.565-0.019-0.792-0.152c-0.225-0.135-0.438-0.387-0.642-0.762c-0.376,0.469-0.712,0.792-1.016,0.97
			c-0.303,0.179-0.678,0.295-1.126,0.35c-0.64,0.079-1.144,0.013-1.517-0.203c-0.371-0.216-0.588-0.525-0.647-0.932
			c-0.089-0.611,0.222-1.173,0.942-1.679c0.72-0.504,1.723-0.902,3.002-1.182c-0.035-0.297-0.071-0.597-0.106-0.896
			c-0.038-0.318-0.211-0.578-0.518-0.773c-0.308-0.195-0.679-0.267-1.112-0.216c-0.399,0.048-0.736,0.166-1.004,0.354
			c-0.193,0.14-0.279,0.263-0.266,0.373c0.009,0.062,0.076,0.155,0.205,0.274c0.155,0.151,0.241,0.293,0.259,0.421
			c0.025,0.19-0.021,0.353-0.137,0.488c-0.116,0.137-0.28,0.218-0.494,0.247c-0.228,0.029-0.428-0.018-0.6-0.141
			c-0.173-0.123-0.275-0.294-0.308-0.517c-0.059-0.416,0.143-0.83,0.607-1.24c0.465-0.41,1.118-0.667,1.953-0.765
			c0.772-0.091,1.38-0.004,1.819,0.255c0.44,0.263,0.685,0.614,0.733,1.052c0.119,1.077,0.241,2.154,0.362,3.231
			c0.033,0.287,0.105,0.491,0.219,0.616c0.114,0.128,0.249,0.185,0.406,0.168C87.438,133.075,87.615,132.989,87.793,132.835z
			 M85.294,130.575c-1.135,0.275-1.919,0.616-2.354,1.007c-0.322,0.296-0.45,0.675-0.387,1.138c0.045,0.323,0.172,0.563,0.38,0.723
			c0.207,0.161,0.458,0.221,0.753,0.186c0.525-0.064,0.956-0.306,1.297-0.727c0.342-0.42,0.479-0.915,0.412-1.481
			C85.362,131.139,85.327,130.856,85.294,130.575z"/>
		<path fill="#FFFFFF" d="M92.228,123.695c2.834-0.198,5.67-0.332,8.507-0.401c0.074,1.081,0.149,2.165,0.223,3.246
			c-0.16,0.003-0.319,0.008-0.479,0.012c-0.243-1.112-0.566-1.83-0.967-2.157c-0.458-0.379-1.103-0.554-1.932-0.521
			c-0.557,0.023-1.114,0.048-1.671,0.077c-0.164,0.009-0.283,0.049-0.354,0.123c-0.069,0.074-0.103,0.181-0.095,0.32
			c0.062,1.132,0.126,2.26,0.188,3.391c0.293-0.015,0.586-0.031,0.878-0.044c0.487-0.023,0.869-0.188,1.146-0.495
			c0.276-0.309,0.416-0.772,0.413-1.389c0.168-0.007,0.335-0.013,0.503-0.019c0.054,1.41,0.108,2.82,0.163,4.23
			c-0.163,0.006-0.327,0.012-0.49,0.019c-0.06-0.701-0.236-1.196-0.529-1.485c-0.293-0.287-0.688-0.422-1.183-0.398
			c-0.292,0.014-0.583,0.029-0.874,0.045c0.066,1.191,0.134,2.382,0.202,3.574c0.012,0.211,0.073,0.358,0.186,0.438
			c0.112,0.081,0.301,0.115,0.565,0.102c0.346-0.016,0.688-0.032,1.033-0.047c0.007,0.158,0.015,0.318,0.022,0.476
			c-1.587,0.069-3.174,0.158-4.759,0.269c-0.012-0.159-0.024-0.317-0.036-0.475c0.34-0.023,0.68-0.047,1.021-0.068
			c0.204-0.013,0.35-0.062,0.432-0.145c0.082-0.084,0.117-0.214,0.106-0.391c-0.163-2.482-0.323-4.967-0.483-7.451
			c-0.01-0.169-0.067-0.287-0.168-0.353c-0.102-0.064-0.271-0.091-0.51-0.075c-0.342,0.022-0.683,0.045-1.022,0.069
			C92.251,124.012,92.24,123.854,92.228,123.695z"/>
		<path fill="#FFFFFF" d="M107.739,129.71c-1.525-0.02-3.049-0.021-4.574-0.003c0.034,0.904,0.223,1.542,0.563,1.911
			c0.391,0.416,0.882,0.623,1.476,0.622c0.878,0,1.584-0.468,2.133-1.404c0.146,0.062,0.292,0.122,0.438,0.183
			c-0.678,1.192-1.62,1.783-2.851,1.786c-0.838,0.001-1.545-0.279-2.13-0.846c-0.586-0.568-0.892-1.296-0.909-2.194
			c-0.021-0.964,0.253-1.75,0.826-2.353c0.574-0.603,1.294-0.908,2.149-0.91c0.631-0.002,1.175,0.148,1.63,0.446
			c0.455,0.3,0.794,0.729,1.015,1.286C107.661,128.626,107.739,129.118,107.739,129.71z M103.159,129.257
			c0.926-0.012,1.85-0.015,2.775-0.012c0.163,0.001,0.292-0.052,0.384-0.154c0.092-0.103,0.139-0.279,0.14-0.528
			c0.004-0.466-0.15-0.862-0.466-1.19c-0.313-0.326-0.688-0.49-1.116-0.489c-0.48,0.001-0.888,0.2-1.218,0.596
			C103.328,127.877,103.162,128.469,103.159,129.257z"/>
		<path fill="#FFFFFF" d="M108.685,126.71c0.78-0.021,1.561-0.04,2.342-0.05c-0.027,0.801-0.054,1.602-0.08,2.404
			c0.272-0.783,0.593-1.373,0.959-1.765c0.366-0.394,0.811-0.581,1.329-0.558c0.352,0.015,0.627,0.126,0.827,0.333
			c0.2,0.208,0.292,0.475,0.273,0.804c-0.014,0.267-0.094,0.471-0.242,0.612c-0.146,0.141-0.325,0.207-0.536,0.197
			c-0.206-0.01-0.369-0.079-0.488-0.212c-0.12-0.132-0.175-0.305-0.166-0.521c0.007-0.141,0.048-0.27,0.128-0.39
			c0.072-0.106,0.111-0.17,0.111-0.191c0.004-0.063-0.039-0.098-0.126-0.101c-0.189-0.008-0.409,0.085-0.657,0.278
			c-0.343,0.271-0.612,0.65-0.809,1.14c-0.302,0.76-0.458,1.372-0.475,1.833c-0.014,0.425-0.029,0.849-0.044,1.275
			c-0.005,0.144,0.045,0.255,0.149,0.335c0.105,0.08,0.288,0.123,0.547,0.132c0.266,0.01,0.533,0.02,0.799,0.031
			c-0.007,0.159-0.014,0.317-0.021,0.476c-1.3-0.052-2.599-0.091-3.897-0.115c0.003-0.159,0.006-0.317,0.009-0.476
			c0.208,0.004,0.417,0.008,0.626,0.012c0.209,0.005,0.369-0.03,0.479-0.106c0.109-0.075,0.166-0.168,0.169-0.277
			c0.034-1.263,0.069-2.525,0.104-3.789c0.008-0.287-0.053-0.5-0.184-0.635c-0.129-0.137-0.319-0.208-0.568-0.213
			c-0.189-0.004-0.378-0.008-0.567-0.012C108.679,127.011,108.683,126.86,108.685,126.71z"/>
		<path fill="#FFFFFF" d="M115.65,130.683c0.235,0.747,0.522,1.271,0.864,1.575c0.342,0.303,0.775,0.473,1.303,0.51
			c0.487,0.034,0.869-0.038,1.147-0.218c0.279-0.18,0.432-0.424,0.459-0.732c0.015-0.177-0.021-0.336-0.107-0.476
			c-0.086-0.14-0.212-0.25-0.379-0.329c-0.166-0.078-0.605-0.209-1.317-0.384c-0.68-0.174-1.151-0.336-1.415-0.493
			c-0.263-0.156-0.464-0.36-0.604-0.614c-0.138-0.253-0.198-0.523-0.181-0.81c0.026-0.436,0.207-0.822,0.548-1.159
			c0.438-0.428,1.031-0.62,1.772-0.57c0.564,0.039,1.076,0.239,1.53,0.601c0.165-0.136,0.328-0.272,0.494-0.408
			c0.094,0.008,0.189,0.016,0.284,0.022c0.001,0.709,0,1.418-0.002,2.127c-0.153-0.013-0.306-0.025-0.459-0.037
			c-0.15-0.615-0.389-1.067-0.714-1.357c-0.325-0.289-0.742-0.452-1.251-0.485c-0.439-0.029-0.791,0.046-1.053,0.228
			c-0.263,0.181-0.401,0.414-0.419,0.697c-0.016,0.249,0.086,0.463,0.305,0.642c0.213,0.183,0.643,0.343,1.288,0.485
			c0.748,0.171,1.233,0.308,1.454,0.405c0.364,0.155,0.635,0.375,0.816,0.654c0.181,0.28,0.254,0.61,0.221,0.989
			c-0.048,0.523-0.308,0.947-0.774,1.274c-0.469,0.329-1.034,0.467-1.703,0.42c-0.621-0.043-1.182-0.275-1.689-0.696
			c-0.176,0.167-0.35,0.335-0.523,0.503c-0.118-0.006-0.237-0.014-0.355-0.02c0.003-0.79,0.005-1.581,0.005-2.371
			C115.348,130.667,115.499,130.674,115.65,130.683z"/>
		<path fill="#FFFFFF" d="M121.541,127.395c0.863,0.053,1.727,0.112,2.591,0.177c-0.185,1.696-0.372,3.392-0.56,5.088
			c-0.015,0.139,0.011,0.241,0.074,0.307c0.094,0.096,0.218,0.151,0.374,0.167c0.236,0.025,0.475,0.051,0.711,0.076
			c-0.019,0.158-0.038,0.316-0.056,0.474c-1.188-0.131-2.376-0.248-3.563-0.354c0.015-0.159,0.03-0.316,0.046-0.475
			c0.221,0.02,0.442,0.04,0.664,0.061c0.197,0.019,0.346-0.013,0.446-0.095c0.102-0.081,0.16-0.21,0.178-0.382
			c0.13-1.242,0.258-2.484,0.386-3.726c0.024-0.237-0.03-0.421-0.166-0.556c-0.135-0.133-0.348-0.214-0.638-0.241
			c-0.177-0.016-0.355-0.032-0.532-0.048C121.511,127.711,121.525,127.553,121.541,127.395z M123.709,124.032
			c0.213,0.021,0.391,0.111,0.536,0.271c0.145,0.158,0.206,0.337,0.185,0.529c-0.021,0.19-0.114,0.345-0.285,0.469
			c-0.168,0.124-0.36,0.173-0.575,0.153c-0.214-0.021-0.395-0.109-0.537-0.265c-0.142-0.156-0.204-0.329-0.186-0.519
			c0.019-0.189,0.114-0.348,0.29-0.476C123.312,124.066,123.503,124.012,123.709,124.032z"/>
		<path fill="#FFFFFF" d="M126.132,127.858c0.723,0.042,1.445,0.087,2.167,0.138c0.039,0.38,0.044,0.821,0.019,1.321
			c0.347-0.392,0.733-0.668,1.155-0.831c0.425-0.162,0.886-0.208,1.384-0.139c0.43,0.06,0.776,0.187,1.044,0.383
			c0.266,0.195,0.459,0.471,0.58,0.828c0.121,0.356,0.149,0.74,0.082,1.149c-0.155,0.954-0.31,1.907-0.466,2.86
			c-0.036,0.212-0.01,0.373,0.078,0.478c0.089,0.105,0.253,0.176,0.494,0.213c0.146,0.022,0.293,0.046,0.438,0.069
			c-0.027,0.157-0.052,0.313-0.079,0.47c-1.098-0.172-2.195-0.336-3.293-0.487c0.023-0.157,0.047-0.314,0.071-0.472
			c0.104,0.014,0.209,0.029,0.313,0.044c0.295,0.042,0.505,0.027,0.637-0.044c0.129-0.071,0.208-0.194,0.235-0.371
			c0.132-0.839,0.263-1.678,0.394-2.517c0.086-0.548,0.057-0.968-0.085-1.257c-0.199-0.413-0.561-0.657-1.084-0.729
			c-0.52-0.07-0.98,0.063-1.378,0.401c-0.398,0.336-0.638,0.811-0.722,1.425c-0.099,0.727-0.199,1.456-0.298,2.185
			c-0.029,0.213,0.003,0.373,0.095,0.477c0.092,0.104,0.26,0.169,0.5,0.201c0.146,0.019,0.29,0.039,0.436,0.057
			c-0.023,0.158-0.045,0.315-0.069,0.472c-1.103-0.147-2.206-0.284-3.311-0.409c0.02-0.158,0.038-0.315,0.059-0.473
			c0.145,0.017,0.29,0.033,0.435,0.05c0.22,0.024,0.391,0.004,0.516-0.067c0.124-0.07,0.195-0.167,0.211-0.293
			c0.167-1.271,0.33-2.54,0.493-3.812c0.032-0.253-0.016-0.452-0.148-0.6c-0.135-0.148-0.34-0.239-0.621-0.271
			c-0.109-0.012-0.221-0.025-0.331-0.038C126.099,128.131,126.115,127.995,126.132,127.858z"/>
		<path fill="#FFFFFF" d="M140.478,135.465c0.055,0.133,0.109,0.265,0.163,0.396c-0.392,0.248-0.784,0.33-1.176,0.253
			c-0.302-0.058-0.538-0.183-0.714-0.376c-0.174-0.194-0.298-0.497-0.375-0.914c-0.509,0.338-0.935,0.547-1.281,0.628
			c-0.346,0.08-0.743,0.082-1.189,0.005c-0.639-0.111-1.1-0.322-1.387-0.636c-0.287-0.315-0.396-0.673-0.324-1.077
			c0.107-0.609,0.582-1.055,1.43-1.326c0.848-0.271,1.933-0.358,3.25-0.25c0.059-0.294,0.118-0.589,0.178-0.885
			c0.064-0.316-0.021-0.611-0.255-0.888c-0.233-0.275-0.567-0.454-0.999-0.531c-0.398-0.071-0.758-0.056-1.074,0.044
			c-0.228,0.076-0.35,0.168-0.37,0.278c-0.012,0.062,0.025,0.169,0.11,0.321c0.102,0.189,0.141,0.349,0.116,0.478
			c-0.035,0.188-0.13,0.331-0.283,0.425c-0.154,0.096-0.337,0.126-0.551,0.09c-0.227-0.039-0.404-0.141-0.53-0.309
			c-0.126-0.167-0.171-0.36-0.133-0.582c0.073-0.413,0.395-0.749,0.969-1.005c0.573-0.254,1.279-0.309,2.111-0.159
			c0.769,0.139,1.325,0.399,1.668,0.774c0.341,0.38,0.465,0.787,0.374,1.218c-0.222,1.063-0.444,2.125-0.668,3.187
			c-0.059,0.282-0.056,0.5,0.016,0.651c0.067,0.156,0.181,0.249,0.336,0.28C140.062,135.591,140.258,135.561,140.478,135.465z
			 M138.79,132.58c-1.177-0.069-2.035,0.026-2.574,0.272c-0.402,0.189-0.644,0.512-0.729,0.972c-0.06,0.321-0.015,0.587,0.135,0.799
			c0.146,0.214,0.369,0.344,0.661,0.396c0.524,0.092,1.015-0.012,1.475-0.313c0.461-0.302,0.749-0.731,0.863-1.292
			C138.677,133.136,138.734,132.859,138.79,132.58z"/>
	</g>
</g>
</svg>
