<?xml version="1.0" encoding="utf-8"?>
<!-- Generator: Adobe Illustrator 16.0.4, SVG Export Plug-In . SVG Version: 6.00 Build 0)  -->
<!DOCTYPE svg PUBLIC "-//W3C//DTD SVG 1.1//EN" "http://www.w3.org/Graphics/SVG/1.1/DTD/svg11.dtd">
<svg version="1.1" id="Livello_1" xmlns="http://www.w3.org/2000/svg" xmlns:xlink="http://www.w3.org/1999/xlink" x="0px" y="0px"
	 width="210px" height="200px" viewBox="0 0 210 200" enable-background="new 0 0 210 200" xml:space="preserve">
<circle fill="#0572B7" cx="105" cy="100" r="84"/>
<circle fill="#0572B7" stroke="#FFFFFF" stroke-width="5" stroke-miterlimit="10" cx="105" cy="100" r="75.216"/>
<g>
	<g>
		<path fill="#55ABE0" stroke="#FFFFFF" stroke-miterlimit="10" d="M65.938,127.085l-8.353,1.761
			c4.722,8.347,11.686,15.49,20.472,20.428l1.18-8.916C73.711,136.958,69.212,132.376,65.938,127.085z"/>
		<path fill="#55ABE0" stroke="#FFFFFF" stroke-miterlimit="10" d="M79.714,64.14l-1.762-8.906
			c-8.346,4.721-15.488,11.686-20.427,20.473l8.917,1.732C69.841,71.911,74.423,67.413,79.714,64.14z"/>
		<path fill="#55ABE0" stroke="#FFFFFF" stroke-miterlimit="10" d="M143.212,76.808l8.354-1.207
			c-4.721-8.348-11.685-15.49-20.472-20.428l-1.18,8.363C135.441,66.934,139.94,71.517,143.212,76.808z"/>
		<path fill="#55ABE0" stroke="#FFFFFF" stroke-miterlimit="10" d="M95.226,147.021l-5.052,7.256
			c9.712,2.699,19.685,2.551,28.919-0.033l-5.078-7.247C107.962,148.437,101.541,148.511,95.226,147.021z"/>
		<path fill="#55ABE0" stroke="#FFFFFF" stroke-miterlimit="10" d="M156.595,87.705l-6.955,3.909
			c1.44,6.052,1.514,12.474,0.022,18.789l6.966,6.223C159.328,106.914,159.18,96.938,156.595,87.705z"/>
	</g>
	<path fill="#55ABE0" stroke="#FFFFFF" stroke-width="2" stroke-miterlimit="10" d="M112.116,73.646H88.041v58.177h13.757v-19.393
		h10.318c11.4,0,20.635-8.678,20.635-19.393S123.517,73.646,112.116,73.646z M112.804,99.502h-11.006V86.574h11.006
		c3.799,0,6.879,2.893,6.879,6.464C119.683,96.61,116.603,99.502,112.804,99.502z"/>
	<g>
		<g>
			<path fill="#FFFFFF" d="M62.595,90.234c1.289,0.03,2.367-0.993,2.396-2.288c0.029-1.297-0.999-2.368-2.288-2.398
				c-1.295-0.029-2.367,0.992-2.397,2.289C60.276,89.132,61.3,90.204,62.595,90.234z"/>
		</g>
		<g>
			<path fill="#FFFFFF" d="M62.935,99.487h6.355v-2.343h-4.722l-2.604-4.337c-0.384-0.65-1.093-1.08-1.901-1.08
				c-0.221,0-0.436,0.032-0.638,0.09l-7.064,2.201l-0.955,6.771h2.344l0.955-4.771l2.742-0.854l-5.086,19.948h2.344l3.737-10.56
				l3.034,4.05v6.51h2.343v-8.34l-3.242-5.912l0.958-3.735L62.935,99.487z"/>
		</g>
	</g>
	<path fill="#FFFFFF" d="M124.233,56.017c-0.981-3.08-3.608-5.095-6.572-5.062l-2.148,0.078l-0.68-1.706
		c-1.321-3.311-2.004-4.934-2.213-5.249c-0.208-0.315-0.232-0.319-2.189-0.319c-1.733,0-2.007,0.03-2.155,0.231
		c-0.242,0.317-0.229,0.513,0.074,0.816c0.233,0.232,0.439,0.262,1.756,0.262c1.04,0,1.531,0.05,1.616,0.164
		c0.147,0.195,0.694,1.531,0.694,1.691c0,0.062-2.742,0.11-6.093,0.11h-6.096l-0.259-0.514c-0.146-0.287-0.267-0.546-0.267-0.577
		c0-0.035,0.624-0.131,1.388-0.224c1.555-0.184,2.125-0.458,1.751-0.839c-0.167-0.173-0.635-0.213-2.714-0.238
		c-1.71-0.02-2.562,0.016-2.659,0.116c-0.079,0.079-0.126,0.374-0.103,0.654c0.037,0.45,0.074,0.706,0.49,0.657l0.63-0.081
		l0.819,1.544l-2.559,3.923c-1.824-0.547-3.48-0.671-5.354-0.067c-0.901,0.379-2.179,1.286-2.763,1.971
		c-0.765,0.893-1.365,2.244-1.545,3.479c-0.02,0.137-0.033,0.275-0.043,0.41v0.938c0.193,2.657,2.037,5.144,4.615,5.999
		c1.196,0.401,1.225,0.405,2.476,0.362c0.935-0.032,1.389-0.124,2.2-0.438c1.18-0.459,1.73-0.915,2.962-2.258
		c1.247-1.367,1.377-2.924,1.426-3.339c0.103-0.036,1.123-0.071,2.27-0.071h2.088l0.019,1.05c0.012,0.577-0.029,1.312-0.023,1.439
		c0.01,0.18-0.056,0.076-0.496,0.107c-0.499,0.033-0.562,0.075-0.524,0.327c0.031,0.23,0.142,0.3,0.552,0.331
		c0.28,0.025,0.959-0.083,1.129-0.126l0.035-3.168l0.883-1.1c0.502-0.635,0.959-1.213,1.013-1.283
		c0.057-0.074,0.313-0.398,0.57-0.724c0.255-0.324,1.456-1.843,2.667-3.376c1.211-1.531,2.24-2.787,2.294-2.787
		c0.056,0,0.161,0.135,0.237,0.3c0.47,0.984,0.721,1.642,0.78,2.023c0.063,0.374,0.028,0.444-0.274,0.56
		c-0.519,0.198-1.938,1.702-2.356,2.505c-0.523,1-0.87,2.277-0.87,3.229c0,1.405,0.946,3.726,1.914,4.689
		c2.631,2.631,6.422,2.869,9.286,0.588c1-0.89,1.848-2.055,2.255-3.34C124.445,58.747,124.483,56.794,124.233,56.017z
		 M97.294,53.462c0.921,0.834,1.812,1.658,1.978,3.495l-4.212,0.061L97.294,53.462z M93.595,62.978
		c-2.516-0.084-5.165-2.008-5.138-5.539c0.022-3.49,3.771-5.908,7.668-4.562c-1.025,1.809-3.382,4.9-3.097,5.291
		c0.295,0.407,0.853,0.271,3.5,0.271h2.815C99.057,62.346,95.127,63.026,93.595,62.978z M100.687,56.937
		c-0.381-1.876-1.46-3.381-2.753-4.767l1.842-3.038c0.077,0,0.425,0.516,0.776,1.144c0.353,0.633,1.337,2.385,2.191,3.893
		c0.854,1.506,1.538,2.808,1.477,2.808L100.687,56.937z M108.823,52.424c-0.095,0.111-0.471,0.626-0.87,1.112l-2.219,2.702
		l-0.002-1.694c0.339-0.01,1.027-0.005,1.004-0.437c-0.019-0.435-0.972-0.315-1.633-0.286l0.066,2.474l-4.057-7.95h5.324
		c4.473,0,5.324,0.031,5.324,0.186C111.762,48.672,110.264,50.655,108.823,52.424z M121.434,61.693
		c-1.398,1.352-3.437,1.899-5.23,1.407c-2.697-0.744-4.485-3.369-4.074-5.986c0.229-1.458,0.624-2.285,1.532-3.21
		c1.056-1.08,1.248-1.085,1.639-0.055c0.094,0.252,0.299,0.759,0.455,1.117c0.156,0.361,0.516,1.229,0.8,1.93
		c0.579,1.435,0.91,1.769,1.368,1.353c0.375-0.524,0.045-1.295-0.368-2.189c-0.222-0.404-1.338-3.413-1.338-3.609
		c0.313-0.312,1.038-0.16,1.476-0.146c1.255,0.056,1.587,0.12,2.243,0.425c0.972,0.454,2.231,1.715,2.687,2.693
		c0.301,0.648,0.542,0.9,0.559,2.39C123.36,59.321,122.414,60.616,121.434,61.693z"/>
	<path fill="#FFFFFF" d="M147.798,124.458c-0.936-1.6-2.049-1.948-3.838-2.408c-1.787-0.46-3.591-0.529-5.157-0.529
		s-3.369,0.069-5.157,0.529c-1.787,0.46-2.915,0.809-3.851,2.408c-0.937,1.6-1.637,9.74-1.637,10.16c0,0.422,0,9.192,0,9.192h1.116
		c0,0.559,0,2.46,0,2.48c0,0.787,1.166,1.427,1.953,1.427c0.788,0,1.954-0.64,1.954-1.427c0-0.021,0-1.922,0-2.48h11.432
		c0,0.559-0.002,2.207,0,2.228c0.181,1.427,1.518,1.553,2.305,1.553s1.334-0.513,1.334-1.3c0-0.021,0-1.922,0-2.48h1.176
		c0,0,0.002-8.313,0.002-8.773C149.43,134.578,148.734,126.058,147.798,124.458z M134.856,122.601h8.371v2.233h-8.371V122.601z
		 M132.159,142.202c-1.4,0-2.535-1.134-2.535-2.532s1.135-2.532,2.535-2.532c1.398,0,2.533,1.134,2.533,2.532
		S133.558,142.202,132.159,142.202z M129.825,134.322c0,0,0.587-6.768,1.216-7.396c0.627-0.628,14.896-0.554,15.522,0.075
		c0.63,0.627,1.214,7.321,1.214,7.321H129.825z M145.159,142.202c-1.398,0-2.535-1.134-2.535-2.532s1.137-2.532,2.535-2.532
		c1.396,0,2.533,1.134,2.533,2.532S146.556,142.202,145.159,142.202z"/>
</g>
<g>
	<g>
		<path fill="#328ACA" stroke="#FFFFFF" stroke-width="2" stroke-miterlimit="10" d="M194.752,156.26
			c-1.94-7.207-4.247-14.418-6.92-21.605c6.594-3.912,13.482-7.565,20.65-10.929C142.271,95.785,67.523,95.941,1.408,124.195
			c0.054,0.126,0.107,0.252,0.162,0.378c7.399,3.436,14.502,7.182,21.293,11.203c-2.494,6.798-4.659,13.618-6.498,20.434
			C73.398,132.18,137.728,132.196,194.752,156.26L194.752,156.26L194.752,156.26z"/>
	</g>
</g>
<g>
	<g>
		<path fill="#FFFFFF" d="M50.528,115.982c1.901-0.639,3.806-1.242,5.715-1.812c1.293-0.384,2.351-0.438,3.16-0.172
			c0.811,0.267,1.316,0.774,1.524,1.512c0.209,0.738,0.06,1.384-0.438,1.942c-0.686,0.768-1.634,1.328-2.857,1.694
			c-0.667,0.2-1.334,0.404-2.001,0.614c0.336,1.017,0.673,2.036,1.013,3.053c0.059,0.178,0.152,0.288,0.283,0.332
			c0.17,0.052,0.371,0.045,0.603-0.027c0.415-0.128,0.829-0.254,1.244-0.379c0.048,0.152,0.097,0.304,0.146,0.456
			c-1.75,0.525-3.496,1.082-5.239,1.668c-0.054-0.149-0.108-0.3-0.162-0.45c0.366-0.123,0.731-0.245,1.097-0.365
			c0.216-0.071,0.363-0.157,0.441-0.262c0.077-0.104,0.094-0.215,0.052-0.335c-0.819-2.367-1.628-4.736-2.427-7.106
			c-0.061-0.18-0.171-0.29-0.334-0.326c-0.163-0.036-0.434,0.008-0.81,0.132c-0.284,0.093-0.568,0.188-0.853,0.284
			C50.633,116.283,50.581,116.132,50.528,115.982z M55.487,119.319c0.508-0.16,1.017-0.316,1.527-0.471
			c0.967-0.291,1.616-0.658,1.95-1.104c0.332-0.445,0.39-1.042,0.17-1.786c-0.154-0.52-0.369-0.891-0.65-1.113
			c-0.279-0.223-0.63-0.345-1.053-0.367c-0.422-0.023-1.072,0.096-1.947,0.362c-0.578,0.175-0.93,0.332-1.057,0.464
			c-0.125,0.133-0.154,0.304-0.086,0.513C54.721,116.983,55.102,118.151,55.487,119.319z"/>
		<path fill="#FFFFFF" d="M70.881,119.415c0.116,0.096,0.232,0.192,0.348,0.289c-0.292,0.39-0.657,0.631-1.097,0.731
			c-0.337,0.076-0.638,0.065-0.907-0.034c-0.267-0.1-0.535-0.32-0.803-0.663c-0.373,0.524-0.717,0.896-1.039,1.121
			c-0.321,0.224-0.731,0.399-1.229,0.524c-0.711,0.18-1.287,0.193-1.729,0.037c-0.441-0.157-0.72-0.431-0.831-0.827
			c-0.167-0.595,0.123-1.207,0.88-1.825c0.757-0.617,1.845-1.171,3.258-1.643c-0.071-0.291-0.143-0.586-0.214-0.877
			c-0.076-0.314-0.296-0.544-0.664-0.692c-0.367-0.147-0.793-0.162-1.276-0.044c-0.446,0.109-0.813,0.28-1.096,0.509
			c-0.203,0.169-0.288,0.307-0.26,0.415c0.016,0.061,0.104,0.141,0.26,0.241c0.192,0.126,0.304,0.253,0.337,0.38
			c0.048,0.185,0.014,0.354-0.103,0.508c-0.116,0.153-0.292,0.264-0.531,0.323c-0.254,0.065-0.484,0.051-0.692-0.044
			c-0.208-0.095-0.342-0.249-0.401-0.466c-0.111-0.405,0.071-0.851,0.554-1.334c0.481-0.484,1.192-0.842,2.124-1.069
			c0.861-0.209,1.556-0.214,2.078-0.022c0.524,0.198,0.835,0.509,0.936,0.94c0.248,1.056,0.497,2.112,0.747,3.167
			c0.066,0.281,0.171,0.474,0.312,0.581c0.142,0.111,0.299,0.147,0.474,0.108C70.509,119.705,70.698,119.596,70.881,119.415z
			 M67.832,117.533c-1.249,0.446-2.097,0.908-2.545,1.366c-0.332,0.348-0.436,0.745-0.313,1.195
			c0.085,0.315,0.254,0.536,0.506,0.662c0.25,0.126,0.54,0.149,0.867,0.066c0.585-0.145,1.044-0.452,1.383-0.924
			c0.338-0.471,0.442-0.983,0.306-1.539C67.967,118.085,67.899,117.81,67.832,117.533z"/>
		<path fill="#FFFFFF" d="M70.745,114.024c0.861-0.219,1.724-0.433,2.587-0.638c0.157,0.787,0.316,1.573,0.476,2.359
			c0.117-0.83,0.335-1.482,0.649-1.956c0.313-0.473,0.761-0.762,1.342-0.869c0.393-0.069,0.725-0.029,0.994,0.124
			c0.27,0.153,0.433,0.392,0.49,0.717c0.047,0.264,0.005,0.48-0.125,0.654c-0.13,0.173-0.312,0.28-0.547,0.321
			c-0.231,0.041-0.428,0.012-0.591-0.087s-0.266-0.256-0.305-0.467c-0.026-0.138-0.01-0.274,0.05-0.41
			c0.056-0.122,0.083-0.192,0.08-0.214c-0.012-0.062-0.066-0.085-0.164-0.066c-0.212,0.038-0.434,0.181-0.662,0.432
			c-0.317,0.347-0.528,0.784-0.629,1.309c-0.157,0.813-0.186,1.447-0.095,1.9c0.084,0.418,0.169,0.835,0.254,1.252
			c0.028,0.142,0.11,0.237,0.245,0.289c0.135,0.051,0.346,0.049,0.635-0.007c0.297-0.056,0.594-0.112,0.891-0.166
			c0.03,0.157,0.06,0.312,0.09,0.469c-1.448,0.266-2.895,0.553-4.339,0.858c-0.034-0.155-0.069-0.311-0.104-0.466
			c0.232-0.049,0.464-0.097,0.696-0.146c0.233-0.047,0.402-0.124,0.505-0.224c0.104-0.101,0.144-0.206,0.121-0.313
			c-0.262-1.238-0.522-2.475-0.781-3.712c-0.059-0.281-0.177-0.473-0.354-0.573c-0.176-0.1-0.403-0.121-0.681-0.063
			c-0.211,0.044-0.422,0.088-0.633,0.133C70.809,114.318,70.777,114.171,70.745,114.024z"/>
		<path fill="#FFFFFF" d="M84.032,115.975c0.169,0.018,0.338,0.036,0.508,0.055c-0.232,1.255-1.003,1.969-2.328,2.163
			c-0.971,0.142-1.807-0.002-2.519-0.44c-0.71-0.439-1.149-1.102-1.304-1.994c-0.18-1.035,0.029-1.895,0.635-2.579
			c0.607-0.684,1.393-1.1,2.347-1.237c0.715-0.104,1.33-0.029,1.839,0.229c0.509,0.256,0.789,0.58,0.841,0.97
			c0.032,0.235-0.029,0.439-0.18,0.616c-0.15,0.175-0.344,0.279-0.578,0.311c-0.23,0.031-0.434-0.005-0.611-0.113
			c-0.177-0.107-0.278-0.252-0.305-0.437c-0.027-0.184,0.035-0.372,0.186-0.562c0.071-0.091,0.104-0.16,0.096-0.206
			c-0.017-0.121-0.134-0.225-0.352-0.312c-0.218-0.086-0.5-0.105-0.847-0.054c-0.631,0.092-1.081,0.351-1.346,0.773
			c-0.378,0.61-0.493,1.357-0.349,2.237c0.138,0.839,0.446,1.443,0.916,1.812c0.471,0.37,1.014,0.508,1.634,0.418
			C83.172,117.501,83.74,116.953,84.032,115.975z"/>
		<path fill="#FFFFFF" d="M84.346,108.246c0.935-0.153,1.87-0.298,2.807-0.436c0.165,1.52,0.332,3.037,0.5,4.556
			c0.337-0.445,0.716-0.792,1.136-1.035c0.42-0.245,0.879-0.39,1.372-0.435c0.467-0.044,0.898,0.011,1.287,0.159
			c0.302,0.118,0.57,0.349,0.804,0.691c0.233,0.344,0.369,0.759,0.408,1.248c0.075,0.939,0.151,1.877,0.227,2.816
			c0.015,0.181,0.082,0.308,0.198,0.383c0.117,0.073,0.293,0.1,0.528,0.083c0.201-0.015,0.401-0.03,0.603-0.043
			c0.011,0.158,0.022,0.318,0.034,0.476c-1.266,0.089-2.53,0.193-3.794,0.312c-0.015-0.158-0.031-0.316-0.046-0.475
			c0.141-0.013,0.281-0.026,0.421-0.039c0.32-0.03,0.539-0.091,0.654-0.189c0.115-0.098,0.165-0.231,0.149-0.404
			c-0.083-0.938-0.167-1.876-0.249-2.814c-0.044-0.495-0.222-0.865-0.539-1.116c-0.317-0.25-0.704-0.354-1.159-0.311
			c-0.358,0.035-0.681,0.145-0.968,0.333c-0.289,0.186-0.522,0.45-0.697,0.79c-0.177,0.341-0.244,0.687-0.205,1.041
			c0.087,0.786,0.175,1.572,0.263,2.359c0.024,0.21,0.093,0.354,0.209,0.432c0.114,0.077,0.292,0.103,0.533,0.077
			c0.201-0.021,0.401-0.042,0.602-0.062c0.016,0.158,0.032,0.316,0.049,0.474c-1.237,0.125-2.474,0.263-3.709,0.416
			c-0.021-0.157-0.041-0.314-0.061-0.473c0.14-0.018,0.28-0.035,0.42-0.052c0.287-0.034,0.483-0.105,0.592-0.214
			c0.109-0.108,0.152-0.261,0.128-0.459c-0.282-2.349-0.561-4.698-0.836-7.047c-0.029-0.251-0.134-0.431-0.315-0.536
			c-0.18-0.105-0.429-0.137-0.746-0.099c-0.179,0.021-0.358,0.044-0.538,0.066C84.386,108.561,84.366,108.403,84.346,108.246z"/>
		<path fill="#FFFFFF" d="M101.626,113.425c-1.711,0.042-3.422,0.108-5.133,0.204c0.076,0.903,0.315,1.529,0.713,1.881
			c0.455,0.396,1.014,0.581,1.681,0.552c0.983-0.041,1.755-0.536,2.332-1.496c0.167,0.055,0.333,0.11,0.499,0.166
			c-0.711,1.219-1.743,1.847-3.122,1.908c-0.94,0.042-1.744-0.205-2.425-0.742c-0.68-0.537-1.055-1.249-1.113-2.145
			c-0.064-0.962,0.209-1.762,0.828-2.394c0.619-0.631,1.415-0.973,2.376-1.014c0.708-0.031,1.326,0.094,1.849,0.374
			c0.524,0.281,0.921,0.693,1.192,1.242C101.495,112.346,101.602,112.834,101.626,113.425z M96.468,113.179
			c1.038-0.057,2.075-0.106,3.113-0.143c0.185-0.006,0.327-0.063,0.424-0.171c0.1-0.107,0.145-0.284,0.136-0.534
			c-0.015-0.465-0.204-0.854-0.571-1.168c-0.366-0.313-0.792-0.459-1.274-0.438c-0.541,0.023-0.99,0.241-1.344,0.654
			C96.599,111.79,96.438,112.392,96.468,113.179z"/>
		<path fill="#FFFFFF" d="M108.275,110.723c0.527-0.418,1.01-0.622,1.448-0.61c0.261,0.007,0.476,0.081,0.643,0.221
			c0.167,0.14,0.248,0.307,0.242,0.501c-0.005,0.158-0.066,0.285-0.187,0.385c-0.119,0.099-0.256,0.148-0.411,0.145
			c-0.295-0.009-0.49-0.161-0.587-0.46c-0.038-0.129-0.107-0.192-0.206-0.194c-0.176-0.005-0.371,0.086-0.581,0.273
			c0.217,0.254,0.365,0.474,0.444,0.66c0.078,0.187,0.115,0.385,0.11,0.596c-0.008,0.368-0.125,0.692-0.346,0.968
			c-0.22,0.276-0.58,0.518-1.079,0.728c-0.499,0.209-0.973,0.312-1.424,0.31c-0.277-0.001-0.553-0.001-0.83-0.002
			c-0.589,0-0.979,0.054-1.171,0.157c-0.192,0.107-0.287,0.264-0.285,0.466c0.001,0.164,0.081,0.291,0.237,0.379
			c0.158,0.087,0.452,0.129,0.886,0.129c0.622-0.012,1.244-0.021,1.866-0.025c0.943,0.009,1.62,0.156,2.028,0.428
			c0.409,0.274,0.604,0.642,0.593,1.103c-0.015,0.507-0.259,0.93-0.732,1.266c-0.66,0.476-1.625,0.705-2.906,0.7
			c-1.059-0.003-1.845-0.164-2.364-0.492c-0.408-0.257-0.616-0.548-0.621-0.874c-0.004-0.249,0.122-0.479,0.382-0.691
			c0.259-0.209,0.699-0.37,1.319-0.475c-0.496-0.099-0.872-0.245-1.124-0.438c-0.254-0.194-0.384-0.436-0.389-0.729
			c-0.004-0.271,0.095-0.508,0.298-0.712c0.203-0.203,0.558-0.378,1.065-0.527c-0.433-0.195-0.762-0.432-0.985-0.711
			c-0.223-0.279-0.337-0.601-0.342-0.963c-0.008-0.577,0.259-1.062,0.811-1.456c0.552-0.397,1.275-0.594,2.165-0.589
			c0.364,0.001,0.715,0.045,1.053,0.135C107.637,110.411,107.962,110.545,108.275,110.723z M106.647,116.322
			c-0.921-0.005-1.579,0.104-1.969,0.322c-0.391,0.218-0.584,0.481-0.581,0.786c0.003,0.286,0.152,0.512,0.445,0.675
			c0.388,0.218,0.935,0.326,1.646,0.329c0.851,0.003,1.491-0.107,1.926-0.342c0.435-0.232,0.658-0.498,0.664-0.793
			c0.004-0.174-0.061-0.336-0.192-0.489c-0.131-0.153-0.344-0.271-0.638-0.354C107.651,116.372,107.218,116.326,106.647,116.322z
			 M106.23,110.595c-0.462-0.001-0.844,0.135-1.143,0.414c-0.3,0.279-0.448,0.668-0.446,1.167c0.003,0.534,0.155,0.947,0.452,1.24
			c0.296,0.293,0.672,0.438,1.13,0.441c0.458,0.001,0.833-0.136,1.13-0.419c0.296-0.283,0.45-0.689,0.458-1.222
			c0.007-0.497-0.139-0.889-0.438-1.18C107.074,110.743,106.692,110.596,106.23,110.595z"/>
		<path fill="#FFFFFF" d="M116.832,111.086c0.548-0.392,1.044-0.568,1.48-0.535c0.261,0.02,0.472,0.103,0.632,0.253
			c0.161,0.149,0.232,0.32,0.215,0.514c-0.013,0.156-0.082,0.281-0.207,0.375c-0.125,0.094-0.265,0.135-0.419,0.123
			c-0.294-0.022-0.481-0.186-0.563-0.49c-0.031-0.13-0.097-0.196-0.195-0.205c-0.176-0.013-0.376,0.068-0.596,0.243
			c0.204,0.266,0.34,0.492,0.41,0.682c0.068,0.191,0.095,0.389,0.079,0.602c-0.027,0.368-0.161,0.684-0.396,0.948
			c-0.235,0.265-0.608,0.489-1.117,0.671c-0.511,0.183-0.99,0.261-1.44,0.236c-0.276-0.016-0.553-0.031-0.83-0.045
			c-0.589-0.031-0.981,0.003-1.178,0.096c-0.198,0.097-0.301,0.248-0.31,0.451c-0.007,0.163,0.065,0.294,0.217,0.391
			c0.153,0.095,0.445,0.153,0.878,0.174c0.623,0.02,1.245,0.044,1.867,0.072c0.943,0.059,1.613,0.238,2.006,0.533
			c0.395,0.295,0.571,0.672,0.534,1.131c-0.041,0.507-0.309,0.914-0.799,1.227c-0.686,0.442-1.664,0.619-2.944,0.55
			c-1.058-0.06-1.835-0.259-2.335-0.613c-0.394-0.277-0.585-0.579-0.573-0.905c0.009-0.25,0.147-0.473,0.418-0.671
			c0.27-0.196,0.718-0.333,1.344-0.406c-0.491-0.124-0.858-0.29-1.1-0.496c-0.243-0.207-0.361-0.455-0.35-0.747
			c0.011-0.27,0.122-0.502,0.336-0.696c0.212-0.195,0.577-0.35,1.092-0.472c-0.422-0.218-0.739-0.47-0.947-0.761
			c-0.208-0.29-0.305-0.616-0.291-0.979c0.022-0.576,0.315-1.048,0.887-1.412c0.572-0.366,1.305-0.527,2.195-0.477
			c0.363,0.02,0.713,0.083,1.046,0.188C116.21,110.741,116.528,110.89,116.832,111.086z M114.908,116.593
			c-0.921-0.055-1.584,0.023-1.986,0.221c-0.402,0.197-0.609,0.45-0.623,0.754c-0.013,0.287,0.124,0.52,0.408,0.698
			c0.375,0.237,0.917,0.373,1.627,0.413c0.85,0.048,1.496-0.03,1.943-0.243c0.448-0.21,0.685-0.462,0.707-0.758
			c0.013-0.174-0.042-0.339-0.166-0.498c-0.124-0.16-0.33-0.289-0.62-0.387C115.91,116.695,115.479,116.627,114.908,116.593z
			 M114.793,110.852c-0.462-0.026-0.851,0.093-1.165,0.354c-0.314,0.263-0.482,0.644-0.506,1.143
			c-0.025,0.533,0.104,0.953,0.386,1.261c0.281,0.308,0.649,0.473,1.107,0.499c0.457,0.025,0.84-0.095,1.151-0.36
			c0.311-0.267,0.486-0.667,0.522-1.198c0.033-0.493-0.091-0.894-0.375-1.201C115.629,111.044,115.256,110.878,114.793,110.852z"/>
		<path fill="#FFFFFF" d="M119.691,110.968c0.971,0.059,1.941,0.128,2.912,0.204c-0.177,1.697-0.356,3.393-0.537,5.089
			c-0.015,0.141,0.015,0.243,0.089,0.309c0.106,0.097,0.247,0.154,0.422,0.172c0.266,0.029,0.532,0.058,0.797,0.087
			c-0.018,0.157-0.037,0.316-0.055,0.473c-1.332-0.148-2.665-0.28-3.998-0.395c0.014-0.158,0.028-0.317,0.042-0.475
			c0.249,0.021,0.497,0.043,0.746,0.066c0.221,0.02,0.386-0.011,0.498-0.09c0.112-0.081,0.176-0.208,0.193-0.381
			c0.122-1.242,0.243-2.485,0.364-3.727c0.022-0.237-0.042-0.421-0.197-0.558c-0.153-0.134-0.394-0.218-0.72-0.248
			c-0.2-0.018-0.399-0.035-0.599-0.052C119.664,111.284,119.677,111.126,119.691,110.968z M122.063,107.622
			c0.24,0.022,0.442,0.117,0.607,0.277c0.165,0.161,0.237,0.339,0.218,0.533c-0.02,0.19-0.123,0.344-0.312,0.466
			c-0.187,0.121-0.402,0.17-0.644,0.146c-0.241-0.023-0.444-0.114-0.607-0.271c-0.163-0.159-0.236-0.331-0.219-0.521
			c0.018-0.189,0.124-0.348,0.318-0.474C121.618,107.651,121.831,107.598,122.063,107.622z"/>
		<path fill="#FFFFFF" d="M128.314,111.751c0.982,0.134,1.764,0.542,2.337,1.215c0.574,0.671,0.779,1.477,0.626,2.408
			c-0.106,0.643-0.342,1.17-0.705,1.576c-0.363,0.408-0.832,0.704-1.403,0.887c-0.574,0.185-1.164,0.236-1.778,0.151
			c-0.908-0.124-1.636-0.512-2.196-1.169c-0.561-0.656-0.792-1.447-0.681-2.372c0.111-0.929,0.526-1.646,1.255-2.146
			C126.498,111.802,127.349,111.618,128.314,111.751z M128.252,112.197c-0.58-0.079-1.085,0.07-1.513,0.449
			c-0.427,0.378-0.698,1.027-0.816,1.947c-0.121,0.937-0.028,1.644,0.273,2.121s0.733,0.755,1.297,0.833
			c0.586,0.08,1.091-0.065,1.521-0.444c0.429-0.378,0.723-1.055,0.875-2.034c0.141-0.908,0.06-1.591-0.248-2.052
			C129.333,112.556,128.868,112.283,128.252,112.197z"/>
		<path fill="#FFFFFF" d="M136.909,113.342c1.192,0.228,2.383,0.469,3.573,0.722c-0.031,0.141-0.062,0.281-0.093,0.422
			c-0.476-0.093-0.786-0.122-0.93-0.088c-0.145,0.033-0.228,0.105-0.252,0.216c-0.02,0.092-0.013,0.187,0.019,0.29
			c0.393,1.277,0.77,2.555,1.13,3.834c0.82-0.983,1.652-1.961,2.494-2.933c0.039-0.051,0.065-0.106,0.079-0.165
			c0.072-0.3-0.252-0.574-0.974-0.812c0.032-0.14,0.064-0.281,0.097-0.421c1,0.224,2,0.455,3,0.698
			c-0.035,0.141-0.07,0.279-0.105,0.419c-0.31-0.048-0.566-0.041-0.773,0.024c-0.206,0.065-0.38,0.176-0.521,0.333
			c-1.277,1.43-2.53,2.875-3.758,4.33c-0.134-0.028-0.269-0.059-0.403-0.087c-0.531-1.886-1.098-3.77-1.7-5.652
			c-0.066-0.204-0.165-0.355-0.296-0.457c-0.133-0.103-0.356-0.184-0.669-0.249C136.854,113.624,136.881,113.484,136.909,113.342z"
			/>
		<path fill="#FFFFFF" d="M145.6,115.237c0.966,0.214,1.933,0.435,2.898,0.666c-0.451,1.647-0.907,3.294-1.367,4.94
			c-0.038,0.135-0.025,0.241,0.039,0.319c0.092,0.111,0.224,0.191,0.397,0.238c0.263,0.07,0.525,0.143,0.788,0.213
			c-0.044,0.153-0.088,0.306-0.133,0.459c-1.317-0.361-2.636-0.704-3.957-1.029c0.041-0.154,0.081-0.308,0.121-0.462
			c0.246,0.061,0.492,0.122,0.739,0.184c0.219,0.056,0.39,0.052,0.516-0.01c0.125-0.062,0.21-0.177,0.256-0.346
			c0.326-1.208,0.65-2.414,0.972-3.623c0.061-0.231,0.026-0.423-0.108-0.583c-0.132-0.158-0.361-0.278-0.684-0.359
			c-0.198-0.049-0.396-0.099-0.594-0.147C145.522,115.545,145.561,115.391,145.6,115.237z M148.522,112.31
			c0.238,0.06,0.427,0.186,0.567,0.371c0.141,0.184,0.186,0.373,0.135,0.561c-0.05,0.184-0.179,0.321-0.389,0.41
			c-0.208,0.089-0.433,0.104-0.672,0.042c-0.239-0.062-0.429-0.184-0.568-0.365s-0.186-0.365-0.137-0.55
			c0.047-0.183,0.179-0.324,0.395-0.417C148.068,112.266,148.291,112.25,148.522,112.31z"/>
		<path fill="#FFFFFF" d="M156.568,123.903c0.049,0.141,0.098,0.283,0.147,0.424c-0.465,0.182-0.915,0.202-1.351,0.061
			c-0.334-0.107-0.59-0.271-0.769-0.493c-0.177-0.221-0.291-0.547-0.338-0.976c-0.605,0.257-1.105,0.399-1.503,0.426
			c-0.399,0.027-0.846-0.033-1.343-0.179c-0.709-0.21-1.21-0.49-1.504-0.848c-0.294-0.357-0.385-0.732-0.269-1.127
			c0.176-0.594,0.751-0.969,1.732-1.112c0.981-0.142,2.215-0.062,3.693,0.256c0.094-0.286,0.189-0.572,0.283-0.858
			c0.101-0.306,0.032-0.617-0.208-0.931c-0.24-0.313-0.602-0.544-1.083-0.69c-0.443-0.133-0.851-0.174-1.217-0.123
			c-0.265,0.041-0.412,0.115-0.444,0.222c-0.018,0.059,0.013,0.174,0.096,0.339c0.098,0.205,0.128,0.371,0.089,0.496
			c-0.056,0.184-0.176,0.311-0.358,0.383c-0.183,0.074-0.392,0.075-0.63,0.006c-0.253-0.073-0.443-0.202-0.572-0.39
			c-0.128-0.186-0.161-0.387-0.098-0.603c0.12-0.403,0.513-0.691,1.184-0.86c0.67-0.168,1.474-0.114,2.401,0.167
			c0.857,0.26,1.464,0.609,1.816,1.042c0.352,0.436,0.455,0.862,0.314,1.282c-0.349,1.031-0.699,2.059-1.051,3.088
			c-0.094,0.273-0.108,0.493-0.044,0.655c0.062,0.168,0.181,0.278,0.354,0.335C156.086,123.959,156.311,123.961,156.568,123.903z
			 M154.931,120.735c-1.323-0.256-2.301-0.294-2.932-0.13c-0.471,0.127-0.774,0.415-0.911,0.861
			c-0.096,0.313-0.069,0.587,0.08,0.822c0.147,0.236,0.384,0.402,0.71,0.499c0.582,0.173,1.144,0.145,1.691-0.083
			c0.547-0.229,0.913-0.613,1.093-1.158C154.752,121.276,154.842,121.005,154.931,120.735z"/>
		<path fill="#FFFFFF" d="M62.063,128.764c1.162-0.34,2.326-0.666,3.491-0.977c1.733,2.104,3.42,4.231,5.06,6.382
			c0.267-2.62,0.594-5.243,0.98-7.868c1.197-0.271,2.395-0.523,3.595-0.765c0.033,0.156,0.067,0.311,0.1,0.466
			c-0.292,0.059-0.584,0.119-0.876,0.178c-0.309,0.064-0.507,0.146-0.596,0.249c-0.088,0.101-0.111,0.248-0.066,0.441
			c0.55,2.422,1.108,4.841,1.673,7.262c0.034,0.145,0.12,0.244,0.258,0.296c0.14,0.053,0.355,0.049,0.65-0.012
			c0.252-0.052,0.504-0.103,0.756-0.154c0.035,0.156,0.069,0.312,0.103,0.466c-1.505,0.302-3.007,0.629-4.507,0.98
			c-0.04-0.154-0.08-0.309-0.12-0.463c0.282-0.066,0.563-0.131,0.845-0.195c0.242-0.055,0.41-0.137,0.505-0.248
			c0.095-0.111,0.127-0.231,0.095-0.363c-0.634-2.59-1.26-5.18-1.878-7.771c-0.468,3.154-0.852,6.304-1.146,9.448
			c-0.149,0.038-0.298,0.074-0.447,0.111c-1.958-2.571-3.983-5.109-6.073-7.612c0.653,2.188,1.314,4.375,1.982,6.56
			c0.12,0.391,0.262,0.667,0.428,0.832c0.166,0.163,0.362,0.271,0.591,0.321c0.229,0.05,0.574,0.025,1.038-0.072
			c0.045,0.154,0.09,0.306,0.135,0.46c-1.231,0.326-2.461,0.668-3.688,1.028c-0.049-0.152-0.099-0.304-0.149-0.456
			c0.594-0.213,0.967-0.449,1.12-0.714c0.153-0.264,0.15-0.654-0.01-1.171c-0.643-2.071-1.28-4.144-1.91-6.217
			c-0.047-0.153-0.134-0.252-0.264-0.292c-0.13-0.042-0.344-0.019-0.64,0.065c-0.296,0.084-0.593,0.17-0.89,0.257
			C62.16,129.068,62.111,128.916,62.063,128.764z"/>
		<path fill="#FFFFFF" d="M79.813,127.999c0.883-0.154,1.675,0.011,2.368,0.487c0.694,0.477,1.113,1.184,1.266,2.116
			c0.106,0.645,0.066,1.212-0.117,1.705c-0.183,0.494-0.489,0.909-0.917,1.249c-0.43,0.34-0.915,0.558-1.463,0.652
			c-0.81,0.141-1.551-0.021-2.236-0.487c-0.684-0.466-1.13-1.152-1.324-2.064c-0.195-0.915-0.062-1.72,0.41-2.403
			C78.27,128.568,78.945,128.149,79.813,127.999z M79.896,128.442c-0.521,0.09-0.909,0.379-1.158,0.861
			c-0.25,0.483-0.281,1.181-0.097,2.09c0.188,0.927,0.487,1.574,0.894,1.943c0.406,0.369,0.859,0.509,1.364,0.422
			c0.523-0.089,0.906-0.375,1.154-0.858c0.249-0.483,0.29-1.213,0.12-2.19c-0.158-0.905-0.436-1.535-0.839-1.885
			C80.93,128.475,80.45,128.346,79.896,128.442z"/>
		<path fill="#FFFFFF" d="M83.918,127.525c0.72-0.146,1.439-0.285,2.161-0.42c0.14,0.357,0.266,0.781,0.376,1.271
			c0.232-0.466,0.535-0.83,0.905-1.093c0.372-0.262,0.811-0.423,1.316-0.48c0.436-0.05,0.81-0.012,1.122,0.11
			c0.312,0.122,0.575,0.342,0.786,0.657c0.213,0.314,0.341,0.679,0.385,1.092c0.102,0.959,0.205,1.92,0.308,2.879
			c0.023,0.215,0.091,0.362,0.204,0.442c0.114,0.08,0.292,0.108,0.534,0.085c0.148-0.014,0.296-0.027,0.444-0.041
			c0.016,0.159,0.031,0.316,0.046,0.475c-1.106,0.101-2.211,0.214-3.316,0.34c-0.02-0.158-0.04-0.315-0.059-0.473
			c0.105-0.013,0.211-0.024,0.316-0.036c0.297-0.033,0.498-0.1,0.605-0.201c0.106-0.101,0.149-0.24,0.129-0.416
			c-0.098-0.844-0.195-1.688-0.292-2.53c-0.063-0.55-0.203-0.95-0.419-1.194c-0.304-0.351-0.723-0.496-1.253-0.434
			c-0.526,0.061-0.94,0.305-1.238,0.732c-0.298,0.425-0.403,0.944-0.317,1.558c0.102,0.728,0.204,1.456,0.306,2.184
			c0.03,0.212,0.104,0.359,0.223,0.436c0.119,0.077,0.298,0.098,0.541,0.068c0.146-0.018,0.292-0.036,0.438-0.054
			c0.021,0.158,0.042,0.315,0.062,0.474c-1.109,0.135-2.218,0.282-3.326,0.442c-0.025-0.158-0.05-0.314-0.075-0.471
			c0.146-0.022,0.291-0.042,0.437-0.062c0.22-0.031,0.381-0.095,0.483-0.196c0.101-0.099,0.143-0.211,0.124-0.337
			c-0.189-1.268-0.378-2.535-0.565-3.803c-0.037-0.251-0.14-0.432-0.311-0.54c-0.171-0.109-0.397-0.145-0.681-0.104
			c-0.112,0.017-0.224,0.032-0.335,0.048C83.96,127.797,83.939,127.661,83.918,127.525z"/>
		<path fill="#FFFFFF" d="M94.236,123.956c0.16-0.012,0.319-0.024,0.479-0.035c0.061,0.807,0.122,1.613,0.183,2.419
			c0.71-0.05,1.42-0.096,2.13-0.136c0.012,0.195,0.023,0.388,0.035,0.583c-0.708,0.04-1.414,0.085-2.121,0.135
			c0.096,1.268,0.193,2.536,0.291,3.804c0.025,0.33,0.13,0.576,0.309,0.739c0.18,0.163,0.398,0.236,0.655,0.22
			c0.307-0.02,0.558-0.167,0.758-0.448c0.199-0.278,0.299-0.726,0.298-1.34c0.153-0.01,0.306-0.018,0.459-0.025
			c0.018,0.792-0.142,1.388-0.473,1.791c-0.332,0.403-0.778,0.621-1.343,0.659c-0.519,0.034-0.936-0.069-1.252-0.315
			c-0.317-0.246-0.495-0.585-0.532-1.019c-0.114-1.326-0.226-2.653-0.338-3.979c-0.38,0.029-0.759,0.061-1.139,0.094
			c-0.014-0.148-0.027-0.296-0.042-0.444c0.513-0.125,0.894-0.352,1.141-0.686C94.1,125.476,94.27,124.802,94.236,123.956z"/>
		<path fill="#FFFFFF" d="M104.498,128.982c-1.539,0.011-3.079,0.046-4.617,0.104c0.06,0.904,0.268,1.535,0.622,1.896
			c0.404,0.404,0.903,0.601,1.501,0.585c0.882-0.021,1.581-0.503,2.112-1.452c0.149,0.057,0.297,0.115,0.445,0.174
			c-0.656,1.207-1.589,1.817-2.825,1.85c-0.843,0.022-1.561-0.241-2.167-0.791c-0.605-0.551-0.936-1.271-0.982-2.168
			c-0.049-0.964,0.202-1.756,0.767-2.375c0.563-0.618,1.285-0.942,2.153-0.965c0.639-0.019,1.195,0.121,1.664,0.408
			c0.468,0.29,0.821,0.71,1.057,1.264C104.395,127.901,104.484,128.389,104.498,128.982z M99.861,128.637
			c0.934-0.037,1.868-0.062,2.802-0.081c0.166-0.003,0.294-0.059,0.384-0.164c0.09-0.105,0.134-0.283,0.129-0.532
			c-0.008-0.466-0.173-0.859-0.499-1.179c-0.327-0.32-0.709-0.474-1.144-0.462c-0.487,0.013-0.896,0.222-1.219,0.627
			C99.993,127.253,99.841,127.851,99.861,128.637z"/>
		<path fill="#FFFFFF" d="M109.812,122.583c1.852,0.051,3.704,0.137,5.555,0.256c1.09,0.07,1.909,0.347,2.448,0.813
			c0.54,0.467,0.776,1.022,0.717,1.658c-0.049,0.53-0.289,0.964-0.714,1.302c-0.426,0.338-1.04,0.584-1.842,0.744
			c0.958,0.253,1.659,0.607,2.105,1.046c0.447,0.439,0.636,0.965,0.576,1.572c-0.045,0.463-0.22,0.864-0.524,1.197
			c-0.304,0.335-0.778,0.6-1.422,0.801c-0.644,0.2-1.358,0.275-2.148,0.224c-1.678-0.105-3.356-0.182-5.035-0.229
			c0.005-0.159,0.01-0.317,0.015-0.477c0.275,0.007,0.55,0.016,0.826,0.025c0.248,0.01,0.429-0.021,0.548-0.094
			c0.118-0.072,0.179-0.156,0.183-0.254c0.106-2.505,0.21-5.011,0.313-7.517c0.007-0.178-0.047-0.314-0.162-0.409
			c-0.116-0.096-0.289-0.147-0.519-0.155c-0.312-0.012-0.623-0.02-0.935-0.029C109.803,122.9,109.807,122.742,109.812,122.583z
			 M112.773,127.01c0.653,0.031,1.305,0.068,1.957,0.108c0.6,0.039,1.09-0.089,1.472-0.384c0.383-0.294,0.604-0.806,0.663-1.535
			c0.036-0.451-0.022-0.809-0.176-1.074s-0.393-0.468-0.716-0.607c-0.324-0.137-0.895-0.235-1.714-0.281
			c-0.579-0.033-0.939-0.015-1.083,0.053c-0.143,0.065-0.218,0.192-0.228,0.379C112.89,124.782,112.833,125.896,112.773,127.01z
			 M112.749,127.486c-0.064,1.204-0.127,2.409-0.191,3.613c-0.009,0.17,0.036,0.298,0.138,0.388c0.101,0.09,0.29,0.142,0.564,0.156
			c0.403,0.021,0.806,0.045,1.208,0.07c0.801,0.049,1.405-0.074,1.816-0.375c0.412-0.303,0.649-0.802,0.709-1.502
			c0.055-0.642-0.104-1.164-0.481-1.562c-0.376-0.398-0.927-0.625-1.646-0.669C114.16,127.56,113.454,127.521,112.749,127.486z"/>
		<path fill="#FFFFFF" d="M126.024,132.721c0.062,0.128,0.125,0.257,0.187,0.386c-0.377,0.269-0.762,0.375-1.159,0.318
			c-0.304-0.042-0.548-0.153-0.734-0.335c-0.185-0.182-0.329-0.479-0.431-0.89c-0.487,0.366-0.898,0.6-1.239,0.701
			s-0.737,0.127-1.188,0.077c-0.644-0.072-1.118-0.252-1.426-0.548c-0.307-0.296-0.441-0.646-0.397-1.054
			c0.065-0.614,0.509-1.089,1.34-1.412c0.831-0.322,1.914-0.475,3.241-0.443c0.041-0.298,0.082-0.595,0.123-0.894
			c0.044-0.317-0.06-0.609-0.312-0.872c-0.253-0.262-0.6-0.42-1.04-0.471c-0.405-0.046-0.766-0.011-1.076,0.107
			c-0.225,0.092-0.342,0.19-0.354,0.301c-0.007,0.062,0.037,0.167,0.133,0.314c0.115,0.182,0.165,0.34,0.149,0.469
			c-0.023,0.191-0.108,0.338-0.256,0.442c-0.148,0.106-0.33,0.148-0.546,0.125c-0.23-0.025-0.415-0.116-0.553-0.275
			s-0.197-0.349-0.172-0.572c0.045-0.417,0.345-0.771,0.904-1.063c0.559-0.29,1.266-0.387,2.113-0.286
			c0.783,0.093,1.36,0.321,1.728,0.677c0.367,0.36,0.517,0.758,0.453,1.194c-0.158,1.073-0.316,2.146-0.475,3.219
			c-0.042,0.285-0.023,0.501,0.055,0.649c0.078,0.152,0.196,0.238,0.353,0.259C125.616,132.868,125.811,132.828,126.024,132.721z
			 M124.16,129.937c-1.184,0-2.037,0.146-2.561,0.424c-0.391,0.213-0.611,0.552-0.665,1.014c-0.038,0.324,0.025,0.587,0.188,0.79
			c0.162,0.204,0.391,0.32,0.687,0.354c0.529,0.061,1.012-0.073,1.452-0.4c0.441-0.328,0.703-0.774,0.781-1.339
			C124.082,130.499,124.121,130.218,124.16,129.937z"/>
		<path fill="#FFFFFF" d="M130.991,124.535c-0.505,2.832-1.019,5.664-1.54,8.495c-0.021,0.116,0,0.214,0.065,0.288
			c0.096,0.102,0.226,0.167,0.387,0.195c0.221,0.039,0.442,0.076,0.664,0.115c-0.03,0.156-0.061,0.312-0.091,0.469
			c-1.184-0.208-2.368-0.401-3.553-0.581c0.026-0.157,0.052-0.313,0.078-0.47c0.21,0.031,0.42,0.064,0.631,0.096
			c0.207,0.032,0.368,0.011,0.485-0.064c0.117-0.077,0.19-0.197,0.22-0.365c0.416-2.379,0.827-4.76,1.233-7.141
			c0.036-0.208-0.002-0.371-0.115-0.487c-0.153-0.162-0.359-0.262-0.616-0.302c-0.201-0.03-0.4-0.061-0.601-0.091
			c0.025-0.157,0.05-0.313,0.075-0.471C129.205,124.317,130.098,124.421,130.991,124.535z"/>
		<path fill="#FFFFFF" d="M136.855,125.742c0.88,0.146,1.759,0.299,2.639,0.46c-0.639,2.643-1.287,5.284-1.944,7.926
			c-0.077,0.309-0.068,0.543,0.026,0.704c0.094,0.161,0.268,0.27,0.521,0.329c0.145,0.033,0.29,0.066,0.434,0.101
			c-0.04,0.155-0.08,0.309-0.12,0.463c-0.709-0.167-1.419-0.327-2.129-0.483c0.042-0.407,0.083-0.812,0.124-1.218
			c-0.357,0.365-0.729,0.619-1.12,0.76c-0.391,0.141-0.795,0.169-1.217,0.083c-0.711-0.144-1.256-0.539-1.644-1.191
			c-0.388-0.652-0.495-1.435-0.312-2.349c0.198-0.989,0.686-1.72,1.476-2.182c0.619-0.361,1.276-0.473,1.959-0.333
			c0.419,0.084,0.775,0.256,1.064,0.512c0.29,0.256,0.513,0.6,0.668,1.028c0.258-1.092,0.515-2.183,0.771-3.276
			c0.041-0.173-0.004-0.331-0.135-0.463c-0.131-0.135-0.359-0.236-0.688-0.306c-0.159-0.034-0.318-0.066-0.477-0.1
			C136.786,126.053,136.82,125.897,136.855,125.742z M135.623,129.365c-0.501-0.103-0.94,0.003-1.312,0.315
			c-0.372,0.312-0.648,0.906-0.833,1.782c-0.2,0.951-0.195,1.648,0.013,2.092c0.208,0.446,0.537,0.712,0.992,0.806
			c0.487,0.101,0.952-0.029,1.402-0.387c0.449-0.358,0.774-0.95,0.972-1.78c0.187-0.785,0.145-1.443-0.134-1.975
			C136.483,129.751,136.114,129.465,135.623,129.365z"/>
		<path fill="#FFFFFF" d="M143.711,130.706c0.876,0.229,1.529,0.707,1.95,1.425c0.422,0.718,0.486,1.532,0.201,2.437
			c-0.196,0.625-0.494,1.121-0.887,1.49s-0.866,0.615-1.413,0.743c-0.55,0.128-1.093,0.122-1.635-0.021
			c-0.803-0.21-1.403-0.664-1.812-1.367c-0.408-0.705-0.5-1.507-0.263-2.411c0.238-0.907,0.722-1.577,1.458-2
			C142.045,130.582,142.849,130.48,143.711,130.706z M143.586,131.141c-0.517-0.135-1-0.037-1.445,0.296
			c-0.446,0.332-0.788,0.948-1.034,1.846c-0.25,0.915-0.272,1.621-0.071,2.123c0.201,0.502,0.55,0.816,1.049,0.947
			c0.519,0.136,0.999,0.038,1.448-0.294c0.448-0.331,0.821-0.973,1.11-1.925c0.268-0.881,0.297-1.567,0.086-2.05
			C144.519,131.599,144.136,131.284,143.586,131.141z"/>
	</g>
</g>
</svg>
