<?xml version="1.0" encoding="utf-8"?>
<!-- Generator: Adobe Illustrator 16.0.4, SVG Export Plug-In . SVG Version: 6.00 Build 0)  -->
<!DOCTYPE svg PUBLIC "-//W3C//DTD SVG 1.1//EN" "http://www.w3.org/Graphics/SVG/1.1/DTD/svg11.dtd">
<svg version="1.1" id="Livello_1" xmlns="http://www.w3.org/2000/svg" xmlns:xlink="http://www.w3.org/1999/xlink" x="0px" y="0px"
	 width="225.205px" height="214.48px" viewBox="0 0 225.205 214.48" enable-background="new 0 0 225.205 214.48"
	 xml:space="preserve">
<circle fill="#FFFFFF" stroke="#622E88" stroke-width="4" stroke-miterlimit="10" cx="112.13" cy="104.723" r="82.153"/>
<path fill="#926F34" d="M98.593,32.76c-7.637,1.504-14.855,4.161-21.472,7.785l20.294,42.714h1.809l10.134-27.842L98.593,32.76z"/>
<polygon fill="none" points="109.357,54.832 99.224,82.674 122.584,82.674 "/>
<path fill="#A67D3C" d="M111.577,95.731c-9.469,0-17.142-4.691-17.142-10.481s7.673-10.481,17.142-10.481
	s17.142,4.691,17.142,10.481S121.046,95.731,111.577,95.731z M111.577,70.575c-13.251,0-23.999,6.572-23.999,14.675
	c0,8.104,10.748,14.675,23.999,14.675c13.252,0,23.999-6.571,23.999-14.675C135.576,77.147,124.829,70.575,111.577,70.575z"/>
<g>
	<path fill="#A67D3C" d="M112.716,88.938c-21.521,0-38.973,17.571-38.973,39.238s17.452,39.238,38.973,39.238
		c21.52,0,38.974-17.571,38.974-39.238S134.235,88.938,112.716,88.938z M112.716,156.204c-15.377,0-27.838-12.549-27.838-28.028
		c0-15.481,12.461-28.028,27.838-28.028s27.838,12.547,27.838,28.028C140.554,143.655,128.093,156.204,112.716,156.204z"/>
	<g>
		<path fill="#C19751" d="M112.724,89.087c0,0-0.958,0.046-2.756,0.132c-0.447,0.034-0.955,0.019-1.499,0.1
			c-0.544,0.082-1.137,0.172-1.779,0.269c-0.639,0.109-1.336,0.175-2.062,0.338c-0.721,0.188-1.487,0.389-2.297,0.601
			c-3.197,0.929-7.064,2.378-10.887,5.059c-3.833,2.615-7.735,6.273-10.794,11.092c-3.037,4.809-5.27,10.696-5.952,17.149
			c-0.114,0.802-0.083,1.623-0.133,2.441c-0.007,0.808-0.116,1.671-0.041,2.446c0.118,1.681,0.118,3.432,0.46,5.061
			c0.417,3.328,1.525,6.682,2.893,9.9c0.385,0.791,0.772,1.584,1.161,2.381c0.388,0.797,0.909,1.525,1.358,2.295l0.701,1.143
			c0.25,0.371,0.535,0.72,0.801,1.081c0.55,0.71,1.064,1.451,1.645,2.143c2.35,2.752,5.115,5.176,8.148,7.256
			c3.085,2.013,6.478,3.558,10.016,4.677c3.543,1.044,7.349,1.504,10.947,1.567c3.927-0.134,7.438-0.652,11.013-1.75
			c3.501-1.175,6.84-2.767,9.859-4.811c2.97-2.11,5.65-4.557,7.934-7.294c2.196-2.8,4.107-5.78,5.459-8.967
			c1.332-3.176,2.406-6.438,2.808-9.749c0.333-1.637,0.318-3.293,0.431-4.917l0.03-0.536l-0.023-0.631l-0.047-1.257
			c-0.049-0.823-0.021-1.692-0.133-2.461c-0.108-0.772-0.215-1.539-0.322-2.3c-0.059-0.381-0.088-0.762-0.17-1.141l-0.269-1.132
			c-0.174-0.754-0.348-1.502-0.52-2.244c-0.22-0.729-0.482-1.439-0.717-2.152c-0.94-2.855-2.279-5.455-3.696-7.875
			c-2.954-4.782-6.746-8.462-10.497-11.125c-3.742-2.726-7.563-4.231-10.733-5.207c-0.804-0.224-1.565-0.435-2.281-0.634
			c-0.722-0.174-1.417-0.248-2.055-0.365c-0.64-0.105-1.232-0.203-1.775-0.293c-0.543-0.089-1.046-0.079-1.491-0.119
			c-1.789-0.11-2.743-0.169-2.743-0.169L112.724,89.087z M112.716,88.787c0,0,0.963,0.039,2.768,0.111
			c0.451,0.031,0.959,0.011,1.509,0.089c0.55,0.079,1.151,0.165,1.8,0.257c0.646,0.105,1.353,0.166,2.087,0.326
			c0.732,0.176,1.51,0.363,2.332,0.561c3.247,0.881,7.197,2.239,11.215,4.791c4.011,2.518,8.173,6.098,11.581,10.941
			c3.39,4.857,5.975,10.864,6.858,17.789c0.139,0.86,0.128,1.662,0.201,2.504l0.079,1.255l0.04,0.631
			c-0.001-0.041,0.007,0.144,0.004,0.155l-0.003,0.082l-0.008,0.164l-0.015,0.328c-0.101,1.752-0.083,3.538-0.422,5.31
			c-0.414,3.579-1.538,7.121-2.96,10.571c-0.408,0.842-0.817,1.687-1.228,2.535c-0.413,0.848-0.96,1.625-1.438,2.444l-0.745,1.217
			c-0.265,0.396-0.565,0.767-0.848,1.152c-0.582,0.757-1.131,1.546-1.747,2.282c-2.487,2.938-5.44,5.51-8.672,7.717
			c-3.286,2.139-6.9,3.782-10.671,4.965c-3.762,1.106-7.907,1.605-11.655,1.647l-3.022-0.169c-0.99-0.018-1.964-0.195-2.938-0.354
			l-1.461-0.236l-0.73-0.119l-0.715-0.189l-2.854-0.762c-3.734-1.237-7.294-2.927-10.515-5.098
			c-3.168-2.237-6.036-4.831-8.458-7.755c-0.599-0.734-1.13-1.52-1.694-2.272c-0.273-0.383-0.565-0.752-0.821-1.145l-0.718-1.208
			c-0.46-0.813-0.991-1.584-1.386-2.423c-0.395-0.84-0.787-1.676-1.178-2.508c-1.386-3.407-2.476-6.856-2.874-10.419
			c-0.331-1.781-0.298-3.471-0.394-5.166c-0.006-0.229-0.023-0.384-0.022-0.672l0.04-0.643l0.08-1.279
			c0.071-0.847,0.064-1.696,0.201-2.524c0.87-6.665,3.318-12.68,6.6-17.481c3.302-4.809,7.353-8.411,11.282-10.976
			c3.938-2.598,7.841-4.012,11.062-4.94c0.816-0.209,1.588-0.407,2.315-0.594c0.73-0.17,1.435-0.24,2.08-0.354
			c0.648-0.102,1.247-0.195,1.796-0.281s1.053-0.072,1.501-0.109c1.796-0.097,2.754-0.147,2.754-0.147L112.716,88.787z"/>
		<path fill="#C19751" d="M112.708,156.354c0,0-0.684-0.037-1.967-0.107c-0.321-0.027-0.68-0.018-1.073-0.079
			c-0.393-0.062-0.822-0.13-1.286-0.202c-0.461-0.082-0.966-0.134-1.488-0.255c-0.52-0.134-1.072-0.274-1.656-0.424
			c-2.305-0.663-5.098-1.667-7.928-3.511c-2.821-1.825-5.736-4.39-8.129-7.824c-2.379-3.43-4.158-7.744-4.806-12.535
			c-0.101-0.596-0.099-1.206-0.153-1.815c-0.021-0.623-0.127-1.199-0.078-1.873c0.065-1.214,0.037-2.412,0.271-3.706
			c0.281-2.578,1.057-5.057,2.049-7.517c1.026-2.449,2.479-4.745,4.159-6.899c1.74-2.114,3.804-3.991,6.086-5.611
			c2.32-1.573,4.887-2.801,7.583-3.701c1.371-0.371,2.739-0.781,4.159-0.955c0.704-0.117,1.408-0.246,2.123-0.262l2.201-0.127
			c2.651,0.018,5.703,0.37,8.417,1.161c2.732,0.845,5.354,2.026,7.739,3.567c2.346,1.59,4.495,3.444,6.3,5.573
			c1.75,2.165,3.277,4.484,4.367,6.976c1.028,2.503,1.838,5.073,2.135,7.668c0.243,1.285,0.229,2.579,0.3,3.849l0.01,0.238
			l0.005,0.119l0.003,0.06l-0.004,0.133l-0.031,0.449l-0.061,0.896c-0.055,0.604-0.05,1.168-0.152,1.795
			c-0.661,5.051-2.576,9.358-5.063,12.844c-2.499,3.469-5.524,6.013-8.426,7.789c-2.91,1.798-5.75,2.747-8.081,3.362
			c-0.59,0.138-1.147,0.268-1.673,0.39c-0.526,0.112-1.032,0.154-1.496,0.228c-0.465,0.064-0.895,0.124-1.289,0.178
			c-0.394,0.055-0.758,0.039-1.081,0.06c-1.292,0.046-1.98,0.071-1.98,0.071L112.708,156.354z M112.716,156.054
			c0,0,0.68-0.044,1.956-0.129c0.317-0.029,0.676-0.024,1.063-0.089c0.386-0.065,0.809-0.137,1.265-0.215
			c0.454-0.085,0.949-0.141,1.463-0.266c0.509-0.146,1.05-0.301,1.622-0.464c2.254-0.71,4.965-1.806,7.599-3.778
			c2.642-1.923,5.298-4.565,7.343-7.974c0.982-1.723,1.897-3.571,2.543-5.59c0.161-0.504,0.341-1.006,0.491-1.521
			c0.116-0.524,0.233-1.053,0.351-1.585c0.296-1.063,0.337-2.124,0.514-3.201c0.076-0.537,0.054-1.167,0.086-1.752l0.029-0.898
			l0.014-0.451c0.002-0.086,0,0.054-0.001,0.02l-0.003-0.053l-0.006-0.107l-0.012-0.214c-0.082-1.143-0.072-2.307-0.309-3.457
			c-0.285-2.327-1.045-4.617-1.983-6.848c-0.945-2.24-2.282-4.338-3.82-6.31c-1.603-1.927-3.478-3.657-5.562-5.149
			c-2.119-1.447-4.464-2.576-6.927-3.414c-2.526-0.782-4.944-1.154-7.775-1.264c-2.502,0.038-5.214,0.353-7.709,1.081
			c-2.5,0.782-4.899,1.865-7.083,3.28c-2.148,1.463-4.108,3.17-5.776,5.111c-1.608,1.982-3.019,4.104-4.029,6.386
			c-0.974,2.273-1.768,4.655-2.068,6.999c-0.246,1.142-0.25,2.401-0.338,3.6c-0.055,0.534,0.019,1.157,0.021,1.727
			c0.032,0.58,0.007,1.163,0.085,1.732c0.46,4.579,2.024,8.768,4.157,12.203c2.15,3.443,4.917,6.064,7.641,7.94
			c2.714,1.926,5.472,2.967,7.752,3.63c0.578,0.15,1.124,0.294,1.639,0.429c0.518,0.116,1.015,0.162,1.47,0.239
			c0.458,0.068,0.88,0.132,1.268,0.189s0.751,0.046,1.07,0.07c1.284,0.06,1.969,0.092,1.969,0.092L112.716,156.054z"/>
	</g>
</g>
<g>
	<circle fill="#C19650" cx="112.716" cy="127.896" r="30.438"/>
	<path fill="#926F34" d="M143.303,127.903c0,0-0.032,0.746-0.092,2.146c-0.024,0.35-0.011,0.74-0.071,1.17
		c-0.062,0.43-0.13,0.898-0.203,1.404c-0.085,0.505-0.129,1.058-0.238,1.634c-0.132,0.571-0.271,1.179-0.419,1.821
		c-0.667,2.537-1.647,5.644-3.576,8.839c-1.901,3.182-4.622,6.55-8.418,9.273c-3.785,2.71-8.647,4.661-13.977,5.24
		c-0.664,0.091-1.341,0.064-2.017,0.102l-1.019,0.031l-0.511,0.016l-0.126-0.001l-0.062-0.005l-0.123-0.009l-0.246-0.017
		c-1.32-0.122-2.617-0.159-4.045-0.479c-2.826-0.438-5.488-1.411-8.101-2.623c-2.607-1.233-4.982-2.953-7.234-4.821
		c-2.196-1.951-4.152-4.189-5.845-6.649c-1.65-2.491-2.947-5.229-3.928-8.096c-0.95-2.903-1.439-5.879-1.594-9.028
		c-0.038-2.92,0.264-6.143,1.056-9.107c0.878-2.957,2.109-5.811,3.749-8.411c1.688-2.562,3.699-4.886,5.98-6.867
		c2.325-1.917,4.822-3.603,7.515-4.807c2.687-1.188,5.481-2.084,8.301-2.431c1.396-0.273,2.805-0.275,4.188-0.354l0.259-0.01
		l0.13-0.005l0.064-0.003l0.144,0.005l0.491,0.029l0.977,0.06c0.659,0.056,1.271,0.044,1.958,0.154
		c1.354,0.24,2.746,0.363,3.985,0.758c0.632,0.169,1.26,0.338,1.882,0.505c0.609,0.209,1.2,0.459,1.791,0.685
		c1.199,0.415,2.285,1.034,3.375,1.579c0.556,0.252,1.046,0.61,1.548,0.934c0.498,0.328,0.99,0.653,1.478,0.975
		c3.789,2.753,6.504,6.129,8.401,9.318c1.927,3.201,2.909,6.31,3.571,8.851c0.146,0.643,0.286,1.251,0.416,1.823
		c0.109,0.575,0.151,1.126,0.235,1.63c0.072,0.506,0.138,0.974,0.199,1.402c0.058,0.429,0.044,0.824,0.068,1.176
		c0.056,1.406,0.086,2.156,0.086,2.156V127.903z M143.003,127.896c0,0-0.045-0.741-0.13-2.133c-0.03-0.347-0.024-0.737-0.091-1.159
		c-0.069-0.423-0.145-0.883-0.226-1.381c-0.086-0.497-0.155-1.036-0.296-1.596c-0.159-0.555-0.328-1.145-0.507-1.769
		c-0.761-2.462-1.998-5.404-4.147-8.264c-2.104-2.874-5.013-5.709-8.684-7.956c-1.869-1.06-3.839-2.12-6.028-2.838
		c-0.543-0.185-1.092-0.37-1.645-0.558c-0.566-0.138-1.138-0.278-1.713-0.419c-1.153-0.344-2.307-0.396-3.479-0.6
		c-0.583-0.091-1.271-0.069-1.908-0.11l-0.978-0.039l-0.491-0.02c0.016,0.001-0.123-0.005,0.021,0.001l-0.059,0.004l-0.117,0.008
		l-0.233,0.015c-1.245,0.086-2.516,0.063-3.772,0.315c-2.542,0.298-5.042,1.12-7.502,2.101c-2.459,1.022-4.755,2.495-6.918,4.181
		c-2.129,1.744-3.989,3.838-5.638,6.116c-1.606,2.315-2.857,4.892-3.799,7.599c-0.915,2.749-1.387,5.487-1.565,8.54
		c-0.015,2.824,0.267,5.811,1.024,8.621c0.838,2.796,2.023,5.489,3.618,7.913c0.395,0.607,0.85,1.171,1.281,1.748
		c0.223,0.283,0.425,0.584,0.664,0.852l0.731,0.792c0.502,0.512,0.938,1.087,1.488,1.543l1.608,1.399
		c2.237,1.736,4.655,3.175,7.2,4.167c2.533,0.958,5.167,1.703,7.702,1.909c1.224,0.207,2.606,0.148,3.914,0.192l0.247,0.008
		l0.124,0.004l0.062,0.002c0.035,0.002-0.08-0.005-0.003-0.005l0.471-0.033l0.937-0.067c0.621-0.06,1.243-0.053,1.848-0.162
		c4.879-0.64,9.273-2.364,12.947-4.605c3.664-2.276,6.569-5.118,8.668-8c2.148-2.864,3.387-5.809,4.144-8.274
		c0.178-0.624,0.346-1.214,0.504-1.77c0.14-0.56,0.208-1.097,0.292-1.593c0.08-0.497,0.154-0.957,0.222-1.378
		c0.065-0.422,0.059-0.818,0.088-1.166c0.081-1.397,0.124-2.144,0.124-2.144V127.896z"/>
</g>
<path fill="#926F34" d="M118.062,30.911l-8.705,23.921L99.224,82.674l-0.214,0.585h25.169l17.136-47.076
	C134.056,33.257,126.237,31.432,118.062,30.911z"/>
<circle fill="none" stroke="#622E88" stroke-width="5" stroke-miterlimit="10" cx="112.13" cy="104.724" r="75.216"/>
<g>
	<g>
		<path fill="#622E88" stroke="#622E88" stroke-width="3" stroke-miterlimit="10" d="M214.711,162.837
			c-6.562-1.224-12.94-2.78-19.114-4.636c2.933-6.104,5.539-12.271,7.817-18.473c-51.883,29.431-114.491,32.079-168.395,7.787
			c-4.848-2.195-9.625-4.608-14.315-7.239c2.547,6.378,5.444,12.724,8.695,19c-5.811,1.722-11.799,3.167-17.945,4.31
			C74.696,198.511,151.615,198.275,214.711,162.837L214.711,162.837L214.711,162.837z"/>
	</g>
</g>
<g>
	<g>
		<path fill="#FFFFFF" d="M37.541,161.66c1.011,0.598,1.725,1.262,2.141,2.002c0.415,0.743,0.537,1.509,0.36,2.305
			c-0.23,1.043-0.845,1.756-1.85,2.132c-1.001,0.374-2.282,0.312-3.828-0.193c-1.373-0.45-2.368-1.087-2.979-1.899
			c-0.612-0.809-0.806-1.646-0.588-2.506c0.133-0.521,0.387-0.877,0.764-1.067c0.378-0.19,0.803-0.203,1.276-0.044
			c0.427,0.145,0.748,0.38,0.964,0.707c0.216,0.329,0.281,0.666,0.196,1.017c-0.117,0.478-0.49,0.765-1.124,0.854
			c-0.271,0.041-0.437,0.08-0.499,0.117c-0.064,0.037-0.106,0.1-0.127,0.184c-0.051,0.207,0.058,0.452,0.328,0.729
			c0.395,0.406,0.881,0.707,1.461,0.898c0.744,0.244,1.382,0.216,1.912-0.084c0.532-0.301,0.902-0.913,1.116-1.838
			c0.211-0.909,0.173-1.65-0.113-2.214c-0.287-0.562-0.73-0.943-1.331-1.14c-0.143-0.049-0.337-0.088-0.582-0.127
			c-0.237-0.041-0.415-0.082-0.532-0.121c-0.183-0.06-0.316-0.153-0.398-0.277c-0.082-0.125-0.104-0.266-0.064-0.427
			c0.044-0.18,0.133-0.292,0.265-0.345c0.132-0.051,0.312-0.043,0.541,0.035c0.09,0.029,0.219,0.081,0.384,0.154
			c0.202,0.091,0.368,0.161,0.5,0.203c0.586,0.193,1.088,0.163,1.504-0.089c0.409-0.246,0.709-0.782,0.904-1.608
			c0.195-0.825,0.155-1.477-0.118-1.964c-0.271-0.488-0.734-0.834-1.388-1.049c-0.449-0.147-0.807-0.197-1.073-0.142
			c-0.267,0.055-0.419,0.157-0.457,0.306c-0.019,0.076-0.017,0.138,0.004,0.192c0.022,0.053,0.097,0.163,0.224,0.322
			c0.254,0.321,0.412,0.577,0.473,0.769c0.062,0.192,0.066,0.394,0.014,0.606c-0.084,0.345-0.285,0.588-0.603,0.727
			c-0.318,0.142-0.675,0.145-1.07,0.013c-0.414-0.142-0.728-0.398-0.938-0.772c-0.211-0.373-0.259-0.785-0.147-1.225
			c0.161-0.633,0.566-1.108,1.213-1.437c0.833-0.434,1.885-0.436,3.165-0.021c0.857,0.282,1.565,0.651,2.128,1.117
			c0.562,0.467,0.955,0.979,1.175,1.538c0.22,0.561,0.27,1.114,0.145,1.663c-0.135,0.598-0.462,1.07-0.983,1.414
			C39.384,161.423,38.597,161.62,37.541,161.66z"/>
		<path fill="#FFFFFF" d="M48.09,170.857c-0.052,0.272-0.104,0.544-0.157,0.815c-2.194-0.591-4.385-1.21-6.572-1.858
			c0.058-0.271,0.115-0.539,0.173-0.811c0.271,0.082,0.541,0.158,0.811,0.239c0.333,0.097,0.589,0.114,0.767,0.044
			c0.177-0.068,0.285-0.201,0.326-0.391c0.335-1.611,0.673-3.223,1.012-4.834c0.082-0.391,0.042-0.703-0.119-0.941
			c-0.162-0.238-0.421-0.409-0.781-0.514c-0.173-0.052-0.346-0.104-0.52-0.154c0.056-0.255,0.11-0.509,0.167-0.766
			c1.317,0.322,2.635,0.637,3.953,0.938c-0.182,0.892-0.363,1.778-0.542,2.669c0.412-0.827,0.95-1.403,1.616-1.725
			c0.665-0.325,1.352-0.392,2.065-0.203c0.607,0.158,1.062,0.431,1.36,0.812c0.299,0.378,0.407,0.799,0.322,1.257
			c-0.073,0.392-0.256,0.678-0.548,0.857c-0.293,0.181-0.617,0.224-0.974,0.13c-0.316-0.082-0.571-0.26-0.756-0.53
			c-0.188-0.271-0.25-0.569-0.186-0.898c0.035-0.181,0.126-0.356,0.271-0.525c0.08-0.097,0.123-0.168,0.132-0.215
			c0.016-0.085,0.006-0.147-0.029-0.197c-0.036-0.048-0.099-0.087-0.19-0.11c-0.234-0.063-0.517-0.009-0.846,0.161
			c-0.506,0.264-0.986,0.756-1.442,1.476c-0.456,0.721-0.767,1.49-0.931,2.306c-0.118,0.591-0.235,1.18-0.353,1.768
			c-0.041,0.203-0.01,0.378,0.096,0.521s0.273,0.244,0.5,0.307C47.173,170.608,47.632,170.733,48.09,170.857z"/>
		<path fill="#FFFFFF" d="M60.049,161.022c1.515,0.285,3.03,0.554,4.546,0.808c-0.543,3.621-1.082,7.245-1.614,10.865
			c-0.082,0.557-0.096,0.938-0.039,1.15c0.056,0.21,0.166,0.374,0.328,0.496c0.164,0.124,0.495,0.235,0.993,0.332
			c-0.038,0.266-0.074,0.529-0.112,0.793c-1.306-0.225-2.611-0.461-3.916-0.704c-0.012-0.558-0.023-1.116-0.034-1.675
			c-0.696,0.553-1.307,0.882-1.823,1c-0.518,0.117-1.137,0.09-1.86-0.075c-1.295-0.3-2.286-0.935-2.965-1.892
			c-0.68-0.955-0.898-2.085-0.664-3.381c0.259-1.432,0.888-2.461,1.879-3.096c0.991-0.635,2.105-0.807,3.351-0.52
			c0.669,0.154,1.243,0.417,1.723,0.798c0.482,0.38,0.888,0.907,1.226,1.593c0.197-1.26,0.395-2.518,0.593-3.775
			c0.071-0.449,0.077-0.779,0.016-0.994c-0.061-0.215-0.161-0.376-0.302-0.482c-0.141-0.108-0.449-0.213-0.923-0.317
			c-0.178-0.04-0.357-0.08-0.537-0.119C59.96,161.56,60.005,161.291,60.049,161.022z M58.827,166.471
			c-0.764-0.172-1.383-0.006-1.861,0.507c-0.393,0.415-0.682,1.157-0.863,2.22c-0.151,0.888-0.177,1.575-0.076,2.055
			c0.099,0.477,0.294,0.862,0.584,1.153c0.291,0.291,0.644,0.483,1.061,0.578c0.685,0.157,1.277,0.021,1.774-0.4
			c0.664-0.549,1.075-1.352,1.238-2.403c0.151-0.975,0.034-1.802-0.351-2.48C59.947,167.017,59.447,166.61,58.827,166.471z"/>
		<path fill="#FFFFFF" d="M78.154,168.867c1.037,0.15,1.97,0.482,2.803,1.007c0.834,0.521,1.434,1.136,1.803,1.844
			c0.368,0.711,0.514,1.524,0.434,2.449c-0.127,1.474-0.789,2.538-1.996,3.179c-1.207,0.644-2.535,0.858-3.976,0.648
			c-1.019-0.147-1.93-0.49-2.729-1.025c-0.798-0.536-1.385-1.184-1.756-1.94c-0.372-0.758-0.504-1.565-0.403-2.424
			c0.155-1.293,0.79-2.289,1.896-3.001C75.335,168.891,76.639,168.649,78.154,168.867z M78.124,169.728
			c-0.688-0.1-1.266,0.092-1.734,0.577c-0.467,0.484-0.778,1.41-0.929,2.784c-0.157,1.425-0.06,2.443,0.296,3.045
			c0.354,0.604,0.884,0.956,1.589,1.06c0.718,0.104,1.326-0.092,1.82-0.588c0.492-0.495,0.804-1.425,0.934-2.791
			c0.134-1.399,0.014-2.406-0.356-3.018C79.372,170.185,78.833,169.829,78.124,169.728z"/>
		<path fill="#FFFFFF" d="M89.563,170.715c0.796,0.078,1.594,0.152,2.391,0.221c-0.021,0.323-0.04,0.648-0.061,0.975
			c-0.799-0.069-1.599-0.144-2.398-0.222c-0.138,2-0.275,4.003-0.411,6.005c-0.016,0.233,0.024,0.403,0.12,0.502
			c0.095,0.101,0.275,0.16,0.54,0.188c0.56,0.055,1.121,0.104,1.681,0.154c-0.017,0.279-0.034,0.562-0.051,0.84
			c-2.301-0.202-4.601-0.438-6.899-0.706c0.022-0.279,0.045-0.558,0.068-0.837c0.329,0.037,0.658,0.075,0.987,0.112
			c0.298,0.032,0.509,0.011,0.631-0.075c0.124-0.083,0.192-0.235,0.208-0.458c0.153-2,0.306-3.999,0.459-5.997
			c-0.535-0.06-1.071-0.117-1.606-0.179c0.027-0.324,0.053-0.648,0.08-0.973c0.534,0.061,1.067,0.121,1.602,0.178
			c0.009-0.112,0.018-0.228,0.026-0.341c0.087-1.125,0.339-2.027,0.751-2.708c0.413-0.677,0.955-1.158,1.624-1.443
			c0.669-0.283,1.474-0.383,2.415-0.299c0.875,0.077,1.542,0.33,2.001,0.758c0.458,0.431,0.672,0.937,0.641,1.52
			c-0.026,0.466-0.196,0.835-0.514,1.108c-0.318,0.272-0.685,0.395-1.102,0.358c-0.39-0.034-0.71-0.177-0.959-0.431
			c-0.25-0.255-0.362-0.557-0.34-0.9c0.022-0.355,0.24-0.65,0.651-0.881c0.199-0.114,0.301-0.225,0.307-0.319
			c0.005-0.083-0.039-0.158-0.135-0.222c-0.145-0.098-0.342-0.156-0.591-0.179c-0.328-0.029-0.638,0.038-0.928,0.197
			c-0.292,0.16-0.514,0.402-0.669,0.727c-0.224,0.482-0.357,1.002-0.396,1.56C89.645,169.537,89.604,170.125,89.563,170.715z"/>
		<path fill="#FFFFFF" d="M102.185,168.118c0.293,0.011,0.586,0.023,0.879,0.036c-0.034,1.162-0.068,2.325-0.101,3.488
			c1.027,0.044,2.054,0.079,3.082,0.109c-0.006,0.326-0.013,0.651-0.02,0.979c-1.03-0.031-2.061-0.067-3.091-0.11
			c-0.052,1.795-0.104,3.593-0.155,5.39c-0.011,0.356,0.083,0.636,0.283,0.842c0.198,0.205,0.466,0.312,0.801,0.325
			c0.956,0.038,1.478-0.735,1.564-2.312c0.3,0.01,0.602,0.019,0.902,0.028c-0.036,0.839-0.197,1.51-0.485,2.012
			c-0.29,0.503-0.697,0.885-1.225,1.144c-0.528,0.258-1.12,0.376-1.775,0.349c-0.573-0.025-1.066-0.148-1.479-0.375
			s-0.735-0.55-0.969-0.97c-0.235-0.421-0.341-0.868-0.324-1.346c0.063-1.736,0.127-3.474,0.191-5.212
			c-0.554-0.03-1.107-0.061-1.66-0.094c0.011-0.28,0.023-0.558,0.034-0.833c1.019-0.061,1.823-0.37,2.409-0.931
			C101.631,170.081,102.01,169.243,102.185,168.118z"/>
		<path fill="#FFFFFF" d="M107.716,166.87c1.45-0.034,2.898-0.083,4.347-0.145c-0.004,2.202-0.01,4.403-0.014,6.605
			c0.677-0.747,1.294-1.258,1.859-1.535c0.564-0.276,1.181-0.419,1.853-0.426c0.931-0.011,1.643,0.235,2.144,0.74
			c0.568,0.584,0.865,1.412,0.884,2.496c0.024,1.343,0.047,2.688,0.071,4.031c0.005,0.278,0.08,0.481,0.224,0.607
			c0.144,0.129,0.352,0.187,0.622,0.18c0.22-0.005,0.439-0.013,0.659-0.017c0.006,0.281,0.012,0.562,0.018,0.845
			c-1.923,0.053-3.846,0.085-5.769,0.093c-0.001-0.281-0.003-0.562-0.005-0.844c0.208,0,0.416-0.002,0.623-0.004
			c0.346-0.004,0.581-0.062,0.702-0.178c0.168-0.152,0.25-0.368,0.248-0.639c-0.013-1.317-0.026-2.64-0.039-3.957
			c-0.006-0.568-0.18-1.019-0.52-1.352c-0.34-0.334-0.764-0.496-1.271-0.494c-0.626,0.002-1.167,0.242-1.621,0.719
			c-0.455,0.476-0.685,1.126-0.687,1.947c-0.002,1.051-0.004,2.099-0.006,3.148c-0.001,0.274,0.071,0.475,0.218,0.61
			c0.146,0.134,0.354,0.198,0.627,0.201c0.231,0,0.462,0,0.694,0c0,0.281,0.001,0.563,0.002,0.845
			c-1.984,0.001-3.968-0.021-5.953-0.068c0.004-0.28,0.008-0.562,0.013-0.844c0.275,0.009,0.551,0.012,0.826,0.019
			c0.292,0.006,0.515-0.058,0.665-0.197c0.151-0.136,0.229-0.333,0.231-0.594c0.032-3.328,0.065-6.655,0.098-9.985
			c0.003-0.289-0.096-0.521-0.294-0.689c-0.2-0.17-0.467-0.258-0.801-0.264c-0.22-0.004-0.44-0.01-0.661-0.014
			C107.707,167.433,107.712,167.151,107.716,166.87z"/>
		<path fill="#FFFFFF" d="M131.784,175.467c-2.207,0.165-4.416,0.3-6.624,0.406c0.063,1.192,0.363,2.06,0.903,2.598
			c0.54,0.54,1.219,0.787,2.034,0.74c0.584-0.034,1.13-0.215,1.638-0.54c0.508-0.323,1.016-0.888,1.522-1.689
			c0.254,0.12,0.508,0.237,0.763,0.355c-0.524,0.952-1.151,1.646-1.877,2.086c-0.726,0.44-1.629,0.693-2.707,0.753
			c-1.569,0.088-2.854-0.28-3.846-1.087c-0.991-0.811-1.5-1.879-1.535-3.204c-0.036-1.328,0.415-2.45,1.339-3.379
			c0.926-0.931,2.074-1.427,3.455-1.505c0.956-0.054,1.786,0.074,2.49,0.384c0.707,0.312,1.269,0.797,1.69,1.454
			C131.451,173.499,131.704,174.372,131.784,175.467z M125.129,175.046c1.049-0.05,2.097-0.107,3.146-0.17
			c0.295-0.019,0.503-0.099,0.624-0.238c0.122-0.142,0.174-0.39,0.157-0.739c-0.033-0.702-0.237-1.231-0.607-1.596
			c-0.371-0.363-0.826-0.528-1.371-0.497c-0.644,0.037-1.126,0.322-1.449,0.861C125.305,173.206,125.14,173.996,125.129,175.046z"/>
		<path fill="#FFFFFF" d="M137.391,165.696c1.945-0.198,3.89-0.418,5.833-0.662c0.026,0.278,0.052,0.561,0.079,0.841
			c-0.183,0.024-0.366,0.045-0.55,0.068c-0.347,0.043-0.578,0.109-0.692,0.199c-0.115,0.091-0.165,0.212-0.151,0.361
			c0.01,0.108,0.043,0.231,0.102,0.363c1.201,2.52,2.424,5.029,3.667,7.534c0.636-2.403,1.253-4.809,1.851-7.217
			c-0.186-0.37-0.371-0.74-0.555-1.111c-0.117-0.229-0.262-0.376-0.435-0.445c-0.228-0.089-0.519-0.109-0.872-0.062
			c-0.235,0.033-0.47,0.063-0.706,0.095c-0.027-0.28-0.055-0.56-0.083-0.84c2.239-0.3,4.476-0.627,6.71-0.989
			c0.034,0.28,0.067,0.56,0.101,0.84c-0.207,0.035-0.413,0.066-0.62,0.1c-0.452,0.071-0.752,0.169-0.901,0.289
			c-0.15,0.118-0.215,0.275-0.193,0.462c0.009,0.077,0.034,0.157,0.078,0.244c1.256,2.481,2.533,4.955,3.829,7.419
			c0.543-2.448,1.066-4.9,1.57-7.353c0.051-0.225,0.063-0.435,0.038-0.633c-0.048-0.368-0.191-0.629-0.43-0.793
			c-0.238-0.161-0.528-0.211-0.875-0.151c-0.137,0.024-0.274,0.047-0.411,0.07c-0.036-0.279-0.071-0.559-0.106-0.838
			c1.569-0.267,3.136-0.55,4.702-0.849c0.039,0.278,0.079,0.557,0.118,0.837c-0.52,0.11-0.919,0.301-1.2,0.571
			c-0.281,0.271-0.464,0.628-0.552,1.076c-0.83,4.058-1.715,8.113-2.653,12.161c-0.416,0.066-0.833,0.134-1.25,0.2
			c-1.543-2.932-3.058-5.876-4.544-8.834c-0.816,3.292-1.669,6.576-2.558,9.858c-0.415,0.054-0.828,0.105-1.242,0.157
			c-1.906-3.847-3.763-7.711-5.569-11.595c-0.112-0.243-0.249-0.407-0.408-0.491s-0.356-0.114-0.592-0.089
			c-0.155,0.016-0.31,0.032-0.464,0.048C137.433,166.259,137.412,165.978,137.391,165.696z"/>
		<path fill="#FFFFFF" d="M169.697,169.673c-2.183,0.508-4.369,0.987-6.558,1.433c0.198,1.176,0.593,1.993,1.191,2.444
			c0.599,0.452,1.303,0.596,2.11,0.421c0.579-0.125,1.104-0.391,1.574-0.791c0.47-0.401,0.914-1.041,1.328-1.917
			c0.267,0.078,0.534,0.156,0.802,0.233c-0.417,1.027-0.964,1.816-1.639,2.368c-0.674,0.551-1.547,0.943-2.615,1.17
			c-1.555,0.332-2.877,0.165-3.954-0.485c-1.079-0.649-1.705-1.641-1.888-2.952c-0.185-1.315,0.138-2.503,0.954-3.571
			c0.817-1.066,1.904-1.74,3.271-2.032c0.947-0.201,1.788-0.204,2.525-0.003c0.739,0.2,1.355,0.596,1.85,1.185
			C169.142,167.766,169.494,168.598,169.697,169.673z M163.016,170.287c1.04-0.211,2.078-0.434,3.116-0.657
			c0.292-0.065,0.491-0.175,0.595-0.335c0.104-0.158,0.129-0.412,0.073-0.758c-0.112-0.696-0.375-1.191-0.786-1.496
			c-0.41-0.302-0.883-0.396-1.422-0.281c-0.638,0.136-1.085,0.496-1.346,1.081C162.984,168.427,162.908,169.241,163.016,170.287z"/>
		<path fill="#FFFFFF" d="M181.402,166.656c-2.17,0.615-4.344,1.199-6.521,1.755c0.24,1.166,0.666,1.964,1.281,2.387
			c0.616,0.425,1.327,0.529,2.13,0.317c0.576-0.152,1.092-0.444,1.549-0.869c0.458-0.426,0.88-1.086,1.263-1.982
			c0.271,0.064,0.541,0.131,0.812,0.194c-0.38,1.049-0.901,1.866-1.559,2.448c-0.656,0.585-1.517,1.021-2.579,1.3
			c-1.546,0.409-2.877,0.307-3.979-0.293c-1.103-0.597-1.765-1.556-1.997-2.859c-0.231-1.308,0.049-2.509,0.828-3.619
			c0.78-1.105,1.845-1.834,3.204-2.193c0.941-0.247,1.784-0.289,2.53-0.127c0.748,0.164,1.379,0.529,1.896,1.095
			C180.777,164.776,181.16,165.589,181.402,166.656z M174.729,167.598c1.034-0.263,2.066-0.534,3.098-0.81
			c0.291-0.079,0.485-0.199,0.584-0.363c0.099-0.165,0.115-0.418,0.046-0.763c-0.138-0.688-0.419-1.174-0.842-1.457
			c-0.422-0.284-0.899-0.352-1.436-0.212c-0.634,0.169-1.069,0.549-1.31,1.147C174.63,165.738,174.583,166.558,174.729,167.598z"/>
		<path fill="#FFFFFF" d="M181.084,157.086c1.413-0.454,2.822-0.918,4.229-1.399c0.705,3.025,1.404,6.048,2.097,9.072
			c0.763-0.938,1.518-1.882,2.267-2.829c0.355-0.456,0.506-0.794,0.454-1.008c-0.032-0.134-0.148-0.225-0.348-0.269
			c-0.199-0.046-0.493-0.005-0.881,0.119c-0.106,0.034-0.213,0.068-0.32,0.103c-0.063-0.267-0.127-0.534-0.19-0.802
			c1.769-0.565,3.535-1.151,5.297-1.758c0.068,0.265,0.137,0.534,0.205,0.798c-0.563,0.211-0.992,0.424-1.282,0.643
			c-0.4,0.296-0.759,0.658-1.078,1.08c-0.419,0.557-0.841,1.109-1.265,1.663c1.463,1.01,2.939,2.005,4.427,2.989
			c0.358,0.226,0.733,0.272,1.124,0.139c0.166-0.059,0.332-0.116,0.498-0.173c0.069,0.272,0.139,0.544,0.208,0.816
			c-1.952,0.677-3.909,1.329-5.868,1.956c-0.064-0.273-0.128-0.548-0.193-0.821c0.192-0.061,0.384-0.124,0.577-0.185
			c0.278-0.089,0.466-0.181,0.565-0.272c0.1-0.095,0.141-0.172,0.124-0.244c-0.015-0.062-0.064-0.12-0.149-0.177
			c-0.963-0.677-1.923-1.36-2.876-2.047c-0.353,0.43-0.708,0.858-1.065,1.287c0.125,0.549,0.25,1.096,0.375,1.643
			c0.06,0.259,0.16,0.428,0.305,0.497s0.354,0.064,0.627-0.021c0.217-0.068,0.433-0.136,0.649-0.204
			c0.063,0.274,0.127,0.547,0.19,0.821c-1.915,0.606-3.833,1.187-5.754,1.745c-0.058-0.274-0.116-0.551-0.176-0.825
			c0.237-0.067,0.475-0.137,0.711-0.207c0.341-0.1,0.573-0.245,0.699-0.437c0.125-0.192,0.156-0.436,0.091-0.73
			c-0.729-3.326-1.465-6.653-2.208-9.979c-0.05-0.226-0.164-0.373-0.343-0.445c-0.178-0.072-0.406-0.067-0.684,0.014
			c-0.288,0.085-0.576,0.17-0.863,0.254C181.202,157.625,181.143,157.355,181.084,157.086z"/>
	</g>
</g>
<path fill="#A67D3C" d="M137.409,128.847c-1.277-4.008-4.695-6.63-8.552-6.588l-2.795,0.103l-0.885-2.221
	c-1.72-4.309-2.607-6.42-2.88-6.83c-0.271-0.411-0.302-0.416-2.849-0.416c-2.256,0-2.612,0.039-2.805,0.301
	c-0.315,0.414-0.297,0.668,0.097,1.062c0.303,0.303,0.571,0.341,2.285,0.341c1.353,0,1.992,0.064,2.103,0.214
	c0.192,0.254,0.904,1.992,0.904,2.201c0,0.08-3.568,0.144-7.928,0.144h-7.933l-0.337-0.669c-0.19-0.373-0.347-0.711-0.347-0.751
	c0-0.046,0.812-0.171,1.806-0.291c2.023-0.239,2.766-0.596,2.279-1.092c-0.218-0.225-0.826-0.276-3.532-0.31
	c-2.226-0.025-3.333,0.02-3.46,0.15c-0.103,0.104-0.164,0.487-0.133,0.852c0.048,0.586,0.096,0.92,0.638,0.856l0.82-0.106
	l1.066,2.009l-3.33,5.105c-2.374-0.712-4.53-0.874-6.968-0.088c-1.173,0.493-2.835,1.674-3.595,2.564
	c-0.995,1.162-1.777,2.92-2.01,4.527c-0.026,0.177-0.044,0.358-0.056,0.533v1.221c0.251,3.459,2.651,6.694,6.006,7.807
	c1.557,0.522,1.594,0.528,3.222,0.472c1.216-0.041,1.807-0.161,2.863-0.57c1.535-0.598,2.252-1.19,3.854-2.938
	c1.623-1.778,1.792-3.804,1.855-4.344c0.133-0.048,1.461-0.093,2.953-0.093h2.717l0.024,1.365c0.016,0.75-0.038,1.709-0.03,1.873
	c0.013,0.234-0.073,0.1-0.646,0.141c-0.649,0.043-0.732,0.098-0.683,0.425c0.041,0.3,0.184,0.39,0.718,0.431
	c0.365,0.033,1.248-0.107,1.469-0.164l0.046-4.121l1.148-1.433c0.653-0.825,1.249-1.577,1.318-1.669
	c0.074-0.097,0.408-0.519,0.742-0.942c0.332-0.422,1.895-2.396,3.471-4.393c1.575-1.992,2.915-3.627,2.985-3.627
	c0.072,0,0.209,0.176,0.309,0.391c0.611,1.28,0.938,2.136,1.016,2.633c0.082,0.486,0.037,0.579-0.357,0.728
	c-0.675,0.259-2.521,2.216-3.066,3.261c-0.681,1.301-1.132,2.963-1.132,4.202c0,1.829,1.231,4.849,2.491,6.103
	c3.423,3.423,8.356,3.733,12.084,0.765c1.302-1.157,2.404-2.674,2.935-4.346C137.685,132.4,137.734,129.858,137.409,128.847z
	 M102.353,125.522c1.198,1.085,2.358,2.158,2.573,4.548l-5.481,0.08L102.353,125.522z M97.539,137.905
	c-3.274-0.109-6.721-2.613-6.686-7.208c0.029-4.542,4.907-7.689,9.978-5.938c-1.334,2.354-4.4,6.377-4.029,6.886
	c0.384,0.53,1.109,0.354,4.554,0.354h3.664C104.646,137.084,99.532,137.969,97.539,137.905z M106.768,130.044
	c-0.496-2.441-1.9-4.399-3.583-6.203l2.396-3.953c0.101,0,0.553,0.671,1.011,1.488c0.458,0.823,1.739,3.104,2.852,5.065
	c1.11,1.96,2.001,3.654,1.921,3.654L106.768,130.044z M117.355,124.172c-0.123,0.145-0.613,0.814-1.132,1.447l-2.888,3.517
	l-0.002-2.205c0.44-0.013,1.337-0.006,1.307-0.568c-0.024-0.565-1.265-0.41-2.125-0.372l0.086,3.219l-5.278-10.345h6.928
	c5.82,0,6.928,0.04,6.928,0.24C121.179,119.289,119.23,121.871,117.355,124.172z M133.766,136.234
	c-1.82,1.759-4.472,2.472-6.807,1.831c-3.509-0.968-5.836-4.384-5.302-7.79c0.299-1.897,0.812-2.974,1.994-4.177
	c1.374-1.405,1.624-1.413,2.132-0.071c0.122,0.328,0.389,0.987,0.592,1.453c0.204,0.471,0.671,1.601,1.041,2.512
	c0.754,1.866,1.184,2.301,1.78,1.76c0.489-0.682,0.059-1.686-0.479-2.849c-0.288-0.526-1.741-4.442-1.741-4.697
	c0.408-0.405,1.351-0.208,1.919-0.189c1.634,0.072,2.065,0.156,2.919,0.553c1.265,0.591,2.904,2.231,3.496,3.505
	c0.392,0.844,0.706,1.172,0.727,3.109C136.273,133.146,135.042,134.832,133.766,136.234z"/>
</svg>
