<?xml version="1.0" encoding="utf-8"?>
<!-- Generator: Adobe Illustrator 16.0.4, SVG Export Plug-In . SVG Version: 6.00 Build 0)  -->
<!DOCTYPE svg PUBLIC "-//W3C//DTD SVG 1.1//EN" "http://www.w3.org/Graphics/SVG/1.1/DTD/svg11.dtd">
<svg version="1.1" id="Livello_1" xmlns="http://www.w3.org/2000/svg" xmlns:xlink="http://www.w3.org/1999/xlink" x="0px" y="0px"
	 width="225.205px" height="214.48px" viewBox="0 0 225.205 214.48" enable-background="new 0 0 225.205 214.48"
	 xml:space="preserve">
<circle fill="#FFFFFF" stroke="#622E88" stroke-width="4" stroke-miterlimit="10" cx="109.762" cy="104.724" r="82.153"/>
<path fill="#9A9898" d="M99.097,31.501c-7.637,1.504-14.855,4.161-21.472,7.785L97.919,82h1.809l10.134-27.842L99.097,31.501z"/>
<path fill="#C0C0C0" d="M111.074,96.231c-9.468,0-17.142-4.693-17.142-10.482s7.674-10.48,17.142-10.48
	c9.469,0,17.143,4.691,17.143,10.48S120.542,96.231,111.074,96.231z M111.074,71.075c-13.251,0-23.999,6.57-23.999,14.674
	s10.748,14.676,23.999,14.676c13.252,0,23.999-6.572,23.999-14.676S124.326,71.075,111.074,71.075z"/>
<g>
	<path fill="#C0C0C0" d="M110.347,88.938c-21.521,0-38.973,17.57-38.973,39.238c0,21.666,17.452,39.238,38.973,39.238
		c21.52,0,38.974-17.572,38.974-39.238C149.321,106.509,131.867,88.938,110.347,88.938z M110.347,156.204
		c-15.376,0-27.838-12.549-27.838-28.027c0-15.48,12.462-28.027,27.838-28.027c15.377,0,27.838,12.547,27.838,28.027
		C138.185,143.655,125.724,156.204,110.347,156.204z"/>
	<g>
		<path fill="#9A9898" d="M110.355,89.088c0,0-0.958,0.046-2.756,0.132c-0.447,0.034-0.955,0.019-1.499,0.1
			c-0.544,0.082-1.137,0.172-1.779,0.269c-0.639,0.108-1.336,0.174-2.062,0.338c-0.721,0.188-1.487,0.389-2.297,0.601
			c-3.197,0.928-7.064,2.378-10.887,5.059c-3.833,2.615-7.735,6.273-10.794,11.091c-3.037,4.809-5.27,10.696-5.952,17.15
			c-0.114,0.802-0.083,1.623-0.133,2.441c-0.007,0.808-0.116,1.671-0.041,2.446c0.118,1.68,0.118,3.432,0.46,5.061
			c0.417,3.327,1.525,6.682,2.893,9.9c0.385,0.791,0.772,1.584,1.161,2.381c0.388,0.797,0.909,1.524,1.359,2.295l0.7,1.143
			c0.25,0.371,0.535,0.719,0.801,1.081c0.55,0.71,1.065,1.451,1.646,2.142c2.349,2.753,5.115,5.177,8.147,7.256
			c3.085,2.014,6.478,3.559,10.016,4.678c3.543,1.044,7.349,1.504,10.947,1.567c3.927-0.134,7.438-0.652,11.013-1.75
			c3.501-1.175,6.84-2.767,9.859-4.812c2.97-2.109,5.65-4.556,7.934-7.293c2.196-2.8,4.107-5.78,5.459-8.967
			c1.332-3.176,2.406-6.438,2.808-9.749c0.333-1.637,0.318-3.293,0.431-4.917l0.03-0.536l-0.023-0.631l-0.047-1.257
			c-0.049-0.823-0.021-1.692-0.133-2.462c-0.108-0.771-0.215-1.538-0.322-2.3c-0.059-0.381-0.088-0.762-0.17-1.14l-0.269-1.132
			c-0.174-0.754-0.348-1.502-0.52-2.244c-0.22-0.729-0.482-1.439-0.717-2.152c-0.939-2.856-2.279-5.455-3.696-7.875
			c-2.954-4.782-6.746-8.462-10.497-11.125c-3.742-2.727-7.563-4.231-10.733-5.207c-0.804-0.224-1.564-0.435-2.281-0.634
			c-0.722-0.174-1.417-0.248-2.055-0.365c-0.64-0.105-1.232-0.203-1.775-0.293c-0.543-0.089-1.046-0.079-1.492-0.119
			c-1.788-0.11-2.742-0.169-2.742-0.169L110.355,89.088z M110.347,88.788c0,0,0.963,0.039,2.768,0.111
			c0.451,0.031,0.959,0.011,1.509,0.089c0.55,0.079,1.151,0.165,1.8,0.257c0.646,0.105,1.353,0.166,2.087,0.326
			c0.732,0.176,1.51,0.363,2.332,0.561c3.248,0.881,7.197,2.239,11.216,4.791c4.011,2.518,8.172,6.098,11.58,10.941
			c3.391,4.857,5.975,10.864,6.858,17.788c0.139,0.861,0.128,1.662,0.201,2.505l0.079,1.255l0.04,0.631
			c-0.001-0.041,0.007,0.144,0.004,0.155l-0.003,0.082l-0.008,0.164l-0.015,0.328c-0.101,1.752-0.083,3.538-0.422,5.31
			c-0.414,3.579-1.538,7.121-2.96,10.571c-0.408,0.842-0.817,1.687-1.228,2.535c-0.413,0.848-0.961,1.625-1.438,2.444L144,150.85
			c-0.265,0.395-0.565,0.767-0.848,1.151c-0.582,0.758-1.131,1.546-1.747,2.282c-2.487,2.939-5.44,5.511-8.671,7.718
			c-3.286,2.139-6.9,3.782-10.671,4.965c-3.762,1.106-7.907,1.605-11.655,1.647l-3.022-0.169c-0.99-0.018-1.964-0.195-2.938-0.355
			l-1.461-0.235l-0.73-0.119l-0.715-0.189l-2.854-0.762c-3.734-1.237-7.294-2.927-10.514-5.098
			c-3.168-2.237-6.037-4.831-8.458-7.756c-0.599-0.733-1.13-1.519-1.694-2.271c-0.273-0.383-0.565-0.753-0.821-1.146l-0.718-1.207
			c-0.46-0.813-0.991-1.584-1.386-2.424c-0.394-0.839-0.787-1.675-1.178-2.507c-1.386-3.407-2.476-6.856-2.874-10.419
			c-0.331-1.781-0.298-3.472-0.394-5.167c-0.006-0.229-0.023-0.384-0.022-0.672l0.04-0.643l0.08-1.278
			c0.072-0.848,0.064-1.696,0.201-2.524c0.869-6.665,3.317-12.68,6.6-17.482c3.302-4.809,7.353-8.41,11.282-10.976
			c3.938-2.597,7.841-4.011,11.062-4.939c0.816-0.209,1.588-0.407,2.315-0.594c0.73-0.17,1.435-0.24,2.08-0.354
			c0.648-0.102,1.247-0.195,1.796-0.281s1.053-0.072,1.501-0.109c1.796-0.097,2.754-0.147,2.754-0.147L110.347,88.788z"/>
		<path fill="#9A9898" d="M110.339,156.354c0,0-0.684-0.037-1.967-0.108c-0.321-0.026-0.68-0.018-1.073-0.078
			c-0.393-0.062-0.822-0.13-1.286-0.203c-0.462-0.081-0.966-0.133-1.488-0.254c-0.52-0.133-1.072-0.274-1.656-0.424
			c-2.304-0.663-5.098-1.668-7.927-3.511c-2.821-1.825-5.736-4.39-8.129-7.823c-2.38-3.43-4.159-7.744-4.806-12.535
			c-0.101-0.596-0.099-1.206-0.153-1.816c-0.021-0.622-0.127-1.199-0.077-1.872c0.064-1.214,0.037-2.412,0.271-3.706
			c0.282-2.578,1.057-5.057,2.049-7.517c1.026-2.449,2.479-4.745,4.16-6.899c1.74-2.113,3.803-3.99,6.086-5.611
			c2.32-1.572,4.887-2.8,7.583-3.7c1.371-0.371,2.739-0.781,4.159-0.954c0.704-0.118,1.408-0.247,2.123-0.263l2.201-0.127
			c2.651,0.017,5.702,0.37,8.417,1.161c2.732,0.846,5.354,2.026,7.739,3.567c2.346,1.59,4.495,3.444,6.3,5.573
			c1.749,2.164,3.277,4.484,4.367,6.975c1.028,2.504,1.838,5.073,2.135,7.668c0.243,1.285,0.229,2.579,0.3,3.85l0.01,0.237
			l0.005,0.119l0.003,0.06l-0.004,0.133l-0.031,0.45l-0.061,0.896c-0.055,0.605-0.05,1.168-0.152,1.796
			c-0.662,5.05-2.576,9.356-5.063,12.842c-2.499,3.469-5.524,6.013-8.427,7.79c-2.91,1.797-5.75,2.746-8.081,3.361
			c-0.59,0.138-1.148,0.268-1.673,0.39c-0.526,0.112-1.032,0.154-1.496,0.228c-0.465,0.064-0.895,0.123-1.289,0.178
			c-0.394,0.055-0.758,0.039-1.08,0.06c-1.292,0.046-1.98,0.071-1.98,0.071L110.339,156.354z M110.347,156.054
			c0,0,0.68-0.045,1.956-0.129c0.317-0.029,0.676-0.024,1.062-0.089c0.387-0.065,0.809-0.138,1.265-0.214
			c0.454-0.086,0.949-0.142,1.463-0.268c0.509-0.145,1.05-0.3,1.622-0.463c2.254-0.71,4.965-1.806,7.599-3.777
			c2.642-1.924,5.298-4.566,7.343-7.974c0.982-1.723,1.897-3.571,2.544-5.59c0.161-0.504,0.341-1.006,0.491-1.521
			c0.116-0.524,0.233-1.053,0.351-1.585c0.296-1.063,0.337-2.124,0.514-3.201c0.076-0.537,0.054-1.167,0.086-1.752l0.029-0.898
			l0.014-0.451c0.002-0.086,0,0.054-0.001,0.021l-0.003-0.054l-0.006-0.107l-0.012-0.214c-0.082-1.143-0.072-2.307-0.309-3.457
			c-0.285-2.327-1.045-4.617-1.983-6.847c-0.945-2.24-2.282-4.338-3.821-6.311c-1.602-1.927-3.478-3.656-5.562-5.149
			c-2.119-1.446-4.464-2.575-6.927-3.413c-2.526-0.782-4.944-1.154-7.775-1.264c-2.502,0.038-5.213,0.353-7.709,1.081
			c-2.5,0.782-4.899,1.865-7.083,3.28c-2.147,1.463-4.108,3.17-5.776,5.111c-1.608,1.982-3.019,4.104-4.029,6.385
			c-0.974,2.273-1.768,4.655-2.068,6.999c-0.246,1.142-0.25,2.401-0.338,3.6c-0.055,0.533,0.019,1.157,0.021,1.727
			c0.032,0.58,0.007,1.163,0.085,1.732c0.46,4.579,2.024,8.768,4.158,12.203c2.15,3.442,4.917,6.064,7.641,7.939
			c2.714,1.926,5.471,2.967,7.752,3.629c0.577,0.151,1.124,0.295,1.638,0.43c0.518,0.116,1.015,0.162,1.471,0.239
			c0.457,0.068,0.88,0.132,1.268,0.189s0.751,0.046,1.07,0.07c1.284,0.06,1.969,0.092,1.969,0.092L110.347,156.054z"/>
	</g>
</g>
<g>
	<circle fill="#C0C0C0" cx="110.348" cy="127.896" r="30.438"/>
	<path fill="#8C8C8C" d="M140.936,127.903c0,0-0.032,0.746-0.092,2.145c-0.024,0.351-0.011,0.741-0.071,1.171
		c-0.062,0.429-0.13,0.897-0.203,1.404c-0.085,0.505-0.129,1.058-0.238,1.634c-0.131,0.571-0.271,1.179-0.419,1.821
		c-0.075,0.321-0.152,0.651-0.231,0.989c-0.111,0.329-0.225,0.667-0.341,1.012c-0.238,0.688-0.423,1.439-0.737,2.172
		c-0.317,0.735-0.648,1.5-0.991,2.293c-0.392,0.771-0.833,1.553-1.275,2.373c-1.901,3.182-4.622,6.55-8.418,9.273
		c-3.785,2.711-8.646,4.662-13.977,5.241c-0.663,0.091-1.341,0.064-2.017,0.101l-1.019,0.032l-0.511,0.016l-0.126-0.001
		l-0.062-0.005l-0.123-0.009l-0.247-0.017c-1.32-0.122-2.616-0.159-4.045-0.478c-2.826-0.439-5.488-1.411-8.101-2.623
		c-2.607-1.233-4.982-2.954-7.234-4.821c-2.196-1.951-4.152-4.19-5.845-6.649c-1.65-2.491-2.947-5.229-3.928-8.096
		c-0.951-2.885-1.438-5.92-1.596-8.986c0.057-1.589-0.036-2.979,0.218-4.574c0.125-1.576,0.497-3.068,0.838-4.575
		c0.878-2.957,2.109-5.811,3.748-8.411c1.688-2.562,3.699-4.886,5.981-6.867c2.325-1.917,4.822-3.603,7.515-4.807
		c2.686-1.188,5.481-2.084,8.3-2.43c1.397-0.274,2.805-0.275,4.188-0.355l0.259-0.01l0.129-0.005l0.065-0.003l0.143,0.005
		l0.491,0.029l0.977,0.06c0.659,0.056,1.272,0.044,1.958,0.154c1.354,0.24,2.747,0.363,3.985,0.757
		c0.632,0.17,1.26,0.339,1.883,0.506c0.609,0.208,1.2,0.459,1.791,0.685c1.199,0.414,2.285,1.033,3.375,1.578
		c0.556,0.252,1.046,0.61,1.548,0.934c0.498,0.328,0.99,0.653,1.478,0.975c3.789,2.753,6.505,6.128,8.402,9.318
		c1.927,3.2,2.909,6.309,3.571,8.85c0.146,0.643,0.286,1.251,0.416,1.823c0.109,0.575,0.151,1.126,0.235,1.63
		c0.072,0.506,0.138,0.974,0.199,1.402c0.058,0.429,0.044,0.824,0.068,1.176c0.056,1.406,0.086,2.156,0.086,2.156V127.903z
		 M140.636,127.896c0,0-0.045-0.742-0.13-2.133c-0.03-0.346-0.024-0.737-0.091-1.159c-0.069-0.423-0.145-0.883-0.226-1.381
		c-0.086-0.497-0.155-1.036-0.296-1.596c-0.159-0.555-0.329-1.145-0.507-1.769c-0.761-2.462-1.998-5.404-4.147-8.264
		c-2.104-2.874-5.014-5.708-8.685-7.955c-1.87-1.059-3.839-2.12-6.028-2.838c-0.544-0.184-1.092-0.369-1.645-0.557
		c-0.566-0.139-1.138-0.278-1.713-0.419c-1.153-0.345-2.307-0.396-3.478-0.6c-0.583-0.091-1.271-0.069-1.908-0.11l-0.978-0.039
		l-0.491-0.02c-0.093-0.002,0.057-0.001,0.02,0.001l-0.058,0.004l-0.117,0.008l-0.234,0.015c-1.245,0.086-2.516,0.063-3.771,0.315
		c-2.542,0.298-5.042,1.12-7.502,2.101c-2.459,1.022-4.755,2.495-6.918,4.182c-2.129,1.743-3.989,3.837-5.638,6.115
		c-1.607,2.315-2.857,4.892-3.798,7.599l-0.608,2.067c-0.239,0.689-0.29,1.388-0.448,2.086c-0.335,1.342-0.357,2.956-0.508,4.346
		c-0.017,2.907,0.268,5.834,1.024,8.662c0.838,2.796,2.023,5.489,3.619,7.914c0.395,0.605,0.85,1.17,1.281,1.747
		c0.223,0.283,0.424,0.583,0.664,0.852l0.731,0.792c0.502,0.512,0.938,1.086,1.489,1.543l1.608,1.399
		c2.236,1.736,4.655,3.175,7.2,4.167c2.533,0.957,5.167,1.702,7.702,1.908c1.225,0.208,2.607,0.148,3.915,0.192l0.247,0.008
		l0.124,0.004l0.062,0.002c0.035,0.002-0.08-0.005-0.003-0.005l0.471-0.034l0.937-0.066c0.621-0.06,1.243-0.053,1.848-0.162
		c4.879-0.64,9.272-2.365,12.947-4.606c3.664-2.276,6.568-5.118,8.668-8c2.148-2.864,3.387-5.809,4.144-8.274
		c0.178-0.624,0.346-1.214,0.504-1.77c0.14-0.56,0.208-1.097,0.292-1.593c0.08-0.497,0.154-0.957,0.222-1.378
		c0.065-0.422,0.059-0.817,0.088-1.166c0.081-1.397,0.124-2.144,0.124-2.144V127.896z"/>
</g>
<path fill="#9A9898" d="M118.567,29.652l-8.705,23.921L99.728,81.415L99.514,82h25.169l17.136-47.076
	C134.56,31.998,126.742,30.173,118.567,29.652z"/>
<circle fill="none" stroke="#622E88" stroke-width="5" stroke-miterlimit="10" cx="109.762" cy="104.724" r="75.216"/>
<g>
	<g>
		<path fill="#622E88" stroke="#622E88" stroke-width="3" stroke-miterlimit="10" d="M215.119,162.837
			c-6.562-1.224-12.94-2.779-19.114-4.636c2.933-6.103,5.539-12.271,7.816-18.473c-51.882,29.431-114.491,32.079-168.395,7.787
			c-4.848-2.195-9.624-4.608-14.315-7.239c2.547,6.379,5.444,12.724,8.695,19c-5.81,1.722-11.798,3.167-17.945,4.309
			C75.104,198.511,152.022,198.275,215.119,162.837L215.119,162.837L215.119,162.837z"/>
	</g>
</g>
<g>
	<g>
		<path fill="#FFFFFF" d="M31.063,164.651c1.519,0.515,3.041,1.013,4.563,1.498c0.43,0.137,0.789,0.116,1.08-0.057
			c0.291-0.174,0.611-0.647,0.959-1.42c0.326,0.1,0.652,0.201,0.978,0.302c-0.406,1.36-0.813,2.724-1.22,4.085
			c-3.025-0.932-6.042-1.923-9.048-2.969c0.062-0.247,0.124-0.495,0.186-0.742c0.651-0.502,1.861-1.195,3.613-2.106
			c1.551-0.811,2.572-1.474,3.081-1.966c0.697-0.668,1.142-1.428,1.34-2.275c0.171-0.732,0.119-1.347-0.155-1.845
			c-0.274-0.497-0.723-0.847-1.351-1.054c-0.635-0.21-1.201-0.231-1.7-0.065c-0.5,0.165-0.791,0.409-0.872,0.735
			c-0.032,0.134-0.011,0.252,0.068,0.36c0.076,0.112,0.284,0.271,0.626,0.472c0.734,0.445,1.032,0.959,0.891,1.548
			c-0.096,0.394-0.326,0.672-0.689,0.827c-0.365,0.155-0.774,0.157-1.229,0.003c-0.473-0.16-0.823-0.468-1.045-0.929
			c-0.222-0.459-0.251-1.01-0.09-1.652c0.226-0.894,0.743-1.525,1.547-1.909c0.985-0.466,2.162-0.474,3.536-0.026
			c1.227,0.4,2.147,1.021,2.766,1.875c0.617,0.854,0.827,1.732,0.624,2.642c-0.109,0.484-0.3,0.901-0.581,1.248
			c-0.376,0.471-0.825,0.856-1.347,1.149c-0.522,0.297-1.363,0.609-2.531,0.932c-1.264,0.339-2.141,0.589-2.625,0.758
			C31.952,164.237,31.495,164.433,31.063,164.651z"/>
		<path fill="#FFFFFF" d="M52.56,172.443c-0.047,0.272-0.094,0.547-0.142,0.819c-1.891-0.462-3.78-0.944-5.666-1.451
			c0.052-0.271,0.103-0.543,0.155-0.815c0.197,0.054,0.396,0.105,0.592,0.158c0.315,0.083,0.562,0.075,0.742-0.024
			c0.18-0.102,0.294-0.286,0.344-0.553c0.221-1.189,0.443-2.377,0.665-3.565c0.114-0.607,0.047-1.116-0.203-1.522
			c-0.25-0.404-0.624-0.678-1.126-0.81c-0.685-0.184-1.288-0.104-1.81,0.232c-0.522,0.339-0.872,0.947-1.048,1.828
			c-0.182,0.913-0.365,1.823-0.546,2.736c-0.053,0.27-0.016,0.495,0.114,0.677c0.129,0.185,0.317,0.312,0.564,0.379
			c0.237,0.065,0.474,0.131,0.71,0.193c-0.052,0.272-0.104,0.544-0.157,0.815c-1.958-0.535-3.914-1.09-5.866-1.672
			c0.057-0.27,0.114-0.539,0.172-0.811c0.252,0.075,0.505,0.15,0.758,0.225c0.293,0.087,0.529,0.08,0.708-0.014
			c0.178-0.096,0.295-0.278,0.351-0.545c0.335-1.619,0.673-3.24,1.012-4.856c0.058-0.279-0.002-0.533-0.178-0.761
			c-0.178-0.229-0.439-0.391-0.785-0.493c-0.13-0.038-0.261-0.079-0.392-0.116c0.054-0.251,0.108-0.504,0.163-0.757
			c1.286,0.315,2.572,0.622,3.859,0.916c0.036,0.542,0.02,1.166-0.047,1.88c0.666-0.497,1.332-0.826,2.001-0.983
			c0.669-0.158,1.339-0.148,2.009,0.027c0.912,0.237,1.582,0.694,2.011,1.373c0.424,0.678,0.551,1.502,0.376,2.477
			c-0.228,1.273-0.455,2.547-0.682,3.82c-0.051,0.292-0.012,0.521,0.119,0.69c0.131,0.168,0.364,0.291,0.699,0.374
			C52.212,172.358,52.386,172.401,52.56,172.443z"/>
		<path fill="#FFFFFF" d="M61.729,161.794c1.516,0.268,3.032,0.518,4.548,0.755c-0.509,3.63-1.012,7.256-1.509,10.886
			c-0.077,0.556-0.086,0.939-0.028,1.148c0.058,0.211,0.169,0.375,0.331,0.494c0.164,0.118,0.496,0.227,0.994,0.32
			c-0.036,0.264-0.07,0.528-0.105,0.792c-1.304-0.209-2.609-0.427-3.913-0.657c-0.018-0.561-0.034-1.117-0.05-1.674
			c-0.689,0.558-1.294,0.899-1.808,1.021c-0.516,0.122-1.135,0.106-1.856-0.051c-1.294-0.284-2.288-0.907-2.975-1.854
			c-0.687-0.948-0.917-2.076-0.696-3.374c0.243-1.435,0.86-2.472,1.842-3.119c0.983-0.647,2.093-0.831,3.339-0.561
			c0.669,0.145,1.245,0.404,1.728,0.778c0.483,0.373,0.896,0.896,1.238,1.578c0.185-1.262,0.369-2.521,0.556-3.783
			c0.066-0.447,0.068-0.781,0.006-0.994c-0.062-0.213-0.165-0.375-0.305-0.479c-0.142-0.104-0.451-0.208-0.925-0.307
			c-0.178-0.038-0.357-0.076-0.536-0.113C61.646,162.334,61.688,162.063,61.729,161.794z M60.563,167.257
			c-0.764-0.164-1.38,0.01-1.852,0.529c-0.389,0.423-0.669,1.164-0.84,2.23c-0.142,0.891-0.16,1.575-0.055,2.056
			c0.103,0.477,0.301,0.86,0.593,1.147c0.292,0.285,0.646,0.477,1.063,0.564c0.686,0.148,1.275,0.007,1.767-0.421
			c0.657-0.558,1.059-1.364,1.212-2.418c0.142-0.978,0.016-1.802-0.375-2.478C61.687,167.792,61.183,167.39,60.563,167.257z"/>
		<path fill="#FFFFFF" d="M79.879,169.442c1.037,0.139,1.971,0.465,2.807,0.978c0.836,0.515,1.441,1.123,1.815,1.827
			c0.373,0.705,0.525,1.521,0.452,2.445c-0.116,1.476-0.769,2.543-1.969,3.197c-1.2,0.65-2.523,0.882-3.963,0.688
			c-1.018-0.14-1.929-0.473-2.731-0.999c-0.801-0.527-1.391-1.169-1.768-1.923c-0.377-0.752-0.517-1.559-0.422-2.418
			c0.144-1.295,0.769-2.297,1.867-3.02C77.065,169.495,78.365,169.237,79.879,169.442z M79.856,170.302
			c-0.688-0.091-1.263,0.103-1.727,0.595c-0.462,0.489-0.766,1.419-0.906,2.794c-0.145,1.43-0.04,2.441,0.32,3.041
			c0.358,0.6,0.89,0.949,1.595,1.045c0.718,0.097,1.322-0.105,1.812-0.607c0.488-0.5,0.791-1.435,0.911-2.8
			c0.124-1.401-0.005-2.407-0.379-3.014C81.106,170.747,80.566,170.396,79.856,170.302z"/>
		<path fill="#FFFFFF" d="M91.288,171.18c0.796,0.07,1.593,0.139,2.389,0.2c-0.018,0.324-0.035,0.648-0.053,0.974
			c-0.799-0.061-1.598-0.128-2.396-0.199c-0.124,2.002-0.247,4.005-0.369,6.009c-0.015,0.232,0.026,0.403,0.123,0.5
			c0.095,0.099,0.277,0.159,0.54,0.183c0.561,0.049,1.12,0.094,1.68,0.139c-0.016,0.279-0.031,0.561-0.046,0.84
			c-2.298-0.184-4.594-0.396-6.89-0.642c0.021-0.28,0.041-0.558,0.061-0.837c0.329,0.034,0.658,0.068,0.987,0.103
			c0.297,0.029,0.508,0.004,0.629-0.081c0.123-0.083,0.19-0.237,0.205-0.46c0.138-2.001,0.276-4,0.415-6.002
			c-0.535-0.051-1.07-0.106-1.605-0.163c0.024-0.323,0.048-0.648,0.072-0.972c0.534,0.054,1.068,0.109,1.601,0.162
			c0.008-0.114,0.017-0.227,0.024-0.341c0.079-1.13,0.324-2.034,0.73-2.715c0.408-0.682,0.946-1.167,1.612-1.457
			c0.666-0.29,1.47-0.396,2.412-0.321c0.875,0.071,1.542,0.312,2.004,0.741c0.461,0.426,0.679,0.931,0.65,1.513
			c-0.022,0.467-0.191,0.835-0.506,1.113c-0.316,0.277-0.682,0.398-1.098,0.368c-0.391-0.03-0.71-0.172-0.961-0.423
			c-0.251-0.257-0.366-0.554-0.347-0.898c0.021-0.357,0.236-0.653,0.645-0.885c0.197-0.117,0.299-0.225,0.304-0.322
			c0.004-0.085-0.041-0.156-0.137-0.221c-0.146-0.094-0.343-0.153-0.592-0.173c-0.329-0.025-0.637,0.042-0.926,0.205
			c-0.29,0.162-0.511,0.409-0.664,0.732c-0.221,0.483-0.349,1.003-0.384,1.563C91.361,170.002,91.324,170.591,91.288,171.18z"/>
		<path fill="#FFFFFF" d="M103.882,168.477c0.292,0.011,0.585,0.022,0.878,0.032c-0.027,1.164-0.054,2.322-0.081,3.487
			c1.026,0.035,2.053,0.063,3.08,0.085c-0.004,0.327-0.009,0.651-0.014,0.979c-1.029-0.021-2.06-0.051-3.088-0.086
			c-0.042,1.796-0.083,3.592-0.125,5.389c-0.008,0.357,0.087,0.639,0.288,0.84c0.199,0.204,0.466,0.308,0.8,0.32
			c0.955,0.028,1.472-0.749,1.549-2.324c0.3,0.008,0.601,0.016,0.901,0.021c-0.031,0.841-0.188,1.513-0.474,2.016
			c-0.286,0.505-0.69,0.891-1.215,1.153c-0.526,0.262-1.117,0.384-1.771,0.361c-0.572-0.02-1.066-0.142-1.479-0.362
			c-0.413-0.22-0.738-0.542-0.973-0.962c-0.237-0.417-0.346-0.867-0.332-1.343c0.053-1.737,0.106-3.476,0.16-5.214
			c-0.553-0.023-1.106-0.052-1.659-0.08c0.01-0.275,0.02-0.554,0.03-0.831c1.017-0.068,1.818-0.389,2.4-0.949
			C103.34,170.444,103.714,169.602,103.882,168.477z"/>
		<path fill="#FFFFFF" d="M109.403,167.189c1.448-0.046,2.896-0.104,4.344-0.177c0.006,2.202,0.013,4.403,0.02,6.604
			c0.673-0.749,1.288-1.268,1.851-1.548c0.562-0.28,1.177-0.427,1.849-0.438c0.929-0.016,1.643,0.222,2.146,0.726
			c0.571,0.578,0.87,1.406,0.894,2.491c0.03,1.341,0.059,2.686,0.088,4.028c0.006,0.278,0.081,0.482,0.225,0.606
			c0.145,0.126,0.353,0.187,0.623,0.176c0.218-0.008,0.438-0.014,0.657-0.021c0.007,0.281,0.015,0.562,0.022,0.845
			c-1.919,0.066-3.839,0.108-5.76,0.132c-0.002-0.28-0.005-0.563-0.008-0.846c0.207-0.004,0.415-0.005,0.622-0.008
			c0.346-0.003,0.58-0.065,0.7-0.183c0.167-0.152,0.249-0.368,0.245-0.639c-0.019-1.319-0.039-2.639-0.057-3.957
			c-0.009-0.568-0.185-1.018-0.525-1.348c-0.342-0.33-0.766-0.491-1.272-0.485c-0.626,0.008-1.164,0.251-1.617,0.729
			c-0.452,0.482-0.678,1.13-0.676,1.952c0.003,1.052,0.006,2.099,0.01,3.147c0,0.271,0.074,0.476,0.221,0.607
			c0.146,0.134,0.355,0.2,0.627,0.197c0.231-0.002,0.461-0.002,0.693-0.004c0.002,0.279,0.004,0.563,0.006,0.844
			c-1.981,0.016-3.962,0.007-5.943-0.024c0.003-0.281,0.005-0.562,0.008-0.844c0.275,0.005,0.55,0.009,0.825,0.012
			c0.292,0.005,0.513-0.063,0.663-0.201c0.151-0.139,0.227-0.337,0.228-0.596c0.015-3.328,0.03-6.655,0.045-9.982
			c0.001-0.291-0.098-0.52-0.298-0.688c-0.201-0.168-0.468-0.255-0.801-0.257c-0.22-0.003-0.44-0.005-0.661-0.01
			C109.397,167.75,109.4,167.47,109.403,167.189z"/>
		<path fill="#FFFFFF" d="M133.489,175.631c-2.204,0.177-4.41,0.323-6.615,0.442c0.069,1.191,0.371,2.056,0.911,2.592
			c0.542,0.536,1.221,0.779,2.035,0.728c0.583-0.038,1.128-0.221,1.634-0.548c0.506-0.326,1.012-0.892,1.514-1.697
			c0.254,0.117,0.509,0.232,0.764,0.35c-0.521,0.954-1.144,1.652-1.868,2.096c-0.722,0.444-1.624,0.701-2.7,0.77
			c-1.566,0.097-2.851-0.263-3.843-1.064c-0.993-0.803-1.506-1.872-1.546-3.194c-0.041-1.325,0.404-2.453,1.325-3.386
			c0.921-0.936,2.066-1.439,3.446-1.525c0.955-0.058,1.784,0.064,2.489,0.37c0.707,0.309,1.271,0.79,1.694,1.444
			C133.15,173.664,133.405,174.537,133.489,175.631z M126.84,175.248c1.048-0.058,2.095-0.121,3.142-0.189
			c0.294-0.02,0.501-0.103,0.622-0.242c0.121-0.142,0.173-0.388,0.155-0.738c-0.036-0.702-0.241-1.233-0.613-1.593
			c-0.371-0.359-0.828-0.526-1.371-0.489c-0.644,0.04-1.124,0.33-1.445,0.87C127.009,173.404,126.846,174.199,126.84,175.248z"/>
		<path fill="#FFFFFF" d="M139.062,165.834c1.945-0.206,3.888-0.437,5.829-0.688c0.027,0.278,0.054,0.561,0.081,0.84
			c-0.183,0.025-0.366,0.048-0.55,0.072c-0.347,0.043-0.577,0.111-0.69,0.201c-0.115,0.09-0.165,0.211-0.151,0.362
			c0.01,0.107,0.044,0.229,0.102,0.362c1.207,2.515,2.434,5.019,3.68,7.515c0.631-2.402,1.243-4.812,1.835-7.221
			c-0.186-0.37-0.372-0.738-0.557-1.108c-0.118-0.228-0.262-0.375-0.435-0.441c-0.228-0.09-0.519-0.109-0.872-0.062
			c-0.235,0.033-0.47,0.065-0.705,0.099c-0.028-0.281-0.057-0.561-0.084-0.842c2.237-0.307,4.472-0.645,6.706-1.013
			c0.034,0.281,0.067,0.559,0.101,0.839c-0.206,0.032-0.413,0.067-0.619,0.101c-0.451,0.072-0.752,0.17-0.901,0.292
			c-0.149,0.122-0.213,0.276-0.192,0.463c0.009,0.077,0.035,0.158,0.079,0.246c1.26,2.475,2.539,4.942,3.837,7.401
			c0.538-2.45,1.058-4.901,1.559-7.355c0.05-0.226,0.063-0.435,0.037-0.634c-0.049-0.366-0.192-0.63-0.43-0.791
			c-0.238-0.158-0.529-0.209-0.875-0.147c-0.137,0.024-0.274,0.046-0.411,0.071c-0.036-0.279-0.072-0.557-0.106-0.838
			c1.567-0.272,3.133-0.56,4.697-0.862c0.04,0.278,0.08,0.557,0.119,0.835c-0.519,0.112-0.918,0.305-1.199,0.575
			c-0.281,0.271-0.464,0.63-0.55,1.077c-0.825,4.061-1.704,8.115-2.635,12.166c-0.416,0.07-0.831,0.137-1.247,0.206
			c-1.545-2.926-3.064-5.864-4.554-8.815c-0.81,3.292-1.654,6.581-2.535,9.865c-0.414,0.056-0.827,0.11-1.24,0.162
			c-1.912-3.835-3.776-7.691-5.592-11.564c-0.113-0.243-0.25-0.406-0.408-0.489c-0.16-0.083-0.357-0.111-0.593-0.086
			c-0.154,0.017-0.309,0.033-0.463,0.049C139.106,166.395,139.084,166.115,139.062,165.834z"/>
		<path fill="#FFFFFF" d="M171.346,169.697c-2.18,0.511-4.362,0.994-6.549,1.447c0.199,1.175,0.594,1.99,1.191,2.441
			c0.598,0.451,1.301,0.591,2.107,0.415c0.578-0.127,1.102-0.392,1.571-0.793c0.47-0.402,0.913-1.044,1.326-1.921
			c0.267,0.077,0.533,0.155,0.8,0.232c-0.416,1.028-0.961,1.819-1.636,2.371c-0.672,0.552-1.544,0.946-2.61,1.176
			c-1.552,0.333-2.871,0.171-3.948-0.476c-1.076-0.648-1.702-1.634-1.888-2.945c-0.185-1.315,0.136-2.502,0.95-3.573
			c0.816-1.068,1.902-1.745,3.266-2.04c0.945-0.204,1.786-0.209,2.523-0.01s1.353,0.592,1.848,1.181
			C170.792,167.79,171.143,168.623,171.346,169.697z M164.675,170.327c1.038-0.215,2.074-0.436,3.111-0.665
			c0.291-0.062,0.489-0.175,0.594-0.335c0.104-0.16,0.129-0.412,0.073-0.76c-0.113-0.693-0.375-1.19-0.786-1.491
			c-0.41-0.302-0.883-0.395-1.421-0.279c-0.636,0.138-1.084,0.498-1.344,1.084C164.641,168.468,164.566,169.283,164.675,170.327z"/>
		<path fill="#FFFFFF" d="M183.035,166.664c-2.167,0.618-4.337,1.204-6.511,1.762c0.239,1.166,0.664,1.962,1.277,2.386
			c0.615,0.424,1.325,0.529,2.126,0.313c0.575-0.152,1.091-0.444,1.546-0.87c0.457-0.425,0.878-1.086,1.262-1.983
			c0.27,0.065,0.54,0.128,0.81,0.193c-0.38,1.048-0.9,1.865-1.557,2.45c-0.655,0.582-1.515,1.021-2.575,1.302
			c-1.544,0.409-2.872,0.308-3.973-0.286c-1.101-0.597-1.762-1.555-1.993-2.855c-0.231-1.306,0.049-2.51,0.827-3.619
			c0.78-1.109,1.844-1.838,3.201-2.198c0.94-0.25,1.782-0.293,2.527-0.131c0.747,0.164,1.377,0.528,1.894,1.092
			C182.413,164.784,182.794,165.6,183.035,166.664z M176.372,167.614c1.032-0.266,2.064-0.535,3.094-0.814
			c0.291-0.078,0.485-0.199,0.584-0.364c0.099-0.164,0.115-0.417,0.046-0.763c-0.138-0.689-0.418-1.172-0.839-1.455
			c-0.421-0.281-0.898-0.352-1.434-0.209c-0.633,0.167-1.069,0.551-1.308,1.148C176.274,165.755,176.227,166.574,176.372,167.614z"
			/>
		<path fill="#FFFFFF" d="M182.728,157.096c1.412-0.454,2.821-0.921,4.228-1.402c0.699,3.023,1.392,6.047,2.079,9.071
			c0.763-0.94,1.519-1.883,2.268-2.831c0.355-0.455,0.506-0.793,0.455-1.007c-0.033-0.136-0.148-0.224-0.347-0.27
			c-0.198-0.045-0.492-0.006-0.88,0.119c-0.106,0.035-0.213,0.068-0.319,0.103c-0.062-0.267-0.126-0.534-0.189-0.802
			c1.768-0.565,3.531-1.153,5.292-1.758c0.068,0.266,0.135,0.532,0.203,0.797c-0.562,0.212-0.99,0.425-1.282,0.643
			c-0.4,0.297-0.758,0.659-1.078,1.081c-0.419,0.555-0.841,1.108-1.265,1.663c1.458,1.008,2.93,2.005,4.413,2.987
			c0.357,0.229,0.731,0.273,1.121,0.141c0.166-0.059,0.332-0.114,0.497-0.174c0.068,0.272,0.137,0.545,0.207,0.816
			c-1.949,0.676-3.903,1.329-5.859,1.955c-0.064-0.273-0.128-0.547-0.191-0.82c0.191-0.062,0.384-0.124,0.576-0.186
			c0.277-0.089,0.465-0.18,0.564-0.272c0.1-0.093,0.141-0.174,0.124-0.243c-0.016-0.064-0.064-0.124-0.149-0.179
			c-0.96-0.676-1.916-1.358-2.867-2.043c-0.354,0.43-0.709,0.856-1.064,1.285c0.124,0.548,0.248,1.097,0.372,1.644
			c0.059,0.259,0.16,0.425,0.304,0.496c0.145,0.072,0.353,0.063,0.626-0.022c0.215-0.067,0.432-0.135,0.647-0.202
			c0.063,0.273,0.126,0.547,0.189,0.819c-1.911,0.605-3.826,1.189-5.744,1.748c-0.058-0.273-0.116-0.55-0.174-0.824
			c0.236-0.069,0.473-0.138,0.709-0.208c0.341-0.101,0.572-0.246,0.697-0.438c0.125-0.19,0.156-0.435,0.092-0.729
			c-0.723-3.324-1.454-6.651-2.191-9.975c-0.05-0.223-0.164-0.372-0.342-0.445s-0.406-0.069-0.684,0.016
			c-0.287,0.084-0.575,0.169-0.862,0.253C182.844,157.633,182.786,157.366,182.728,157.096z"/>
	</g>
</g>
<path fill="#8B8B8B" d="M135.13,128.847c-1.277-4.008-4.695-6.63-8.552-6.588l-2.795,0.103l-0.885-2.221
	c-1.72-4.309-2.607-6.42-2.88-6.83c-0.271-0.411-0.302-0.416-2.849-0.416c-2.256,0-2.612,0.039-2.805,0.301
	c-0.315,0.414-0.297,0.668,0.097,1.062c0.303,0.303,0.571,0.341,2.285,0.341c1.353,0,1.992,0.064,2.103,0.214
	c0.192,0.254,0.904,1.992,0.904,2.201c0,0.08-3.568,0.144-7.928,0.144h-7.933l-0.337-0.669c-0.19-0.373-0.347-0.711-0.347-0.751
	c0-0.046,0.812-0.171,1.806-0.291c2.023-0.239,2.766-0.596,2.279-1.092c-0.218-0.225-0.826-0.276-3.532-0.31
	c-2.226-0.025-3.333,0.02-3.46,0.15c-0.103,0.104-0.164,0.487-0.133,0.852c0.048,0.586,0.096,0.92,0.638,0.856l0.82-0.106
	l1.066,2.009l-3.33,5.105c-2.374-0.712-4.53-0.874-6.968-0.088c-1.173,0.493-2.835,1.674-3.595,2.564
	c-0.995,1.162-1.777,2.92-2.01,4.527c-0.026,0.177-0.044,0.358-0.056,0.533v1.221c0.251,3.459,2.651,6.694,6.006,7.807
	c1.557,0.522,1.594,0.528,3.222,0.472c1.216-0.041,1.807-0.161,2.863-0.57c1.535-0.598,2.252-1.19,3.854-2.938
	c1.623-1.778,1.792-3.804,1.855-4.344c0.133-0.048,1.461-0.093,2.953-0.093h2.717l0.024,1.365c0.016,0.75-0.038,1.709-0.03,1.873
	c0.013,0.234-0.073,0.1-0.646,0.141c-0.649,0.043-0.732,0.098-0.683,0.425c0.041,0.3,0.184,0.39,0.718,0.431
	c0.365,0.033,1.248-0.107,1.469-0.164l0.046-4.121l1.148-1.433c0.653-0.825,1.249-1.577,1.318-1.669
	c0.074-0.097,0.408-0.519,0.742-0.942c0.332-0.422,1.895-2.396,3.471-4.393c1.575-1.992,2.915-3.627,2.985-3.627
	c0.072,0,0.209,0.176,0.309,0.391c0.611,1.28,0.938,2.136,1.016,2.633c0.082,0.486,0.037,0.579-0.357,0.728
	c-0.675,0.259-2.521,2.216-3.066,3.261c-0.681,1.301-1.132,2.963-1.132,4.202c0,1.829,1.231,4.849,2.491,6.103
	c3.423,3.423,8.356,3.733,12.084,0.765c1.302-1.157,2.404-2.674,2.935-4.346C135.406,132.4,135.456,129.858,135.13,128.847z
	 M100.074,125.522c1.198,1.085,2.358,2.158,2.573,4.548l-5.481,0.08L100.074,125.522z M95.261,137.905
	c-3.274-0.109-6.721-2.613-6.686-7.208c0.029-4.542,4.907-7.689,9.978-5.938c-1.334,2.354-4.4,6.377-4.029,6.886
	c0.384,0.53,1.109,0.354,4.554,0.354h3.664C102.368,137.084,97.254,137.969,95.261,137.905z M104.489,130.044
	c-0.496-2.441-1.9-4.399-3.583-6.203l2.396-3.953c0.101,0,0.553,0.671,1.011,1.488c0.458,0.823,1.739,3.104,2.852,5.065
	c1.11,1.96,2.001,3.654,1.921,3.654L104.489,130.044z M115.077,124.172c-0.123,0.145-0.613,0.814-1.132,1.447l-2.888,3.517
	l-0.002-2.205c0.44-0.013,1.337-0.006,1.307-0.568c-0.024-0.565-1.265-0.41-2.125-0.372l0.086,3.219l-5.278-10.345h6.928
	c5.82,0,6.928,0.04,6.928,0.24C118.901,119.289,116.952,121.871,115.077,124.172z M131.487,136.234
	c-1.82,1.759-4.472,2.472-6.807,1.831c-3.509-0.968-5.836-4.384-5.302-7.79c0.299-1.897,0.812-2.974,1.994-4.177
	c1.374-1.405,1.624-1.413,2.132-0.071c0.122,0.328,0.389,0.987,0.592,1.453c0.204,0.471,0.671,1.601,1.041,2.512
	c0.754,1.866,1.184,2.301,1.78,1.76c0.489-0.682,0.059-1.686-0.479-2.849c-0.288-0.526-1.741-4.442-1.741-4.697
	c0.408-0.405,1.351-0.208,1.919-0.189c1.634,0.072,2.065,0.156,2.919,0.553c1.265,0.591,2.904,2.231,3.496,3.505
	c0.392,0.844,0.706,1.172,0.727,3.109C133.995,133.146,132.763,134.832,131.487,136.234z"/>
</svg>
