<?xml version="1.0" encoding="utf-8"?>
<!-- Generator: Adobe Illustrator 16.0.4, SVG Export Plug-In . SVG Version: 6.00 Build 0)  -->
<!DOCTYPE svg PUBLIC "-//W3C//DTD SVG 1.1//EN" "http://www.w3.org/Graphics/SVG/1.1/DTD/svg11.dtd">
<svg version="1.1" id="Livello_1" xmlns="http://www.w3.org/2000/svg" xmlns:xlink="http://www.w3.org/1999/xlink" x="0px" y="0px"
	 width="225.205px" height="214.48px" viewBox="0 0 225.205 214.48" enable-background="new 0 0 225.205 214.48"
	 xml:space="preserve">
<circle fill="#FFFFFF" stroke="#2A398D" stroke-width="4" stroke-miterlimit="10" cx="110.458" cy="104.723" r="82.153"/>
<g>
	<path fill="#C4941A" d="M97.394,32.938c-7.636,1.504-14.855,4.162-21.471,7.787l20.293,42.713h1.809l10.134-27.842L97.394,32.938z"
		/>
	<polygon fill="#C4941A" points="108.159,55.597 98.025,83.438 121.386,83.438 	"/>
</g>
<path fill="#DAA620" d="M110.476,95.911c-9.469,0-17.142-4.691-17.142-10.48c0-5.791,7.673-10.482,17.142-10.482
	c9.468,0,17.142,4.691,17.142,10.482C127.618,91.22,119.944,95.911,110.476,95.911z M110.476,70.755
	c-13.251,0-23.999,6.572-23.999,14.676s10.748,14.674,23.999,14.674s23.999-6.57,23.999-14.674S123.727,70.755,110.476,70.755z"/>
<g>
	<path fill="#DAA620" d="M111.043,88.937c-21.521,0-38.974,17.572-38.974,39.238c0,21.668,17.453,39.238,38.974,39.238
		c21.519,0,38.973-17.57,38.973-39.238C150.016,106.509,132.562,88.937,111.043,88.937z M111.043,156.202
		c-15.377,0-27.838-12.547-27.838-28.027s12.461-28.027,27.838-28.027c15.376,0,27.838,12.547,27.838,28.027
		S126.419,156.202,111.043,156.202z"/>
	<g>
		<path fill="#C4941A" d="M111.051,89.086c0,0-0.958,0.046-2.756,0.133c-0.447,0.033-0.955,0.018-1.499,0.1
			c-0.544,0.082-1.137,0.171-1.779,0.268c-0.639,0.109-1.336,0.174-2.062,0.338c-0.721,0.188-1.487,0.389-2.297,0.601
			c-3.197,0.929-7.064,2.378-10.887,5.059c-3.833,2.615-7.735,6.273-10.794,11.091c-3.036,4.809-5.27,10.696-5.952,17.15
			c-0.114,0.801-0.083,1.623-0.133,2.44c-0.007,0.808-0.116,1.672-0.041,2.446c0.118,1.681,0.118,3.433,0.46,5.061
			c0.417,3.328,1.525,6.682,2.893,9.901c0.386,0.79,0.772,1.584,1.161,2.381c0.388,0.797,0.909,1.524,1.359,2.294l0.701,1.144
			c0.25,0.371,0.535,0.719,0.801,1.08c0.55,0.71,1.065,1.452,1.646,2.143c2.349,2.753,5.114,5.177,8.147,7.256
			c3.085,2.013,6.478,3.559,10.016,4.678c3.57,1.043,7.288,1.506,11.008,1.565c1.772-0.145,3.859-0.13,5.58-0.515l1.349-0.222
			l0.674-0.109l0.67-0.182l2.678-0.721c3.502-1.174,6.84-2.766,9.859-4.811c2.97-2.109,5.65-4.556,7.934-7.293
			c2.196-2.8,4.107-5.78,5.459-8.967c1.332-3.176,2.406-6.438,2.808-9.749c0.333-1.637,0.319-3.293,0.431-4.917l0.031-0.536
			l-0.024-0.631l-0.046-1.257c-0.049-0.823-0.021-1.692-0.134-2.462c-0.108-0.771-0.215-1.538-0.321-2.299
			c-0.06-0.382-0.089-0.762-0.17-1.141l-0.269-1.132c-0.175-0.754-0.348-1.502-0.52-2.244c-0.22-0.729-0.482-1.439-0.717-2.152
			c-0.94-2.856-2.279-5.455-3.697-7.875c-2.954-4.782-6.746-8.462-10.496-11.125c-3.742-2.727-7.563-4.231-10.733-5.208
			c-0.804-0.224-1.565-0.435-2.281-0.634c-0.722-0.174-1.417-0.248-2.055-0.365c-0.64-0.105-1.232-0.203-1.775-0.293
			c-0.543-0.089-1.046-0.08-1.492-0.119c-1.788-0.11-2.742-0.169-2.742-0.169L111.051,89.086z M111.043,88.786
			c0,0,0.963,0.039,2.768,0.111c0.451,0.031,0.959,0.011,1.509,0.089c0.55,0.079,1.15,0.164,1.8,0.257
			c0.646,0.105,1.353,0.167,2.087,0.326c0.732,0.176,1.51,0.363,2.332,0.561c3.247,0.882,7.197,2.24,11.215,4.792
			c4.011,2.518,8.172,6.098,11.58,10.941c3.39,4.857,5.975,10.864,6.858,17.789c0.139,0.86,0.128,1.662,0.2,2.504l0.079,1.255
			l0.04,0.631c-0.001-0.041,0.007,0.144,0.004,0.155l-0.004,0.082l-0.007,0.164l-0.015,0.328c-0.101,1.752-0.083,3.538-0.423,5.31
			c-0.414,3.579-1.537,7.121-2.959,10.571c-0.408,0.842-0.817,1.687-1.229,2.535c-0.412,0.848-0.96,1.625-1.438,2.444l-0.744,1.217
			c-0.265,0.395-0.566,0.767-0.848,1.152c-0.582,0.757-1.13,1.546-1.747,2.282c-2.487,2.938-5.44,5.51-8.672,7.717
			c-3.286,2.139-6.9,3.782-10.671,4.964l-2.878,0.719l-0.72,0.179l-0.746,0.109l-1.493,0.216c-0.996,0.146-1.998,0.307-2.942,0.306
			l-2.937,0.121c-3.955-0.116-7.894-0.671-11.66-1.832c-3.734-1.237-7.294-2.928-10.514-5.098c-3.168-2.237-6.036-4.831-8.458-7.756
			c-0.599-0.733-1.13-1.519-1.694-2.271c-0.273-0.384-0.565-0.753-0.821-1.146l-0.718-1.208c-0.46-0.812-0.991-1.583-1.386-2.423
			c-0.394-0.839-0.787-1.675-1.178-2.508c-1.387-3.406-2.476-6.856-2.874-10.419c-0.331-1.78-0.298-3.471-0.394-5.166
			c-0.006-0.229-0.023-0.384-0.022-0.672l0.04-0.643l0.08-1.278c0.072-0.848,0.064-1.696,0.201-2.525
			c0.869-6.665,3.318-12.679,6.6-17.481c3.302-4.809,7.354-8.41,11.283-10.975c3.938-2.598,7.841-4.012,11.062-4.94
			c0.816-0.209,1.588-0.407,2.315-0.594c0.73-0.17,1.435-0.24,2.08-0.354c0.648-0.102,1.247-0.195,1.796-0.281
			c0.549-0.085,1.053-0.072,1.501-0.108c1.796-0.098,2.754-0.148,2.754-0.148L111.043,88.786z"/>
		<path fill="#C4941A" d="M111.036,156.352c0,0-0.684-0.037-1.967-0.107c-0.321-0.027-0.68-0.018-1.073-0.079
			s-0.822-0.13-1.286-0.202c-0.461-0.082-0.965-0.134-1.488-0.255c-0.52-0.133-1.073-0.274-1.656-0.424
			c-2.304-0.662-5.098-1.667-7.928-3.511c-2.821-1.824-5.736-4.389-8.129-7.822c-2.379-3.431-4.158-7.745-4.806-12.536
			c-0.101-0.596-0.099-1.206-0.153-1.815c-0.021-0.623-0.126-1.199-0.078-1.873c0.065-1.213,0.037-2.412,0.271-3.705
			c0.281-2.578,1.057-5.057,2.049-7.518c1.025-2.449,2.479-4.744,4.159-6.899c1.74-2.113,3.803-3.991,6.086-5.61
			c2.32-1.573,4.887-2.801,7.583-3.701c2.718-0.847,5.564-1.254,8.422-1.346c1.506,0.082,2.73,0.024,4.242,0.292
			c1.473,0.147,2.846,0.528,4.236,0.871c2.732,0.845,5.354,2.026,7.739,3.567c2.346,1.59,4.495,3.444,6.3,5.573
			c1.75,2.164,3.277,4.483,4.368,6.975c1.028,2.503,1.838,5.073,2.135,7.669c0.243,1.284,0.229,2.578,0.3,3.848l0.01,0.238
			l0.005,0.119l0.003,0.06l-0.004,0.133l-0.031,0.45l-0.061,0.896c-0.055,0.604-0.05,1.168-0.152,1.796
			c-0.661,5.05-2.576,9.357-5.063,12.842c-2.499,3.469-5.524,6.013-8.427,7.79c-2.91,1.797-5.75,2.746-8.081,3.361
			c-0.59,0.138-1.148,0.268-1.673,0.39c-0.526,0.112-1.032,0.154-1.496,0.228c-0.465,0.064-0.895,0.124-1.289,0.178
			c-0.394,0.055-0.758,0.039-1.081,0.06c-1.292,0.046-1.98,0.071-1.98,0.071L111.036,156.352z M111.043,156.052
			c0,0,0.68-0.044,1.956-0.129c0.317-0.029,0.676-0.024,1.063-0.089c0.386-0.065,0.809-0.137,1.265-0.215
			c0.454-0.085,0.949-0.141,1.463-0.266c0.509-0.146,1.05-0.301,1.622-0.464c2.254-0.71,4.965-1.806,7.599-3.777
			c2.643-1.923,5.298-4.565,7.343-7.974c0.982-1.723,1.897-3.571,2.543-5.59c0.161-0.504,0.341-1.006,0.491-1.521
			c0.116-0.524,0.233-1.053,0.351-1.585c0.296-1.064,0.337-2.124,0.514-3.201c0.076-0.537,0.054-1.167,0.086-1.752l0.029-0.898
			l0.014-0.451c0.002-0.086,0,0.054-0.001,0.02l-0.003-0.053L137.371,128l-0.012-0.214c-0.082-1.142-0.072-2.307-0.309-3.457
			c-0.285-2.327-1.045-4.617-1.983-6.847c-0.945-2.24-2.282-4.338-3.821-6.311c-1.603-1.927-3.478-3.656-5.562-5.148
			c-2.119-1.447-4.464-2.576-6.927-3.414c-1.254-0.34-2.514-0.727-3.771-0.881c-1.182-0.277-2.717-0.273-3.943-0.381
			c-2.625,0.035-5.248,0.352-7.771,1.079c-2.5,0.782-4.899,1.865-7.083,3.28c-2.147,1.463-4.108,3.17-5.776,5.111
			c-1.608,1.982-3.019,4.104-4.029,6.386c-0.974,2.272-1.768,4.655-2.068,6.999c-0.246,1.141-0.25,2.4-0.338,3.6
			c-0.055,0.533,0.019,1.156,0.021,1.727c0.032,0.58,0.007,1.162,0.085,1.731c0.46,4.579,2.024,8.768,4.157,12.204
			c2.15,3.442,4.917,6.063,7.641,7.938c2.714,1.927,5.472,2.967,7.752,3.63c0.577,0.151,1.124,0.294,1.638,0.429
			c0.518,0.116,1.015,0.162,1.471,0.239c0.457,0.068,0.88,0.132,1.268,0.189s0.751,0.046,1.07,0.07
			c1.284,0.06,1.969,0.092,1.969,0.092L111.043,156.052z"/>
	</g>
</g>
<g>
	<circle fill="#C4941A" cx="111.043" cy="127.896" r="30.438"/>
	<path fill="#987314" d="M141.631,127.903c0,0-0.032,0.746-0.092,2.146c-0.024,0.35-0.012,0.74-0.071,1.17
		c-0.062,0.43-0.13,0.898-0.203,1.404c-0.085,0.505-0.129,1.058-0.238,1.634c-0.131,0.571-0.271,1.179-0.419,1.821
		c-0.075,0.321-0.152,0.65-0.231,0.989c-0.111,0.329-0.225,0.667-0.341,1.012c-0.238,0.688-0.422,1.439-0.737,2.172
		c-0.318,0.735-0.648,1.5-0.991,2.293c-0.392,0.771-0.834,1.552-1.275,2.373c-1.901,3.182-4.623,6.55-8.419,9.273
		c-3.785,2.71-8.647,4.661-13.978,5.239c-0.663,0.091-1.341,0.064-2.017,0.102l-1.018,0.031l-0.511,0.016l-0.126-0.001l-0.062-0.005
		l-0.123-0.009l-0.246-0.017c-1.32-0.122-2.617-0.16-4.045-0.479c-2.826-0.438-5.487-1.41-8.101-2.623
		c-2.607-1.232-4.982-2.953-7.234-4.821c-2.196-1.95-4.152-4.189-5.845-6.649c-1.651-2.49-2.947-5.228-3.928-8.096
		c-0.951-2.903-1.439-5.879-1.594-9.027c-0.038-2.921,0.264-6.144,1.056-9.108c0.878-2.957,2.11-5.811,3.749-8.41
		c1.688-2.562,3.7-4.886,5.981-6.867c2.325-1.917,4.822-3.603,7.515-4.807c2.686-1.188,5.481-2.084,8.3-2.431
		c1.397-0.273,2.805-0.275,4.188-0.354l0.259-0.01l0.129-0.005l0.065-0.003l0.143,0.005l0.491,0.029l0.977,0.06
		c0.659,0.056,1.271,0.044,1.958,0.154c1.354,0.24,2.747,0.363,3.985,0.758c0.632,0.17,1.26,0.338,1.883,0.505
		c0.609,0.209,1.199,0.46,1.791,0.685c1.199,0.415,2.285,1.034,3.375,1.579c0.556,0.252,1.046,0.611,1.548,0.935
		c0.498,0.327,0.991,0.652,1.478,0.974c3.789,2.754,6.504,6.129,8.401,9.318c1.927,3.201,2.909,6.31,3.571,8.851
		c0.146,0.643,0.286,1.251,0.416,1.823c0.109,0.575,0.151,1.126,0.235,1.63c0.072,0.506,0.138,0.974,0.199,1.402
		c0.058,0.429,0.044,0.824,0.068,1.176c0.056,1.406,0.086,2.156,0.086,2.156V127.903z M141.331,127.896c0,0-0.045-0.741-0.13-2.133
		c-0.03-0.347-0.024-0.737-0.091-1.159c-0.069-0.423-0.145-0.883-0.226-1.381c-0.086-0.497-0.155-1.036-0.296-1.596
		c-0.159-0.555-0.329-1.145-0.507-1.769c-0.761-2.462-1.997-5.404-4.147-8.264c-2.103-2.874-5.013-5.709-8.684-7.956
		c-1.87-1.06-3.839-2.12-6.028-2.838c-0.543-0.185-1.092-0.37-1.645-0.558c-0.567-0.138-1.138-0.278-1.713-0.419
		c-1.153-0.344-2.307-0.396-3.479-0.6c-0.582-0.091-1.271-0.069-1.907-0.11l-0.978-0.039l-0.491-0.02
		c-0.093-0.002,0.057-0.001,0.02,0.001l-0.058,0.004l-0.117,0.008l-0.234,0.015c-1.245,0.086-2.516,0.063-3.771,0.315
		c-2.542,0.298-5.042,1.12-7.502,2.101c-2.459,1.022-4.755,2.495-6.918,4.181c-2.129,1.744-3.989,3.838-5.638,6.116
		c-1.606,2.315-2.857,4.892-3.799,7.599c-0.915,2.748-1.388,5.487-1.565,8.54c-0.015,2.824,0.267,5.811,1.024,8.621
		c0.838,2.796,2.022,5.489,3.618,7.913c0.394,0.606,0.85,1.171,1.281,1.748c0.223,0.283,0.425,0.583,0.664,0.852l0.731,0.791
		c0.502,0.512,0.938,1.087,1.488,1.544l1.609,1.399c2.236,1.736,4.654,3.174,7.2,4.166c2.533,0.958,5.167,1.703,7.702,1.908
		c1.225,0.208,2.606,0.149,3.915,0.193l0.247,0.008l0.123,0.004l0.062,0.002c0.035,0.002-0.08-0.005-0.003-0.005l0.471-0.034
		l0.937-0.066c0.621-0.059,1.243-0.053,1.848-0.162c4.879-0.64,9.272-2.364,12.947-4.605c3.664-2.275,6.569-5.117,8.669-7.999
		c2.148-2.864,3.387-5.809,4.143-8.274c0.178-0.624,0.347-1.214,0.505-1.77c0.14-0.56,0.208-1.097,0.292-1.593
		c0.08-0.497,0.154-0.957,0.222-1.378c0.065-0.422,0.059-0.818,0.088-1.166c0.081-1.397,0.124-2.144,0.124-2.144V127.896z"/>
</g>
<path fill="#C4941A" d="M115.206,31.091L106.5,55.013L96.366,82.854l-0.213,0.584h25.169l17.135-47.076
	C131.199,33.437,123.379,31.61,115.206,31.091z"/>
<g>
	<path fill="#816214" d="M93.809,113.337h7.097c0.097,0,0.188,0.018,0.272,0.053c0.086,0.035,0.16,0.085,0.224,0.148
		s0.112,0.138,0.147,0.223c0.035,0.086,0.053,0.177,0.053,0.273c0,0.145-0.044,0.279-0.131,0.407l-6.236,8.017h5.671
		c0.197,0.004,0.362,0.074,0.496,0.21s0.2,0.301,0.2,0.493c0,0.193-0.066,0.355-0.2,0.489s-0.297,0.2-0.489,0.2h-7.104
		c-0.101,0-0.192-0.018-0.276-0.053c-0.083-0.035-0.156-0.084-0.22-0.147s-0.113-0.137-0.148-0.22
		c-0.034-0.084-0.052-0.176-0.052-0.276c0.004-0.167,0.052-0.312,0.145-0.434l6.223-7.99h-5.671c-0.188,0-0.352-0.067-0.489-0.203
		c-0.139-0.136-0.207-0.301-0.207-0.493c0-0.193,0.068-0.357,0.207-0.492C93.458,113.405,93.621,113.337,93.809,113.337z"/>
	<path fill="#816214" d="M109.343,122.458c0.192,0,0.356,0.068,0.492,0.204s0.204,0.3,0.204,0.492s-0.068,0.357-0.204,0.493
		s-0.3,0.203-0.492,0.203h-6.078c-0.102,0-0.193-0.018-0.276-0.053s-0.156-0.084-0.22-0.147c-0.064-0.063-0.113-0.137-0.148-0.22
		c-0.035-0.084-0.053-0.176-0.053-0.276v-9.12c0-0.097,0.018-0.188,0.053-0.273c0.035-0.085,0.084-0.159,0.148-0.223
		c0.063-0.063,0.137-0.113,0.22-0.148s0.175-0.053,0.276-0.053h6.078c0.192,0,0.356,0.068,0.492,0.205
		c0.136,0.135,0.204,0.299,0.204,0.492c0,0.192-0.068,0.357-0.204,0.493s-0.3,0.203-0.492,0.203h-5.382v3.167h3.863
		c0.193,0,0.357,0.068,0.493,0.204s0.203,0.3,0.203,0.492s-0.067,0.358-0.203,0.493c-0.136,0.137-0.3,0.203-0.493,0.203h-3.863
		v3.168H109.343z"/>
	<path fill="#816214" d="M110.972,123.154v-9.12c0-0.097,0.018-0.188,0.053-0.273c0.035-0.085,0.084-0.159,0.148-0.223
		c0.063-0.063,0.137-0.113,0.22-0.148s0.175-0.053,0.276-0.053h2.536c0.442,0,0.859,0.086,1.252,0.257
		c0.392,0.171,0.733,0.403,1.024,0.696c0.292,0.294,0.522,0.637,0.693,1.028c0.171,0.393,0.257,0.81,0.257,1.252
		c0,0.289-0.036,0.57-0.108,0.845c-0.072,0.273-0.18,0.532-0.322,0.775s-0.32,0.469-0.532,0.677
		c-0.213,0.208-0.459,0.392-0.739,0.549l2.096,3.357c0.075,0.122,0.112,0.249,0.112,0.381c0,0.101-0.018,0.192-0.053,0.276
		c-0.035,0.083-0.084,0.156-0.147,0.22c-0.064,0.063-0.139,0.112-0.224,0.147c-0.086,0.035-0.177,0.053-0.272,0.053
		c-0.246,0-0.445-0.113-0.599-0.342l-2.319-3.712h-1.958v3.357c0,0.192-0.068,0.357-0.204,0.493s-0.3,0.203-0.492,0.203
		c-0.193,0-0.357-0.067-0.493-0.203S110.972,123.347,110.972,123.154z M112.366,114.73v3.674h1.84c0.254,0,0.492-0.048,0.716-0.145
		s0.418-0.229,0.582-0.398s0.294-0.363,0.391-0.585c0.097-0.221,0.145-0.457,0.145-0.706c0-0.255-0.048-0.492-0.145-0.716
		s-0.228-0.419-0.395-0.586c-0.166-0.166-0.361-0.298-0.584-0.394c-0.224-0.097-0.46-0.145-0.71-0.145H112.366z"/>
	<path fill="#816214" d="M129.404,118.594c0,1.45-0.515,2.69-1.544,3.72c-1.025,1.024-2.263,1.537-3.713,1.537
		c-1.454,0-2.693-0.513-3.719-1.537c-1.025-1.025-1.538-2.266-1.538-3.72c0-1.45,0.513-2.687,1.538-3.712
		c1.029-1.029,2.27-1.545,3.719-1.545c1.446,0,2.684,0.516,3.713,1.545c0.517,0.518,0.903,1.082,1.16,1.695
		C129.276,117.19,129.404,117.862,129.404,118.594z M124.147,114.73c-0.543,0-1.039,0.095-1.488,0.283
		c-0.448,0.188-0.864,0.473-1.245,0.854c-0.381,0.381-0.664,0.794-0.851,1.24c-0.187,0.447-0.279,0.942-0.279,1.485
		c0,1.069,0.377,1.98,1.13,2.733c0.754,0.754,1.665,1.131,2.733,1.131c1.069,0,1.98-0.377,2.734-1.131
		c0.753-0.753,1.13-1.664,1.13-2.733c0-1.064-0.377-1.973-1.13-2.726C126.123,115.11,125.211,114.73,124.147,114.73z"/>
	<path fill="#816214" d="M89.393,139.304c0,0.192-0.067,0.356-0.203,0.492c-0.136,0.137-0.301,0.204-0.493,0.204
		s-0.357-0.067-0.493-0.204c-0.136-0.136-0.203-0.3-0.203-0.492v-9.121c0-0.192,0.067-0.356,0.203-0.492s0.301-0.204,0.493-0.204
		s0.357,0.068,0.493,0.204s0.203,0.3,0.203,0.492V139.304z"/>
	<path fill="#816214" d="M90.72,139.304v-9.121c0-0.096,0.018-0.188,0.053-0.271c0.035-0.087,0.085-0.161,0.148-0.224
		c0.063-0.064,0.137-0.113,0.22-0.148s0.175-0.053,0.276-0.053c0.271,0,0.478,0.125,0.617,0.375l3.942,7.878l3.943-7.878
		c0.157-0.25,0.363-0.375,0.617-0.375c0.097,0,0.188,0.018,0.272,0.053c0.086,0.035,0.16,0.084,0.224,0.148
		c0.063,0.062,0.113,0.137,0.148,0.224c0.034,0.084,0.052,0.176,0.052,0.271v9.121c0,0.192-0.067,0.356-0.203,0.492
		c-0.136,0.137-0.301,0.204-0.493,0.204s-0.356-0.067-0.493-0.204c-0.136-0.136-0.203-0.3-0.203-0.492v-6.164l-3.26,6.512
		c-0.136,0.232-0.337,0.349-0.604,0.349c-0.289,0-0.501-0.14-0.637-0.421l-3.227-6.439v6.164c0,0.192-0.068,0.356-0.204,0.492
		c-0.136,0.137-0.3,0.204-0.492,0.204c-0.193,0-0.357-0.067-0.493-0.204C90.789,139.66,90.72,139.496,90.72,139.304z"/>
	<path fill="#816214" d="M102.247,139.304v-9.121c0-0.096,0.018-0.188,0.052-0.271c0.035-0.087,0.085-0.161,0.148-0.224
		c0.063-0.064,0.137-0.113,0.22-0.148s0.176-0.053,0.276-0.053h2.023c0.315,0,0.621,0.042,0.917,0.125s0.572,0.201,0.831,0.354
		s0.495,0.336,0.71,0.549c0.215,0.212,0.397,0.448,0.549,0.707c0.15,0.258,0.27,0.535,0.354,0.831
		c0.085,0.295,0.128,0.601,0.128,0.916c0,0.955-0.344,1.776-1.031,2.465c-0.679,0.679-1.498,1.019-2.458,1.019h-1.327v2.852
		c0,0.192-0.067,0.356-0.204,0.492c-0.136,0.137-0.3,0.204-0.492,0.204c-0.193,0-0.357-0.067-0.493-0.204
		C102.314,139.66,102.247,139.496,102.247,139.304z M103.639,130.88v4.179h1.327c0.285,0,0.554-0.055,0.806-0.164
		c0.251-0.109,0.473-0.259,0.663-0.447s0.342-0.409,0.453-0.663c0.112-0.254,0.168-0.526,0.168-0.815
		c0-0.293-0.056-0.567-0.168-0.821c-0.111-0.254-0.263-0.475-0.453-0.663s-0.413-0.337-0.667-0.443
		c-0.254-0.108-0.521-0.161-0.802-0.161H103.639z"/>
	<path fill="#816214" d="M107.95,138.988l3.509-9.028c0.141-0.315,0.361-0.474,0.664-0.474c0.311,0,0.532,0.158,0.663,0.474
		l3.522,9.061c0.035,0.088,0.053,0.183,0.053,0.283c0,0.192-0.068,0.356-0.204,0.492c-0.136,0.137-0.3,0.204-0.492,0.204
		c-0.193,0-0.355-0.067-0.486-0.204c-0.07-0.069-0.123-0.145-0.158-0.223l-1.216-3.121h-3.364l-1.222,3.121
		c-0.035,0.078-0.088,0.153-0.158,0.223c-0.136,0.137-0.3,0.204-0.492,0.204c-0.193,0-0.356-0.067-0.49-0.204
		c-0.134-0.136-0.2-0.3-0.2-0.492C107.877,139.198,107.902,139.093,107.95,138.988z M113.266,135.059l-1.144-2.95l-1.144,2.95
		H113.266z"/>
	<path fill="#816214" d="M125.428,137.635c0.097,0,0.187,0.018,0.27,0.056c0.084,0.037,0.157,0.086,0.221,0.147
		s0.113,0.135,0.151,0.221c0.037,0.085,0.056,0.176,0.056,0.272c0,0.184-0.072,0.351-0.217,0.499c-0.978,0.78-2.079,1.17-3.306,1.17
		c-1.454,0-2.694-0.513-3.719-1.538c-1.025-1.024-1.538-2.265-1.538-3.719c0-1.45,0.513-2.688,1.538-3.713
		c1.029-1.029,2.269-1.544,3.719-1.544c1.244,0,2.368,0.409,3.371,1.229c0.123,0.118,0.184,0.278,0.184,0.48
		c0,0.101-0.018,0.192-0.052,0.275c-0.035,0.083-0.085,0.157-0.148,0.22c-0.063,0.064-0.138,0.113-0.224,0.148
		c-0.085,0.035-0.176,0.053-0.272,0.053c-0.171,0-0.331-0.066-0.479-0.197c-0.333-0.263-0.7-0.465-1.101-0.604
		c-0.401-0.141-0.827-0.21-1.278-0.21c-1.068,0-1.982,0.379-2.74,1.137c-0.749,0.749-1.123,1.658-1.123,2.727
		c0,1.073,0.374,1.984,1.123,2.733c0.754,0.754,1.667,1.13,2.74,1.13c0.916,0,1.722-0.282,2.418-0.848
		C125.135,137.681,125.271,137.639,125.428,137.635z"/>
	<path fill="#816214" d="M134.345,130.88h-2.596v8.424c0,0.192-0.067,0.356-0.203,0.492c-0.136,0.137-0.3,0.204-0.493,0.204
		c-0.192,0-0.356-0.067-0.492-0.204c-0.136-0.136-0.204-0.3-0.204-0.492v-8.424h-2.596c-0.192,0-0.356-0.068-0.492-0.204
		c-0.137-0.136-0.204-0.3-0.204-0.493c0-0.192,0.067-0.356,0.204-0.492c0.136-0.136,0.3-0.204,0.492-0.204h6.584
		c0.193,0,0.357,0.068,0.493,0.204s0.204,0.3,0.204,0.492c0,0.193-0.068,0.357-0.204,0.493S134.539,130.88,134.345,130.88z"/>
</g>
<circle fill="none" stroke="#283A8A" stroke-width="5" stroke-miterlimit="10" cx="110.458" cy="104.724" r="75.216"/>
<g>
	<g>
		<path fill="#2A398D" stroke="#2A398D" stroke-width="3" stroke-miterlimit="10" d="M215.119,162.836
			c-6.562-1.224-12.939-2.779-19.114-4.636c2.933-6.103,5.538-12.271,7.816-18.472c-51.882,29.431-114.491,32.079-168.394,7.787
			c-4.848-2.195-9.625-4.608-14.315-7.239c2.547,6.378,5.444,12.724,8.695,19c-5.811,1.722-11.799,3.167-17.945,4.31
			C75.104,198.511,152.022,198.275,215.119,162.836L215.119,162.836L215.119,162.836z"/>
	</g>
</g>
<g>
	<g>
		<path fill="#FFFFFF" d="M36.003,155.314c1.025,0.294,1.906,0.465,2.638,0.523c0.733,0.058,1.5,0.031,2.299-0.086
			c0.234,0.076,0.469,0.152,0.703,0.227c-0.855,3.532-1.702,7.062-2.539,10.596c-0.049,0.208-0.021,0.389,0.086,0.544
			c0.105,0.155,0.276,0.27,0.509,0.343c0.62,0.198,1.24,0.393,1.861,0.586c-0.061,0.269-0.123,0.539-0.184,0.808
			c-2.599-0.807-5.191-1.656-7.777-2.551c0.068-0.268,0.136-0.532,0.205-0.8c0.483,0.168,0.968,0.334,1.453,0.498
			c0.373,0.125,0.654,0.145,0.845,0.057c0.19-0.089,0.326-0.293,0.405-0.616c0.645-2.611,1.295-5.224,1.949-7.835
			c0.046-0.186,0.018-0.344-0.083-0.484c-0.102-0.14-0.278-0.253-0.531-0.338c-0.681-0.229-1.362-0.462-2.042-0.698
			C35.868,155.829,35.936,155.572,36.003,155.314z"/>
		<path fill="#FFFFFF" d="M52.049,163.522c0.26-0.173,0.521-0.349,0.78-0.521c0.199,0.053,0.399,0.106,0.599,0.157
			c-0.117,0.955-0.233,1.906-0.348,2.862c-0.268-0.069-0.535-0.141-0.803-0.211c-0.276-0.858-0.633-1.506-1.076-1.944
			c-0.441-0.438-1.018-0.758-1.731-0.954c-0.615-0.173-1.104-0.201-1.472-0.081c-0.365,0.117-0.582,0.339-0.651,0.657
			c-0.067,0.314,0.006,0.59,0.222,0.825c0.213,0.242,0.859,0.622,1.94,1.131c0.98,0.464,1.628,0.798,1.941,1.011
			c0.597,0.401,1.033,0.872,1.31,1.417c0.275,0.547,0.357,1.122,0.242,1.724c-0.144,0.762-0.613,1.312-1.416,1.647
			c-0.801,0.332-1.775,0.344-2.918,0.027c-0.551-0.152-1.039-0.349-1.462-0.589c-0.422-0.239-0.845-0.572-1.268-0.997
			c-0.291,0.176-0.582,0.349-0.875,0.523c-0.255-0.073-0.51-0.149-0.765-0.225c0.162-1.05,0.326-2.093,0.491-3.138
			c0.275,0.082,0.551,0.164,0.826,0.242c0.369,1.765,1.425,2.899,3.156,3.38c0.712,0.195,1.28,0.226,1.703,0.086
			c0.422-0.14,0.667-0.377,0.731-0.71c0.059-0.304-0.013-0.567-0.216-0.789c-0.203-0.221-0.79-0.556-1.758-1.014
			c-1.045-0.493-1.748-0.87-2.111-1.121c-0.623-0.419-1.058-0.881-1.308-1.385c-0.249-0.502-0.312-1.037-0.187-1.606
			c0.178-0.812,0.631-1.39,1.352-1.73c0.721-0.344,1.588-0.371,2.608-0.086c0.497,0.138,0.932,0.314,1.306,0.526
			C51.27,162.851,51.655,163.146,52.049,163.522z"/>
		<path fill="#FFFFFF" d="M59.287,161.54c0.29,0.068,0.579,0.138,0.869,0.204c-0.197,1.135-0.394,2.268-0.59,3.4
			c1.016,0.236,2.033,0.467,3.05,0.69c-0.052,0.319-0.104,0.64-0.155,0.957c-1.021-0.224-2.04-0.455-3.06-0.692
			c-0.302,1.753-0.602,3.504-0.902,5.255c-0.059,0.349-0.004,0.643,0.166,0.88c0.17,0.239,0.421,0.397,0.752,0.473
			c0.948,0.217,1.573-0.443,1.876-1.972c0.298,0.066,0.596,0.134,0.894,0.198c-0.15,0.815-0.403,1.445-0.76,1.883
			c-0.356,0.439-0.814,0.734-1.375,0.89c-0.562,0.153-1.167,0.156-1.816,0.004c-0.568-0.132-1.043-0.351-1.422-0.649
			c-0.381-0.299-0.659-0.679-0.833-1.135c-0.176-0.459-0.22-0.92-0.137-1.383c0.304-1.691,0.609-3.385,0.917-5.075
			c-0.547-0.134-1.093-0.271-1.64-0.409c0.051-0.27,0.102-0.541,0.152-0.809c1.022,0.136,1.866-0.019,2.527-0.452
			C58.461,163.361,58.956,162.608,59.287,161.54z"/>
		<path fill="#FFFFFF" d="M75.459,167.814c1.038,0.17,1.967,0.518,2.794,1.058c0.826,0.538,1.42,1.161,1.779,1.877
			s0.493,1.534,0.4,2.456c-0.148,1.472-0.827,2.523-2.046,3.143c-1.22,0.618-2.556,0.812-3.999,0.576
			c-1.021-0.168-1.929-0.529-2.724-1.08c-0.792-0.55-1.371-1.21-1.731-1.975c-0.361-0.764-0.481-1.574-0.365-2.429
			c0.176-1.29,0.828-2.272,1.948-2.964C72.635,167.784,73.945,167.568,75.459,167.814z M75.416,168.673
			c-0.688-0.112-1.269,0.068-1.747,0.545c-0.476,0.476-0.802,1.396-0.975,2.768c-0.179,1.423-0.096,2.44,0.251,3.05
			c0.345,0.608,0.872,0.975,1.579,1.09c0.718,0.117,1.331-0.067,1.834-0.556c0.502-0.485,0.827-1.413,0.978-2.772
			c0.155-1.399,0.049-2.404-0.313-3.025C76.661,169.154,76.125,168.788,75.416,168.673z"/>
		<path fill="#FFFFFF" d="M86.862,169.861c0.797,0.091,1.594,0.176,2.392,0.259c-0.025,0.324-0.049,0.648-0.073,0.974
			c-0.799-0.082-1.599-0.17-2.398-0.26c-0.165,2-0.329,3.999-0.492,5.999c-0.019,0.232,0.018,0.402,0.114,0.503
			c0.093,0.102,0.274,0.169,0.539,0.196c0.561,0.062,1.123,0.123,1.684,0.182c-0.021,0.28-0.042,0.56-0.062,0.839
			c-2.305-0.239-4.609-0.515-6.91-0.821c0.026-0.278,0.053-0.556,0.08-0.836c0.33,0.042,0.659,0.087,0.988,0.13
			c0.299,0.038,0.51,0.018,0.635-0.065c0.125-0.08,0.195-0.23,0.215-0.454c0.18-1.996,0.36-3.993,0.542-5.99
			c-0.536-0.066-1.071-0.136-1.607-0.206c0.031-0.322,0.062-0.646,0.093-0.97c0.534,0.07,1.068,0.139,1.602,0.205
			c0.01-0.113,0.021-0.228,0.031-0.341c0.103-1.125,0.367-2.023,0.79-2.694c0.423-0.673,0.971-1.143,1.646-1.417
			c0.673-0.273,1.48-0.36,2.421-0.26c0.874,0.09,1.538,0.354,1.992,0.791c0.453,0.437,0.662,0.944,0.622,1.528
			c-0.031,0.464-0.207,0.831-0.528,1.101c-0.322,0.269-0.691,0.383-1.108,0.341c-0.39-0.038-0.708-0.189-0.955-0.447
			c-0.248-0.259-0.356-0.562-0.33-0.905c0.028-0.355,0.25-0.646,0.664-0.869c0.2-0.114,0.303-0.219,0.311-0.315
			c0.006-0.084-0.037-0.159-0.132-0.224c-0.144-0.098-0.34-0.16-0.589-0.188c-0.328-0.035-0.638,0.024-0.931,0.182
			s-0.52,0.395-0.68,0.716c-0.231,0.477-0.371,0.994-0.417,1.554C86.959,168.685,86.911,169.273,86.862,169.861z"/>
		<path fill="#FFFFFF" d="M99.531,167.459c0.292,0.018,0.586,0.035,0.879,0.05c-0.047,1.163-0.094,2.324-0.141,3.486
			c1.029,0.058,2.057,0.11,3.085,0.153c-0.01,0.327-0.02,0.651-0.03,0.979c-1.032-0.042-2.063-0.096-3.095-0.154
			c-0.072,1.797-0.144,3.593-0.215,5.389c-0.014,0.355,0.077,0.639,0.275,0.846c0.197,0.208,0.463,0.322,0.798,0.338
			c0.958,0.05,1.49-0.714,1.593-2.289c0.301,0.013,0.602,0.025,0.903,0.04c-0.044,0.839-0.212,1.508-0.508,2.005
			c-0.295,0.499-0.708,0.877-1.239,1.128c-0.532,0.251-1.127,0.359-1.783,0.322c-0.574-0.034-1.068-0.164-1.479-0.397
			c-0.412-0.231-0.731-0.559-0.961-0.982c-0.231-0.425-0.333-0.874-0.31-1.352c0.083-1.738,0.167-3.476,0.251-5.21
			c-0.554-0.039-1.108-0.078-1.661-0.119c0.014-0.278,0.029-0.556,0.044-0.833c1.021-0.047,1.83-0.343,2.422-0.894
			C98.954,169.415,99.343,168.578,99.531,167.459z"/>
		<path fill="#FFFFFF" d="M105.079,166.289c1.451-0.016,2.9-0.045,4.35-0.088c-0.026,2.204-0.052,4.406-0.077,6.607
			c0.685-0.737,1.309-1.241,1.876-1.512c0.567-0.271,1.186-0.404,1.858-0.403c0.932,0.002,1.643,0.254,2.14,0.766
			c0.564,0.589,0.854,1.425,0.864,2.509c0.012,1.345,0.024,2.688,0.037,4.033c0.002,0.278,0.075,0.484,0.219,0.611
			c0.143,0.129,0.35,0.19,0.622,0.187c0.221-0.002,0.44-0.006,0.66-0.01c0.004,0.281,0.008,0.562,0.012,0.845
			c-1.928,0.033-3.856,0.041-5.784,0.025c0.001-0.281,0.002-0.564,0.003-0.845c0.208,0.001,0.417,0.002,0.625,0.003
			c0.347,0.001,0.582-0.055,0.705-0.169c0.17-0.15,0.255-0.362,0.254-0.636c-0.001-1.318-0.002-2.641-0.004-3.959
			c-0.001-0.569-0.171-1.021-0.508-1.358c-0.338-0.337-0.76-0.506-1.269-0.511c-0.627-0.004-1.17,0.227-1.63,0.699
			c-0.46,0.471-0.696,1.115-0.706,1.939c-0.012,1.049-0.024,2.099-0.036,3.149c-0.003,0.273,0.067,0.477,0.213,0.613
			c0.145,0.134,0.354,0.204,0.626,0.208c0.231,0.004,0.464,0.008,0.696,0.01c-0.002,0.282-0.004,0.562-0.006,0.845
			c-1.989-0.024-3.978-0.073-5.966-0.146c0.007-0.281,0.014-0.563,0.021-0.844c0.276,0.01,0.552,0.021,0.828,0.029
			c0.292,0.01,0.516-0.052,0.668-0.188c0.153-0.133,0.233-0.331,0.237-0.591c0.065-3.33,0.131-6.657,0.198-9.986
			c0.006-0.29-0.091-0.522-0.288-0.694c-0.198-0.174-0.464-0.264-0.798-0.275c-0.22-0.007-0.44-0.015-0.661-0.022
			C105.064,166.852,105.071,166.569,105.079,166.289z"/>
		<path fill="#FFFFFF" d="M129.098,175.169c-2.212,0.144-4.425,0.258-6.639,0.338c0.055,1.192,0.349,2.065,0.885,2.608
			c0.537,0.546,1.216,0.801,2.033,0.762c0.586-0.028,1.135-0.202,1.646-0.523c0.511-0.317,1.024-0.878,1.536-1.675
			c0.254,0.122,0.508,0.242,0.763,0.362c-0.532,0.946-1.165,1.637-1.895,2.068c-0.73,0.434-1.638,0.679-2.718,0.728
			c-1.574,0.07-2.859-0.311-3.846-1.13c-0.987-0.821-1.488-1.897-1.514-3.224c-0.025-1.328,0.436-2.443,1.368-3.365
			c0.935-0.919,2.088-1.406,3.47-1.468c0.957-0.043,1.786,0.092,2.49,0.41c0.705,0.319,1.265,0.809,1.683,1.473
			C128.777,173.196,129.024,174.074,129.098,175.169z M122.436,174.68c1.051-0.038,2.102-0.085,3.152-0.138
			c0.295-0.016,0.503-0.091,0.625-0.231c0.123-0.141,0.177-0.384,0.163-0.737c-0.028-0.703-0.229-1.235-0.597-1.604
			c-0.369-0.368-0.824-0.535-1.369-0.512c-0.645,0.03-1.129,0.31-1.457,0.846C122.626,172.84,122.454,173.631,122.436,174.68z"/>
		<path fill="#FFFFFF" d="M134.769,165.446c1.947-0.182,3.893-0.385,5.837-0.613c0.025,0.281,0.049,0.562,0.075,0.842
			c-0.184,0.022-0.367,0.043-0.551,0.065c-0.347,0.04-0.578,0.103-0.692,0.192c-0.117,0.087-0.167,0.21-0.154,0.359
			c0.009,0.109,0.042,0.231,0.1,0.365c1.19,2.529,2.402,5.053,3.637,7.566c0.648-2.399,1.276-4.8,1.883-7.206
			c-0.185-0.372-0.368-0.743-0.551-1.116c-0.116-0.229-0.261-0.38-0.433-0.447c-0.228-0.093-0.518-0.116-0.872-0.07
			c-0.235,0.03-0.471,0.06-0.706,0.09c-0.026-0.281-0.054-0.562-0.08-0.844c2.241-0.28,4.48-0.592,6.716-0.938
			c0.033,0.28,0.065,0.559,0.098,0.84c-0.207,0.032-0.414,0.063-0.62,0.096c-0.453,0.067-0.753,0.163-0.903,0.282
			c-0.15,0.122-0.215,0.274-0.194,0.462c0.008,0.077,0.035,0.159,0.078,0.246c1.248,2.49,2.519,4.975,3.81,7.446
			c0.552-2.445,1.083-4.896,1.593-7.346c0.051-0.223,0.065-0.436,0.04-0.634c-0.047-0.368-0.19-0.631-0.428-0.795
			c-0.239-0.161-0.529-0.215-0.875-0.157c-0.137,0.022-0.274,0.046-0.411,0.068c-0.035-0.28-0.069-0.56-0.104-0.841
			c1.57-0.255,3.138-0.53,4.705-0.82c0.039,0.28,0.078,0.56,0.117,0.838c-0.52,0.11-0.92,0.297-1.203,0.565
			c-0.281,0.269-0.466,0.626-0.554,1.074c-0.84,4.054-1.738,8.104-2.691,12.148c-0.417,0.065-0.835,0.13-1.253,0.194
			c-1.537-2.944-3.044-5.901-4.521-8.87c-0.83,3.286-1.698,6.569-2.603,9.844c-0.416,0.05-0.831,0.1-1.246,0.147
			c-1.893-3.862-3.734-7.745-5.521-11.645c-0.111-0.244-0.247-0.411-0.405-0.496c-0.159-0.082-0.356-0.118-0.592-0.094
			c-0.155,0.016-0.31,0.03-0.464,0.044C134.808,166.009,134.789,165.728,134.769,165.446z"/>
		<path fill="#FFFFFF" d="M167.098,169.632c-2.188,0.497-4.379,0.966-6.573,1.404c0.196,1.175,0.591,1.997,1.189,2.452
			c0.6,0.456,1.306,0.6,2.116,0.429c0.58-0.121,1.106-0.385,1.579-0.784c0.472-0.402,0.917-1.036,1.333-1.913
			c0.268,0.08,0.536,0.157,0.804,0.237c-0.418,1.027-0.968,1.814-1.646,2.363c-0.676,0.549-1.552,0.938-2.624,1.159
			c-1.559,0.324-2.884,0.15-3.963-0.505c-1.079-0.658-1.705-1.649-1.886-2.963c-0.182-1.315,0.144-2.501,0.962-3.567
			c0.821-1.064,1.91-1.732,3.278-2.017c0.948-0.199,1.791-0.195,2.529,0.007c0.74,0.202,1.356,0.602,1.853,1.193
			C166.543,167.721,166.896,168.555,167.098,169.632z M160.403,170.216c1.042-0.208,2.083-0.421,3.123-0.644
			c0.292-0.062,0.491-0.174,0.596-0.33c0.105-0.161,0.13-0.413,0.074-0.76c-0.113-0.694-0.375-1.193-0.786-1.5
			c-0.411-0.305-0.885-0.4-1.424-0.287c-0.639,0.133-1.088,0.491-1.349,1.074C160.374,168.354,160.297,169.169,160.403,170.216z"/>
		<path fill="#FFFFFF" d="M178.83,166.646c-2.174,0.61-4.353,1.189-6.535,1.739c0.241,1.168,0.667,1.967,1.284,2.394
			c0.618,0.426,1.331,0.534,2.136,0.321c0.577-0.151,1.095-0.44,1.553-0.865c0.458-0.424,0.88-1.086,1.264-1.981
			c0.271,0.065,0.542,0.131,0.814,0.195c-0.379,1.048-0.901,1.864-1.56,2.447c-0.658,0.584-1.521,1.017-2.586,1.295
			c-1.551,0.405-2.885,0.296-3.991-0.304c-1.106-0.604-1.769-1.562-2-2.869c-0.231-1.309,0.05-2.509,0.83-3.616
			c0.782-1.107,1.847-1.83,3.208-2.185c0.942-0.245,1.786-0.287,2.534-0.121c0.75,0.166,1.382,0.532,1.902,1.1
			C178.201,164.764,178.585,165.58,178.83,166.646z M172.142,167.572c1.036-0.261,2.07-0.528,3.104-0.803
			c0.291-0.077,0.486-0.198,0.585-0.36c0.099-0.165,0.115-0.422,0.046-0.765c-0.14-0.687-0.422-1.173-0.845-1.459
			c-0.423-0.284-0.902-0.355-1.438-0.216c-0.635,0.165-1.072,0.549-1.312,1.144C172.042,165.71,171.997,166.532,172.142,167.572z"/>
		<path fill="#FFFFFF" d="M178.496,157.073c1.414-0.452,2.824-0.915,4.231-1.394c0.714,3.026,1.421,6.052,2.123,9.079
			c0.763-0.941,1.518-1.883,2.266-2.831c0.355-0.455,0.505-0.793,0.452-1.008c-0.033-0.135-0.149-0.226-0.35-0.269
			c-0.2-0.045-0.494-0.005-0.883,0.119c-0.106,0.034-0.213,0.068-0.32,0.103c-0.064-0.268-0.129-0.535-0.193-0.803
			c1.772-0.564,3.54-1.15,5.303-1.758c0.07,0.268,0.139,0.532,0.208,0.798c-0.563,0.214-0.991,0.426-1.283,0.644
			c-0.401,0.298-0.758,0.66-1.077,1.082c-0.418,0.555-0.84,1.108-1.263,1.662c1.469,1.01,2.952,2.007,4.448,2.99
			c0.361,0.225,0.737,0.273,1.128,0.137c0.167-0.058,0.333-0.115,0.5-0.172c0.07,0.271,0.141,0.544,0.21,0.816
			c-1.957,0.679-3.918,1.332-5.883,1.957c-0.065-0.272-0.13-0.546-0.196-0.82c0.193-0.062,0.385-0.123,0.579-0.186
			c0.278-0.091,0.468-0.181,0.566-0.271c0.1-0.094,0.141-0.173,0.124-0.244c-0.016-0.063-0.065-0.123-0.15-0.179
			c-0.969-0.677-1.932-1.358-2.89-2.048c-0.354,0.431-0.708,0.859-1.064,1.287c0.126,0.548,0.253,1.097,0.379,1.645
			c0.06,0.259,0.162,0.426,0.307,0.497s0.355,0.064,0.629-0.022c0.217-0.067,0.433-0.134,0.65-0.203
			c0.065,0.276,0.129,0.548,0.193,0.822c-1.919,0.604-3.843,1.186-5.769,1.741c-0.059-0.276-0.119-0.551-0.177-0.825
			c0.237-0.068,0.474-0.137,0.712-0.207c0.343-0.1,0.575-0.244,0.7-0.437c0.125-0.19,0.156-0.435,0.091-0.729
			c-0.737-3.329-1.48-6.657-2.232-9.987c-0.051-0.223-0.166-0.372-0.345-0.445c-0.179-0.072-0.407-0.067-0.685,0.014
			c-0.288,0.085-0.576,0.169-0.864,0.251C178.614,157.611,178.555,157.342,178.496,157.073z"/>
	</g>
</g>
</svg>
