<?xml version="1.0" encoding="utf-8"?>
<!-- Generator: Adobe Illustrator 16.0.4, SVG Export Plug-In . SVG Version: 6.00 Build 0)  -->
<!DOCTYPE svg PUBLIC "-//W3C//DTD SVG 1.1//EN" "http://www.w3.org/Graphics/SVG/1.1/DTD/svg11.dtd">
<svg version="1.1" id="Livello_1" xmlns="http://www.w3.org/2000/svg" xmlns:xlink="http://www.w3.org/1999/xlink" x="0px" y="0px"
	 width="210px" height="200px" viewBox="0 0 210 200" enable-background="new 0 0 210 200" xml:space="preserve">
<g>
	<g>
		<circle fill="#FBC02E" cx="105" cy="100" r="84"/>
		<circle fill="#FABF2D" cx="105" cy="100" r="75.216"/>
		<path fill="#FFFFFF" d="M104.999,177.717c-42.853,0-77.715-34.864-77.715-77.717s34.862-77.717,77.715-77.717
			S182.716,57.147,182.716,100S147.852,177.717,104.999,177.717z M104.999,27.283c-40.095,0-72.715,32.621-72.715,72.717
			s32.62,72.717,72.715,72.717c40.097,0,72.717-32.621,72.717-72.717S145.096,27.283,104.999,27.283z"/>
		<path fill="#FFFFFF" d="M100.554,115.299H83.5l0.474-43.506c-0.551-4.04-3.011-6.182-6.093-6.182c-2.601,0-4.729,1.54-5.668,4.439
			L71.5,115.299H51.906h-0.035c-3.244,0-6.13,2.607-6.13,6.072c0,3.465,2.431,6.689,5.675,6.689c0.036,0,0.055,0.002,0.084,0.003
			v0.236h19.483H83.53h17.023c3.381,0,5.62-3.534,5.62-6.908C106.174,118.019,103.935,116.299,100.554,115.299z M51.516,128.064
			C52.047,128.082,51.592,128.215,51.516,128.064L51.516,128.064z"/>
		<g>
			<path fill="#FFFFFF" d="M142.847,86.046c-4.127-0.584-8.157-0.06-11.806,1.339l-5.002-10.106l5.697-14.445l-13.121-1.856
				c0,0-4.514,2.895-0.646,4.569c2.888,0.409,7.321,1.035,7.321,1.035l-2.617,6.618l-31.19-4.41l3.894-9.546
				c0,0,4.04,0.353,8.083,1.144c3.158-2.052,0.647-4.572,0.647-4.572l-21.339-3.017c0,0-3.323,1.685-0.646,4.572
				c4.673,0.662,8.547,1.209,8.547,1.209l-6.043,14.824L84.49,85.956c0.516-1.266,0.844-2.071,0.844-2.071
				c6.745,3.762,10.848,11.399,9.703,19.49c-0.633,4.477-2.778,8.369-5.834,11.256l6.121,0.01c2.209-3.044,3.73-6.652,4.293-10.629
				c1.447-10.223-3.878-19.858-12.533-24.421l2.891-7.094l19.763,33.538c0,0,0.828,1.862,2.876,2.151
				c2.043,0.289,3.078,0.435,3.078,0.435c-0.535,12.113,8.229,22.908,20.479,24.642c13.02,1.841,25.108-7.251,26.951-20.272
				C164.961,99.977,155.867,87.888,142.847,86.046z M135.506,106.751l-14.559-2.057c1.242-4.677,4.18-8.56,8.029-11.092
				L135.506,106.751z M111.874,100.563L96.301,74.126l24.637,3.484L111.874,100.563z M115.501,103.931l8.251-20.877l3.156,6.38
				c-5.156,3.221-9.066,8.376-10.571,14.616L115.501,103.931z M158.555,112.346c-1.483,10.493-11.229,17.833-21.731,16.349
				c-9.735-1.377-16.72-9.842-16.523-19.421c0,0,15.173,2.146,19.175,2.711c4,0.566,3.089-1.368,3.089-1.368l-9.456-19.076
				c2.828-1.008,5.932-1.375,9.1-0.928C152.711,92.099,160.039,101.853,158.555,112.346z"/>
			<path fill="#FFFFFF" d="M62.801,114.623c-4.361-4.142-6.744-10.248-5.84-16.643c1.127-7.966,7.023-14.097,14.387-15.944
				l0.074-4.758c-9.682,1.903-17.57,9.747-19.028,20.055c-0.897,6.346,0.81,12.466,4.296,17.29H62.801z"/>
		</g>
	</g>
	<path fill="#FDD835" d="M195.044,168.142c-2.57-5.81-5.418-11.587-8.545-17.312c5.996-2.563,12.201-4.905,18.602-7.004
		c-64.111-26.519-136.189-26.351-200.201,0.503c0.041,0.095,0.08,0.188,0.119,0.283c6.605,2.131,13.006,4.522,19.184,7.149
		c-2.928,5.42-5.605,10.887-8.037,16.382C73.435,144.454,137.774,144.453,195.044,168.142L195.044,168.142L195.044,168.142z"/>
	<path fill="#FFFFFF" d="M12.101,170.961l1.514-3.425c2.232-5.043,4.688-10.092,7.311-15.03c-5.701-2.375-11.596-4.547-17.545-6.466
		l-0.654-0.212l-0.967-2.302l1.383-0.58c32.242-13.525,66.318-20.384,101.285-20.384c34.514,0,68.182,6.688,100.07,19.878
		l3.744,1.549l-3.85,1.263c-5.744,1.883-11.443,4.005-16.965,6.316c2.814,5.241,5.439,10.604,7.812,15.966l1.516,3.425l-3.461-1.432
		c-28.318-11.713-58.217-17.651-88.863-17.651c-30.652,0-60.551,5.939-88.869,17.653L12.101,170.961z M7.706,144.312
		c5.4,1.835,10.738,3.871,15.906,6.069l1.516,0.645l-0.783,1.448c-2.283,4.226-4.443,8.542-6.445,12.873
		c27.646-10.932,56.738-16.472,86.531-16.472c29.789,0,58.877,5.539,86.525,16.47c-2.148-4.645-4.48-9.271-6.951-13.796l-0.791-1.45
		l1.518-0.648c4.844-2.071,9.834-3.999,14.879-5.752c-30.412-12.038-62.41-18.137-95.184-18.137
		C71.089,125.562,38.569,131.868,7.706,144.312z"/>
	<g>
		<path fill="#FFFFFF" d="M60.466,137.388c2.502-0.703,5.001-1.346,7.498-1.931c1.165-0.272,2.139-0.239,2.911,0.091
			s1.23,0.852,1.39,1.558c0.139,0.621-0.004,1.2-0.422,1.74c-0.419,0.541-1.11,1.043-2.078,1.518c1.41-0.114,2.453,0.01,3.128,0.353
			c0.677,0.342,1.088,0.865,1.246,1.564c0.139,0.616,0.061,1.188-0.23,1.714c-0.208,0.374-0.629,0.757-1.267,1.154
			c-0.634,0.396-1.421,0.704-2.365,0.929c-2.188,0.521-4.374,1.091-6.56,1.709c-0.07-0.218-0.144-0.436-0.212-0.653
			c0.351-0.1,0.704-0.199,1.056-0.295c0.182-0.051,0.304-0.137,0.366-0.261c0.084-0.17,0.095-0.349,0.038-0.537
			c-0.827-2.689-1.632-5.382-2.411-8.078c-0.034-0.123-0.126-0.205-0.271-0.246c-0.148-0.042-0.368-0.022-0.661,0.059
			c-0.32,0.088-0.638,0.177-0.959,0.266C60.596,137.824,60.532,137.605,60.466,137.388z M66.189,140.947
			c0.449-0.115,0.899-0.227,1.35-0.337c0.928-0.227,1.546-0.552,1.86-0.986c0.315-0.435,0.377-1.045,0.186-1.833
			c-0.166-0.684-0.479-1.126-0.94-1.325c-0.464-0.198-1.248-0.17-2.354,0.102c-0.526,0.129-0.851,0.253-0.97,0.37
			c-0.121,0.116-0.152,0.279-0.093,0.492C65.545,138.604,65.865,139.776,66.189,140.947z M66.373,141.605
			c0.354,1.271,0.713,2.542,1.077,3.812c0.057,0.198,0.146,0.337,0.271,0.417c0.123,0.081,0.265,0.1,0.425,0.059
			c0.498-0.125,0.996-0.248,1.494-0.368c0.73-0.176,1.258-0.491,1.582-0.953c0.325-0.461,0.402-1.046,0.227-1.755
			c-0.182-0.742-0.551-1.258-1.108-1.546c-0.557-0.287-1.279-0.328-2.156-0.114C67.58,141.303,66.977,141.452,66.373,141.605z"/>
		<path fill="#FFFFFF" d="M74.816,138.057c1.118-0.267,2.236-0.522,3.356-0.766c0.353,1.911,0.715,3.821,1.084,5.73
			c0.028,0.154,0.105,0.264,0.229,0.329c0.122,0.066,0.293,0.08,0.511,0.042c0.164-0.028,0.326-0.056,0.49-0.083
			c0.043,0.224,0.083,0.448,0.125,0.671c-1.453,0.244-2.902,0.509-4.352,0.795c-0.049-0.223-0.098-0.445-0.146-0.667
			c0.159-0.033,0.321-0.064,0.48-0.095c0.26-0.05,0.431-0.14,0.516-0.27c0.081-0.13,0.096-0.333,0.038-0.605
			c-0.272-1.298-0.538-2.598-0.801-3.897c-0.05-0.244-0.168-0.418-0.354-0.522c-0.186-0.104-0.419-0.13-0.701-0.075
			c-0.113,0.022-0.226,0.045-0.34,0.066C74.908,138.492,74.863,138.274,74.816,138.057z M76.16,133.771
			c0.373-0.069,0.714-0.011,1.022,0.169c0.311,0.182,0.491,0.436,0.55,0.763c0.06,0.328-0.021,0.627-0.242,0.903
			c-0.221,0.274-0.518,0.445-0.883,0.512c-0.373,0.068-0.713,0.013-1.021-0.167c-0.31-0.18-0.495-0.43-0.561-0.752
			c-0.063-0.325,0.012-0.627,0.234-0.907C75.481,134.016,75.782,133.84,76.16,133.771z"/>
		<path fill="#FFFFFF" d="M79.843,133.117c1.188-0.245,2.376-0.477,3.563-0.696c0.237,1.676,0.476,3.352,0.723,5.027
			c0.333-0.525,0.707-0.917,1.116-1.175c0.408-0.257,0.875-0.418,1.396-0.482c0.956-0.116,1.791,0.121,2.489,0.704
			c0.704,0.584,1.106,1.433,1.223,2.54c0.126,1.171-0.127,2.144-0.742,2.925c-0.615,0.781-1.447,1.232-2.516,1.366
			c-0.56,0.071-1.082,0.032-1.565-0.113c-0.481-0.147-0.93-0.4-1.342-0.761c-0.193,0.373-0.543,0.846-1.049,1.422
			c-0.162-0.052-0.325-0.104-0.487-0.155c0.051-0.918,0.001-1.833-0.147-2.743c-0.344-2.083-0.681-4.166-1.009-6.249
			c-0.057-0.367-0.14-0.622-0.25-0.763c-0.109-0.141-0.242-0.229-0.393-0.264c-0.113-0.028-0.414-0.003-0.901,0.074
			C79.915,133.555,79.879,133.336,79.843,133.117z M85.795,136.952c-0.313,0.04-0.593,0.176-0.838,0.405
			c-0.245,0.231-0.409,0.54-0.495,0.925c-0.085,0.387-0.069,0.969,0.047,1.748c0.158,1.059,0.42,1.782,0.778,2.168
			c0.362,0.388,0.773,0.551,1.239,0.492c0.481-0.062,0.86-0.35,1.149-0.867c0.284-0.517,0.37-1.266,0.247-2.25
			c-0.123-0.984-0.378-1.685-0.776-2.097C86.748,137.063,86.295,136.888,85.795,136.952z"/>
		<path fill="#FFFFFF" d="M91.055,131.705c1.214-0.166,2.427-0.317,3.644-0.456c0.225,3.242,0.459,6.483,0.701,9.726
			c0.013,0.175,0.083,0.309,0.209,0.4c0.127,0.092,0.301,0.13,0.526,0.115c0.152-0.01,0.307-0.02,0.458-0.029
			c0.016,0.227,0.03,0.454,0.047,0.68c-1.458,0.09-2.913,0.201-4.37,0.333c-0.022-0.226-0.044-0.453-0.066-0.678
			c0.166-0.015,0.331-0.03,0.498-0.044c0.229-0.02,0.393-0.091,0.494-0.215c0.101-0.123,0.142-0.302,0.12-0.536
			c-0.236-2.661-0.47-5.322-0.693-7.982c-0.021-0.25-0.113-0.434-0.28-0.556c-0.166-0.12-0.381-0.169-0.646-0.146
			c-0.194,0.017-0.387,0.034-0.58,0.052C91.093,132.147,91.075,131.926,91.055,131.705z"/>
		<path fill="#FFFFFF" d="M97.613,135.218c1.124-0.105,2.248-0.199,3.373-0.281c0.065,1.94,0.127,3.879,0.192,5.82
			c0.006,0.156,0.064,0.275,0.174,0.357c0.109,0.083,0.272,0.12,0.491,0.114c0.163-0.004,0.324-0.009,0.489-0.013
			c0.006,0.227,0.012,0.454,0.019,0.681c-1.452,0.036-2.903,0.091-4.355,0.167c-0.014-0.227-0.026-0.453-0.04-0.68
			c0.163-0.008,0.322-0.017,0.482-0.024c0.262-0.013,0.441-0.077,0.541-0.194c0.102-0.117,0.146-0.314,0.132-0.593
			c-0.063-1.322-0.127-2.643-0.189-3.965c-0.011-0.249-0.098-0.437-0.265-0.567c-0.166-0.128-0.389-0.188-0.668-0.173
			c-0.115,0.006-0.226,0.012-0.341,0.018C97.637,135.662,97.626,135.44,97.613,135.218z M99.54,131.169
			c0.371-0.014,0.695,0.09,0.97,0.312c0.273,0.224,0.414,0.501,0.426,0.833c0.009,0.333-0.113,0.618-0.368,0.859
			c-0.252,0.241-0.566,0.367-0.933,0.382c-0.37,0.015-0.693-0.089-0.966-0.311c-0.274-0.222-0.42-0.496-0.437-0.823
			c-0.016-0.33,0.103-0.619,0.357-0.863C98.844,131.314,99.164,131.185,99.54,131.169z"/>
		<path fill="#FFFFFF" d="M107.858,134.625c0.851,0.01,1.632,0.192,2.334,0.542c0.704,0.351,1.214,0.802,1.54,1.348
			c0.322,0.547,0.466,1.197,0.434,1.949c-0.051,1.2-0.532,2.102-1.424,2.716c-0.889,0.615-1.876,0.914-2.97,0.9
			c-0.772-0.009-1.479-0.176-2.126-0.503c-0.641-0.329-1.146-0.768-1.503-1.322c-0.357-0.555-0.546-1.182-0.556-1.885
			c-0.019-1.059,0.367-1.955,1.181-2.677C105.577,134.971,106.614,134.611,107.858,134.625z M107.897,135.321
			c-0.562-0.007-1.011,0.214-1.345,0.661c-0.331,0.445-0.495,1.23-0.496,2.354c0.001,1.167,0.16,1.971,0.476,2.414
			c0.316,0.444,0.741,0.667,1.281,0.672c0.55,0.006,0.995-0.212,1.346-0.66c0.346-0.446,0.538-1.226,0.566-2.339
			c0.029-1.142-0.123-1.942-0.456-2.402C108.937,135.562,108.476,135.328,107.897,135.321z"/>
		<path fill="#FFFFFF" d="M116.339,132.501c0.245,0.016,0.492,0.031,0.736,0.048c-0.064,0.938-0.132,1.876-0.195,2.813
			c0.837,0.057,1.672,0.121,2.51,0.19c-0.023,0.262-0.047,0.526-0.068,0.789c-0.832-0.07-1.668-0.133-2.499-0.189
			c-0.102,1.449-0.208,2.898-0.313,4.348c-0.021,0.288,0.04,0.515,0.186,0.685c0.145,0.168,0.346,0.262,0.599,0.281
			c0.731,0.054,1.173-0.548,1.327-1.815c0.234,0.019,0.469,0.038,0.704,0.058c-0.079,0.675-0.243,1.209-0.494,1.602
			c-0.252,0.394-0.585,0.687-1.001,0.879c-0.413,0.193-0.869,0.272-1.363,0.238c-0.434-0.03-0.803-0.136-1.109-0.321
			c-0.306-0.185-0.545-0.447-0.714-0.787c-0.166-0.34-0.246-0.702-0.222-1.087c0.083-1.404,0.163-2.809,0.244-4.212
			c-0.447-0.025-0.895-0.047-1.343-0.067c0.011-0.225,0.021-0.449,0.031-0.673c0.831-0.059,1.486-0.309,1.982-0.756
			C115.828,134.08,116.164,133.406,116.339,132.501z"/>
		<path fill="#FFFFFF" d="M128.242,140.049c-1.736-0.248-3.475-0.467-5.211-0.656c-0.096,0.958,0.03,1.684,0.372,2.184
			c0.34,0.498,0.82,0.784,1.442,0.861c0.442,0.055,0.886-0.008,1.316-0.188c0.434-0.179,0.908-0.544,1.426-1.094
			c0.176,0.135,0.351,0.271,0.524,0.408c-0.56,0.66-1.143,1.108-1.758,1.343c-0.614,0.237-1.324,0.304-2.141,0.206
			c-1.188-0.142-2.104-0.583-2.769-1.338c-0.663-0.753-0.949-1.661-0.844-2.724c0.106-1.066,0.574-1.92,1.422-2.557
			c0.846-0.636,1.846-0.892,2.976-0.758c0.783,0.093,1.436,0.322,1.959,0.68c0.521,0.36,0.896,0.836,1.125,1.428
			C128.31,138.438,128.361,139.172,128.242,140.049z M123.108,138.73c0.829,0.091,1.66,0.188,2.492,0.291
			c0.234,0.03,0.409,0,0.523-0.095c0.116-0.094,0.192-0.281,0.232-0.561c0.076-0.562-0.008-1.015-0.25-1.359
			c-0.244-0.343-0.59-0.543-1.03-0.595c-0.526-0.063-0.952,0.101-1.277,0.486C123.474,137.283,123.241,137.896,123.108,138.73z"/>
		<path fill="#FFFFFF" d="M136.935,142.463c0.187,0.129,0.369,0.259,0.554,0.39c-0.488,0.689-1.114,1.174-1.862,1.459
			c-0.75,0.287-1.57,0.346-2.474,0.184c-1.224-0.22-2.119-0.688-2.699-1.422c-0.581-0.735-0.787-1.627-0.614-2.684
			c0.191-1.138,0.76-2.012,1.738-2.607c0.977-0.596,2.18-0.772,3.597-0.514c1.018,0.186,1.762,0.519,2.221,0.985
			c0.46,0.468,0.634,0.958,0.52,1.471c-0.083,0.373-0.264,0.644-0.543,0.815c-0.281,0.171-0.61,0.218-0.987,0.145
			c-0.331-0.064-0.574-0.198-0.735-0.406c-0.159-0.207-0.212-0.446-0.156-0.721c0.048-0.233,0.206-0.487,0.488-0.758
			c0.12-0.113,0.184-0.195,0.194-0.249c0.02-0.095-0.049-0.197-0.199-0.307c-0.214-0.164-0.516-0.283-0.901-0.353
			c-0.718-0.132-1.274-0.02-1.669,0.329c-0.527,0.46-0.882,1.233-1.081,2.316c-0.199,1.082-0.135,1.877,0.191,2.389
			c0.325,0.511,0.808,0.823,1.453,0.942c0.51,0.093,1.019,0.026,1.539-0.2C136.027,143.442,136.503,143.04,136.935,142.463z"/>
		<path fill="#FFFFFF" d="M146.772,146.453c0.057,0.198,0.113,0.397,0.17,0.596c-0.379,0.111-0.703,0.171-0.976,0.18
			c-0.274,0.008-0.561-0.027-0.86-0.105c-0.442-0.116-0.777-0.293-1.001-0.535c-0.224-0.241-0.382-0.629-0.478-1.164
			c-0.666,0.346-1.228,0.557-1.695,0.63c-0.463,0.073-0.959,0.049-1.486-0.072c-0.729-0.167-1.256-0.446-1.589-0.844
			c-0.334-0.398-0.445-0.834-0.333-1.312c0.171-0.72,0.689-1.217,1.569-1.48c0.701-0.205,2.15-0.25,4.356-0.069
			c0.088-0.32,0.177-0.64,0.262-0.959c0.104-0.377,0.042-0.723-0.18-1.031c-0.225-0.31-0.577-0.522-1.06-0.636
			c-0.37-0.087-0.713-0.094-1.028-0.021c-0.213,0.047-0.328,0.116-0.353,0.207c-0.012,0.047,0.005,0.127,0.052,0.237
			c0.098,0.25,0.119,0.479,0.067,0.687c-0.065,0.266-0.221,0.458-0.46,0.578c-0.239,0.117-0.525,0.14-0.854,0.066
			c-0.352-0.079-0.614-0.23-0.785-0.457c-0.172-0.225-0.225-0.477-0.157-0.76c0.109-0.461,0.484-0.809,1.14-1.036
			c0.814-0.281,1.762-0.298,2.821-0.045c0.803,0.19,1.486,0.475,2.045,0.849c0.358,0.237,0.615,0.56,0.765,0.964
			c0.149,0.407,0.151,0.859,0.005,1.359c-0.323,1.12-0.653,2.239-0.985,3.358c-0.077,0.255-0.078,0.451-0.008,0.591
			c0.065,0.141,0.197,0.234,0.377,0.283C146.262,146.552,146.484,146.532,146.772,146.453z M144.28,142.896
			c-1.173-0.144-2-0.11-2.471,0.085c-0.471,0.193-0.77,0.528-0.889,0.999c-0.085,0.333-0.057,0.609,0.082,0.83
			c0.138,0.221,0.373,0.369,0.706,0.448c0.516,0.121,0.989,0.057,1.424-0.196c0.431-0.252,0.734-0.668,0.896-1.25
			C144.111,143.505,144.198,143.201,144.28,142.896z"/>
	</g>
</g>
</svg>
