<?xml version="1.0" encoding="utf-8"?>
<!-- Generator: Adobe Illustrator 16.0.4, SVG Export Plug-In . SVG Version: 6.00 Build 0)  -->
<!DOCTYPE svg PUBLIC "-//W3C//DTD SVG 1.1//EN" "http://www.w3.org/Graphics/SVG/1.1/DTD/svg11.dtd">
<svg version="1.1" id="Livello_1" xmlns="http://www.w3.org/2000/svg" xmlns:xlink="http://www.w3.org/1999/xlink" x="0px" y="0px"
	 width="210px" height="200px" viewBox="0 0 210 200" enable-background="new 0 0 210 200" xml:space="preserve">
<g>
	<circle fill="#FBC02E" cx="105" cy="100" r="84"/>
	<circle fill="#FABF2D" cx="105" cy="100" r="75.216"/>
	<path fill="#FFFFFF" d="M104.999,177.717c-42.853,0-77.715-34.864-77.715-77.717s34.862-77.717,77.715-77.717
		S182.716,57.147,182.716,100S147.852,177.717,104.999,177.717z M104.999,27.283c-40.095,0-72.715,32.621-72.715,72.717
		s32.62,72.717,72.715,72.717c40.097,0,72.717-32.621,72.717-72.717S145.096,27.283,104.999,27.283z"/>
	<path fill="#FFFFFF" d="M100.554,115.299H83.5l0.474-43.506c-0.551-4.04-3.011-6.182-6.093-6.182c-2.601,0-4.729,1.54-5.668,4.439
		L71.5,115.299H51.906h-0.035c-3.244,0-6.13,2.607-6.13,6.072c0,3.465,2.431,6.689,5.675,6.689c0.036,0,0.055,0.002,0.084,0.003
		v0.236h19.483H83.53h17.023c3.381,0,5.62-3.534,5.62-6.908C106.174,118.019,103.935,116.299,100.554,115.299z M51.516,128.064
		C52.047,128.082,51.592,128.215,51.516,128.064L51.516,128.064z"/>
	<g>
		<path fill="#FFFFFF" d="M142.847,86.046c-4.127-0.584-8.157-0.06-11.806,1.339l-5.002-10.106l5.697-14.445l-13.121-1.856
			c0,0-4.514,2.895-0.646,4.569c2.888,0.409,7.321,1.035,7.321,1.035l-2.617,6.618l-31.19-4.41l3.894-9.546
			c0,0,4.04,0.353,8.083,1.144c3.158-2.052,0.647-4.572,0.647-4.572l-21.339-3.017c0,0-3.323,1.685-0.646,4.572
			c4.673,0.662,8.547,1.209,8.547,1.209l-6.043,14.824L84.49,85.956c0.516-1.266,0.844-2.071,0.844-2.071
			c6.745,3.762,10.848,11.399,9.703,19.49c-0.633,4.477-2.778,8.369-5.834,11.256l6.121,0.01c2.209-3.044,3.73-6.652,4.293-10.629
			c1.447-10.223-3.878-19.858-12.533-24.421l2.891-7.094l19.763,33.538c0,0,0.828,1.862,2.876,2.151
			c2.043,0.289,3.078,0.435,3.078,0.435c-0.535,12.113,8.229,22.908,20.479,24.642c13.02,1.841,25.108-7.251,26.951-20.272
			C164.961,99.977,155.867,87.888,142.847,86.046z M135.506,106.751l-14.559-2.057c1.242-4.677,4.18-8.56,8.029-11.092
			L135.506,106.751z M111.874,100.563L96.301,74.126l24.637,3.484L111.874,100.563z M115.501,103.931l8.251-20.877l3.156,6.38
			c-5.156,3.221-9.066,8.376-10.571,14.616L115.501,103.931z M158.555,112.346c-1.483,10.493-11.229,17.833-21.731,16.349
			c-9.735-1.377-16.72-9.842-16.523-19.421c0,0,15.173,2.146,19.175,2.711c4,0.566,3.089-1.368,3.089-1.368l-9.456-19.076
			c2.828-1.008,5.932-1.375,9.1-0.928C152.711,92.099,160.039,101.853,158.555,112.346z"/>
		<path fill="#FFFFFF" d="M62.801,114.623c-4.361-4.142-6.744-10.248-5.84-16.643c1.127-7.966,7.023-14.097,14.387-15.944
			l0.074-4.758c-9.682,1.903-17.57,9.747-19.028,20.055c-0.897,6.346,0.81,12.466,4.296,17.29H62.801z"/>
	</g>
</g>
<path fill="#FDD835" d="M195.044,168.142c-2.57-5.81-5.418-11.587-8.545-17.312c5.996-2.563,12.201-4.905,18.602-7.004
	c-64.111-26.519-136.189-26.351-200.201,0.503c0.041,0.095,0.08,0.188,0.119,0.283c6.605,2.131,13.006,4.522,19.184,7.149
	c-2.928,5.42-5.605,10.887-8.037,16.382C73.435,144.454,137.774,144.453,195.044,168.142L195.044,168.142L195.044,168.142z"/>
<path fill="#FFFFFF" d="M12.101,170.961l1.514-3.425c2.232-5.043,4.688-10.092,7.311-15.03c-5.701-2.375-11.596-4.547-17.545-6.466
	l-0.654-0.212l-0.967-2.302l1.383-0.58c32.242-13.525,66.318-20.384,101.285-20.384c34.514,0,68.182,6.688,100.07,19.878
	l3.744,1.549l-3.85,1.263c-5.744,1.883-11.443,4.005-16.965,6.316c2.814,5.241,5.439,10.604,7.812,15.966l1.516,3.425l-3.461-1.432
	c-28.318-11.713-58.217-17.651-88.863-17.651c-30.652,0-60.551,5.939-88.869,17.653L12.101,170.961z M7.706,144.312
	c5.4,1.835,10.738,3.871,15.906,6.069l1.516,0.645l-0.783,1.448c-2.283,4.226-4.443,8.542-6.445,12.873
	c27.646-10.932,56.738-16.472,86.531-16.472c29.789,0,58.877,5.539,86.525,16.47c-2.148-4.645-4.48-9.271-6.951-13.796l-0.791-1.45
	l1.518-0.648c4.844-2.071,9.834-3.999,14.879-5.752c-30.412-12.038-62.41-18.137-95.184-18.137
	C71.089,125.562,38.569,131.868,7.706,144.312z"/>
<g>
	<path fill="#FFFFFF" d="M50.913,135.138c1.979-0.554,3.962-1.078,5.939-1.572c4.381,2.657,8.59,5.449,12.614,8.362
		c-0.528-2.417-1.045-4.835-1.552-7.254c-0.147-0.715-0.515-1.243-1.1-1.573c-0.585-0.333-1.344-0.429-2.272-0.283
		c-0.072-0.326-0.146-0.651-0.218-0.977c2.326-0.494,4.652-0.945,6.977-1.358c0.061,0.329,0.119,0.656,0.179,0.983
		c-0.952,0.257-1.601,0.625-1.94,1.092c-0.343,0.47-0.436,1.088-0.279,1.854c0.816,4.057,1.664,8.111,2.542,12.163
		c-0.455,0.087-0.911,0.176-1.364,0.267c-4.51-3.375-9.263-6.595-14.245-9.64c0.779,2.798,1.577,5.594,2.396,8.388
		c0.281,0.96,0.741,1.592,1.372,1.903c0.632,0.309,1.32,0.373,2.062,0.19c0.099-0.024,0.196-0.048,0.296-0.072
		c0.089,0.323,0.181,0.646,0.27,0.968c-2.348,0.571-4.692,1.189-7.035,1.854c-0.106-0.32-0.21-0.639-0.315-0.958
		c0.163-0.046,0.323-0.092,0.487-0.138c0.694-0.195,1.202-0.595,1.529-1.206c0.328-0.609,0.38-1.294,0.152-2.052
		c-0.993-3.294-1.959-6.593-2.895-9.893c-0.746-0.461-1.566-0.571-2.462-0.326c-0.282,0.079-0.565,0.158-0.85,0.236
		C51.105,135.778,51.009,135.458,50.913,135.138z"/>
	<path fill="#FFFFFF" d="M80.686,134.363c1.313-0.176,2.555-0.084,3.708,0.272c1.155,0.357,2.038,0.905,2.65,1.629
		c0.613,0.726,0.975,1.639,1.09,2.735c0.187,1.754-0.34,3.163-1.555,4.244s-2.636,1.727-4.303,1.951
		c-1.179,0.158-2.293,0.075-3.357-0.252c-1.063-0.329-1.938-0.849-2.62-1.568c-0.683-0.721-1.124-1.586-1.312-2.603
		c-0.282-1.53,0.102-2.92,1.186-4.156C77.251,135.381,78.771,134.621,80.686,134.363z M80.904,135.364
		c-0.867,0.116-1.507,0.538-1.917,1.261c-0.408,0.721-0.479,1.897-0.217,3.525c0.274,1.692,0.711,2.821,1.299,3.391
		c0.588,0.571,1.288,0.8,2.111,0.689c0.837-0.113,1.464-0.528,1.892-1.252c0.428-0.725,0.539-1.896,0.332-3.517
		c-0.214-1.664-0.621-2.793-1.238-3.386C82.551,135.484,81.794,135.245,80.904,135.364z"/>
	<path fill="#FFFFFF" d="M98.412,142.408c0.019,0.333,0.037,0.666,0.052,0.999c-2.578,0.12-5.153,0.294-7.729,0.521
		c-0.032-0.332-0.063-0.663-0.097-0.995c0.322-0.028,0.643-0.056,0.963-0.083c0.397-0.033,0.679-0.125,0.851-0.279
		c0.171-0.153,0.246-0.348,0.226-0.584c-0.166-1.978-0.332-3.955-0.491-5.932c-0.04-0.478-0.193-0.819-0.465-1.02
		c-0.271-0.201-0.634-0.284-1.09-0.246c-0.221,0.019-0.44,0.038-0.66,0.057c-0.03-0.314-0.059-0.627-0.087-0.942
		c1.662-0.221,3.323-0.421,4.987-0.6c0.071,1.09,0.142,2.18,0.215,3.27c0.216-1.112,0.665-1.982,1.356-2.608
		c0.689-0.625,1.497-0.96,2.405-0.998c0.778-0.033,1.399,0.122,1.859,0.463c0.463,0.338,0.7,0.79,0.717,1.348
		c0.016,0.479-0.128,0.873-0.425,1.179c-0.3,0.306-0.67,0.467-1.111,0.483c-0.394,0.016-0.737-0.1-1.031-0.345
		c-0.296-0.246-0.454-0.568-0.473-0.969c-0.011-0.221,0.047-0.458,0.172-0.707c0.064-0.139,0.096-0.236,0.093-0.294
		c-0.005-0.101-0.035-0.172-0.091-0.217c-0.056-0.043-0.143-0.063-0.257-0.058c-0.3,0.014-0.618,0.179-0.959,0.497
		c-0.521,0.493-0.937,1.241-1.245,2.245c-0.308,1.004-0.425,2.007-0.36,3.008c0.048,0.722,0.094,1.445,0.141,2.166
		c0.017,0.25,0.104,0.437,0.264,0.561c0.159,0.123,0.375,0.177,0.644,0.162C97.327,142.461,97.87,142.433,98.412,142.408z"/>
	<path fill="#FFFFFF" d="M103.416,133.185c1.733-0.101,3.468-0.179,5.203-0.234c-0.021,2.847-0.044,5.693-0.07,8.54
		c-0.001,0.229,0.08,0.407,0.241,0.534c0.16,0.127,0.408,0.192,0.741,0.196c0.249,0.003,0.498,0.006,0.748,0.012
		c-0.004,0.333-0.014,0.666-0.019,0.999c-2.215-0.038-4.429-0.035-6.644,0.007c-0.007-0.333-0.013-0.666-0.02-0.999
		c0.245-0.005,0.491-0.009,0.736-0.013c0.397-0.006,0.674-0.091,0.837-0.258c0.161-0.167,0.238-0.453,0.233-0.861
		c-0.018-1.941-0.035-3.881-0.056-5.822c-0.003-0.365-0.127-0.647-0.375-0.845c-0.244-0.197-0.585-0.294-1.017-0.287
		c-0.174,0.002-0.347,0.006-0.522,0.009C103.429,133.836,103.421,133.51,103.416,133.185z M106.615,127.349
		c0.575-0.001,1.07,0.169,1.479,0.512s0.611,0.758,0.607,1.245s-0.213,0.898-0.62,1.237c-0.407,0.338-0.891,0.507-1.458,0.508
		c-0.574,0.002-1.062-0.167-1.475-0.506c-0.408-0.34-0.617-0.749-0.624-1.228c-0.006-0.487,0.192-0.903,0.601-1.249
		C105.533,127.524,106.03,127.351,106.615,127.349z"/>
	<path fill="#FFFFFF" d="M122.349,133.736c1.084-0.944,2.137-1.368,3.132-1.276c0.504,0.046,0.897,0.21,1.174,0.49
		c0.278,0.28,0.396,0.615,0.354,1.007c-0.038,0.349-0.183,0.617-0.434,0.805c-0.252,0.188-0.55,0.264-0.899,0.231
		c-0.49-0.046-0.822-0.303-0.997-0.771c-0.107-0.284-0.255-0.433-0.438-0.449c-0.233-0.021-0.573,0.164-1.008,0.557
		c0.834,0.851,1.202,1.712,1.119,2.573c-0.062,0.67-0.331,1.257-0.794,1.763c-0.466,0.507-1.13,0.885-1.991,1.143
		c-0.862,0.257-1.912,0.344-3.158,0.27c-0.429-0.033-0.861-0.064-1.29-0.093c-0.958-0.05-1.609,0.007-1.954,0.163
		c-0.353,0.156-0.535,0.37-0.547,0.64c-0.011,0.235,0.091,0.413,0.3,0.536c0.272,0.168,0.714,0.265,1.328,0.294
		c0.367,0.007,0.735,0.016,1.103,0.024c1.189,0.007,2.065,0.038,2.623,0.075c1.86,0.127,3.131,0.477,3.806,1.011
		c0.676,0.536,0.966,1.225,0.876,2.06c-0.107,1-0.603,1.763-1.476,2.298c-1.065,0.656-2.811,0.88-5.26,0.733
		c-2.088-0.124-3.541-0.403-4.372-0.886c-0.83-0.481-1.24-1.022-1.222-1.631c0.013-0.38,0.205-0.709,0.585-0.983
		c0.379-0.276,1.17-0.521,2.378-0.718c-0.772-0.178-1.35-0.442-1.732-0.799c-0.38-0.357-0.564-0.807-0.546-1.351
		c0.018-0.494,0.181-0.91,0.496-1.243c0.311-0.333,0.865-0.618,1.659-0.85c-0.726-0.39-1.271-0.834-1.63-1.34
		c-0.359-0.506-0.533-1.073-0.511-1.703c0.021-0.679,0.251-1.286,0.691-1.819c0.442-0.533,1.109-0.945,2.01-1.232
		c0.898-0.287,1.986-0.396,3.259-0.321c0.602,0.036,1.183,0.121,1.744,0.253C121.289,133.329,121.829,133.509,122.349,133.736z
		 M122.699,145.614c0.041-0.421-0.188-0.75-0.688-0.984c-0.342-0.164-1.12-0.295-2.338-0.378c-2.199-0.148-3.625-0.075-4.272,0.168
		s-0.979,0.571-0.998,0.979c-0.018,0.387,0.214,0.72,0.688,1.001c0.476,0.283,1.392,0.454,2.749,0.534
		c1.767,0.104,3.055,0.014,3.872-0.302C122.327,146.387,122.657,146.049,122.699,145.614z M118.846,133.885
		c-0.572-0.035-1.078,0.168-1.512,0.609c-0.435,0.439-0.674,1.094-0.718,1.959c-0.044,0.837,0.122,1.485,0.493,1.951
		c0.372,0.464,0.842,0.711,1.415,0.746c0.563,0.033,1.062-0.165,1.502-0.594c0.438-0.43,0.689-1.058,0.752-1.887
		c0.063-0.836-0.094-1.5-0.474-1.993C119.923,134.184,119.437,133.92,118.846,133.885z"/>
	<path fill="#FFFFFF" d="M128.675,128.458c1.898,0.122,3.798,0.271,5.701,0.446c-0.646,4.723-1.322,9.445-2.027,14.166
		c-0.039,0.255,0.022,0.468,0.184,0.639c0.161,0.17,0.41,0.278,0.752,0.326c0.233,0.033,0.468,0.066,0.701,0.1
		c-0.052,0.329-0.106,0.658-0.159,0.988c-2.222-0.321-4.445-0.601-6.669-0.84c0.04-0.332,0.081-0.662,0.119-0.993
		c0.255,0.027,0.508,0.056,0.763,0.084c0.35,0.039,0.618-0.015,0.81-0.162c0.192-0.147,0.312-0.392,0.357-0.734
		c0.506-3.888,0.993-7.776,1.463-11.667c0.044-0.362-0.042-0.656-0.258-0.879s-0.529-0.359-0.941-0.404
		c-0.3-0.033-0.6-0.066-0.9-0.098C128.606,129.106,128.641,128.783,128.675,128.458z"/>
	<path fill="#FFFFFF" d="M137.583,135.504c1.748,0.202,3.499,0.427,5.253,0.677c-0.544,2.799-1.103,5.598-1.676,8.395
		c-0.048,0.226,0,0.414,0.138,0.566c0.136,0.154,0.371,0.262,0.703,0.324c0.252,0.047,0.502,0.095,0.752,0.143
		c-0.072,0.327-0.144,0.653-0.215,0.979c-2.213-0.425-4.428-0.811-6.644-1.154c0.058-0.329,0.115-0.658,0.172-0.986
		c0.247,0.038,0.491,0.077,0.738,0.115c0.397,0.063,0.69,0.028,0.885-0.107c0.192-0.136,0.325-0.405,0.399-0.807
		c0.354-1.913,0.699-3.827,1.041-5.74c0.064-0.36-0.01-0.66-0.22-0.896c-0.209-0.237-0.531-0.392-0.964-0.46
		c-0.174-0.027-0.349-0.055-0.523-0.081C137.478,136.147,137.53,135.826,137.583,135.504z M141.832,130.315
		c0.576,0.099,1.042,0.354,1.395,0.762c0.35,0.409,0.479,0.853,0.388,1.332c-0.093,0.479-0.374,0.848-0.845,1.111
		c-0.471,0.262-0.988,0.343-1.554,0.246c-0.576-0.098-1.036-0.349-1.385-0.755c-0.349-0.405-0.484-0.845-0.406-1.318
		c0.08-0.481,0.354-0.856,0.822-1.125C140.716,130.299,141.245,130.214,141.832,130.315z"/>
	<path fill="#FFFFFF" d="M153.534,138.056c1.317,0.312,2.467,0.848,3.434,1.6c0.968,0.753,1.603,1.583,1.904,2.48
		c0.302,0.899,0.285,1.879-0.045,2.939c-0.527,1.696-1.613,2.806-3.217,3.364c-1.604,0.559-3.22,0.636-4.886,0.24
		c-1.18-0.281-2.192-0.761-3.06-1.448c-0.863-0.688-1.471-1.484-1.82-2.396c-0.348-0.913-0.414-1.873-0.188-2.883
		c0.341-1.521,1.24-2.672,2.737-3.431C149.889,137.762,151.613,137.602,153.534,138.056z M153.354,139.066
		c-0.867-0.207-1.639-0.046-2.309,0.478c-0.667,0.522-1.194,1.589-1.592,3.194c-0.414,1.668-0.459,2.871-0.137,3.612
		c0.323,0.741,0.89,1.206,1.712,1.402c0.838,0.2,1.603,0.043,2.306-0.472c0.7-0.515,1.285-1.56,1.735-3.139
		c0.462-1.621,0.516-2.819,0.161-3.593C154.876,139.774,154.246,139.278,153.354,139.066z"/>
</g>
</svg>
