<?xml version="1.0" encoding="utf-8"?>
<!-- Generator: Adobe Illustrator 16.0.4, SVG Export Plug-In . SVG Version: 6.00 Build 0)  -->
<!DOCTYPE svg PUBLIC "-//W3C//DTD SVG 1.1//EN" "http://www.w3.org/Graphics/SVG/1.1/DTD/svg11.dtd">
<svg version="1.1" id="Livello_1" xmlns="http://www.w3.org/2000/svg" xmlns:xlink="http://www.w3.org/1999/xlink" x="0px" y="0px"
	 width="210px" height="200px" viewBox="0 0 210 200" enable-background="new 0 0 210 200" xml:space="preserve">
<g>
	<circle fill="#FBC02E" cx="105" cy="100" r="84"/>
	<circle fill="#FABF2D" cx="105" cy="100" r="75.216"/>
	<path fill="#FFFFFF" d="M104.999,177.717c-42.852,0-77.715-34.864-77.715-77.717s34.863-77.717,77.715-77.717
		c42.853,0,77.717,34.864,77.717,77.717S147.852,177.717,104.999,177.717z M104.999,27.283c-40.095,0-72.715,32.621-72.715,72.717
		s32.62,72.717,72.715,72.717c40.096,0,72.717-32.621,72.717-72.717S145.095,27.283,104.999,27.283z"/>
	<path fill="#FFFFFF" d="M100.554,115.299H83.5l0.474-43.506c-0.551-4.04-3.01-6.182-6.093-6.182c-2.6,0-4.729,1.54-5.668,4.439
		L71.5,115.299H51.907h-0.036c-3.245,0-6.13,2.607-6.13,6.072c0,3.465,2.431,6.689,5.675,6.689c0.036,0,0.054,0.002,0.084,0.003
		v0.236h19.483H83.53h17.023c3.381,0,5.62-3.534,5.62-6.908C106.174,118.019,103.935,116.299,100.554,115.299z M51.516,128.064
		C52.047,128.082,51.592,128.215,51.516,128.064L51.516,128.064z"/>
	<g>
		<path fill="#FFFFFF" d="M142.847,86.046c-4.127-0.584-8.157-0.06-11.805,1.339L126.04,77.28l5.697-14.445l-13.122-1.856
			c0,0-4.513,2.895-0.646,4.569c2.888,0.409,7.321,1.035,7.321,1.035l-2.617,6.618l-31.19-4.41l3.893-9.546
			c0,0,4.04,0.353,8.083,1.144c3.159-2.052,0.647-4.572,0.647-4.572l-21.338-3.017c0,0-3.324,1.685-0.646,4.572
			c4.672,0.662,8.547,1.209,8.547,1.209l-6.043,14.824l-0.135,12.552c0.515-1.266,0.843-2.071,0.843-2.071
			c6.746,3.762,10.848,11.399,9.703,19.49c-0.633,4.477-2.778,8.369-5.834,11.256l6.121,0.01c2.209-3.044,3.731-6.652,4.293-10.629
			c1.447-10.223-3.878-19.858-12.533-24.421l2.891-7.094l19.762,33.538c0,0,0.828,1.862,2.875,2.151
			c2.043,0.289,3.078,0.435,3.078,0.435c-0.535,12.113,8.229,22.908,20.479,24.642c13.021,1.841,25.109-7.251,26.951-20.272
			C164.96,99.977,155.867,87.888,142.847,86.046z M135.505,106.751l-14.558-2.057c1.243-4.677,4.18-8.56,8.029-11.092
			L135.505,106.751z M111.874,100.563L96.3,74.126l24.637,3.484L111.874,100.563z M115.501,103.931l8.251-20.877l3.156,6.38
			c-5.156,3.221-9.066,8.376-10.571,14.616L115.501,103.931z M158.554,112.346c-1.483,10.493-11.229,17.833-21.731,16.349
			c-9.735-1.377-16.72-9.842-16.523-19.421c0,0,15.173,2.146,19.175,2.711c3.999,0.566,3.088-1.368,3.088-1.368l-9.457-19.076
			c2.828-1.008,5.933-1.375,9.1-0.928C152.711,92.099,160.039,101.853,158.554,112.346z"/>
		<path fill="#FFFFFF" d="M62.8,114.623c-4.361-4.142-6.743-10.248-5.839-16.643c1.127-7.966,7.024-14.097,14.387-15.944
			l0.075-4.758c-9.682,1.903-17.571,9.747-19.029,20.055c-0.897,6.346,0.809,12.466,4.295,17.29H62.8z"/>
	</g>
</g>
<path fill="#FDD835" d="M195.043,168.142c-2.571-5.809-5.419-11.587-8.546-17.311c5.997-2.563,12.202-4.906,18.603-7.004
	c-64.112-26.519-136.188-26.351-200.2,0.503c0.04,0.094,0.079,0.188,0.119,0.283c6.606,2.131,13.005,4.522,19.183,7.15
	c-2.928,5.42-5.607,10.887-8.038,16.381C73.434,144.455,137.773,144.454,195.043,168.142L195.043,168.142L195.043,168.142z"/>
<path fill="#FFFFFF" d="M12.1,170.961l1.515-3.424c2.23-5.043,4.686-10.092,7.309-15.031c-5.702-2.375-11.596-4.547-17.543-6.466
	l-0.656-0.212l-0.966-2.301l1.384-0.581c32.241-13.525,66.318-20.384,101.284-20.384c34.513,0,68.182,6.688,100.07,19.878
	l3.745,1.549l-3.851,1.262c-5.744,1.883-11.443,4.005-16.964,6.316c2.815,5.242,5.439,10.605,7.812,15.966l1.516,3.424l-3.46-1.431
	c-28.317-11.713-58.216-17.651-88.864-17.651c-30.65,0-60.55,5.939-88.869,17.653L12.1,170.961z M7.707,144.312
	c5.4,1.835,10.736,3.872,15.904,6.069l1.516,0.645l-0.783,1.449c-2.283,4.226-4.444,8.542-6.446,12.873
	c27.648-10.932,56.74-16.472,86.531-16.472c29.789,0,58.878,5.539,86.525,16.469c-2.148-4.645-4.479-9.271-6.951-13.796l-0.792-1.45
	l1.519-0.649c4.844-2.071,9.833-3.999,14.879-5.752c-30.412-12.038-62.412-18.137-95.184-18.137
	C71.089,125.562,38.569,131.869,7.707,144.312z"/>
<g>
	<path fill="#FFFFFF" d="M61.063,133.881c3.857-1.083,7.709-2.028,11.559-2.836c1.795-0.376,3.278-0.295,4.434,0.216
		c1.156,0.512,1.818,1.298,2.011,2.341c0.167,0.915-0.085,1.758-0.748,2.535c-0.664,0.777-1.734,1.487-3.214,2.157
		c2.129-0.128,3.689,0.099,4.68,0.63c0.994,0.532,1.576,1.319,1.769,2.351c0.171,0.91,0.019,1.744-0.442,2.503
		c-0.328,0.539-0.973,1.079-1.932,1.635c-0.958,0.556-2.131,0.976-3.533,1.278c-3.249,0.701-6.495,1.511-9.736,2.434
		c-0.108-0.319-0.214-0.638-0.321-0.956c0.524-0.149,1.048-0.296,1.573-0.439c0.271-0.073,0.451-0.2,0.544-0.382
		c0.123-0.25,0.142-0.513,0.057-0.789c-1.221-3.947-2.392-7.901-3.514-11.859c-0.05-0.18-0.188-0.299-0.411-0.359
		c-0.224-0.059-0.561-0.029-1.015,0.094c-0.491,0.134-0.981,0.27-1.473,0.408C61.256,134.521,61.159,134.201,61.063,133.881z
		 M69.692,139.086c0.683-0.164,1.366-0.323,2.049-0.477c1.406-0.318,2.351-0.78,2.847-1.411c0.496-0.628,0.622-1.522,0.374-2.685
		c-0.215-1.009-0.664-1.668-1.36-1.971c-0.695-0.302-1.894-0.277-3.592,0.108c-0.811,0.185-1.31,0.365-1.498,0.536
		c-0.186,0.169-0.241,0.411-0.161,0.723C68.79,135.636,69.237,137.361,69.692,139.086z M69.949,140.056
		c0.497,1.87,1.005,3.738,1.523,5.606c0.081,0.292,0.213,0.497,0.393,0.616c0.182,0.12,0.393,0.151,0.631,0.095
		c0.741-0.175,1.482-0.344,2.224-0.507c1.087-0.24,1.877-0.684,2.379-1.351c0.501-0.666,0.642-1.519,0.414-2.565
		c-0.239-1.095-0.762-1.866-1.586-2.305c-0.822-0.437-1.905-0.518-3.238-0.221C71.776,139.625,70.863,139.836,69.949,140.056z"/>
	<path fill="#FFFFFF" d="M91.642,143.121c0.039,0.331,0.078,0.662,0.117,0.993c-2.511,0.264-5.022,0.59-7.531,0.982
		c-0.059-0.329-0.117-0.657-0.175-0.986c0.313-0.048,0.626-0.096,0.939-0.143c0.387-0.058,0.657-0.167,0.812-0.332
		c0.157-0.162,0.216-0.362,0.179-0.596c-0.313-1.962-0.621-3.925-0.921-5.888c-0.073-0.474-0.251-0.805-0.534-0.988
		c-0.283-0.184-0.651-0.243-1.102-0.174c-0.217,0.032-0.435,0.066-0.652,0.099c-0.052-0.311-0.103-0.622-0.155-0.933
		c1.639-0.33,3.278-0.635,4.922-0.914c0.142,1.083,0.284,2.167,0.43,3.25c0.137-1.122,0.527-2.019,1.173-2.683
		c0.644-0.665,1.424-1.046,2.325-1.134c0.769-0.076,1.395,0.044,1.872,0.36c0.478,0.313,0.739,0.75,0.788,1.307
		c0.042,0.478-0.077,0.877-0.352,1.2c-0.278,0.322-0.633,0.503-1.068,0.543c-0.387,0.037-0.734-0.059-1.04-0.288
		c-0.308-0.229-0.484-0.542-0.527-0.941c-0.024-0.22,0.017-0.459,0.125-0.714c0.056-0.143,0.082-0.243,0.075-0.3
		c-0.011-0.1-0.045-0.17-0.103-0.211c-0.059-0.04-0.146-0.055-0.259-0.042c-0.295,0.03-0.604,0.213-0.919,0.55
		c-0.485,0.522-0.85,1.294-1.088,2.313c-0.238,1.021-0.285,2.028-0.152,3.023c0.096,0.718,0.192,1.436,0.289,2.153
		c0.034,0.249,0.134,0.43,0.299,0.544c0.164,0.113,0.379,0.155,0.642,0.125C90.581,143.235,91.111,143.176,91.642,143.121z"/>
	<path fill="#FFFFFF" d="M96.011,133.645c1.71-0.19,3.424-0.351,5.139-0.486c0.114,2.845,0.231,5.689,0.354,8.534
		c0.01,0.229,0.097,0.403,0.261,0.521c0.164,0.12,0.408,0.174,0.733,0.163c0.244-0.008,0.488-0.015,0.732-0.021
		c0.01,0.333,0.02,0.666,0.03,0.999c-2.16,0.059-4.319,0.165-6.478,0.318c-0.026-0.333-0.053-0.665-0.079-0.997
		c0.241-0.017,0.48-0.034,0.72-0.049c0.387-0.026,0.654-0.125,0.802-0.299s0.209-0.465,0.182-0.872
		c-0.126-1.937-0.25-3.875-0.372-5.812c-0.022-0.364-0.161-0.64-0.415-0.825c-0.254-0.186-0.595-0.266-1.021-0.236
		c-0.172,0.012-0.344,0.024-0.516,0.036C96.06,134.294,96.035,133.969,96.011,133.645z M98.889,127.658
		c0.573-0.029,1.074,0.118,1.498,0.441c0.425,0.324,0.643,0.729,0.662,1.216c0.019,0.487-0.168,0.907-0.557,1.264
		c-0.389,0.356-0.862,0.548-1.422,0.577c-0.57,0.029-1.064-0.115-1.489-0.435c-0.424-0.318-0.653-0.716-0.685-1.195
		c-0.031-0.486,0.146-0.912,0.535-1.277C97.821,127.886,98.307,127.688,98.889,127.658z"/>
	<path fill="#FFFFFF" d="M111.631,132.743c1.3,0.034,2.488,0.325,3.546,0.865c1.06,0.54,1.822,1.224,2.289,2.039
		c0.468,0.817,0.653,1.777,0.57,2.876c-0.135,1.758-0.902,3.056-2.26,3.923c-1.358,0.867-2.829,1.273-4.455,1.229
		c-1.149-0.03-2.194-0.288-3.153-0.775c-0.955-0.489-1.702-1.136-2.233-1.951c-0.532-0.815-0.814-1.737-0.83-2.768
		c-0.024-1.553,0.563-2.867,1.804-3.92C108.147,133.208,109.734,132.692,111.631,132.743z M111.677,133.765
		c-0.855-0.023-1.544,0.292-2.058,0.941c-0.512,0.647-0.773,1.797-0.79,3.444c-0.018,1.711,0.21,2.893,0.673,3.547
		c0.464,0.655,1.092,0.99,1.896,1.012c0.818,0.022,1.49-0.287,2.027-0.932c0.536-0.645,0.851-1.78,0.933-3.412
		c0.084-1.673-0.119-2.854-0.613-3.538C113.25,134.146,112.557,133.789,111.677,133.765z"/>
	<path fill="#FFFFFF" d="M134.354,144.738c-0.067,0.327-0.136,0.654-0.205,0.981c-2.163-0.393-4.327-0.736-6.49-1.033
		c0.052-0.33,0.104-0.659,0.155-0.989c0.228,0.032,0.457,0.063,0.685,0.096c0.364,0.052,0.649,0.006,0.855-0.138
		c0.207-0.144,0.338-0.378,0.394-0.704c0.242-1.437,0.48-2.874,0.714-4.311c0.121-0.736,0.021-1.329-0.304-1.779
		c-0.324-0.448-0.801-0.718-1.429-0.802c-0.856-0.116-1.591,0.076-2.199,0.569c-0.608,0.492-0.976,1.278-1.113,2.353
		c-0.143,1.112-0.288,2.225-0.435,3.337c-0.044,0.327,0.016,0.587,0.174,0.778c0.161,0.192,0.382,0.306,0.669,0.342
		c0.275,0.033,0.549,0.068,0.825,0.104c-0.048,0.33-0.097,0.66-0.146,0.99c-2.248-0.29-4.497-0.528-6.746-0.716
		c0.031-0.332,0.063-0.664,0.094-0.995c0.294,0.024,0.589,0.05,0.883,0.076c0.341,0.03,0.606-0.031,0.801-0.185
		c0.192-0.155,0.308-0.396,0.343-0.724c0.215-1.985,0.424-3.97,0.63-5.955c0.035-0.342-0.068-0.627-0.314-0.856
		c-0.246-0.227-0.587-0.361-1.022-0.399c-0.164-0.014-0.329-0.029-0.492-0.042c0.027-0.311,0.055-0.621,0.083-0.932
		c1.621,0.06,3.244,0.146,4.871,0.255c0.101,0.632,0.141,1.375,0.125,2.232c0.767-0.712,1.561-1.214,2.38-1.504
		s1.66-0.375,2.51-0.251c1.157,0.168,2.017,0.642,2.567,1.407c0.541,0.764,0.698,1.734,0.48,2.905
		c-0.285,1.531-0.576,3.062-0.871,4.592c-0.068,0.353-0.027,0.622,0.121,0.807c0.148,0.186,0.415,0.312,0.802,0.381
		C133.952,144.666,134.154,144.701,134.354,144.738z"/>
	<path fill="#FFFFFF" d="M148.604,143.878c-2.616-0.709-5.233-1.348-7.849-1.918c-0.314,1.382-0.256,2.463,0.169,3.249
		c0.426,0.785,1.093,1.284,2.019,1.507c0.663,0.159,1.338,0.149,2.033-0.032c0.695-0.18,1.49-0.622,2.395-1.322
		c0.239,0.232,0.477,0.464,0.714,0.697c-0.995,0.852-1.977,1.392-2.956,1.619c-0.978,0.231-2.063,0.198-3.274-0.087
		c-1.761-0.415-3.055-1.207-3.925-2.414c-0.867-1.206-1.153-2.572-0.819-4.11c0.333-1.537,1.18-2.715,2.586-3.506
		c1.404-0.79,2.989-0.992,4.718-0.59c1.197,0.278,2.173,0.735,2.915,1.36c0.744,0.626,1.235,1.396,1.47,2.304
		C149.035,141.542,148.967,142.625,148.604,143.878z M140.988,141.007c1.254,0.273,2.509,0.562,3.763,0.866
		c0.354,0.086,0.626,0.072,0.822-0.043c0.194-0.114,0.35-0.373,0.463-0.774c0.226-0.805,0.183-1.482-0.132-2.029
		c-0.314-0.547-0.812-0.902-1.488-1.06c-0.797-0.186-1.485-0.024-2.053,0.483C141.794,138.956,141.339,139.81,140.988,141.007z"/>
</g>
</svg>
