<?xml version="1.0" encoding="utf-8"?>
<!-- Generator: Adobe Illustrator 16.0.4, SVG Export Plug-In . SVG Version: 6.00 Build 0)  -->
<!DOCTYPE svg PUBLIC "-//W3C//DTD SVG 1.1//EN" "http://www.w3.org/Graphics/SVG/1.1/DTD/svg11.dtd">
<svg version="1.1" id="Livello_1" xmlns="http://www.w3.org/2000/svg" xmlns:xlink="http://www.w3.org/1999/xlink" x="0px" y="0px"
	 width="210px" height="200px" viewBox="0 0 210 200" enable-background="new 0 0 210 200" xml:space="preserve">
<g>
	<circle fill="#FBC02E" cx="105" cy="100" r="84"/>
	<circle fill="#FABF2D" cx="105" cy="100" r="75.216"/>
	<path fill="#FFFFFF" d="M104.999,177.717c-42.852,0-77.715-34.864-77.715-77.717s34.863-77.717,77.715-77.717
		c42.853,0,77.717,34.864,77.717,77.717S147.852,177.717,104.999,177.717z M104.999,27.283c-40.095,0-72.715,32.621-72.715,72.717
		s32.62,72.717,72.715,72.717c40.096,0,72.717-32.621,72.717-72.717S145.095,27.283,104.999,27.283z"/>
	<path fill="#FFFFFF" d="M100.554,115.299H83.5l0.474-43.506c-0.551-4.04-3.01-6.182-6.093-6.182c-2.6,0-4.729,1.54-5.668,4.439
		L71.5,115.299H51.907h-0.036c-3.245,0-6.13,2.607-6.13,6.072c0,3.465,2.431,6.689,5.675,6.689c0.036,0,0.054,0.002,0.084,0.003
		v0.236h19.483H83.53h17.023c3.381,0,5.62-3.534,5.62-6.908C106.174,118.019,103.935,116.299,100.554,115.299z M51.516,128.064
		C52.047,128.082,51.592,128.215,51.516,128.064L51.516,128.064z"/>
	<g>
		<path fill="#FFFFFF" d="M142.847,86.046c-4.127-0.584-8.157-0.06-11.805,1.339L126.04,77.28l5.697-14.445l-13.122-1.856
			c0,0-4.513,2.895-0.646,4.569c2.888,0.409,7.321,1.035,7.321,1.035l-2.617,6.618l-31.19-4.41l3.893-9.546
			c0,0,4.04,0.353,8.083,1.144c3.159-2.052,0.647-4.572,0.647-4.572l-21.338-3.017c0,0-3.324,1.685-0.646,4.572
			c4.672,0.662,8.547,1.209,8.547,1.209l-6.043,14.824l-0.135,12.552c0.515-1.266,0.843-2.071,0.843-2.071
			c6.746,3.762,10.848,11.399,9.703,19.49c-0.633,4.477-2.778,8.369-5.834,11.256l6.121,0.01c2.209-3.044,3.731-6.652,4.293-10.629
			c1.447-10.223-3.878-19.858-12.533-24.421l2.891-7.094l19.762,33.538c0,0,0.828,1.862,2.875,2.151
			c2.043,0.289,3.078,0.435,3.078,0.435c-0.535,12.113,8.229,22.908,20.479,24.642c13.021,1.841,25.109-7.251,26.951-20.272
			C164.96,99.977,155.867,87.888,142.847,86.046z M135.505,106.751l-14.558-2.057c1.243-4.677,4.18-8.56,8.029-11.092
			L135.505,106.751z M111.874,100.563L96.3,74.126l24.637,3.484L111.874,100.563z M115.501,103.931l8.251-20.877l3.156,6.38
			c-5.156,3.221-9.066,8.376-10.571,14.616L115.501,103.931z M158.554,112.346c-1.483,10.493-11.229,17.833-21.731,16.349
			c-9.735-1.377-16.72-9.842-16.523-19.421c0,0,15.173,2.146,19.175,2.711c3.999,0.566,3.088-1.368,3.088-1.368l-9.457-19.076
			c2.828-1.008,5.933-1.375,9.1-0.928C152.711,92.099,160.039,101.853,158.554,112.346z"/>
		<path fill="#FFFFFF" d="M62.8,114.623c-4.361-4.142-6.743-10.248-5.839-16.643c1.127-7.966,7.024-14.097,14.387-15.944
			l0.075-4.758c-9.682,1.903-17.571,9.747-19.029,20.055c-0.897,6.346,0.809,12.466,4.295,17.29H62.8z"/>
	</g>
</g>
<path fill="#FDD835" d="M195.043,168.142c-2.57-5.81-5.418-11.587-8.545-17.312c5.996-2.563,12.201-4.905,18.602-7.004
	c-64.111-26.519-136.188-26.351-200.2,0.503c0.041,0.095,0.08,0.188,0.119,0.283c6.605,2.131,13.005,4.522,19.183,7.149
	c-2.928,5.42-5.605,10.887-8.037,16.382C73.435,144.454,137.774,144.453,195.043,168.142L195.043,168.142L195.043,168.142z"/>
<path fill="#FFFFFF" d="M12.101,170.961l1.514-3.425c2.231-5.043,4.687-10.092,7.31-15.03c-5.701-2.375-11.595-4.547-17.544-6.466
	l-0.654-0.212l-0.967-2.302l1.383-0.58c32.242-13.525,66.318-20.384,101.284-20.384c34.514,0,68.182,6.688,100.07,19.878
	l3.744,1.549l-3.85,1.263c-5.744,1.883-11.443,4.005-16.965,6.316c2.814,5.241,5.439,10.604,7.812,15.966l1.516,3.425l-3.461-1.432
	c-28.318-11.713-58.217-17.651-88.863-17.651c-30.651,0-60.55,5.939-88.869,17.653L12.101,170.961z M7.707,144.312
	c5.4,1.835,10.737,3.871,15.905,6.069l1.516,0.645l-0.783,1.448c-2.283,4.226-4.443,8.542-6.445,12.873
	c27.647-10.932,56.739-16.472,86.531-16.472c29.789,0,58.877,5.539,86.525,16.47c-2.148-4.645-4.48-9.271-6.951-13.796l-0.791-1.45
	l1.518-0.648c4.844-2.071,9.834-3.999,14.879-5.752c-30.412-12.038-62.41-18.137-95.184-18.137
	C71.089,125.562,38.57,131.868,7.707,144.312z"/>
<g>
	<path fill="#FFFFFF" d="M63.889,133.887c2.58-0.728,5.158-1.39,7.734-1.985c2.289,3.158,4.506,6.357,6.641,9.594
		c0.543-3.783,1.231-7.57,2.05-11.356c2.638-0.459,5.274-0.851,7.91-1.176c0.041,0.331,0.082,0.661,0.123,0.992
		c-0.568,0.07-1.137,0.143-1.705,0.219c-0.422,0.057-0.703,0.161-0.845,0.311c-0.14,0.149-0.188,0.381-0.143,0.693
		c0.58,4.006,1.186,8.01,1.822,12.013c0.049,0.305,0.16,0.503,0.333,0.594c0.261,0.138,0.589,0.18,0.985,0.126
		c0.455-0.061,0.909-0.119,1.364-0.175c0.045,0.33,0.092,0.661,0.138,0.991c-2.89,0.357-5.778,0.805-8.663,1.347
		c-0.07-0.327-0.14-0.653-0.211-0.981c0.549-0.102,1.098-0.202,1.647-0.298c0.301-0.053,0.516-0.17,0.645-0.352
		c0.129-0.182,0.168-0.41,0.116-0.686c-0.809-4.268-1.579-8.538-2.312-12.81c-1.176,5.231-2.102,10.468-2.734,15.691
		c-0.339,0.071-0.677,0.144-1.016,0.217c-3.015-4.492-6.193-8.907-9.51-13.239c1.006,3.747,2.057,7.49,3.154,11.228
		c0.188,0.644,0.576,1.11,1.154,1.406c0.579,0.297,1.309,0.38,2.196,0.258c0.088,0.323,0.177,0.646,0.266,0.97
		c-2.101,0.499-4.2,1.048-6.296,1.648c-0.107-0.318-0.214-0.637-0.321-0.956c0.781-0.292,1.321-0.713,1.628-1.274
		c0.308-0.562,0.362-1.184,0.154-1.867c-1.002-3.299-1.968-6.6-2.897-9.906c-0.118-0.422-0.287-0.678-0.505-0.769
		c-0.219-0.091-0.587-0.067-1.103,0.073c-0.504,0.137-1.007,0.277-1.51,0.419C64.081,134.528,63.984,134.208,63.889,133.887z"/>
	<path fill="#FFFFFF" d="M104.599,142.463c0.167,0.254,0.335,0.51,0.501,0.765c-0.465,0.308-0.881,0.525-1.25,0.648
		c-0.369,0.123-0.775,0.193-1.219,0.207c-0.66,0.022-1.196-0.085-1.617-0.329c-0.421-0.243-0.821-0.715-1.206-1.42
		c-0.75,0.765-1.419,1.3-2.022,1.603c-0.603,0.304-1.292,0.486-2.072,0.552c-1.08,0.091-1.945-0.058-2.607-0.459
		c-0.661-0.4-1.041-0.953-1.127-1.664c-0.13-1.073,0.339-2,1.436-2.762c0.879-0.601,2.881-1.317,6.046-2.006
		c-0.027-0.482-0.055-0.965-0.082-1.448c-0.033-0.573-0.275-1.028-0.735-1.363c-0.458-0.336-1.057-0.48-1.793-0.429
		c-0.563,0.04-1.051,0.18-1.463,0.422c-0.277,0.158-0.409,0.306-0.397,0.441c0.006,0.071,0.069,0.174,0.188,0.308
		c0.257,0.302,0.397,0.61,0.425,0.925c0.034,0.4-0.09,0.734-0.367,1.006c-0.277,0.27-0.665,0.427-1.166,0.473
		c-0.532,0.048-0.974-0.042-1.326-0.279c-0.352-0.233-0.553-0.56-0.6-0.98c-0.075-0.69,0.288-1.346,1.103-1.955
		c1.018-0.758,2.35-1.203,3.973-1.313c1.223-0.082,2.32,0.025,3.281,0.311c0.614,0.181,1.121,0.525,1.513,1.03
		c0.395,0.506,0.601,1.14,0.626,1.898c0.057,1.7,0.114,3.4,0.173,5.101c0.013,0.386,0.101,0.663,0.261,0.83
		c0.161,0.167,0.376,0.247,0.647,0.24C103.948,142.81,104.239,142.692,104.599,142.463z M99.516,138.532
		c-1.703,0.3-2.835,0.709-3.397,1.188c-0.564,0.478-0.809,1.073-0.743,1.78c0.046,0.499,0.221,0.871,0.522,1.115
		c0.3,0.247,0.697,0.349,1.192,0.313c0.767-0.056,1.384-0.35,1.863-0.888c0.477-0.538,0.695-1.244,0.644-2.124
		C99.569,139.454,99.542,138.993,99.516,138.532z"/>
	<path fill="#FFFFFF" d="M114.086,142.854c-0.019,0.333-0.038,0.665-0.056,0.997c-2.514-0.124-5.026-0.179-7.539-0.165
		c-0.001-0.333-0.004-0.666-0.005-0.999c0.313-0.001,0.627-0.002,0.941-0.002c0.387,0,0.67-0.067,0.85-0.206
		c0.181-0.137,0.271-0.324,0.275-0.561c0.021-1.984,0.042-3.968,0.062-5.951c0.005-0.479-0.117-0.832-0.366-1.056
		c-0.248-0.223-0.6-0.336-1.053-0.335c-0.218,0-0.437,0-0.655,0.001c-0.001-0.315-0.003-0.63-0.005-0.945
		c1.658-0.083,3.318-0.139,4.981-0.167c-0.033,1.093-0.065,2.184-0.1,3.276c0.318-1.087,0.847-1.914,1.589-2.473
		c0.742-0.558,1.574-0.815,2.48-0.765c0.773,0.043,1.374,0.258,1.796,0.643c0.422,0.383,0.61,0.855,0.567,1.413
		c-0.037,0.478-0.221,0.854-0.546,1.13c-0.328,0.275-0.708,0.399-1.146,0.372c-0.389-0.024-0.715-0.171-0.98-0.444
		c-0.267-0.273-0.389-0.609-0.367-1.009c0.012-0.222,0.092-0.452,0.24-0.687c0.078-0.132,0.12-0.227,0.123-0.284
		c0.006-0.101-0.017-0.175-0.067-0.225c-0.052-0.049-0.135-0.077-0.25-0.083c-0.296-0.015-0.63,0.119-0.997,0.404
		c-0.563,0.441-1.046,1.148-1.447,2.119c-0.402,0.971-0.614,1.959-0.648,2.961c-0.026,0.723-0.052,1.446-0.078,2.169
		c-0.008,0.25,0.059,0.444,0.202,0.583c0.142,0.136,0.345,0.209,0.608,0.219C113.024,142.805,113.555,142.829,114.086,142.854z"/>
	<path fill="#FFFFFF" d="M130.026,141.886c0.285,0.18,0.568,0.362,0.851,0.544c-0.691,1.035-1.583,1.776-2.67,2.238
		c-1.086,0.464-2.29,0.604-3.63,0.434c-1.815-0.229-3.171-0.835-4.103-1.856c-0.931-1.021-1.341-2.306-1.198-3.869
		c0.154-1.683,0.913-3.018,2.321-3.977c1.409-0.958,3.217-1.313,5.386-1.027c1.559,0.206,2.712,0.655,3.444,1.316
		c0.732,0.663,1.023,1.376,0.888,2.131c-0.099,0.551-0.355,0.958-0.762,1.222c-0.41,0.265-0.898,0.353-1.471,0.266
		c-0.5-0.076-0.876-0.259-1.132-0.554c-0.255-0.293-0.353-0.641-0.292-1.045c0.053-0.347,0.277-0.729,0.676-1.143
		c0.169-0.171,0.26-0.296,0.272-0.374c0.022-0.142-0.087-0.288-0.326-0.438c-0.337-0.228-0.803-0.384-1.392-0.462
		c-1.096-0.145-1.928,0.06-2.489,0.6c-0.75,0.714-1.21,1.876-1.402,3.477c-0.192,1.602-0.02,2.76,0.507,3.482
		c0.529,0.722,1.264,1.142,2.224,1.271c0.759,0.102,1.509-0.029,2.262-0.391C128.742,143.369,129.42,142.755,130.026,141.886z"/>
	<path fill="#FFFFFF" d="M140.586,136.798c1.311,0.294,2.458,0.819,3.421,1.563c0.965,0.745,1.596,1.572,1.893,2.466
		c0.299,0.897,0.277,1.876-0.054,2.937c-0.529,1.695-1.608,2.808-3.179,3.38c-1.571,0.573-3.145,0.672-4.767,0.305
		c-1.147-0.259-2.136-0.717-2.986-1.384c-0.847-0.668-1.449-1.447-1.804-2.349c-0.354-0.903-0.438-1.86-0.236-2.875
		c0.304-1.527,1.163-2.702,2.629-3.492C136.964,136.561,138.673,136.369,140.586,136.798z M140.418,137.81
		c-0.863-0.194-1.624-0.021-2.279,0.513c-0.653,0.533-1.155,1.608-1.526,3.22c-0.385,1.675-0.417,2.877-0.097,3.609
		c0.32,0.734,0.875,1.187,1.678,1.369c0.817,0.185,1.563,0.017,2.25-0.506c0.686-0.524,1.26-1.572,1.702-3.155
		c0.453-1.623,0.501-2.821,0.145-3.592C141.935,138.499,141.306,138.01,140.418,137.81z"/>
</g>
</svg>
