<?xml version="1.0" encoding="utf-8"?>
<!-- Generator: Adobe Illustrator 16.0.4, SVG Export Plug-In . SVG Version: 6.00 Build 0)  -->
<!DOCTYPE svg PUBLIC "-//W3C//DTD SVG 1.1//EN" "http://www.w3.org/Graphics/SVG/1.1/DTD/svg11.dtd">
<svg version="1.1" id="Livello_1" xmlns="http://www.w3.org/2000/svg" xmlns:xlink="http://www.w3.org/1999/xlink" x="0px" y="0px"
	 width="210px" height="200px" viewBox="0 0 210 200" enable-background="new 0 0 210 200" xml:space="preserve">
<g>
	<g>
		<circle fill="#FBC02E" cx="105" cy="100" r="84"/>
		<circle fill="#FABF2D" cx="105" cy="100" r="75.216"/>
		<path fill="#FFFFFF" d="M104.999,177.717c-42.853,0-77.715-34.864-77.715-77.717s34.862-77.717,77.715-77.717
			S182.716,57.147,182.716,100S147.852,177.717,104.999,177.717z M104.999,27.283c-40.095,0-72.715,32.621-72.715,72.717
			s32.62,72.717,72.715,72.717c40.097,0,72.717-32.621,72.717-72.717S145.096,27.283,104.999,27.283z"/>
		<path fill="#FFFFFF" d="M100.554,115.299H83.5l0.474-43.506c-0.551-4.04-3.011-6.182-6.093-6.182c-2.601,0-4.729,1.54-5.668,4.439
			L71.5,115.299H51.906h-0.035c-3.244,0-6.13,2.607-6.13,6.072c0,3.465,2.431,6.689,5.675,6.689c0.036,0,0.055,0.002,0.084,0.003
			v0.236h19.483H83.53h17.023c3.381,0,5.62-3.534,5.62-6.908C106.174,118.019,103.935,116.299,100.554,115.299z M51.516,128.064
			C52.047,128.082,51.592,128.215,51.516,128.064L51.516,128.064z"/>
		<g>
			<path fill="#FFFFFF" d="M142.847,86.046c-4.127-0.584-8.157-0.06-11.806,1.339l-5.002-10.106l5.697-14.445l-13.121-1.856
				c0,0-4.514,2.895-0.646,4.569c2.888,0.409,7.321,1.035,7.321,1.035l-2.617,6.618l-31.19-4.41l3.894-9.546
				c0,0,4.04,0.353,8.083,1.144c3.158-2.052,0.647-4.572,0.647-4.572l-21.339-3.017c0,0-3.323,1.685-0.646,4.572
				c4.673,0.662,8.547,1.209,8.547,1.209l-6.043,14.824L84.49,85.956c0.516-1.266,0.844-2.071,0.844-2.071
				c6.745,3.762,10.848,11.399,9.703,19.49c-0.633,4.477-2.778,8.369-5.834,11.256l6.121,0.01c2.209-3.044,3.73-6.652,4.293-10.629
				c1.447-10.223-3.878-19.858-12.533-24.421l2.891-7.094l19.763,33.538c0,0,0.828,1.862,2.876,2.151
				c2.043,0.289,3.078,0.435,3.078,0.435c-0.535,12.113,8.229,22.908,20.479,24.642c13.02,1.841,25.108-7.251,26.951-20.272
				C164.961,99.977,155.867,87.888,142.847,86.046z M135.506,106.751l-14.559-2.057c1.242-4.677,4.18-8.56,8.029-11.092
				L135.506,106.751z M111.874,100.563L96.301,74.126l24.637,3.484L111.874,100.563z M115.501,103.931l8.251-20.877l3.156,6.38
				c-5.156,3.221-9.066,8.376-10.571,14.616L115.501,103.931z M158.555,112.346c-1.483,10.493-11.229,17.833-21.731,16.349
				c-9.735-1.377-16.72-9.842-16.523-19.421c0,0,15.173,2.146,19.175,2.711c4,0.566,3.089-1.368,3.089-1.368l-9.456-19.076
				c2.828-1.008,5.932-1.375,9.1-0.928C152.711,92.099,160.039,101.853,158.555,112.346z"/>
			<path fill="#FFFFFF" d="M62.801,114.623c-4.361-4.142-6.744-10.248-5.84-16.643c1.127-7.966,7.023-14.097,14.387-15.944
				l0.074-4.758c-9.682,1.903-17.57,9.747-19.028,20.055c-0.897,6.346,0.81,12.466,4.296,17.29H62.801z"/>
		</g>
	</g>
	<path fill="#FDD835" d="M195.044,168.142c-2.57-5.81-5.418-11.587-8.545-17.312c5.996-2.563,12.201-4.905,18.602-7.004
		c-64.111-26.519-136.189-26.351-200.201,0.503c0.041,0.095,0.08,0.188,0.119,0.283c6.605,2.131,13.006,4.522,19.184,7.149
		c-2.928,5.42-5.605,10.887-8.037,16.382C73.435,144.454,137.774,144.453,195.044,168.142L195.044,168.142L195.044,168.142z"/>
	<path fill="#FFFFFF" d="M12.101,170.961l1.514-3.425c2.232-5.043,4.688-10.092,7.311-15.03c-5.701-2.375-11.596-4.547-17.545-6.466
		l-0.654-0.212l-0.967-2.302l1.383-0.58c32.242-13.525,66.318-20.384,101.285-20.384c34.514,0,68.182,6.688,100.07,19.878
		l3.744,1.549l-3.85,1.263c-5.744,1.883-11.443,4.005-16.965,6.316c2.814,5.241,5.439,10.604,7.812,15.966l1.516,3.425l-3.461-1.432
		c-28.318-11.713-58.217-17.651-88.863-17.651c-30.652,0-60.551,5.939-88.869,17.653L12.101,170.961z M7.706,144.312
		c5.4,1.835,10.738,3.871,15.906,6.069l1.516,0.645l-0.783,1.448c-2.283,4.226-4.443,8.542-6.445,12.873
		c27.646-10.932,56.738-16.472,86.531-16.472c29.789,0,58.877,5.539,86.525,16.47c-2.148-4.645-4.48-9.271-6.951-13.796l-0.791-1.45
		l1.518-0.648c4.844-2.071,9.834-3.999,14.879-5.752c-30.412-12.038-62.41-18.137-95.184-18.137
		C71.089,125.562,38.569,131.868,7.706,144.312z"/>
	<g>
		<path fill="#FFFFFF" d="M35.144,138.807c2.312,2.773,4.579,5.57,6.809,8.388c0.193,0.237,0.371,0.387,0.538,0.447
			c0.167,0.064,0.368,0.066,0.606,0.012c0.139-0.032,0.275-0.063,0.416-0.094c0.056,0.221,0.11,0.442,0.165,0.664
			c-1.771,0.403-3.545,0.826-5.317,1.265c-0.062-0.22-0.119-0.439-0.181-0.66c0.167-0.042,0.335-0.083,0.499-0.124
			c0.393-0.097,0.656-0.203,0.783-0.32c0.129-0.117,0.17-0.241,0.138-0.374c-0.027-0.104-0.092-0.218-0.189-0.34
			c-0.463-0.578-0.937-1.155-1.404-1.731c-1.435,0.353-2.87,0.716-4.306,1.093c-0.051,0.33-0.102,0.661-0.152,0.991
			c-0.061,0.413-0.069,0.708-0.018,0.887c0.091,0.307,0.29,0.521,0.592,0.647c0.301,0.126,0.666,0.133,1.091,0.022
			c0.117-0.032,0.244-0.062,0.361-0.094c0.065,0.22,0.123,0.439,0.19,0.659c-1.435,0.371-2.871,0.753-4.306,1.147
			c-0.064-0.219-0.136-0.437-0.202-0.656c0.081-0.022,0.162-0.045,0.245-0.067c0.28-0.076,0.497-0.222,0.66-0.438
			c0.233-0.307,0.376-0.659,0.437-1.056c0.479-3.345,1.028-6.694,1.647-10.045C34.547,138.956,34.846,138.881,35.144,138.807z
			 M34.574,141.785c-0.265,1.491-0.515,2.981-0.751,4.471c1.225-0.32,2.45-0.631,3.677-0.934
			C36.532,144.139,35.556,142.96,34.574,141.785z"/>
		<path fill="#FFFFFF" d="M43.312,141.258c2.124-0.473,4.244-0.921,6.368-1.344c0.043,0.218,0.094,0.436,0.138,0.653
			c-1.078,2.09-2.12,4.186-3.127,6.287c0.671-0.146,1.347-0.288,2.019-0.429c0.44-0.091,0.771-0.312,0.992-0.667
			c0.223-0.355,0.322-0.922,0.297-1.702c0.23-0.047,0.461-0.092,0.689-0.138c0.144,0.905,0.287,1.809,0.435,2.713
			c-2.233,0.446-4.464,0.92-6.694,1.422c-0.055-0.221-0.107-0.442-0.165-0.665c0.987-2.109,2.006-4.214,3.064-6.314
			c-0.58,0.121-1.151,0.243-1.729,0.367c-0.403,0.086-0.706,0.295-0.906,0.623c-0.204,0.329-0.287,0.839-0.248,1.53
			c-0.232,0.051-0.459,0.102-0.691,0.154C43.606,142.918,43.455,142.088,43.312,141.258z"/>
		<path fill="#FFFFFF" d="M51.475,139.562c1.083-0.255,2.162-0.505,3.248-0.748c0.364,1.909,0.733,3.817,1.104,5.726
			c0.029,0.153,0.104,0.264,0.228,0.327c0.12,0.066,0.29,0.078,0.505,0.04c0.162-0.028,0.32-0.057,0.482-0.085
			c0.042,0.223,0.088,0.447,0.129,0.67c-1.438,0.253-2.87,0.519-4.303,0.796c-0.046-0.223-0.096-0.446-0.14-0.668
			c0.157-0.031,0.318-0.061,0.475-0.092c0.254-0.049,0.427-0.138,0.509-0.268c0.081-0.13,0.094-0.332,0.039-0.605
			c-0.266-1.3-0.528-2.599-0.787-3.898c-0.051-0.245-0.162-0.419-0.346-0.525c-0.175-0.104-0.407-0.131-0.68-0.08
			c-0.11,0.021-0.221,0.042-0.33,0.063C51.562,139.997,51.521,139.78,51.475,139.562z M52.745,135.292
			c0.355-0.066,0.682-0.008,0.982,0.174c0.298,0.182,0.478,0.437,0.539,0.762c0.062,0.328-0.013,0.627-0.224,0.902
			c-0.211,0.273-0.491,0.443-0.846,0.509c-0.359,0.067-0.688,0.009-0.986-0.173c-0.304-0.183-0.479-0.433-0.546-0.755
			c-0.064-0.325,0.008-0.626,0.218-0.903C52.096,135.532,52.38,135.359,52.745,135.292z"/>
		<path fill="#FFFFFF" d="M65.45,140.733c-1.699,0.244-3.391,0.504-5.09,0.78c0.182,0.946,0.511,1.612,0.978,2
			c0.473,0.388,1.006,0.533,1.621,0.438c0.438-0.068,0.837-0.248,1.19-0.538c0.359-0.291,0.694-0.771,1.018-1.44
			c0.203,0.081,0.41,0.163,0.613,0.245c-0.323,0.787-0.744,1.377-1.253,1.771c-0.508,0.396-1.167,0.654-1.97,0.78
			c-1.173,0.184-2.177,0.002-3.027-0.549c-0.852-0.552-1.37-1.352-1.566-2.404c-0.195-1.054,0.02-1.998,0.642-2.832
			c0.624-0.832,1.483-1.338,2.577-1.509c0.753-0.119,1.428-0.076,2.016,0.127c0.585,0.205,1.071,0.559,1.456,1.063
			C65.036,139.173,65.302,139.861,65.45,140.733z M60.249,140.855c0.806-0.132,1.62-0.259,2.427-0.384
			c0.231-0.035,0.38-0.112,0.464-0.233c0.077-0.121,0.104-0.321,0.056-0.602c-0.089-0.56-0.296-0.973-0.621-1.237
			c-0.327-0.264-0.702-0.363-1.132-0.295c-0.506,0.079-0.863,0.349-1.058,0.806C60.187,139.368,60.139,140.017,60.249,140.855z"/>
		<path fill="#FFFFFF" d="M77.021,142.033c0.024,0.226,0.05,0.452,0.074,0.678c-1.434,0.147-2.871,0.305-4.307,0.475
			c-0.028-0.226-0.057-0.451-0.085-0.677c0.147-0.017,0.301-0.035,0.452-0.053c0.241-0.028,0.411-0.107,0.516-0.237
			c0.104-0.13,0.136-0.305,0.115-0.528c-0.119-0.985-0.239-1.971-0.356-2.955c-0.059-0.503-0.229-0.877-0.507-1.118
			c-0.276-0.24-0.621-0.337-1.02-0.289c-0.546,0.064-0.966,0.309-1.257,0.731c-0.296,0.422-0.393,1-0.293,1.731
			c0.101,0.759,0.198,1.517,0.301,2.275c0.029,0.222,0.113,0.383,0.247,0.484c0.137,0.101,0.304,0.14,0.489,0.117
			c0.183-0.023,0.365-0.045,0.545-0.066c0.029,0.225,0.057,0.45,0.088,0.676c-1.492,0.181-2.984,0.375-4.477,0.581
			c-0.033-0.225-0.065-0.45-0.1-0.675c0.196-0.027,0.388-0.054,0.584-0.081c0.226-0.03,0.386-0.111,0.484-0.242
			c0.101-0.132,0.133-0.308,0.102-0.53c-0.193-1.347-0.379-2.696-0.569-4.043c-0.033-0.232-0.143-0.406-0.333-0.521
			c-0.186-0.114-0.422-0.154-0.698-0.116c-0.104,0.014-0.209,0.028-0.313,0.043c-0.032-0.211-0.062-0.421-0.09-0.631
			c1.014-0.192,2.03-0.378,3.052-0.559c0.165,0.404,0.314,0.889,0.445,1.458c0.358-0.591,0.759-1.05,1.214-1.375
			c0.449-0.325,0.948-0.519,1.486-0.581c0.729-0.084,1.334,0.079,1.81,0.484c0.469,0.406,0.746,1.013,0.833,1.818
			c0.117,1.053,0.234,2.107,0.354,3.161c0.028,0.242,0.106,0.411,0.236,0.505c0.132,0.094,0.324,0.127,0.577,0.101
			C76.755,142.06,76.888,142.047,77.021,142.033z"/>
		<path fill="#FFFFFF" d="M81.714,131.376c1.23-0.146,2.463-0.282,3.695-0.411c0.203,2.982,0.413,5.963,0.631,8.944
			c0.036,0.458,0.085,0.764,0.164,0.917c0.073,0.155,0.183,0.262,0.318,0.324c0.138,0.061,0.396,0.079,0.775,0.055
			c0.014,0.217,0.028,0.434,0.043,0.651c-0.979,0.093-1.957,0.19-2.937,0.293c-0.106-0.438-0.214-0.875-0.321-1.313
			c-0.402,0.594-0.781,1-1.129,1.212c-0.349,0.214-0.799,0.345-1.34,0.392c-0.981,0.084-1.807-0.157-2.488-0.725
			c-0.68-0.568-1.083-1.388-1.192-2.462c-0.12-1.185,0.119-2.158,0.715-2.917c0.602-0.757,1.401-1.182,2.4-1.267
			c0.532-0.045,1.022,0.024,1.454,0.208c0.429,0.183,0.843,0.505,1.216,0.967c-0.082-1.038-0.162-2.075-0.241-3.113
			c-0.029-0.369-0.087-0.632-0.174-0.786c-0.083-0.156-0.196-0.259-0.323-0.31c-0.13-0.051-0.388-0.062-0.774-0.031
			c-0.144,0.012-0.294,0.023-0.438,0.035C81.751,131.819,81.73,131.598,81.714,131.376z M81.843,135.952
			c-0.606,0.05-1.036,0.336-1.287,0.858c-0.21,0.426-0.271,1.08-0.188,1.958c0.065,0.735,0.188,1.277,0.354,1.628
			c0.167,0.35,0.384,0.604,0.646,0.759c0.267,0.157,0.559,0.221,0.872,0.195c0.522-0.043,0.922-0.289,1.207-0.736
			c0.378-0.588,0.538-1.314,0.469-2.181c-0.063-0.805-0.301-1.429-0.714-1.875C82.791,136.113,82.332,135.911,81.843,135.952z"/>
		<path fill="#FFFFFF" d="M96.942,140.56c0.111,0.173,0.229,0.346,0.337,0.519c-0.306,0.213-0.58,0.363-0.823,0.449
			c-0.248,0.085-0.516,0.133-0.812,0.144c-0.435,0.015-0.796-0.062-1.073-0.23c-0.275-0.167-0.539-0.493-0.782-0.977
			c-0.503,0.514-0.952,0.87-1.357,1.066c-0.403,0.198-0.866,0.309-1.385,0.334c-0.721,0.037-1.284-0.091-1.71-0.384
			c-0.422-0.294-0.646-0.685-0.679-1.172c-0.047-0.736,0.29-1.349,1.02-1.833c0.583-0.384,1.888-0.809,3.928-1.243
			c-0.016-0.33-0.026-0.659-0.041-0.989c-0.017-0.389-0.17-0.703-0.456-0.937c-0.29-0.235-0.663-0.342-1.128-0.321
			c-0.358,0.017-0.664,0.103-0.929,0.256c-0.18,0.103-0.27,0.2-0.262,0.293c0,0.048,0.041,0.12,0.112,0.213
			c0.157,0.213,0.238,0.426,0.253,0.641c0.013,0.274-0.07,0.499-0.255,0.676c-0.185,0.178-0.435,0.276-0.757,0.293
			c-0.342,0.018-0.623-0.058-0.84-0.23c-0.216-0.17-0.333-0.4-0.353-0.688c-0.021-0.472,0.221-0.905,0.75-1.295
			c0.664-0.486,1.501-0.754,2.524-0.8c0.772-0.035,1.459,0.05,2.064,0.252c0.388,0.126,0.703,0.364,0.955,0.709
			c0.254,0.346,0.383,0.777,0.402,1.295c0.04,1.16,0.079,2.318,0.119,3.477c0.006,0.264,0.066,0.451,0.172,0.566
			c0.107,0.114,0.247,0.168,0.428,0.162C96.514,140.799,96.705,140.719,96.942,140.56z M93.633,137.868
			c-1.101,0.187-1.837,0.44-2.211,0.755c-0.373,0.313-0.551,0.712-0.523,1.195c0.019,0.341,0.122,0.599,0.315,0.772
			c0.189,0.175,0.45,0.253,0.777,0.237c0.506-0.023,0.918-0.214,1.238-0.575c0.319-0.361,0.469-0.84,0.443-1.44
			C93.659,138.497,93.646,138.183,93.633,137.868z"/>
		<path fill="#FFFFFF" d="M109.976,131.35c0.252-0.317,0.504-0.634,0.757-0.952c0.188,0.004,0.38,0.008,0.567,0.013
			c-0.01,1.248-0.012,2.496-0.02,3.744c-0.236-0.006-0.473-0.011-0.707-0.016c-0.345-1.082-0.852-1.897-1.524-2.441
			c-0.677-0.546-1.426-0.823-2.254-0.829c-0.707-0.005-1.281,0.171-1.722,0.524c-0.441,0.353-0.66,0.776-0.66,1.269
			c0,0.292,0.085,0.562,0.26,0.805c0.173,0.244,0.453,0.452,0.836,0.627c0.384,0.174,1.055,0.355,2.015,0.55
			c1.12,0.23,1.892,0.441,2.316,0.625c0.678,0.296,1.172,0.683,1.5,1.156c0.327,0.475,0.481,1.046,0.464,1.715
			c-0.024,1-0.417,1.788-1.146,2.368c-0.887,0.698-1.963,1.037-3.243,1.024c-1.177-0.012-2.247-0.408-3.224-1.192
			c-0.299,0.357-0.594,0.714-0.893,1.072c-0.188,0-0.378,0.002-0.565,0.003c-0.012-1.338-0.021-2.676-0.03-4.014
			c0.229-0.001,0.453-0.003,0.684-0.004c0.688,2.289,2.047,3.427,4.086,3.446c0.839,0.009,1.49-0.166,1.96-0.525
			c0.474-0.36,0.716-0.815,0.728-1.365c0.007-0.386-0.087-0.711-0.29-0.977c-0.201-0.265-0.518-0.481-0.948-0.65
			c-0.237-0.091-0.822-0.239-1.762-0.438c-1.269-0.275-2.172-0.547-2.717-0.828c-0.547-0.28-0.947-0.622-1.203-1.028
			c-0.258-0.407-0.389-0.902-0.394-1.488c-0.006-0.985,0.347-1.792,1.062-2.416c0.71-0.625,1.682-0.937,2.893-0.928
			C107.962,130.211,109.025,130.596,109.976,131.35z"/>
		<path fill="#FFFFFF" d="M121.524,140.972c0.095,0.181,0.193,0.364,0.287,0.545c-0.324,0.185-0.615,0.31-0.866,0.373
			c-0.25,0.063-0.525,0.086-0.819,0.07c-0.438-0.025-0.788-0.133-1.047-0.326c-0.263-0.192-0.486-0.541-0.688-1.043
			c-0.548,0.465-1.032,0.78-1.453,0.938c-0.42,0.16-0.89,0.228-1.409,0.208c-0.72-0.029-1.275-0.208-1.665-0.538
			c-0.394-0.331-0.581-0.74-0.562-1.228c0.022-0.737,0.417-1.316,1.187-1.734c0.616-0.328,1.959-0.633,4.027-0.882
			c0.018-0.329,0.035-0.66,0.052-0.988c0.021-0.389-0.101-0.715-0.366-0.975c-0.263-0.26-0.629-0.401-1.094-0.421
			c-0.357-0.016-0.674,0.042-0.95,0.171c-0.187,0.086-0.282,0.175-0.286,0.268c-0.001,0.049,0.03,0.123,0.092,0.223
			c0.137,0.226,0.2,0.446,0.191,0.66c-0.012,0.273-0.119,0.489-0.316,0.65c-0.197,0.161-0.458,0.235-0.78,0.223
			c-0.341-0.013-0.615-0.113-0.812-0.305c-0.203-0.189-0.296-0.427-0.288-0.716c0.016-0.473,0.306-0.882,0.866-1.223
			c0.704-0.424,1.562-0.614,2.587-0.567c0.769,0.035,1.447,0.182,2.035,0.438c0.372,0.161,0.671,0.427,0.885,0.793
			c0.218,0.367,0.311,0.809,0.278,1.326c-0.067,1.158-0.138,2.315-0.208,3.474c-0.016,0.263,0.023,0.455,0.119,0.578
			c0.094,0.123,0.229,0.189,0.41,0.2C121.075,141.17,121.276,141.107,121.524,140.972z M118.481,137.991
			c-1.113,0.086-1.871,0.271-2.273,0.551c-0.404,0.278-0.614,0.66-0.633,1.144c-0.014,0.341,0.062,0.607,0.239,0.797
			c0.176,0.191,0.427,0.292,0.751,0.307c0.506,0.022,0.932-0.13,1.289-0.46c0.352-0.33,0.549-0.795,0.577-1.395
			C118.448,138.619,118.465,138.305,118.481,137.991z"/>
		<path fill="#FFFFFF" d="M132.409,142.035c-0.021,0.227-0.052,0.453-0.072,0.678c-1.435-0.147-2.873-0.283-4.308-0.407
			c0.025-0.226,0.04-0.452,0.063-0.679c0.153,0.014,0.298,0.026,0.453,0.04c0.238,0.021,0.424-0.021,0.552-0.127
			c0.132-0.106,0.205-0.27,0.226-0.494c0.095-0.987,0.186-1.975,0.283-2.962c0.045-0.505-0.037-0.904-0.26-1.197
			c-0.22-0.291-0.532-0.455-0.932-0.489c-0.545-0.046-1.007,0.107-1.379,0.462c-0.377,0.354-0.59,0.899-0.651,1.634
			c-0.063,0.762-0.126,1.524-0.19,2.286c-0.019,0.224,0.027,0.398,0.138,0.524c0.112,0.126,0.258,0.198,0.449,0.213
			c0.183,0.015,0.364,0.03,0.544,0.045c-0.02,0.226-0.039,0.452-0.059,0.679c-1.494-0.125-2.984-0.237-4.475-0.337
			c0.018-0.226,0.032-0.453,0.049-0.679c0.192,0.013,0.39,0.026,0.582,0.04c0.225,0.016,0.399-0.031,0.523-0.14
			c0.125-0.109,0.193-0.274,0.211-0.498c0.102-1.356,0.203-2.713,0.305-4.069c0.018-0.234-0.056-0.426-0.213-0.577
			c-0.159-0.15-0.379-0.236-0.653-0.255c-0.105-0.007-0.208-0.015-0.313-0.021c0.014-0.211,0.029-0.424,0.045-0.636
			c1.023,0.018,2.051,0.041,3.08,0.07c0.076,0.428,0.12,0.933,0.129,1.517c0.471-0.507,0.963-0.873,1.469-1.101
			c0.508-0.227,1.032-0.316,1.57-0.268c0.729,0.065,1.289,0.346,1.664,0.839c0.374,0.492,0.517,1.143,0.434,1.948
			c-0.104,1.055-0.22,2.109-0.326,3.165c-0.027,0.243,0.016,0.423,0.121,0.542c0.106,0.118,0.293,0.189,0.544,0.215
			C132.144,142.008,132.278,142.022,132.409,142.035z"/>
		<path fill="#FFFFFF" d="M134.411,136.035c1.096,0.07,2.189,0.148,3.284,0.232c-0.237,1.927-0.479,3.853-0.723,5.78
			c-0.019,0.155,0.019,0.281,0.112,0.378c0.094,0.098,0.252,0.159,0.464,0.185c0.161,0.02,0.321,0.04,0.482,0.06
			c-0.028,0.225-0.057,0.45-0.09,0.676c-1.437-0.177-2.864-0.342-4.298-0.496c0.025-0.226,0.051-0.452,0.078-0.678
			c0.158,0.017,0.314,0.035,0.474,0.052c0.256,0.028,0.445-0.008,0.562-0.107c0.117-0.1,0.194-0.288,0.227-0.564
			c0.154-1.315,0.309-2.63,0.462-3.944c0.03-0.248-0.024-0.448-0.164-0.602c-0.139-0.152-0.342-0.244-0.614-0.273
			c-0.111-0.012-0.222-0.024-0.33-0.036C134.362,136.477,134.386,136.256,134.411,136.035z M136.89,132.33
			c0.359,0.041,0.649,0.192,0.877,0.453c0.229,0.26,0.32,0.555,0.281,0.884c-0.041,0.331-0.206,0.595-0.484,0.795
			c-0.281,0.2-0.595,0.28-0.949,0.24c-0.358-0.041-0.652-0.192-0.878-0.453c-0.227-0.261-0.323-0.553-0.285-0.879
			c0.04-0.33,0.194-0.596,0.476-0.798C136.208,132.37,136.53,132.288,136.89,132.33z"/>
		<path fill="#FFFFFF" d="M142.911,134.229c0.239,0.033,0.474,0.065,0.709,0.098c-0.133,0.93-0.27,1.861-0.4,2.792
			c0.807,0.113,1.619,0.229,2.427,0.349c-0.041,0.261-0.079,0.521-0.122,0.783c-0.808-0.12-1.612-0.235-2.42-0.348
			c-0.208,1.438-0.423,2.876-0.635,4.314c-0.041,0.286,0.002,0.518,0.132,0.697c0.134,0.178,0.323,0.284,0.575,0.32
			c0.717,0.103,1.197-0.47,1.435-1.725c0.229,0.033,0.46,0.067,0.688,0.102c-0.12,0.668-0.32,1.191-0.595,1.568
			c-0.272,0.377-0.625,0.648-1.049,0.813c-0.429,0.166-0.878,0.214-1.371,0.146c-0.427-0.06-0.789-0.192-1.077-0.399
			c-0.289-0.207-0.503-0.486-0.645-0.837c-0.141-0.352-0.186-0.718-0.131-1.101c0.195-1.394,0.389-2.788,0.58-4.181
			c-0.433-0.057-0.867-0.113-1.3-0.168c0.029-0.223,0.058-0.445,0.087-0.668c0.809,0.004,1.474-0.197,1.985-0.606
			C142.296,135.769,142.679,135.12,142.911,134.229z"/>
		<path fill="#FFFFFF" d="M154.407,145.019c0.074,0.192,0.148,0.385,0.22,0.578c-0.354,0.144-0.659,0.232-0.923,0.263
			s-0.541,0.021-0.838-0.032c-0.435-0.079-0.778-0.229-1.012-0.452c-0.238-0.223-0.424-0.596-0.557-1.121
			c-0.614,0.396-1.141,0.647-1.588,0.753c-0.442,0.108-0.927,0.118-1.447,0.033c-0.72-0.116-1.252-0.361-1.602-0.737
			c-0.352-0.375-0.487-0.805-0.407-1.288c0.118-0.728,0.588-1.255,1.416-1.575c0.662-0.251,2.049-0.39,4.169-0.383
			c0.06-0.324,0.115-0.649,0.176-0.974c0.072-0.384-0.01-0.723-0.244-1.013c-0.231-0.291-0.585-0.475-1.049-0.552
			c-0.355-0.06-0.686-0.042-0.979,0.053c-0.199,0.062-0.31,0.139-0.321,0.231c-0.008,0.048,0.012,0.125,0.063,0.232
			c0.109,0.242,0.146,0.467,0.109,0.679c-0.047,0.27-0.184,0.472-0.4,0.607c-0.225,0.135-0.493,0.177-0.815,0.126
			c-0.343-0.055-0.601-0.189-0.779-0.403c-0.183-0.212-0.244-0.461-0.197-0.746c0.077-0.467,0.417-0.838,1.026-1.108
			c0.76-0.335,1.652-0.418,2.676-0.247c0.773,0.129,1.44,0.358,1.995,0.684c0.357,0.206,0.621,0.506,0.794,0.896
			c0.173,0.391,0.208,0.841,0.113,1.35c-0.219,1.141-0.439,2.282-0.658,3.422c-0.048,0.259-0.041,0.455,0.043,0.589
			c0.08,0.133,0.207,0.217,0.389,0.249C153.927,145.162,154.137,145.124,154.407,145.019z M151.724,141.686
			c-1.138-0.051-1.922,0.041-2.361,0.268c-0.439,0.228-0.704,0.581-0.785,1.057c-0.058,0.338-0.014,0.612,0.139,0.821
			c0.149,0.211,0.388,0.342,0.718,0.396c0.507,0.084,0.956-0.015,1.355-0.299c0.399-0.285,0.654-0.721,0.763-1.313
			C151.61,142.307,151.665,141.997,151.724,141.686z"/>
		<path fill="#FFFFFF" d="M160.642,146.414c-0.05,0.222-0.101,0.445-0.152,0.666c-1.668-0.347-3.338-0.679-5.009-0.995
			c0.048-0.223,0.094-0.446,0.139-0.668c0.208,0.039,0.417,0.078,0.622,0.118c0.254,0.049,0.449,0.04,0.59-0.031
			c0.137-0.07,0.224-0.184,0.256-0.343c0.277-1.326,0.556-2.653,0.83-3.979c0.064-0.321,0.031-0.571-0.095-0.751
			c-0.13-0.178-0.338-0.297-0.626-0.351c-0.141-0.026-0.277-0.053-0.416-0.079c0.043-0.212,0.082-0.422,0.127-0.634
			c1.058,0.148,2.121,0.302,3.18,0.462c-0.158,0.73-0.311,1.459-0.468,2.189c0.339-0.695,0.779-1.192,1.321-1.491
			c0.541-0.299,1.096-0.39,1.672-0.27c0.488,0.103,0.846,0.304,1.075,0.601c0.231,0.296,0.303,0.631,0.215,1.003
			c-0.069,0.32-0.23,0.556-0.472,0.713c-0.24,0.156-0.501,0.204-0.78,0.145c-0.251-0.053-0.443-0.184-0.587-0.394
			c-0.145-0.21-0.184-0.448-0.123-0.715c0.031-0.148,0.109-0.294,0.231-0.438c0.064-0.081,0.102-0.142,0.111-0.18
			c0.014-0.066,0.008-0.119-0.02-0.157c-0.025-0.038-0.075-0.066-0.147-0.081c-0.191-0.039-0.419,0.02-0.686,0.174
			c-0.412,0.24-0.811,0.665-1.185,1.273c-0.376,0.611-0.633,1.251-0.78,1.921c-0.106,0.482-0.214,0.965-0.316,1.447
			c-0.034,0.168-0.019,0.306,0.062,0.414c0.076,0.108,0.202,0.18,0.377,0.215C159.94,146.268,160.29,146.341,160.642,146.414z"/>
		<path fill="#FFFFFF" d="M165.425,141.108c1.104,0.196,2.203,0.397,3.309,0.606c-0.469,1.888-0.944,3.776-1.427,5.664
			c-0.04,0.152-0.019,0.282,0.066,0.39c0.087,0.107,0.231,0.187,0.447,0.237c0.16,0.038,0.322,0.076,0.484,0.114
			c-0.056,0.221-0.118,0.441-0.173,0.662c-1.436-0.34-2.874-0.668-4.306-0.986c0.052-0.221,0.108-0.443,0.162-0.664
			c0.159,0.035,0.316,0.07,0.476,0.105c0.258,0.057,0.45,0.043,0.583-0.042c0.129-0.085,0.228-0.264,0.296-0.536
			c0.317-1.289,0.633-2.579,0.944-3.868c0.059-0.243,0.026-0.448-0.096-0.616c-0.125-0.167-0.321-0.282-0.591-0.343
			c-0.111-0.024-0.221-0.048-0.33-0.072C165.324,141.542,165.375,141.325,165.425,141.108z M168.377,137.708
			c0.358,0.081,0.638,0.265,0.839,0.55c0.199,0.284,0.263,0.589,0.181,0.911c-0.081,0.325-0.276,0.568-0.583,0.736
			c-0.312,0.167-0.644,0.21-0.996,0.128c-0.361-0.082-0.635-0.265-0.837-0.55c-0.2-0.285-0.264-0.587-0.188-0.907
			c0.076-0.322,0.267-0.569,0.577-0.739C167.68,137.669,168.017,137.626,168.377,137.708z"/>
		<path fill="#FFFFFF" d="M178.019,150.428c0.058,0.198,0.111,0.397,0.169,0.596c-0.372,0.111-0.692,0.17-0.964,0.179
			c-0.273,0.008-0.557-0.028-0.852-0.108c-0.438-0.118-0.767-0.298-0.988-0.542c-0.221-0.243-0.372-0.633-0.459-1.167
			c-0.664,0.339-1.225,0.542-1.687,0.608c-0.46,0.067-0.951,0.034-1.474-0.097c-0.718-0.181-1.235-0.473-1.559-0.879
			c-0.32-0.406-0.414-0.847-0.292-1.32c0.193-0.715,0.72-1.199,1.589-1.443c0.694-0.19,2.122-0.205,4.277-0.006
			c0.089-0.318,0.182-0.637,0.271-0.956c0.108-0.376,0.054-0.721-0.154-1.031c-0.209-0.311-0.549-0.526-1.016-0.645
			c-0.357-0.092-0.691-0.103-1.002-0.035c-0.209,0.044-0.321,0.111-0.349,0.201c-0.01,0.047,0.001,0.126,0.045,0.237
			c0.085,0.251,0.106,0.479,0.047,0.687c-0.07,0.264-0.227,0.454-0.465,0.569c-0.241,0.115-0.52,0.133-0.841,0.052
			c-0.34-0.085-0.595-0.242-0.753-0.471c-0.162-0.229-0.206-0.482-0.132-0.762c0.124-0.459,0.5-0.797,1.146-1.013
			c0.803-0.265,1.721-0.268,2.746-0.006c0.776,0.199,1.429,0.486,1.969,0.862c0.342,0.238,0.589,0.56,0.725,0.965
			c0.139,0.406,0.135,0.858-0.012,1.356c-0.332,1.119-0.663,2.236-0.998,3.353c-0.075,0.254-0.079,0.45-0.011,0.592
			c0.064,0.14,0.189,0.234,0.372,0.283C177.52,150.526,177.735,150.507,178.019,150.428z M175.604,146.862
			c-1.146-0.153-1.959-0.133-2.428,0.055c-0.471,0.186-0.771,0.515-0.897,0.983c-0.09,0.331-0.072,0.608,0.062,0.831
			c0.132,0.225,0.362,0.376,0.69,0.46c0.506,0.129,0.979,0.071,1.408-0.176c0.432-0.248,0.733-0.661,0.903-1.24
			C175.428,147.47,175.518,147.166,175.604,146.862z"/>
	</g>
</g>
</svg>
