<?xml version="1.0" encoding="utf-8"?>
<!-- Generator: Adobe Illustrator 16.0.4, SVG Export Plug-In . SVG Version: 6.00 Build 0)  -->
<!DOCTYPE svg PUBLIC "-//W3C//DTD SVG 1.1//EN" "http://www.w3.org/Graphics/SVG/1.1/DTD/svg11.dtd">
<svg version="1.1" id="Livello_1" xmlns="http://www.w3.org/2000/svg" xmlns:xlink="http://www.w3.org/1999/xlink" x="0px" y="0px"
	 width="210px" height="200px" viewBox="0 0 210 200" enable-background="new 0 0 210 200" xml:space="preserve">
<g>
	<circle fill="#FBC02E" cx="105" cy="100" r="84"/>
	<circle fill="#FABF2D" cx="105" cy="100" r="75.216"/>
	<path fill="#FFFFFF" d="M104.999,177.717c-42.853,0-77.715-34.864-77.715-77.717s34.862-77.717,77.715-77.717
		S182.716,57.147,182.716,100S147.852,177.717,104.999,177.717z M104.999,27.283c-40.095,0-72.715,32.621-72.715,72.717
		s32.62,72.717,72.715,72.717c40.097,0,72.717-32.621,72.717-72.717S145.096,27.283,104.999,27.283z"/>
	<path fill="#FFFFFF" d="M100.554,115.299H83.5l0.474-43.506c-0.551-4.04-3.011-6.182-6.093-6.182c-2.601,0-4.729,1.54-5.668,4.439
		L71.5,115.299H51.906h-0.035c-3.244,0-6.13,2.607-6.13,6.072c0,3.465,2.431,6.689,5.675,6.689c0.036,0,0.055,0.002,0.084,0.003
		v0.236h19.483H83.53h17.023c3.381,0,5.62-3.534,5.62-6.908C106.174,118.019,103.935,116.299,100.554,115.299z M51.516,128.064
		C52.047,128.082,51.592,128.215,51.516,128.064L51.516,128.064z"/>
	<g>
		<path fill="#FFFFFF" d="M142.847,86.046c-4.127-0.584-8.157-0.06-11.806,1.339l-5.002-10.106l5.697-14.445l-13.121-1.856
			c0,0-4.514,2.895-0.646,4.569c2.888,0.409,7.321,1.035,7.321,1.035l-2.617,6.618l-31.19-4.41l3.894-9.546
			c0,0,4.04,0.353,8.083,1.144c3.158-2.052,0.647-4.572,0.647-4.572l-21.339-3.017c0,0-3.323,1.685-0.646,4.572
			c4.673,0.662,8.547,1.209,8.547,1.209l-6.043,14.824L84.49,85.956c0.516-1.266,0.844-2.071,0.844-2.071
			c6.745,3.762,10.848,11.399,9.703,19.49c-0.633,4.477-2.778,8.369-5.834,11.256l6.121,0.01c2.209-3.044,3.73-6.652,4.293-10.629
			c1.447-10.223-3.878-19.858-12.533-24.421l2.891-7.094l19.763,33.538c0,0,0.828,1.862,2.876,2.151
			c2.043,0.289,3.078,0.435,3.078,0.435c-0.535,12.113,8.229,22.908,20.479,24.642c13.02,1.841,25.108-7.251,26.951-20.272
			C164.961,99.977,155.867,87.888,142.847,86.046z M135.506,106.751l-14.559-2.057c1.242-4.677,4.18-8.56,8.029-11.092
			L135.506,106.751z M111.874,100.563L96.301,74.126l24.637,3.484L111.874,100.563z M115.501,103.931l8.251-20.877l3.156,6.38
			c-5.156,3.221-9.066,8.376-10.571,14.616L115.501,103.931z M158.555,112.346c-1.483,10.493-11.229,17.833-21.731,16.349
			c-9.735-1.377-16.72-9.842-16.523-19.421c0,0,15.173,2.146,19.175,2.711c4,0.566,3.089-1.368,3.089-1.368l-9.456-19.076
			c2.828-1.008,5.932-1.375,9.1-0.928C152.711,92.099,160.039,101.853,158.555,112.346z"/>
		<path fill="#FFFFFF" d="M62.801,114.623c-4.361-4.142-6.744-10.248-5.84-16.643c1.127-7.966,7.023-14.097,14.387-15.944
			l0.074-4.758c-9.682,1.903-17.57,9.747-19.028,20.055c-0.897,6.346,0.81,12.466,4.296,17.29H62.801z"/>
	</g>
</g>
<path fill="#FDD835" d="M195.043,168.142c-2.57-5.81-5.418-11.587-8.545-17.312c5.996-2.563,12.201-4.905,18.602-7.004
	C140.988,117.308,68.912,117.476,4.9,144.329c0.041,0.095,0.08,0.188,0.119,0.283c6.605,2.131,13.004,4.522,19.182,7.149
	c-2.928,5.42-5.605,10.887-8.037,16.382C73.436,144.454,137.773,144.453,195.043,168.142L195.043,168.142L195.043,168.142z"/>
<path fill="#FFFFFF" d="M12.102,170.961l1.514-3.425c2.23-5.043,4.686-10.092,7.309-15.03c-5.701-2.375-11.594-4.547-17.543-6.466
	l-0.654-0.212l-0.967-2.302l1.383-0.58c32.242-13.525,66.318-20.384,101.283-20.384c34.514,0,68.182,6.688,100.07,19.878
	l3.744,1.549l-3.85,1.263c-5.744,1.883-11.443,4.005-16.965,6.316c2.814,5.241,5.439,10.604,7.812,15.966l1.516,3.425l-3.461-1.432
	c-28.318-11.713-58.217-17.651-88.863-17.651c-30.65,0-60.549,5.939-88.869,17.653L12.102,170.961z M7.707,144.312
	c5.4,1.835,10.736,3.871,15.904,6.069l1.516,0.645l-0.783,1.448c-2.283,4.226-4.443,8.542-6.445,12.873
	c27.648-10.932,56.74-16.472,86.531-16.472c29.789,0,58.877,5.539,86.525,16.47c-2.148-4.645-4.48-9.271-6.951-13.796l-0.791-1.45
	l1.518-0.648c4.844-2.071,9.834-3.999,14.879-5.752c-30.412-12.038-62.41-18.137-95.184-18.137
	C71.09,125.562,38.57,131.868,7.707,144.312z"/>
<g>
	<path fill="#FFFFFF" d="M78.973,131.045c0.311-0.541,0.625-1.082,0.945-1.621c0.312-0.058,0.623-0.113,0.936-0.168
		c0.359,1.795,0.723,3.589,1.096,5.384c-0.379,0.067-0.758,0.135-1.133,0.205c-0.889-1.439-1.971-2.438-3.244-2.979
		c-1.275-0.543-2.605-0.66-3.967-0.348c-1.158,0.266-2.041,0.75-2.635,1.433c-0.594,0.684-0.787,1.378-0.596,2.077
		c0.113,0.415,0.361,0.758,0.732,1.033c0.373,0.274,0.904,0.458,1.588,0.551c0.684,0.097,1.828,0.089,3.424,0.013
		c1.871-0.082,3.162-0.038,3.895,0.082c1.166,0.199,2.074,0.596,2.736,1.175s1.072,1.356,1.254,2.322
		c0.268,1.447-0.07,2.691-0.984,3.748c-1.109,1.276-2.588,2.104-4.508,2.533c-1.766,0.395-3.523,0.232-5.35-0.489
		c-0.301,0.624-0.592,1.248-0.875,1.873c-0.283,0.078-0.566,0.157-0.85,0.237c-0.627-1.88-1.24-3.762-1.838-5.646
		c0.357-0.1,0.709-0.198,1.064-0.295c2.059,2.945,4.592,4.009,7.666,3.321c1.264-0.281,2.186-0.745,2.771-1.414
		c0.588-0.668,0.805-1.397,0.637-2.19c-0.117-0.555-0.375-0.99-0.773-1.304c-0.4-0.313-0.965-0.519-1.697-0.612
		c-0.4-0.05-1.363-0.063-2.908-0.002c-2.086,0.074-3.617,0.052-4.588-0.125c-0.971-0.176-1.75-0.49-2.33-0.954s-1-1.107-1.248-1.933
		c-0.418-1.39-0.174-2.688,0.762-3.881c0.938-1.192,2.426-2.043,4.428-2.502C75.307,130.124,77.186,130.287,78.973,131.045z"/>
	<path fill="#FFFFFF" d="M99.535,142.022c0.178,0.249,0.355,0.498,0.531,0.748c-0.453,0.323-0.865,0.554-1.227,0.689
		c-0.365,0.136-0.77,0.219-1.215,0.25c-0.658,0.045-1.201-0.044-1.633-0.272c-0.432-0.227-0.852-0.685-1.268-1.375
		c-0.727,0.792-1.369,1.352-1.963,1.677c-0.59,0.327-1.273,0.537-2.055,0.632c-1.082,0.134-1.959,0.021-2.643-0.353
		c-0.684-0.372-1.09-0.908-1.213-1.616c-0.18-1.067,0.25-2.014,1.324-2.821c0.863-0.636,2.85-1.435,6.012-2.242
		c-0.047-0.481-0.094-0.962-0.139-1.444c-0.055-0.57-0.316-1.016-0.791-1.334c-0.477-0.319-1.086-0.44-1.828-0.361
		c-0.568,0.062-1.055,0.223-1.461,0.48c-0.275,0.169-0.402,0.323-0.385,0.458c0.008,0.071,0.078,0.171,0.203,0.3
		c0.27,0.292,0.428,0.594,0.467,0.908c0.051,0.398-0.064,0.736-0.332,1.02c-0.268,0.281-0.652,0.454-1.154,0.52
		c-0.537,0.069-0.986-0.003-1.352-0.224c-0.367-0.219-0.582-0.537-0.648-0.956c-0.105-0.686,0.232-1.356,1.033-2
		c0.998-0.8,2.33-1.299,3.965-1.47c1.232-0.129,2.35-0.063,3.326,0.188c0.627,0.159,1.15,0.484,1.562,0.976
		c0.416,0.492,0.648,1.118,0.701,1.875c0.115,1.697,0.242,3.394,0.363,5.091c0.027,0.386,0.125,0.66,0.293,0.82
		c0.168,0.162,0.387,0.234,0.658,0.218C98.896,142.391,99.184,142.263,99.535,142.022z M94.277,138.272
		c-1.699,0.363-2.826,0.816-3.373,1.316c-0.547,0.5-0.768,1.104-0.672,1.808c0.07,0.497,0.26,0.862,0.572,1.094
		c0.314,0.234,0.717,0.321,1.213,0.266c0.77-0.085,1.377-0.402,1.834-0.958c0.459-0.555,0.646-1.269,0.562-2.146
		C94.367,139.191,94.322,138.731,94.277,138.272z"/>
	<path fill="#FFFFFF" d="M112.303,139.607c0.301,0.147,0.604,0.295,0.902,0.443c-0.547,1.104-1.328,1.94-2.338,2.523
		c-1.006,0.584-2.17,0.861-3.512,0.849c-1.816-0.016-3.234-0.456-4.295-1.357c-1.053-0.901-1.635-2.126-1.697-3.694
		c-0.066-1.688,0.516-3.104,1.795-4.223c1.281-1.117,3.033-1.684,5.215-1.649c1.568,0.025,2.76,0.339,3.562,0.913
		c0.803,0.576,1.176,1.251,1.133,2.016c-0.029,0.558-0.23,0.99-0.6,1.298c-0.369,0.309-0.842,0.451-1.414,0.43
		c-0.506-0.018-0.898-0.157-1.188-0.419c-0.291-0.263-0.43-0.597-0.42-1.004c0.01-0.351,0.186-0.755,0.527-1.211
		c0.146-0.19,0.223-0.323,0.225-0.402c0.008-0.143-0.119-0.276-0.375-0.398c-0.363-0.188-0.84-0.289-1.434-0.298
		c-1.104-0.018-1.904,0.282-2.391,0.884c-0.654,0.796-0.967,2.003-0.951,3.614c0.016,1.612,0.338,2.741,0.953,3.396
		c0.615,0.653,1.395,0.985,2.357,1.001c0.762,0.013,1.482-0.202,2.176-0.648C111.227,141.225,111.816,140.538,112.303,139.607z"/>
	<path fill="#FFFFFF" d="M125.865,140.953c0.289,0.178,0.574,0.356,0.859,0.536c-0.684,1.041-1.566,1.79-2.646,2.263
		c-1.08,0.474-2.281,0.629-3.621,0.476c-1.816-0.206-3.18-0.791-4.129-1.797c-0.951-1.006-1.387-2.284-1.273-3.849
		c0.123-1.686,0.859-3.033,2.258-4.013c1.398-0.978,3.213-1.359,5.398-1.097c1.566,0.189,2.736,0.626,3.48,1.281
		c0.744,0.657,1.045,1.367,0.918,2.124c-0.092,0.552-0.346,0.96-0.752,1.229c-0.404,0.268-0.896,0.361-1.471,0.279
		c-0.502-0.07-0.883-0.25-1.143-0.542c-0.26-0.291-0.363-0.638-0.307-1.042c0.049-0.347,0.264-0.731,0.662-1.15
		c0.168-0.172,0.256-0.297,0.268-0.376c0.021-0.143-0.092-0.288-0.336-0.435c-0.338-0.225-0.811-0.375-1.404-0.447
		c-1.102-0.133-1.938,0.083-2.492,0.63c-0.738,0.724-1.182,1.891-1.35,3.495c-0.166,1.604,0.027,2.76,0.564,3.475
		c0.539,0.715,1.281,1.125,2.244,1.241c0.762,0.093,1.504-0.046,2.256-0.417C124.596,142.448,125.268,141.827,125.865,140.953z"/>
	<path fill="#FFFFFF" d="M136.42,135.804c1.322,0.291,2.48,0.816,3.453,1.561c0.973,0.746,1.613,1.575,1.916,2.469
		c0.303,0.899,0.283,1.877-0.047,2.938c-0.529,1.695-1.613,2.807-3.184,3.379c-1.574,0.573-3.146,0.676-4.77,0.315
		c-1.148-0.255-2.139-0.708-2.992-1.37c-0.852-0.663-1.461-1.438-1.824-2.336c-0.363-0.901-0.457-1.857-0.266-2.873
		c0.287-1.529,1.141-2.71,2.605-3.509C132.773,135.579,134.49,135.379,136.42,135.804z M136.258,136.816
		c-0.869-0.192-1.631-0.017-2.285,0.52c-0.652,0.536-1.148,1.614-1.508,3.228c-0.371,1.676-0.396,2.879-0.072,3.61
		c0.324,0.732,0.883,1.182,1.686,1.361c0.818,0.182,1.564,0.013,2.25-0.512c0.688-0.525,1.258-1.574,1.695-3.157
		c0.449-1.624,0.488-2.823,0.129-3.593C137.789,137.503,137.154,137.014,136.258,136.816z"/>
</g>
</svg>
