<?xml version="1.0" encoding="utf-8"?>
<!-- Generator: Adobe Illustrator 16.0.4, SVG Export Plug-In . SVG Version: 6.00 Build 0)  -->
<!DOCTYPE svg PUBLIC "-//W3C//DTD SVG 1.1//EN" "http://www.w3.org/Graphics/SVG/1.1/DTD/svg11.dtd">
<svg version="1.1" id="Livello_1" xmlns="http://www.w3.org/2000/svg" xmlns:xlink="http://www.w3.org/1999/xlink" x="0px" y="0px"
	 width="210px" height="200px" viewBox="0 0 210 200" enable-background="new 0 0 210 200" xml:space="preserve">
<g>
	<g>
		<circle fill="#FBC02E" cx="105" cy="100" r="84"/>
		<circle fill="#FABF2D" cx="105" cy="100" r="75.216"/>
		<path fill="#FFFFFF" d="M104.999,177.717c-42.853,0-77.715-34.864-77.715-77.717s34.862-77.717,77.715-77.717
			S182.716,57.147,182.716,100S147.852,177.717,104.999,177.717z M104.999,27.283c-40.095,0-72.715,32.621-72.715,72.717
			s32.62,72.717,72.715,72.717c40.097,0,72.717-32.621,72.717-72.717S145.096,27.283,104.999,27.283z"/>
		<path fill="#FFFFFF" d="M100.554,115.299H83.5l0.474-43.506c-0.551-4.04-3.011-6.182-6.093-6.182c-2.601,0-4.729,1.54-5.668,4.439
			L71.5,115.299H51.906h-0.035c-3.244,0-6.13,2.607-6.13,6.072c0,3.465,2.431,6.689,5.675,6.689c0.036,0,0.055,0.002,0.084,0.003
			v0.236h19.483H83.53h17.023c3.381,0,5.62-3.534,5.62-6.908C106.174,118.019,103.935,116.299,100.554,115.299z M51.516,128.064
			C52.047,128.082,51.592,128.215,51.516,128.064L51.516,128.064z"/>
		<g>
			<path fill="#FFFFFF" d="M142.847,86.046c-4.127-0.584-8.157-0.06-11.806,1.339l-5.002-10.106l5.697-14.445l-13.121-1.856
				c0,0-4.514,2.895-0.646,4.569c2.888,0.409,7.321,1.035,7.321,1.035l-2.617,6.618l-31.19-4.41l3.894-9.546
				c0,0,4.04,0.353,8.083,1.144c3.158-2.052,0.647-4.572,0.647-4.572l-21.339-3.017c0,0-3.323,1.685-0.646,4.572
				c4.673,0.662,8.547,1.209,8.547,1.209l-6.043,14.824L84.49,85.956c0.516-1.266,0.844-2.071,0.844-2.071
				c6.745,3.762,10.848,11.399,9.703,19.49c-0.633,4.477-2.778,8.369-5.834,11.256l6.121,0.01c2.209-3.044,3.73-6.652,4.293-10.629
				c1.447-10.223-3.878-19.858-12.533-24.421l2.891-7.094l19.763,33.538c0,0,0.828,1.862,2.876,2.151
				c2.043,0.289,3.078,0.435,3.078,0.435c-0.535,12.113,8.229,22.908,20.479,24.642c13.02,1.841,25.108-7.251,26.951-20.272
				C164.961,99.977,155.867,87.888,142.847,86.046z M135.506,106.751l-14.559-2.057c1.242-4.677,4.18-8.56,8.029-11.092
				L135.506,106.751z M111.874,100.563L96.301,74.126l24.637,3.484L111.874,100.563z M115.501,103.931l8.251-20.877l3.156,6.38
				c-5.156,3.221-9.066,8.376-10.571,14.616L115.501,103.931z M158.555,112.346c-1.483,10.493-11.229,17.833-21.731,16.349
				c-9.735-1.377-16.72-9.842-16.523-19.421c0,0,15.173,2.146,19.175,2.711c4,0.566,3.089-1.368,3.089-1.368l-9.456-19.076
				c2.828-1.008,5.932-1.375,9.1-0.928C152.711,92.099,160.039,101.853,158.555,112.346z"/>
			<path fill="#FFFFFF" d="M62.801,114.623c-4.361-4.142-6.744-10.248-5.84-16.643c1.127-7.966,7.023-14.097,14.387-15.944
				l0.074-4.758c-9.682,1.903-17.57,9.747-19.028,20.055c-0.897,6.346,0.81,12.466,4.296,17.29H62.801z"/>
		</g>
	</g>
	<path fill="#FDD835" d="M195.043,168.142c-2.57-5.81-5.418-11.587-8.545-17.312c5.996-2.563,12.201-4.905,18.602-7.004
		C140.988,117.308,68.912,117.476,4.9,144.329c0.041,0.095,0.08,0.188,0.119,0.283c6.605,2.131,13.004,4.522,19.182,7.149
		c-2.928,5.42-5.605,10.887-8.037,16.382C73.436,144.454,137.773,144.453,195.043,168.142L195.043,168.142L195.043,168.142z"/>
	<path fill="#FFFFFF" d="M12.102,170.961l1.514-3.425c2.23-5.043,4.686-10.092,7.309-15.03c-5.701-2.375-11.594-4.547-17.543-6.466
		l-0.654-0.212l-0.967-2.302l1.383-0.58c32.242-13.525,66.318-20.384,101.283-20.384c34.514,0,68.182,6.688,100.07,19.878
		l3.744,1.549l-3.85,1.263c-5.744,1.883-11.443,4.005-16.965,6.316c2.814,5.241,5.439,10.604,7.812,15.966l1.516,3.425l-3.461-1.432
		c-28.318-11.713-58.217-17.651-88.863-17.651c-30.65,0-60.549,5.939-88.869,17.653L12.102,170.961z M7.707,144.312
		c5.4,1.835,10.736,3.871,15.904,6.069l1.516,0.645l-0.783,1.448c-2.283,4.226-4.443,8.542-6.445,12.873
		c27.648-10.932,56.74-16.472,86.531-16.472c29.789,0,58.877,5.539,86.525,16.47c-2.148-4.645-4.48-9.271-6.951-13.796l-0.791-1.45
		l1.518-0.648c4.844-2.071,9.834-3.999,14.879-5.752c-30.412-12.038-62.41-18.137-95.184-18.137
		C71.09,125.562,38.57,131.868,7.707,144.312z"/>
	<g>
		<path fill="#FFFFFF" d="M71.911,135.391c2.507-0.705,5.012-1.33,7.514-1.877c1.271-0.278,2.354-0.2,3.236,0.216
			c0.882,0.418,1.396,1.043,1.555,1.863c0.121,0.624,0.01,1.21-0.322,1.758c-0.334,0.549-0.833,0.999-1.503,1.356
			c-0.668,0.356-1.351,0.612-2.048,0.769c-0.751,0.168-1.501,0.343-2.249,0.525c0.308,1.142,0.62,2.281,0.939,3.421
			c0.054,0.19,0.155,0.322,0.306,0.397c0.149,0.074,0.32,0.088,0.507,0.043c0.447-0.106,0.893-0.209,1.337-0.31
			c0.058,0.221,0.115,0.442,0.173,0.663c-2.051,0.464-4.103,0.987-6.15,1.57c-0.073-0.217-0.146-0.436-0.218-0.653
			c0.345-0.098,0.692-0.194,1.038-0.289c0.23-0.064,0.39-0.162,0.475-0.296c0.086-0.136,0.099-0.297,0.041-0.486
			c-0.817-2.648-1.604-5.301-2.36-7.957c-0.051-0.179-0.157-0.303-0.318-0.371c-0.163-0.068-0.339-0.077-0.526-0.025
			c-0.409,0.11-0.818,0.223-1.229,0.338C72.042,135.827,71.977,135.609,71.911,135.391z M77.919,139.355
			c0.503-0.123,1.008-0.242,1.512-0.358c0.527-0.122,0.973-0.323,1.337-0.608c0.365-0.285,0.604-0.584,0.716-0.901
			c0.11-0.315,0.099-0.787-0.04-1.412c-0.189-0.859-0.597-1.41-1.232-1.645c-0.463-0.166-1.186-0.142-2.17,0.086
			c-0.568,0.132-0.92,0.257-1.053,0.372c-0.131,0.115-0.174,0.267-0.125,0.458C77.208,136.683,77.56,138.02,77.919,139.355z"/>
		<path fill="#FFFFFF" d="M85.971,136.295c1.149-0.244,2.301-0.47,3.455-0.679c0.287,1.92,0.581,3.841,0.885,5.76
			c0.024,0.155,0.098,0.267,0.219,0.336c0.122,0.07,0.292,0.089,0.513,0.059c0.166-0.023,0.33-0.045,0.497-0.066
			c0.032,0.225,0.064,0.451,0.099,0.675c-1.466,0.192-2.931,0.414-4.396,0.666c-0.044-0.224-0.088-0.447-0.131-0.671
			c0.162-0.027,0.326-0.056,0.488-0.083c0.263-0.044,0.436-0.129,0.525-0.257c0.087-0.128,0.105-0.329,0.058-0.603
			c-0.235-1.306-0.465-2.611-0.689-3.917c-0.041-0.246-0.157-0.423-0.343-0.532c-0.186-0.107-0.425-0.139-0.712-0.09
			c-0.116,0.02-0.232,0.039-0.349,0.059C86.049,136.732,86.01,136.513,85.971,136.295z M87.497,132.039
			c0.387-0.06,0.737,0.007,1.047,0.196c0.31,0.19,0.486,0.45,0.533,0.778c0.049,0.33-0.048,0.627-0.285,0.896
			c-0.237,0.268-0.544,0.432-0.923,0.489c-0.384,0.059-0.731-0.005-1.042-0.193c-0.312-0.188-0.495-0.441-0.549-0.765
			c-0.057-0.327,0.033-0.628,0.271-0.902C86.788,132.266,87.105,132.099,87.497,132.039z"/>
		<path fill="#FFFFFF" d="M97.57,135.089c0.167-0.206,0.335-0.411,0.504-0.616c0.171-0.011,0.342-0.022,0.512-0.033
			c0.108,0.776,0.216,1.552,0.321,2.328c-0.222,0.014-0.443,0.029-0.665,0.043c-0.395-0.597-0.816-1.006-1.261-1.225
			c-0.444-0.218-0.972-0.302-1.577-0.247c-0.521,0.047-0.91,0.174-1.164,0.377s-0.363,0.438-0.333,0.707
			c0.03,0.263,0.155,0.451,0.379,0.565c0.224,0.122,0.809,0.216,1.753,0.3c0.853,0.077,1.42,0.164,1.706,0.245
			c0.543,0.153,0.973,0.408,1.293,0.765c0.317,0.357,0.492,0.788,0.524,1.29c0.039,0.635-0.204,1.182-0.719,1.649
			c-0.517,0.468-1.212,0.734-2.097,0.809c-0.427,0.036-0.817,0.023-1.174-0.037c-0.356-0.062-0.736-0.192-1.142-0.39
			c-0.163,0.223-0.325,0.447-0.486,0.671c-0.197,0.022-0.395,0.044-0.593,0.067c-0.159-0.852-0.316-1.705-0.477-2.557
			c0.223-0.026,0.444-0.052,0.665-0.076c0.728,1.237,1.752,1.785,3.103,1.668c0.556-0.047,0.97-0.18,1.251-0.402
			c0.276-0.222,0.407-0.47,0.386-0.749c-0.02-0.253-0.127-0.439-0.324-0.557c-0.196-0.118-0.704-0.224-1.526-0.306
			c-0.886-0.086-1.498-0.165-1.826-0.25c-0.562-0.134-1.004-0.352-1.32-0.658c-0.317-0.306-0.507-0.695-0.567-1.17
			c-0.083-0.679,0.104-1.265,0.572-1.756c0.467-0.49,1.141-0.781,2.015-0.86c0.425-0.039,0.81-0.028,1.155,0.032
			C96.804,134.779,97.175,134.903,97.57,135.089z"/>
		<path fill="#FFFFFF" d="M108.249,138.968c0.207,0.094,0.412,0.188,0.617,0.284c-0.345,0.764-0.854,1.35-1.524,1.766
			c-0.673,0.416-1.457,0.625-2.367,0.635c-1.236,0.014-2.206-0.272-2.933-0.878c-0.726-0.606-1.122-1.438-1.177-2.506
			c-0.058-1.15,0.324-2.119,1.167-2.892c0.844-0.772,2.005-1.176,3.459-1.185c1.044-0.006,1.845,0.187,2.388,0.562
			c0.547,0.377,0.809,0.829,0.798,1.351c-0.009,0.38-0.135,0.68-0.376,0.897c-0.243,0.218-0.555,0.324-0.941,0.319
			c-0.336-0.003-0.603-0.09-0.802-0.265c-0.198-0.173-0.296-0.399-0.296-0.678c-0.001-0.238,0.108-0.517,0.331-0.833
			c0.094-0.132,0.142-0.224,0.142-0.278c0.001-0.097-0.085-0.185-0.257-0.265c-0.245-0.122-0.564-0.184-0.962-0.181
			c-0.734,0.004-1.266,0.219-1.582,0.635c-0.429,0.55-0.621,1.376-0.592,2.475s0.261,1.864,0.685,2.304
			c0.425,0.438,0.96,0.654,1.612,0.65c0.515-0.002,0.999-0.162,1.459-0.478C107.558,140.091,107.94,139.612,108.249,138.968z"/>
		<path fill="#FFFFFF" d="M110.372,134.643c1.16-0.006,2.323,0.005,3.486,0.034c-0.13,1.937-0.265,3.873-0.404,5.81
			c-0.011,0.155,0.033,0.279,0.136,0.371c0.102,0.093,0.265,0.146,0.484,0.162c0.166,0.012,0.332,0.023,0.498,0.036
			c-0.02,0.227-0.039,0.454-0.059,0.68c-1.468-0.109-2.936-0.19-4.404-0.242c0.01-0.227,0.019-0.453,0.027-0.681
			c0.163,0.006,0.326,0.011,0.489,0.018c0.264,0.011,0.45-0.037,0.564-0.145s0.177-0.3,0.191-0.578
			c0.069-1.322,0.135-2.644,0.198-3.965c0.013-0.249-0.058-0.445-0.216-0.589c-0.155-0.143-0.38-0.222-0.668-0.233
			c-0.115-0.004-0.231-0.008-0.349-0.012C110.356,135.086,110.364,134.864,110.372,134.643z M112.734,130.787
			c0.387,0.021,0.713,0.156,0.973,0.404c0.263,0.248,0.381,0.54,0.36,0.87c-0.022,0.333-0.178,0.604-0.465,0.819
			c-0.285,0.215-0.617,0.312-0.996,0.292c-0.385-0.021-0.706-0.153-0.967-0.398c-0.262-0.247-0.386-0.532-0.373-0.86
			c0.015-0.331,0.163-0.607,0.449-0.827C112.004,130.867,112.343,130.767,112.734,130.787z"/>
		<path fill="#FFFFFF" d="M125.84,142.465c-0.043,0.224-0.088,0.447-0.134,0.67c-1.472-0.258-2.942-0.488-4.413-0.688
			c0.034-0.225,0.068-0.451,0.104-0.675c0.155,0.021,0.31,0.042,0.465,0.063c0.249,0.035,0.441,0.003,0.582-0.094
			c0.141-0.099,0.228-0.258,0.264-0.48c0.164-0.979,0.323-1.961,0.479-2.94c0.08-0.502,0.013-0.906-0.207-1.212
			c-0.218-0.304-0.543-0.487-0.966-0.544c-0.578-0.078-1.075,0.054-1.486,0.39c-0.412,0.336-0.662,0.872-0.756,1.604
			c-0.098,0.759-0.197,1.518-0.298,2.276c-0.028,0.223,0.012,0.399,0.119,0.53c0.108,0.131,0.26,0.208,0.454,0.232
			c0.187,0.023,0.373,0.047,0.56,0.07c-0.031,0.226-0.064,0.451-0.099,0.676c-1.529-0.197-3.056-0.362-4.585-0.495
			c0.023-0.226,0.045-0.453,0.067-0.679c0.199,0.018,0.4,0.036,0.6,0.054c0.232,0.022,0.412-0.02,0.545-0.125
			c0.131-0.104,0.208-0.269,0.233-0.492c0.149-1.353,0.297-2.707,0.438-4.059c0.024-0.233-0.044-0.428-0.21-0.584
			c-0.165-0.155-0.396-0.248-0.689-0.274c-0.11-0.01-0.222-0.02-0.332-0.029c0.02-0.212,0.039-0.423,0.059-0.635
			c1.095,0.045,2.191,0.104,3.29,0.178c0.066,0.432,0.094,0.938,0.081,1.522c0.518-0.485,1.056-0.828,1.611-1.027
			c0.551-0.199,1.119-0.258,1.693-0.176c0.782,0.112,1.363,0.433,1.735,0.953c0.368,0.519,0.477,1.18,0.331,1.978
			c-0.189,1.045-0.381,2.089-0.577,3.134c-0.044,0.241-0.017,0.424,0.086,0.55c0.1,0.126,0.282,0.21,0.545,0.256
			C125.567,142.417,125.704,142.441,125.84,142.465z"/>
		<path fill="#FFFFFF" d="M135.622,144.451c0.057,0.198,0.114,0.397,0.17,0.596c-0.381,0.111-0.71,0.173-0.985,0.182
			c-0.277,0.009-0.565-0.025-0.866-0.101c-0.449-0.114-0.786-0.288-1.014-0.529c-0.228-0.24-0.391-0.625-0.491-1.16
			c-0.669,0.352-1.233,0.57-1.702,0.648c-0.469,0.081-0.967,0.063-1.498-0.048c-0.734-0.153-1.271-0.422-1.615-0.812
			c-0.345-0.391-0.468-0.826-0.367-1.305c0.155-0.723,0.665-1.232,1.549-1.512c0.709-0.218,2.176-0.29,4.427-0.127
			c0.084-0.32,0.168-0.641,0.252-0.961c0.099-0.379,0.032-0.724-0.201-1.031c-0.234-0.309-0.602-0.519-1.097-0.628
			c-0.381-0.083-0.731-0.085-1.054-0.008c-0.216,0.05-0.333,0.12-0.354,0.211c-0.012,0.048,0.007,0.127,0.058,0.237
			c0.105,0.249,0.134,0.476,0.085,0.687c-0.062,0.267-0.214,0.461-0.456,0.583c-0.239,0.122-0.53,0.149-0.868,0.081
			c-0.36-0.073-0.629-0.22-0.809-0.441c-0.181-0.222-0.24-0.474-0.183-0.758c0.099-0.463,0.473-0.819,1.134-1.057
			c0.826-0.295,1.792-0.326,2.887-0.083c0.825,0.183,1.531,0.464,2.112,0.836c0.371,0.235,0.639,0.559,0.795,0.964
			c0.16,0.406,0.165,0.86,0.023,1.361c-0.32,1.122-0.646,2.243-0.977,3.364c-0.075,0.255-0.078,0.451-0.007,0.591
			c0.071,0.14,0.198,0.234,0.385,0.282C135.106,144.551,135.328,144.531,135.622,144.451z M133.066,140.903
			c-1.198-0.134-2.033-0.089-2.509,0.112c-0.478,0.201-0.77,0.541-0.882,1.013c-0.078,0.334-0.046,0.61,0.1,0.828
			c0.143,0.219,0.383,0.364,0.721,0.437c0.521,0.113,0.996,0.044,1.433-0.213s0.736-0.676,0.892-1.259
			C132.904,141.515,132.984,141.209,133.066,140.903z"/>
	</g>
</g>
</svg>
