<?xml version="1.0" encoding="utf-8"?>
<!-- Generator: Adobe Illustrator 16.0.4, SVG Export Plug-In . SVG Version: 6.00 Build 0)  -->
<!DOCTYPE svg PUBLIC "-//W3C//DTD SVG 1.1//EN" "http://www.w3.org/Graphics/SVG/1.1/DTD/svg11.dtd">
<svg version="1.1" id="Livello_1" xmlns="http://www.w3.org/2000/svg" xmlns:xlink="http://www.w3.org/1999/xlink" x="0px" y="0px"
	 width="210px" height="200px" viewBox="0 0 210 200" enable-background="new 0 0 210 200" xml:space="preserve">
<g>
	<circle fill="#FBC02E" cx="105" cy="100" r="84"/>
	<circle fill="#FABF2D" cx="105" cy="100" r="75.216"/>
	<path fill="#FFFFFF" d="M104.999,177.717c-42.852,0-77.715-34.864-77.715-77.717s34.863-77.717,77.715-77.717
		c42.853,0,77.717,34.864,77.717,77.717S147.852,177.717,104.999,177.717z M104.999,27.283c-40.095,0-72.715,32.621-72.715,72.717
		s32.62,72.717,72.715,72.717c40.096,0,72.717-32.621,72.717-72.717S145.095,27.283,104.999,27.283z"/>
	<path fill="#FFFFFF" d="M100.554,115.299H83.5l0.474-43.506c-0.551-4.04-3.01-6.182-6.093-6.182c-2.6,0-4.729,1.54-5.668,4.439
		L71.5,115.299H51.907h-0.036c-3.245,0-6.13,2.607-6.13,6.072c0,3.465,2.431,6.689,5.675,6.689c0.036,0,0.054,0.002,0.084,0.003
		v0.236h19.483H83.53h17.023c3.381,0,5.62-3.534,5.62-6.908C106.174,118.019,103.935,116.299,100.554,115.299z M51.516,128.064
		C52.047,128.082,51.592,128.215,51.516,128.064L51.516,128.064z"/>
	<g>
		<path fill="#FFFFFF" d="M142.847,86.046c-4.127-0.584-8.157-0.06-11.805,1.339L126.04,77.28l5.697-14.445l-13.122-1.856
			c0,0-4.513,2.895-0.646,4.569c2.888,0.409,7.321,1.035,7.321,1.035l-2.617,6.618l-31.19-4.41l3.893-9.546
			c0,0,4.04,0.353,8.083,1.144c3.159-2.052,0.647-4.572,0.647-4.572l-21.338-3.017c0,0-3.324,1.685-0.646,4.572
			c4.672,0.662,8.547,1.209,8.547,1.209l-6.043,14.824l-0.135,12.552c0.515-1.266,0.843-2.071,0.843-2.071
			c6.746,3.762,10.848,11.399,9.703,19.49c-0.633,4.477-2.778,8.369-5.834,11.256l6.121,0.01c2.209-3.044,3.731-6.652,4.293-10.629
			c1.447-10.223-3.878-19.858-12.533-24.421l2.891-7.094l19.762,33.538c0,0,0.828,1.862,2.875,2.151
			c2.043,0.289,3.078,0.435,3.078,0.435c-0.535,12.113,8.229,22.908,20.479,24.642c13.021,1.841,25.109-7.251,26.951-20.272
			C164.96,99.977,155.867,87.888,142.847,86.046z M135.505,106.751l-14.558-2.057c1.243-4.677,4.18-8.56,8.029-11.092
			L135.505,106.751z M111.874,100.563L96.3,74.126l24.637,3.484L111.874,100.563z M115.501,103.931l8.251-20.877l3.156,6.38
			c-5.156,3.221-9.066,8.376-10.571,14.616L115.501,103.931z M158.554,112.346c-1.483,10.493-11.229,17.833-21.731,16.349
			c-9.735-1.377-16.72-9.842-16.523-19.421c0,0,15.173,2.146,19.175,2.711c3.999,0.566,3.088-1.368,3.088-1.368l-9.457-19.076
			c2.828-1.008,5.933-1.375,9.1-0.928C152.711,92.099,160.039,101.853,158.554,112.346z"/>
		<path fill="#FFFFFF" d="M62.8,114.623c-4.361-4.142-6.743-10.248-5.839-16.643c1.127-7.966,7.024-14.097,14.387-15.944
			l0.075-4.758c-9.682,1.903-17.571,9.747-19.029,20.055c-0.897,6.346,0.809,12.466,4.295,17.29H62.8z"/>
	</g>
</g>
<path fill="#FDD835" d="M195.043,168.142c-2.57-5.81-5.419-11.587-8.546-17.312c5.997-2.563,12.202-4.905,18.603-7.004
	c-64.111-26.519-136.188-26.351-200.2,0.503c0.04,0.095,0.079,0.188,0.119,0.283c6.605,2.131,13.005,4.522,19.183,7.149
	c-2.928,5.42-5.606,10.887-8.037,16.382C73.434,144.454,137.774,144.453,195.043,168.142L195.043,168.142L195.043,168.142z"/>
<path fill="#FFFFFF" d="M12.101,170.961l1.515-3.425c2.23-5.043,4.687-10.092,7.31-15.03c-5.702-2.375-11.596-4.547-17.544-6.466
	l-0.655-0.212l-0.967-2.302l1.384-0.58c32.241-13.525,66.318-20.384,101.284-20.384c34.513,0,68.182,6.688,100.069,19.878
	l3.745,1.549l-3.851,1.263c-5.744,1.883-11.443,4.005-16.965,6.316c2.815,5.241,5.439,10.604,7.812,15.966l1.516,3.425l-3.461-1.432
	c-28.317-11.713-58.216-17.651-88.863-17.651c-30.65,0-60.55,5.939-88.869,17.653L12.101,170.961z M7.707,144.312
	c5.4,1.835,10.736,3.871,15.904,6.069l1.516,0.645l-0.782,1.448c-2.283,4.226-4.444,8.542-6.446,12.873
	c27.648-10.932,56.74-16.472,86.531-16.472c29.789,0,58.878,5.539,86.525,16.47c-2.148-4.645-4.479-9.271-6.951-13.796l-0.791-1.45
	l1.519-0.648c4.844-2.071,9.833-3.999,14.879-5.752c-30.412-12.038-62.411-18.137-95.184-18.137
	C71.089,125.562,38.569,131.868,7.707,144.312z"/>
<g>
	<path fill="#FFFFFF" d="M56.043,135.848c-0.096-0.321-0.192-0.64-0.287-0.961c3.174-0.9,6.348-1.716,9.517-2.45
		c0.077,0.324,0.154,0.648,0.231,0.973c-0.531,0.123-1.063,0.248-1.594,0.377c-0.457,0.109-0.759,0.261-0.904,0.452
		c-0.145,0.19-0.174,0.45-0.091,0.776c0.988,3.821,2.013,7.638,3.077,11.451c0.129,0.465,0.293,0.742,0.489,0.831
		c0.196,0.087,0.591,0.058,1.186-0.085c0.811-0.195,1.623-0.384,2.435-0.568c0.907-0.205,1.655-0.782,2.261-1.74
		c0.607-0.957,0.937-2.346,0.995-4.172c0.355-0.07,0.709-0.14,1.064-0.208c0.28,2.018,0.573,4.034,0.88,6.048
		c-4.927,0.966-9.852,2.151-14.77,3.56c-0.105-0.318-0.209-0.638-0.314-0.957c0.496-0.142,0.99-0.281,1.485-0.418
		c0.327-0.091,0.551-0.235,0.672-0.432c0.121-0.196,0.139-0.433,0.055-0.709c-1.193-3.897-2.343-7.799-3.45-11.706
		c-0.08-0.283-0.231-0.464-0.455-0.541c-0.222-0.078-0.564-0.054-1.021,0.071C57.016,135.574,56.53,135.71,56.043,135.848z"/>
	<path fill="#FFFFFF" d="M75.717,136.242c1.664-0.372,3.332-0.719,5-1.043c0.446,2.813,0.906,5.625,1.378,8.437
		c0.038,0.227,0.146,0.389,0.324,0.489c0.177,0.101,0.425,0.126,0.746,0.079c0.241-0.036,0.481-0.071,0.721-0.105
		c0.052,0.33,0.104,0.659,0.156,0.989c-2.13,0.305-4.26,0.651-6.389,1.039c-0.066-0.328-0.132-0.655-0.198-0.982
		c0.236-0.043,0.473-0.085,0.709-0.128c0.381-0.067,0.634-0.194,0.76-0.384c0.126-0.19,0.151-0.485,0.076-0.887
		c-0.359-1.911-0.71-3.823-1.056-5.734c-0.066-0.36-0.232-0.619-0.506-0.775c-0.272-0.156-0.617-0.198-1.034-0.124
		c-0.168,0.03-0.336,0.061-0.505,0.09C75.838,136.882,75.778,136.562,75.717,136.242z M77.869,129.982
		c0.558-0.091,1.064,0,1.516,0.274c0.452,0.274,0.712,0.653,0.787,1.135s-0.06,0.92-0.4,1.318c-0.34,0.397-0.782,0.639-1.329,0.729
		c-0.556,0.091-1.059,0.001-1.512-0.27s-0.724-0.642-0.808-1.114c-0.085-0.48,0.042-0.922,0.382-1.326
		C76.846,130.323,77.301,130.074,77.869,129.982z"/>
	<path fill="#FFFFFF" d="M85.649,134.718c3.261-0.41,6.522-0.732,9.782-0.965c0.023,0.325,0.048,0.649,0.072,0.975
		c-2.038,2.846-3.967,5.726-5.777,8.634c1.002-0.109,2.005-0.21,3.008-0.302c0.654-0.06,1.174-0.326,1.565-0.804
		c0.393-0.478,0.647-1.285,0.765-2.421c0.346-0.026,0.692-0.051,1.038-0.076c0.026,1.341,0.056,2.682,0.088,4.022
		c-3.315,0.238-6.628,0.573-9.942,1.005c-0.047-0.33-0.094-0.661-0.142-0.99c1.743-2.946,3.607-5.866,5.582-8.754
		c-0.883,0.082-1.767,0.17-2.649,0.266c-0.616,0.066-1.104,0.327-1.461,0.778c-0.358,0.451-0.564,1.183-0.619,2.196
		c-0.351,0.043-0.703,0.086-1.053,0.131C85.816,137.18,85.731,135.949,85.649,134.718z"/>
	<path fill="#FFFFFF" d="M98.949,133.535c3.259-0.17,6.52-0.253,9.781-0.247c-0.001,0.326-0.001,0.652-0.001,0.978
		c-2.243,2.689-4.381,5.419-6.409,8.187c1.004-0.036,2.006-0.063,3.01-0.081c0.654-0.011,1.193-0.239,1.62-0.687
		c0.428-0.449,0.745-1.234,0.951-2.358c0.346-0.001,0.692-0.001,1.039,0c-0.079,1.339-0.156,2.678-0.231,4.017
		c-3.317-0.005-6.632,0.085-9.947,0.273c-0.02-0.333-0.041-0.666-0.061-0.998c1.961-2.808,4.035-5.583,6.213-8.318
		c-0.883,0.017-1.766,0.04-2.65,0.07c-0.615,0.021-1.119,0.245-1.506,0.669c-0.389,0.423-0.649,1.138-0.781,2.145
		c-0.352,0.017-0.702,0.035-1.053,0.054C98.929,136.003,98.938,134.769,98.949,133.535z"/>
	<path fill="#FFFFFF" d="M123.517,142.759c0.136,0.271,0.271,0.542,0.405,0.813c-0.494,0.257-0.93,0.429-1.308,0.512
		c-0.378,0.083-0.787,0.108-1.226,0.075c-0.652-0.05-1.167-0.217-1.551-0.504c-0.383-0.288-0.717-0.802-1.007-1.545
		c-0.83,0.675-1.554,1.13-2.183,1.36c-0.629,0.232-1.328,0.333-2.1,0.305c-1.068-0.039-1.894-0.292-2.483-0.771
		c-0.589-0.478-0.882-1.073-0.87-1.789c0.019-1.08,0.597-1.942,1.758-2.563c0.928-0.489,2.957-0.957,6.114-1.286
		c0.031-0.482,0.061-0.965,0.092-1.447c0.036-0.572-0.146-1.051-0.551-1.436c-0.405-0.386-0.966-0.597-1.683-0.631
		c-0.547-0.026-1.035,0.057-1.461,0.249c-0.287,0.125-0.433,0.256-0.437,0.392c-0.003,0.071,0.045,0.18,0.144,0.328
		c0.211,0.33,0.31,0.653,0.297,0.969c-0.016,0.4-0.177,0.718-0.479,0.955c-0.303,0.235-0.697,0.345-1.187,0.33
		c-0.521-0.016-0.937-0.16-1.245-0.437c-0.31-0.274-0.461-0.624-0.453-1.046c0.015-0.694,0.447-1.299,1.306-1.806
		c1.073-0.63,2.406-0.914,3.984-0.837c1.189,0.06,2.237,0.288,3.134,0.677c0.574,0.247,1.026,0.645,1.35,1.188
		c0.325,0.545,0.455,1.198,0.393,1.954c-0.138,1.696-0.279,3.391-0.423,5.086c-0.033,0.386,0.02,0.669,0.158,0.853
		c0.139,0.184,0.34,0.286,0.608,0.308C122.836,143.035,123.135,142.948,123.517,142.759z M119.007,138.3
		c-1.693,0.107-2.842,0.38-3.449,0.79c-0.609,0.408-0.923,0.969-0.95,1.678c-0.019,0.5,0.103,0.89,0.364,1.168
		c0.26,0.28,0.634,0.429,1.124,0.45c0.757,0.034,1.398-0.186,1.933-0.666c0.534-0.48,0.833-1.158,0.89-2.037
		C118.948,139.222,118.978,138.761,119.007,138.3z"/>
	<path fill="#FFFFFF" d="M139.784,145.216c-0.067,0.328-0.135,0.655-0.202,0.981c-2.138-0.393-4.275-0.745-6.413-1.057
		c0.053-0.329,0.106-0.658,0.159-0.988c0.226,0.033,0.452,0.066,0.677,0.1c0.359,0.053,0.641,0.01,0.847-0.132
		c0.205-0.143,0.336-0.377,0.391-0.702c0.248-1.436,0.49-2.871,0.729-4.307c0.123-0.736,0.029-1.329-0.286-1.78
		c-0.315-0.45-0.781-0.721-1.395-0.81c-0.837-0.121-1.561,0.066-2.163,0.553c-0.601,0.488-0.971,1.27-1.118,2.341
		c-0.153,1.112-0.308,2.223-0.464,3.334c-0.046,0.327,0.009,0.586,0.164,0.78c0.157,0.195,0.375,0.31,0.658,0.347
		c0.271,0.037,0.542,0.073,0.814,0.111c-0.051,0.33-0.102,0.659-0.152,0.989c-2.222-0.309-4.442-0.573-6.664-0.794
		c0.037-0.332,0.073-0.663,0.109-0.994c0.29,0.028,0.581,0.058,0.871,0.089c0.336,0.035,0.599-0.023,0.793-0.175
		c0.191-0.153,0.309-0.392,0.348-0.719c0.24-1.982,0.474-3.963,0.704-5.946c0.04-0.342-0.059-0.628-0.296-0.86
		c-0.238-0.23-0.569-0.369-0.995-0.413c-0.161-0.016-0.322-0.032-0.482-0.049c0.032-0.31,0.064-0.62,0.096-0.93
		c1.586,0.083,3.174,0.186,4.765,0.311c0.09,0.633,0.122,1.376,0.096,2.233c0.76-0.705,1.544-1.2,2.349-1.485
		c0.806-0.286,1.628-0.365,2.46-0.238c1.13,0.173,1.97,0.648,2.504,1.414c0.526,0.765,0.677,1.734,0.458,2.905
		c-0.285,1.53-0.575,3.06-0.869,4.589c-0.068,0.353-0.029,0.622,0.118,0.808c0.145,0.186,0.408,0.312,0.791,0.381
		C139.386,145.144,139.585,145.18,139.784,145.216z"/>
	<path fill="#FFFFFF" d="M153.993,148.177c0.084,0.292,0.167,0.583,0.25,0.875c-0.555,0.162-1.032,0.252-1.433,0.265
		c-0.401,0.013-0.821-0.037-1.261-0.15c-0.651-0.167-1.14-0.425-1.471-0.779c-0.332-0.352-0.567-0.918-0.713-1.702
		c-0.974,0.514-1.795,0.831-2.476,0.944c-0.682,0.115-1.406,0.087-2.179-0.079c-1.068-0.229-1.848-0.626-2.346-1.203
		c-0.498-0.576-0.675-1.213-0.523-1.916c0.229-1.06,0.974-1.803,2.261-2.208c1.03-0.314,3.16-0.411,6.426-0.165
		c0.123-0.469,0.247-0.938,0.368-1.408c0.146-0.556,0.051-1.061-0.287-1.513c-0.337-0.453-0.868-0.762-1.587-0.924
		c-0.55-0.124-1.059-0.13-1.524-0.018c-0.314,0.071-0.485,0.174-0.516,0.307c-0.016,0.07,0.012,0.187,0.084,0.349
		c0.151,0.363,0.19,0.698,0.118,1.006c-0.092,0.392-0.315,0.675-0.664,0.854c-0.35,0.177-0.77,0.214-1.26,0.112
		c-0.522-0.109-0.913-0.325-1.172-0.653c-0.259-0.326-0.346-0.697-0.258-1.111c0.146-0.681,0.692-1.199,1.654-1.543
		c1.199-0.428,2.598-0.468,4.183-0.107c1.195,0.272,2.216,0.686,3.056,1.232c0.538,0.347,0.923,0.82,1.149,1.414
		c0.229,0.596,0.237,1.262,0.028,1.995c-0.467,1.644-0.94,3.288-1.421,4.93c-0.11,0.374-0.113,0.663-0.008,0.869
		c0.104,0.205,0.288,0.343,0.556,0.414C153.246,148.325,153.567,148.294,153.993,148.177z M150.288,142.968
		c-1.736-0.2-2.95-0.138-3.642,0.155c-0.693,0.292-1.119,0.788-1.284,1.48c-0.117,0.49-0.071,0.896,0.139,1.216
		c0.208,0.322,0.555,0.535,1.044,0.645c0.757,0.17,1.45,0.069,2.085-0.307c0.635-0.376,1.07-0.988,1.299-1.843
		C150.05,143.865,150.169,143.417,150.288,142.968z"/>
</g>
</svg>
