<?xml version="1.0" encoding="utf-8"?>
<!-- Generator: Adobe Illustrator 16.0.4, SVG Export Plug-In . SVG Version: 6.00 Build 0)  -->
<!DOCTYPE svg PUBLIC "-//W3C//DTD SVG 1.1//EN" "http://www.w3.org/Graphics/SVG/1.1/DTD/svg11.dtd">
<svg version="1.1" id="Livello_1" xmlns="http://www.w3.org/2000/svg" xmlns:xlink="http://www.w3.org/1999/xlink" x="0px" y="0px"
	 width="210px" height="200px" viewBox="0 0 210 200" enable-background="new 0 0 210 200" xml:space="preserve">
<g>
	<circle fill="#FBC02E" cx="105.332" cy="100" r="84"/>
	<circle fill="#FABF2D" cx="105.332" cy="100" r="75.216"/>
	<path fill="#FFFFFF" d="M105.331,177.717c-42.852,0-77.715-34.864-77.715-77.717c0-42.854,34.863-77.717,77.715-77.717
		c42.854,0,77.717,34.863,77.717,77.717C183.048,142.853,148.185,177.717,105.331,177.717z M105.331,27.283
		c-40.095,0-72.715,32.62-72.715,72.717c0,40.096,32.62,72.717,72.715,72.717c40.097,0,72.717-32.621,72.717-72.717
		C178.048,59.903,145.428,27.283,105.331,27.283z"/>
	<path fill="#FFFFFF" d="M100.886,115.299H83.832l0.474-43.506c-0.551-4.04-3.01-6.182-6.093-6.182c-2.601,0-4.729,1.54-5.668,4.439
		l-0.713,45.248H52.239h-0.036c-3.244,0-6.13,2.607-6.13,6.072s2.431,6.689,5.675,6.689c0.036,0,0.055,0.002,0.084,0.003v0.235
		h19.483h12.547h17.023c3.381,0,5.62-3.533,5.62-6.907C106.506,118.019,104.267,116.299,100.886,115.299z M51.849,128.063
		C52.379,128.081,51.925,128.215,51.849,128.063L51.849,128.063z"/>
	<g>
		<path fill="#FFFFFF" d="M143.179,86.046c-4.127-0.584-8.157-0.06-11.805,1.34l-5.002-10.106l5.697-14.444l-13.122-1.856
			c0,0-4.513,2.896-0.646,4.569c2.888,0.409,7.321,1.035,7.321,1.035l-2.617,6.617l-31.189-4.41l3.893-9.546
			c0,0,4.04,0.354,8.083,1.144c3.159-2.052,0.647-4.571,0.647-4.571l-21.338-3.018c0,0-3.324,1.685-0.646,4.572
			c4.672,0.662,8.547,1.209,8.547,1.209l-6.043,14.824l-0.135,12.552c0.515-1.266,0.843-2.071,0.843-2.071
			c6.745,3.763,10.848,11.399,9.703,19.49c-0.633,4.478-2.778,8.369-5.834,11.256l6.121,0.011c2.209-3.045,3.731-6.652,4.293-10.63
			c1.447-10.223-3.878-19.858-12.533-24.421l2.892-7.094l19.762,33.538c0,0,0.828,1.862,2.876,2.151
			c2.043,0.289,3.078,0.435,3.078,0.435c-0.535,12.113,8.229,22.908,20.479,24.642c13.021,1.841,25.108-7.251,26.951-20.272
			C165.293,99.977,156.199,87.888,143.179,86.046z M135.838,106.751l-14.559-2.057c1.243-4.677,4.18-8.56,8.029-11.092
			L135.838,106.751z M112.206,100.562L96.633,74.126l24.637,3.484L112.206,100.562z M115.833,103.931l8.251-20.877l3.156,6.381
			c-5.156,3.221-9.066,8.376-10.571,14.615L115.833,103.931z M158.887,112.346c-1.483,10.492-11.229,17.832-21.731,16.349
			c-9.735-1.377-16.72-9.842-16.523-19.421c0,0,15.174,2.146,19.176,2.711c3.999,0.566,3.088-1.368,3.088-1.368l-9.456-19.076
			c2.828-1.008,5.933-1.374,9.1-0.928C153.043,92.099,160.371,101.853,158.887,112.346z"/>
		<path fill="#FFFFFF" d="M63.133,114.623c-4.361-4.143-6.743-10.248-5.84-16.644c1.127-7.966,7.024-14.097,14.387-15.943
			l0.075-4.759c-9.683,1.903-17.571,9.747-19.029,20.056c-0.897,6.346,0.81,12.466,4.296,17.29H63.133z"/>
	</g>
</g>
</svg>
