<?xml version="1.0" encoding="utf-8"?>
<!-- Generator: Adobe Illustrator 16.0.4, SVG Export Plug-In . SVG Version: 6.00 Build 0)  -->
<!DOCTYPE svg PUBLIC "-//W3C//DTD SVG 1.1//EN" "http://www.w3.org/Graphics/SVG/1.1/DTD/svg11.dtd">
<svg version="1.1" id="Livello_1" xmlns="http://www.w3.org/2000/svg" xmlns:xlink="http://www.w3.org/1999/xlink" x="0px" y="0px"
	 width="210px" height="200px" viewBox="0 0 210 200" enable-background="new 0 0 210 200" xml:space="preserve">
<g>
	<g>
		<circle fill="#FBC02E" cx="105" cy="100" r="84"/>
		<circle fill="#FABF2D" cx="105" cy="100" r="75.216"/>
		<path fill="#FFFFFF" d="M104.999,177.717c-42.853,0-77.715-34.864-77.715-77.717s34.862-77.717,77.715-77.717
			S182.716,57.147,182.716,100S147.852,177.717,104.999,177.717z M104.999,27.283c-40.095,0-72.715,32.621-72.715,72.717
			s32.62,72.717,72.715,72.717c40.097,0,72.717-32.621,72.717-72.717S145.096,27.283,104.999,27.283z"/>
		<path fill="#FFFFFF" d="M100.554,115.299H83.5l0.474-43.506c-0.551-4.04-3.011-6.182-6.093-6.182c-2.601,0-4.729,1.54-5.668,4.439
			L71.5,115.299H51.906h-0.035c-3.244,0-6.13,2.607-6.13,6.072c0,3.465,2.431,6.689,5.675,6.689c0.036,0,0.055,0.002,0.084,0.003
			v0.236h19.483H83.53h17.023c3.381,0,5.62-3.534,5.62-6.908C106.174,118.019,103.935,116.299,100.554,115.299z M51.516,128.064
			C52.047,128.082,51.592,128.215,51.516,128.064L51.516,128.064z"/>
		<g>
			<path fill="#FFFFFF" d="M142.847,86.046c-4.127-0.584-8.157-0.06-11.806,1.339l-5.002-10.106l5.697-14.445l-13.121-1.856
				c0,0-4.514,2.895-0.646,4.569c2.888,0.409,7.321,1.035,7.321,1.035l-2.617,6.618l-31.19-4.41l3.894-9.546
				c0,0,4.04,0.353,8.083,1.144c3.158-2.052,0.647-4.572,0.647-4.572l-21.339-3.017c0,0-3.323,1.685-0.646,4.572
				c4.673,0.662,8.547,1.209,8.547,1.209l-6.043,14.824L84.49,85.956c0.516-1.266,0.844-2.071,0.844-2.071
				c6.745,3.762,10.848,11.399,9.703,19.49c-0.633,4.477-2.778,8.369-5.834,11.256l6.121,0.01c2.209-3.044,3.73-6.652,4.293-10.629
				c1.447-10.223-3.878-19.858-12.533-24.421l2.891-7.094l19.763,33.538c0,0,0.828,1.862,2.876,2.151
				c2.043,0.289,3.078,0.435,3.078,0.435c-0.535,12.113,8.229,22.908,20.479,24.642c13.02,1.841,25.108-7.251,26.951-20.272
				C164.961,99.977,155.867,87.888,142.847,86.046z M135.506,106.751l-14.559-2.057c1.242-4.677,4.18-8.56,8.029-11.092
				L135.506,106.751z M111.874,100.563L96.301,74.126l24.637,3.484L111.874,100.563z M115.501,103.931l8.251-20.877l3.156,6.38
				c-5.156,3.221-9.066,8.376-10.571,14.616L115.501,103.931z M158.555,112.346c-1.483,10.493-11.229,17.833-21.731,16.349
				c-9.735-1.377-16.72-9.842-16.523-19.421c0,0,15.173,2.146,19.175,2.711c4,0.566,3.089-1.368,3.089-1.368l-9.456-19.076
				c2.828-1.008,5.932-1.375,9.1-0.928C152.711,92.099,160.039,101.853,158.555,112.346z"/>
			<path fill="#FFFFFF" d="M62.801,114.623c-4.361-4.142-6.744-10.248-5.84-16.643c1.127-7.966,7.023-14.097,14.387-15.944
				l0.074-4.758c-9.682,1.903-17.57,9.747-19.028,20.055c-0.897,6.346,0.81,12.466,4.296,17.29H62.801z"/>
		</g>
	</g>
	<path fill="#FDD835" d="M195.043,168.142c-2.57-5.81-5.418-11.587-8.545-17.312c5.996-2.563,12.201-4.905,18.602-7.004
		C140.988,117.308,68.912,117.476,4.9,144.329c0.041,0.095,0.08,0.188,0.119,0.283c6.605,2.131,13.004,4.522,19.182,7.149
		c-2.928,5.42-5.605,10.887-8.037,16.382C73.436,144.454,137.773,144.453,195.043,168.142L195.043,168.142L195.043,168.142z"/>
	<path fill="#FFFFFF" d="M12.102,170.961l1.514-3.425c2.23-5.043,4.686-10.092,7.309-15.03c-5.701-2.375-11.594-4.547-17.543-6.466
		l-0.654-0.212l-0.967-2.302l1.383-0.58c32.242-13.525,66.318-20.384,101.283-20.384c34.514,0,68.182,6.688,100.07,19.878
		l3.744,1.549l-3.85,1.263c-5.744,1.883-11.443,4.005-16.965,6.316c2.814,5.241,5.439,10.604,7.812,15.966l1.516,3.425l-3.461-1.432
		c-28.318-11.713-58.217-17.651-88.863-17.651c-30.65,0-60.549,5.939-88.869,17.653L12.102,170.961z M7.707,144.312
		c5.4,1.835,10.736,3.871,15.904,6.069l1.516,0.645l-0.783,1.448c-2.283,4.226-4.443,8.542-6.445,12.873
		c27.648-10.932,56.74-16.472,86.531-16.472c29.789,0,58.877,5.539,86.525,16.47c-2.148-4.645-4.48-9.271-6.951-13.796l-0.791-1.45
		l1.518-0.648c4.844-2.071,9.834-3.999,14.879-5.752c-30.412-12.038-62.41-18.137-95.184-18.137
		C71.09,125.562,38.57,131.868,7.707,144.312z"/>
	<g>
		<path fill="#FFFFFF" d="M58.9,136.387c2.06-0.581,4.118-1.123,6.175-1.626c0.056,0.221,0.112,0.441,0.169,0.661
			c-0.415,0.101-0.832,0.205-1.248,0.31c-0.176,0.044-0.3,0.131-0.371,0.257c-0.073,0.127-0.078,0.295-0.022,0.503
			c0.522,1.933,1.056,3.864,1.601,5.794c0.23,0.817,0.651,1.381,1.251,1.698c0.6,0.316,1.313,0.371,2.152,0.171
			c0.616-0.147,1.141-0.399,1.582-0.755c0.323-0.265,0.549-0.63,0.689-1.097c0.134-0.467,0.13-1.015-0.021-1.644
			c-0.357-1.496-0.705-2.991-1.051-4.488c-0.132-0.572-0.377-0.969-0.735-1.19c-0.359-0.221-0.792-0.275-1.284-0.162
			c-0.061,0.014-0.12,0.028-0.181,0.042c-0.054-0.221-0.104-0.442-0.158-0.662c1.56-0.359,3.116-0.696,4.674-1.01
			c0.047,0.222,0.093,0.445,0.138,0.667c-0.107,0.021-0.215,0.043-0.32,0.066c-0.484,0.098-0.82,0.333-1.003,0.705
			c-0.183,0.37-0.222,0.791-0.116,1.258c0.363,1.625,0.733,3.249,1.108,4.873c0.25,1.083,0.056,2.037-0.568,2.867
			c-0.629,0.838-1.619,1.411-2.986,1.743c-0.976,0.238-1.873,0.307-2.687,0.202c-0.812-0.105-1.446-0.345-1.894-0.724
			c-0.448-0.38-0.792-0.949-1.021-1.71c-0.591-1.954-1.168-3.908-1.733-5.863c-0.079-0.272-0.194-0.443-0.345-0.511
			c-0.15-0.068-0.383-0.06-0.697,0.027c-0.301,0.083-0.602,0.167-0.901,0.252C59.032,136.823,58.964,136.605,58.9,136.387z"/>
		<path fill="#FFFFFF" d="M85.062,141.318c0.032,0.226,0.066,0.451,0.098,0.676c-1.446,0.192-2.893,0.405-4.34,0.638
			c-0.039-0.224-0.08-0.449-0.119-0.673c0.152-0.024,0.307-0.049,0.459-0.072c0.242-0.038,0.414-0.125,0.512-0.258
			c0.1-0.134,0.131-0.311,0.096-0.533c-0.164-0.979-0.323-1.959-0.483-2.938c-0.082-0.501-0.266-0.867-0.564-1.096
			c-0.295-0.228-0.649-0.31-1.059-0.243c-0.561,0.091-0.981,0.355-1.264,0.792c-0.284,0.437-0.355,1.02-0.22,1.746
			c0.138,0.752,0.28,1.505,0.423,2.258c0.043,0.221,0.134,0.377,0.277,0.472c0.142,0.094,0.31,0.125,0.5,0.093
			c0.183-0.031,0.366-0.062,0.55-0.092c0.042,0.224,0.083,0.448,0.121,0.672c-1.502,0.25-3.005,0.521-4.507,0.814
			c-0.047-0.223-0.095-0.445-0.144-0.668c0.196-0.039,0.394-0.077,0.589-0.114c0.227-0.043,0.386-0.133,0.479-0.27
			c0.09-0.137,0.116-0.314,0.07-0.535c-0.273-1.335-0.54-2.671-0.806-4.007c-0.044-0.23-0.169-0.398-0.368-0.502
			c-0.2-0.104-0.445-0.129-0.729-0.075c-0.107,0.021-0.215,0.042-0.322,0.062c-0.041-0.208-0.086-0.416-0.127-0.625
			c1.043-0.255,2.084-0.5,3.129-0.735c0.188,0.395,0.364,0.872,0.528,1.434c0.339-0.609,0.734-1.088,1.188-1.435
			c0.453-0.347,0.957-0.565,1.511-0.65c0.752-0.117,1.383,0.021,1.884,0.408c0.496,0.387,0.799,0.985,0.916,1.787
			c0.156,1.049,0.313,2.098,0.472,3.147c0.035,0.242,0.122,0.407,0.257,0.497c0.137,0.091,0.331,0.116,0.59,0.082
			C84.795,141.355,84.929,141.337,85.062,141.318z"/>
		<path fill="#FFFFFF" d="M85.582,135.024c1.113-0.185,2.228-0.358,3.342-0.521c0.206,1.93,0.418,3.859,0.631,5.79
			c0.019,0.155,0.084,0.27,0.199,0.344c0.115,0.074,0.282,0.099,0.499,0.078c0.162-0.016,0.324-0.032,0.487-0.047
			c0.024,0.226,0.047,0.452,0.07,0.678c-1.442,0.14-2.887,0.299-4.332,0.478c-0.03-0.225-0.059-0.45-0.091-0.675
			c0.161-0.021,0.321-0.04,0.479-0.059c0.26-0.031,0.434-0.108,0.525-0.232c0.092-0.125,0.118-0.324,0.086-0.601
			c-0.166-1.313-0.328-2.628-0.487-3.942c-0.029-0.247-0.132-0.429-0.308-0.546c-0.172-0.117-0.399-0.159-0.679-0.125
			c-0.113,0.014-0.226,0.027-0.337,0.041C85.64,135.464,85.611,135.244,85.582,135.024z M87.209,130.849
			c0.371-0.042,0.701,0.041,0.988,0.242c0.286,0.203,0.448,0.47,0.483,0.8c0.034,0.331-0.069,0.624-0.304,0.883
			c-0.234,0.257-0.535,0.407-0.899,0.447c-0.37,0.041-0.698-0.039-0.987-0.241c-0.291-0.202-0.455-0.464-0.493-0.79
			c-0.039-0.328,0.056-0.625,0.294-0.887C86.525,131.043,86.834,130.891,87.209,130.849z"/>
		<path fill="#FFFFFF" d="M91.124,134.429c1.503-0.135,3.007-0.25,4.509-0.345c0.014,0.217,0.027,0.434,0.042,0.651
			c-0.123,0.007-0.247,0.016-0.37,0.023c-0.294,0.019-0.492,0.067-0.594,0.142c-0.106,0.077-0.147,0.177-0.14,0.303
			c0.009,0.138,0.08,0.299,0.211,0.485c0.718,1.04,1.422,2.084,2.114,3.134c0.482-1.045,0.975-2.087,1.479-3.128
			c0.08-0.155,0.117-0.309,0.108-0.459c-0.02-0.415-0.41-0.614-1.171-0.595c-0.013-0.217-0.023-0.435-0.035-0.651
			c1.1-0.058,2.199-0.104,3.298-0.141c0.008,0.217,0.016,0.435,0.021,0.652c-0.298,0.039-0.525,0.112-0.681,0.217
			c-0.157,0.107-0.297,0.278-0.415,0.51c-0.967,1.96-1.889,3.927-2.771,5.902c-0.186,0.011-0.37,0.022-0.555,0.033
			c-1.241-1.868-2.523-3.721-3.844-5.559c-0.177-0.245-0.33-0.401-0.458-0.468c-0.126-0.068-0.29-0.093-0.487-0.075
			c-0.069,0.006-0.134,0.012-0.202,0.018C91.165,134.862,91.145,134.646,91.124,134.429z"/>
		<path fill="#FFFFFF" d="M109.396,137.27c-1.724-0.037-3.449-0.046-5.175-0.028c0.027,0.962,0.242,1.668,0.641,2.122
			s0.905,0.68,1.523,0.682c0.443,0.001,0.863-0.113,1.264-0.343c0.402-0.229,0.815-0.649,1.251-1.256
			c0.187,0.113,0.376,0.228,0.563,0.341c-0.461,0.722-0.973,1.236-1.541,1.544c-0.568,0.308-1.255,0.459-2.067,0.46
			c-1.182,0.001-2.14-0.328-2.886-0.998c-0.749-0.669-1.143-1.535-1.173-2.604c-0.031-1.069,0.327-1.973,1.076-2.707
			c0.753-0.731,1.698-1.103,2.817-1.105c0.778,0,1.444,0.147,1.997,0.441c0.554,0.295,0.979,0.723,1.273,1.282
			C109.258,135.664,109.401,136.386,109.396,137.27z M104.212,136.575c0.825-0.009,1.651-0.011,2.476-0.008
			c0.23,0.001,0.398-0.05,0.499-0.157c0.1-0.106,0.152-0.301,0.155-0.584c0.004-0.566-0.131-1.006-0.413-1.318
			c-0.28-0.312-0.644-0.468-1.08-0.468c-0.521,0-0.917,0.212-1.188,0.635C104.389,135.097,104.24,135.73,104.212,136.575z"/>
		<path fill="#FFFFFF" d="M115.921,140.25c-0.014,0.227-0.03,0.453-0.046,0.68c-1.682-0.106-3.365-0.186-5.047-0.238
			c0.009-0.227,0.015-0.454,0.023-0.681c0.208,0.007,0.419,0.013,0.628,0.021c0.26,0.009,0.448-0.031,0.572-0.122
			c0.119-0.09,0.187-0.215,0.194-0.377c0.06-1.352,0.115-2.702,0.172-4.054c0.013-0.327-0.058-0.569-0.216-0.727
			c-0.159-0.157-0.384-0.242-0.677-0.251c-0.144-0.005-0.284-0.01-0.427-0.015c0.007-0.214,0.013-0.429,0.021-0.644
			c1.076-0.017,2.155-0.023,3.235-0.021c-0.038,0.744-0.078,1.487-0.119,2.231c0.228-0.737,0.585-1.292,1.075-1.666
			c0.49-0.373,1.031-0.542,1.62-0.502c0.5,0.034,0.891,0.183,1.159,0.446c0.272,0.262,0.395,0.584,0.361,0.963
			c-0.025,0.326-0.146,0.583-0.361,0.77c-0.215,0.187-0.463,0.271-0.752,0.251c-0.252-0.018-0.47-0.121-0.639-0.309
			c-0.172-0.188-0.248-0.417-0.23-0.69c0.011-0.151,0.065-0.306,0.163-0.466c0.054-0.09,0.079-0.154,0.083-0.193
			c0.008-0.068-0.01-0.119-0.043-0.154c-0.031-0.034-0.086-0.054-0.16-0.059c-0.191-0.012-0.411,0.078-0.652,0.269
			c-0.373,0.295-0.696,0.772-0.975,1.428c-0.274,0.658-0.433,1.329-0.471,2.011c-0.027,0.492-0.055,0.984-0.084,1.477
			c-0.01,0.172,0.033,0.304,0.124,0.399c0.094,0.096,0.229,0.147,0.404,0.158C115.214,140.207,115.568,140.228,115.921,140.25z"/>
		<path fill="#FFFFFF" d="M124.902,135.062c0.199-0.171,0.398-0.341,0.599-0.512c0.164,0.02,0.328,0.04,0.494,0.06
			c-0.043,0.782-0.09,1.564-0.137,2.345c-0.216-0.026-0.431-0.052-0.646-0.078c-0.263-0.66-0.588-1.137-0.967-1.435
			c-0.383-0.297-0.865-0.477-1.453-0.538c-0.503-0.052-0.899-0.001-1.18,0.149c-0.278,0.15-0.431,0.359-0.456,0.628
			c-0.028,0.264,0.056,0.473,0.244,0.627c0.188,0.162,0.725,0.367,1.608,0.627c0.799,0.237,1.328,0.426,1.585,0.559
			c0.492,0.249,0.854,0.58,1.094,0.988c0.237,0.408,0.32,0.862,0.253,1.361c-0.086,0.63-0.432,1.125-1.024,1.488
			c-0.595,0.364-1.327,0.497-2.199,0.402c-0.42-0.044-0.796-0.131-1.127-0.259c-0.331-0.13-0.668-0.331-1.018-0.604
			c-0.205,0.187-0.41,0.375-0.612,0.562c-0.193-0.017-0.39-0.034-0.586-0.051c0.034-0.865,0.065-1.73,0.098-2.595
			c0.216,0.019,0.435,0.038,0.651,0.057c0.432,1.353,1.3,2.089,2.629,2.23c0.549,0.059,0.976,0.007,1.294-0.159
			c0.31-0.166,0.489-0.385,0.524-0.663c0.035-0.252-0.035-0.455-0.202-0.607s-0.633-0.35-1.406-0.584
			c-0.836-0.252-1.402-0.446-1.699-0.592c-0.512-0.241-0.884-0.54-1.124-0.901c-0.237-0.362-0.335-0.78-0.293-1.257
			c0.061-0.681,0.36-1.218,0.901-1.607c0.541-0.39,1.235-0.544,2.078-0.458c0.411,0.042,0.771,0.125,1.09,0.248
			C124.231,134.617,124.56,134.806,124.902,135.062z"/>
		<path fill="#FFFFFF" d="M128.122,135.259c1.128,0.105,2.253,0.223,3.384,0.352c-0.312,1.917-0.631,3.833-0.958,5.75
			c-0.028,0.154,0.005,0.282,0.099,0.382c0.091,0.102,0.243,0.168,0.463,0.203c0.162,0.027,0.326,0.053,0.488,0.08
			c-0.039,0.224-0.08,0.448-0.121,0.672c-1.445-0.236-2.891-0.453-4.337-0.648c0.033-0.225,0.065-0.45,0.101-0.675
			c0.159,0.021,0.321,0.043,0.48,0.065c0.259,0.036,0.447,0.006,0.572-0.089c0.122-0.096,0.207-0.282,0.249-0.557
			c0.202-1.31,0.403-2.619,0.6-3.929c0.034-0.247-0.011-0.448-0.151-0.606c-0.135-0.157-0.346-0.256-0.625-0.294
			c-0.112-0.016-0.225-0.031-0.337-0.046C128.06,135.699,128.09,135.479,128.122,135.259z M130.793,131.641
			c0.372,0.055,0.669,0.218,0.9,0.487c0.227,0.271,0.316,0.57,0.263,0.896c-0.05,0.33-0.229,0.586-0.526,0.776
			c-0.299,0.188-0.63,0.255-0.994,0.202c-0.368-0.054-0.668-0.216-0.896-0.485c-0.23-0.27-0.321-0.565-0.273-0.89
			c0.045-0.328,0.217-0.589,0.516-0.782C130.08,131.654,130.42,131.585,130.793,131.641z"/>
		<path fill="#FFFFFF" d="M137.005,133.83c0.244,0.045,0.491,0.091,0.733,0.138c-0.183,0.923-0.366,1.846-0.553,2.768
			c0.834,0.16,1.667,0.325,2.501,0.497c-0.058,0.258-0.114,0.516-0.171,0.774c-0.83-0.171-1.658-0.335-2.487-0.494
			c-0.29,1.425-0.582,2.851-0.883,4.276c-0.059,0.283-0.028,0.517,0.095,0.703c0.127,0.185,0.312,0.303,0.566,0.353
			c0.729,0.144,1.252-0.4,1.574-1.639c0.234,0.048,0.466,0.097,0.701,0.146c-0.167,0.66-0.406,1.169-0.711,1.529
			c-0.305,0.36-0.679,0.609-1.121,0.75c-0.444,0.141-0.912,0.164-1.403,0.068c-0.434-0.083-0.789-0.234-1.071-0.456
			c-0.283-0.222-0.488-0.512-0.612-0.869c-0.123-0.358-0.151-0.727-0.077-1.106c0.268-1.383,0.533-2.767,0.794-4.15
			c-0.445-0.079-0.89-0.157-1.336-0.232c0.039-0.221,0.079-0.442,0.118-0.664c0.838,0.043,1.531-0.124,2.083-0.506
			C136.293,135.333,136.718,134.706,137.005,133.83z"/>
		<path fill="#FFFFFF" d="M148.17,145.452c0.057,0.198,0.113,0.397,0.17,0.596c-0.377,0.112-0.699,0.172-0.972,0.18
			c-0.272,0.008-0.558-0.026-0.856-0.105c-0.441-0.115-0.775-0.293-0.996-0.535c-0.223-0.242-0.378-0.63-0.473-1.165
			c-0.665,0.346-1.226,0.557-1.689,0.627c-0.462,0.073-0.955,0.048-1.48-0.074c-0.726-0.167-1.249-0.449-1.581-0.847
			c-0.33-0.399-0.439-0.836-0.327-1.313c0.17-0.72,0.688-1.215,1.564-1.477c0.7-0.204,2.141-0.245,4.334-0.063
			c0.088-0.32,0.176-0.639,0.262-0.958c0.102-0.377,0.045-0.723-0.178-1.031c-0.221-0.311-0.573-0.523-1.052-0.638
			c-0.368-0.088-0.71-0.094-1.021-0.023c-0.215,0.048-0.329,0.116-0.352,0.207c-0.013,0.048,0.004,0.127,0.051,0.238
			c0.098,0.249,0.121,0.477,0.064,0.686c-0.066,0.267-0.218,0.457-0.457,0.576c-0.239,0.118-0.522,0.14-0.852,0.065
			c-0.35-0.079-0.608-0.231-0.776-0.458c-0.173-0.226-0.223-0.478-0.157-0.76c0.108-0.46,0.485-0.808,1.137-1.034
			c0.811-0.28,1.749-0.295,2.805-0.041c0.797,0.191,1.475,0.477,2.03,0.85c0.356,0.238,0.611,0.561,0.756,0.965
			c0.148,0.407,0.15,0.859,0.006,1.358c-0.323,1.121-0.65,2.24-0.981,3.358c-0.074,0.255-0.077,0.451-0.009,0.591
			c0.07,0.14,0.193,0.234,0.375,0.282C147.663,145.551,147.881,145.531,148.17,145.452z M147.106,137.381
			c-0.087,0.042-0.175,0.083-0.26,0.125c-0.7-0.5-1.408-0.995-2.117-1.485c-0.374-0.257-0.608-0.465-0.709-0.627
			c-0.1-0.161-0.129-0.329-0.088-0.505c0.046-0.199,0.187-0.359,0.42-0.476c0.23-0.117,0.48-0.146,0.738-0.086
			c0.239,0.056,0.446,0.163,0.617,0.323c0.168,0.159,0.358,0.451,0.56,0.878C146.553,136.146,146.831,136.763,147.106,137.381z
			 M145.694,141.894c-1.169-0.145-1.989-0.112-2.459,0.082c-0.472,0.194-0.765,0.527-0.886,0.998
			c-0.088,0.333-0.058,0.609,0.08,0.83c0.138,0.222,0.372,0.37,0.702,0.449c0.514,0.123,0.983,0.058,1.417-0.193
			c0.432-0.252,0.731-0.667,0.892-1.249C145.527,142.503,145.609,142.199,145.694,141.894z"/>
	</g>
</g>
</svg>
