<?xml version="1.0" encoding="utf-8"?>
<!-- Generator: Adobe Illustrator 16.0.4, SVG Export Plug-In . SVG Version: 6.00 Build 0)  -->
<!DOCTYPE svg PUBLIC "-//W3C//DTD SVG 1.1//EN" "http://www.w3.org/Graphics/SVG/1.1/DTD/svg11.dtd">
<svg version="1.1" id="Livello_1" xmlns="http://www.w3.org/2000/svg" xmlns:xlink="http://www.w3.org/1999/xlink" x="0px" y="0px"
	 width="210px" height="200px" viewBox="0 0 210 200" enable-background="new 0 0 210 200" xml:space="preserve">
<g>
	<circle fill="#FBC02E" cx="105" cy="100" r="84"/>
	<circle fill="#FABF2D" cx="105" cy="100" r="75.216"/>
	<path fill="#FFFFFF" d="M104.999,177.717c-42.853,0-77.715-34.864-77.715-77.717s34.862-77.717,77.715-77.717
		S182.716,57.147,182.716,100S147.852,177.717,104.999,177.717z M104.999,27.283c-40.095,0-72.715,32.621-72.715,72.717
		s32.62,72.717,72.715,72.717c40.097,0,72.717-32.621,72.717-72.717S145.096,27.283,104.999,27.283z"/>
	<path fill="#FFFFFF" d="M100.554,115.299H83.5l0.474-43.506c-0.551-4.04-3.011-6.182-6.093-6.182c-2.601,0-4.729,1.54-5.668,4.439
		L71.5,115.299H51.906h-0.035c-3.244,0-6.13,2.607-6.13,6.072c0,3.465,2.431,6.689,5.675,6.689c0.036,0,0.055,0.002,0.084,0.003
		v0.236h19.483H83.53h17.023c3.381,0,5.62-3.534,5.62-6.908C106.174,118.019,103.935,116.299,100.554,115.299z M51.516,128.064
		C52.047,128.082,51.592,128.215,51.516,128.064L51.516,128.064z"/>
	<g>
		<path fill="#FFFFFF" d="M142.847,86.046c-4.127-0.584-8.157-0.06-11.806,1.339l-5.002-10.106l5.697-14.445l-13.121-1.856
			c0,0-4.514,2.895-0.646,4.569c2.888,0.409,7.321,1.035,7.321,1.035l-2.617,6.618l-31.19-4.41l3.894-9.546
			c0,0,4.04,0.353,8.083,1.144c3.158-2.052,0.647-4.572,0.647-4.572l-21.339-3.017c0,0-3.323,1.685-0.646,4.572
			c4.673,0.662,8.547,1.209,8.547,1.209l-6.043,14.824L84.49,85.956c0.516-1.266,0.844-2.071,0.844-2.071
			c6.745,3.762,10.848,11.399,9.703,19.49c-0.633,4.477-2.778,8.369-5.834,11.256l6.121,0.01c2.209-3.044,3.73-6.652,4.293-10.629
			c1.447-10.223-3.878-19.858-12.533-24.421l2.891-7.094l19.763,33.538c0,0,0.828,1.862,2.876,2.151
			c2.043,0.289,3.078,0.435,3.078,0.435c-0.535,12.113,8.229,22.908,20.479,24.642c13.02,1.841,25.108-7.251,26.951-20.272
			C164.961,99.977,155.867,87.888,142.847,86.046z M135.506,106.751l-14.559-2.057c1.242-4.677,4.18-8.56,8.029-11.092
			L135.506,106.751z M111.874,100.563L96.301,74.126l24.637,3.484L111.874,100.563z M115.501,103.931l8.251-20.877l3.156,6.38
			c-5.156,3.221-9.066,8.376-10.571,14.616L115.501,103.931z M158.555,112.346c-1.483,10.493-11.229,17.833-21.731,16.349
			c-9.735-1.377-16.72-9.842-16.523-19.421c0,0,15.173,2.146,19.175,2.711c4,0.566,3.089-1.368,3.089-1.368l-9.456-19.076
			c2.828-1.008,5.932-1.375,9.1-0.928C152.711,92.099,160.039,101.853,158.555,112.346z"/>
		<path fill="#FFFFFF" d="M62.801,114.623c-4.361-4.142-6.744-10.248-5.84-16.643c1.127-7.966,7.023-14.097,14.387-15.944
			l0.074-4.758c-9.682,1.903-17.57,9.747-19.028,20.055c-0.897,6.346,0.81,12.466,4.296,17.29H62.801z"/>
	</g>
</g>
<path fill="#FDD835" d="M195.044,168.142c-2.57-5.81-5.418-11.587-8.545-17.312c5.996-2.563,12.201-4.905,18.602-7.004
	c-64.111-26.519-136.189-26.351-200.201,0.503c0.041,0.095,0.08,0.188,0.119,0.283c6.605,2.131,13.006,4.522,19.184,7.149
	c-2.928,5.42-5.605,10.887-8.037,16.382C73.435,144.454,137.774,144.453,195.044,168.142L195.044,168.142L195.044,168.142z"/>
<path fill="#FFFFFF" d="M12.101,170.961l1.514-3.425c2.232-5.043,4.688-10.092,7.311-15.03c-5.701-2.375-11.596-4.547-17.545-6.466
	l-0.654-0.212l-0.967-2.302l1.383-0.58c32.242-13.525,66.318-20.384,101.285-20.384c34.514,0,68.182,6.688,100.07,19.878
	l3.744,1.549l-3.85,1.263c-5.744,1.883-11.443,4.005-16.965,6.316c2.814,5.241,5.439,10.604,7.812,15.966l1.516,3.425l-3.461-1.432
	c-28.318-11.713-58.217-17.651-88.863-17.651c-30.652,0-60.551,5.939-88.869,17.653L12.101,170.961z M7.706,144.312
	c5.4,1.835,10.738,3.871,15.906,6.069l1.516,0.645l-0.783,1.448c-2.283,4.226-4.443,8.542-6.445,12.873
	c27.646-10.932,56.738-16.472,86.531-16.472c29.789,0,58.877,5.539,86.525,16.47c-2.148-4.645-4.48-9.271-6.951-13.796l-0.791-1.45
	l1.518-0.648c4.844-2.071,9.834-3.999,14.879-5.752c-30.412-12.038-62.41-18.137-95.184-18.137
	C71.089,125.562,38.569,131.868,7.706,144.312z"/>
<g>
	<path fill="#FFFFFF" d="M40.661,137.875c3.521-0.996,7.043-1.91,10.563-2.742c1.789-0.422,3.327-0.331,4.593,0.258
		c1.271,0.589,2.024,1.491,2.291,2.688c0.2,0.91,0.07,1.771-0.383,2.584c-0.454,0.814-1.15,1.486-2.097,2.024
		c-0.946,0.538-1.913,0.926-2.912,1.167c-1.068,0.256-2.137,0.521-3.205,0.793c0.461,1.669,0.93,3.338,1.404,5.007
		c0.079,0.277,0.226,0.47,0.446,0.578c0.216,0.107,0.46,0.127,0.732,0.059c0.643-0.162,1.285-0.32,1.928-0.475
		c0.087,0.322,0.174,0.646,0.262,0.969c-2.965,0.718-5.926,1.499-8.889,2.342c-0.103-0.319-0.206-0.639-0.309-0.957
		c0.498-0.142,0.997-0.283,1.496-0.421c0.334-0.093,0.562-0.238,0.685-0.436c0.125-0.198,0.145-0.435,0.061-0.711
		c-1.184-3.883-2.333-7.77-3.45-11.661c-0.075-0.263-0.228-0.444-0.458-0.544c-0.23-0.102-0.479-0.116-0.747-0.042
		c-0.575,0.158-1.148,0.319-1.724,0.481C40.853,138.515,40.757,138.195,40.661,137.875z M49.251,143.701
		c0.716-0.183,1.436-0.362,2.15-0.538c0.752-0.185,1.384-0.486,1.896-0.911c0.513-0.423,0.843-0.866,0.993-1.332
		c0.146-0.464,0.11-1.154-0.108-2.068c-0.302-1.255-0.9-2.053-1.812-2.387c-0.66-0.236-1.688-0.19-3.071,0.15
		c-0.8,0.197-1.293,0.383-1.478,0.551c-0.182,0.17-0.238,0.393-0.164,0.669C48.182,139.792,48.711,141.747,49.251,143.701z"/>
	<path fill="#FFFFFF" d="M64.014,145.24c0.537-0.103,1.03-0.014,1.479,0.268c0.45,0.281,0.722,0.669,0.819,1.162
		c0.101,0.5,0.001,0.959-0.303,1.381c-0.298,0.421-0.713,0.682-1.238,0.783c-0.518,0.1-1,0.012-1.452-0.265
		c-0.449-0.277-0.73-0.662-0.842-1.161c-0.107-0.49-0.012-0.949,0.29-1.375C63.068,145.607,63.488,145.342,64.014,145.24z"/>
	<path fill="#FFFFFF" d="M66.464,132.03c3.134-0.535,6.262-1.007,9.393-1.417c1.522-0.198,2.787-0.174,3.785,0.061
		c0.999,0.235,1.764,0.628,2.292,1.173c0.53,0.545,0.829,1.182,0.906,1.908c0.12,1.161-0.358,2.157-1.427,3.002
		c-0.811,0.646-2.108,1.152-3.895,1.547c0.925,0.018,1.649,0.15,2.176,0.387c0.523,0.239,1.006,0.629,1.447,1.172
		c0.583,0.713,1.086,1.592,1.518,2.633c0.271,0.67,0.488,1.086,0.651,1.249c0.165,0.163,0.339,0.234,0.521,0.216
		c0.503-0.052,0.734-0.705,0.703-1.961c0.335-0.034,0.675-0.066,1.011-0.098c0.058,1.333-0.164,2.313-0.651,2.941
		c-0.492,0.628-1.234,0.993-2.235,1.103c-0.716,0.078-1.307,0.006-1.774-0.221c-0.47-0.226-0.854-0.591-1.15-1.096
		c-0.176-0.289-0.461-0.983-0.856-2.083c-0.46-1.286-0.837-2.142-1.127-2.566c-0.289-0.425-0.633-0.725-1.032-0.896
		c-0.395-0.172-0.865-0.221-1.405-0.146c-0.426,0.058-0.853,0.118-1.276,0.18c0.291,1.931,0.586,3.862,0.886,5.792
		c0.038,0.255,0.147,0.438,0.329,0.55c0.255,0.145,0.532,0.195,0.835,0.153c0.507-0.07,1.015-0.139,1.521-0.206
		c0.048,0.33,0.096,0.66,0.142,0.99c-2.819,0.373-5.639,0.8-8.459,1.284c-0.062-0.328-0.123-0.656-0.184-0.984
		c0.439-0.075,0.878-0.149,1.316-0.222c0.339-0.056,0.582-0.18,0.729-0.375c0.144-0.194,0.191-0.439,0.139-0.736
		c-0.686-3.939-1.348-7.88-1.993-11.821c-0.053-0.325-0.175-0.551-0.37-0.676c-0.193-0.124-0.448-0.161-0.764-0.109
		c-0.508,0.083-1.018,0.169-1.527,0.256C66.579,132.686,66.521,132.358,66.464,132.03z M73.891,138.162
		c0.49-0.071,0.981-0.14,1.472-0.208c1.305-0.179,2.29-0.61,2.97-1.308c0.509-0.533,0.697-1.345,0.564-2.44
		c-0.124-1.009-0.497-1.713-1.126-2.108c-0.631-0.396-1.655-0.504-3.066-0.312c-0.758,0.104-1.224,0.244-1.396,0.417
		c-0.172,0.173-0.222,0.511-0.148,1.014C73.4,134.865,73.644,136.513,73.891,138.162z"/>
	<path fill="#FFFFFF" d="M93.1,134.278c1.243-0.073,2.4,0.113,3.459,0.555c1.062,0.442,1.853,1.05,2.38,1.816
		c0.528,0.768,0.807,1.704,0.84,2.806c0.055,1.762-0.546,3.129-1.774,4.12c-1.23,0.989-2.629,1.526-4.223,1.62
		c-1.126,0.065-2.177-0.106-3.153-0.52c-0.977-0.414-1.76-1.005-2.34-1.78c-0.583-0.775-0.927-1.675-1.02-2.702
		c-0.144-1.547,0.332-2.898,1.439-4.037C89.814,135.017,91.288,134.384,93.1,134.278z M93.23,135.292
		c-0.82,0.047-1.449,0.417-1.889,1.104c-0.436,0.685-0.593,1.851-0.472,3.494c0.125,1.708,0.447,2.867,0.956,3.482
		c0.509,0.616,1.154,0.899,1.94,0.853c0.799-0.047,1.428-0.413,1.886-1.102s0.651-1.848,0.572-3.48
		c-0.078-1.674-0.386-2.83-0.919-3.468C94.769,135.539,94.077,135.243,93.23,135.292z"/>
	<path fill="#FFFFFF" d="M109.438,134.761c0.26-0.28,0.523-0.56,0.786-0.837c0.243,0.003,0.484,0.007,0.728,0.013
		c0.056,1.147,0.114,2.293,0.165,3.441c-0.314-0.006-0.629-0.012-0.948-0.017c-0.48-0.921-1.026-1.571-1.626-1.946
		c-0.598-0.375-1.328-0.565-2.188-0.564c-0.74,0.001-1.304,0.134-1.688,0.396c-0.384,0.262-0.574,0.59-0.568,0.984
		c0.007,0.388,0.157,0.681,0.455,0.879c0.299,0.206,1.113,0.423,2.433,0.669c1.198,0.225,1.99,0.421,2.385,0.576
		c0.749,0.289,1.328,0.716,1.738,1.276c0.409,0.56,0.603,1.209,0.584,1.947c-0.023,0.932-0.441,1.704-1.243,2.324
		c-0.801,0.62-1.834,0.923-3.112,0.918c-0.618-0.002-1.177-0.072-1.676-0.208c-0.501-0.138-1.024-0.38-1.574-0.725
		c-0.266,0.304-0.532,0.608-0.795,0.913c-0.285,0.005-0.572,0.009-0.857,0.015c-0.095-1.266-0.188-2.532-0.283-3.798
		c0.316-0.007,0.635-0.012,0.955-0.017c0.846,1.906,2.226,2.847,4.174,2.853c0.799,0.003,1.412-0.138,1.843-0.428
		c0.428-0.288,0.646-0.636,0.653-1.045c0.007-0.373-0.123-0.658-0.391-0.854c-0.264-0.197-0.974-0.415-2.13-0.641
		c-1.247-0.24-2.104-0.437-2.559-0.605c-0.778-0.273-1.369-0.652-1.772-1.144c-0.404-0.491-0.614-1.085-0.627-1.787
		c-0.019-1.002,0.327-1.831,1.053-2.482c0.723-0.651,1.71-0.982,2.945-0.984c0.604,0,1.144,0.065,1.623,0.198
		C108.398,134.213,108.9,134.439,109.438,134.761z"/>
	<path fill="#FFFFFF" d="M134.887,145.323c-0.046,0.33-0.092,0.66-0.139,0.99c-2.13-0.275-4.259-0.519-6.388-0.73
		c0.035-0.332,0.071-0.663,0.107-0.994c0.221,0.021,0.437,0.043,0.659,0.066c0.401,0.042,0.69-0.004,0.871-0.135
		c0.182-0.131,0.29-0.354,0.325-0.667c0.168-1.446,0.333-2.893,0.497-4.339c0.091-0.804-0.024-1.417-0.347-1.839
		c-0.32-0.422-0.807-0.667-1.462-0.731c-0.533-0.053-1.002,0.013-1.404,0.194c-0.401,0.184-0.759,0.516-1.082,1.002
		c-0.317,0.484-0.5,0.974-0.544,1.465c-0.117,1.307-0.238,2.614-0.359,3.921c-0.023,0.257,0.032,0.458,0.173,0.608
		c0.14,0.149,0.337,0.234,0.595,0.257c0.291,0.026,0.581,0.053,0.874,0.081c-0.034,0.331-0.068,0.664-0.102,0.994
		c-2.167-0.204-4.333-0.375-6.5-0.515c0.023-0.332,0.046-0.664,0.07-0.997c0.242,0.016,0.483,0.031,0.727,0.048
		c0.393,0.027,0.663-0.015,0.81-0.126c0.186-0.145,0.29-0.364,0.313-0.657c0.116-1.507,0.231-3.013,0.347-4.521
		c0.055-0.722-0.097-1.296-0.461-1.724c-0.361-0.428-0.848-0.662-1.451-0.7c-0.471-0.03-0.915,0.055-1.335,0.253
		c-0.415,0.198-0.779,0.523-1.091,0.973c-0.31,0.45-0.474,0.868-0.493,1.254c-0.07,1.312-0.142,2.625-0.214,3.937
		c-0.021,0.402,0.037,0.676,0.184,0.828c0.193,0.197,0.476,0.305,0.848,0.326c0.207,0.011,0.417,0.023,0.623,0.036
		c-0.021,0.332-0.041,0.665-0.062,0.998c-2.179-0.129-4.356-0.225-6.534-0.288c0.01-0.333,0.021-0.666,0.032-0.999
		c0.25,0.007,0.498,0.015,0.748,0.022c0.404,0.014,0.684-0.046,0.843-0.18c0.161-0.134,0.251-0.369,0.263-0.705
		c0.081-2.012,0.159-4.024,0.238-6.036c0.011-0.271-0.039-0.489-0.146-0.655c-0.109-0.165-0.281-0.294-0.522-0.389
		c-0.177-0.071-0.546-0.115-1.107-0.132c0.011-0.326,0.021-0.651,0.031-0.977c1.527-0.03,3.055-0.045,4.585-0.045
		c0.141,0.698,0.215,1.448,0.229,2.247c0.796-0.837,1.562-1.409,2.279-1.715c0.721-0.306,1.496-0.431,2.316-0.373
		c0.887,0.062,1.608,0.321,2.153,0.772c0.547,0.451,0.921,1.099,1.122,1.938c0.824-0.831,1.627-1.397,2.404-1.699
		c0.775-0.302,1.572-0.41,2.379-0.325c1.127,0.119,1.979,0.537,2.551,1.246c0.571,0.716,0.776,1.662,0.628,2.835
		c-0.205,1.592-0.409,3.184-0.618,4.775c-0.043,0.327,0.006,0.571,0.141,0.732c0.14,0.162,0.371,0.262,0.699,0.303
		C134.421,145.263,134.653,145.293,134.887,145.323z"/>
	<path fill="#FFFFFF" d="M137.501,136.527c1.652,0.155,3.309,0.327,4.967,0.518c-0.457,2.812-0.928,5.623-1.406,8.433
		c-0.037,0.226,0.012,0.413,0.145,0.561c0.135,0.149,0.359,0.249,0.678,0.299c0.239,0.039,0.478,0.078,0.715,0.117
		c-0.057,0.328-0.117,0.657-0.177,0.985c-2.118-0.349-4.235-0.667-6.352-0.954c0.049-0.329,0.097-0.659,0.146-0.989
		c0.233,0.031,0.47,0.063,0.703,0.096c0.38,0.053,0.66,0.009,0.84-0.132c0.182-0.142,0.303-0.413,0.365-0.816
		c0.298-1.92,0.588-3.841,0.879-5.761c0.053-0.362-0.021-0.658-0.225-0.89c-0.202-0.231-0.507-0.376-0.918-0.432
		c-0.166-0.023-0.332-0.045-0.496-0.068C137.411,137.173,137.455,136.851,137.501,136.527z M141.422,131.222
		c0.544,0.08,0.984,0.319,1.32,0.715c0.337,0.397,0.465,0.835,0.388,1.317c-0.076,0.481-0.336,0.859-0.773,1.137
		c-0.438,0.276-0.925,0.374-1.458,0.294c-0.544-0.08-0.981-0.317-1.315-0.712c-0.336-0.395-0.471-0.829-0.402-1.305
		c0.07-0.482,0.32-0.864,0.758-1.146C140.374,131.241,140.871,131.14,141.422,131.222z"/>
	<path fill="#FFFFFF" d="M158.817,149.739c-0.087,0.323-0.174,0.646-0.261,0.969c-2.12-0.51-4.237-0.988-6.358-1.434
		c0.076-0.326,0.151-0.65,0.228-0.976c0.225,0.047,0.444,0.094,0.669,0.142c0.355,0.077,0.641,0.049,0.854-0.08
		c0.217-0.13,0.362-0.355,0.44-0.676c0.338-1.419,0.677-2.837,1.011-4.256c0.172-0.727,0.118-1.324-0.163-1.793
		c-0.284-0.467-0.726-0.766-1.329-0.892c-0.822-0.172-1.551-0.032-2.184,0.417c-0.63,0.447-1.056,1.204-1.278,2.264
		c-0.234,1.099-0.468,2.198-0.704,3.296c-0.071,0.322-0.034,0.586,0.107,0.79c0.144,0.204,0.353,0.333,0.632,0.39
		c0.27,0.054,0.539,0.109,0.809,0.165c-0.073,0.325-0.149,0.651-0.223,0.977c-2.202-0.452-4.406-0.87-6.611-1.254
		c0.062-0.327,0.125-0.655,0.188-0.983c0.289,0.05,0.576,0.102,0.864,0.152c0.333,0.06,0.6,0.021,0.806-0.117
		c0.203-0.138,0.341-0.369,0.404-0.693c0.39-1.959,0.776-3.92,1.154-5.881c0.065-0.338-0.011-0.631-0.229-0.879
		c-0.217-0.246-0.536-0.407-0.952-0.48c-0.156-0.028-0.316-0.056-0.472-0.083c0.057-0.307,0.112-0.613,0.169-0.92
		c1.559,0.195,3.12,0.407,4.684,0.634c0.044,0.637,0.021,1.381-0.067,2.234c0.805-0.653,1.615-1.098,2.434-1.333
		c0.815-0.234,1.635-0.264,2.449-0.088c1.107,0.238,1.906,0.76,2.386,1.555c0.471,0.792,0.56,1.767,0.269,2.923
		c-0.38,1.512-0.763,3.023-1.151,4.534c-0.091,0.349-0.07,0.619,0.068,0.813c0.134,0.194,0.389,0.335,0.769,0.425
		C158.422,149.645,158.62,149.691,158.817,149.739z"/>
	<path fill="#FFFFFF" d="M163.151,141.443c1.666,0.344,3.331,0.707,5,1.087c-0.802,2.744-1.622,5.485-2.458,8.225
		c-0.066,0.221-0.04,0.412,0.077,0.575c0.118,0.164,0.334,0.288,0.652,0.376c0.238,0.065,0.477,0.132,0.716,0.2
		c-0.1,0.318-0.204,0.639-0.303,0.958c-2.115-0.593-4.23-1.154-6.346-1.682c0.091-0.322,0.178-0.645,0.27-0.967
		c0.236,0.059,0.468,0.118,0.703,0.177c0.38,0.096,0.668,0.084,0.871-0.034c0.2-0.12,0.355-0.376,0.471-0.771
		c0.537-1.875,1.069-3.751,1.593-5.627c0.101-0.354,0.062-0.657-0.119-0.91c-0.179-0.253-0.475-0.432-0.883-0.535
		c-0.167-0.042-0.331-0.082-0.497-0.124C162.984,142.075,163.067,141.759,163.151,141.443z M167.767,136.618
		c0.548,0.143,0.97,0.432,1.268,0.864c0.295,0.434,0.375,0.885,0.241,1.354c-0.136,0.47-0.444,0.815-0.924,1.042
		c-0.478,0.224-0.985,0.265-1.522,0.124c-0.546-0.142-0.962-0.428-1.259-0.859c-0.295-0.431-0.381-0.879-0.258-1.344
		c0.128-0.472,0.428-0.823,0.906-1.054C166.695,136.516,167.213,136.474,167.767,136.618z"/>
</g>
</svg>
