<?xml version="1.0" encoding="utf-8"?>
<!-- Generator: Adobe Illustrator 16.0.4, SVG Export Plug-In . SVG Version: 6.00 Build 0)  -->
<!DOCTYPE svg PUBLIC "-//W3C//DTD SVG 1.1//EN" "http://www.w3.org/Graphics/SVG/1.1/DTD/svg11.dtd">
<svg version="1.1" id="Livello_1" xmlns="http://www.w3.org/2000/svg" xmlns:xlink="http://www.w3.org/1999/xlink" x="0px" y="0px"
	 width="210px" height="200px" viewBox="0 0 210 200" enable-background="new 0 0 210 200" xml:space="preserve">
<g>
	<circle fill="#FBC02E" cx="105" cy="100" r="84"/>
	<circle fill="#FABF2D" cx="105" cy="100" r="75.216"/>
	<path fill="#FFFFFF" d="M104.999,177.717c-42.853,0-77.715-34.864-77.715-77.717s34.862-77.717,77.715-77.717
		S182.716,57.147,182.716,100S147.852,177.717,104.999,177.717z M104.999,27.283c-40.095,0-72.715,32.621-72.715,72.717
		s32.62,72.717,72.715,72.717c40.097,0,72.717-32.621,72.717-72.717S145.096,27.283,104.999,27.283z"/>
	<path fill="#FFFFFF" d="M100.554,115.299H83.5l0.474-43.506c-0.551-4.04-3.011-6.182-6.093-6.182c-2.601,0-4.729,1.54-5.668,4.439
		L71.5,115.299H51.906h-0.035c-3.244,0-6.13,2.607-6.13,6.072c0,3.465,2.431,6.689,5.675,6.689c0.036,0,0.055,0.002,0.084,0.003
		v0.236h19.483H83.53h17.023c3.381,0,5.62-3.534,5.62-6.908C106.174,118.019,103.935,116.299,100.554,115.299z M51.516,128.064
		C52.047,128.082,51.592,128.215,51.516,128.064L51.516,128.064z"/>
	<g>
		<path fill="#FFFFFF" d="M142.847,86.046c-4.127-0.584-8.157-0.06-11.806,1.339l-5.002-10.106l5.697-14.445l-13.121-1.856
			c0,0-4.514,2.895-0.646,4.569c2.888,0.409,7.321,1.035,7.321,1.035l-2.617,6.618l-31.19-4.41l3.894-9.546
			c0,0,4.04,0.353,8.083,1.144c3.158-2.052,0.647-4.572,0.647-4.572l-21.339-3.017c0,0-3.323,1.685-0.646,4.572
			c4.673,0.662,8.547,1.209,8.547,1.209l-6.043,14.824L84.49,85.956c0.516-1.266,0.844-2.071,0.844-2.071
			c6.745,3.762,10.848,11.399,9.703,19.49c-0.633,4.477-2.778,8.369-5.834,11.256l6.121,0.01c2.209-3.044,3.73-6.652,4.293-10.629
			c1.447-10.223-3.878-19.858-12.533-24.421l2.891-7.094l19.763,33.538c0,0,0.828,1.862,2.876,2.151
			c2.043,0.289,3.078,0.435,3.078,0.435c-0.535,12.113,8.229,22.908,20.479,24.642c13.02,1.841,25.108-7.251,26.951-20.272
			C164.961,99.977,155.867,87.888,142.847,86.046z M135.506,106.751l-14.559-2.057c1.242-4.677,4.18-8.56,8.029-11.092
			L135.506,106.751z M111.874,100.563L96.301,74.126l24.637,3.484L111.874,100.563z M115.501,103.931l8.251-20.877l3.156,6.38
			c-5.156,3.221-9.066,8.376-10.571,14.616L115.501,103.931z M158.555,112.346c-1.483,10.493-11.229,17.833-21.731,16.349
			c-9.735-1.377-16.72-9.842-16.523-19.421c0,0,15.173,2.146,19.175,2.711c4,0.566,3.089-1.368,3.089-1.368l-9.456-19.076
			c2.828-1.008,5.932-1.375,9.1-0.928C152.711,92.099,160.039,101.853,158.555,112.346z"/>
		<path fill="#FFFFFF" d="M62.801,114.623c-4.361-4.142-6.744-10.248-5.84-16.643c1.127-7.966,7.023-14.097,14.387-15.944
			l0.074-4.758c-9.682,1.903-17.57,9.747-19.028,20.055c-0.897,6.346,0.81,12.466,4.296,17.29H62.801z"/>
	</g>
</g>
<path fill="#FDD835" d="M195.043,168.142c-2.57-5.81-5.418-11.587-8.545-17.312c5.996-2.563,12.201-4.905,18.602-7.004
	C140.988,117.308,68.912,117.476,4.9,144.329c0.041,0.095,0.08,0.188,0.119,0.283c6.605,2.131,13.004,4.522,19.182,7.149
	c-2.928,5.42-5.605,10.887-8.037,16.382C73.436,144.454,137.773,144.453,195.043,168.142L195.043,168.142L195.043,168.142z"/>
<path fill="#FFFFFF" d="M12.102,170.961l1.514-3.425c2.23-5.043,4.686-10.092,7.309-15.03c-5.701-2.375-11.594-4.547-17.543-6.466
	l-0.654-0.212l-0.967-2.302l1.383-0.58c32.242-13.525,66.318-20.384,101.283-20.384c34.514,0,68.182,6.688,100.07,19.878
	l3.744,1.549l-3.85,1.263c-5.744,1.883-11.443,4.005-16.965,6.316c2.814,5.241,5.439,10.604,7.812,15.966l1.516,3.425l-3.461-1.432
	c-28.318-11.713-58.217-17.651-88.863-17.651c-30.65,0-60.549,5.939-88.869,17.653L12.102,170.961z M7.707,144.312
	c5.4,1.835,10.736,3.871,15.904,6.069l1.516,0.645l-0.783,1.448c-2.283,4.226-4.443,8.542-6.445,12.873
	c27.648-10.932,56.74-16.472,86.531-16.472c29.789,0,58.877,5.539,86.525,16.47c-2.148-4.645-4.48-9.271-6.951-13.796l-0.791-1.45
	l1.518-0.648c4.844-2.071,9.834-3.999,14.879-5.752c-30.412-12.038-62.41-18.137-95.184-18.137
	C71.09,125.562,38.57,131.868,7.707,144.312z"/>
<g>
	<path fill="#FFFFFF" d="M54.057,133.084c1.777-0.412,3.5-0.419,5.146-0.025c1.648,0.395,3.004,1.132,4.076,2.198
		c1.072,1.066,1.75,2.375,2.064,3.913c0.475,2.342,0,4.453-1.369,6.354c-1.369,1.902-3.271,3.121-5.781,3.707
		c-1.668,0.39-3.26,0.409-4.791,0.052c-1.533-0.357-2.875-1.015-4.021-1.984c-1.143-0.967-1.969-2.228-2.451-3.789
		c-0.715-2.318-0.406-4.483,0.975-6.475C49.287,135.045,51.359,133.71,54.057,133.084z M54.379,134.07
		c-1.008,0.233-1.826,0.671-2.447,1.306c-0.619,0.634-1.01,1.515-1.162,2.634c-0.156,1.121,0.016,2.559,0.512,4.317
		c0.521,1.847,1.117,3.196,1.766,4.052c0.652,0.855,1.398,1.421,2.242,1.704c0.844,0.281,1.738,0.31,2.686,0.088
		c1.404-0.327,2.387-1.109,2.977-2.364c0.586-1.255,0.578-3.209-0.023-5.868c-0.422-1.861-0.924-3.219-1.516-4.073
		c-0.594-0.852-1.326-1.425-2.197-1.714C56.342,133.863,55.395,133.835,54.379,134.07z"/>
	<path fill="#FFFFFF" d="M75.4,135.755c0.227-0.318,0.457-0.636,0.686-0.953c0.252-0.035,0.504-0.068,0.756-0.102
		c0.24,1.125,0.482,2.25,0.723,3.374c-0.328,0.043-0.656,0.087-0.986,0.133c-0.65-0.834-1.318-1.389-2.002-1.665
		s-1.475-0.346-2.369-0.207c-0.773,0.12-1.34,0.343-1.697,0.663c-0.357,0.321-0.5,0.676-0.43,1.065
		c0.066,0.383,0.273,0.647,0.617,0.795c0.344,0.155,1.227,0.238,2.643,0.269c1.283,0.03,2.139,0.099,2.572,0.189
		c0.826,0.167,1.498,0.497,2.01,0.986c0.518,0.489,0.822,1.1,0.926,1.831c0.129,0.924-0.174,1.752-0.9,2.491
		c-0.725,0.738-1.742,1.201-3.068,1.4c-0.639,0.096-1.23,0.117-1.771,0.063c-0.543-0.056-1.131-0.209-1.758-0.461
		c-0.225,0.343-0.449,0.687-0.67,1.031c-0.299,0.051-0.594,0.102-0.891,0.154c-0.314-1.235-0.631-2.469-0.945-3.704
		c0.332-0.059,0.664-0.116,0.992-0.173c1.203,1.746,2.801,2.449,4.82,2.144c0.832-0.126,1.443-0.362,1.838-0.716
		c0.396-0.352,0.562-0.73,0.502-1.136c-0.057-0.369-0.234-0.63-0.545-0.783c-0.309-0.152-1.078-0.255-2.316-0.294
		c-1.338-0.037-2.26-0.094-2.762-0.186c-0.855-0.143-1.535-0.421-2.039-0.84c-0.5-0.419-0.82-0.972-0.951-1.663
		c-0.188-0.986,0.041-1.862,0.693-2.624c0.65-0.76,1.625-1.248,2.916-1.448c0.627-0.098,1.201-0.12,1.721-0.065
		S74.793,135.521,75.4,135.755z"/>
	<path fill="#FFFFFF" d="M80.047,134.903c1.557-0.271,3.113-0.525,4.674-0.763c0.258,0.631,0.432,1.266,0.527,1.905
		c0.414-0.72,0.982-1.301,1.709-1.741c0.727-0.438,1.561-0.695,2.49-0.765c1.492-0.112,2.732,0.273,3.705,1.143
		c0.975,0.87,1.496,2.154,1.592,3.843c0.064,1.174-0.098,2.18-0.475,3.02s-0.93,1.489-1.656,1.952
		c-0.725,0.463-1.588,0.731-2.594,0.808c-0.803,0.061-1.531-0.045-2.189-0.323c-0.658-0.277-1.295-0.757-1.918-1.44
		c0.127,1.194,0.252,2.388,0.379,3.583c0.049,0.471,0.121,0.769,0.211,0.892c0.092,0.125,0.246,0.211,0.465,0.259
		c0.219,0.049,0.643,0.047,1.273,0c0.035,0.342,0.066,0.684,0.102,1.027c-2.158,0.187-4.316,0.408-6.475,0.666
		c-0.045-0.341-0.092-0.683-0.137-1.023c0.113-0.013,0.23-0.027,0.346-0.041c0.408-0.048,0.676-0.112,0.805-0.195
		c0.131-0.083,0.223-0.211,0.279-0.384c0.039-0.119,0.031-0.41-0.027-0.873c-0.391-3.152-0.771-6.304-1.143-9.457
		c-0.053-0.462-0.131-0.766-0.23-0.909c-0.098-0.144-0.236-0.241-0.414-0.29c-0.174-0.047-0.568-0.048-1.188,0.004
		C80.121,135.501,80.084,135.203,80.047,134.903z M88.029,135.149c-0.791,0.065-1.438,0.458-1.928,1.173
		c-0.49,0.716-0.666,1.715-0.533,2.994c0.131,1.265,0.514,2.205,1.148,2.825c0.631,0.622,1.305,0.901,2.027,0.842
		c0.707-0.059,1.254-0.393,1.641-1.004c0.506-0.809,0.715-1.859,0.619-3.155c-0.09-1.189-0.393-2.118-0.918-2.782
		C89.562,135.38,88.873,135.08,88.029,135.149z"/>
	<path fill="#FFFFFF" d="M108.766,138.432c-2.629-0.036-5.26-0.023-7.889,0.038c0.059,1.411,0.4,2.442,1.016,3.101
		c0.619,0.658,1.391,0.98,2.332,0.973c0.674-0.005,1.311-0.179,1.916-0.521c0.607-0.343,1.23-0.962,1.885-1.859
		c0.287,0.165,0.576,0.329,0.863,0.495c-0.691,1.064-1.463,1.825-2.322,2.282c-0.861,0.46-1.902,0.692-3.137,0.707
		c-1.795,0.021-3.254-0.44-4.408-1.406c-1.152-0.966-1.775-2.224-1.844-3.792c-0.068-1.567,0.449-2.902,1.586-3.993
		c1.133-1.09,2.57-1.655,4.285-1.677c1.188-0.015,2.211,0.192,3.061,0.617c0.85,0.424,1.504,1.047,1.965,1.864
		C108.531,136.078,108.762,137.136,108.766,138.432z M100.852,137.493c1.26-0.029,2.514-0.047,3.771-0.055
		c0.355-0.002,0.607-0.082,0.762-0.239c0.15-0.157,0.227-0.444,0.229-0.859c-0.002-0.832-0.219-1.474-0.652-1.928
		c-0.434-0.452-0.986-0.676-1.66-0.668c-0.793,0.01-1.396,0.329-1.803,0.953C101.092,135.32,100.875,136.253,100.852,137.493z"/>
	<path fill="#FFFFFF" d="M118.756,127.817c1.967,0.049,3.939,0.124,5.912,0.224c-0.369,4.368-0.754,8.735-1.152,13.102
		c-0.061,0.67-0.053,1.126,0.025,1.365c0.076,0.242,0.211,0.421,0.406,0.543c0.195,0.121,0.582,0.207,1.164,0.261
		c-0.033,0.317-0.064,0.634-0.098,0.951c-1.51-0.096-3.018-0.177-4.525-0.24c-0.057-0.658-0.117-1.316-0.18-1.974
		c-0.756,0.773-1.42,1.28-1.996,1.518c-0.576,0.239-1.279,0.334-2.117,0.292c-1.498-0.075-2.697-0.582-3.615-1.536
		c-0.92-0.954-1.367-2.217-1.324-3.8c0.047-1.746,0.598-3.12,1.682-4.11c1.084-0.989,2.418-1.45,3.984-1.372
		c0.842,0.043,1.582,0.245,2.213,0.604c0.637,0.357,1.195,0.914,1.674,1.664c0.111-1.521,0.221-3.043,0.326-4.565
		c0.041-0.542,0.01-0.936-0.094-1.18c-0.1-0.244-0.248-0.417-0.438-0.519c-0.193-0.104-0.596-0.175-1.209-0.212
		c-0.232-0.014-0.463-0.028-0.695-0.042C118.717,128.467,118.738,128.142,118.756,127.817z M117.969,134.486
		c-0.949-0.053-1.68,0.278-2.18,0.987c-0.412,0.576-0.645,1.512-0.703,2.807c-0.051,1.08,0.016,1.892,0.195,2.435
		c0.182,0.542,0.457,0.952,0.824,1.231c0.367,0.28,0.795,0.434,1.281,0.46c0.805,0.044,1.469-0.227,2.004-0.816
		c0.713-0.772,1.123-1.792,1.219-3.062c0.088-1.179-0.135-2.138-0.674-2.872C119.396,134.919,118.738,134.529,117.969,134.486z"/>
	<path fill="#FFFFFF" d="M140.004,144.937c0.119,0.281,0.238,0.562,0.354,0.844c-0.533,0.216-0.998,0.352-1.396,0.403
		c-0.4,0.052-0.826,0.042-1.277-0.027c-0.674-0.104-1.191-0.314-1.564-0.634c-0.373-0.318-0.674-0.86-0.91-1.625
		c-0.916,0.603-1.703,0.994-2.373,1.169c-0.672,0.176-1.406,0.215-2.199,0.12c-1.102-0.132-1.93-0.458-2.494-0.988
		c-0.562-0.529-0.809-1.148-0.729-1.86c0.121-1.075,0.795-1.879,2.045-2.397c1-0.406,3.123-0.69,6.4-0.752
		c0.074-0.479,0.145-0.958,0.217-1.436c0.086-0.566-0.061-1.061-0.443-1.479c-0.383-0.417-0.939-0.676-1.672-0.771
		c-0.559-0.073-1.068-0.032-1.52,0.122c-0.305,0.1-0.465,0.218-0.482,0.353c-0.01,0.071,0.031,0.184,0.117,0.339
		c0.189,0.347,0.262,0.678,0.221,0.991c-0.053,0.398-0.244,0.7-0.576,0.91c-0.33,0.208-0.744,0.283-1.248,0.226
		c-0.531-0.062-0.945-0.242-1.236-0.545c-0.291-0.302-0.416-0.663-0.369-1.083c0.078-0.69,0.574-1.254,1.498-1.685
		c1.156-0.533,2.543-0.699,4.152-0.488c1.215,0.16,2.27,0.475,3.158,0.938c0.568,0.293,1,0.727,1.289,1.296
		c0.289,0.571,0.367,1.231,0.244,1.981c-0.283,1.68-0.568,3.358-0.857,5.038c-0.066,0.382-0.035,0.669,0.092,0.863
		c0.129,0.195,0.328,0.313,0.605,0.358C139.275,145.156,139.594,145.094,140.004,144.937z M135.721,140.114
		c-1.752-0.036-2.961,0.137-3.621,0.492c-0.662,0.354-1.035,0.886-1.129,1.59c-0.064,0.497,0.023,0.897,0.27,1.196
		c0.246,0.302,0.617,0.482,1.121,0.547c0.779,0.1,1.459-0.064,2.055-0.498s0.961-1.083,1.094-1.955
		C135.58,141.028,135.648,140.571,135.721,140.114z"/>
	<path fill="#FFFFFF" d="M144.424,130.814c1.873,0.243,3.752,0.511,5.631,0.803c-0.959,4.673-1.957,9.345-2.994,14.012
		c-0.055,0.253-0.012,0.469,0.139,0.649c0.15,0.179,0.395,0.304,0.732,0.373c0.229,0.048,0.463,0.095,0.693,0.144
		c-0.076,0.325-0.152,0.65-0.229,0.976c-2.205-0.458-4.41-0.879-6.613-1.265c0.064-0.327,0.131-0.655,0.191-0.982
		c0.252,0.044,0.504,0.088,0.756,0.133c0.346,0.062,0.619,0.026,0.822-0.109c0.201-0.133,0.34-0.37,0.408-0.708
		c0.787-3.848,1.545-7.698,2.279-11.549c0.07-0.359,0.004-0.657-0.195-0.894c-0.199-0.237-0.504-0.392-0.906-0.463
		c-0.295-0.052-0.592-0.104-0.887-0.155C144.311,131.456,144.367,131.135,144.424,130.814z"/>
	<path fill="#FFFFFF" d="M163.113,146.183c-2.637-0.721-5.271-1.39-7.906-2.008c-0.334,1.378-0.285,2.461,0.143,3.256
		c0.426,0.794,1.104,1.305,2.045,1.542c0.674,0.169,1.361,0.167,2.066-0.007c0.703-0.173,1.504-0.608,2.416-1.304
		c0.242,0.234,0.486,0.468,0.727,0.702c-0.998,0.849-1.992,1.381-2.984,1.6c-0.992,0.22-2.1,0.174-3.332-0.132
		c-1.795-0.444-3.109-1.266-3.98-2.495c-0.867-1.228-1.129-2.603-0.766-4.134c0.367-1.53,1.244-2.687,2.67-3.45
		c1.426-0.762,3.01-0.938,4.73-0.516c1.191,0.292,2.162,0.758,2.896,1.388c0.742,0.63,1.229,1.403,1.465,2.312
		C163.539,143.847,163.473,144.93,163.113,146.183z M155.455,143.225c1.26,0.296,2.521,0.603,3.781,0.922
		c0.354,0.089,0.629,0.078,0.826-0.035c0.195-0.112,0.354-0.37,0.469-0.771c0.23-0.803,0.191-1.48-0.121-2.031
		c-0.311-0.549-0.807-0.91-1.479-1.076c-0.797-0.195-1.484-0.042-2.062,0.456C156.293,141.188,155.824,142.033,155.455,143.225z"/>
</g>
</svg>
