<?xml version="1.0" encoding="utf-8"?>
<!-- Generator: Adobe Illustrator 16.0.4, SVG Export Plug-In . SVG Version: 6.00 Build 0)  -->
<!DOCTYPE svg PUBLIC "-//W3C//DTD SVG 1.1//EN" "http://www.w3.org/Graphics/SVG/1.1/DTD/svg11.dtd">
<svg version="1.1" id="Livello_1" xmlns="http://www.w3.org/2000/svg" xmlns:xlink="http://www.w3.org/1999/xlink" x="0px" y="0px"
	 width="210px" height="200px" viewBox="0 0 210 200" enable-background="new 0 0 210 200" xml:space="preserve">
<g>
	<g>
		<circle fill="#FBC02E" cx="105" cy="100" r="84"/>
		<circle fill="#FABF2D" cx="105" cy="100" r="75.216"/>
		<path fill="#FFFFFF" d="M104.999,177.717c-42.853,0-77.715-34.864-77.715-77.717s34.862-77.717,77.715-77.717
			S182.716,57.147,182.716,100S147.852,177.717,104.999,177.717z M104.999,27.283c-40.095,0-72.715,32.621-72.715,72.717
			s32.62,72.717,72.715,72.717c40.097,0,72.717-32.621,72.717-72.717S145.096,27.283,104.999,27.283z"/>
		<path fill="#FFFFFF" d="M100.554,115.299H83.5l0.474-43.506c-0.551-4.04-3.011-6.182-6.093-6.182c-2.601,0-4.729,1.54-5.668,4.439
			L71.5,115.299H51.906h-0.035c-3.244,0-6.13,2.607-6.13,6.072c0,3.465,2.431,6.689,5.675,6.689c0.036,0,0.055,0.002,0.084,0.003
			v0.236h19.483H83.53h17.023c3.381,0,5.62-3.534,5.62-6.908C106.174,118.019,103.935,116.299,100.554,115.299z M51.516,128.064
			C52.047,128.082,51.592,128.215,51.516,128.064L51.516,128.064z"/>
		<g>
			<path fill="#FFFFFF" d="M142.847,86.046c-4.127-0.584-8.157-0.06-11.806,1.339l-5.002-10.106l5.697-14.445l-13.121-1.856
				c0,0-4.514,2.895-0.646,4.569c2.888,0.409,7.321,1.035,7.321,1.035l-2.617,6.618l-31.19-4.41l3.894-9.546
				c0,0,4.04,0.353,8.083,1.144c3.158-2.052,0.647-4.572,0.647-4.572l-21.339-3.017c0,0-3.323,1.685-0.646,4.572
				c4.673,0.662,8.547,1.209,8.547,1.209l-6.043,14.824L84.49,85.956c0.516-1.266,0.844-2.071,0.844-2.071
				c6.745,3.762,10.848,11.399,9.703,19.49c-0.633,4.477-2.778,8.369-5.834,11.256l6.121,0.01c2.209-3.044,3.73-6.652,4.293-10.629
				c1.447-10.223-3.878-19.858-12.533-24.421l2.891-7.094l19.763,33.538c0,0,0.828,1.862,2.876,2.151
				c2.043,0.289,3.078,0.435,3.078,0.435c-0.535,12.113,8.229,22.908,20.479,24.642c13.02,1.841,25.108-7.251,26.951-20.272
				C164.961,99.977,155.867,87.888,142.847,86.046z M135.506,106.751l-14.559-2.057c1.242-4.677,4.18-8.56,8.029-11.092
				L135.506,106.751z M111.874,100.563L96.301,74.126l24.637,3.484L111.874,100.563z M115.501,103.931l8.251-20.877l3.156,6.38
				c-5.156,3.221-9.066,8.376-10.571,14.616L115.501,103.931z M158.555,112.346c-1.483,10.493-11.229,17.833-21.731,16.349
				c-9.735-1.377-16.72-9.842-16.523-19.421c0,0,15.173,2.146,19.175,2.711c4,0.566,3.089-1.368,3.089-1.368l-9.456-19.076
				c2.828-1.008,5.932-1.375,9.1-0.928C152.711,92.099,160.039,101.853,158.555,112.346z"/>
			<path fill="#FFFFFF" d="M62.801,114.623c-4.361-4.142-6.744-10.248-5.84-16.643c1.127-7.966,7.023-14.097,14.387-15.944
				l0.074-4.758c-9.682,1.903-17.57,9.747-19.028,20.055c-0.897,6.346,0.81,12.466,4.296,17.29H62.801z"/>
		</g>
	</g>
	<path fill="#FDD835" d="M195.044,168.142c-2.57-5.81-5.418-11.587-8.545-17.312c5.996-2.563,12.201-4.905,18.602-7.004
		c-64.111-26.519-136.189-26.351-200.201,0.503c0.041,0.095,0.08,0.188,0.119,0.283c6.605,2.131,13.006,4.522,19.184,7.149
		c-2.928,5.42-5.605,10.887-8.037,16.382C73.435,144.454,137.774,144.453,195.044,168.142L195.044,168.142L195.044,168.142z"/>
	<path fill="#FFFFFF" d="M12.101,170.961l1.514-3.425c2.232-5.043,4.688-10.092,7.311-15.03c-5.701-2.375-11.596-4.547-17.545-6.466
		l-0.654-0.212l-0.967-2.302l1.383-0.58c32.242-13.525,66.318-20.384,101.285-20.384c34.514,0,68.182,6.688,100.07,19.878
		l3.744,1.549l-3.85,1.263c-5.744,1.883-11.443,4.005-16.965,6.316c2.814,5.241,5.439,10.604,7.812,15.966l1.516,3.425l-3.461-1.432
		c-28.318-11.713-58.217-17.651-88.863-17.651c-30.652,0-60.551,5.939-88.869,17.653L12.101,170.961z M7.706,144.312
		c5.4,1.835,10.738,3.871,15.906,6.069l1.516,0.645l-0.783,1.448c-2.283,4.226-4.443,8.542-6.445,12.873
		c27.646-10.932,56.738-16.472,86.531-16.472c29.789,0,58.877,5.539,86.525,16.47c-2.148-4.645-4.48-9.271-6.951-13.796l-0.791-1.45
		l1.518-0.648c4.844-2.071,9.834-3.999,14.879-5.752c-30.412-12.038-62.41-18.137-95.184-18.137
		C71.089,125.562,38.569,131.868,7.706,144.312z"/>
	<g>
		<path fill="#FFFFFF" d="M31.698,142.103c0.14-0.325,0.277-0.649,0.418-0.973c0.162-0.042,0.324-0.083,0.486-0.124
			c0.301,1.042,0.603,2.084,0.906,3.125c-0.201,0.052-0.404,0.104-0.609,0.155c-0.562-0.82-1.195-1.379-1.91-1.674
			c-0.711-0.296-1.423-0.349-2.135-0.158c-0.605,0.161-1.057,0.442-1.354,0.841c-0.293,0.399-0.379,0.804-0.258,1.214
			c0.075,0.245,0.209,0.447,0.421,0.611c0.211,0.163,0.501,0.271,0.875,0.325s0.997,0.048,1.868-0.017
			c1.02-0.072,1.735-0.079,2.144-0.026c0.652,0.085,1.178,0.29,1.575,0.607c0.398,0.317,0.672,0.757,0.826,1.319
			c0.228,0.839,0.099,1.587-0.385,2.245c-0.582,0.794-1.422,1.333-2.527,1.625c-1.016,0.271-2.041,0.194-3.084-0.229
			c-0.168,0.369-0.335,0.738-0.502,1.106c-0.162,0.045-0.324,0.091-0.488,0.137c-0.346-1.114-0.688-2.228-1.029-3.342
			c0.197-0.054,0.394-0.109,0.589-0.164c1.163,1.746,2.627,2.375,4.391,1.907c0.721-0.192,1.238-0.492,1.553-0.905
			c0.316-0.412,0.408-0.849,0.279-1.312c-0.091-0.322-0.257-0.571-0.493-0.743c-0.24-0.174-0.566-0.279-0.979-0.316
			c-0.223-0.02-0.767-0.004-1.625,0.053c-1.155,0.07-2.009,0.057-2.546-0.049c-0.537-0.105-0.968-0.296-1.29-0.574
			c-0.322-0.278-0.561-0.662-0.707-1.149c-0.249-0.821-0.141-1.578,0.322-2.268c0.466-0.689,1.225-1.176,2.266-1.455
			C29.699,141.628,30.702,141.697,31.698,142.103z"/>
		<path fill="#FFFFFF" d="M36.831,141.12c0.204-0.048,0.403-0.096,0.605-0.145c0.2,0.792,0.397,1.583,0.598,2.375
			c0.695-0.166,1.395-0.327,2.089-0.487c0.054,0.223,0.109,0.445,0.164,0.667c-0.694,0.16-1.392,0.322-2.085,0.486
			c0.31,1.224,0.624,2.447,0.938,3.67c0.062,0.243,0.177,0.415,0.344,0.517c0.17,0.102,0.36,0.128,0.578,0.077
			c0.62-0.146,0.812-0.759,0.582-1.842c0.199-0.046,0.395-0.091,0.593-0.136c0.128,0.576,0.144,1.059,0.05,1.449
			c-0.095,0.389-0.288,0.718-0.576,0.985c-0.29,0.268-0.646,0.451-1.066,0.551c-0.367,0.088-0.708,0.094-1.017,0.02
			c-0.306-0.074-0.579-0.23-0.812-0.469c-0.233-0.238-0.396-0.52-0.48-0.843c-0.313-1.183-0.625-2.365-0.932-3.547
			c-0.374,0.091-0.747,0.182-1.12,0.274c-0.05-0.188-0.099-0.376-0.15-0.566c0.666-0.252,1.139-0.622,1.422-1.113
			C36.837,142.552,36.93,141.911,36.831,141.12z"/>
		<path fill="#FFFFFF" d="M49.73,146.138c0.124,0.13,0.249,0.261,0.373,0.393c-0.231,0.228-0.448,0.396-0.646,0.505
			c-0.201,0.108-0.428,0.189-0.682,0.241c-0.378,0.077-0.701,0.064-0.967-0.038c-0.268-0.103-0.544-0.343-0.834-0.72
			c-0.357,0.512-0.695,0.882-1.016,1.109c-0.323,0.228-0.705,0.389-1.155,0.486c-0.619,0.136-1.138,0.108-1.55-0.082
			c-0.413-0.189-0.67-0.49-0.771-0.903c-0.15-0.622,0.052-1.195,0.613-1.714c0.448-0.412,1.523-0.963,3.227-1.632
			c-0.064-0.278-0.125-0.558-0.187-0.837c-0.073-0.331-0.253-0.577-0.537-0.736c-0.285-0.159-0.629-0.195-1.029-0.11
			c-0.306,0.066-0.56,0.184-0.769,0.355c-0.139,0.112-0.197,0.208-0.183,0.286c0.011,0.041,0.053,0.097,0.133,0.167
			c0.167,0.158,0.271,0.328,0.315,0.511c0.052,0.231,0.012,0.437-0.12,0.615s-0.337,0.297-0.614,0.358
			c-0.294,0.065-0.548,0.041-0.766-0.073c-0.216-0.116-0.353-0.295-0.411-0.538c-0.096-0.4,0.058-0.806,0.458-1.216
			c0.502-0.511,1.194-0.861,2.072-1.048c0.662-0.141,1.274-0.168,1.827-0.085c0.358,0.053,0.668,0.208,0.938,0.467
			c0.271,0.258,0.446,0.608,0.544,1.047c0.21,0.985,0.425,1.968,0.637,2.952c0.048,0.224,0.129,0.377,0.239,0.458
			c0.112,0.082,0.241,0.107,0.396,0.076C49.398,146.406,49.548,146.307,49.73,146.138z M46.442,144.323
			c-0.929,0.32-1.53,0.644-1.807,0.966c-0.277,0.322-0.369,0.689-0.272,1.098c0.064,0.289,0.197,0.494,0.391,0.615
			c0.194,0.121,0.431,0.151,0.714,0.091c0.437-0.094,0.767-0.318,0.989-0.673c0.223-0.355,0.277-0.786,0.163-1.295
			C46.561,144.857,46.501,144.589,46.442,144.323z"/>
		<path fill="#FFFFFF" d="M50.352,140.703c1.823-0.351,3.643-0.685,5.466-1c0.035,0.189,0.069,0.379,0.102,0.569
			c-0.967,1.784-1.912,3.574-2.829,5.367c0.58-0.108,1.16-0.215,1.74-0.32c0.378-0.068,0.666-0.253,0.865-0.557
			c0.199-0.302,0.298-0.79,0.296-1.465c0.199-0.035,0.394-0.069,0.594-0.104c0.101,0.786,0.203,1.574,0.305,2.359
			c-1.924,0.334-3.848,0.689-5.77,1.064c-0.04-0.193-0.081-0.386-0.121-0.579c0.903-1.799,1.83-3.595,2.784-5.387
			c-0.496,0.09-0.99,0.181-1.485,0.273c-0.346,0.064-0.608,0.236-0.791,0.516c-0.181,0.279-0.262,0.718-0.249,1.316
			c-0.199,0.038-0.398,0.076-0.596,0.115C50.56,142.148,50.452,141.425,50.352,140.703z"/>
		<path fill="#FFFFFF" d="M57.356,139.438c0.931-0.197,1.858-0.39,2.789-0.578c0.273,1.661,0.549,3.322,0.828,4.983
			c0.023,0.134,0.084,0.23,0.187,0.289c0.103,0.059,0.247,0.073,0.432,0.045c0.14-0.021,0.278-0.043,0.419-0.064
			c0.031,0.194,0.062,0.388,0.095,0.582c-1.237,0.191-2.474,0.391-3.711,0.6c-0.034-0.194-0.069-0.388-0.104-0.582
			c0.139-0.022,0.272-0.045,0.41-0.068c0.223-0.038,0.368-0.11,0.442-0.222c0.075-0.111,0.09-0.285,0.049-0.523
			c-0.198-1.131-0.394-2.262-0.589-3.393c-0.037-0.213-0.131-0.367-0.284-0.462c-0.153-0.096-0.346-0.123-0.579-0.084
			c-0.096,0.016-0.19,0.032-0.283,0.048C57.423,139.819,57.392,139.628,57.356,139.438z M58.524,135.769
			c0.306-0.049,0.585,0.008,0.836,0.172c0.25,0.164,0.399,0.388,0.445,0.672c0.047,0.283-0.024,0.542-0.208,0.775
			c-0.187,0.232-0.428,0.374-0.73,0.423c-0.308,0.05-0.587-0.008-0.838-0.172c-0.253-0.164-0.4-0.386-0.451-0.665
			c-0.048-0.284,0.021-0.543,0.205-0.778C57.968,135.962,58.216,135.82,58.524,135.769z"/>
		<path fill="#FFFFFF" d="M65.82,137.809c0.709-0.098,1.378-0.043,2.009,0.165c0.63,0.208,1.118,0.524,1.464,0.948
			c0.349,0.423,0.562,0.959,0.646,1.604c0.137,1.033-0.129,1.872-0.795,2.519c-0.664,0.647-1.458,1.033-2.391,1.162
			c-0.659,0.092-1.283,0.036-1.873-0.168c-0.593-0.202-1.076-0.521-1.447-0.956c-0.372-0.435-0.608-0.953-0.702-1.555
			c-0.146-0.908,0.074-1.72,0.66-2.434C63.978,138.381,64.789,137.951,65.82,137.809z M65.948,138.401
			c-0.469,0.064-0.814,0.308-1.032,0.73c-0.221,0.423-0.257,1.116-0.111,2.079c0.15,1.001,0.391,1.671,0.717,2.013
			c0.326,0.341,0.717,0.479,1.177,0.416c0.466-0.064,0.815-0.311,1.047-0.738c0.231-0.43,0.281-1.121,0.15-2.077
			c-0.136-0.982-0.374-1.647-0.715-1.997C66.84,138.476,66.428,138.334,65.948,138.401z"/>
		<path fill="#FFFFFF" d="M79.73,141.934c0.019,0.195,0.036,0.391,0.056,0.587c-1.236,0.113-2.479,0.234-3.714,0.363
			c-0.021-0.196-0.045-0.391-0.065-0.586c0.131-0.014,0.259-0.027,0.391-0.041c0.207-0.021,0.355-0.087,0.446-0.198
			c0.089-0.111,0.126-0.264,0.105-0.458c-0.089-0.854-0.179-1.708-0.27-2.562c-0.046-0.439-0.186-0.764-0.424-0.975
			c-0.234-0.213-0.524-0.301-0.869-0.265c-0.47,0.049-0.831,0.256-1.089,0.617c-0.258,0.362-0.348,0.862-0.274,1.497
			c0.074,0.658,0.152,1.316,0.228,1.975c0.023,0.194,0.091,0.335,0.207,0.425c0.116,0.09,0.254,0.125,0.419,0.107
			c0.154-0.017,0.314-0.033,0.469-0.05c0.021,0.195,0.045,0.39,0.066,0.586c-1.286,0.138-2.576,0.284-3.862,0.439
			c-0.025-0.194-0.051-0.39-0.074-0.585c0.167-0.021,0.337-0.041,0.503-0.06c0.195-0.023,0.334-0.091,0.421-0.204
			s0.118-0.266,0.095-0.46c-0.144-1.17-0.286-2.34-0.427-3.51c-0.024-0.201-0.117-0.354-0.278-0.456
			c-0.16-0.103-0.359-0.14-0.597-0.111c-0.09,0.011-0.182,0.021-0.271,0.032c-0.022-0.183-0.045-0.365-0.067-0.549
			c0.873-0.15,1.747-0.295,2.622-0.438c0.137,0.35,0.258,0.773,0.364,1.269c0.312-0.507,0.666-0.899,1.057-1.175
			c0.392-0.275,0.82-0.437,1.281-0.483c0.628-0.064,1.148,0.083,1.547,0.439c0.397,0.358,0.629,0.886,0.697,1.586
			c0.088,0.914,0.178,1.827,0.27,2.741c0.02,0.212,0.089,0.358,0.197,0.44c0.109,0.084,0.275,0.116,0.496,0.096
			C79.501,141.955,79.616,141.944,79.73,141.934z"/>
		<path fill="#FFFFFF" d="M87.007,139.017c-1.458,0.094-2.916,0.199-4.376,0.316c0.082,0.831,0.311,1.429,0.679,1.797
			c0.37,0.368,0.815,0.532,1.345,0.494c0.379-0.028,0.73-0.155,1.055-0.382c0.323-0.226,0.645-0.617,0.968-1.173
			c0.169,0.084,0.337,0.169,0.504,0.253c-0.334,0.657-0.732,1.139-1.193,1.445c-0.464,0.305-1.04,0.483-1.734,0.535
			c-1.013,0.076-1.852-0.152-2.532-0.69c-0.677-0.538-1.062-1.265-1.146-2.19c-0.082-0.922,0.165-1.722,0.755-2.396
			c0.586-0.674,1.354-1.048,2.289-1.119c0.648-0.049,1.216,0.035,1.698,0.252c0.481,0.216,0.87,0.556,1.159,1.019
			C86.765,137.641,86.942,138.254,87.007,139.017z M82.584,138.758c0.695-0.055,1.393-0.108,2.085-0.159
			c0.196-0.015,0.334-0.072,0.411-0.171c0.077-0.098,0.105-0.27,0.089-0.515c-0.035-0.49-0.179-0.86-0.438-1.111
			c-0.258-0.25-0.57-0.363-0.937-0.335c-0.435,0.033-0.757,0.24-0.954,0.621C82.638,137.469,82.554,138.025,82.584,138.758z"/>
		<path fill="#FFFFFF" d="M97.019,131.854c1.343,2.771,2.648,5.551,3.92,8.339c0.111,0.235,0.227,0.394,0.352,0.478
			c0.125,0.082,0.29,0.122,0.493,0.12c0.117-0.001,0.237-0.002,0.356-0.004c0.002,0.197,0.006,0.393,0.007,0.59
			c-1.524,0.017-3.052,0.046-4.579,0.088c-0.005-0.196-0.013-0.393-0.018-0.589c0.144-0.003,0.287-0.007,0.432-0.011
			c0.34-0.009,0.573-0.05,0.697-0.126c0.128-0.075,0.188-0.171,0.186-0.29c-0.002-0.093-0.032-0.199-0.088-0.322
			c-0.266-0.574-0.532-1.147-0.802-1.72c-1.23,0.032-2.463,0.072-3.693,0.12c-0.107,0.268-0.212,0.537-0.319,0.806
			c-0.133,0.335-0.195,0.585-0.188,0.745c0.012,0.275,0.125,0.494,0.346,0.657c0.219,0.163,0.511,0.237,0.879,0.224
			c0.104-0.004,0.207-0.007,0.312-0.011c0.006,0.196,0.013,0.394,0.021,0.59c-1.237,0.043-2.473,0.096-3.709,0.156
			c-0.011-0.196-0.021-0.393-0.031-0.589c0.07-0.003,0.141-0.007,0.213-0.011c0.238-0.01,0.444-0.092,0.62-0.246
			c0.249-0.214,0.434-0.482,0.562-0.806c1.053-2.727,2.141-5.449,3.266-8.164C96.509,131.869,96.763,131.862,97.019,131.854z
			 M95.998,134.263c-0.497,1.21-0.985,2.42-1.467,3.631c1.051-0.04,2.103-0.073,3.154-0.102
			C97.129,136.614,96.566,135.438,95.998,134.263z"/>
		<path fill="#FFFFFF" d="M102.537,135.431c0.938-0.06,1.876-0.115,2.817-0.165c0,1.32-0.001,2.641-0.001,3.961
			c0,0.368,0.102,0.659,0.309,0.873c0.208,0.215,0.477,0.321,0.805,0.322c0.465,0.002,0.838-0.172,1.12-0.526
			c0.283-0.353,0.427-0.769,0.432-1.246c0.006-0.647,0.014-1.295,0.021-1.943c0-0.229-0.064-0.402-0.198-0.521
			c-0.133-0.12-0.317-0.181-0.551-0.182c-0.102-0.001-0.205-0.001-0.31-0.002c0.003-0.193,0.002-0.386,0.005-0.578
			c0.95-0.045,1.9-0.086,2.854-0.122c-0.026,1.604-0.053,3.207-0.078,4.811c-0.005,0.216,0.063,0.386,0.199,0.512
			c0.14,0.125,0.319,0.19,0.549,0.194c0.096,0.001,0.191,0.003,0.285,0.005c-0.002,0.197-0.009,0.393-0.011,0.59
			c-0.854,0.008-1.709,0.021-2.562,0.037c-0.1-0.424-0.159-0.877-0.171-1.36c-0.434,0.516-0.848,0.879-1.242,1.089
			c-0.397,0.208-0.807,0.312-1.232,0.312c-0.422,0-0.774-0.083-1.062-0.253c-0.287-0.168-0.517-0.436-0.691-0.803
			c-0.174-0.367-0.262-0.813-0.266-1.337c-0.005-0.787-0.011-1.574-0.016-2.361c-0.001-0.259-0.073-0.443-0.211-0.555
			c-0.139-0.111-0.403-0.17-0.789-0.174C102.54,135.817,102.539,135.624,102.537,135.431z"/>
		<path fill="#FFFFFF" d="M114.134,133.111c0.202,0.007,0.404,0.013,0.605,0.019c-0.026,0.814-0.056,1.628-0.081,2.443
			c0.693,0.022,1.387,0.047,2.084,0.076c-0.011,0.228-0.018,0.457-0.028,0.685c-0.692-0.027-1.388-0.053-2.078-0.076
			c-0.045,1.258-0.086,2.517-0.129,3.775c-0.008,0.249,0.052,0.445,0.18,0.587c0.129,0.142,0.3,0.217,0.518,0.225
			c0.621,0.022,0.97-0.517,1.05-1.619c0.197,0.008,0.396,0.016,0.592,0.024c-0.039,0.587-0.155,1.055-0.352,1.405
			c-0.195,0.35-0.466,0.617-0.81,0.798c-0.343,0.182-0.727,0.266-1.147,0.252c-0.37-0.012-0.688-0.094-0.955-0.246
			c-0.265-0.151-0.476-0.373-0.627-0.663c-0.151-0.289-0.227-0.602-0.216-0.936c0.034-1.218,0.065-2.437,0.1-3.656
			c-0.372-0.009-0.743-0.019-1.115-0.027c0.004-0.195,0.009-0.389,0.013-0.584c0.687-0.069,1.227-0.302,1.623-0.701
			C113.756,134.491,114.013,133.899,114.134,133.111z"/>
		<path fill="#FFFFFF" d="M121.501,135.548c0.707,0.041,1.348,0.223,1.922,0.548c0.571,0.325,0.98,0.729,1.236,1.211
			c0.254,0.481,0.357,1.047,0.311,1.697c-0.073,1.039-0.505,1.809-1.279,2.316c-0.778,0.506-1.631,0.733-2.561,0.68
			c-0.661-0.037-1.257-0.211-1.787-0.524c-0.535-0.312-0.938-0.717-1.21-1.215c-0.271-0.498-0.399-1.05-0.37-1.659
			c0.04-0.917,0.413-1.671,1.123-2.259C119.595,135.756,120.471,135.49,121.501,135.548z M121.507,136.152
			c-0.468-0.026-0.85,0.147-1.146,0.519c-0.298,0.373-0.469,1.044-0.522,2.017c-0.054,1.01,0.044,1.713,0.294,2.11
			c0.249,0.396,0.599,0.607,1.058,0.633c0.469,0.026,0.856-0.148,1.167-0.523c0.313-0.375,0.504-1.044,0.562-2.007
			c0.064-0.989-0.036-1.687-0.296-2.095C122.361,136.398,121.985,136.18,121.507,136.152z"/>
		<path fill="#FFFFFF" d="M132.19,140.499c0.166,0.094,0.332,0.189,0.496,0.284c-0.339,0.639-0.805,1.113-1.4,1.427
			c-0.597,0.312-1.274,0.433-2.046,0.367c-1.04-0.089-1.83-0.427-2.372-1.018c-0.543-0.592-0.782-1.348-0.711-2.272
			c0.077-0.997,0.489-1.789,1.247-2.376c0.758-0.587,1.725-0.832,2.896-0.729c0.843,0.073,1.471,0.293,1.887,0.653
			c0.412,0.359,0.598,0.765,0.552,1.216c-0.033,0.329-0.157,0.579-0.369,0.752c-0.212,0.173-0.478,0.245-0.795,0.216
			c-0.275-0.026-0.488-0.121-0.638-0.285c-0.147-0.165-0.213-0.368-0.189-0.606c0.02-0.208,0.129-0.44,0.335-0.698
			c0.087-0.106,0.134-0.183,0.138-0.229c0.008-0.085-0.056-0.167-0.188-0.247c-0.187-0.124-0.443-0.2-0.761-0.228
			c-0.597-0.052-1.042,0.09-1.337,0.422c-0.396,0.438-0.63,1.133-0.71,2.082c-0.083,0.949,0.037,1.631,0.351,2.045
			c0.315,0.416,0.742,0.646,1.292,0.694c0.431,0.038,0.854-0.064,1.261-0.305C131.538,141.424,131.891,141.036,132.19,140.499z"/>
		<path fill="#FFFFFF" d="M137.643,136.918c0.709,0.081,1.341,0.299,1.897,0.656c0.556,0.357,0.945,0.783,1.174,1.279
			c0.229,0.495,0.296,1.066,0.212,1.712c-0.136,1.033-0.612,1.778-1.424,2.24c-0.811,0.461-1.675,0.639-2.61,0.533
			c-0.658-0.074-1.246-0.282-1.762-0.625c-0.516-0.342-0.896-0.769-1.144-1.281c-0.244-0.512-0.335-1.071-0.271-1.678
			c0.094-0.913,0.515-1.645,1.258-2.191C135.72,137.018,136.612,136.801,137.643,136.918z M137.614,137.523
			c-0.467-0.053-0.862,0.098-1.181,0.452c-0.319,0.354-0.532,1.016-0.641,1.984c-0.115,1.005-0.056,1.712,0.168,2.123
			c0.228,0.41,0.565,0.64,1.026,0.692c0.465,0.053,0.867-0.099,1.201-0.455c0.337-0.358,0.564-1.015,0.685-1.973
			c0.121-0.983,0.062-1.686-0.177-2.108C138.458,137.816,138.095,137.577,137.614,137.523z"/>
		<path fill="#FFFFFF" d="M146.076,143.742c-0.027,0.194-0.062,0.389-0.089,0.583c-1.44-0.21-2.879-0.41-4.317-0.597
			c0.025-0.195,0.054-0.39,0.079-0.584c0.179,0.023,0.358,0.046,0.535,0.069c0.223,0.03,0.388,0.01,0.5-0.058
			c0.112-0.068,0.18-0.172,0.2-0.31c0.165-1.162,0.33-2.323,0.492-3.484c0.04-0.281-0.001-0.496-0.12-0.644
			c-0.117-0.148-0.302-0.239-0.549-0.271c-0.119-0.016-0.238-0.031-0.356-0.047c0.026-0.184,0.05-0.369,0.075-0.554
			c0.905,0.074,1.812,0.151,2.719,0.234c-0.092,0.639-0.186,1.278-0.279,1.916c0.251-0.62,0.597-1.073,1.037-1.361
			c0.444-0.287,0.91-0.394,1.401-0.322c0.42,0.062,0.735,0.215,0.945,0.458c0.209,0.245,0.289,0.529,0.237,0.855
			c-0.044,0.28-0.164,0.494-0.359,0.643c-0.192,0.148-0.415,0.205-0.656,0.168c-0.215-0.032-0.388-0.135-0.518-0.308
			c-0.131-0.173-0.18-0.377-0.143-0.611c0.02-0.13,0.076-0.261,0.17-0.393c0.053-0.074,0.079-0.127,0.085-0.16
			c0.009-0.06,0.002-0.105-0.024-0.136c-0.023-0.032-0.067-0.051-0.13-0.061c-0.163-0.023-0.352,0.038-0.571,0.186
			c-0.337,0.23-0.646,0.619-0.933,1.166c-0.285,0.548-0.472,1.115-0.558,1.701c-0.063,0.423-0.128,0.847-0.188,1.271
			c-0.021,0.146,0.004,0.264,0.075,0.353c0.071,0.09,0.183,0.146,0.332,0.167C145.473,143.654,145.772,143.698,146.076,143.742z"/>
		<path fill="#FFFFFF" d="M153.113,144.858c-0.035,0.194-0.07,0.387-0.107,0.581c-1.438-0.247-2.878-0.482-4.317-0.706
			c0.032-0.194,0.065-0.389,0.097-0.583c0.177,0.028,0.357,0.056,0.535,0.084c0.22,0.035,0.389,0.019,0.504-0.046
			c0.114-0.065,0.186-0.167,0.207-0.304c0.199-1.158,0.393-2.315,0.586-3.472c0.047-0.28,0.015-0.495-0.103-0.646
			c-0.114-0.152-0.299-0.248-0.544-0.286c-0.12-0.019-0.237-0.038-0.355-0.056c0.029-0.185,0.057-0.368,0.089-0.552
			c0.906,0.096,1.816,0.197,2.723,0.303c-0.111,0.636-0.219,1.272-0.329,1.908c0.267-0.612,0.625-1.057,1.076-1.334
			c0.453-0.275,0.925-0.371,1.415-0.286c0.417,0.072,0.735,0.233,0.937,0.482c0.206,0.25,0.276,0.537,0.217,0.861
			c-0.052,0.278-0.178,0.49-0.378,0.633c-0.2,0.144-0.422,0.194-0.662,0.152c-0.214-0.037-0.386-0.144-0.513-0.321
			c-0.128-0.176-0.168-0.381-0.128-0.615c0.024-0.129,0.084-0.258,0.184-0.388c0.056-0.072,0.08-0.125,0.088-0.158
			c0.013-0.058,0.004-0.104-0.021-0.135c-0.026-0.032-0.065-0.053-0.13-0.064c-0.162-0.028-0.354,0.028-0.579,0.171
			c-0.344,0.222-0.666,0.602-0.966,1.143c-0.303,0.54-0.502,1.102-0.605,1.685c-0.074,0.422-0.149,0.844-0.223,1.266
			c-0.026,0.146-0.004,0.264,0.068,0.355c0.069,0.09,0.18,0.15,0.328,0.175C152.509,144.755,152.809,144.807,153.113,144.858z"/>
		<path fill="#FFFFFF" d="M157.012,140.106c0.944,0.13,1.889,0.265,2.835,0.405c-0.333,1.652-0.668,3.303-1.007,4.954
			c-0.027,0.133-0.004,0.244,0.071,0.334c0.076,0.09,0.205,0.153,0.392,0.189c0.14,0.027,0.277,0.054,0.418,0.082
			c-0.04,0.192-0.081,0.385-0.122,0.578c-1.236-0.242-2.474-0.475-3.711-0.7c0.035-0.193,0.073-0.386,0.111-0.58
			c0.138,0.024,0.274,0.05,0.411,0.076c0.22,0.04,0.386,0.021,0.495-0.058c0.108-0.079,0.189-0.237,0.234-0.474
			c0.225-1.127,0.443-2.254,0.666-3.381c0.043-0.212,0.005-0.389-0.103-0.53c-0.11-0.141-0.284-0.233-0.517-0.276
			c-0.094-0.017-0.188-0.034-0.283-0.051C156.939,140.485,156.975,140.295,157.012,140.106z M159.407,137.059
			c0.306,0.058,0.548,0.207,0.728,0.446c0.182,0.239,0.241,0.5,0.186,0.782c-0.059,0.282-0.213,0.501-0.47,0.657
			c-0.257,0.156-0.537,0.206-0.84,0.148c-0.309-0.057-0.551-0.206-0.73-0.446c-0.179-0.24-0.242-0.499-0.188-0.777
			c0.051-0.283,0.209-0.504,0.463-0.661C158.813,137.05,159.095,137,159.407,137.059z"/>
		<path fill="#FFFFFF" d="M167.879,145.377c-1.461-0.326-2.923-0.64-4.384-0.942c-0.169,0.818-0.126,1.456,0.125,1.913
			c0.25,0.457,0.64,0.742,1.168,0.854c0.378,0.082,0.762,0.06,1.146-0.064c0.387-0.125,0.822-0.408,1.305-0.848
			c0.14,0.128,0.276,0.257,0.418,0.386c-0.527,0.534-1.063,0.882-1.606,1.043c-0.547,0.16-1.166,0.166-1.861,0.018
			c-1.014-0.214-1.765-0.672-2.267-1.38c-0.498-0.708-0.656-1.514-0.463-2.423c0.192-0.907,0.673-1.603,1.446-2.081
			c0.772-0.479,1.631-0.621,2.571-0.422c0.651,0.137,1.18,0.38,1.591,0.725c0.409,0.344,0.69,0.781,0.837,1.307
			C168.053,143.99,168.042,144.627,167.879,145.377z M163.618,143.87c0.698,0.144,1.396,0.291,2.091,0.441
			c0.198,0.042,0.347,0.026,0.453-0.047c0.107-0.073,0.186-0.229,0.241-0.469c0.111-0.479,0.08-0.875-0.1-1.188
			c-0.176-0.314-0.45-0.511-0.819-0.588c-0.436-0.093-0.81,0.015-1.119,0.324C164.057,142.65,163.809,143.16,163.618,143.87z"/>
		<path fill="#FFFFFF" d="M172.959,148.975c-0.051,0.19-0.103,0.382-0.153,0.572c-1.439-0.351-2.88-0.69-4.32-1.019
			c0.047-0.192,0.096-0.383,0.143-0.574c0.179,0.041,0.356,0.081,0.535,0.123c0.221,0.05,0.393,0.046,0.515-0.01
			c0.124-0.057,0.198-0.153,0.233-0.288c0.288-1.141,0.574-2.282,0.855-3.423c0.069-0.275,0.049-0.493-0.056-0.651
			c-0.105-0.161-0.283-0.269-0.529-0.325c-0.12-0.027-0.238-0.055-0.357-0.082c0.043-0.181,0.089-0.363,0.132-0.544
			c0.912,0.162,1.825,0.329,2.737,0.5c-0.159,0.627-0.318,1.254-0.478,1.881c0.316-0.592,0.713-1.01,1.191-1.254
			c0.479-0.242,0.968-0.303,1.457-0.182c0.417,0.104,0.725,0.286,0.914,0.549c0.189,0.264,0.242,0.556,0.155,0.875
			c-0.073,0.275-0.218,0.476-0.433,0.604c-0.212,0.128-0.441,0.162-0.683,0.102c-0.214-0.053-0.381-0.171-0.496-0.357
			c-0.115-0.186-0.141-0.393-0.083-0.623c0.033-0.127,0.103-0.252,0.217-0.375c0.057-0.067,0.093-0.118,0.101-0.152
			c0.015-0.058,0.011-0.103-0.011-0.136c-0.022-0.034-0.065-0.059-0.127-0.073c-0.162-0.04-0.362,0.002-0.6,0.128
			c-0.364,0.196-0.719,0.553-1.068,1.07c-0.345,0.518-0.591,1.063-0.738,1.639c-0.106,0.416-0.215,0.831-0.324,1.247
			c-0.037,0.144-0.023,0.263,0.041,0.359c0.066,0.096,0.172,0.163,0.322,0.199C172.354,148.828,172.655,148.901,172.959,148.975z"/>
		<path fill="#FFFFFF" d="M182.848,149.122c-1.462-0.405-2.925-0.8-4.387-1.182c-0.216,0.809-0.211,1.447,0.017,1.918
			s0.604,0.777,1.133,0.919c0.38,0.102,0.769,0.102,1.167-0.002c0.397-0.103,0.854-0.362,1.37-0.775
			c0.133,0.136,0.268,0.272,0.401,0.409c-0.562,0.505-1.127,0.823-1.688,0.955c-0.562,0.13-1.191,0.103-1.886-0.083
			c-1.014-0.271-1.748-0.769-2.214-1.504c-0.467-0.734-0.577-1.548-0.33-2.446c0.246-0.896,0.771-1.566,1.582-2.001
			c0.811-0.438,1.688-0.531,2.626-0.281c0.65,0.173,1.174,0.444,1.571,0.812c0.397,0.366,0.653,0.817,0.773,1.352
			C183.103,147.745,183.06,148.382,182.848,149.122z M178.62,147.382c0.697,0.182,1.395,0.367,2.092,0.555
			c0.198,0.053,0.348,0.046,0.46-0.021c0.109-0.066,0.204-0.218,0.272-0.455c0.141-0.472,0.125-0.87-0.035-1.194
			c-0.16-0.323-0.429-0.535-0.796-0.633c-0.437-0.116-0.821-0.028-1.149,0.263C179.131,146.188,178.852,146.683,178.62,147.382z"/>
	</g>
</g>
</svg>
