<?xml version="1.0" encoding="utf-8"?>
<!-- Generator: Adobe Illustrator 16.0.4, SVG Export Plug-In . SVG Version: 6.00 Build 0)  -->
<!DOCTYPE svg PUBLIC "-//W3C//DTD SVG 1.1//EN" "http://www.w3.org/Graphics/SVG/1.1/DTD/svg11.dtd">
<svg version="1.1" id="Livello_1" xmlns="http://www.w3.org/2000/svg" xmlns:xlink="http://www.w3.org/1999/xlink" x="0px" y="0px"
	 width="210px" height="200px" viewBox="0 0 210 200" enable-background="new 0 0 210 200" xml:space="preserve">
<g>
	<circle fill="#FBC02E" cx="105" cy="100" r="84"/>
	<circle fill="#FABF2D" cx="105" cy="100" r="75.216"/>
	<path fill="#FFFFFF" d="M104.999,177.717c-42.853,0-77.715-34.864-77.715-77.717s34.862-77.717,77.715-77.717
		S182.716,57.147,182.716,100S147.852,177.717,104.999,177.717z M104.999,27.283c-40.095,0-72.715,32.621-72.715,72.717
		s32.62,72.717,72.715,72.717c40.097,0,72.717-32.621,72.717-72.717S145.096,27.283,104.999,27.283z"/>
	<path fill="#FFFFFF" d="M100.554,115.299H83.5l0.474-43.506c-0.551-4.04-3.011-6.182-6.093-6.182c-2.601,0-4.729,1.54-5.668,4.439
		L71.5,115.299H51.906h-0.035c-3.244,0-6.13,2.607-6.13,6.072c0,3.465,2.431,6.689,5.675,6.689c0.036,0,0.055,0.002,0.084,0.003
		v0.236h19.483H83.53h17.023c3.381,0,5.62-3.534,5.62-6.908C106.174,118.019,103.935,116.299,100.554,115.299z M51.516,128.064
		C52.047,128.082,51.592,128.215,51.516,128.064L51.516,128.064z"/>
	<g>
		<path fill="#FFFFFF" d="M142.847,86.046c-4.127-0.584-8.157-0.06-11.806,1.339l-5.002-10.106l5.697-14.445l-13.121-1.856
			c0,0-4.514,2.895-0.646,4.569c2.888,0.409,7.321,1.035,7.321,1.035l-2.617,6.618l-31.19-4.41l3.894-9.546
			c0,0,4.04,0.353,8.083,1.144c3.158-2.052,0.647-4.572,0.647-4.572l-21.339-3.017c0,0-3.323,1.685-0.646,4.572
			c4.673,0.662,8.547,1.209,8.547,1.209l-6.043,14.824L84.49,85.956c0.516-1.266,0.844-2.071,0.844-2.071
			c6.745,3.762,10.848,11.399,9.703,19.49c-0.633,4.477-2.778,8.369-5.834,11.256l6.121,0.01c2.209-3.044,3.73-6.652,4.293-10.629
			c1.447-10.223-3.878-19.858-12.533-24.421l2.891-7.094l19.763,33.538c0,0,0.828,1.862,2.876,2.151
			c2.043,0.289,3.078,0.435,3.078,0.435c-0.535,12.113,8.229,22.908,20.479,24.642c13.02,1.841,25.108-7.251,26.951-20.272
			C164.961,99.977,155.867,87.888,142.847,86.046z M135.506,106.751l-14.559-2.057c1.242-4.677,4.18-8.56,8.029-11.092
			L135.506,106.751z M111.874,100.563L96.301,74.126l24.637,3.484L111.874,100.563z M115.501,103.931l8.251-20.877l3.156,6.38
			c-5.156,3.221-9.066,8.376-10.571,14.616L115.501,103.931z M158.555,112.346c-1.483,10.493-11.229,17.833-21.731,16.349
			c-9.735-1.377-16.72-9.842-16.523-19.421c0,0,15.173,2.146,19.175,2.711c4,0.566,3.089-1.368,3.089-1.368l-9.456-19.076
			c2.828-1.008,5.932-1.375,9.1-0.928C152.711,92.099,160.039,101.853,158.555,112.346z"/>
		<path fill="#FFFFFF" d="M62.801,114.623c-4.361-4.142-6.744-10.248-5.84-16.643c1.127-7.966,7.023-14.097,14.387-15.944
			l0.074-4.758c-9.682,1.903-17.57,9.747-19.028,20.055c-0.897,6.346,0.81,12.466,4.296,17.29H62.801z"/>
	</g>
</g>
<path fill="#FDD835" d="M195.043,168.142c-2.57-5.81-5.418-11.587-8.545-17.312c5.996-2.563,12.201-4.905,18.602-7.004
	C140.988,117.308,68.912,117.476,4.9,144.329c0.041,0.095,0.08,0.188,0.119,0.283c6.605,2.131,13.004,4.522,19.182,7.149
	c-2.928,5.42-5.605,10.887-8.037,16.382C73.436,144.454,137.773,144.453,195.043,168.142L195.043,168.142L195.043,168.142z"/>
<path fill="#FFFFFF" d="M12.102,170.961l1.514-3.425c2.23-5.043,4.686-10.092,7.309-15.03c-5.701-2.375-11.594-4.547-17.543-6.466
	l-0.654-0.212l-0.967-2.302l1.383-0.58c32.242-13.525,66.318-20.384,101.283-20.384c34.514,0,68.182,6.688,100.07,19.878
	l3.744,1.549l-3.85,1.263c-5.744,1.883-11.443,4.005-16.965,6.316c2.814,5.241,5.439,10.604,7.812,15.966l1.516,3.425l-3.461-1.432
	c-28.318-11.713-58.217-17.651-88.863-17.651c-30.65,0-60.549,5.939-88.869,17.653L12.102,170.961z M7.707,144.312
	c5.4,1.835,10.736,3.871,15.904,6.069l1.516,0.645l-0.783,1.448c-2.283,4.226-4.443,8.542-6.445,12.873
	c27.648-10.932,56.74-16.472,86.531-16.472c29.789,0,58.877,5.539,86.525,16.47c-2.148-4.645-4.48-9.271-6.951-13.796l-0.791-1.45
	l1.518-0.648c4.844-2.071,9.834-3.999,14.879-5.752c-30.412-12.038-62.41-18.137-95.184-18.137
	C71.09,125.562,38.57,131.868,7.707,144.312z"/>
<g>
	<path fill="#FFFFFF" d="M31.127,142.121c3.107-0.86,6.223-1.665,9.323-2.415c0.061,0.235,0.12,0.47,0.18,0.706
		c-1.527,3.84-2.938,7.689-4.231,11.542c1.03-0.277,2.06-0.549,3.093-0.814c0.537-0.137,0.969-0.365,1.299-0.683
		c0.332-0.318,0.579-0.758,0.741-1.32c0.169-0.563,0.214-1.328,0.155-2.292c0.25-0.061,0.502-0.123,0.756-0.183
		c0.292,1.424,0.582,2.847,0.885,4.27c-3.188,0.775-6.377,1.609-9.567,2.505c-0.076-0.233-0.146-0.464-0.219-0.697
		c1.241-3.866,2.602-7.729,4.077-11.585c-0.807,0.204-1.613,0.411-2.416,0.623c-0.971,0.255-1.672,0.701-2.084,1.329
		c-0.416,0.629-0.543,1.547-0.383,2.751c-0.247,0.069-0.497,0.137-0.743,0.206C31.698,144.75,31.411,143.437,31.127,142.121z"/>
	<path fill="#FFFFFF" d="M47.484,142.031c0.885-0.193,1.732-0.194,2.547-0.002c0.815,0.193,1.46,0.533,1.938,1.019
		c0.477,0.486,0.8,1.123,0.969,1.908c0.273,1.255,0.019,2.311-0.744,3.169c-0.761,0.859-1.718,1.412-2.867,1.665
		c-0.818,0.179-1.602,0.175-2.368-0.013c-0.765-0.187-1.404-0.526-1.921-1.021c-0.513-0.494-0.867-1.103-1.055-1.833
		c-0.284-1.098-0.097-2.119,0.568-3.057C45.216,142.928,46.198,142.312,47.484,142.031z M47.703,142.744
		c-0.581,0.127-0.99,0.463-1.223,1.004c-0.235,0.542-0.207,1.396,0.079,2.563c0.297,1.213,0.672,2.01,1.117,2.395
		c0.443,0.384,0.95,0.513,1.519,0.389c0.579-0.126,0.985-0.463,1.233-1.012c0.246-0.55,0.235-1.404-0.026-2.565
		c-0.271-1.191-0.636-1.985-1.101-2.379S48.304,142.613,47.703,142.744z"/>
	<path fill="#FFFFFF" d="M65.308,145.811c0.042,0.24,0.08,0.479,0.121,0.718c-1.533,0.239-3.066,0.492-4.595,0.759
		c-0.048-0.239-0.09-0.477-0.136-0.716c0.161-0.028,0.322-0.056,0.482-0.083c0.261-0.044,0.437-0.139,0.54-0.283
		c0.103-0.144,0.138-0.334,0.092-0.57c-0.188-1.042-0.38-2.084-0.565-3.125c-0.098-0.534-0.302-0.921-0.614-1.161
		c-0.317-0.24-0.686-0.323-1.114-0.248c-0.584,0.102-1.021,0.387-1.312,0.856c-0.287,0.468-0.359,1.089-0.207,1.862
		c0.158,0.801,0.312,1.603,0.469,2.404c0.046,0.235,0.145,0.403,0.299,0.502c0.151,0.1,0.328,0.131,0.531,0.095
		c0.194-0.034,0.386-0.069,0.582-0.103c0.046,0.238,0.092,0.477,0.137,0.715c-1.593,0.282-3.184,0.579-4.776,0.891
		c-0.053-0.238-0.103-0.476-0.152-0.712c0.205-0.041,0.413-0.081,0.622-0.121c0.241-0.047,0.411-0.143,0.508-0.289
		c0.097-0.146,0.125-0.337,0.074-0.572c-0.293-1.424-0.586-2.848-0.871-4.272c-0.049-0.245-0.179-0.424-0.391-0.535
		c-0.209-0.11-0.468-0.138-0.761-0.08c-0.112,0.021-0.225,0.043-0.335,0.065c-0.046-0.222-0.095-0.444-0.139-0.666
		c1.086-0.268,2.172-0.529,3.258-0.784c0.203,0.419,0.392,0.927,0.571,1.526c0.346-0.651,0.759-1.165,1.224-1.538
		c0.47-0.373,0.987-0.61,1.565-0.708c0.783-0.133,1.445,0.004,1.978,0.408c0.529,0.405,0.865,1.035,1.008,1.888
		c0.19,1.116,0.382,2.231,0.572,3.346c0.043,0.257,0.137,0.432,0.284,0.524c0.147,0.093,0.354,0.118,0.627,0.075
		C65.022,145.855,65.167,145.833,65.308,145.811z"/>
	<path fill="#FFFFFF" d="M75.382,144.252c0.134,0.172,0.275,0.346,0.412,0.519c-0.305,0.255-0.586,0.441-0.836,0.555
		c-0.254,0.115-0.541,0.19-0.854,0.23c-0.466,0.057-0.86,0.01-1.173-0.142c-0.316-0.152-0.624-0.473-0.939-0.963
		c-0.487,0.595-0.933,1.016-1.346,1.264s-0.9,0.411-1.452,0.49c-0.768,0.108-1.391,0.029-1.874-0.242
		c-0.485-0.271-0.769-0.663-0.852-1.177c-0.126-0.777,0.175-1.462,0.908-2.048c0.59-0.465,1.948-1.045,4.093-1.703
		c-0.048-0.349-0.094-0.697-0.142-1.046c-0.059-0.413-0.249-0.731-0.582-0.953c-0.331-0.221-0.747-0.298-1.245-0.231
		c-0.385,0.052-0.706,0.173-0.976,0.364c-0.179,0.125-0.265,0.237-0.251,0.335c0.008,0.05,0.057,0.124,0.145,0.216
		c0.191,0.21,0.304,0.428,0.334,0.655c0.041,0.29-0.025,0.537-0.205,0.744c-0.181,0.206-0.438,0.334-0.783,0.385
		c-0.365,0.053-0.677-0.001-0.927-0.161c-0.252-0.161-0.399-0.392-0.45-0.696c-0.078-0.5,0.146-0.984,0.676-1.451
		c0.662-0.581,1.545-0.948,2.638-1.096c0.827-0.111,1.572-0.088,2.243,0.068c0.43,0.099,0.794,0.319,1.098,0.662
		c0.302,0.344,0.487,0.79,0.557,1.338c0.156,1.227,0.312,2.455,0.474,3.682c0.039,0.279,0.115,0.474,0.243,0.585
		c0.124,0.11,0.286,0.154,0.475,0.131C74.95,144.548,75.144,144.443,75.382,144.252z M71.564,141.709
		c-1.161,0.304-1.931,0.646-2.3,1.016c-0.369,0.37-0.516,0.811-0.438,1.321c0.056,0.36,0.193,0.624,0.417,0.79
		c0.223,0.167,0.506,0.225,0.858,0.177c0.541-0.075,0.965-0.317,1.269-0.731c0.309-0.415,0.419-0.938,0.33-1.573
		C71.653,142.375,71.609,142.042,71.564,141.709z"/>
	<path fill="#FFFFFF" d="M80.395,133.013c2.159-0.203,4.314-0.38,6.471-0.532c0.017,0.241,0.034,0.483,0.051,0.725
		c-0.385,0.028-0.775,0.056-1.166,0.085c-0.253,0.019-0.426,0.079-0.534,0.177c-0.104,0.1-0.151,0.238-0.139,0.415
		c0.231,2.973,0.471,5.946,0.713,8.917c0.012,0.208,0.092,0.352,0.209,0.431c0.155,0.103,0.375,0.144,0.652,0.124
		c0.332-0.025,0.666-0.049,0.998-0.073c0.02,0.242,0.036,0.484,0.055,0.725c-2.063,0.145-4.125,0.314-6.187,0.509
		c-0.022-0.241-0.05-0.482-0.073-0.723c0.317-0.03,0.635-0.059,0.951-0.088c0.325-0.03,0.554-0.101,0.676-0.217
		c0.126-0.116,0.178-0.275,0.159-0.477c-0.27-2.937-0.533-5.873-0.794-8.81c-0.02-0.218-0.098-0.373-0.235-0.466
		c-0.136-0.093-0.341-0.127-0.614-0.102c-0.374,0.034-0.75,0.067-1.123,0.103C80.438,133.495,80.416,133.254,80.395,133.013z"/>
	<path fill="#FFFFFF" d="M99.289,142.721c0.005,0.242,0.013,0.484,0.021,0.726c-1.529,0.04-3.064,0.093-4.594,0.16
		c-0.012-0.242-0.023-0.484-0.035-0.726c0.162-0.006,0.321-0.014,0.483-0.021c0.256-0.01,0.444-0.081,0.565-0.21
		c0.123-0.13,0.175-0.315,0.167-0.554c-0.044-1.056-0.087-2.112-0.129-3.169c-0.022-0.542-0.167-0.952-0.445-1.229
		c-0.273-0.278-0.628-0.409-1.054-0.39c-0.582,0.026-1.05,0.252-1.394,0.679c-0.346,0.428-0.496,1.034-0.453,1.818
		c0.046,0.814,0.087,1.628,0.133,2.442c0.01,0.239,0.084,0.417,0.222,0.537c0.139,0.118,0.307,0.172,0.506,0.163
		c0.193-0.009,0.388-0.019,0.58-0.028c0.016,0.242,0.023,0.483,0.037,0.726c-1.592,0.074-3.183,0.163-4.775,0.267
		c-0.017-0.242-0.033-0.483-0.049-0.725c0.206-0.014,0.414-0.027,0.621-0.04c0.242-0.016,0.418-0.088,0.532-0.221
		c0.12-0.132,0.163-0.318,0.149-0.557c-0.095-1.448-0.182-2.896-0.27-4.344c-0.016-0.25-0.12-0.443-0.31-0.58
		c-0.187-0.137-0.437-0.197-0.729-0.178c-0.111,0.008-0.229,0.015-0.336,0.021c-0.015-0.226-0.031-0.452-0.045-0.678
		c1.091-0.126,2.184-0.245,3.275-0.357c0.144,0.442,0.257,0.97,0.354,1.585c0.424-0.6,0.887-1.057,1.396-1.366
		c0.505-0.31,1.047-0.477,1.623-0.5c0.785-0.032,1.408,0.189,1.877,0.659c0.462,0.47,0.705,1.137,0.732,2.001
		c0.037,1.13,0.07,2.259,0.107,3.389c0.01,0.261,0.078,0.446,0.209,0.557c0.129,0.11,0.328,0.162,0.601,0.155
		C99.004,142.729,99.147,142.724,99.289,142.721z"/>
	<path fill="#FFFFFF" d="M105.177,131.774c1.325-0.052,2.645-0.094,3.971-0.126c-0.036,3.188-0.072,6.374-0.109,9.562
		c-0.002,0.489,0.021,0.82,0.092,0.99c0.069,0.169,0.168,0.293,0.312,0.371c0.14,0.077,0.413,0.119,0.817,0.125
		c-0.003,0.231-0.009,0.463-0.014,0.695c-1.043,0.015-2.095,0.037-3.141,0.064c-0.076-0.474-0.149-0.949-0.226-1.423
		c-0.481,0.597-0.917,0.996-1.306,1.195c-0.385,0.199-0.875,0.3-1.455,0.304c-1.043,0.008-1.9-0.316-2.57-0.976
		c-0.673-0.66-1.029-1.563-1.053-2.714c-0.029-1.27,0.307-2.286,1.006-3.043c0.702-0.757,1.591-1.142,2.656-1.15
		c0.568-0.003,1.082,0.11,1.527,0.341s0.848,0.608,1.21,1.13c0.003-1.109,0.004-2.219,0.009-3.328c0-0.396-0.035-0.68-0.116-0.852
		c-0.077-0.172-0.187-0.291-0.318-0.356c-0.131-0.065-0.409-0.099-0.821-0.098c-0.156,0-0.312,0.001-0.468,0.002
		C105.182,132.248,105.179,132.011,105.177,131.774z M104.927,136.65c-0.646,0.002-1.131,0.272-1.441,0.807
		c-0.259,0.436-0.378,1.125-0.368,2.066c0.012,0.786,0.083,1.374,0.233,1.759c0.146,0.386,0.355,0.673,0.622,0.862
		c0.268,0.188,0.567,0.281,0.906,0.279c0.556-0.002,1.007-0.229,1.345-0.683c0.456-0.593,0.683-1.353,0.688-2.28
		c0.003-0.859-0.191-1.544-0.595-2.052C105.916,136.901,105.454,136.648,104.927,136.65z"/>
	<path fill="#FFFFFF" d="M111.752,136.104c1.173-0.038,2.345-0.068,3.518-0.091c-0.055,1.624-0.112,3.249-0.171,4.872
		c-0.016,0.454,0.1,0.816,0.346,1.087c0.244,0.271,0.57,0.416,0.982,0.432c0.574,0.022,1.045-0.177,1.411-0.598
		c0.369-0.422,0.563-0.926,0.596-1.514c0.036-0.796,0.079-1.592,0.115-2.388c0.015-0.281-0.062-0.499-0.22-0.651
		c-0.16-0.153-0.389-0.237-0.677-0.249c-0.13-0.005-0.256-0.011-0.386-0.017c0.012-0.236,0.019-0.473,0.029-0.71
		c1.188-0.014,2.377-0.019,3.564-0.017c-0.109,1.971-0.222,3.942-0.336,5.913c-0.016,0.266,0.057,0.478,0.223,0.638
		c0.159,0.161,0.387,0.249,0.67,0.266c0.115,0.006,0.236,0.014,0.352,0.021c-0.016,0.241-0.028,0.483-0.045,0.725
		c-1.057-0.032-2.117-0.057-3.173-0.076c-0.103-0.526-0.155-1.087-0.146-1.681c-0.561,0.615-1.093,1.043-1.591,1.284
		c-0.498,0.24-1.009,0.351-1.536,0.332c-0.521-0.018-0.955-0.137-1.305-0.355c-0.348-0.218-0.622-0.557-0.821-1.016
		c-0.198-0.458-0.293-1.011-0.275-1.656c0.025-0.968,0.051-1.937,0.076-2.906c0.009-0.317-0.072-0.547-0.24-0.69
		c-0.172-0.142-0.492-0.224-0.975-0.245C111.743,136.578,111.745,136.341,111.752,136.104z"/>
	<path fill="#FFFFFF" d="M129.069,137.242c0.201-0.189,0.401-0.379,0.604-0.567c0.172,0.015,0.346,0.029,0.514,0.045
		c-0.021,0.834-0.04,1.669-0.061,2.504c-0.229-0.02-0.449-0.04-0.677-0.059c-0.295-0.693-0.651-1.191-1.052-1.495
		c-0.404-0.305-0.91-0.481-1.522-0.528c-0.526-0.041-0.935,0.023-1.221,0.191c-0.289,0.167-0.444,0.394-0.464,0.681
		c-0.02,0.281,0.067,0.501,0.271,0.663c0.198,0.167,0.767,0.373,1.693,0.623c0.84,0.229,1.399,0.413,1.67,0.546
		c0.52,0.248,0.91,0.586,1.175,1.013c0.263,0.426,0.364,0.907,0.315,1.442c-0.062,0.676-0.408,1.216-1.018,1.624
		c-0.615,0.409-1.379,0.574-2.303,0.5c-0.442-0.036-0.846-0.117-1.198-0.246c-0.353-0.129-0.716-0.334-1.091-0.617
		c-0.208,0.204-0.422,0.409-0.631,0.614c-0.207-0.015-0.415-0.028-0.619-0.042c0.017-0.922,0.028-1.846,0.045-2.769
		c0.225,0.015,0.453,0.03,0.684,0.046c0.484,1.432,1.42,2.197,2.826,2.309c0.579,0.046,1.028-0.023,1.354-0.21
		c0.326-0.187,0.501-0.428,0.528-0.725c0.026-0.271-0.052-0.484-0.23-0.64c-0.182-0.157-0.677-0.351-1.494-0.579
		c-0.885-0.242-1.485-0.436-1.798-0.584c-0.543-0.243-0.941-0.553-1.195-0.932c-0.256-0.381-0.371-0.825-0.335-1.335
		c0.052-0.726,0.351-1.305,0.905-1.734s1.269-0.612,2.146-0.544c0.428,0.033,0.807,0.11,1.137,0.231
		C128.361,136.79,128.706,136.981,129.069,137.242z"/>
	<path fill="#FFFFFF" d="M135.041,134.572c0.253,0.027,0.506,0.055,0.757,0.082c-0.109,0.997-0.224,1.994-0.335,2.99
		c0.866,0.094,1.732,0.192,2.599,0.295c-0.037,0.28-0.07,0.559-0.104,0.838c-0.865-0.103-1.723-0.201-2.589-0.295
		c-0.175,1.54-0.352,3.08-0.529,4.62c-0.034,0.306,0.021,0.552,0.165,0.738c0.143,0.186,0.354,0.294,0.619,0.325
		c0.767,0.085,1.259-0.541,1.471-1.885c0.245,0.028,0.488,0.058,0.734,0.087c-0.107,0.716-0.301,1.28-0.582,1.69
		c-0.277,0.411-0.641,0.71-1.087,0.9c-0.447,0.19-0.929,0.256-1.451,0.2c-0.456-0.05-0.842-0.181-1.158-0.392
		c-0.31-0.211-0.553-0.501-0.714-0.871c-0.16-0.37-0.223-0.76-0.178-1.168c0.156-1.493,0.317-2.985,0.473-4.478
		c-0.466-0.046-0.93-0.092-1.391-0.136c0.021-0.238,0.048-0.477,0.07-0.716c0.861-0.021,1.561-0.258,2.095-0.71
		C134.44,136.231,134.814,135.527,135.041,134.572z"/>
	<path fill="#FFFFFF" d="M144.019,145.371c-0.035,0.239-0.076,0.479-0.111,0.718c-1.779-0.258-3.562-0.498-5.342-0.719
		c0.034-0.24,0.064-0.48,0.096-0.721c0.221,0.028,0.443,0.055,0.664,0.083c0.273,0.035,0.479,0.01,0.618-0.074
		c0.138-0.084,0.224-0.212,0.245-0.383c0.197-1.43,0.396-2.86,0.588-4.291c0.045-0.345-0.004-0.61-0.152-0.792
		c-0.151-0.183-0.377-0.293-0.685-0.331c-0.153-0.02-0.295-0.038-0.444-0.056c0.029-0.228,0.057-0.455,0.088-0.682
		c1.127,0.085,2.257,0.177,3.387,0.277c-0.111,0.787-0.227,1.574-0.338,2.36c0.305-0.762,0.734-1.322,1.286-1.676
		c0.548-0.354,1.132-0.486,1.742-0.396c0.523,0.077,0.917,0.266,1.179,0.567c0.263,0.3,0.362,0.652,0.295,1.053
		c-0.056,0.345-0.203,0.608-0.448,0.79c-0.245,0.182-0.511,0.25-0.814,0.206c-0.267-0.04-0.481-0.166-0.644-0.38
		c-0.164-0.213-0.224-0.464-0.18-0.753c0.022-0.159,0.096-0.321,0.214-0.482c0.063-0.091,0.097-0.157,0.104-0.198
		c0.008-0.073,0.003-0.127-0.03-0.167c-0.029-0.04-0.084-0.064-0.164-0.075c-0.199-0.029-0.441,0.046-0.709,0.229
		c-0.423,0.283-0.802,0.761-1.156,1.435c-0.351,0.674-0.581,1.373-0.687,2.095c-0.076,0.521-0.154,1.042-0.23,1.563
		c-0.022,0.18,0.001,0.326,0.095,0.435c0.091,0.11,0.227,0.178,0.413,0.204C143.269,145.263,143.644,145.316,144.019,145.371z"/>
	<path fill="#FFFFFF" d="M148.684,139.41c1.177,0.136,2.351,0.28,3.526,0.432c-0.368,2.039-0.738,4.079-1.115,6.118
		c-0.027,0.165,0.004,0.301,0.097,0.41s0.254,0.184,0.486,0.224c0.173,0.03,0.345,0.06,0.518,0.09
		c-0.044,0.238-0.093,0.477-0.138,0.715c-1.532-0.27-3.059-0.526-4.591-0.769c0.042-0.239,0.081-0.478,0.123-0.717
		c0.166,0.026,0.339,0.054,0.51,0.081c0.27,0.044,0.476,0.017,0.606-0.084c0.134-0.101,0.223-0.296,0.277-0.589
		c0.244-1.392,0.488-2.784,0.727-4.177c0.043-0.262-0.002-0.479-0.145-0.649c-0.139-0.169-0.354-0.279-0.646-0.326
		c-0.118-0.018-0.236-0.037-0.352-0.056C148.603,139.878,148.649,139.644,148.684,139.41z M151.563,135.602
		c0.383,0.063,0.689,0.241,0.922,0.531c0.229,0.29,0.316,0.61,0.252,0.959c-0.062,0.35-0.253,0.623-0.566,0.82
		c-0.316,0.198-0.658,0.265-1.039,0.202c-0.385-0.064-0.69-0.241-0.918-0.532c-0.232-0.291-0.316-0.608-0.261-0.952
		c0.058-0.35,0.243-0.625,0.559-0.825C150.826,135.605,151.177,135.537,151.563,135.602z"/>
	<path fill="#FFFFFF" d="M162.546,148.533c0.069,0.208,0.142,0.416,0.212,0.624c-0.38,0.141-0.715,0.225-0.999,0.249
		c-0.281,0.024-0.584,0.003-0.898-0.062c-0.468-0.1-0.821-0.27-1.071-0.516c-0.246-0.246-0.432-0.65-0.56-1.214
		c-0.672,0.401-1.249,0.652-1.728,0.751c-0.482,0.1-0.999,0.095-1.554-0.011c-0.767-0.147-1.332-0.424-1.696-0.837
		c-0.362-0.412-0.493-0.874-0.395-1.385c0.15-0.773,0.675-1.321,1.572-1.635c0.72-0.247,2.213-0.352,4.492-0.273
		c0.074-0.344,0.149-0.688,0.224-1.033c0.088-0.409,0.01-0.771-0.229-1.088c-0.242-0.318-0.608-0.526-1.111-0.625
		c-0.382-0.074-0.731-0.066-1.055,0.027c-0.218,0.059-0.333,0.138-0.353,0.234c-0.012,0.05,0.011,0.135,0.062,0.251
		c0.104,0.26,0.137,0.502,0.095,0.727c-0.059,0.287-0.212,0.498-0.452,0.634c-0.236,0.137-0.536,0.173-0.879,0.108
		c-0.371-0.069-0.637-0.221-0.825-0.454c-0.184-0.233-0.248-0.5-0.188-0.802c0.096-0.496,0.472-0.881,1.137-1.149
		c0.826-0.333,1.792-0.393,2.888-0.176c0.829,0.164,1.539,0.429,2.126,0.796c0.376,0.232,0.651,0.56,0.824,0.983
		c0.171,0.423,0.198,0.904,0.074,1.443c-0.271,1.209-0.552,2.418-0.828,3.627c-0.062,0.274-0.054,0.485,0.026,0.63
		c0.081,0.146,0.218,0.238,0.408,0.279C162.025,148.669,162.251,148.635,162.546,148.533z M159.776,144.887
		c-1.216-0.092-2.061-0.02-2.546,0.209c-0.485,0.228-0.773,0.597-0.878,1.103c-0.076,0.357-0.032,0.651,0.121,0.88
		c0.155,0.229,0.407,0.377,0.756,0.446c0.539,0.105,1.028,0.014,1.467-0.276c0.438-0.291,0.729-0.748,0.864-1.375
		C159.633,145.546,159.705,145.217,159.776,144.887z"/>
	<path fill="#FFFFFF" d="M166.215,138.411c1.268,0.221,2.538,0.45,3.803,0.688c-0.831,3.373-1.68,6.743-2.554,10.111
		c-0.044,0.183-0.021,0.341,0.08,0.474c0.098,0.133,0.267,0.228,0.5,0.284c0.162,0.039,0.321,0.078,0.483,0.116
		c-0.061,0.235-0.124,0.47-0.187,0.705c-1.533-0.369-3.074-0.724-4.609-1.065c0.059-0.237,0.119-0.473,0.173-0.709
		c0.175,0.039,0.349,0.078,0.524,0.117c0.243,0.054,0.434,0.035,0.581-0.058c0.149-0.094,0.251-0.261,0.312-0.505
		c0.688-2.774,1.367-5.549,2.027-8.325c0.062-0.26,0.031-0.477-0.097-0.653c-0.123-0.174-0.327-0.294-0.598-0.355
		c-0.198-0.043-0.401-0.088-0.601-0.132C166.107,138.874,166.163,138.643,166.215,138.411z"/>
	<path fill="#FFFFFF" d="M178.624,149.703c-1.814-0.502-3.63-0.984-5.443-1.448c-0.26,0.998-0.248,1.784,0.034,2.363
		c0.285,0.579,0.75,0.953,1.407,1.125c0.47,0.124,0.95,0.122,1.441-0.004c0.492-0.127,1.055-0.446,1.693-0.956
		c0.166,0.168,0.334,0.335,0.498,0.504c-0.698,0.622-1.391,1.013-2.089,1.174c-0.694,0.162-1.468,0.129-2.332-0.097
		c-1.254-0.328-2.159-0.937-2.742-1.838c-0.581-0.9-0.729-1.901-0.433-3.008c0.295-1.106,0.936-1.934,1.938-2.476
		c1-0.542,2.096-0.662,3.264-0.356c0.811,0.211,1.468,0.545,1.96,0.998c0.497,0.453,0.819,1.009,0.97,1.666
		C178.942,148.007,178.884,148.792,178.624,149.703z M173.373,147.567c0.866,0.221,1.731,0.447,2.598,0.676
		c0.246,0.064,0.433,0.056,0.571-0.026c0.139-0.083,0.247-0.27,0.335-0.561c0.173-0.583,0.154-1.072-0.048-1.471
		c-0.207-0.398-0.537-0.658-0.996-0.777c-0.544-0.142-1.019-0.033-1.43,0.327C174,146.095,173.652,146.706,173.373,147.567z"/>
</g>
</svg>
