<?xml version="1.0" encoding="utf-8"?>
<!-- Generator: Adobe Illustrator 16.0.4, SVG Export Plug-In . SVG Version: 6.00 Build 0)  -->
<!DOCTYPE svg PUBLIC "-//W3C//DTD SVG 1.1//EN" "http://www.w3.org/Graphics/SVG/1.1/DTD/svg11.dtd">
<svg version="1.1" id="Livello_1" xmlns="http://www.w3.org/2000/svg" xmlns:xlink="http://www.w3.org/1999/xlink" x="0px" y="0px"
	 width="210px" height="200px" viewBox="0 0 210 200" enable-background="new 0 0 210 200" xml:space="preserve">
<g>
	<g>
		<circle fill="#FBC02E" cx="105" cy="100" r="84"/>
		<circle fill="#FABF2D" cx="105" cy="100" r="75.216"/>
		<path fill="#FFFFFF" d="M104.999,177.717c-42.853,0-77.715-34.864-77.715-77.717s34.862-77.717,77.715-77.717
			S182.716,57.147,182.716,100S147.852,177.717,104.999,177.717z M104.999,27.283c-40.095,0-72.715,32.621-72.715,72.717
			s32.62,72.717,72.715,72.717c40.097,0,72.717-32.621,72.717-72.717S145.096,27.283,104.999,27.283z"/>
		<path fill="#FFFFFF" d="M100.554,115.299H83.5l0.474-43.506c-0.551-4.04-3.011-6.182-6.093-6.182c-2.601,0-4.729,1.54-5.668,4.439
			L71.5,115.299H51.906h-0.035c-3.244,0-6.13,2.607-6.13,6.072c0,3.465,2.431,6.689,5.675,6.689c0.036,0,0.055,0.002,0.084,0.003
			v0.236h19.483H83.53h17.023c3.381,0,5.62-3.534,5.62-6.908C106.174,118.019,103.935,116.299,100.554,115.299z M51.516,128.064
			C52.047,128.082,51.592,128.215,51.516,128.064L51.516,128.064z"/>
		<g>
			<path fill="#FFFFFF" d="M142.847,86.046c-4.127-0.584-8.157-0.06-11.806,1.339l-5.002-10.106l5.697-14.445l-13.121-1.856
				c0,0-4.514,2.895-0.646,4.569c2.888,0.409,7.321,1.035,7.321,1.035l-2.617,6.618l-31.19-4.41l3.894-9.546
				c0,0,4.04,0.353,8.083,1.144c3.158-2.052,0.647-4.572,0.647-4.572l-21.339-3.017c0,0-3.323,1.685-0.646,4.572
				c4.673,0.662,8.547,1.209,8.547,1.209l-6.043,14.824L84.49,85.956c0.516-1.266,0.844-2.071,0.844-2.071
				c6.745,3.762,10.848,11.399,9.703,19.49c-0.633,4.477-2.778,8.369-5.834,11.256l6.121,0.01c2.209-3.044,3.73-6.652,4.293-10.629
				c1.447-10.223-3.878-19.858-12.533-24.421l2.891-7.094l19.763,33.538c0,0,0.828,1.862,2.876,2.151
				c2.043,0.289,3.078,0.435,3.078,0.435c-0.535,12.113,8.229,22.908,20.479,24.642c13.02,1.841,25.108-7.251,26.951-20.272
				C164.961,99.977,155.867,87.888,142.847,86.046z M135.506,106.751l-14.559-2.057c1.242-4.677,4.18-8.56,8.029-11.092
				L135.506,106.751z M111.874,100.563L96.301,74.126l24.637,3.484L111.874,100.563z M115.501,103.931l8.251-20.877l3.156,6.38
				c-5.156,3.221-9.066,8.376-10.571,14.616L115.501,103.931z M158.555,112.346c-1.483,10.493-11.229,17.833-21.731,16.349
				c-9.735-1.377-16.72-9.842-16.523-19.421c0,0,15.173,2.146,19.175,2.711c4,0.566,3.089-1.368,3.089-1.368l-9.456-19.076
				c2.828-1.008,5.932-1.375,9.1-0.928C152.711,92.099,160.039,101.853,158.555,112.346z"/>
			<path fill="#FFFFFF" d="M62.801,114.623c-4.361-4.142-6.744-10.248-5.84-16.643c1.127-7.966,7.023-14.097,14.387-15.944
				l0.074-4.758c-9.682,1.903-17.57,9.747-19.028,20.055c-0.897,6.346,0.81,12.466,4.296,17.29H62.801z"/>
		</g>
	</g>
	<path fill="#FDD835" d="M195.043,168.142c-2.57-5.81-5.418-11.587-8.545-17.312c5.996-2.563,12.201-4.905,18.602-7.004
		C140.988,117.308,68.912,117.476,4.9,144.329c0.041,0.095,0.08,0.188,0.119,0.283c6.605,2.131,13.004,4.522,19.182,7.149
		c-2.928,5.42-5.605,10.887-8.037,16.382C73.436,144.454,137.773,144.453,195.043,168.142L195.043,168.142L195.043,168.142z"/>
	<path fill="#FFFFFF" d="M12.102,170.961l1.514-3.425c2.23-5.043,4.686-10.092,7.309-15.03c-5.701-2.375-11.594-4.547-17.543-6.466
		l-0.654-0.212l-0.967-2.302l1.383-0.58c32.242-13.525,66.318-20.384,101.283-20.384c34.514,0,68.182,6.688,100.07,19.878
		l3.744,1.549l-3.85,1.263c-5.744,1.883-11.443,4.005-16.965,6.316c2.814,5.241,5.439,10.604,7.812,15.966l1.516,3.425l-3.461-1.432
		c-28.318-11.713-58.217-17.651-88.863-17.651c-30.65,0-60.549,5.939-88.869,17.653L12.102,170.961z M7.707,144.312
		c5.4,1.835,10.736,3.871,15.904,6.069l1.516,0.645l-0.783,1.448c-2.283,4.226-4.443,8.542-6.445,12.873
		c27.648-10.932,56.74-16.472,86.531-16.472c29.789,0,58.877,5.539,86.525,16.47c-2.148-4.645-4.48-9.271-6.951-13.796l-0.791-1.45
		l1.518-0.648c4.844-2.071,9.834-3.999,14.879-5.752c-30.412-12.038-62.41-18.137-95.184-18.137
		C71.09,125.562,38.57,131.868,7.707,144.312z"/>
	<g>
		<path fill="#FFFFFF" d="M79.299,133.48c0.203-0.04,0.402-0.08,0.609-0.118c0.381,1.397,0.769,2.794,1.154,4.192
			c-0.242,0.046-0.491,0.092-0.732,0.14c-0.655-1.191-1.39-2.001-2.203-2.42c-0.812-0.42-1.649-0.535-2.5-0.344
			c-0.652,0.146-1.208,0.445-1.655,0.895c-0.445,0.449-0.735,1.054-0.847,1.812c-0.117,0.757-0.005,1.726,0.322,2.906
			c0.373,1.327,0.773,2.284,1.191,2.872c0.416,0.588,0.907,0.981,1.466,1.181c0.556,0.201,1.144,0.232,1.753,0.094
			c0.808-0.183,1.381-0.525,1.737-1.037c0.354-0.512,0.463-1.11,0.304-1.798c-0.075-0.322-0.15-0.645-0.222-0.966
			c-0.044-0.177-0.12-0.299-0.248-0.366c-0.129-0.066-0.289-0.079-0.489-0.037c-0.421,0.088-0.841,0.178-1.26,0.271
			c-0.051-0.218-0.106-0.434-0.16-0.651c1.955-0.43,3.907-0.812,5.855-1.151c0.043,0.22,0.084,0.438,0.123,0.657
			c-0.244,0.042-0.486,0.085-0.732,0.129c-0.261,0.047-0.44,0.128-0.535,0.242c-0.099,0.116-0.132,0.256-0.095,0.425
			c0.265,1.308,0.536,2.614,0.815,3.92c-0.2,0.038-0.407,0.076-0.607,0.115c-0.453-0.535-0.916-1.067-1.379-1.597
			c-0.303,0.71-0.714,1.268-1.222,1.677c-0.511,0.409-1.154,0.701-1.941,0.88c-1.044,0.24-2.06,0.244-3.052,0.009
			c-1-0.233-1.857-0.672-2.578-1.327c-0.724-0.654-1.268-1.526-1.604-2.624c-0.501-1.617-0.316-3.112,0.593-4.47
			c0.91-1.354,2.277-2.251,4.041-2.65c0.652-0.148,1.257-0.196,1.801-0.145c0.547,0.052,1.144,0.219,1.801,0.508
			C78.965,134.297,79.129,133.889,79.299,133.48z"/>
		<path fill="#FFFFFF" d="M93.806,141.742c0.128,0.165,0.26,0.33,0.382,0.494c-0.295,0.234-0.567,0.401-0.811,0.504
			c-0.244,0.103-0.514,0.17-0.816,0.202c-0.448,0.046-0.82-0.001-1.119-0.148c-0.298-0.144-0.593-0.448-0.893-0.91
			c-0.471,0.554-0.9,0.948-1.298,1.181c-0.394,0.232-0.857,0.385-1.387,0.462c-0.733,0.106-1.331,0.037-1.8-0.209
			c-0.466-0.248-0.748-0.611-0.837-1.093c-0.133-0.726,0.147-1.374,0.856-1.934c0.568-0.443,1.893-1.004,3.991-1.613
			c-0.042-0.327-0.087-0.654-0.127-0.982c-0.052-0.386-0.237-0.686-0.561-0.894c-0.32-0.209-0.735-0.282-1.223-0.216
			c-0.378,0.05-0.699,0.166-0.964,0.345c-0.18,0.121-0.26,0.226-0.246,0.318c0.009,0.049,0.055,0.116,0.138,0.201
			c0.193,0.197,0.299,0.401,0.329,0.613c0.04,0.271-0.024,0.504-0.201,0.699c-0.175,0.195-0.431,0.317-0.767,0.368
			c-0.355,0.054-0.656,0.008-0.905-0.14c-0.254-0.146-0.396-0.361-0.447-0.646c-0.078-0.466,0.137-0.925,0.66-1.371
			c0.652-0.553,1.524-0.908,2.606-1.049c0.816-0.107,1.553-0.083,2.213,0.069c0.418,0.095,0.777,0.306,1.066,0.63
			c0.286,0.325,0.466,0.748,0.52,1.261c0.128,1.153,0.259,2.307,0.391,3.459c0.028,0.263,0.104,0.446,0.222,0.552
			c0.113,0.105,0.268,0.149,0.451,0.131C93.382,142.01,93.577,141.916,93.806,141.742z M90.159,139.31
			c-1.133,0.28-1.88,0.604-2.239,0.953c-0.361,0.348-0.501,0.763-0.423,1.242c0.053,0.337,0.185,0.584,0.407,0.738
			c0.211,0.155,0.489,0.208,0.825,0.163c0.517-0.071,0.928-0.296,1.222-0.684c0.298-0.387,0.408-0.878,0.33-1.474
			C90.238,139.935,90.197,139.623,90.159,139.31z"/>
		<path fill="#FFFFFF" d="M100.24,141.477c0.012,0.227,0.022,0.454,0.032,0.681c-1.705,0.07-3.411,0.176-5.112,0.317
			c-0.023-0.226-0.043-0.452-0.062-0.678c0.214-0.018,0.426-0.035,0.635-0.052c0.266-0.02,0.451-0.081,0.564-0.186
			c0.109-0.103,0.166-0.235,0.149-0.396c-0.106-1.349-0.211-2.697-0.313-4.045c-0.024-0.327-0.129-0.56-0.306-0.699
			c-0.183-0.138-0.417-0.196-0.724-0.172c-0.146,0.011-0.292,0.024-0.437,0.035c-0.017-0.214-0.04-0.428-0.058-0.642
			c1.104-0.142,2.208-0.271,3.309-0.386c0.046,0.744,0.091,1.487,0.135,2.231c0.143-0.757,0.447-1.348,0.907-1.771
			c0.456-0.424,0.992-0.648,1.597-0.67c0.518-0.019,0.926,0.09,1.231,0.325c0.304,0.232,0.458,0.541,0.471,0.922
			c0.005,0.327-0.089,0.594-0.286,0.802c-0.197,0.208-0.446,0.316-0.737,0.325c-0.263,0.009-0.487-0.071-0.683-0.24
			c-0.195-0.168-0.301-0.389-0.31-0.663c-0.007-0.151,0.036-0.312,0.115-0.48c0.041-0.095,0.063-0.163,0.064-0.202
			c-0.007-0.068-0.028-0.117-0.062-0.147c-0.034-0.03-0.094-0.045-0.169-0.042c-0.196,0.008-0.411,0.121-0.638,0.336
			c-0.347,0.333-0.622,0.842-0.832,1.524c-0.206,0.684-0.283,1.367-0.246,2.049c0.031,0.492,0.061,0.984,0.089,1.476
			c0.012,0.172,0.067,0.299,0.173,0.384c0.106,0.084,0.245,0.122,0.425,0.113C99.521,141.508,99.882,141.492,100.24,141.477z"/>
		<path fill="#FFFFFF" d="M108.262,131.228c1.328-0.015,2.655-0.01,3.985,0.016c-0.151,2.983-0.321,5.967-0.49,8.952
			c-0.026,0.459-0.014,0.769,0.044,0.93c0.054,0.162,0.148,0.282,0.283,0.36c0.129,0.079,0.394,0.128,0.778,0.152
			c-0.014,0.217-0.03,0.434-0.044,0.651c-1.005-0.033-2.01-0.054-3.013-0.061c-0.056-0.447-0.112-0.894-0.167-1.341
			c-0.486,0.545-0.916,0.906-1.292,1.082c-0.381,0.176-0.848,0.26-1.4,0.251c-1-0.013-1.812-0.328-2.452-0.953
			c-0.641-0.627-0.977-1.475-0.991-2.554c-0.022-1.191,0.314-2.142,1.014-2.845c0.7-0.702,1.585-1.051,2.638-1.036
			c0.564,0.009,1.069,0.127,1.503,0.357c0.433,0.229,0.817,0.595,1.158,1.095c0.038-1.04,0.077-2.079,0.114-3.119
			c0.015-0.37-0.013-0.638-0.089-0.802c-0.077-0.163-0.173-0.279-0.308-0.343c-0.133-0.066-0.4-0.105-0.819-0.116
			c-0.157-0.004-0.313-0.008-0.468-0.011C108.247,131.671,108.256,131.449,108.262,131.228z M107.892,135.791
			c-0.642-0.013-1.115,0.23-1.436,0.725c-0.258,0.404-0.393,1.048-0.397,1.931c-0.008,0.738,0.059,1.289,0.196,1.654
			c0.135,0.364,0.326,0.638,0.58,0.818c0.253,0.183,0.54,0.276,0.866,0.282c0.536,0.011,0.97-0.19,1.314-0.604
			c0.456-0.543,0.712-1.247,0.741-2.115c0.031-0.806-0.138-1.454-0.518-1.941C108.86,136.051,108.412,135.801,107.892,135.791z"/>
		<path fill="#FFFFFF" d="M119.13,135.56c0.872,0.093,1.653,0.353,2.337,0.773c0.686,0.421,1.158,0.924,1.433,1.501
			c0.274,0.579,0.346,1.241,0.228,1.984c-0.192,1.189-0.779,2.034-1.752,2.553c-0.969,0.521-1.998,0.719-3.103,0.601
			c-0.78-0.084-1.474-0.317-2.092-0.704c-0.618-0.387-1.079-0.869-1.387-1.454c-0.306-0.585-0.437-1.227-0.381-1.928
			c0.083-1.056,0.558-1.914,1.457-2.558C116.764,135.685,117.854,135.424,119.13,135.56z M119.102,136.256
			c-0.574-0.062-1.054,0.115-1.439,0.527c-0.387,0.412-0.628,1.178-0.74,2.296c-0.115,1.162-0.035,1.978,0.239,2.448
			c0.271,0.471,0.677,0.733,1.222,0.792c0.551,0.06,1.03-0.113,1.434-0.524c0.402-0.409,0.682-1.165,0.828-2.27
			c0.154-1.134,0.084-1.946-0.211-2.437C120.138,136.599,119.688,136.32,119.102,136.256z"/>
		<path fill="#FFFFFF" d="M125.586,132.771c1.264,0.137,2.532,0.294,3.799,0.468c-0.6,3.197-1.227,6.392-1.883,9.585
			c-0.032,0.173-0.003,0.319,0.097,0.44c0.103,0.12,0.268,0.201,0.491,0.243c0.155,0.03,0.311,0.059,0.465,0.088
			c-0.051,0.222-0.101,0.446-0.148,0.668c-1.47-0.282-2.936-0.537-4.408-0.765c0.04-0.224,0.077-0.448,0.117-0.673
			c0.167,0.026,0.335,0.052,0.504,0.08c0.23,0.037,0.412,0.009,0.547-0.087c0.136-0.094,0.221-0.257,0.265-0.489
			c0.489-2.633,0.953-5.266,1.407-7.9c0.041-0.247-0.004-0.448-0.143-0.607c-0.137-0.158-0.343-0.259-0.615-0.302
			c-0.198-0.031-0.397-0.062-0.596-0.092C125.518,133.21,125.555,132.991,125.586,132.771z"/>
		<path fill="#FFFFFF" d="M135.572,138.373c0.871,0.206,1.635,0.565,2.273,1.072c0.642,0.506,1.061,1.068,1.255,1.677
			c0.195,0.61,0.173,1.277-0.049,2c-0.357,1.156-1.091,1.917-2.156,2.305c-1.067,0.388-2.139,0.45-3.242,0.188
			c-0.781-0.184-1.447-0.506-2.019-0.969c-0.565-0.464-0.972-1.002-1.194-1.622c-0.228-0.62-0.268-1.273-0.112-1.962
			c0.229-1.037,0.83-1.826,1.829-2.349C133.148,138.189,134.293,138.072,135.572,138.373z M135.447,139.059
			c-0.573-0.136-1.082-0.022-1.535,0.337c-0.444,0.358-0.801,1.088-1.069,2.182c-0.285,1.138-0.321,1.958-0.108,2.459
			c0.206,0.503,0.581,0.816,1.126,0.945c0.554,0.132,1.065,0.022,1.532-0.333c0.464-0.354,0.866-1.068,1.168-2.145
			c0.315-1.104,0.361-1.921,0.127-2.445C136.455,139.535,136.042,139.199,135.447,139.059z"/>
	</g>
</g>
</svg>
