<?xml version="1.0" encoding="utf-8"?>
<!-- Generator: Adobe Illustrator 16.0.4, SVG Export Plug-In . SVG Version: 6.00 Build 0)  -->
<!DOCTYPE svg PUBLIC "-//W3C//DTD SVG 1.1//EN" "http://www.w3.org/Graphics/SVG/1.1/DTD/svg11.dtd">
<svg version="1.1" id="Livello_1" xmlns="http://www.w3.org/2000/svg" xmlns:xlink="http://www.w3.org/1999/xlink" x="0px" y="0px"
	 width="210px" height="200px" viewBox="0 0 210 200" enable-background="new 0 0 210 200" xml:space="preserve">
<g>
	<g>
		<circle fill="#FBC02E" cx="105" cy="100" r="84"/>
		<circle fill="#FABF2D" cx="105" cy="100" r="75.216"/>
		<path fill="#FFFFFF" d="M104.999,177.717c-42.853,0-77.715-34.864-77.715-77.717s34.862-77.717,77.715-77.717
			S182.716,57.147,182.716,100S147.852,177.717,104.999,177.717z M104.999,27.283c-40.095,0-72.715,32.621-72.715,72.717
			s32.62,72.717,72.715,72.717c40.097,0,72.717-32.621,72.717-72.717S145.096,27.283,104.999,27.283z"/>
		<path fill="#FFFFFF" d="M100.554,115.299H83.5l0.474-43.506c-0.551-4.04-3.011-6.182-6.093-6.182c-2.601,0-4.729,1.54-5.668,4.439
			L71.5,115.299H51.906h-0.035c-3.244,0-6.13,2.607-6.13,6.072c0,3.465,2.431,6.689,5.675,6.689c0.036,0,0.055,0.002,0.084,0.003
			v0.236h19.483H83.53h17.023c3.381,0,5.62-3.534,5.62-6.908C106.174,118.019,103.935,116.299,100.554,115.299z M51.516,128.064
			C52.047,128.082,51.592,128.215,51.516,128.064L51.516,128.064z"/>
		<g>
			<path fill="#FFFFFF" d="M142.847,86.046c-4.127-0.584-8.157-0.06-11.806,1.339l-5.002-10.106l5.697-14.445l-13.121-1.856
				c0,0-4.514,2.895-0.646,4.569c2.888,0.409,7.321,1.035,7.321,1.035l-2.617,6.618l-31.19-4.41l3.894-9.546
				c0,0,4.04,0.353,8.083,1.144c3.158-2.052,0.647-4.572,0.647-4.572l-21.339-3.017c0,0-3.323,1.685-0.646,4.572
				c4.673,0.662,8.547,1.209,8.547,1.209l-6.043,14.824L84.49,85.956c0.516-1.266,0.844-2.071,0.844-2.071
				c6.745,3.762,10.848,11.399,9.703,19.49c-0.633,4.477-2.778,8.369-5.834,11.256l6.121,0.01c2.209-3.044,3.73-6.652,4.293-10.629
				c1.447-10.223-3.878-19.858-12.533-24.421l2.891-7.094l19.763,33.538c0,0,0.828,1.862,2.876,2.151
				c2.043,0.289,3.078,0.435,3.078,0.435c-0.535,12.113,8.229,22.908,20.479,24.642c13.02,1.841,25.108-7.251,26.951-20.272
				C164.961,99.977,155.867,87.888,142.847,86.046z M135.506,106.751l-14.559-2.057c1.242-4.677,4.18-8.56,8.029-11.092
				L135.506,106.751z M111.874,100.563L96.301,74.126l24.637,3.484L111.874,100.563z M115.501,103.931l8.251-20.877l3.156,6.38
				c-5.156,3.221-9.066,8.376-10.571,14.616L115.501,103.931z M158.555,112.346c-1.483,10.493-11.229,17.833-21.731,16.349
				c-9.735-1.377-16.72-9.842-16.523-19.421c0,0,15.173,2.146,19.175,2.711c4,0.566,3.089-1.368,3.089-1.368l-9.456-19.076
				c2.828-1.008,5.932-1.375,9.1-0.928C152.711,92.099,160.039,101.853,158.555,112.346z"/>
			<path fill="#FFFFFF" d="M62.801,114.623c-4.361-4.142-6.744-10.248-5.84-16.643c1.127-7.966,7.023-14.097,14.387-15.944
				l0.074-4.758c-9.682,1.903-17.57,9.747-19.028,20.055c-0.897,6.346,0.81,12.466,4.296,17.29H62.801z"/>
		</g>
	</g>
	<path fill="#FDD835" d="M195.044,168.142c-2.57-5.81-5.418-11.587-8.545-17.312c5.996-2.563,12.201-4.905,18.602-7.004
		c-64.111-26.519-136.189-26.351-200.201,0.503c0.041,0.095,0.08,0.188,0.119,0.283c6.605,2.131,13.006,4.522,19.184,7.149
		c-2.928,5.42-5.605,10.887-8.037,16.382C73.435,144.454,137.774,144.453,195.044,168.142L195.044,168.142L195.044,168.142z"/>
	<path fill="#FFFFFF" d="M12.101,170.961l1.514-3.425c2.232-5.043,4.688-10.092,7.311-15.03c-5.701-2.375-11.596-4.547-17.545-6.466
		l-0.654-0.212l-0.967-2.302l1.383-0.58c32.242-13.525,66.318-20.384,101.285-20.384c34.514,0,68.182,6.688,100.07,19.878
		l3.744,1.549l-3.85,1.263c-5.744,1.883-11.443,4.005-16.965,6.316c2.814,5.241,5.439,10.604,7.812,15.966l1.516,3.425l-3.461-1.432
		c-28.318-11.713-58.217-17.651-88.863-17.651c-30.652,0-60.551,5.939-88.869,17.653L12.101,170.961z M7.706,144.312
		c5.4,1.835,10.738,3.871,15.906,6.069l1.516,0.645l-0.783,1.448c-2.283,4.226-4.443,8.542-6.445,12.873
		c27.646-10.932,56.738-16.472,86.531-16.472c29.789,0,58.877,5.539,86.525,16.47c-2.148-4.645-4.48-9.271-6.951-13.796l-0.791-1.45
		l1.518-0.648c4.844-2.071,9.834-3.999,14.879-5.752c-30.412-12.038-62.41-18.137-95.184-18.137
		C71.089,125.562,38.569,131.868,7.706,144.312z"/>
	<g>
		<path fill="#FFFFFF" d="M32.748,141.68c0.084-0.367,0.169-0.734,0.254-1.101c0.184-0.045,0.366-0.091,0.549-0.135
			c0.4,1.295,0.804,2.591,1.209,3.887c-0.224,0.055-0.447,0.11-0.671,0.166c-0.509-1.079-1.128-1.819-1.859-2.22
			c-0.729-0.4-1.475-0.502-2.229-0.307c-0.829,0.215-1.418,0.748-1.757,1.595c-0.339,0.847-0.288,2.029,0.155,3.542
			c0.469,1.603,1.112,2.712,1.918,3.336c0.642,0.486,1.41,0.611,2.309,0.378c0.899-0.233,1.567-0.731,2.018-1.5
			c0.32-0.556,0.454-1.292,0.399-2.206c0.217-0.054,0.433-0.107,0.649-0.161c0.143,1.157-0.085,2.153-0.672,2.995
			c-0.588,0.84-1.437,1.402-2.549,1.693c-1.443,0.376-2.788,0.232-4.052-0.441c-1.265-0.67-2.129-1.732-2.574-3.199
			c-0.496-1.629-0.312-3.093,0.571-4.385c0.752-1.1,1.804-1.83,3.145-2.178c0.527-0.137,1.039-0.19,1.529-0.158
			C31.583,141.315,32.136,141.447,32.748,141.68z"/>
		<path fill="#FFFFFF" d="M44.399,145.34c-1.575,0.338-3.151,0.688-4.726,1.053c0.23,0.871,0.584,1.471,1.051,1.802
			c0.466,0.331,0.984,0.433,1.555,0.304c0.406-0.091,0.767-0.284,1.082-0.578c0.317-0.293,0.601-0.763,0.856-1.406
			c0.198,0.062,0.396,0.125,0.593,0.188c-0.252,0.754-0.601,1.332-1.056,1.731c-0.449,0.402-1.052,0.685-1.8,0.854
			c-1.09,0.247-2.05,0.142-2.885-0.318s-1.381-1.173-1.632-2.143c-0.25-0.969-0.113-1.863,0.416-2.677
			c0.53-0.815,1.308-1.34,2.321-1.569c0.701-0.159,1.335-0.162,1.897-0.009c0.566,0.151,1.045,0.451,1.438,0.895
			C43.905,143.914,44.2,144.538,44.399,145.34z M39.522,145.788c0.752-0.174,1.505-0.344,2.255-0.512
			c0.211-0.047,0.352-0.129,0.42-0.248c0.069-0.119,0.072-0.306,0.012-0.563c-0.123-0.516-0.345-0.887-0.668-1.112
			c-0.322-0.225-0.683-0.293-1.081-0.203c-0.469,0.106-0.783,0.379-0.939,0.818C39.365,144.405,39.366,145.013,39.522,145.788z"/>
		<path fill="#FFFFFF" d="M55.347,145.772c0.04,0.209,0.079,0.417,0.12,0.625c-1.335,0.236-2.671,0.483-4.007,0.739
			c-0.043-0.208-0.086-0.416-0.129-0.624c0.14-0.027,0.281-0.054,0.422-0.081c0.223-0.043,0.378-0.128,0.466-0.255
			c0.088-0.128,0.112-0.295,0.069-0.501c-0.18-0.908-0.362-1.817-0.543-2.726c-0.093-0.465-0.276-0.801-0.556-1.008
			c-0.275-0.204-0.601-0.271-0.973-0.2c-0.508,0.097-0.883,0.354-1.127,0.766c-0.245,0.413-0.297,0.957-0.154,1.632
			c0.146,0.699,0.294,1.398,0.444,2.097c0.041,0.206,0.132,0.351,0.267,0.436c0.135,0.085,0.289,0.111,0.466,0.077
			c0.169-0.034,0.337-0.067,0.506-0.099c0.044,0.208,0.087,0.416,0.13,0.623c-1.387,0.27-2.774,0.549-4.163,0.839
			c-0.048-0.207-0.093-0.414-0.139-0.622c0.18-0.038,0.36-0.076,0.541-0.113c0.209-0.043,0.355-0.129,0.439-0.258
			c0.082-0.129,0.103-0.296,0.057-0.501c-0.273-1.243-0.545-2.484-0.814-3.728c-0.045-0.214-0.161-0.368-0.346-0.463
			c-0.185-0.094-0.407-0.115-0.665-0.062c-0.096,0.02-0.192,0.04-0.291,0.061c-0.042-0.194-0.085-0.388-0.129-0.582
			c0.941-0.245,1.883-0.485,2.822-0.721c0.184,0.363,0.356,0.807,0.521,1.328c0.291-0.574,0.639-1.027,1.04-1.361
			c0.4-0.333,0.851-0.547,1.351-0.641c0.679-0.128,1.254-0.019,1.728,0.327c0.468,0.346,0.769,0.891,0.911,1.636
			c0.186,0.973,0.373,1.946,0.56,2.918c0.044,0.224,0.128,0.375,0.256,0.454c0.129,0.08,0.313,0.097,0.55,0.055
			C55.101,145.816,55.224,145.794,55.347,145.772z"/>
		<path fill="#FFFFFF" d="M57.084,136.949c0.22-0.036,0.438-0.072,0.654-0.107c0.146,0.866,0.293,1.731,0.44,2.597
			c0.749-0.123,1.5-0.242,2.25-0.359c0.039,0.244,0.079,0.486,0.119,0.73c-0.75,0.116-1.497,0.236-2.246,0.358
			c0.229,1.338,0.457,2.675,0.69,4.013c0.047,0.265,0.152,0.459,0.321,0.582s0.369,0.165,0.604,0.128
			c0.668-0.107,0.921-0.75,0.768-1.93c0.212-0.035,0.426-0.067,0.639-0.1c0.088,0.629,0.065,1.147-0.067,1.558
			c-0.132,0.411-0.363,0.749-0.69,1.014c-0.328,0.265-0.719,0.433-1.174,0.507c-0.397,0.065-0.756,0.046-1.075-0.059
			c-0.318-0.104-0.594-0.293-0.819-0.566c-0.23-0.274-0.376-0.587-0.44-0.943c-0.233-1.293-0.466-2.586-0.696-3.88
			c-0.402,0.069-0.805,0.138-1.207,0.208c-0.037-0.207-0.074-0.414-0.112-0.619c0.723-0.219,1.255-0.58,1.594-1.086
			C56.976,138.488,57.125,137.807,57.084,136.949z"/>
		<path fill="#FFFFFF" d="M67.256,143.917c0.029,0.21,0.059,0.42,0.09,0.63c-1.552,0.209-3.102,0.43-4.653,0.665
			c-0.032-0.209-0.066-0.419-0.101-0.628c0.194-0.029,0.386-0.058,0.578-0.087c0.238-0.035,0.404-0.104,0.5-0.209
			c0.097-0.103,0.133-0.23,0.108-0.379c-0.193-1.248-0.385-2.497-0.575-3.746c-0.048-0.303-0.155-0.512-0.324-0.63
			c-0.169-0.118-0.387-0.157-0.653-0.117c-0.128,0.019-0.256,0.039-0.386,0.057c-0.03-0.198-0.062-0.396-0.093-0.594
			c0.963-0.194,1.929-0.383,2.894-0.567c0.101,0.688,0.199,1.376,0.302,2.064c0.066-0.714,0.284-1.285,0.654-1.713
			c0.369-0.429,0.82-0.678,1.351-0.749c0.451-0.06,0.823,0.005,1.115,0.196c0.291,0.188,0.461,0.461,0.506,0.813
			c0.041,0.303-0.019,0.56-0.173,0.771c-0.157,0.21-0.364,0.333-0.624,0.367c-0.23,0.031-0.442-0.024-0.629-0.165
			c-0.189-0.141-0.302-0.337-0.338-0.591c-0.02-0.14,0.001-0.292,0.058-0.456c0.028-0.092,0.044-0.155,0.038-0.191
			c-0.009-0.062-0.03-0.107-0.066-0.133c-0.035-0.024-0.088-0.033-0.153-0.023c-0.175,0.023-0.352,0.144-0.532,0.362
			c-0.278,0.336-0.48,0.831-0.607,1.48c-0.126,0.65-0.142,1.292-0.049,1.924c0.066,0.456,0.134,0.911,0.201,1.367
			c0.021,0.158,0.087,0.273,0.188,0.344c0.104,0.07,0.235,0.095,0.397,0.073C66.604,144.005,66.93,143.96,67.256,143.917z"/>
		<path fill="#FFFFFF" d="M73.249,137.016c0.763-0.085,1.482-0.005,2.152,0.237c0.672,0.242,1.185,0.598,1.545,1.063
			c0.36,0.467,0.574,1.049,0.644,1.748c0.111,1.116-0.202,2.01-0.935,2.688c-0.732,0.675-1.598,1.067-2.602,1.179
			c-0.71,0.079-1.378,0-2.007-0.235c-0.629-0.237-1.136-0.593-1.522-1.071c-0.388-0.479-0.624-1.043-0.708-1.694
			c-0.127-0.981,0.129-1.849,0.783-2.6C71.25,137.58,72.136,137.139,73.249,137.016z M73.366,137.656
			c-0.504,0.056-0.88,0.309-1.131,0.758c-0.248,0.447-0.309,1.193-0.181,2.234c0.131,1.082,0.366,1.81,0.707,2.187
			c0.34,0.376,0.755,0.536,1.249,0.482c0.504-0.056,0.886-0.31,1.147-0.764c0.261-0.454,0.339-1.197,0.227-2.231
			c-0.116-1.06-0.35-1.784-0.705-2.17C74.322,137.764,73.885,137.599,73.366,137.656z"/>
		<path fill="#FFFFFF" d="M89.394,133.098c0.213-0.312,0.423-0.625,0.637-0.937c0.174-0.009,0.35-0.018,0.523-0.026
			c0.08,1.162,0.162,2.324,0.242,3.485c-0.218,0.01-0.438,0.022-0.656,0.034c-0.393-0.984-0.919-1.708-1.579-2.169
			c-0.661-0.462-1.376-0.669-2.141-0.62c-0.653,0.042-1.174,0.244-1.56,0.601c-0.385,0.358-0.561,0.766-0.527,1.225
			c0.021,0.273,0.12,0.516,0.295,0.732c0.176,0.215,0.451,0.391,0.817,0.528c0.367,0.137,1.002,0.261,1.905,0.378
			c1.055,0.141,1.784,0.285,2.19,0.426c0.645,0.23,1.134,0.556,1.472,0.974c0.334,0.419,0.518,0.94,0.548,1.565
			c0.047,0.933-0.253,1.692-0.893,2.282c-0.772,0.71-1.749,1.1-2.938,1.173c-1.095,0.068-2.118-0.23-3.081-0.895
			c-0.254,0.352-0.506,0.704-0.756,1.057c-0.176,0.013-0.352,0.026-0.527,0.04c-0.102-1.245-0.199-2.49-0.301-3.734
			c0.211-0.016,0.423-0.032,0.634-0.048c0.797,2.085,2.136,3.056,4.035,2.937c0.777-0.048,1.372-0.253,1.784-0.621
			c0.414-0.367,0.605-0.807,0.577-1.321c-0.02-0.358-0.132-0.655-0.338-0.888c-0.205-0.233-0.514-0.413-0.925-0.54
			c-0.226-0.069-0.779-0.167-1.666-0.29c-1.193-0.171-2.055-0.365-2.576-0.589c-0.524-0.225-0.92-0.518-1.185-0.878
			c-0.269-0.362-0.423-0.814-0.466-1.359c-0.071-0.917,0.199-1.691,0.822-2.319c0.62-0.628,1.495-0.982,2.617-1.054
			C87.457,132.174,88.465,132.46,89.394,133.098z"/>
		<path fill="#FFFFFF" d="M100.771,141.242c0.102,0.163,0.204,0.325,0.307,0.488c-0.286,0.195-0.543,0.332-0.772,0.409
			c-0.229,0.077-0.479,0.118-0.754,0.123c-0.407,0.009-0.739-0.067-0.994-0.228c-0.255-0.16-0.494-0.468-0.715-0.922
			c-0.472,0.472-0.897,0.798-1.274,0.976c-0.378,0.179-0.81,0.276-1.294,0.293c-0.667,0.023-1.193-0.105-1.58-0.385
			c-0.39-0.28-0.593-0.647-0.614-1.104c-0.029-0.688,0.295-1.253,0.977-1.696c0.548-0.349,1.766-0.726,3.661-1.105
			c-0.009-0.308-0.017-0.615-0.025-0.922c-0.01-0.364-0.146-0.659-0.409-0.881c-0.262-0.224-0.609-0.329-1.04-0.315
			c-0.329,0.011-0.618,0.086-0.865,0.227c-0.167,0.093-0.249,0.181-0.246,0.268c0.003,0.046,0.035,0.113,0.103,0.202
			c0.142,0.2,0.217,0.401,0.224,0.601c0.009,0.255-0.073,0.464-0.247,0.628c-0.171,0.163-0.407,0.25-0.705,0.262
			c-0.317,0.012-0.575-0.063-0.775-0.227c-0.199-0.162-0.305-0.379-0.316-0.647c-0.02-0.442,0.219-0.842,0.715-1.198
			c0.617-0.443,1.403-0.682,2.35-0.71c0.713-0.021,1.351,0.066,1.908,0.263c0.357,0.123,0.65,0.348,0.876,0.673
			c0.229,0.327,0.347,0.731,0.356,1.214c0.021,1.082,0.044,2.165,0.065,3.247c0.005,0.246,0.057,0.422,0.153,0.53
			c0.096,0.107,0.229,0.159,0.396,0.157C100.37,141.46,100.549,141.387,100.771,141.242z M97.731,138.687
			c-1.022,0.159-1.709,0.386-2.062,0.674c-0.352,0.288-0.519,0.658-0.501,1.108c0.012,0.319,0.104,0.561,0.28,0.725
			c0.174,0.166,0.413,0.243,0.718,0.233c0.471-0.016,0.856-0.189,1.158-0.521c0.303-0.332,0.445-0.778,0.432-1.338
			C97.749,139.274,97.741,138.98,97.731,138.687z"/>
		<path fill="#FFFFFF" d="M110.897,141.419c-0.004,0.212-0.009,0.423-0.013,0.635c-1.334-0.026-2.668-0.044-4.002-0.051
			c0-0.212,0.002-0.424,0.004-0.636c0.14,0.001,0.279,0.001,0.419,0.002c0.225,0.001,0.392-0.052,0.502-0.16
			s0.165-0.267,0.168-0.477c0.009-0.925,0.019-1.851,0.027-2.775c0.005-0.474-0.105-0.838-0.331-1.094
			c-0.226-0.253-0.526-0.383-0.895-0.385c-0.507-0.002-0.919,0.176-1.235,0.534c-0.318,0.356-0.475,0.879-0.476,1.567
			c0,0.713,0.002,1.427,0.003,2.14c0,0.21,0.055,0.369,0.167,0.479c0.111,0.109,0.255,0.164,0.433,0.165c0.167,0,0.337,0,0.505,0
			c-0.001,0.212-0.002,0.424-0.003,0.636c-1.387-0.004-2.772,0.001-4.157,0.018c-0.004-0.212-0.006-0.424-0.009-0.636
			c0.181-0.002,0.361-0.003,0.542-0.006c0.209-0.002,0.366-0.058,0.473-0.168c0.105-0.109,0.159-0.27,0.157-0.479
			c-0.01-1.27-0.021-2.539-0.03-3.808c-0.001-0.219-0.081-0.392-0.238-0.521c-0.158-0.127-0.366-0.191-0.623-0.188
			c-0.097,0.001-0.194,0.002-0.291,0.003c-0.001-0.199-0.004-0.396-0.006-0.595c0.947-0.058,1.895-0.112,2.845-0.162
			c0.102,0.391,0.18,0.859,0.232,1.401c0.395-0.506,0.819-0.883,1.27-1.133c0.449-0.249,0.925-0.372,1.423-0.367
			c0.678,0.006,1.212,0.225,1.595,0.654c0.383,0.43,0.563,1.022,0.551,1.779c-0.016,0.989-0.033,1.978-0.05,2.966
			c-0.003,0.228,0.049,0.393,0.155,0.495c0.108,0.102,0.281,0.155,0.52,0.16C110.651,141.414,110.773,141.417,110.897,141.419z"/>
		<path fill="#FFFFFF" d="M114.336,133.109c0.218,0.006,0.437,0.013,0.654,0.021c-0.028,0.877-0.058,1.754-0.089,2.631
			c0.749,0.025,1.498,0.053,2.248,0.083c-0.011,0.247-0.021,0.492-0.031,0.738c-0.747-0.031-1.495-0.059-2.241-0.083
			c-0.047,1.354-0.095,2.71-0.141,4.065c-0.01,0.269,0.056,0.48,0.193,0.633c0.136,0.152,0.323,0.233,0.557,0.241
			c0.669,0.024,1.046-0.556,1.134-1.743c0.214,0.008,0.425,0.017,0.639,0.026c-0.04,0.633-0.17,1.136-0.381,1.513
			c-0.212,0.378-0.504,0.663-0.873,0.859c-0.372,0.196-0.783,0.285-1.238,0.27c-0.398-0.014-0.74-0.101-1.026-0.265
			c-0.288-0.165-0.513-0.402-0.677-0.713c-0.164-0.313-0.242-0.649-0.233-1.009c0.038-1.312,0.073-2.625,0.108-3.936
			c-0.4-0.011-0.803-0.021-1.205-0.03c0.005-0.209,0.009-0.419,0.016-0.629c0.739-0.074,1.324-0.325,1.751-0.755
			C113.928,134.596,114.206,133.958,114.336,133.109z"/>
		<path fill="#FFFFFF" d="M125.911,141.958c0.087,0.17,0.176,0.342,0.262,0.513c-0.306,0.169-0.573,0.282-0.808,0.338
			c-0.236,0.057-0.49,0.075-0.767,0.057c-0.406-0.028-0.731-0.133-0.97-0.315c-0.24-0.183-0.448-0.51-0.629-0.982
			c-0.516,0.429-0.967,0.716-1.362,0.859c-0.394,0.145-0.832,0.203-1.315,0.177c-0.669-0.035-1.18-0.208-1.541-0.522
			c-0.36-0.313-0.53-0.698-0.509-1.153c0.034-0.688,0.406-1.223,1.128-1.603c0.578-0.299,1.826-0.567,3.752-0.776
			c0.02-0.307,0.04-0.614,0.061-0.921c0.022-0.363-0.086-0.668-0.328-0.913c-0.243-0.245-0.581-0.381-1.012-0.407
			c-0.328-0.019-0.623,0.032-0.885,0.149c-0.172,0.078-0.262,0.159-0.268,0.246c-0.003,0.046,0.024,0.115,0.083,0.209
			c0.125,0.213,0.181,0.419,0.17,0.619c-0.014,0.254-0.115,0.456-0.303,0.604c-0.187,0.146-0.43,0.213-0.728,0.198
			c-0.317-0.017-0.567-0.114-0.752-0.294c-0.185-0.179-0.269-0.404-0.256-0.672c0.021-0.441,0.293-0.819,0.82-1.13
			c0.655-0.386,1.458-0.555,2.406-0.5c0.715,0.042,1.342,0.186,1.882,0.431c0.345,0.155,0.617,0.405,0.813,0.75
			c0.197,0.345,0.279,0.758,0.244,1.24c-0.076,1.081-0.153,2.16-0.231,3.24c-0.019,0.246,0.018,0.426,0.103,0.542
			c0.088,0.116,0.215,0.179,0.382,0.191C125.49,142.14,125.679,142.083,125.911,141.958z M123.114,139.144
			c-1.036,0.068-1.741,0.233-2.118,0.489c-0.379,0.255-0.579,0.609-0.604,1.059c-0.018,0.319,0.054,0.568,0.214,0.748
			c0.158,0.181,0.39,0.278,0.693,0.295c0.47,0.027,0.871-0.112,1.204-0.416c0.331-0.304,0.518-0.735,0.554-1.295
			C123.076,139.73,123.097,139.437,123.114,139.144z"/>
		<path fill="#FFFFFF" d="M140.743,134.807c0.21-0.312,0.42-0.624,0.632-0.935c0.183,0.022,0.365,0.045,0.547,0.068
			c-0.108,1.349-0.221,2.696-0.334,4.045c-0.223-0.028-0.445-0.056-0.668-0.083c-0.062-1.185-0.351-2.091-0.865-2.723
			c-0.514-0.631-1.15-0.989-1.902-1.074c-0.824-0.093-1.55,0.196-2.165,0.863c-0.616,0.667-1.003,1.785-1.168,3.347
			c-0.176,1.655-0.017,2.911,0.47,3.774c0.394,0.678,1.037,1.065,1.936,1.167c0.898,0.101,1.692-0.124,2.388-0.678
			c0.501-0.403,0.898-1.039,1.192-1.907c0.216,0.027,0.435,0.054,0.649,0.082c-0.305,1.125-0.887,1.969-1.738,2.541
			c-0.851,0.572-1.83,0.794-2.943,0.669c-1.44-0.161-2.592-0.77-3.469-1.839c-0.879-1.068-1.252-2.359-1.105-3.877
			c0.162-1.687,0.864-2.983,2.129-3.873c1.077-0.758,2.287-1.065,3.623-0.916c0.525,0.059,1.007,0.19,1.438,0.394
			C139.822,134.055,140.273,134.373,140.743,134.807z"/>
		<path fill="#FFFFFF" d="M143.796,134.421c1.094,0.093,2.189,0.194,3.285,0.299c-0.239,1.642-0.482,3.284-0.725,4.926
			c0.571-0.49,1.081-0.805,1.525-0.95c0.442-0.144,0.913-0.179,1.403-0.104c0.681,0.104,1.173,0.377,1.469,0.816
			c0.336,0.505,0.435,1.162,0.298,1.966c-0.166,0.999-0.336,1.998-0.505,2.996c-0.035,0.207-0.011,0.366,0.07,0.479
			c0.082,0.113,0.22,0.185,0.408,0.215c0.153,0.025,0.308,0.05,0.46,0.076c-0.036,0.208-0.073,0.418-0.108,0.626
			c-1.339-0.219-2.676-0.428-4.015-0.628c0.033-0.21,0.066-0.419,0.101-0.628c0.146,0.021,0.289,0.042,0.434,0.065
			c0.243,0.036,0.416,0.019,0.514-0.054c0.139-0.094,0.223-0.243,0.254-0.445c0.162-0.982,0.321-1.964,0.479-2.945
			c0.066-0.424,0-0.779-0.205-1.065c-0.205-0.288-0.489-0.459-0.859-0.513c-0.456-0.068-0.875,0.052-1.258,0.361
			c-0.384,0.309-0.618,0.771-0.71,1.384c-0.119,0.782-0.236,1.565-0.355,2.348c-0.029,0.203-0.001,0.361,0.086,0.475
			s0.226,0.184,0.416,0.212c0.16,0.023,0.324,0.047,0.485,0.07c-0.033,0.21-0.066,0.418-0.1,0.629
			c-1.38-0.203-2.76-0.395-4.142-0.578c0.03-0.21,0.061-0.42,0.09-0.63c0.191,0.025,0.385,0.051,0.577,0.077
			c0.205,0.027,0.366-0.004,0.485-0.094c0.12-0.089,0.194-0.23,0.223-0.425c0.355-2.486,0.71-4.971,1.058-7.457
			c0.028-0.216-0.021-0.397-0.154-0.542c-0.133-0.144-0.323-0.232-0.574-0.266c-0.165-0.022-0.329-0.044-0.494-0.065
			C143.74,134.842,143.768,134.632,143.796,134.421z"/>
		<path fill="#FFFFFF" d="M153.815,139.678c1.019,0.127,2.039,0.26,3.058,0.398c-0.333,1.783-0.671,3.564-1.014,5.347
			c-0.027,0.143,0.001,0.263,0.084,0.359s0.224,0.162,0.424,0.198c0.149,0.027,0.299,0.054,0.448,0.082
			c-0.041,0.208-0.08,0.417-0.122,0.625c-1.334-0.244-2.668-0.479-4.001-0.703c0.038-0.209,0.075-0.418,0.112-0.627
			c0.148,0.025,0.295,0.05,0.444,0.075c0.236,0.041,0.414,0.018,0.531-0.068c0.116-0.086,0.197-0.258,0.245-0.514
			c0.224-1.217,0.445-2.433,0.665-3.649c0.042-0.229,0.002-0.418-0.119-0.569c-0.119-0.15-0.306-0.247-0.559-0.29
			c-0.103-0.017-0.202-0.034-0.305-0.051C153.745,140.087,153.778,139.883,153.815,139.678z M156.349,136.365
			c0.33,0.058,0.593,0.214,0.79,0.469c0.197,0.255,0.269,0.536,0.212,0.84c-0.058,0.305-0.223,0.543-0.496,0.714
			c-0.276,0.171-0.574,0.228-0.902,0.171c-0.333-0.058-0.597-0.215-0.794-0.471c-0.195-0.256-0.269-0.534-0.215-0.835
			c0.053-0.304,0.218-0.544,0.491-0.718C155.707,136.363,156.014,136.306,156.349,136.365z"/>
		<path fill="#FFFFFF" d="M165.831,147.696c0.062,0.182,0.126,0.363,0.188,0.545c-0.334,0.125-0.624,0.197-0.869,0.22
			c-0.248,0.022-0.509,0.004-0.784-0.054c-0.408-0.086-0.718-0.236-0.934-0.451c-0.215-0.214-0.379-0.569-0.488-1.062
			c-0.585,0.351-1.086,0.57-1.507,0.656c-0.418,0.086-0.869,0.082-1.354-0.012c-0.668-0.131-1.159-0.376-1.476-0.737
			c-0.316-0.362-0.431-0.766-0.34-1.214c0.135-0.676,0.593-1.152,1.375-1.426c0.629-0.214,1.928-0.301,3.906-0.233
			c0.065-0.301,0.132-0.603,0.196-0.904c0.078-0.356,0.013-0.675-0.196-0.952c-0.211-0.277-0.53-0.461-0.963-0.546
			c-0.33-0.066-0.637-0.058-0.916,0.021c-0.187,0.052-0.289,0.12-0.307,0.205c-0.01,0.045,0.009,0.118,0.054,0.219
			c0.095,0.228,0.12,0.441,0.079,0.637c-0.053,0.25-0.183,0.435-0.395,0.555c-0.211,0.118-0.465,0.149-0.763,0.091
			c-0.319-0.061-0.557-0.193-0.716-0.399c-0.16-0.204-0.212-0.438-0.16-0.703c0.088-0.434,0.418-0.768,0.994-1.001
			c0.719-0.29,1.555-0.341,2.505-0.151c0.717,0.142,1.329,0.375,1.841,0.696c0.326,0.202,0.565,0.489,0.713,0.857
			c0.148,0.37,0.171,0.791,0.064,1.263c-0.238,1.059-0.478,2.116-0.72,3.175c-0.053,0.24-0.045,0.424,0.024,0.551
			c0.071,0.127,0.191,0.208,0.356,0.244C165.378,147.816,165.574,147.787,165.831,147.696z M163.421,144.51
			c-1.059-0.081-1.794-0.018-2.213,0.182c-0.42,0.198-0.676,0.52-0.769,0.962c-0.063,0.313-0.029,0.57,0.104,0.77
			c0.133,0.202,0.353,0.331,0.657,0.392c0.471,0.094,0.896,0.014,1.279-0.24c0.381-0.253,0.632-0.654,0.753-1.203
			C163.296,145.085,163.359,144.797,163.421,144.51z"/>
		<path fill="#FFFFFF" d="M171.621,149.165c-0.053,0.206-0.108,0.413-0.159,0.618c-1.552-0.367-3.105-0.721-4.658-1.062
			c0.05-0.207,0.098-0.413,0.147-0.62c0.193,0.042,0.388,0.084,0.579,0.127c0.238,0.053,0.423,0.049,0.553-0.015
			c0.131-0.061,0.213-0.166,0.249-0.312c0.299-1.23,0.596-2.461,0.89-3.692c0.071-0.298,0.049-0.531-0.067-0.703
			c-0.116-0.171-0.307-0.286-0.573-0.345c-0.128-0.028-0.258-0.057-0.386-0.085c0.045-0.196,0.09-0.392,0.136-0.587
			c0.985,0.167,1.969,0.339,2.955,0.516c-0.165,0.677-0.333,1.354-0.499,2.03c0.336-0.641,0.761-1.093,1.274-1.358
			c0.514-0.266,1.036-0.336,1.568-0.209c0.452,0.108,0.783,0.303,0.987,0.587c0.207,0.281,0.266,0.596,0.175,0.94
			c-0.078,0.296-0.231,0.514-0.459,0.654c-0.229,0.139-0.475,0.178-0.735,0.116c-0.231-0.056-0.411-0.183-0.537-0.382
			c-0.127-0.199-0.156-0.423-0.095-0.671c0.034-0.137,0.11-0.271,0.228-0.404c0.064-0.074,0.101-0.129,0.109-0.164
			c0.016-0.062,0.013-0.111-0.012-0.148c-0.026-0.036-0.07-0.062-0.14-0.078c-0.175-0.042-0.389,0.007-0.644,0.144
			c-0.39,0.213-0.771,0.6-1.139,1.159c-0.369,0.56-0.629,1.152-0.784,1.772c-0.111,0.448-0.223,0.896-0.336,1.344
			c-0.039,0.155-0.023,0.285,0.047,0.388c0.069,0.102,0.185,0.172,0.347,0.21C170.969,149.012,171.295,149.088,171.621,149.165z"/>
		<path fill="#FFFFFF" d="M182.366,151.751c0.052,0.186,0.103,0.371,0.154,0.556c-0.346,0.104-0.646,0.16-0.896,0.167
			c-0.252,0.006-0.515-0.027-0.79-0.102c-0.407-0.111-0.714-0.279-0.918-0.508c-0.203-0.227-0.347-0.591-0.426-1.09
			c-0.616,0.315-1.138,0.504-1.569,0.564s-0.888,0.029-1.371-0.095c-0.67-0.17-1.15-0.445-1.448-0.825
			c-0.297-0.38-0.386-0.791-0.267-1.233c0.179-0.667,0.671-1.115,1.482-1.342c0.648-0.176,1.971-0.185,3.972,0.003
			c0.086-0.296,0.171-0.594,0.256-0.891c0.101-0.351,0.055-0.673-0.14-0.963s-0.51-0.491-0.942-0.604
			c-0.331-0.085-0.641-0.096-0.929-0.034c-0.192,0.041-0.302,0.103-0.323,0.186c-0.014,0.045,0.001,0.119,0.04,0.223
			c0.08,0.233,0.095,0.447,0.04,0.641c-0.067,0.247-0.213,0.423-0.435,0.53c-0.22,0.106-0.48,0.122-0.778,0.046
			c-0.318-0.081-0.552-0.226-0.699-0.442c-0.15-0.213-0.188-0.451-0.119-0.71c0.114-0.429,0.47-0.744,1.068-0.941
			c0.747-0.246,1.599-0.248,2.549,0c0.718,0.187,1.327,0.456,1.822,0.806c0.32,0.222,0.543,0.523,0.671,0.9
			c0.128,0.379,0.125,0.8-0.014,1.266c-0.308,1.043-0.618,2.085-0.93,3.128c-0.07,0.236-0.075,0.421-0.011,0.552
			c0.062,0.131,0.179,0.22,0.345,0.265C181.898,151.844,182.102,151.826,182.366,151.751z M180.124,148.422
			c-1.066-0.145-1.818-0.126-2.256,0.048c-0.437,0.172-0.715,0.478-0.837,0.915c-0.086,0.309-0.066,0.567,0.058,0.775
			c0.121,0.209,0.335,0.353,0.64,0.431c0.472,0.122,0.907,0.067,1.311-0.162c0.401-0.231,0.684-0.616,0.84-1.157
			C179.962,148.989,180.042,148.706,180.124,148.422z"/>
	</g>
</g>
</svg>
