<?xml version="1.0" encoding="utf-8"?>
<!-- Generator: Adobe Illustrator 16.0.4, SVG Export Plug-In . SVG Version: 6.00 Build 0)  -->
<!DOCTYPE svg PUBLIC "-//W3C//DTD SVG 1.1//EN" "http://www.w3.org/Graphics/SVG/1.1/DTD/svg11.dtd">
<svg version="1.1" id="Livello_1" xmlns="http://www.w3.org/2000/svg" xmlns:xlink="http://www.w3.org/1999/xlink" x="0px" y="0px"
	 width="210px" height="200px" viewBox="0 0 210 200" enable-background="new 0 0 210 200" xml:space="preserve">
<g>
	<g>
		<circle fill="#FBC02E" cx="105" cy="100" r="84"/>
		<circle fill="#FABF2D" cx="105" cy="100" r="75.216"/>
		<path fill="#FFFFFF" d="M104.999,177.717c-42.852,0-77.715-34.864-77.715-77.717s34.863-77.717,77.715-77.717
			c42.853,0,77.717,34.864,77.717,77.717S147.852,177.717,104.999,177.717z M104.999,27.283c-40.095,0-72.715,32.621-72.715,72.717
			s32.62,72.717,72.715,72.717c40.096,0,72.717-32.621,72.717-72.717S145.095,27.283,104.999,27.283z"/>
		<path fill="#FFFFFF" d="M100.554,115.299H83.5l0.474-43.506c-0.551-4.04-3.01-6.182-6.093-6.182c-2.6,0-4.729,1.54-5.668,4.439
			L71.5,115.299H51.907h-0.036c-3.245,0-6.13,2.607-6.13,6.072c0,3.465,2.431,6.689,5.675,6.689c0.036,0,0.054,0.002,0.084,0.003
			v0.236h19.483H83.53h17.023c3.381,0,5.62-3.534,5.62-6.908C106.174,118.019,103.935,116.299,100.554,115.299z M51.516,128.064
			C52.047,128.082,51.592,128.215,51.516,128.064L51.516,128.064z"/>
		<g>
			<path fill="#FFFFFF" d="M142.847,86.046c-4.127-0.584-8.157-0.06-11.805,1.339L126.04,77.28l5.697-14.445l-13.122-1.856
				c0,0-4.513,2.895-0.646,4.569c2.888,0.409,7.321,1.035,7.321,1.035l-2.617,6.618l-31.19-4.41l3.893-9.546
				c0,0,4.04,0.353,8.083,1.144c3.159-2.052,0.647-4.572,0.647-4.572l-21.338-3.017c0,0-3.324,1.685-0.646,4.572
				c4.672,0.662,8.547,1.209,8.547,1.209l-6.043,14.824l-0.135,12.552c0.515-1.266,0.843-2.071,0.843-2.071
				c6.746,3.762,10.848,11.399,9.703,19.49c-0.633,4.477-2.778,8.369-5.834,11.256l6.121,0.01c2.209-3.044,3.731-6.652,4.293-10.629
				c1.447-10.223-3.878-19.858-12.533-24.421l2.891-7.094l19.762,33.538c0,0,0.828,1.862,2.875,2.151
				c2.043,0.289,3.078,0.435,3.078,0.435c-0.535,12.113,8.229,22.908,20.479,24.642c13.021,1.841,25.109-7.251,26.951-20.272
				C164.96,99.977,155.867,87.888,142.847,86.046z M135.505,106.751l-14.558-2.057c1.243-4.677,4.18-8.56,8.029-11.092
				L135.505,106.751z M111.874,100.563L96.3,74.126l24.637,3.484L111.874,100.563z M115.501,103.931l8.251-20.877l3.156,6.38
				c-5.156,3.221-9.066,8.376-10.571,14.616L115.501,103.931z M158.554,112.346c-1.483,10.493-11.229,17.833-21.731,16.349
				c-9.735-1.377-16.72-9.842-16.523-19.421c0,0,15.173,2.146,19.175,2.711c3.999,0.566,3.088-1.368,3.088-1.368l-9.457-19.076
				c2.828-1.008,5.933-1.375,9.1-0.928C152.711,92.099,160.039,101.853,158.554,112.346z"/>
			<path fill="#FFFFFF" d="M62.8,114.623c-4.361-4.142-6.743-10.248-5.839-16.643c1.127-7.966,7.024-14.097,14.387-15.944
				l0.075-4.758c-9.682,1.903-17.571,9.747-19.029,20.055c-0.897,6.346,0.809,12.466,4.295,17.29H62.8z"/>
		</g>
	</g>
	<path fill="#FDD835" d="M195.043,168.142c-2.57-5.81-5.418-11.587-8.545-17.312c5.996-2.563,12.201-4.905,18.602-7.004
		c-64.111-26.519-136.188-26.351-200.2,0.503c0.041,0.095,0.08,0.188,0.119,0.283c6.605,2.131,13.005,4.522,19.183,7.149
		c-2.928,5.42-5.605,10.887-8.037,16.382C73.435,144.454,137.774,144.453,195.043,168.142L195.043,168.142L195.043,168.142z"/>
	<path fill="#FFFFFF" d="M12.101,170.961l1.514-3.425c2.231-5.043,4.687-10.092,7.31-15.03c-5.701-2.375-11.595-4.547-17.544-6.466
		l-0.654-0.212l-0.967-2.302l1.383-0.58c32.242-13.525,66.318-20.384,101.284-20.384c34.514,0,68.182,6.688,100.07,19.878
		l3.744,1.549l-3.85,1.263c-5.744,1.883-11.443,4.005-16.965,6.316c2.814,5.241,5.439,10.604,7.812,15.966l1.516,3.425l-3.461-1.432
		c-28.318-11.713-58.217-17.651-88.863-17.651c-30.651,0-60.55,5.939-88.869,17.653L12.101,170.961z M7.707,144.312
		c5.4,1.835,10.737,3.871,15.905,6.069l1.516,0.645l-0.783,1.448c-2.283,4.226-4.443,8.542-6.445,12.873
		c27.647-10.932,56.739-16.472,86.531-16.472c29.789,0,58.877,5.539,86.525,16.47c-2.148-4.645-4.48-9.271-6.951-13.796l-0.791-1.45
		l1.518-0.648c4.844-2.071,9.834-3.999,14.879-5.752c-30.412-12.038-62.41-18.137-95.184-18.137
		C71.089,125.562,38.57,131.868,7.707,144.312z"/>
	<g>
		<path fill="#FFFFFF" d="M28.542,142.286c2.144-0.603,4.287-1.179,6.429-1.729c1.09-0.28,2.035-0.239,2.832,0.119
			c0.797,0.359,1.291,0.918,1.488,1.675c0.149,0.574,0.091,1.124-0.173,1.647c-0.262,0.524-0.683,0.961-1.263,1.315
			c-0.578,0.353-1.177,0.61-1.797,0.771c-0.663,0.172-1.326,0.346-1.988,0.523c0.307,1.06,0.616,2.119,0.927,3.177
			c0.052,0.176,0.147,0.297,0.285,0.364c0.138,0.068,0.292,0.079,0.463,0.034c0.405-0.108,0.809-0.213,1.215-0.319
			c0.058,0.205,0.117,0.41,0.175,0.614c-1.871,0.487-3.742,0.994-5.614,1.522c-0.062-0.204-0.127-0.407-0.19-0.61
			c0.314-0.089,0.628-0.177,0.943-0.265c0.209-0.058,0.353-0.15,0.43-0.276c0.079-0.126,0.091-0.276,0.037-0.452
			c-0.752-2.47-1.492-4.941-2.22-7.413c-0.049-0.167-0.145-0.283-0.286-0.348c-0.142-0.066-0.295-0.075-0.458-0.031
			c-0.351,0.098-0.701,0.195-1.052,0.294C28.665,142.693,28.603,142.489,28.542,142.286z M33.896,146.005
			c0.444-0.118,0.888-0.236,1.332-0.352c0.466-0.122,0.854-0.319,1.167-0.593c0.311-0.273,0.508-0.558,0.592-0.856
			c0.082-0.296,0.045-0.734-0.11-1.312c-0.214-0.794-0.603-1.295-1.169-1.499c-0.413-0.145-1.043-0.108-1.888,0.112
			c-0.488,0.128-0.788,0.248-0.899,0.354c-0.109,0.108-0.14,0.249-0.089,0.425C33.183,143.526,33.538,144.766,33.896,146.005z"/>
		<path fill="#FFFFFF" d="M40.893,142.921c1.003-0.285,2.007-0.563,3.011-0.836c0.427,1.765,0.858,3.529,1.294,5.293
			c0.035,0.141,0.112,0.24,0.229,0.295c0.117,0.056,0.275,0.061,0.475,0.016c0.15-0.034,0.3-0.068,0.45-0.102
			c0.05,0.207,0.101,0.413,0.151,0.62c-1.334,0.299-2.669,0.608-4.004,0.928c-0.054-0.206-0.107-0.412-0.162-0.618
			c0.149-0.035,0.296-0.07,0.443-0.105c0.238-0.057,0.393-0.147,0.465-0.272c0.071-0.125,0.075-0.314,0.01-0.566
			c-0.307-1.2-0.611-2.401-0.914-3.602c-0.057-0.226-0.172-0.384-0.347-0.475c-0.174-0.091-0.387-0.105-0.641-0.046
			c-0.103,0.025-0.205,0.049-0.307,0.074C40.996,143.324,40.944,143.123,40.893,142.921z M41.893,138.886
			c0.331-0.078,0.641-0.036,0.928,0.12c0.288,0.157,0.467,0.387,0.539,0.688c0.072,0.302,0.016,0.585-0.169,0.851
			c-0.185,0.264-0.44,0.434-0.769,0.51c-0.333,0.077-0.644,0.038-0.932-0.12c-0.289-0.157-0.471-0.384-0.544-0.681
			c-0.075-0.301-0.021-0.585,0.164-0.852C41.295,139.136,41.556,138.964,41.893,138.886z"/>
		<path fill="#FFFFFF" d="M55.305,145.576c0.132,0.142,0.265,0.285,0.397,0.426c-0.252,0.243-0.485,0.421-0.699,0.538
			c-0.216,0.116-0.461,0.2-0.737,0.253c-0.408,0.08-0.755,0.063-1.042-0.05c-0.287-0.113-0.583-0.374-0.891-0.783
			c-0.388,0.549-0.755,0.944-1.104,1.186c-0.349,0.243-0.764,0.414-1.248,0.516c-0.669,0.141-1.225,0.108-1.668-0.099
			c-0.444-0.207-0.719-0.532-0.824-0.978c-0.16-0.671,0.063-1.286,0.671-1.842c0.489-0.441,1.65-1.027,3.493-1.733
			c-0.064-0.302-0.129-0.604-0.193-0.905c-0.076-0.357-0.267-0.623-0.572-0.795c-0.305-0.174-0.676-0.216-1.108-0.127
			c-0.331,0.068-0.609,0.193-0.833,0.375c-0.151,0.121-0.218,0.223-0.199,0.309c0.01,0.044,0.056,0.104,0.14,0.18
			c0.181,0.172,0.292,0.357,0.336,0.552c0.056,0.25,0.011,0.47-0.134,0.663c-0.144,0.19-0.366,0.317-0.665,0.381
			c-0.319,0.068-0.593,0.04-0.825-0.085c-0.232-0.125-0.378-0.319-0.439-0.581c-0.1-0.432,0.067-0.868,0.504-1.307
			c0.544-0.545,1.295-0.919,2.247-1.114c0.717-0.147,1.376-0.172,1.975-0.077c0.382,0.059,0.717,0.229,1.005,0.511
			c0.288,0.282,0.479,0.659,0.577,1.133c0.218,1.062,0.438,2.123,0.658,3.185c0.051,0.242,0.135,0.406,0.252,0.496
			c0.117,0.089,0.26,0.117,0.426,0.085C54.942,145.861,55.109,145.757,55.305,145.576z M51.779,143.592
			c-1.002,0.336-1.654,0.681-1.956,1.027c-0.304,0.345-0.404,0.739-0.304,1.18c0.071,0.312,0.211,0.534,0.418,0.664
			c0.207,0.133,0.462,0.167,0.767,0.104c0.472-0.098,0.828-0.336,1.072-0.717c0.243-0.379,0.306-0.844,0.188-1.394
			C51.903,144.168,51.841,143.88,51.779,143.592z"/>
		<path fill="#FFFFFF" d="M56.037,139.729c1.97-0.36,3.939-0.699,5.909-1.015c0.034,0.204,0.068,0.409,0.103,0.614
			c-1.071,1.908-2.111,3.824-3.122,5.745c0.626-0.111,1.252-0.219,1.878-0.325c0.407-0.069,0.719-0.265,0.938-0.587
			c0.219-0.322,0.332-0.847,0.339-1.574c0.214-0.035,0.427-0.07,0.641-0.104c0.097,0.848,0.196,1.696,0.295,2.545
			c-2.075,0.333-4.15,0.693-6.225,1.076c-0.042-0.208-0.083-0.416-0.124-0.625c0.991-1.928,2.014-3.851,3.066-5.77
			c-0.535,0.091-1.07,0.183-1.605,0.277c-0.374,0.066-0.66,0.248-0.859,0.546c-0.198,0.298-0.293,0.771-0.285,1.416
			c-0.214,0.039-0.429,0.078-0.644,0.117C56.241,141.287,56.139,140.509,56.037,139.729z"/>
		<path fill="#FFFFFF" d="M64.071,138.38c1.97-0.301,3.938-0.581,5.907-0.84c0.028,0.206,0.056,0.411,0.083,0.617
			c-1.123,1.876-2.217,3.76-3.281,5.649c0.626-0.092,1.252-0.181,1.878-0.269c0.406-0.056,0.723-0.243,0.952-0.559
			c0.228-0.316,0.355-0.836,0.386-1.564c0.213-0.028,0.427-0.056,0.64-0.084c0.071,0.851,0.143,1.701,0.216,2.552
			c-2.075,0.273-4.149,0.57-6.225,0.892c-0.034-0.209-0.069-0.418-0.103-0.628c1.045-1.897,2.121-3.79,3.225-5.676
			c-0.535,0.075-1.069,0.151-1.604,0.229c-0.375,0.055-0.664,0.229-0.872,0.521c-0.206,0.292-0.314,0.761-0.326,1.406
			c-0.215,0.033-0.43,0.066-0.644,0.099C64.227,139.944,64.148,139.162,64.071,138.38z"/>
		<path fill="#FFFFFF" d="M79.957,142.042c0.117,0.154,0.233,0.307,0.35,0.46c-0.271,0.219-0.517,0.375-0.738,0.471
			c-0.223,0.096-0.472,0.157-0.747,0.186c-0.408,0.041-0.747-0.007-1.017-0.146c-0.27-0.139-0.536-0.426-0.797-0.86
			c-0.434,0.51-0.833,0.869-1.197,1.078c-0.365,0.21-0.789,0.342-1.272,0.399c-0.669,0.078-1.209-0.005-1.623-0.252
			c-0.415-0.248-0.652-0.596-0.712-1.049c-0.09-0.683,0.186-1.273,0.835-1.771c0.52-0.394,1.713-0.871,3.585-1.404
			c-0.034-0.306-0.069-0.612-0.103-0.917c-0.04-0.363-0.202-0.645-0.485-0.845c-0.283-0.201-0.642-0.277-1.074-0.228
			c-0.331,0.038-0.615,0.137-0.852,0.297c-0.159,0.106-0.234,0.202-0.223,0.288c0.006,0.045,0.045,0.11,0.119,0.193
			c0.161,0.188,0.253,0.381,0.277,0.581c0.03,0.253-0.034,0.468-0.194,0.646c-0.16,0.176-0.389,0.283-0.688,0.318
			c-0.319,0.039-0.584-0.015-0.799-0.162c-0.215-0.144-0.34-0.352-0.374-0.618c-0.057-0.439,0.148-0.857,0.617-1.254
			c0.584-0.493,1.354-0.796,2.304-0.903c0.716-0.08,1.364-0.045,1.941,0.104c0.37,0.094,0.682,0.295,0.938,0.601
			c0.256,0.306,0.408,0.7,0.458,1.181c0.113,1.076,0.227,2.153,0.341,3.23c0.026,0.244,0.093,0.417,0.199,0.516
			c0.107,0.099,0.245,0.141,0.41,0.124C79.574,142.292,79.749,142.205,79.957,142.042z M76.691,139.745
			c-1.015,0.243-1.686,0.525-2.015,0.842c-0.33,0.315-0.465,0.698-0.41,1.146c0.039,0.317,0.154,0.55,0.345,0.699
			c0.19,0.151,0.437,0.208,0.742,0.173c0.471-0.054,0.844-0.258,1.119-0.614c0.274-0.355,0.381-0.812,0.318-1.37
			C76.757,140.329,76.724,140.036,76.691,139.745z"/>
		<path fill="#FFFFFF" d="M88.864,131.961c1.145-0.112,2.289-0.217,3.433-0.314c0.139,2.786,0.28,5.571,0.423,8.357
			c0.021,0.428,0.066,0.714,0.134,0.858c0.067,0.146,0.165,0.249,0.291,0.309c0.127,0.059,0.367,0.081,0.719,0.065
			c0.009,0.203,0.019,0.406,0.029,0.608c-0.913,0.069-1.824,0.142-2.736,0.22c-0.091-0.411-0.182-0.82-0.272-1.231
			c-0.389,0.547-0.747,0.918-1.074,1.111c-0.33,0.193-0.747,0.306-1.255,0.339c-0.91,0.06-1.673-0.181-2.295-0.725
			c-0.622-0.543-0.975-1.316-1.056-2.32c-0.089-1.109,0.15-2.012,0.723-2.708c0.571-0.695,1.324-1.076,2.25-1.136
			c0.497-0.031,0.946,0.042,1.344,0.221c0.401,0.179,0.771,0.487,1.112,0.924c-0.055-0.969-0.111-1.938-0.166-2.907
			c-0.02-0.346-0.069-0.592-0.146-0.738c-0.078-0.147-0.176-0.244-0.294-0.294c-0.119-0.051-0.358-0.065-0.717-0.044
			c-0.135,0.009-0.271,0.017-0.406,0.024C88.89,132.375,88.877,132.167,88.864,131.961z M88.898,136.232
			c-0.563,0.036-0.968,0.295-1.212,0.777c-0.201,0.392-0.272,1-0.213,1.824c0.048,0.687,0.148,1.195,0.295,1.526
			c0.148,0.33,0.344,0.569,0.586,0.72c0.243,0.151,0.512,0.217,0.807,0.199c0.486-0.031,0.864-0.252,1.135-0.665
			c0.365-0.542,0.525-1.216,0.478-2.027c-0.044-0.751-0.252-1.339-0.627-1.761C89.772,136.401,89.355,136.204,88.898,136.232z"/>
		<path fill="#FFFFFF" d="M102.03,138.439c-1.576,0.023-3.151,0.061-4.727,0.112c0.044,0.896,0.257,1.551,0.635,1.967
			c0.377,0.415,0.85,0.614,1.419,0.6c0.408-0.01,0.792-0.128,1.154-0.355c0.361-0.226,0.73-0.629,1.106-1.209
			c0.176,0.099,0.352,0.199,0.528,0.299c-0.396,0.689-0.85,1.186-1.364,1.489c-0.514,0.305-1.145,0.465-1.894,0.486
			c-1.091,0.029-1.982-0.26-2.683-0.874c-0.701-0.612-1.075-1.415-1.118-2.413c-0.041-0.997,0.269-1.845,0.937-2.54
			c0.668-0.695,1.513-1.059,2.527-1.086c0.702-0.02,1.308,0.102,1.815,0.359c0.51,0.258,0.908,0.645,1.195,1.157
			C101.849,136.945,102.004,137.614,102.03,138.439z M97.283,137.929c0.752-0.024,1.503-0.046,2.255-0.064
			c0.211-0.005,0.361-0.059,0.45-0.16c0.09-0.104,0.131-0.286,0.125-0.551c-0.012-0.528-0.148-0.934-0.412-1.218
			c-0.264-0.283-0.595-0.419-0.993-0.409c-0.47,0.013-0.824,0.22-1.061,0.62C97.412,136.545,97.291,137.14,97.283,137.929z"/>
		<path fill="#FFFFFF" d="M103.271,131.471c1.082-0.062,2.164-0.117,3.247-0.165c-0.004,3.033-0.01,6.065-0.015,9.098
			c0,0.164,0.055,0.293,0.164,0.387c0.108,0.093,0.266,0.141,0.471,0.141c0.14,0,0.28,0.001,0.421,0.002
			c-0.002,0.212-0.003,0.424-0.004,0.636c-1.339-0.008-2.677-0.005-4.016,0.008c-0.002-0.212-0.004-0.424-0.006-0.636
			c0.152-0.001,0.305-0.003,0.457-0.004c0.209-0.001,0.364-0.056,0.466-0.165c0.103-0.107,0.152-0.27,0.152-0.49
			c-0.014-2.492-0.028-4.984-0.042-7.477c-0.001-0.233-0.071-0.412-0.209-0.536c-0.139-0.125-0.326-0.187-0.562-0.185
			c-0.172,0.001-0.344,0.003-0.517,0.005C103.276,131.886,103.274,131.678,103.271,131.471z"/>
		<path fill="#FFFFFF" d="M108.604,131.468c1.082-0.04,2.165-0.074,3.25-0.102c-0.063,3.032-0.128,6.064-0.194,9.097
			c-0.003,0.164,0.049,0.294,0.156,0.39c0.107,0.095,0.264,0.145,0.468,0.15c0.14,0.004,0.281,0.007,0.421,0.01
			c-0.006,0.212-0.011,0.424-0.017,0.636c-1.339-0.033-2.677-0.056-4.016-0.069c0.002-0.212,0.004-0.424,0.006-0.636
			c0.152,0.001,0.305,0.003,0.457,0.005c0.209,0.002,0.366-0.049,0.469-0.155c0.105-0.105,0.158-0.268,0.161-0.488
			c0.037-2.492,0.071-4.983,0.105-7.476c0.004-0.233-0.062-0.413-0.199-0.54s-0.322-0.192-0.558-0.194
			c-0.172-0.002-0.345-0.004-0.517-0.005C108.6,131.882,108.602,131.675,108.604,131.468z"/>
		<path fill="#FFFFFF" d="M121.544,141.218c0.09,0.169,0.18,0.338,0.27,0.509c-0.302,0.174-0.569,0.291-0.803,0.351
			c-0.234,0.061-0.489,0.083-0.764,0.068c-0.408-0.021-0.734-0.121-0.977-0.3c-0.242-0.179-0.458-0.502-0.645-0.972
			c-0.509,0.437-0.958,0.73-1.35,0.881c-0.392,0.15-0.829,0.217-1.313,0.198c-0.669-0.024-1.185-0.189-1.551-0.497
			c-0.366-0.307-0.542-0.688-0.529-1.144c0.021-0.688,0.386-1.229,1.102-1.621c0.574-0.309,1.818-0.597,3.743-0.837
			c0.015-0.307,0.03-0.614,0.044-0.921c0.018-0.364-0.097-0.667-0.343-0.908c-0.247-0.241-0.587-0.372-1.02-0.39
			c-0.33-0.014-0.625,0.041-0.882,0.164c-0.173,0.081-0.262,0.164-0.266,0.25c-0.001,0.046,0.027,0.115,0.087,0.208
			c0.128,0.209,0.188,0.416,0.18,0.615c-0.01,0.255-0.107,0.458-0.292,0.609c-0.186,0.149-0.427,0.22-0.725,0.209
			c-0.319-0.011-0.57-0.104-0.759-0.282c-0.188-0.176-0.277-0.399-0.269-0.668c0.014-0.442,0.28-0.823,0.802-1.143
			c0.65-0.398,1.454-0.58,2.404-0.54c0.716,0.031,1.347,0.165,1.891,0.401c0.349,0.149,0.625,0.395,0.827,0.736
			c0.204,0.342,0.291,0.754,0.265,1.237c-0.06,1.081-0.12,2.162-0.181,3.242c-0.013,0.246,0.025,0.426,0.114,0.541
			c0.088,0.114,0.217,0.176,0.383,0.185C121.127,141.407,121.312,141.347,121.544,141.218z M118.7,138.449
			c-1.036,0.084-1.74,0.261-2.113,0.523c-0.374,0.261-0.568,0.618-0.585,1.068c-0.013,0.319,0.063,0.567,0.226,0.743
			c0.162,0.179,0.395,0.272,0.7,0.285c0.471,0.019,0.87-0.126,1.198-0.435c0.327-0.309,0.505-0.744,0.532-1.304
			C118.671,139.036,118.686,138.742,118.7,138.449z"/>
		<path fill="#FFFFFF" d="M127.474,132.276c1.469,0.113,2.938,0.237,4.408,0.374c0.616,2.35,1.208,4.702,1.774,7.055
			c1.046-2.189,2.109-4.374,3.189-6.552c1.508,0.167,3.017,0.345,4.525,0.537c-0.027,0.21-0.054,0.42-0.081,0.631
			c-0.326-0.042-0.652-0.082-0.979-0.123c-0.243-0.03-0.415-0.01-0.517,0.061c-0.102,0.071-0.165,0.206-0.189,0.405
			c-0.316,2.556-0.637,5.111-0.965,7.667c-0.025,0.194,0.006,0.333,0.092,0.417c0.13,0.126,0.316,0.204,0.56,0.234
			c0.28,0.035,0.561,0.07,0.84,0.105c-0.028,0.21-0.056,0.42-0.085,0.631c-1.788-0.228-3.577-0.435-5.365-0.626
			c0.023-0.211,0.048-0.422,0.071-0.632c0.338,0.036,0.676,0.073,1.015,0.11c0.186,0.02,0.333-0.013,0.442-0.102
			c0.109-0.089,0.175-0.221,0.196-0.397c0.326-2.739,0.646-5.479,0.96-8.219c-1.518,3.008-3.002,6.028-4.451,9.058
			c-0.21-0.021-0.419-0.042-0.63-0.062c-0.784-3.279-1.618-6.555-2.497-9.827c-0.212,2.454-0.427,4.908-0.646,7.362
			c-0.038,0.422,0.073,0.781,0.329,1.075c0.257,0.295,0.649,0.493,1.177,0.597c-0.021,0.21-0.041,0.421-0.062,0.632
			c-1.304-0.119-2.607-0.228-3.911-0.328c0.018-0.211,0.035-0.422,0.051-0.634c0.499-0.003,0.897-0.138,1.195-0.406
			c0.3-0.269,0.469-0.627,0.508-1.077c0.188-2.171,0.373-4.341,0.555-6.512c0.023-0.278-0.012-0.466-0.109-0.564
			c-0.096-0.099-0.292-0.161-0.587-0.185c-0.288-0.023-0.575-0.046-0.864-0.068C127.44,132.7,127.458,132.488,127.474,132.276z"/>
		<path fill="#FFFFFF" d="M145.949,137.7c0.767,0.111,1.447,0.37,2.038,0.773c0.592,0.404,1.002,0.879,1.231,1.419
			c0.229,0.543,0.283,1.16,0.166,1.853c-0.188,1.107-0.734,1.891-1.631,2.359c-0.896,0.467-1.843,0.627-2.85,0.481
			c-0.711-0.103-1.339-0.348-1.888-0.733c-0.546-0.387-0.944-0.858-1.192-1.417c-0.248-0.561-0.328-1.165-0.238-1.815
			c0.134-0.98,0.612-1.755,1.441-2.316C143.854,137.74,144.831,137.538,145.949,137.7z M145.896,138.349
			c-0.506-0.074-0.939,0.075-1.299,0.447c-0.358,0.37-0.613,1.076-0.765,2.113c-0.158,1.078-0.123,1.841,0.108,2.291
			s0.591,0.709,1.086,0.781c0.505,0.073,0.945-0.076,1.321-0.449c0.376-0.372,0.649-1.071,0.813-2.098
			c0.169-1.055,0.132-1.813-0.114-2.277C146.8,138.694,146.416,138.424,145.896,138.349z"/>
		<path fill="#FFFFFF" d="M155.923,139.885c0.193-0.149,0.386-0.296,0.58-0.444c0.149,0.027,0.298,0.055,0.447,0.083
			c-0.091,0.726-0.182,1.451-0.275,2.177c-0.196-0.037-0.392-0.073-0.588-0.109c-0.199-0.628-0.462-1.092-0.791-1.391
			c-0.328-0.299-0.758-0.496-1.289-0.589c-0.458-0.08-0.821-0.059-1.088,0.063c-0.268,0.121-0.423,0.305-0.467,0.553
			c-0.043,0.243,0.017,0.443,0.177,0.601c0.16,0.162,0.638,0.39,1.432,0.688c0.718,0.271,1.19,0.477,1.419,0.616
			c0.434,0.26,0.749,0.588,0.942,0.981c0.195,0.395,0.244,0.821,0.151,1.283c-0.117,0.582-0.466,1.023-1.042,1.328
			c-0.575,0.305-1.266,0.384-2.072,0.242c-0.389-0.07-0.733-0.176-1.033-0.317c-0.3-0.144-0.6-0.353-0.903-0.631
			c-0.205,0.159-0.408,0.319-0.611,0.479c-0.181-0.03-0.361-0.06-0.542-0.09c0.099-0.802,0.197-1.604,0.293-2.407
			c0.2,0.033,0.397,0.066,0.597,0.099c0.294,1.29,1.048,2.037,2.276,2.255c0.504,0.089,0.909,0.066,1.21-0.068
			c0.303-0.136,0.48-0.331,0.53-0.586c0.046-0.234-0.002-0.427-0.146-0.578c-0.144-0.151-0.564-0.362-1.263-0.63
			c-0.755-0.288-1.264-0.507-1.527-0.663c-0.453-0.257-0.775-0.562-0.966-0.917c-0.19-0.352-0.249-0.749-0.171-1.188
			c0.11-0.628,0.424-1.107,0.949-1.433c0.524-0.325,1.168-0.423,1.93-0.29c0.372,0.065,0.698,0.165,0.978,0.297
			C155.341,139.431,155.629,139.627,155.923,139.885z"/>
		<path fill="#FFFFFF" d="M161.397,138.052c0.219,0.043,0.438,0.088,0.658,0.132c-0.183,0.859-0.365,1.719-0.549,2.578
			c0.754,0.152,1.507,0.308,2.261,0.467c-0.054,0.24-0.107,0.481-0.162,0.721c-0.751-0.158-1.503-0.313-2.255-0.466
			c-0.285,1.328-0.572,2.656-0.862,3.984c-0.057,0.263-0.03,0.481,0.083,0.656c0.11,0.174,0.284,0.285,0.518,0.333
			c0.671,0.138,1.156-0.368,1.458-1.523c0.214,0.045,0.427,0.09,0.642,0.135c-0.157,0.617-0.376,1.091-0.657,1.426
			c-0.282,0.335-0.629,0.566-1.038,0.696c-0.411,0.13-0.843,0.147-1.299,0.056c-0.399-0.082-0.728-0.227-0.987-0.437
			c-0.261-0.211-0.444-0.483-0.554-0.818c-0.11-0.337-0.129-0.681-0.055-1.034c0.271-1.287,0.538-2.575,0.804-3.862
			c-0.404-0.079-0.807-0.156-1.211-0.233c0.042-0.206,0.083-0.412,0.125-0.617c0.76,0.052,1.394-0.096,1.901-0.448
			C160.725,139.449,161.119,138.867,161.397,138.052z"/>
		<path fill="#FFFFFF" d="M168.406,148.178c-0.053,0.206-0.105,0.412-0.158,0.619c-1.556-0.364-3.11-0.714-4.665-1.049
			c0.049-0.207,0.097-0.414,0.146-0.621c0.192,0.042,0.386,0.084,0.579,0.126c0.238,0.051,0.423,0.047,0.553-0.017
			c0.129-0.062,0.213-0.167,0.248-0.313c0.295-1.231,0.588-2.463,0.878-3.694c0.07-0.299,0.048-0.532-0.069-0.703
			c-0.116-0.171-0.307-0.285-0.575-0.343c-0.129-0.028-0.258-0.056-0.387-0.083c0.045-0.196,0.09-0.392,0.134-0.588
			c0.987,0.164,1.974,0.333,2.962,0.507c-0.163,0.677-0.327,1.354-0.493,2.031c0.334-0.64,0.759-1.095,1.272-1.361
			s1.037-0.337,1.57-0.212c0.454,0.106,0.787,0.302,0.993,0.584c0.208,0.282,0.267,0.596,0.178,0.94
			c-0.078,0.298-0.231,0.515-0.459,0.656c-0.23,0.14-0.475,0.179-0.736,0.117c-0.232-0.055-0.412-0.183-0.539-0.381
			c-0.127-0.199-0.159-0.422-0.097-0.671c0.035-0.138,0.11-0.271,0.228-0.404c0.064-0.074,0.1-0.129,0.109-0.165
			c0.015-0.062,0.011-0.111-0.013-0.148c-0.025-0.035-0.071-0.062-0.139-0.078c-0.175-0.041-0.39,0.008-0.645,0.146
			c-0.391,0.213-0.771,0.601-1.138,1.162s-0.627,1.152-0.779,1.773c-0.111,0.449-0.222,0.896-0.333,1.345
			c-0.039,0.155-0.023,0.284,0.047,0.388c0.07,0.103,0.187,0.172,0.348,0.209C167.753,148.026,168.08,148.102,168.406,148.178z"/>
		<path fill="#FFFFFF" d="M179.166,150.751c0.052,0.186,0.104,0.37,0.155,0.556c-0.347,0.104-0.646,0.159-0.897,0.167
			c-0.253,0.007-0.516-0.027-0.791-0.102c-0.409-0.11-0.715-0.278-0.919-0.507c-0.205-0.228-0.347-0.591-0.428-1.09
			c-0.616,0.316-1.139,0.505-1.569,0.566c-0.432,0.062-0.889,0.03-1.374-0.093c-0.67-0.169-1.152-0.443-1.451-0.823
			c-0.297-0.379-0.388-0.79-0.269-1.232c0.179-0.668,0.671-1.117,1.483-1.344c0.649-0.177,1.974-0.188,3.979-0.001
			c0.084-0.297,0.17-0.594,0.255-0.891c0.1-0.352,0.054-0.673-0.143-0.963c-0.194-0.29-0.511-0.491-0.944-0.603
			c-0.332-0.085-0.642-0.096-0.931-0.033c-0.193,0.041-0.301,0.102-0.324,0.186c-0.012,0.044,0,0.118,0.041,0.223
			c0.082,0.233,0.096,0.448,0.042,0.641c-0.067,0.247-0.212,0.423-0.434,0.531c-0.221,0.105-0.481,0.122-0.781,0.046
			c-0.319-0.08-0.552-0.226-0.702-0.44c-0.15-0.213-0.189-0.451-0.12-0.711c0.114-0.428,0.469-0.744,1.069-0.943
			c0.748-0.247,1.601-0.249,2.554-0.002c0.719,0.186,1.33,0.454,1.828,0.805c0.321,0.222,0.545,0.522,0.673,0.9
			c0.128,0.378,0.125,0.8-0.013,1.266c-0.308,1.043-0.618,2.086-0.929,3.128c-0.071,0.237-0.075,0.421-0.011,0.553
			c0.064,0.131,0.179,0.219,0.346,0.265C178.699,150.844,178.9,150.826,179.166,150.751z M176.919,147.423
			c-1.07-0.145-1.821-0.125-2.259,0.049c-0.438,0.173-0.716,0.479-0.837,0.916c-0.085,0.309-0.067,0.568,0.058,0.775
			c0.122,0.21,0.335,0.352,0.642,0.431c0.472,0.122,0.909,0.067,1.312-0.163c0.402-0.23,0.684-0.616,0.84-1.157
			C176.756,147.99,176.838,147.706,176.919,147.423z"/>
	</g>
</g>
</svg>
