<?xml version="1.0" encoding="utf-8"?>
<!-- Generator: Adobe Illustrator 16.0.4, SVG Export Plug-In . SVG Version: 6.00 Build 0)  -->
<!DOCTYPE svg PUBLIC "-//W3C//DTD SVG 1.1//EN" "http://www.w3.org/Graphics/SVG/1.1/DTD/svg11.dtd">
<svg version="1.1" id="Livello_1" xmlns="http://www.w3.org/2000/svg" xmlns:xlink="http://www.w3.org/1999/xlink" x="0px" y="0px"
	 width="210px" height="200px" viewBox="0 0 210 200" enable-background="new 0 0 210 200" xml:space="preserve">
<g>
	<g>
		<circle fill="#FBC02E" cx="105" cy="100" r="84"/>
		<circle fill="#FABF2D" cx="105" cy="100" r="75.216"/>
		<path fill="#FFFFFF" d="M104.999,177.717c-42.853,0-77.715-34.864-77.715-77.717s34.862-77.717,77.715-77.717
			S182.716,57.147,182.716,100S147.852,177.717,104.999,177.717z M104.999,27.283c-40.095,0-72.715,32.621-72.715,72.717
			s32.62,72.717,72.715,72.717c40.097,0,72.717-32.621,72.717-72.717S145.096,27.283,104.999,27.283z"/>
		<path fill="#FFFFFF" d="M100.554,115.299H83.5l0.474-43.506c-0.551-4.04-3.011-6.182-6.093-6.182c-2.601,0-4.729,1.54-5.668,4.439
			L71.5,115.299H51.906h-0.035c-3.244,0-6.13,2.607-6.13,6.072c0,3.465,2.431,6.689,5.675,6.689c0.036,0,0.055,0.002,0.084,0.003
			v0.236h19.483H83.53h17.023c3.381,0,5.62-3.534,5.62-6.908C106.174,118.019,103.935,116.299,100.554,115.299z M51.516,128.064
			C52.047,128.082,51.592,128.215,51.516,128.064L51.516,128.064z"/>
		<g>
			<path fill="#FFFFFF" d="M142.847,86.046c-4.127-0.584-8.157-0.06-11.806,1.339l-5.002-10.106l5.697-14.445l-13.121-1.856
				c0,0-4.514,2.895-0.646,4.569c2.888,0.409,7.321,1.035,7.321,1.035l-2.617,6.618l-31.19-4.41l3.894-9.546
				c0,0,4.04,0.353,8.083,1.144c3.158-2.052,0.647-4.572,0.647-4.572l-21.339-3.017c0,0-3.323,1.685-0.646,4.572
				c4.673,0.662,8.547,1.209,8.547,1.209l-6.043,14.824L84.49,85.956c0.516-1.266,0.844-2.071,0.844-2.071
				c6.745,3.762,10.848,11.399,9.703,19.49c-0.633,4.477-2.778,8.369-5.834,11.256l6.121,0.01c2.209-3.044,3.73-6.652,4.293-10.629
				c1.447-10.223-3.878-19.858-12.533-24.421l2.891-7.094l19.763,33.538c0,0,0.828,1.862,2.876,2.151
				c2.043,0.289,3.078,0.435,3.078,0.435c-0.535,12.113,8.229,22.908,20.479,24.642c13.02,1.841,25.108-7.251,26.951-20.272
				C164.961,99.977,155.867,87.888,142.847,86.046z M135.506,106.751l-14.559-2.057c1.242-4.677,4.18-8.56,8.029-11.092
				L135.506,106.751z M111.874,100.563L96.301,74.126l24.637,3.484L111.874,100.563z M115.501,103.931l8.251-20.877l3.156,6.38
				c-5.156,3.221-9.066,8.376-10.571,14.616L115.501,103.931z M158.555,112.346c-1.483,10.493-11.229,17.833-21.731,16.349
				c-9.735-1.377-16.72-9.842-16.523-19.421c0,0,15.173,2.146,19.175,2.711c4,0.566,3.089-1.368,3.089-1.368l-9.456-19.076
				c2.828-1.008,5.932-1.375,9.1-0.928C152.711,92.099,160.039,101.853,158.555,112.346z"/>
			<path fill="#FFFFFF" d="M62.801,114.623c-4.361-4.142-6.744-10.248-5.84-16.643c1.127-7.966,7.023-14.097,14.387-15.944
				l0.074-4.758c-9.682,1.903-17.57,9.747-19.028,20.055c-0.897,6.346,0.81,12.466,4.296,17.29H62.801z"/>
		</g>
	</g>
	<path fill="#FDD835" d="M195.043,168.142c-2.57-5.81-5.418-11.587-8.545-17.312c5.996-2.563,12.201-4.905,18.602-7.004
		C140.988,117.308,68.912,117.476,4.9,144.329c0.041,0.095,0.08,0.188,0.119,0.283c6.605,2.131,13.004,4.522,19.182,7.149
		c-2.928,5.42-5.605,10.887-8.037,16.382C73.436,144.454,137.773,144.453,195.043,168.142L195.043,168.142L195.043,168.142z"/>
	<path fill="#FFFFFF" d="M12.102,170.961l1.514-3.425c2.23-5.043,4.686-10.092,7.309-15.03c-5.701-2.375-11.594-4.547-17.543-6.466
		l-0.654-0.212l-0.967-2.302l1.383-0.58c32.242-13.525,66.318-20.384,101.283-20.384c34.514,0,68.182,6.688,100.07,19.878
		l3.744,1.549l-3.85,1.263c-5.744,1.883-11.443,4.005-16.965,6.316c2.814,5.241,5.439,10.604,7.812,15.966l1.516,3.425l-3.461-1.432
		c-28.318-11.713-58.217-17.651-88.863-17.651c-30.65,0-60.549,5.939-88.869,17.653L12.102,170.961z M7.707,144.312
		c5.4,1.835,10.736,3.871,15.904,6.069l1.516,0.645l-0.783,1.448c-2.283,4.226-4.443,8.542-6.445,12.873
		c27.648-10.932,56.74-16.472,86.531-16.472c29.789,0,58.877,5.539,86.525,16.47c-2.148-4.645-4.48-9.271-6.951-13.796l-0.791-1.45
		l1.518-0.648c4.844-2.071,9.834-3.999,14.879-5.752c-30.412-12.038-62.41-18.137-95.184-18.137
		C71.09,125.562,38.57,131.868,7.707,144.312z"/>
	<g>
		<path fill="#FFFFFF" d="M61.744,134.021c2.306,2.792,4.555,5.621,6.73,8.485c0.187,0.242,0.364,0.395,0.533,0.459
			c0.168,0.066,0.379,0.073,0.615,0.024c0.146-0.029,0.285-0.057,0.426-0.085c0.046,0.222,0.099,0.446,0.146,0.668
			c-1.817,0.362-3.631,0.754-5.444,1.176c-0.057-0.221-0.112-0.442-0.17-0.663c0.17-0.04,0.341-0.08,0.512-0.119
			c0.403-0.092,0.671-0.195,0.807-0.31c0.131-0.115,0.183-0.239,0.15-0.372c-0.027-0.104-0.083-0.219-0.184-0.344
			c-0.463-0.584-0.92-1.167-1.388-1.749c-1.478,0.338-2.96,0.696-4.445,1.074c-0.058,0.332-0.119,0.662-0.175,0.994
			c-0.071,0.413-0.079,0.709-0.029,0.889c0.087,0.307,0.287,0.522,0.594,0.649c0.307,0.125,0.682,0.133,1.113,0.023
			c0.127-0.031,0.25-0.062,0.374-0.093c0.059,0.221,0.121,0.44,0.18,0.66c-1.47,0.366-2.939,0.75-4.409,1.155
			c-0.07-0.218-0.133-0.437-0.202-0.656c0.085-0.022,0.167-0.046,0.252-0.069c0.284-0.078,0.512-0.224,0.683-0.442
			c0.236-0.308,0.389-0.663,0.458-1.06c0.537-3.354,1.182-6.712,1.931-10.071C61.113,134.169,61.432,134.095,61.744,134.021z
			 M61.058,137.005c-0.318,1.495-0.614,2.988-0.884,4.482c1.264-0.321,2.537-0.627,3.803-0.918
			C63.016,139.374,62.042,138.187,61.058,137.005z"/>
		<path fill="#FFFFFF" d="M77.913,138.779c-1.749,0.264-3.501,0.555-5.253,0.872c0.203,0.943,0.543,1.602,1.033,1.98
			c0.488,0.377,1.044,0.512,1.673,0.407c0.448-0.076,0.855-0.262,1.22-0.558c0.363-0.296,0.706-0.782,1.037-1.455
			c0.212,0.079,0.423,0.159,0.633,0.238c-0.332,0.792-0.756,1.387-1.279,1.789c-0.521,0.403-1.19,0.671-2.014,0.814
			c-1.197,0.206-2.238,0.048-3.12-0.481c-0.886-0.53-1.443-1.315-1.661-2.362c-0.217-1.05-0.019-2.001,0.624-2.854
			c0.638-0.851,1.533-1.381,2.669-1.577c0.789-0.135,1.489-0.104,2.1,0.089c0.611,0.194,1.113,0.542,1.514,1.042
			C77.484,137.221,77.755,137.908,77.913,138.779z M72.534,138.996c0.837-0.152,1.679-0.298,2.513-0.437
			c0.236-0.039,0.393-0.12,0.477-0.242s0.102-0.323,0.056-0.603c-0.093-0.559-0.312-0.968-0.651-1.227
			c-0.338-0.257-0.738-0.35-1.178-0.274c-0.529,0.091-0.887,0.369-1.096,0.832C72.455,137.507,72.412,138.159,72.534,138.996z"/>
		<path fill="#FFFFFF" d="M85.033,140.571c0.031,0.226,0.051,0.452,0.082,0.677c-1.71,0.191-3.421,0.408-5.127,0.65
			c-0.036-0.225-0.068-0.449-0.104-0.674c0.213-0.03,0.426-0.06,0.639-0.089c0.261-0.036,0.445-0.108,0.554-0.22
			c0.104-0.109,0.149-0.245,0.127-0.406c-0.191-1.34-0.376-2.68-0.563-4.02c-0.045-0.324-0.159-0.551-0.347-0.679
			c-0.182-0.126-0.43-0.171-0.726-0.129c-0.141,0.02-0.288,0.04-0.433,0.06c-0.03-0.212-0.062-0.425-0.093-0.638
			c1.082-0.205,2.166-0.4,3.248-0.585c0.097,0.74,0.187,1.479,0.281,2.218c0.089-0.765,0.352-1.375,0.778-1.828
			c0.426-0.453,0.938-0.713,1.531-0.778c0.508-0.055,0.921,0.024,1.238,0.235c0.318,0.21,0.495,0.506,0.535,0.885
			c0.033,0.326-0.039,0.599-0.222,0.822c-0.183,0.222-0.417,0.347-0.707,0.378c-0.258,0.028-0.488-0.037-0.694-0.19
			c-0.206-0.155-0.325-0.368-0.355-0.639c-0.018-0.151,0.011-0.312,0.08-0.488c0.035-0.097,0.05-0.166,0.049-0.205
			c-0.004-0.067-0.035-0.115-0.07-0.144c-0.044-0.027-0.099-0.037-0.172-0.028c-0.197,0.021-0.397,0.147-0.606,0.377
			c-0.318,0.356-0.555,0.882-0.717,1.577c-0.161,0.696-0.19,1.383-0.107,2.062c0.063,0.489,0.128,0.979,0.188,1.467
			c0.021,0.171,0.085,0.294,0.198,0.372c0.111,0.078,0.256,0.105,0.436,0.084C84.316,140.653,84.674,140.611,85.033,140.571z"/>
		<path fill="#FFFFFF" d="M95.826,136.999c-1.744,0.083-3.499,0.194-5.245,0.331c0.097,0.958,0.364,1.648,0.8,2.073
			c0.438,0.425,0.97,0.616,1.596,0.574c0.452-0.029,0.871-0.172,1.258-0.43c0.393-0.257,0.778-0.704,1.174-1.341
			c0.2,0.101,0.399,0.201,0.596,0.302c-0.41,0.753-0.893,1.301-1.446,1.648c-0.554,0.348-1.239,0.546-2.065,0.603
			c-1.202,0.083-2.201-0.179-3.005-0.797c-0.807-0.617-1.273-1.454-1.37-2.518c-0.104-1.066,0.195-1.991,0.908-2.773
			c0.711-0.781,1.646-1.216,2.777-1.296c0.786-0.054,1.469,0.048,2.049,0.303c0.582,0.255,1.042,0.652,1.379,1.19
			C95.568,135.406,95.768,136.116,95.826,136.999z M90.526,136.665c0.836-0.066,1.674-0.125,2.507-0.179
			c0.235-0.015,0.402-0.078,0.494-0.191c0.098-0.113,0.131-0.312,0.118-0.594c-0.035-0.565-0.202-0.995-0.513-1.287
			c-0.309-0.291-0.678-0.423-1.125-0.393c-0.523,0.037-0.915,0.276-1.16,0.716C90.604,135.178,90.495,135.821,90.526,136.665z"/>
		<path fill="#FFFFFF" d="M101.572,132.963c0.855-0.013,1.645,0.147,2.356,0.478c0.719,0.331,1.243,0.768,1.585,1.304
			c0.344,0.538,0.502,1.184,0.498,1.936c-0.018,1.202-0.47,2.117-1.347,2.756c-0.879,0.64-1.865,0.965-2.971,0.981
			c-0.782,0.013-1.497-0.137-2.161-0.448c-0.66-0.312-1.181-0.739-1.553-1.284c-0.376-0.547-0.578-1.17-0.606-1.873
			c-0.045-1.058,0.327-1.962,1.123-2.705C99.294,133.367,100.322,132.982,101.572,132.963z M101.63,133.657
			c-0.563,0.009-1.009,0.241-1.331,0.695c-0.326,0.454-0.469,1.244-0.438,2.366c0.03,1.167,0.214,1.967,0.545,2.401
			c0.329,0.436,0.767,0.647,1.311,0.639c0.557-0.008,0.999-0.239,1.338-0.696c0.337-0.456,0.501-1.24,0.502-2.353
			c-0.003-1.143-0.178-1.94-0.528-2.39C102.681,133.871,102.21,133.649,101.63,133.657z"/>
		<path fill="#FFFFFF" d="M107.544,133.39c1.038-0.039,2.075-0.07,3.113-0.091c0.104,0.449,0.168,0.893,0.17,1.333
			c0.338-0.45,0.757-0.792,1.274-1.024c0.514-0.234,1.082-0.335,1.695-0.302c0.988,0.052,1.768,0.418,2.331,1.087
			c0.565,0.67,0.8,1.582,0.714,2.732c-0.059,0.8-0.252,1.467-0.579,2.003c-0.321,0.536-0.75,0.928-1.272,1.18
			c-0.521,0.251-1.119,0.358-1.791,0.323c-0.536-0.028-1.01-0.164-1.416-0.409c-0.412-0.246-0.775-0.625-1.125-1.142
			c-0.034,0.817-0.066,1.634-0.096,2.452c-0.011,0.322,0.006,0.53,0.053,0.621c0.051,0.093,0.14,0.166,0.281,0.216
			c0.142,0.053,0.42,0.089,0.843,0.113c-0.011,0.234-0.021,0.468-0.033,0.702c-1.444-0.064-2.897-0.109-4.345-0.136
			c0.004-0.234,0.008-0.469,0.014-0.703c0.075,0.001,0.154,0.002,0.23,0.004c0.278,0.006,0.456-0.013,0.551-0.058
			s0.172-0.122,0.223-0.232c0.037-0.078,0.061-0.275,0.07-0.591c0.057-2.163,0.11-4.326,0.164-6.488
			c0.01-0.316-0.012-0.529-0.064-0.635c-0.045-0.106-0.134-0.183-0.243-0.233c-0.11-0.048-0.362-0.085-0.772-0.107
			C107.538,133.8,107.539,133.595,107.544,133.39z M112.729,134.272c-0.525-0.025-0.984,0.184-1.368,0.623
			c-0.388,0.441-0.591,1.101-0.624,1.976c-0.032,0.866,0.129,1.536,0.487,2.011c0.356,0.475,0.775,0.723,1.257,0.746
			c0.473,0.022,0.863-0.155,1.176-0.535c0.407-0.503,0.644-1.196,0.695-2.08c0.045-0.812-0.069-1.465-0.356-1.958
			C113.706,134.559,113.283,134.298,112.729,134.272z"/>
		<path fill="#FFFFFF" d="M122.961,133.918c0.857,0.089,1.625,0.343,2.3,0.757c0.68,0.414,1.153,0.91,1.428,1.484
			c0.272,0.574,0.364,1.235,0.262,1.98c-0.165,1.192-0.732,2.045-1.693,2.575c-0.962,0.529-1.985,0.735-3.095,0.62
			c-0.783-0.082-1.477-0.316-2.099-0.704c-0.616-0.388-1.085-0.874-1.387-1.459c-0.302-0.587-0.437-1.229-0.371-1.931
			c0.087-1.056,0.562-1.91,1.448-2.55C120.639,134.048,121.714,133.788,122.961,133.918z M122.935,134.615
			c-0.563-0.06-1.038,0.119-1.414,0.531c-0.374,0.412-0.614,1.178-0.726,2.296c-0.114,1.162-0.029,1.978,0.243,2.448
			c0.276,0.471,0.683,0.734,1.229,0.791c0.553,0.058,1.025-0.117,1.425-0.531c0.394-0.412,0.662-1.171,0.794-2.276
			c0.14-1.135,0.06-1.947-0.234-2.435C123.961,134.953,123.515,134.676,122.935,134.615z"/>
		<path fill="#FFFFFF" d="M133.074,141.911c-0.042,0.224-0.082,0.449-0.121,0.672c-1.709-0.288-3.418-0.548-5.125-0.784
			c0.036-0.225,0.065-0.45,0.101-0.675c0.211,0.029,0.423,0.059,0.636,0.089c0.263,0.037,0.46,0.018,0.596-0.059
			c0.134-0.076,0.218-0.194,0.241-0.354c0.209-1.337,0.415-2.675,0.614-4.013c0.047-0.324,0.004-0.572-0.141-0.747
			c-0.144-0.172-0.364-0.281-0.662-0.323c-0.143-0.02-0.287-0.04-0.432-0.061c0.029-0.212,0.061-0.425,0.09-0.638
			c1.098,0.099,2.192,0.209,3.291,0.328c-0.116,0.736-0.236,1.472-0.355,2.208c0.307-0.708,0.732-1.223,1.271-1.542
			c0.536-0.318,1.11-0.429,1.703-0.327c0.505,0.087,0.886,0.277,1.138,0.567c0.254,0.29,0.338,0.623,0.268,0.998
			c-0.061,0.322-0.211,0.563-0.45,0.728c-0.24,0.163-0.504,0.219-0.793,0.169c-0.258-0.045-0.468-0.17-0.621-0.375
			c-0.151-0.205-0.206-0.442-0.161-0.711c0.027-0.149,0.1-0.298,0.216-0.447c0.058-0.083,0.099-0.145,0.105-0.183
			c0.016-0.067-0.002-0.12-0.028-0.157c-0.026-0.038-0.083-0.063-0.157-0.076c-0.198-0.033-0.426,0.033-0.693,0.196
			c-0.413,0.255-0.794,0.694-1.145,1.318c-0.35,0.624-0.585,1.275-0.696,1.95c-0.081,0.487-0.159,0.973-0.244,1.459
			c-0.026,0.17-0.001,0.307,0.082,0.412c0.085,0.104,0.218,0.171,0.396,0.2C132.354,141.791,132.711,141.851,133.074,141.911z"/>
		<path fill="#FFFFFF" d="M140.523,134.129c0.25,0.049,0.493,0.099,0.741,0.15c-0.192,0.921-0.385,1.841-0.584,2.762
			c0.846,0.172,1.688,0.351,2.528,0.536c-0.058,0.257-0.124,0.515-0.178,0.772c-0.841-0.184-1.68-0.361-2.516-0.533
			c-0.304,1.422-0.613,2.844-0.93,4.265c-0.061,0.283-0.03,0.517,0.092,0.705c0.125,0.188,0.313,0.309,0.572,0.363
			c0.734,0.155,1.274-0.381,1.609-1.615c0.234,0.051,0.477,0.103,0.712,0.155c-0.179,0.658-0.419,1.165-0.73,1.519
			c-0.312,0.356-0.692,0.6-1.145,0.733c-0.449,0.133-0.925,0.148-1.429,0.045c-0.438-0.09-0.801-0.248-1.086-0.475
			s-0.493-0.52-0.614-0.88c-0.125-0.361-0.146-0.73-0.069-1.108c0.288-1.38,0.566-2.76,0.844-4.14
			c-0.449-0.087-0.903-0.172-1.352-0.255c0.045-0.221,0.086-0.441,0.127-0.662c0.85,0.057,1.554-0.098,2.113-0.472
			C139.793,135.622,140.223,135.002,140.523,134.129z"/>
		<path fill="#FFFFFF" d="M149.063,138.562c0.856,0.217,1.603,0.583,2.233,1.094c0.625,0.511,1.035,1.074,1.23,1.684
			c0.192,0.61,0.178,1.276-0.043,2c-0.352,1.155-1.073,1.915-2.137,2.294c-1.068,0.38-2.143,0.429-3.251,0.149
			c-0.782-0.198-1.452-0.534-2.022-1.01c-0.562-0.477-0.96-1.026-1.177-1.651s-0.244-1.281-0.076-1.966
			c0.25-1.031,0.868-1.806,1.86-2.308C146.68,138.344,147.81,138.247,149.063,138.562z M148.931,139.248
			c-0.565-0.144-1.072-0.037-1.521,0.315c-0.445,0.351-0.809,1.074-1.093,2.164c-0.294,1.133-0.343,1.953-0.134,2.46
			c0.206,0.507,0.581,0.828,1.123,0.966c0.554,0.141,1.068,0.038,1.536-0.312c0.466-0.349,0.861-1.059,1.168-2.134
			c0.32-1.103,0.36-1.917,0.139-2.445C149.925,139.735,149.514,139.396,148.931,139.248z"/>
	</g>
</g>
</svg>
