<?xml version="1.0" encoding="utf-8"?>
<!-- Generator: Adobe Illustrator 16.0.4, SVG Export Plug-In . SVG Version: 6.00 Build 0)  -->
<!DOCTYPE svg PUBLIC "-//W3C//DTD SVG 1.1//EN" "http://www.w3.org/Graphics/SVG/1.1/DTD/svg11.dtd">
<svg version="1.1" id="Livello_1" xmlns="http://www.w3.org/2000/svg" xmlns:xlink="http://www.w3.org/1999/xlink" x="0px" y="0px"
	 width="210px" height="200px" viewBox="0 0 210 200" enable-background="new 0 0 210 200" xml:space="preserve">
<g>
	<g>
		<circle fill="#FBC02E" cx="105" cy="100" r="84"/>
		<circle fill="#FABF2D" cx="105" cy="100" r="75.216"/>
		<path fill="#FFFFFF" d="M104.999,177.717c-42.853,0-77.715-34.864-77.715-77.717s34.862-77.717,77.715-77.717
			S182.716,57.147,182.716,100S147.852,177.717,104.999,177.717z M104.999,27.283c-40.095,0-72.715,32.621-72.715,72.717
			s32.62,72.717,72.715,72.717c40.097,0,72.717-32.621,72.717-72.717S145.096,27.283,104.999,27.283z"/>
		<path fill="#FFFFFF" d="M100.554,115.299H83.5l0.474-43.506c-0.551-4.04-3.011-6.182-6.093-6.182c-2.601,0-4.729,1.54-5.668,4.439
			L71.5,115.299H51.906h-0.035c-3.244,0-6.13,2.607-6.13,6.072c0,3.465,2.431,6.689,5.675,6.689c0.036,0,0.055,0.002,0.084,0.003
			v0.236h19.483H83.53h17.023c3.381,0,5.62-3.534,5.62-6.908C106.174,118.019,103.935,116.299,100.554,115.299z M51.516,128.064
			C52.047,128.082,51.592,128.215,51.516,128.064L51.516,128.064z"/>
		<g>
			<path fill="#FFFFFF" d="M142.847,86.046c-4.127-0.584-8.157-0.06-11.806,1.339l-5.002-10.106l5.697-14.445l-13.121-1.856
				c0,0-4.514,2.895-0.646,4.569c2.888,0.409,7.321,1.035,7.321,1.035l-2.617,6.618l-31.19-4.41l3.894-9.546
				c0,0,4.04,0.353,8.083,1.144c3.158-2.052,0.647-4.572,0.647-4.572l-21.339-3.017c0,0-3.323,1.685-0.646,4.572
				c4.673,0.662,8.547,1.209,8.547,1.209l-6.043,14.824L84.49,85.956c0.516-1.266,0.844-2.071,0.844-2.071
				c6.745,3.762,10.848,11.399,9.703,19.49c-0.633,4.477-2.778,8.369-5.834,11.256l6.121,0.01c2.209-3.044,3.73-6.652,4.293-10.629
				c1.447-10.223-3.878-19.858-12.533-24.421l2.891-7.094l19.763,33.538c0,0,0.828,1.862,2.876,2.151
				c2.043,0.289,3.078,0.435,3.078,0.435c-0.535,12.113,8.229,22.908,20.479,24.642c13.02,1.841,25.108-7.251,26.951-20.272
				C164.961,99.977,155.867,87.888,142.847,86.046z M135.506,106.751l-14.559-2.057c1.242-4.677,4.18-8.56,8.029-11.092
				L135.506,106.751z M111.874,100.563L96.301,74.126l24.637,3.484L111.874,100.563z M115.501,103.931l8.251-20.877l3.156,6.38
				c-5.156,3.221-9.066,8.376-10.571,14.616L115.501,103.931z M158.555,112.346c-1.483,10.493-11.229,17.833-21.731,16.349
				c-9.735-1.377-16.72-9.842-16.523-19.421c0,0,15.173,2.146,19.175,2.711c4,0.566,3.089-1.368,3.089-1.368l-9.456-19.076
				c2.828-1.008,5.932-1.375,9.1-0.928C152.711,92.099,160.039,101.853,158.555,112.346z"/>
			<path fill="#FFFFFF" d="M62.801,114.623c-4.361-4.142-6.744-10.248-5.84-16.643c1.127-7.966,7.023-14.097,14.387-15.944
				l0.074-4.758c-9.682,1.903-17.57,9.747-19.028,20.055c-0.897,6.346,0.81,12.466,4.296,17.29H62.801z"/>
		</g>
	</g>
	<path fill="#FDD835" d="M195.043,168.142c-2.57-5.81-5.418-11.587-8.545-17.312c5.996-2.563,12.201-4.905,18.602-7.004
		C140.988,117.308,68.912,117.476,4.9,144.329c0.041,0.095,0.08,0.188,0.119,0.283c6.605,2.131,13.004,4.522,19.182,7.149
		c-2.928,5.42-5.605,10.887-8.037,16.382C73.436,144.454,137.773,144.453,195.043,168.142L195.043,168.142L195.043,168.142z"/>
	<path fill="#FFFFFF" d="M12.102,170.961l1.514-3.425c2.23-5.043,4.686-10.092,7.309-15.03c-5.701-2.375-11.594-4.547-17.543-6.466
		l-0.654-0.212l-0.967-2.302l1.383-0.58c32.242-13.525,66.318-20.384,101.283-20.384c34.514,0,68.182,6.688,100.07,19.878
		l3.744,1.549l-3.85,1.263c-5.744,1.883-11.443,4.005-16.965,6.316c2.814,5.241,5.439,10.604,7.812,15.966l1.516,3.425l-3.461-1.432
		c-28.318-11.713-58.217-17.651-88.863-17.651c-30.65,0-60.549,5.939-88.869,17.653L12.102,170.961z M7.707,144.312
		c5.4,1.835,10.736,3.871,15.904,6.069l1.516,0.645l-0.783,1.448c-2.283,4.226-4.443,8.542-6.445,12.873
		c27.648-10.932,56.74-16.472,86.531-16.472c29.789,0,58.877,5.539,86.525,16.47c-2.148-4.645-4.48-9.271-6.951-13.796l-0.791-1.45
		l1.518-0.648c4.844-2.071,9.834-3.999,14.879-5.752c-30.412-12.038-62.41-18.137-95.184-18.137
		C71.09,125.562,38.57,131.868,7.707,144.312z"/>
	<g>
		<path fill="#FFFFFF" d="M51.969,137.375c2.455-0.69,4.914-1.331,7.371-1.924c1.143-0.276,2.1-0.248,2.871,0.077
			c0.766,0.324,1.232,0.842,1.395,1.546c0.145,0.618,0.011,1.199-0.393,1.741c-0.407,0.544-1.09,1.05-2.04,1.531
			c1.403-0.122,2.428-0.007,3.104,0.331c0.672,0.335,1.092,0.855,1.257,1.551c0.147,0.615,0.079,1.187-0.208,1.717
			c-0.201,0.377-0.615,0.764-1.248,1.166c-0.631,0.402-1.411,0.715-2.35,0.945c-2.175,0.532-4.354,1.107-6.528,1.721
			c-0.069-0.218-0.142-0.436-0.209-0.654c0.351-0.099,0.699-0.197,1.052-0.294c0.179-0.05,0.3-0.136,0.363-0.26
			c0.08-0.17,0.093-0.349,0.037-0.536c-0.825-2.69-1.627-5.382-2.413-8.076c-0.036-0.123-0.124-0.205-0.27-0.247
			c-0.144-0.041-0.362-0.023-0.65,0.057c-0.313,0.086-0.629,0.174-0.942,0.263C52.098,137.81,52.036,137.593,51.969,137.375z
			 M57.638,140.94c0.444-0.115,0.89-0.228,1.333-0.339c0.916-0.229,1.523-0.558,1.834-0.993c0.303-0.436,0.359-1.045,0.161-1.832
			c-0.173-0.683-0.481-1.123-0.944-1.32c-0.455-0.196-1.235-0.165-2.319,0.107c-0.521,0.13-0.835,0.255-0.953,0.372
			c-0.116,0.116-0.144,0.279-0.089,0.492C56.98,138.598,57.308,139.769,57.638,140.94z M57.823,141.598
			c0.364,1.27,0.72,2.539,1.088,3.808c0.059,0.198,0.147,0.337,0.271,0.417s0.263,0.099,0.424,0.058
			c0.495-0.126,0.989-0.251,1.482-0.374c0.726-0.18,1.251-0.499,1.569-0.963c0.318-0.464,0.392-1.049,0.209-1.756
			c-0.188-0.74-0.56-1.253-1.115-1.538c-0.555-0.284-1.271-0.321-2.139-0.105C59.018,141.293,58.421,141.444,57.823,141.598z"/>
		<path fill="#FFFFFF" d="M72.375,143.077c0.043,0.224,0.091,0.446,0.135,0.67c-1.68,0.308-3.361,0.64-5.037,0.996
			c-0.057-0.223-0.107-0.444-0.157-0.667c0.208-0.043,0.415-0.088,0.628-0.131c0.256-0.054,0.434-0.139,0.532-0.257
			c0.098-0.117,0.125-0.254,0.093-0.413c-0.296-1.323-0.592-2.646-0.88-3.97c-0.073-0.32-0.198-0.538-0.397-0.653
			c-0.195-0.115-0.442-0.142-0.732-0.081c-0.143,0.03-0.283,0.06-0.424,0.089c-0.047-0.21-0.094-0.419-0.143-0.63
			c1.056-0.276,2.119-0.543,3.178-0.801c0.153,0.73,0.301,1.461,0.454,2.191c0.031-0.768,0.24-1.394,0.63-1.874
			c0.384-0.481,0.872-0.776,1.455-0.881c0.496-0.089,0.912-0.039,1.246,0.149c0.332,0.188,0.529,0.47,0.6,0.845
			c0.06,0.323,0.004,0.601-0.154,0.835c-0.166,0.233-0.383,0.375-0.67,0.425c-0.25,0.045-0.491-0.002-0.703-0.142
			c-0.215-0.139-0.353-0.344-0.404-0.612c-0.027-0.149-0.013-0.313,0.041-0.492c0.028-0.1,0.04-0.169,0.032-0.208
			c-0.015-0.067-0.038-0.113-0.081-0.139c-0.037-0.024-0.1-0.031-0.172-0.017c-0.192,0.035-0.382,0.175-0.57,0.419
			c-0.286,0.377-0.485,0.918-0.589,1.622c-0.104,0.704-0.08,1.392,0.06,2.063c0.101,0.483,0.203,0.966,0.304,1.45
			c0.035,0.168,0.111,0.287,0.229,0.357c0.116,0.07,0.259,0.087,0.438,0.054C71.669,143.208,72.022,143.142,72.375,143.077z"/>
		<path fill="#FFFFFF" d="M82.763,138.748c-1.717,0.212-3.438,0.448-5.157,0.709c0.177,0.948,0.49,1.617,0.96,2.01
			c0.466,0.392,1.007,0.544,1.627,0.458c0.438-0.062,0.842-0.235,1.207-0.52c0.363-0.285,0.712-0.759,1.05-1.422
			c0.205,0.085,0.409,0.17,0.614,0.256c-0.347,0.781-0.77,1.363-1.296,1.749c-0.515,0.386-1.184,0.635-1.991,0.751
			c-1.179,0.168-2.192-0.022-3.038-0.58c-0.851-0.559-1.376-1.361-1.562-2.415c-0.188-1.055,0.037-1.998,0.678-2.829
			c0.641-0.829,1.532-1.33,2.646-1.489c0.772-0.111,1.454-0.058,2.047,0.152c0.594,0.213,1.078,0.577,1.456,1.087
			C82.38,137.179,82.631,137.873,82.763,138.748z M77.499,138.798c0.821-0.125,1.646-0.244,2.465-0.357
			c0.23-0.031,0.389-0.107,0.473-0.227c0.085-0.12,0.105-0.32,0.067-0.601c-0.081-0.561-0.28-0.977-0.607-1.246
			c-0.318-0.268-0.709-0.372-1.144-0.31c-0.52,0.074-0.878,0.339-1.089,0.795C77.459,137.31,77.398,137.958,77.499,138.798z"/>
		<path fill="#FFFFFF" d="M94.377,140.389c0.011,0.226,0.033,0.454,0.045,0.681c-1.449,0.088-2.894,0.195-4.34,0.318
			c-0.021-0.226-0.043-0.452-0.062-0.679c0.151-0.013,0.304-0.026,0.457-0.039c0.238-0.02,0.423-0.093,0.526-0.219
			c0.11-0.126,0.151-0.301,0.134-0.524c-0.084-0.988-0.164-1.977-0.247-2.965c-0.041-0.505-0.2-0.884-0.474-1.134
			c-0.271-0.25-0.613-0.357-1.02-0.323c-0.557,0.048-0.991,0.28-1.301,0.695c-0.312,0.413-0.424,0.988-0.355,1.722
			c0.079,0.761,0.158,1.521,0.235,2.282c0.025,0.224,0.102,0.387,0.235,0.492c0.133,0.105,0.293,0.149,0.485,0.131
			c0.184-0.017,0.363-0.033,0.55-0.05c0.019,0.227,0.041,0.453,0.066,0.679c-1.504,0.135-3.006,0.289-4.508,0.46
			c-0.027-0.226-0.061-0.452-0.086-0.677c0.195-0.023,0.397-0.045,0.589-0.066c0.229-0.026,0.394-0.103,0.495-0.231
			c0.106-0.129,0.141-0.304,0.114-0.527c-0.152-1.352-0.312-2.704-0.464-4.056c-0.023-0.234-0.133-0.41-0.32-0.53
			c-0.189-0.119-0.424-0.164-0.707-0.133c-0.104,0.012-0.21,0.024-0.319,0.037c-0.022-0.211-0.053-0.421-0.075-0.632
			c1.037-0.171,2.08-0.332,3.118-0.486c0.151,0.408,0.294,0.897,0.405,1.471c0.384-0.582,0.809-1.028,1.278-1.339
			c0.468-0.312,0.985-0.491,1.53-0.534c0.746-0.06,1.357,0.123,1.82,0.545c0.457,0.423,0.711,1.041,0.771,1.848
			c0.076,1.058,0.15,2.115,0.227,3.173c0.016,0.243,0.088,0.415,0.217,0.514c0.127,0.099,0.317,0.14,0.575,0.123
			C94.106,140.405,94.242,140.397,94.377,140.389z"/>
		<path fill="#FFFFFF" d="M109.355,130.753c0.194-0.355,0.393-0.71,0.587-1.065c0.204,0.004,0.402,0.01,0.607,0.015
			c0.03,1.449,0.059,2.898,0.086,4.347c-0.247-0.006-0.495-0.013-0.737-0.019c-0.203-1.254-0.614-2.191-1.251-2.808
			c-0.635-0.615-1.371-0.928-2.209-0.931c-0.914-0.004-1.674,0.389-2.261,1.175c-0.597,0.785-0.87,2.021-0.85,3.704
			c0.024,1.781,0.354,3.099,0.992,3.958c0.506,0.676,1.244,1.011,2.218,1.017c0.975,0.005,1.798-0.322,2.481-0.987
			c0.493-0.484,0.846-1.204,1.066-2.161c0.236,0.006,0.477,0.012,0.711,0.018c-0.205,1.232-0.736,2.193-1.583,2.893
			c-0.847,0.702-1.867,1.045-3.073,1.042c-1.56-0.005-2.866-0.513-3.951-1.541c-1.083-1.026-1.663-2.35-1.711-3.984
			c-0.053-1.813,0.541-3.282,1.808-4.388c1.077-0.942,2.371-1.416,3.853-1.411c0.587,0.002,1.126,0.088,1.624,0.257
			C108.264,130.052,108.795,130.342,109.355,130.753z"/>
		<path fill="#FFFFFF" d="M120.179,137.922c-1.718-0.136-3.438-0.248-5.157-0.336c-0.039,0.961,0.135,1.68,0.501,2.158
			c0.368,0.477,0.858,0.733,1.477,0.772c0.443,0.028,0.87-0.062,1.284-0.267c0.414-0.206,0.86-0.6,1.328-1.181
			c0.183,0.124,0.363,0.249,0.543,0.374c-0.503,0.695-1.05,1.178-1.637,1.452c-0.587,0.274-1.284,0.384-2.097,0.336
			c-1.181-0.071-2.114-0.458-2.815-1.173c-0.701-0.715-1.033-1.604-0.994-2.673c0.042-1.068,0.453-1.948,1.248-2.632
			c0.791-0.683,1.759-0.996,2.871-0.929c0.77,0.045,1.425,0.233,1.956,0.558c0.534,0.327,0.932,0.778,1.189,1.354
			C120.136,136.311,120.239,137.04,120.179,137.922z M115.058,136.92c0.818,0.042,1.642,0.089,2.465,0.142
			c0.234,0.015,0.398-0.027,0.506-0.127c0.108-0.1,0.176-0.292,0.194-0.574c0.036-0.565-0.07-1.012-0.331-1.34
			c-0.261-0.328-0.607-0.505-1.047-0.532c-0.515-0.031-0.925,0.157-1.221,0.562C115.328,135.455,115.141,136.079,115.058,136.92z"/>
		<path fill="#FFFFFF" d="M131.214,141.856c-0.036,0.225-0.068,0.449-0.104,0.675c-1.443-0.205-2.896-0.392-4.34-0.562
			c0.024-0.225,0.057-0.451,0.085-0.676c0.154,0.018,0.304,0.036,0.457,0.054c0.243,0.029,0.435-0.007,0.565-0.108
			c0.136-0.102,0.22-0.263,0.246-0.486c0.13-0.984,0.262-1.967,0.391-2.951c0.063-0.503-0.009-0.905-0.224-1.205
			c-0.218-0.299-0.532-0.474-0.938-0.521c-0.557-0.065-1.029,0.075-1.423,0.419c-0.395,0.342-0.625,0.881-0.71,1.614
			c-0.087,0.76-0.171,1.52-0.258,2.28c-0.028,0.223,0.013,0.398,0.122,0.528c0.11,0.129,0.257,0.205,0.447,0.226
			c0.183,0.02,0.368,0.04,0.551,0.061c-0.031,0.226-0.053,0.452-0.084,0.678c-1.503-0.17-3.003-0.321-4.509-0.453
			c0.024-0.228,0.041-0.453,0.064-0.68c0.199,0.018,0.396,0.035,0.588,0.053c0.226,0.021,0.405-0.022,0.533-0.127
			c0.129-0.106,0.203-0.27,0.228-0.493c0.136-1.354,0.272-2.707,0.408-4.061c0.024-0.233-0.044-0.428-0.203-0.583
			c-0.157-0.154-0.385-0.245-0.662-0.27c-0.107-0.009-0.215-0.019-0.319-0.029c0.018-0.211,0.037-0.422,0.057-0.634
			c1.051,0.041,2.1,0.09,3.153,0.149c0.065,0.431,0.096,0.937,0.09,1.521c0.499-0.493,1.003-0.844,1.533-1.055
			c0.524-0.21,1.067-0.283,1.617-0.216c0.748,0.091,1.312,0.393,1.677,0.9c0.363,0.506,0.484,1.162,0.371,1.963
			c-0.15,1.05-0.305,2.1-0.455,3.149c-0.035,0.243-0.003,0.425,0.102,0.547c0.102,0.122,0.282,0.2,0.542,0.236
			C130.944,141.819,131.08,141.837,131.214,141.856z"/>
		<path fill="#FFFFFF" d="M136.173,133.5c0.238,0.039,0.487,0.078,0.726,0.117c-0.162,0.928-0.314,1.854-0.478,2.782
			c0.825,0.136,1.654,0.277,2.481,0.423c-0.05,0.259-0.1,0.519-0.148,0.779c-0.822-0.146-1.644-0.287-2.469-0.422
			c-0.254,1.433-0.499,2.865-0.757,4.297c-0.052,0.285-0.017,0.517,0.113,0.7c0.13,0.182,0.316,0.294,0.573,0.337
			c0.723,0.123,1.226-0.436,1.51-1.683c0.23,0.041,0.463,0.083,0.698,0.124c-0.146,0.664-0.364,1.181-0.655,1.549
			c-0.293,0.369-0.66,0.629-1.092,0.782c-0.436,0.153-0.898,0.189-1.39,0.107c-0.432-0.071-0.792-0.213-1.077-0.427
			c-0.288-0.214-0.495-0.499-0.631-0.852c-0.136-0.355-0.17-0.723-0.107-1.104c0.23-1.389,0.456-2.778,0.681-4.168
			c-0.444-0.067-0.886-0.133-1.325-0.198c0.032-0.222,0.07-0.445,0.102-0.667c0.832,0.022,1.507-0.162,2.045-0.56
			C135.508,135.022,135.908,134.384,136.173,133.5z"/>
		<path fill="#FFFFFF" d="M147.324,142.079c-1.718-0.393-3.44-0.76-5.161-1.103c-0.188,0.946-0.134,1.682,0.163,2.209
			c0.293,0.527,0.751,0.854,1.368,0.984c0.438,0.094,0.889,0.069,1.34-0.073c0.453-0.142,0.963-0.465,1.533-0.97
			c0.163,0.15,0.326,0.3,0.489,0.451c-0.62,0.611-1.252,1.008-1.891,1.19c-0.637,0.184-1.359,0.188-2.173,0.02
			c-1.181-0.247-2.06-0.768-2.65-1.58c-0.591-0.812-0.784-1.741-0.576-2.791c0.21-1.051,0.761-1.859,1.668-2.419
			c0.905-0.557,1.929-0.724,3.042-0.493c0.771,0.16,1.402,0.443,1.894,0.844c0.489,0.403,0.821,0.91,0.993,1.518
			C147.538,140.478,147.526,141.215,147.324,142.079z M142.304,140.323c0.823,0.163,1.644,0.332,2.467,0.507
			c0.234,0.049,0.407,0.033,0.533-0.05s0.22-0.263,0.285-0.54c0.13-0.553,0.089-1.012-0.124-1.375
			c-0.211-0.362-0.541-0.59-0.975-0.682c-0.517-0.108-0.958,0.017-1.321,0.374C142.803,138.914,142.521,139.503,142.304,140.323z"/>
		<path fill="#FFFFFF" d="M153.242,146.333c-0.064,0.219-0.131,0.439-0.198,0.658c-1.68-0.447-3.358-0.869-5.04-1.267
			c0.058-0.221,0.118-0.441,0.176-0.662c0.21,0.049,0.417,0.099,0.629,0.149c0.254,0.062,0.457,0.062,0.602-0.001
			c0.143-0.063,0.24-0.172,0.279-0.33c0.359-1.311,0.713-2.622,1.061-3.934c0.088-0.317,0.064-0.569-0.06-0.756
			c-0.121-0.186-0.331-0.315-0.626-0.385c-0.144-0.033-0.286-0.067-0.425-0.101c0.05-0.208,0.104-0.417,0.16-0.626
			c1.082,0.204,2.17,0.416,3.254,0.639c-0.194,0.72-0.397,1.441-0.599,2.162c0.387-0.675,0.869-1.147,1.441-1.414
			c0.574-0.266,1.153-0.322,1.742-0.166c0.498,0.134,0.861,0.358,1.08,0.67c0.216,0.312,0.272,0.651,0.159,1.018
			c-0.097,0.315-0.276,0.542-0.532,0.683c-0.259,0.139-0.527,0.17-0.813,0.093c-0.257-0.069-0.447-0.212-0.581-0.431
			c-0.133-0.218-0.163-0.459-0.084-0.723c0.043-0.146,0.133-0.287,0.266-0.423c0.074-0.078,0.113-0.136,0.126-0.173
			c0.024-0.066,0.015-0.119-0.012-0.158c-0.027-0.04-0.074-0.07-0.15-0.09c-0.19-0.051-0.431-0.007-0.715,0.131
			c-0.437,0.214-0.868,0.616-1.291,1.203c-0.421,0.588-0.724,1.214-0.911,1.875c-0.135,0.477-0.272,0.953-0.408,1.429
			c-0.05,0.167-0.037,0.304,0.036,0.417c0.072,0.112,0.201,0.192,0.374,0.237C152.536,146.146,152.888,146.239,153.242,146.333z"/>
	</g>
</g>
</svg>
