<?xml version="1.0" encoding="utf-8"?>
<!-- Generator: Adobe Illustrator 16.0.4, SVG Export Plug-In . SVG Version: 6.00 Build 0)  -->
<!DOCTYPE svg PUBLIC "-//W3C//DTD SVG 1.1//EN" "http://www.w3.org/Graphics/SVG/1.1/DTD/svg11.dtd">
<svg version="1.1" id="Livello_1" xmlns="http://www.w3.org/2000/svg" xmlns:xlink="http://www.w3.org/1999/xlink" x="0px" y="0px"
	 width="210px" height="200px" viewBox="0 0 210 200" enable-background="new 0 0 210 200" xml:space="preserve">
<g>
	<g>
		<circle fill="#FBC02E" cx="105" cy="100" r="84"/>
		<circle fill="#FABF2D" cx="105" cy="100" r="75.216"/>
		<path fill="#FFFFFF" d="M104.999,177.717c-42.853,0-77.715-34.864-77.715-77.717s34.862-77.717,77.715-77.717
			S182.716,57.147,182.716,100S147.852,177.717,104.999,177.717z M104.999,27.283c-40.095,0-72.715,32.621-72.715,72.717
			s32.62,72.717,72.715,72.717c40.097,0,72.717-32.621,72.717-72.717S145.096,27.283,104.999,27.283z"/>
		<path fill="#FFFFFF" d="M100.554,115.299H83.5l0.474-43.506c-0.551-4.04-3.011-6.182-6.093-6.182c-2.601,0-4.729,1.54-5.668,4.439
			L71.5,115.299H51.906h-0.035c-3.244,0-6.13,2.607-6.13,6.072c0,3.465,2.431,6.689,5.675,6.689c0.036,0,0.055,0.002,0.084,0.003
			v0.236h19.483H83.53h17.023c3.381,0,5.62-3.534,5.62-6.908C106.174,118.019,103.935,116.299,100.554,115.299z M51.516,128.064
			C52.047,128.082,51.592,128.215,51.516,128.064L51.516,128.064z"/>
		<g>
			<path fill="#FFFFFF" d="M142.847,86.046c-4.127-0.584-8.157-0.06-11.806,1.339l-5.002-10.106l5.697-14.445l-13.121-1.856
				c0,0-4.514,2.895-0.646,4.569c2.888,0.409,7.321,1.035,7.321,1.035l-2.617,6.618l-31.19-4.41l3.894-9.546
				c0,0,4.04,0.353,8.083,1.144c3.158-2.052,0.647-4.572,0.647-4.572l-21.339-3.017c0,0-3.323,1.685-0.646,4.572
				c4.673,0.662,8.547,1.209,8.547,1.209l-6.043,14.824L84.49,85.956c0.516-1.266,0.844-2.071,0.844-2.071
				c6.745,3.762,10.848,11.399,9.703,19.49c-0.633,4.477-2.778,8.369-5.834,11.256l6.121,0.01c2.209-3.044,3.73-6.652,4.293-10.629
				c1.447-10.223-3.878-19.858-12.533-24.421l2.891-7.094l19.763,33.538c0,0,0.828,1.862,2.876,2.151
				c2.043,0.289,3.078,0.435,3.078,0.435c-0.535,12.113,8.229,22.908,20.479,24.642c13.02,1.841,25.108-7.251,26.951-20.272
				C164.961,99.977,155.867,87.888,142.847,86.046z M135.506,106.751l-14.559-2.057c1.242-4.677,4.18-8.56,8.029-11.092
				L135.506,106.751z M111.874,100.563L96.301,74.126l24.637,3.484L111.874,100.563z M115.501,103.931l8.251-20.877l3.156,6.38
				c-5.156,3.221-9.066,8.376-10.571,14.616L115.501,103.931z M158.555,112.346c-1.483,10.493-11.229,17.833-21.731,16.349
				c-9.735-1.377-16.72-9.842-16.523-19.421c0,0,15.173,2.146,19.175,2.711c4,0.566,3.089-1.368,3.089-1.368l-9.456-19.076
				c2.828-1.008,5.932-1.375,9.1-0.928C152.711,92.099,160.039,101.853,158.555,112.346z"/>
			<path fill="#FFFFFF" d="M62.801,114.623c-4.361-4.142-6.744-10.248-5.84-16.643c1.127-7.966,7.023-14.097,14.387-15.944
				l0.074-4.758c-9.682,1.903-17.57,9.747-19.028,20.055c-0.897,6.346,0.81,12.466,4.296,17.29H62.801z"/>
		</g>
	</g>
	<path fill="#FDD835" d="M195.043,168.142c-2.57-5.81-5.418-11.587-8.545-17.312c5.996-2.563,12.201-4.905,18.602-7.004
		C140.988,117.308,68.912,117.476,4.9,144.329c0.041,0.095,0.08,0.188,0.119,0.283c6.605,2.131,13.004,4.522,19.182,7.149
		c-2.928,5.42-5.605,10.887-8.037,16.382C73.436,144.454,137.773,144.453,195.043,168.142L195.043,168.142L195.043,168.142z"/>
	<path fill="#FFFFFF" d="M12.102,170.961l1.514-3.425c2.23-5.043,4.686-10.092,7.309-15.03c-5.701-2.375-11.594-4.547-17.543-6.466
		l-0.654-0.212l-0.967-2.302l1.383-0.58c32.242-13.525,66.318-20.384,101.283-20.384c34.514,0,68.182,6.688,100.07,19.878
		l3.744,1.549l-3.85,1.263c-5.744,1.883-11.443,4.005-16.965,6.316c2.814,5.241,5.439,10.604,7.812,15.966l1.516,3.425l-3.461-1.432
		c-28.318-11.713-58.217-17.651-88.863-17.651c-30.65,0-60.549,5.939-88.869,17.653L12.102,170.961z M7.707,144.312
		c5.4,1.835,10.736,3.871,15.904,6.069l1.516,0.645l-0.783,1.448c-2.283,4.226-4.443,8.542-6.445,12.873
		c27.648-10.932,56.74-16.472,86.531-16.472c29.789,0,58.877,5.539,86.525,16.47c-2.148-4.645-4.48-9.271-6.951-13.796l-0.791-1.45
		l1.518-0.648c4.844-2.071,9.834-3.999,14.879-5.752c-30.412-12.038-62.41-18.137-95.184-18.137
		C71.09,125.562,38.57,131.868,7.707,144.312z"/>
	<g>
		<path fill="#FFFFFF" d="M80,134.397c1.821-0.512,3.637-0.967,5.452-1.368c1.569,2.162,3.079,4.357,4.518,6.583
			c0.421-2.575,0.962-5.151,1.604-7.725c1.859-0.284,3.715-0.51,5.571-0.68c0.022,0.226,0.043,0.452,0.063,0.678
			c-0.398,0.037-0.801,0.076-1.2,0.118c-0.298,0.031-0.498,0.097-0.6,0.197c-0.103,0.1-0.141,0.257-0.115,0.47
			c0.321,2.741,0.654,5.48,1.011,8.22c0.029,0.208,0.098,0.346,0.217,0.41c0.175,0.099,0.403,0.133,0.675,0.104
			c0.313-0.033,0.627-0.064,0.942-0.092c0.023,0.227,0.05,0.452,0.071,0.678c-1.995,0.184-3.984,0.442-5.975,0.776
			c-0.044-0.223-0.087-0.447-0.132-0.671c0.382-0.063,0.755-0.125,1.138-0.183c0.208-0.032,0.358-0.107,0.45-0.23
			c0.093-0.122,0.122-0.278,0.09-0.466c-0.486-2.92-0.943-5.843-1.379-8.766c-0.921,3.554-1.646,7.116-2.131,10.672
			c-0.232,0.045-0.469,0.091-0.699,0.139c-2.037-3.086-4.21-6.11-6.5-9.065c0.672,2.558,1.379,5.113,2.127,7.665
			c0.129,0.44,0.396,0.758,0.793,0.961c0.395,0.205,0.902,0.263,1.514,0.183c0.06,0.222,0.118,0.442,0.177,0.663
			c-1.446,0.331-2.894,0.702-4.335,1.115c-0.075-0.217-0.152-0.434-0.225-0.652c0.538-0.198,0.908-0.487,1.123-0.87
			c0.214-0.383,0.25-0.806,0.109-1.274c-0.688-2.25-1.345-4.503-1.972-6.759c-0.079-0.287-0.195-0.463-0.349-0.523
			c-0.151-0.062-0.408-0.045-0.773,0.053c-0.354,0.095-0.71,0.193-1.062,0.293C80.132,134.833,80.067,134.616,80,134.397z"/>
		<path fill="#FFFFFF" d="M98.823,135.058c1.21-0.151,2.42-0.277,3.633-0.378c0.054,1.522,0.112,3.045,0.17,4.567
			c0.017,0.424,0.156,0.756,0.418,0.994c0.262,0.239,0.592,0.354,0.991,0.346c0.569-0.01,1.02-0.217,1.362-0.627
			c0.344-0.411,0.52-0.89,0.523-1.442c0.003-0.748,0.008-1.494,0.014-2.241c0.001-0.264-0.085-0.464-0.256-0.603
			c-0.168-0.136-0.408-0.206-0.707-0.204c-0.129,0.002-0.266,0.003-0.396,0.004c-0.004-0.222-0.005-0.444-0.007-0.666
			c1.229-0.071,2.455-0.118,3.688-0.137c-0.061,1.849-0.125,3.699-0.195,5.549c-0.008,0.249,0.069,0.447,0.232,0.594
			c0.163,0.147,0.38,0.226,0.661,0.238c0.115,0.005,0.23,0.01,0.345,0.016c-0.013,0.227-0.025,0.454-0.037,0.681
			c-1.031-0.02-2.06-0.02-3.086,0.001c-0.121-0.49-0.192-1.012-0.211-1.569c-0.524,0.598-1.021,1.022-1.496,1.271
			c-0.472,0.25-0.962,0.384-1.472,0.4c-0.507,0.016-0.936-0.064-1.292-0.242c-0.358-0.178-0.654-0.473-0.892-0.885
			c-0.236-0.413-0.381-0.919-0.421-1.524c-0.062-0.906-0.124-1.813-0.183-2.719c-0.021-0.296-0.121-0.505-0.311-0.623
			c-0.185-0.117-0.527-0.164-1.022-0.138C98.856,135.5,98.842,135.279,98.823,135.058z"/>
		<path fill="#FFFFFF" d="M116.765,135.738c0.216-0.167,0.437-0.332,0.653-0.497c0.178,0.024,0.357,0.049,0.535,0.074
			c-0.059,0.781-0.121,1.562-0.189,2.343c-0.229-0.033-0.461-0.065-0.689-0.097c-0.27-0.667-0.615-1.153-1.021-1.458
			c-0.405-0.305-0.931-0.493-1.562-0.558c-0.543-0.056-0.966-0.007-1.268,0.144c-0.299,0.15-0.459,0.361-0.484,0.629
			c-0.022,0.264,0.066,0.473,0.27,0.627c0.201,0.162,0.775,0.366,1.717,0.635c0.85,0.246,1.406,0.446,1.68,0.585
			c0.521,0.261,0.898,0.601,1.143,1.017c0.243,0.415,0.315,0.873,0.229,1.37c-0.106,0.628-0.486,1.11-1.111,1.46
			c-0.629,0.35-1.383,0.468-2.278,0.366c-0.431-0.049-0.82-0.137-1.159-0.265c-0.34-0.129-0.688-0.33-1.05-0.601
			c-0.21,0.189-0.42,0.377-0.626,0.568c-0.201-0.016-0.402-0.03-0.604-0.044c0.023-0.865,0.041-1.73,0.057-2.596
			c0.231,0.015,0.457,0.031,0.685,0.049c0.471,1.349,1.366,2.077,2.741,2.229c0.565,0.064,1.012,0.018,1.341-0.142
			c0.328-0.16,0.521-0.376,0.562-0.652c0.037-0.251-0.029-0.456-0.198-0.612c-0.171-0.155-0.659-0.363-1.468-0.605
			c-0.875-0.261-1.474-0.454-1.785-0.601c-0.541-0.239-0.937-0.535-1.194-0.894c-0.256-0.36-0.372-0.777-0.333-1.254
			c0.051-0.682,0.359-1.223,0.935-1.617c0.573-0.393,1.324-0.55,2.235-0.455c0.443,0.045,0.839,0.134,1.179,0.262
			C116.044,135.278,116.398,135.474,116.765,135.738z"/>
		<path fill="#FFFFFF" d="M127.54,141.211c-1.82-0.49-3.646-0.917-5.466-1.282c-0.196,0.946-0.144,1.683,0.158,2.214
			c0.303,0.532,0.767,0.867,1.404,1.013c0.455,0.105,0.924,0.095,1.4-0.03c0.479-0.125,1.023-0.428,1.651-0.904
			c0.169,0.158,0.331,0.317,0.497,0.477c-0.69,0.579-1.365,0.947-2.038,1.105c-0.673,0.159-1.419,0.141-2.253-0.045
			c-1.212-0.27-2.106-0.793-2.725-1.606c-0.616-0.81-0.837-1.737-0.637-2.79c0.202-1.054,0.766-1.869,1.732-2.425
			c0.966-0.553,2.072-0.705,3.292-0.438c0.843,0.184,1.529,0.496,2.059,0.922c0.524,0.428,0.879,0.954,1.048,1.575
			C127.834,139.618,127.791,140.357,127.54,141.211z M122.223,139.276c0.876,0.175,1.751,0.365,2.628,0.569
			c0.243,0.058,0.437,0.048,0.569-0.03c0.134-0.079,0.241-0.256,0.317-0.53c0.151-0.549,0.113-1.011-0.112-1.385
			c-0.225-0.372-0.58-0.614-1.054-0.719c-0.562-0.125-1.038-0.009-1.429,0.341C122.752,137.872,122.451,138.458,122.223,139.276z"/>
	</g>
</g>
</svg>
