<?xml version="1.0" encoding="utf-8"?>
<!-- Generator: Adobe Illustrator 16.0.4, SVG Export Plug-In . SVG Version: 6.00 Build 0)  -->
<!DOCTYPE svg PUBLIC "-//W3C//DTD SVG 1.1//EN" "http://www.w3.org/Graphics/SVG/1.1/DTD/svg11.dtd">
<svg version="1.1" id="Livello_1" xmlns="http://www.w3.org/2000/svg" xmlns:xlink="http://www.w3.org/1999/xlink" x="0px" y="0px"
	 width="210px" height="200px" viewBox="0 0 210 200" enable-background="new 0 0 210 200" xml:space="preserve">
<g>
	<circle fill="#FBC02E" cx="105" cy="100" r="84"/>
	<circle fill="#FABF2D" cx="105" cy="100" r="75.216"/>
	<path fill="#FFFFFF" d="M104.999,177.717c-42.853,0-77.715-34.864-77.715-77.717s34.862-77.717,77.715-77.717
		S182.716,57.147,182.716,100S147.852,177.717,104.999,177.717z M104.999,27.283c-40.095,0-72.715,32.621-72.715,72.717
		s32.62,72.717,72.715,72.717c40.097,0,72.717-32.621,72.717-72.717S145.096,27.283,104.999,27.283z"/>
	<path fill="#FFFFFF" d="M100.554,115.299H83.5l0.474-43.506c-0.551-4.04-3.011-6.182-6.093-6.182c-2.601,0-4.729,1.54-5.668,4.439
		L71.5,115.299H51.906h-0.035c-3.244,0-6.13,2.607-6.13,6.072c0,3.465,2.431,6.689,5.675,6.689c0.036,0,0.055,0.002,0.084,0.003
		v0.236h19.483H83.53h17.023c3.381,0,5.62-3.534,5.62-6.908C106.174,118.019,103.935,116.299,100.554,115.299z M51.516,128.064
		C52.047,128.082,51.592,128.215,51.516,128.064L51.516,128.064z"/>
	<g>
		<path fill="#FFFFFF" d="M142.847,86.046c-4.127-0.584-8.157-0.06-11.806,1.339l-5.002-10.106l5.697-14.445l-13.121-1.856
			c0,0-4.514,2.895-0.646,4.569c2.888,0.409,7.321,1.035,7.321,1.035l-2.617,6.618l-31.19-4.41l3.894-9.546
			c0,0,4.04,0.353,8.083,1.144c3.158-2.052,0.647-4.572,0.647-4.572l-21.339-3.017c0,0-3.323,1.685-0.646,4.572
			c4.673,0.662,8.547,1.209,8.547,1.209l-6.043,14.824L84.49,85.956c0.516-1.266,0.844-2.071,0.844-2.071
			c6.745,3.762,10.848,11.399,9.703,19.49c-0.633,4.477-2.778,8.369-5.834,11.256l6.121,0.01c2.209-3.044,3.73-6.652,4.293-10.629
			c1.447-10.223-3.878-19.858-12.533-24.421l2.891-7.094l19.763,33.538c0,0,0.828,1.862,2.876,2.151
			c2.043,0.289,3.078,0.435,3.078,0.435c-0.535,12.113,8.229,22.908,20.479,24.642c13.02,1.841,25.108-7.251,26.951-20.272
			C164.961,99.977,155.867,87.888,142.847,86.046z M135.506,106.751l-14.559-2.057c1.242-4.677,4.18-8.56,8.029-11.092
			L135.506,106.751z M111.874,100.563L96.301,74.126l24.637,3.484L111.874,100.563z M115.501,103.931l8.251-20.877l3.156,6.38
			c-5.156,3.221-9.066,8.376-10.571,14.616L115.501,103.931z M158.555,112.346c-1.483,10.493-11.229,17.833-21.731,16.349
			c-9.735-1.377-16.72-9.842-16.523-19.421c0,0,15.173,2.146,19.175,2.711c4,0.566,3.089-1.368,3.089-1.368l-9.456-19.076
			c2.828-1.008,5.932-1.375,9.1-0.928C152.711,92.099,160.039,101.853,158.555,112.346z"/>
		<path fill="#FFFFFF" d="M62.801,114.623c-4.361-4.142-6.744-10.248-5.84-16.643c1.127-7.966,7.023-14.097,14.387-15.944
			l0.074-4.758c-9.682,1.903-17.57,9.747-19.028,20.055c-0.897,6.346,0.81,12.466,4.296,17.29H62.801z"/>
	</g>
</g>
<path fill="#FDD835" d="M195.043,168.142c-2.57-5.81-5.418-11.587-8.545-17.312c5.996-2.563,12.201-4.905,18.602-7.004
	C140.988,117.308,68.912,117.476,4.9,144.329c0.041,0.095,0.08,0.188,0.119,0.283c6.605,2.131,13.004,4.522,19.182,7.149
	c-2.928,5.42-5.605,10.887-8.037,16.382C73.436,144.454,137.773,144.453,195.043,168.142L195.043,168.142L195.043,168.142z"/>
<path fill="#FFFFFF" d="M12.102,170.961l1.514-3.425c2.23-5.043,4.686-10.092,7.309-15.03c-5.701-2.375-11.594-4.547-17.543-6.466
	l-0.654-0.212l-0.967-2.302l1.383-0.58c32.242-13.525,66.318-20.384,101.283-20.384c34.514,0,68.182,6.688,100.07,19.878
	l3.744,1.549l-3.85,1.263c-5.744,1.883-11.443,4.005-16.965,6.316c2.814,5.241,5.439,10.604,7.812,15.966l1.516,3.425l-3.461-1.432
	c-28.318-11.713-58.217-17.651-88.863-17.651c-30.65,0-60.549,5.939-88.869,17.653L12.102,170.961z M7.707,144.312
	c5.4,1.835,10.736,3.871,15.904,6.069l1.516,0.645l-0.783,1.448c-2.283,4.226-4.443,8.542-6.445,12.873
	c27.648-10.932,56.74-16.472,86.531-16.472c29.789,0,58.877,5.539,86.525,16.47c-2.148-4.645-4.48-9.271-6.951-13.796l-0.791-1.45
	l1.518-0.648c4.844-2.071,9.834-3.999,14.879-5.752c-30.412-12.038-62.41-18.137-95.184-18.137
	C71.09,125.562,38.57,131.868,7.707,144.312z"/>
<g>
	<path fill="#FFFFFF" d="M40.011,141.052c0.188-0.424,0.382-0.848,0.573-1.271c0.217-0.053,0.433-0.105,0.648-0.158
		c0.375,1.367,0.755,2.733,1.137,4.099c-0.271,0.065-0.538,0.13-0.81,0.197c-0.73-1.079-1.562-1.815-2.499-2.206
		c-0.938-0.39-1.885-0.462-2.835-0.214c-0.811,0.21-1.415,0.58-1.811,1.102c-0.395,0.523-0.514,1.054-0.356,1.592
		c0.093,0.32,0.276,0.586,0.554,0.798c0.275,0.213,0.66,0.355,1.156,0.427c0.495,0.073,1.32,0.062,2.477-0.019
		c1.352-0.091,2.294-0.093,2.835-0.022c0.86,0.119,1.551,0.39,2.068,0.81c0.521,0.42,0.877,1,1.065,1.735
		c0.286,1.101,0.104,2.078-0.54,2.933c-0.776,1.03-1.881,1.726-3.331,2.101c-1.337,0.346-2.682,0.243-4.053-0.311
		c-0.222,0.482-0.441,0.965-0.659,1.447c-0.214,0.06-0.428,0.119-0.641,0.179c-0.457-1.456-0.912-2.913-1.36-4.369
		c0.26-0.072,0.519-0.145,0.778-0.217c1.536,2.282,3.453,3.104,5.772,2.504c0.951-0.247,1.633-0.635,2.049-1.17
		c0.419-0.536,0.55-1.106,0.384-1.712c-0.115-0.424-0.326-0.75-0.641-0.979c-0.312-0.228-0.737-0.368-1.283-0.421
		c-0.297-0.027-1.012-0.011-2.146,0.059c-1.53,0.088-2.649,0.071-3.362-0.067c-0.713-0.137-1.28-0.387-1.707-0.748
		c-0.428-0.363-0.737-0.864-0.931-1.502c-0.325-1.074-0.179-2.064,0.448-2.969c0.624-0.905,1.64-1.544,3.031-1.908
		C37.36,140.419,38.694,140.515,40.011,141.052z"/>
	<path fill="#FFFFFF" d="M46.837,139.827c0.271-0.06,0.537-0.119,0.809-0.178c0.238,1.04,0.479,2.08,0.721,3.119
		c0.924-0.202,1.848-0.4,2.771-0.592c0.065,0.292,0.13,0.584,0.194,0.877c-0.921,0.192-1.841,0.388-2.762,0.59
		c0.375,1.607,0.754,3.213,1.139,4.819c0.075,0.318,0.224,0.546,0.44,0.683c0.217,0.138,0.469,0.176,0.755,0.114
		c0.815-0.176,1.083-0.973,0.811-2.395c0.261-0.055,0.522-0.109,0.782-0.164c0.146,0.757,0.16,1.388,0.024,1.896
		c-0.134,0.507-0.393,0.93-0.78,1.274c-0.386,0.343-0.851,0.575-1.407,0.696c-0.486,0.106-0.926,0.108-1.332,0.004
		c-0.398-0.104-0.752-0.312-1.055-0.628c-0.305-0.315-0.506-0.685-0.614-1.111c-0.386-1.551-0.77-3.103-1.148-4.655
		c-0.497,0.112-0.989,0.227-1.483,0.343c-0.063-0.248-0.122-0.495-0.187-0.743c0.886-0.32,1.519-0.797,1.904-1.435
		C46.805,141.702,46.943,140.864,46.837,139.827z"/>
	<path fill="#FFFFFF" d="M63.63,146.772c0.155,0.176,0.313,0.352,0.471,0.529c-0.313,0.287-0.602,0.497-0.866,0.632
		c-0.266,0.136-0.564,0.231-0.899,0.289c-0.496,0.085-0.92,0.057-1.262-0.088c-0.344-0.145-0.7-0.469-1.062-0.972
		c-0.486,0.656-0.941,1.127-1.369,1.413c-0.428,0.287-0.939,0.484-1.527,0.598c-0.817,0.156-1.488,0.106-2.024-0.155
		c-0.533-0.26-0.862-0.66-0.98-1.202c-0.181-0.818,0.104-1.56,0.857-2.224c0.604-0.525,2.033-1.215,4.296-2.029
		c-0.069-0.367-0.14-0.734-0.209-1.102c-0.083-0.436-0.307-0.763-0.676-0.98c-0.369-0.217-0.821-0.277-1.352-0.178
		c-0.404,0.076-0.749,0.222-1.026,0.439c-0.187,0.143-0.272,0.267-0.25,0.369c0.012,0.054,0.065,0.128,0.167,0.223
		c0.216,0.211,0.347,0.438,0.395,0.677c0.061,0.304,0.003,0.571-0.18,0.8c-0.18,0.229-0.453,0.379-0.818,0.45
		c-0.391,0.076-0.724,0.037-1.005-0.12c-0.28-0.157-0.454-0.394-0.521-0.713c-0.113-0.527,0.1-1.054,0.645-1.578
		c0.675-0.653,1.606-1.09,2.772-1.307c0.882-0.163,1.688-0.179,2.412-0.048c0.467,0.081,0.869,0.296,1.212,0.645
		c0.347,0.348,0.564,0.812,0.67,1.39c0.233,1.295,0.472,2.589,0.708,3.884c0.053,0.294,0.15,0.497,0.291,0.608
		c0.14,0.111,0.315,0.149,0.516,0.115C63.183,147.108,63.388,146.987,63.63,146.772z M59.4,144.271
		c-1.231,0.385-2.034,0.79-2.41,1.202c-0.375,0.414-0.507,0.889-0.395,1.426c0.079,0.38,0.242,0.652,0.491,0.816
		c0.25,0.164,0.56,0.21,0.931,0.141c0.575-0.108,1.014-0.39,1.318-0.845c0.306-0.455,0.396-1.018,0.268-1.687
		C59.536,144.974,59.468,144.623,59.4,144.271z"/>
	<path fill="#FFFFFF" d="M64.707,139.696c2.414-0.38,4.832-0.726,7.245-1.04c0.036,0.25,0.066,0.5,0.102,0.749
		c-1.38,2.279-2.72,4.568-4.01,6.866c0.764-0.114,1.525-0.224,2.288-0.331c0.496-0.069,0.883-0.296,1.163-0.68
		c0.277-0.384,0.437-1.017,0.471-1.899c0.261-0.034,0.523-0.068,0.782-0.102c0.086,1.033,0.172,2.066,0.261,3.099
		c-2.53,0.329-5.059,0.695-7.586,1.098c-0.044-0.254-0.089-0.507-0.131-0.761c1.263-2.311,2.573-4.614,3.929-6.907
		c-0.658,0.092-1.312,0.187-1.968,0.284c-0.455,0.068-0.813,0.279-1.064,0.637c-0.253,0.357-0.385,0.927-0.396,1.71
		c-0.266,0.04-0.527,0.082-0.789,0.124C64.903,141.594,64.803,140.645,64.707,139.696z"/>
	<path fill="#FFFFFF" d="M73.994,138.399c1.234-0.205,2.47-0.4,3.707-0.587c0.245,2.187,0.491,4.374,0.742,6.56
		c0.021,0.176,0.096,0.306,0.227,0.39c0.131,0.083,0.316,0.112,0.561,0.086c0.184-0.02,0.364-0.039,0.549-0.058
		c0.03,0.256,0.055,0.512,0.084,0.768c-1.627,0.168-3.251,0.352-4.877,0.551c-0.034-0.255-0.068-0.51-0.099-0.766
		c0.178-0.021,0.359-0.044,0.54-0.065c0.29-0.035,0.483-0.123,0.589-0.263c0.104-0.14,0.136-0.367,0.097-0.681
		c-0.186-1.489-0.371-2.978-0.55-4.467c-0.032-0.281-0.15-0.487-0.343-0.62c-0.195-0.133-0.446-0.181-0.757-0.144
		c-0.124,0.015-0.249,0.031-0.374,0.045C74.059,138.899,74.026,138.648,73.994,138.399z M75.779,133.673
		c0.406-0.045,0.771,0.046,1.09,0.275c0.32,0.229,0.5,0.532,0.542,0.906c0.039,0.374-0.07,0.707-0.329,1
		c-0.261,0.293-0.591,0.462-0.992,0.508c-0.408,0.046-0.775-0.045-1.094-0.275c-0.323-0.23-0.502-0.528-0.548-0.896
		c-0.046-0.375,0.062-0.708,0.321-1.004C75.029,133.893,75.364,133.721,75.779,133.673z"/>
	<path fill="#FFFFFF" d="M85.246,136.828c0.939-0.075,1.815,0.049,2.628,0.369c0.811,0.32,1.427,0.772,1.845,1.353
		c0.42,0.581,0.652,1.297,0.708,2.146c0.086,1.36-0.333,2.431-1.255,3.222c-0.92,0.792-1.988,1.234-3.213,1.331
		c-0.866,0.07-1.678-0.048-2.433-0.356c-0.755-0.307-1.359-0.756-1.816-1.35c-0.454-0.594-0.726-1.286-0.806-2.078
		c-0.123-1.195,0.223-2.241,1.048-3.132C82.776,137.442,83.878,136.937,85.246,136.828z M85.365,137.61
		c-0.62,0.049-1.092,0.343-1.413,0.878c-0.322,0.536-0.424,1.438-0.306,2.707c0.119,1.316,0.381,2.209,0.781,2.678
		c0.4,0.469,0.9,0.678,1.503,0.63c0.614-0.049,1.088-0.343,1.426-0.884c0.34-0.542,0.459-1.44,0.367-2.7
		c-0.096-1.292-0.352-2.179-0.771-2.661C86.53,137.775,86.002,137.559,85.365,137.61z"/>
	<path fill="#FFFFFF" d="M103.099,143.425c0.001,0.257,0.008,0.514,0.011,0.771c-1.628,0.022-3.256,0.061-4.885,0.113
		c-0.01-0.257-0.018-0.514-0.026-0.771c0.17-0.005,0.342-0.011,0.513-0.016c0.273-0.008,0.473-0.081,0.604-0.217
		c0.128-0.136,0.193-0.333,0.184-0.587c-0.032-1.123-0.062-2.245-0.097-3.368c-0.017-0.576-0.167-1.013-0.458-1.312
		c-0.287-0.299-0.661-0.441-1.117-0.426c-0.621,0.021-1.119,0.256-1.491,0.706c-0.373,0.45-0.538,1.092-0.502,1.927
		c0.037,0.865,0.074,1.729,0.111,2.596c0.011,0.254,0.087,0.445,0.23,0.572c0.144,0.128,0.319,0.187,0.534,0.178
		c0.208-0.008,0.412-0.015,0.619-0.022c0.009,0.257,0.02,0.514,0.029,0.771c-1.691,0.061-3.386,0.139-5.078,0.232
		c-0.013-0.257-0.029-0.514-0.044-0.771c0.221-0.012,0.439-0.024,0.661-0.036c0.255-0.014,0.449-0.09,0.568-0.229
		c0.124-0.139,0.181-0.336,0.166-0.591c-0.081-1.539-0.161-3.078-0.24-4.618c-0.013-0.265-0.124-0.472-0.323-0.619
		c-0.198-0.148-0.46-0.213-0.775-0.196c-0.118,0.006-0.238,0.013-0.356,0.02c-0.015-0.24-0.027-0.481-0.041-0.721
		c1.162-0.123,2.325-0.238,3.491-0.345c0.145,0.47,0.267,1.033,0.358,1.688c0.459-0.634,0.961-1.113,1.502-1.437
		c0.541-0.323,1.119-0.494,1.734-0.512c0.833-0.024,1.499,0.218,1.99,0.722c0.487,0.505,0.735,1.218,0.754,2.136
		c0.023,1.2,0.047,2.4,0.07,3.601c0.004,0.277,0.073,0.475,0.212,0.594c0.14,0.12,0.35,0.177,0.639,0.173
		C102.798,143.429,102.947,143.427,103.099,143.425z"/>
	<path fill="#FFFFFF" d="M112.96,140.41c-1.926-0.045-3.854-0.07-5.78-0.073c0.012,1.089,0.245,1.893,0.687,2.413
		c0.445,0.52,1.007,0.782,1.704,0.79c0.496,0.005,0.971-0.121,1.422-0.379c0.453-0.258,0.918-0.731,1.408-1.418
		c0.211,0.129,0.422,0.258,0.63,0.388c-0.518,0.818-1.093,1.399-1.734,1.746c-0.641,0.345-1.418,0.512-2.331,0.504
		c-1.329-0.011-2.398-0.399-3.229-1.17c-0.827-0.771-1.252-1.76-1.263-2.973c-0.012-1.211,0.4-2.229,1.249-3.045
		c0.848-0.818,1.896-1.224,3.141-1.214c0.86,0.008,1.599,0.18,2.21,0.518c0.613,0.336,1.082,0.824,1.408,1.458
		C112.811,138.59,112.969,139.408,112.96,140.41z M107.182,139.582c0.918,0.002,1.84,0.008,2.757,0.019
		c0.259,0.003,0.444-0.055,0.558-0.176c0.114-0.119,0.174-0.34,0.18-0.662c0.01-0.642-0.14-1.139-0.449-1.496
		c-0.311-0.356-0.707-0.536-1.196-0.541c-0.577-0.005-1.017,0.232-1.326,0.706C107.4,137.907,107.225,138.624,107.182,139.582z"/>
	<path fill="#FFFFFF" d="M120.354,132.235c3.959,0.198,7.922,0.483,11.885,0.854c-0.088,1.409-0.176,2.818-0.27,4.228
		c-0.268-0.025-0.538-0.051-0.806-0.075c-0.021-1.314-0.273-2.244-0.75-2.789c-0.478-0.544-1.265-0.863-2.354-0.949
		c-0.664-0.052-1.325-0.102-1.987-0.148c-0.291-0.021-0.507,0.021-0.648,0.121c-0.141,0.101-0.218,0.254-0.23,0.458
		c-0.096,1.367-0.191,2.733-0.286,4.099c0.239,0.017,0.473,0.033,0.711,0.05c1.414,0.1,2.295-0.616,2.647-2.165
		c0.264,0.021,0.528,0.042,0.792,0.064c-0.16,1.883-0.322,3.766-0.486,5.649c-0.257-0.021-0.518-0.043-0.775-0.063
		c0.028-0.608-0.036-1.095-0.196-1.46c-0.161-0.365-0.397-0.66-0.717-0.884c-0.318-0.224-0.699-0.352-1.133-0.384
		c-0.3-0.021-0.598-0.042-0.896-0.062c-0.104,1.488-0.21,2.976-0.318,4.464c-0.018,0.237,0.037,0.416,0.163,0.535
		c0.18,0.172,0.398,0.27,0.661,0.288c0.406,0.028,0.812,0.059,1.22,0.09c-0.021,0.256-0.041,0.513-0.062,0.769
		c-2.266-0.172-4.534-0.316-6.798-0.43c0.016-0.256,0.026-0.513,0.042-0.77c0.379,0.019,0.762,0.038,1.14,0.059
		c0.268,0.015,0.479-0.042,0.632-0.169c0.152-0.127,0.236-0.293,0.249-0.498c0.189-3.121,0.377-6.242,0.557-9.363
		c0.017-0.238-0.05-0.408-0.193-0.51c-0.142-0.103-0.442-0.167-0.902-0.191c-0.307-0.017-0.616-0.033-0.928-0.048
		C120.328,132.75,120.341,132.493,120.354,132.235z"/>
	<path fill="#FFFFFF" d="M133.822,133.242c3.962,0.394,7.93,0.875,11.896,1.443c-0.158,1.404-0.32,2.807-0.484,4.21
		c-0.269-0.038-0.536-0.076-0.807-0.114c0.047-1.313-0.157-2.255-0.612-2.823c-0.452-0.569-1.229-0.925-2.317-1.065
		c-0.664-0.085-1.328-0.167-1.99-0.248c-0.293-0.035-0.511-0.004-0.658,0.089c-0.145,0.094-0.229,0.244-0.254,0.447
		c-0.166,1.36-0.329,2.72-0.495,4.08c0.239,0.028,0.475,0.056,0.712,0.085c1.416,0.171,2.34-0.5,2.77-2.03
		c0.263,0.035,0.529,0.068,0.793,0.104c-0.255,1.873-0.518,3.746-0.78,5.619c-0.256-0.034-0.517-0.068-0.774-0.102
		c0.061-0.606,0.018-1.096-0.122-1.468c-0.143-0.373-0.366-0.68-0.674-0.919c-0.311-0.24-0.684-0.386-1.12-0.439
		c-0.299-0.036-0.597-0.071-0.896-0.107c-0.18,1.481-0.363,2.962-0.551,4.443c-0.03,0.235,0.017,0.417,0.135,0.542
		c0.171,0.181,0.388,0.289,0.65,0.32c0.406,0.05,0.811,0.1,1.219,0.151c-0.035,0.255-0.07,0.511-0.104,0.766
		c-2.266-0.286-4.532-0.542-6.798-0.767c0.026-0.255,0.056-0.512,0.082-0.768c0.38,0.038,0.76,0.077,1.141,0.117
		c0.269,0.027,0.479-0.019,0.643-0.138c0.162-0.12,0.252-0.28,0.274-0.484c0.354-3.108,0.702-6.216,1.039-9.324
		c0.027-0.237-0.03-0.41-0.167-0.519c-0.136-0.11-0.437-0.189-0.897-0.236c-0.308-0.032-0.62-0.063-0.927-0.095
		C133.772,133.755,133.797,133.499,133.822,133.242z"/>
	<path fill="#FFFFFF" d="M147.489,144.76c0.411,0.064,0.736,0.256,0.979,0.576c0.24,0.319,0.328,0.671,0.262,1.053
		c-0.068,0.388-0.267,0.694-0.603,0.922c-0.332,0.227-0.699,0.309-1.107,0.246c-0.397-0.062-0.717-0.252-0.962-0.569
		c-0.243-0.316-0.332-0.668-0.269-1.057c0.062-0.384,0.259-0.69,0.592-0.918C146.713,144.781,147.086,144.697,147.489,144.76z"/>
	<path fill="#FFFFFF" d="M160.705,138.213c0.357-0.302,0.717-0.603,1.074-0.903c0.217,0.043,0.43,0.088,0.647,0.132
		c-0.267,1.39-0.538,2.78-0.812,4.169c-0.268-0.056-0.54-0.11-0.809-0.166c-0.165-1.278-0.58-2.291-1.238-3.039
		c-0.661-0.746-1.47-1.21-2.417-1.386c-0.808-0.15-1.503-0.072-2.083,0.232c-0.578,0.304-0.917,0.732-1.016,1.281
		c-0.061,0.328-0.014,0.644,0.13,0.951c0.15,0.307,0.423,0.596,0.826,0.869c0.402,0.272,1.137,0.61,2.193,1.024
		c1.232,0.486,2.075,0.882,2.522,1.175c0.708,0.469,1.202,1.004,1.474,1.601c0.272,0.596,0.325,1.267,0.156,2.007
		c-0.251,1.109-0.862,1.907-1.832,2.4c-1.167,0.595-2.466,0.75-3.92,0.475c-1.335-0.253-2.468-0.912-3.413-1.983
		c-0.414,0.337-0.83,0.677-1.242,1.018c-0.214-0.037-0.426-0.073-0.643-0.108c0.275-1.495,0.547-2.989,0.813-4.483
		c0.261,0.043,0.52,0.087,0.778,0.131c0.306,2.69,1.599,4.23,3.92,4.67c0.951,0.18,1.734,0.12,2.351-0.183
		c0.618-0.305,0.993-0.76,1.13-1.373c0.093-0.429,0.053-0.811-0.121-1.148c-0.171-0.336-0.487-0.643-0.944-0.918
		c-0.25-0.15-0.89-0.438-1.923-0.852c-1.391-0.564-2.365-1.051-2.928-1.473c-0.561-0.422-0.947-0.886-1.158-1.389
		c-0.21-0.505-0.263-1.084-0.145-1.739c0.192-1.101,0.758-1.931,1.706-2.483c0.945-0.552,2.122-0.704,3.51-0.445
		C158.628,136.526,159.773,137.174,160.705,138.213z"/>
	<path fill="#FFFFFF" d="M173.147,140.984c0.376-0.286,0.755-0.569,1.13-0.852c0.216,0.053,0.434,0.107,0.649,0.162
		c-0.336,1.376-0.677,2.753-1.021,4.128c-0.271-0.067-0.541-0.136-0.811-0.203c-0.105-1.285-0.474-2.317-1.106-3.096
		c-0.629-0.777-1.429-1.278-2.376-1.499c-0.81-0.188-1.516-0.142-2.115,0.134c-0.597,0.277-0.96,0.688-1.089,1.233
		c-0.075,0.324-0.046,0.642,0.088,0.957c0.134,0.313,0.399,0.615,0.792,0.907c0.394,0.291,1.117,0.663,2.167,1.127
		c1.22,0.544,2.053,0.979,2.491,1.292c0.693,0.503,1.165,1.06,1.411,1.669c0.246,0.61,0.264,1.281,0.058,2.014
		c-0.309,1.097-0.969,1.866-1.971,2.313c-1.208,0.54-2.531,0.633-3.984,0.29c-1.336-0.316-2.445-1.027-3.346-2.142
		c-0.439,0.318-0.869,0.638-1.306,0.958c-0.213-0.047-0.428-0.093-0.641-0.139c0.349-1.481,0.696-2.961,1.04-4.442
		c0.26,0.055,0.519,0.112,0.779,0.168c0.178,2.702,1.404,4.302,3.728,4.851c0.953,0.226,1.742,0.203,2.383-0.072
		s1.043-0.713,1.208-1.318c0.116-0.424,0.097-0.809-0.062-1.153c-0.158-0.345-0.463-0.666-0.91-0.963
		c-0.246-0.162-0.877-0.479-1.9-0.941c-1.373-0.629-2.339-1.162-2.884-1.61c-0.548-0.448-0.915-0.929-1.103-1.442
		c-0.19-0.515-0.211-1.096-0.061-1.745c0.248-1.091,0.855-1.894,1.84-2.401c0.981-0.507,2.176-0.604,3.567-0.281
		C171.13,139.2,172.256,139.901,173.147,140.984z"/>
	<path fill="#FFFFFF" d="M176.492,150.91c0.411,0.111,0.72,0.339,0.93,0.686c0.209,0.345,0.257,0.704,0.141,1.077
		c-0.114,0.377-0.359,0.66-0.727,0.847c-0.37,0.188-0.756,0.227-1.161,0.118c-0.399-0.107-0.702-0.332-0.911-0.675
		c-0.207-0.343-0.255-0.704-0.146-1.083c0.109-0.374,0.347-0.657,0.716-0.846C175.7,150.843,176.088,150.802,176.492,150.91z"/>
</g>
</svg>
