<?xml version="1.0" encoding="utf-8"?>
<!-- Generator: Adobe Illustrator 16.0.4, SVG Export Plug-In . SVG Version: 6.00 Build 0)  -->
<!DOCTYPE svg PUBLIC "-//W3C//DTD SVG 1.1//EN" "http://www.w3.org/Graphics/SVG/1.1/DTD/svg11.dtd">
<svg version="1.1" id="Livello_1" xmlns="http://www.w3.org/2000/svg" xmlns:xlink="http://www.w3.org/1999/xlink" x="0px" y="0px"
	 width="210px" height="200px" viewBox="0 0 210 200" enable-background="new 0 0 210 200" xml:space="preserve">
<g>
	<g>
		<circle fill="#FBC02E" cx="105" cy="100" r="84"/>
		<circle fill="#FABF2D" cx="105" cy="100" r="75.216"/>
		<path fill="#FFFFFF" d="M104.999,177.717c-42.852,0-77.715-34.864-77.715-77.717c0-42.854,34.863-77.717,77.715-77.717
			c42.854,0,77.717,34.863,77.717,77.717C182.716,142.853,147.853,177.717,104.999,177.717z M104.999,27.283
			c-40.095,0-72.715,32.62-72.715,72.717c0,40.096,32.62,72.717,72.715,72.717c40.097,0,72.717-32.621,72.717-72.717
			C177.716,59.903,145.096,27.283,104.999,27.283z"/>
		<path fill="#FFFFFF" d="M100.554,115.299H83.5l0.474-43.506c-0.551-4.04-3.01-6.182-6.093-6.182c-2.601,0-4.729,1.54-5.668,4.439
			L71.5,115.299H51.907h-0.036c-3.244,0-6.13,2.607-6.13,6.072s2.431,6.689,5.675,6.689c0.036,0,0.055,0.002,0.084,0.003v0.235
			h19.483H83.53h17.023c3.381,0,5.62-3.533,5.62-6.907C106.174,118.019,103.935,116.299,100.554,115.299z M51.517,128.063
			C52.047,128.081,51.593,128.215,51.517,128.063L51.517,128.063z"/>
		<g>
			<path fill="#FFFFFF" d="M142.847,86.046c-4.127-0.584-8.157-0.06-11.805,1.34l-5.002-10.106l5.697-14.444l-13.122-1.856
				c0,0-4.513,2.896-0.646,4.569c2.888,0.409,7.321,1.035,7.321,1.035l-2.617,6.617l-31.189-4.41l3.893-9.546
				c0,0,4.04,0.354,8.083,1.144c3.159-2.052,0.647-4.571,0.647-4.571l-21.338-3.018c0,0-3.324,1.685-0.646,4.572
				c4.672,0.662,8.547,1.209,8.547,1.209l-6.043,14.824l-0.135,12.552c0.515-1.266,0.843-2.071,0.843-2.071
				c6.745,3.763,10.848,11.399,9.703,19.49c-0.633,4.478-2.778,8.369-5.834,11.256l6.121,0.011c2.209-3.045,3.731-6.652,4.293-10.63
				c1.447-10.223-3.878-19.858-12.533-24.421l2.892-7.094l19.762,33.538c0,0,0.828,1.862,2.876,2.151
				c2.043,0.289,3.078,0.435,3.078,0.435c-0.535,12.113,8.229,22.908,20.479,24.642c13.021,1.841,25.108-7.251,26.951-20.272
				C164.961,99.977,155.867,87.888,142.847,86.046z M135.506,106.751l-14.559-2.057c1.243-4.677,4.18-8.56,8.029-11.092
				L135.506,106.751z M111.874,100.562L96.301,74.126l24.637,3.484L111.874,100.562z M115.501,103.931l8.251-20.877l3.156,6.381
				c-5.156,3.221-9.066,8.376-10.571,14.615L115.501,103.931z M158.555,112.346c-1.483,10.492-11.229,17.832-21.731,16.349
				c-9.735-1.377-16.72-9.842-16.523-19.421c0,0,15.174,2.146,19.176,2.711c3.999,0.566,3.088-1.368,3.088-1.368l-9.456-19.076
				c2.828-1.008,5.933-1.374,9.1-0.928C152.711,92.099,160.039,101.853,158.555,112.346z"/>
			<path fill="#FFFFFF" d="M62.801,114.623c-4.361-4.143-6.743-10.248-5.84-16.644c1.127-7.966,7.024-14.097,14.387-15.943
				l0.075-4.759c-9.683,1.903-17.571,9.747-19.029,20.056c-0.897,6.346,0.81,12.466,4.296,17.29H62.801z"/>
		</g>
	</g>
	<path fill="#FDD835" d="M195.044,168.142c-2.571-5.81-5.42-11.587-8.546-17.312c5.997-2.563,12.202-4.905,18.603-7.004
		c-64.112-26.519-136.188-26.351-200.2,0.503c0.039,0.095,0.079,0.188,0.118,0.283c6.606,2.131,13.005,4.522,19.184,7.149
		c-2.928,5.42-5.607,10.887-8.038,16.382C73.434,144.454,137.773,144.453,195.044,168.142L195.044,168.142L195.044,168.142z"/>
	<path fill="#FFFFFF" d="M12.101,170.961l1.515-3.425c2.23-5.043,4.687-10.092,7.31-15.03c-5.702-2.375-11.596-4.547-17.544-6.466
		l-0.655-0.212l-0.967-2.302l1.384-0.58c32.241-13.525,66.318-20.384,101.284-20.384c34.513,0,68.182,6.688,100.069,19.878
		l3.745,1.549l-3.851,1.263c-5.744,1.883-11.443,4.005-16.965,6.316c2.815,5.241,5.439,10.604,7.812,15.966l1.516,3.425
		l-3.461-1.432c-28.317-11.713-58.216-17.651-88.863-17.651c-30.65,0-60.55,5.939-88.869,17.653L12.101,170.961z M7.707,144.312
		c5.4,1.835,10.736,3.871,15.904,6.069l1.516,0.645l-0.782,1.448c-2.283,4.226-4.444,8.542-6.446,12.873
		c27.648-10.932,56.74-16.472,86.531-16.472c29.789,0,58.878,5.539,86.525,16.47c-2.148-4.645-4.479-9.271-6.951-13.796l-0.791-1.45
		l1.519-0.648c4.844-2.071,9.833-3.999,14.879-5.752c-30.412-12.038-62.411-18.137-95.184-18.137
		C71.089,125.562,38.569,131.868,7.707,144.312z"/>
	<g>
		<path fill="#FFFFFF" d="M41.041,140.369c2.335-0.656,4.671-1.275,7.004-1.858c1.185-0.296,2.212-0.247,3.071,0.142
			c0.859,0.39,1.386,0.994,1.587,1.806c0.153,0.618,0.082,1.206-0.21,1.765c-0.291,0.559-0.751,1.026-1.38,1.4
			c-0.628,0.375-1.278,0.646-1.947,0.816c-0.718,0.181-1.436,0.366-2.154,0.554c0.326,1.136,0.653,2.272,0.984,3.407
			c0.055,0.189,0.158,0.32,0.307,0.393c0.147,0.072,0.314,0.083,0.499,0.036c0.436-0.113,0.872-0.225,1.307-0.336
			c0.062,0.219,0.124,0.439,0.186,0.659c-2.013,0.512-4.027,1.051-6.041,1.62c-0.069-0.218-0.137-0.436-0.207-0.654
			c0.339-0.096,0.677-0.19,1.015-0.284c0.226-0.062,0.381-0.161,0.465-0.296c0.084-0.134,0.097-0.296,0.04-0.485
			c-0.808-2.646-1.6-5.295-2.376-7.945c-0.052-0.179-0.155-0.303-0.309-0.373c-0.155-0.069-0.32-0.08-0.497-0.031
			c-0.382,0.105-0.765,0.211-1.146,0.319C41.172,140.805,41.106,140.587,41.041,140.369z M46.828,144.35
			c0.48-0.126,0.961-0.25,1.443-0.374c0.504-0.129,0.924-0.338,1.265-0.631c0.339-0.291,0.557-0.595,0.649-0.914
			c0.093-0.317,0.058-0.787-0.104-1.407c-0.223-0.853-0.638-1.392-1.249-1.614c-0.448-0.156-1.13-0.12-2.051,0.117
			c-0.531,0.135-0.857,0.263-0.979,0.377c-0.12,0.116-0.155,0.268-0.102,0.457C46.072,141.69,46.448,143.02,46.828,144.35z"/>
		<path fill="#FFFFFF" d="M54.426,141.087c1.089-0.293,2.179-0.58,3.269-0.857c0.425,1.897,0.857,3.794,1.296,5.69
			c0.035,0.153,0.115,0.26,0.24,0.321c0.124,0.062,0.294,0.069,0.51,0.023c0.162-0.034,0.323-0.068,0.484-0.101
			c0.05,0.222,0.101,0.444,0.151,0.667c-1.437,0.297-2.873,0.609-4.309,0.935c-0.055-0.221-0.11-0.442-0.166-0.664
			c0.16-0.036,0.318-0.072,0.477-0.108c0.257-0.057,0.424-0.151,0.503-0.285c0.078-0.132,0.083-0.334,0.019-0.605
			c-0.312-1.29-0.621-2.582-0.926-3.872c-0.058-0.243-0.179-0.414-0.367-0.514c-0.186-0.098-0.417-0.118-0.691-0.056
			c-0.11,0.024-0.221,0.049-0.331,0.074C54.53,141.52,54.478,141.304,54.426,141.087z M55.581,136.773
			c0.361-0.078,0.697-0.031,1.005,0.14c0.309,0.172,0.499,0.422,0.57,0.745c0.072,0.326,0.004,0.628-0.201,0.91
			c-0.205,0.28-0.485,0.46-0.843,0.538c-0.362,0.078-0.698,0.032-1.006-0.141c-0.31-0.172-0.502-0.417-0.577-0.736
			c-0.076-0.323-0.012-0.626,0.194-0.911C54.928,137.035,55.214,136.853,55.581,136.773z"/>
		<path fill="#FFFFFF" d="M69.874,144.211c0.138,0.156,0.276,0.312,0.414,0.468c-0.277,0.252-0.533,0.438-0.766,0.556
			c-0.234,0.117-0.499,0.202-0.795,0.251c-0.439,0.075-0.81,0.048-1.114-0.081c-0.304-0.127-0.614-0.415-0.933-0.86
			c-0.432,0.578-0.833,0.993-1.214,1.244c-0.379,0.251-0.827,0.425-1.349,0.524c-0.72,0.136-1.314,0.09-1.786-0.14
			c-0.472-0.231-0.76-0.584-0.864-1.063c-0.158-0.722,0.093-1.376,0.76-1.96c0.537-0.463,1.8-1.068,3.802-1.781
			c-0.062-0.324-0.123-0.649-0.183-0.973c-0.072-0.384-0.27-0.673-0.595-0.866c-0.325-0.193-0.723-0.247-1.191-0.161
			c-0.36,0.066-0.663,0.195-0.908,0.384c-0.167,0.127-0.242,0.236-0.223,0.327c0.01,0.048,0.058,0.114,0.145,0.195
			c0.191,0.189,0.307,0.389,0.349,0.599c0.055,0.269,0,0.503-0.159,0.706c-0.16,0.202-0.402,0.335-0.726,0.396
			c-0.344,0.067-0.64,0.031-0.886-0.108c-0.248-0.138-0.399-0.348-0.459-0.632c-0.098-0.462,0.091-0.927,0.573-1.389
			c0.6-0.575,1.421-0.96,2.453-1.148c0.778-0.142,1.49-0.153,2.133-0.036c0.409,0.073,0.767,0.264,1.068,0.572
			c0.302,0.309,0.498,0.718,0.588,1.228c0.203,1.144,0.407,2.287,0.614,3.43c0.047,0.26,0.131,0.438,0.255,0.537
			c0.123,0.099,0.274,0.132,0.454,0.103C69.477,144.506,69.659,144.4,69.874,144.211z M66.146,141.996
			c-1.088,0.336-1.798,0.691-2.13,1.055c-0.334,0.363-0.452,0.783-0.354,1.257c0.068,0.335,0.213,0.576,0.433,0.721
			c0.219,0.146,0.492,0.187,0.821,0.126c0.509-0.095,0.896-0.341,1.167-0.742s0.351-0.897,0.239-1.488
			C66.263,142.615,66.205,142.305,66.146,141.996z"/>
		<path fill="#FFFFFF" d="M70.85,137.971c2.137-0.327,4.272-0.625,6.408-0.892c0.029,0.221,0.057,0.441,0.086,0.661
			c-1.231,2.005-2.422,4.02-3.571,6.043c0.675-0.097,1.348-0.192,2.022-0.284c0.439-0.06,0.781-0.256,1.029-0.594
			c0.249-0.338,0.389-0.896,0.426-1.673c0.23-0.03,0.461-0.059,0.691-0.088c0.07,0.912,0.142,1.824,0.215,2.735
			c-2.234,0.28-4.467,0.594-6.702,0.942c-0.038-0.224-0.075-0.449-0.112-0.673c1.123-2.035,2.29-4.062,3.497-6.081
			c-0.58,0.079-1.16,0.16-1.74,0.244c-0.405,0.058-0.719,0.245-0.944,0.558c-0.224,0.314-0.344,0.817-0.357,1.509
			c-0.231,0.035-0.464,0.07-0.696,0.105C71.018,139.646,70.933,138.809,70.85,137.971z"/>
		<path fill="#FFFFFF" d="M79.562,136.803c2.136-0.246,4.271-0.461,6.405-0.646c0.02,0.221,0.04,0.442,0.06,0.663
			c-1.304,1.957-2.569,3.924-3.792,5.901c0.674-0.072,1.348-0.14,2.022-0.206c0.438-0.042,0.787-0.226,1.047-0.554
			c0.26-0.328,0.421-0.88,0.489-1.656c0.231-0.021,0.462-0.041,0.693-0.061c0.033,0.914,0.067,1.827,0.103,2.741
			c-2.234,0.194-4.468,0.423-6.701,0.685c-0.029-0.226-0.057-0.451-0.085-0.676c1.2-1.991,2.44-3.972,3.72-5.943
			c-0.581,0.057-1.16,0.116-1.74,0.178c-0.404,0.042-0.725,0.218-0.959,0.522c-0.236,0.305-0.374,0.802-0.415,1.493
			c-0.232,0.026-0.464,0.053-0.696,0.08C79.662,138.482,79.612,137.643,79.562,136.803z"/>
		<path fill="#FFFFFF" d="M96.443,141.499c0.115,0.171,0.231,0.341,0.346,0.513c-0.303,0.217-0.577,0.371-0.82,0.459
			c-0.245,0.089-0.515,0.141-0.811,0.155c-0.44,0.021-0.799-0.049-1.08-0.213c-0.281-0.163-0.548-0.485-0.804-0.964
			c-0.494,0.522-0.94,0.886-1.343,1.088c-0.402,0.205-0.862,0.324-1.383,0.36c-0.72,0.049-1.294-0.066-1.724-0.351
			c-0.43-0.286-0.667-0.671-0.707-1.158c-0.063-0.734,0.263-1.354,0.987-1.854c0.581-0.395,1.887-0.846,3.932-1.314
			c-0.02-0.33-0.038-0.658-0.058-0.987c-0.022-0.39-0.18-0.7-0.474-0.93c-0.294-0.23-0.676-0.331-1.144-0.301
			c-0.359,0.022-0.671,0.114-0.934,0.273c-0.179,0.105-0.264,0.205-0.258,0.297c0.003,0.049,0.043,0.12,0.118,0.212
			c0.163,0.21,0.251,0.421,0.266,0.635c0.019,0.273-0.062,0.5-0.244,0.681c-0.18,0.181-0.433,0.284-0.757,0.307
			c-0.344,0.025-0.627-0.046-0.85-0.214c-0.225-0.166-0.346-0.392-0.37-0.681c-0.037-0.471,0.204-0.909,0.73-1.31
			c0.658-0.499,1.504-0.783,2.535-0.847c0.777-0.049,1.476,0.025,2.089,0.217c0.392,0.121,0.718,0.353,0.974,0.694
			c0.257,0.343,0.399,0.772,0.424,1.289c0.057,1.158,0.114,2.317,0.172,3.475c0.013,0.264,0.073,0.45,0.182,0.563
			c0.108,0.112,0.252,0.164,0.432,0.155C96.017,141.744,96.208,141.66,96.443,141.499z M93.074,138.857
			c-1.105,0.204-1.842,0.471-2.212,0.792c-0.372,0.32-0.538,0.723-0.503,1.205c0.025,0.341,0.135,0.597,0.331,0.767
			c0.195,0.171,0.457,0.244,0.785,0.223c0.509-0.032,0.918-0.231,1.233-0.597c0.315-0.366,0.457-0.848,0.421-1.448
			C93.111,139.485,93.092,139.171,93.074,138.857z"/>
		<path fill="#FFFFFF" d="M101.156,131.365c1.944-0.039,3.888-0.054,5.832-0.044c-0.001,0.227-0.002,0.454-0.003,0.681
			c-0.211-0.001-0.423-0.002-0.634-0.002c-0.435-0.001-0.722,0.039-0.864,0.117c-0.142,0.078-0.212,0.181-0.212,0.308
			c0,0.117,0.061,0.312,0.18,0.586c0.993,2.186,1.958,4.378,2.892,6.576c0.809-1.859,1.638-3.714,2.486-5.563
			c0.17-0.372,0.259-0.72,0.266-1.042c0.007-0.302-0.085-0.534-0.281-0.694c-0.194-0.161-0.492-0.245-0.894-0.252
			c-0.18-0.003-0.359-0.006-0.538-0.009c0.003-0.227,0.007-0.454,0.01-0.682c1.535,0.024,3.072,0.063,4.608,0.117
			c-0.008,0.227-0.016,0.454-0.024,0.68c-0.115-0.004-0.23-0.008-0.345-0.012c-0.294-0.01-0.561,0.075-0.8,0.253
			c-0.237,0.178-0.471,0.504-0.697,0.977c-1.424,3-2.796,6.012-4.114,9.036c-0.305-0.003-0.61-0.005-0.916-0.007
			c-1.361-3.198-2.788-6.385-4.273-9.556c-0.147-0.326-0.317-0.542-0.506-0.646c-0.189-0.105-0.493-0.154-0.91-0.146
			c-0.083,0.002-0.166,0.003-0.249,0.005C101.165,131.818,101.161,131.592,101.156,131.365z"/>
		<path fill="#FFFFFF" d="M121.918,139.34c-1.704-0.122-3.409-0.224-5.113-0.307c-0.031,0.962,0.137,1.68,0.504,2.156
			s0.857,0.731,1.471,0.766c0.44,0.026,0.865-0.065,1.275-0.274c0.411-0.209,0.846-0.606,1.308-1.19
			c0.181,0.122,0.362,0.246,0.542,0.369c-0.494,0.699-1.031,1.187-1.614,1.464c-0.583,0.278-1.276,0.393-2.083,0.348
			c-1.174-0.065-2.105-0.451-2.804-1.166c-0.697-0.714-1.03-1.604-0.987-2.671c0.042-1.07,0.45-1.949,1.234-2.635
			c0.785-0.683,1.732-0.999,2.833-0.938c0.761,0.042,1.408,0.227,1.935,0.548c0.528,0.323,0.922,0.772,1.185,1.345
			C121.865,137.729,121.972,138.458,121.918,139.34z M116.84,138.367c0.814,0.04,1.627,0.083,2.441,0.132
			c0.229,0.013,0.396-0.029,0.502-0.13c0.106-0.101,0.169-0.293,0.187-0.576c0.037-0.565-0.074-1.011-0.333-1.338
			c-0.258-0.326-0.604-0.502-1.036-0.526c-0.511-0.028-0.913,0.161-1.205,0.567C117.104,136.901,116.919,137.526,116.84,138.367z"/>
		<path fill="#FFFFFF" d="M132.916,143.118c-0.03,0.225-0.06,0.45-0.089,0.676c-1.439-0.176-2.88-0.337-4.32-0.484
			c0.025-0.226,0.049-0.452,0.075-0.678c0.152,0.016,0.303,0.032,0.455,0.047c0.241,0.025,0.427-0.014,0.559-0.118
			c0.131-0.104,0.21-0.267,0.236-0.49c0.113-0.985,0.225-1.972,0.337-2.958c0.057-0.503-0.023-0.904-0.241-1.2
			c-0.219-0.295-0.53-0.464-0.933-0.505c-0.551-0.056-1.018,0.091-1.399,0.44c-0.383,0.348-0.609,0.891-0.682,1.625
			c-0.075,0.761-0.151,1.522-0.226,2.283c-0.022,0.223,0.021,0.398,0.13,0.526c0.109,0.128,0.258,0.201,0.448,0.22
			c0.182,0.018,0.364,0.035,0.546,0.053c-0.023,0.226-0.048,0.452-0.072,0.678c-1.495-0.147-2.992-0.28-4.487-0.398
			c0.02-0.226,0.038-0.453,0.057-0.68c0.196,0.015,0.39,0.031,0.584,0.047c0.226,0.018,0.401-0.026,0.528-0.134
			c0.126-0.107,0.198-0.271,0.218-0.495c0.122-1.355,0.242-2.71,0.361-4.065c0.021-0.233-0.049-0.427-0.207-0.58
			c-0.16-0.153-0.378-0.241-0.657-0.264c-0.105-0.009-0.211-0.017-0.316-0.025c0.018-0.211,0.034-0.423,0.052-0.635
			c1.037,0.031,2.073,0.068,3.111,0.111c0.071,0.429,0.108,0.935,0.109,1.519c0.481-0.5,0.981-0.858,1.5-1.077
			c0.516-0.219,1.048-0.3,1.591-0.242c0.738,0.079,1.296,0.37,1.668,0.87c0.368,0.499,0.5,1.152,0.401,1.957
			c-0.129,1.052-0.26,2.105-0.392,3.157c-0.03,0.243,0.006,0.423,0.113,0.544c0.104,0.121,0.284,0.195,0.541,0.226
			C132.649,143.086,132.782,143.102,132.916,143.118z"/>
		<path fill="#FFFFFF" d="M142.033,141.678c-1.706-0.275-3.413-0.531-5.118-0.767c-0.123,0.955-0.022,1.685,0.302,2.193
			c0.324,0.507,0.793,0.805,1.407,0.896c0.44,0.065,0.876,0.013,1.31-0.159c0.434-0.17,0.91-0.526,1.432-1.067
			c0.171,0.138,0.341,0.277,0.51,0.417c-0.564,0.651-1.153,1.089-1.766,1.312c-0.613,0.225-1.322,0.276-2.13,0.158
			c-1.175-0.171-2.074-0.638-2.707-1.413c-0.633-0.773-0.882-1.69-0.74-2.75c0.144-1.062,0.634-1.899,1.487-2.512
			c0.852-0.611,1.834-0.839,2.936-0.681c0.762,0.11,1.396,0.352,1.897,0.72c0.501,0.37,0.856,0.852,1.068,1.447
			C142.131,140.068,142.169,140.803,142.033,141.678z M137.012,140.251c0.814,0.112,1.629,0.229,2.444,0.351
			c0.229,0.034,0.401,0.007,0.518-0.084c0.115-0.091,0.196-0.277,0.242-0.557c0.089-0.56,0.02-1.014-0.209-1.363
			c-0.23-0.348-0.563-0.554-0.995-0.617c-0.511-0.075-0.933,0.078-1.265,0.456C137.415,138.815,137.17,139.42,137.012,140.251z"/>
		<path fill="#FFFFFF" d="M144.887,138.629c2.14,0.366,4.279,0.762,6.42,1.189c-0.046,0.218-0.092,0.435-0.139,0.653
			c-1.854,1.505-3.675,3.032-5.461,4.579c0.675,0.122,1.35,0.246,2.025,0.374c0.439,0.083,0.835,0.006,1.187-0.234
			c0.354-0.24,0.679-0.723,0.98-1.447c0.231,0.045,0.462,0.092,0.693,0.138c-0.244,0.885-0.488,1.769-0.733,2.654
			c-2.237-0.448-4.474-0.86-6.71-1.239c0.041-0.224,0.083-0.448,0.124-0.672c1.762-1.567,3.557-3.114,5.386-4.641
			c-0.582-0.109-1.163-0.217-1.744-0.322c-0.405-0.073-0.768,0.005-1.086,0.229c-0.318,0.226-0.601,0.664-0.844,1.314
			c-0.233-0.041-0.464-0.081-0.697-0.121C144.488,140.266,144.688,139.447,144.887,138.629z"/>
		<path fill="#FFFFFF" d="M153.118,140.187c1.111,0.183,2.223,0.375,3.336,0.574c-0.449,1.894-0.907,3.786-1.369,5.677
			c-0.038,0.152-0.013,0.282,0.072,0.389c0.084,0.107,0.236,0.184,0.451,0.233c0.162,0.036,0.324,0.073,0.485,0.109
			c-0.055,0.221-0.111,0.442-0.167,0.664c-1.438-0.329-2.876-0.642-4.315-0.941c0.052-0.223,0.102-0.445,0.153-0.667
			c0.159,0.033,0.319,0.067,0.477,0.1c0.257,0.054,0.45,0.038,0.582-0.049c0.131-0.087,0.228-0.268,0.291-0.54
			c0.302-1.292,0.601-2.584,0.897-3.877c0.056-0.244,0.022-0.448-0.104-0.615c-0.125-0.167-0.326-0.279-0.6-0.337
			c-0.111-0.023-0.221-0.046-0.332-0.069C153.022,140.621,153.07,140.404,153.118,140.187z M156.042,136.757
			c0.361,0.078,0.646,0.26,0.853,0.542c0.206,0.285,0.271,0.588,0.195,0.911c-0.076,0.325-0.27,0.57-0.578,0.741
			c-0.309,0.169-0.644,0.215-1,0.138c-0.363-0.078-0.646-0.259-0.851-0.542c-0.206-0.284-0.273-0.584-0.202-0.905
			c0.072-0.324,0.261-0.573,0.57-0.746C155.337,136.724,155.675,136.677,156.042,136.757z"/>
		<path fill="#FFFFFF" d="M165.836,149.437c0.056,0.199,0.112,0.398,0.167,0.597c-0.373,0.111-0.696,0.171-0.966,0.179
			c-0.272,0.008-0.556-0.028-0.852-0.107c-0.438-0.117-0.77-0.296-0.99-0.54c-0.222-0.242-0.375-0.631-0.465-1.166
			c-0.662,0.34-1.223,0.546-1.687,0.613c-0.462,0.069-0.954,0.038-1.476-0.09c-0.721-0.177-1.242-0.466-1.565-0.87
			c-0.324-0.404-0.425-0.844-0.302-1.318c0.184-0.716,0.709-1.204,1.582-1.453c0.699-0.194,2.127-0.217,4.294-0.023
			c0.09-0.319,0.18-0.638,0.269-0.957c0.106-0.377,0.053-0.722-0.161-1.031c-0.214-0.311-0.557-0.525-1.027-0.643
			c-0.361-0.091-0.696-0.1-1.007-0.031c-0.211,0.044-0.326,0.112-0.349,0.202c-0.013,0.047,0.001,0.127,0.045,0.237
			c0.091,0.25,0.108,0.479,0.053,0.688c-0.071,0.265-0.225,0.455-0.463,0.571c-0.238,0.115-0.52,0.134-0.843,0.055
			c-0.345-0.083-0.6-0.238-0.762-0.466c-0.164-0.228-0.209-0.481-0.137-0.762c0.117-0.459,0.497-0.801,1.143-1.019
			c0.806-0.27,1.729-0.277,2.765-0.016c0.78,0.196,1.444,0.483,1.987,0.858c0.347,0.238,0.593,0.56,0.734,0.965
			c0.142,0.406,0.139,0.858-0.007,1.357c-0.329,1.118-0.66,2.236-0.994,3.354c-0.075,0.254-0.08,0.45-0.01,0.591
			c0.068,0.141,0.192,0.235,0.373,0.284C165.333,149.537,165.549,149.517,165.836,149.437z M163.402,145.874
			c-1.155-0.151-1.967-0.127-2.437,0.063c-0.471,0.188-0.768,0.519-0.895,0.987c-0.089,0.332-0.066,0.608,0.068,0.831
			c0.134,0.222,0.365,0.374,0.694,0.456c0.509,0.127,0.978,0.067,1.412-0.182c0.432-0.249,0.733-0.663,0.899-1.243
			C163.229,146.482,163.315,146.179,163.402,145.874z"/>
	</g>
</g>
</svg>
