<?xml version="1.0" encoding="utf-8"?>
<!-- Generator: Adobe Illustrator 16.0.4, SVG Export Plug-In . SVG Version: 6.00 Build 0)  -->
<!DOCTYPE svg PUBLIC "-//W3C//DTD SVG 1.1//EN" "http://www.w3.org/Graphics/SVG/1.1/DTD/svg11.dtd">
<svg version="1.1" id="Livello_1" xmlns="http://www.w3.org/2000/svg" xmlns:xlink="http://www.w3.org/1999/xlink" x="0px" y="0px"
	 width="210px" height="200px" viewBox="0 0 210 200" enable-background="new 0 0 210 200" xml:space="preserve">
<g>
	<circle fill="#FBC02E" cx="105" cy="100" r="84"/>
	<circle fill="#FABF2D" cx="105" cy="100" r="75.216"/>
	<path fill="#FFFFFF" d="M104.999,177.717c-42.853,0-77.715-34.864-77.715-77.717s34.862-77.717,77.715-77.717
		S182.716,57.147,182.716,100S147.852,177.717,104.999,177.717z M104.999,27.283c-40.095,0-72.715,32.621-72.715,72.717
		s32.62,72.717,72.715,72.717c40.097,0,72.717-32.621,72.717-72.717S145.096,27.283,104.999,27.283z"/>
	<path fill="#FFFFFF" d="M100.554,115.299H83.5l0.474-43.506c-0.551-4.04-3.011-6.182-6.093-6.182c-2.601,0-4.729,1.54-5.668,4.439
		L71.5,115.299H51.906h-0.035c-3.244,0-6.13,2.607-6.13,6.072c0,3.465,2.431,6.689,5.675,6.689c0.036,0,0.055,0.002,0.084,0.003
		v0.236h19.483H83.53h17.023c3.381,0,5.62-3.534,5.62-6.908C106.174,118.019,103.935,116.299,100.554,115.299z M51.516,128.064
		C52.047,128.082,51.592,128.215,51.516,128.064L51.516,128.064z"/>
	<g>
		<path fill="#FFFFFF" d="M142.847,86.046c-4.127-0.584-8.157-0.06-11.806,1.339l-5.002-10.106l5.697-14.445l-13.121-1.856
			c0,0-4.514,2.895-0.646,4.569c2.888,0.409,7.321,1.035,7.321,1.035l-2.617,6.618l-31.19-4.41l3.894-9.546
			c0,0,4.04,0.353,8.083,1.144c3.158-2.052,0.647-4.572,0.647-4.572l-21.339-3.017c0,0-3.323,1.685-0.646,4.572
			c4.673,0.662,8.547,1.209,8.547,1.209l-6.043,14.824L84.49,85.956c0.516-1.266,0.844-2.071,0.844-2.071
			c6.745,3.762,10.848,11.399,9.703,19.49c-0.633,4.477-2.778,8.369-5.834,11.256l6.121,0.01c2.209-3.044,3.73-6.652,4.293-10.629
			c1.447-10.223-3.878-19.858-12.533-24.421l2.891-7.094l19.763,33.538c0,0,0.828,1.862,2.876,2.151
			c2.043,0.289,3.078,0.435,3.078,0.435c-0.535,12.113,8.229,22.908,20.479,24.642c13.02,1.841,25.108-7.251,26.951-20.272
			C164.961,99.977,155.867,87.888,142.847,86.046z M135.506,106.751l-14.559-2.057c1.242-4.677,4.18-8.56,8.029-11.092
			L135.506,106.751z M111.874,100.563L96.301,74.126l24.637,3.484L111.874,100.563z M115.501,103.931l8.251-20.877l3.156,6.38
			c-5.156,3.221-9.066,8.376-10.571,14.616L115.501,103.931z M158.555,112.346c-1.483,10.493-11.229,17.833-21.731,16.349
			c-9.735-1.377-16.72-9.842-16.523-19.421c0,0,15.173,2.146,19.175,2.711c4,0.566,3.089-1.368,3.089-1.368l-9.456-19.076
			c2.828-1.008,5.932-1.375,9.1-0.928C152.711,92.099,160.039,101.853,158.555,112.346z"/>
		<path fill="#FFFFFF" d="M62.801,114.623c-4.361-4.142-6.744-10.248-5.84-16.643c1.127-7.966,7.023-14.097,14.387-15.944
			l0.074-4.758c-9.682,1.903-17.57,9.747-19.028,20.055c-0.897,6.346,0.81,12.466,4.296,17.29H62.801z"/>
	</g>
</g>
<path fill="#FDD835" d="M195.044,168.142c-2.57-5.81-5.418-11.587-8.545-17.312c5.996-2.563,12.201-4.905,18.602-7.004
	c-64.111-26.519-136.189-26.351-200.201,0.503c0.041,0.095,0.08,0.188,0.119,0.283c6.605,2.131,13.006,4.522,19.184,7.149
	c-2.928,5.42-5.605,10.887-8.037,16.382C73.435,144.454,137.774,144.453,195.044,168.142L195.044,168.142L195.044,168.142z"/>
<path fill="#FFFFFF" d="M12.101,170.961l1.514-3.425c2.232-5.043,4.688-10.092,7.311-15.03c-5.701-2.375-11.596-4.547-17.545-6.466
	l-0.654-0.212l-0.967-2.302l1.383-0.58c32.242-13.525,66.318-20.384,101.285-20.384c34.514,0,68.182,6.688,100.07,19.878
	l3.744,1.549l-3.85,1.263c-5.744,1.883-11.443,4.005-16.965,6.316c2.814,5.241,5.439,10.604,7.812,15.966l1.516,3.425l-3.461-1.432
	c-28.318-11.713-58.217-17.651-88.863-17.651c-30.652,0-60.551,5.939-88.869,17.653L12.101,170.961z M7.706,144.312
	c5.4,1.835,10.738,3.871,15.906,6.069l1.516,0.645l-0.783,1.448c-2.283,4.226-4.443,8.542-6.445,12.873
	c27.646-10.932,56.738-16.472,86.531-16.472c29.789,0,58.877,5.539,86.525,16.47c-2.148-4.645-4.48-9.271-6.951-13.796l-0.791-1.45
	l1.518-0.648c4.844-2.071,9.834-3.999,14.879-5.752c-30.412-12.038-62.41-18.137-95.184-18.137
	C71.089,125.562,38.569,131.868,7.706,144.312z"/>
<g>
	<path fill="#FFFFFF" d="M46.526,136.872c2.996-0.841,5.986-1.617,8.977-2.33c0.084,0.324,0.164,0.647,0.244,0.971
		c-0.324,0.077-0.648,0.156-0.973,0.234c-0.668,0.162-1.096,0.328-1.283,0.493c-0.188,0.166-0.256,0.338-0.209,0.519
		c0.045,0.166,0.209,0.42,0.496,0.763c2.344,2.732,4.633,5.494,6.867,8.287c0.498-2.935,1.068-5.872,1.701-8.809
		c0.121-0.592,0.141-1.118,0.037-1.581c-0.094-0.434-0.316-0.731-0.67-0.892c-0.354-0.161-0.836-0.175-1.455-0.042
		c-0.273,0.06-0.551,0.12-0.824,0.181c-0.076-0.325-0.148-0.65-0.227-0.976c2.363-0.521,4.725-1.003,7.082-1.444
		c0.068,0.327,0.129,0.654,0.191,0.981c-0.178,0.033-0.354,0.066-0.529,0.1c-0.451,0.086-0.828,0.298-1.133,0.634
		c-0.307,0.337-0.545,0.882-0.725,1.635c-1.127,4.775-2.078,9.553-2.848,14.323c-0.449,0.104-0.902,0.21-1.355,0.319
		c-3.281-4.053-6.684-8.04-10.201-11.957c-0.355-0.403-0.699-0.643-1.029-0.715c-0.332-0.073-0.818-0.022-1.463,0.157
		c-0.125,0.036-0.256,0.071-0.379,0.107C46.722,137.512,46.624,137.192,46.526,136.872z"/>
	<path fill="#FFFFFF" d="M68.585,137.762c1.652-0.371,3.309-0.72,4.965-1.051c0.471,2.81,0.945,5.621,1.439,8.43
		c0.039,0.227,0.15,0.389,0.326,0.487c0.182,0.1,0.43,0.125,0.748,0.075c0.24-0.037,0.484-0.073,0.723-0.109
		c0.053,0.329,0.109,0.658,0.162,0.987c-2.131,0.319-4.268,0.673-6.396,1.063c-0.066-0.327-0.135-0.654-0.201-0.982
		c0.232-0.043,0.475-0.085,0.709-0.127c0.385-0.069,0.633-0.196,0.76-0.386c0.123-0.19,0.152-0.485,0.074-0.887
		c-0.365-1.91-0.729-3.821-1.082-5.732c-0.068-0.359-0.236-0.619-0.508-0.774c-0.27-0.157-0.619-0.199-1.031-0.124
		c-0.166,0.03-0.334,0.061-0.502,0.091C68.708,138.402,68.647,138.083,68.585,137.762z M70.679,131.503
		c0.551-0.093,1.053-0.002,1.504,0.271c0.447,0.273,0.715,0.65,0.791,1.132c0.078,0.48-0.051,0.919-0.385,1.318
		c-0.33,0.397-0.771,0.641-1.314,0.732c-0.551,0.092-1.055,0.003-1.502-0.268c-0.451-0.271-0.725-0.642-0.811-1.114
		c-0.086-0.479,0.035-0.921,0.369-1.326C69.669,131.847,70.114,131.597,70.679,131.503z"/>
	<path fill="#FFFFFF" d="M91.175,143.715c0.182,0.245,0.363,0.49,0.543,0.734c-0.438,0.335-0.838,0.575-1.195,0.718
		c-0.357,0.144-0.756,0.235-1.195,0.273c-0.656,0.057-1.188-0.024-1.621-0.246c-0.43-0.221-0.852-0.675-1.268-1.361
		c-0.705,0.798-1.34,1.362-1.924,1.689c-0.582,0.329-1.258,0.538-2.033,0.633c-1.068,0.13-1.932,0.009-2.604-0.371
		c-0.67-0.381-1.059-0.922-1.172-1.631c-0.166-1.069,0.271-2.009,1.318-2.804c0.838-0.627,2.775-1.402,5.83-2.232
		c-0.053-0.481-0.102-0.961-0.154-1.443c-0.062-0.57-0.318-1.013-0.781-1.329c-0.463-0.316-1.045-0.436-1.764-0.356
		c-0.543,0.062-1.01,0.22-1.4,0.476c-0.262,0.168-0.383,0.321-0.365,0.455c0.008,0.071,0.072,0.171,0.195,0.301
		c0.264,0.293,0.412,0.596,0.453,0.91c0.049,0.398-0.057,0.736-0.314,1.018c-0.264,0.279-0.633,0.45-1.121,0.512
		c-0.52,0.065-0.953-0.012-1.307-0.238c-0.35-0.223-0.559-0.544-0.621-0.963c-0.098-0.688,0.232-1.352,1-1.986
		c0.955-0.789,2.227-1.277,3.795-1.449c1.182-0.129,2.248-0.071,3.193,0.17c0.607,0.151,1.113,0.47,1.523,0.955
		c0.406,0.486,0.648,1.108,0.717,1.864c0.154,1.694,0.311,3.389,0.467,5.083c0.039,0.385,0.139,0.656,0.309,0.815
		c0.172,0.158,0.387,0.226,0.652,0.205C90.554,144.098,90.833,143.964,91.175,143.715z M85.954,140.047
		c-1.65,0.376-2.742,0.828-3.273,1.326c-0.533,0.499-0.752,1.102-0.654,1.806c0.064,0.498,0.25,0.863,0.559,1.096
		c0.307,0.235,0.703,0.322,1.193,0.267c0.752-0.086,1.352-0.406,1.799-0.964c0.441-0.559,0.621-1.274,0.527-2.15
		C86.054,140.966,86.005,140.507,85.954,140.047z"/>
	<path fill="#FFFFFF" d="M99.755,128.588c3.564-0.113,7.131-0.138,10.697-0.074c1.809,0.032,3.26,0.503,4.324,1.388
		c1.064,0.887,1.561,1.947,1.5,3.171c-0.045,0.929-0.395,1.729-1.043,2.4c-0.645,0.673-1.494,1.147-2.533,1.432
		c-1.043,0.285-2.064,0.419-3.074,0.405c-1.08-0.016-2.162-0.023-3.242-0.022c0.002,1.726,0.002,3.452,0.004,5.178
		c0.002,0.286,0.088,0.509,0.266,0.667c0.172,0.157,0.402,0.236,0.676,0.237c0.65,0.003,1.301,0.008,1.949,0.017
		c-0.006,0.333-0.014,0.666-0.016,0.999c-2.998-0.04-5.986-0.012-8.982,0.082c-0.012-0.333-0.02-0.665-0.033-0.998
		c0.5-0.016,1.01-0.03,1.514-0.042c0.336-0.008,0.586-0.092,0.756-0.253c0.17-0.161,0.252-0.385,0.244-0.671
		c-0.084-4.035-0.162-8.07-0.24-12.105c-0.006-0.272-0.104-0.485-0.295-0.638c-0.193-0.153-0.422-0.228-0.693-0.221
		c-0.58,0.014-1.166,0.03-1.746,0.048C99.776,129.254,99.765,128.921,99.755,128.588z M106.382,136.311
		c0.727,0,1.451,0.002,2.178,0.01c0.762,0.007,1.438-0.129,2.037-0.412c0.594-0.282,1.027-0.627,1.291-1.041
		c0.26-0.412,0.406-1.086,0.436-2.024c0.033-1.288-0.332-2.209-1.115-2.757c-0.574-0.392-1.562-0.602-2.963-0.612
		c-0.812-0.006-1.324,0.054-1.545,0.17c-0.217,0.119-0.322,0.321-0.322,0.607C106.38,132.271,106.38,134.291,106.382,136.311z"/>
	<path fill="#FFFFFF" d="M130.11,144.503c0.129,0.274,0.256,0.549,0.381,0.824c-0.506,0.243-0.947,0.401-1.328,0.473
		s-0.793,0.083-1.234,0.036c-0.652-0.07-1.164-0.254-1.537-0.554c-0.373-0.3-0.689-0.825-0.955-1.577
		c-0.855,0.647-1.598,1.076-2.24,1.285c-0.641,0.209-1.342,0.285-2.117,0.229c-1.07-0.078-1.883-0.363-2.457-0.864
		c-0.568-0.501-0.838-1.107-0.793-1.822c0.062-1.079,0.68-1.916,1.863-2.493c0.949-0.454,2.99-0.843,6.154-1.067
		c0.049-0.481,0.094-0.962,0.143-1.443c0.055-0.57-0.105-1.056-0.496-1.453c-0.385-0.399-0.941-0.63-1.65-0.688
		c-0.545-0.045-1.035,0.021-1.465,0.198c-0.293,0.114-0.439,0.24-0.451,0.375c-0.006,0.071,0.043,0.182,0.131,0.333
		c0.197,0.337,0.283,0.664,0.258,0.978c-0.033,0.4-0.205,0.711-0.516,0.938c-0.311,0.223-0.707,0.319-1.197,0.286
		c-0.518-0.035-0.93-0.194-1.223-0.483c-0.295-0.286-0.432-0.641-0.406-1.063c0.041-0.692,0.498-1.281,1.373-1.754
		c1.092-0.589,2.43-0.823,3.996-0.692c1.178,0.099,2.217,0.362,3.096,0.78c0.561,0.266,0.996,0.677,1.303,1.23
		c0.305,0.555,0.412,1.21,0.324,1.964c-0.193,1.69-0.396,3.381-0.596,5.071c-0.045,0.384-0.002,0.67,0.129,0.858
		c0.137,0.188,0.332,0.295,0.598,0.326C129.417,144.757,129.724,144.68,130.11,144.503z M125.753,139.903
		c-1.693,0.05-2.85,0.282-3.475,0.669c-0.623,0.386-0.957,0.936-1.018,1.643c-0.037,0.5,0.068,0.894,0.318,1.182
		c0.252,0.289,0.617,0.451,1.107,0.49c0.758,0.061,1.404-0.137,1.963-0.599c0.551-0.461,0.875-1.129,0.965-2.005
		C125.661,140.822,125.708,140.363,125.753,139.903z"/>
	<path fill="#FFFFFF" d="M139.63,136.348c1.262,0.199,2.383,0.633,3.346,1.296c0.965,0.663,1.627,1.432,1.979,2.295
		c0.354,0.866,0.412,1.84,0.189,2.922c-0.359,1.729-1.287,2.929-2.756,3.625c-1.467,0.695-2.988,0.913-4.596,0.659
		c-1.141-0.18-2.139-0.573-3.01-1.185c-0.869-0.614-1.51-1.356-1.906-2.236c-0.398-0.88-0.539-1.831-0.395-2.854
		c0.213-1.54,0.979-2.758,2.336-3.634C136.173,136.36,137.79,136.059,139.63,136.348z M139.534,137.367
		c-0.832-0.131-1.549,0.093-2.141,0.669c-0.594,0.574-1.008,1.679-1.264,3.309c-0.264,1.693-0.215,2.894,0.146,3.603
		c0.359,0.711,0.934,1.125,1.729,1.251c0.807,0.127,1.516-0.093,2.141-0.667c0.617-0.572,1.088-1.66,1.389-3.268
		c0.311-1.65,0.27-2.845-0.125-3.585C141.022,137.942,140.39,137.502,139.534,137.367z"/>
	<path fill="#FFFFFF" d="M149.241,132.694c1.826,0.283,3.66,0.588,5.496,0.918c-1.086,4.648-2.219,9.293-3.395,13.934
		c-0.062,0.251-0.027,0.468,0.113,0.65c0.133,0.183,0.377,0.311,0.701,0.387c0.229,0.051,0.449,0.104,0.674,0.157
		c-0.086,0.324-0.172,0.647-0.256,0.97c-2.139-0.501-4.283-0.965-6.424-1.395c0.076-0.327,0.148-0.652,0.223-0.979
		c0.242,0.049,0.484,0.099,0.73,0.149c0.336,0.068,0.607,0.038,0.811-0.093c0.203-0.13,0.344-0.363,0.422-0.699
		c0.896-3.829,1.766-7.658,2.609-11.49c0.076-0.357,0.018-0.656-0.166-0.896c-0.188-0.241-0.48-0.402-0.873-0.482
		c-0.287-0.058-0.578-0.116-0.863-0.173C149.106,133.334,149.173,133.014,149.241,132.694z"/>
	<path fill="#FFFFFF" d="M157.216,140.438c1.689,0.341,3.377,0.703,5.066,1.085c-0.807,2.744-1.627,5.486-2.471,8.227
		c-0.07,0.221-0.045,0.413,0.076,0.575c0.123,0.164,0.336,0.289,0.66,0.376c0.242,0.066,0.48,0.132,0.721,0.2
		c-0.102,0.319-0.207,0.64-0.309,0.958c-2.129-0.593-4.26-1.15-6.395-1.671c0.092-0.323,0.18-0.646,0.271-0.969
		c0.234,0.058,0.473,0.116,0.709,0.175c0.383,0.095,0.674,0.083,0.875-0.037c0.207-0.12,0.359-0.377,0.475-0.771
		c0.539-1.876,1.074-3.754,1.594-5.632c0.098-0.354,0.061-0.657-0.127-0.911c-0.182-0.252-0.479-0.431-0.895-0.533
		c-0.166-0.042-0.334-0.082-0.504-0.123C157.048,141.071,157.132,140.755,157.216,140.438z M161.872,135.606
		c0.551,0.143,0.982,0.432,1.287,0.865c0.301,0.434,0.387,0.886,0.252,1.355c-0.137,0.47-0.449,0.816-0.934,1.041
		c-0.484,0.225-0.998,0.266-1.543,0.125c-0.549-0.143-0.979-0.428-1.277-0.859c-0.301-0.432-0.395-0.878-0.27-1.344
		c0.123-0.473,0.43-0.824,0.914-1.055C160.782,135.504,161.308,135.461,161.872,135.606z"/>
</g>
</svg>
