<?xml version="1.0" encoding="utf-8"?>
<!-- Generator: Adobe Illustrator 16.0.4, SVG Export Plug-In . SVG Version: 6.00 Build 0)  -->
<!DOCTYPE svg PUBLIC "-//W3C//DTD SVG 1.1//EN" "http://www.w3.org/Graphics/SVG/1.1/DTD/svg11.dtd">
<svg version="1.1" id="Livello_1" xmlns="http://www.w3.org/2000/svg" xmlns:xlink="http://www.w3.org/1999/xlink" x="0px" y="0px"
	 width="210px" height="200px" viewBox="0 0 210 200" enable-background="new 0 0 210 200" xml:space="preserve">
<g>
	<circle fill="#FBC02E" cx="105" cy="100" r="84"/>
	<circle fill="#FABF2D" cx="105" cy="100" r="75.216"/>
	<path fill="#FFFFFF" d="M104.999,177.717c-42.853,0-77.715-34.864-77.715-77.717s34.862-77.717,77.715-77.717
		S182.716,57.147,182.716,100S147.852,177.717,104.999,177.717z M104.999,27.283c-40.095,0-72.715,32.621-72.715,72.717
		s32.62,72.717,72.715,72.717c40.097,0,72.717-32.621,72.717-72.717S145.096,27.283,104.999,27.283z"/>
	<path fill="#FFFFFF" d="M100.554,115.299H83.5l0.474-43.506c-0.551-4.04-3.011-6.182-6.093-6.182c-2.601,0-4.729,1.54-5.668,4.439
		L71.5,115.299H51.906h-0.035c-3.244,0-6.13,2.607-6.13,6.072c0,3.465,2.431,6.689,5.675,6.689c0.036,0,0.055,0.002,0.084,0.003
		v0.236h19.483H83.53h17.023c3.381,0,5.62-3.534,5.62-6.908C106.174,118.019,103.935,116.299,100.554,115.299z M51.516,128.064
		C52.047,128.082,51.592,128.215,51.516,128.064L51.516,128.064z"/>
	<g>
		<path fill="#FFFFFF" d="M142.847,86.046c-4.127-0.584-8.157-0.06-11.806,1.339l-5.002-10.106l5.697-14.445l-13.121-1.856
			c0,0-4.514,2.895-0.646,4.569c2.888,0.409,7.321,1.035,7.321,1.035l-2.617,6.618l-31.19-4.41l3.894-9.546
			c0,0,4.04,0.353,8.083,1.144c3.158-2.052,0.647-4.572,0.647-4.572l-21.339-3.017c0,0-3.323,1.685-0.646,4.572
			c4.673,0.662,8.547,1.209,8.547,1.209l-6.043,14.824L84.49,85.956c0.516-1.266,0.844-2.071,0.844-2.071
			c6.745,3.762,10.848,11.399,9.703,19.49c-0.633,4.477-2.778,8.369-5.834,11.256l6.121,0.01c2.209-3.044,3.73-6.652,4.293-10.629
			c1.447-10.223-3.878-19.858-12.533-24.421l2.891-7.094l19.763,33.538c0,0,0.828,1.862,2.876,2.151
			c2.043,0.289,3.078,0.435,3.078,0.435c-0.535,12.113,8.229,22.908,20.479,24.642c13.02,1.841,25.108-7.251,26.951-20.272
			C164.961,99.977,155.867,87.888,142.847,86.046z M135.506,106.751l-14.559-2.057c1.242-4.677,4.18-8.56,8.029-11.092
			L135.506,106.751z M111.874,100.563L96.301,74.126l24.637,3.484L111.874,100.563z M115.501,103.931l8.251-20.877l3.156,6.38
			c-5.156,3.221-9.066,8.376-10.571,14.616L115.501,103.931z M158.555,112.346c-1.483,10.493-11.229,17.833-21.731,16.349
			c-9.735-1.377-16.72-9.842-16.523-19.421c0,0,15.173,2.146,19.175,2.711c4,0.566,3.089-1.368,3.089-1.368l-9.456-19.076
			c2.828-1.008,5.932-1.375,9.1-0.928C152.711,92.099,160.039,101.853,158.555,112.346z"/>
		<path fill="#FFFFFF" d="M62.801,114.623c-4.361-4.142-6.744-10.248-5.84-16.643c1.127-7.966,7.023-14.097,14.387-15.944
			l0.074-4.758c-9.682,1.903-17.57,9.747-19.028,20.055c-0.897,6.346,0.81,12.466,4.296,17.29H62.801z"/>
	</g>
</g>
<path fill="#FDD835" d="M195.044,168.142c-2.57-5.81-5.418-11.587-8.545-17.312c5.996-2.563,12.201-4.905,18.602-7.004
	c-64.111-26.519-136.189-26.351-200.201,0.503c0.041,0.095,0.08,0.188,0.119,0.283c6.605,2.131,13.006,4.522,19.184,7.149
	c-2.928,5.42-5.605,10.887-8.037,16.382C73.435,144.454,137.774,144.453,195.044,168.142L195.044,168.142L195.044,168.142z"/>
<path fill="#FFFFFF" d="M12.101,170.961l1.514-3.425c2.232-5.043,4.688-10.092,7.311-15.03c-5.701-2.375-11.596-4.547-17.545-6.466
	l-0.654-0.212l-0.967-2.302l1.383-0.58c32.242-13.525,66.318-20.384,101.285-20.384c34.514,0,68.182,6.688,100.07,19.878
	l3.744,1.549l-3.85,1.263c-5.744,1.883-11.443,4.005-16.965,6.316c2.814,5.241,5.439,10.604,7.812,15.966l1.516,3.425l-3.461-1.432
	c-28.318-11.713-58.217-17.651-88.863-17.651c-30.652,0-60.551,5.939-88.869,17.653L12.101,170.961z M7.706,144.312
	c5.4,1.835,10.738,3.871,15.906,6.069l1.516,0.645l-0.783,1.448c-2.283,4.226-4.443,8.542-6.445,12.873
	c27.646-10.932,56.738-16.472,86.531-16.472c29.789,0,58.877,5.539,86.525,16.47c-2.148-4.645-4.48-9.271-6.951-13.796l-0.791-1.45
	l1.518-0.648c4.844-2.071,9.834-3.999,14.879-5.752c-30.412-12.038-62.41-18.137-95.184-18.137
	C71.089,125.562,38.569,131.868,7.706,144.312z"/>
<g>
	<path fill="#FFFFFF" d="M70.886,144.684c0.785,1.201,1.416,1.996,1.906,2.384c0.32,0.246,0.625,0.339,0.918,0.284
		c0.271-0.051,0.459-0.182,0.564-0.393c0.104-0.211,0.113-0.625,0.029-1.24c0.354-0.064,0.705-0.127,1.057-0.189
		c0.217,1.157,0.064,2.127-0.455,2.916c-0.518,0.789-1.262,1.274-2.244,1.468c-0.973,0.192-1.826,0.053-2.559-0.425
		c-0.736-0.478-1.369-1.458-1.9-2.947c-0.342,0.147-0.697,0.283-1.062,0.406c-0.365,0.122-0.744,0.228-1.145,0.32
		c-2.453,0.564-4.727,0.328-6.891-0.734c-2.162-1.06-3.641-2.713-4.348-5.019c-0.707-2.31-0.387-4.474,1.018-6.465
		c1.402-1.991,3.516-3.332,6.254-3.956c2.758-0.628,5.242-0.332,7.396,0.854c2.158,1.186,3.408,2.946,3.838,5.226
		c0.266,1.401,0.201,2.702-0.176,3.905C72.712,142.282,71.974,143.48,70.886,144.684z M69.188,142.38
		c0.113-1.349-0.002-2.862-0.363-4.537c-0.363-1.696-0.859-2.984-1.494-3.863c-0.635-0.878-1.385-1.467-2.254-1.761
		c-0.869-0.293-1.801-0.329-2.785-0.104c-0.984,0.224-1.811,0.671-2.467,1.335c-0.656,0.664-1.045,1.465-1.156,2.395
		c-0.148,1.309,0.02,2.828,0.5,4.559c0.578,2.084,1.375,3.629,2.359,4.651c-0.238-1.008-0.09-1.88,0.457-2.613
		c0.545-0.731,1.426-1.242,2.631-1.518c0.877-0.2,1.703-0.176,2.463,0.067C67.847,141.234,68.546,141.699,69.188,142.38z
		 M67.864,145.138c-0.041-0.194-0.08-0.388-0.115-0.582c-0.246-1.027-0.66-1.751-1.254-2.169c-0.592-0.419-1.26-0.543-2.008-0.372
		c-0.637,0.146-1.135,0.487-1.482,1.018c-0.348,0.53-0.436,1.104-0.268,1.723c0.158,0.577,0.516,1.074,1.074,1.495
		c0.689,0.124,1.336,0.115,1.951-0.025c0.455-0.105,0.859-0.247,1.211-0.428C67.323,145.615,67.62,145.396,67.864,145.138z"/>
	<path fill="#FFFFFF" d="M75.208,134.848c1.723-0.374,3.445-0.723,5.172-1.049c0.318,2.212,0.641,4.424,0.973,6.637
		c0.092,0.616,0.35,1.078,0.775,1.385c0.424,0.308,0.93,0.423,1.521,0.347c0.832-0.106,1.459-0.484,1.885-1.141
		c0.428-0.656,0.6-1.385,0.502-2.189c-0.131-1.089-0.262-2.177-0.387-3.266c-0.045-0.384-0.205-0.663-0.475-0.833
		c-0.271-0.171-0.623-0.231-1.051-0.18c-0.191,0.023-0.383,0.046-0.57,0.069c-0.043-0.323-0.082-0.647-0.123-0.97
		c1.746-0.301,3.492-0.579,5.24-0.832c0.262,2.702,0.533,5.403,0.812,8.104c0.035,0.363,0.191,0.636,0.461,0.819
		c0.27,0.185,0.607,0.257,1.02,0.221c0.168-0.015,0.338-0.029,0.508-0.044c0.033,0.331,0.061,0.664,0.092,0.995
		c-1.518,0.172-3.029,0.364-4.545,0.574c-0.273-0.69-0.479-1.439-0.607-2.247c-0.66,0.962-1.312,1.663-1.969,2.106
		s-1.357,0.715-2.115,0.819c-0.75,0.103-1.398,0.052-1.957-0.156c-0.561-0.208-1.045-0.594-1.455-1.162
		c-0.41-0.567-0.695-1.29-0.844-2.166c-0.223-1.314-0.439-2.63-0.658-3.946c-0.072-0.431-0.25-0.721-0.537-0.868
		c-0.289-0.147-0.785-0.17-1.5-0.066C75.319,135.49,75.263,135.169,75.208,134.848z"/>
	<path fill="#FFFFFF" d="M104.989,137.315c-2.646,0.028-5.289,0.112-7.936,0.253c0.104,1.408,0.479,2.429,1.117,3.068
		c0.641,0.64,1.428,0.94,2.369,0.907c0.676-0.024,1.312-0.215,1.908-0.574c0.6-0.358,1.209-0.994,1.842-1.905
		c0.295,0.157,0.586,0.314,0.879,0.473c-0.664,1.081-1.42,1.86-2.27,2.34c-0.848,0.482-1.885,0.742-3.121,0.791
		c-1.799,0.072-3.277-0.345-4.469-1.273c-1.188-0.929-1.861-2.167-1.984-3.731c-0.119-1.563,0.361-2.916,1.473-4.042
		c1.111-1.126,2.549-1.734,4.277-1.806c1.199-0.049,2.238,0.13,3.104,0.532c0.871,0.401,1.547,1.007,2.031,1.813
		C104.696,134.967,104.952,136.02,104.989,137.315z M96.999,136.592c1.266-0.067,2.531-0.122,3.797-0.163
		c0.355-0.012,0.609-0.098,0.76-0.26c0.146-0.162,0.217-0.451,0.205-0.866c-0.023-0.831-0.26-1.467-0.709-1.909
		c-0.451-0.44-1.018-0.649-1.695-0.623c-0.799,0.032-1.4,0.369-1.789,1.005C97.173,134.414,96.985,135.352,96.999,136.592z"/>
	<path fill="#FFFFFF" d="M115.085,141.45c-0.016,0.333-0.031,0.666-0.047,0.999c-2.562-0.115-5.125-0.175-7.689-0.18
		c0.002-0.333,0.004-0.667,0.002-1c0.32,0.001,0.641,0.002,0.959,0.005c0.393,0.003,0.682-0.063,0.867-0.202
		c0.178-0.136,0.275-0.324,0.279-0.56c0.029-1.983,0.057-3.967,0.086-5.951c0.006-0.479-0.113-0.833-0.363-1.057
		c-0.244-0.225-0.598-0.339-1.055-0.342c-0.217-0.001-0.436-0.002-0.652-0.003c0-0.315,0-0.63,0.002-0.945
		c1.66-0.07,3.32-0.12,4.982-0.146c-0.031,1.091-0.062,2.183-0.096,3.274c0.318-1.087,0.848-1.914,1.59-2.474
		c0.742-0.561,1.568-0.821,2.477-0.776c0.773,0.039,1.375,0.25,1.801,0.631c0.424,0.379,0.619,0.849,0.584,1.407
		c-0.031,0.479-0.213,0.856-0.537,1.136c-0.324,0.277-0.705,0.404-1.145,0.38c-0.393-0.021-0.723-0.167-0.992-0.439
		c-0.27-0.271-0.395-0.606-0.375-1.007c0.01-0.222,0.088-0.452,0.234-0.688c0.08-0.132,0.121-0.227,0.123-0.284
		c0.006-0.101-0.02-0.174-0.07-0.224c-0.051-0.049-0.133-0.076-0.25-0.081c-0.295-0.014-0.631,0.122-0.994,0.407
		c-0.564,0.444-1.047,1.151-1.447,2.123c-0.402,0.973-0.611,1.959-0.646,2.962c-0.021,0.723-0.047,1.446-0.072,2.168
		c-0.012,0.25,0.059,0.445,0.205,0.582c0.145,0.137,0.354,0.21,0.621,0.22C114.007,141.405,114.544,141.426,115.085,141.45z"/>
	<path fill="#FFFFFF" d="M131.206,140.229c0.295,0.172,0.584,0.346,0.879,0.519c-0.654,1.055-1.525,1.822-2.609,2.311
		c-1.082,0.491-2.301,0.66-3.67,0.517c-1.854-0.194-3.252-0.779-4.221-1.788c-0.967-1.008-1.404-2.29-1.285-3.854
		c0.129-1.685,0.869-3.028,2.262-4.007c1.393-0.979,3.186-1.365,5.352-1.129c1.561,0.17,2.719,0.587,3.471,1.228
		c0.752,0.641,1.068,1.345,0.961,2.104c-0.078,0.554-0.318,0.967-0.719,1.243c-0.398,0.277-0.887,0.378-1.463,0.307
		c-0.504-0.063-0.885-0.237-1.154-0.524c-0.264-0.287-0.375-0.632-0.324-1.038c0.041-0.349,0.254-0.735,0.639-1.159
		c0.164-0.175,0.254-0.301,0.262-0.38c0.02-0.143-0.096-0.286-0.338-0.429c-0.346-0.221-0.811-0.365-1.402-0.429
		c-1.096-0.12-1.922,0.101-2.471,0.652c-0.736,0.728-1.168,1.898-1.326,3.502c-0.156,1.604,0.047,2.76,0.602,3.474
		c0.557,0.711,1.316,1.118,2.295,1.226c0.771,0.085,1.527-0.062,2.277-0.443C129.966,141.748,130.628,141.115,131.206,140.229z"/>
	<path fill="#FFFFFF" d="M135.134,134.287c1.74,0.188,3.482,0.398,5.227,0.634c-0.512,2.803-1.037,5.605-1.58,8.407
		c-0.045,0.227,0.004,0.415,0.143,0.566c0.139,0.152,0.373,0.258,0.703,0.317c0.248,0.044,0.498,0.09,0.746,0.136
		c-0.066,0.327-0.137,0.654-0.201,0.981c-2.205-0.408-4.41-0.774-6.613-1.1c0.053-0.329,0.109-0.658,0.162-0.988
		c0.244,0.037,0.488,0.073,0.732,0.11c0.396,0.06,0.689,0.022,0.877-0.116c0.189-0.137,0.322-0.407,0.391-0.811
		c0.33-1.915,0.658-3.831,0.975-5.748c0.061-0.36-0.016-0.66-0.227-0.896c-0.213-0.235-0.535-0.387-0.963-0.452
		c-0.174-0.025-0.348-0.051-0.521-0.077C135.034,134.931,135.085,134.608,135.134,134.287z M139.302,129.062
		c0.574,0.094,1.039,0.345,1.391,0.75c0.354,0.407,0.488,0.85,0.4,1.329c-0.086,0.48-0.359,0.851-0.826,1.118
		c-0.467,0.265-0.977,0.351-1.541,0.258c-0.574-0.094-1.033-0.342-1.385-0.744c-0.352-0.403-0.492-0.841-0.416-1.316
		c0.072-0.481,0.34-0.858,0.805-1.131C138.192,129.056,138.718,128.966,139.302,129.062z"/>
	<path fill="#FFFFFF" d="M155.339,147.491c0.088,0.293,0.178,0.586,0.266,0.88c-0.568,0.159-1.061,0.244-1.473,0.253
		c-0.414,0.009-0.846-0.044-1.301-0.162c-0.672-0.174-1.18-0.436-1.523-0.793c-0.346-0.356-0.59-0.926-0.75-1.712
		c-1,0.506-1.842,0.817-2.547,0.925c-0.699,0.108-1.447,0.075-2.248-0.098c-1.102-0.24-1.908-0.644-2.428-1.226
		c-0.516-0.581-0.701-1.221-0.549-1.923c0.229-1.058,0.996-1.797,2.318-2.191c1.059-0.307,3.252-0.386,6.615-0.112
		c0.123-0.469,0.246-0.938,0.367-1.407c0.146-0.557,0.045-1.063-0.305-1.519c-0.352-0.457-0.898-0.77-1.639-0.938
		c-0.564-0.128-1.092-0.138-1.566-0.03c-0.326,0.069-0.498,0.17-0.529,0.303c-0.016,0.07,0.014,0.186,0.09,0.35
		c0.154,0.365,0.199,0.701,0.125,1.009c-0.092,0.391-0.32,0.673-0.68,0.849c-0.357,0.175-0.793,0.208-1.295,0.102
		c-0.537-0.114-0.941-0.333-1.211-0.664c-0.27-0.328-0.359-0.699-0.27-1.114c0.146-0.68,0.707-1.195,1.693-1.533
		c1.232-0.418,2.67-0.448,4.299-0.073c1.23,0.281,2.281,0.705,3.15,1.258c0.553,0.352,0.955,0.829,1.191,1.427
		c0.238,0.599,0.252,1.266,0.045,1.999c-0.467,1.644-0.941,3.288-1.422,4.929c-0.107,0.374-0.109,0.664,0,0.871
		c0.107,0.208,0.301,0.348,0.578,0.419C154.573,147.632,154.903,147.604,155.339,147.491z M151.478,142.239
		c-1.787-0.215-3.037-0.163-3.748,0.125c-0.711,0.287-1.146,0.78-1.312,1.472c-0.117,0.489-0.064,0.896,0.15,1.219
		c0.217,0.324,0.578,0.542,1.082,0.655c0.779,0.177,1.498,0.082,2.146-0.29c0.65-0.371,1.096-0.98,1.324-1.835
		C151.241,143.135,151.36,142.687,151.478,142.239z"/>
</g>
</svg>
