<?xml version="1.0" encoding="utf-8"?>
<!-- Generator: Adobe Illustrator 16.0.4, SVG Export Plug-In . SVG Version: 6.00 Build 0)  -->
<!DOCTYPE svg PUBLIC "-//W3C//DTD SVG 1.1//EN" "http://www.w3.org/Graphics/SVG/1.1/DTD/svg11.dtd">
<svg version="1.1" id="Livello_1" xmlns="http://www.w3.org/2000/svg" xmlns:xlink="http://www.w3.org/1999/xlink" x="0px" y="0px"
	 width="210px" height="200px" viewBox="0 0 210 200" enable-background="new 0 0 210 200" xml:space="preserve">
<g>
	<g>
		<circle fill="#FBC02E" cx="105" cy="100" r="84"/>
		<circle fill="#FABF2D" cx="105" cy="100" r="75.216"/>
		<path fill="#FFFFFF" d="M104.999,177.717c-42.853,0-77.715-34.864-77.715-77.717s34.862-77.717,77.715-77.717
			S182.716,57.147,182.716,100S147.852,177.717,104.999,177.717z M104.999,27.283c-40.095,0-72.715,32.621-72.715,72.717
			s32.62,72.717,72.715,72.717c40.097,0,72.717-32.621,72.717-72.717S145.096,27.283,104.999,27.283z"/>
		<path fill="#FFFFFF" d="M100.554,115.299H83.5l0.474-43.506c-0.551-4.04-3.011-6.182-6.093-6.182c-2.601,0-4.729,1.54-5.668,4.439
			L71.5,115.299H51.906h-0.035c-3.244,0-6.13,2.607-6.13,6.072c0,3.465,2.431,6.689,5.675,6.689c0.036,0,0.055,0.002,0.084,0.003
			v0.236h19.483H83.53h17.023c3.381,0,5.62-3.534,5.62-6.908C106.174,118.019,103.935,116.299,100.554,115.299z M51.516,128.064
			C52.047,128.082,51.592,128.215,51.516,128.064L51.516,128.064z"/>
		<g>
			<path fill="#FFFFFF" d="M142.847,86.046c-4.127-0.584-8.157-0.06-11.806,1.339l-5.002-10.106l5.697-14.445l-13.121-1.856
				c0,0-4.514,2.895-0.646,4.569c2.888,0.409,7.321,1.035,7.321,1.035l-2.617,6.618l-31.19-4.41l3.894-9.546
				c0,0,4.04,0.353,8.083,1.144c3.158-2.052,0.647-4.572,0.647-4.572l-21.339-3.017c0,0-3.323,1.685-0.646,4.572
				c4.673,0.662,8.547,1.209,8.547,1.209l-6.043,14.824L84.49,85.956c0.516-1.266,0.844-2.071,0.844-2.071
				c6.745,3.762,10.848,11.399,9.703,19.49c-0.633,4.477-2.778,8.369-5.834,11.256l6.121,0.01c2.209-3.044,3.73-6.652,4.293-10.629
				c1.447-10.223-3.878-19.858-12.533-24.421l2.891-7.094l19.763,33.538c0,0,0.828,1.862,2.876,2.151
				c2.043,0.289,3.078,0.435,3.078,0.435c-0.535,12.113,8.229,22.908,20.479,24.642c13.02,1.841,25.108-7.251,26.951-20.272
				C164.961,99.977,155.867,87.888,142.847,86.046z M135.506,106.751l-14.559-2.057c1.242-4.677,4.18-8.56,8.029-11.092
				L135.506,106.751z M111.874,100.563L96.301,74.126l24.637,3.484L111.874,100.563z M115.501,103.931l8.251-20.877l3.156,6.38
				c-5.156,3.221-9.066,8.376-10.571,14.616L115.501,103.931z M158.555,112.346c-1.483,10.493-11.229,17.833-21.731,16.349
				c-9.735-1.377-16.72-9.842-16.523-19.421c0,0,15.173,2.146,19.175,2.711c4,0.566,3.089-1.368,3.089-1.368l-9.456-19.076
				c2.828-1.008,5.932-1.375,9.1-0.928C152.711,92.099,160.039,101.853,158.555,112.346z"/>
			<path fill="#FFFFFF" d="M62.801,114.623c-4.361-4.142-6.744-10.248-5.84-16.643c1.127-7.966,7.023-14.097,14.387-15.944
				l0.074-4.758c-9.682,1.903-17.57,9.747-19.028,20.055c-0.897,6.346,0.81,12.466,4.296,17.29H62.801z"/>
		</g>
	</g>
	<path fill="#FDD835" d="M195.043,168.142c-2.57-5.81-5.418-11.587-8.545-17.312c5.996-2.563,12.201-4.905,18.602-7.004
		C140.988,117.308,68.912,117.476,4.9,144.329c0.041,0.095,0.08,0.188,0.119,0.283c6.605,2.131,13.004,4.522,19.182,7.149
		c-2.928,5.42-5.605,10.887-8.037,16.382C73.436,144.454,137.773,144.453,195.043,168.142L195.043,168.142L195.043,168.142z"/>
	<path fill="#FFFFFF" d="M12.102,170.961l1.514-3.425c2.23-5.043,4.686-10.092,7.309-15.03c-5.701-2.375-11.594-4.547-17.543-6.466
		l-0.654-0.212l-0.967-2.302l1.383-0.58c32.242-13.525,66.318-20.384,101.283-20.384c34.514,0,68.182,6.688,100.07,19.878
		l3.744,1.549l-3.85,1.263c-5.744,1.883-11.443,4.005-16.965,6.316c2.814,5.241,5.439,10.604,7.812,15.966l1.516,3.425l-3.461-1.432
		c-28.318-11.713-58.217-17.651-88.863-17.651c-30.65,0-60.549,5.939-88.869,17.653L12.102,170.961z M7.707,144.312
		c5.4,1.835,10.736,3.871,15.904,6.069l1.516,0.645l-0.783,1.448c-2.283,4.226-4.443,8.542-6.445,12.873
		c27.648-10.932,56.74-16.472,86.531-16.472c29.789,0,58.877,5.539,86.525,16.47c-2.148-4.645-4.48-9.271-6.951-13.796l-0.791-1.45
		l1.518-0.648c4.844-2.071,9.834-3.999,14.879-5.752c-30.412-12.038-62.41-18.137-95.184-18.137
		C71.09,125.562,38.57,131.868,7.707,144.312z"/>
	<g>
		<path fill="#FFFFFF" d="M79.936,134.399c2.706-0.77,5.409-1.413,8.108-1.934c1.259-0.242,2.292-0.169,3.083,0.195
			c0.793,0.366,1.234,0.913,1.343,1.627c0.095,0.627-0.101,1.198-0.577,1.717c-0.475,0.521-1.227,0.99-2.26,1.431
			c1.475-0.065,2.541,0.114,3.21,0.493c0.669,0.379,1.052,0.928,1.159,1.635c0.097,0.623-0.027,1.188-0.357,1.697
			c-0.234,0.361-0.689,0.718-1.349,1.082c-0.659,0.363-1.464,0.633-2.42,0.824c-2.215,0.442-4.429,0.98-6.636,1.618
			c-0.076-0.218-0.147-0.435-0.221-0.652c0.356-0.103,0.716-0.204,1.073-0.302c0.184-0.051,0.308-0.136,0.371-0.261
			c0.088-0.17,0.099-0.348,0.042-0.537c-0.823-2.693-1.607-5.39-2.351-8.091c-0.034-0.123-0.13-0.204-0.283-0.244
			c-0.156-0.04-0.393-0.017-0.709,0.068c-0.343,0.095-0.689,0.19-1.031,0.288C80.067,134.835,80,134.618,79.936,134.399z
			 M85.887,137.937c0.473-0.11,0.947-0.216,1.419-0.316c0.976-0.208,1.636-0.513,1.991-0.938c0.354-0.424,0.458-1.032,0.308-1.829
			c-0.129-0.69-0.428-1.145-0.907-1.358c-0.477-0.212-1.312-0.206-2.502,0.049c-0.565,0.123-0.918,0.245-1.051,0.361
			c-0.133,0.115-0.175,0.28-0.123,0.494C85.304,135.579,85.592,136.758,85.887,137.937z M86.052,138.599
			c0.323,1.278,0.656,2.555,0.992,3.832c0.052,0.2,0.139,0.34,0.265,0.423c0.122,0.083,0.262,0.104,0.427,0.067
			c0.507-0.114,1.014-0.223,1.521-0.328c0.746-0.152,1.289-0.446,1.64-0.894c0.351-0.447,0.467-1.027,0.327-1.744
			c-0.145-0.749-0.488-1.282-1.048-1.591c-0.558-0.307-1.301-0.373-2.224-0.182C87.317,138.314,86.686,138.453,86.052,138.599z"/>
		<path fill="#FFFFFF" d="M103.346,138.271c-1.801,0.044-3.605,0.148-5.405,0.311c0.11,0.956,0.396,1.642,0.847,2.063
			s0.983,0.609,1.618,0.57c0.454-0.028,0.875-0.169,1.271-0.422c0.396-0.253,0.797-0.694,1.215-1.322
			c0.202,0.104,0.401,0.208,0.601,0.314c-0.439,0.743-0.935,1.281-1.497,1.621c-0.56,0.339-1.249,0.533-2.074,0.59
			c-1.203,0.083-2.204-0.163-3.04-0.761c-0.834-0.599-1.341-1.418-1.479-2.479s0.143-1.998,0.875-2.8
			c0.735-0.799,1.718-1.254,2.917-1.34c0.828-0.059,1.555,0.045,2.159,0.305c0.609,0.261,1.085,0.666,1.427,1.21
			S103.305,137.387,103.346,138.271z M97.877,137.917c0.867-0.078,1.729-0.143,2.594-0.194c0.244-0.015,0.416-0.076,0.513-0.189
			c0.101-0.112,0.146-0.31,0.128-0.593c-0.028-0.565-0.204-0.996-0.521-1.29c-0.318-0.292-0.715-0.424-1.184-0.391
			c-0.552,0.038-0.961,0.282-1.214,0.725C97.938,136.428,97.831,137.073,97.877,137.917z"/>
		<path fill="#FFFFFF" d="M105.719,134.774c2.32,0.009,4.643,0.112,6.964,0.308c-0.021,0.221-0.037,0.442-0.06,0.664
			c-1.751,1.694-3.401,3.442-4.939,5.235c0.697,0.02,1.394,0.049,2.088,0.087c0.457,0.025,0.84-0.1,1.163-0.381
			c0.323-0.281,0.591-0.798,0.804-1.551c0.241,0.02,0.484,0.039,0.729,0.061c-0.139,0.904-0.277,1.81-0.416,2.715
			c-2.291-0.195-4.585-0.289-6.875-0.283c-0.002-0.227-0.005-0.455-0.002-0.682c1.469-1.839,3.055-3.639,4.74-5.388
			c-0.627-0.033-1.254-0.06-1.882-0.079c-0.437-0.013-0.805,0.118-1.099,0.389c-0.292,0.272-0.509,0.749-0.644,1.428
			c-0.249-0.003-0.494-0.004-0.743-0.005C105.604,136.454,105.658,135.615,105.719,134.774z"/>
		<path fill="#FFFFFF" d="M115.189,135.332c2.323,0.264,4.646,0.623,6.972,1.078c-0.045,0.218-0.091,0.435-0.137,0.653
			c-1.968,1.489-3.841,3.042-5.604,4.653c0.696,0.097,1.391,0.204,2.088,0.32c0.453,0.075,0.857-0.006,1.217-0.25
			c0.362-0.244,0.694-0.727,0.999-1.451c0.246,0.045,0.485,0.092,0.729,0.141c-0.25,0.884-0.502,1.769-0.756,2.653
			c-2.287-0.45-4.577-0.798-6.868-1.045c0.027-0.226,0.054-0.451,0.082-0.678c1.694-1.666,3.499-3.278,5.4-4.83
			c-0.629-0.103-1.254-0.198-1.884-0.287c-0.436-0.062-0.821,0.028-1.147,0.265c-0.324,0.238-0.598,0.688-0.812,1.349
			c-0.247-0.03-0.495-0.059-0.741-0.086C114.879,136.988,115.035,136.16,115.189,135.332z"/>
		<path fill="#FFFFFF" d="M124.128,136.817c1.206,0.217,2.416,0.459,3.627,0.729c-0.533,1.875-1.085,3.747-1.657,5.618
			c-0.048,0.15-0.027,0.282,0.055,0.392c0.083,0.112,0.237,0.197,0.456,0.257c0.164,0.045,0.331,0.092,0.498,0.138
			c-0.073,0.218-0.143,0.436-0.214,0.654c-1.469-0.41-2.936-0.777-4.406-1.102c0.056-0.221,0.112-0.443,0.171-0.664
			c0.163,0.037,0.326,0.073,0.49,0.11c0.267,0.06,0.465,0.049,0.604-0.035c0.136-0.083,0.244-0.26,0.316-0.53
			c0.349-1.284,0.688-2.57,1.02-3.856c0.062-0.241,0.028-0.449-0.106-0.621c-0.134-0.171-0.35-0.292-0.646-0.358
			c-0.118-0.026-0.239-0.053-0.359-0.079C124.025,137.25,124.077,137.034,124.128,136.817z M127.336,133.493
			c0.402,0.1,0.725,0.3,0.953,0.598c0.23,0.299,0.297,0.61,0.209,0.93c-0.092,0.322-0.309,0.556-0.651,0.708
			c-0.345,0.151-0.71,0.179-1.104,0.083c-0.398-0.098-0.712-0.292-0.937-0.586c-0.227-0.294-0.304-0.599-0.229-0.919
			c0.079-0.323,0.285-0.565,0.627-0.725C126.547,133.423,126.925,133.394,127.336,133.493z"/>
	</g>
</g>
</svg>
