<?xml version="1.0" encoding="utf-8"?>
<!-- Generator: Adobe Illustrator 16.0.4, SVG Export Plug-In . SVG Version: 6.00 Build 0)  -->
<!DOCTYPE svg PUBLIC "-//W3C//DTD SVG 1.1//EN" "http://www.w3.org/Graphics/SVG/1.1/DTD/svg11.dtd">
<svg version="1.1" id="Livello_1" xmlns="http://www.w3.org/2000/svg" xmlns:xlink="http://www.w3.org/1999/xlink" x="0px" y="0px"
	 width="210px" height="200px" viewBox="0 0 210 200" enable-background="new 0 0 210 200" xml:space="preserve">
<g>
	<g>
		<circle fill="#FBC02E" cx="105" cy="100" r="84"/>
		<circle fill="#FABF2D" cx="105" cy="100" r="75.216"/>
		<path fill="#FFFFFF" d="M104.999,177.717c-42.853,0-77.715-34.864-77.715-77.717s34.862-77.717,77.715-77.717
			S182.716,57.147,182.716,100S147.852,177.717,104.999,177.717z M104.999,27.283c-40.095,0-72.715,32.621-72.715,72.717
			s32.62,72.717,72.715,72.717c40.097,0,72.717-32.621,72.717-72.717S145.096,27.283,104.999,27.283z"/>
		<path fill="#FFFFFF" d="M100.554,115.299H83.5l0.474-43.506c-0.551-4.04-3.011-6.182-6.093-6.182c-2.601,0-4.729,1.54-5.668,4.439
			L71.5,115.299H51.906h-0.035c-3.244,0-6.13,2.607-6.13,6.072c0,3.465,2.431,6.689,5.675,6.689c0.036,0,0.055,0.002,0.084,0.003
			v0.236h19.483H83.53h17.023c3.381,0,5.62-3.534,5.62-6.908C106.174,118.019,103.935,116.299,100.554,115.299z M51.516,128.064
			C52.047,128.082,51.592,128.215,51.516,128.064L51.516,128.064z"/>
		<g>
			<path fill="#FFFFFF" d="M142.847,86.046c-4.127-0.584-8.157-0.06-11.806,1.339l-5.002-10.106l5.697-14.445l-13.121-1.856
				c0,0-4.514,2.895-0.646,4.569c2.888,0.409,7.321,1.035,7.321,1.035l-2.617,6.618l-31.19-4.41l3.894-9.546
				c0,0,4.04,0.353,8.083,1.144c3.158-2.052,0.647-4.572,0.647-4.572l-21.339-3.017c0,0-3.323,1.685-0.646,4.572
				c4.673,0.662,8.547,1.209,8.547,1.209l-6.043,14.824L84.49,85.956c0.516-1.266,0.844-2.071,0.844-2.071
				c6.745,3.762,10.848,11.399,9.703,19.49c-0.633,4.477-2.778,8.369-5.834,11.256l6.121,0.01c2.209-3.044,3.73-6.652,4.293-10.629
				c1.447-10.223-3.878-19.858-12.533-24.421l2.891-7.094l19.763,33.538c0,0,0.828,1.862,2.876,2.151
				c2.043,0.289,3.078,0.435,3.078,0.435c-0.535,12.113,8.229,22.908,20.479,24.642c13.02,1.841,25.108-7.251,26.951-20.272
				C164.961,99.977,155.867,87.888,142.847,86.046z M135.506,106.751l-14.559-2.057c1.242-4.677,4.18-8.56,8.029-11.092
				L135.506,106.751z M111.874,100.563L96.301,74.126l24.637,3.484L111.874,100.563z M115.501,103.931l8.251-20.877l3.156,6.38
				c-5.156,3.221-9.066,8.376-10.571,14.616L115.501,103.931z M158.555,112.346c-1.483,10.493-11.229,17.833-21.731,16.349
				c-9.735-1.377-16.72-9.842-16.523-19.421c0,0,15.173,2.146,19.175,2.711c4,0.566,3.089-1.368,3.089-1.368l-9.456-19.076
				c2.828-1.008,5.932-1.375,9.1-0.928C152.711,92.099,160.039,101.853,158.555,112.346z"/>
			<path fill="#FFFFFF" d="M62.801,114.623c-4.361-4.142-6.744-10.248-5.84-16.643c1.127-7.966,7.023-14.097,14.387-15.944
				l0.074-4.758c-9.682,1.903-17.57,9.747-19.028,20.055c-0.897,6.346,0.81,12.466,4.296,17.29H62.801z"/>
		</g>
	</g>
	<path fill="#FDD835" d="M195.043,168.142c-2.57-5.81-5.418-11.587-8.545-17.312c5.996-2.563,12.201-4.905,18.602-7.004
		C140.988,117.308,68.912,117.476,4.9,144.329c0.041,0.095,0.08,0.188,0.119,0.283c6.605,2.131,13.004,4.522,19.182,7.149
		c-2.928,5.42-5.605,10.887-8.037,16.382C73.436,144.454,137.773,144.453,195.043,168.142L195.043,168.142L195.043,168.142z"/>
	<path fill="#FFFFFF" d="M12.102,170.961l1.514-3.425c2.23-5.043,4.686-10.092,7.309-15.03c-5.701-2.375-11.594-4.547-17.543-6.466
		l-0.654-0.212l-0.967-2.302l1.383-0.58c32.242-13.525,66.318-20.384,101.283-20.384c34.514,0,68.182,6.688,100.07,19.878
		l3.744,1.549l-3.85,1.263c-5.744,1.883-11.443,4.005-16.965,6.316c2.814,5.241,5.439,10.604,7.812,15.966l1.516,3.425l-3.461-1.432
		c-28.318-11.713-58.217-17.651-88.863-17.651c-30.65,0-60.549,5.939-88.869,17.653L12.102,170.961z M7.707,144.312
		c5.4,1.835,10.736,3.871,15.904,6.069l1.516,0.645l-0.783,1.448c-2.283,4.226-4.443,8.542-6.445,12.873
		c27.648-10.932,56.74-16.472,86.531-16.472c29.789,0,58.877,5.539,86.525,16.47c-2.148-4.645-4.48-9.271-6.951-13.796l-0.791-1.45
		l1.518-0.648c4.844-2.071,9.834-3.999,14.879-5.752c-30.412-12.038-62.41-18.137-95.184-18.137
		C71.09,125.562,38.57,131.868,7.707,144.312z"/>
	<g>
		<path fill="#FFFFFF" d="M69.222,136.043c-0.065-0.219-0.13-0.436-0.197-0.654c2.177-0.611,4.345-1.166,6.516-1.665
			c0.056,0.221,0.105,0.442,0.161,0.663c-0.365,0.083-0.727,0.169-1.093,0.255c-0.313,0.076-0.519,0.178-0.618,0.308
			c-0.104,0.13-0.119,0.307-0.062,0.528c0.685,2.605,1.386,5.208,2.118,7.809c0.087,0.317,0.204,0.505,0.336,0.567
			c0.138,0.06,0.404,0.039,0.812-0.059c0.559-0.133,1.114-0.261,1.669-0.387c0.625-0.139,1.133-0.533,1.55-1.186
			c0.414-0.653,0.639-1.599,0.679-2.845c0.242-0.047,0.486-0.095,0.729-0.142c0.192,1.375,0.4,2.75,0.61,4.123
			c-3.382,0.66-6.752,1.467-10.126,2.425c-0.075-0.218-0.143-0.435-0.217-0.653c0.34-0.097,0.678-0.191,1.018-0.284
			c0.225-0.062,0.381-0.159,0.461-0.293c0.08-0.135,0.092-0.296,0.037-0.484c-0.818-2.658-1.611-5.319-2.371-7.983
			c-0.053-0.193-0.162-0.318-0.313-0.37c-0.154-0.053-0.384-0.037-0.698,0.049C69.889,135.857,69.557,135.949,69.222,136.043z"/>
		<path fill="#FFFFFF" d="M82.703,136.317c1.144-0.253,2.282-0.491,3.426-0.713c0.313,1.917,0.631,3.834,0.958,5.75
			c0.026,0.155,0.103,0.266,0.222,0.333c0.119,0.069,0.298,0.085,0.514,0.053c0.165-0.024,0.329-0.048,0.494-0.072
			c0.038,0.224,0.071,0.449,0.108,0.674c-1.458,0.21-2.922,0.449-4.38,0.713c-0.049-0.223-0.094-0.446-0.138-0.669
			c0.159-0.03,0.323-0.059,0.485-0.087c0.263-0.046,0.438-0.133,0.522-0.262c0.085-0.129,0.103-0.331,0.05-0.605
			c-0.25-1.302-0.49-2.605-0.732-3.909c-0.043-0.246-0.161-0.421-0.346-0.529c-0.188-0.106-0.424-0.135-0.71-0.084
			c-0.116,0.021-0.233,0.041-0.347,0.062C82.787,136.753,82.746,136.535,82.703,136.317z M84.168,132.048
			c0.386-0.062,0.728,0,1.041,0.186c0.307,0.187,0.492,0.446,0.541,0.773c0.054,0.329-0.039,0.627-0.272,0.898
			c-0.232,0.271-0.537,0.437-0.91,0.499c-0.382,0.062-0.723,0.001-1.037-0.183c-0.312-0.185-0.496-0.438-0.556-0.761
			c-0.06-0.326,0.028-0.627,0.26-0.904C83.466,132.283,83.783,132.111,84.168,132.048z"/>
		<path fill="#FFFFFF" d="M93.184,130.834c1.32-0.169,2.645-0.318,3.971-0.447c0.189,2.981,0.396,5.964,0.598,8.945
			c0.033,0.458,0.092,0.765,0.166,0.918c0.074,0.155,0.186,0.263,0.324,0.325c0.145,0.062,0.403,0.082,0.793,0.061
			c0.013,0.217,0.028,0.434,0.039,0.651c-1.006,0.083-1.997,0.18-2.996,0.288c-0.113-0.437-0.227-0.874-0.338-1.31
			c-0.414,0.597-0.8,1.006-1.146,1.224c-0.354,0.219-0.807,0.356-1.362,0.414c-1.001,0.104-1.851-0.114-2.569-0.66
			c-0.719-0.545-1.164-1.349-1.316-2.418c-0.167-1.18,0.039-2.164,0.657-2.944c0.615-0.778,1.455-1.229,2.509-1.337
			c0.561-0.058,1.081,0.002,1.54,0.179c0.46,0.176,0.892,0.495,1.287,0.952c-0.09-1.037-0.181-2.074-0.263-3.11
			c-0.031-0.37-0.095-0.632-0.185-0.786c-0.089-0.154-0.208-0.256-0.347-0.306c-0.141-0.049-0.416-0.056-0.83-0.019
			c-0.155,0.014-0.312,0.028-0.467,0.043C93.224,131.276,93.204,131.056,93.184,130.834z M93.363,135.409
			c-0.637,0.062-1.09,0.359-1.342,0.887c-0.214,0.433-0.266,1.086-0.158,1.964c0.087,0.734,0.226,1.272,0.404,1.619
			c0.183,0.346,0.412,0.595,0.686,0.744c0.279,0.151,0.574,0.21,0.9,0.179c0.533-0.052,0.94-0.303,1.229-0.753
			c0.387-0.592,0.547-1.32,0.472-2.187c-0.071-0.804-0.317-1.427-0.757-1.867C94.36,135.555,93.879,135.359,93.363,135.409z"/>
		<path fill="#FFFFFF" d="M104.475,133.879c0.868-0.008,1.667,0.16,2.392,0.5c0.724,0.34,1.25,0.785,1.588,1.326
			c0.333,0.543,0.489,1.191,0.469,1.942c-0.037,1.202-0.512,2.108-1.4,2.736c-0.892,0.627-1.872,0.942-2.975,0.952
			c-0.779,0.006-1.493-0.145-2.151-0.457c-0.66-0.313-1.181-0.738-1.557-1.283c-0.373-0.545-0.59-1.167-0.619-1.869
			c-0.047-1.059,0.318-1.965,1.127-2.708C102.15,134.276,103.203,133.89,104.475,133.879z M104.528,134.574
			c-0.573,0.005-1.025,0.236-1.354,0.69c-0.33,0.452-0.475,1.241-0.449,2.364c0.032,1.167,0.21,1.967,0.542,2.402
			c0.331,0.436,0.767,0.65,1.307,0.645c0.551-0.005,0.998-0.231,1.345-0.685c0.339-0.453,0.521-1.235,0.53-2.348
			c0.007-1.143-0.158-1.942-0.508-2.394C105.589,134.796,105.117,134.569,104.528,134.574z"/>
		<path fill="#FFFFFF" d="M115.335,140.825c-0.018,0.226-0.036,0.453-0.061,0.679c-1.707-0.139-3.406-0.24-5.108-0.305
			c0.008-0.228,0.02-0.454,0.03-0.681c0.211,0.008,0.424,0.017,0.637,0.026c0.265,0.012,0.454-0.026,0.581-0.116
			c0.126-0.088,0.19-0.213,0.202-0.375c0.072-1.35,0.146-2.701,0.22-4.052c0.018-0.327-0.049-0.569-0.213-0.729
			c-0.16-0.158-0.395-0.246-0.695-0.258c-0.145-0.006-0.293-0.013-0.438-0.018c0.012-0.214,0.014-0.43,0.026-0.644
			c1.105-0.009,2.215-0.002,3.328,0.018c-0.05,0.743-0.098,1.486-0.154,2.229c0.244-0.733,0.616-1.283,1.129-1.647
			c0.512-0.364,1.071-0.522,1.674-0.47c0.513,0.043,0.913,0.202,1.185,0.472c0.277,0.268,0.396,0.593,0.351,0.973
			c-0.033,0.325-0.159,0.578-0.39,0.761c-0.226,0.182-0.48,0.259-0.775,0.232c-0.261-0.024-0.478-0.131-0.648-0.321
			c-0.175-0.191-0.244-0.423-0.224-0.695c0.012-0.151,0.075-0.305,0.177-0.463c0.057-0.089,0.088-0.153,0.089-0.192
			c0.008-0.067-0.007-0.119-0.039-0.154c-0.029-0.034-0.088-0.056-0.165-0.061c-0.197-0.017-0.426,0.069-0.675,0.255
			c-0.388,0.289-0.73,0.759-1.023,1.411c-0.294,0.653-0.462,1.322-0.514,2.004c-0.037,0.491-0.073,0.983-0.109,1.475
			c-0.013,0.171,0.028,0.304,0.121,0.402c0.092,0.096,0.229,0.15,0.406,0.163C114.617,140.768,114.98,140.796,115.335,140.825z"/>
		<path fill="#FFFFFF" d="M128.44,142.607c-0.044,0.223-0.098,0.446-0.146,0.668c-1.464-0.28-2.927-0.534-4.396-0.759
			c0.043-0.224,0.079-0.449,0.117-0.673c0.155,0.023,0.31,0.048,0.464,0.072c0.248,0.039,0.441,0.01,0.582-0.085
			c0.143-0.097,0.233-0.254,0.273-0.476c0.179-0.978,0.354-1.956,0.53-2.933c0.089-0.5,0.027-0.905-0.182-1.215
			c-0.218-0.308-0.53-0.496-0.951-0.56c-0.575-0.087-1.071,0.035-1.488,0.364c-0.418,0.329-0.675,0.86-0.784,1.59
			c-0.115,0.756-0.227,1.514-0.344,2.271c-0.033,0.222,0,0.399,0.107,0.532c0.103,0.134,0.254,0.213,0.449,0.242
			c0.187,0.026,0.369,0.053,0.557,0.08c-0.035,0.225-0.075,0.449-0.11,0.674c-1.522-0.224-3.042-0.418-4.568-0.584
			c0.029-0.225,0.059-0.451,0.084-0.677c0.198,0.021,0.397,0.043,0.596,0.066c0.23,0.026,0.412-0.012,0.546-0.114
			c0.133-0.103,0.218-0.264,0.244-0.487c0.181-1.35,0.353-2.7,0.527-4.05c0.029-0.232-0.036-0.429-0.196-0.588
			c-0.156-0.159-0.392-0.255-0.68-0.288c-0.111-0.012-0.218-0.024-0.33-0.036c0.024-0.211,0.051-0.422,0.071-0.633
			c1.092,0.066,2.176,0.147,3.268,0.242c0.054,0.433,0.069,0.94,0.049,1.523c0.523-0.476,1.068-0.808,1.623-0.998
			c0.553-0.189,1.117-0.239,1.688-0.148c0.77,0.125,1.347,0.455,1.707,0.98c0.359,0.524,0.456,1.187,0.296,1.982
			c-0.207,1.042-0.416,2.084-0.628,3.125c-0.05,0.24-0.029,0.424,0.075,0.551c0.098,0.128,0.279,0.214,0.54,0.264
			C128.169,142.555,128.301,142.582,128.44,142.607z"/>
		<path fill="#FFFFFF" d="M135.415,137.373c0.87,0.205,1.63,0.565,2.27,1.072c0.641,0.506,1.05,1.069,1.252,1.677
			c0.198,0.609,0.176,1.278-0.046,2c-0.358,1.156-1.09,1.917-2.152,2.305c-1.066,0.388-2.137,0.451-3.235,0.19
			c-0.776-0.185-1.448-0.506-2.017-0.969c-0.569-0.464-0.964-1.002-1.194-1.621c-0.224-0.621-0.271-1.273-0.113-1.961
			c0.231-1.038,0.829-1.827,1.823-2.351C132.994,137.191,134.142,137.073,135.415,137.373z M135.289,138.061
			c-0.572-0.136-1.083-0.022-1.533,0.337c-0.445,0.359-0.797,1.088-1.065,2.183c-0.28,1.138-0.322,1.958-0.106,2.459
			c0.206,0.503,0.58,0.816,1.124,0.945c0.556,0.131,1.062,0.021,1.528-0.334c0.465-0.354,0.863-1.068,1.167-2.146
			c0.315-1.105,0.358-1.92,0.124-2.445C136.296,138.536,135.878,138.2,135.289,138.061z"/>
	</g>
</g>
</svg>
