<?xml version="1.0" encoding="utf-8"?>
<!-- Generator: Adobe Illustrator 16.0.4, SVG Export Plug-In . SVG Version: 6.00 Build 0)  -->
<!DOCTYPE svg PUBLIC "-//W3C//DTD SVG 1.1//EN" "http://www.w3.org/Graphics/SVG/1.1/DTD/svg11.dtd">
<svg version="1.1" id="Livello_1" xmlns="http://www.w3.org/2000/svg" xmlns:xlink="http://www.w3.org/1999/xlink" x="0px" y="0px"
	 width="210px" height="200px" viewBox="0 0 210 200" enable-background="new 0 0 210 200" xml:space="preserve">
<g>
	<circle fill="#FBC02E" cx="105.332" cy="100" r="84"/>
	<circle fill="#FABF2D" cx="105.332" cy="100" r="75.216"/>
	<path fill="#FFFFFF" d="M105.331,177.717c-42.852,0-77.715-34.864-77.715-77.717c0-42.854,34.863-77.717,77.715-77.717
		c42.854,0,77.717,34.863,77.717,77.717C183.048,142.853,148.185,177.717,105.331,177.717z M105.331,27.283
		c-40.095,0-72.715,32.62-72.715,72.717c0,40.096,32.62,72.717,72.715,72.717c40.097,0,72.717-32.621,72.717-72.717
		C178.048,59.903,145.428,27.283,105.331,27.283z"/>
	<path fill="#FFFFFF" d="M100.886,115.299H83.832l0.474-43.506c-0.551-4.04-3.01-6.182-6.093-6.182c-2.601,0-4.729,1.54-5.668,4.439
		l-0.713,45.248H52.239h-0.036c-3.244,0-6.13,2.607-6.13,6.072s2.431,6.689,5.675,6.689c0.036,0,0.055,0.002,0.084,0.003v0.235
		h19.483h12.547h17.023c3.381,0,5.62-3.533,5.62-6.907C106.506,118.019,104.267,116.299,100.886,115.299z M51.849,128.063
		C52.379,128.081,51.925,128.215,51.849,128.063L51.849,128.063z"/>
	<g>
		<path fill="#FFFFFF" d="M143.179,86.046c-4.127-0.584-8.157-0.06-11.805,1.34l-5.002-10.106l5.697-14.444l-13.122-1.856
			c0,0-4.513,2.896-0.646,4.569c2.888,0.409,7.321,1.035,7.321,1.035l-2.617,6.617l-31.189-4.41l3.893-9.546
			c0,0,4.04,0.354,8.083,1.144c3.159-2.052,0.647-4.571,0.647-4.571l-21.338-3.018c0,0-3.324,1.685-0.646,4.572
			c4.672,0.662,8.547,1.209,8.547,1.209l-6.043,14.824l-0.135,12.552c0.515-1.266,0.843-2.071,0.843-2.071
			c6.745,3.763,10.848,11.399,9.703,19.49c-0.633,4.478-2.778,8.369-5.834,11.256l6.121,0.011c2.209-3.045,3.731-6.652,4.293-10.63
			c1.447-10.223-3.878-19.858-12.533-24.421l2.892-7.094l19.762,33.538c0,0,0.828,1.862,2.876,2.151
			c2.043,0.289,3.078,0.435,3.078,0.435c-0.535,12.113,8.229,22.908,20.479,24.642c13.021,1.841,25.108-7.251,26.951-20.272
			C165.293,99.977,156.199,87.888,143.179,86.046z M135.838,106.751l-14.559-2.057c1.243-4.677,4.18-8.56,8.029-11.092
			L135.838,106.751z M112.206,100.562L96.633,74.126l24.637,3.484L112.206,100.562z M115.833,103.931l8.251-20.877l3.156,6.381
			c-5.156,3.221-9.066,8.376-10.571,14.615L115.833,103.931z M158.887,112.346c-1.483,10.492-11.229,17.832-21.731,16.349
			c-9.735-1.377-16.72-9.842-16.523-19.421c0,0,15.174,2.146,19.176,2.711c3.999,0.566,3.088-1.368,3.088-1.368l-9.456-19.076
			c2.828-1.008,5.933-1.374,9.1-0.928C153.043,92.099,160.371,101.853,158.887,112.346z"/>
		<path fill="#FFFFFF" d="M63.133,114.623c-4.361-4.143-6.743-10.248-5.84-16.644c1.127-7.966,7.024-14.097,14.387-15.943
			l0.075-4.759c-9.683,1.903-17.571,9.747-19.029,20.056c-0.897,6.346,0.81,12.466,4.296,17.29H63.133z"/>
	</g>
</g>
<path fill="#FDD835" d="M195.376,168.142c-2.571-5.81-5.42-11.587-8.546-17.312c5.997-2.563,12.202-4.905,18.603-7.004
	c-64.112-26.519-136.188-26.351-200.2,0.503c0.039,0.095,0.079,0.188,0.118,0.283c6.606,2.131,13.005,4.522,19.184,7.149
	c-2.928,5.42-5.607,10.887-8.038,16.382C73.766,144.454,138.105,144.453,195.376,168.142L195.376,168.142L195.376,168.142z"/>
<path fill="#FFFFFF" d="M12.433,170.961l1.515-3.425c2.23-5.043,4.687-10.092,7.31-15.03c-5.702-2.375-11.596-4.547-17.544-6.466
	l-0.655-0.212l-0.967-2.302l1.384-0.58c32.241-13.525,66.318-20.384,101.284-20.384c34.513,0,68.182,6.688,100.069,19.878
	l3.745,1.549l-3.851,1.263c-5.744,1.883-11.443,4.005-16.965,6.316c2.815,5.241,5.439,10.604,7.812,15.966l1.516,3.425l-3.461-1.432
	c-28.317-11.713-58.216-17.651-88.863-17.651c-30.65,0-60.55,5.939-88.869,17.653L12.433,170.961z M8.039,144.312
	c5.4,1.835,10.736,3.871,15.904,6.069l1.516,0.645l-0.782,1.448c-2.283,4.226-4.444,8.542-6.446,12.873
	c27.648-10.932,56.74-16.472,86.531-16.472c29.789,0,58.878,5.539,86.525,16.47c-2.148-4.645-4.479-9.271-6.951-13.796l-0.791-1.45
	l1.519-0.648c4.844-2.071,9.833-3.999,14.879-5.752c-30.412-12.038-62.411-18.137-95.184-18.137
	C71.421,125.562,38.901,131.868,8.039,144.312z"/>
<g>
	<g>
		<path fill="#FFFFFF" d="M61.665,133.867c2.583-0.726,5.167-1.384,7.749-1.976c2.295,3.161,4.514,6.363,6.65,9.604
			c0.545-3.781,1.237-7.567,2.06-11.352c2.644-0.455,5.289-0.839,7.932-1.157c0.04,0.331,0.081,0.662,0.122,0.992
			c-0.571,0.068-1.14,0.14-1.71,0.215c-0.423,0.056-0.706,0.16-0.847,0.31c-0.14,0.148-0.189,0.38-0.145,0.692
			c0.576,4.008,1.178,8.013,1.808,12.017c0.046,0.305,0.16,0.503,0.333,0.595c0.26,0.137,0.588,0.18,0.985,0.128
			c0.456-0.06,0.91-0.117,1.366-0.172c0.045,0.331,0.09,0.661,0.136,0.992c-2.894,0.349-5.784,0.79-8.672,1.325
			c-0.069-0.327-0.14-0.654-0.209-0.98c0.549-0.102,1.099-0.2,1.648-0.295c0.302-0.052,0.518-0.169,0.646-0.35
			c0.13-0.182,0.169-0.411,0.118-0.686c-0.805-4.269-1.572-8.54-2.303-12.814c-1.182,5.229-2.113,10.463-2.751,15.685
			c-0.339,0.07-0.678,0.142-1.017,0.214c-3.014-4.498-6.195-8.917-9.521-13.253c1.011,3.748,2.062,7.492,3.161,11.23
			c0.19,0.644,0.577,1.112,1.155,1.408c0.578,0.297,1.309,0.382,2.196,0.262c0.089,0.323,0.178,0.646,0.266,0.97
			c-2.103,0.495-4.202,1.041-6.299,1.638c-0.108-0.319-0.214-0.638-0.321-0.957c0.781-0.29,1.323-0.711,1.629-1.272
			c0.309-0.561,0.363-1.183,0.154-1.867c-1.004-3.299-1.971-6.602-2.904-9.908c-0.12-0.422-0.288-0.679-0.508-0.77
			c-0.22-0.09-0.587-0.067-1.105,0.073c-0.503,0.137-1.008,0.275-1.511,0.417C61.858,134.507,61.761,134.187,61.665,133.867z"/>
		<path fill="#FFFFFF" d="M97.727,127.63c2.615,4.64,5.017,9.347,7.173,14.104c0.188,0.402,0.387,0.675,0.604,0.819
			c0.217,0.145,0.502,0.219,0.86,0.223c0.21,0.003,0.418,0.007,0.628,0.01c-0.007,0.333-0.013,0.666-0.02,0.999
			c-2.67-0.046-5.338-0.015-8.007,0.094c-0.015-0.333-0.031-0.666-0.045-0.999c0.252-0.01,0.504-0.02,0.755-0.028
			c0.598-0.021,1.006-0.093,1.229-0.221c0.221-0.128,0.33-0.291,0.324-0.492c-0.003-0.157-0.055-0.339-0.156-0.544
			c-0.474-0.969-0.958-1.937-1.453-2.902c-2.218,0.077-4.436,0.206-6.653,0.386c-0.171,0.463-0.339,0.926-0.506,1.39
			c-0.208,0.578-0.297,1.004-0.27,1.275c0.045,0.464,0.272,0.822,0.672,1.081c0.402,0.256,0.922,0.36,1.568,0.312
			c0.182-0.013,0.366-0.027,0.548-0.039c0.025,0.332,0.052,0.664,0.078,0.996c-2.16,0.15-4.319,0.352-6.479,0.604
			c-0.044-0.33-0.088-0.661-0.132-0.991c0.124-0.015,0.248-0.03,0.373-0.043c0.42-0.048,0.773-0.21,1.064-0.486
			c0.411-0.389,0.714-0.863,0.907-1.421c1.587-4.715,3.425-9.406,5.479-14.055C96.753,127.675,97.24,127.651,97.727,127.63z
			 M95.874,131.75c-0.879,2.073-1.714,4.153-2.502,6.239c1.905-0.147,3.81-0.257,5.714-0.331
			C98.056,135.678,96.983,133.709,95.874,131.75z"/>
		<path fill="#FFFFFF" d="M108.657,127.93c3.337,0.088,6.672,0.285,10.011,0.589c1.627,0.149,2.935,0.468,3.915,0.932
			c0.982,0.465,1.678,1.032,2.093,1.689c0.413,0.658,0.565,1.35,0.459,2.073c-0.167,1.156-0.916,2.003-2.216,2.569
			c-0.99,0.434-2.435,0.62-4.344,0.602c0.934,0.226,1.64,0.522,2.112,0.874c0.474,0.352,0.868,0.845,1.177,1.477
			c0.409,0.828,0.692,1.8,0.854,2.913c0.099,0.714,0.206,1.17,0.327,1.367c0.122,0.197,0.276,0.308,0.463,0.334
			c0.514,0.07,0.922-0.505,1.224-1.73c0.349,0.05,0.696,0.102,1.044,0.154c-0.301,1.304-0.789,2.197-1.446,2.686
			c-0.658,0.488-1.491,0.663-2.512,0.534c-0.729-0.092-1.295-0.299-1.701-0.627c-0.408-0.327-0.695-0.77-0.865-1.328
			c-0.104-0.321-0.212-1.061-0.337-2.219c-0.143-1.354-0.317-2.271-0.507-2.75c-0.192-0.479-0.469-0.847-0.83-1.102
			c-0.362-0.256-0.825-0.408-1.39-0.452c-0.445-0.035-0.891-0.07-1.335-0.101c-0.147,1.946-0.299,3.893-0.453,5.839
			c-0.021,0.257,0.045,0.459,0.198,0.607c0.218,0.194,0.482,0.305,0.792,0.329c0.519,0.041,1.039,0.084,1.558,0.131
			c-0.034,0.331-0.068,0.662-0.101,0.994c-2.878-0.258-5.759-0.426-8.64-0.502c0.01-0.333,0.021-0.666,0.03-0.999
			c0.45,0.012,0.9,0.026,1.35,0.042c0.349,0.013,0.616-0.061,0.803-0.222c0.186-0.161,0.288-0.39,0.303-0.691
			c0.197-3.988,0.384-7.977,0.563-11.966c0.014-0.329-0.064-0.574-0.238-0.736c-0.174-0.16-0.428-0.249-0.763-0.261
			c-0.541-0.02-1.081-0.037-1.623-0.051C108.639,128.596,108.648,128.264,108.657,127.93z M114.925,135.449
			c0.513,0.037,1.029,0.076,1.542,0.117c1.365,0.11,2.472-0.087,3.333-0.61c0.647-0.402,1.038-1.147,1.164-2.243
			c0.116-1.01-0.102-1.783-0.66-2.312c-0.558-0.53-1.593-0.87-3.096-0.995c-0.807-0.066-1.319-0.03-1.537,0.102
			c-0.216,0.132-0.341,0.452-0.379,0.959C115.173,132.128,115.049,133.789,114.925,135.449z"/>
		<path fill="#FFFFFF" d="M130.051,129.981c5.597,0.927,11.203,2.161,16.813,3.713c-0.43,1.977-0.878,3.95-1.345,5.921
			c-0.377-0.106-0.755-0.211-1.132-0.314c0.109-1.313,0.045-2.377-0.187-3.19c-0.232-0.813-0.591-1.439-1.074-1.876
			c-0.483-0.438-1.063-0.739-1.734-0.902c-0.388-0.094-0.688-0.097-0.901-0.01c-0.213,0.085-0.35,0.25-0.411,0.495
			c-0.994,3.984-2.034,7.965-3.122,11.94c-0.062,0.23-0.034,0.436,0.084,0.62c0.119,0.183,0.289,0.302,0.513,0.356
			c0.648,0.158,1.297,0.32,1.946,0.487c-0.096,0.322-0.194,0.643-0.291,0.964c-3.027-0.78-6.058-1.456-9.093-2.028
			c0.072-0.326,0.143-0.653,0.213-0.979c0.619,0.117,1.238,0.237,1.856,0.362c0.278,0.057,0.515,0.03,0.713-0.08
			c0.196-0.11,0.325-0.284,0.381-0.521c0.955-3.98,1.868-7.965,2.741-11.953c0.062-0.28,0.014-0.506-0.142-0.677
			c-0.156-0.17-0.432-0.297-0.828-0.376c-2.201-0.438-3.997,0.952-5.342,4.119c-0.367-0.062-0.729-0.123-1.096-0.183
			C129.097,133.906,129.575,131.943,130.051,129.981z"/>
	</g>
</g>
</svg>
