<?xml version="1.0" encoding="utf-8"?>
<!-- Generator: Adobe Illustrator 16.0.4, SVG Export Plug-In . SVG Version: 6.00 Build 0)  -->
<!DOCTYPE svg PUBLIC "-//W3C//DTD SVG 1.1//EN" "http://www.w3.org/Graphics/SVG/1.1/DTD/svg11.dtd">
<svg version="1.1" id="Livello_1" xmlns="http://www.w3.org/2000/svg" xmlns:xlink="http://www.w3.org/1999/xlink" x="0px" y="0px"
	 width="210px" height="200px" viewBox="0 0 210 200" enable-background="new 0 0 210 200" xml:space="preserve">
<g>
	<g>
		<circle fill="#FBC02E" cx="105" cy="100" r="84"/>
		<circle fill="#FABF2D" cx="105" cy="100" r="75.216"/>
		<path fill="#FFFFFF" d="M104.999,177.717c-42.852,0-77.715-34.864-77.715-77.717s34.863-77.717,77.715-77.717
			c42.853,0,77.717,34.864,77.717,77.717S147.852,177.717,104.999,177.717z M104.999,27.283c-40.095,0-72.715,32.621-72.715,72.717
			s32.62,72.717,72.715,72.717c40.096,0,72.717-32.621,72.717-72.717S145.095,27.283,104.999,27.283z"/>
		<path fill="#FFFFFF" d="M100.554,115.299H83.5l0.474-43.506c-0.551-4.04-3.01-6.182-6.093-6.182c-2.6,0-4.729,1.54-5.668,4.439
			L71.5,115.299H51.907h-0.036c-3.245,0-6.13,2.607-6.13,6.072c0,3.465,2.431,6.689,5.675,6.689c0.036,0,0.054,0.002,0.084,0.003
			v0.236h19.483H83.53h17.023c3.381,0,5.62-3.534,5.62-6.908C106.174,118.019,103.935,116.299,100.554,115.299z M51.516,128.064
			C52.047,128.082,51.592,128.215,51.516,128.064L51.516,128.064z"/>
		<g>
			<path fill="#FFFFFF" d="M142.847,86.046c-4.127-0.584-8.157-0.06-11.805,1.339L126.04,77.28l5.697-14.445l-13.122-1.856
				c0,0-4.513,2.895-0.646,4.569c2.888,0.409,7.321,1.035,7.321,1.035l-2.617,6.618l-31.19-4.41l3.893-9.546
				c0,0,4.04,0.353,8.083,1.144c3.159-2.052,0.647-4.572,0.647-4.572l-21.338-3.017c0,0-3.324,1.685-0.646,4.572
				c4.672,0.662,8.547,1.209,8.547,1.209l-6.043,14.824l-0.135,12.552c0.515-1.266,0.843-2.071,0.843-2.071
				c6.746,3.762,10.848,11.399,9.703,19.49c-0.633,4.477-2.778,8.369-5.834,11.256l6.121,0.01c2.209-3.044,3.731-6.652,4.293-10.629
				c1.447-10.223-3.878-19.858-12.533-24.421l2.891-7.094l19.762,33.538c0,0,0.828,1.862,2.875,2.151
				c2.043,0.289,3.078,0.435,3.078,0.435c-0.535,12.113,8.229,22.908,20.479,24.642c13.021,1.841,25.109-7.251,26.951-20.272
				C164.96,99.977,155.867,87.888,142.847,86.046z M135.505,106.751l-14.558-2.057c1.243-4.677,4.18-8.56,8.029-11.092
				L135.505,106.751z M111.874,100.563L96.3,74.126l24.637,3.484L111.874,100.563z M115.501,103.931l8.251-20.877l3.156,6.38
				c-5.156,3.221-9.066,8.376-10.571,14.616L115.501,103.931z M158.554,112.346c-1.483,10.493-11.229,17.833-21.731,16.349
				c-9.735-1.377-16.72-9.842-16.523-19.421c0,0,15.173,2.146,19.175,2.711c3.999,0.566,3.088-1.368,3.088-1.368l-9.457-19.076
				c2.828-1.008,5.933-1.375,9.1-0.928C152.711,92.099,160.039,101.853,158.554,112.346z"/>
			<path fill="#FFFFFF" d="M62.8,114.623c-4.361-4.142-6.743-10.248-5.839-16.643c1.127-7.966,7.024-14.097,14.387-15.944
				l0.075-4.758c-9.682,1.903-17.571,9.747-19.029,20.055c-0.897,6.346,0.809,12.466,4.295,17.29H62.8z"/>
		</g>
	</g>
	<path fill="#FDD835" d="M195.043,180.18c-2.57-7.344-5.419-14.647-8.546-21.884c5.997-3.241,12.202-6.201,18.603-8.854
		c-64.111-33.523-136.188-33.311-200.2,0.636c0.04,0.12,0.079,0.238,0.119,0.358c6.605,2.694,13.005,5.717,19.183,9.038
		c-2.928,6.851-5.606,13.762-8.037,20.708C73.434,150.236,137.774,150.235,195.043,180.18L195.043,180.18L195.043,180.18z"/>
	<path fill="#FFFFFF" d="M12.101,183.744l1.515-4.33c2.23-6.375,4.687-12.757,7.31-19c-5.702-3.002-11.596-5.748-17.544-8.173
		l-0.655-0.268l-0.967-2.91l1.384-0.733c32.241-17.098,66.318-25.768,101.284-25.768c34.513,0,68.182,8.454,100.069,25.128
		l3.745,1.958l-3.851,1.596c-5.744,2.38-11.443,5.063-16.965,7.985c2.815,6.625,5.439,13.405,7.812,20.183l1.516,4.33l-3.461-1.81
		c-28.317-14.807-58.216-22.314-88.863-22.314c-30.65,0-60.55,7.508-88.869,22.316L12.101,183.744z M7.707,150.057
		c5.4,2.32,10.736,4.894,15.904,7.672l1.516,0.815l-0.782,1.831c-2.283,5.342-4.444,10.798-6.446,16.273
		c27.648-13.819,56.74-20.822,86.531-20.822c29.789,0,58.878,7.002,86.525,20.82c-2.148-5.872-4.479-11.721-6.951-17.44
		l-0.791-1.833l1.519-0.82c4.844-2.619,9.833-5.055,14.879-7.271c-30.412-15.217-62.411-22.927-95.184-22.927
		C71.089,126.355,38.569,134.326,7.707,150.057z"/>
	<g>
		<path fill="#FFFFFF" d="M48.833,137.899c0.167-0.331,0.334-0.66,0.503-0.989c0.182-0.044,0.364-0.088,0.545-0.132
			c0.29,1.044,0.582,2.088,0.876,3.132c-0.227,0.055-0.454,0.11-0.681,0.166c-0.589-0.816-1.271-1.368-2.05-1.651
			c-0.776-0.283-1.566-0.321-2.364-0.112c-0.681,0.178-1.193,0.473-1.535,0.883c-0.342,0.41-0.451,0.821-0.332,1.231
			c0.072,0.246,0.22,0.447,0.447,0.605c0.226,0.158,0.546,0.26,0.958,0.306c0.412,0.045,1.103,0.022,2.07-0.062
			c1.133-0.095,1.923-0.115,2.375-0.07c0.717,0.075,1.29,0.272,1.718,0.586c0.427,0.312,0.712,0.752,0.858,1.315
			c0.218,0.843,0.046,1.596-0.512,2.266c-0.673,0.808-1.616,1.364-2.842,1.682c-1.13,0.292-2.255,0.24-3.393-0.159
			c-0.197,0.376-0.392,0.752-0.587,1.129c-0.181,0.051-0.361,0.101-0.541,0.152c-0.348-1.113-0.694-2.228-1.037-3.341
			c0.219-0.062,0.438-0.123,0.657-0.184c1.232,1.729,2.821,2.323,4.782,1.814c0.802-0.208,1.382-0.519,1.744-0.94
			c0.362-0.42,0.482-0.862,0.357-1.326c-0.087-0.324-0.26-0.571-0.517-0.741c-0.257-0.17-0.613-0.271-1.068-0.3
			c-0.248-0.016-0.847,0.01-1.798,0.086c-1.283,0.097-2.221,0.105-2.813,0.013c-0.593-0.091-1.062-0.272-1.411-0.543
			c-0.348-0.271-0.599-0.65-0.746-1.138c-0.247-0.822-0.104-1.589,0.438-2.298c0.54-0.709,1.4-1.221,2.569-1.527
			C46.629,137.46,47.743,137.508,48.833,137.899z"/>
		<path fill="#FFFFFF" d="M54.568,136.837c0.226-0.05,0.453-0.1,0.679-0.15c0.183,0.795,0.367,1.59,0.552,2.385
			c0.778-0.171,1.556-0.338,2.334-0.5c0.049,0.223,0.099,0.447,0.148,0.67c-0.775,0.162-1.551,0.329-2.326,0.499
			c0.287,1.229,0.577,2.458,0.87,3.686c0.058,0.243,0.179,0.415,0.358,0.518c0.18,0.101,0.391,0.126,0.632,0.074
			c0.689-0.149,0.929-0.766,0.725-1.854c0.22-0.046,0.44-0.093,0.66-0.139c0.113,0.579,0.109,1.064-0.013,1.456
			c-0.122,0.392-0.348,0.723-0.679,0.992c-0.33,0.269-0.729,0.456-1.197,0.56c-0.411,0.09-0.783,0.098-1.119,0.026
			c-0.334-0.072-0.627-0.227-0.875-0.464c-0.248-0.237-0.413-0.519-0.494-0.843c-0.295-1.187-0.588-2.373-0.878-3.561
			c-0.416,0.095-0.833,0.192-1.25,0.29c-0.047-0.189-0.095-0.378-0.142-0.568c0.748-0.263,1.285-0.639,1.621-1.137
			C54.509,138.279,54.641,137.634,54.568,136.837z"/>
		<path fill="#FFFFFF" d="M68.565,141.913c0.13,0.133,0.26,0.266,0.389,0.399c-0.267,0.225-0.514,0.391-0.739,0.498
			c-0.224,0.107-0.479,0.185-0.761,0.234c-0.421,0.073-0.774,0.057-1.062-0.05c-0.289-0.105-0.582-0.349-0.879-0.731
			c-0.419,0.512-0.811,0.88-1.176,1.106c-0.367,0.225-0.797,0.386-1.295,0.482c-0.689,0.133-1.256,0.105-1.701-0.087
			c-0.444-0.191-0.715-0.493-0.806-0.907c-0.138-0.625,0.114-1.202,0.759-1.722c0.516-0.413,1.727-0.965,3.642-1.622
			c-0.054-0.281-0.107-0.561-0.161-0.842c-0.063-0.333-0.248-0.582-0.553-0.744c-0.307-0.161-0.685-0.2-1.132-0.116
			c-0.341,0.064-0.631,0.181-0.869,0.353c-0.159,0.112-0.231,0.208-0.215,0.286c0.009,0.042,0.054,0.099,0.137,0.169
			c0.177,0.159,0.285,0.331,0.322,0.514c0.047,0.233-0.008,0.439-0.164,0.617c-0.154,0.179-0.387,0.298-0.695,0.358
			c-0.33,0.064-0.61,0.04-0.842-0.075c-0.232-0.117-0.376-0.297-0.427-0.54c-0.086-0.402,0.103-0.81,0.566-1.222
			c0.579-0.512,1.363-0.862,2.346-1.045c0.741-0.138,1.417-0.16,2.026-0.071c0.391,0.056,0.728,0.215,1.011,0.478
			c0.283,0.262,0.462,0.616,0.542,1.057c0.179,0.99,0.36,1.98,0.543,2.97c0.041,0.224,0.122,0.379,0.237,0.463
			c0.117,0.083,0.26,0.11,0.433,0.081C68.184,142.178,68.357,142.081,68.565,141.913z M65.041,140.055
			c-1.04,0.313-1.721,0.636-2.043,0.958c-0.323,0.322-0.44,0.69-0.354,1.101c0.06,0.291,0.193,0.498,0.4,0.62
			c0.207,0.122,0.467,0.154,0.78,0.095c0.486-0.092,0.86-0.313,1.123-0.669c0.264-0.354,0.348-0.787,0.25-1.299
			C65.144,140.592,65.092,140.323,65.041,140.055z"/>
		<path fill="#FFFFFF" d="M69.561,136.473c2.035-0.322,4.069-0.616,6.103-0.884c0.026,0.191,0.052,0.382,0.078,0.573
			c-1.184,1.761-2.335,3.531-3.452,5.309c0.645-0.097,1.29-0.19,1.935-0.281c0.419-0.06,0.749-0.238,0.986-0.536
			c0.239-0.297,0.378-0.784,0.418-1.46c0.22-0.029,0.44-0.059,0.66-0.087c0.061,0.791,0.123,1.581,0.187,2.372
			c-2.136,0.28-4.273,0.592-6.41,0.936c-0.033-0.194-0.066-0.389-0.1-0.582c1.095-1.79,2.226-3.571,3.389-5.345
			c-0.553,0.079-1.105,0.159-1.658,0.242c-0.386,0.057-0.688,0.225-0.903,0.501c-0.216,0.277-0.334,0.716-0.352,1.316
			c-0.223,0.034-0.444,0.069-0.666,0.104C69.704,137.925,69.631,137.199,69.561,136.473z"/>
		<path fill="#FFFFFF" d="M77.384,135.37c1.04-0.169,2.081-0.332,3.123-0.486c0.188,1.672,0.38,3.344,0.574,5.016
			c0.016,0.135,0.078,0.233,0.187,0.296c0.11,0.063,0.267,0.083,0.473,0.062c0.154-0.018,0.309-0.034,0.464-0.049
			c0.021,0.195,0.043,0.391,0.064,0.586c-1.374,0.144-2.747,0.302-4.121,0.472c-0.025-0.195-0.051-0.39-0.077-0.585
			c0.152-0.019,0.304-0.038,0.456-0.056c0.246-0.03,0.412-0.099,0.5-0.208c0.088-0.109,0.118-0.282,0.088-0.522
			c-0.143-1.139-0.284-2.277-0.424-3.416c-0.026-0.214-0.121-0.371-0.284-0.471c-0.162-0.1-0.375-0.134-0.635-0.102
			c-0.105,0.013-0.211,0.025-0.316,0.039C77.432,135.752,77.408,135.561,77.384,135.37z M78.922,131.733
			c0.341-0.039,0.646,0.028,0.913,0.2c0.267,0.173,0.416,0.403,0.449,0.688c0.031,0.286-0.063,0.542-0.284,0.769
			c-0.221,0.227-0.5,0.359-0.837,0.398c-0.345,0.039-0.65-0.027-0.918-0.2c-0.267-0.173-0.418-0.399-0.454-0.68
			c-0.035-0.286,0.058-0.543,0.278-0.772S78.574,131.774,78.922,131.733z"/>
		<path fill="#FFFFFF" d="M86.862,134.065c0.791-0.065,1.529,0.023,2.21,0.263c0.682,0.239,1.196,0.581,1.548,1.023
			c0.352,0.44,0.547,0.988,0.589,1.637c0.068,1.039-0.291,1.861-1.072,2.474c-0.781,0.612-1.684,0.958-2.719,1.042
			c-0.733,0.061-1.416-0.024-2.052-0.253c-0.637-0.229-1.145-0.568-1.523-1.018c-0.378-0.45-0.603-0.978-0.666-1.583
			c-0.095-0.914,0.204-1.718,0.902-2.407C84.779,134.554,85.709,134.159,86.862,134.065z M86.958,134.663
			c-0.522,0.043-0.921,0.271-1.194,0.683c-0.274,0.413-0.364,1.104-0.274,2.073c0.094,1.008,0.309,1.688,0.643,2.043
			c0.335,0.356,0.755,0.512,1.265,0.47c0.519-0.042,0.921-0.271,1.208-0.688c0.289-0.417,0.396-1.105,0.323-2.067
			c-0.076-0.988-0.288-1.665-0.639-2.031C87.941,134.78,87.495,134.618,86.958,134.663z"/>
		<path fill="#FFFFFF" d="M101.9,139.015c0.003,0.196,0.007,0.393,0.011,0.589c-1.376,0.022-2.752,0.058-4.127,0.105
			c-0.008-0.196-0.015-0.393-0.021-0.589c0.144-0.006,0.288-0.01,0.433-0.015c0.231-0.008,0.4-0.064,0.51-0.169
			c0.109-0.104,0.163-0.255,0.156-0.45c-0.026-0.858-0.053-1.717-0.079-2.575c-0.014-0.44-0.143-0.773-0.387-1.001
			c-0.244-0.228-0.558-0.335-0.941-0.321c-0.523,0.019-0.943,0.202-1.256,0.546c-0.315,0.345-0.457,0.838-0.428,1.477
			c0.03,0.661,0.059,1.323,0.089,1.984c0.009,0.195,0.074,0.341,0.194,0.438c0.12,0.097,0.271,0.141,0.451,0.134
			c0.174-0.007,0.348-0.014,0.522-0.021c0.008,0.196,0.016,0.394,0.024,0.59c-1.43,0.054-2.86,0.122-4.29,0.205
			c-0.012-0.197-0.024-0.393-0.036-0.589c0.186-0.011,0.372-0.021,0.559-0.031c0.216-0.012,0.376-0.072,0.48-0.179
			c0.105-0.107,0.153-0.259,0.142-0.454c-0.064-1.177-0.127-2.354-0.191-3.53c-0.01-0.203-0.101-0.361-0.27-0.472
			c-0.17-0.112-0.387-0.161-0.654-0.146c-0.1,0.006-0.2,0.011-0.3,0.017c-0.011-0.184-0.022-0.368-0.032-0.552
			c0.98-0.101,1.96-0.194,2.941-0.282c0.122,0.358,0.221,0.788,0.299,1.289c0.387-0.487,0.811-0.856,1.268-1.105
			c0.457-0.25,0.944-0.383,1.461-0.399c0.702-0.021,1.262,0.161,1.676,0.544c0.409,0.384,0.62,0.927,0.635,1.631
			c0.02,0.918,0.04,1.835,0.061,2.753c0.004,0.212,0.064,0.363,0.178,0.454c0.116,0.092,0.295,0.135,0.541,0.131
			C101.645,139.019,101.773,139.017,101.9,139.015z"/>
		<path fill="#FFFFFF" d="M110.216,136.692c-1.625-0.034-3.251-0.051-4.876-0.049c0.014,0.834,0.21,1.447,0.585,1.844
			c0.375,0.397,0.854,0.597,1.44,0.601c0.42,0.004,0.82-0.093,1.2-0.291c0.38-0.197,0.774-0.56,1.184-1.085
			c0.178,0.098,0.355,0.197,0.533,0.296c-0.433,0.625-0.918,1.071-1.458,1.336c-0.54,0.264-1.194,0.393-1.966,0.388
			c-1.124-0.007-2.032-0.3-2.731-0.889c-0.7-0.588-1.06-1.343-1.07-2.271c-0.011-0.926,0.336-1.706,1.049-2.331
			c0.711-0.627,1.596-0.94,2.642-0.935c0.725,0.004,1.346,0.136,1.863,0.393c0.515,0.256,0.913,0.628,1.191,1.114
			C110.08,135.301,110.217,135.927,110.216,136.692z M105.34,136.066c0.775-0.001,1.551,0.003,2.326,0.01
			c0.218,0.002,0.374-0.043,0.469-0.136c0.095-0.092,0.145-0.26,0.147-0.506c0.007-0.49-0.12-0.872-0.382-1.143
			c-0.262-0.272-0.598-0.41-1.008-0.412c-0.487-0.003-0.859,0.178-1.116,0.542C105.519,134.785,105.374,135.333,105.34,136.066z"/>
		<path fill="#FFFFFF" d="M116.398,130.444c3.329,0.157,6.658,0.385,9.989,0.687c-0.061,1.079-0.121,2.157-0.184,3.235
			c-0.226-0.021-0.452-0.041-0.678-0.061c-0.031-1.005-0.25-1.719-0.657-2.137c-0.407-0.418-1.069-0.666-1.985-0.735
			c-0.558-0.042-1.115-0.081-1.672-0.12c-0.244-0.017-0.425,0.014-0.544,0.091c-0.117,0.078-0.18,0.194-0.19,0.35
			c-0.069,1.045-0.138,2.091-0.208,3.135c0.2,0.014,0.399,0.026,0.598,0.04c1.193,0.082,1.928-0.463,2.209-1.647
			c0.222,0.016,0.444,0.034,0.666,0.052c-0.117,1.44-0.235,2.881-0.355,4.321c-0.219-0.018-0.436-0.034-0.653-0.051
			c0.018-0.465-0.042-0.837-0.18-1.117c-0.139-0.28-0.341-0.507-0.612-0.68c-0.269-0.172-0.589-0.271-0.958-0.296
			c-0.251-0.018-0.503-0.034-0.753-0.05c-0.077,1.137-0.154,2.275-0.232,3.414c-0.012,0.182,0.033,0.318,0.142,0.41
			c0.153,0.134,0.34,0.208,0.56,0.223c0.343,0.023,0.687,0.048,1.03,0.074c-0.015,0.196-0.031,0.392-0.045,0.588
			c-1.914-0.14-3.828-0.255-5.742-0.345c0.01-0.197,0.02-0.393,0.03-0.589c0.321,0.015,0.642,0.031,0.963,0.047
			c0.226,0.012,0.402-0.032,0.532-0.128c0.128-0.097,0.197-0.223,0.207-0.38c0.136-2.387,0.271-4.774,0.403-7.16
			c0.01-0.183-0.046-0.313-0.166-0.391c-0.12-0.079-0.375-0.129-0.761-0.148c-0.26-0.013-0.521-0.026-0.78-0.037
			C116.379,130.837,116.389,130.641,116.398,130.444z"/>
		<path fill="#FFFFFF" d="M127.72,131.255c3.331,0.32,6.664,0.713,9.997,1.178c-0.113,1.075-0.229,2.149-0.347,3.223
			c-0.227-0.032-0.453-0.063-0.679-0.094c0.02-1.006-0.165-1.729-0.553-2.167c-0.388-0.438-1.042-0.717-1.959-0.832
			c-0.558-0.07-1.115-0.137-1.673-0.203c-0.244-0.028-0.428-0.007-0.55,0.064c-0.122,0.071-0.19,0.185-0.208,0.341
			c-0.122,1.04-0.243,2.081-0.366,3.121c0.199,0.023,0.399,0.046,0.599,0.069c1.193,0.14,1.959-0.368,2.302-1.537
			c0.222,0.027,0.444,0.056,0.667,0.084c-0.19,1.433-0.383,2.866-0.578,4.298c-0.217-0.028-0.436-0.056-0.653-0.083
			c0.042-0.464,0-0.839-0.124-1.125c-0.124-0.286-0.317-0.523-0.579-0.708c-0.263-0.185-0.578-0.3-0.948-0.344
			c-0.25-0.03-0.503-0.059-0.753-0.087c-0.135,1.133-0.271,2.266-0.408,3.399c-0.021,0.181,0.018,0.318,0.121,0.416
			c0.146,0.142,0.331,0.225,0.551,0.251c0.344,0.04,0.687,0.081,1.03,0.123c-0.025,0.195-0.05,0.39-0.076,0.585
			c-1.915-0.234-3.83-0.444-5.743-0.628c0.02-0.195,0.04-0.392,0.06-0.587c0.321,0.031,0.643,0.062,0.964,0.095
			c0.225,0.022,0.405-0.012,0.54-0.102c0.133-0.09,0.209-0.213,0.226-0.37c0.261-2.377,0.517-4.755,0.768-7.133
			c0.019-0.182-0.03-0.314-0.147-0.398c-0.117-0.084-0.37-0.146-0.756-0.186c-0.26-0.026-0.521-0.051-0.78-0.077
			C127.682,131.647,127.701,131.451,127.72,131.255z"/>
		<path fill="#FFFFFF" d="M145.977,134.471c0.287-0.233,0.575-0.466,0.864-0.698c0.181,0.032,0.362,0.065,0.545,0.098
			c-0.176,1.068-0.354,2.135-0.534,3.202c-0.227-0.042-0.454-0.083-0.681-0.123c-0.182-0.979-0.56-1.755-1.136-2.325
			c-0.575-0.568-1.264-0.919-2.061-1.049c-0.678-0.11-1.256-0.047-1.729,0.189c-0.475,0.237-0.743,0.567-0.809,0.989
			c-0.04,0.251,0.007,0.494,0.14,0.728s0.374,0.454,0.719,0.661c0.345,0.206,0.967,0.462,1.864,0.773
			c1.048,0.368,1.763,0.667,2.146,0.889c0.61,0.357,1.038,0.766,1.287,1.223c0.249,0.456,0.315,0.969,0.203,1.54
			c-0.168,0.852-0.652,1.467-1.444,1.85c-0.952,0.461-2.037,0.586-3.264,0.382c-1.129-0.188-2.1-0.687-2.929-1.503
			c-0.338,0.262-0.674,0.525-1.008,0.789c-0.181-0.027-0.361-0.054-0.542-0.081c0.179-1.146,0.356-2.292,0.532-3.44
			c0.219,0.032,0.438,0.064,0.656,0.097c0.345,2.06,1.482,3.232,3.444,3.558c0.801,0.133,1.454,0.084,1.96-0.152
			c0.506-0.236,0.805-0.588,0.896-1.059c0.062-0.329,0.015-0.622-0.142-0.878c-0.156-0.259-0.43-0.492-0.823-0.702
			c-0.215-0.114-0.759-0.331-1.637-0.643c-1.18-0.426-2.013-0.794-2.497-1.114c-0.484-0.32-0.822-0.672-1.014-1.056
			c-0.192-0.386-0.251-0.831-0.176-1.332c0.128-0.845,0.574-1.485,1.347-1.915c0.772-0.429,1.746-0.552,2.914-0.363
			C144.19,133.188,145.164,133.678,145.977,134.471z"/>
		<path fill="#FFFFFF" d="M156.427,136.552c0.301-0.22,0.603-0.439,0.905-0.657c0.182,0.041,0.364,0.082,0.545,0.123
			c-0.227,1.059-0.457,2.117-0.69,3.176c-0.227-0.052-0.454-0.104-0.681-0.155c-0.136-0.987-0.482-1.78-1.037-2.376
			c-0.553-0.596-1.232-0.979-2.03-1.145c-0.68-0.141-1.265-0.104-1.753,0.11c-0.489,0.215-0.775,0.532-0.862,0.95
			c-0.052,0.249-0.017,0.493,0.107,0.734c0.123,0.24,0.355,0.472,0.694,0.694c0.339,0.222,0.953,0.506,1.843,0.858
			c1.04,0.416,1.746,0.748,2.124,0.987c0.598,0.385,1.01,0.813,1.24,1.282c0.229,0.467,0.271,0.983,0.13,1.548
			c-0.211,0.844-0.729,1.435-1.547,1.781c-0.984,0.417-2.085,0.491-3.312,0.23c-1.129-0.239-2.083-0.783-2.879-1.637
			c-0.352,0.247-0.703,0.494-1.054,0.741c-0.18-0.035-0.361-0.07-0.542-0.104c0.236-1.138,0.47-2.276,0.702-3.414
			c0.219,0.042,0.438,0.084,0.657,0.126c0.248,2.074,1.336,3.298,3.298,3.715c0.802,0.17,1.463,0.151,1.985-0.061
			c0.522-0.212,0.841-0.55,0.955-1.016c0.079-0.326,0.045-0.621-0.101-0.886c-0.145-0.265-0.41-0.511-0.796-0.739
			c-0.211-0.124-0.75-0.366-1.62-0.718c-1.17-0.48-1.991-0.886-2.464-1.229c-0.473-0.342-0.796-0.709-0.971-1.103
			c-0.175-0.394-0.214-0.84-0.114-1.338c0.168-0.838,0.648-1.458,1.448-1.851c0.798-0.393,1.787-0.471,2.955-0.228
			C154.685,135.187,155.645,135.722,156.427,136.552z"/>
		<path fill="#FFFFFF" d="M162.526,143.235c1.559,0.399,3.119,0.815,4.679,1.248c-0.117,0.384-0.235,0.77-0.353,1.154
			c-1.55-0.431-3.101-0.844-4.65-1.24C162.31,144.009,162.417,143.622,162.526,143.235z"/>
		<path fill="#FFFFFF" d="M76.136,147.31c0.747-0.102,1.453-0.05,2.116,0.156c0.664,0.207,1.175,0.522,1.538,0.946
			c0.364,0.423,0.585,0.959,0.671,1.605c0.136,1.033-0.147,1.872-0.842,2.52c-0.696,0.647-1.524,1.036-2.498,1.17
			c-0.688,0.094-1.34,0.043-1.959-0.157c-0.62-0.198-1.126-0.512-1.519-0.943s-0.643-0.946-0.748-1.548
			c-0.157-0.906,0.068-1.722,0.681-2.442C74.191,147.896,75.048,147.458,76.136,147.31z M76.27,147.901
			c-0.493,0.067-0.856,0.314-1.085,0.738c-0.23,0.425-0.267,1.119-0.112,2.081c0.162,1,0.416,1.669,0.758,2.008
			c0.344,0.338,0.753,0.474,1.232,0.409c0.487-0.067,0.852-0.314,1.094-0.743c0.243-0.43,0.297-1.123,0.159-2.079
			c-0.141-0.981-0.388-1.646-0.747-1.995C77.21,147.972,76.776,147.833,76.27,147.901z"/>
		<path fill="#FFFFFF" d="M85.998,146.697c0.138-0.181,0.278-0.361,0.417-0.542c0.144-0.013,0.29-0.026,0.433-0.038
			c0.112,0.67,0.223,1.34,0.334,2.011c-0.19,0.016-0.38,0.033-0.571,0.05c-0.353-0.511-0.723-0.858-1.107-1.043
			c-0.385-0.183-0.836-0.25-1.352-0.199c-0.445,0.044-0.775,0.155-0.989,0.332c-0.216,0.176-0.309,0.38-0.281,0.612
			c0.026,0.228,0.136,0.391,0.329,0.49c0.191,0.104,0.696,0.185,1.51,0.25c0.737,0.061,1.229,0.126,1.477,0.193
			c0.471,0.123,0.85,0.336,1.135,0.639c0.286,0.303,0.448,0.671,0.489,1.107c0.051,0.547-0.148,1.029-0.592,1.444
			c-0.445,0.415-1.055,0.658-1.834,0.733c-0.376,0.036-0.721,0.03-1.037-0.022c-0.314-0.05-0.648-0.162-1.004-0.332
			c-0.145,0.194-0.287,0.388-0.43,0.583c-0.174,0.019-0.349,0.038-0.523,0.058c-0.135-0.739-0.27-1.479-0.405-2.219
			c0.194-0.021,0.387-0.042,0.58-0.064c0.63,1.073,1.534,1.547,2.722,1.432c0.488-0.047,0.852-0.169,1.092-0.366
			s0.349-0.414,0.325-0.655c-0.022-0.219-0.119-0.378-0.293-0.478c-0.174-0.099-0.619-0.182-1.334-0.245
			c-0.773-0.064-1.305-0.132-1.591-0.204c-0.49-0.115-0.871-0.304-1.145-0.571c-0.274-0.266-0.437-0.604-0.487-1.016
			c-0.073-0.588,0.087-1.095,0.484-1.519c0.396-0.424,0.967-0.675,1.708-0.749c0.362-0.037,0.69-0.029,0.985,0.019
			C85.338,146.438,85.655,146.541,85.998,146.697z"/>
		<path fill="#FFFFFF" d="M88.683,146.323c0.899-0.122,1.799-0.237,2.7-0.348c0.135,0.378,0.227,0.756,0.272,1.136
			c0.25-0.418,0.588-0.75,1.012-0.998c0.425-0.246,0.906-0.384,1.443-0.413c0.859-0.045,1.57,0.195,2.125,0.718
			c0.555,0.522,0.852,1.285,0.896,2.285c0.03,0.694-0.071,1.286-0.298,1.78c-0.228,0.492-0.557,0.871-0.989,1.137
			c-0.431,0.265-0.942,0.414-1.535,0.446c-0.473,0.025-0.899-0.049-1.28-0.223c-0.382-0.175-0.747-0.469-1.098-0.884
			c0.051,0.707,0.103,1.415,0.155,2.122c0.02,0.279,0.056,0.455,0.107,0.532c0.051,0.075,0.142,0.128,0.269,0.16
			c0.128,0.033,0.378,0.039,0.752,0.021c0.014,0.203,0.027,0.405,0.041,0.608c-1.282,0.077-2.564,0.165-3.845,0.265
			c-0.019-0.202-0.036-0.404-0.054-0.607c0.068-0.006,0.136-0.01,0.205-0.016c0.242-0.019,0.401-0.051,0.48-0.097
			c0.079-0.046,0.136-0.119,0.174-0.22c0.026-0.07,0.027-0.242,0.004-0.517c-0.156-1.869-0.31-3.737-0.461-5.607
			c-0.022-0.274-0.061-0.456-0.115-0.542s-0.131-0.147-0.231-0.18c-0.101-0.032-0.329-0.041-0.685-0.027
			C88.713,146.678,88.698,146.5,88.683,146.323z M93.274,146.63c-0.458,0.026-0.836,0.247-1.13,0.661s-0.413,1-0.358,1.758
			c0.053,0.75,0.262,1.313,0.621,1.69c0.359,0.377,0.749,0.553,1.174,0.529c0.415-0.024,0.739-0.213,0.973-0.57
			c0.307-0.47,0.44-1.089,0.398-1.856c-0.039-0.703-0.204-1.255-0.501-1.655C94.155,146.789,93.762,146.603,93.274,146.63z"/>
		<path fill="#FFFFFF" d="M105.3,148.643c-1.533,0.001-3.065,0.02-4.598,0.054c0.034,0.833,0.234,1.443,0.596,1.832
			c0.362,0.389,0.817,0.578,1.37,0.571c0.396-0.005,0.77-0.111,1.123-0.317c0.354-0.206,0.716-0.576,1.091-1.11
			c0.169,0.095,0.339,0.189,0.508,0.284c-0.394,0.635-0.842,1.09-1.343,1.367c-0.503,0.276-1.114,0.418-1.841,0.431
			c-1.057,0.016-1.918-0.258-2.592-0.832c-0.673-0.574-1.033-1.321-1.066-2.249c-0.034-0.925,0.274-1.712,0.932-2.352
			c0.656-0.641,1.484-0.972,2.473-0.988c0.684-0.012,1.274,0.108,1.768,0.353c0.493,0.245,0.875,0.609,1.148,1.088
			C105.142,147.254,105.284,147.877,105.3,148.643z M100.689,148.12c0.731-0.017,1.462-0.029,2.193-0.039
			c0.206-0.003,0.352-0.051,0.44-0.145c0.087-0.094,0.13-0.263,0.127-0.509c-0.005-0.49-0.132-0.869-0.386-1.135
			c-0.253-0.266-0.575-0.396-0.962-0.39c-0.459,0.007-0.808,0.196-1.041,0.565C100.826,146.836,100.703,147.387,100.689,148.12z"/>
		<path fill="#FFFFFF" d="M110.912,142.229c1.124-0.01,2.248-0.011,3.372-0.003c-0.111,2.587-0.225,5.175-0.341,7.762
			c-0.018,0.397-0.001,0.666,0.051,0.806c0.051,0.14,0.136,0.242,0.254,0.309c0.116,0.066,0.345,0.107,0.687,0.123
			c-0.01,0.188-0.019,0.376-0.028,0.564c-0.887-0.015-1.773-0.024-2.659-0.027c-0.05-0.387-0.101-0.774-0.152-1.161
			c-0.424,0.473-0.802,0.787-1.136,0.939c-0.334,0.151-0.746,0.221-1.238,0.212c-0.882-0.019-1.596-0.3-2.148-0.851
			c-0.553-0.552-0.829-1.293-0.823-2.229c0.006-1.032,0.312-1.85,0.924-2.449c0.612-0.6,1.375-0.891,2.277-0.873
			c0.485,0.01,0.914,0.114,1.286,0.313c0.373,0.198,0.705,0.514,0.998,0.947c0.031-0.901,0.062-1.802,0.092-2.703
			c0.011-0.322-0.014-0.554-0.077-0.694c-0.063-0.142-0.15-0.241-0.261-0.297c-0.112-0.057-0.343-0.09-0.694-0.1
			c-0.131-0.003-0.265-0.007-0.396-0.01C110.902,142.614,110.908,142.421,110.912,142.229z M110.579,146.182
			c-0.55-0.013-0.964,0.196-1.241,0.623c-0.229,0.346-0.349,0.903-0.362,1.669c-0.012,0.639,0.04,1.116,0.153,1.434
			c0.114,0.317,0.283,0.556,0.504,0.714c0.221,0.158,0.474,0.242,0.76,0.248c0.471,0.012,0.854-0.163,1.154-0.523
			c0.401-0.471,0.615-1.082,0.642-1.835c0.024-0.697-0.125-1.258-0.452-1.681C111.41,146.411,111.023,146.193,110.579,146.182z"/>
		<path fill="#FFFFFF" d="M123.663,151.63c0.082,0.16,0.164,0.32,0.245,0.48c-0.298,0.152-0.562,0.253-0.792,0.301
			c-0.229,0.048-0.477,0.062-0.743,0.041c-0.395-0.032-0.708-0.134-0.938-0.306c-0.231-0.173-0.429-0.479-0.598-0.921
			c-0.506,0.392-0.951,0.653-1.333,0.782c-0.386,0.128-0.811,0.178-1.28,0.149c-0.647-0.04-1.144-0.206-1.491-0.5
			c-0.347-0.293-0.51-0.652-0.486-1.074c0.037-0.638,0.405-1.133,1.111-1.479c0.564-0.273,1.783-0.511,3.665-0.68
			c0.023-0.284,0.046-0.569,0.07-0.854c0.026-0.338-0.076-0.623-0.31-0.854c-0.235-0.231-0.563-0.361-0.986-0.389
			c-0.321-0.022-0.61,0.021-0.865,0.128c-0.17,0.069-0.259,0.145-0.264,0.225c-0.003,0.042,0.023,0.107,0.08,0.197
			c0.12,0.197,0.173,0.389,0.16,0.576c-0.016,0.237-0.118,0.422-0.302,0.557c-0.183,0.135-0.42,0.193-0.711,0.177
			c-0.31-0.019-0.553-0.111-0.732-0.279c-0.178-0.169-0.261-0.378-0.247-0.627c0.024-0.41,0.294-0.758,0.811-1.042
			c0.645-0.354,1.434-0.501,2.36-0.438c0.699,0.047,1.311,0.19,1.835,0.425c0.337,0.15,0.6,0.386,0.788,0.708
			c0.188,0.323,0.261,0.709,0.221,1.155c-0.091,1.001-0.182,2.002-0.274,3.003c-0.021,0.228,0.011,0.397,0.093,0.506
			c0.084,0.109,0.206,0.17,0.367,0.184C123.252,151.792,123.433,151.741,123.663,151.63z M120.979,148.974
			c-1.01,0.049-1.701,0.195-2.071,0.428c-0.371,0.234-0.568,0.561-0.597,0.978c-0.02,0.295,0.046,0.527,0.199,0.696
			c0.153,0.168,0.377,0.263,0.672,0.282c0.457,0.03,0.848-0.093,1.175-0.372c0.326-0.279,0.513-0.676,0.555-1.196
			C120.936,149.519,120.958,149.246,120.979,148.974z"/>
		<path fill="#FFFFFF" d="M125.559,143.108c1.064,0.051,2.129,0.11,3.196,0.177c-0.321,2.8-0.65,5.599-0.985,8.397
			c-0.018,0.152,0.021,0.276,0.118,0.374c0.094,0.097,0.241,0.157,0.439,0.179c0.136,0.015,0.272,0.03,0.409,0.045
			c-0.025,0.195-0.049,0.391-0.074,0.585c-1.296-0.145-2.593-0.277-3.89-0.397c0.021-0.196,0.042-0.391,0.061-0.587
			c0.148,0.013,0.296,0.027,0.443,0.041c0.203,0.02,0.36-0.016,0.47-0.105s0.176-0.235,0.198-0.438
			c0.253-2.302,0.501-4.605,0.745-6.907c0.023-0.216-0.027-0.387-0.15-0.516c-0.123-0.129-0.299-0.205-0.531-0.227
			c-0.168-0.016-0.337-0.031-0.506-0.047C125.521,143.491,125.54,143.3,125.559,143.108z"/>
		<path fill="#FFFFFF" d="M136.927,150.985c-1.531-0.229-3.062-0.441-4.595-0.637c-0.104,0.829-0.007,1.461,0.288,1.899
			c0.296,0.438,0.718,0.693,1.271,0.769c0.396,0.054,0.786,0.006,1.173-0.145s0.811-0.462,1.275-0.934
			c0.153,0.119,0.307,0.238,0.46,0.357c-0.5,0.568-1.023,0.951-1.571,1.149c-0.548,0.197-1.183,0.246-1.909,0.148
			c-1.056-0.142-1.866-0.542-2.441-1.21c-0.574-0.668-0.807-1.459-0.687-2.38c0.121-0.919,0.555-1.65,1.315-2.184
			c0.758-0.536,1.637-0.739,2.625-0.607c0.684,0.091,1.254,0.297,1.707,0.614c0.452,0.316,0.775,0.732,0.968,1.248
			S137.04,150.227,136.927,150.985z M132.414,149.776c0.73,0.094,1.462,0.191,2.193,0.291c0.205,0.029,0.359,0.003,0.462-0.077
			c0.104-0.08,0.174-0.241,0.212-0.484c0.076-0.486,0.011-0.879-0.198-1.18c-0.209-0.3-0.508-0.478-0.896-0.529
			c-0.459-0.062-0.836,0.072-1.13,0.402C132.763,148.529,132.549,149.055,132.414,149.776z"/>
	</g>
</g>
</svg>
