<?xml version="1.0" encoding="utf-8"?>
<!-- Generator: Adobe Illustrator 16.0.4, SVG Export Plug-In . SVG Version: 6.00 Build 0)  -->
<!DOCTYPE svg PUBLIC "-//W3C//DTD SVG 1.1//EN" "http://www.w3.org/Graphics/SVG/1.1/DTD/svg11.dtd">
<svg version="1.1" id="Livello_1" xmlns="http://www.w3.org/2000/svg" xmlns:xlink="http://www.w3.org/1999/xlink" x="0px" y="0px"
	 width="210px" height="200px" viewBox="0 0 210 200" enable-background="new 0 0 210 200" xml:space="preserve">
<g>
	<g>
		<circle fill="#FBC02E" cx="105" cy="100" r="84"/>
		<circle fill="#FABF2D" cx="105" cy="100" r="75.216"/>
		<path fill="#FFFFFF" d="M104.999,177.717c-42.853,0-77.715-34.864-77.715-77.717s34.862-77.717,77.715-77.717
			S182.716,57.147,182.716,100S147.852,177.717,104.999,177.717z M104.999,27.283c-40.095,0-72.715,32.621-72.715,72.717
			s32.62,72.717,72.715,72.717c40.097,0,72.717-32.621,72.717-72.717S145.096,27.283,104.999,27.283z"/>
		<path fill="#FFFFFF" d="M100.554,115.299H83.5l0.474-43.506c-0.551-4.04-3.011-6.182-6.093-6.182c-2.601,0-4.729,1.54-5.668,4.439
			L71.5,115.299H51.906h-0.035c-3.244,0-6.13,2.607-6.13,6.072c0,3.465,2.431,6.689,5.675,6.689c0.036,0,0.055,0.002,0.084,0.003
			v0.236h19.483H83.53h17.023c3.381,0,5.62-3.534,5.62-6.908C106.174,118.019,103.935,116.299,100.554,115.299z M51.516,128.064
			C52.047,128.082,51.592,128.215,51.516,128.064L51.516,128.064z"/>
		<g>
			<path fill="#FFFFFF" d="M142.847,86.046c-4.127-0.584-8.157-0.06-11.806,1.339l-5.002-10.106l5.697-14.445l-13.121-1.856
				c0,0-4.514,2.895-0.646,4.569c2.888,0.409,7.321,1.035,7.321,1.035l-2.617,6.618l-31.19-4.41l3.894-9.546
				c0,0,4.04,0.353,8.083,1.144c3.158-2.052,0.647-4.572,0.647-4.572l-21.339-3.017c0,0-3.323,1.685-0.646,4.572
				c4.673,0.662,8.547,1.209,8.547,1.209l-6.043,14.824L84.49,85.956c0.516-1.266,0.844-2.071,0.844-2.071
				c6.745,3.762,10.848,11.399,9.703,19.49c-0.633,4.477-2.778,8.369-5.834,11.256l6.121,0.01c2.209-3.044,3.73-6.652,4.293-10.629
				c1.447-10.223-3.878-19.858-12.533-24.421l2.891-7.094l19.763,33.538c0,0,0.828,1.862,2.876,2.151
				c2.043,0.289,3.078,0.435,3.078,0.435c-0.535,12.113,8.229,22.908,20.479,24.642c13.02,1.841,25.108-7.251,26.951-20.272
				C164.961,99.977,155.867,87.888,142.847,86.046z M135.506,106.751l-14.559-2.057c1.242-4.677,4.18-8.56,8.029-11.092
				L135.506,106.751z M111.874,100.563L96.301,74.126l24.637,3.484L111.874,100.563z M115.501,103.931l8.251-20.877l3.156,6.38
				c-5.156,3.221-9.066,8.376-10.571,14.616L115.501,103.931z M158.555,112.346c-1.483,10.493-11.229,17.833-21.731,16.349
				c-9.735-1.377-16.72-9.842-16.523-19.421c0,0,15.173,2.146,19.175,2.711c4,0.566,3.089-1.368,3.089-1.368l-9.456-19.076
				c2.828-1.008,5.932-1.375,9.1-0.928C152.711,92.099,160.039,101.853,158.555,112.346z"/>
			<path fill="#FFFFFF" d="M62.801,114.623c-4.361-4.142-6.744-10.248-5.84-16.643c1.127-7.966,7.023-14.097,14.387-15.944
				l0.074-4.758c-9.682,1.903-17.57,9.747-19.028,20.055c-0.897,6.346,0.81,12.466,4.296,17.29H62.801z"/>
		</g>
	</g>
	<path fill="#FDD835" d="M195.043,168.142c-2.57-5.81-5.418-11.587-8.545-17.312c5.996-2.563,12.201-4.905,18.602-7.004
		C140.988,117.308,68.912,117.476,4.9,144.329c0.041,0.095,0.08,0.188,0.119,0.283c6.605,2.131,13.004,4.522,19.182,7.149
		c-2.928,5.42-5.605,10.887-8.037,16.382C73.436,144.454,137.773,144.453,195.043,168.142L195.043,168.142L195.043,168.142z"/>
	<path fill="#FFFFFF" d="M12.102,170.961l1.514-3.425c2.23-5.043,4.686-10.092,7.309-15.03c-5.701-2.375-11.594-4.547-17.543-6.466
		l-0.654-0.212l-0.967-2.302l1.383-0.58c32.242-13.525,66.318-20.384,101.283-20.384c34.514,0,68.182,6.688,100.07,19.878
		l3.744,1.549l-3.85,1.263c-5.744,1.883-11.443,4.005-16.965,6.316c2.814,5.241,5.439,10.604,7.812,15.966l1.516,3.425l-3.461-1.432
		c-28.318-11.713-58.217-17.651-88.863-17.651c-30.65,0-60.549,5.939-88.869,17.653L12.102,170.961z M7.707,144.312
		c5.4,1.835,10.736,3.871,15.904,6.069l1.516,0.645l-0.783,1.448c-2.283,4.226-4.443,8.542-6.445,12.873
		c27.648-10.932,56.74-16.472,86.531-16.472c29.789,0,58.877,5.539,86.525,16.47c-2.148-4.645-4.48-9.271-6.951-13.796l-0.791-1.45
		l1.518-0.648c4.844-2.071,9.834-3.999,14.879-5.752c-30.412-12.038-62.41-18.137-95.184-18.137
		C71.09,125.562,38.57,131.868,7.707,144.312z"/>
	<g>
		<path fill="#FFFFFF" d="M55.318,137.484c3.65-1.016,7.297-1.918,10.939-2.708c0.398,1.319,0.793,2.639,1.194,3.959
			c-0.253,0.054-0.495,0.109-0.75,0.164c-0.378-0.819-0.771-1.437-1.163-1.854c-0.397-0.417-0.808-0.686-1.222-0.803
			c-0.413-0.118-0.849-0.126-1.282-0.023c-0.254,0.06-0.427,0.148-0.523,0.265c-0.093,0.116-0.123,0.256-0.079,0.422
			c0.689,2.713,1.398,5.425,2.13,8.135c0.042,0.156,0.129,0.271,0.266,0.344c0.135,0.074,0.279,0.091,0.433,0.055
			c0.446-0.105,0.888-0.209,1.333-0.311c0.057,0.221,0.113,0.442,0.17,0.663c-2.082,0.479-4.164,0.996-6.246,1.555
			c-0.066-0.219-0.133-0.438-0.198-0.656c0.425-0.114,0.845-0.225,1.269-0.335c0.193-0.05,0.328-0.136,0.411-0.261
			c0.083-0.125,0.102-0.268,0.054-0.429c-0.771-2.685-1.525-5.372-2.256-8.061c-0.051-0.188-0.151-0.312-0.295-0.373
			c-0.143-0.058-0.349-0.055-0.604,0.013c-1.435,0.372-2.097,1.74-1.923,4.068c-0.244,0.067-0.485,0.135-0.727,0.203
			C55.932,140.172,55.619,138.829,55.318,137.484z"/>
		<path fill="#FFFFFF" d="M72.871,137.124c0.864-0.159,1.692-0.135,2.472,0.069c0.786,0.204,1.392,0.545,1.833,1.016
			c0.439,0.472,0.716,1.08,0.845,1.822c0.201,1.186-0.089,2.165-0.863,2.945c-0.771,0.779-1.703,1.269-2.819,1.474
			c-0.789,0.146-1.547,0.122-2.272-0.071c-0.729-0.194-1.331-0.525-1.812-0.998c-0.481-0.474-0.805-1.053-0.96-1.74
			c-0.235-1.035-0.023-1.991,0.656-2.858C70.625,137.914,71.606,137.356,72.871,137.124z M73.052,137.798
			c-0.571,0.105-0.981,0.411-1.228,0.914c-0.248,0.502-0.254,1.306-0.021,2.407c0.242,1.145,0.573,1.901,0.988,2.272
			c0.417,0.372,0.896,0.506,1.446,0.405c0.558-0.103,0.968-0.406,1.226-0.915c0.264-0.506,0.283-1.308,0.083-2.404
			c-0.207-1.125-0.526-1.881-0.961-2.264C74.152,137.83,73.641,137.69,73.052,137.798z"/>
		<path fill="#FFFFFF" d="M78.987,136.529c1.039-0.214,2.075-0.419,3.119-0.616c0.188,0.424,0.319,0.853,0.402,1.286
			c0.261-0.5,0.629-0.909,1.103-1.225c0.473-0.316,1.026-0.51,1.647-0.581c0.996-0.113,1.842,0.117,2.519,0.683
			c0.68,0.567,1.072,1.427,1.187,2.575c0.076,0.798,0.004,1.488-0.226,2.069c-0.226,0.584-0.584,1.041-1.061,1.376
			c-0.471,0.335-1.053,0.54-1.73,0.618c-0.545,0.062-1.035,0.008-1.492-0.166c-0.454-0.174-0.892-0.486-1.332-0.937
			c0.113,0.811,0.229,1.621,0.348,2.432c0.044,0.319,0.104,0.521,0.166,0.603c0.066,0.083,0.172,0.138,0.322,0.166
			c0.148,0.028,0.438,0.017,0.862-0.03c0.032,0.232,0.067,0.464,0.096,0.697c-1.463,0.18-2.921,0.38-4.382,0.598
			c-0.037-0.231-0.078-0.463-0.117-0.695c0.082-0.011,0.155-0.023,0.234-0.035c0.275-0.041,0.457-0.09,0.543-0.15
			c0.09-0.06,0.146-0.148,0.181-0.267c0.024-0.083,0.012-0.281-0.039-0.595c-0.339-2.14-0.668-4.28-0.993-6.421
			c-0.048-0.313-0.107-0.519-0.178-0.615c-0.069-0.096-0.164-0.159-0.284-0.189c-0.119-0.029-0.385-0.021-0.798,0.026
			C79.05,136.935,79.021,136.732,78.987,136.529z M84.354,136.524c-0.531,0.064-0.955,0.345-1.263,0.844
			c-0.312,0.5-0.405,1.184-0.282,2.052c0.119,0.859,0.403,1.492,0.847,1.899c0.442,0.408,0.905,0.583,1.393,0.524
			c0.478-0.057,0.835-0.297,1.081-0.725c0.318-0.563,0.43-1.285,0.327-2.166c-0.097-0.808-0.325-1.432-0.697-1.871
			C85.385,136.645,84.916,136.458,84.354,136.524z"/>
		<path fill="#FFFFFF" d="M104.71,131.367c0.19-0.359,0.387-0.72,0.578-1.08c0.205,0,0.418,0.001,0.626,0.001
			c0.066,1.447,0.128,2.896,0.194,4.343c-0.255-0.001-0.509-0.001-0.759-0.001c-0.235-1.249-0.688-2.176-1.357-2.777
			c-0.666-0.6-1.436-0.893-2.295-0.876c-0.945,0.02-1.718,0.433-2.3,1.234c-0.582,0.8-0.843,2.044-0.771,3.726
			c0.07,1.78,0.458,3.087,1.127,3.929c0.542,0.662,1.304,0.977,2.305,0.957c1.001-0.02,1.834-0.366,2.52-1.048
			c0.487-0.496,0.839-1.223,1.04-2.186c0.244,0.001,0.489,0.001,0.729,0.002c-0.183,1.236-0.701,2.209-1.552,2.929
			c-0.854,0.721-1.886,1.09-3.122,1.117c-1.601,0.036-2.958-0.436-4.101-1.432c-1.142-0.995-1.775-2.299-1.873-3.932
			c-0.104-1.812,0.459-3.299,1.739-4.44c1.087-0.972,2.405-1.481,3.933-1.515c0.602-0.013,1.162,0.059,1.68,0.215
			C103.568,130.691,104.123,130.969,104.71,131.367z"/>
		<path fill="#FFFFFF" d="M115.993,138.313c-1.765-0.107-3.53-0.188-5.298-0.241c-0.014,0.962,0.174,1.677,0.563,2.148
			c0.386,0.469,0.901,0.716,1.533,0.744c0.45,0.021,0.89-0.078,1.311-0.291c0.419-0.213,0.859-0.615,1.333-1.204
			c0.188,0.121,0.377,0.243,0.565,0.365c-0.506,0.703-1.051,1.195-1.646,1.479c-0.599,0.285-1.305,0.407-2.141,0.375
			c-1.211-0.048-2.178-0.416-2.913-1.117s-1.101-1.582-1.083-2.651c0.016-1.07,0.416-1.958,1.218-2.658
			c0.801-0.699,1.778-1.031,2.927-0.987c0.791,0.031,1.469,0.207,2.021,0.522c0.558,0.318,0.972,0.763,1.252,1.334
			C115.914,136.704,116.038,137.431,115.993,138.313z M110.718,137.406c0.841,0.025,1.688,0.057,2.533,0.094
			c0.235,0.011,0.407-0.034,0.515-0.136c0.113-0.102,0.171-0.295,0.187-0.577c0.027-0.566-0.096-1.011-0.369-1.335
			c-0.272-0.322-0.639-0.494-1.086-0.512c-0.531-0.021-0.945,0.175-1.241,0.585C110.961,135.936,110.785,136.564,110.718,137.406z"
			/>
		<path fill="#FFFFFF" d="M127.376,142.105c-0.036,0.225-0.062,0.45-0.096,0.676c-1.483-0.191-2.97-0.362-4.453-0.515
			c0.024-0.226,0.052-0.452,0.075-0.678c0.156,0.016,0.312,0.032,0.469,0.049c0.247,0.026,0.442-0.013,0.576-0.116
			c0.137-0.103,0.219-0.266,0.243-0.489c0.117-0.986,0.232-1.971,0.347-2.956c0.059-0.504-0.025-0.905-0.252-1.203
			c-0.225-0.296-0.549-0.467-0.971-0.51c-0.575-0.058-1.056,0.088-1.452,0.437c-0.395,0.348-0.625,0.89-0.696,1.624
			c-0.073,0.761-0.147,1.522-0.223,2.284c-0.023,0.224,0.025,0.398,0.138,0.526c0.114,0.128,0.268,0.201,0.464,0.22
			c0.186,0.018,0.377,0.036,0.562,0.054c-0.023,0.227-0.051,0.453-0.07,0.678c-1.545-0.15-3.088-0.28-4.628-0.388
			c0.015-0.227,0.04-0.453,0.053-0.68c0.203,0.014,0.403,0.028,0.604,0.043c0.233,0.017,0.412-0.028,0.543-0.136
			c0.129-0.107,0.203-0.272,0.221-0.496c0.113-1.355,0.226-2.712,0.338-4.067c0.02-0.234-0.057-0.427-0.219-0.579
			c-0.17-0.152-0.396-0.24-0.688-0.261c-0.108-0.008-0.22-0.016-0.329-0.023c0.017-0.212,0.031-0.424,0.048-0.635
			c1.079,0.024,2.157,0.059,3.237,0.103c0.077,0.43,0.12,0.936,0.122,1.52c0.498-0.499,1.016-0.857,1.555-1.075
			c0.534-0.217,1.089-0.295,1.655-0.235c0.77,0.083,1.35,0.379,1.737,0.882c0.383,0.503,0.516,1.158,0.414,1.961
			c-0.136,1.052-0.271,2.104-0.411,3.155c-0.034,0.242,0.007,0.424,0.113,0.546c0.112,0.122,0.293,0.198,0.56,0.231
			C127.099,142.069,127.237,142.087,127.376,142.105z"/>
		<path fill="#FFFFFF" d="M132.321,133.705c0.25,0.038,0.499,0.075,0.75,0.113c-0.152,0.93-0.297,1.858-0.446,2.787
			c0.852,0.13,1.698,0.268,2.55,0.41c-0.045,0.26-0.094,0.52-0.139,0.779c-0.844-0.142-1.694-0.278-2.54-0.407
			c-0.234,1.435-0.471,2.87-0.711,4.304c-0.047,0.286-0.004,0.518,0.131,0.7c0.137,0.181,0.331,0.292,0.59,0.333
			c0.739,0.118,1.251-0.443,1.521-1.692c0.238,0.039,0.475,0.08,0.716,0.12c-0.142,0.666-0.357,1.184-0.649,1.553
			c-0.291,0.371-0.661,0.632-1.104,0.789c-0.441,0.155-0.918,0.194-1.422,0.116c-0.44-0.068-0.812-0.208-1.109-0.419
			c-0.297-0.212-0.519-0.495-0.66-0.848c-0.146-0.354-0.183-0.722-0.127-1.104c0.213-1.392,0.424-2.784,0.632-4.176
			c-0.455-0.064-0.91-0.127-1.365-0.187c0.031-0.222,0.062-0.445,0.094-0.667c0.851,0.015,1.546-0.175,2.091-0.577
			C131.662,135.232,132.067,134.591,132.321,133.705z"/>
		<path fill="#FFFFFF" d="M143.879,142.258c-1.769-0.394-3.537-0.76-5.304-1.099c-0.18,0.947-0.113,1.683,0.194,2.21
			c0.307,0.526,0.778,0.853,1.412,0.983c0.456,0.093,0.913,0.069,1.372-0.073c0.466-0.142,0.978-0.466,1.56-0.971
			c0.167,0.151,0.334,0.301,0.505,0.452c-0.626,0.612-1.27,1.008-1.921,1.191c-0.653,0.184-1.391,0.189-2.223,0.022
			c-1.211-0.245-2.119-0.765-2.732-1.575c-0.619-0.81-0.832-1.739-0.631-2.791c0.202-1.053,0.756-1.864,1.679-2.427
			c0.922-0.561,1.962-0.729,3.112-0.5c0.792,0.159,1.449,0.443,1.953,0.845c0.508,0.403,0.853,0.91,1.039,1.52
			C144.078,140.656,144.073,141.394,143.879,142.258z M138.713,140.504c0.842,0.162,1.69,0.33,2.534,0.505
			c0.235,0.049,0.419,0.033,0.545-0.05c0.13-0.083,0.221-0.264,0.286-0.541c0.127-0.554,0.079-1.013-0.143-1.377
			c-0.222-0.363-0.561-0.591-1.011-0.682c-0.531-0.107-0.981,0.02-1.349,0.376C139.209,139.093,138.921,139.684,138.713,140.504z"/>
		<path fill="#FFFFFF" d="M149.979,146.538c-0.065,0.219-0.132,0.438-0.197,0.657c-1.726-0.456-3.446-0.884-5.171-1.285
			c0.059-0.221,0.117-0.442,0.174-0.664c0.215,0.05,0.429,0.101,0.643,0.151c0.266,0.063,0.471,0.064,0.618,0
			c0.148-0.062,0.241-0.172,0.283-0.33c0.352-1.312,0.705-2.625,1.048-3.937c0.083-0.318,0.065-0.57-0.067-0.758
			c-0.126-0.186-0.343-0.316-0.646-0.387c-0.145-0.034-0.296-0.068-0.437-0.102c0.05-0.209,0.104-0.418,0.157-0.627
			c1.114,0.206,2.23,0.423,3.347,0.651c-0.197,0.721-0.394,1.442-0.595,2.163c0.39-0.675,0.874-1.146,1.466-1.41
			c0.584-0.265,1.186-0.317,1.785-0.157c0.514,0.137,0.885,0.365,1.114,0.679c0.225,0.313,0.281,0.655,0.173,1.021
			c-0.098,0.314-0.277,0.541-0.541,0.68c-0.265,0.138-0.544,0.168-0.836,0.088c-0.261-0.07-0.459-0.216-0.598-0.435
			c-0.138-0.22-0.169-0.461-0.093-0.725c0.042-0.146,0.134-0.287,0.271-0.423c0.07-0.077,0.113-0.134,0.125-0.172
			c0.02-0.066,0.014-0.119-0.012-0.159c-0.026-0.04-0.08-0.071-0.154-0.091c-0.199-0.052-0.443-0.009-0.735,0.127
			c-0.449,0.213-0.886,0.613-1.312,1.199c-0.43,0.587-0.732,1.212-0.918,1.874c-0.139,0.478-0.268,0.954-0.407,1.43
			c-0.048,0.167-0.032,0.304,0.043,0.418c0.078,0.112,0.204,0.192,0.383,0.238C149.254,146.347,149.615,146.441,149.979,146.538z"/>
	</g>
</g>
</svg>
