<?xml version="1.0" encoding="utf-8"?>
<!-- Generator: Adobe Illustrator 16.0.4, SVG Export Plug-In . SVG Version: 6.00 Build 0)  -->
<!DOCTYPE svg PUBLIC "-//W3C//DTD SVG 1.1//EN" "http://www.w3.org/Graphics/SVG/1.1/DTD/svg11.dtd">
<svg version="1.1" id="Livello_1" xmlns="http://www.w3.org/2000/svg" xmlns:xlink="http://www.w3.org/1999/xlink" x="0px" y="0px"
	 width="210px" height="200px" viewBox="0 0 210 200" enable-background="new 0 0 210 200" xml:space="preserve">
<g>
	<circle fill="#FBC02E" cx="105" cy="100" r="84"/>
	<circle fill="#FABF2D" cx="105" cy="100" r="75.216"/>
	<path fill="#FFFFFF" d="M104.999,177.717c-42.853,0-77.715-34.864-77.715-77.717s34.862-77.717,77.715-77.717
		S182.716,57.147,182.716,100S147.852,177.717,104.999,177.717z M104.999,27.283c-40.095,0-72.715,32.621-72.715,72.717
		s32.62,72.717,72.715,72.717c40.097,0,72.717-32.621,72.717-72.717S145.096,27.283,104.999,27.283z"/>
	<path fill="#FFFFFF" d="M100.554,115.299H83.5l0.474-43.506c-0.551-4.04-3.011-6.182-6.093-6.182c-2.601,0-4.729,1.54-5.668,4.439
		L71.5,115.299H51.906h-0.035c-3.244,0-6.13,2.607-6.13,6.072c0,3.465,2.431,6.689,5.675,6.689c0.036,0,0.055,0.002,0.084,0.003
		v0.236h19.483H83.53h17.023c3.381,0,5.62-3.534,5.62-6.908C106.174,118.019,103.935,116.299,100.554,115.299z M51.516,128.064
		C52.047,128.082,51.592,128.215,51.516,128.064L51.516,128.064z"/>
	<g>
		<path fill="#FFFFFF" d="M142.847,86.046c-4.127-0.584-8.157-0.06-11.806,1.339l-5.002-10.106l5.697-14.445l-13.121-1.856
			c0,0-4.514,2.895-0.646,4.569c2.888,0.409,7.321,1.035,7.321,1.035l-2.617,6.618l-31.19-4.41l3.894-9.546
			c0,0,4.04,0.353,8.083,1.144c3.158-2.052,0.647-4.572,0.647-4.572l-21.339-3.017c0,0-3.323,1.685-0.646,4.572
			c4.673,0.662,8.547,1.209,8.547,1.209l-6.043,14.824L84.49,85.956c0.516-1.266,0.844-2.071,0.844-2.071
			c6.745,3.762,10.848,11.399,9.703,19.49c-0.633,4.477-2.778,8.369-5.834,11.256l6.121,0.01c2.209-3.044,3.73-6.652,4.293-10.629
			c1.447-10.223-3.878-19.858-12.533-24.421l2.891-7.094l19.763,33.538c0,0,0.828,1.862,2.876,2.151
			c2.043,0.289,3.078,0.435,3.078,0.435c-0.535,12.113,8.229,22.908,20.479,24.642c13.02,1.841,25.108-7.251,26.951-20.272
			C164.961,99.977,155.867,87.888,142.847,86.046z M135.506,106.751l-14.559-2.057c1.242-4.677,4.18-8.56,8.029-11.092
			L135.506,106.751z M111.874,100.563L96.301,74.126l24.637,3.484L111.874,100.563z M115.501,103.931l8.251-20.877l3.156,6.38
			c-5.156,3.221-9.066,8.376-10.571,14.616L115.501,103.931z M158.555,112.346c-1.483,10.493-11.229,17.833-21.731,16.349
			c-9.735-1.377-16.72-9.842-16.523-19.421c0,0,15.173,2.146,19.175,2.711c4,0.566,3.089-1.368,3.089-1.368l-9.456-19.076
			c2.828-1.008,5.932-1.375,9.1-0.928C152.711,92.099,160.039,101.853,158.555,112.346z"/>
		<path fill="#FFFFFF" d="M62.801,114.623c-4.361-4.142-6.744-10.248-5.84-16.643c1.127-7.966,7.023-14.097,14.387-15.944
			l0.074-4.758c-9.682,1.903-17.57,9.747-19.028,20.055c-0.897,6.346,0.81,12.466,4.296,17.29H62.801z"/>
	</g>
</g>
<path fill="#FDD835" d="M195.043,168.142c-2.57-5.81-5.418-11.587-8.545-17.312c5.996-2.563,12.201-4.905,18.602-7.004
	C140.988,117.308,68.912,117.476,4.9,144.329c0.041,0.095,0.08,0.188,0.119,0.283c6.605,2.131,13.004,4.522,19.182,7.149
	c-2.928,5.42-5.605,10.887-8.037,16.382C73.436,144.454,137.773,144.453,195.043,168.142L195.043,168.142L195.043,168.142z"/>
<path fill="#FFFFFF" d="M12.102,170.961l1.514-3.425c2.23-5.043,4.686-10.092,7.309-15.03c-5.701-2.375-11.594-4.547-17.543-6.466
	l-0.654-0.212l-0.967-2.302l1.383-0.58c32.242-13.525,66.318-20.384,101.283-20.384c34.514,0,68.182,6.688,100.07,19.878
	l3.744,1.549l-3.85,1.263c-5.744,1.883-11.443,4.005-16.965,6.316c2.814,5.241,5.439,10.604,7.812,15.966l1.516,3.425l-3.461-1.432
	c-28.318-11.713-58.217-17.651-88.863-17.651c-30.65,0-60.549,5.939-88.869,17.653L12.102,170.961z M7.707,144.312
	c5.4,1.835,10.736,3.871,15.904,6.069l1.516,0.645l-0.783,1.448c-2.283,4.226-4.443,8.542-6.445,12.873
	c27.648-10.932,56.74-16.472,86.531-16.472c29.789,0,58.877,5.539,86.525,16.47c-2.148-4.645-4.48-9.271-6.951-13.796l-0.791-1.45
	l1.518-0.648c4.844-2.071,9.834-3.999,14.879-5.752c-30.412-12.038-62.41-18.137-95.184-18.137
	C71.09,125.562,38.57,131.868,7.707,144.312z"/>
<g>
	<path fill="#FFFFFF" d="M50.264,136.873c3.609-1.015,7.219-1.928,10.826-2.744c1.831-0.414,3.401-0.31,4.685,0.291
		c1.286,0.603,2.04,1.513,2.289,2.714c0.189,0.913,0.041,1.773-0.433,2.581c-0.474,0.81-1.189,1.474-2.157,2.004
		c-0.966,0.53-1.953,0.912-2.968,1.145c-1.086,0.25-2.172,0.511-3.26,0.779c0.457,1.673,0.922,3.344,1.395,5.015
		c0.077,0.276,0.227,0.47,0.446,0.579c0.22,0.109,0.466,0.129,0.74,0.063c0.649-0.158,1.303-0.312,1.951-0.464
		c0.084,0.323,0.171,0.647,0.256,0.971c-2.994,0.696-5.984,1.468-8.975,2.316c-0.105-0.319-0.21-0.638-0.314-0.957
		c0.505-0.143,1.009-0.284,1.512-0.422c0.336-0.092,0.567-0.238,0.691-0.436c0.128-0.197,0.144-0.435,0.062-0.711
		c-1.192-3.885-2.349-7.773-3.465-11.667c-0.075-0.263-0.227-0.445-0.463-0.546c-0.235-0.1-0.487-0.114-0.763-0.04
		c-0.588,0.16-1.178,0.323-1.767,0.488C50.457,137.513,50.36,137.193,50.264,136.873z M58.989,142.697
		c0.73-0.181,1.458-0.358,2.188-0.53c0.763-0.181,1.408-0.479,1.934-0.899c0.526-0.421,0.867-0.86,1.025-1.326
		c0.155-0.463,0.129-1.152-0.081-2.069c-0.287-1.258-0.889-2.062-1.812-2.401c-0.673-0.24-1.721-0.201-3.138,0.135
		c-0.82,0.195-1.324,0.381-1.516,0.548c-0.19,0.169-0.25,0.392-0.174,0.67C57.932,138.782,58.454,140.74,58.989,142.697z"/>
	<path fill="#FFFFFF" d="M73.923,144.379c0.542-0.094,1.044,0.004,1.489,0.293c0.446,0.289,0.716,0.682,0.805,1.176
		c0.089,0.502-0.018,0.959-0.333,1.375c-0.308,0.416-0.731,0.668-1.261,0.761c-0.526,0.091-1.007-0.004-1.458-0.288
		c-0.448-0.284-0.726-0.674-0.829-1.173c-0.1-0.492,0.004-0.95,0.314-1.371C72.962,144.73,73.39,144.472,73.923,144.379z"/>
	<path fill="#FFFFFF" d="M76.105,131.301c1.814-0.354,3.626-0.682,5.444-0.986c0.594,4.729,1.213,9.458,1.86,14.186
		c0.034,0.255,0.149,0.445,0.346,0.569c0.197,0.124,0.459,0.166,0.788,0.127c0.225-0.027,0.451-0.053,0.679-0.08
		c0.04,0.331,0.085,0.662,0.126,0.993c-2.146,0.247-4.294,0.53-6.439,0.853c-0.057-0.329-0.11-0.658-0.166-0.987
		c0.248-0.037,0.489-0.073,0.735-0.109c0.337-0.049,0.571-0.167,0.713-0.358c0.138-0.189,0.181-0.456,0.13-0.796
		c-0.603-3.876-1.182-7.753-1.744-11.631c-0.053-0.362-0.209-0.624-0.468-0.786c-0.259-0.163-0.587-0.216-0.985-0.157
		c-0.29,0.043-0.578,0.086-0.869,0.129C76.206,131.945,76.158,131.623,76.105,131.301z"/>
	<path fill="#FFFFFF" d="M97.989,140.122c-2.571,0.116-5.143,0.284-7.713,0.504c0.151,1.404,0.561,2.413,1.205,3.033
		c0.647,0.62,1.424,0.896,2.342,0.833c0.656-0.045,1.267-0.256,1.834-0.634c0.569-0.377,1.139-1.032,1.718-1.964
		c0.291,0.147,0.584,0.295,0.872,0.443c-0.604,1.102-1.309,1.906-2.116,2.414c-0.806,0.51-1.806,0.801-3.008,0.889
		c-1.747,0.127-3.205-0.245-4.4-1.139c-1.192-0.894-1.896-2.111-2.07-3.67c-0.174-1.56,0.241-2.924,1.282-4.082
		c1.041-1.157,2.419-1.809,4.101-1.932c1.165-0.086,2.182,0.061,3.038,0.434c0.859,0.373,1.54,0.957,2.041,1.745
		C97.613,137.786,97.902,138.829,97.989,140.122z M90.188,139.652c1.229-0.105,2.458-0.199,3.689-0.28
		c0.346-0.022,0.59-0.117,0.728-0.284c0.141-0.167,0.194-0.457,0.168-0.871c-0.055-0.83-0.303-1.458-0.76-1.886
		c-0.454-0.426-1.01-0.617-1.669-0.569c-0.776,0.057-1.349,0.412-1.707,1.059C90.277,137.469,90.129,138.413,90.188,139.652z"/>
	<path fill="#FFFFFF" d="M116.718,128.857c1.739,0.087,3.325,0.549,4.733,1.377c1.408,0.83,2.456,1.91,3.144,3.226
		c0.687,1.317,0.939,2.758,0.779,4.316c-0.246,2.374-1.312,4.261-3.136,5.704c-1.823,1.444-3.925,2.086-6.371,1.963
		c-1.625-0.081-3.067-0.494-4.341-1.25c-1.275-0.756-2.291-1.746-3.039-2.981c-0.751-1.234-1.131-2.661-1.125-4.285
		c0.005-2.411,0.878-4.404,2.675-5.942C111.833,129.448,114.079,128.726,116.718,128.857z M116.742,129.891
		c-0.986-0.05-1.853,0.149-2.593,0.59c-0.737,0.441-1.338,1.18-1.785,2.212c-0.451,1.033-0.698,2.458-0.747,4.276
		c-0.05,1.91,0.097,3.36,0.437,4.355c0.338,0.993,0.848,1.737,1.525,2.236c0.679,0.498,1.479,0.768,2.404,0.814
		c1.372,0.069,2.494-0.409,3.406-1.449c0.904-1.04,1.482-2.91,1.697-5.621c0.152-1.899,0.075-3.338-0.23-4.318
		c-0.303-0.98-0.818-1.729-1.539-2.245C118.597,130.226,117.735,129.941,116.742,129.891z"/>
	<path fill="#FFFFFF" d="M134.319,145.952c-0.054,0.329-0.112,0.658-0.165,0.987c-2.49-0.372-4.981-0.693-7.472-0.962
		c0.04-0.331,0.08-0.662,0.12-0.993c0.311,0.034,0.618,0.068,0.931,0.104c0.383,0.043,0.672,0.007,0.865-0.111
		c0.195-0.117,0.31-0.293,0.34-0.528c0.261-1.969,0.515-3.938,0.765-5.907c0.061-0.476-0.017-0.839-0.233-1.088
		c-0.217-0.249-0.546-0.399-0.988-0.448c-0.211-0.024-0.427-0.048-0.638-0.071c0.035-0.313,0.075-0.626,0.106-0.939
		c1.622,0.101,3.247,0.222,4.874,0.362c-0.154,1.083-0.308,2.165-0.464,3.247c0.434-1.048,1.041-1.816,1.83-2.299
		c0.784-0.482,1.628-0.657,2.506-0.522c0.75,0.116,1.32,0.385,1.693,0.806c0.373,0.42,0.514,0.907,0.413,1.458
		c-0.084,0.473-0.305,0.831-0.651,1.076c-0.351,0.244-0.737,0.332-1.167,0.264c-0.379-0.06-0.685-0.237-0.918-0.534
		c-0.232-0.297-0.315-0.643-0.254-1.04c0.034-0.219,0.139-0.44,0.309-0.66c0.09-0.124,0.142-0.214,0.149-0.271
		c0.019-0.099,0.003-0.176-0.042-0.23c-0.046-0.053-0.123-0.088-0.234-0.105c-0.292-0.043-0.631,0.059-1.021,0.306
		c-0.6,0.384-1.148,1.039-1.65,1.964c-0.504,0.927-0.82,1.887-0.968,2.88c-0.106,0.716-0.216,1.433-0.323,2.149
		c-0.036,0.249,0.006,0.448,0.134,0.6c0.124,0.15,0.316,0.245,0.579,0.281C133.267,145.797,133.794,145.874,134.319,145.952z"/>
	<path fill="#FFFFFF" d="M148.59,139.64c0.328-0.22,0.659-0.438,0.989-0.656c0.248,0.055,0.495,0.109,0.741,0.164
		c-0.188,1.135-0.38,2.27-0.578,3.404c-0.323-0.072-0.643-0.143-0.966-0.214c-0.291-1.002-0.708-1.751-1.241-2.243
		c-0.533-0.491-1.237-0.828-2.117-1.002c-0.756-0.15-1.362-0.135-1.806,0.044c-0.444,0.18-0.707,0.463-0.785,0.851
		c-0.077,0.38,0.014,0.698,0.277,0.953c0.259,0.262,1.038,0.638,2.334,1.15c1.17,0.466,1.939,0.822,2.307,1.055
		c0.7,0.438,1.2,0.978,1.492,1.611c0.291,0.634,0.345,1.31,0.158,2.027c-0.233,0.906-0.835,1.574-1.789,2.014
		c-0.958,0.44-2.07,0.523-3.36,0.258c-0.619-0.127-1.169-0.309-1.644-0.543c-0.475-0.237-0.951-0.578-1.428-1.025
		c-0.335,0.244-0.671,0.489-1.002,0.735c-0.289-0.053-0.576-0.105-0.866-0.157c0.183-1.258,0.36-2.517,0.533-3.776
		c0.324,0.057,0.646,0.114,0.968,0.173c0.447,2.037,1.629,3.233,3.599,3.635c0.812,0.167,1.461,0.155,1.962-0.04
		c0.495-0.193,0.8-0.489,0.897-0.888c0.088-0.363,0.022-0.669-0.204-0.917c-0.228-0.247-0.898-0.607-2.022-1.066
		c-1.217-0.49-2.039-0.855-2.464-1.112c-0.73-0.424-1.249-0.913-1.554-1.476c-0.304-0.561-0.392-1.187-0.259-1.876
		c0.191-0.985,0.713-1.729,1.59-2.222c0.873-0.493,1.947-0.618,3.21-0.367c0.616,0.122,1.154,0.298,1.618,0.525
		C147.644,138.888,148.115,139.213,148.59,139.64z"/>
	<path fill="#FFFFFF" d="M153.451,140.438c1.694,0.338,3.397,0.699,5.098,1.082c-0.806,2.745-1.627,5.488-2.473,8.229
		c-0.067,0.221-0.043,0.413,0.078,0.575c0.118,0.164,0.339,0.289,0.661,0.375c0.24,0.066,0.481,0.133,0.722,0.201
		c-0.102,0.319-0.204,0.639-0.308,0.958c-2.135-0.593-4.273-1.148-6.408-1.665c0.089-0.323,0.178-0.646,0.268-0.969
		c0.235,0.058,0.475,0.115,0.711,0.173c0.385,0.094,0.676,0.082,0.879-0.039s0.359-0.377,0.474-0.772
		c0.534-1.877,1.067-3.755,1.585-5.634c0.099-0.354,0.057-0.657-0.129-0.91c-0.181-0.253-0.483-0.432-0.901-0.533
		c-0.169-0.041-0.338-0.082-0.505-0.123C153.284,141.071,153.369,140.754,153.451,140.438z M158.117,135.601
		c0.558,0.143,0.993,0.432,1.301,0.866c0.306,0.434,0.391,0.886,0.256,1.356c-0.134,0.47-0.447,0.816-0.935,1.041
		c-0.486,0.224-1.004,0.265-1.554,0.125c-0.555-0.143-0.986-0.429-1.29-0.859c-0.303-0.432-0.4-0.879-0.275-1.345
		c0.126-0.473,0.429-0.825,0.914-1.057C157.021,135.498,157.548,135.456,158.117,135.601z"/>
</g>
</svg>
