<?xml version="1.0" encoding="utf-8"?>
<!-- Generator: Adobe Illustrator 16.0.4, SVG Export Plug-In . SVG Version: 6.00 Build 0)  -->
<!DOCTYPE svg PUBLIC "-//W3C//DTD SVG 1.1//EN" "http://www.w3.org/Graphics/SVG/1.1/DTD/svg11.dtd">
<svg version="1.1" id="Livello_1" xmlns="http://www.w3.org/2000/svg" xmlns:xlink="http://www.w3.org/1999/xlink" x="0px" y="0px"
	 width="210px" height="200px" viewBox="0 0 210 200" enable-background="new 0 0 210 200" xml:space="preserve">
<g>
	<g>
		<circle fill="#FBC02E" cx="105" cy="100" r="84"/>
		<circle fill="#FABF2D" cx="105" cy="100" r="75.216"/>
		<path fill="#FFFFFF" d="M104.999,177.717c-42.853,0-77.715-34.864-77.715-77.717s34.862-77.717,77.715-77.717
			S182.716,57.147,182.716,100S147.852,177.717,104.999,177.717z M104.999,27.283c-40.095,0-72.715,32.621-72.715,72.717
			s32.62,72.717,72.715,72.717c40.097,0,72.717-32.621,72.717-72.717S145.096,27.283,104.999,27.283z"/>
		<path fill="#FFFFFF" d="M100.554,115.299H83.5l0.474-43.506c-0.551-4.04-3.011-6.182-6.093-6.182c-2.601,0-4.729,1.54-5.668,4.439
			L71.5,115.299H51.906h-0.035c-3.244,0-6.13,2.607-6.13,6.072c0,3.465,2.431,6.689,5.675,6.689c0.036,0,0.055,0.002,0.084,0.003
			v0.236h19.483H83.53h17.023c3.381,0,5.62-3.534,5.62-6.908C106.174,118.019,103.935,116.299,100.554,115.299z M51.516,128.064
			C52.047,128.082,51.592,128.215,51.516,128.064L51.516,128.064z"/>
		<g>
			<path fill="#FFFFFF" d="M142.847,86.046c-4.127-0.584-8.157-0.06-11.806,1.339l-5.002-10.106l5.697-14.445l-13.121-1.856
				c0,0-4.514,2.895-0.646,4.569c2.888,0.409,7.321,1.035,7.321,1.035l-2.617,6.618l-31.19-4.41l3.894-9.546
				c0,0,4.04,0.353,8.083,1.144c3.158-2.052,0.647-4.572,0.647-4.572l-21.339-3.017c0,0-3.323,1.685-0.646,4.572
				c4.673,0.662,8.547,1.209,8.547,1.209l-6.043,14.824L84.49,85.956c0.516-1.266,0.844-2.071,0.844-2.071
				c6.745,3.762,10.848,11.399,9.703,19.49c-0.633,4.477-2.778,8.369-5.834,11.256l6.121,0.01c2.209-3.044,3.73-6.652,4.293-10.629
				c1.447-10.223-3.878-19.858-12.533-24.421l2.891-7.094l19.763,33.538c0,0,0.828,1.862,2.876,2.151
				c2.043,0.289,3.078,0.435,3.078,0.435c-0.535,12.113,8.229,22.908,20.479,24.642c13.02,1.841,25.108-7.251,26.951-20.272
				C164.961,99.977,155.867,87.888,142.847,86.046z M135.506,106.751l-14.559-2.057c1.242-4.677,4.18-8.56,8.029-11.092
				L135.506,106.751z M111.874,100.563L96.301,74.126l24.637,3.484L111.874,100.563z M115.501,103.931l8.251-20.877l3.156,6.38
				c-5.156,3.221-9.066,8.376-10.571,14.616L115.501,103.931z M158.555,112.346c-1.483,10.493-11.229,17.833-21.731,16.349
				c-9.735-1.377-16.72-9.842-16.523-19.421c0,0,15.173,2.146,19.175,2.711c4,0.566,3.089-1.368,3.089-1.368l-9.456-19.076
				c2.828-1.008,5.932-1.375,9.1-0.928C152.711,92.099,160.039,101.853,158.555,112.346z"/>
			<path fill="#FFFFFF" d="M62.801,114.623c-4.361-4.142-6.744-10.248-5.84-16.643c1.127-7.966,7.023-14.097,14.387-15.944
				l0.074-4.758c-9.682,1.903-17.57,9.747-19.028,20.055c-0.897,6.346,0.81,12.466,4.296,17.29H62.801z"/>
		</g>
	</g>
	<path fill="#FDD835" d="M195.043,168.142c-2.57-5.81-5.418-11.587-8.545-17.312c5.996-2.563,12.201-4.905,18.602-7.004
		C140.988,117.308,68.912,117.476,4.9,144.329c0.041,0.095,0.08,0.188,0.119,0.283c6.605,2.131,13.004,4.522,19.182,7.149
		c-2.928,5.42-5.605,10.887-8.037,16.382C73.436,144.454,137.773,144.453,195.043,168.142L195.043,168.142L195.043,168.142z"/>
	<path fill="#FFFFFF" d="M12.102,170.961l1.514-3.425c2.23-5.043,4.686-10.092,7.309-15.03c-5.701-2.375-11.594-4.547-17.543-6.466
		l-0.654-0.212l-0.967-2.302l1.383-0.58c32.242-13.525,66.318-20.384,101.283-20.384c34.514,0,68.182,6.688,100.07,19.878
		l3.744,1.549l-3.85,1.263c-5.744,1.883-11.443,4.005-16.965,6.316c2.814,5.241,5.439,10.604,7.812,15.966l1.516,3.425l-3.461-1.432
		c-28.318-11.713-58.217-17.651-88.863-17.651c-30.65,0-60.549,5.939-88.869,17.653L12.102,170.961z M7.707,144.312
		c5.4,1.835,10.736,3.871,15.904,6.069l1.516,0.645l-0.783,1.448c-2.283,4.226-4.443,8.542-6.445,12.873
		c27.648-10.932,56.74-16.472,86.531-16.472c29.789,0,58.877,5.539,86.525,16.47c-2.148-4.645-4.48-9.271-6.951-13.796l-0.791-1.45
		l1.518-0.648c4.844-2.071,9.834-3.999,14.879-5.752c-30.412-12.038-62.41-18.137-95.184-18.137
		C71.09,125.562,38.57,131.868,7.707,144.312z"/>
	<g>
		<path fill="#FFFFFF" d="M39.153,140.366c2.329-0.655,4.659-1.273,6.987-1.858c1.182-0.296,2.207-0.247,3.065,0.14
			c0.858,0.39,1.387,0.993,1.589,1.805c0.154,0.618,0.085,1.206-0.207,1.765c-0.289,0.56-0.748,1.026-1.377,1.401
			c-0.626,0.375-1.275,0.648-1.943,0.817c-0.717,0.182-1.434,0.367-2.15,0.556c0.325,1.136,0.654,2.271,0.985,3.406
			c0.055,0.19,0.159,0.32,0.307,0.392c0.147,0.073,0.314,0.084,0.499,0.036c0.435-0.113,0.87-0.226,1.306-0.337
			c0.062,0.22,0.124,0.439,0.187,0.659c-2.014,0.513-4.025,1.054-6.037,1.622c-0.069-0.218-0.139-0.436-0.208-0.654
			c0.339-0.096,0.679-0.19,1.017-0.285c0.225-0.062,0.379-0.16,0.464-0.295c0.083-0.136,0.098-0.297,0.039-0.486
			c-0.808-2.646-1.601-5.295-2.378-7.945c-0.053-0.178-0.157-0.303-0.309-0.372c-0.153-0.07-0.32-0.08-0.495-0.031
			c-0.382,0.105-0.762,0.211-1.145,0.318C39.282,140.801,39.219,140.583,39.153,140.366z M44.933,144.347
			c0.481-0.125,0.962-0.251,1.441-0.375c0.503-0.129,0.924-0.338,1.264-0.63c0.337-0.292,0.553-0.597,0.646-0.915
			c0.092-0.318,0.058-0.787-0.106-1.408c-0.224-0.852-0.639-1.391-1.25-1.612c-0.445-0.156-1.128-0.12-2.046,0.117
			c-0.53,0.136-0.855,0.263-0.976,0.377c-0.119,0.116-0.154,0.267-0.103,0.456C44.176,141.688,44.552,143.018,44.933,144.347z"/>
		<path fill="#FFFFFF" d="M52.518,141.079c1.086-0.295,2.174-0.583,3.262-0.863c0.431,1.896,0.867,3.792,1.31,5.687
			c0.037,0.153,0.116,0.259,0.242,0.32c0.125,0.062,0.294,0.069,0.51,0.022c0.159-0.034,0.322-0.068,0.483-0.102
			c0.052,0.223,0.101,0.444,0.152,0.667c-1.436,0.3-2.871,0.615-4.307,0.943c-0.055-0.221-0.111-0.442-0.167-0.663
			c0.16-0.036,0.318-0.072,0.478-0.108c0.256-0.058,0.424-0.153,0.502-0.286c0.078-0.133,0.084-0.335,0.018-0.606
			c-0.315-1.289-0.627-2.58-0.935-3.869c-0.059-0.243-0.181-0.413-0.368-0.513c-0.187-0.097-0.417-0.117-0.691-0.055
			c-0.11,0.025-0.219,0.051-0.331,0.076C52.624,141.511,52.571,141.295,52.518,141.079z M53.659,136.763
			c0.359-0.079,0.696-0.032,1.003,0.139c0.31,0.171,0.499,0.42,0.571,0.744c0.073,0.326,0.007,0.627-0.198,0.91
			c-0.204,0.281-0.484,0.46-0.84,0.539c-0.362,0.08-0.696,0.033-1.005-0.139c-0.31-0.171-0.503-0.416-0.579-0.735
			c-0.075-0.323-0.012-0.627,0.192-0.911C53.009,137.026,53.293,136.843,53.659,136.763z"/>
		<path fill="#FFFFFF" d="M67.967,144.161c0.138,0.156,0.278,0.312,0.414,0.467c-0.275,0.253-0.531,0.44-0.763,0.559
			c-0.234,0.119-0.499,0.204-0.795,0.254c-0.438,0.076-0.81,0.051-1.115-0.077c-0.304-0.126-0.614-0.413-0.937-0.857
			c-0.428,0.58-0.83,0.996-1.208,1.248c-0.378,0.252-0.827,0.428-1.348,0.529c-0.721,0.138-1.313,0.094-1.786-0.135
			c-0.473-0.23-0.764-0.583-0.867-1.062c-0.16-0.721,0.089-1.377,0.754-1.963c0.536-0.463,1.794-1.074,3.793-1.792
			c-0.061-0.324-0.124-0.649-0.186-0.973c-0.073-0.384-0.272-0.673-0.598-0.863c-0.325-0.192-0.724-0.245-1.191-0.158
			c-0.359,0.067-0.661,0.198-0.906,0.388c-0.169,0.127-0.24,0.236-0.222,0.327c0.01,0.048,0.059,0.114,0.146,0.196
			c0.192,0.188,0.308,0.387,0.351,0.598c0.054,0.268,0.002,0.503-0.156,0.706c-0.16,0.202-0.401,0.335-0.725,0.399
			c-0.345,0.067-0.64,0.032-0.887-0.107c-0.247-0.137-0.399-0.347-0.46-0.63c-0.1-0.463,0.089-0.928,0.568-1.391
			c0.597-0.576,1.416-0.963,2.445-1.155c0.776-0.144,1.488-0.158,2.132-0.043c0.41,0.071,0.767,0.262,1.069,0.569
			c0.305,0.308,0.5,0.715,0.593,1.226c0.207,1.143,0.416,2.285,0.627,3.427c0.048,0.26,0.133,0.438,0.258,0.536
			c0.123,0.098,0.274,0.132,0.454,0.102C67.571,144.457,67.753,144.35,67.967,144.161z M64.23,141.958
			c-1.084,0.34-1.795,0.696-2.126,1.062c-0.333,0.364-0.447,0.784-0.349,1.258c0.07,0.335,0.214,0.576,0.435,0.719
			c0.22,0.146,0.492,0.186,0.821,0.124c0.507-0.096,0.895-0.343,1.165-0.746c0.268-0.402,0.349-0.898,0.232-1.489
			C64.35,142.578,64.29,142.268,64.23,141.958z"/>
		<path fill="#FFFFFF" d="M68.912,137.917c2.133-0.336,4.265-0.644,6.396-0.921c0.03,0.219,0.061,0.439,0.09,0.66
			c-1.218,2.01-2.398,4.031-3.536,6.06c0.674-0.101,1.347-0.198,2.021-0.293c0.439-0.062,0.78-0.26,1.025-0.6
			c0.245-0.339,0.384-0.898,0.415-1.676c0.23-0.03,0.461-0.061,0.691-0.091c0.076,0.913,0.152,1.823,0.23,2.735
			c-2.231,0.292-4.466,0.616-6.696,0.974c-0.041-0.224-0.078-0.449-0.116-0.673c1.114-2.041,2.27-4.073,3.465-6.097
			c-0.579,0.081-1.157,0.166-1.737,0.251c-0.404,0.06-0.718,0.249-0.94,0.563c-0.223,0.315-0.34,0.818-0.349,1.509
			c-0.231,0.037-0.464,0.073-0.696,0.109C69.087,139.591,68.999,138.754,68.912,137.917z"/>
		<path fill="#FFFFFF" d="M77.611,136.706c2.131-0.257,4.262-0.486,6.394-0.685c0.021,0.221,0.042,0.442,0.063,0.663
			c-1.288,1.965-2.539,3.941-3.75,5.925c0.673-0.075,1.347-0.148,2.021-0.218c0.438-0.045,0.785-0.231,1.042-0.562
			c0.259-0.33,0.415-0.883,0.479-1.659c0.23-0.022,0.462-0.044,0.691-0.065c0.038,0.914,0.081,1.827,0.122,2.74
			c-2.233,0.209-4.464,0.451-6.697,0.726c-0.029-0.225-0.06-0.45-0.09-0.676c1.189-1.998,2.416-3.985,3.682-5.964
			c-0.579,0.061-1.158,0.123-1.737,0.188c-0.403,0.045-0.723,0.223-0.956,0.528c-0.231,0.306-0.369,0.806-0.404,1.495
			c-0.231,0.027-0.463,0.055-0.694,0.083C77.721,138.386,77.664,137.546,77.611,136.706z"/>
		<path fill="#FFFFFF" d="M94.514,141.285c0.117,0.17,0.234,0.34,0.351,0.51c-0.301,0.221-0.573,0.376-0.816,0.467
			c-0.243,0.091-0.515,0.145-0.81,0.162c-0.438,0.024-0.799-0.043-1.081-0.205c-0.282-0.161-0.553-0.481-0.812-0.958
			c-0.489,0.525-0.933,0.892-1.334,1.099c-0.399,0.207-0.859,0.329-1.381,0.369c-0.719,0.055-1.295-0.058-1.726-0.339
			c-0.433-0.282-0.671-0.667-0.716-1.153c-0.066-0.734,0.255-1.356,0.974-1.861c0.577-0.399,1.879-0.859,3.919-1.344
			c-0.023-0.329-0.045-0.658-0.065-0.987c-0.026-0.389-0.188-0.699-0.483-0.926c-0.295-0.229-0.677-0.326-1.145-0.292
			c-0.358,0.025-0.67,0.119-0.93,0.28c-0.178,0.107-0.262,0.207-0.255,0.299c0.003,0.049,0.042,0.119,0.118,0.21
			c0.165,0.208,0.255,0.419,0.27,0.634c0.023,0.272-0.057,0.5-0.237,0.682c-0.179,0.182-0.432,0.288-0.754,0.312
			c-0.343,0.027-0.627-0.042-0.85-0.208c-0.226-0.164-0.349-0.39-0.375-0.678c-0.042-0.471,0.198-0.911,0.72-1.315
			c0.65-0.503,1.495-0.794,2.523-0.866c0.775-0.054,1.475,0.014,2.088,0.202c0.393,0.117,0.722,0.347,0.979,0.686
			c0.26,0.34,0.404,0.769,0.434,1.286c0.067,1.158,0.135,2.315,0.202,3.474c0.015,0.264,0.078,0.45,0.188,0.561
			c0.108,0.111,0.253,0.163,0.433,0.153C94.09,141.533,94.282,141.448,94.514,141.285z M91.124,138.669
			c-1.103,0.213-1.837,0.486-2.205,0.81c-0.367,0.323-0.532,0.727-0.492,1.209c0.027,0.34,0.14,0.596,0.337,0.763
			c0.196,0.169,0.459,0.241,0.787,0.217c0.508-0.037,0.915-0.238,1.229-0.606c0.312-0.368,0.451-0.852,0.408-1.451
			C91.166,139.298,91.145,138.983,91.124,138.669z"/>
		<path fill="#FFFFFF" d="M104.681,130.983c1.247-0.051,2.493-0.094,3.74-0.126c-0.027,2.988-0.058,5.976-0.088,8.964
			c-0.004,0.46,0.025,0.769,0.089,0.928c0.061,0.16,0.158,0.276,0.291,0.348c0.133,0.072,0.388,0.11,0.767,0.115
			c-0.003,0.217-0.007,0.435-0.01,0.653c-0.983,0.015-1.967,0.037-2.949,0.064c-0.071-0.444-0.141-0.889-0.214-1.334
			c-0.453,0.562-0.86,0.937-1.224,1.123c-0.364,0.187-0.819,0.285-1.366,0.291c-0.979,0.01-1.783-0.291-2.418-0.907
			c-0.635-0.617-0.969-1.462-0.998-2.541c-0.031-1.191,0.278-2.145,0.937-2.858c0.656-0.711,1.49-1.076,2.494-1.085
			c0.539-0.005,1.017,0.099,1.438,0.315c0.421,0.215,0.8,0.568,1.141,1.056c0.001-1.041,0.002-2.081,0.002-3.121
			c0-0.37-0.036-0.637-0.11-0.798c-0.075-0.161-0.176-0.272-0.301-0.333c-0.126-0.062-0.385-0.091-0.773-0.089
			c-0.146,0-0.294,0.001-0.442,0.002C104.684,131.427,104.682,131.205,104.681,130.983z M104.458,135.555
			c-0.61,0.005-1.06,0.259-1.354,0.76c-0.241,0.409-0.354,1.056-0.341,1.938c0.012,0.738,0.086,1.287,0.226,1.649
			c0.138,0.362,0.337,0.631,0.586,0.807c0.253,0.176,0.535,0.262,0.854,0.259c0.521-0.004,0.942-0.218,1.26-0.642
			c0.428-0.558,0.643-1.271,0.644-2.14c0.001-0.807-0.187-1.447-0.564-1.922C105.389,135.787,104.951,135.551,104.458,135.555z"/>
		<path fill="#FFFFFF" d="M111.131,135.036c1.097-0.023,2.194-0.039,3.292-0.046c-0.068,1.938-0.138,3.879-0.212,5.818
			c-0.005,0.156,0.043,0.279,0.146,0.368c0.101,0.089,0.261,0.137,0.475,0.145c0.162,0.006,0.322,0.013,0.485,0.019
			c-0.01,0.227-0.02,0.454-0.029,0.681c-1.437-0.056-2.873-0.101-4.308-0.129c0.004-0.228,0.011-0.455,0.015-0.683
			c0.159,0.003,0.318,0.007,0.477,0.011c0.258,0.006,0.438-0.046,0.547-0.155c0.108-0.11,0.166-0.304,0.174-0.582
			c0.036-1.323,0.072-2.646,0.107-3.968c0.008-0.249-0.064-0.443-0.216-0.585c-0.15-0.139-0.363-0.214-0.636-0.22
			c-0.112-0.002-0.222-0.005-0.331-0.007C111.122,135.48,111.126,135.258,111.131,135.036z M113.28,131.134
			c0.358,0.011,0.665,0.137,0.913,0.376c0.249,0.241,0.367,0.527,0.355,0.858c-0.011,0.333-0.15,0.61-0.412,0.833
			c-0.263,0.223-0.572,0.329-0.928,0.319c-0.361-0.011-0.666-0.136-0.914-0.377c-0.25-0.241-0.369-0.524-0.362-0.852
			c0.008-0.332,0.143-0.61,0.407-0.836C112.602,131.231,112.916,131.124,113.28,131.134z"/>
		<path fill="#FFFFFF" d="M131.215,133.133c0.225-0.337,0.446-0.675,0.67-1.012c0.199,0.021,0.398,0.042,0.597,0.064
			c-0.091,1.447-0.188,2.893-0.285,4.338c-0.243-0.026-0.484-0.053-0.728-0.079c-0.089-1.266-0.42-2.235-0.992-2.903
			c-0.573-0.665-1.271-1.039-2.09-1.115c-0.9-0.083-1.681,0.242-2.332,0.972c-0.653,0.729-1.043,1.935-1.181,3.612
			c-0.146,1.776,0.059,3.118,0.606,4.03c0.438,0.718,1.14,1.118,2.107,1.208c0.969,0.09,1.817-0.166,2.557-0.771
			c0.532-0.44,0.95-1.128,1.252-2.064c0.235,0.025,0.469,0.051,0.705,0.077c-0.313,1.209-0.926,2.124-1.831,2.75
			c-0.906,0.629-1.954,0.883-3.154,0.774c-1.55-0.142-2.802-0.766-3.777-1.889c-0.973-1.121-1.414-2.493-1.3-4.124
			c0.125-1.811,0.849-3.217,2.195-4.203c1.148-0.839,2.458-1.196,3.914-1.062c0.575,0.052,1.101,0.184,1.575,0.395
			C130.197,132.344,130.696,132.677,131.215,133.133z"/>
		<path fill="#FFFFFF" d="M141.363,141.113c-1.706-0.257-3.409-0.496-5.111-0.717c-0.113,0.956-0.006,1.686,0.322,2.19
			c0.327,0.503,0.798,0.797,1.412,0.883c0.44,0.061,0.875,0.003,1.305-0.172c0.433-0.175,0.902-0.535,1.417-1.082
			c0.172,0.137,0.344,0.274,0.514,0.412c-0.556,0.656-1.137,1.1-1.749,1.329c-0.608,0.231-1.315,0.289-2.122,0.179
			c-1.176-0.16-2.077-0.62-2.716-1.388c-0.637-0.769-0.895-1.682-0.762-2.743c0.132-1.062,0.613-1.905,1.459-2.525
			c0.844-0.619,1.819-0.857,2.92-0.708c0.762,0.103,1.396,0.338,1.897,0.701c0.504,0.364,0.863,0.844,1.08,1.436
			C141.443,139.503,141.491,140.237,141.363,141.113z M136.342,139.735c0.812,0.105,1.627,0.214,2.44,0.329
			c0.228,0.032,0.4,0.003,0.515-0.089c0.115-0.093,0.193-0.279,0.235-0.56c0.086-0.561,0.011-1.014-0.222-1.36
			c-0.232-0.346-0.563-0.549-0.997-0.607c-0.511-0.07-0.929,0.086-1.255,0.467C136.73,138.296,136.492,138.903,136.342,139.735z"/>
		<path fill="#FFFFFF" d="M152.129,145.755c-0.048,0.222-0.098,0.445-0.146,0.667c-1.44-0.289-2.879-0.564-4.319-0.826
			c0.044-0.223,0.088-0.446,0.132-0.669c0.152,0.027,0.304,0.055,0.454,0.083c0.242,0.044,0.435,0.02,0.574-0.073
			c0.141-0.093,0.232-0.25,0.279-0.47c0.198-0.974,0.394-1.948,0.588-2.922c0.099-0.498,0.051-0.903-0.144-1.216
			c-0.196-0.312-0.497-0.505-0.898-0.578c-0.551-0.1-1.033,0.01-1.448,0.328c-0.415,0.316-0.688,0.839-0.822,1.565
			c-0.138,0.752-0.277,1.505-0.419,2.258c-0.041,0.221-0.012,0.399,0.087,0.536c0.1,0.136,0.243,0.221,0.434,0.254
			c0.182,0.032,0.363,0.064,0.546,0.096c-0.044,0.224-0.086,0.448-0.13,0.671c-1.496-0.267-2.992-0.518-4.487-0.755
			c0.038-0.224,0.076-0.448,0.115-0.672c0.194,0.03,0.389,0.061,0.585,0.093c0.227,0.036,0.406,0.006,0.542-0.091
			c0.136-0.097,0.223-0.255,0.262-0.476c0.237-1.342,0.474-2.683,0.704-4.024c0.04-0.231-0.014-0.429-0.159-0.594
			c-0.148-0.166-0.362-0.271-0.64-0.316c-0.105-0.017-0.211-0.033-0.315-0.05c0.034-0.21,0.069-0.418,0.104-0.629
			c1.04,0.113,2.081,0.232,3.123,0.359c0.036,0.434,0.031,0.94-0.017,1.523c0.526-0.46,1.061-0.778,1.602-0.955
			c0.536-0.177,1.081-0.216,1.624-0.116c0.737,0.137,1.274,0.471,1.611,0.999c0.329,0.527,0.408,1.188,0.243,1.983
			c-0.219,1.039-0.438,2.078-0.659,3.118c-0.05,0.239-0.03,0.422,0.067,0.552c0.096,0.128,0.271,0.217,0.527,0.268
			C151.862,145.702,151.996,145.729,152.129,145.755z"/>
		<path fill="#FFFFFF" d="M157.591,137.686c0.24,0.051,0.477,0.103,0.716,0.155c-0.212,0.917-0.424,1.835-0.639,2.753
			c0.818,0.178,1.633,0.36,2.45,0.548c-0.063,0.257-0.126,0.514-0.189,0.771c-0.813-0.187-1.628-0.369-2.44-0.546
			c-0.332,1.417-0.669,2.834-1.008,4.252c-0.068,0.282-0.044,0.516,0.075,0.706c0.118,0.188,0.301,0.31,0.556,0.367
			c0.719,0.161,1.258-0.372,1.608-1.603c0.23,0.052,0.462,0.105,0.692,0.159c-0.183,0.657-0.431,1.162-0.743,1.514
			c-0.312,0.354-0.691,0.595-1.138,0.726c-0.446,0.13-0.913,0.141-1.403,0.034c-0.43-0.095-0.781-0.256-1.057-0.486
			c-0.278-0.229-0.474-0.525-0.586-0.886c-0.112-0.362-0.124-0.731-0.04-1.109c0.315-1.375,0.626-2.75,0.933-4.125
			c-0.437-0.091-0.874-0.182-1.31-0.271c0.048-0.219,0.096-0.439,0.142-0.659c0.825,0.068,1.517-0.079,2.073-0.447
			C156.838,139.17,157.277,138.554,157.591,137.686z"/>
		<path fill="#FFFFFF" d="M168.387,149.435c0.057,0.198,0.111,0.397,0.167,0.595c-0.374,0.112-0.696,0.171-0.966,0.18
			c-0.271,0.007-0.555-0.028-0.851-0.107c-0.439-0.118-0.771-0.297-0.991-0.541s-0.374-0.632-0.462-1.167
			c-0.662,0.341-1.223,0.546-1.688,0.613c-0.462,0.068-0.952,0.037-1.475-0.091c-0.72-0.178-1.24-0.467-1.564-0.872
			c-0.323-0.404-0.423-0.844-0.3-1.318c0.187-0.716,0.711-1.203,1.583-1.451c0.697-0.194,2.124-0.214,4.291-0.021
			c0.091-0.318,0.179-0.637,0.271-0.956c0.104-0.376,0.052-0.722-0.162-1.031c-0.212-0.311-0.556-0.525-1.023-0.643
			c-0.358-0.091-0.696-0.101-1.006-0.032c-0.21,0.044-0.327,0.112-0.351,0.202c-0.012,0.047,0.003,0.127,0.047,0.237
			c0.091,0.25,0.106,0.479,0.05,0.687c-0.071,0.265-0.225,0.455-0.461,0.571c-0.237,0.115-0.52,0.134-0.844,0.056
			c-0.345-0.084-0.599-0.24-0.761-0.468c-0.163-0.228-0.208-0.481-0.136-0.762c0.118-0.458,0.497-0.801,1.143-1.018
			c0.808-0.269,1.729-0.275,2.762-0.014c0.778,0.196,1.442,0.484,1.983,0.859c0.347,0.237,0.592,0.56,0.731,0.965
			c0.142,0.406,0.139,0.858-0.008,1.357c-0.328,1.118-0.658,2.236-0.994,3.354c-0.077,0.254-0.08,0.451-0.01,0.591
			c0.067,0.14,0.191,0.235,0.372,0.283C167.884,149.534,168.101,149.514,168.387,149.435z M165.956,145.871
			c-1.153-0.151-1.966-0.128-2.436,0.061c-0.471,0.188-0.768,0.518-0.895,0.986c-0.09,0.332-0.068,0.609,0.067,0.831
			c0.132,0.223,0.363,0.375,0.693,0.457c0.507,0.127,0.977,0.068,1.41-0.181c0.434-0.249,0.733-0.662,0.899-1.242
			C165.782,146.479,165.87,146.175,165.956,145.871z"/>
	</g>
</g>
</svg>
