<?xml version="1.0" encoding="utf-8"?>
<!-- Generator: Adobe Illustrator 16.0.4, SVG Export Plug-In . SVG Version: 6.00 Build 0)  -->
<!DOCTYPE svg PUBLIC "-//W3C//DTD SVG 1.1//EN" "http://www.w3.org/Graphics/SVG/1.1/DTD/svg11.dtd">
<svg version="1.1" id="Livello_1" xmlns="http://www.w3.org/2000/svg" xmlns:xlink="http://www.w3.org/1999/xlink" x="0px" y="0px"
	 width="210px" height="200px" viewBox="0 0 210 200" enable-background="new 0 0 210 200" xml:space="preserve">
<g>
	<circle fill="#FBC02E" cx="105" cy="100" r="84"/>
	<circle fill="#FABF2D" cx="105" cy="100" r="75.216"/>
	<path fill="#FFFFFF" d="M104.999,177.717c-42.853,0-77.715-34.864-77.715-77.717s34.862-77.717,77.715-77.717
		S182.716,57.147,182.716,100S147.852,177.717,104.999,177.717z M104.999,27.283c-40.095,0-72.715,32.621-72.715,72.717
		s32.62,72.717,72.715,72.717c40.097,0,72.717-32.621,72.717-72.717S145.096,27.283,104.999,27.283z"/>
	<path fill="#FFFFFF" d="M100.554,115.299H83.5l0.474-43.506c-0.551-4.04-3.011-6.182-6.093-6.182c-2.601,0-4.729,1.54-5.668,4.439
		L71.5,115.299H51.906h-0.035c-3.244,0-6.13,2.607-6.13,6.072c0,3.465,2.431,6.689,5.675,6.689c0.036,0,0.055,0.002,0.084,0.003
		v0.236h19.483H83.53h17.023c3.381,0,5.62-3.534,5.62-6.908C106.174,118.019,103.935,116.299,100.554,115.299z M51.516,128.064
		C52.047,128.082,51.592,128.215,51.516,128.064L51.516,128.064z"/>
	<g>
		<path fill="#FFFFFF" d="M142.847,86.046c-4.127-0.584-8.157-0.06-11.806,1.339l-5.002-10.106l5.697-14.445l-13.121-1.856
			c0,0-4.514,2.895-0.646,4.569c2.888,0.409,7.321,1.035,7.321,1.035l-2.617,6.618l-31.19-4.41l3.894-9.546
			c0,0,4.04,0.353,8.083,1.144c3.158-2.052,0.647-4.572,0.647-4.572l-21.339-3.017c0,0-3.323,1.685-0.646,4.572
			c4.673,0.662,8.547,1.209,8.547,1.209l-6.043,14.824L84.49,85.956c0.516-1.266,0.844-2.071,0.844-2.071
			c6.745,3.762,10.848,11.399,9.703,19.49c-0.633,4.477-2.778,8.369-5.834,11.256l6.121,0.01c2.209-3.044,3.73-6.652,4.293-10.629
			c1.447-10.223-3.878-19.858-12.533-24.421l2.891-7.094l19.763,33.538c0,0,0.828,1.862,2.876,2.151
			c2.043,0.289,3.078,0.435,3.078,0.435c-0.535,12.113,8.229,22.908,20.479,24.642c13.02,1.841,25.108-7.251,26.951-20.272
			C164.961,99.977,155.867,87.888,142.847,86.046z M135.506,106.751l-14.559-2.057c1.242-4.677,4.18-8.56,8.029-11.092
			L135.506,106.751z M111.874,100.563L96.301,74.126l24.637,3.484L111.874,100.563z M115.501,103.931l8.251-20.877l3.156,6.38
			c-5.156,3.221-9.066,8.376-10.571,14.616L115.501,103.931z M158.555,112.346c-1.483,10.493-11.229,17.833-21.731,16.349
			c-9.735-1.377-16.72-9.842-16.523-19.421c0,0,15.173,2.146,19.175,2.711c4,0.566,3.089-1.368,3.089-1.368l-9.456-19.076
			c2.828-1.008,5.932-1.375,9.1-0.928C152.711,92.099,160.039,101.853,158.555,112.346z"/>
		<path fill="#FFFFFF" d="M62.801,114.623c-4.361-4.142-6.744-10.248-5.84-16.643c1.127-7.966,7.023-14.097,14.387-15.944
			l0.074-4.758c-9.682,1.903-17.57,9.747-19.028,20.055c-0.897,6.346,0.81,12.466,4.296,17.29H62.801z"/>
	</g>
</g>
<path fill="#FDD835" d="M195.043,168.142c-2.57-5.81-5.418-11.587-8.545-17.312c5.996-2.563,12.201-4.905,18.602-7.004
	C140.988,117.308,68.912,117.476,4.9,144.329c0.041,0.095,0.08,0.188,0.119,0.283c6.605,2.131,13.004,4.522,19.182,7.149
	c-2.928,5.42-5.605,10.887-8.037,16.382C73.436,144.454,137.773,144.453,195.043,168.142L195.043,168.142L195.043,168.142z"/>
<path fill="#FFFFFF" d="M12.102,170.961l1.514-3.425c2.23-5.043,4.686-10.092,7.309-15.03c-5.701-2.375-11.594-4.547-17.543-6.466
	l-0.654-0.212l-0.967-2.302l1.383-0.58c32.242-13.525,66.318-20.384,101.283-20.384c34.514,0,68.182,6.688,100.07,19.878
	l3.744,1.549l-3.85,1.263c-5.744,1.883-11.443,4.005-16.965,6.316c2.814,5.241,5.439,10.604,7.812,15.966l1.516,3.425l-3.461-1.432
	c-28.318-11.713-58.217-17.651-88.863-17.651c-30.65,0-60.549,5.939-88.869,17.653L12.102,170.961z M7.707,144.312
	c5.4,1.835,10.736,3.871,15.904,6.069l1.516,0.645l-0.783,1.448c-2.283,4.226-4.443,8.542-6.445,12.873
	c27.648-10.932,56.74-16.472,86.531-16.472c29.789,0,58.877,5.539,86.525,16.47c-2.148-4.645-4.48-9.271-6.951-13.796l-0.791-1.45
	l1.518-0.648c4.844-2.071,9.834-3.999,14.879-5.752c-30.412-12.038-62.41-18.137-95.184-18.137
	C71.09,125.562,38.57,131.868,7.707,144.312z"/>
<g>
	<path fill="#FFFFFF" d="M39.425,137.181c2.493-0.701,4.986-1.361,7.478-1.983c2.32,3.127,4.597,6.282,6.827,9.46
		c0.438-3.799,0.966-7.603,1.583-11.408c2.553-0.546,5.106-1.053,7.658-1.517c0.062,0.327,0.123,0.654,0.186,0.982
		c-0.551,0.101-1.103,0.203-1.654,0.307c-0.411,0.078-0.679,0.195-0.809,0.352c-0.129,0.157-0.162,0.389-0.1,0.699
		c0.804,3.97,1.63,7.938,2.481,11.906c0.063,0.301,0.188,0.494,0.369,0.576c0.271,0.123,0.606,0.147,1.005,0.07
		c0.459-0.087,0.917-0.172,1.376-0.255c0.066,0.327,0.131,0.654,0.199,0.981c-2.923,0.535-5.845,1.127-8.766,1.778
		c-0.081-0.324-0.161-0.649-0.242-0.973c0.553-0.123,1.107-0.245,1.66-0.364c0.304-0.065,0.519-0.192,0.642-0.379
		c0.124-0.187,0.154-0.418,0.091-0.691c-0.989-4.233-1.949-8.469-2.879-12.707c-0.891,5.266-1.614,10.527-2.156,15.776
		c-0.343,0.081-0.686,0.163-1.028,0.245c-3.138-4.418-6.364-8.788-9.679-13.105c1.053,3.738,2.133,7.473,3.242,11.205
		c0.192,0.642,0.582,1.106,1.165,1.396c0.584,0.291,1.322,0.364,2.219,0.226c0.092,0.322,0.185,0.645,0.276,0.966
		c-2.127,0.539-4.256,1.11-6.384,1.713c-0.104-0.32-0.206-0.639-0.309-0.958c0.79-0.291,1.34-0.715,1.651-1.28
		c0.313-0.564,0.368-1.187,0.161-1.869c-1.002-3.296-1.98-6.593-2.936-9.894c-0.122-0.421-0.29-0.677-0.505-0.768
		s-0.572-0.069-1.073,0.069c-0.487,0.134-0.975,0.27-1.462,0.406C39.617,137.821,39.521,137.501,39.425,137.181z"/>
	<path fill="#FFFFFF" d="M65.896,137.141c1.687-0.381,3.374-0.745,5.062-1.091c0.354,2.208,0.716,4.416,1.082,6.623
		c0.103,0.616,0.367,1.075,0.792,1.375c0.427,0.303,0.931,0.411,1.514,0.326c0.825-0.119,1.44-0.507,1.848-1.17
		c0.409-0.663,0.56-1.394,0.446-2.196c-0.154-1.086-0.308-2.172-0.459-3.258c-0.056-0.383-0.216-0.658-0.487-0.825
		c-0.27-0.165-0.617-0.22-1.038-0.163c-0.187,0.026-0.373,0.052-0.559,0.078c-0.048-0.322-0.095-0.645-0.144-0.967
		c1.709-0.327,3.419-0.635,5.131-0.924c0.333,2.695,0.673,5.389,1.02,8.083c0.048,0.363,0.207,0.632,0.479,0.81
		c0.271,0.177,0.611,0.242,1.016,0.197c0.168-0.019,0.336-0.038,0.504-0.056c0.039,0.331,0.079,0.662,0.12,0.993
		c-1.502,0.209-3.002,0.433-4.502,0.672c-0.287-0.685-0.507-1.43-0.653-2.235c-0.634,0.973-1.267,1.686-1.91,2.14
		c-0.643,0.454-1.337,0.735-2.086,0.85c-0.743,0.112-1.389,0.068-1.947-0.133c-0.558-0.201-1.044-0.583-1.46-1.147
		c-0.416-0.564-0.704-1.283-0.863-2.158c-0.239-1.313-0.476-2.625-0.709-3.939c-0.077-0.43-0.257-0.718-0.542-0.863
		c-0.283-0.145-0.775-0.165-1.475-0.058C66.015,137.783,65.956,137.462,65.896,137.141z"/>
	<path fill="#FFFFFF" d="M98.796,142.752c0.012,0.333,0.024,0.666,0.039,0.998c-2.188,0.081-4.373,0.194-6.562,0.337
		c-0.022-0.332-0.046-0.664-0.069-0.997c0.23-0.015,0.46-0.03,0.691-0.044c0.367-0.023,0.633-0.125,0.802-0.307
		c0.169-0.182,0.244-0.438,0.224-0.766c-0.093-1.452-0.181-2.903-0.271-4.354c-0.045-0.744-0.269-1.303-0.676-1.677
		c-0.405-0.372-0.92-0.541-1.54-0.499c-0.844,0.057-1.511,0.388-1.997,0.989c-0.484,0.6-0.679,1.44-0.587,2.518
		c0.092,1.117,0.188,2.234,0.281,3.352c0.029,0.328,0.142,0.571,0.341,0.728c0.198,0.157,0.441,0.225,0.73,0.204
		c0.276-0.021,0.553-0.042,0.831-0.062c0.025,0.333,0.051,0.665,0.076,0.997c-2.273,0.162-4.544,0.357-6.815,0.588
		c-0.035-0.332-0.073-0.663-0.109-0.995c0.296-0.03,0.593-0.059,0.89-0.087c0.344-0.034,0.594-0.144,0.753-0.332
		c0.156-0.188,0.22-0.445,0.188-0.772c-0.199-1.986-0.396-3.972-0.588-5.958c-0.034-0.342-0.191-0.603-0.474-0.782
		c-0.284-0.178-0.641-0.247-1.07-0.204c-0.162,0.016-0.323,0.033-0.485,0.049c-0.033-0.311-0.065-0.62-0.099-0.93
		c1.584-0.235,3.167-0.455,4.753-0.658c0.223,0.601,0.411,1.322,0.571,2.164c0.594-0.844,1.256-1.491,1.979-1.936
		c0.726-0.445,1.51-0.694,2.347-0.745c1.136-0.068,2.054,0.218,2.743,0.852c0.679,0.634,1.044,1.546,1.1,2.734
		c0.071,1.552,0.146,3.104,0.22,4.658c0.017,0.357,0.118,0.611,0.308,0.76c0.187,0.149,0.475,0.216,0.864,0.2
		C98.39,142.768,98.591,142.76,98.796,142.752z"/>
	<path fill="#FFFFFF" d="M100.528,133.635c1.688-0.116,3.38-0.213,5.073-0.293c0.02,2.847,0.039,5.693,0.061,8.54
		c0.002,0.229,0.082,0.406,0.244,0.53c0.16,0.125,0.406,0.186,0.733,0.186c0.244,0,0.491-0.001,0.737-0.001
		c0,0.333-0.001,0.666-0.002,0.999c-2.184-0.001-4.366,0.029-6.548,0.091c-0.011-0.333-0.021-0.666-0.03-0.999
		c0.241-0.007,0.483-0.013,0.726-0.019c0.391-0.01,0.662-0.098,0.821-0.267c0.155-0.168,0.229-0.457,0.22-0.865
		c-0.043-1.94-0.083-3.88-0.125-5.82c-0.007-0.365-0.132-0.646-0.375-0.841s-0.577-0.288-0.996-0.277
		c-0.172,0.005-0.342,0.009-0.511,0.014C100.548,134.287,100.537,133.961,100.528,133.635z M103.574,127.767
		c0.559-0.008,1.041,0.156,1.442,0.493c0.403,0.337,0.604,0.749,0.607,1.236s-0.192,0.901-0.585,1.246
		c-0.391,0.343-0.861,0.519-1.411,0.527c-0.559,0.009-1.038-0.154-1.44-0.49c-0.403-0.335-0.611-0.743-0.622-1.222
		c-0.011-0.487,0.177-0.905,0.57-1.254C102.527,127.955,103.008,127.775,103.574,127.767z"/>
	<path fill="#FFFFFF" d="M120.312,140.334c0.299,0.15,0.601,0.3,0.898,0.451c-0.555,1.1-1.347,1.93-2.37,2.498
		c-1.023,0.569-2.208,0.825-3.565,0.776c-1.838-0.065-3.257-0.559-4.28-1.502c-1.02-0.944-1.534-2.195-1.518-3.764
		c0.017-1.69,0.659-3.075,1.955-4.142c1.295-1.065,3.016-1.57,5.137-1.487c1.524,0.06,2.68,0.39,3.453,0.972
		c0.775,0.584,1.135,1.261,1.087,2.025c-0.035,0.558-0.238,0.988-0.604,1.294c-0.369,0.306-0.835,0.443-1.403,0.415
		c-0.495-0.025-0.883-0.17-1.162-0.438c-0.279-0.267-0.41-0.604-0.391-1.012c0.016-0.35,0.195-0.751,0.54-1.202
		c0.147-0.187,0.222-0.32,0.227-0.398c0.006-0.143-0.113-0.278-0.359-0.403c-0.35-0.195-0.813-0.305-1.393-0.328
		c-1.074-0.042-1.863,0.235-2.359,0.822c-0.665,0.776-1.015,1.971-1.059,3.582c-0.043,1.611,0.237,2.751,0.831,3.424
		c0.598,0.673,1.374,1.027,2.342,1.065c0.766,0.03,1.496-0.171,2.2-0.605C119.221,141.939,119.817,141.261,120.312,140.334z"/>
	<path fill="#FFFFFF" d="M123.675,134.108c1.697,0.049,3.396,0.116,5.097,0.202c-0.268,2.835-0.541,5.67-0.82,8.504
		c-0.021,0.228,0.04,0.412,0.188,0.551c0.147,0.14,0.386,0.225,0.714,0.256c0.245,0.023,0.49,0.047,0.737,0.071
		c-0.035,0.331-0.071,0.663-0.107,0.994c-2.184-0.214-4.366-0.396-6.549-0.548c0.023-0.332,0.049-0.665,0.075-0.997
		c0.241,0.017,0.483,0.034,0.726,0.052c0.391,0.028,0.672-0.033,0.846-0.186s0.277-0.431,0.312-0.838
		c0.162-1.935,0.321-3.869,0.478-5.804c0.029-0.364-0.066-0.656-0.289-0.874c-0.223-0.217-0.546-0.342-0.967-0.372
		c-0.171-0.013-0.342-0.025-0.511-0.037C123.626,134.758,123.65,134.433,123.675,134.108z M127.299,128.565
		c0.56,0.046,1.024,0.257,1.394,0.63c0.37,0.375,0.53,0.805,0.485,1.29c-0.044,0.485-0.281,0.879-0.707,1.183
		c-0.427,0.304-0.914,0.433-1.464,0.387c-0.56-0.046-1.022-0.255-1.391-0.628s-0.537-0.798-0.5-1.276
		c0.035-0.486,0.267-0.884,0.693-1.193C126.233,128.649,126.732,128.518,127.299,128.565z"/>
	<path fill="#FFFFFF" d="M132.727,134.96c1.56,0.081,3.122,0.177,4.687,0.29c0.102,0.671,0.124,1.328,0.069,1.972
		c0.568-0.611,1.255-1.052,2.061-1.321c0.808-0.268,1.673-0.335,2.596-0.2c1.478,0.217,2.602,0.864,3.353,1.922
		c0.752,1.06,0.969,2.427,0.664,4.093c-0.211,1.159-0.606,2.105-1.177,2.841c-0.571,0.734-1.268,1.247-2.091,1.537
		c-0.822,0.293-1.73,0.365-2.73,0.219c-0.8-0.117-1.483-0.381-2.057-0.796s-1.075-1.022-1.513-1.824
		c-0.168,1.189-0.337,2.379-0.508,3.568c-0.065,0.47-0.071,0.775-0.014,0.916c0.059,0.142,0.188,0.26,0.388,0.354
		c0.201,0.096,0.615,0.188,1.24,0.281c-0.052,0.341-0.104,0.681-0.156,1.021c-2.149-0.294-4.301-0.557-6.45-0.788
		c0.041-0.342,0.082-0.683,0.123-1.025c0.114,0.013,0.229,0.025,0.344,0.038c0.406,0.044,0.682,0.041,0.828-0.01
		c0.146-0.053,0.268-0.156,0.366-0.311c0.067-0.107,0.132-0.393,0.19-0.855c0.399-3.15,0.791-6.301,1.174-9.452
		c0.056-0.463,0.051-0.775-0.011-0.937c-0.062-0.162-0.174-0.287-0.331-0.374c-0.159-0.085-0.54-0.173-1.146-0.261
		C132.659,135.559,132.693,135.259,132.727,134.96z M140.389,136.96c-0.785-0.111-1.502,0.13-2.144,0.72
		c-0.643,0.589-1.046,1.524-1.222,2.798c-0.174,1.26-0.025,2.261,0.44,3.003c0.464,0.745,1.052,1.165,1.77,1.266
		c0.704,0.099,1.314-0.105,1.84-0.617c0.688-0.676,1.144-1.653,1.354-2.938c0.193-1.179,0.113-2.149-0.245-2.911
		C141.824,137.521,141.224,137.077,140.389,136.96z"/>
	<path fill="#FFFFFF" d="M149.619,137.323c1.708,0.236,3.417,0.491,5.13,0.764c-0.598,2.789-1.208,5.578-1.832,8.364
		c-0.051,0.225-0.008,0.415,0.125,0.57c0.133,0.155,0.36,0.266,0.69,0.333c0.244,0.05,0.491,0.101,0.737,0.152
		c-0.077,0.325-0.152,0.651-0.229,0.977c-2.185-0.457-4.367-0.88-6.551-1.272c0.065-0.328,0.131-0.655,0.195-0.982
		c0.242,0.043,0.484,0.087,0.728,0.131c0.391,0.072,0.682,0.042,0.875-0.09c0.194-0.132,0.333-0.397,0.416-0.798
		c0.395-1.905,0.784-3.812,1.168-5.718c0.071-0.359,0.009-0.659-0.192-0.9c-0.198-0.241-0.511-0.401-0.933-0.478
		c-0.171-0.031-0.342-0.061-0.512-0.092C149.497,137.964,149.558,137.643,149.619,137.323z M153.912,132.212
		c0.561,0.107,1.008,0.369,1.34,0.781c0.333,0.414,0.446,0.858,0.347,1.336c-0.101,0.477-0.386,0.843-0.852,1.098
		s-0.974,0.329-1.524,0.222c-0.562-0.107-1.004-0.366-1.335-0.778c-0.33-0.411-0.452-0.853-0.361-1.324
		c0.092-0.479,0.367-0.849,0.834-1.109C152.825,132.179,153.344,132.103,153.912,132.212z"/>
	<path fill="#FFFFFF" d="M165.189,140.05c1.283,0.314,2.401,0.851,3.34,1.601c0.938,0.751,1.555,1.577,1.844,2.472
		c0.29,0.897,0.268,1.875-0.06,2.936c-0.522,1.695-1.594,2.808-3.178,3.367c-1.581,0.558-3.182,0.633-4.824,0.228
		c-1.164-0.287-2.163-0.773-3.011-1.467c-0.845-0.695-1.434-1.498-1.763-2.412c-0.33-0.917-0.378-1.877-0.139-2.883
		c0.364-1.516,1.268-2.658,2.749-3.403C161.626,139.741,163.316,139.591,165.189,140.05z M165,141.058
		c-0.849-0.208-1.605-0.051-2.269,0.468c-0.662,0.519-1.194,1.58-1.607,3.182c-0.431,1.665-0.491,2.867-0.182,3.609
		c0.309,0.743,0.866,1.211,1.677,1.411c0.825,0.203,1.582,0.049,2.277-0.463c0.694-0.514,1.277-1.557,1.731-3.135
		c0.469-1.619,0.531-2.815,0.191-3.589C166.481,141.769,165.87,141.272,165,141.058z"/>
</g>
</svg>
