<?xml version="1.0" encoding="utf-8"?>
<!-- Generator: Adobe Illustrator 16.0.0, SVG Export Plug-In . SVG Version: 6.00 Build 0)  -->
<!DOCTYPE svg PUBLIC "-//W3C//DTD SVG 1.1//EN" "http://www.w3.org/Graphics/SVG/1.1/DTD/svg11.dtd">
<svg version="1.1" id="Livello_1" xmlns="http://www.w3.org/2000/svg" xmlns:xlink="http://www.w3.org/1999/xlink" x="0px" y="0px"
	 width="210px" height="200px" viewBox="0 0 210 200" enable-background="new 0 0 210 200" xml:space="preserve">
<g>
	<circle fill="#27A94A" cx="105" cy="100" r="84"/>
	<circle fill="#00953E" stroke="#FFFFFF" stroke-width="5" stroke-miterlimit="10" cx="105" cy="100" r="75.216"/>
	<g id="Livello_10_31_">
		<g>
			<path fill="#6AB64D" stroke="#FFFFFF" stroke-width="4" stroke-miterlimit="10" d="M73.272,72.206
				c-16.87,17.962-10.091,37.589-7.323,44.763c17.148-39.662,56.822-49.123,56.822-49.123s-50.03,35.45-55.185,79.809
				c-0.405,3.502,8.074,5.517,8.694,1.332c1.895-12.461,6.539-22.711,6.539-22.711c11.401,1.087,30.49,0.75,40.504-12.011
				c13.299-16.955,3.958-43.622,24.15-63.561C152.188,46.051,96.133,47.869,73.272,72.206z"/>
		</g>
	</g>
	<g>
		<g>
			<path fill="#47AE54" stroke="#FFFFFF" stroke-width="2" stroke-miterlimit="10" d="M194.866,144.649
				c-2.534-5.82-5.349-11.609-8.445-17.347c6.004-2.538,12.218-4.851,18.63-6.915C141.078,93.532,68.933,93.701,5.063,120.896
				c0.04,0.095,0.08,0.188,0.12,0.282c6.617,2.096,13.025,4.457,19.211,7.059c-2.898,5.432-5.546,10.909-7.941,16.414
				C73.509,120.698,137.81,120.697,194.866,144.649L194.866,144.649L194.866,144.649z"/>
		</g>
	</g>
	<g>
		<g>
			<path fill="#FFFFFF" d="M32.084,116.947c1.129,3.643,2.275,7.284,3.439,10.923c0.053,0.162,0.157,0.271,0.313,0.318
				c0.223,0.067,0.47,0.062,0.741-0.016c0.621-0.183,1.243-0.361,1.864-0.539c0.067,0.219,0.134,0.438,0.201,0.658
				c-2.297,0.654-4.597,1.346-6.892,2.069c-0.074-0.217-0.148-0.434-0.221-0.651c0.527-0.166,1.061-0.335,1.59-0.497
				c0.332-0.104,0.555-0.248,0.669-0.44c0.114-0.191,0.13-0.407,0.052-0.646c-0.902-2.744-1.789-5.488-2.668-8.236
				c-0.055-0.168-0.179-0.288-0.367-0.358c-0.193-0.069-0.409-0.067-0.648,0.008c-0.742,0.228-1.484,0.461-2.227,0.692
				c-0.068-0.199-0.132-0.399-0.199-0.601c1.009-0.447,1.809-0.865,2.398-1.259c0.589-0.396,1.084-0.822,1.487-1.287
				C31.775,117.04,31.929,116.992,32.084,116.947z"/>
			<path fill="#FFFFFF" d="M42.309,113.893c1.322-0.336,2.535-0.155,3.635,0.536c1.36,0.85,2.302,2.41,2.852,4.663
				c0.513,2.094,0.449,3.794-0.179,5.102c-0.626,1.31-1.559,2.118-2.825,2.439c-1.222,0.31-2.365,0.121-3.45-0.569
				c-1.354-0.872-2.363-2.381-2.987-4.543c-0.597-2.053-0.565-3.829,0.113-5.318C40.008,115.009,40.961,114.233,42.309,113.893z
				 M42.537,114.515c-0.893,0.226-1.487,0.78-1.782,1.655c-0.295,0.876-0.115,2.486,0.542,4.828
				c0.641,2.292,1.325,3.747,2.029,4.387c0.705,0.635,1.474,0.848,2.3,0.637c0.832-0.211,1.381-0.724,1.646-1.544
				c0.316-0.976,0.188-2.586-0.38-4.831c-0.588-2.321-1.234-3.812-1.96-4.472C44.207,114.514,43.408,114.294,42.537,114.515z"/>
			<path fill="#FFFFFF" d="M53.887,111.233c1.326-0.271,2.517-0.034,3.577,0.705c1.309,0.911,2.166,2.511,2.607,4.787
				c0.411,2.115,0.265,3.811-0.417,5.088c-0.682,1.278-1.652,2.041-2.918,2.304c-1.227,0.253-2.351,0.01-3.391-0.729
				c-1.301-0.936-2.227-2.484-2.742-4.674c-0.494-2.079-0.381-3.849,0.361-5.306C51.553,112.24,52.537,111.513,53.887,111.233z
				 M54.083,111.866c-0.892,0.184-1.508,0.709-1.842,1.57c-0.333,0.859-0.229,2.477,0.311,4.846c0.53,2.316,1.134,3.805,1.804,4.474
				c0.669,0.667,1.417,0.915,2.247,0.744c0.834-0.172,1.403-0.659,1.704-1.466c0.359-0.961,0.312-2.574-0.148-4.842
				c-0.473-2.343-1.047-3.867-1.732-4.556C55.737,111.944,54.956,111.687,54.083,111.866z"/>
			<path fill="#FFFFFF" d="M74.084,112.766c0.587-0.696,1.164-1.079,1.727-1.146c0.335-0.039,0.625,0.024,0.869,0.193
				c0.243,0.167,0.383,0.39,0.416,0.669c0.027,0.224-0.028,0.419-0.159,0.585c-0.134,0.166-0.303,0.261-0.497,0.285
				c-0.38,0.047-0.662-0.137-0.848-0.544c-0.074-0.174-0.176-0.255-0.303-0.239c-0.228,0.029-0.453,0.194-0.688,0.501
				c0.333,0.32,0.57,0.605,0.708,0.857c0.138,0.249,0.229,0.526,0.266,0.828c0.068,0.527-0.011,1.009-0.236,1.444
				c-0.224,0.438-0.637,0.85-1.23,1.24c-0.597,0.392-1.182,0.629-1.764,0.708c-0.356,0.05-0.711,0.099-1.067,0.149
				c-0.755,0.109-1.249,0.258-1.474,0.438c-0.225,0.186-0.314,0.427-0.268,0.715c0.037,0.235,0.169,0.4,0.386,0.497
				c0.222,0.097,0.613,0.105,1.167,0.023c0.799-0.131,1.598-0.258,2.395-0.38c1.217-0.163,2.114-0.082,2.695,0.229
				c0.583,0.311,0.912,0.8,0.996,1.46c0.09,0.726-0.131,1.374-0.666,1.942c-0.744,0.805-1.933,1.314-3.582,1.543
				c-1.361,0.192-2.409,0.104-3.148-0.271c-0.58-0.292-0.911-0.67-0.99-1.134c-0.058-0.354,0.057-0.708,0.345-1.053
				c0.292-0.348,0.825-0.653,1.599-0.917c-0.657-0.052-1.173-0.189-1.541-0.422c-0.369-0.229-0.587-0.553-0.654-0.969
				c-0.064-0.385,0.016-0.742,0.232-1.067c0.217-0.326,0.637-0.643,1.261-0.944c-0.597-0.201-1.073-0.479-1.417-0.837
				c-0.348-0.36-0.561-0.795-0.645-1.313c-0.132-0.818,0.115-1.562,0.741-2.224c0.631-0.659,1.515-1.074,2.661-1.233
				c0.468-0.064,0.929-0.063,1.379-0.003C73.2,112.441,73.643,112.569,74.084,112.766z M73.176,121.053
				c-1.184,0.164-2.007,0.44-2.463,0.82c-0.456,0.384-0.652,0.792-0.581,1.226c0.065,0.41,0.304,0.704,0.716,0.883
				c0.545,0.241,1.274,0.295,2.191,0.167c1.093-0.15,1.893-0.432,2.399-0.847c0.509-0.417,0.735-0.835,0.682-1.258
				c-0.032-0.246-0.149-0.468-0.352-0.661c-0.202-0.192-0.502-0.322-0.896-0.383C74.477,120.938,73.912,120.952,73.176,121.053z
				 M71.431,112.962c-0.592,0.084-1.055,0.349-1.384,0.801c-0.326,0.452-0.434,1.033-0.326,1.746
				c0.115,0.758,0.395,1.323,0.841,1.685c0.443,0.366,0.956,0.507,1.546,0.424c0.59-0.08,1.04-0.351,1.363-0.81
				c0.318-0.459,0.435-1.067,0.329-1.829c-0.093-0.704-0.368-1.239-0.81-1.6C72.546,113.021,72.023,112.88,71.431,112.962z"/>
			<path fill="#FFFFFF" d="M77.699,111.842c1.12-0.181,2.24-0.351,3.364-0.515c0.116,1.149,0.234,2.3,0.353,3.449
				c0.238-1.17,0.586-2.07,1.036-2.702c0.452-0.631,1.053-0.98,1.804-1.045c0.51-0.045,0.93,0.064,1.255,0.32
				c0.328,0.258,0.51,0.626,0.549,1.099c0.03,0.383-0.047,0.688-0.229,0.917c-0.186,0.228-0.427,0.357-0.732,0.382
				c-0.297,0.025-0.546-0.045-0.745-0.211c-0.196-0.167-0.312-0.405-0.339-0.713c-0.018-0.2,0.019-0.394,0.107-0.58
				c0.084-0.166,0.126-0.265,0.126-0.294c-0.007-0.094-0.077-0.132-0.203-0.121c-0.272,0.023-0.569,0.198-0.889,0.521
				c-0.44,0.451-0.756,1.045-0.943,1.779c-0.288,1.145-0.392,2.046-0.326,2.706c0.063,0.611,0.126,1.218,0.188,1.83
				c0.02,0.204,0.116,0.355,0.281,0.45c0.166,0.093,0.437,0.121,0.812,0.087c0.387-0.035,0.773-0.071,1.158-0.105
				c0.021,0.228,0.043,0.455,0.062,0.682c-1.877,0.17-3.756,0.358-5.632,0.572c-0.025-0.229-0.056-0.455-0.081-0.683
				c0.301-0.034,0.602-0.067,0.903-0.101c0.302-0.032,0.527-0.113,0.67-0.242c0.145-0.128,0.204-0.271,0.188-0.429
				c-0.199-1.811-0.398-3.62-0.593-5.43c-0.044-0.412-0.175-0.703-0.388-0.873c-0.213-0.171-0.5-0.236-0.861-0.197
				c-0.271,0.031-0.547,0.06-0.82,0.091C77.749,112.273,77.725,112.058,77.699,111.842z"/>
			<path fill="#FFFFFF" d="M95.973,114.788c-2.204,0.09-4.411,0.211-6.615,0.359c0.124,1.301,0.452,2.201,0.973,2.705
				c0.598,0.565,1.328,0.823,2.187,0.774c1.267-0.07,2.25-0.796,2.967-2.189c0.216,0.076,0.431,0.152,0.648,0.229
				c-0.88,1.772-2.194,2.695-3.974,2.797c-1.211,0.068-2.26-0.274-3.154-1.044c-0.893-0.771-1.397-1.794-1.496-3.084
				c-0.107-1.386,0.225-2.539,1.004-3.453c0.785-0.914,1.797-1.409,3.039-1.481c0.91-0.053,1.711,0.121,2.393,0.515
				c0.683,0.395,1.207,0.985,1.572,1.768C95.771,113.234,95.928,113.937,95.973,114.788z M89.312,114.5
				c1.338-0.092,2.676-0.17,4.014-0.239c0.236-0.013,0.419-0.096,0.543-0.251c0.122-0.156,0.179-0.415,0.16-0.773
				c-0.031-0.67-0.289-1.229-0.771-1.675c-0.481-0.443-1.032-0.65-1.654-0.615c-0.695,0.041-1.27,0.361-1.714,0.958
				C89.444,112.502,89.252,113.368,89.312,114.5z"/>
			<path fill="#FFFFFF" d="M106.074,114.579c-2.208,0.002-4.41,0.03-6.619,0.09c0.069,1.306,0.355,2.218,0.857,2.743
				c0.574,0.59,1.283,0.876,2.148,0.863c1.268-0.019,2.28-0.705,3.055-2.067c0.214,0.085,0.424,0.17,0.637,0.256
				c-0.953,1.732-2.303,2.602-4.086,2.631c-1.213,0.02-2.24-0.366-3.101-1.172c-0.858-0.806-1.317-1.85-1.363-3.142
				c-0.048-1.389,0.327-2.528,1.146-3.409c0.818-0.88,1.853-1.335,3.093-1.355c0.91-0.016,1.701,0.188,2.366,0.61
				c0.665,0.421,1.164,1.034,1.497,1.831C105.938,113.02,106.061,113.726,106.074,114.579z M99.438,114.021
				c1.335-0.037,2.677-0.061,4.015-0.075c0.236-0.004,0.42-0.079,0.551-0.229c0.134-0.151,0.195-0.407,0.192-0.766
				c-0.005-0.672-0.235-1.24-0.698-1.704s-1.006-0.692-1.627-0.682c-0.696,0.011-1.28,0.308-1.75,0.885
				C99.653,112.03,99.422,112.885,99.438,114.021z"/>
			<path fill="#FFFFFF" d="M107.528,110.24c1.04-0.054,2.087-0.097,3.127-0.138c0.116,0.538,0.2,1.17,0.242,1.89
				c0.435-0.613,0.938-1.069,1.518-1.367c0.578-0.295,1.233-0.435,1.956-0.411c0.626,0.021,1.144,0.152,1.555,0.39
				c0.413,0.241,0.735,0.606,0.967,1.099c0.232,0.49,0.332,1.035,0.307,1.634c-0.066,1.388-0.125,2.778-0.191,4.166
				c-0.014,0.312,0.049,0.535,0.193,0.673c0.143,0.139,0.39,0.213,0.739,0.231c0.214,0.011,0.426,0.021,0.64,0.031
				c-0.012,0.229-0.023,0.456-0.036,0.686c-1.595-0.081-3.19-0.148-4.786-0.198c0.006-0.229,0.016-0.456,0.023-0.686
				c0.15,0.006,0.305,0.011,0.456,0.016c0.428,0.016,0.729-0.039,0.901-0.161c0.17-0.122,0.267-0.309,0.276-0.566
				c0.048-1.22,0.097-2.443,0.144-3.665c0.032-0.799-0.078-1.395-0.33-1.788c-0.354-0.56-0.908-0.854-1.671-0.878
				c-0.755-0.022-1.392,0.24-1.905,0.784s-0.775,1.26-0.795,2.15c-0.02,1.059-0.045,2.115-0.062,3.173
				c-0.006,0.312,0.065,0.534,0.215,0.668c0.15,0.133,0.4,0.204,0.75,0.214c0.211,0.003,0.422,0.01,0.631,0.015
				c-0.006,0.229-0.012,0.458-0.018,0.686c-1.604-0.042-3.207-0.066-4.807-0.076c0.004-0.229,0.002-0.457,0.004-0.686
				c0.211,0,0.422,0.002,0.632,0.004c0.318,0.002,0.558-0.054,0.727-0.176c0.166-0.119,0.25-0.27,0.253-0.454
				c0.024-1.844,0.047-3.688,0.072-5.531c0.002-0.367-0.1-0.647-0.314-0.837c-0.215-0.19-0.525-0.29-0.934-0.292
				c-0.16-0.002-0.319-0.004-0.482-0.004C107.525,110.636,107.527,110.438,107.528,110.24z"/>
			<path fill="#FFFFFF" d="M129.829,106.217c-0.382,4.122-0.771,8.245-1.169,12.367c-0.017,0.169,0.025,0.307,0.127,0.405
				c0.149,0.138,0.341,0.218,0.574,0.239c0.318,0.03,0.643,0.062,0.962,0.095c-0.024,0.228-0.047,0.454-0.071,0.681
				c-1.715-0.169-3.428-0.322-5.142-0.457c0.019-0.226,0.036-0.455,0.056-0.684c0.305,0.024,0.609,0.049,0.913,0.074
				c0.3,0.024,0.524-0.024,0.683-0.146c0.158-0.122,0.247-0.302,0.271-0.547c0.312-3.461,0.612-6.924,0.911-10.388
				c0.025-0.304-0.046-0.531-0.218-0.688c-0.235-0.215-0.537-0.339-0.903-0.368c-0.287-0.023-0.57-0.048-0.857-0.068
				c0.018-0.228,0.032-0.457,0.053-0.684C127.286,106.095,128.557,106.151,129.829,106.217z"/>
			<path fill="#FFFFFF" d="M140.468,116.97c-2.2-0.309-4.405-0.586-6.607-0.832c-0.118,1.301,0.033,2.244,0.458,2.833
				c0.483,0.666,1.154,1.048,2.015,1.154c1.265,0.157,2.375-0.38,3.343-1.621c0.202,0.113,0.398,0.228,0.599,0.341
				c-1.2,1.584-2.677,2.255-4.454,2.037c-1.21-0.149-2.175-0.677-2.916-1.593c-0.736-0.914-1.039-2.013-0.902-3.299
				c0.15-1.381,0.688-2.457,1.626-3.216c0.938-0.759,2.033-1.065,3.271-0.914c0.907,0.111,1.668,0.426,2.272,0.936
				c0.604,0.511,1.015,1.186,1.232,2.021C140.558,115.406,140.579,116.122,140.468,116.97z M133.936,115.491
				c1.336,0.152,2.672,0.312,4.009,0.484c0.239,0.03,0.433-0.019,0.583-0.15c0.149-0.131,0.251-0.375,0.302-0.731
				c0.089-0.663-0.061-1.261-0.454-1.784c-0.396-0.524-0.904-0.826-1.525-0.902c-0.696-0.085-1.319,0.13-1.867,0.635
				C134.432,113.551,134.082,114.365,133.936,115.491z"/>
			<path fill="#FFFFFF" d="M151,122.01c0.084,0.19,0.165,0.38,0.248,0.569c-0.556,0.359-1.124,0.49-1.694,0.387
				c-0.437-0.079-0.782-0.255-1.042-0.531c-0.256-0.274-0.447-0.71-0.572-1.307c-0.726,0.494-1.335,0.804-1.831,0.929
				c-0.501,0.124-1.074,0.134-1.724,0.031c-0.924-0.149-1.597-0.44-2.025-0.887c-0.425-0.447-0.593-0.96-0.504-1.546
				c0.136-0.881,0.806-1.53,2.023-1.941c1.221-0.408,2.78-0.555,4.691-0.426c0.077-0.427,0.152-0.854,0.229-1.279
				c0.079-0.456-0.05-0.883-0.398-1.275c-0.352-0.392-0.838-0.643-1.465-0.745c-0.583-0.094-1.098-0.065-1.552,0.086
				c-0.325,0.116-0.501,0.25-0.527,0.407c-0.013,0.091,0.044,0.246,0.171,0.463c0.154,0.271,0.216,0.501,0.185,0.687
				c-0.044,0.269-0.176,0.476-0.396,0.618c-0.218,0.142-0.48,0.189-0.792,0.142c-0.327-0.052-0.588-0.196-0.777-0.434
				c-0.19-0.238-0.262-0.516-0.211-0.836c0.092-0.596,0.548-1.089,1.366-1.469c0.82-0.38,1.841-0.474,3.049-0.274
				c1.119,0.185,1.93,0.548,2.438,1.084c0.506,0.539,0.698,1.125,0.585,1.748c-0.287,1.536-0.574,3.071-0.862,4.606
				c-0.08,0.407-0.06,0.721,0.042,0.938c0.105,0.224,0.271,0.355,0.496,0.397C150.402,122.196,150.686,122.151,151,122.01z
				 M148.465,117.883c-1.704-0.075-2.945,0.08-3.715,0.445c-0.576,0.278-0.914,0.753-1.023,1.414
				c-0.074,0.466-0.003,0.847,0.222,1.15c0.222,0.304,0.546,0.489,0.972,0.558c0.76,0.122,1.466-0.037,2.122-0.48
				c0.655-0.442,1.062-1.069,1.204-1.879C148.32,118.686,148.391,118.286,148.465,117.883z"/>
			<path fill="#FFFFFF" d="M153.535,114.719c1.539,0.292,3.074,0.598,4.61,0.92c-0.046,0.203-0.087,0.405-0.132,0.607
				c-0.614-0.115-1.016-0.143-1.203-0.094c-0.188,0.053-0.299,0.161-0.332,0.319c-0.026,0.133-0.025,0.271,0.016,0.415
				c0.472,1.818,0.93,3.638,1.357,5.457c1.096-1.439,2.2-2.873,3.32-4.302c0.053-0.074,0.086-0.154,0.108-0.238
				c0.103-0.434-0.313-0.812-1.242-1.126c0.045-0.201,0.089-0.405,0.136-0.606c1.293,0.28,2.584,0.571,3.877,0.873
				c-0.05,0.2-0.099,0.403-0.147,0.605c-0.402-0.056-0.731-0.031-1.005,0.068c-0.27,0.102-0.498,0.268-0.686,0.502
				c-1.698,2.102-3.365,4.221-5.004,6.354c-0.175-0.037-0.348-0.073-0.52-0.111c-0.637-2.684-1.317-5.366-2.044-8.049
				c-0.081-0.291-0.206-0.504-0.37-0.646c-0.17-0.141-0.455-0.255-0.859-0.34C153.455,115.124,153.494,114.925,153.535,114.719z"/>
			<path fill="#FFFFFF" d="M172.492,123.577c-2.186-0.6-4.374-1.168-6.564-1.708c-0.299,1.273-0.273,2.231,0.072,2.871
				c0.399,0.724,1.02,1.191,1.875,1.414c1.256,0.324,2.453-0.059,3.605-1.16c0.184,0.141,0.375,0.278,0.559,0.419
				c-1.436,1.406-3.02,1.877-4.785,1.423c-1.203-0.311-2.105-0.962-2.724-1.967c-0.618-1.009-0.777-2.134-0.46-3.393
				c0.338-1.351,1.026-2.344,2.078-2.973c1.05-0.627,2.195-0.786,3.429-0.471c0.905,0.232,1.628,0.645,2.173,1.231
				c0.543,0.587,0.865,1.312,0.972,2.17C172.796,122.039,172.72,122.754,172.492,123.577z M166.09,121.239
				c1.327,0.328,2.66,0.664,3.985,1.015c0.233,0.062,0.438,0.04,0.61-0.071c0.17-0.109,0.307-0.336,0.404-0.684
				c0.185-0.648,0.112-1.259-0.216-1.831c-0.325-0.573-0.806-0.94-1.42-1.099c-0.691-0.177-1.354-0.05-1.975,0.38
				C166.855,119.381,166.396,120.146,166.09,121.239z"/>
			<path fill="#FFFFFF" d="M174.723,125.24c0.094,1.128,0.332,1.959,0.727,2.497c0.396,0.542,0.97,0.922,1.722,1.147
				c0.697,0.21,1.28,0.234,1.745,0.073c0.468-0.16,0.77-0.449,0.915-0.876c0.081-0.244,0.087-0.479,0.004-0.705
				c-0.08-0.224-0.225-0.423-0.441-0.588c-0.218-0.165-0.813-0.495-1.789-0.977c-0.933-0.47-1.567-0.854-1.896-1.158
				c-0.333-0.305-0.556-0.657-0.671-1.062c-0.118-0.401-0.114-0.803,0.004-1.2c0.182-0.603,0.571-1.085,1.178-1.448
				c0.778-0.458,1.703-0.531,2.767-0.217c0.812,0.24,1.491,0.692,2.033,1.351c0.286-0.136,0.573-0.271,0.858-0.407
				c0.134,0.041,0.271,0.083,0.406,0.126c-0.231,0.996-0.47,1.995-0.708,2.99c-0.22-0.069-0.437-0.137-0.659-0.204
				c-0.01-0.915-0.213-1.629-0.589-2.146c-0.38-0.514-0.936-0.882-1.664-1.097c-0.631-0.188-1.169-0.194-1.605-0.025
				c-0.443,0.168-0.721,0.448-0.842,0.842c-0.102,0.344-0.032,0.679,0.23,1c0.25,0.328,0.822,0.695,1.714,1.108
				c1.034,0.487,1.698,0.841,1.986,1.052c0.474,0.34,0.8,0.737,0.97,1.19c0.173,0.454,0.166,0.942-0.012,1.465
				c-0.243,0.716-0.766,1.228-1.558,1.532c-0.794,0.307-1.664,0.312-2.622,0.025c-0.887-0.267-1.623-0.777-2.221-1.534
				c-0.311,0.177-0.621,0.355-0.929,0.535c-0.172-0.05-0.339-0.098-0.509-0.146c0.271-1.11,0.538-2.221,0.803-3.331
				C174.289,125.116,174.505,125.179,174.723,125.24z"/>
		</g>
	</g>
</g>
</svg>
