<?xml version="1.0" encoding="utf-8"?>
<!-- Generator: Adobe Illustrator 16.0.0, SVG Export Plug-In . SVG Version: 6.00 Build 0)  -->
<!DOCTYPE svg PUBLIC "-//W3C//DTD SVG 1.1//EN" "http://www.w3.org/Graphics/SVG/1.1/DTD/svg11.dtd">
<svg version="1.1" id="Livello_1" xmlns="http://www.w3.org/2000/svg" xmlns:xlink="http://www.w3.org/1999/xlink" x="0px" y="0px"
	 width="210px" height="200px" viewBox="0 0 210 200" enable-background="new 0 0 210 200" xml:space="preserve">
<g>
	<circle fill="#27A94A" cx="105" cy="100" r="84"/>
	<circle fill="#00953E" stroke="#FFFFFF" stroke-width="5" stroke-miterlimit="10" cx="105" cy="100" r="75.216"/>
	<g id="Livello_10_34_">
		<g>
			<path fill="#6AB64D" stroke="#FFFFFF" stroke-width="4" stroke-miterlimit="10" d="M73.272,72.206
				c-16.87,17.962-10.091,37.589-7.323,44.763c17.148-39.662,56.822-49.123,56.822-49.123s-50.03,35.45-55.185,79.809
				c-0.405,3.502,8.074,5.517,8.694,1.332c1.895-12.461,6.539-22.711,6.539-22.711c11.401,1.087,30.49,0.75,40.504-12.011
				c13.299-16.955,3.958-43.622,24.15-63.561C152.188,46.051,96.133,47.869,73.272,72.206z"/>
		</g>
	</g>
	<g>
		<g>
			<path fill="#47AE54" stroke="#FFFFFF" stroke-width="2" stroke-miterlimit="10" d="M194.866,144.649
				c-2.534-5.82-5.349-11.609-8.445-17.347c6.004-2.538,12.218-4.851,18.63-6.915C141.078,93.532,68.933,93.701,5.063,120.896
				c0.04,0.095,0.08,0.188,0.12,0.282c6.617,2.096,13.025,4.457,19.211,7.059c-2.898,5.432-5.546,10.909-7.941,16.414
				C73.509,120.698,137.81,120.697,194.866,144.649L194.866,144.649L194.866,144.649z"/>
		</g>
	</g>
	<g>
		<g>
			<path fill="#FFFFFF" d="M28.443,117.919c1.089,3.499,2.193,6.998,3.314,10.493c0.053,0.156,0.146,0.261,0.3,0.307
				c0.219,0.066,0.452,0.058,0.711-0.017c0.595-0.176,1.189-0.349,1.784-0.521c0.066,0.211,0.132,0.422,0.195,0.632
				c-2.205,0.635-4.404,1.297-6.602,1.993c-0.072-0.209-0.143-0.42-0.215-0.626c0.507-0.162,1.018-0.32,1.525-0.479
				c0.318-0.1,0.53-0.239,0.64-0.424c0.111-0.182,0.127-0.39,0.05-0.619c-0.865-2.636-1.72-5.273-2.566-7.912
				c-0.051-0.162-0.17-0.276-0.353-0.346c-0.184-0.064-0.39-0.063-0.619,0.007c-0.707,0.218-1.419,0.44-2.126,0.664
				c-0.067-0.191-0.128-0.385-0.192-0.577c0.964-0.428,1.726-0.828,2.29-1.208c0.563-0.376,1.033-0.788,1.417-1.234
				C28.144,118.006,28.295,117.965,28.443,117.919z"/>
			<path fill="#FFFFFF" d="M38.203,114.972c1.257-0.324,2.427-0.156,3.479,0.504c1.307,0.812,2.212,2.304,2.756,4.468
				c0.506,2.009,0.449,3.643-0.141,4.904c-0.594,1.259-1.487,2.04-2.699,2.353c-1.17,0.305-2.269,0.125-3.311-0.536
				c-1.305-0.834-2.272-2.28-2.878-4.356c-0.578-1.974-0.555-3.68,0.089-5.11C36.011,116.051,36.918,115.302,38.203,114.972z
				 M38.424,115.569c-0.855,0.219-1.42,0.754-1.695,1.595c-0.276,0.84-0.097,2.387,0.539,4.637c0.622,2.198,1.285,3.598,1.962,4.209
				c0.683,0.611,1.41,0.81,2.207,0.606c0.799-0.207,1.321-0.7,1.572-1.491c0.3-0.94,0.167-2.487-0.391-4.64
				c-0.573-2.229-1.203-3.658-1.899-4.29C40.024,115.564,39.254,115.354,38.424,115.569z"/>
			<path fill="#FFFFFF" d="M49.254,112.367c1.262-0.271,2.408-0.052,3.427,0.654c1.257,0.866,2.095,2.396,2.539,4.581
				c0.411,2.029,0.287,3.659-0.355,4.892c-0.642,1.231-1.562,1.972-2.78,2.234c-1.171,0.25-2.256,0.024-3.258-0.681
				c-1.255-0.891-2.147-2.378-2.659-4.477c-0.481-1.996-0.389-3.696,0.31-5.099C47.035,113.348,47.965,112.642,49.254,112.367z
				 M49.447,112.974c-0.851,0.184-1.438,0.691-1.748,1.52c-0.311,0.828-0.202,2.381,0.331,4.653c0.524,2.223,1.112,3.65,1.758,4.288
				c0.649,0.638,1.362,0.87,2.161,0.701c0.801-0.172,1.337-0.644,1.624-1.421c0.334-0.926,0.274-2.476-0.182-4.651
				c-0.472-2.246-1.035-3.708-1.697-4.365C51.027,113.037,50.279,112.795,49.447,112.974z"/>
			<path fill="#FFFFFF" d="M60.324,110.243c1.266-0.217,2.395,0.053,3.375,0.8c1.211,0.919,1.979,2.484,2.324,4.686
				c0.318,2.044,0.126,3.664-0.568,4.87c-0.689,1.203-1.641,1.904-2.86,2.111c-1.176,0.201-2.237-0.071-3.203-0.819
				c-1.206-0.942-2.025-2.468-2.44-4.585c-0.395-2.014-0.223-3.709,0.527-5.08C58.081,111.126,59.034,110.462,60.324,110.243z
				 M60.49,110.855c-0.852,0.145-1.458,0.629-1.799,1.443c-0.343,0.814-0.301,2.369,0.127,4.661
				c0.421,2.243,0.943,3.695,1.556,4.361c0.615,0.663,1.314,0.927,2.115,0.792c0.802-0.137,1.357-0.586,1.676-1.35
				c0.374-0.91,0.383-2.46,0.022-4.653c-0.372-2.269-0.869-3.746-1.496-4.434C62.06,110.989,61.325,110.714,60.49,110.855z"/>
			<path fill="#FFFFFF" d="M79.488,112.363c0.58-0.651,1.141-1.002,1.68-1.05c0.322-0.032,0.59,0.041,0.822,0.207
				c0.228,0.169,0.353,0.39,0.377,0.656c0.018,0.217-0.035,0.402-0.168,0.557c-0.13,0.156-0.29,0.241-0.481,0.26
				c-0.362,0.033-0.627-0.147-0.791-0.545c-0.065-0.171-0.162-0.251-0.285-0.24c-0.216,0.021-0.438,0.174-0.669,0.461
				c0.308,0.318,0.524,0.602,0.65,0.843c0.125,0.245,0.201,0.514,0.23,0.805c0.049,0.509-0.043,0.969-0.268,1.381
				c-0.227,0.411-0.632,0.798-1.21,1.155c-0.585,0.358-1.146,0.569-1.704,0.628c-0.341,0.037-0.684,0.073-1.021,0.111
				c-0.727,0.08-1.197,0.208-1.42,0.374c-0.218,0.175-0.314,0.399-0.277,0.681c0.026,0.225,0.146,0.389,0.354,0.488
				s0.579,0.117,1.111,0.058c0.765-0.103,1.534-0.198,2.297-0.293c1.162-0.12,2.021-0.017,2.566,0.3
				c0.549,0.316,0.852,0.792,0.91,1.43c0.066,0.702-0.17,1.316-0.695,1.847c-0.734,0.753-1.891,1.206-3.472,1.378
				c-1.31,0.142-2.307,0.028-3.001-0.355c-0.545-0.299-0.85-0.673-0.908-1.12c-0.045-0.343,0.076-0.676,0.363-1.002
				c0.286-0.324,0.808-0.602,1.555-0.83c-0.632-0.07-1.112-0.219-1.46-0.451c-0.343-0.234-0.542-0.551-0.591-0.952
				c-0.049-0.372,0.038-0.712,0.255-1.019s0.631-0.597,1.23-0.866c-0.566-0.212-1.007-0.492-1.325-0.849
				c-0.323-0.354-0.512-0.78-0.573-1.281c-0.099-0.791,0.156-1.496,0.774-2.111c0.62-0.615,1.475-0.986,2.57-1.104
				c0.447-0.05,0.885-0.035,1.313,0.038C78.653,112.024,79.075,112.164,79.488,112.363z M78.379,120.296
				c-1.137,0.12-1.933,0.361-2.381,0.715c-0.447,0.352-0.644,0.74-0.591,1.157c0.05,0.396,0.267,0.685,0.656,0.871
				c0.513,0.246,1.207,0.319,2.089,0.226c1.051-0.113,1.823-0.359,2.319-0.742c0.495-0.387,0.73-0.779,0.688-1.188
				c-0.026-0.238-0.128-0.454-0.316-0.646c-0.189-0.191-0.468-0.324-0.845-0.395C79.627,120.221,79.083,120.221,78.379,120.296z
				 M76.956,112.474c-0.566,0.061-1.02,0.306-1.342,0.727c-0.324,0.423-0.446,0.98-0.364,1.666c0.088,0.733,0.342,1.28,0.75,1.645
				c0.414,0.363,0.896,0.515,1.462,0.454c0.561-0.063,1.005-0.306,1.324-0.737c0.318-0.43,0.442-1.013,0.368-1.747
				c-0.07-0.681-0.312-1.202-0.724-1.561C78.015,112.562,77.521,112.412,76.956,112.474z"/>
			<path fill="#FFFFFF" d="M82.961,111.579c1.075-0.141,2.145-0.274,3.223-0.4c0.08,1.109,0.162,2.215,0.243,3.322
				c0.255-1.117,0.618-1.974,1.062-2.566c0.445-0.594,1.028-0.913,1.747-0.956c0.488-0.029,0.883,0.087,1.188,0.339
				c0.309,0.258,0.47,0.613,0.497,1.07c0.017,0.368-0.059,0.66-0.243,0.876c-0.182,0.216-0.418,0.332-0.709,0.348
				c-0.283,0.016-0.521-0.059-0.706-0.223c-0.185-0.165-0.287-0.396-0.305-0.694c-0.014-0.193,0.027-0.377,0.118-0.555
				c0.086-0.156,0.124-0.25,0.127-0.279c-0.006-0.09-0.069-0.129-0.19-0.121c-0.259,0.017-0.549,0.175-0.862,0.478
				c-0.431,0.42-0.748,0.983-0.948,1.684c-0.304,1.088-0.433,1.955-0.384,2.59c0.043,0.589,0.084,1.175,0.128,1.763
				c0.014,0.197,0.101,0.346,0.257,0.44c0.158,0.094,0.412,0.129,0.775,0.105c0.369-0.025,0.737-0.048,1.106-0.071
				c0.012,0.219,0.029,0.438,0.044,0.657c-1.799,0.112-3.601,0.245-5.4,0.396c-0.021-0.22-0.039-0.438-0.057-0.658
				c0.286-0.024,0.578-0.047,0.864-0.071c0.29-0.024,0.505-0.094,0.647-0.215c0.138-0.118,0.204-0.254,0.191-0.406
				c-0.139-1.744-0.277-3.487-0.414-5.23c-0.032-0.398-0.147-0.681-0.346-0.852c-0.197-0.171-0.471-0.242-0.815-0.213
				c-0.263,0.021-0.522,0.044-0.784,0.065C82.999,111.993,82.982,111.786,82.961,111.579z"/>
			<path fill="#FFFFFF" d="M100.334,114.878c-2.111,0.037-4.224,0.098-6.334,0.188c0.083,1.249,0.373,2.125,0.862,2.621
				c0.559,0.558,1.25,0.824,2.073,0.798c1.213-0.038,2.174-0.712,2.891-2.032c0.206,0.078,0.412,0.156,0.615,0.235
				c-0.887,1.679-2.164,2.536-3.871,2.592c-1.161,0.038-2.155-0.319-2.989-1.082c-0.835-0.761-1.289-1.758-1.353-2.999
				c-0.065-1.333,0.273-2.432,1.049-3.29c0.766-0.858,1.751-1.312,2.936-1.351c0.867-0.027,1.631,0.158,2.271,0.552
				c0.642,0.397,1.131,0.974,1.463,1.736C100.179,113.381,100.308,114.058,100.334,114.878z M93.975,114.442
				c1.28-0.055,2.561-0.099,3.841-0.133c0.226-0.005,0.399-0.083,0.523-0.229c0.124-0.147,0.178-0.391,0.172-0.738
				c-0.017-0.644-0.249-1.187-0.696-1.626c-0.451-0.44-0.969-0.648-1.565-0.631c-0.665,0.021-1.218,0.314-1.66,0.877
				S93.947,113.354,93.975,114.442z"/>
			<path fill="#FFFFFF" d="M110,114.897c-2.106-0.044-4.224-0.062-6.334-0.055c0.037,1.256,0.292,2.136,0.758,2.653
				c0.535,0.581,1.215,0.869,2.037,0.876c1.217,0.008,2.2-0.629,2.971-1.922c0.203,0.087,0.403,0.173,0.604,0.259
				c-0.947,1.645-2.262,2.453-3.97,2.442c-1.162-0.007-2.138-0.403-2.942-1.194c-0.803-0.79-1.219-1.808-1.232-3.048
				c-0.016-1.337,0.374-2.421,1.175-3.249c0.8-0.829,1.799-1.242,2.984-1.236c0.867,0.005,1.621,0.218,2.248,0.638
				c0.627,0.419,1.094,1.016,1.393,1.79C109.904,113.396,110.008,114.076,110,114.897z M103.663,114.219
				c1.282-0.005,2.562,0,3.843,0.014c0.226,0.003,0.403-0.066,0.533-0.209c0.127-0.142,0.193-0.386,0.199-0.73
				c0.007-0.644-0.201-1.196-0.632-1.652c-0.431-0.454-0.944-0.687-1.541-0.689c-0.664-0.003-1.229,0.267-1.691,0.814
				C103.915,112.31,103.675,113.13,103.663,114.219z"/>
			<path fill="#FFFFFF" d="M111.481,110.757c0.996-0.03,1.99-0.053,2.99-0.072c0.101,0.521,0.165,1.126,0.198,1.82
				c0.427-0.58,0.917-1.011,1.476-1.285c0.56-0.273,1.188-0.395,1.878-0.357c0.596,0.03,1.089,0.167,1.479,0.401
				c0.392,0.237,0.69,0.592,0.905,1.071c0.216,0.477,0.301,1.003,0.264,1.574c-0.085,1.333-0.172,2.667-0.258,4
				c-0.02,0.298,0.038,0.515,0.172,0.65c0.135,0.135,0.369,0.212,0.705,0.234c0.203,0.013,0.408,0.027,0.614,0.042
				c-0.015,0.219-0.034,0.438-0.048,0.657c-1.526-0.105-3.057-0.196-4.585-0.273c0.014-0.221,0.023-0.438,0.034-0.659
				c0.147,0.007,0.294,0.015,0.438,0.023c0.413,0.023,0.696-0.024,0.868-0.139c0.167-0.114,0.259-0.294,0.274-0.539
				c0.066-1.173,0.137-2.346,0.205-3.519c0.043-0.766-0.05-1.34-0.282-1.724c-0.324-0.546-0.854-0.839-1.583-0.875
				c-0.721-0.034-1.336,0.206-1.836,0.719c-0.504,0.511-0.771,1.198-0.804,2.052c-0.038,1.016-0.081,2.03-0.122,3.047
				c-0.011,0.301,0.05,0.515,0.193,0.646c0.142,0.131,0.377,0.202,0.715,0.219c0.199,0.009,0.405,0.018,0.604,0.025
				c-0.01,0.22-0.02,0.439-0.031,0.66c-1.537-0.07-3.068-0.127-4.604-0.167c0.007-0.219,0.011-0.438,0.018-0.658
				c0.203,0.004,0.402,0.011,0.605,0.017c0.301,0.008,0.535-0.044,0.7-0.153c0.161-0.113,0.244-0.259,0.253-0.434
				c0.059-1.771,0.12-3.543,0.178-5.313c0.008-0.352-0.085-0.621-0.284-0.81c-0.205-0.188-0.497-0.286-0.886-0.299
				c-0.156-0.004-0.304-0.009-0.46-0.012C111.472,111.136,111.475,110.947,111.481,110.757z"/>
			<path fill="#FFFFFF" d="M132.868,107.266c-0.427,3.956-0.858,7.91-1.302,11.866c-0.017,0.163,0.021,0.292,0.114,0.393
				c0.144,0.134,0.327,0.213,0.549,0.236c0.308,0.034,0.611,0.069,0.919,0.104c-0.024,0.217-0.051,0.436-0.076,0.655
				c-1.643-0.189-3.284-0.357-4.925-0.514c0.023-0.219,0.045-0.438,0.064-0.656c0.292,0.028,0.585,0.055,0.875,0.084
				c0.287,0.026,0.502-0.017,0.657-0.13c0.153-0.114,0.242-0.287,0.266-0.521c0.348-3.322,0.694-6.645,1.032-9.968
				c0.026-0.291-0.036-0.512-0.197-0.664c-0.224-0.212-0.511-0.332-0.86-0.368c-0.272-0.025-0.545-0.049-0.818-0.077
				c0.021-0.22,0.044-0.438,0.062-0.656C130.44,107.114,131.655,107.186,132.868,107.266z"/>
			<path fill="#FFFFFF" d="M142.905,117.728c-2.104-0.32-4.215-0.61-6.321-0.878c-0.133,1.248,0.004,2.157,0.4,2.729
				c0.457,0.645,1.098,1.021,1.917,1.134c1.212,0.168,2.286-0.338,3.228-1.519c0.192,0.111,0.376,0.224,0.568,0.335
				c-1.172,1.506-2.595,2.139-4.296,1.905c-1.153-0.157-2.083-0.678-2.775-1.566c-0.692-0.89-0.972-1.947-0.82-3.182
				c0.161-1.326,0.69-2.354,1.602-3.069c0.908-0.717,1.957-0.998,3.143-0.838c0.871,0.118,1.592,0.428,2.164,0.924
				c0.568,0.497,0.956,1.15,1.155,1.957C143.006,116.226,143.019,116.915,142.905,117.728z M136.664,116.23
				c1.277,0.161,2.559,0.333,3.836,0.514c0.227,0.033,0.414-0.012,0.56-0.139c0.148-0.122,0.248-0.354,0.297-0.698
				c0.097-0.637-0.044-1.211-0.412-1.72c-0.37-0.51-0.854-0.804-1.447-0.885c-0.665-0.089-1.266,0.106-1.798,0.587
				C137.165,114.371,136.825,115.151,136.664,116.23z"/>
			<path fill="#FFFFFF" d="M152.951,122.671c0.076,0.184,0.158,0.365,0.233,0.547c-0.538,0.342-1.083,0.461-1.629,0.358
				c-0.422-0.079-0.75-0.251-0.994-0.519c-0.244-0.266-0.425-0.687-0.538-1.262c-0.697,0.47-1.285,0.762-1.766,0.875
				c-0.477,0.115-1.033,0.12-1.654,0.015c-0.883-0.151-1.528-0.437-1.932-0.872c-0.404-0.433-0.559-0.93-0.467-1.49
				c0.143-0.845,0.789-1.463,1.959-1.844c1.17-0.38,2.672-0.51,4.502-0.367c0.078-0.41,0.154-0.818,0.232-1.227
				c0.083-0.439-0.042-0.848-0.369-1.229c-0.334-0.382-0.798-0.625-1.396-0.729c-0.552-0.097-1.05-0.072-1.487,0.066
				c-0.314,0.108-0.482,0.237-0.508,0.388c-0.016,0.089,0.039,0.236,0.158,0.445c0.146,0.262,0.2,0.483,0.169,0.662
				c-0.047,0.261-0.175,0.456-0.386,0.59c-0.212,0.135-0.464,0.178-0.761,0.129c-0.313-0.052-0.562-0.192-0.74-0.424
				c-0.179-0.229-0.243-0.499-0.192-0.806c0.094-0.573,0.533-1.041,1.324-1.398c0.786-0.357,1.768-0.438,2.922-0.233
				c1.068,0.186,1.841,0.542,2.324,1.061c0.478,0.523,0.658,1.086,0.542,1.686c-0.288,1.473-0.576,2.947-0.868,4.42
				c-0.078,0.393-0.068,0.691,0.033,0.902c0.099,0.215,0.251,0.343,0.471,0.385C152.379,122.845,152.648,122.806,152.951,122.671z
				 M150.558,118.683c-1.634-0.089-2.822,0.051-3.563,0.394c-0.555,0.263-0.886,0.716-0.995,1.351
				c-0.079,0.445-0.009,0.812,0.199,1.106c0.209,0.296,0.52,0.476,0.926,0.545c0.729,0.124,1.407-0.021,2.039-0.442
				c0.633-0.42,1.026-1.018,1.177-1.794C150.414,119.456,150.487,119.069,150.558,118.683z"/>
			<path fill="#FFFFFF" d="M155.443,115.683c1.47,0.292,2.938,0.597,4.405,0.915c-0.042,0.194-0.089,0.388-0.131,0.583
				c-0.587-0.113-0.97-0.146-1.149-0.097c-0.182,0.049-0.291,0.149-0.322,0.305c-0.027,0.126-0.025,0.259,0.012,0.397
				c0.438,1.751,0.858,3.501,1.261,5.253c1.058-1.379,2.128-2.749,3.211-4.116c0.051-0.073,0.085-0.148,0.104-0.228
				c0.101-0.417-0.293-0.781-1.181-1.088c0.045-0.192,0.088-0.39,0.136-0.583c1.235,0.277,2.47,0.563,3.704,0.858
				c-0.051,0.194-0.099,0.389-0.146,0.581c-0.384-0.056-0.702-0.035-0.962,0.061c-0.259,0.098-0.476,0.254-0.659,0.479
				c-1.639,2.012-3.251,4.038-4.837,6.078c-0.166-0.036-0.333-0.072-0.499-0.109c-0.591-2.584-1.224-5.168-1.896-7.749
				c-0.076-0.278-0.189-0.487-0.351-0.622c-0.16-0.138-0.433-0.249-0.821-0.332C155.363,116.073,155.399,115.879,155.443,115.683z"
				/>
			<path fill="#FFFFFF" d="M173.542,124.282c-2.091-0.582-4.185-1.135-6.282-1.66c-0.29,1.223-0.271,2.141,0.057,2.758
				c0.381,0.697,0.977,1.15,1.793,1.365c1.205,0.317,2.352-0.05,3.459-1.104c0.18,0.133,0.357,0.27,0.533,0.404
				c-1.379,1.35-2.901,1.796-4.591,1.354c-1.15-0.3-2.019-0.93-2.603-1.901c-0.587-0.969-0.735-2.054-0.425-3.261
				c0.333-1.296,0.993-2.25,2.006-2.847c1.008-0.6,2.105-0.748,3.283-0.442c0.866,0.226,1.56,0.623,2.074,1.188
				c0.516,0.564,0.824,1.263,0.923,2.087C173.84,122.803,173.763,123.489,173.542,124.282z M167.42,122.018
				c1.27,0.319,2.542,0.648,3.813,0.987c0.228,0.06,0.418,0.038,0.585-0.066c0.16-0.104,0.294-0.324,0.389-0.658
				c0.178-0.62,0.106-1.209-0.2-1.759c-0.315-0.552-0.762-0.903-1.354-1.058c-0.655-0.174-1.293-0.054-1.891,0.358
				C168.163,120.234,167.719,120.968,167.42,122.018z"/>
			<path fill="#FFFFFF" d="M175.674,125.883c0.087,1.082,0.314,1.884,0.691,2.4c0.375,0.52,0.928,0.886,1.649,1.104
				c0.666,0.199,1.228,0.226,1.67,0.071c0.447-0.153,0.744-0.436,0.877-0.843c0.075-0.233,0.081-0.46,0.007-0.676
				c-0.075-0.217-0.215-0.406-0.422-0.566c-0.21-0.157-0.777-0.474-1.713-0.938c-0.893-0.45-1.5-0.818-1.814-1.113
				c-0.312-0.293-0.528-0.637-0.639-1.02c-0.111-0.387-0.108-0.771,0.007-1.154c0.174-0.577,0.55-1.044,1.133-1.389
				c0.747-0.44,1.628-0.51,2.646-0.208c0.773,0.232,1.427,0.665,1.943,1.297c0.271-0.133,0.547-0.262,0.819-0.394
				c0.13,0.041,0.262,0.08,0.39,0.121c-0.224,0.959-0.454,1.917-0.682,2.874c-0.212-0.065-0.419-0.13-0.629-0.195
				c-0.016-0.879-0.201-1.567-0.562-2.06c-0.359-0.493-0.893-0.847-1.589-1.055c-0.603-0.181-1.114-0.189-1.538-0.025
				c-0.42,0.16-0.691,0.432-0.807,0.808c-0.1,0.331-0.027,0.651,0.219,0.963c0.241,0.314,0.783,0.667,1.64,1.063
				c0.99,0.469,1.622,0.812,1.897,1.013c0.456,0.325,0.768,0.704,0.93,1.143c0.164,0.437,0.159,0.904-0.013,1.406
				c-0.235,0.688-0.737,1.182-1.494,1.474c-0.759,0.293-1.597,0.301-2.513,0.023c-0.852-0.257-1.559-0.748-2.126-1.477
				c-0.298,0.17-0.595,0.342-0.892,0.514c-0.162-0.048-0.324-0.095-0.488-0.141c0.261-1.066,0.521-2.133,0.778-3.199
				C175.255,125.763,175.466,125.823,175.674,125.883z"/>
		</g>
	</g>
</g>
</svg>
