<?xml version="1.0" encoding="utf-8"?>
<!-- Generator: Adobe Illustrator 16.0.4, SVG Export Plug-In . SVG Version: 6.00 Build 0)  -->
<!DOCTYPE svg PUBLIC "-//W3C//DTD SVG 1.1//EN" "http://www.w3.org/Graphics/SVG/1.1/DTD/svg11.dtd">
<svg version="1.1" id="Livello_1" xmlns="http://www.w3.org/2000/svg" xmlns:xlink="http://www.w3.org/1999/xlink" x="0px" y="0px"
	 width="210px" height="200px" viewBox="0 0 210 200" enable-background="new 0 0 210 200" xml:space="preserve">
<g>
	<g>
		<circle fill="#27A94A" cx="105" cy="100" r="84"/>
		<circle fill="#00953E" stroke="#FFFFFF" stroke-width="5" stroke-miterlimit="10" cx="105" cy="100" r="75.216"/>
		<g id="Livello_10_32_">
			<g>
				<path fill="#6AB64D" stroke="#FFFFFF" stroke-width="4" stroke-miterlimit="10" d="M73.273,72.206
					c-16.871,17.962-10.092,37.589-7.324,44.763c17.148-39.662,56.822-49.123,56.822-49.123s-50.029,35.45-55.184,79.809
					c-0.406,3.502,8.074,5.517,8.693,1.332c1.895-12.461,6.539-22.711,6.539-22.711c11.402,1.087,30.49,0.75,40.504-12.011
					c13.299-16.955,3.959-43.622,24.15-63.561C152.189,46.051,96.133,47.869,73.273,72.206z"/>
			</g>
		</g>
	</g>
	<g>
		<g>
			<path fill="#47AE54" stroke="#FFFFFF" stroke-width="2" stroke-miterlimit="10" d="M194.768,148.899
				c-2.533-5.82-5.349-11.609-8.445-17.347c6.004-2.538,12.218-4.851,18.63-6.915C140.979,97.782,68.834,97.951,4.965,125.146
				c0.04,0.094,0.08,0.188,0.12,0.282c6.617,2.096,13.025,4.457,19.212,7.059c-2.899,5.431-5.547,10.909-7.942,16.413
				C73.41,124.948,137.71,124.947,194.768,148.899L194.768,148.899L194.768,148.899z"/>
		</g>
	</g>
	<g>
		<g>
			<path fill="#FFFFFF" d="M34.448,120.323c1.249-0.473,2.274-0.935,3.078-1.403c0.803-0.467,1.595-1.037,2.376-1.712
				c0.297-0.086,0.593-0.171,0.891-0.257c1.248,4.211,2.521,8.419,3.821,12.624c0.077,0.247,0.211,0.414,0.405,0.505
				c0.193,0.091,0.422,0.099,0.688,0.022c0.708-0.199,1.416-0.396,2.124-0.587c0.094,0.32,0.188,0.642,0.282,0.964
				c-2.941,0.799-5.879,1.661-8.812,2.587c-0.109-0.316-0.217-0.633-0.328-0.951c0.555-0.174,1.106-0.347,1.662-0.517
				c0.426-0.131,0.7-0.307,0.823-0.526c0.124-0.221,0.123-0.525-0.003-0.908c-1.013-3.104-2.01-6.213-2.995-9.321
				c-0.067-0.22-0.2-0.364-0.395-0.434c-0.194-0.068-0.448-0.055-0.763,0.041c-0.849,0.26-1.698,0.524-2.549,0.792
				C34.653,120.935,34.552,120.63,34.448,120.323z"/>
			<path fill="#FFFFFF" d="M49.088,114.366c1.907-0.14,3.581-0.365,5.031-0.691c1.126-0.252,2.026-0.562,2.706-0.933
				c0.274-0.154,0.436-0.236,0.484-0.246c0.116-0.024,0.187,0.034,0.219,0.176c0.098,0.462-0.006,1.003-0.309,1.618
				c-0.303,0.614-0.76,1.129-1.368,1.542c-0.609,0.414-1.421,0.736-2.444,0.972c-0.77,0.179-1.66,0.315-2.67,0.412
				c0.149,0.979,0.301,1.956,0.457,2.936c0.534-0.384,1.055-0.693,1.556-0.936c0.503-0.24,0.986-0.411,1.448-0.519
				c1.533-0.352,2.947-0.198,4.227,0.458c1.278,0.653,2.065,1.729,2.384,3.206c0.328,1.521,0.052,2.869-0.805,4.056
				c-0.859,1.188-2.147,1.971-3.893,2.377c-1.387,0.324-2.584,0.262-3.604-0.194c-1.02-0.457-1.666-1.153-1.922-2.093
				c-0.168-0.618-0.115-1.157,0.164-1.62c0.276-0.463,0.704-0.767,1.282-0.908c0.507-0.123,0.963-0.081,1.367,0.13
				c0.404,0.21,0.656,0.523,0.762,0.94c0.075,0.299,0.055,0.578-0.058,0.84c-0.114,0.258-0.385,0.556-0.813,0.886
				c-0.311,0.247-0.447,0.442-0.408,0.589c0.062,0.236,0.287,0.408,0.672,0.513c0.566,0.15,1.185,0.145,1.854-0.013
				c0.84-0.198,1.428-0.66,1.776-1.396c0.35-0.736,0.347-1.859-0.007-3.374c-0.299-1.276-0.76-2.155-1.391-2.629
				c-0.632-0.475-1.335-0.625-2.104-0.444c-0.355,0.083-0.727,0.233-1.107,0.451c-0.383,0.217-0.781,0.501-1.193,0.853
				c0.131,0.544,0.15,0.934,0.059,1.173c-0.092,0.235-0.272,0.388-0.538,0.453c-0.229,0.057-0.425,0.046-0.592-0.032
				c-0.169-0.081-0.275-0.206-0.321-0.381c-0.073-0.271,0.029-0.725,0.307-1.366C49.881,118.904,49.479,116.636,49.088,114.366z"/>
			<path fill="#FFFFFF" d="M67.528,110.565c1.048-0.173,2.042-0.053,2.975,0.358c0.934,0.412,1.774,1.192,2.52,2.343
				c0.743,1.149,1.228,2.539,1.463,4.171c0.238,1.644,0.174,3.107-0.179,4.39c-0.353,1.28-0.896,2.256-1.641,2.927
				c-0.74,0.674-1.601,1.09-2.59,1.254c-1.484,0.246-2.815-0.14-4.018-1.166c-1.502-1.268-2.511-3.077-2.986-5.444
				c-0.335-1.675-0.35-3.165-0.029-4.472c0.319-1.306,0.87-2.315,1.646-3.021C65.466,111.197,66.416,110.75,67.528,110.565z
				 M70.942,118.363c-0.501-3.098-1.056-5.097-1.683-5.989c-0.454-0.654-0.993-0.93-1.61-0.827c-0.74,0.125-1.201,0.723-1.374,1.791
				c-0.173,1.071,0.002,3.048,0.529,5.931c0.44,2.411,0.998,4.076,1.655,4.994c0.412,0.57,0.892,0.808,1.44,0.716
				c0.358-0.059,0.661-0.253,0.905-0.585c0.248-0.329,0.384-0.969,0.417-1.918C71.27,121.192,71.18,119.822,70.942,118.363z"/>
			<path fill="#FFFFFF" d="M81.98,108.628c1.05-0.107,2.029,0.073,2.928,0.543c0.899,0.469,1.685,1.3,2.353,2.493
				c0.667,1.193,1.059,2.61,1.189,4.254c0.133,1.654-0.025,3.111-0.458,4.368c-0.433,1.255-1.037,2.196-1.816,2.82
				c-0.778,0.625-1.659,0.986-2.651,1.089c-1.488,0.154-2.781-0.314-3.905-1.413c-1.407-1.359-2.289-3.227-2.609-5.618
				c-0.226-1.691-0.145-3.18,0.254-4.464c0.397-1.284,1.006-2.255,1.82-2.913C79.897,109.13,80.865,108.742,81.98,108.628z
				 M84.876,116.622c-0.3-3.124-0.726-5.15-1.292-6.082c-0.409-0.678-0.927-0.988-1.545-0.925c-0.741,0.076-1.233,0.645-1.473,1.701
				c-0.238,1.059-0.188,3.041,0.15,5.95c0.282,2.435,0.729,4.129,1.318,5.088c0.373,0.594,0.829,0.86,1.383,0.803
				c0.358-0.037,0.67-0.211,0.935-0.526c0.267-0.313,0.445-0.942,0.538-1.888C85.021,119.466,85.019,118.093,84.876,116.622z"/>
			<path fill="#FFFFFF" d="M97.797,112.859c1.525-0.141,3.05-0.266,4.579-0.375c0.194,0.649,0.312,1.296,0.354,1.942
				c0.459-0.685,1.06-1.217,1.798-1.598c0.74-0.378,1.564-0.568,2.473-0.564c1.455,0.007,2.63,0.488,3.503,1.431
				c0.878,0.944,1.284,2.265,1.237,3.955c-0.03,1.176-0.27,2.165-0.706,2.974c-0.438,0.806-1.028,1.411-1.775,1.813
				c-0.746,0.406-1.61,0.604-2.595,0.602c-0.787-0.003-1.488-0.169-2.104-0.497c-0.615-0.33-1.192-0.858-1.735-1.589
				c0.018,1.199,0.036,2.399,0.054,3.599c0.007,0.473,0.049,0.775,0.126,0.906c0.079,0.132,0.221,0.23,0.429,0.296
				c0.207,0.065,0.622,0.099,1.24,0.103c0.002,0.344,0.005,0.688,0.006,1.031c-2.118,0.013-4.237,0.058-6.356,0.133
				c-0.012-0.344-0.025-0.688-0.039-1.03c0.112-0.004,0.226-0.008,0.339-0.013c0.4-0.013,0.666-0.057,0.801-0.128
				c0.134-0.071,0.234-0.192,0.306-0.357c0.048-0.118,0.067-0.408,0.054-0.874c-0.097-3.172-0.19-6.342-0.283-9.513
				c-0.014-0.465-0.062-0.774-0.146-0.925c-0.084-0.152-0.21-0.26-0.376-0.322c-0.165-0.063-0.547-0.097-1.147-0.097
				C97.819,113.461,97.808,113.16,97.797,112.859z M105.497,113.757c-0.774,0.001-1.432,0.341-1.965,1.015s-0.786,1.655-0.767,2.94
				c0.019,1.271,0.312,2.238,0.872,2.906c0.562,0.67,1.189,1.004,1.899,1.002c0.692-0.001,1.251-0.29,1.678-0.869
				c0.561-0.765,0.853-1.797,0.866-3.096c0.013-1.192-0.207-2.142-0.664-2.845C106.963,114.109,106.319,113.755,105.497,113.757z"/>
			<path fill="#FFFFFF" d="M120.508,112.564c1.263,0.08,2.406,0.406,3.42,0.976c1.014,0.567,1.738,1.27,2.176,2.096
				c0.436,0.827,0.599,1.791,0.493,2.888c-0.169,1.754-0.952,3.037-2.323,3.868c-1.371,0.83-2.852,1.188-4.472,1.086
				c-1.146-0.072-2.178-0.373-3.11-0.9c-0.927-0.53-1.637-1.213-2.122-2.051c-0.485-0.839-0.713-1.774-0.675-2.805
				c0.056-1.552,0.699-2.835,1.956-3.83C117.104,112.895,118.667,112.447,120.508,112.564z M120.515,113.586
				c-0.833-0.052-1.516,0.236-2.043,0.865c-0.526,0.626-0.831,1.763-0.918,3.408c-0.091,1.708,0.082,2.9,0.515,3.572
				c0.433,0.675,1.045,1.034,1.844,1.085c0.813,0.052,1.492-0.235,2.045-0.863c0.552-0.626,0.897-1.753,1.025-3.381
				c0.133-1.671-0.029-2.857-0.49-3.555C122.033,114.021,121.371,113.641,120.515,113.586z"/>
			<path fill="#FFFFFF" d="M129.465,113.87c1.675,0.104,3.35,0.227,5.025,0.368c-0.361,2.824-0.729,5.649-1.102,8.473
				c-0.03,0.228,0.025,0.412,0.168,0.557c0.14,0.144,0.372,0.236,0.694,0.279c0.242,0.03,0.482,0.062,0.725,0.095
				c-0.046,0.329-0.092,0.66-0.14,0.991c-2.145-0.286-4.293-0.54-6.441-0.762c0.035-0.332,0.072-0.663,0.107-0.994
				c0.238,0.024,0.477,0.049,0.715,0.074c0.385,0.041,0.664-0.011,0.842-0.156c0.177-0.147,0.289-0.422,0.336-0.827
				c0.226-1.93,0.448-3.857,0.669-5.786c0.042-0.364-0.043-0.658-0.256-0.884c-0.213-0.224-0.526-0.36-0.941-0.403
				c-0.167-0.018-0.336-0.035-0.503-0.052C129.397,114.52,129.431,114.195,129.465,113.87z M133.235,108.449
				c0.551,0.063,1.003,0.291,1.355,0.676c0.352,0.386,0.495,0.82,0.435,1.304c-0.061,0.484-0.309,0.868-0.741,1.159
				c-0.43,0.29-0.917,0.402-1.459,0.34c-0.549-0.064-1-0.288-1.35-0.674c-0.351-0.383-0.503-0.815-0.45-1.293
				c0.053-0.482,0.293-0.874,0.725-1.168C132.181,108.499,132.676,108.384,133.235,108.449z"/>
			<path fill="#FFFFFF" d="M151.391,126.456c-0.073,0.326-0.146,0.651-0.22,0.978c-2.142-0.451-4.288-0.867-6.433-1.254
				c0.063-0.328,0.125-0.655,0.188-0.983c0.226,0.041,0.452,0.081,0.678,0.123c0.36,0.065,0.645,0.031,0.854-0.104
				c0.21-0.137,0.347-0.364,0.412-0.689c0.283-1.428,0.564-2.855,0.846-4.283c0.145-0.729,0.067-1.327-0.231-1.788
				c-0.3-0.458-0.755-0.745-1.364-0.854c-0.83-0.147-1.557,0.014-2.176,0.479c-0.615,0.464-1.013,1.232-1.197,2.301
				c-0.192,1.104-0.386,2.208-0.578,3.313c-0.056,0.325-0.01,0.587,0.141,0.787c0.149,0.199,0.368,0.322,0.65,0.37
				c0.271,0.047,0.544,0.095,0.816,0.142c-0.061,0.329-0.122,0.656-0.183,0.983c-2.23-0.388-4.462-0.742-6.696-1.06
				c0.051-0.33,0.101-0.66,0.15-0.989c0.291,0.041,0.582,0.082,0.875,0.126c0.338,0.049,0.604,0.003,0.806-0.141
				c0.199-0.144,0.324-0.379,0.378-0.705c0.314-1.971,0.627-3.941,0.936-5.913c0.054-0.339-0.033-0.629-0.261-0.871
				c-0.229-0.239-0.553-0.392-0.976-0.454c-0.16-0.021-0.318-0.046-0.478-0.068c0.044-0.308,0.09-0.615,0.135-0.923
				c1.576,0.149,3.154,0.313,4.731,0.496c0.065,0.637,0.07,1.38,0.013,2.236c0.783-0.677,1.58-1.146,2.393-1.402
				c0.811-0.26,1.63-0.312,2.454-0.16c1.116,0.208,1.934,0.707,2.444,1.487c0.501,0.779,0.627,1.752,0.379,2.915
				c-0.321,1.521-0.646,3.045-0.973,4.566c-0.075,0.352-0.043,0.621,0.102,0.811c0.143,0.191,0.404,0.325,0.787,0.404
				C150.993,126.374,151.19,126.414,151.391,126.456z"/>
			<path fill="#FFFFFF" d="M159.652,114.759c0.361,0.085,0.723,0.17,1.085,0.256c-0.33,1.341-0.662,2.682-0.997,4.021
				c1.232,0.295,2.462,0.6,3.694,0.914c-0.102,0.375-0.202,0.748-0.302,1.123c-1.226-0.313-2.45-0.616-3.675-0.909
				c-0.518,2.069-1.042,4.139-1.572,6.208c-0.105,0.412-0.071,0.757,0.101,1.039c0.172,0.281,0.445,0.465,0.822,0.56
				c1.07,0.264,1.885-0.496,2.438-2.288c0.346,0.086,0.688,0.176,1.034,0.264c-0.29,0.955-0.674,1.686-1.148,2.19
				c-0.477,0.506-1.047,0.844-1.713,1.018c-0.669,0.173-1.363,0.172-2.092-0.002c-0.637-0.153-1.158-0.401-1.566-0.746
				c-0.409-0.347-0.695-0.787-0.859-1.319c-0.165-0.535-0.183-1.079-0.052-1.628c0.481-2.011,0.959-4.021,1.43-6.032
				c-0.659-0.147-1.317-0.292-1.976-0.435c0.07-0.323,0.145-0.644,0.216-0.965c1.247,0.121,2.29-0.074,3.135-0.596
				C158.499,116.914,159.166,116.023,159.652,114.759z"/>
			<path fill="#FFFFFF" d="M173.228,122.999c0.348-0.192,0.695-0.384,1.043-0.574c0.244,0.073,0.485,0.149,0.729,0.224
				c-0.279,1.116-0.561,2.234-0.848,3.351c-0.316-0.099-0.634-0.196-0.952-0.294c-0.215-1.023-0.571-1.806-1.065-2.342
				c-0.49-0.532-1.174-0.927-2.038-1.178c-0.746-0.214-1.352-0.25-1.812-0.11c-0.461,0.141-0.748,0.401-0.859,0.781
				c-0.109,0.373-0.042,0.696,0.198,0.975c0.238,0.284,0.991,0.727,2.247,1.347c1.139,0.564,1.88,0.986,2.231,1.25
				c0.672,0.497,1.129,1.075,1.373,1.73c0.246,0.659,0.247,1.337,0.007,2.038c-0.303,0.887-0.958,1.504-1.954,1.864
				c-0.994,0.358-2.127,0.347-3.41-0.029c-0.619-0.183-1.157-0.411-1.618-0.688c-0.462-0.278-0.913-0.662-1.36-1.15
				c-0.357,0.214-0.716,0.428-1.071,0.645c-0.287-0.078-0.575-0.156-0.862-0.234c0.287-1.24,0.573-2.479,0.854-3.72
				c0.32,0.084,0.64,0.172,0.96,0.259c0.279,2.07,1.377,3.372,3.333,3.946c0.804,0.235,1.464,0.28,1.983,0.127
				c0.517-0.15,0.841-0.422,0.973-0.812c0.116-0.355,0.073-0.665-0.136-0.933c-0.208-0.267-0.858-0.681-1.953-1.234
				c-1.185-0.595-1.982-1.033-2.39-1.326c-0.701-0.486-1.18-1.02-1.438-1.607c-0.258-0.589-0.291-1.22-0.1-1.896
				c0.274-0.964,0.863-1.66,1.783-2.075c0.916-0.413,2.002-0.446,3.247-0.088c0.606,0.173,1.134,0.395,1.576,0.66
				C172.341,122.169,172.785,122.532,173.228,122.999z"/>
		</g>
	</g>
</g>
</svg>
