<?xml version="1.0" encoding="utf-8"?>
<!-- Generator: Adobe Illustrator 16.0.0, SVG Export Plug-In . SVG Version: 6.00 Build 0)  -->
<!DOCTYPE svg PUBLIC "-//W3C//DTD SVG 1.1//EN" "http://www.w3.org/Graphics/SVG/1.1/DTD/svg11.dtd">
<svg version="1.1" id="Livello_1" xmlns="http://www.w3.org/2000/svg" xmlns:xlink="http://www.w3.org/1999/xlink" x="0px" y="0px"
	 width="210px" height="200px" viewBox="0 0 210 200" enable-background="new 0 0 210 200" xml:space="preserve">
<g>
	<circle fill="#27A94A" cx="105" cy="100" r="84"/>
	<circle fill="#00953E" stroke="#FFFFFF" stroke-width="5" stroke-miterlimit="10" cx="105" cy="100" r="75.216"/>
	<g id="Livello_10_29_">
		<g>
			<path fill="#6AB64D" stroke="#FFFFFF" stroke-width="4" stroke-miterlimit="10" d="M73.272,72.206
				c-16.87,17.962-10.091,37.589-7.323,44.763c17.148-39.662,56.822-49.123,56.822-49.123s-50.03,35.45-55.185,79.809
				c-0.405,3.502,8.074,5.517,8.694,1.332c1.895-12.461,6.539-22.711,6.539-22.711c11.401,1.087,30.49,0.75,40.504-12.011
				c13.299-16.955,3.958-43.622,24.15-63.561C152.188,46.051,96.133,47.869,73.272,72.206z"/>
		</g>
	</g>
	<g>
		<g>
			<path fill="#47AE54" stroke="#FFFFFF" stroke-width="2" stroke-miterlimit="10" d="M194.866,144.649
				c-2.534-5.82-5.349-11.609-8.445-17.347c6.004-2.538,12.218-4.851,18.63-6.915C141.078,93.532,68.933,93.701,5.063,120.896
				c0.04,0.095,0.08,0.188,0.12,0.282c6.617,2.096,13.025,4.457,19.211,7.059c-2.898,5.432-5.546,10.909-7.941,16.414
				C73.509,120.698,137.81,120.697,194.866,144.649L194.866,144.649L194.866,144.649z"/>
		</g>
	</g>
	<g>
		<g>
			<path fill="#FFFFFF" d="M36.997,115.618c1.123,3.645,2.265,7.287,3.427,10.93c0.053,0.161,0.156,0.268,0.313,0.318
				c0.227,0.067,0.473,0.063,0.744-0.016c0.624-0.182,1.247-0.361,1.87-0.537c0.066,0.221,0.134,0.438,0.201,0.659
				c-2.307,0.65-4.613,1.34-6.914,2.066c-0.074-0.218-0.148-0.437-0.224-0.652c0.533-0.167,1.064-0.334,1.598-0.497
				c0.335-0.103,0.554-0.25,0.67-0.441c0.113-0.19,0.132-0.406,0.054-0.646c-0.899-2.743-1.788-5.49-2.665-8.238
				c-0.054-0.169-0.176-0.286-0.369-0.357c-0.192-0.069-0.406-0.067-0.651,0.007c-0.748,0.229-1.493,0.461-2.24,0.696
				c-0.067-0.2-0.134-0.401-0.201-0.601c1.017-0.449,1.82-0.866,2.416-1.264c0.597-0.396,1.095-0.823,1.501-1.289
				C36.686,115.712,36.84,115.664,36.997,115.618z"/>
			<path fill="#FFFFFF" d="M47.299,112.58c1.332-0.331,2.551-0.146,3.653,0.551c1.359,0.854,2.296,2.42,2.83,4.677
				c0.498,2.096,0.421,3.798-0.213,5.102c-0.636,1.306-1.575,2.111-2.846,2.426c-1.226,0.307-2.373,0.112-3.457-0.582
				c-1.356-0.877-2.359-2.387-2.979-4.55c-0.588-2.058-0.551-3.831,0.14-5.321C44.979,113.688,45.941,112.915,47.299,112.58z
				 M47.523,113.203c-0.896,0.221-1.498,0.774-1.801,1.65c-0.3,0.876-0.129,2.486,0.519,4.831c0.634,2.291,1.312,3.755,2.017,4.394
				c0.709,0.638,1.473,0.851,2.302,0.646c0.838-0.206,1.387-0.717,1.659-1.536c0.321-0.976,0.204-2.587-0.352-4.833
				c-0.575-2.324-1.215-3.822-1.938-4.483C49.207,113.208,48.4,112.985,47.523,113.203z"/>
			<path fill="#FFFFFF" d="M67.785,113.311c0.567-0.717,1.138-1.12,1.704-1.207c0.335-0.051,0.632,0.003,0.884,0.161
				c0.255,0.159,0.399,0.376,0.441,0.655c0.036,0.222-0.013,0.419-0.14,0.589c-0.128,0.173-0.292,0.271-0.492,0.304
				c-0.378,0.057-0.672-0.114-0.873-0.514c-0.081-0.173-0.188-0.251-0.314-0.229c-0.229,0.036-0.455,0.213-0.677,0.525
				c0.346,0.309,0.594,0.585,0.744,0.831c0.146,0.245,0.247,0.518,0.297,0.819c0.085,0.523,0.021,1.009-0.188,1.452
				c-0.21,0.444-0.611,0.874-1.195,1.283c-0.587,0.413-1.171,0.671-1.752,0.772c-0.357,0.062-0.715,0.126-1.07,0.188
				c-0.761,0.135-1.249,0.3-1.469,0.491c-0.221,0.194-0.299,0.439-0.244,0.725c0.048,0.235,0.185,0.395,0.409,0.482
				c0.227,0.087,0.618,0.081,1.178-0.02c0.798-0.16,1.597-0.315,2.397-0.468c1.216-0.205,2.123-0.157,2.721,0.135
				c0.599,0.292,0.95,0.767,1.056,1.424c0.118,0.721-0.085,1.376-0.6,1.964c-0.717,0.832-1.895,1.382-3.544,1.671
				c-1.364,0.241-2.421,0.191-3.178-0.154c-0.597-0.271-0.946-0.636-1.041-1.097c-0.072-0.354,0.027-0.706,0.308-1.067
				c0.276-0.356,0.801-0.685,1.573-0.974c-0.666-0.028-1.19-0.146-1.569-0.364s-0.61-0.531-0.696-0.944
				c-0.079-0.383-0.013-0.742,0.193-1.075c0.208-0.337,0.618-0.667,1.235-0.992c-0.611-0.181-1.098-0.437-1.46-0.784
				c-0.361-0.344-0.599-0.774-0.7-1.287c-0.161-0.814,0.056-1.565,0.666-2.251c0.607-0.683,1.491-1.133,2.643-1.332
				c0.47-0.082,0.935-0.101,1.393-0.054C66.88,113.02,67.336,113.13,67.785,113.311z M67.171,121.626
				c-1.188,0.204-2.005,0.514-2.45,0.912c-0.447,0.396-0.625,0.813-0.538,1.245c0.08,0.406,0.337,0.692,0.756,0.855
				c0.56,0.221,1.293,0.246,2.21,0.087c1.094-0.19,1.889-0.499,2.383-0.934c0.496-0.432,0.711-0.858,0.638-1.279
				c-0.04-0.248-0.166-0.464-0.377-0.649c-0.21-0.185-0.514-0.304-0.916-0.352C68.477,121.462,67.908,121.499,67.171,121.626z
				 M65.115,113.604c-0.596,0.104-1.055,0.388-1.368,0.853c-0.312,0.465-0.401,1.047-0.267,1.755
				c0.145,0.756,0.452,1.306,0.911,1.653c0.46,0.349,0.982,0.468,1.575,0.366c0.591-0.103,1.036-0.388,1.346-0.858
				c0.307-0.466,0.396-1.08,0.266-1.839c-0.123-0.703-0.41-1.229-0.873-1.569C66.241,113.62,65.712,113.5,65.115,113.604z"/>
			<path fill="#FFFFFF" d="M71.403,112.259c1.124-0.216,2.248-0.429,3.376-0.628c0.155,1.144,0.311,2.29,0.469,3.436
				c0.202-1.178,0.521-2.089,0.957-2.735c0.435-0.646,1.029-1.013,1.783-1.104c0.513-0.061,0.938,0.033,1.275,0.281
				c0.337,0.247,0.533,0.607,0.588,1.081c0.045,0.382-0.024,0.688-0.201,0.925c-0.18,0.234-0.423,0.368-0.728,0.404
				c-0.299,0.034-0.55-0.029-0.757-0.188c-0.204-0.159-0.327-0.393-0.364-0.701c-0.024-0.201,0.007-0.396,0.092-0.583
				c0.081-0.17,0.119-0.269,0.115-0.3c-0.012-0.09-0.08-0.131-0.208-0.113c-0.276,0.032-0.569,0.217-0.88,0.55
				c-0.431,0.465-0.728,1.069-0.893,1.81c-0.253,1.151-0.329,2.056-0.238,2.716c0.083,0.606,0.167,1.216,0.25,1.822
				c0.03,0.206,0.128,0.354,0.298,0.441c0.173,0.089,0.446,0.108,0.821,0.06c0.385-0.05,0.771-0.097,1.158-0.143
				c0.03,0.228,0.058,0.453,0.088,0.681c-1.883,0.228-3.765,0.48-5.646,0.756c-0.034-0.226-0.072-0.453-0.105-0.678
				c0.301-0.043,0.604-0.087,0.905-0.131c0.304-0.042,0.525-0.132,0.666-0.266c0.139-0.134,0.198-0.278,0.175-0.435
				c-0.262-1.802-0.523-3.604-0.781-5.407c-0.059-0.412-0.197-0.698-0.42-0.86c-0.221-0.164-0.512-0.22-0.875-0.167
				c-0.275,0.038-0.548,0.079-0.824,0.12C71.469,112.688,71.436,112.474,71.403,112.259z"/>
			<path fill="#FFFFFF" d="M89.9,114.632c-2.216,0.152-4.43,0.336-6.644,0.554c0.166,1.296,0.518,2.185,1.061,2.674
				c0.62,0.548,1.358,0.785,2.222,0.71c1.271-0.106,2.237-0.861,2.916-2.273c0.221,0.068,0.439,0.14,0.658,0.211
				c-0.833,1.793-2.126,2.755-3.91,2.908c-1.214,0.105-2.277-0.21-3.2-0.95c-0.921-0.739-1.46-1.75-1.603-3.035
				c-0.152-1.381,0.145-2.546,0.905-3.482c0.758-0.936,1.77-1.465,3.016-1.573c0.913-0.079,1.727,0.069,2.424,0.445
				c0.697,0.374,1.244,0.95,1.634,1.722C89.654,113.085,89.826,113.782,89.9,114.632z M83.19,114.539
				c1.344-0.132,2.688-0.251,4.031-0.358c0.236-0.019,0.418-0.108,0.537-0.267c0.121-0.161,0.168-0.418,0.14-0.777
				c-0.053-0.669-0.324-1.219-0.823-1.651c-0.498-0.431-1.06-0.621-1.686-0.566c-0.699,0.061-1.267,0.397-1.696,1.008
				C83.26,112.537,83.096,113.41,83.19,114.539z"/>
			<path fill="#FFFFFF" d="M100.046,114.158c-2.217,0.054-4.432,0.143-6.648,0.26c0.104,1.302,0.417,2.206,0.936,2.718
				c0.592,0.575,1.316,0.842,2.182,0.808c1.272-0.053,2.268-0.761,3.013-2.144c0.214,0.081,0.431,0.159,0.645,0.239
				c-0.916,1.757-2.246,2.659-4.032,2.734c-1.216,0.051-2.26-0.309-3.145-1.09c-0.883-0.78-1.375-1.814-1.457-3.104
				c-0.091-1.386,0.258-2.535,1.06-3.438c0.795-0.903,1.828-1.385,3.074-1.438c0.919-0.041,1.719,0.146,2.397,0.55
				c0.68,0.406,1.197,1.006,1.552,1.793C99.871,112.601,100.011,113.306,100.046,114.158z M93.361,113.77
				c1.344-0.073,2.689-0.133,4.033-0.181c0.238-0.008,0.422-0.088,0.549-0.242c0.129-0.153,0.187-0.41,0.175-0.77
				c-0.024-0.673-0.271-1.235-0.746-1.688c-0.477-0.453-1.03-0.666-1.655-0.639c-0.702,0.031-1.281,0.342-1.736,0.932
				C93.521,111.774,93.318,112.637,93.361,113.77z"/>
			<path fill="#FFFFFF" d="M101.4,109.784c1.045-0.077,2.094-0.146,3.141-0.211c0.132,0.536,0.226,1.164,0.29,1.883
				c0.418-0.624,0.919-1.092,1.493-1.4c0.578-0.311,1.23-0.461,1.958-0.454c0.629,0.009,1.149,0.128,1.57,0.356
				c0.422,0.229,0.752,0.591,0.996,1.076c0.244,0.487,0.358,1.03,0.343,1.627c-0.032,1.391-0.066,2.779-0.102,4.17
				c-0.006,0.312,0.062,0.534,0.209,0.667c0.146,0.138,0.396,0.208,0.745,0.218c0.215,0.008,0.43,0.013,0.645,0.02
				c-0.007,0.229-0.017,0.455-0.022,0.685c-1.6-0.05-3.201-0.081-4.803-0.096c0.002-0.229,0.003-0.457,0.007-0.686
				c0.152,0.002,0.306,0.002,0.458,0.005c0.429,0.004,0.731-0.055,0.901-0.181c0.171-0.128,0.26-0.316,0.264-0.572
				c0.021-1.222,0.043-2.446,0.063-3.667c0.013-0.798-0.109-1.392-0.373-1.78c-0.364-0.555-0.934-0.836-1.697-0.843
				c-0.76-0.007-1.393,0.271-1.898,0.826s-0.754,1.28-0.749,2.169c0.005,1.058,0.009,2.114,0.014,3.174
				c0.001,0.312,0.079,0.533,0.231,0.662c0.153,0.132,0.407,0.194,0.758,0.196c0.211,0.002,0.422-0.001,0.633,0.002
				c0.001,0.228-0.002,0.457-0.001,0.686c-1.608-0.006-3.216,0.005-4.823,0.034c-0.004-0.228-0.008-0.456-0.012-0.685
				c0.211-0.004,0.422-0.007,0.633-0.011c0.319-0.005,0.561-0.07,0.725-0.193c0.166-0.122,0.244-0.277,0.243-0.46
				c-0.021-1.844-0.042-3.688-0.062-5.532c-0.005-0.366-0.115-0.643-0.336-0.829c-0.221-0.186-0.536-0.278-0.946-0.27
				c-0.162,0.001-0.322,0.006-0.484,0.008C101.407,110.183,101.403,109.982,101.4,109.784z"/>
			<path fill="#FFFFFF" d="M123.748,105.306c-0.312,4.131-0.627,8.257-0.952,12.386c-0.014,0.17,0.031,0.305,0.134,0.404
				c0.153,0.133,0.348,0.212,0.581,0.229c0.32,0.025,0.644,0.053,0.965,0.078c-0.02,0.226-0.04,0.456-0.06,0.684
				c-1.719-0.143-3.44-0.267-5.159-0.369c0.014-0.228,0.027-0.454,0.042-0.683c0.307,0.018,0.611,0.036,0.917,0.056
				c0.302,0.02,0.527-0.031,0.682-0.157c0.156-0.123,0.243-0.308,0.26-0.55c0.245-3.468,0.486-6.936,0.724-10.403
				c0.021-0.304-0.057-0.533-0.23-0.684c-0.242-0.212-0.545-0.33-0.917-0.354c-0.288-0.019-0.576-0.037-0.863-0.053
				c0.013-0.228,0.026-0.457,0.039-0.685C121.188,105.228,122.469,105.263,123.748,105.306z"/>
			<path fill="#FFFFFF" d="M134.61,115.9c-2.213-0.28-4.427-0.525-6.641-0.739c-0.097,1.303,0.071,2.242,0.504,2.826
				c0.499,0.657,1.173,1.03,2.038,1.124c1.27,0.14,2.372-0.412,3.326-1.666c0.202,0.109,0.404,0.221,0.606,0.333
				c-1.186,1.597-2.648,2.29-4.435,2.097c-1.214-0.13-2.194-0.642-2.946-1.546c-0.752-0.905-1.08-1.999-0.962-3.286
				c0.126-1.383,0.649-2.467,1.579-3.24c0.928-0.773,2.024-1.097,3.27-0.962c0.915,0.099,1.686,0.398,2.298,0.902
				c0.613,0.503,1.037,1.173,1.267,2.005C134.677,114.334,134.708,115.051,134.61,115.9z M128.034,114.515
				c1.344,0.13,2.686,0.272,4.03,0.425c0.235,0.027,0.434-0.024,0.582-0.158c0.15-0.133,0.248-0.379,0.292-0.733
				c0.08-0.666-0.077-1.261-0.482-1.779c-0.404-0.519-0.922-0.812-1.544-0.881c-0.702-0.074-1.324,0.146-1.868,0.662
				C128.503,112.566,128.165,113.389,128.034,114.515z"/>
			<path fill="#FFFFFF" d="M145.232,120.82c0.086,0.189,0.17,0.377,0.256,0.565c-0.556,0.367-1.121,0.501-1.693,0.404
				c-0.438-0.075-0.789-0.247-1.05-0.519c-0.26-0.272-0.456-0.707-0.589-1.303c-0.722,0.501-1.329,0.819-1.825,0.948
				c-0.499,0.133-1.073,0.146-1.726,0.051c-0.93-0.137-1.606-0.421-2.04-0.86c-0.431-0.44-0.606-0.954-0.525-1.54
				c0.124-0.882,0.785-1.543,2.002-1.966c1.215-0.422,2.785-0.59,4.702-0.478c0.07-0.428,0.144-0.856,0.215-1.282
				c0.077-0.459-0.06-0.881-0.416-1.272c-0.357-0.39-0.851-0.632-1.48-0.728c-0.582-0.089-1.104-0.056-1.557,0.102
				c-0.326,0.118-0.5,0.257-0.523,0.414c-0.014,0.09,0.046,0.244,0.178,0.46c0.157,0.27,0.22,0.497,0.193,0.685
				c-0.041,0.272-0.17,0.479-0.39,0.623c-0.217,0.146-0.482,0.194-0.794,0.15c-0.331-0.046-0.592-0.187-0.785-0.424
				c-0.194-0.235-0.268-0.513-0.224-0.833c0.086-0.598,0.533-1.094,1.353-1.485c0.818-0.391,1.841-0.495,3.059-0.31
				c1.125,0.172,1.947,0.53,2.462,1.06c0.516,0.534,0.718,1.117,0.607,1.742c-0.271,1.538-0.54,3.077-0.813,4.615
				c-0.072,0.409-0.054,0.722,0.054,0.938c0.107,0.222,0.274,0.354,0.501,0.391C144.637,121.016,144.92,120.964,145.232,120.82z
				 M142.645,116.72c-1.713-0.059-2.952,0.11-3.72,0.485c-0.574,0.285-0.908,0.763-1.009,1.427
				c-0.068,0.465,0.011,0.846,0.237,1.146c0.227,0.303,0.553,0.482,0.979,0.546c0.765,0.114,1.469-0.056,2.121-0.503
				c0.651-0.451,1.047-1.08,1.188-1.893C142.508,117.526,142.577,117.122,142.645,116.72z"/>
			<path fill="#FFFFFF" d="M147.7,113.507c1.548,0.278,3.094,0.572,4.639,0.882c-0.042,0.204-0.083,0.405-0.126,0.609
				c-0.619-0.111-1.021-0.138-1.209-0.085c-0.189,0.054-0.298,0.161-0.332,0.321c-0.025,0.134-0.02,0.271,0.021,0.416
				c0.493,1.814,0.964,3.63,1.411,5.447c1.084-1.448,2.182-2.891,3.296-4.326c0.051-0.075,0.088-0.152,0.106-0.238
				c0.098-0.434-0.32-0.808-1.257-1.118c0.044-0.202,0.09-0.405,0.131-0.607c1.303,0.273,2.601,0.556,3.903,0.851
				c-0.05,0.202-0.098,0.403-0.145,0.605c-0.403-0.055-0.74-0.027-1.008,0.074c-0.27,0.103-0.499,0.27-0.685,0.506
				c-1.689,2.113-3.345,4.242-4.97,6.387c-0.176-0.035-0.348-0.069-0.522-0.106c-0.658-2.681-1.365-5.357-2.124-8.034
				c-0.078-0.29-0.208-0.502-0.379-0.643c-0.173-0.138-0.459-0.25-0.866-0.33C147.625,113.913,147.661,113.71,147.7,113.507z"/>
			<path fill="#FFFFFF" d="M166.798,122.261c-2.197-0.596-4.396-1.155-6.6-1.687c-0.288,1.276-0.259,2.23,0.092,2.871
				c0.402,0.721,1.031,1.188,1.888,1.405c1.261,0.321,2.459-0.068,3.61-1.171c0.186,0.14,0.376,0.278,0.562,0.418
				c-1.437,1.411-3.021,1.886-4.793,1.438c-1.203-0.304-2.117-0.953-2.74-1.954c-0.624-1.002-0.788-2.133-0.481-3.391
				c0.332-1.354,1.015-2.351,2.065-2.983c1.049-0.633,2.203-0.796,3.441-0.484c0.911,0.229,1.641,0.642,2.19,1.226
				c0.547,0.585,0.874,1.311,0.986,2.168C167.098,120.72,167.022,121.434,166.798,122.261z M160.359,119.943
				c1.336,0.322,2.673,0.654,4.008,0.999c0.235,0.062,0.438,0.038,0.61-0.072s0.306-0.338,0.403-0.686
				c0.18-0.647,0.105-1.258-0.227-1.83c-0.333-0.572-0.812-0.938-1.432-1.095c-0.697-0.175-1.358-0.043-1.98,0.388
				C161.115,118.081,160.657,118.847,160.359,119.943z"/>
			<path fill="#FFFFFF" d="M169.042,123.919c0.095,1.127,0.339,1.959,0.736,2.497c0.396,0.54,0.972,0.921,1.729,1.146
				c0.702,0.209,1.281,0.234,1.75,0.072c0.469-0.161,0.773-0.451,0.916-0.876c0.083-0.245,0.083-0.479,0.005-0.706
				c-0.078-0.226-0.227-0.422-0.444-0.587c-0.219-0.167-0.814-0.494-1.798-0.978c-0.938-0.469-1.574-0.853-1.905-1.156
				c-0.334-0.304-0.561-0.657-0.678-1.061c-0.116-0.403-0.12-0.8,0.001-1.2c0.18-0.604,0.57-1.089,1.178-1.45
				c0.779-0.46,1.711-0.536,2.781-0.219c0.816,0.239,1.498,0.692,2.047,1.352c0.287-0.136,0.575-0.272,0.862-0.408
				c0.137,0.043,0.273,0.085,0.408,0.128c-0.231,0.996-0.469,1.992-0.707,2.99c-0.219-0.068-0.44-0.137-0.66-0.204
				c-0.02-0.915-0.218-1.633-0.599-2.147c-0.38-0.514-0.94-0.882-1.674-1.097c-0.636-0.188-1.174-0.195-1.615-0.025
				c-0.443,0.169-0.724,0.45-0.842,0.843c-0.104,0.346-0.027,0.678,0.234,1.001c0.25,0.326,0.827,0.693,1.724,1.106
				c1.042,0.487,1.703,0.843,1.996,1.053c0.479,0.341,0.806,0.736,0.978,1.191c0.17,0.455,0.166,0.943-0.012,1.465
				c-0.245,0.717-0.766,1.228-1.562,1.533c-0.796,0.304-1.669,0.312-2.63,0.024c-0.889-0.265-1.629-0.774-2.229-1.531
				c-0.312,0.179-0.619,0.356-0.93,0.535c-0.172-0.047-0.341-0.097-0.511-0.143c0.268-1.11,0.535-2.225,0.796-3.333
				C168.605,123.795,168.823,123.857,169.042,123.919z"/>
		</g>
	</g>
</g>
</svg>
