<?xml version="1.0" encoding="utf-8"?>
<!-- Generator: Adobe Illustrator 16.0.4, SVG Export Plug-In . SVG Version: 6.00 Build 0)  -->
<!DOCTYPE svg PUBLIC "-//W3C//DTD SVG 1.1//EN" "http://www.w3.org/Graphics/SVG/1.1/DTD/svg11.dtd">
<svg version="1.1" id="Livello_1" xmlns="http://www.w3.org/2000/svg" xmlns:xlink="http://www.w3.org/1999/xlink" x="0px" y="0px"
	 width="210px" height="200px" viewBox="0 0 210 200" enable-background="new 0 0 210 200" xml:space="preserve">
<g>
	<g>
		<circle fill="#27A94A" cx="105" cy="100" r="84"/>
		<circle fill="#00953E" stroke="#FFFFFF" stroke-width="5" stroke-miterlimit="10" cx="105" cy="100" r="75.216"/>
		<g id="Livello_10_31_">
			<g>
				<path fill="#6AB64D" stroke="#FFFFFF" stroke-width="4" stroke-miterlimit="10" d="M73.273,72.206
					c-16.871,17.962-10.092,37.589-7.324,44.763c17.148-39.662,56.822-49.123,56.822-49.123s-50.029,35.45-55.184,79.809
					c-0.406,3.502,8.074,5.517,8.693,1.332c1.895-12.461,6.539-22.711,6.539-22.711c11.402,1.087,30.49,0.75,40.504-12.011
					c13.299-16.955,3.959-43.622,24.15-63.561C152.189,46.051,96.133,47.869,73.273,72.206z"/>
			</g>
		</g>
	</g>
	<g>
		<g>
			<path fill="#47AE54" stroke="#FFFFFF" stroke-width="2" stroke-miterlimit="10" d="M194.768,148.899
				c-2.533-5.82-5.349-11.609-8.445-17.347c6.004-2.538,12.218-4.851,18.63-6.915C140.979,97.781,68.834,97.951,4.965,125.146
				c0.04,0.094,0.08,0.188,0.12,0.282c6.617,2.096,13.025,4.457,19.212,7.058c-2.899,5.432-5.547,10.91-7.942,16.414
				C73.41,124.948,137.71,124.947,194.768,148.899L194.768,148.899L194.768,148.899z"/>
		</g>
	</g>
	<g>
		<g>
			<path fill="#FFFFFF" d="M49.384,121.757c1.575,0.14,2.714,0.464,3.424,0.96c0.709,0.495,1.189,1.226,1.454,2.189
				c0.384,1.406,0.182,2.681-0.585,3.826c-0.77,1.146-2.009,1.953-3.739,2.448c-1.679,0.479-3.102,0.528-4.286,0.124
				c-1.187-0.403-1.972-1.141-2.345-2.223c-0.276-0.804-0.238-1.567,0.119-2.29c0.36-0.722,1.18-1.513,2.47-2.357
				c-1.352-0.147-2.353-0.427-2.994-0.853c-0.642-0.43-1.096-1.034-1.357-1.828c-0.368-1.11-0.188-2.221,0.563-3.323
				c0.749-1.101,1.901-1.879,3.434-2.314c1.52-0.433,2.833-0.456,3.933-0.089c1.099,0.367,1.751,0.97,1.974,1.783
				c0.164,0.604,0.098,1.212-0.189,1.828C50.969,120.256,50.342,120.957,49.384,121.757z M47.038,124.527
				c-0.672,0.5-1.107,1.042-1.31,1.615c-0.2,0.574-0.176,1.242,0.072,2.002c0.303,0.924,0.825,1.556,1.562,1.904
				c0.734,0.35,1.571,0.386,2.519,0.115c0.985-0.28,1.706-0.747,2.171-1.405c0.466-0.658,0.589-1.374,0.367-2.146
				c-0.214-0.746-0.688-1.261-1.428-1.535C50.25,124.801,48.938,124.606,47.038,124.527z M48.375,121.723
				c0.524-0.6,0.852-1.114,0.974-1.545c0.126-0.434,0.11-0.917-0.042-1.456c-0.21-0.737-0.641-1.26-1.304-1.566
				c-0.66-0.306-1.434-0.335-2.312-0.086c-0.821,0.233-1.424,0.627-1.804,1.178c-0.377,0.548-0.47,1.127-0.278,1.737
				c0.183,0.576,0.574,0.993,1.174,1.261C45.383,121.515,46.584,121.663,48.375,121.723z"/>
			<path fill="#FFFFFF" d="M59.81,112.564c1.061-0.227,2.077-0.157,3.045,0.209c0.97,0.365,1.86,1.105,2.669,2.218
				c0.809,1.109,1.363,2.479,1.679,4.097c0.317,1.633,0.321,3.098,0.025,4.396c-0.295,1.299-0.799,2.298-1.516,3.005
				c-0.715,0.707-1.563,1.165-2.557,1.378c-1.487,0.321-2.854,0.006-4.128-0.957c-1.591-1.19-2.713-2.94-3.317-5.285
				c-0.429-1.651-0.518-3.142-0.258-4.466c0.259-1.321,0.77-2.36,1.527-3.108C57.736,113.303,58.685,112.805,59.81,112.564z
				 M63.652,120.188c-0.659-3.071-1.314-5.041-1.996-5.903c-0.492-0.628-1.054-0.878-1.678-0.746
				c-0.748,0.162-1.189,0.783-1.313,1.862s0.151,3.045,0.831,5.899c0.57,2.387,1.221,4.021,1.934,4.906
				c0.446,0.548,0.944,0.762,1.496,0.644c0.359-0.078,0.653-0.29,0.887-0.629c0.232-0.343,0.34-0.988,0.325-1.938
				C64.121,122.997,63.963,121.631,63.652,120.188z"/>
			<path fill="#FFFFFF" d="M74.426,109.944c1.062-0.154,2.062-0.016,2.995,0.417c0.931,0.431,1.761,1.23,2.483,2.394
				c0.723,1.165,1.177,2.567,1.375,4.202c0.198,1.652,0.099,3.111-0.286,4.386c-0.386,1.274-0.955,2.234-1.714,2.892
				c-0.76,0.657-1.632,1.055-2.629,1.199c-1.492,0.219-2.818-0.191-4.005-1.239c-1.483-1.297-2.466-3.12-2.896-5.498
				c-0.306-1.677-0.29-3.169,0.059-4.471c0.347-1.302,0.924-2.302,1.723-2.995C72.329,110.538,73.298,110.106,74.426,109.944z
				 M77.691,117.811c-0.434-3.107-0.948-5.116-1.559-6.025c-0.444-0.66-0.982-0.947-1.607-0.857
				c-0.749,0.109-1.228,0.699-1.424,1.767c-0.198,1.065-0.062,3.047,0.406,5.94c0.394,2.419,0.919,4.092,1.559,5.024
				c0.401,0.575,0.877,0.823,1.432,0.743c0.361-0.051,0.667-0.242,0.921-0.565c0.256-0.327,0.407-0.963,0.461-1.909
				C77.956,120.643,77.897,119.271,77.691,117.811z"/>
			<path fill="#FFFFFF" d="M90.616,113.549c1.537-0.194,3.074-0.372,4.616-0.532c0.22,0.642,0.358,1.284,0.421,1.927
				c0.441-0.698,1.029-1.251,1.764-1.653c0.735-0.402,1.562-0.616,2.48-0.641c1.47-0.038,2.671,0.408,3.582,1.323
				c0.912,0.915,1.361,2.225,1.366,3.915c0.003,1.176-0.207,2.175-0.623,2.993c-0.415,0.818-0.992,1.44-1.729,1.867
				c-0.738,0.427-1.599,0.65-2.591,0.678c-0.792,0.021-1.499-0.12-2.13-0.43c-0.63-0.308-1.229-0.82-1.8-1.532
				c0.059,1.198,0.116,2.397,0.178,3.596c0.024,0.474,0.076,0.775,0.159,0.901c0.081,0.128,0.23,0.225,0.439,0.28
				c0.212,0.06,0.629,0.081,1.249,0.063c0.015,0.343,0.028,0.687,0.042,1.03c-2.126,0.08-4.251,0.195-6.377,0.345
				c-0.027-0.343-0.052-0.684-0.078-1.027c0.114-0.009,0.228-0.016,0.34-0.024c0.402-0.028,0.668-0.077,0.8-0.154
				c0.131-0.076,0.229-0.199,0.294-0.37c0.045-0.116,0.053-0.409,0.021-0.871c-0.211-3.166-0.42-6.334-0.624-9.499
				c-0.03-0.467-0.091-0.771-0.182-0.921c-0.089-0.148-0.219-0.252-0.39-0.309c-0.17-0.057-0.558-0.077-1.164-0.056
				C90.659,114.149,90.638,113.849,90.616,113.549z M98.427,114.186c-0.781,0.026-1.434,0.385-1.95,1.077
				c-0.517,0.691-0.738,1.679-0.676,2.963c0.062,1.271,0.391,2.228,0.979,2.879c0.587,0.651,1.231,0.963,1.944,0.939
				c0.696-0.024,1.249-0.329,1.661-0.921c0.54-0.783,0.801-1.821,0.771-3.122c-0.023-1.19-0.275-2.133-0.757-2.821
				C99.917,114.491,99.256,114.158,98.427,114.186z"/>
			<path fill="#FFFFFF" d="M113.544,112.571c1.275,0.049,2.438,0.35,3.474,0.895c1.037,0.547,1.785,1.231,2.244,2.046
				c0.46,0.818,0.645,1.777,0.564,2.878c-0.131,1.758-0.888,3.056-2.246,3.917c-1.355,0.861-2.834,1.256-4.463,1.192
				c-1.154-0.044-2.199-0.317-3.148-0.822c-0.947-0.506-1.679-1.167-2.192-1.993c-0.512-0.827-0.769-1.754-0.76-2.785
				c0.012-1.551,0.622-2.853,1.864-3.881C110.119,112.989,111.682,112.5,113.544,112.571z M113.576,113.595
				c-0.841-0.033-1.521,0.272-2.037,0.913c-0.514,0.64-0.79,1.784-0.834,3.432c-0.045,1.713,0.163,2.898,0.614,3.558
				c0.455,0.662,1.08,1.006,1.884,1.037c0.817,0.032,1.493-0.269,2.032-0.909c0.538-0.642,0.857-1.776,0.947-3.406
				c0.092-1.674-0.101-2.854-0.582-3.542C115.119,113.989,114.44,113.629,113.576,113.595z"/>
			<path fill="#FFFFFF" d="M122.61,113.678c1.691,0.07,3.382,0.161,5.075,0.273c-0.309,2.831-0.623,5.66-0.94,8.489
				c-0.025,0.229,0.035,0.412,0.18,0.553c0.143,0.143,0.378,0.232,0.702,0.269c0.243,0.026,0.487,0.055,0.73,0.082
				c-0.04,0.33-0.081,0.661-0.12,0.992c-2.161-0.249-4.322-0.461-6.484-0.64c0.029-0.331,0.058-0.663,0.087-0.993
				c0.239,0.019,0.479,0.039,0.72,0.06c0.387,0.033,0.666-0.024,0.842-0.175c0.175-0.148,0.28-0.428,0.32-0.834
				c0.184-1.933,0.368-3.866,0.55-5.799c0.034-0.363-0.059-0.655-0.277-0.876c-0.219-0.22-0.539-0.35-0.958-0.385
				c-0.169-0.015-0.339-0.027-0.508-0.042C122.556,114.327,122.584,114.003,122.61,113.678z M126.3,108.183
				c0.558,0.053,1.019,0.272,1.383,0.652c0.362,0.379,0.519,0.812,0.466,1.297c-0.054,0.485-0.295,0.874-0.725,1.171
				c-0.429,0.297-0.917,0.419-1.466,0.365c-0.556-0.053-1.015-0.27-1.377-0.646s-0.524-0.806-0.482-1.282
				c0.042-0.486,0.277-0.879,0.706-1.184C125.234,108.252,125.732,108.128,126.3,108.183z"/>
			<path fill="#FFFFFF" d="M144.883,125.937c-0.07,0.325-0.14,0.651-0.209,0.979c-2.155-0.43-4.313-0.824-6.473-1.183
				c0.059-0.328,0.116-0.655,0.174-0.983c0.229,0.038,0.454,0.075,0.683,0.113c0.362,0.063,0.646,0.022,0.856-0.114
				c0.208-0.14,0.345-0.372,0.404-0.694c0.267-1.431,0.531-2.86,0.793-4.293c0.135-0.734,0.05-1.329-0.259-1.787
				c-0.31-0.455-0.771-0.737-1.386-0.837c-0.839-0.139-1.569,0.032-2.184,0.507c-0.614,0.474-1.003,1.248-1.171,2.315
				c-0.176,1.109-0.352,2.217-0.528,3.325c-0.053,0.324,0,0.587,0.152,0.784c0.155,0.197,0.375,0.318,0.659,0.362
				c0.274,0.042,0.548,0.086,0.822,0.13c-0.056,0.328-0.113,0.656-0.168,0.984c-2.245-0.358-4.491-0.678-6.738-0.961
				c0.044-0.329,0.089-0.66,0.132-0.99c0.294,0.037,0.588,0.074,0.88,0.113c0.341,0.043,0.609-0.008,0.808-0.154
				c0.197-0.148,0.321-0.385,0.367-0.71c0.284-1.976,0.562-3.952,0.84-5.929c0.047-0.341-0.045-0.629-0.277-0.866
				c-0.234-0.236-0.565-0.383-0.991-0.438c-0.162-0.021-0.322-0.041-0.483-0.062c0.04-0.31,0.08-0.617,0.12-0.928
				c1.59,0.125,3.184,0.268,4.776,0.428c0.077,0.635,0.094,1.378,0.051,2.235c0.778-0.688,1.574-1.165,2.389-1.436
				c0.812-0.266,1.639-0.329,2.47-0.187c1.129,0.196,1.962,0.686,2.486,1.459c0.516,0.774,0.653,1.747,0.42,2.914
				c-0.306,1.526-0.613,3.052-0.923,4.577c-0.072,0.351-0.034,0.621,0.111,0.81s0.41,0.319,0.796,0.396
				C144.483,125.856,144.683,125.896,144.883,125.937z"/>
			<path fill="#FFFFFF" d="M153.078,114.173c0.366,0.083,0.732,0.166,1.099,0.251c-0.32,1.342-0.641,2.685-0.966,4.026
				c1.245,0.288,2.489,0.586,3.733,0.897c-0.098,0.374-0.197,0.749-0.296,1.123c-1.235-0.309-2.473-0.606-3.711-0.892
				c-0.505,2.073-1.014,4.148-1.528,6.221c-0.103,0.41-0.065,0.757,0.108,1.037c0.177,0.28,0.453,0.466,0.831,0.556
				c1.079,0.258,1.893-0.507,2.437-2.303c0.347,0.085,0.693,0.172,1.041,0.26c-0.286,0.958-0.667,1.69-1.141,2.196
				c-0.476,0.507-1.046,0.849-1.715,1.025c-0.67,0.178-1.368,0.181-2.1,0.011c-0.641-0.148-1.167-0.394-1.578-0.735
				c-0.416-0.342-0.705-0.779-0.876-1.312c-0.17-0.534-0.193-1.074-0.066-1.629c0.464-2.014,0.922-4.028,1.376-6.043
				c-0.664-0.145-1.33-0.283-1.996-0.419c0.068-0.323,0.139-0.646,0.207-0.968c1.258,0.112,2.308-0.092,3.154-0.616
				C151.937,116.332,152.602,115.438,153.078,114.173z"/>
			<path fill="#FFFFFF" d="M166.845,122.381c0.348-0.189,0.698-0.382,1.049-0.57c0.245,0.074,0.49,0.149,0.736,0.226
				c-0.278,1.116-0.561,2.235-0.847,3.351c-0.319-0.1-0.64-0.197-0.96-0.295c-0.219-1.027-0.582-1.811-1.082-2.344
				c-0.499-0.536-1.188-0.933-2.062-1.181c-0.754-0.214-1.365-0.249-1.83-0.106c-0.465,0.141-0.752,0.4-0.861,0.781
				c-0.109,0.375-0.04,0.699,0.204,0.976c0.242,0.281,1.002,0.726,2.272,1.347c1.148,0.563,1.896,0.984,2.252,1.248
				c0.678,0.497,1.141,1.076,1.388,1.734c0.249,0.658,0.25,1.338,0.01,2.039c-0.305,0.886-0.965,1.503-1.964,1.86
				c-1.001,0.361-2.139,0.349-3.429-0.028c-0.623-0.181-1.164-0.408-1.63-0.684c-0.463-0.278-0.919-0.657-1.369-1.146
				c-0.359,0.214-0.718,0.431-1.074,0.647c-0.289-0.078-0.579-0.154-0.868-0.231c0.284-1.24,0.563-2.482,0.841-3.725
				c0.322,0.084,0.645,0.171,0.967,0.256c0.291,2.073,1.399,3.37,3.368,3.941c0.809,0.233,1.473,0.277,1.993,0.125
				c0.521-0.151,0.848-0.42,0.977-0.81c0.118-0.355,0.074-0.668-0.137-0.935c-0.21-0.265-0.864-0.683-1.97-1.236
				c-1.192-0.593-2-1.027-2.41-1.319c-0.708-0.486-1.192-1.021-1.456-1.608c-0.265-0.585-0.303-1.217-0.113-1.894
				c0.271-0.966,0.863-1.666,1.785-2.082c0.923-0.418,2.019-0.451,3.276-0.094c0.613,0.174,1.145,0.395,1.594,0.66
				C165.945,121.55,166.394,121.917,166.845,122.381z"/>
		</g>
	</g>
</g>
</svg>
