<?xml version="1.0" encoding="utf-8"?>
<!-- Generator: Adobe Illustrator 16.0.0, SVG Export Plug-In . SVG Version: 6.00 Build 0)  -->
<!DOCTYPE svg PUBLIC "-//W3C//DTD SVG 1.1//EN" "http://www.w3.org/Graphics/SVG/1.1/DTD/svg11.dtd">
<svg version="1.1" id="Livello_1" xmlns="http://www.w3.org/2000/svg" xmlns:xlink="http://www.w3.org/1999/xlink" x="0px" y="0px"
	 width="210px" height="200px" viewBox="0 0 210 200" enable-background="new 0 0 210 200" xml:space="preserve">
<g>
	<circle fill="#27A94A" cx="105" cy="100" r="84"/>
	<circle fill="#00953E" stroke="#FFFFFF" stroke-width="5" stroke-miterlimit="10" cx="105" cy="100" r="75.216"/>
	<g id="Livello_10_30_">
		<g>
			<path fill="#6AB64D" stroke="#FFFFFF" stroke-width="4" stroke-miterlimit="10" d="M73.272,72.206
				c-16.87,17.962-10.091,37.589-7.323,44.763c17.148-39.662,56.822-49.123,56.822-49.123s-50.03,35.45-55.185,79.809
				c-0.405,3.502,8.074,5.517,8.694,1.332c1.895-12.461,6.539-22.711,6.539-22.711c11.401,1.087,30.49,0.75,40.504-12.011
				c13.299-16.955,3.958-43.622,24.15-63.561C152.188,46.051,96.133,47.869,73.272,72.206z"/>
		</g>
	</g>
	<g>
		<g>
			<path fill="#47AE54" stroke="#FFFFFF" stroke-width="2" stroke-miterlimit="10" d="M194.866,144.649
				c-2.534-5.82-5.349-11.609-8.445-17.347c6.004-2.538,12.218-4.851,18.63-6.915C141.078,93.532,68.933,93.701,5.063,120.896
				c0.04,0.095,0.08,0.188,0.12,0.282c6.617,2.096,13.025,4.457,19.211,7.059c-2.898,5.432-5.546,10.909-7.941,16.414
				C73.509,120.698,137.81,120.697,194.866,144.649L194.866,144.649L194.866,144.649z"/>
		</g>
	</g>
	<g>
		<g>
			<path fill="#FFFFFF" d="M32.725,116.36c1.83-0.192,3.279-0.436,4.366-0.752c0.509-0.148,0.976-0.325,1.397-0.538
				c0.425-0.21,0.731-0.404,0.924-0.579c0.102-0.085,0.168-0.132,0.202-0.141c0.066-0.019,0.113,0.015,0.14,0.103
				c0.059,0.206-0.015,0.521-0.222,0.942c-0.205,0.421-0.542,0.807-1.005,1.155c-0.465,0.348-1.035,0.62-1.716,0.819
				c-0.787,0.231-1.761,0.408-2.919,0.532c0.249,1.145,0.503,2.292,0.759,3.435c0.435-0.377,0.86-0.688,1.283-0.938
				c0.421-0.248,0.841-0.434,1.253-0.557c1.307-0.385,2.521-0.317,3.631,0.196c1.109,0.515,1.826,1.338,2.152,2.459
				c0.364,1.244,0.205,2.394-0.467,3.454c-0.67,1.06-1.722,1.796-3.165,2.227c-1.106,0.331-2.101,0.32-2.99-0.035
				c-0.887-0.355-1.474-0.923-1.743-1.711c-0.163-0.476-0.174-0.879-0.039-1.207c0.139-0.329,0.384-0.548,0.737-0.659
				c0.346-0.105,0.662-0.09,0.947,0.051c0.286,0.139,0.485,0.374,0.595,0.706c0.081,0.249,0.092,0.462,0.031,0.632
				c-0.061,0.174-0.218,0.35-0.471,0.53c-0.25,0.186-0.357,0.345-0.313,0.473c0.062,0.186,0.228,0.358,0.497,0.523
				c0.268,0.167,0.622,0.258,1.055,0.282c0.436,0.024,0.9-0.039,1.403-0.188c0.98-0.292,1.641-0.787,1.988-1.491
				c0.345-0.705,0.33-1.684-0.05-2.938c-0.347-1.141-0.875-1.897-1.6-2.261c-0.723-0.366-1.525-0.419-2.402-0.16
				c-0.398,0.12-0.776,0.303-1.132,0.551c-0.359,0.25-0.69,0.564-1.004,0.941c0.091,0.421,0.096,0.718,0.023,0.892
				c-0.073,0.172-0.2,0.289-0.387,0.345c-0.132,0.042-0.25,0.035-0.354-0.021c-0.107-0.058-0.183-0.158-0.233-0.304
				c-0.086-0.257-0.038-0.55,0.151-0.885c0.055-0.1,0.088-0.185,0.103-0.252c-0.208-0.877-0.409-1.757-0.614-2.636
				C33.297,118.315,33.027,117.317,32.725,116.36z"/>
			<path fill="#FFFFFF" d="M47.368,112.317c1.33-0.324,2.552-0.135,3.646,0.566c1.355,0.862,2.284,2.431,2.811,4.688
				c0.489,2.1,0.405,3.799-0.233,5.103c-0.643,1.303-1.585,2.104-2.854,2.414c-1.226,0.301-2.369,0.101-3.452-0.597
				c-1.35-0.884-2.349-2.398-2.957-4.564c-0.58-2.06-0.534-3.832,0.161-5.32C45.047,113.417,46.012,112.65,47.368,112.317z
				 M47.59,112.942c-0.896,0.218-1.503,0.768-1.806,1.641c-0.305,0.876-0.138,2.486,0.498,4.833
				c0.623,2.296,1.295,3.759,1.997,4.402c0.703,0.643,1.469,0.859,2.297,0.658c0.838-0.206,1.389-0.713,1.664-1.532
				c0.324-0.973,0.213-2.586-0.332-4.834c-0.565-2.328-1.197-3.826-1.919-4.489C49.271,112.955,48.468,112.727,47.59,112.942z"/>
			<path fill="#FFFFFF" d="M67.832,113.127c0.567-0.718,1.144-1.116,1.708-1.201c0.337-0.049,0.63,0.004,0.881,0.165
				c0.253,0.158,0.4,0.379,0.44,0.655c0.031,0.223-0.014,0.42-0.143,0.589c-0.128,0.17-0.29,0.271-0.491,0.301
				c-0.383,0.058-0.669-0.114-0.871-0.516c-0.081-0.173-0.186-0.25-0.314-0.229c-0.228,0.034-0.454,0.211-0.678,0.523
				c0.346,0.312,0.591,0.587,0.741,0.834c0.148,0.242,0.246,0.519,0.293,0.818c0.085,0.522,0.019,1.008-0.192,1.451
				c-0.211,0.447-0.614,0.871-1.198,1.281c-0.589,0.41-1.172,0.666-1.754,0.765c-0.357,0.062-0.714,0.123-1.07,0.185
				c-0.758,0.135-1.248,0.296-1.47,0.486c-0.22,0.194-0.303,0.435-0.245,0.724c0.045,0.235,0.181,0.396,0.406,0.483
				c0.227,0.089,0.617,0.085,1.177-0.015c0.799-0.158,1.598-0.311,2.397-0.459c1.217-0.204,2.124-0.149,2.721,0.143
				c0.595,0.294,0.944,0.77,1.05,1.428c0.114,0.724-0.089,1.377-0.607,1.965c-0.721,0.829-1.9,1.373-3.548,1.656
				c-1.365,0.236-2.421,0.184-3.177-0.165c-0.597-0.274-0.94-0.641-1.035-1.101c-0.071-0.354,0.03-0.709,0.31-1.065
				c0.279-0.358,0.803-0.682,1.577-0.97c-0.669-0.03-1.188-0.152-1.568-0.368c-0.377-0.221-0.61-0.534-0.692-0.948
				c-0.075-0.382-0.008-0.74,0.198-1.075c0.209-0.332,0.62-0.663,1.238-0.987c-0.608-0.181-1.096-0.442-1.456-0.788
				c-0.363-0.346-0.596-0.774-0.694-1.291c-0.161-0.815,0.062-1.563,0.673-2.246c0.612-0.683,1.494-1.127,2.645-1.324
				c0.469-0.081,0.936-0.096,1.392-0.048C66.933,112.831,67.384,112.945,67.832,113.127z M67.189,121.44
				c-1.189,0.201-2.006,0.506-2.452,0.902c-0.447,0.397-0.627,0.811-0.542,1.243c0.078,0.407,0.332,0.693,0.753,0.859
				c0.556,0.221,1.292,0.252,2.208,0.094c1.092-0.188,1.889-0.49,2.385-0.923c0.498-0.434,0.711-0.857,0.643-1.279
				c-0.043-0.246-0.166-0.467-0.375-0.65c-0.209-0.186-0.515-0.306-0.914-0.354C68.494,121.28,67.927,121.315,67.189,121.44z
				 M65.164,113.411c-0.596,0.104-1.055,0.385-1.369,0.846c-0.314,0.464-0.406,1.05-0.272,1.756
				c0.141,0.754,0.444,1.309,0.902,1.656c0.459,0.35,0.981,0.472,1.573,0.372c0.591-0.102,1.036-0.384,1.349-0.854
				c0.307-0.468,0.398-1.079,0.271-1.839c-0.12-0.702-0.407-1.229-0.868-1.574C66.287,113.43,65.761,113.31,65.164,113.411z"/>
			<path fill="#FFFFFF" d="M71.451,112.089c1.125-0.215,2.249-0.421,3.377-0.619c0.152,1.147,0.303,2.291,0.457,3.438
				c0.204-1.177,0.528-2.085,0.965-2.73c0.435-0.643,1.033-1.013,1.786-1.099c0.511-0.061,0.937,0.037,1.274,0.284
				c0.335,0.248,0.529,0.609,0.583,1.082c0.04,0.38-0.026,0.691-0.205,0.925s-0.423,0.368-0.728,0.402
				c-0.298,0.033-0.549-0.029-0.755-0.189c-0.205-0.162-0.324-0.395-0.362-0.703c-0.022-0.2,0.006-0.396,0.093-0.583
				c0.08-0.17,0.119-0.27,0.116-0.299c-0.011-0.092-0.08-0.128-0.207-0.113c-0.275,0.032-0.567,0.214-0.881,0.546
				c-0.431,0.465-0.73,1.064-0.897,1.806c-0.259,1.151-0.336,2.058-0.246,2.716c0.081,0.608,0.161,1.216,0.243,1.823
				c0.027,0.205,0.126,0.354,0.297,0.441c0.17,0.09,0.444,0.11,0.818,0.064c0.389-0.049,0.771-0.095,1.16-0.14
				c0.027,0.226,0.055,0.452,0.084,0.68c-1.882,0.223-3.764,0.47-5.645,0.739c-0.034-0.227-0.068-0.453-0.104-0.679
				c0.302-0.045,0.604-0.086,0.905-0.128c0.306-0.043,0.524-0.132,0.666-0.264c0.14-0.131,0.198-0.278,0.178-0.434
				c-0.257-1.804-0.513-3.609-0.764-5.41c-0.056-0.409-0.194-0.699-0.417-0.861c-0.221-0.165-0.512-0.222-0.873-0.171
				c-0.273,0.04-0.55,0.079-0.824,0.117C71.515,112.516,71.483,112.302,71.451,112.089z"/>
			<path fill="#FFFFFF" d="M89.932,114.518c-2.215,0.146-4.43,0.324-6.644,0.534c0.16,1.297,0.513,2.187,1.053,2.677
				c0.618,0.551,1.354,0.788,2.219,0.717c1.271-0.104,2.238-0.855,2.922-2.267c0.218,0.071,0.438,0.143,0.656,0.213
				c-0.839,1.792-2.132,2.749-3.916,2.898c-1.216,0.102-2.278-0.216-3.196-0.959s-1.454-1.755-1.592-3.041
				c-0.148-1.383,0.15-2.543,0.914-3.479c0.763-0.934,1.773-1.46,3.02-1.565c0.916-0.076,1.726,0.076,2.422,0.452
				c0.696,0.377,1.24,0.953,1.628,1.728C89.691,112.968,89.858,113.667,89.932,114.518z M83.225,114.405
				c1.343-0.129,2.688-0.242,4.031-0.348c0.238-0.017,0.418-0.104,0.538-0.265c0.122-0.159,0.167-0.419,0.14-0.776
				c-0.052-0.669-0.321-1.223-0.818-1.654c-0.495-0.432-1.059-0.623-1.682-0.57c-0.699,0.059-1.267,0.395-1.699,1.002
				C83.301,112.403,83.134,113.275,83.225,114.405z"/>
			<path fill="#FFFFFF" d="M100.074,114.069c-2.216,0.049-4.431,0.13-6.647,0.243c0.103,1.303,0.411,2.208,0.928,2.721
				c0.592,0.577,1.315,0.845,2.18,0.813c1.271-0.05,2.271-0.757,3.017-2.136c0.215,0.078,0.431,0.16,0.646,0.24
				c-0.917,1.754-2.254,2.652-4.038,2.725c-1.215,0.049-2.257-0.314-3.143-1.098c-0.88-0.784-1.37-1.816-1.448-3.108
				c-0.084-1.387,0.267-2.536,1.068-3.436c0.8-0.901,1.831-1.381,3.078-1.431c0.916-0.039,1.718,0.151,2.396,0.556
				c0.679,0.407,1.193,1.009,1.546,1.797C99.904,112.513,100.04,113.216,100.074,114.069z M93.393,113.664
				c1.344-0.068,2.688-0.125,4.033-0.171c0.236-0.006,0.421-0.088,0.549-0.241s0.187-0.41,0.177-0.769
				c-0.021-0.671-0.267-1.234-0.743-1.688c-0.475-0.454-1.027-0.671-1.651-0.645c-0.699,0.029-1.282,0.34-1.738,0.928
				C93.56,111.67,93.353,112.529,93.393,113.664z"/>
			<path fill="#FFFFFF" d="M101.438,109.699c1.046-0.075,2.093-0.143,3.14-0.204c0.132,0.535,0.226,1.163,0.286,1.883
				c0.42-0.622,0.92-1.091,1.495-1.396c0.577-0.309,1.23-0.458,1.958-0.45c0.628,0.007,1.151,0.128,1.569,0.36
				c0.42,0.23,0.754,0.59,0.993,1.078c0.242,0.488,0.356,1.031,0.34,1.628c-0.036,1.39-0.073,2.778-0.109,4.169
				c-0.009,0.311,0.059,0.534,0.206,0.668c0.146,0.136,0.396,0.207,0.746,0.219c0.215,0.006,0.429,0.014,0.644,0.02
				c-0.01,0.229-0.016,0.457-0.024,0.687c-1.601-0.054-3.2-0.089-4.801-0.106c0.002-0.229,0.003-0.455,0.007-0.686
				c0.152,0.003,0.308,0.002,0.458,0.006c0.43,0.005,0.73-0.053,0.901-0.178c0.172-0.127,0.26-0.318,0.266-0.573
				c0.022-1.221,0.048-2.444,0.07-3.667c0.015-0.799-0.104-1.391-0.368-1.78c-0.363-0.556-0.932-0.837-1.695-0.846
				c-0.756-0.007-1.393,0.27-1.898,0.822s-0.754,1.276-0.753,2.166c0.002,1.058,0.003,2.116,0.005,3.174
				c0.002,0.312,0.078,0.532,0.23,0.663c0.151,0.135,0.406,0.197,0.756,0.198c0.211,0,0.422,0.002,0.635,0.003
				c-0.001,0.228-0.004,0.456-0.004,0.686c-1.607-0.01-3.216,0-4.821,0.024c-0.004-0.228-0.009-0.458-0.011-0.686
				c0.21-0.003,0.422-0.009,0.633-0.009c0.32-0.004,0.56-0.066,0.725-0.191c0.164-0.125,0.246-0.277,0.244-0.46
				c-0.017-1.844-0.029-3.688-0.049-5.533c-0.003-0.365-0.113-0.643-0.334-0.829c-0.22-0.188-0.536-0.278-0.944-0.273
				c-0.161,0.002-0.323,0.006-0.484,0.009C101.443,110.094,101.442,109.896,101.438,109.699z"/>
			<path fill="#FFFFFF" d="M123.786,105.266c-0.319,4.127-0.643,8.256-0.976,12.383c-0.014,0.169,0.031,0.307,0.134,0.405
				c0.152,0.132,0.349,0.214,0.581,0.229c0.321,0.026,0.643,0.051,0.965,0.08c-0.021,0.227-0.041,0.456-0.061,0.682
				c-1.719-0.144-3.438-0.27-5.16-0.376c0.016-0.228,0.029-0.457,0.045-0.685c0.304,0.019,0.612,0.039,0.916,0.06
				c0.299,0.02,0.526-0.033,0.683-0.156c0.157-0.124,0.245-0.307,0.261-0.551c0.253-3.469,0.5-6.935,0.742-10.4
				c0.021-0.305-0.053-0.533-0.23-0.686c-0.238-0.213-0.548-0.331-0.915-0.354c-0.288-0.019-0.574-0.036-0.863-0.054
				c0.015-0.229,0.026-0.458,0.042-0.686C121.227,105.183,122.505,105.218,123.786,105.266z"/>
			<path fill="#FFFFFF" d="M134.627,115.874c-2.213-0.28-4.426-0.531-6.639-0.748c-0.098,1.3,0.07,2.246,0.501,2.827
				c0.496,0.655,1.172,1.032,2.036,1.128c1.27,0.143,2.374-0.409,3.327-1.662c0.202,0.111,0.403,0.223,0.605,0.334
				c-1.187,1.594-2.653,2.285-4.437,2.092c-1.212-0.133-2.191-0.648-2.943-1.552c-0.754-0.907-1.076-2-0.956-3.288
				c0.129-1.384,0.649-2.466,1.583-3.236c0.93-0.771,2.025-1.095,3.27-0.959c0.914,0.1,1.686,0.403,2.296,0.907
				c0.612,0.502,1.035,1.173,1.265,2.006C134.693,114.309,134.725,115.027,134.627,115.874z M128.054,114.48
				c1.344,0.132,2.688,0.274,4.029,0.432c0.238,0.026,0.432-0.024,0.582-0.158c0.151-0.133,0.251-0.378,0.293-0.734
				c0.083-0.667-0.077-1.259-0.479-1.78c-0.404-0.519-0.92-0.814-1.543-0.882c-0.701-0.073-1.323,0.145-1.867,0.659
				C128.522,112.531,128.188,113.354,128.054,114.48z"/>
			<path fill="#FFFFFF" d="M145.242,120.808c0.086,0.189,0.171,0.376,0.255,0.566c-0.556,0.364-1.12,0.5-1.694,0.4
				c-0.438-0.074-0.787-0.246-1.049-0.519c-0.26-0.272-0.455-0.708-0.588-1.304c-0.723,0.5-1.325,0.817-1.825,0.947
				c-0.497,0.132-1.072,0.145-1.726,0.049c-0.93-0.137-1.608-0.424-2.038-0.863c-0.429-0.441-0.607-0.955-0.524-1.541
				c0.125-0.88,0.786-1.54,2.005-1.963c1.216-0.421,2.782-0.586,4.701-0.474c0.071-0.427,0.146-0.854,0.217-1.281
				c0.076-0.459-0.059-0.881-0.414-1.272c-0.354-0.389-0.849-0.634-1.48-0.73c-0.582-0.088-1.103-0.056-1.557,0.102
				c-0.327,0.118-0.5,0.258-0.522,0.413c-0.014,0.092,0.045,0.245,0.176,0.46c0.158,0.269,0.222,0.496,0.193,0.684
				c-0.04,0.271-0.172,0.479-0.39,0.624c-0.217,0.145-0.481,0.192-0.795,0.149c-0.331-0.045-0.59-0.188-0.785-0.424
				c-0.192-0.236-0.266-0.515-0.221-0.836c0.085-0.596,0.53-1.095,1.354-1.482c0.818-0.389,1.842-0.494,3.059-0.306
				c1.124,0.175,1.946,0.531,2.46,1.062c0.515,0.536,0.715,1.118,0.604,1.742c-0.271,1.539-0.544,3.078-0.817,4.615
				c-0.074,0.408-0.055,0.722,0.053,0.938c0.106,0.223,0.272,0.352,0.5,0.392C144.645,121.001,144.931,120.952,145.242,120.808z
				 M142.658,116.703c-1.712-0.059-2.949,0.107-3.72,0.481c-0.575,0.286-0.909,0.761-1.009,1.427
				c-0.066,0.464,0.009,0.846,0.235,1.147c0.225,0.303,0.553,0.481,0.979,0.546c0.765,0.114,1.47-0.053,2.121-0.502
				c0.652-0.449,1.048-1.079,1.188-1.891C142.521,117.508,142.592,117.107,142.658,116.703z"/>
			<path fill="#FFFFFF" d="M147.716,113.494c1.547,0.282,3.094,0.575,4.639,0.887c-0.044,0.203-0.086,0.406-0.128,0.609
				c-0.617-0.11-1.023-0.141-1.208-0.086c-0.188,0.054-0.3,0.161-0.332,0.322c-0.025,0.133-0.021,0.27,0.021,0.415
				c0.49,1.814,0.959,3.632,1.406,5.447c1.085-1.447,2.185-2.889,3.297-4.322c0.053-0.075,0.09-0.156,0.107-0.238
				c0.099-0.434-0.321-0.809-1.256-1.119c0.046-0.204,0.088-0.405,0.134-0.608c1.3,0.273,2.598,0.559,3.898,0.854
				c-0.048,0.201-0.097,0.402-0.144,0.604c-0.402-0.054-0.738-0.029-1.008,0.074c-0.27,0.103-0.498,0.271-0.685,0.505
				c-1.69,2.111-3.348,4.241-4.974,6.384c-0.175-0.034-0.348-0.07-0.521-0.107c-0.658-2.68-1.363-5.358-2.116-8.035
				c-0.08-0.289-0.21-0.504-0.38-0.643c-0.172-0.142-0.459-0.251-0.865-0.333C147.64,113.9,147.678,113.697,147.716,113.494z"/>
			<path fill="#FFFFFF" d="M166.804,122.261c-2.195-0.597-4.395-1.159-6.596-1.689c-0.289,1.274-0.264,2.23,0.089,2.872
				c0.403,0.721,1.03,1.187,1.887,1.405c1.262,0.321,2.457-0.064,3.61-1.17c0.187,0.139,0.375,0.277,0.562,0.417
				c-1.437,1.412-3.022,1.886-4.793,1.438c-1.206-0.306-2.116-0.951-2.74-1.957c-0.623-1.004-0.786-2.131-0.479-3.39
				c0.334-1.353,1.014-2.35,2.067-2.983c1.051-0.631,2.202-0.795,3.44-0.482c0.912,0.23,1.643,0.64,2.189,1.225
				c0.545,0.587,0.877,1.311,0.986,2.169C167.102,120.722,167.031,121.435,166.804,122.261z M160.368,119.941
				c1.335,0.32,2.672,0.655,4.005,1c0.238,0.061,0.438,0.038,0.611-0.072c0.174-0.108,0.31-0.339,0.404-0.685
				c0.181-0.65,0.107-1.26-0.226-1.832c-0.332-0.572-0.809-0.938-1.433-1.094c-0.692-0.176-1.356-0.045-1.979,0.387
				S160.668,118.845,160.368,119.941z"/>
			<path fill="#FFFFFF" d="M169.047,123.919c0.096,1.128,0.338,1.96,0.736,2.498s0.971,0.917,1.728,1.146
				c0.7,0.209,1.284,0.235,1.751,0.073s0.773-0.454,0.916-0.877c0.082-0.243,0.084-0.479,0.005-0.706
				c-0.079-0.225-0.227-0.419-0.444-0.587c-0.22-0.165-0.817-0.495-1.797-0.977c-0.935-0.469-1.572-0.85-1.905-1.156
				s-0.559-0.659-0.677-1.062c-0.117-0.4-0.119-0.803,0.001-1.2c0.18-0.603,0.571-1.088,1.178-1.449
				c0.783-0.46,1.711-0.535,2.78-0.218c0.815,0.24,1.501,0.691,2.047,1.35c0.287-0.135,0.573-0.271,0.861-0.407
				c0.137,0.043,0.272,0.085,0.409,0.127c-0.233,0.999-0.47,1.994-0.708,2.992c-0.221-0.068-0.44-0.139-0.661-0.205
				c-0.015-0.915-0.216-1.632-0.597-2.147c-0.381-0.515-0.941-0.88-1.674-1.097c-0.636-0.187-1.173-0.194-1.616-0.025
				c-0.442,0.169-0.722,0.448-0.84,0.843c-0.105,0.344-0.027,0.68,0.233,1.002c0.251,0.329,0.83,0.691,1.724,1.105
				c1.04,0.49,1.703,0.843,1.995,1.054c0.478,0.339,0.807,0.737,0.978,1.19c0.172,0.455,0.165,0.943-0.013,1.466
				c-0.245,0.717-0.77,1.229-1.562,1.531c-0.793,0.307-1.67,0.312-2.629,0.025c-0.888-0.267-1.632-0.773-2.229-1.533
				c-0.312,0.181-0.622,0.358-0.932,0.538c-0.171-0.049-0.339-0.098-0.51-0.145c0.269-1.111,0.533-2.222,0.797-3.333
				C168.61,123.796,168.827,123.857,169.047,123.919z"/>
		</g>
	</g>
</g>
</svg>
