<?xml version="1.0" encoding="utf-8"?>
<!-- Generator: Adobe Illustrator 16.0.4, SVG Export Plug-In . SVG Version: 6.00 Build 0)  -->
<!DOCTYPE svg PUBLIC "-//W3C//DTD SVG 1.1//EN" "http://www.w3.org/Graphics/SVG/1.1/DTD/svg11.dtd">
<svg version="1.1" id="Livello_1" xmlns="http://www.w3.org/2000/svg" xmlns:xlink="http://www.w3.org/1999/xlink" x="0px" y="0px"
	 width="210px" height="200px" viewBox="0 0 210 200" enable-background="new 0 0 210 200" xml:space="preserve">
<g>
	<g>
		<circle fill="#27A94A" cx="105" cy="100" r="84"/>
		<circle fill="#00953E" stroke="#FFFFFF" stroke-width="5" stroke-miterlimit="10" cx="105" cy="100" r="75.216"/>
		<g id="Livello_10_1_">
			<g>
				<path fill="#6AB64D" stroke="#FFFFFF" stroke-width="4" stroke-miterlimit="10" d="M73.272,72.206
					c-16.87,17.962-10.091,37.589-7.323,44.763c17.148-39.662,56.822-49.123,56.822-49.123s-50.03,35.45-55.185,79.809
					c-0.405,3.502,8.074,5.517,8.694,1.332c1.895-12.461,6.539-22.711,6.539-22.711c11.401,1.087,30.49,0.75,40.504-12.011
					c13.299-16.955,3.958-43.622,24.15-63.561C152.188,46.051,96.133,47.869,73.272,72.206z"/>
			</g>
		</g>
	</g>
	<g>
		<g>
			<path fill="#47AE54" stroke="#FFFFFF" stroke-width="2" stroke-miterlimit="10" d="M194.768,148.898
				c-2.534-5.819-5.349-11.609-8.446-17.346c6.004-2.538,12.219-4.851,18.63-6.915C140.979,97.781,68.834,97.951,4.965,125.146
				c0.04,0.094,0.08,0.188,0.12,0.282c6.617,2.096,13.026,4.457,19.211,7.059c-2.899,5.431-5.546,10.909-7.942,16.413
				C73.411,124.948,137.71,124.947,194.768,148.898L194.768,148.898L194.768,148.898z"/>
		</g>
	</g>
	<g>
		<g>
			<path fill="#FFFFFF" d="M40.814,119.712c1.264-0.475,2.302-0.941,3.117-1.412c0.815-0.469,1.619-1.04,2.413-1.716
				c0.301-0.085,0.602-0.172,0.902-0.256c1.234,4.216,2.496,8.426,3.787,12.635c0.076,0.249,0.212,0.417,0.406,0.507
				c0.195,0.092,0.426,0.1,0.693,0.025c0.712-0.196,1.424-0.391,2.137-0.58c0.093,0.32,0.185,0.641,0.279,0.962
				c-2.961,0.788-5.915,1.647-8.862,2.577c-0.11-0.317-0.219-0.633-0.329-0.95c0.557-0.176,1.114-0.347,1.671-0.518
				c0.428-0.132,0.704-0.307,0.829-0.529c0.124-0.222,0.125-0.522,0-0.908c-1.013-3.105-2.009-6.214-2.988-9.324
				c-0.069-0.219-0.202-0.364-0.397-0.432c-0.197-0.07-0.453-0.058-0.771,0.04c-0.86,0.26-1.721,0.526-2.581,0.799
				C41.019,120.324,40.916,120.02,40.814,119.712z"/>
			<path fill="#FFFFFF" d="M59.728,112.829c1.06-0.232,2.08-0.166,3.05,0.194c0.971,0.359,1.867,1.096,2.681,2.204
				c0.815,1.106,1.376,2.475,1.699,4.091c0.326,1.631,0.337,3.096,0.047,4.393c-0.29,1.302-0.789,2.302-1.502,3.014
				c-0.712,0.71-1.56,1.172-2.551,1.391c-1.488,0.329-2.857,0.021-4.135-0.936c-1.597-1.183-2.73-2.929-3.349-5.268
				c-0.436-1.65-0.534-3.14-0.28-4.464c0.252-1.325,0.759-2.368,1.515-3.119C57.656,113.579,58.603,113.077,59.728,112.829z
				 M63.611,120.434c-0.674-3.067-1.34-5.034-2.025-5.893c-0.496-0.627-1.06-0.874-1.683-0.737
				c-0.749,0.165-1.187,0.788-1.307,1.869c-0.119,1.077,0.166,3.044,0.861,5.895c0.583,2.385,1.243,4.014,1.96,4.896
				c0.449,0.544,0.948,0.757,1.5,0.636c0.359-0.078,0.654-0.293,0.884-0.634c0.231-0.345,0.334-0.991,0.316-1.939
				C64.094,123.239,63.929,121.876,63.611,120.434z"/>
			<path fill="#FFFFFF" d="M74.35,110.141c1.063-0.158,2.064-0.023,3,0.404c0.935,0.426,1.768,1.223,2.496,2.383
				c0.729,1.162,1.188,2.564,1.392,4.198c0.207,1.649,0.112,3.111-0.268,4.386c-0.381,1.276-0.947,2.238-1.704,2.899
				c-0.756,0.659-1.627,1.06-2.623,1.209c-1.493,0.224-2.822-0.18-4.014-1.222c-1.49-1.29-2.48-3.11-2.923-5.485
				c-0.312-1.677-0.304-3.165,0.04-4.47c0.342-1.304,0.914-2.305,1.712-3.003C72.253,110.744,73.221,110.309,74.35,110.141z
				 M77.651,117.993c-0.447-3.107-0.969-5.112-1.586-6.018c-0.446-0.659-0.985-0.944-1.611-0.852
				c-0.75,0.111-1.226,0.704-1.418,1.772c-0.194,1.066-0.05,3.048,0.433,5.939c0.403,2.417,0.938,4.086,1.582,5.018
				c0.404,0.574,0.882,0.82,1.435,0.736c0.361-0.053,0.667-0.244,0.92-0.568c0.253-0.328,0.402-0.964,0.453-1.911
				C77.927,120.825,77.862,119.455,77.651,117.993z"/>
			<path fill="#FFFFFF" d="M90.568,113.682c1.537-0.198,3.076-0.383,4.617-0.548c0.221,0.642,0.363,1.283,0.428,1.926
				c0.44-0.701,1.026-1.256,1.759-1.66c0.734-0.403,1.562-0.621,2.48-0.649c1.471-0.043,2.673,0.401,3.587,1.313
				c0.916,0.913,1.369,2.22,1.378,3.911c0.007,1.175-0.2,2.175-0.613,2.994c-0.414,0.82-0.988,1.443-1.725,1.874
				c-0.736,0.429-1.597,0.653-2.588,0.686c-0.791,0.023-1.5-0.116-2.132-0.424c-0.631-0.307-1.232-0.815-1.808-1.526
				c0.063,1.198,0.127,2.396,0.191,3.595c0.025,0.474,0.08,0.774,0.162,0.9c0.082,0.129,0.23,0.225,0.441,0.28
				c0.212,0.059,0.629,0.078,1.25,0.059c0.015,0.344,0.03,0.686,0.045,1.031c-2.126,0.086-4.251,0.208-6.376,0.366
				c-0.027-0.343-0.054-0.686-0.082-1.027c0.113-0.009,0.227-0.017,0.34-0.025c0.401-0.028,0.667-0.081,0.798-0.159
				c0.131-0.075,0.229-0.198,0.293-0.369c0.044-0.115,0.051-0.408,0.018-0.873c-0.223-3.165-0.442-6.329-0.658-9.495
				c-0.032-0.466-0.094-0.771-0.184-0.92c-0.091-0.149-0.222-0.251-0.392-0.309c-0.17-0.054-0.558-0.073-1.165-0.051
				C90.613,114.282,90.591,113.981,90.568,113.682z M98.385,114.292c-0.781,0.028-1.434,0.392-1.948,1.084
				c-0.515,0.691-0.733,1.682-0.667,2.965c0.067,1.27,0.399,2.228,0.989,2.876c0.589,0.649,1.235,0.958,1.948,0.933
				c0.697-0.025,1.248-0.334,1.659-0.926c0.538-0.785,0.795-1.823,0.763-3.124c-0.029-1.19-0.283-2.133-0.768-2.819
				C99.878,114.595,99.216,114.262,98.385,114.292z"/>
			<path fill="#FFFFFF" d="M113.506,112.636c1.276,0.045,2.439,0.343,3.478,0.886c1.04,0.544,1.789,1.228,2.25,2.042
				s0.649,1.774,0.57,2.877c-0.126,1.757-0.881,3.057-2.235,3.921c-1.355,0.865-2.833,1.262-4.462,1.202
				c-1.153-0.041-2.199-0.312-3.15-0.812c-0.95-0.504-1.684-1.162-2.198-1.988c-0.514-0.824-0.774-1.752-0.769-2.782
				c0.008-1.552,0.616-2.855,1.854-3.888C110.08,113.062,111.645,112.568,113.506,112.636z M113.542,113.659
				c-0.842-0.031-1.521,0.276-2.036,0.918c-0.512,0.641-0.786,1.788-0.825,3.434c-0.041,1.712,0.17,2.896,0.625,3.556
				c0.455,0.662,1.081,1.003,1.885,1.032c0.818,0.03,1.493-0.272,2.031-0.914c0.537-0.642,0.853-1.778,0.939-3.408
				c0.087-1.674-0.108-2.854-0.591-3.54C115.086,114.051,114.408,113.69,113.542,113.659z"/>
			<path fill="#FFFFFF" d="M122.581,113.721c1.691,0.066,3.383,0.155,5.077,0.264c-0.303,2.831-0.61,5.662-0.923,8.491
				c-0.025,0.229,0.035,0.413,0.18,0.554c0.145,0.143,0.378,0.23,0.703,0.266c0.244,0.027,0.487,0.055,0.731,0.082
				c-0.039,0.33-0.08,0.661-0.119,0.992c-2.16-0.244-4.322-0.454-6.484-0.626c0.028-0.333,0.057-0.665,0.084-0.995
				c0.24,0.019,0.479,0.038,0.72,0.059c0.387,0.033,0.667-0.026,0.841-0.178c0.173-0.148,0.28-0.427,0.318-0.834
				c0.182-1.934,0.361-3.866,0.539-5.799c0.033-0.364-0.059-0.655-0.28-0.876c-0.219-0.22-0.539-0.348-0.958-0.383
				c-0.169-0.014-0.338-0.027-0.508-0.042C122.527,114.37,122.554,114.046,122.581,113.721z M126.26,108.22
				c0.558,0.054,1.021,0.269,1.386,0.648c0.364,0.381,0.519,0.812,0.468,1.297c-0.051,0.483-0.293,0.874-0.723,1.173
				c-0.429,0.297-0.917,0.42-1.465,0.368c-0.557-0.055-1.016-0.268-1.379-0.645c-0.364-0.377-0.526-0.805-0.486-1.281
				c0.042-0.486,0.276-0.88,0.705-1.186C125.195,108.292,125.693,108.166,126.26,108.22z"/>
			<path fill="#FFFFFF" d="M144.877,125.946c-0.069,0.326-0.138,0.653-0.208,0.978c-2.156-0.427-4.314-0.817-6.474-1.174
				c0.058-0.327,0.116-0.655,0.173-0.983c0.228,0.037,0.455,0.075,0.683,0.113c0.363,0.061,0.647,0.022,0.856-0.116
				c0.209-0.138,0.344-0.371,0.403-0.694c0.265-1.432,0.527-2.863,0.788-4.294c0.133-0.735,0.047-1.33-0.261-1.787
				c-0.31-0.455-0.774-0.736-1.389-0.836c-0.839-0.137-1.569,0.033-2.183,0.51c-0.614,0.475-1.001,1.251-1.167,2.317
				c-0.174,1.108-0.348,2.217-0.524,3.325c-0.051,0.324,0,0.587,0.154,0.784c0.155,0.197,0.375,0.319,0.66,0.361
				c0.274,0.044,0.548,0.086,0.822,0.129c-0.055,0.329-0.111,0.657-0.166,0.985c-2.246-0.355-4.492-0.673-6.74-0.95
				c0.043-0.329,0.086-0.661,0.13-0.99c0.294,0.036,0.588,0.073,0.881,0.11c0.34,0.044,0.608-0.007,0.807-0.154
				c0.197-0.148,0.32-0.387,0.366-0.712c0.28-1.976,0.556-3.952,0.829-5.929c0.047-0.34-0.045-0.629-0.279-0.867
				c-0.235-0.236-0.565-0.381-0.993-0.436c-0.161-0.021-0.322-0.04-0.483-0.059c0.04-0.311,0.079-0.619,0.118-0.929
				c1.592,0.121,3.186,0.261,4.78,0.42c0.079,0.635,0.095,1.379,0.053,2.235c0.777-0.688,1.574-1.169,2.387-1.438
				c0.813-0.27,1.64-0.333,2.472-0.19c1.13,0.194,1.963,0.682,2.489,1.457c0.517,0.771,0.656,1.744,0.423,2.913
				c-0.303,1.524-0.609,3.052-0.918,4.576c-0.07,0.351-0.033,0.622,0.113,0.811c0.146,0.188,0.411,0.318,0.796,0.395
				C144.477,125.867,144.677,125.907,144.877,125.946z"/>
			<path fill="#FFFFFF" d="M153.064,114.178c0.366,0.081,0.732,0.165,1.099,0.249c-0.318,1.343-0.639,2.685-0.963,4.025
				c1.246,0.288,2.491,0.586,3.736,0.896c-0.099,0.375-0.197,0.75-0.296,1.125c-1.237-0.307-2.475-0.605-3.713-0.89
				c-0.502,2.073-1.01,4.148-1.523,6.222c-0.102,0.412-0.065,0.757,0.111,1.036c0.175,0.281,0.452,0.467,0.83,0.556
				c1.078,0.257,1.891-0.508,2.435-2.305c0.347,0.087,0.694,0.173,1.041,0.26c-0.284,0.959-0.665,1.691-1.139,2.196
				c-0.474,0.508-1.046,0.851-1.713,1.028c-0.67,0.178-1.368,0.181-2.1,0.012c-0.641-0.149-1.167-0.392-1.579-0.735
				c-0.415-0.34-0.706-0.779-0.876-1.312s-0.195-1.074-0.068-1.627c0.462-2.014,0.919-4.03,1.371-6.045
				c-0.666-0.142-1.332-0.282-1.999-0.418c0.069-0.321,0.137-0.646,0.206-0.968c1.259,0.111,2.309-0.092,3.155-0.619
				C151.923,116.337,152.587,115.441,153.064,114.178z"/>
			<path fill="#FFFFFF" d="M166.84,122.382c0.348-0.192,0.699-0.383,1.049-0.571c0.246,0.074,0.491,0.149,0.736,0.226
				c-0.278,1.117-0.56,2.233-0.845,3.351c-0.319-0.1-0.64-0.197-0.96-0.295c-0.219-1.027-0.583-1.81-1.083-2.344
				c-0.498-0.536-1.189-0.931-2.063-1.18c-0.754-0.214-1.365-0.249-1.83-0.107c-0.465,0.14-0.751,0.401-0.861,0.781
				c-0.108,0.374-0.04,0.699,0.205,0.977c0.242,0.282,1.003,0.725,2.272,1.345c1.151,0.562,1.899,0.985,2.254,1.248
				c0.677,0.496,1.141,1.077,1.388,1.735c0.249,0.658,0.25,1.337,0.01,2.039c-0.304,0.885-0.963,1.503-1.963,1.861
				c-1.001,0.359-2.139,0.347-3.429-0.028c-0.623-0.181-1.165-0.409-1.629-0.685c-0.463-0.276-0.919-0.657-1.37-1.146
				c-0.359,0.215-0.717,0.431-1.074,0.647c-0.289-0.077-0.578-0.154-0.867-0.23c0.282-1.241,0.562-2.483,0.837-3.727
				c0.323,0.086,0.646,0.17,0.968,0.257c0.292,2.073,1.401,3.368,3.37,3.94c0.809,0.233,1.472,0.278,1.994,0.125
				c0.52-0.15,0.846-0.42,0.976-0.81c0.118-0.356,0.073-0.667-0.138-0.935c-0.21-0.266-0.863-0.684-1.969-1.236
				c-1.194-0.593-2-1.025-2.412-1.319c-0.708-0.485-1.194-1.02-1.458-1.606c-0.263-0.585-0.303-1.218-0.113-1.895
				c0.271-0.967,0.861-1.666,1.785-2.083c0.922-0.417,2.019-0.451,3.277-0.095c0.613,0.175,1.145,0.396,1.595,0.661
				C165.939,121.55,166.389,121.916,166.84,122.382z"/>
		</g>
	</g>
</g>
</svg>
