<?xml version="1.0" encoding="utf-8"?>
<!-- Generator: Adobe Illustrator 16.0.0, SVG Export Plug-In . SVG Version: 6.00 Build 0)  -->
<!DOCTYPE svg PUBLIC "-//W3C//DTD SVG 1.1//EN" "http://www.w3.org/Graphics/SVG/1.1/DTD/svg11.dtd">
<svg version="1.1" id="Livello_1" xmlns="http://www.w3.org/2000/svg" xmlns:xlink="http://www.w3.org/1999/xlink" x="0px" y="0px"
	 width="210px" height="200px" viewBox="0 0 210 200" enable-background="new 0 0 210 200" xml:space="preserve">
<g>
	<circle fill="#27A94A" cx="105" cy="100" r="84"/>
	<circle fill="#00953E" stroke="#FFFFFF" stroke-width="5" stroke-miterlimit="10" cx="105" cy="100" r="75.216"/>
	<g id="Livello_10_28_">
		<g>
			<path fill="#6AB64D" stroke="#FFFFFF" stroke-width="4" stroke-miterlimit="10" d="M73.272,72.206
				c-16.87,17.962-10.091,37.589-7.323,44.763c17.148-39.662,56.822-49.123,56.822-49.123s-50.03,35.45-55.185,79.809
				c-0.405,3.502,8.074,5.517,8.694,1.332c1.895-12.461,6.539-22.711,6.539-22.711c11.401,1.087,30.49,0.75,40.504-12.011
				c13.299-16.955,3.958-43.622,24.15-63.561C152.188,46.051,96.133,47.869,73.272,72.206z"/>
		</g>
	</g>
	<g>
		<g>
			<path fill="#47AE54" stroke="#FFFFFF" stroke-width="2" stroke-miterlimit="10" d="M194.866,144.649
				c-2.534-5.82-5.349-11.609-8.445-17.347c6.004-2.538,12.218-4.851,18.63-6.915C141.078,93.532,68.933,93.701,5.063,120.896
				c0.04,0.095,0.08,0.188,0.12,0.282c6.617,2.096,13.025,4.457,19.211,7.059c-2.898,5.432-5.546,10.909-7.941,16.414
				C73.509,120.698,137.81,120.697,194.866,144.649L194.866,144.649L194.866,144.649z"/>
		</g>
	</g>
	<g>
		<g>
			<path fill="#FFFFFF" d="M52.106,113.077c0.153-0.51,0.31-1.021,0.469-1.529c0.228-0.061,0.455-0.122,0.683-0.181
				c0.597,1.705,1.193,3.411,1.79,5.118c-0.213,0.057-0.43,0.111-0.643,0.169c-0.909-1.369-1.804-2.292-2.679-2.771
				c-1.112-0.61-2.248-0.752-3.38-0.422c-0.87,0.253-1.583,0.702-2.133,1.335c-0.549,0.632-0.867,1.432-0.947,2.394
				c-0.082,0.962,0.139,2.208,0.657,3.745c0.502,1.489,1.075,2.598,1.705,3.329c0.629,0.731,1.311,1.201,2.046,1.415
				c0.733,0.215,1.501,0.199,2.309-0.036c1.096-0.321,1.856-0.847,2.287-1.59c0.432-0.741,0.521-1.567,0.259-2.477
				c-0.119-0.409-0.235-0.817-0.354-1.226c-0.055-0.193-0.182-0.321-0.378-0.382s-0.48-0.038-0.856,0.066
				c-0.404,0.113-0.811,0.228-1.214,0.343c-0.062-0.206-0.125-0.411-0.187-0.616c2.014-0.574,4.031-1.116,6.053-1.62
				c0.056,0.207,0.109,0.412,0.164,0.621c-0.273,0.067-0.547,0.137-0.819,0.206c-0.364,0.093-0.608,0.215-0.731,0.372
				c-0.125,0.156-0.157,0.343-0.096,0.56c0.457,1.665,0.922,3.329,1.387,4.993c-0.207,0.055-0.413,0.109-0.62,0.163
				c-0.446-0.717-0.895-1.397-1.348-2.042c-0.269,0.852-0.671,1.545-1.213,2.087c-0.54,0.542-1.219,0.933-2.036,1.17
				c-1.169,0.342-2.339,0.394-3.526,0.148c-1.187-0.245-2.251-0.771-3.194-1.586c-0.942-0.816-1.646-1.854-2.098-3.124
				c-0.451-1.275-0.552-2.52-0.283-3.734c0.267-1.213,0.848-2.293,1.74-3.231s1.906-1.574,3.025-1.901
				c0.638-0.186,1.273-0.268,1.906-0.246C50.485,112.617,51.238,112.779,52.106,113.077z"/>
			<path fill="#FFFFFF" d="M58.059,115.563c1.1-0.321,2.205-0.636,3.309-0.937c0.264,1.125,0.528,2.253,0.794,3.38
				c0.088-1.189,0.319-2.128,0.692-2.809c0.372-0.681,0.934-1.101,1.676-1.255c0.506-0.105,0.938-0.048,1.297,0.17
				c0.358,0.218,0.584,0.56,0.682,1.026c0.076,0.376,0.037,0.688-0.119,0.938c-0.158,0.249-0.383,0.403-0.685,0.465
				c-0.294,0.06-0.548,0.021-0.769-0.122c-0.219-0.14-0.36-0.364-0.428-0.668c-0.045-0.196-0.031-0.395,0.038-0.588
				c0.064-0.176,0.094-0.278,0.087-0.309c-0.02-0.09-0.09-0.121-0.218-0.095c-0.27,0.057-0.546,0.265-0.824,0.624
				c-0.386,0.5-0.624,1.129-0.719,1.881c-0.141,1.17-0.13,2.076,0.024,2.726c0.141,0.598,0.282,1.193,0.424,1.791
				c0.049,0.2,0.161,0.341,0.338,0.413c0.177,0.071,0.449,0.07,0.815-0.012c0.377-0.082,0.754-0.162,1.131-0.242
				c0.051,0.225,0.101,0.447,0.151,0.671c-1.836,0.389-3.668,0.806-5.499,1.252c-0.057-0.223-0.113-0.444-0.173-0.665
				c0.294-0.071,0.588-0.143,0.881-0.213c0.297-0.07,0.507-0.178,0.632-0.325c0.125-0.145,0.169-0.295,0.13-0.447
				c-0.439-1.771-0.875-3.542-1.307-5.313c-0.099-0.403-0.267-0.676-0.502-0.817c-0.237-0.142-0.532-0.171-0.889-0.086
				c-0.27,0.065-0.54,0.13-0.811,0.196C58.164,115.983,58.111,115.774,58.059,115.563z"/>
			<path fill="#FFFFFF" d="M76.644,116.382c-2.178,0.313-4.354,0.669-6.529,1.063c0.275,1.277,0.706,2.136,1.282,2.579
				c0.66,0.498,1.407,0.674,2.252,0.534c1.242-0.203,2.13-1.027,2.688-2.485c0.224,0.052,0.444,0.108,0.666,0.161
				c-0.681,1.851-1.87,2.903-3.613,3.193c-1.185,0.198-2.259-0.029-3.235-0.693c-0.974-0.666-1.601-1.626-1.854-2.895
				c-0.274-1.362-0.083-2.546,0.592-3.544c0.672-0.995,1.635-1.604,2.867-1.811c0.904-0.15,1.723-0.066,2.447,0.255
				c0.723,0.321,1.311,0.854,1.758,1.595C76.278,114.858,76.504,115.539,76.644,116.382z M69.994,116.807
				c1.319-0.238,2.641-0.465,3.962-0.675c0.234-0.036,0.406-0.139,0.512-0.307c0.107-0.168,0.131-0.43,0.074-0.784
				c-0.106-0.663-0.421-1.191-0.95-1.584c-0.528-0.392-1.105-0.536-1.721-0.434c-0.692,0.116-1.227,0.498-1.603,1.14
				C69.891,114.808,69.8,115.689,69.994,116.807z"/>
			<path fill="#FFFFFF" d="M86.629,115.214c-2.184,0.195-4.366,0.43-6.546,0.703c0.201,1.29,0.579,2.171,1.127,2.646
				c0.627,0.531,1.356,0.75,2.204,0.657c1.248-0.135,2.176-0.908,2.814-2.334c0.216,0.064,0.436,0.132,0.652,0.197
				c-0.783,1.81-2.025,2.795-3.773,2.99c-1.189,0.132-2.244-0.154-3.174-0.872c-0.93-0.714-1.494-1.712-1.676-2.99
				c-0.196-1.376,0.062-2.549,0.787-3.506c0.725-0.957,1.713-1.511,2.947-1.649c0.907-0.101,1.717,0.03,2.418,0.39
				c0.701,0.358,1.255,0.924,1.657,1.688C86.351,113.672,86.536,114.365,86.629,115.214z M79.999,115.273
				c1.323-0.167,2.648-0.318,3.974-0.455c0.236-0.025,0.411-0.116,0.525-0.278c0.115-0.162,0.155-0.425,0.118-0.781
				c-0.068-0.665-0.352-1.213-0.855-1.633c-0.505-0.42-1.066-0.596-1.686-0.526c-0.692,0.076-1.246,0.43-1.655,1.049
				C80.009,113.271,79.872,114.146,79.999,115.273z"/>
			<path fill="#FFFFFF" d="M87.68,110.764c1.033-0.142,2.066-0.275,3.102-0.4c0.162,0.526,0.296,1.147,0.402,1.862
				c0.376-0.648,0.841-1.144,1.393-1.485c0.553-0.342,1.191-0.531,1.912-0.563c0.621-0.027,1.147,0.062,1.576,0.27
				c0.429,0.207,0.777,0.549,1.044,1.022s0.408,1.011,0.427,1.606c0.041,1.391,0.084,2.778,0.127,4.168
				c0.01,0.312,0.089,0.529,0.241,0.656c0.148,0.128,0.398,0.188,0.742,0.179c0.211-0.005,0.423-0.009,0.633-0.014
				c0.005,0.228,0.01,0.456,0.015,0.686c-1.571,0.031-3.143,0.084-4.713,0.158c-0.012-0.229-0.023-0.457-0.033-0.685
				c0.148-0.009,0.301-0.014,0.449-0.021c0.423-0.018,0.713-0.094,0.873-0.229s0.238-0.33,0.228-0.585
				c-0.048-1.223-0.097-2.444-0.144-3.666c-0.031-0.798-0.188-1.383-0.467-1.757c-0.394-0.532-0.971-0.783-1.729-0.746
				c-0.75,0.037-1.361,0.349-1.828,0.933c-0.465,0.581-0.664,1.321-0.607,2.208c0.068,1.056,0.14,2.111,0.209,3.167
				c0.02,0.311,0.111,0.526,0.269,0.647c0.16,0.122,0.41,0.172,0.755,0.152c0.207-0.012,0.416-0.023,0.622-0.035
				c0.014,0.229,0.026,0.457,0.04,0.685c-1.576,0.085-3.153,0.192-4.729,0.321c-0.021-0.228-0.039-0.456-0.058-0.684
				c0.207-0.018,0.414-0.032,0.622-0.05c0.312-0.024,0.545-0.104,0.697-0.236c0.153-0.135,0.223-0.291,0.21-0.474
				c-0.138-1.84-0.276-3.679-0.412-5.519c-0.027-0.364-0.155-0.636-0.384-0.807c-0.231-0.172-0.55-0.245-0.955-0.212
				c-0.16,0.014-0.32,0.025-0.479,0.039C87.715,111.159,87.697,110.962,87.68,110.764z"/>
			<path fill="#FFFFFF" d="M109.625,105.146c-0.143,4.138-0.291,8.274-0.439,12.412c-0.007,0.17,0.043,0.304,0.148,0.398
				c0.154,0.128,0.349,0.196,0.576,0.205c0.316,0.011,0.634,0.026,0.949,0.039c-0.01,0.229-0.021,0.456-0.031,0.686
				c-1.688-0.076-3.378-0.125-5.067-0.151c0.004-0.228,0.009-0.456,0.013-0.686c0.3,0.005,0.6,0.01,0.9,0.017
				c0.293,0.006,0.514-0.057,0.66-0.187c0.148-0.132,0.225-0.317,0.231-0.562c0.094-3.474,0.185-6.948,0.274-10.423
				c0.007-0.305-0.078-0.528-0.26-0.673c-0.246-0.201-0.557-0.308-0.925-0.313c-0.286-0.006-0.573-0.012-0.86-0.015
				c0.004-0.229,0.007-0.458,0.011-0.687C107.077,105.173,108.351,105.152,109.625,105.146z"/>
			<path fill="#FFFFFF" d="M120.721,115.35c-2.183-0.212-4.367-0.385-6.552-0.519c-0.05,1.304,0.149,2.239,0.593,2.805
				c0.509,0.639,1.186,0.986,2.032,1.054c1.249,0.097,2.312-0.49,3.212-1.772c0.201,0.105,0.402,0.209,0.603,0.314
				c-1.118,1.632-2.53,2.371-4.28,2.238c-1.19-0.088-2.166-0.567-2.938-1.441c-0.771-0.877-1.131-1.956-1.062-3.247
				c0.073-1.388,0.546-2.49,1.438-3.297c0.889-0.808,1.961-1.169,3.197-1.076c0.908,0.069,1.676,0.345,2.298,0.829
				c0.621,0.481,1.056,1.14,1.307,1.965C120.745,113.782,120.794,114.499,120.721,115.35z M114.21,114.183
				c1.326,0.08,2.653,0.177,3.979,0.287c0.236,0.02,0.424-0.039,0.568-0.178c0.144-0.136,0.234-0.385,0.266-0.743
				c0.059-0.667-0.115-1.257-0.529-1.762c-0.415-0.505-0.935-0.783-1.553-0.829c-0.692-0.053-1.302,0.191-1.82,0.725
				C114.603,112.217,114.299,113.052,114.21,114.183z"/>
			<path fill="#FFFFFF" d="M131.245,120.006c0.086,0.187,0.172,0.374,0.257,0.562c-0.539,0.376-1.087,0.522-1.651,0.437
				c-0.429-0.065-0.774-0.23-1.034-0.496c-0.26-0.267-0.461-0.695-0.6-1.289c-0.698,0.518-1.283,0.851-1.768,0.992
				s-1.047,0.173-1.687,0.093c-0.913-0.11-1.581-0.376-2.016-0.806c-0.432-0.43-0.62-0.936-0.552-1.524
				c0.097-0.884,0.729-1.562,1.916-2.019c1.183-0.454,2.725-0.66,4.614-0.592c0.062-0.429,0.125-0.856,0.188-1.286
				c0.065-0.459-0.076-0.879-0.435-1.262c-0.356-0.382-0.852-0.611-1.475-0.694c-0.578-0.074-1.09-0.026-1.535,0.14
				c-0.319,0.126-0.488,0.271-0.507,0.428c-0.011,0.092,0.051,0.242,0.186,0.455c0.162,0.264,0.229,0.491,0.206,0.679
				c-0.033,0.271-0.157,0.484-0.369,0.634c-0.211,0.149-0.47,0.209-0.778,0.171c-0.326-0.038-0.586-0.171-0.784-0.402
				c-0.195-0.229-0.276-0.507-0.239-0.828c0.067-0.6,0.498-1.109,1.298-1.52c0.799-0.411,1.808-0.543,3.013-0.384
				c1.115,0.146,1.935,0.486,2.453,1.004c0.52,0.525,0.725,1.104,0.628,1.729c-0.24,1.543-0.48,3.086-0.724,4.629
				c-0.065,0.409-0.042,0.724,0.067,0.937c0.109,0.221,0.274,0.348,0.496,0.381C130.663,120.21,130.939,120.156,131.245,120.006z
				 M128.638,115.961c-1.683-0.021-2.898,0.181-3.646,0.574c-0.557,0.3-0.875,0.786-0.956,1.452
				c-0.059,0.465,0.029,0.846,0.258,1.141c0.229,0.294,0.551,0.467,0.972,0.521c0.749,0.093,1.436-0.093,2.064-0.557
				c0.633-0.464,1.01-1.103,1.129-1.918C128.52,116.77,128.578,116.366,128.638,115.961z"/>
			<path fill="#FFFFFF" d="M133.567,112.65c1.531,0.253,3.062,0.524,4.592,0.814c-0.04,0.203-0.08,0.407-0.119,0.609
				c-0.612-0.103-1.009-0.123-1.194-0.067c-0.186,0.057-0.293,0.164-0.323,0.325c-0.025,0.132-0.016,0.27,0.024,0.415
				c0.504,1.809,0.981,3.615,1.433,5.425c1.054-1.462,2.126-2.914,3.217-4.359c0.05-0.074,0.086-0.155,0.104-0.238
				c0.094-0.434-0.321-0.806-1.247-1.105c0.042-0.203,0.084-0.407,0.126-0.608c1.287,0.258,2.572,0.53,3.857,0.816
				c-0.046,0.201-0.093,0.405-0.139,0.606c-0.398-0.05-0.731-0.022-0.996,0.081c-0.268,0.106-0.49,0.275-0.674,0.51
				c-1.657,2.127-3.273,4.272-4.85,6.438c-0.171-0.034-0.34-0.067-0.512-0.1c-0.662-2.668-1.384-5.333-2.162-7.995
				c-0.085-0.288-0.211-0.501-0.383-0.637c-0.17-0.138-0.457-0.244-0.858-0.316C133.497,113.059,133.532,112.856,133.567,112.65z"/>
			<path fill="#FFFFFF" d="M152.411,121.253c-2.157-0.599-4.317-1.156-6.482-1.675c-0.288,1.275-0.261,2.231,0.081,2.867
				c0.393,0.72,1.005,1.181,1.843,1.397c1.233,0.315,2.409-0.072,3.552-1.175c0.184,0.138,0.366,0.278,0.548,0.419
				c-1.426,1.407-2.981,1.882-4.712,1.441c-1.177-0.297-2.065-0.939-2.676-1.938c-0.61-1-0.771-2.125-0.469-3.385
				c0.324-1.353,0.997-2.355,2.035-2.992c1.034-0.638,2.175-0.804,3.4-0.494c0.898,0.228,1.62,0.64,2.158,1.225
				c0.536,0.586,0.855,1.309,0.959,2.167C152.721,119.715,152.638,120.428,152.411,121.253z M146.087,118.947
				c1.315,0.314,2.628,0.644,3.94,0.988c0.232,0.061,0.433,0.037,0.603-0.073c0.168-0.109,0.306-0.339,0.401-0.685
				c0.182-0.648,0.114-1.257-0.212-1.83c-0.324-0.57-0.796-0.937-1.408-1.092c-0.686-0.174-1.342-0.042-1.958,0.392
				C146.835,117.082,146.384,117.851,146.087,118.947z"/>
			<path fill="#FFFFFF" d="M154.599,122.916c0.083,1.126,0.308,1.958,0.688,2.497c0.381,0.54,0.939,0.922,1.677,1.152
				c0.684,0.213,1.253,0.244,1.716,0.087c0.462-0.157,0.769-0.446,0.917-0.867c0.084-0.244,0.091-0.477,0.019-0.703
				c-0.071-0.228-0.216-0.423-0.426-0.592c-0.212-0.167-0.793-0.501-1.752-0.988c-0.916-0.475-1.535-0.86-1.858-1.168
				c-0.324-0.305-0.542-0.661-0.653-1.062c-0.11-0.401-0.105-0.802,0.015-1.199c0.185-0.603,0.576-1.083,1.18-1.442
				c0.777-0.454,1.696-0.523,2.753-0.199c0.805,0.247,1.477,0.705,2.004,1.369c0.285-0.132,0.572-0.266,0.858-0.397
				c0.135,0.044,0.269,0.087,0.403,0.132c-0.248,0.993-0.5,1.986-0.754,2.98c-0.217-0.071-0.433-0.144-0.648-0.212
				c0-0.914-0.185-1.632-0.553-2.15c-0.368-0.518-0.916-0.889-1.639-1.112c-0.626-0.191-1.158-0.202-1.596-0.036
				c-0.44,0.165-0.719,0.444-0.843,0.837c-0.107,0.343-0.034,0.678,0.219,1.001c0.243,0.329,0.805,0.698,1.685,1.116
				c1.018,0.495,1.666,0.856,1.949,1.069c0.465,0.345,0.781,0.744,0.939,1.2c0.16,0.454,0.145,0.943-0.041,1.462
				c-0.258,0.714-0.78,1.218-1.566,1.514c-0.787,0.3-1.643,0.297-2.579,0.005c-0.868-0.27-1.584-0.782-2.161-1.54
				c-0.307,0.177-0.614,0.354-0.919,0.532c-0.166-0.05-0.332-0.099-0.498-0.146c0.277-1.108,0.551-2.217,0.823-3.325
				C154.171,122.792,154.384,122.854,154.599,122.916z"/>
		</g>
	</g>
</g>
</svg>
