<?xml version="1.0" encoding="utf-8"?>
<!-- Generator: Adobe Illustrator 16.0.0, SVG Export Plug-In . SVG Version: 6.00 Build 0)  -->
<!DOCTYPE svg PUBLIC "-//W3C//DTD SVG 1.1//EN" "http://www.w3.org/Graphics/SVG/1.1/DTD/svg11.dtd">
<svg version="1.1" id="Livello_1" xmlns="http://www.w3.org/2000/svg" xmlns:xlink="http://www.w3.org/1999/xlink" x="0px" y="0px"
	 width="230px" height="200px" viewBox="0 0 230 200" enable-background="new 0 0 230 200" xml:space="preserve">
<g>
	<circle fill="#6AB64D" cx="111.856" cy="94.825" r="82.153"/>
	<g>
		<path fill="#00953E" d="M97.133,22.457c-7.636,1.504-14.855,4.162-21.471,7.787l20.293,42.713h1.809l10.134-27.842L97.133,22.457z
			"/>
		<polygon fill="#00953E" points="107.897,45.115 97.764,72.957 121.125,72.957 		"/>
	</g>
	<path fill="#DAA620" d="M111.874,86.014c-9.469,0-17.142-4.691-17.142-10.48c0-5.791,7.673-10.482,17.142-10.482
		c9.468,0,17.142,4.691,17.142,10.482C129.016,81.322,121.342,86.014,111.874,86.014z M111.874,60.857
		c-13.251,0-23.999,6.572-23.999,14.676s10.748,14.674,23.999,14.674s23.999-6.57,23.999-14.674S125.125,60.857,111.874,60.857z"/>
	<g>
		<path fill="#DAA620" d="M112.441,79.039c-21.521,0-38.974,17.572-38.974,39.238c0,21.668,17.453,39.238,38.974,39.238
			c21.519,0,38.973-17.57,38.973-39.238C151.414,96.611,133.96,79.039,112.441,79.039z M112.441,146.305
			c-15.377,0-27.838-12.547-27.838-28.027S97.064,90.25,112.441,90.25c15.376,0,27.838,12.547,27.838,28.027
			S127.817,146.305,112.441,146.305z"/>
		<g>
			<path fill="#C4941A" d="M112.449,79.188c0,0-0.959,0.046-2.756,0.133c-0.447,0.033-0.955,0.018-1.499,0.1
				s-1.137,0.171-1.778,0.268c-0.639,0.109-1.336,0.174-2.062,0.338c-0.721,0.188-1.486,0.389-2.297,0.601
				c-3.197,0.929-7.064,2.378-10.887,5.059c-3.832,2.615-7.734,6.273-10.794,11.091c-3.037,4.809-5.271,10.696-5.952,17.15
				c-0.114,0.801-0.084,1.623-0.133,2.44c-0.008,0.808-0.117,1.672-0.041,2.446c0.118,1.681,0.117,3.433,0.46,5.061
				c0.417,3.328,1.525,6.682,2.893,9.901c0.386,0.79,0.772,1.584,1.161,2.381c0.388,0.797,0.909,1.524,1.359,2.294l0.7,1.144
				c0.249,0.371,0.534,0.719,0.801,1.08c0.55,0.71,1.065,1.452,1.646,2.143c2.35,2.753,5.114,5.177,8.147,7.256
				c3.085,2.013,6.478,3.559,10.016,4.678c3.57,1.043,7.287,1.506,11.008,1.565c1.772-0.145,3.858-0.13,5.58-0.515l1.349-0.222
				l0.674-0.109l0.671-0.182l2.679-0.721c3.501-1.174,6.84-2.766,9.859-4.811c2.969-2.109,5.649-4.556,7.934-7.293
				c2.196-2.8,4.106-5.78,5.459-8.967c1.332-3.176,2.406-6.438,2.808-9.749c0.333-1.637,0.319-3.293,0.431-4.917l0.031-0.536
				l-0.023-0.631l-0.047-1.257c-0.05-0.823-0.021-1.692-0.134-2.462c-0.107-0.771-0.215-1.538-0.321-2.299
				c-0.06-0.382-0.089-0.762-0.171-1.141l-0.269-1.132c-0.175-0.754-0.348-1.502-0.52-2.244c-0.221-0.729-0.482-1.439-0.717-2.152
				c-0.94-2.856-2.279-5.455-3.697-7.875c-2.953-4.782-6.745-8.462-10.496-11.125c-3.742-2.727-7.562-4.231-10.733-5.208
				c-0.804-0.224-1.564-0.435-2.28-0.634c-0.723-0.174-1.418-0.248-2.055-0.365c-0.641-0.105-1.233-0.203-1.775-0.293
				c-0.543-0.089-1.047-0.08-1.492-0.119c-1.788-0.11-2.742-0.169-2.742-0.169L112.449,79.188z M112.441,78.889
				c0,0,0.963,0.039,2.768,0.111c0.45,0.031,0.959,0.011,1.509,0.089c0.55,0.079,1.15,0.164,1.8,0.257
				c0.646,0.105,1.353,0.167,2.087,0.326c0.731,0.176,1.51,0.363,2.331,0.561c3.248,0.882,7.197,2.24,11.216,4.792
				c4.011,2.518,8.173,6.098,11.58,10.941c3.39,4.857,5.975,10.864,6.857,17.789c0.139,0.86,0.129,1.662,0.2,2.504l0.08,1.255
				l0.039,0.631c0-0.041,0.008,0.144,0.005,0.155l-0.004,0.082l-0.007,0.164l-0.016,0.328c-0.101,1.752-0.083,3.538-0.422,5.31
				c-0.414,3.579-1.537,7.121-2.96,10.571c-0.408,0.842-0.817,1.687-1.229,2.535c-0.412,0.848-0.96,1.625-1.438,2.444l-0.744,1.217
				c-0.265,0.395-0.566,0.767-0.848,1.152c-0.582,0.757-1.131,1.546-1.747,2.282c-2.487,2.938-5.44,5.51-8.672,7.717
				c-3.286,2.139-6.899,3.782-10.671,4.964l-2.879,0.719l-0.72,0.179l-0.745,0.109l-1.493,0.216
				c-0.996,0.146-1.998,0.307-2.942,0.306l-2.937,0.121c-3.955-0.116-7.894-0.671-11.66-1.832
				c-3.734-1.237-7.294-2.928-10.515-5.098c-3.168-2.237-6.036-4.831-8.457-7.756c-0.6-0.733-1.131-1.519-1.694-2.271
				c-0.273-0.384-0.565-0.753-0.821-1.146l-0.719-1.208c-0.46-0.812-0.99-1.583-1.386-2.423c-0.394-0.839-0.787-1.675-1.178-2.508
				c-1.387-3.406-2.476-6.856-2.874-10.419c-0.331-1.78-0.298-3.471-0.394-5.166c-0.007-0.229-0.023-0.384-0.021-0.672l0.039-0.643
				l0.079-1.278c0.072-0.848,0.064-1.696,0.201-2.525c0.869-6.665,3.318-12.679,6.601-17.481c3.303-4.809,7.354-8.41,11.283-10.975
				c3.938-2.598,7.841-4.012,11.062-4.94c0.816-0.209,1.589-0.407,2.315-0.594c0.73-0.17,1.435-0.24,2.079-0.354
				c0.648-0.102,1.248-0.195,1.797-0.281c0.549-0.085,1.053-0.072,1.502-0.108c1.796-0.098,2.754-0.148,2.754-0.148L112.441,78.889z
				"/>
			<path fill="#C4941A" d="M112.434,146.454c0,0-0.684-0.037-1.967-0.107c-0.321-0.027-0.68-0.018-1.073-0.079
				s-0.822-0.13-1.286-0.202c-0.461-0.082-0.966-0.134-1.488-0.255c-0.52-0.133-1.072-0.274-1.656-0.424
				c-2.304-0.662-5.098-1.667-7.928-3.511c-2.82-1.824-5.735-4.389-8.129-7.822c-2.379-3.431-4.158-7.745-4.805-12.536
				c-0.102-0.596-0.1-1.206-0.153-1.815c-0.021-0.623-0.127-1.199-0.077-1.873c0.064-1.213,0.036-2.412,0.271-3.705
				c0.281-2.578,1.057-5.057,2.049-7.518c1.025-2.449,2.479-4.744,4.159-6.899c1.74-2.113,3.804-3.991,6.086-5.61
				c2.319-1.573,4.887-2.801,7.583-3.701c2.718-0.847,5.563-1.254,8.422-1.346c1.507,0.082,2.73,0.024,4.242,0.292
				c1.473,0.147,2.846,0.528,4.235,0.871c2.732,0.845,5.354,2.026,7.739,3.567c2.346,1.59,4.494,3.444,6.3,5.573
				c1.749,2.164,3.277,4.483,4.367,6.975c1.028,2.503,1.838,5.073,2.135,7.669c0.243,1.284,0.229,2.578,0.301,3.848l0.011,0.238
				l0.005,0.119l0.002,0.06l-0.004,0.133l-0.03,0.45l-0.062,0.896c-0.055,0.604-0.05,1.168-0.152,1.796
				c-0.661,5.05-2.576,9.357-5.063,12.842c-2.498,3.469-5.524,6.013-8.427,7.79c-2.909,1.797-5.75,2.746-8.081,3.361
				c-0.59,0.138-1.147,0.268-1.672,0.39c-0.527,0.112-1.033,0.154-1.496,0.228c-0.465,0.064-0.895,0.124-1.289,0.178
				c-0.394,0.055-0.758,0.039-1.08,0.06c-1.291,0.046-1.98,0.071-1.98,0.071L112.434,146.454z M112.441,146.154
				c0,0,0.68-0.044,1.955-0.129c0.318-0.029,0.676-0.024,1.063-0.089c0.387-0.065,0.809-0.137,1.265-0.215
				c0.454-0.085,0.949-0.141,1.463-0.266c0.51-0.146,1.051-0.301,1.622-0.464c2.254-0.71,4.965-1.806,7.599-3.777
				c2.643-1.923,5.299-4.565,7.343-7.974c0.982-1.723,1.897-3.571,2.544-5.59c0.161-0.504,0.341-1.006,0.491-1.521
				c0.116-0.524,0.233-1.053,0.351-1.585c0.297-1.064,0.338-2.124,0.515-3.201c0.075-0.537,0.054-1.167,0.085-1.752l0.029-0.898
				l0.014-0.451c0.002-0.086,0,0.054-0.001,0.02l-0.003-0.053l-0.006-0.107l-0.013-0.214c-0.082-1.142-0.071-2.307-0.309-3.457
				c-0.285-2.327-1.045-4.617-1.983-6.847c-0.945-2.24-2.281-4.338-3.82-6.311c-1.603-1.927-3.479-3.656-5.562-5.148
				c-2.118-1.447-4.464-2.576-6.927-3.414c-1.255-0.34-2.514-0.727-3.771-0.881c-1.183-0.277-2.717-0.273-3.943-0.381
				c-2.624,0.035-5.248,0.352-7.771,1.079c-2.499,0.782-4.898,1.865-7.083,3.28c-2.147,1.463-4.108,3.17-5.776,5.111
				c-1.607,1.982-3.019,4.104-4.028,6.386c-0.974,2.272-1.768,4.655-2.068,6.999c-0.246,1.141-0.25,2.4-0.338,3.6
				c-0.055,0.533,0.02,1.156,0.021,1.727c0.032,0.58,0.007,1.162,0.085,1.731c0.46,4.579,2.023,8.768,4.157,12.204
				c2.15,3.442,4.917,6.063,7.641,7.938c2.715,1.927,5.472,2.967,7.752,3.63c0.578,0.151,1.124,0.294,1.639,0.429
				c0.518,0.116,1.015,0.162,1.471,0.239c0.457,0.068,0.88,0.132,1.268,0.189s0.751,0.046,1.07,0.07
				c1.284,0.06,1.969,0.092,1.969,0.092L112.441,146.154z"/>
		</g>
	</g>
	<g>
		<circle fill="#C4941A" cx="112.441" cy="117.998" r="30.438"/>
		<path fill="#987314" d="M143.028,118.006c0,0-0.031,0.746-0.092,2.145c-0.024,0.351-0.012,0.741-0.07,1.171
			c-0.062,0.429-0.131,0.897-0.203,1.404c-0.086,0.505-0.129,1.058-0.239,1.634c-0.131,0.571-0.271,1.179-0.418,1.821
			c-0.075,0.321-0.153,0.651-0.232,0.989c-0.11,0.329-0.224,0.667-0.341,1.012c-0.238,0.688-0.422,1.439-0.736,2.172
			c-0.318,0.735-0.648,1.5-0.992,2.293c-0.392,0.77-0.834,1.552-1.274,2.373c-1.901,3.182-4.622,6.55-8.419,9.273
			c-3.785,2.709-8.646,4.66-13.978,5.239c-0.663,0.091-1.341,0.064-2.017,0.102l-1.019,0.031l-0.512,0.016l-0.126-0.001
			l-0.062-0.005l-0.123-0.009l-0.246-0.017c-1.32-0.122-2.616-0.159-4.045-0.479c-2.826-0.438-5.488-1.411-8.102-2.623
			c-2.606-1.233-4.981-2.953-7.233-4.821c-2.196-1.95-4.152-4.189-5.846-6.648c-1.65-2.491-2.946-5.229-3.928-8.097
			c-0.95-2.903-1.438-5.878-1.594-9.027c-0.038-2.921,0.264-6.144,1.056-9.108c0.878-2.957,2.11-5.811,3.749-8.41
			c1.688-2.562,3.699-4.887,5.98-6.867c2.325-1.918,4.822-3.603,7.516-4.807c2.687-1.188,5.48-2.084,8.301-2.431
			c1.396-0.273,2.805-0.274,4.188-0.354l0.26-0.01l0.129-0.005l0.064-0.003l0.144,0.005l0.491,0.029l0.977,0.06
			c0.659,0.056,1.271,0.044,1.958,0.154c1.354,0.24,2.746,0.363,3.985,0.758c0.632,0.17,1.26,0.338,1.882,0.506
			c0.61,0.208,1.2,0.459,1.791,0.684c1.2,0.415,2.285,1.034,3.375,1.578c0.556,0.253,1.046,0.611,1.548,0.936
			c0.498,0.327,0.99,0.652,1.479,0.974c3.788,2.753,6.504,6.129,8.4,9.318c1.927,3.201,2.909,6.31,3.571,8.851
			c0.146,0.643,0.285,1.251,0.416,1.823c0.108,0.575,0.151,1.126,0.234,1.63c0.072,0.506,0.139,0.974,0.199,1.402
			c0.058,0.429,0.044,0.824,0.067,1.176c0.057,1.406,0.086,2.156,0.086,2.156V118.006z M142.729,117.998
			c0,0-0.046-0.742-0.131-2.133c-0.03-0.346-0.024-0.737-0.092-1.159c-0.068-0.423-0.144-0.883-0.226-1.381
			c-0.086-0.497-0.154-1.036-0.296-1.596c-0.158-0.555-0.328-1.145-0.507-1.769c-0.761-2.462-1.997-5.404-4.147-8.264
			c-2.104-2.874-5.013-5.709-8.684-7.956c-1.869-1.06-3.839-2.12-6.027-2.838c-0.544-0.185-1.092-0.37-1.645-0.558
			c-0.567-0.139-1.139-0.277-1.714-0.419c-1.153-0.345-2.307-0.396-3.479-0.6c-0.582-0.091-1.271-0.069-1.907-0.11l-0.979-0.039
			l-0.491-0.02c-0.092-0.002,0.058-0.001,0.021,0.001l-0.059,0.004l-0.116,0.008l-0.233,0.015c-1.245,0.086-2.516,0.063-3.771,0.315
			c-2.543,0.298-5.043,1.12-7.503,2.101c-2.459,1.022-4.755,2.495-6.919,4.182c-2.129,1.742-3.988,3.837-5.638,6.115
			c-1.606,2.315-2.857,4.892-3.799,7.598c-0.915,2.749-1.388,5.488-1.565,8.541c-0.016,2.824,0.268,5.811,1.024,8.621
			c0.839,2.796,2.022,5.489,3.618,7.913c0.395,0.606,0.85,1.171,1.281,1.748c0.223,0.283,0.425,0.583,0.664,0.852l0.73,0.791
			c0.502,0.513,0.938,1.087,1.489,1.544l1.608,1.399c2.236,1.735,4.654,3.174,7.199,4.166c2.533,0.958,5.167,1.703,7.702,1.909
			c1.225,0.207,2.606,0.148,3.914,0.192l0.247,0.008l0.123,0.004l0.062,0.001c0.035,0.002-0.079-0.004-0.003-0.004l0.471-0.033
			l0.937-0.067c0.62-0.06,1.243-0.053,1.849-0.162c4.879-0.64,9.272-2.364,12.947-4.605c3.664-2.275,6.568-5.117,8.668-7.999
			c2.148-2.864,3.387-5.809,4.144-8.274c0.179-0.624,0.347-1.214,0.505-1.77c0.141-0.56,0.208-1.097,0.292-1.593
			c0.08-0.497,0.154-0.957,0.222-1.378c0.065-0.422,0.059-0.817,0.088-1.166c0.081-1.397,0.125-2.144,0.125-2.144V117.998z"/>
	</g>
	<path fill="#58B259" d="M116.604,21.193l-8.706,23.922L97.764,72.957l-0.213,0.584h25.169l17.135-47.076
		C132.597,23.539,124.777,21.713,116.604,21.193z"/>
	<circle fill="none" stroke="#DAA620" stroke-width="5" stroke-miterlimit="10" cx="111.856" cy="94.826" r="75.216"/>
	<g id="Livello_10_38_">
		<g>
			<path fill="#816214" d="M103.731,110.012c-5.628,5.994-3.366,12.54-2.442,14.933c5.721-13.231,18.956-16.387,18.956-16.387
				s-16.69,11.828-18.411,26.625c-0.134,1.168,2.695,1.84,2.901,0.445c0.632-4.158,2.181-7.578,2.181-7.578
				c3.805,0.363,10.174,0.25,13.515-4.006c4.436-5.657,1.319-14.554,8.058-21.206C130.058,101.286,111.358,101.894,103.731,110.012z
				"/>
		</g>
	</g>
	<g>
		<g>
			<path fill="#00953E" stroke="#DAA620" stroke-width="4" stroke-miterlimit="10" d="M216.7,151.793
				c-6.562-1.267-12.94-2.861-19.115-4.75c2.963-6.088,5.604-12.242,7.921-18.431c-52.149,29.121-114.772,31.745-168.899,7.72
				c-4.867-2.171-9.666-4.558-14.381-7.16c2.587,6.365,5.521,12.695,8.804,18.955c-5.812,1.755-11.8,3.237-17.947,4.422
				C76.559,187.048,153.37,186.81,216.7,151.793L216.7,151.793L216.7,151.793z"/>
		</g>
	</g>
	<g>
		<g>
			<path fill="#DAA620" d="M72.487,153.326c0.398-0.391,0.797-0.78,1.192-1.17c0.233,0.061,0.471,0.124,0.705,0.184
				c-0.297,1.903-0.589,3.805-0.873,5.708c-0.232-0.059-0.471-0.123-0.704-0.184c-0.177-1.753-0.539-3.085-1.081-4.001
				c-0.699-1.166-1.627-1.915-2.805-2.262c-0.904-0.267-1.768-0.28-2.605-0.049c-0.844,0.234-1.58,0.74-2.222,1.525
				s-1.201,1.999-1.663,3.646c-0.455,1.599-0.604,2.913-0.453,3.944c0.154,1.034,0.53,1.879,1.132,2.53
				c0.595,0.649,1.388,1.124,2.353,1.412c1.311,0.391,2.4,0.369,3.258-0.049c0.862-0.42,1.4-1.122,1.623-2.104
				c0.102-0.438,0.205-0.877,0.307-1.316c0.045-0.208-0.012-0.394-0.168-0.56c-0.165-0.165-0.452-0.305-0.877-0.425
				c-0.456-0.128-0.913-0.257-1.371-0.389c0.054-0.222,0.11-0.441,0.164-0.66c2.258,0.648,4.518,1.255,6.79,1.813
				c-0.05,0.223-0.095,0.444-0.141,0.668c-0.312-0.075-0.612-0.154-0.925-0.231c-0.408-0.104-0.727-0.118-0.921-0.039
				c-0.204,0.078-0.329,0.234-0.384,0.47c-0.394,1.79-0.787,3.581-1.177,5.372c-0.251-0.064-0.495-0.131-0.747-0.195
				c-0.084-0.909-0.184-1.785-0.307-2.628c-0.736,0.625-1.539,1.028-2.408,1.195c-0.875,0.169-1.799,0.108-2.787-0.185
				c-1.408-0.418-2.629-1.122-3.658-2.104c-1.028-0.982-1.727-2.135-2.092-3.445c-0.368-1.312-0.338-2.652,0.068-4.011
				c0.405-1.368,1.112-2.48,2.087-3.343c0.978-0.862,2.121-1.431,3.429-1.714c1.311-0.284,2.529-0.256,3.683,0.085
				c0.653,0.193,1.255,0.476,1.806,0.843C71.266,152.03,71.851,152.585,72.487,153.326z"/>
			<path fill="#DAA620" d="M81.902,159.562c1.371,0.287,2.446,0.949,3.243,2.004c0.8,1.057,1.097,2.3,0.88,3.736
				c-0.148,0.992-0.494,1.801-1.034,2.421c-0.541,0.616-1.245,1.053-2.12,1.299c-0.879,0.248-1.779,0.272-2.716,0.076
				c-1.384-0.292-2.472-0.998-3.256-2.098c-0.782-1.102-1.024-2.358-0.739-3.757c0.288-1.408,0.986-2.438,2.082-3.104
				C79.345,159.469,80.552,159.28,81.902,159.562z M81.779,160.245c-0.816-0.171-1.539,0.01-2.189,0.541s-1.111,1.495-1.379,2.896
				c-0.274,1.425-0.205,2.526,0.212,3.304c0.415,0.779,1.054,1.262,1.909,1.441c0.89,0.187,1.664,0.004,2.316-0.552
				c0.66-0.556,1.1-1.585,1.346-3.091c0.228-1.395,0.126-2.456-0.293-3.182C83.281,160.876,82.645,160.426,81.779,160.245z"/>
			<path fill="#DAA620" d="M92.766,156.228c-0.565,4.398-1.121,8.8-1.665,13.199c-0.029,0.182,0.026,0.332,0.142,0.447
				c0.176,0.16,0.396,0.256,0.67,0.298c0.377,0.054,0.756,0.107,1.13,0.16c-0.03,0.243-0.056,0.489-0.084,0.729
				c-2.027-0.281-4.045-0.598-6.067-0.948c0.033-0.239,0.07-0.483,0.104-0.727c0.356,0.062,0.712,0.124,1.07,0.184
				c0.349,0.058,0.622,0.029,0.808-0.085c0.19-0.115,0.3-0.303,0.336-0.562c0.489-3.686,0.993-7.373,1.495-11.061
				c0.045-0.325-0.021-0.574-0.191-0.755c-0.236-0.251-0.545-0.404-0.93-0.47c-0.301-0.05-0.599-0.101-0.897-0.151
				c0.035-0.243,0.071-0.485,0.108-0.727C90.119,155.932,91.441,156.088,92.766,156.228z"/>
			<path fill="#DAA620" d="M101.521,157.463c1.309,0.069,2.613,0.123,3.925,0.164c-0.263,4.194-0.525,8.387-0.777,12.58
				c-0.031,0.49,0.057,0.85,0.262,1.074c0.203,0.226,0.527,0.354,0.959,0.384c0.246,0.017,0.494,0.033,0.743,0.05
				c-0.014,0.244-0.022,0.49-0.037,0.736c-1.226-0.077-2.45-0.171-3.671-0.273c-0.048-0.632-0.099-1.265-0.145-1.896
				c-0.48,0.629-1.025,1.084-1.635,1.367c-0.609,0.282-1.276,0.386-2.005,0.308c-1.226-0.128-2.226-0.686-2.992-1.663
				c-0.763-0.975-1.067-2.183-0.913-3.612c0.164-1.55,0.833-2.711,1.982-3.51c0.901-0.626,1.884-0.881,2.957-0.771
				c0.658,0.066,1.234,0.273,1.734,0.614c0.506,0.342,0.925,0.825,1.276,1.454c0.124-1.729,0.24-3.458,0.367-5.187
				c0.017-0.272-0.083-0.502-0.301-0.682c-0.222-0.18-0.577-0.292-1.072-0.337c-0.239-0.021-0.48-0.044-0.72-0.067
				C101.479,157.952,101.5,157.708,101.521,157.463z M100.4,163.243c-0.793-0.079-1.443,0.142-1.967,0.67
				c-0.521,0.526-0.854,1.477-0.986,2.851c-0.144,1.491,0.004,2.568,0.438,3.234c0.436,0.665,1.046,1.038,1.822,1.119
				c0.829,0.085,1.568-0.189,2.205-0.818c0.639-0.629,0.996-1.603,1.091-2.918c0.088-1.24-0.153-2.244-0.713-3.011
				C101.805,163.695,101.179,163.319,100.4,163.243z"/>
			<path fill="#DAA620" d="M115.064,163.567c0.981-0.037,1.968-0.085,2.949-0.14c0.16,0.687,0.273,1.341,0.324,1.962
				c0.562-0.723,1.116-1.231,1.673-1.531c0.554-0.298,1.165-0.456,1.835-0.469c0.713-0.016,1.3,0.134,1.774,0.454
				c0.471,0.319,0.848,0.852,1.122,1.595c0.473-0.732,1.002-1.289,1.588-1.669c0.59-0.382,1.229-0.593,1.941-0.632
				c0.933-0.053,1.653,0.146,2.15,0.614c0.64,0.614,0.999,1.439,1.066,2.478c0.097,1.528,0.198,3.056,0.293,4.583
				c0.019,0.274,0.109,0.456,0.276,0.544c0.223,0.134,0.541,0.188,0.963,0.154c0.178-0.015,0.355-0.029,0.537-0.044
				c0.019,0.246,0.035,0.491,0.052,0.738c-1.797,0.149-3.599,0.272-5.403,0.367c-0.017-0.246-0.021-0.494-0.035-0.739
				c0.177-0.011,0.363-0.019,0.538-0.029c0.455-0.027,0.778-0.111,0.951-0.254c0.178-0.144,0.252-0.346,0.24-0.609
				c-0.082-1.528-0.172-3.061-0.253-4.591c-0.038-0.685-0.259-1.203-0.653-1.555c-0.396-0.351-0.893-0.51-1.504-0.479
				c-0.461,0.023-0.877,0.154-1.244,0.392c-0.369,0.237-0.645,0.565-0.85,0.982c-0.293,0.598-0.441,1.101-0.427,1.509
				c0.046,1.328,0.09,2.654,0.132,3.979c0.006,0.271,0.101,0.466,0.271,0.589c0.174,0.122,0.437,0.178,0.786,0.162
				c0.243-0.009,0.486-0.021,0.731-0.032c0.013,0.246,0.017,0.494,0.03,0.738c-1.83,0.084-3.659,0.143-5.489,0.172
				c-0.003-0.246-0.008-0.493-0.011-0.739c0.207-0.003,0.41-0.007,0.617-0.012c0.392-0.008,0.673-0.08,0.867-0.216
				c0.188-0.137,0.277-0.307,0.273-0.512c-0.037-1.419-0.064-2.84-0.104-4.26c-0.021-0.9-0.22-1.55-0.586-1.948
				c-0.366-0.4-0.851-0.593-1.456-0.583c-0.779,0.014-1.377,0.255-1.797,0.729c-0.594,0.674-0.894,1.456-0.893,2.349
				c0.006,1.229,0.005,2.459,0.009,3.688c-0.005,0.283,0.077,0.479,0.218,0.582c0.203,0.137,0.532,0.205,0.962,0.204
				c0.185-0.002,0.369-0.003,0.551-0.005c0,0.246,0.006,0.492,0.007,0.739c-1.811,0.017-3.617,0.007-5.421-0.031
				c0.001-0.245,0.005-0.493,0.011-0.739c0.271,0.007,0.539,0.011,0.812,0.016c0.304,0.004,0.542-0.059,0.707-0.188
				c0.159-0.129,0.243-0.297,0.249-0.5c0.012-2.017,0.024-4.033,0.039-6.05c0.002-0.335-0.095-0.586-0.282-0.754
				c-0.193-0.165-0.57-0.274-1.146-0.33C115.056,164.022,115.062,163.792,115.064,163.567z"/>
			<path fill="#DAA620" d="M144.676,166.341c-2.506,0.366-5.006,0.686-7.52,0.949c0.16,1.398,0.555,2.358,1.178,2.873
				c0.714,0.577,1.578,0.808,2.594,0.683c1.488-0.184,2.609-1.079,3.324-2.666c0.258,0.057,0.513,0.112,0.77,0.169
				c-0.862,2.018-2.373,3.175-4.483,3.432c-1.44,0.173-2.693-0.145-3.747-0.938c-1.055-0.794-1.628-1.895-1.74-3.285
				c-0.12-1.498,0.253-2.749,1.104-3.766c0.848-1.016,1.941-1.6,3.29-1.764c0.991-0.12,1.877-0.005,2.651,0.355
				c0.777,0.358,1.402,0.938,1.882,1.74C144.311,164.688,144.549,165.428,144.676,166.341z M137.094,166.591
				c1.51-0.161,3.021-0.339,4.537-0.536c0.271-0.034,0.467-0.142,0.598-0.322c0.129-0.181,0.175-0.467,0.126-0.851
				c-0.088-0.721-0.404-1.298-0.969-1.735c-0.56-0.437-1.175-0.614-1.858-0.531c-0.764,0.094-1.375,0.47-1.852,1.14
				C137.203,164.422,137.006,165.368,137.094,166.591z"/>
			<path fill="#DAA620" d="M150.583,155.141c1.28-0.306,2.57-0.624,3.848-0.957c0.784,4.154,1.56,8.311,2.319,12.466
				c0.086,0.484,0.261,0.809,0.512,0.972c0.253,0.162,0.594,0.195,1.025,0.101c0.246-0.057,0.49-0.109,0.736-0.167
				c0.044,0.243,0.091,0.486,0.139,0.729c-1.212,0.273-2.424,0.534-3.639,0.783c-0.199-0.602-0.396-1.202-0.594-1.806
				c-0.316,0.748-0.738,1.35-1.259,1.797c-0.523,0.447-1.151,0.739-1.874,0.872c-1.213,0.224-2.319-0.035-3.295-0.768
				c-0.975-0.734-1.553-1.822-1.75-3.261c-0.211-1.555,0.152-2.878,1.067-3.981c0.72-0.862,1.604-1.392,2.676-1.59
				c0.649-0.121,1.261-0.089,1.832,0.103c0.571,0.189,1.099,0.542,1.591,1.053c-0.302-1.718-0.604-3.436-0.914-5.153
				c-0.048-0.271-0.2-0.464-0.463-0.575c-0.256-0.114-0.629-0.119-1.121-0.023c-0.24,0.047-0.478,0.094-0.714,0.139
				C150.664,155.627,150.624,155.385,150.583,155.141z M150.92,161.086c-0.791,0.148-1.364,0.548-1.743,1.211
				c-0.376,0.663-0.469,1.681-0.263,3.057c0.221,1.493,0.613,2.503,1.198,3.026c0.584,0.523,1.262,0.715,2.036,0.571
				c0.823-0.154,1.473-0.633,1.944-1.426c0.464-0.796,0.587-1.846,0.357-3.152c-0.22-1.233-0.693-2.142-1.424-2.728
				C152.395,161.124,151.69,160.94,150.92,161.086z"/>
			<path fill="#DAA620" d="M171.243,164.074c0.178,0.138,0.362,0.277,0.542,0.415c-0.418,0.643-0.975,1.062-1.643,1.256
				c-0.518,0.149-0.969,0.151-1.381,0.015c-0.406-0.139-0.812-0.472-1.215-0.995c-0.557,0.838-1.088,1.437-1.584,1.796
				c-0.494,0.356-1.125,0.638-1.888,0.831c-1.09,0.275-1.959,0.277-2.607,0.012c-0.646-0.266-1.028-0.713-1.157-1.341
				c-0.188-0.943,0.293-1.874,1.432-2.809c1.137-0.938,2.727-1.774,4.766-2.558c-0.111-0.454-0.221-0.91-0.328-1.365
				c-0.119-0.487-0.438-0.844-0.961-1.07c-0.524-0.224-1.122-0.247-1.803-0.068c-0.627,0.165-1.145,0.419-1.551,0.768
				c-0.287,0.256-0.416,0.468-0.378,0.636c0.019,0.095,0.14,0.227,0.36,0.388c0.269,0.205,0.425,0.408,0.467,0.607
				c0.065,0.289,0.011,0.552-0.164,0.789c-0.174,0.238-0.436,0.398-0.777,0.485c-0.365,0.091-0.699,0.056-0.99-0.106
				c-0.293-0.16-0.471-0.41-0.543-0.754c-0.135-0.639,0.154-1.32,0.851-2.047c0.694-0.729,1.693-1.256,2.993-1.604
				c1.198-0.321,2.169-0.343,2.92-0.062c0.75,0.287,1.21,0.762,1.375,1.426c0.408,1.638,0.816,3.276,1.22,4.913
				c0.111,0.436,0.265,0.731,0.484,0.891c0.216,0.163,0.456,0.208,0.718,0.13C170.691,164.565,170.975,164.374,171.243,164.074z
				 M166.659,161.33c-1.812,0.742-3.062,1.447-3.737,2.155c-0.506,0.533-0.676,1.154-0.529,1.863
				c0.104,0.497,0.337,0.849,0.708,1.051c0.366,0.205,0.803,0.242,1.298,0.115c0.887-0.228,1.597-0.721,2.108-1.47
				c0.521-0.75,0.663-1.56,0.459-2.426C166.866,162.19,166.764,161.761,166.659,161.33z"/>
			<path fill="#DAA620" d="M173.016,149.072c1.271,4.298,2.521,8.597,3.758,12.896c0.051,0.178,0.153,0.291,0.306,0.347
				c0.219,0.065,0.468,0.051,0.735-0.038c0.365-0.125,0.735-0.252,1.105-0.377c0.072,0.237,0.139,0.474,0.211,0.711
				c-1.982,0.68-3.968,1.33-5.96,1.941c-0.06-0.238-0.131-0.479-0.188-0.716c0.352-0.107,0.702-0.217,1.052-0.328
				c0.343-0.106,0.582-0.259,0.712-0.452c0.128-0.195,0.158-0.417,0.087-0.671c-0.999-3.62-2.014-7.238-3.04-10.856
				c-0.094-0.317-0.252-0.52-0.481-0.605c-0.316-0.12-0.664-0.12-1.04-0.002c-0.291,0.094-0.588,0.186-0.88,0.275
				c-0.067-0.237-0.131-0.478-0.195-0.716C170.469,150.027,171.75,149.557,173.016,149.072z"/>
		</g>
	</g>
</g>
</svg>
