<?xml version="1.0" encoding="utf-8"?>
<!-- Generator: Adobe Illustrator 16.0.4, SVG Export Plug-In . SVG Version: 6.00 Build 0)  -->
<!DOCTYPE svg PUBLIC "-//W3C//DTD SVG 1.1//EN" "http://www.w3.org/Graphics/SVG/1.1/DTD/svg11.dtd">
<svg version="1.1" id="Livello_1" xmlns="http://www.w3.org/2000/svg" xmlns:xlink="http://www.w3.org/1999/xlink" x="0px" y="0px"
	 width="210px" height="200px" viewBox="0 0 210 200" enable-background="new 0 0 210 200" xml:space="preserve">
<g>
	<g>
		<circle fill="#27A94A" cx="105" cy="100" r="84"/>
		<circle fill="#00953E" stroke="#FFFFFF" stroke-width="5" stroke-miterlimit="10" cx="105" cy="100" r="75.216"/>
		<g id="Livello_10_30_">
			<g>
				<path fill="#6AB64D" stroke="#FFFFFF" stroke-width="4" stroke-miterlimit="10" d="M73.273,72.206
					c-16.871,17.962-10.092,37.589-7.324,44.763c17.148-39.662,56.822-49.123,56.822-49.123s-50.029,35.45-55.184,79.809
					c-0.406,3.502,8.074,5.517,8.693,1.332c1.895-12.461,6.539-22.711,6.539-22.711c11.402,1.087,30.49,0.75,40.504-12.011
					c13.299-16.955,3.959-43.622,24.15-63.561C152.189,46.051,96.133,47.869,73.273,72.206z"/>
			</g>
		</g>
	</g>
	<g>
		<g>
			<path fill="#47AE54" stroke="#FFFFFF" stroke-width="2" stroke-miterlimit="10" d="M194.768,148.899
				c-2.533-5.82-5.349-11.609-8.445-17.347c6.004-2.538,12.218-4.851,18.63-6.915C140.979,97.782,68.834,97.951,4.965,125.146
				c0.04,0.094,0.08,0.188,0.12,0.282c6.617,2.096,13.025,4.457,19.212,7.059c-2.899,5.431-5.547,10.909-7.942,16.413
				C73.41,124.948,137.71,124.947,194.768,148.899L194.768,148.899L194.768,148.899z"/>
		</g>
	</g>
	<g>
		<g>
			<path fill="#FFFFFF" d="M47.593,115.317c0.385-0.104,0.769-0.205,1.153-0.306c0.912,3.342,1.842,6.683,2.789,10.021
				c0.783-0.207,1.567-0.409,2.351-0.606c0.104,0.381,0.206,0.762,0.311,1.144c-0.779,0.196-1.56,0.397-2.336,0.603
				c0.167,0.587,0.335,1.175,0.503,1.763c0.081,0.282,0.232,0.472,0.453,0.565c0.222,0.095,0.523,0.092,0.907-0.008
				c0.203-0.052,0.407-0.104,0.611-0.156c0.089,0.322,0.177,0.644,0.268,0.966c-2.378,0.606-4.753,1.258-7.124,1.954
				c-0.103-0.319-0.205-0.637-0.309-0.955c0.392-0.115,0.781-0.228,1.173-0.341c0.459-0.131,0.745-0.299,0.857-0.503
				c0.153-0.259,0.168-0.595,0.041-1.008c-0.146-0.481-0.293-0.963-0.439-1.445c-1.998,0.561-3.994,1.151-5.987,1.772
				c-0.158-0.461-0.313-0.92-0.47-1.382C43.928,123.355,45.682,119.327,47.593,115.317z M46.693,119.961
				c-1.091,2.438-2.122,4.882-3.091,7.33c1.618-0.493,3.236-0.968,4.856-1.421C47.862,123.9,47.275,121.931,46.693,119.961z"/>
			<path fill="#FFFFFF" d="M59.847,112.331c1.061-0.224,2.076-0.148,3.043,0.222c0.967,0.369,1.854,1.113,2.657,2.228
				c0.805,1.116,1.353,2.487,1.661,4.105c0.312,1.636,0.31,3.1,0.009,4.394c-0.301,1.298-0.809,2.295-1.527,3.001
				c-0.72,0.703-1.57,1.156-2.563,1.367c-1.489,0.313-2.854-0.008-4.123-0.976c-1.584-1.198-2.699-2.954-3.295-5.3
				c-0.42-1.654-0.502-3.144-0.237-4.466c0.266-1.321,0.78-2.358,1.541-3.103C57.773,113.061,58.722,112.566,59.847,112.331z
				 M63.655,119.97c-0.645-3.072-1.294-5.044-1.97-5.911c-0.489-0.63-1.051-0.884-1.674-0.752c-0.748,0.156-1.192,0.777-1.319,1.856
				c-0.129,1.077,0.136,3.044,0.804,5.901c0.559,2.39,1.203,4.024,1.913,4.915c0.443,0.548,0.94,0.765,1.492,0.648
				c0.358-0.076,0.654-0.284,0.889-0.625c0.233-0.342,0.344-0.986,0.333-1.936C64.112,122.78,63.959,121.416,63.655,119.97z"/>
			<path fill="#FFFFFF" d="M74.465,109.771c1.062-0.149,2.062-0.008,2.991,0.428c0.93,0.433,1.757,1.236,2.475,2.403
				c0.719,1.167,1.167,2.572,1.359,4.208c0.193,1.651,0.089,3.11-0.3,4.383c-0.391,1.274-0.965,2.232-1.727,2.888
				c-0.76,0.653-1.636,1.047-2.631,1.188c-1.495,0.212-2.819-0.203-4.003-1.254c-1.479-1.303-2.452-3.131-2.873-5.51
				c-0.299-1.678-0.278-3.171,0.075-4.47c0.354-1.3,0.933-2.298,1.733-2.988S73.337,109.93,74.465,109.771z M77.7,117.649
				c-0.423-3.109-0.929-5.121-1.536-6.03c-0.441-0.663-0.979-0.952-1.603-0.864c-0.749,0.105-1.229,0.693-1.432,1.761
				c-0.201,1.065-0.073,3.046,0.385,5.942c0.384,2.419,0.903,4.094,1.541,5.029c0.397,0.577,0.873,0.828,1.428,0.749
				c0.36-0.05,0.668-0.24,0.924-0.562c0.255-0.325,0.409-0.962,0.467-1.907C77.955,120.483,77.9,119.11,77.7,117.649z"/>
			<path fill="#FFFFFF" d="M90.637,113.432c1.536-0.189,3.074-0.363,4.614-0.52c0.218,0.644,0.355,1.287,0.417,1.929
				c0.442-0.698,1.032-1.247,1.767-1.649c0.735-0.398,1.564-0.612,2.483-0.633c1.468-0.035,2.668,0.415,3.576,1.333
				c0.91,0.916,1.354,2.228,1.355,3.917c0,1.177-0.213,2.175-0.629,2.992c-0.419,0.818-0.996,1.438-1.736,1.863
				c-0.738,0.425-1.6,0.646-2.592,0.671c-0.791,0.02-1.5-0.124-2.129-0.436c-0.629-0.311-1.227-0.824-1.797-1.537
				c0.056,1.198,0.111,2.397,0.168,3.595c0.021,0.475,0.074,0.775,0.155,0.903c0.082,0.131,0.23,0.225,0.439,0.282
				c0.213,0.06,0.629,0.082,1.25,0.065c0.013,0.345,0.026,0.688,0.038,1.03c-2.126,0.075-4.253,0.184-6.38,0.327
				c-0.024-0.342-0.05-0.686-0.075-1.027c0.114-0.007,0.228-0.018,0.342-0.023c0.401-0.026,0.667-0.077,0.799-0.152
				c0.132-0.078,0.231-0.198,0.297-0.368c0.046-0.117,0.054-0.41,0.023-0.873c-0.201-3.167-0.4-6.334-0.595-9.5
				c-0.029-0.466-0.089-0.771-0.179-0.921c-0.089-0.149-0.22-0.251-0.39-0.311c-0.169-0.057-0.556-0.077-1.162-0.058
				C90.678,114.031,90.657,113.73,90.637,113.432z M98.442,114.09c-0.781,0.025-1.436,0.383-1.952,1.073
				c-0.519,0.688-0.744,1.677-0.685,2.96c0.058,1.271,0.384,2.23,0.97,2.883c0.585,0.652,1.228,0.965,1.941,0.943
				c0.697-0.021,1.25-0.326,1.664-0.915c0.543-0.782,0.806-1.819,0.78-3.121c-0.021-1.19-0.269-2.134-0.749-2.822
				C99.932,114.4,99.271,114.066,98.442,114.09z"/>
			<path fill="#FFFFFF" d="M113.56,112.514c1.275,0.052,2.437,0.354,3.472,0.901c1.035,0.549,1.782,1.235,2.238,2.052
				c0.458,0.818,0.642,1.778,0.559,2.879c-0.133,1.758-0.894,3.055-2.252,3.911c-1.36,0.858-2.839,1.25-4.469,1.183
				c-1.152-0.047-2.197-0.322-3.146-0.827c-0.946-0.509-1.677-1.171-2.188-1.999c-0.509-0.827-0.764-1.757-0.753-2.787
				c0.016-1.552,0.631-2.851,1.873-3.877C110.134,112.923,111.7,112.438,113.56,112.514z M113.589,113.537
				c-0.84-0.034-1.52,0.269-2.037,0.909c-0.516,0.64-0.794,1.783-0.843,3.43c-0.05,1.714,0.156,2.897,0.607,3.559
				c0.452,0.663,1.076,1.009,1.879,1.042c0.819,0.032,1.495-0.267,2.035-0.905c0.541-0.64,0.861-1.774,0.954-3.404
				c0.096-1.674-0.095-2.853-0.574-3.543C115.131,113.937,114.455,113.574,113.589,113.537z"/>
			<path fill="#FFFFFF" d="M122.622,113.638c1.689,0.073,3.381,0.169,5.072,0.282c-0.312,2.829-0.63,5.659-0.952,8.487
				c-0.027,0.23,0.032,0.413,0.177,0.555c0.145,0.143,0.378,0.232,0.703,0.269c0.243,0.027,0.486,0.056,0.729,0.084
				c-0.04,0.329-0.081,0.661-0.123,0.991c-2.159-0.251-4.32-0.468-6.481-0.649c0.028-0.331,0.059-0.664,0.088-0.994
				c0.24,0.021,0.479,0.041,0.72,0.062c0.386,0.032,0.666-0.024,0.842-0.175c0.174-0.149,0.28-0.428,0.32-0.835
				c0.189-1.931,0.377-3.864,0.562-5.795c0.033-0.363-0.058-0.657-0.277-0.878c-0.217-0.221-0.536-0.35-0.955-0.387
				c-0.17-0.014-0.339-0.029-0.508-0.042C122.566,114.287,122.594,113.964,122.622,113.638z M126.32,108.15
				c0.557,0.055,1.019,0.273,1.381,0.653c0.363,0.382,0.517,0.812,0.463,1.298c-0.052,0.485-0.296,0.874-0.726,1.17
				c-0.43,0.297-0.918,0.418-1.466,0.363c-0.558-0.055-1.015-0.27-1.377-0.649c-0.361-0.377-0.521-0.806-0.479-1.282
				c0.045-0.486,0.279-0.879,0.709-1.183C125.256,108.218,125.754,108.094,126.32,108.15z"/>
			<path fill="#FFFFFF" d="M144.878,125.927c-0.07,0.326-0.141,0.651-0.211,0.978c-2.156-0.431-4.314-0.827-6.473-1.188
				c0.058-0.327,0.117-0.656,0.175-0.984c0.229,0.038,0.455,0.077,0.683,0.115c0.363,0.062,0.647,0.024,0.857-0.114
				c0.21-0.138,0.345-0.371,0.405-0.694c0.269-1.43,0.534-2.86,0.798-4.292c0.136-0.733,0.051-1.329-0.257-1.787
				c-0.308-0.455-0.771-0.736-1.386-0.838c-0.838-0.139-1.568,0.03-2.184,0.504c-0.613,0.474-1.004,1.247-1.173,2.315
				c-0.176,1.108-0.355,2.216-0.534,3.323c-0.051,0.324-0.001,0.586,0.152,0.784c0.154,0.197,0.375,0.319,0.659,0.363
				c0.274,0.043,0.548,0.087,0.822,0.131c-0.058,0.328-0.113,0.657-0.17,0.984c-2.244-0.361-4.49-0.685-6.739-0.971
				c0.046-0.329,0.09-0.658,0.135-0.989c0.294,0.038,0.587,0.075,0.88,0.114c0.341,0.044,0.608-0.007,0.808-0.153
				c0.197-0.147,0.321-0.385,0.368-0.709c0.286-1.976,0.569-3.951,0.849-5.927c0.048-0.342-0.043-0.629-0.276-0.868
				c-0.233-0.236-0.563-0.382-0.991-0.438c-0.161-0.021-0.322-0.043-0.483-0.062c0.041-0.309,0.082-0.618,0.122-0.929
				c1.591,0.127,3.183,0.272,4.777,0.436c0.075,0.634,0.091,1.378,0.047,2.234c0.778-0.687,1.575-1.163,2.389-1.432
				c0.815-0.265,1.64-0.328,2.472-0.185c1.128,0.196,1.96,0.688,2.484,1.463c0.515,0.773,0.651,1.744,0.416,2.913
				c-0.307,1.525-0.616,3.051-0.927,4.576c-0.072,0.351-0.036,0.62,0.109,0.81c0.147,0.188,0.411,0.32,0.795,0.396
				C144.479,125.848,144.678,125.887,144.878,125.927z"/>
			<path fill="#FFFFFF" d="M153.084,114.17c0.366,0.083,0.732,0.166,1.098,0.251c-0.319,1.342-0.643,2.684-0.968,4.024
				c1.244,0.289,2.488,0.588,3.732,0.899c-0.099,0.376-0.197,0.75-0.296,1.124c-1.236-0.309-2.475-0.607-3.711-0.894
				c-0.507,2.075-1.017,4.148-1.534,6.22c-0.102,0.412-0.066,0.758,0.109,1.037c0.175,0.28,0.452,0.466,0.83,0.557
				c1.077,0.258,1.892-0.506,2.438-2.301c0.348,0.085,0.694,0.17,1.041,0.259c-0.284,0.96-0.666,1.69-1.142,2.195
				c-0.475,0.507-1.046,0.851-1.715,1.026c-0.671,0.177-1.368,0.179-2.101,0.009c-0.641-0.149-1.168-0.394-1.579-0.736
				c-0.414-0.341-0.704-0.781-0.875-1.312c-0.17-0.534-0.192-1.075-0.064-1.628c0.466-2.014,0.927-4.028,1.382-6.043
				c-0.666-0.144-1.331-0.284-1.998-0.421c0.07-0.321,0.14-0.646,0.209-0.968c1.259,0.113,2.308-0.089,3.154-0.613
				C151.941,116.329,152.605,115.435,153.084,114.17z"/>
			<path fill="#FFFFFF" d="M166.844,122.381c0.35-0.19,0.699-0.38,1.051-0.57c0.245,0.075,0.49,0.149,0.736,0.226
				c-0.278,1.118-0.562,2.234-0.848,3.351c-0.319-0.099-0.639-0.198-0.959-0.295c-0.22-1.026-0.582-1.809-1.082-2.344
				c-0.498-0.536-1.188-0.931-2.062-1.18c-0.753-0.214-1.366-0.251-1.83-0.108c-0.465,0.14-0.751,0.401-0.862,0.782
				c-0.108,0.374-0.04,0.699,0.204,0.976c0.242,0.282,1.002,0.727,2.271,1.347c1.15,0.563,1.898,0.983,2.254,1.248
				c0.676,0.496,1.139,1.076,1.387,1.734c0.249,0.656,0.25,1.338,0.01,2.039c-0.306,0.886-0.965,1.503-1.965,1.86
				c-1.002,0.36-2.141,0.347-3.43-0.028c-0.622-0.18-1.166-0.408-1.631-0.685c-0.463-0.276-0.919-0.659-1.369-1.146
				c-0.359,0.214-0.718,0.43-1.075,0.646c-0.29-0.078-0.578-0.154-0.868-0.232c0.285-1.239,0.565-2.481,0.842-3.724
				c0.323,0.085,0.646,0.17,0.968,0.257c0.29,2.072,1.399,3.368,3.368,3.94c0.81,0.236,1.473,0.28,1.994,0.126
				c0.52-0.15,0.849-0.421,0.977-0.809c0.119-0.355,0.074-0.667-0.138-0.934c-0.21-0.266-0.863-0.685-1.968-1.238
				c-1.193-0.593-2-1.026-2.411-1.319c-0.707-0.486-1.192-1.021-1.455-1.608c-0.264-0.585-0.303-1.217-0.112-1.894
				c0.271-0.967,0.863-1.664,1.786-2.082c0.922-0.416,2.018-0.45,3.276-0.094c0.612,0.174,1.146,0.396,1.594,0.661
				C165.945,121.551,166.395,121.917,166.844,122.381z"/>
		</g>
	</g>
</g>
</svg>
