<?xml version="1.0" encoding="utf-8"?>
<!-- Generator: Adobe Illustrator 16.0.0, SVG Export Plug-In . SVG Version: 6.00 Build 0)  -->
<!DOCTYPE svg PUBLIC "-//W3C//DTD SVG 1.1//EN" "http://www.w3.org/Graphics/SVG/1.1/DTD/svg11.dtd">
<svg version="1.1" id="Livello_1" xmlns="http://www.w3.org/2000/svg" xmlns:xlink="http://www.w3.org/1999/xlink" x="0px" y="0px"
	 width="230px" height="200px" viewBox="0 0 230 200" enable-background="new 0 0 230 200" xml:space="preserve">
<g>
	<circle fill="#6AB64D" cx="112.969" cy="95.5" r="82.153"/>
	<g>
		<path fill="#00953E" d="M99.54,23.451c-7.637,1.504-14.855,4.16-21.472,7.785l20.294,42.713h1.809l10.134-27.842L99.54,23.451z"/>
		<polygon fill="#00953E" points="110.305,46.107 100.171,73.949 123.532,73.949 		"/>
	</g>
	<path fill="#C0C0C0" d="M114.28,87.008c-9.468,0-17.142-4.693-17.142-10.482s7.674-10.48,17.142-10.48
		c9.469,0,17.143,4.691,17.143,10.48S123.749,87.008,114.28,87.008z M114.28,61.852c-13.251,0-23.999,6.57-23.999,14.674
		s10.748,14.676,23.999,14.676c13.252,0,23.999-6.572,23.999-14.676S127.532,61.852,114.28,61.852z"/>
	<g>
		<path fill="#C0C0C0" d="M113.554,79.715c-21.521,0-38.973,17.57-38.973,39.238c0,21.666,17.452,39.238,38.973,39.238
			c21.52,0,38.974-17.572,38.974-39.238C152.527,97.285,135.073,79.715,113.554,79.715z M113.554,146.98
			c-15.376,0-27.838-12.549-27.838-28.027c0-15.48,12.462-28.027,27.838-28.027c15.377,0,27.838,12.547,27.838,28.027
			C141.392,134.432,128.931,146.98,113.554,146.98z"/>
		<g>
			<path fill="#9A9898" d="M113.562,79.864c0,0-0.959,0.046-2.756,0.133c-0.447,0.033-0.955,0.018-1.499,0.1
				s-1.137,0.171-1.778,0.268c-0.639,0.109-1.336,0.174-2.062,0.338c-0.721,0.188-1.486,0.389-2.297,0.601
				c-3.197,0.929-7.064,2.378-10.887,5.059c-3.832,2.615-7.734,6.273-10.794,11.091c-3.036,4.809-5.27,10.697-5.952,17.15
				c-0.113,0.802-0.083,1.623-0.133,2.441c-0.006,0.808-0.115,1.671-0.04,2.446c0.118,1.681,0.118,3.432,0.46,5.06
				c0.417,3.328,1.525,6.683,2.893,9.901c0.386,0.79,0.773,1.584,1.162,2.381c0.387,0.797,0.908,1.524,1.358,2.295l0.7,1.143
				c0.25,0.371,0.535,0.719,0.801,1.081c0.551,0.71,1.065,1.451,1.646,2.143c2.35,2.752,5.115,5.176,8.148,7.255
				c3.085,2.014,6.478,3.559,10.015,4.678c3.544,1.044,7.349,1.504,10.947,1.567c3.928-0.134,7.438-0.652,11.013-1.75
				c3.502-1.175,6.84-2.767,9.859-4.811c2.97-2.11,5.649-4.557,7.934-7.295c2.196-2.799,4.106-5.779,5.459-8.966
				c1.332-3.176,2.406-6.438,2.808-9.749c0.334-1.637,0.318-3.293,0.432-4.917l0.03-0.536l-0.023-0.631l-0.047-1.257
				c-0.05-0.823-0.021-1.692-0.134-2.462c-0.107-0.771-0.215-1.538-0.321-2.299c-0.06-0.382-0.089-0.763-0.171-1.141l-0.269-1.132
				c-0.175-0.754-0.349-1.502-0.521-2.245c-0.22-0.729-0.481-1.438-0.717-2.151c-0.939-2.856-2.279-5.455-3.696-7.875
				c-2.954-4.782-6.746-8.462-10.497-11.125c-3.742-2.727-7.562-4.231-10.733-5.207c-0.804-0.224-1.564-0.435-2.28-0.634
				c-0.723-0.174-1.418-0.248-2.055-0.365c-0.641-0.105-1.233-0.203-1.775-0.293c-0.543-0.089-1.047-0.08-1.492-0.119
				c-1.788-0.11-2.742-0.169-2.742-0.169L113.562,79.864z M113.554,79.564c0,0,0.963,0.039,2.768,0.111
				c0.45,0.031,0.959,0.011,1.509,0.089c0.55,0.079,1.15,0.164,1.8,0.257c0.646,0.104,1.353,0.166,2.087,0.326
				c0.731,0.176,1.51,0.363,2.331,0.561c3.248,0.881,7.197,2.239,11.216,4.791c4.011,2.518,8.173,6.098,11.581,10.941
				c3.39,4.857,5.975,10.864,6.857,17.788c0.139,0.861,0.129,1.662,0.201,2.505l0.078,1.255l0.04,0.631
				c-0.001-0.041,0.008,0.144,0.005,0.155l-0.004,0.082l-0.007,0.164l-0.015,0.328c-0.102,1.752-0.084,3.538-0.423,5.31
				c-0.414,3.579-1.538,7.121-2.96,10.57c-0.408,0.842-0.817,1.688-1.229,2.536c-0.412,0.848-0.96,1.625-1.438,2.444l-0.744,1.217
				c-0.265,0.395-0.565,0.767-0.848,1.152c-0.582,0.757-1.131,1.545-1.747,2.281c-2.486,2.939-5.439,5.511-8.672,7.718
				c-3.285,2.139-6.899,3.782-10.67,4.965c-3.763,1.106-7.907,1.605-11.655,1.647l-3.022-0.169c-0.99-0.018-1.964-0.195-2.938-0.354
				l-1.462-0.236l-0.729-0.119l-0.715-0.189l-2.854-0.762c-3.733-1.237-7.294-2.928-10.514-5.098
				c-3.168-2.237-6.036-4.831-8.458-7.756c-0.599-0.733-1.13-1.519-1.694-2.271c-0.273-0.383-0.565-0.753-0.821-1.146l-0.718-1.207
				c-0.461-0.813-0.991-1.584-1.387-2.423c-0.394-0.84-0.786-1.676-1.178-2.508c-1.387-3.407-2.476-6.857-2.874-10.42
				c-0.331-1.78-0.298-3.471-0.394-5.166c-0.007-0.229-0.023-0.384-0.021-0.672l0.039-0.643l0.08-1.278
				c0.071-0.848,0.063-1.696,0.2-2.524c0.869-6.665,3.317-12.68,6.601-17.482c3.301-4.809,7.353-8.41,11.281-10.976
				c3.938-2.597,7.842-4.011,11.062-4.939c0.816-0.209,1.589-0.407,2.315-0.594c0.73-0.17,1.435-0.241,2.079-0.354
				c0.648-0.102,1.248-0.195,1.797-0.281c0.549-0.085,1.053-0.072,1.502-0.108c1.796-0.098,2.754-0.148,2.754-0.148L113.554,79.564z
				"/>
			<path fill="#9A9898" d="M113.546,147.13c0,0-0.684-0.037-1.967-0.107c-0.321-0.027-0.68-0.018-1.073-0.079
				c-0.394-0.062-0.822-0.13-1.286-0.203c-0.461-0.081-0.966-0.133-1.488-0.254c-0.52-0.134-1.072-0.274-1.656-0.424
				c-2.304-0.663-5.098-1.668-7.927-3.511c-2.821-1.825-5.736-4.39-8.129-7.823c-2.38-3.43-4.159-7.744-4.806-12.535
				c-0.102-0.596-0.1-1.206-0.153-1.815c-0.021-0.623-0.127-1.199-0.077-1.873c0.064-1.214,0.037-2.412,0.271-3.706
				c0.281-2.578,1.057-5.056,2.049-7.517c1.025-2.449,2.479-4.745,4.159-6.899c1.74-2.114,3.804-3.991,6.087-5.611
				c2.319-1.572,4.887-2.8,7.582-3.7c1.371-0.371,2.739-0.781,4.159-0.955c0.704-0.117,1.407-0.246,2.123-0.262l2.201-0.127
				c2.651,0.018,5.702,0.37,8.417,1.161c2.732,0.845,5.354,2.026,7.738,3.567c2.346,1.59,4.495,3.444,6.301,5.573
				c1.749,2.164,3.276,4.483,4.367,6.975c1.027,2.504,1.838,5.073,2.134,7.669c0.243,1.284,0.229,2.578,0.301,3.848l0.011,0.238
				l0.005,0.119l0.002,0.06l-0.004,0.133l-0.03,0.45l-0.062,0.896c-0.055,0.604-0.05,1.168-0.152,1.796
				c-0.661,5.05-2.576,9.357-5.063,12.842c-2.499,3.469-5.524,6.013-8.427,7.789c-2.91,1.798-5.75,2.747-8.081,3.362
				c-0.59,0.138-1.147,0.268-1.672,0.39c-0.527,0.112-1.033,0.154-1.496,0.228c-0.465,0.064-0.895,0.124-1.289,0.178
				c-0.394,0.055-0.758,0.039-1.08,0.06c-1.291,0.046-1.98,0.071-1.98,0.071L113.546,147.13z M113.554,146.83
				c0,0,0.68-0.044,1.955-0.129c0.318-0.029,0.676-0.024,1.063-0.089c0.387-0.065,0.809-0.137,1.265-0.215
				c0.454-0.085,0.949-0.141,1.463-0.266c0.51-0.146,1.051-0.301,1.622-0.464c2.254-0.71,4.965-1.806,7.599-3.778
				c2.643-1.922,5.298-4.564,7.343-7.973c0.982-1.723,1.897-3.571,2.544-5.59c0.161-0.504,0.341-1.006,0.491-1.521
				c0.116-0.524,0.233-1.053,0.351-1.585c0.297-1.064,0.338-2.124,0.515-3.201c0.075-0.537,0.054-1.167,0.085-1.752l0.029-0.898
				l0.014-0.451c0.002-0.086,0,0.054-0.001,0.02l-0.003-0.053l-0.006-0.107l-0.013-0.214c-0.082-1.142-0.071-2.307-0.309-3.457
				c-0.285-2.327-1.045-4.617-1.983-6.847c-0.944-2.24-2.281-4.338-3.82-6.311c-1.603-1.927-3.478-3.656-5.562-5.148
				c-2.119-1.447-4.464-2.576-6.927-3.414c-2.527-0.782-4.945-1.154-7.775-1.264c-2.502,0.038-5.214,0.353-7.709,1.081
				c-2.5,0.782-4.899,1.865-7.084,3.28c-2.147,1.463-4.107,3.17-5.775,5.111c-1.607,1.982-3.02,4.104-4.029,6.385
				c-0.974,2.273-1.768,4.655-2.068,6.999c-0.245,1.142-0.25,2.401-0.338,3.6c-0.055,0.534,0.02,1.157,0.021,1.727
				c0.032,0.58,0.007,1.163,0.085,1.732c0.46,4.579,2.024,8.767,4.157,12.203c2.15,3.442,4.917,6.063,7.641,7.939
				c2.715,1.926,5.472,2.966,7.752,3.63c0.578,0.15,1.124,0.294,1.639,0.429c0.518,0.116,1.015,0.162,1.471,0.239
				c0.457,0.068,0.88,0.132,1.268,0.189s0.751,0.046,1.07,0.07c1.284,0.06,1.969,0.092,1.969,0.092L113.554,146.83z"/>
		</g>
	</g>
	<g>
		<circle fill="#C0C0C0" cx="113.554" cy="118.672" r="30.438"/>
		<path fill="#8C8C8C" d="M144.143,118.68c0,0-0.033,0.746-0.093,2.145c-0.024,0.351-0.012,0.741-0.071,1.171
			c-0.062,0.429-0.129,0.897-0.203,1.404c-0.085,0.505-0.129,1.058-0.238,1.634c-0.131,0.571-0.271,1.179-0.418,1.821
			c-0.075,0.321-0.152,0.651-0.232,0.989c-0.11,0.329-0.225,0.667-0.341,1.012c-0.238,0.688-0.423,1.439-0.737,2.172
			c-0.317,0.735-0.647,1.5-0.99,2.293c-0.393,0.771-0.834,1.553-1.275,2.373c-1.9,3.182-4.622,6.55-8.418,9.273
			c-3.785,2.711-8.646,4.662-13.977,5.241c-0.664,0.091-1.342,0.064-2.018,0.101l-1.019,0.032l-0.511,0.016l-0.127-0.001
			l-0.062-0.005l-0.123-0.009l-0.246-0.017c-1.319-0.122-2.616-0.159-4.045-0.478c-2.826-0.439-5.487-1.411-8.102-2.623
			c-2.606-1.233-4.981-2.954-7.233-4.821c-2.196-1.951-4.152-4.19-5.846-6.649c-1.65-2.491-2.947-5.229-3.928-8.096
			c-0.951-2.885-1.438-5.92-1.596-8.986c0.057-1.589-0.036-2.979,0.218-4.574c0.126-1.576,0.497-3.068,0.839-4.575
			c0.878-2.957,2.108-5.811,3.748-8.411c1.688-2.562,3.698-4.886,5.98-6.867c2.325-1.917,4.822-3.603,7.516-4.807
			c2.686-1.188,5.48-2.084,8.3-2.43c1.397-0.274,2.806-0.275,4.188-0.355l0.259-0.01l0.13-0.005l0.064-0.003l0.143,0.005
			l0.491,0.029l0.978,0.06c0.659,0.056,1.271,0.044,1.957,0.154c1.354,0.24,2.746,0.363,3.985,0.757
			c0.633,0.17,1.26,0.339,1.883,0.506c0.609,0.208,1.199,0.459,1.791,0.685c1.199,0.414,2.285,1.033,3.374,1.578
			c0.557,0.252,1.047,0.61,1.549,0.934c0.498,0.328,0.99,0.653,1.479,0.975c3.788,2.753,6.504,6.128,8.401,9.318
			c1.927,3.2,2.909,6.309,3.571,8.85c0.146,0.643,0.285,1.251,0.416,1.823c0.108,0.575,0.151,1.126,0.234,1.63
			c0.072,0.506,0.139,0.974,0.199,1.402c0.059,0.429,0.045,0.824,0.067,1.176c0.057,1.406,0.087,2.156,0.087,2.156V118.68z
			 M143.842,118.672c0,0-0.045-0.742-0.13-2.133c-0.03-0.346-0.024-0.737-0.091-1.159c-0.069-0.423-0.145-0.883-0.227-1.381
			c-0.086-0.497-0.154-1.036-0.295-1.596c-0.16-0.555-0.329-1.145-0.508-1.769c-0.761-2.462-1.997-5.404-4.147-8.264
			c-2.104-2.874-5.014-5.708-8.685-7.955c-1.869-1.059-3.839-2.12-6.028-2.838c-0.544-0.184-1.092-0.369-1.645-0.557
			c-0.566-0.139-1.138-0.278-1.713-0.419c-1.153-0.345-2.307-0.396-3.479-0.6c-0.583-0.091-1.271-0.069-1.907-0.11l-0.979-0.039
			l-0.491-0.02c-0.093-0.002,0.057-0.001,0.021,0.001l-0.059,0.004l-0.117,0.008l-0.233,0.015c-1.245,0.086-2.516,0.063-3.771,0.315
			c-2.542,0.298-5.042,1.12-7.503,2.101c-2.459,1.022-4.755,2.495-6.918,4.182c-2.129,1.743-3.989,3.837-5.638,6.115
			c-1.606,2.315-2.857,4.892-3.799,7.599l-0.607,2.067c-0.239,0.689-0.29,1.388-0.448,2.086c-0.335,1.342-0.357,2.956-0.508,4.346
			c-0.018,2.907,0.268,5.834,1.023,8.662c0.839,2.796,2.023,5.489,3.619,7.914c0.395,0.605,0.85,1.17,1.281,1.747
			c0.223,0.283,0.424,0.583,0.664,0.852l0.731,0.792c0.501,0.512,0.938,1.086,1.488,1.543l1.608,1.399
			c2.236,1.736,4.654,3.175,7.199,4.167c2.533,0.957,5.167,1.702,7.702,1.908c1.225,0.208,2.606,0.148,3.915,0.192l0.246,0.008
			l0.123,0.004l0.062,0.002c0.034,0.002-0.08-0.005-0.004-0.005l0.471-0.034l0.937-0.066c0.62-0.06,1.243-0.053,1.849-0.162
			c4.879-0.64,9.272-2.365,12.947-4.606c3.663-2.276,6.568-5.118,8.668-8c2.148-2.864,3.387-5.809,4.143-8.274
			c0.178-0.624,0.347-1.214,0.505-1.77c0.14-0.56,0.208-1.097,0.292-1.593c0.08-0.497,0.154-0.957,0.222-1.378
			c0.065-0.422,0.059-0.817,0.088-1.166c0.081-1.397,0.124-2.144,0.124-2.144V118.672z"/>
	</g>
	<path fill="#58B259" d="M119.011,22.186l-8.706,23.922l-10.134,27.842l-0.214,0.586h25.17l17.135-47.078
		C135.003,24.531,127.185,22.707,119.011,22.186z"/>
	<circle fill="none" stroke="#C0C0C0" stroke-width="5" stroke-miterlimit="10" cx="112.969" cy="95.5" r="75.216"/>
	<g id="Livello_10_37_">
		<g>
			<path fill="#8B8B8B" d="M103.189,109.853c-5.628,5.994-3.366,12.54-2.442,14.933c5.721-13.231,18.956-16.387,18.956-16.387
				s-16.69,11.828-18.411,26.625c-0.134,1.168,2.695,1.84,2.901,0.445c0.632-4.158,2.181-7.578,2.181-7.578
				c3.805,0.363,10.174,0.25,13.515-4.006c4.436-5.657,1.319-14.554,8.058-21.206C129.516,101.127,110.816,101.734,103.189,109.853z
				"/>
		</g>
	</g>
	<g>
		<g>
			<path fill="#00953E" stroke="#C0C0C0" stroke-width="4" stroke-miterlimit="10" d="M218.508,151.807
				c-6.562-1.267-12.939-2.861-19.114-4.75c2.964-6.088,5.604-12.242,7.921-18.431c-52.148,29.121-114.772,31.745-168.899,7.72
				c-4.867-2.171-9.665-4.558-14.381-7.16c2.587,6.365,5.521,12.695,8.804,18.955c-5.811,1.755-11.8,3.237-17.947,4.422
				C78.367,187.062,155.178,186.823,218.508,151.807L218.508,151.807L218.508,151.807z"/>
		</g>
	</g>
	<g>
		<g>
			<path fill="#C0C0C0" d="M65.062,151.493c0.4-0.323,0.802-0.647,1.199-0.972c0.252,0.067,0.505,0.134,0.757,0.2
				c-0.338,1.709-0.672,3.42-1.006,5.131c-0.235-0.062-0.468-0.124-0.7-0.185c-0.108-1.686-0.502-2.999-1.189-3.95
				c-0.689-0.951-1.568-1.582-2.66-1.9c-0.914-0.266-1.715-0.24-2.422,0.077c-0.699,0.319-1.146,0.831-1.321,1.544
				c-0.108,0.443-0.095,0.866,0.046,1.271c0.143,0.406,0.412,0.778,0.809,1.124c0.396,0.344,1.188,0.822,2.376,1.42
				c1.668,0.841,2.826,1.516,3.461,2.056c0.634,0.538,1.075,1.114,1.315,1.733c0.243,0.62,0.292,1.284,0.152,1.995
				c-0.256,1.268-0.952,2.193-2.101,2.763c-1.151,0.571-2.513,0.638-4.071,0.191c-1.676-0.48-3.024-1.384-4.032-2.688
				c-0.514,0.306-1.028,0.609-1.544,0.909c-0.264-0.084-0.526-0.166-0.788-0.251c0.439-1.787,0.884-3.574,1.333-5.361
				c0.258,0.081,0.513,0.164,0.771,0.245c-0.066,1.574,0.324,2.954,1.181,4.136c0.857,1.181,1.958,1.968,3.294,2.349
				c1.078,0.312,2.025,0.278,2.818-0.089c0.796-0.364,1.272-0.95,1.436-1.741c0.091-0.448,0.048-0.875-0.134-1.28
				c-0.18-0.404-0.521-0.799-1.015-1.178c-0.492-0.38-1.508-0.954-3.02-1.743c-1.661-0.874-2.751-1.646-3.27-2.291
				c-0.731-0.912-0.943-1.954-0.646-3.121c0.306-1.217,0.996-2.073,2.052-2.585c1.054-0.514,2.243-0.571,3.582-0.183
				c0.645,0.186,1.228,0.464,1.759,0.834C64.02,150.324,64.545,150.836,65.062,151.493z"/>
			<path fill="#C0C0C0" d="M68.337,156.648c1.33,0.295,2.652,0.576,3.983,0.845c-0.467,2.568-0.92,5.139-1.374,7.708
				c-0.041,0.21-0.006,0.373,0.096,0.49c0.146,0.168,0.345,0.278,0.604,0.337c0.391,0.089,0.777,0.174,1.165,0.262
				c-0.039,0.24-0.081,0.479-0.12,0.719c-1.959-0.436-3.916-0.896-5.867-1.386c0.044-0.236,0.094-0.475,0.137-0.714
				c0.364,0.092,0.725,0.182,1.086,0.27c0.322,0.078,0.568,0.067,0.745-0.032c0.175-0.102,0.282-0.282,0.334-0.544
				c0.347-1.877,0.692-3.754,1.043-5.631c0.065-0.357,0.003-0.652-0.19-0.889c-0.193-0.234-0.511-0.407-0.961-0.518
				c-0.27-0.065-0.549-0.135-0.82-0.203C68.241,157.124,68.291,156.886,68.337,156.648z M72.097,151.981
				c0.314,0.075,0.568,0.246,0.762,0.516c0.196,0.271,0.268,0.553,0.215,0.847c-0.053,0.286-0.21,0.51-0.482,0.666
				c-0.269,0.157-0.563,0.198-0.887,0.123c-0.32-0.077-0.578-0.25-0.772-0.519c-0.195-0.269-0.261-0.546-0.207-0.832
				c0.058-0.286,0.217-0.508,0.499-0.669C71.499,151.954,71.792,151.911,72.097,151.981z"/>
			<path fill="#C0C0C0" d="M79.983,153.669c-0.672,4.358-1.334,8.718-1.98,13.078c-0.025,0.182,0.011,0.33,0.126,0.452
				c0.16,0.165,0.379,0.272,0.642,0.322c0.36,0.069,0.729,0.14,1.09,0.206c-0.035,0.241-0.068,0.48-0.101,0.724
				c-1.955-0.364-3.908-0.757-5.859-1.178c0.036-0.241,0.079-0.48,0.118-0.72c0.346,0.072,0.688,0.146,1.033,0.221
				c0.34,0.069,0.601,0.052,0.786-0.056c0.185-0.106,0.302-0.29,0.341-0.545c0.57-3.654,1.145-7.308,1.735-10.96
				c0.053-0.322-0.007-0.574-0.169-0.76c-0.229-0.26-0.521-0.426-0.902-0.505c-0.29-0.061-0.587-0.124-0.879-0.186
				c0.043-0.239,0.08-0.479,0.123-0.719C77.387,153.267,78.686,153.475,79.983,153.669z"/>
			<path fill="#C0C0C0" d="M81.823,159.553c1.64,0.299,3.282,0.573,4.924,0.83c-0.026,0.219-0.053,0.438-0.079,0.658
				c-0.659-0.087-1.085-0.105-1.28-0.041s-0.298,0.185-0.324,0.356c-0.018,0.146,0.002,0.292,0.056,0.444
				c0.661,1.931,1.347,3.862,2.054,5.787c1.023-1.608,2.033-3.227,3.031-4.853c0.048-0.085,0.071-0.172,0.084-0.264
				c0.049-0.475-0.435-0.837-1.445-1.103c0.026-0.22,0.05-0.439,0.074-0.659c1.383,0.202,2.766,0.387,4.15,0.56
				c-0.019,0.222-0.046,0.442-0.064,0.662c-0.426-0.014-0.77,0.048-1.039,0.184c-0.265,0.137-0.486,0.338-0.649,0.604
				c-1.498,2.416-3.021,4.812-4.583,7.191c-0.2-0.03-0.398-0.061-0.599-0.093c-1.057-2.852-2.064-5.712-3.028-8.573
				c-0.104-0.312-0.253-0.539-0.439-0.687c-0.188-0.147-0.497-0.267-0.934-0.35C81.765,159.989,81.793,159.772,81.823,159.553z"/>
			<path fill="#C0C0C0" d="M103.176,166.952c-2.442-0.182-4.878-0.406-7.315-0.674c-0.08,1.395,0.133,2.412,0.639,3.042
				c0.581,0.713,1.364,1.116,2.347,1.211c1.446,0.138,2.656-0.493,3.608-1.884c0.23,0.112,0.469,0.221,0.697,0.33
				c-1.166,1.773-2.789,2.578-4.832,2.38c-1.391-0.136-2.528-0.706-3.401-1.698c-0.868-0.992-1.235-2.18-1.111-3.559
				c0.132-1.481,0.702-2.622,1.687-3.435c0.984-0.812,2.135-1.15,3.451-1.024c0.977,0.093,1.788,0.396,2.472,0.91
				c0.679,0.518,1.178,1.213,1.487,2.097C103.124,165.269,103.211,166.036,103.176,166.952z M95.918,165.585
				c1.469,0.162,2.943,0.307,4.415,0.437c0.26,0.022,0.471-0.04,0.623-0.187c0.156-0.149,0.245-0.414,0.27-0.799
				c0.049-0.717-0.165-1.349-0.619-1.895c-0.459-0.544-1.018-0.846-1.684-0.911c-0.746-0.071-1.395,0.165-1.967,0.718
				C96.389,163.499,96.04,164.375,95.918,165.585z"/>
			<path fill="#C0C0C0" d="M104.831,162.396c1.207,0.024,2.415,0.038,3.619,0.043c-0.047,1.24-0.09,2.479-0.137,3.721
				c0.434-1.204,0.937-2.107,1.5-2.715c0.565-0.604,1.242-0.894,2.046-0.867c0.541,0.02,0.974,0.181,1.294,0.495
				c0.318,0.313,0.477,0.727,0.467,1.236c-0.007,0.413-0.121,0.73-0.347,0.955c-0.224,0.224-0.504,0.331-0.835,0.322
				c-0.329-0.01-0.583-0.118-0.779-0.321c-0.196-0.201-0.285-0.471-0.277-0.805c0.003-0.217,0.067-0.418,0.188-0.604
				c0.113-0.167,0.168-0.268,0.17-0.301c0.003-0.097-0.066-0.151-0.202-0.154c-0.292-0.011-0.633,0.135-1.013,0.437
				c-0.533,0.421-0.947,1.004-1.256,1.757c-0.479,1.172-0.73,2.113-0.753,2.826c-0.019,0.658-0.048,1.317-0.069,1.974
				c-0.008,0.222,0.071,0.397,0.247,0.523c0.175,0.126,0.474,0.2,0.901,0.219c0.44,0.019,0.876,0.037,1.318,0.054
				c-0.008,0.244-0.012,0.49-0.02,0.736c-2.152-0.08-4.304-0.194-6.458-0.34c0.015-0.246,0.021-0.49,0.036-0.735
				c0.341,0.025,0.683,0.046,1.029,0.067c0.347,0.021,0.61-0.022,0.793-0.134c0.186-0.11,0.277-0.251,0.283-0.422
				c0.084-1.953,0.166-3.904,0.248-5.857c0.021-0.444-0.068-0.776-0.27-0.994c-0.199-0.218-0.492-0.339-0.879-0.363
				c-0.293-0.02-0.588-0.037-0.882-0.057C104.807,162.858,104.825,162.63,104.831,162.396z"/>
			<path fill="#C0C0C0" d="M121.469,162.831c0.962-0.07,1.912-0.146,2.872-0.229c0.178,0.681,0.291,1.331,0.358,1.951
				c0.531-0.736,1.065-1.26,1.598-1.575c0.536-0.313,1.126-0.487,1.78-0.518c0.691-0.033,1.273,0.104,1.738,0.413
				c0.469,0.309,0.84,0.831,1.121,1.568c0.449-0.744,0.952-1.309,1.521-1.701c0.564-0.394,1.199-0.616,1.886-0.669
				c0.912-0.07,1.615,0.12,2.105,0.577c0.63,0.606,0.99,1.422,1.063,2.46c0.108,1.523,0.217,3.05,0.326,4.574
				c0.02,0.276,0.111,0.455,0.271,0.54c0.216,0.132,0.528,0.178,0.935,0.14c0.174-0.017,0.347-0.033,0.519-0.051
				c0.018,0.247,0.038,0.492,0.057,0.737c-1.738,0.173-3.482,0.322-5.222,0.45c-0.017-0.246-0.024-0.49-0.043-0.737
				c0.17-0.013,0.348-0.026,0.521-0.04c0.438-0.032,0.748-0.124,0.917-0.269c0.167-0.146,0.245-0.351,0.226-0.614
				c-0.097-1.526-0.199-3.055-0.296-4.581c-0.042-0.685-0.262-1.198-0.652-1.542c-0.39-0.346-0.882-0.494-1.474-0.451
				c-0.449,0.033-0.854,0.172-1.207,0.416c-0.355,0.245-0.619,0.577-0.812,0.998c-0.279,0.604-0.41,1.109-0.392,1.518
				c0.067,1.324,0.125,2.649,0.19,3.973c0.018,0.271,0.103,0.463,0.271,0.582c0.167,0.117,0.422,0.168,0.763,0.146
				c0.238-0.016,0.473-0.031,0.707-0.047c0.011,0.245,0.023,0.491,0.039,0.737c-1.766,0.121-3.533,0.219-5.303,0.294
				c-0.007-0.246-0.018-0.492-0.026-0.738c0.202-0.009,0.402-0.017,0.599-0.026c0.377-0.018,0.651-0.096,0.833-0.237
				c0.179-0.14,0.264-0.312,0.257-0.517c-0.057-1.418-0.119-2.836-0.176-4.254c-0.035-0.9-0.241-1.543-0.604-1.934
				c-0.36-0.39-0.843-0.571-1.43-0.545c-0.76,0.031-1.334,0.291-1.735,0.775c-0.563,0.691-0.839,1.481-0.817,2.372
				c0.029,1.229,0.059,2.456,0.089,3.684c0.007,0.281,0.081,0.475,0.224,0.575c0.2,0.133,0.512,0.192,0.936,0.178
				c0.176-0.006,0.352-0.014,0.531-0.02c0.008,0.246,0.019,0.492,0.022,0.738c-1.745,0.065-3.491,0.105-5.239,0.127
				c-0.006-0.246-0.004-0.493-0.008-0.738c0.26-0.002,0.524-0.006,0.785-0.011c0.292-0.005,0.52-0.074,0.678-0.208
				c0.158-0.135,0.235-0.307,0.229-0.508c-0.038-2.018-0.065-4.03-0.106-6.046c-0.009-0.335-0.099-0.583-0.293-0.743
				c-0.191-0.159-0.564-0.257-1.124-0.296C121.473,163.283,121.471,163.057,121.469,162.831z"/>
			<path fill="#C0C0C0" d="M150.335,165.11c-2.432,0.371-4.867,0.701-7.305,0.988c0.166,1.397,0.544,2.353,1.152,2.861
				c0.693,0.571,1.529,0.794,2.512,0.664c1.446-0.191,2.529-1.091,3.225-2.676c0.251,0.057,0.495,0.11,0.745,0.166
				c-0.845,2.018-2.305,3.178-4.345,3.445c-1.392,0.182-2.604-0.126-3.629-0.908c-1.024-0.784-1.588-1.875-1.704-3.264
				c-0.13-1.494,0.23-2.749,1.054-3.773c0.825-1.023,1.886-1.617,3.205-1.791c0.962-0.127,1.831-0.013,2.588,0.342
				c0.763,0.354,1.369,0.932,1.83,1.732C149.985,163.46,150.216,164.198,150.335,165.11z M142.966,165.401
				c1.473-0.173,2.939-0.361,4.41-0.566c0.259-0.036,0.454-0.147,0.58-0.326c0.124-0.182,0.166-0.465,0.126-0.85
				c-0.081-0.721-0.396-1.295-0.942-1.729c-0.546-0.436-1.149-0.607-1.812-0.521c-0.739,0.096-1.344,0.479-1.804,1.152
				C143.065,163.234,142.875,164.181,142.966,165.401z"/>
			<path fill="#C0C0C0" d="M156.189,153.929c1.263-0.299,2.527-0.609,3.789-0.932c0.704,4.159,1.393,8.316,2.069,12.475
				c0.078,0.487,0.24,0.812,0.482,0.977c0.24,0.164,0.572,0.201,0.99,0.111c0.237-0.05,0.476-0.103,0.715-0.154
				c0.039,0.243,0.084,0.486,0.124,0.729c-1.171,0.256-2.354,0.503-3.53,0.74c-0.186-0.604-0.367-1.205-0.553-1.809
				c-0.31,0.746-0.73,1.341-1.239,1.786c-0.515,0.443-1.115,0.729-1.821,0.857c-1.178,0.216-2.242-0.046-3.184-0.779
				c-0.939-0.735-1.496-1.823-1.678-3.259c-0.197-1.552,0.164-2.877,1.065-3.979c0.711-0.861,1.578-1.387,2.624-1.579
				c0.644-0.121,1.233-0.082,1.787,0.112c0.553,0.193,1.066,0.547,1.539,1.062c-0.274-1.716-0.549-3.436-0.823-5.153
				c-0.044-0.271-0.194-0.465-0.443-0.579c-0.254-0.116-0.619-0.124-1.102-0.03c-0.233,0.044-0.466,0.092-0.7,0.136
				C156.263,154.416,156.227,154.171,156.189,153.929z M156.451,159.869c-0.768,0.146-1.339,0.542-1.712,1.204
				c-0.371,0.661-0.464,1.678-0.281,3.053c0.204,1.492,0.578,2.501,1.141,3.027c0.559,0.523,1.217,0.721,1.966,0.58
				c0.8-0.146,1.433-0.623,1.897-1.411c0.466-0.791,0.586-1.84,0.385-3.146c-0.194-1.234-0.644-2.145-1.348-2.735
				C157.889,159.917,157.206,159.728,156.451,159.869z"/>
			<path fill="#C0C0C0" d="M176.134,163.162c0.172,0.143,0.34,0.287,0.512,0.429c-0.424,0.629-0.971,1.035-1.621,1.213
				c-0.504,0.135-0.943,0.127-1.333-0.019c-0.391-0.147-0.775-0.487-1.15-1.021c-0.56,0.824-1.085,1.411-1.574,1.76
				c-0.484,0.347-1.103,0.615-1.843,0.794c-1.055,0.258-1.898,0.243-2.52-0.031c-0.62-0.275-0.994-0.729-1.097-1.356
				c-0.166-0.944,0.316-1.87,1.442-2.783c1.125-0.916,2.687-1.729,4.686-2.468c-0.094-0.458-0.193-0.913-0.284-1.371
				c-0.101-0.489-0.403-0.85-0.908-1.086c-0.501-0.235-1.091-0.271-1.755-0.104c-0.614,0.154-1.127,0.401-1.529,0.741
				c-0.282,0.252-0.413,0.461-0.382,0.628c0.021,0.097,0.131,0.229,0.342,0.394c0.255,0.209,0.4,0.414,0.442,0.614
				c0.055,0.29-0.006,0.552-0.177,0.786c-0.177,0.233-0.427,0.391-0.766,0.472c-0.36,0.083-0.679,0.046-0.961-0.121
				c-0.28-0.164-0.45-0.418-0.513-0.761c-0.116-0.64,0.176-1.316,0.869-2.032c0.695-0.718,1.677-1.229,2.954-1.552
				c1.18-0.297,2.13-0.303,2.849-0.006c0.721,0.305,1.157,0.787,1.301,1.455c0.354,1.645,0.703,3.289,1.05,4.935
				c0.097,0.437,0.239,0.736,0.445,0.898c0.205,0.169,0.433,0.218,0.69,0.148C175.586,163.639,175.866,163.455,176.134,163.162z
				 M171.767,160.317c-1.781,0.701-3.009,1.383-3.677,2.08c-0.499,0.522-0.687,1.141-0.553,1.853
				c0.095,0.498,0.312,0.852,0.665,1.061s0.768,0.256,1.254,0.138c0.862-0.21,1.553-0.688,2.072-1.426
				c0.516-0.738,0.68-1.545,0.503-2.412C171.942,161.179,171.854,160.749,171.767,160.317z"/>
			<path fill="#C0C0C0" d="M178.352,148.229c1.085,4.327,2.149,8.657,3.194,12.988c0.045,0.181,0.139,0.295,0.284,0.355
				c0.214,0.071,0.451,0.067,0.712-0.015c0.361-0.11,0.721-0.227,1.081-0.34c0.058,0.239,0.116,0.479,0.178,0.716
				c-1.935,0.614-3.876,1.198-5.816,1.757c-0.051-0.24-0.109-0.479-0.161-0.721c0.343-0.098,0.688-0.197,1.027-0.298
				c0.331-0.099,0.57-0.241,0.7-0.433c0.134-0.189,0.164-0.409,0.106-0.666c-0.848-3.643-1.718-7.287-2.594-10.927
				c-0.083-0.321-0.225-0.522-0.448-0.615c-0.304-0.129-0.649-0.137-1.019-0.028c-0.289,0.085-0.582,0.168-0.872,0.253
				c-0.056-0.24-0.112-0.481-0.167-0.72C175.827,149.113,177.089,148.677,178.352,148.229z"/>
		</g>
	</g>
</g>
</svg>
