<?xml version="1.0" encoding="utf-8"?>
<!-- Generator: Adobe Illustrator 16.0.0, SVG Export Plug-In . SVG Version: 6.00 Build 0)  -->
<!DOCTYPE svg PUBLIC "-//W3C//DTD SVG 1.1//EN" "http://www.w3.org/Graphics/SVG/1.1/DTD/svg11.dtd">
<svg version="1.1" id="Livello_1" xmlns="http://www.w3.org/2000/svg" xmlns:xlink="http://www.w3.org/1999/xlink" x="0px" y="0px"
	 width="210px" height="200px" viewBox="0 0 210 200" enable-background="new 0 0 210 200" xml:space="preserve">
<g>
	<circle fill="#27A94A" cx="105" cy="100" r="84"/>
	<circle fill="#00953E" stroke="#FFFFFF" stroke-width="5" stroke-miterlimit="10" cx="105" cy="100" r="75.216"/>
	<g id="Livello_10_33_">
		<g>
			<path fill="#6AB64D" stroke="#FFFFFF" stroke-width="4" stroke-miterlimit="10" d="M73.272,72.206
				c-16.87,17.962-10.091,37.589-7.323,44.763c17.148-39.662,56.822-49.123,56.822-49.123s-50.03,35.45-55.185,79.809
				c-0.405,3.502,8.074,5.517,8.694,1.332c1.895-12.461,6.539-22.711,6.539-22.711c11.401,1.087,30.49,0.75,40.504-12.011
				c13.299-16.955,3.958-43.622,24.15-63.561C152.188,46.051,96.133,47.869,73.272,72.206z"/>
		</g>
	</g>
	<g>
		<g>
			<path fill="#47AE54" stroke="#FFFFFF" stroke-width="2" stroke-miterlimit="10" d="M194.866,144.649
				c-2.534-5.82-5.349-11.609-8.445-17.347c6.004-2.538,12.218-4.851,18.63-6.915C141.078,93.532,68.933,93.701,5.063,120.896
				c0.04,0.095,0.08,0.188,0.12,0.282c6.617,2.096,13.025,4.457,19.211,7.059c-2.898,5.432-5.546,10.909-7.941,16.414
				C73.509,120.698,137.81,120.697,194.866,144.649L194.866,144.649L194.866,144.649z"/>
		</g>
	</g>
	<g>
		<g>
			<path fill="#FFFFFF" d="M27.838,117.688c1.815-0.191,3.257-0.435,4.336-0.75c0.506-0.148,0.967-0.327,1.389-0.539
				c0.421-0.212,0.726-0.403,0.914-0.579c0.102-0.084,0.163-0.134,0.2-0.142c0.068-0.019,0.115,0.015,0.141,0.102
				c0.06,0.207-0.013,0.521-0.218,0.943c-0.203,0.421-0.536,0.809-0.992,1.156c-0.463,0.35-1.025,0.621-1.703,0.82
				c-0.785,0.23-1.745,0.406-2.9,0.529c0.252,1.146,0.504,2.29,0.761,3.435c0.427-0.376,0.854-0.688,1.274-0.938
				c0.416-0.251,0.834-0.433,1.246-0.556c1.301-0.385,2.503-0.318,3.612,0.193c1.11,0.512,1.82,1.334,2.153,2.455
				c0.367,1.242,0.21,2.394-0.456,3.453c-0.664,1.062-1.711,1.799-3.151,2.23c-1.1,0.331-2.094,0.32-2.981-0.033
				c-0.884-0.355-1.466-0.924-1.736-1.713c-0.163-0.477-0.178-0.877-0.04-1.206c0.139-0.33,0.385-0.55,0.731-0.658
				c0.344-0.106,0.659-0.09,0.947,0.05c0.286,0.14,0.482,0.377,0.591,0.707c0.084,0.25,0.092,0.461,0.033,0.633
				c-0.057,0.173-0.217,0.35-0.47,0.529c-0.249,0.186-0.354,0.343-0.311,0.472c0.064,0.187,0.229,0.358,0.493,0.523
				c0.268,0.165,0.623,0.259,1.053,0.282c0.436,0.026,0.897-0.038,1.4-0.188c0.977-0.294,1.636-0.789,1.979-1.494
				c0.344-0.703,0.326-1.684-0.059-2.935c-0.346-1.141-0.877-1.896-1.6-2.261c-0.72-0.363-1.516-0.419-2.391-0.157
				c-0.396,0.118-0.771,0.303-1.125,0.55c-0.354,0.249-0.684,0.563-0.996,0.94c0.09,0.422,0.096,0.718,0.024,0.891
				c-0.074,0.174-0.2,0.287-0.384,0.346c-0.131,0.041-0.25,0.033-0.354-0.023c-0.105-0.057-0.186-0.157-0.232-0.303
				c-0.084-0.254-0.035-0.549,0.149-0.885c0.054-0.1,0.091-0.186,0.101-0.252c-0.207-0.877-0.412-1.756-0.615-2.635
				C28.416,119.642,28.143,118.643,27.838,117.688z"/>
			<path fill="#FFFFFF" d="M42.372,113.628c1.324-0.329,2.534-0.144,3.631,0.551c1.353,0.854,2.287,2.416,2.832,4.671
				c0.502,2.097,0.433,3.796-0.197,5.103c-0.632,1.307-1.564,2.113-2.833,2.428c-1.221,0.307-2.369,0.112-3.445-0.582
				c-1.355-0.877-2.348-2.389-2.968-4.554c-0.585-2.057-0.548-3.829,0.134-5.319C40.069,114.734,41.026,113.964,42.372,113.628z
				 M42.598,114.25c-0.892,0.222-1.487,0.775-1.785,1.648c-0.297,0.874-0.124,2.486,0.522,4.831
				c0.632,2.291,1.312,3.755,2.011,4.393c0.707,0.639,1.471,0.855,2.295,0.648c0.836-0.21,1.385-0.718,1.652-1.539
				c0.316-0.974,0.197-2.587-0.363-4.832c-0.577-2.324-1.221-3.819-1.94-4.48C44.267,114.257,43.471,114.033,42.598,114.25z"/>
			<path fill="#FFFFFF" d="M53.949,111.012c1.324-0.267,2.518-0.027,3.572,0.718c1.301,0.915,2.155,2.517,2.589,4.796
				c0.405,2.116,0.249,3.811-0.434,5.086c-0.688,1.277-1.654,2.036-2.923,2.294c-1.227,0.248-2.354,0.003-3.388-0.741
				c-1.298-0.938-2.21-2.495-2.724-4.684c-0.485-2.081-0.365-3.852,0.381-5.305C51.617,112.011,52.598,111.286,53.949,111.012z
				 M54.144,111.645c-0.893,0.181-1.51,0.704-1.845,1.563c-0.336,0.861-0.235,2.476,0.293,4.848c0.52,2.316,1.119,3.81,1.785,4.479
				c0.67,0.671,1.413,0.922,2.243,0.753c0.839-0.171,1.403-0.654,1.71-1.46c0.36-0.961,0.316-2.574-0.133-4.843
				c-0.463-2.345-1.028-3.869-1.717-4.562C55.797,111.729,55.018,111.469,54.144,111.645z"/>
			<path fill="#FFFFFF" d="M74.126,112.61c0.589-0.697,1.168-1.075,1.731-1.141c0.335-0.041,0.621,0.025,0.866,0.194
				c0.242,0.167,0.38,0.393,0.414,0.671c0.025,0.224-0.029,0.419-0.16,0.583c-0.134,0.166-0.296,0.261-0.498,0.284
				c-0.38,0.045-0.658-0.139-0.845-0.546c-0.075-0.172-0.175-0.256-0.304-0.24c-0.228,0.028-0.455,0.194-0.688,0.499
				c0.332,0.321,0.566,0.607,0.705,0.858c0.138,0.251,0.227,0.528,0.264,0.829c0.066,0.529-0.017,1.008-0.241,1.445
				c-0.225,0.436-0.64,0.848-1.233,1.236c-0.596,0.39-1.188,0.622-1.765,0.702c-0.358,0.048-0.708,0.097-1.067,0.146
				c-0.76,0.106-1.245,0.251-1.475,0.432c-0.225,0.187-0.312,0.428-0.271,0.715c0.037,0.234,0.167,0.401,0.386,0.498
				c0.224,0.096,0.609,0.105,1.166,0.027c0.798-0.127,1.597-0.252,2.395-0.372c1.211-0.159,2.112-0.077,2.693,0.237
				c0.584,0.312,0.908,0.804,0.991,1.463c0.093,0.725-0.138,1.373-0.671,1.941c-0.748,0.803-1.936,1.308-3.586,1.531
				c-1.361,0.187-2.414,0.097-3.148-0.279c-0.58-0.295-0.91-0.676-0.984-1.139c-0.056-0.355,0.058-0.705,0.348-1.053
				c0.29-0.345,0.823-0.651,1.602-0.91c-0.658-0.054-1.177-0.195-1.541-0.427c-0.369-0.233-0.582-0.555-0.65-0.971
				c-0.061-0.385,0.018-0.741,0.236-1.068c0.221-0.326,0.637-0.64,1.262-0.939c-0.594-0.203-1.068-0.481-1.413-0.841
				c-0.347-0.359-0.558-0.797-0.639-1.315c-0.131-0.821,0.119-1.562,0.747-2.222c0.632-0.658,1.518-1.071,2.663-1.227
				c0.468-0.062,0.927-0.062,1.379,0.004C73.243,112.282,73.69,112.412,74.126,112.61z M73.195,120.895
				c-1.185,0.157-2.008,0.433-2.467,0.813c-0.459,0.382-0.65,0.789-0.583,1.224c0.064,0.41,0.303,0.703,0.713,0.885
				c0.545,0.244,1.273,0.297,2.188,0.173c1.095-0.148,1.895-0.424,2.402-0.84c0.507-0.414,0.739-0.832,0.686-1.254
				c-0.035-0.25-0.146-0.471-0.351-0.664c-0.2-0.191-0.5-0.32-0.894-0.386C74.493,120.78,73.931,120.797,73.195,120.895z
				 M71.476,112.8c-0.595,0.082-1.056,0.346-1.385,0.796c-0.327,0.451-0.438,1.03-0.332,1.743c0.113,0.76,0.391,1.322,0.833,1.688
				c0.441,0.365,0.956,0.508,1.545,0.429c0.588-0.081,1.043-0.349,1.365-0.805c0.328-0.456,0.433-1.066,0.334-1.829
				c-0.09-0.707-0.36-1.243-0.803-1.603C72.584,112.86,72.068,112.717,71.476,112.8z"/>
			<path fill="#FFFFFF" d="M77.744,111.697c1.12-0.178,2.237-0.344,3.362-0.507c0.116,1.149,0.228,2.3,0.344,3.45
				c0.242-1.168,0.59-2.067,1.043-2.698c0.453-0.629,1.055-0.978,1.805-1.041c0.507-0.041,0.929,0.068,1.253,0.326
				c0.324,0.256,0.51,0.625,0.547,1.099c0.03,0.382-0.049,0.69-0.231,0.917c-0.189,0.229-0.432,0.354-0.734,0.379
				c-0.294,0.025-0.546-0.047-0.743-0.213s-0.309-0.406-0.338-0.715c-0.017-0.2,0.017-0.393,0.111-0.578
				c0.086-0.167,0.127-0.265,0.124-0.296c-0.011-0.093-0.073-0.131-0.202-0.12c-0.275,0.021-0.571,0.197-0.891,0.52
				c-0.441,0.447-0.756,1.044-0.947,1.776c-0.291,1.143-0.4,2.043-0.332,2.706c0.062,0.609,0.121,1.219,0.182,1.828
				c0.02,0.206,0.115,0.358,0.279,0.451c0.164,0.096,0.438,0.123,0.812,0.091c0.387-0.036,0.772-0.069,1.156-0.103
				c0.02,0.226,0.04,0.453,0.062,0.682c-1.878,0.164-3.755,0.348-5.632,0.555c-0.023-0.227-0.05-0.454-0.078-0.681
				c0.301-0.034,0.602-0.064,0.902-0.098c0.305-0.033,0.525-0.112,0.671-0.242c0.144-0.126,0.208-0.271,0.19-0.429
				c-0.193-1.81-0.387-3.621-0.578-5.431c-0.04-0.412-0.174-0.704-0.385-0.875c-0.213-0.171-0.5-0.236-0.859-0.198
				c-0.273,0.03-0.549,0.059-0.82,0.089C77.793,112.127,77.768,111.913,77.744,111.697z"/>
			<path fill="#FFFFFF" d="M96.001,114.69c-2.204,0.084-4.409,0.199-6.614,0.344c0.121,1.3,0.445,2.201,0.966,2.707
				c0.598,0.568,1.321,0.826,2.184,0.78c1.271-0.069,2.252-0.791,2.973-2.183c0.217,0.076,0.429,0.154,0.646,0.23
				c-0.884,1.768-2.203,2.688-3.979,2.786c-1.21,0.067-2.26-0.28-3.149-1.052c-0.888-0.77-1.391-1.798-1.489-3.087
				c-0.103-1.385,0.229-2.538,1.015-3.45c0.781-0.912,1.797-1.408,3.038-1.475c0.91-0.052,1.713,0.125,2.393,0.52
				c0.685,0.396,1.202,0.989,1.567,1.772C95.805,113.136,95.954,113.837,96.001,114.69z M89.342,114.387
				c1.339-0.089,2.676-0.166,4.015-0.23c0.235-0.012,0.418-0.096,0.542-0.25c0.121-0.155,0.179-0.413,0.162-0.771
				c-0.033-0.67-0.283-1.231-0.766-1.678c-0.479-0.446-1.032-0.652-1.653-0.618c-0.693,0.039-1.27,0.356-1.715,0.953
				S89.287,113.255,89.342,114.387z"/>
			<path fill="#FFFFFF" d="M106.1,114.504c-2.207-0.002-4.41,0.021-6.617,0.076c0.065,1.305,0.35,2.219,0.851,2.743
				c0.571,0.592,1.282,0.88,2.146,0.869c1.266-0.018,2.282-0.699,3.059-2.061c0.214,0.085,0.426,0.17,0.637,0.256
				c-0.957,1.73-2.312,2.598-4.091,2.623c-1.212,0.018-2.241-0.373-3.098-1.179c-0.856-0.809-1.312-1.852-1.356-3.145
				c-0.045-1.39,0.337-2.528,1.155-3.406c0.819-0.879,1.855-1.333,3.094-1.351c0.909-0.014,1.702,0.193,2.364,0.617
				c0.667,0.423,1.161,1.036,1.492,1.834C105.967,112.943,106.089,113.65,106.1,114.504z M99.466,113.931
				c1.34-0.033,2.676-0.055,4.015-0.067c0.233-0.002,0.422-0.077,0.551-0.228c0.135-0.149,0.195-0.405,0.195-0.765
				c-0.003-0.67-0.238-1.239-0.695-1.706c-0.459-0.467-1.003-0.695-1.626-0.687c-0.695,0.012-1.28,0.306-1.75,0.883
				S99.455,112.798,99.466,113.931z"/>
			<path fill="#FFFFFF" d="M107.562,110.167c1.041-0.049,2.085-0.094,3.126-0.131c0.115,0.542,0.193,1.169,0.24,1.89
				c0.431-0.612,0.941-1.067,1.519-1.364c0.581-0.295,1.233-0.43,1.957-0.406c0.621,0.021,1.145,0.152,1.553,0.393
				c0.415,0.239,0.733,0.606,0.964,1.1c0.23,0.49,0.331,1.037,0.305,1.635c-0.067,1.389-0.132,2.776-0.2,4.164
				c-0.015,0.312,0.05,0.535,0.193,0.674c0.145,0.138,0.392,0.216,0.737,0.233c0.215,0.009,0.426,0.022,0.643,0.032
				c-0.015,0.229-0.026,0.457-0.039,0.686c-1.594-0.085-3.188-0.155-4.785-0.207c0.008-0.229,0.018-0.457,0.023-0.685
				c0.15,0.006,0.306,0.01,0.457,0.015c0.427,0.017,0.728-0.036,0.9-0.158c0.175-0.121,0.264-0.311,0.278-0.566
				c0.052-1.223,0.102-2.444,0.15-3.664c0.03-0.799-0.076-1.394-0.327-1.789c-0.347-0.562-0.908-0.856-1.668-0.881
				c-0.749-0.024-1.392,0.237-1.906,0.78c-0.512,0.542-0.781,1.258-0.8,2.148c-0.021,1.058-0.046,2.115-0.068,3.174
				c-0.005,0.312,0.065,0.536,0.214,0.667c0.148,0.137,0.401,0.206,0.748,0.216c0.21,0.005,0.422,0.011,0.632,0.016
				c-0.007,0.229-0.014,0.456-0.019,0.687c-1.602-0.045-3.203-0.072-4.806-0.086c0.002-0.229,0.003-0.457,0.007-0.686
				c0.208,0.002,0.42,0.004,0.631,0.005c0.32,0.005,0.557-0.055,0.726-0.173c0.168-0.119,0.251-0.271,0.255-0.455
				c0.027-1.842,0.056-3.688,0.084-5.532c0.006-0.366-0.102-0.646-0.313-0.837c-0.215-0.189-0.524-0.292-0.934-0.295
				c-0.158,0-0.323-0.003-0.479-0.004C107.559,110.563,107.562,110.364,107.562,110.167z"/>
			<path fill="#FFFFFF" d="M129.861,106.182c-0.388,4.123-0.783,8.243-1.188,12.366c-0.016,0.168,0.025,0.306,0.126,0.406
				c0.151,0.137,0.341,0.216,0.575,0.239c0.32,0.03,0.639,0.062,0.961,0.096c-0.024,0.229-0.049,0.454-0.071,0.682
				c-1.714-0.173-3.427-0.328-5.141-0.465c0.019-0.228,0.037-0.455,0.056-0.684c0.305,0.023,0.608,0.049,0.914,0.074
				c0.296,0.026,0.525-0.023,0.682-0.144c0.157-0.119,0.248-0.305,0.271-0.546c0.312-3.464,0.622-6.924,0.927-10.388
				c0.028-0.304-0.045-0.533-0.217-0.688c-0.233-0.216-0.533-0.341-0.902-0.368c-0.288-0.024-0.57-0.049-0.858-0.07
				c0.018-0.229,0.036-0.457,0.056-0.684C127.322,106.056,128.588,106.115,129.861,106.182z"/>
			<path fill="#FFFFFF" d="M140.482,116.947c-2.199-0.309-4.403-0.589-6.604-0.839c-0.122,1.299,0.032,2.243,0.453,2.834
				c0.482,0.665,1.153,1.048,2.014,1.156c1.265,0.159,2.372-0.378,3.345-1.617c0.199,0.114,0.398,0.23,0.598,0.342
				c-1.203,1.581-2.679,2.253-4.455,2.031c-1.207-0.152-2.18-0.68-2.914-1.596c-0.735-0.917-1.038-2.016-0.898-3.301
				c0.152-1.381,0.689-2.455,1.63-3.213s2.038-1.062,3.271-0.911c0.912,0.112,1.668,0.426,2.271,0.938
				c0.602,0.511,1.015,1.187,1.229,2.023C140.573,115.384,140.594,116.101,140.482,116.947z M133.953,115.462
				c1.337,0.153,2.673,0.314,4.008,0.488c0.239,0.031,0.43-0.018,0.584-0.148c0.15-0.132,0.256-0.374,0.302-0.73
				c0.093-0.666-0.061-1.26-0.452-1.786c-0.396-0.524-0.902-0.828-1.521-0.903c-0.697-0.088-1.322,0.127-1.869,0.633
				C134.452,113.521,134.103,114.337,133.953,115.462z"/>
			<path fill="#FFFFFF" d="M151.008,121.999c0.084,0.189,0.168,0.379,0.25,0.568c-0.557,0.363-1.122,0.487-1.696,0.386
				c-0.435-0.081-0.782-0.257-1.04-0.53c-0.26-0.275-0.45-0.712-0.572-1.31c-0.727,0.493-1.334,0.805-1.833,0.928
				c-0.503,0.124-1.071,0.133-1.722,0.029c-0.926-0.146-1.6-0.441-2.024-0.889s-0.591-0.963-0.503-1.547
				c0.137-0.881,0.811-1.529,2.025-1.938c1.218-0.406,2.782-0.554,4.692-0.421c0.075-0.427,0.153-0.853,0.229-1.28
				c0.082-0.455-0.05-0.881-0.397-1.275c-0.345-0.393-0.837-0.644-1.464-0.745c-0.577-0.097-1.097-0.066-1.551,0.082
				c-0.325,0.114-0.501,0.253-0.527,0.408c-0.015,0.092,0.041,0.245,0.17,0.461c0.154,0.271,0.217,0.503,0.184,0.688
				c-0.043,0.271-0.177,0.479-0.396,0.619c-0.218,0.14-0.486,0.188-0.793,0.141c-0.331-0.051-0.587-0.194-0.777-0.435
				c-0.187-0.238-0.258-0.517-0.209-0.837c0.092-0.596,0.547-1.087,1.367-1.468c0.821-0.378,1.842-0.47,3.048-0.271
				c1.116,0.185,1.929,0.552,2.438,1.087c0.505,0.541,0.7,1.126,0.581,1.749c-0.285,1.536-0.578,3.071-0.866,4.606
				c-0.077,0.406-0.064,0.721,0.043,0.938c0.102,0.225,0.271,0.356,0.494,0.397C150.412,122.186,150.692,122.14,151.008,121.999z
				 M148.478,117.87c-1.708-0.079-2.94,0.076-3.714,0.44c-0.577,0.278-0.915,0.751-1.025,1.414c-0.072,0.466-0.002,0.85,0.221,1.15
				c0.224,0.303,0.543,0.493,0.97,0.559c0.761,0.123,1.465-0.036,2.123-0.478c0.656-0.443,1.06-1.069,1.207-1.879
				C148.33,118.675,148.404,118.272,148.478,117.87z"/>
			<path fill="#FFFFFF" d="M153.55,114.709c1.538,0.292,3.071,0.603,4.608,0.924c-0.046,0.201-0.086,0.403-0.133,0.607
				c-0.61-0.116-1.017-0.146-1.202-0.095c-0.187,0.052-0.298,0.16-0.333,0.319c-0.028,0.132-0.021,0.271,0.016,0.414
				c0.472,1.819,0.924,3.64,1.354,5.459c1.097-1.44,2.203-2.873,3.322-4.3c0.054-0.076,0.087-0.155,0.109-0.238
				c0.102-0.434-0.315-0.811-1.242-1.127c0.044-0.204,0.094-0.403,0.139-0.607c1.289,0.282,2.582,0.574,3.874,0.876
				c-0.048,0.201-0.099,0.403-0.147,0.605c-0.4-0.057-0.738-0.033-1.005,0.067c-0.27,0.101-0.502,0.268-0.687,0.5
				c-1.696,2.104-3.366,4.22-5.008,6.352c-0.174-0.036-0.346-0.074-0.52-0.109c-0.633-2.685-1.312-5.37-2.035-8.052
				c-0.082-0.292-0.202-0.505-0.372-0.647c-0.167-0.141-0.456-0.254-0.858-0.338C153.473,115.116,153.507,114.913,153.55,114.709z"
				/>
			<path fill="#FFFFFF" d="M172.499,123.578c-2.188-0.602-4.37-1.173-6.565-1.712c-0.295,1.272-0.275,2.231,0.072,2.873
				c0.401,0.723,1.021,1.189,1.876,1.413c1.256,0.327,2.449-0.06,3.604-1.158c0.187,0.138,0.373,0.278,0.559,0.417
				c-1.436,1.409-3.021,1.878-4.786,1.424c-1.202-0.311-2.108-0.963-2.724-1.97c-0.617-1.005-0.771-2.136-0.456-3.392
				c0.34-1.35,1.026-2.343,2.078-2.972c1.05-0.63,2.196-0.784,3.428-0.47c0.901,0.231,1.632,0.646,2.172,1.23
				c0.543,0.589,0.865,1.312,0.972,2.172C172.803,122.038,172.728,122.752,172.499,123.578z M166.098,121.237
				c1.329,0.327,2.657,0.665,3.984,1.016c0.238,0.062,0.439,0.039,0.609-0.069c0.176-0.112,0.309-0.339,0.406-0.686
				c0.182-0.647,0.111-1.259-0.217-1.831c-0.328-0.573-0.805-0.94-1.418-1.098c-0.693-0.179-1.351-0.05-1.974,0.379
				C166.862,119.378,166.401,120.143,166.098,121.237z"/>
			<path fill="#FFFFFF" d="M174.727,125.24c0.094,1.128,0.332,1.959,0.728,2.498c0.394,0.54,0.964,0.922,1.722,1.146
				c0.697,0.209,1.278,0.237,1.744,0.075c0.467-0.161,0.772-0.452,0.914-0.877c0.084-0.245,0.085-0.478,0.004-0.705
				c-0.075-0.225-0.224-0.42-0.44-0.588c-0.214-0.164-0.81-0.492-1.789-0.976c-0.931-0.47-1.562-0.854-1.895-1.158
				c-0.331-0.307-0.559-0.658-0.671-1.062c-0.115-0.402-0.114-0.8,0.005-1.2c0.18-0.602,0.572-1.086,1.178-1.447
				c0.78-0.455,1.704-0.532,2.768-0.216c0.813,0.238,1.486,0.69,2.032,1.349c0.283-0.137,0.568-0.271,0.855-0.407
				c0.137,0.041,0.273,0.082,0.409,0.126c-0.233,0.996-0.47,1.995-0.71,2.991c-0.22-0.067-0.438-0.137-0.657-0.205
				c-0.015-0.916-0.212-1.629-0.591-2.145c-0.379-0.513-0.938-0.883-1.662-1.097c-0.633-0.187-1.168-0.196-1.607-0.026
				c-0.439,0.166-0.719,0.449-0.84,0.842c-0.107,0.344-0.027,0.68,0.229,1c0.249,0.327,0.826,0.693,1.715,1.108
				c1.035,0.486,1.699,0.843,1.984,1.052c0.478,0.34,0.8,0.738,0.972,1.19c0.171,0.455,0.162,0.943-0.013,1.466
				c-0.243,0.717-0.768,1.229-1.558,1.531c-0.794,0.305-1.665,0.312-2.621,0.025c-0.888-0.266-1.627-0.775-2.221-1.535
				c-0.311,0.179-0.62,0.356-0.931,0.535c-0.171-0.049-0.336-0.095-0.508-0.146c0.273-1.107,0.539-2.221,0.803-3.33
				C174.293,125.115,174.511,125.179,174.727,125.24z"/>
		</g>
	</g>
</g>
</svg>
