<?xml version="1.0" encoding="utf-8"?>
<!-- Generator: Adobe Illustrator 16.0.0, SVG Export Plug-In . SVG Version: 6.00 Build 0)  -->
<!DOCTYPE svg PUBLIC "-//W3C//DTD SVG 1.1//EN" "http://www.w3.org/Graphics/SVG/1.1/DTD/svg11.dtd">
<svg version="1.1" id="Livello_1" xmlns="http://www.w3.org/2000/svg" xmlns:xlink="http://www.w3.org/1999/xlink" x="0px" y="0px"
	 width="210px" height="260px" viewBox="0 0 210 260" enable-background="new 0 0 210 260" xml:space="preserve">
<circle fill="#D5584C" cx="42.205" cy="62.528" r="6.378"/>
<circle fill="#6AB64D" cx="42.205" cy="62.528" r="6.378"/>
<g>
	<path fill="#00953E" d="M91.213,71.068c-1.084,3.725-4.982,5.865-8.707,4.781l-13.072-3.807c-3.725-1.084-5.867-4.982-4.781-8.707
		l3.805-13.072c1.084-3.725,4.982-5.865,8.707-4.781l13.074,3.805c3.725,1.084,5.863,4.982,4.781,8.707L91.213,71.068z"/>
	<path fill="#00953E" d="M148.668,66.121c0.975,3.756-1.279,7.59-5.033,8.564l-13.18,3.42c-3.754,0.975-7.59-1.277-8.562-5.033
		l-3.422-13.18c-0.975-3.754,1.279-7.588,5.033-8.564l13.18-3.42c3.756-0.975,7.588,1.279,8.564,5.035L148.668,66.121z"/>
	<path fill="#6AB64D" d="M157.879,65.457h-25.383c-0.336-0.568-0.801-1.176-1.373-1.766l-22.73-23.391
		c-1.586-1.633-3.359-2.48-3.965-1.893L76.592,65.457H51.104c-2.275,0-4.119,1.844-4.119,4.121l11.33,32.615
		c0,2.275,1.844,4.119,4.119,4.119h86.52c2.273,0,4.119-1.844,4.119-4.119L162,69.578C162,67.301,160.154,65.457,157.879,65.457z"/>
	<path fill="#00953E" d="M66.703,33.029c-2.867,0-5.191,2.324-5.191,5.193c0,2.867,2.324,5.191,5.191,5.191
		c2.871,0,5.195-2.324,5.195-5.191C71.898,35.354,69.574,33.029,66.703,33.029z"/>
	<circle fill="#00953E" cx="148.895" cy="42.249" r="5.192"/>
	<circle fill="#6AB64D" cx="168.377" cy="60.665" r="6.378"/>
	<polygon fill="#6AB64D" points="105.254,41.865 110.498,27.984 120.359,24.717 110.498,21.453 105.254,7.572 100.01,21.453 
		90.148,24.717 100.01,27.984 	"/>
	<circle fill="#27A94A" cx="104.57" cy="168.428" r="84"/>
	<circle fill="#00953E" stroke="#FFFFFF" stroke-width="5" stroke-miterlimit="10" cx="104.57" cy="168.428" r="75.216"/>
	<g id="Livello_10_35_">
		<g>
			<path fill="#6AB64D" stroke="#FFFFFF" stroke-width="4" stroke-miterlimit="10" d="M72.843,140.634
				c-16.87,17.962-10.091,37.589-7.323,44.763c17.148-39.662,56.822-49.123,56.822-49.123s-50.03,35.45-55.185,79.809
				c-0.405,3.502,8.074,5.517,8.694,1.332c1.895-12.461,6.539-22.711,6.539-22.711c11.401,1.087,30.49,0.75,40.504-12.011
				c13.299-16.955,3.958-43.622,24.15-63.561C151.759,114.479,95.703,116.297,72.843,140.634z"/>
		</g>
	</g>
	<g>
		<g>
			<path fill="#47AE54" stroke="#FFFFFF" stroke-width="2" stroke-miterlimit="10" d="M192.356,211.23
				c-2.534-5.82-5.349-11.609-8.445-17.346c6.004-2.539,12.218-4.852,18.63-6.916c-63.973-26.855-136.117-26.687-199.987,0.509
				c0.04,0.094,0.08,0.188,0.12,0.282c6.617,2.096,13.025,4.457,19.211,7.059c-2.898,5.432-5.547,10.908-7.941,16.414
				C70.999,187.279,135.299,187.278,192.356,211.23L192.356,211.23L192.356,211.23z"/>
		</g>
	</g>
	<g>
		<g>
			<path fill="#FFFFFF" d="M22.308,184.814c2.281-0.724,4.568-1.414,6.853-2.074c0.067,0.219,0.132,0.438,0.199,0.659
				c-0.486,0.141-0.968,0.279-1.456,0.425c-0.308,0.091-0.526,0.23-0.652,0.422s-0.151,0.393-0.085,0.609
				c0.629,2.004,1.262,4.007,1.901,6.008c1.267-2.28,2.59-4.55,3.95-6.81c0.23-0.396,0.316-0.728,0.235-0.997
				c-0.06-0.208-0.218-0.344-0.478-0.412c-0.258-0.068-0.64-0.031-1.149,0.11c-0.14,0.039-0.277,0.077-0.415,0.116
				c-0.064-0.22-0.129-0.44-0.193-0.66c2.054-0.576,4.112-1.13,6.167-1.655c0.059,0.221,0.117,0.444,0.176,0.663
				c-0.157,0.041-0.316,0.083-0.476,0.124c-0.412,0.105-0.837,0.329-1.271,0.671c-0.435,0.344-0.809,0.756-1.118,1.247
				c-0.857,1.361-1.693,2.728-2.515,4.098c2.259,1.656,4.479,3.342,6.662,5.054c0.364,0.287,0.708,0.473,1.034,0.549
				c0.322,0.078,0.678,0.065,1.065-0.033c0.175-0.045,0.345-0.089,0.521-0.133c0.062,0.221,0.123,0.443,0.18,0.664
				c-2.134,0.542-4.272,1.112-6.4,1.712c-0.068-0.219-0.13-0.438-0.2-0.658c0.246-0.069,0.487-0.137,0.731-0.204
				c0.536-0.149,0.873-0.288,1.026-0.418c0.151-0.13,0.209-0.257,0.173-0.379c-0.031-0.112-0.102-0.213-0.211-0.304
				c-1.829-1.401-3.684-2.786-5.564-4.149c-0.543,0.948-1.073,1.896-1.597,2.848c0.341,1.061,0.682,2.121,1.024,3.182
				c0.063,0.2,0.17,0.324,0.333,0.38c0.247,0.079,0.517,0.079,0.798-0.007c0.459-0.137,0.923-0.272,1.383-0.405
				c0.068,0.221,0.139,0.438,0.205,0.658c-2.156,0.623-4.314,1.281-6.467,1.964c-0.077-0.215-0.148-0.435-0.227-0.65
				c0.415-0.134,0.83-0.262,1.248-0.393c0.316-0.1,0.535-0.233,0.65-0.4c0.112-0.167,0.137-0.347,0.074-0.537
				c-1.145-3.432-2.275-6.866-3.386-10.303c-0.069-0.203-0.208-0.334-0.427-0.391c-0.217-0.058-0.54-0.02-0.975,0.114
				c-0.368,0.114-0.743,0.233-1.112,0.35C22.457,185.251,22.381,185.033,22.308,184.814z"/>
			<path fill="#FFFFFF" d="M39.393,185.118c1.23-0.348,2.459-0.682,3.693-1.009c0.592,2.388,1.189,4.776,1.795,7.164
				c0.051,0.197,0.135,0.322,0.26,0.38c0.177,0.084,0.381,0.101,0.605,0.046c0.342-0.079,0.683-0.159,1.023-0.236
				c0.052,0.223,0.108,0.443,0.164,0.667c-1.712,0.394-3.419,0.807-5.125,1.236c-0.062-0.221-0.119-0.442-0.18-0.663
				c0.318-0.082,0.636-0.159,0.954-0.239c0.281-0.07,0.476-0.185,0.571-0.345c0.101-0.16,0.116-0.36,0.053-0.603
				c-0.451-1.744-0.909-3.49-1.354-5.236c-0.085-0.33-0.255-0.555-0.509-0.671c-0.258-0.118-0.593-0.124-1.01-0.021
				c-0.252,0.063-0.511,0.129-0.766,0.192C39.509,185.56,39.45,185.339,39.393,185.118z M40.737,179.51
				c0.303-0.072,0.599-0.035,0.878,0.11c0.278,0.145,0.453,0.356,0.52,0.629c0.066,0.267,0.009,0.524-0.163,0.772
				c-0.173,0.249-0.418,0.41-0.727,0.484c-0.31,0.077-0.603,0.043-0.876-0.1c-0.277-0.144-0.451-0.348-0.518-0.614
				c-0.069-0.268-0.008-0.526,0.166-0.786C40.199,179.748,40.437,179.584,40.737,179.51z"/>
			<path fill="#FFFFFF" d="M46.004,183.537c1.022-0.291,2.046-0.574,3.066-0.852c0.244,0.498,0.474,1.092,0.687,1.783
				c0.282-0.696,0.675-1.259,1.179-1.678c0.507-0.421,1.113-0.705,1.838-0.849c0.616-0.122,1.165-0.114,1.625,0.024
				c0.463,0.14,0.867,0.42,1.212,0.847c0.344,0.425,0.569,0.934,0.685,1.52c0.266,1.365,0.537,2.731,0.803,4.098
				c0.06,0.308,0.18,0.509,0.352,0.61c0.176,0.101,0.433,0.118,0.783,0.056c0.211-0.04,0.428-0.077,0.638-0.115
				c0.039,0.225,0.086,0.45,0.129,0.673c-1.591,0.286-3.177,0.588-4.766,0.905c-0.047-0.224-0.095-0.448-0.143-0.671
				c0.151-0.03,0.304-0.061,0.454-0.091c0.428-0.085,0.711-0.204,0.852-0.363c0.142-0.159,0.189-0.364,0.137-0.614
				c-0.245-1.199-0.485-2.4-0.729-3.599c-0.159-0.782-0.407-1.34-0.748-1.665c-0.48-0.465-1.097-0.623-1.856-0.472
				c-0.75,0.151-1.317,0.552-1.699,1.199c-0.381,0.646-0.472,1.407-0.277,2.276c0.229,1.033,0.459,2.068,0.693,3.102
				c0.069,0.305,0.191,0.504,0.372,0.601c0.185,0.097,0.445,0.106,0.792,0.036c0.21-0.043,0.421-0.088,0.629-0.131
				c0.049,0.223,0.098,0.447,0.146,0.672c-1.591,0.326-3.187,0.67-4.777,1.029c-0.052-0.223-0.107-0.446-0.16-0.67
				c0.21-0.048,0.417-0.093,0.629-0.14c0.312-0.071,0.538-0.184,0.676-0.339c0.133-0.153,0.186-0.322,0.143-0.499
				c-0.418-1.801-0.831-3.601-1.244-5.401c-0.083-0.356-0.251-0.604-0.508-0.741c-0.259-0.138-0.591-0.161-0.996-0.069
				c-0.157,0.035-0.316,0.07-0.478,0.105C46.093,183.923,46.048,183.73,46.004,183.537z"/>
			<path fill="#FFFFFF" d="M65.762,180.354c0.574-0.708,1.146-1.101,1.707-1.179c0.337-0.046,0.628,0.012,0.873,0.175
				c0.25,0.165,0.391,0.385,0.43,0.662c0.031,0.223-0.018,0.419-0.147,0.587c-0.131,0.17-0.293,0.267-0.491,0.295
				c-0.38,0.053-0.663-0.125-0.859-0.527c-0.081-0.174-0.182-0.252-0.309-0.234c-0.227,0.032-0.453,0.205-0.679,0.515
				c0.339,0.314,0.58,0.595,0.725,0.844c0.146,0.247,0.236,0.521,0.282,0.822c0.075,0.527,0.009,1.009-0.209,1.45
				c-0.215,0.44-0.617,0.861-1.207,1.263c-0.588,0.403-1.174,0.65-1.754,0.741c-0.359,0.055-0.713,0.111-1.066,0.169
				c-0.756,0.123-1.25,0.278-1.467,0.463c-0.22,0.19-0.308,0.432-0.255,0.72c0.041,0.234,0.173,0.398,0.396,0.49
				c0.224,0.093,0.616,0.094,1.171,0.003c0.798-0.146,1.594-0.287,2.392-0.424c1.216-0.186,2.116-0.124,2.705,0.178
				c0.59,0.303,0.933,0.784,1.027,1.441c0.104,0.724-0.106,1.376-0.629,1.955c-0.731,0.818-1.91,1.351-3.56,1.611
				c-1.361,0.215-2.419,0.148-3.163-0.213c-0.588-0.284-0.924-0.652-1.014-1.117c-0.064-0.354,0.045-0.708,0.325-1.06
				c0.285-0.352,0.811-0.67,1.585-0.945c-0.66-0.038-1.182-0.17-1.555-0.393c-0.372-0.225-0.597-0.542-0.673-0.958
				c-0.068-0.384-0.001-0.74,0.212-1.071c0.214-0.331,0.626-0.655,1.245-0.967c-0.605-0.192-1.083-0.46-1.436-0.812
				c-0.353-0.353-0.579-0.785-0.67-1.303c-0.148-0.814,0.084-1.563,0.7-2.235c0.617-0.672,1.502-1.104,2.641-1.283
				c0.469-0.072,0.928-0.082,1.382-0.027C64.87,180.047,65.318,180.164,65.762,180.354z M65.015,188.657
				c-1.187,0.183-2.001,0.476-2.453,0.866s-0.639,0.802-0.559,1.234c0.075,0.408,0.316,0.7,0.735,0.871
				c0.549,0.23,1.287,0.271,2.199,0.125c1.092-0.172,1.889-0.466,2.389-0.892c0.5-0.425,0.725-0.849,0.657-1.27
				c-0.038-0.247-0.161-0.465-0.365-0.655c-0.203-0.189-0.507-0.312-0.905-0.366C66.318,188.516,65.749,188.544,65.015,188.657z
				 M63.109,180.6c-0.595,0.093-1.055,0.371-1.37,0.825c-0.317,0.457-0.416,1.041-0.295,1.752c0.132,0.757,0.42,1.313,0.874,1.67
				c0.454,0.355,0.973,0.485,1.558,0.395c0.592-0.093,1.036-0.37,1.351-0.835s0.412-1.074,0.294-1.834
				c-0.109-0.703-0.39-1.234-0.842-1.585C64.224,180.636,63.705,180.508,63.109,180.6z"/>
			<path fill="#FFFFFF" d="M79.624,177.953c1.267-0.116,2.363,0.209,3.289,0.971c0.924,0.762,1.427,1.823,1.534,3.18
				c0.072,0.934-0.054,1.748-0.375,2.437c-0.32,0.688-0.814,1.251-1.465,1.69c-0.658,0.441-1.377,0.695-2.17,0.769
				c-1.173,0.108-2.211-0.212-3.121-0.961c-0.91-0.751-1.449-1.79-1.6-3.122c-0.151-1.339,0.146-2.475,0.9-3.399
				C77.372,178.59,78.379,178.066,79.624,177.953z M79.685,178.599c-0.747,0.069-1.335,0.437-1.747,1.101
				c-0.418,0.664-0.555,1.66-0.411,2.988c0.14,1.354,0.479,2.318,1.011,2.896c0.528,0.579,1.153,0.833,1.886,0.766
				c0.755-0.068,1.341-0.436,1.755-1.101c0.414-0.667,0.564-1.709,0.445-3.131c-0.113-1.318-0.43-2.253-0.953-2.802
				C81.142,178.767,80.479,178.526,79.685,178.599z"/>
			<path fill="#FFFFFF" d="M88.695,177.535c0.781-0.044,1.562-0.087,2.349-0.122c0.015,0.265,0.022,0.528,0.038,0.794
				c-0.779,0.035-1.562,0.077-2.341,0.122c0.12,2.081,0.242,4.164,0.366,6.245c0.014,0.287,0.098,0.483,0.249,0.591
				c0.204,0.142,0.479,0.203,0.829,0.185c0.416-0.021,0.832-0.042,1.244-0.062c0.014,0.229,0.023,0.457,0.035,0.686
				c-1.856,0.088-3.709,0.197-5.562,0.327c-0.017-0.229-0.036-0.455-0.05-0.685c0.256-0.019,0.513-0.034,0.767-0.053
				c0.347-0.023,0.579-0.094,0.709-0.211c0.126-0.119,0.187-0.293,0.17-0.523c-0.14-2.134-0.278-4.266-0.417-6.4
				c-0.537,0.034-1.08,0.07-1.62,0.107c-0.02-0.265-0.036-0.525-0.056-0.793c0.544-0.038,1.082-0.072,1.625-0.107
				c-0.016-0.218-0.028-0.433-0.042-0.648c-0.095-1.505,0.172-2.679,0.827-3.512c0.652-0.833,1.499-1.279,2.537-1.33
				c0.77-0.04,1.379,0.103,1.826,0.419c0.448,0.317,0.678,0.747,0.701,1.29c0.014,0.353-0.078,0.636-0.276,0.849
				c-0.2,0.213-0.452,0.324-0.772,0.339c-0.282,0.013-0.522-0.058-0.715-0.214c-0.199-0.156-0.295-0.359-0.31-0.608
				c-0.011-0.285,0.096-0.527,0.333-0.721c0.188-0.155,0.288-0.27,0.281-0.344c-0.004-0.102-0.086-0.191-0.242-0.271
				c-0.155-0.079-0.383-0.109-0.693-0.096c-0.577,0.028-1.053,0.285-1.423,0.766c-0.373,0.48-0.531,1.175-0.478,2.084
				C88.623,176.269,88.658,176.901,88.695,177.535z"/>
			<path fill="#FFFFFF" d="M100.479,173.642c0.227-0.002,0.457-0.004,0.683-0.007c0.011,1.166,0.019,2.329,0.03,3.494
				c1.015-0.007,2.028-0.011,3.039-0.007c0,0.28-0.002,0.562-0.002,0.841c-1.011-0.004-2.021,0-3.032,0.007
				c0.015,1.832,0.03,3.665,0.047,5.497c0.005,0.476,0.134,0.839,0.37,1.09c0.241,0.252,0.549,0.375,0.917,0.375
				c0.44-0.002,0.815-0.191,1.131-0.576c0.314-0.384,0.496-1.017,0.551-1.901c0.221,0,0.439,0.005,0.657,0.002
				c-0.045,1.14-0.324,1.985-0.842,2.536c-0.512,0.551-1.178,0.824-1.989,0.829c-0.75,0.005-1.333-0.182-1.765-0.566
				c-0.427-0.383-0.651-0.887-0.659-1.514c-0.03-1.919-0.061-3.835-0.088-5.752c-0.542,0.009-1.089,0.019-1.63,0.029
				c-0.006-0.214-0.011-0.426-0.014-0.639c0.742-0.132,1.303-0.425,1.688-0.881C100.139,175.813,100.445,174.863,100.479,173.642z"
				/>
			<path fill="#FFFFFF" d="M105.846,172.174c1.214-0.038,2.421-0.071,3.635-0.095c-0.05,2.2-0.102,4.401-0.156,6.601
				c0.509-0.572,1.052-0.998,1.627-1.269c0.578-0.272,1.188-0.399,1.821-0.374c0.605,0.021,1.142,0.176,1.61,0.457
				c0.365,0.222,0.668,0.6,0.906,1.131c0.239,0.529,0.338,1.147,0.304,1.854c-0.067,1.354-0.132,2.711-0.203,4.065
				c-0.011,0.262,0.05,0.455,0.186,0.581c0.135,0.126,0.357,0.195,0.661,0.212c0.26,0.014,0.518,0.026,0.777,0.042
				c-0.012,0.229-0.028,0.456-0.039,0.685c-1.633-0.089-3.271-0.164-4.904-0.221c0.008-0.228,0.016-0.456,0.025-0.686
				c0.18,0.006,0.362,0.013,0.545,0.02c0.414,0.015,0.703-0.035,0.868-0.153c0.168-0.119,0.254-0.303,0.262-0.552
				c0.061-1.355,0.116-2.711,0.177-4.067c0.024-0.713-0.135-1.276-0.493-1.69c-0.36-0.414-0.833-0.633-1.421-0.652
				c-0.457-0.015-0.895,0.085-1.291,0.299c-0.396,0.213-0.742,0.548-1.025,1.001c-0.287,0.451-0.428,0.938-0.443,1.449
				c-0.026,1.141-0.055,2.28-0.082,3.419c-0.009,0.306,0.055,0.522,0.187,0.654c0.134,0.131,0.358,0.2,0.667,0.209
				c0.264,0.008,0.521,0.016,0.778,0.023c-0.006,0.228-0.014,0.457-0.021,0.685c-1.601-0.048-3.2-0.081-4.798-0.097
				c0.001-0.229,0.004-0.457,0.007-0.686c0.181,0,0.362,0.005,0.544,0.005c0.37,0.006,0.63-0.059,0.792-0.194
				c0.155-0.135,0.239-0.342,0.243-0.631c0.058-3.409,0.123-6.814,0.18-10.225c0.006-0.363-0.096-0.642-0.307-0.823
				c-0.214-0.183-0.521-0.278-0.929-0.283c-0.23-0.003-0.465-0.004-0.695-0.008C105.84,172.631,105.84,172.403,105.846,172.174z"/>
			<path fill="#FFFFFF" d="M126.994,182.571c-2.203-0.207-4.406-0.384-6.613-0.533c-0.058,1.305,0.137,2.241,0.587,2.811
				c0.513,0.642,1.2,0.993,2.06,1.062c1.267,0.101,2.347-0.488,3.252-1.772c0.205,0.106,0.41,0.21,0.612,0.314
				c-1.121,1.636-2.557,2.375-4.339,2.236c-1.21-0.092-2.204-0.577-2.979-1.459c-0.776-0.883-1.133-1.966-1.051-3.255
				c0.085-1.388,0.573-2.486,1.474-3.286c0.895-0.801,1.976-1.155,3.213-1.06c0.911,0.07,1.683,0.351,2.304,0.831
				c0.625,0.482,1.064,1.139,1.318,1.964C127.011,181.004,127.063,181.723,126.994,182.571z M120.426,181.391
				c1.34,0.092,2.678,0.189,4.014,0.302c0.237,0.021,0.429-0.039,0.572-0.177c0.142-0.136,0.237-0.386,0.266-0.743
				c0.064-0.669-0.115-1.257-0.532-1.762c-0.419-0.504-0.938-0.784-1.559-0.832c-0.696-0.055-1.306,0.187-1.829,0.718
				C120.834,179.429,120.524,180.26,120.426,181.391z"/>
			<path fill="#FFFFFF" d="M134.433,179.001c1.376,0.166,2.747,0.343,4.12,0.531c-0.031,0.209-0.058,0.418-0.089,0.625
				c-0.179-0.024-0.358-0.048-0.54-0.073c-0.264-0.036-0.458-0.023-0.584,0.037c-0.125,0.061-0.191,0.153-0.211,0.282
				c-0.019,0.132-0.004,0.279,0.041,0.438c0.483,1.694,0.946,3.388,1.399,5.085c0.821-1.434,1.646-2.866,2.485-4.292
				c-0.176-0.525-0.355-0.857-0.531-1.006c-0.174-0.146-0.503-0.253-0.991-0.323c0.032-0.207,0.059-0.417,0.089-0.624
				c1.511,0.215,3.022,0.441,4.533,0.682c-0.036,0.209-0.065,0.415-0.104,0.623c-0.124-0.02-0.252-0.041-0.379-0.061
				c-0.348-0.055-0.588-0.051-0.734,0.01c-0.145,0.062-0.229,0.164-0.249,0.309c-0.019,0.109-0.004,0.241,0.03,0.395
				c0.45,1.705,0.888,3.411,1.306,5.119c0.794-1.327,1.591-2.651,2.399-3.972c0.164-0.261,0.261-0.494,0.297-0.691
				c0.035-0.198-0.027-0.366-0.178-0.505c-0.156-0.136-0.469-0.256-0.946-0.353c0.033-0.206,0.072-0.415,0.106-0.621
				c1.217,0.2,2.434,0.411,3.65,0.63c-0.041,0.207-0.078,0.414-0.117,0.621c-0.466-0.016-0.828,0.05-1.097,0.199
				c-0.269,0.148-0.515,0.403-0.745,0.766c-1.31,2.117-2.597,4.243-3.861,6.378c-0.189-0.033-0.379-0.062-0.568-0.093
				c-0.513-2.107-1.05-4.214-1.611-6.318c-1.09,1.857-2.156,3.722-3.209,5.592c-0.186-0.025-0.371-0.053-0.56-0.078
				c-0.716-2.647-1.476-5.297-2.271-7.941c-0.078-0.248-0.175-0.422-0.298-0.521c-0.122-0.098-0.343-0.173-0.662-0.224
				C134.381,179.418,134.407,179.206,134.433,179.001z"/>
			<path fill="#FFFFFF" d="M158.332,187.478c-2.193-0.484-4.389-0.937-6.586-1.361c-0.227,1.287-0.148,2.239,0.224,2.861
				c0.436,0.701,1.079,1.136,1.933,1.313c1.262,0.259,2.426-0.188,3.504-1.348c0.192,0.128,0.383,0.26,0.576,0.39
				c-1.346,1.481-2.888,2.032-4.659,1.671c-1.206-0.244-2.136-0.85-2.803-1.821c-0.667-0.974-0.88-2.092-0.633-3.363
				c0.265-1.366,0.896-2.393,1.901-3.074c1.004-0.682,2.137-0.899,3.367-0.648c0.908,0.183,1.649,0.56,2.213,1.114
				c0.566,0.559,0.926,1.265,1.076,2.115C158.549,185.927,158.511,186.64,158.332,187.478z M151.874,185.479
				c1.335,0.258,2.663,0.526,3.997,0.805c0.235,0.05,0.438,0.017,0.6-0.102c0.164-0.118,0.286-0.354,0.364-0.706
				c0.147-0.654,0.044-1.261-0.31-1.815c-0.355-0.553-0.845-0.897-1.462-1.021c-0.694-0.141-1.342,0.022-1.933,0.482
				C152.537,183.582,152.12,184.37,151.874,185.479z"/>
			<path fill="#FFFFFF" d="M168.363,189.896c-2.188-0.574-4.379-1.117-6.57-1.632c-0.281,1.273-0.246,2.232,0.105,2.87
				c0.406,0.718,1.033,1.181,1.888,1.392c1.26,0.31,2.448-0.087,3.585-1.203c0.186,0.138,0.374,0.274,0.562,0.412
				c-1.417,1.425-2.995,1.911-4.761,1.479c-1.202-0.293-2.113-0.937-2.74-1.936c-0.628-0.998-0.793-2.126-0.495-3.387
				c0.325-1.354,0.997-2.356,2.041-2.995c1.042-0.64,2.187-0.812,3.414-0.511c0.91,0.222,1.637,0.625,2.181,1.205
				c0.544,0.581,0.881,1.302,0.995,2.158C168.651,188.352,168.578,189.068,168.363,189.896z M161.949,187.634
				c1.33,0.312,2.659,0.633,3.988,0.968c0.234,0.059,0.437,0.032,0.607-0.078c0.172-0.112,0.302-0.339,0.396-0.688
				c0.174-0.65,0.097-1.259-0.236-1.829c-0.335-0.57-0.812-0.931-1.428-1.081c-0.691-0.169-1.349-0.034-1.964,0.403
				C162.689,185.765,162.242,186.534,161.949,187.634z"/>
			<path fill="#FFFFFF" d="M172.148,181.254c1.227,0.273,2.459,0.557,3.681,0.848c-0.88,2.999-1.772,5.996-2.676,8.992
				c1.228-0.496,2.465-0.983,3.709-1.463c0.359-0.143,0.57-0.299,0.62-0.466c0.049-0.147-0.004-0.284-0.15-0.417
				c-0.221-0.19-0.619-0.381-1.195-0.559c0.066-0.203,0.125-0.41,0.188-0.614c1.648,0.48,3.308,0.978,4.959,1.49
				c-0.066,0.202-0.135,0.406-0.201,0.61c-0.993-0.257-1.813-0.256-2.458-0.005c-0.889,0.341-1.771,0.688-2.648,1.038
				c0.702,1.737,1.381,3.478,2.038,5.218c0.124,0.313,0.43,0.55,0.938,0.706c0.169,0.053,0.33,0.104,0.499,0.156
				c-0.074,0.219-0.146,0.434-0.224,0.652c-1.631-0.514-3.265-1.01-4.9-1.49c0.07-0.218,0.14-0.436,0.207-0.655
				c0.163,0.048,0.33,0.094,0.492,0.144c0.364,0.107,0.618,0.15,0.762,0.13c0.143-0.02,0.227-0.072,0.254-0.153
				c0.031-0.082,0.025-0.172-0.016-0.273c-0.482-1.285-0.979-2.57-1.488-3.855c-0.553,0.225-1.102,0.45-1.649,0.677
				c-0.206,0.695-0.42,1.39-0.631,2.082c-0.051,0.172-0.026,0.314,0.068,0.431c0.142,0.158,0.362,0.284,0.671,0.373
				c0.21,0.06,0.418,0.12,0.625,0.18c-0.066,0.22-0.137,0.439-0.205,0.657c-1.609-0.464-3.219-0.913-4.827-1.346
				c0.062-0.219,0.129-0.439,0.191-0.66c0.261,0.072,0.52,0.14,0.78,0.211c0.32,0.085,0.576,0.09,0.767,0.009
				s0.318-0.223,0.377-0.43c1.006-3.392,1.996-6.785,2.971-10.178c0.076-0.267,0.032-0.485-0.126-0.663
				c-0.23-0.254-0.59-0.444-1.071-0.574c-0.171-0.047-0.343-0.093-0.516-0.14C172.023,181.694,172.086,181.475,172.148,181.254z"/>
		</g>
	</g>
</g>
</svg>
