<?xml version="1.0" encoding="utf-8"?>
<!-- Generator: Adobe Illustrator 16.0.4, SVG Export Plug-In . SVG Version: 6.00 Build 0)  -->
<!DOCTYPE svg PUBLIC "-//W3C//DTD SVG 1.1//EN" "http://www.w3.org/Graphics/SVG/1.1/DTD/svg11.dtd">
<svg version="1.1" id="Livello_1" xmlns="http://www.w3.org/2000/svg" xmlns:xlink="http://www.w3.org/1999/xlink" x="0px" y="0px"
	 width="210px" height="200px" viewBox="0 0 210 200" enable-background="new 0 0 210 200" xml:space="preserve">
<g>
	<g>
		<circle fill="#27A94A" cx="105" cy="100" r="84"/>
		<circle fill="#00953E" stroke="#FFFFFF" stroke-width="5" stroke-miterlimit="10" cx="105" cy="100" r="75.216"/>
		<g id="Livello_10_4_">
			<g>
				<path fill="#6AB64D" stroke="#FFFFFF" stroke-width="4" stroke-miterlimit="10" d="M73.273,72.206
					c-16.871,17.962-10.092,37.589-7.324,44.763c17.148-39.662,56.822-49.123,56.822-49.123s-50.029,35.45-55.184,79.809
					c-0.406,3.502,8.074,5.517,8.693,1.332c1.895-12.461,6.539-22.711,6.539-22.711c11.402,1.087,30.49,0.75,40.504-12.011
					c13.299-16.955,3.959-43.622,24.15-63.561C152.189,46.051,96.133,47.869,73.273,72.206z"/>
			</g>
		</g>
	</g>
	<g>
		<g>
			<path fill="#47AE54" stroke="#FFFFFF" stroke-width="2" stroke-miterlimit="10" d="M194.768,148.899
				c-2.534-5.82-5.349-11.609-8.445-17.347c6.004-2.538,12.219-4.851,18.63-6.915C140.979,97.782,68.834,97.951,4.965,125.146
				c0.04,0.094,0.08,0.188,0.12,0.282c6.617,2.096,13.025,4.457,19.212,7.059c-2.9,5.431-5.547,10.909-7.942,16.413
				C73.41,124.948,137.71,124.947,194.768,148.899L194.768,148.899L194.768,148.899z"/>
		</g>
	</g>
	<g>
		<g>
			<path fill="#FFFFFF" d="M23.696,123.25c1.233-0.465,2.245-0.928,3.037-1.392c0.794-0.466,1.572-1.036,2.339-1.709
				c0.293-0.086,0.588-0.17,0.879-0.256c1.268,4.207,2.559,8.41,3.873,12.61c0.077,0.247,0.216,0.414,0.406,0.505
				c0.196,0.091,0.421,0.099,0.689,0.021c0.703-0.201,1.409-0.399,2.111-0.594c0.096,0.319,0.193,0.639,0.288,0.96
				c-2.931,0.812-5.855,1.679-8.775,2.6c-0.109-0.316-0.219-0.633-0.326-0.95c0.552-0.173,1.102-0.346,1.653-0.515
				c0.424-0.133,0.694-0.305,0.82-0.528c0.121-0.223,0.119-0.522-0.006-0.905c-1.016-3.105-2.021-6.211-3.013-9.318
				c-0.07-0.218-0.199-0.362-0.395-0.432c-0.193-0.07-0.444-0.058-0.755,0.039c-0.84,0.257-1.681,0.517-2.52,0.782
				C23.901,123.863,23.8,123.557,23.696,123.25z"/>
			<path fill="#FFFFFF" d="M42.099,116.306c1.03-0.248,2.032-0.2,2.993,0.144c0.961,0.342,1.86,1.059,2.695,2.15
				c0.832,1.089,1.427,2.44,1.793,4.049c0.369,1.621,0.424,3.086,0.172,4.391c-0.251,1.305-0.719,2.316-1.41,3.043
				c-0.691,0.728-1.522,1.204-2.504,1.441c-1.472,0.355-2.839,0.066-4.123-0.873c-1.606-1.158-2.754-2.895-3.403-5.224
				c-0.46-1.646-0.585-3.132-0.36-4.458c0.222-1.325,0.694-2.369,1.418-3.127C40.09,117.082,41.004,116.569,42.099,116.306z
				 M46.111,123.836c-0.743-3.053-1.451-5.004-2.146-5.851c-0.506-0.617-1.062-0.855-1.67-0.709
				c-0.729,0.175-1.144,0.805-1.234,1.884s0.233,3.039,0.979,5.876c0.626,2.374,1.312,3.995,2.041,4.865
				c0.459,0.537,0.957,0.741,1.501,0.608c0.356-0.086,0.643-0.302,0.864-0.649c0.224-0.348,0.31-0.995,0.27-1.943
				C46.662,126.632,46.463,125.273,46.111,123.836z"/>
			<path fill="#FFFFFF" d="M55.026,125.744c0.534-0.108,1.035-0.021,1.484,0.257c0.455,0.278,0.728,0.663,0.827,1.155
				c0.102,0.501-0.001,0.961-0.305,1.385c-0.301,0.424-0.72,0.688-1.249,0.793c-0.523,0.104-1.007,0.019-1.461-0.253
				c-0.451-0.274-0.732-0.658-0.844-1.156c-0.107-0.49-0.011-0.95,0.293-1.379C54.077,126.118,54.496,125.849,55.026,125.744z"/>
			<path fill="#FFFFFF" d="M63.226,112.109c1.034-0.164,2.016-0.036,2.935,0.385c0.922,0.418,1.748,1.205,2.479,2.358
				c0.734,1.152,1.21,2.548,1.438,4.18c0.232,1.646,0.164,3.107-0.192,4.388s-0.904,2.249-1.646,2.918
				c-0.739,0.666-1.601,1.077-2.585,1.231c-1.479,0.235-2.802-0.163-3.985-1.202c-1.48-1.286-2.466-3.106-2.912-5.479
				c-0.314-1.676-0.312-3.167,0.014-4.469s0.878-2.304,1.646-3.002C61.186,112.721,62.129,112.283,63.226,112.109z M66.562,119.935
				c-0.479-3.101-1.022-5.103-1.636-6.001c-0.444-0.657-0.976-0.938-1.586-0.841c-0.731,0.115-1.189,0.709-1.367,1.776
				s-0.018,3.045,0.483,5.933c0.419,2.416,0.955,4.085,1.603,5.01c0.406,0.572,0.876,0.815,1.428,0.729
				c0.354-0.056,0.658-0.25,0.902-0.577c0.247-0.327,0.389-0.967,0.428-1.915C66.872,122.766,66.789,121.395,66.562,119.935z"/>
			<path fill="#FFFFFF" d="M77.494,110.248c1.038-0.108,2.002,0.073,2.893,0.543c0.893,0.467,1.672,1.297,2.336,2.488
				c0.665,1.19,1.062,2.609,1.198,4.251c0.137,1.655-0.01,3.111-0.435,4.37c-0.426,1.258-1.027,2.198-1.801,2.822
				c-0.771,0.628-1.649,0.989-2.638,1.092c-1.479,0.154-2.771-0.316-3.888-1.416c-1.396-1.363-2.271-3.234-2.582-5.628
				c-0.221-1.69-0.138-3.179,0.259-4.461c0.392-1.282,0.996-2.254,1.798-2.907C75.438,110.747,76.396,110.361,77.494,110.248z
				 M80.379,118.242c-0.306-3.122-0.734-5.15-1.296-6.081c-0.405-0.68-0.917-0.989-1.528-0.926
				c-0.734,0.075-1.221,0.643-1.453,1.699c-0.234,1.056-0.183,3.039,0.153,5.95c0.281,2.435,0.722,4.131,1.311,5.088
				c0.367,0.595,0.824,0.862,1.376,0.805c0.356-0.036,0.668-0.212,0.93-0.526c0.263-0.313,0.441-0.944,0.53-1.888
				C80.531,121.084,80.522,119.712,80.379,118.242z"/>
			<path fill="#FFFFFF" d="M91.778,109.158c1.038-0.051,1.988,0.181,2.851,0.698c0.862,0.514,1.595,1.386,2.189,2.611
				c0.6,1.225,0.914,2.661,0.961,4.308c0.046,1.661-0.181,3.107-0.676,4.34c-0.493,1.234-1.145,2.141-1.95,2.724
				c-0.805,0.583-1.7,0.897-2.688,0.947c-1.483,0.073-2.739-0.466-3.787-1.625c-1.314-1.437-2.078-3.351-2.255-5.758
				c-0.125-1.7,0.04-3.182,0.501-4.44c0.463-1.258,1.114-2.196,1.947-2.806C89.703,109.549,90.678,109.212,91.778,109.158z
				 M94.213,117.297c-0.131-3.133-0.447-5.184-0.956-6.142c-0.368-0.701-0.857-1.038-1.473-1.008
				c-0.73,0.037-1.247,0.577-1.538,1.619s-0.345,3.027-0.174,5.949c0.146,2.445,0.488,4.163,1.021,5.15
				c0.332,0.614,0.774,0.905,1.324,0.878c0.356-0.018,0.677-0.177,0.955-0.476c0.281-0.3,0.49-0.918,0.635-1.856
				C94.206,120.143,94.278,118.771,94.213,117.297z"/>
			<path fill="#FFFFFF" d="M107.163,114.164c1.513-0.072,3.029-0.133,4.544-0.178c0.166,0.658,0.256,1.31,0.268,1.955
				c0.487-0.665,1.101-1.174,1.846-1.522c0.75-0.349,1.575-0.505,2.474-0.465c1.439,0.062,2.581,0.588,3.412,1.561
				c0.833,0.975,1.187,2.311,1.076,3.997c-0.076,1.174-0.352,2.154-0.816,2.946c-0.466,0.79-1.081,1.372-1.839,1.748
				c-0.755,0.376-1.627,0.542-2.607,0.499c-0.782-0.033-1.474-0.227-2.07-0.58c-0.601-0.354-1.15-0.907-1.661-1.66
				c-0.033,1.2-0.068,2.399-0.104,3.6c-0.012,0.473,0.018,0.776,0.087,0.91c0.071,0.135,0.212,0.24,0.414,0.312
				c0.204,0.075,0.616,0.126,1.232,0.153c-0.012,0.344-0.024,0.687-0.037,1.03c-2.116-0.073-4.232-0.118-6.349-0.137
				c0.003-0.344,0.008-0.688,0.011-1.031c0.111,0,0.225,0.001,0.338,0.001c0.401,0.005,0.668-0.024,0.804-0.091
				s0.242-0.182,0.321-0.346c0.054-0.113,0.086-0.403,0.092-0.868c0.051-3.172,0.101-6.343,0.15-9.517
				c0.007-0.464-0.028-0.775-0.104-0.93c-0.075-0.156-0.195-0.27-0.357-0.34c-0.161-0.068-0.538-0.119-1.132-0.146
				C107.156,114.766,107.161,114.466,107.163,114.164z M114.743,115.385c-0.766-0.028-1.431,0.282-1.987,0.935
				c-0.559,0.651-0.849,1.621-0.885,2.905c-0.036,1.271,0.213,2.251,0.74,2.941c0.528,0.692,1.14,1.05,1.845,1.077
				c0.69,0.026,1.258-0.24,1.708-0.802c0.589-0.743,0.92-1.761,0.984-3.061c0.06-1.19-0.119-2.148-0.544-2.867
				C116.181,115.793,115.561,115.415,114.743,115.385z"/>
			<path fill="#FFFFFF" d="M129.663,114.723c1.247,0.117,2.371,0.479,3.358,1.075c0.99,0.599,1.687,1.32,2.097,2.157
				c0.406,0.839,0.54,1.805,0.404,2.9c-0.22,1.749-1.037,3.009-2.431,3.8c-1.392,0.79-2.881,1.106-4.493,0.953
				c-1.143-0.108-2.161-0.441-3.071-1.002c-0.906-0.561-1.586-1.266-2.04-2.12c-0.451-0.855-0.644-1.798-0.567-2.827
				c0.114-1.548,0.797-2.808,2.08-3.761C126.278,114.944,127.842,114.548,129.663,114.723z M129.637,115.745
				c-0.827-0.08-1.513,0.188-2.057,0.799c-0.546,0.608-0.885,1.735-1.028,3.378c-0.153,1.706-0.021,2.9,0.389,3.587
				c0.408,0.686,1.006,1.067,1.799,1.141c0.811,0.078,1.497-0.187,2.069-0.798c0.568-0.609,0.945-1.727,1.127-3.35
				c0.184-1.667,0.06-2.855-0.375-3.566C131.127,116.225,130.484,115.826,129.637,115.745z"/>
			<path fill="#FFFFFF" d="M138.508,116.28c1.658,0.146,3.316,0.308,4.976,0.487c-0.432,2.814-0.869,5.63-1.312,8.444
				c-0.036,0.227,0.014,0.412,0.154,0.56c0.135,0.149,0.362,0.245,0.684,0.296c0.24,0.037,0.482,0.072,0.721,0.111
				c-0.054,0.327-0.108,0.657-0.161,0.986c-2.138-0.333-4.272-0.64-6.41-0.917c0.046-0.331,0.09-0.66,0.137-0.99
				c0.236,0.03,0.474,0.062,0.71,0.094c0.381,0.051,0.661,0.005,0.843-0.137c0.179-0.143,0.298-0.415,0.356-0.819
				c0.276-1.922,0.551-3.845,0.823-5.768c0.05-0.362-0.023-0.657-0.23-0.887c-0.204-0.23-0.514-0.373-0.922-0.428
				c-0.165-0.022-0.332-0.044-0.498-0.064C138.421,116.926,138.466,116.604,138.508,116.28z M142.392,110.952
				c0.546,0.076,0.985,0.312,1.323,0.705c0.337,0.395,0.472,0.833,0.396,1.314c-0.074,0.482-0.328,0.861-0.763,1.142
				c-0.434,0.279-0.921,0.382-1.456,0.305c-0.543-0.076-0.983-0.312-1.321-0.704c-0.339-0.393-0.473-0.825-0.409-1.302
				c0.066-0.483,0.316-0.866,0.75-1.152C141.347,110.977,141.84,110.873,142.392,110.952z"/>
			<path fill="#FFFFFF" d="M160.054,129.273c-0.079,0.325-0.154,0.648-0.233,0.974c-2.133-0.478-4.267-0.926-6.402-1.346
				c0.068-0.327,0.138-0.651,0.206-0.979c0.224,0.045,0.45,0.089,0.675,0.135c0.357,0.072,0.641,0.041,0.855-0.091
				c0.211-0.133,0.351-0.361,0.421-0.684c0.308-1.423,0.614-2.847,0.918-4.271c0.156-0.73,0.092-1.325-0.198-1.791
				c-0.289-0.463-0.736-0.755-1.338-0.874c-0.822-0.161-1.546-0.012-2.172,0.444c-0.621,0.455-1.033,1.217-1.237,2.279
				c-0.214,1.102-0.429,2.204-0.644,3.306c-0.062,0.322-0.02,0.585,0.125,0.788c0.146,0.2,0.358,0.329,0.642,0.383
				c0.271,0.051,0.54,0.103,0.81,0.154c-0.067,0.326-0.133,0.653-0.199,0.98c-2.22-0.428-4.439-0.822-6.661-1.188
				c0.059-0.328,0.114-0.657,0.173-0.985c0.288,0.048,0.579,0.097,0.869,0.145c0.335,0.057,0.604,0.016,0.807-0.124
				c0.2-0.14,0.331-0.373,0.392-0.696c0.357-1.965,0.712-3.93,1.062-5.895c0.061-0.34-0.017-0.629-0.238-0.876
				c-0.222-0.244-0.54-0.401-0.96-0.472c-0.158-0.026-0.316-0.053-0.473-0.078c0.053-0.308,0.105-0.613,0.157-0.922
				c1.561,0.18,3.122,0.376,4.686,0.586c0.05,0.635,0.039,1.379-0.034,2.233c0.794-0.663,1.594-1.118,2.403-1.362
				c0.811-0.245,1.624-0.286,2.438-0.123c1.104,0.224,1.908,0.733,2.401,1.52c0.483,0.784,0.593,1.759,0.329,2.92
				c-0.347,1.519-0.692,3.035-1.041,4.554c-0.081,0.349-0.052,0.618,0.087,0.811c0.144,0.192,0.399,0.329,0.781,0.414
				C159.658,129.185,159.855,129.229,160.054,129.273z"/>
			<path fill="#FFFFFF" d="M168.423,117.66c0.357,0.088,0.716,0.174,1.073,0.264c-0.345,1.337-0.689,2.674-1.039,4.011
				c1.22,0.303,2.437,0.614,3.654,0.936c-0.104,0.372-0.207,0.746-0.311,1.121c-1.212-0.319-2.425-0.631-3.637-0.933
				c-0.541,2.065-1.086,4.132-1.635,6.195c-0.109,0.41-0.079,0.755,0.088,1.038c0.17,0.284,0.441,0.472,0.814,0.566
				c1.066,0.272,1.883-0.481,2.451-2.271c0.344,0.089,0.684,0.18,1.025,0.27c-0.298,0.955-0.685,1.683-1.163,2.184
				c-0.474,0.503-1.048,0.837-1.716,1.007c-0.669,0.169-1.359,0.163-2.086-0.02c-0.634-0.158-1.152-0.411-1.556-0.76
				c-0.405-0.35-0.683-0.791-0.841-1.325c-0.159-0.538-0.17-1.079-0.03-1.63c0.502-2.005,1.003-4.009,1.501-6.016
				c-0.652-0.153-1.306-0.306-1.957-0.453c0.074-0.323,0.153-0.643,0.229-0.963c1.235,0.133,2.274-0.052,3.119-0.565
				C167.253,119.803,167.927,118.919,168.423,117.66z"/>
			<path fill="#FFFFFF" d="M181.803,125.932c0.343-0.192,0.689-0.383,1.034-0.574c0.239,0.073,0.482,0.148,0.722,0.223
				c-0.28,1.117-0.565,2.232-0.852,3.35c-0.314-0.1-0.629-0.196-0.943-0.293c-0.208-1.023-0.562-1.804-1.049-2.338
				c-0.484-0.533-1.157-0.929-2.015-1.178c-0.737-0.215-1.337-0.251-1.796-0.111c-0.459,0.139-0.746,0.399-0.859,0.777
				c-0.111,0.372-0.048,0.697,0.189,0.975c0.234,0.283,0.979,0.73,2.225,1.35c1.129,0.565,1.861,0.983,2.209,1.248
				c0.664,0.495,1.117,1.073,1.36,1.729c0.241,0.655,0.24,1.335,0.002,2.036c-0.302,0.887-0.954,1.506-1.946,1.865
				c-0.991,0.357-2.121,0.348-3.398-0.031c-0.617-0.182-1.153-0.412-1.611-0.689c-0.459-0.281-0.908-0.664-1.351-1.154
				c-0.358,0.212-0.715,0.426-1.071,0.641c-0.286-0.08-0.574-0.16-0.859-0.238c0.295-1.239,0.588-2.477,0.877-3.717
				c0.318,0.087,0.637,0.175,0.955,0.264c0.261,2.072,1.353,3.378,3.299,3.952c0.799,0.236,1.458,0.281,1.973,0.13
				c0.516-0.151,0.842-0.423,0.971-0.812c0.118-0.356,0.075-0.668-0.133-0.933c-0.206-0.265-0.85-0.681-1.938-1.236
				c-1.176-0.595-1.967-1.033-2.371-1.328c-0.693-0.488-1.167-1.023-1.419-1.611c-0.25-0.588-0.28-1.219-0.085-1.895
				c0.282-0.963,0.873-1.656,1.789-2.068c0.912-0.411,1.988-0.444,3.219-0.085c0.602,0.174,1.123,0.396,1.56,0.66
				C180.925,125.104,181.364,125.468,181.803,125.932z"/>
		</g>
	</g>
</g>
</svg>
