<?xml version="1.0" encoding="utf-8"?>
<!-- Generator: Adobe Illustrator 16.0.0, SVG Export Plug-In . SVG Version: 6.00 Build 0)  -->
<!DOCTYPE svg PUBLIC "-//W3C//DTD SVG 1.1//EN" "http://www.w3.org/Graphics/SVG/1.1/DTD/svg11.dtd">
<svg version="1.1" id="Livello_1" xmlns="http://www.w3.org/2000/svg" xmlns:xlink="http://www.w3.org/1999/xlink" x="0px" y="0px"
	 width="210px" height="200px" viewBox="0 0 210 200" enable-background="new 0 0 210 200" xml:space="preserve">
<g>
	<circle fill="#27A94A" cx="105" cy="100" r="84"/>
	<circle fill="#00953E" stroke="#FFFFFF" stroke-width="5" stroke-miterlimit="10" cx="105" cy="100" r="75.216"/>
	<g id="Livello_10_32_">
		<g>
			<path fill="#6AB64D" stroke="#FFFFFF" stroke-width="4" stroke-miterlimit="10" d="M73.272,72.206
				c-16.87,17.962-10.091,37.589-7.323,44.763c17.148-39.662,56.822-49.123,56.822-49.123s-50.03,35.45-55.185,79.809
				c-0.405,3.502,8.074,5.517,8.694,1.332c1.895-12.461,6.539-22.711,6.539-22.711c11.401,1.087,30.49,0.75,40.504-12.011
				c13.299-16.955,3.958-43.622,24.15-63.561C152.188,46.051,96.133,47.869,73.272,72.206z"/>
		</g>
	</g>
	<g>
		<g>
			<path fill="#47AE54" stroke="#FFFFFF" stroke-width="2" stroke-miterlimit="10" d="M194.866,144.649
				c-2.534-5.82-5.349-11.609-8.445-17.347c6.004-2.538,12.218-4.851,18.63-6.915C141.078,93.532,68.933,93.701,5.063,120.896
				c0.04,0.095,0.08,0.188,0.12,0.282c6.617,2.096,13.025,4.457,19.211,7.059c-2.898,5.432-5.546,10.909-7.941,16.414
				C73.509,120.698,137.81,120.697,194.866,144.649L194.866,144.649L194.866,144.649z"/>
		</g>
	</g>
	<g>
		<g>
			<path fill="#FFFFFF" d="M31.732,127.8c-0.184,0.436,1.329,0.146,4.531-0.778c0.48-0.139,0.791-0.351,0.925-0.637
				c0.14-0.286,0.18-0.984,0.137-2.097c0.222-0.063,0.447-0.126,0.673-0.188c0.253,1.247,0.51,2.494,0.77,3.739
				c-2.86,0.796-5.72,1.645-8.572,2.547c-0.056-0.157-0.107-0.312-0.162-0.471c0.596-1.253,1.217-2.504,1.844-3.754
				c1.074-2.014,1.738-3.263,1.938-3.754c0.287-0.701,0.455-1.346,0.507-1.937c0.053-0.59,0.017-1.104-0.115-1.536
				c-0.215-0.72-0.61-1.223-1.193-1.504c-0.583-0.279-1.279-0.304-2.095-0.062c-0.915,0.271-1.602,0.687-2.057,1.241
				c-0.458,0.555-0.609,1.043-0.475,1.469c0.049,0.146,0.127,0.242,0.238,0.291c0.105,0.052,0.301,0.064,0.584,0.041
				c0.717-0.067,1.165,0.178,1.337,0.725c0.096,0.3,0.06,0.578-0.099,0.841c-0.162,0.265-0.418,0.447-0.768,0.556
				c-0.404,0.124-0.809,0.068-1.222-0.165c-0.41-0.232-0.705-0.614-0.884-1.142c-0.199-0.594-0.198-1.188-0.008-1.781
				c0.191-0.596,0.596-1.156,1.21-1.687c0.615-0.53,1.337-0.917,2.159-1.158c0.817-0.24,1.619-0.308,2.408-0.202
				c0.787,0.105,1.428,0.357,1.922,0.758c0.493,0.4,0.824,0.894,0.993,1.479c0.119,0.405,0.15,0.84,0.102,1.304
				c-0.05,0.463-0.185,0.925-0.406,1.381c-0.382,0.785-0.802,1.485-1.255,2.103c-0.662,0.897-1.316,1.801-1.962,2.701
				C32.249,126.806,31.91,127.366,31.732,127.8z"/>
			<path fill="#FFFFFF" d="M39.418,114.251c1.805-0.101,3.238-0.275,4.32-0.537c0.507-0.123,0.972-0.28,1.398-0.473
				c0.424-0.19,0.736-0.37,0.932-0.535c0.101-0.079,0.171-0.121,0.204-0.131c0.067-0.016,0.11,0.021,0.133,0.109
				c0.048,0.208-0.034,0.518-0.259,0.93c-0.221,0.413-0.565,0.78-1.038,1.106c-0.469,0.325-1.043,0.571-1.723,0.737
				c-0.783,0.192-1.75,0.321-2.892,0.387c0.191,1.157,0.387,2.31,0.585,3.464c0.444-0.354,0.873-0.646,1.305-0.873
				c0.426-0.229,0.847-0.394,1.26-0.495c1.302-0.321,2.492-0.195,3.562,0.369c1.075,0.564,1.735,1.422,2.009,2.554
				c0.303,1.261,0.094,2.399-0.62,3.426c-0.714,1.028-1.783,1.712-3.229,2.074c-1.103,0.274-2.084,0.218-2.944-0.181
				s-1.402-0.993-1.632-1.793c-0.136-0.482-0.131-0.884,0.02-1.206c0.152-0.323,0.404-0.529,0.758-0.62
				c0.343-0.09,0.657-0.061,0.931,0.095c0.274,0.154,0.459,0.399,0.551,0.734c0.068,0.253,0.068,0.464,0.001,0.634
				c-0.071,0.167-0.233,0.338-0.491,0.506c-0.255,0.172-0.364,0.327-0.329,0.455c0.053,0.188,0.206,0.371,0.462,0.547
				c0.254,0.179,0.6,0.288,1.025,0.333c0.432,0.046,0.892,0.005,1.394-0.12c0.98-0.245,1.654-0.706,2.031-1.396
				c0.374-0.687,0.406-1.664,0.089-2.933c-0.284-1.156-0.778-1.936-1.474-2.334c-0.693-0.396-1.481-0.488-2.354-0.271
				c-0.396,0.1-0.777,0.264-1.138,0.494c-0.361,0.231-0.707,0.528-1.032,0.889c0.066,0.424,0.061,0.723-0.02,0.891
				c-0.08,0.171-0.209,0.279-0.397,0.326c-0.13,0.034-0.247,0.022-0.347-0.041c-0.101-0.06-0.175-0.166-0.216-0.313
				c-0.075-0.259-0.005-0.548,0.191-0.874c0.06-0.098,0.093-0.179,0.113-0.248c-0.16-0.886-0.322-1.772-0.479-2.659
				C39.893,116.229,39.671,115.219,39.418,114.251z"/>
			<path fill="#FFFFFF" d="M53.985,110.899c1.324-0.265,2.517-0.025,3.569,0.723c1.301,0.917,2.154,2.522,2.58,4.801
				c0.4,2.115,0.245,3.812-0.442,5.085c-0.689,1.275-1.658,2.033-2.928,2.289c-1.224,0.247-2.347-0.005-3.384-0.749
				c-1.294-0.94-2.21-2.498-2.712-4.688c-0.481-2.083-0.356-3.853,0.389-5.303C51.653,111.894,52.635,111.17,53.985,110.899z
				 M54.179,111.531c-0.892,0.18-1.513,0.702-1.846,1.561c-0.336,0.859-0.243,2.472,0.283,4.847
				c0.515,2.319,1.116,3.812,1.776,4.484c0.67,0.67,1.408,0.923,2.241,0.755c0.839-0.168,1.402-0.652,1.712-1.457
				c0.365-0.959,0.318-2.572-0.123-4.841c-0.462-2.348-1.026-3.871-1.707-4.566C55.831,111.617,55.054,111.357,54.179,111.531z"/>
			<path fill="#FFFFFF" d="M74.153,112.53c0.587-0.692,1.168-1.072,1.729-1.138c0.336-0.04,0.625,0.026,0.867,0.195
				c0.244,0.17,0.381,0.394,0.413,0.671c0.024,0.225-0.03,0.419-0.162,0.584c-0.131,0.166-0.297,0.262-0.498,0.282
				c-0.378,0.044-0.66-0.142-0.843-0.547c-0.074-0.174-0.178-0.256-0.304-0.24c-0.227,0.026-0.456,0.191-0.688,0.498
				c0.331,0.32,0.564,0.607,0.703,0.859c0.137,0.251,0.223,0.528,0.262,0.83c0.064,0.526-0.018,1.01-0.242,1.443
				c-0.227,0.436-0.641,0.847-1.236,1.235c-0.598,0.389-1.183,0.623-1.764,0.699c-0.355,0.047-0.713,0.098-1.068,0.145
				c-0.756,0.105-1.248,0.249-1.474,0.43c-0.227,0.188-0.316,0.424-0.271,0.715c0.034,0.236,0.163,0.4,0.383,0.498
				c0.219,0.098,0.611,0.106,1.167,0.03c0.799-0.128,1.596-0.25,2.395-0.37c1.209-0.154,2.115-0.072,2.691,0.242
				c0.583,0.314,0.906,0.805,0.99,1.465c0.086,0.726-0.139,1.371-0.675,1.939c-0.751,0.803-1.939,1.304-3.588,1.526
				c-1.362,0.185-2.411,0.093-3.146-0.285c-0.584-0.297-0.904-0.675-0.984-1.14c-0.056-0.355,0.061-0.704,0.352-1.052
				c0.289-0.344,0.825-0.649,1.602-0.908c-0.661-0.053-1.172-0.196-1.541-0.429c-0.368-0.234-0.579-0.557-0.646-0.973
				c-0.061-0.386,0.016-0.741,0.236-1.066c0.221-0.326,0.643-0.639,1.265-0.938c-0.599-0.204-1.068-0.484-1.411-0.843
				c-0.346-0.359-0.558-0.798-0.638-1.317c-0.128-0.819,0.122-1.562,0.75-2.218c0.632-0.658,1.517-1.069,2.664-1.222
				c0.47-0.064,0.924-0.063,1.378,0.003C73.27,112.2,73.715,112.332,74.153,112.53z M73.209,120.812
				c-1.188,0.156-2.01,0.43-2.467,0.811c-0.462,0.376-0.651,0.786-0.587,1.221c0.063,0.409,0.299,0.707,0.712,0.887
				c0.543,0.242,1.276,0.301,2.189,0.177c1.092-0.146,1.893-0.422,2.402-0.836c0.508-0.413,0.74-0.831,0.687-1.255
				c-0.033-0.247-0.147-0.469-0.349-0.662c-0.202-0.192-0.5-0.324-0.894-0.388C74.508,120.7,73.944,120.716,73.209,120.812z
				 M71.502,112.715c-0.591,0.079-1.061,0.346-1.386,0.794c-0.329,0.449-0.439,1.032-0.335,1.744
				c0.111,0.759,0.392,1.323,0.832,1.688c0.441,0.367,0.959,0.511,1.543,0.431c0.588-0.076,1.04-0.344,1.366-0.803
				c0.323-0.455,0.434-1.065,0.337-1.827c-0.093-0.707-0.357-1.243-0.801-1.604C72.613,112.776,72.095,112.635,71.502,112.715z"/>
			<path fill="#FFFFFF" d="M77.769,111.623c1.122-0.177,2.241-0.343,3.364-0.502c0.113,1.151,0.224,2.302,0.338,3.451
				c0.242-1.17,0.592-2.071,1.047-2.698c0.449-0.629,1.058-0.975,1.806-1.038c0.509-0.039,0.926,0.066,1.251,0.327
				c0.328,0.258,0.508,0.626,0.546,1.1c0.032,0.384-0.048,0.688-0.232,0.918c-0.187,0.229-0.431,0.354-0.735,0.378
				c-0.295,0.024-0.546-0.047-0.742-0.215c-0.198-0.167-0.309-0.405-0.336-0.715c-0.017-0.2,0.02-0.395,0.111-0.577
				c0.085-0.168,0.128-0.266,0.125-0.296c-0.007-0.092-0.074-0.133-0.202-0.121c-0.274,0.022-0.571,0.195-0.892,0.518
				c-0.44,0.448-0.758,1.04-0.949,1.775c-0.291,1.141-0.4,2.042-0.336,2.705c0.061,0.607,0.119,1.22,0.18,1.829
				c0.019,0.207,0.114,0.356,0.278,0.453c0.167,0.093,0.438,0.124,0.812,0.09c0.386-0.036,0.771-0.068,1.156-0.103
				c0.022,0.229,0.041,0.457,0.062,0.685c-1.878,0.159-3.756,0.344-5.632,0.546c-0.026-0.227-0.051-0.453-0.078-0.681
				c0.303-0.033,0.602-0.065,0.902-0.097c0.305-0.03,0.528-0.112,0.671-0.241c0.142-0.127,0.208-0.271,0.191-0.427
				c-0.191-1.811-0.382-3.624-0.569-5.433c-0.042-0.411-0.173-0.704-0.383-0.875c-0.214-0.169-0.503-0.239-0.859-0.2
				c-0.275,0.029-0.549,0.059-0.82,0.088C77.815,112.052,77.795,111.837,77.769,111.623z"/>
			<path fill="#FFFFFF" d="M96.02,114.64c-2.205,0.082-4.411,0.194-6.614,0.336c0.12,1.299,0.44,2.201,0.961,2.708
				c0.595,0.569,1.321,0.829,2.184,0.783c1.268-0.064,2.251-0.789,2.974-2.178c0.217,0.076,0.432,0.151,0.646,0.23
				c-0.89,1.767-2.202,2.686-3.983,2.781c-1.209,0.067-2.256-0.285-3.146-1.057c-0.889-0.771-1.389-1.8-1.484-3.089
				c-0.104-1.386,0.234-2.537,1.018-3.449c0.781-0.91,1.803-1.403,3.043-1.47c0.908-0.05,1.707,0.125,2.389,0.523
				c0.68,0.396,1.202,0.989,1.565,1.773C95.825,113.085,95.975,113.788,96.02,114.64z M89.362,114.327
				c1.335-0.085,2.675-0.16,4.011-0.225c0.238-0.01,0.416-0.094,0.543-0.248c0.128-0.156,0.18-0.413,0.164-0.772
				c-0.031-0.671-0.284-1.229-0.764-1.679c-0.482-0.444-1.029-0.653-1.652-0.62c-0.696,0.038-1.27,0.354-1.716,0.951
				C89.501,112.329,89.308,113.194,89.362,114.327z"/>
			<path fill="#FFFFFF" d="M106.115,114.466c-2.205-0.007-4.412,0.016-6.617,0.067c0.064,1.305,0.348,2.218,0.848,2.745
				c0.57,0.591,1.283,0.883,2.146,0.871c1.266-0.014,2.281-0.698,3.06-2.058c0.213,0.086,0.425,0.172,0.637,0.259
				c-0.959,1.729-2.312,2.593-4.094,2.617c-1.212,0.018-2.239-0.375-3.096-1.183c-0.854-0.808-1.311-1.853-1.351-3.146
				c-0.044-1.389,0.337-2.528,1.156-3.405c0.821-0.878,1.856-1.33,3.096-1.347c0.911-0.013,1.698,0.194,2.362,0.62
				c0.66,0.422,1.162,1.037,1.49,1.835C105.982,112.904,106.103,113.612,106.115,114.466z M99.483,113.885
				c1.338-0.03,2.676-0.052,4.014-0.062c0.235-0.002,0.422-0.078,0.552-0.228c0.129-0.151,0.199-0.407,0.194-0.765
				c-0.003-0.67-0.233-1.243-0.692-1.706c-0.461-0.466-0.999-0.696-1.624-0.688c-0.696,0.009-1.28,0.305-1.75,0.881
				C99.706,111.895,99.475,112.75,99.483,113.885z"/>
			<path fill="#FFFFFF" d="M107.582,110.13c1.041-0.049,2.082-0.093,3.124-0.128c0.119,0.539,0.196,1.169,0.239,1.89
				c0.435-0.613,0.938-1.069,1.52-1.362c0.581-0.296,1.235-0.429,1.957-0.403c0.624,0.021,1.143,0.153,1.552,0.394
				c0.411,0.239,0.732,0.606,0.964,1.1c0.232,0.493,0.328,1.037,0.301,1.635c-0.068,1.389-0.135,2.775-0.203,4.165
				c-0.014,0.311,0.051,0.534,0.193,0.673c0.143,0.14,0.389,0.216,0.736,0.233c0.215,0.012,0.427,0.023,0.642,0.034
				c-0.014,0.226-0.024,0.455-0.038,0.685c-1.596-0.086-3.191-0.156-4.785-0.21c0.004-0.229,0.018-0.458,0.024-0.686
				c0.152,0.005,0.305,0.01,0.456,0.017c0.428,0.016,0.725-0.037,0.902-0.159c0.173-0.121,0.264-0.311,0.277-0.565
				c0.049-1.223,0.104-2.443,0.154-3.665c0.03-0.798-0.074-1.394-0.325-1.788c-0.351-0.562-0.909-0.857-1.667-0.883
				c-0.753-0.025-1.388,0.235-1.908,0.777c-0.514,0.541-0.781,1.26-0.8,2.148c-0.025,1.06-0.05,2.116-0.072,3.173
				c-0.007,0.313,0.067,0.535,0.214,0.669c0.148,0.135,0.398,0.208,0.748,0.216c0.21,0.004,0.419,0.009,0.632,0.017
				c-0.007,0.229-0.013,0.456-0.021,0.686c-1.601-0.045-3.202-0.076-4.805-0.09c0.001-0.229,0.005-0.457,0.006-0.686
				c0.212,0.003,0.422,0.004,0.633,0.006c0.31,0.006,0.559-0.055,0.725-0.175c0.166-0.119,0.255-0.269,0.256-0.452
				c0.033-1.846,0.057-3.688,0.09-5.532c0.004-0.366-0.1-0.646-0.312-0.838c-0.215-0.192-0.527-0.291-0.933-0.295
				c-0.157-0.001-0.32-0.004-0.48-0.005C107.578,110.526,107.578,110.328,107.582,110.13z"/>
			<path fill="#FFFFFF" d="M129.88,106.165c-0.392,4.121-0.793,8.244-1.197,12.364c-0.015,0.17,0.028,0.306,0.127,0.406
				c0.151,0.136,0.343,0.214,0.573,0.24c0.318,0.031,0.641,0.063,0.961,0.096c-0.024,0.228-0.048,0.456-0.072,0.682
				c-1.712-0.174-3.426-0.33-5.139-0.469c0.018-0.229,0.035-0.454,0.057-0.683c0.303,0.025,0.611,0.048,0.913,0.075
				c0.296,0.026,0.528-0.024,0.683-0.143c0.16-0.122,0.247-0.305,0.271-0.547c0.317-3.463,0.63-6.923,0.937-10.386
				c0.025-0.306-0.045-0.532-0.217-0.688c-0.234-0.215-0.535-0.341-0.902-0.371c-0.288-0.024-0.573-0.045-0.856-0.07
				c0.016-0.227,0.038-0.456,0.054-0.684C127.339,106.038,128.612,106.096,129.88,106.165z"/>
			<path fill="#FFFFFF" d="M140.492,116.938c-2.2-0.312-4.4-0.593-6.604-0.845c-0.12,1.3,0.029,2.245,0.452,2.834
				c0.487,0.666,1.152,1.051,2.012,1.159c1.266,0.159,2.374-0.377,3.346-1.615c0.199,0.113,0.398,0.228,0.599,0.342
				c-1.202,1.58-2.683,2.25-4.458,2.028c-1.21-0.151-2.177-0.68-2.912-1.598c-0.738-0.917-1.035-2.017-0.896-3.301
				c0.155-1.381,0.69-2.457,1.632-3.213c0.939-0.756,2.035-1.062,3.271-0.907c0.91,0.111,1.671,0.429,2.271,0.938
				c0.601,0.512,1.011,1.187,1.228,2.023C140.584,115.374,140.601,116.09,140.492,116.938z M133.964,115.447
				c1.335,0.153,2.673,0.319,4.008,0.492c0.237,0.029,0.429-0.02,0.582-0.149c0.153-0.131,0.253-0.375,0.304-0.73
				c0.093-0.666-0.059-1.262-0.452-1.786s-0.9-0.825-1.521-0.905c-0.696-0.087-1.321,0.125-1.869,0.632
				C134.465,113.506,134.116,114.322,133.964,115.447z"/>
			<path fill="#FFFFFF" d="M151.014,121.993c0.082,0.189,0.166,0.379,0.248,0.569c-0.558,0.361-1.12,0.487-1.693,0.384
				c-0.438-0.078-0.784-0.256-1.042-0.53c-0.257-0.275-0.448-0.712-0.571-1.31c-0.724,0.493-1.336,0.802-1.832,0.926
				c-0.5,0.125-1.07,0.135-1.723,0.029c-0.929-0.149-1.598-0.441-2.024-0.891c-0.423-0.444-0.592-0.962-0.501-1.547
				c0.138-0.879,0.805-1.529,2.026-1.937c1.216-0.406,2.784-0.551,4.691-0.419c0.079-0.425,0.151-0.854,0.231-1.279
				c0.078-0.455-0.05-0.882-0.398-1.276c-0.352-0.393-0.834-0.644-1.463-0.747c-0.579-0.095-1.096-0.068-1.551,0.084
				c-0.326,0.113-0.502,0.25-0.527,0.406c-0.017,0.092,0.044,0.243,0.17,0.463c0.15,0.271,0.215,0.5,0.184,0.687
				c-0.047,0.27-0.177,0.476-0.397,0.618c-0.22,0.143-0.48,0.188-0.792,0.14c-0.329-0.051-0.587-0.195-0.778-0.435
				c-0.187-0.238-0.259-0.518-0.208-0.836c0.094-0.599,0.545-1.088,1.369-1.467c0.816-0.38,1.84-0.471,3.047-0.27
				c1.117,0.186,1.929,0.552,2.437,1.087c0.506,0.543,0.7,1.123,0.581,1.748c-0.288,1.538-0.574,3.071-0.869,4.606
				c-0.076,0.408-0.062,0.72,0.042,0.939c0.104,0.224,0.271,0.355,0.495,0.396C150.415,122.181,150.699,122.134,151.014,121.993z
				 M148.484,117.862c-1.704-0.078-2.941,0.076-3.713,0.44c-0.576,0.28-0.918,0.751-1.025,1.413c-0.08,0.464-0.002,0.848,0.22,1.15
				c0.219,0.304,0.543,0.489,0.968,0.559c0.763,0.121,1.47-0.037,2.124-0.478c0.653-0.442,1.064-1.066,1.208-1.878
				C148.34,118.667,148.412,118.265,148.484,117.862z"/>
			<path fill="#FFFFFF" d="M153.558,114.704c1.537,0.294,3.073,0.603,4.608,0.925c-0.047,0.205-0.086,0.407-0.133,0.608
				c-0.614-0.116-1.013-0.146-1.202-0.096c-0.189,0.055-0.294,0.157-0.333,0.32c-0.025,0.131-0.021,0.269,0.016,0.413
				c0.47,1.819,0.918,3.639,1.351,5.459c1.097-1.438,2.204-2.872,3.324-4.299c0.052-0.076,0.088-0.154,0.108-0.237
				c0.102-0.437-0.315-0.811-1.242-1.127c0.047-0.203,0.093-0.405,0.139-0.607c1.293,0.281,2.584,0.575,3.875,0.877
				c-0.05,0.202-0.098,0.402-0.148,0.604c-0.402-0.055-0.736-0.03-1.004,0.068c-0.27,0.104-0.497,0.268-0.687,0.501
				c-1.696,2.102-3.368,4.219-5.01,6.349c-0.173-0.036-0.348-0.073-0.52-0.109c-0.635-2.685-1.31-5.371-2.033-8.053
				c-0.082-0.289-0.202-0.506-0.372-0.646c-0.163-0.142-0.455-0.253-0.856-0.339C153.477,115.111,153.519,114.907,153.558,114.704z"
				/>
			<path fill="#FFFFFF" d="M172.502,123.577c-2.186-0.6-4.373-1.173-6.564-1.712c-0.298,1.273-0.271,2.231,0.072,2.87
				c0.398,0.727,1.018,1.193,1.874,1.416c1.26,0.327,2.452-0.06,3.605-1.158c0.188,0.139,0.375,0.279,0.558,0.418
				c-1.431,1.408-3.021,1.876-4.784,1.422c-1.2-0.311-2.11-0.962-2.724-1.968c-0.617-1.008-0.771-2.136-0.456-3.394
				c0.341-1.35,1.027-2.345,2.081-2.971c1.049-0.626,2.194-0.786,3.427-0.47c0.901,0.231,1.631,0.646,2.171,1.231
				c0.537,0.588,0.865,1.312,0.97,2.171C172.805,122.039,172.729,122.752,172.502,123.577z M166.103,121.235
				c1.328,0.327,2.657,0.668,3.983,1.017c0.234,0.064,0.438,0.038,0.609-0.069c0.17-0.11,0.309-0.339,0.406-0.685
				c0.183-0.646,0.111-1.26-0.216-1.831c-0.328-0.573-0.802-0.94-1.419-1.1c-0.692-0.179-1.35-0.052-1.973,0.38
				C166.87,119.377,166.406,120.14,166.103,121.235z"/>
			<path fill="#FFFFFF" d="M174.73,125.239c0.091,1.127,0.332,1.957,0.727,2.498c0.396,0.538,0.966,0.922,1.721,1.146
				c0.695,0.212,1.278,0.236,1.745,0.075s0.773-0.452,0.914-0.878c0.081-0.243,0.083-0.479,0.004-0.704
				c-0.08-0.228-0.224-0.422-0.44-0.587c-0.218-0.166-0.812-0.493-1.79-0.978c-0.931-0.469-1.565-0.852-1.894-1.158
				c-0.332-0.307-0.553-0.658-0.67-1.062c-0.117-0.401-0.115-0.802,0.004-1.2c0.179-0.603,0.575-1.086,1.179-1.448
				c0.778-0.456,1.701-0.531,2.766-0.216c0.81,0.24,1.489,0.691,2.033,1.35c0.285-0.136,0.57-0.271,0.855-0.407
				c0.138,0.042,0.275,0.084,0.407,0.127c-0.234,0.997-0.471,1.993-0.709,2.99c-0.217-0.068-0.438-0.138-0.657-0.204
				c-0.015-0.917-0.213-1.63-0.589-2.146c-0.38-0.514-0.936-0.882-1.665-1.097c-0.628-0.188-1.163-0.196-1.605-0.026
				c-0.438,0.168-0.722,0.448-0.84,0.842c-0.104,0.345-0.026,0.678,0.229,1c0.249,0.328,0.822,0.693,1.713,1.108
				c1.036,0.487,1.694,0.842,1.984,1.052c0.477,0.34,0.8,0.736,0.973,1.19c0.172,0.454,0.161,0.942-0.013,1.465
				c-0.244,0.719-0.769,1.227-1.558,1.532c-0.793,0.305-1.668,0.313-2.623,0.025c-0.885-0.268-1.623-0.776-2.22-1.535
				c-0.31,0.178-0.62,0.355-0.93,0.535c-0.168-0.049-0.339-0.097-0.509-0.146c0.273-1.109,0.54-2.221,0.806-3.33
				C174.294,125.114,174.512,125.179,174.73,125.239z"/>
		</g>
	</g>
</g>
</svg>
