<?xml version="1.0" encoding="utf-8"?>
<!-- Generator: Adobe Illustrator 16.0.0, SVG Export Plug-In . SVG Version: 6.00 Build 0)  -->
<!DOCTYPE svg PUBLIC "-//W3C//DTD SVG 1.1//EN" "http://www.w3.org/Graphics/SVG/1.1/DTD/svg11.dtd">
<svg version="1.1" id="Livello_1" xmlns="http://www.w3.org/2000/svg" xmlns:xlink="http://www.w3.org/1999/xlink" x="0px" y="0px"
	 width="230px" height="200px" viewBox="0 0 230 200" enable-background="new 0 0 230 200" xml:space="preserve">
<g>
	<circle fill="#6AB64D" cx="115.425" cy="97.708" r="82.153"/>
	<path fill="#00953E" d="M101.888,25.16c-7.637,1.504-14.855,4.161-21.472,7.785l20.294,42.714h1.809l10.134-27.842L101.888,25.16z"
		/>
	<polygon fill="none" points="112.652,47.817 102.519,75.659 125.879,75.659 	"/>
	<path fill="#A67D3C" d="M114.872,88.717c-9.469,0-17.142-4.691-17.142-10.481s7.673-10.481,17.142-10.481
		s17.142,4.691,17.142,10.481S124.341,88.717,114.872,88.717z M114.872,63.561c-13.251,0-23.999,6.572-23.999,14.675
		c0,8.104,10.748,14.675,23.999,14.675c13.252,0,23.999-6.571,23.999-14.675C138.871,70.133,128.124,63.561,114.872,63.561z"/>
	<g>
		<path fill="#A67D3C" d="M116.011,81.923c-21.521,0-38.973,17.571-38.973,39.238s17.452,39.238,38.973,39.238
			c21.52,0,38.974-17.571,38.974-39.238S137.53,81.923,116.011,81.923z M116.011,149.189c-15.377,0-27.838-12.549-27.838-28.028
			c0-15.481,12.461-28.028,27.838-28.028s27.838,12.547,27.838,28.028C143.849,136.641,131.388,149.189,116.011,149.189z"/>
		<g>
			<path fill="#C19751" d="M116.019,82.072c0,0-0.958,0.046-2.756,0.133c-0.447,0.033-0.955,0.018-1.499,0.1
				c-0.543,0.082-1.137,0.171-1.778,0.268c-0.64,0.109-1.336,0.174-2.062,0.338c-0.722,0.188-1.488,0.389-2.298,0.601
				c-3.196,0.929-7.063,2.378-10.887,5.059c-3.833,2.615-7.734,6.273-10.794,11.091c-3.036,4.809-5.27,10.697-5.952,17.15
				c-0.113,0.802-0.083,1.623-0.132,2.441c-0.008,0.808-0.117,1.671-0.041,2.446c0.118,1.681,0.117,3.433,0.46,5.061
				c0.417,3.327,1.525,6.682,2.893,9.9c0.386,0.791,0.772,1.585,1.161,2.381c0.389,0.797,0.91,1.524,1.359,2.295l0.7,1.144
				c0.25,0.37,0.535,0.719,0.801,1.08c0.55,0.71,1.065,1.451,1.646,2.143c2.35,2.752,5.115,5.176,8.148,7.256
				c3.084,2.013,6.477,3.558,10.016,4.677c3.543,1.044,7.348,1.504,10.946,1.567c3.927-0.134,7.438-0.652,11.013-1.75
				c3.502-1.175,6.84-2.767,9.859-4.811c2.97-2.11,5.649-4.557,7.934-7.294c2.196-2.8,4.107-5.78,5.459-8.966
				c1.332-3.177,2.406-6.438,2.808-9.75c0.334-1.637,0.319-3.293,0.431-4.917l0.031-0.536l-0.023-0.631l-0.047-1.257
				c-0.05-0.823-0.021-1.692-0.134-2.462c-0.108-0.771-0.215-1.538-0.321-2.299c-0.06-0.381-0.089-0.762-0.171-1.141l-0.269-1.132
				c-0.175-0.754-0.348-1.502-0.52-2.244c-0.221-0.729-0.482-1.439-0.718-2.152c-0.939-2.856-2.279-5.455-3.696-7.874
				c-2.954-4.783-6.746-8.463-10.497-11.126c-3.742-2.726-7.563-4.231-10.733-5.207c-0.804-0.224-1.564-0.435-2.28-0.634
				c-0.722-0.174-1.418-0.248-2.056-0.365c-0.64-0.105-1.232-0.203-1.775-0.293c-0.543-0.089-1.045-0.08-1.491-0.119
				c-1.788-0.11-2.742-0.169-2.742-0.169L116.019,82.072z M116.011,81.772c0,0,0.963,0.039,2.768,0.111
				c0.45,0.031,0.959,0.011,1.509,0.089c0.551,0.079,1.15,0.164,1.8,0.257c0.646,0.104,1.353,0.167,2.087,0.326
				c0.732,0.176,1.51,0.363,2.331,0.561c3.248,0.882,7.198,2.239,11.216,4.791c4.011,2.518,8.173,6.098,11.58,10.941
				c3.391,4.857,5.976,10.864,6.858,17.789c0.139,0.86,0.129,1.662,0.2,2.504l0.08,1.255l0.039,0.631
				c-0.001-0.041,0.008,0.144,0.005,0.155l-0.004,0.082l-0.007,0.164l-0.016,0.328c-0.101,1.752-0.082,3.538-0.422,5.31
				c-0.414,3.579-1.537,7.121-2.96,10.571c-0.407,0.842-0.817,1.687-1.228,2.535c-0.413,0.848-0.961,1.625-1.439,2.444l-0.744,1.217
				c-0.265,0.395-0.565,0.767-0.848,1.152c-0.582,0.758-1.131,1.545-1.747,2.282c-2.487,2.938-5.44,5.51-8.671,7.717
				c-3.286,2.139-6.9,3.782-10.672,4.965c-3.762,1.106-7.906,1.605-11.654,1.647l-3.022-0.169c-0.99-0.018-1.964-0.195-2.938-0.354
				l-1.461-0.236l-0.73-0.119l-0.715-0.189l-2.854-0.762c-3.734-1.237-7.295-2.927-10.515-5.098
				c-3.169-2.237-6.036-4.83-8.458-7.755c-0.599-0.734-1.13-1.519-1.694-2.272c-0.273-0.383-0.565-0.752-0.821-1.145l-0.718-1.208
				c-0.46-0.813-0.991-1.584-1.386-2.423c-0.395-0.84-0.787-1.676-1.179-2.508c-1.387-3.407-2.476-6.856-2.874-10.419
				c-0.331-1.781-0.298-3.472-0.394-5.167c-0.007-0.229-0.022-0.383-0.021-0.672l0.039-0.643l0.079-1.278
				c0.072-0.847,0.064-1.696,0.201-2.524c0.869-6.665,3.317-12.68,6.6-17.482c3.303-4.808,7.354-8.41,11.283-10.975
				c3.938-2.598,7.841-4.012,11.062-4.94c0.815-0.209,1.588-0.407,2.314-0.594c0.73-0.17,1.435-0.24,2.08-0.354
				c0.647-0.102,1.247-0.195,1.796-0.281c0.55-0.085,1.053-0.072,1.501-0.108c1.797-0.098,2.755-0.148,2.755-0.148L116.011,81.772z"
				/>
			<path fill="#C19751" d="M116.003,149.339c0,0-0.685-0.037-1.968-0.108c-0.32-0.026-0.68-0.018-1.072-0.078
				c-0.394-0.062-0.822-0.13-1.286-0.203c-0.462-0.081-0.966-0.133-1.488-0.254c-0.52-0.133-1.072-0.274-1.655-0.424
				c-2.305-0.663-5.099-1.668-7.928-3.511c-2.821-1.825-5.736-4.39-8.129-7.824c-2.38-3.43-4.158-7.744-4.806-12.535
				c-0.102-0.596-0.099-1.206-0.153-1.815c-0.021-0.623-0.127-1.199-0.077-1.873c0.064-1.214,0.036-2.412,0.271-3.706
				c0.281-2.578,1.057-5.057,2.05-7.517c1.025-2.449,2.479-4.745,4.159-6.9c1.74-2.113,3.804-3.99,6.086-5.611
				c2.319-1.572,4.887-2.8,7.582-3.7c1.371-0.371,2.74-0.781,4.16-0.954c0.703-0.118,1.407-0.247,2.123-0.263l2.201-0.127
				c2.651,0.017,5.702,0.37,8.417,1.161c2.731,0.846,5.354,2.026,7.738,3.567c2.347,1.59,4.495,3.444,6.301,5.573
				c1.749,2.165,3.276,4.484,4.366,6.976c1.029,2.503,1.838,5.073,2.135,7.668c0.244,1.285,0.23,2.579,0.301,3.849l0.01,0.238
				l0.006,0.119l0.002,0.06l-0.004,0.132l-0.03,0.451l-0.062,0.896c-0.055,0.604-0.05,1.168-0.152,1.796
				c-0.661,5.05-2.576,9.357-5.063,12.842c-2.499,3.47-5.524,6.014-8.427,7.79c-2.91,1.798-5.75,2.747-8.08,3.362
				c-0.59,0.138-1.148,0.268-1.674,0.39c-0.525,0.112-1.031,0.154-1.495,0.228c-0.465,0.064-0.895,0.123-1.289,0.178
				c-0.394,0.055-0.758,0.039-1.08,0.06c-1.292,0.046-1.98,0.071-1.98,0.071L116.003,149.339z M116.011,149.039
				c0,0,0.681-0.045,1.955-0.129c0.317-0.029,0.677-0.024,1.063-0.089c0.387-0.065,0.809-0.138,1.265-0.215
				c0.454-0.085,0.949-0.141,1.463-0.267c0.51-0.145,1.051-0.3,1.622-0.463c2.254-0.71,4.965-1.806,7.599-3.778
				c2.643-1.923,5.298-4.565,7.343-7.974c0.982-1.723,1.897-3.571,2.544-5.59c0.161-0.504,0.341-1.006,0.491-1.521
				c0.116-0.524,0.233-1.053,0.352-1.585c0.295-1.064,0.337-2.124,0.514-3.201c0.076-0.537,0.054-1.167,0.085-1.752l0.029-0.898
				l0.015-0.451c0.002-0.086,0,0.054-0.002,0.02l-0.003-0.053l-0.007-0.107l-0.012-0.214c-0.082-1.143-0.072-2.307-0.309-3.457
				c-0.285-2.327-1.045-4.617-1.982-6.848c-0.945-2.24-2.282-4.338-3.821-6.31c-1.603-1.928-3.478-3.657-5.562-5.149
				c-2.119-1.447-4.465-2.576-6.928-3.414c-2.525-0.782-4.943-1.154-7.775-1.264c-2.502,0.038-5.213,0.353-7.709,1.081
				c-2.499,0.782-4.898,1.865-7.083,3.28c-2.147,1.463-4.108,3.17-5.776,5.111c-1.607,1.982-3.019,4.104-4.028,6.386
				c-0.974,2.273-1.768,4.655-2.067,6.999c-0.246,1.142-0.251,2.401-0.338,3.6c-0.055,0.534,0.019,1.157,0.021,1.727
				c0.032,0.58,0.007,1.163,0.085,1.732c0.46,4.579,2.023,8.768,4.157,12.204c2.15,3.442,4.917,6.064,7.641,7.939
				c2.714,1.926,5.472,2.967,7.752,3.629c0.577,0.152,1.124,0.295,1.639,0.43c0.518,0.116,1.015,0.162,1.471,0.239
				c0.457,0.068,0.88,0.132,1.268,0.189s0.751,0.046,1.07,0.07c1.284,0.06,1.969,0.092,1.969,0.092L116.011,149.039z"/>
		</g>
	</g>
	<g>
		<circle fill="#C19650" cx="116.011" cy="120.881" r="30.438"/>
		<path fill="#926F34" d="M146.598,120.889c0,0-0.031,0.746-0.092,2.145c-0.024,0.351-0.012,0.741-0.07,1.171
			c-0.062,0.429-0.131,0.897-0.203,1.404c-0.086,0.505-0.129,1.058-0.239,1.634c-0.131,0.571-0.271,1.179-0.418,1.821
			c-0.667,2.537-1.647,5.644-3.576,8.839c-1.901,3.182-4.622,6.55-8.418,9.273c-3.785,2.71-8.647,4.661-13.978,5.24
			c-0.663,0.091-1.342,0.064-2.018,0.102l-1.018,0.031l-0.512,0.016l-0.127-0.001l-0.061-0.005l-0.123-0.009l-0.246-0.017
			c-1.32-0.122-2.617-0.159-4.045-0.479c-2.826-0.438-5.488-1.411-8.102-2.623c-2.607-1.233-4.982-2.953-7.234-4.821
			c-2.195-1.95-4.151-4.19-5.845-6.649c-1.65-2.491-2.946-5.229-3.927-8.096c-0.951-2.903-1.439-5.879-1.595-9.028
			c-0.038-2.92,0.264-6.143,1.056-9.107c0.878-2.957,2.109-5.811,3.748-8.411c1.688-2.562,3.699-4.886,5.98-6.867
			c2.325-1.918,4.822-3.603,7.516-4.807c2.687-1.188,5.48-2.084,8.301-2.431c1.396-0.273,2.805-0.274,4.188-0.354l0.26-0.01
			l0.129-0.005l0.065-0.003l0.143,0.005l0.491,0.029l0.977,0.06c0.66,0.056,1.271,0.044,1.958,0.154
			c1.354,0.24,2.746,0.363,3.985,0.758c0.633,0.17,1.26,0.338,1.883,0.505c0.609,0.209,1.199,0.46,1.791,0.685
			c1.199,0.415,2.285,1.034,3.374,1.578c0.556,0.253,1.047,0.611,1.548,0.936c0.498,0.327,0.99,0.652,1.479,0.974
			c3.789,2.753,6.504,6.129,8.4,9.318c1.928,3.201,2.909,6.31,3.571,8.851c0.146,0.643,0.285,1.251,0.416,1.823
			c0.108,0.575,0.151,1.126,0.234,1.63c0.072,0.506,0.139,0.974,0.199,1.402c0.058,0.429,0.045,0.824,0.067,1.176
			c0.057,1.406,0.086,2.156,0.086,2.156V120.889z M146.299,120.881c0,0-0.046-0.742-0.131-2.133
			c-0.03-0.346-0.024-0.737-0.091-1.159c-0.069-0.423-0.145-0.884-0.227-1.381c-0.086-0.497-0.154-1.036-0.296-1.596
			c-0.158-0.555-0.328-1.145-0.507-1.769c-0.761-2.462-1.997-5.404-4.147-8.264c-2.104-2.874-5.013-5.709-8.684-7.956
			c-1.869-1.06-3.839-2.12-6.027-2.838c-0.544-0.185-1.092-0.37-1.645-0.558c-0.566-0.139-1.139-0.278-1.714-0.419
			c-1.152-0.345-2.307-0.396-3.479-0.6c-0.582-0.091-1.271-0.069-1.907-0.11l-0.978-0.039l-0.491-0.02
			c0.016,0.001-0.123-0.005,0.02,0.001l-0.059,0.004l-0.116,0.008l-0.233,0.015c-1.245,0.086-2.516,0.063-3.771,0.315
			c-2.543,0.298-5.042,1.12-7.503,2.101c-2.459,1.022-4.755,2.495-6.918,4.182c-2.13,1.743-3.989,3.837-5.638,6.115
			c-1.607,2.315-2.857,4.892-3.799,7.599c-0.915,2.749-1.388,5.487-1.565,8.54c-0.015,2.824,0.268,5.811,1.024,8.621
			c0.838,2.796,2.023,5.489,3.618,7.914c0.395,0.605,0.85,1.17,1.281,1.748c0.223,0.282,0.425,0.582,0.664,0.851l0.731,0.792
			c0.501,0.512,0.938,1.087,1.488,1.543l1.608,1.399c2.236,1.736,4.654,3.175,7.199,4.167c2.533,0.958,5.167,1.703,7.702,1.909
			c1.225,0.208,2.606,0.148,3.914,0.192l0.247,0.008l0.123,0.004l0.062,0.002c0.034,0.002-0.08-0.005-0.004-0.005l0.471-0.034
			l0.938-0.066c0.62-0.059,1.242-0.053,1.848-0.162c4.879-0.64,9.272-2.365,12.947-4.605c3.664-2.276,6.568-5.118,8.668-8
			c2.148-2.864,3.387-5.809,4.144-8.274c0.179-0.624,0.347-1.214,0.505-1.77c0.141-0.56,0.208-1.097,0.292-1.593
			c0.08-0.497,0.154-0.957,0.222-1.378c0.065-0.422,0.059-0.817,0.088-1.166c0.081-1.397,0.125-2.144,0.125-2.144V120.881z"/>
	</g>
	<g id="Livello_10_36_">
		<g>
			<path fill="#A67D3C" d="M106.183,113.753c-5.628,5.994-3.366,12.54-2.442,14.933c5.721-13.231,18.956-16.387,18.956-16.387
				s-16.69,11.828-18.411,26.625c-0.134,1.168,2.695,1.84,2.901,0.445c0.632-4.158,2.181-7.578,2.181-7.578
				c3.805,0.363,10.174,0.25,13.515-4.006c4.436-5.657,1.319-14.554,8.058-21.206C132.509,105.027,113.81,105.635,106.183,113.753z"
				/>
		</g>
	</g>
	<path fill="#58B259" d="M121.357,23.896l-8.705,23.921l-10.134,27.842l-0.214,0.585h25.169l17.136-47.076
		C137.351,26.242,129.532,24.417,121.357,23.896z"/>
	<circle fill="none" stroke="#A67D3C" stroke-width="5" stroke-miterlimit="10" cx="115.425" cy="97.709" r="75.216"/>
	<g>
		<g>
			<path fill="#00953E" stroke="#A67D3C" stroke-width="4" stroke-miterlimit="10" d="M218.189,152.628
				c-6.562-1.267-12.94-2.86-19.115-4.75c2.964-6.088,5.604-12.241,7.921-18.431c-52.148,29.121-114.772,31.745-168.899,7.72
				c-4.867-2.171-9.666-4.558-14.381-7.16c2.587,6.364,5.521,12.695,8.804,18.955c-5.812,1.755-11.8,3.237-17.947,4.421
				C78.048,187.883,154.859,187.645,218.189,152.628L218.189,152.628L218.189,152.628z"/>
		</g>
	</g>
	<g>
		<g>
			<path fill="#A67D3C" d="M50.288,146.029c2.497,1.031,5.013,2,7.544,2.908c1.489,0.533,2.554,1.231,3.191,2.123
				c0.637,0.889,0.846,1.806,0.607,2.746c-0.197,0.787-0.652,1.364-1.359,1.722c-0.711,0.358-1.686,0.503-2.915,0.417
				c1.341,0.771,2.304,1.56,2.871,2.386c0.563,0.825,0.745,1.688,0.521,2.591c-0.169,0.688-0.529,1.231-1.079,1.628
				c-0.552,0.396-1.361,0.617-2.427,0.653c-1.067,0.036-2.222-0.164-3.452-0.611c-2.616-0.948-5.218-1.957-7.798-3.03
				c0.07-0.229,0.143-0.457,0.217-0.687c0.418,0.174,0.84,0.347,1.261,0.518c0.378,0.156,0.674,0.21,0.884,0.171
				c0.21-0.042,0.336-0.129,0.38-0.271c1.11-3.631,2.214-7.263,3.325-10.894c0.078-0.256,0.056-0.485-0.066-0.682
				c-0.125-0.196-0.343-0.356-0.653-0.483c-0.422-0.171-0.847-0.345-1.269-0.519C50.145,146.486,50.214,146.258,50.288,146.029z
				 M52.758,154.011c0.941,0.36,1.887,0.711,2.832,1.056c0.871,0.317,1.633,0.326,2.277,0.036c0.643-0.292,1.104-0.976,1.39-2.051
				c0.174-0.666,0.192-1.225,0.048-1.681c-0.144-0.456-0.422-0.851-0.834-1.182c-0.412-0.334-1.181-0.697-2.307-1.112
				c-0.796-0.294-1.3-0.428-1.524-0.392s-0.372,0.188-0.452,0.459C53.711,150.765,53.236,152.389,52.758,154.011z M52.554,154.703
				c-0.514,1.754-1.03,3.508-1.546,5.263c-0.07,0.246-0.047,0.462,0.081,0.647c0.126,0.187,0.403,0.358,0.827,0.52
				c0.623,0.233,1.243,0.464,1.868,0.691c1.245,0.451,2.226,0.527,2.95,0.244s1.22-0.946,1.486-1.979
				c0.248-0.947,0.137-1.797-0.32-2.547c-0.457-0.752-1.209-1.312-2.261-1.691C54.61,155.479,53.58,155.096,52.554,154.703z"/>
			<path fill="#A67D3C" d="M63.163,156.236c1.159,0.307,2.317,0.601,3.479,0.883c-0.269,1.193-0.538,2.389-0.807,3.581
				c0.637-1.07,1.285-1.832,1.939-2.29c0.654-0.46,1.359-0.582,2.128-0.375c0.519,0.14,0.907,0.398,1.16,0.775
				c0.253,0.378,0.329,0.813,0.231,1.308c-0.08,0.401-0.249,0.683-0.506,0.85c-0.258,0.165-0.544,0.208-0.864,0.123
				c-0.314-0.083-0.543-0.249-0.696-0.489c-0.146-0.241-0.191-0.523-0.123-0.847c0.043-0.209,0.14-0.39,0.289-0.543
				c0.14-0.137,0.21-0.221,0.217-0.253c0.02-0.095-0.037-0.16-0.166-0.195c-0.28-0.076-0.635-0.015-1.056,0.191
				c-0.586,0.285-1.096,0.756-1.529,1.418c-0.671,1.029-1.085,1.884-1.239,2.571c-0.144,0.634-0.285,1.267-0.426,1.901
				c-0.05,0.213,0.003,0.402,0.146,0.564c0.147,0.163,0.421,0.304,0.834,0.422c0.422,0.119,0.844,0.238,1.268,0.354
				c-0.052,0.236-0.101,0.474-0.151,0.712c-2.075-0.575-4.142-1.186-6.199-1.834c0.057-0.233,0.113-0.47,0.17-0.705
				c0.328,0.104,0.655,0.205,0.985,0.308s0.597,0.121,0.792,0.056c0.198-0.064,0.316-0.18,0.353-0.343
				c0.438-1.876,0.874-3.753,1.309-5.63c0.098-0.428,0.071-0.771-0.079-1.027c-0.152-0.258-0.413-0.444-0.78-0.558
				c-0.276-0.086-0.562-0.174-0.839-0.261C63.057,156.682,63.108,156.459,63.163,156.236z"/>
			<path fill="#A67D3C" d="M77.258,159.746c1.305,0.293,2.329,0.961,3.085,2.02c0.759,1.058,1.034,2.301,0.817,3.733
				c-0.15,0.989-0.484,1.794-1.002,2.406c-0.52,0.614-1.195,1.044-2.028,1.285c-0.833,0.244-1.693,0.263-2.581,0.062
				c-1.312-0.297-2.342-1.004-3.077-2.104c-0.736-1.1-0.96-2.354-0.686-3.75c0.274-1.404,0.943-2.433,1.987-3.094
				C74.82,159.642,75.973,159.457,77.258,159.746z M77.14,160.426c-0.773-0.175-1.467,0.003-2.087,0.531
				c-0.619,0.529-1.061,1.488-1.32,2.883c-0.264,1.421-0.209,2.521,0.184,3.299c0.39,0.777,0.992,1.264,1.806,1.446
				c0.843,0.188,1.577,0.009,2.206-0.541c0.625-0.548,1.062-1.576,1.301-3.076c0.225-1.391,0.133-2.448-0.262-3.177
				C78.57,161.064,77.967,160.61,77.14,160.426z"/>
			<path fill="#A67D3C" d="M83.262,161.262c1.088,0.141,2.178,0.272,3.271,0.394c0.057,0.59,0.07,1.271,0.035,2.043
				c0.527-0.583,1.109-0.992,1.746-1.229c0.637-0.235,1.332-0.296,2.085-0.188c0.65,0.096,1.181,0.287,1.598,0.585
				c0.419,0.296,0.729,0.716,0.948,1.265c0.215,0.546,0.295,1.137,0.232,1.774c-0.145,1.479-0.29,2.958-0.437,4.438
				c-0.03,0.33,0.024,0.578,0.182,0.738c0.154,0.16,0.427,0.266,0.818,0.313c0.24,0.029,0.479,0.06,0.72,0.087
				c-0.021,0.243-0.044,0.488-0.066,0.73c-1.802-0.213-3.601-0.453-5.396-0.72c0.029-0.242,0.057-0.485,0.083-0.728
				c0.172,0.025,0.342,0.05,0.512,0.075c0.48,0.069,0.819,0.046,1.022-0.062c0.202-0.11,0.318-0.301,0.348-0.574
				c0.138-1.299,0.275-2.599,0.413-3.897c0.091-0.849,0.018-1.497-0.222-1.945c-0.33-0.639-0.895-1.014-1.695-1.134
				c-0.793-0.118-1.486,0.071-2.092,0.572c-0.604,0.501-0.969,1.222-1.091,2.163c-0.144,1.119-0.288,2.241-0.434,3.36
				c-0.041,0.33,0.013,0.578,0.165,0.745c0.152,0.166,0.422,0.282,0.812,0.346c0.235,0.037,0.472,0.075,0.707,0.112
				c-0.029,0.243-0.059,0.484-0.088,0.728c-1.8-0.284-3.599-0.595-5.394-0.933c0.036-0.242,0.072-0.482,0.104-0.724
				c0.236,0.044,0.469,0.086,0.703,0.131c0.352,0.064,0.631,0.05,0.833-0.047c0.203-0.096,0.315-0.24,0.343-0.434
				c0.27-1.95,0.532-3.899,0.801-5.85c0.055-0.386-0.021-0.699-0.221-0.94c-0.199-0.24-0.511-0.398-0.937-0.477
				c-0.166-0.031-0.334-0.062-0.502-0.094C83.202,161.68,83.232,161.471,83.262,161.262z"/>
			<path fill="#A67D3C" d="M97.249,163.306c2.604,0.273,5.214,0.489,7.828,0.645c-0.007,0.195-0.017,0.392-0.026,0.587
				c-2.195,2.494-4.466,4.947-6.805,7.352c1.046,0.102,2.093,0.193,3.139,0.276c0.723,0.058,1.312-0.104,1.762-0.48
				c0.452-0.375,0.82-1.108,1.104-2.195c0.24,0.016,0.482,0.03,0.724,0.045c-0.134,1.197-0.268,2.395-0.403,3.592
				c-2.885-0.178-5.768-0.424-8.643-0.738c0.019-0.226,0.038-0.448,0.057-0.674c2.356-2.357,4.645-4.763,6.861-7.214
				c-0.878-0.063-1.757-0.133-2.633-0.211c-0.551-0.049-0.966-0.015-1.246,0.098c-0.281,0.115-0.533,0.322-0.756,0.626
				c-0.223,0.303-0.449,0.839-0.682,1.608c-0.264-0.026-0.529-0.055-0.79-0.082C96.911,165.461,97.081,164.384,97.249,163.306z"/>
			<path fill="#A67D3C" d="M116.043,168.929c-2.412,0.005-4.824-0.038-7.235-0.13c-0.001,1.4,0.257,2.399,0.789,2.994
				c0.612,0.669,1.405,1.018,2.38,1.037c1.432,0.03,2.593-0.693,3.452-2.152c0.235,0.092,0.47,0.185,0.708,0.274
				c-1.05,1.863-2.609,2.788-4.635,2.742c-1.38-0.032-2.533-0.521-3.443-1.448c-0.91-0.93-1.332-2.093-1.279-3.478
				c0.057-1.489,0.555-2.671,1.477-3.553c0.925-0.883,2.027-1.303,3.328-1.274c0.956,0.022,1.776,0.262,2.476,0.726
				c0.696,0.465,1.225,1.123,1.58,1.981C115.892,167.252,116.024,168.012,116.043,168.929z M108.828,168.102
				c1.454,0.056,2.909,0.093,4.363,0.112c0.263,0.004,0.456-0.073,0.604-0.233c0.143-0.158,0.217-0.431,0.219-0.818
				c0.005-0.721-0.238-1.335-0.716-1.845c-0.482-0.51-1.047-0.772-1.702-0.786c-0.735-0.016-1.361,0.27-1.89,0.861
				C109.18,165.984,108.882,166.885,108.828,168.102z"/>
			<path fill="#A67D3C" d="M124.179,164.044c0.941-0.103,1.882-0.213,2.819-0.33c0.192,0.675,0.326,1.318,0.411,1.935
				c0.502-0.754,1.009-1.297,1.524-1.632c0.517-0.335,1.095-0.529,1.734-0.585c0.682-0.06,1.253,0.055,1.724,0.343
				c0.469,0.29,0.853,0.796,1.156,1.521c0.418-0.758,0.893-1.346,1.438-1.762c0.541-0.415,1.153-0.665,1.83-0.748
				c0.894-0.108,1.591,0.049,2.09,0.484c0.643,0.575,1.025,1.375,1.14,2.406c0.168,1.517,0.335,3.034,0.503,4.551
				c0.027,0.276,0.127,0.449,0.29,0.526c0.219,0.122,0.529,0.155,0.928,0.097c0.17-0.024,0.34-0.049,0.511-0.075
				c0.026,0.245,0.06,0.488,0.086,0.733c-1.712,0.254-3.428,0.482-5.146,0.688c-0.021-0.245-0.049-0.491-0.069-0.735
				c0.171-0.021,0.341-0.041,0.512-0.062c0.44-0.053,0.735-0.158,0.896-0.311c0.161-0.153,0.229-0.36,0.2-0.622
				c-0.154-1.521-0.312-3.04-0.467-4.561c-0.072-0.679-0.304-1.185-0.7-1.511c-0.394-0.326-0.882-0.455-1.466-0.386
				c-0.443,0.053-0.832,0.207-1.171,0.466c-0.343,0.26-0.593,0.604-0.766,1.031c-0.256,0.614-0.364,1.125-0.333,1.531
				c0.107,1.319,0.217,2.639,0.326,3.959c0.021,0.269,0.118,0.457,0.288,0.569c0.171,0.11,0.424,0.15,0.759,0.112
				c0.232-0.025,0.465-0.051,0.698-0.076c0.022,0.246,0.048,0.49,0.065,0.735c-1.744,0.195-3.49,0.365-5.238,0.511
				c-0.017-0.246-0.031-0.491-0.049-0.736c0.196-0.017,0.396-0.033,0.59-0.051c0.371-0.031,0.646-0.122,0.817-0.27
				c0.172-0.148,0.251-0.322,0.235-0.526c-0.104-1.413-0.21-2.827-0.314-4.241c-0.064-0.896-0.286-1.53-0.66-1.905
				c-0.371-0.375-0.846-0.537-1.424-0.489c-0.749,0.062-1.311,0.34-1.685,0.841c-0.534,0.71-0.782,1.508-0.733,2.399
				c0.065,1.225,0.133,2.449,0.199,3.675c0.012,0.28,0.096,0.47,0.238,0.565c0.205,0.124,0.516,0.174,0.932,0.143
				c0.177-0.013,0.352-0.027,0.525-0.039c0.015,0.245,0.029,0.491,0.045,0.736c-1.727,0.131-3.454,0.235-5.185,0.318
				c-0.01-0.246-0.017-0.492-0.028-0.737c0.261-0.013,0.519-0.024,0.777-0.038c0.291-0.017,0.514-0.094,0.665-0.232
				c0.153-0.141,0.222-0.312,0.212-0.516c-0.094-2.011-0.188-4.022-0.279-6.034c-0.014-0.334-0.12-0.578-0.31-0.731
				c-0.194-0.151-0.562-0.237-1.116-0.256C124.198,164.496,124.188,164.271,124.179,164.044z"/>
			<path fill="#A67D3C" d="M152.653,165.038c-2.373,0.504-4.751,0.959-7.137,1.365c0.221,1.387,0.643,2.319,1.259,2.798
				c0.711,0.534,1.547,0.717,2.508,0.534c1.412-0.265,2.44-1.22,3.049-2.841c0.246,0.043,0.495,0.084,0.741,0.126
				c-0.733,2.058-2.114,3.296-4.117,3.667c-1.365,0.254-2.575,0.01-3.621-0.722c-1.045-0.731-1.645-1.794-1.818-3.175
				c-0.183-1.486,0.11-2.755,0.879-3.817c0.766-1.062,1.785-1.707,3.067-1.945c0.944-0.177,1.793-0.108,2.553,0.207
				c0.759,0.316,1.386,0.856,1.873,1.632C152.23,163.412,152.491,164.135,152.653,165.038z M145.424,165.71
				c1.44-0.245,2.874-0.508,4.311-0.789c0.253-0.049,0.439-0.168,0.555-0.355c0.117-0.186,0.143-0.472,0.084-0.854
				c-0.115-0.713-0.449-1.271-1.002-1.677c-0.554-0.405-1.153-0.546-1.802-0.426c-0.724,0.135-1.296,0.547-1.72,1.24
				S145.283,164.497,145.424,165.71z"/>
			<path fill="#A67D3C" d="M157.832,153.556c1.216-0.37,2.429-0.755,3.639-1.153c0.897,4.105,1.795,8.21,2.692,12.317
				c0.103,0.48,0.279,0.793,0.528,0.942c0.243,0.148,0.574,0.165,0.977,0.05c0.232-0.065,0.461-0.134,0.691-0.2
				c0.056,0.239,0.11,0.479,0.164,0.719c-1.137,0.33-2.279,0.652-3.421,0.959c-0.213-0.59-0.427-1.18-0.643-1.77
				c-0.266,0.764-0.643,1.381-1.119,1.855c-0.476,0.473-1.057,0.795-1.742,0.964c-1.146,0.286-2.211,0.086-3.172-0.593
				c-0.96-0.681-1.563-1.735-1.812-3.157c-0.269-1.541,0.02-2.878,0.848-4.027c0.651-0.901,1.476-1.473,2.487-1.726
				c0.618-0.156,1.202-0.153,1.751,0.008c0.551,0.16,1.068,0.484,1.559,0.968c-0.357-1.697-0.715-3.396-1.071-5.092
				c-0.058-0.27-0.207-0.452-0.462-0.552c-0.254-0.099-0.608-0.086-1.073,0.035c-0.226,0.059-0.45,0.117-0.676,0.175
				C157.93,154.037,157.88,153.798,157.832,153.556z M158.386,159.467c-0.743,0.189-1.28,0.619-1.612,1.3
				c-0.332,0.68-0.377,1.7-0.122,3.062c0.274,1.476,0.695,2.463,1.274,2.953c0.58,0.491,1.232,0.648,1.963,0.464
				c0.779-0.194,1.374-0.704,1.787-1.52c0.411-0.816,0.478-1.87,0.205-3.161c-0.256-1.219-0.746-2.1-1.465-2.647
				C159.793,159.431,159.117,159.283,158.386,159.467z"/>
			<path fill="#A67D3C" d="M177.781,161.48c0.175,0.13,0.352,0.261,0.527,0.391c-0.375,0.66-0.876,1.102-1.5,1.324
				c-0.48,0.17-0.912,0.193-1.302,0.074c-0.39-0.12-0.788-0.433-1.188-0.938c-0.497,0.861-0.971,1.482-1.426,1.861
				c-0.451,0.381-1.035,0.685-1.752,0.915c-1.018,0.325-1.847,0.366-2.469,0.134c-0.624-0.233-1.011-0.663-1.153-1.28
				c-0.219-0.933,0.202-1.884,1.245-2.869c1.041-0.984,2.517-1.899,4.417-2.771c-0.122-0.449-0.241-0.898-0.358-1.348
				c-0.124-0.48-0.445-0.821-0.949-1.022s-1.074-0.195-1.711,0.014c-0.593,0.195-1.071,0.473-1.444,0.839
				c-0.264,0.268-0.376,0.487-0.336,0.652c0.024,0.097,0.142,0.218,0.356,0.37c0.262,0.193,0.42,0.385,0.466,0.583
				c0.069,0.286,0.028,0.553-0.126,0.796c-0.155,0.244-0.395,0.419-0.719,0.52c-0.347,0.109-0.661,0.089-0.943-0.059
				c-0.281-0.146-0.464-0.39-0.544-0.726c-0.149-0.632,0.095-1.325,0.73-2.083c0.635-0.761,1.561-1.334,2.783-1.74
				c1.126-0.375,2.048-0.443,2.765-0.195c0.722,0.253,1.169,0.706,1.352,1.361c0.445,1.615,0.889,3.23,1.333,4.846
				c0.116,0.43,0.283,0.718,0.491,0.865c0.209,0.154,0.441,0.188,0.684,0.1C177.285,161.994,177.54,161.79,177.781,161.48z
				 M173.348,158.947c-1.691,0.82-2.846,1.58-3.456,2.32c-0.457,0.555-0.597,1.184-0.429,1.883c0.12,0.49,0.354,0.828,0.714,1.014
				c0.356,0.187,0.768,0.205,1.234,0.055c0.831-0.268,1.479-0.791,1.936-1.562c0.459-0.771,0.569-1.584,0.34-2.438
				C173.572,159.795,173.461,159.371,173.348,158.947z"/>
			<path fill="#A67D3C" d="M178.972,146.436c1.312,4.238,2.628,8.477,3.94,12.715c0.055,0.176,0.154,0.285,0.301,0.332
				c0.211,0.057,0.439,0.033,0.689-0.066c0.344-0.14,0.682-0.279,1.024-0.42c0.073,0.232,0.146,0.465,0.224,0.699
				c-1.834,0.758-3.68,1.484-5.532,2.18c-0.068-0.235-0.137-0.471-0.205-0.706c0.329-0.122,0.653-0.246,0.979-0.371
				c0.319-0.122,0.533-0.282,0.651-0.481c0.112-0.197,0.132-0.421,0.058-0.673c-1.074-3.568-2.146-7.138-3.221-10.705
				c-0.094-0.313-0.254-0.508-0.472-0.582c-0.302-0.107-0.63-0.091-0.983,0.043c-0.275,0.104-0.551,0.209-0.826,0.313
				c-0.068-0.236-0.137-0.471-0.205-0.706C176.592,147.497,177.785,146.972,178.972,146.436z"/>
		</g>
	</g>
</g>
</svg>
