<?xml version="1.0" encoding="utf-8"?>
<!-- Generator: Adobe Illustrator 16.0.4, SVG Export Plug-In . SVG Version: 6.00 Build 0)  -->
<!DOCTYPE svg PUBLIC "-//W3C//DTD SVG 1.1//EN" "http://www.w3.org/Graphics/SVG/1.1/DTD/svg11.dtd">
<svg version="1.1" id="Livello_1" xmlns="http://www.w3.org/2000/svg" xmlns:xlink="http://www.w3.org/1999/xlink" x="0px" y="0px"
	 width="210px" height="200px" viewBox="0 0 210 200" enable-background="new 0 0 210 200" xml:space="preserve">
<g>
	<g>
		<circle fill="#27A94A" cx="105" cy="100" r="84"/>
		<circle fill="#00953E" stroke="#FFFFFF" stroke-width="5" stroke-miterlimit="10" cx="105" cy="100" r="75.216"/>
		<g id="Livello_10_2_">
			<g>
				<path fill="#6AB64D" stroke="#FFFFFF" stroke-width="4" stroke-miterlimit="10" d="M73.272,72.206
					c-16.87,17.962-10.091,37.589-7.323,44.763c17.148-39.662,56.822-49.123,56.822-49.123s-50.03,35.45-55.185,79.809
					c-0.405,3.502,8.074,5.517,8.694,1.332c1.895-12.461,6.539-22.711,6.539-22.711c11.401,1.087,30.49,0.75,40.504-12.011
					c13.299-16.955,3.958-43.622,24.15-63.561C152.188,46.051,96.133,47.869,73.272,72.206z"/>
			</g>
		</g>
	</g>
	<g>
		<g>
			<path fill="#47AE54" stroke="#FFFFFF" stroke-width="2" stroke-miterlimit="10" d="M194.768,148.898
				c-2.534-5.819-5.349-11.609-8.446-17.346c6.004-2.538,12.219-4.851,18.63-6.915C140.979,97.781,68.834,97.951,4.965,125.146
				c0.04,0.094,0.08,0.188,0.12,0.282c6.617,2.096,13.026,4.457,19.211,7.059c-2.899,5.431-5.546,10.909-7.942,16.413
				C73.411,124.948,137.71,124.947,194.768,148.898L194.768,148.898L194.768,148.898z"/>
		</g>
	</g>
	<g>
		<g>
			<path fill="#FFFFFF" d="M47.583,117.426c1.973-0.263,3.697-0.59,5.185-1.001c1.155-0.32,2.072-0.678,2.761-1.089
				c0.277-0.168,0.442-0.258,0.492-0.271c0.118-0.03,0.195,0.024,0.232,0.162c0.123,0.46,0.037,1.005-0.25,1.638
				c-0.285,0.631-0.733,1.171-1.344,1.62c-0.609,0.447-1.435,0.814-2.479,1.113c-0.791,0.225-1.703,0.414-2.742,0.576
				c0.206,0.971,0.415,1.938,0.627,2.906c0.532-0.415,1.052-0.759,1.558-1.028c0.505-0.273,0.995-0.473,1.466-0.607
				c1.564-0.442,3.031-0.365,4.378,0.221c1.347,0.588,2.204,1.623,2.599,3.085c0.405,1.502,0.188,2.866-0.626,4.096
				c-0.818,1.229-2.089,2.08-3.846,2.585c-1.397,0.401-2.624,0.413-3.695,0.019c-1.072-0.394-1.776-1.045-2.097-1.972
				c-0.209-0.605-0.187-1.147,0.072-1.63c0.258-0.48,0.682-0.811,1.267-0.987c0.514-0.155,0.985-0.141,1.412,0.044
				c0.425,0.186,0.703,0.484,0.834,0.896c0.095,0.296,0.088,0.574-0.012,0.842c-0.103,0.266-0.364,0.579-0.783,0.938
				c-0.305,0.265-0.432,0.471-0.384,0.613c0.077,0.23,0.316,0.388,0.717,0.47c0.589,0.115,1.221,0.076,1.897-0.12
				c0.846-0.245,1.421-0.742,1.739-1.497c0.316-0.756,0.256-1.879-0.184-3.372c-0.371-1.26-0.889-2.113-1.562-2.553
				c-0.674-0.437-1.406-0.546-2.189-0.32c-0.363,0.104-0.737,0.276-1.12,0.516c-0.381,0.241-0.777,0.55-1.183,0.929
				c0.165,0.535,0.206,0.925,0.125,1.167c-0.083,0.244-0.259,0.407-0.529,0.49c-0.231,0.071-0.435,0.071-0.612,0.003
				s-0.295-0.189-0.353-0.359c-0.088-0.265-0.012-0.728,0.24-1.385C48.64,121.919,48.103,119.673,47.583,117.426z"/>
			<path fill="#FFFFFF" d="M66.516,112.639c1.077-0.219,2.107-0.139,3.082,0.239c0.975,0.374,1.864,1.127,2.663,2.249
				c0.799,1.121,1.335,2.499,1.625,4.121c0.292,1.638,0.272,3.102-0.046,4.395c-0.318,1.295-0.839,2.287-1.569,2.987
				c-0.729,0.696-1.589,1.145-2.588,1.348c-1.499,0.306-2.868-0.023-4.138-0.995c-1.587-1.203-2.703-2.962-3.291-5.31
				c-0.414-1.655-0.489-3.147-0.21-4.47c0.276-1.322,0.807-2.358,1.585-3.102C64.406,113.361,65.373,112.869,66.516,112.639z
				 M70.288,120.304c-0.619-3.08-1.251-5.057-1.927-5.927c-0.489-0.633-1.054-0.889-1.687-0.762
				c-0.761,0.154-1.216,0.772-1.356,1.852c-0.141,1.078,0.111,3.047,0.763,5.908c0.545,2.395,1.183,4.032,1.889,4.925
				c0.442,0.551,0.939,0.771,1.496,0.658c0.362-0.073,0.661-0.282,0.899-0.619c0.238-0.34,0.354-0.986,0.354-1.934
				C70.719,123.118,70.579,121.75,70.288,120.304z"/>
			<path fill="#FFFFFF" d="M83.197,115.355c1.55-0.27,3.104-0.52,4.66-0.751c0.251,0.632,0.422,1.268,0.515,1.906
				c0.416-0.72,0.987-1.297,1.714-1.732c0.728-0.434,1.56-0.684,2.489-0.748c1.488-0.101,2.724,0.296,3.684,1.174
				c0.961,0.879,1.468,2.169,1.541,3.858c0.051,1.174-0.12,2.181-0.505,3.015c-0.385,0.836-0.939,1.479-1.665,1.937
				c-0.724,0.455-1.582,0.715-2.579,0.784c-0.796,0.056-1.516-0.054-2.166-0.337c-0.649-0.281-1.277-0.766-1.889-1.45
				c0.117,1.192,0.233,2.389,0.351,3.583c0.046,0.474,0.115,0.77,0.204,0.895c0.089,0.124,0.242,0.213,0.456,0.261
				c0.216,0.05,0.637,0.052,1.26,0.008c0.03,0.342,0.061,0.685,0.09,1.027c-2.133,0.173-4.265,0.385-6.396,0.637
				c-0.044-0.341-0.087-0.683-0.131-1.023c0.115-0.013,0.228-0.026,0.342-0.041c0.402-0.046,0.668-0.109,0.796-0.193
				c0.129-0.083,0.222-0.209,0.278-0.382c0.04-0.118,0.033-0.41-0.022-0.872c-0.372-3.151-0.737-6.306-1.094-9.458
				c-0.053-0.464-0.129-0.768-0.228-0.912c-0.098-0.144-0.235-0.24-0.411-0.29c-0.175-0.047-0.569-0.048-1.183,0.003
				C83.269,115.952,83.232,115.654,83.197,115.355z M91.148,115.63c-0.791,0.061-1.437,0.449-1.928,1.162
				c-0.493,0.714-0.673,1.711-0.549,2.991c0.122,1.265,0.499,2.208,1.122,2.833c0.623,0.623,1.287,0.905,2.004,0.853
				c0.702-0.055,1.245-0.385,1.635-0.991c0.51-0.805,0.728-1.854,0.645-3.152c-0.077-1.188-0.372-2.12-0.888-2.787
				C92.673,115.871,91.989,115.566,91.148,115.63z"/>
			<path fill="#FFFFFF" d="M106.395,113.433c1.292,0.007,2.479,0.268,3.545,0.781c1.067,0.514,1.845,1.176,2.334,1.978
				c0.49,0.803,0.708,1.757,0.66,2.859c-0.075,1.761-0.798,3.082-2.134,3.983c-1.337,0.9-2.809,1.342-4.45,1.335
				c-1.161-0.008-2.222-0.244-3.197-0.713c-0.974-0.471-1.736-1.105-2.285-1.912c-0.548-0.805-0.844-1.724-0.876-2.754
				c-0.048-1.551,0.519-2.875,1.736-3.948C102.941,113.968,104.509,113.424,106.395,113.433z M106.463,114.454
				c-0.853-0.004-1.53,0.323-2.028,0.983c-0.497,0.658-0.734,1.812-0.717,3.458c0.017,1.713,0.271,2.891,0.752,3.534
				c0.481,0.646,1.122,0.968,1.932,0.972c0.825,0.005,1.493-0.318,2.013-0.976c0.521-0.658,0.803-1.802,0.839-3.435
				c0.037-1.675-0.198-2.849-0.708-3.521C108.038,114.799,107.34,114.46,106.463,114.454z"/>
			<path fill="#FFFFFF" d="M115.603,114.26c1.711,0.024,3.424,0.071,5.138,0.142c-0.235,2.837-0.475,5.673-0.718,8.511
				c-0.02,0.229,0.045,0.411,0.194,0.549c0.149,0.14,0.386,0.222,0.714,0.25c0.246,0.021,0.491,0.043,0.736,0.065
				c-0.032,0.331-0.063,0.662-0.096,0.993c-2.177-0.197-4.354-0.353-6.532-0.47c0.018-0.332,0.038-0.664,0.056-0.996
				c0.243,0.013,0.484,0.026,0.726,0.04c0.39,0.022,0.67-0.042,0.841-0.197c0.17-0.155,0.271-0.436,0.297-0.843
				c0.13-1.938,0.26-3.874,0.388-5.81c0.024-0.365-0.078-0.656-0.307-0.869c-0.227-0.215-0.554-0.336-0.978-0.359
				c-0.171-0.009-0.343-0.019-0.514-0.027C115.567,114.911,115.585,114.587,115.603,114.26z M119.18,108.67
				c0.566,0.039,1.042,0.247,1.419,0.616c0.378,0.372,0.547,0.799,0.507,1.286c-0.04,0.485-0.274,0.882-0.701,1.189
				c-0.427,0.307-0.917,0.441-1.473,0.401c-0.566-0.04-1.036-0.241-1.413-0.611c-0.378-0.366-0.554-0.79-0.526-1.268
				c0.029-0.488,0.255-0.889,0.682-1.204C118.102,108.768,118.604,108.629,119.18,108.67z"/>
			<path fill="#FFFFFF" d="M138.331,126.063c-0.066,0.326-0.13,0.653-0.196,0.98c-2.172-0.4-4.347-0.761-6.523-1.083
				c0.052-0.329,0.105-0.658,0.156-0.986c0.229,0.033,0.459,0.068,0.688,0.103c0.365,0.056,0.651,0.013,0.859-0.13
				c0.208-0.141,0.339-0.376,0.395-0.699c0.242-1.437,0.481-2.871,0.718-4.307c0.122-0.736,0.024-1.33-0.295-1.783
				c-0.32-0.451-0.793-0.724-1.417-0.813c-0.849-0.124-1.583,0.058-2.193,0.544c-0.609,0.486-0.984,1.267-1.13,2.338
				c-0.152,1.112-0.306,2.223-0.46,3.334c-0.045,0.324,0.012,0.587,0.17,0.781c0.159,0.194,0.382,0.311,0.67,0.351
				c0.276,0.036,0.553,0.075,0.829,0.115c-0.05,0.328-0.099,0.657-0.149,0.987c-2.262-0.317-4.525-0.593-6.79-0.824
				c0.037-0.33,0.072-0.662,0.108-0.992c0.296,0.03,0.592,0.061,0.888,0.093c0.343,0.037,0.611-0.021,0.808-0.172
				c0.194-0.15,0.313-0.392,0.353-0.717c0.239-1.981,0.474-3.964,0.707-5.945c0.041-0.342-0.061-0.629-0.301-0.862
				c-0.242-0.23-0.58-0.369-1.012-0.415c-0.164-0.018-0.326-0.034-0.49-0.051c0.033-0.31,0.065-0.62,0.098-0.93
				c1.612,0.088,3.224,0.2,4.839,0.33c0.091,0.633,0.124,1.379,0.099,2.233c0.771-0.701,1.565-1.192,2.382-1.477
				c0.815-0.282,1.649-0.357,2.492-0.227c1.146,0.178,1.996,0.654,2.54,1.422c0.535,0.767,0.69,1.738,0.474,2.908
				c-0.281,1.531-0.565,3.061-0.853,4.59c-0.066,0.352-0.024,0.62,0.125,0.809c0.15,0.186,0.417,0.313,0.806,0.384
				C137.927,125.988,138.129,126.026,138.331,126.063z"/>
			<path fill="#FFFFFF" d="M146.431,114.21c0.372,0.079,0.744,0.16,1.116,0.242c-0.306,1.346-0.613,2.69-0.925,4.035
				c1.262,0.278,2.524,0.57,3.785,0.873c-0.096,0.375-0.191,0.751-0.287,1.126c-1.253-0.301-2.506-0.59-3.76-0.867
				c-0.483,2.079-0.972,4.158-1.466,6.236c-0.098,0.411-0.058,0.758,0.122,1.036s0.459,0.462,0.841,0.548
				c1.086,0.25,1.898-0.521,2.429-2.321c0.351,0.084,0.702,0.168,1.052,0.255c-0.278,0.959-0.656,1.694-1.128,2.203
				c-0.473,0.51-1.046,0.856-1.715,1.038c-0.672,0.184-1.373,0.191-2.11,0.028c-0.646-0.144-1.176-0.38-1.595-0.721
				c-0.42-0.337-0.718-0.771-0.896-1.302c-0.179-0.531-0.209-1.074-0.089-1.629c0.44-2.019,0.875-4.039,1.304-6.06
				c-0.674-0.135-1.349-0.269-2.023-0.396c0.065-0.324,0.129-0.647,0.194-0.971c1.274,0.098,2.331-0.115,3.179-0.648
				C145.305,116.38,145.965,115.479,146.431,114.21z"/>
			<path fill="#FFFFFF" d="M160.44,122.377c0.352-0.192,0.705-0.381,1.059-0.57c0.249,0.074,0.498,0.15,0.747,0.228
				c-0.277,1.118-0.559,2.234-0.844,3.352c-0.323-0.1-0.647-0.198-0.971-0.297c-0.226-1.028-0.596-1.812-1.105-2.347
				c-0.506-0.536-1.206-0.932-2.091-1.181c-0.764-0.214-1.382-0.248-1.851-0.104c-0.468,0.142-0.756,0.402-0.864,0.784
				c-0.107,0.375-0.036,0.7,0.213,0.977c0.246,0.283,1.018,0.723,2.302,1.342c1.165,0.565,1.922,0.984,2.281,1.249
				c0.686,0.498,1.155,1.079,1.405,1.738c0.253,0.657,0.256,1.338,0.014,2.04c-0.306,0.888-0.969,1.503-1.975,1.859
				c-1.007,0.36-2.152,0.348-3.45-0.025c-0.627-0.18-1.172-0.407-1.641-0.683c-0.468-0.274-0.928-0.654-1.383-1.142
				c-0.361,0.216-0.719,0.435-1.077,0.652c-0.291-0.077-0.583-0.151-0.874-0.228c0.277-1.242,0.55-2.485,0.818-3.729
				c0.325,0.082,0.651,0.167,0.977,0.252c0.308,2.072,1.43,3.363,3.413,3.932c0.815,0.233,1.482,0.276,2.007,0.124
				c0.524-0.15,0.852-0.42,0.981-0.811c0.118-0.355,0.072-0.667-0.141-0.934c-0.213-0.266-0.873-0.686-1.989-1.237
				c-1.207-0.592-2.021-1.023-2.438-1.314c-0.716-0.484-1.209-1.017-1.479-1.604c-0.27-0.585-0.314-1.217-0.129-1.896
				c0.266-0.968,0.856-1.669,1.786-2.09c0.928-0.42,2.037-0.458,3.312-0.1c0.622,0.175,1.162,0.396,1.617,0.662
				C159.525,121.545,159.982,121.91,160.44,122.377z"/>
		</g>
	</g>
</g>
</svg>
