<?xml version="1.0" encoding="utf-8"?>
<!-- Generator: Adobe Illustrator 16.0.4, SVG Export Plug-In . SVG Version: 6.00 Build 0)  -->
<!DOCTYPE svg PUBLIC "-//W3C//DTD SVG 1.1//EN" "http://www.w3.org/Graphics/SVG/1.1/DTD/svg11.dtd">
<svg version="1.1" id="Livello_1" xmlns="http://www.w3.org/2000/svg" xmlns:xlink="http://www.w3.org/1999/xlink" x="0px" y="0px"
	 width="210px" height="200px" viewBox="0 0 210 200" enable-background="new 0 0 210 200" xml:space="preserve">
<g>
	<g>
		<circle fill="#27A94A" cx="105" cy="100" r="84"/>
		<circle fill="#00953E" stroke="#FFFFFF" stroke-width="5" stroke-miterlimit="10" cx="105" cy="100" r="75.216"/>
		<g id="Livello_10_33_">
			<g>
				<path fill="#6AB64D" stroke="#FFFFFF" stroke-width="4" stroke-miterlimit="10" d="M73.273,72.206
					c-16.871,17.962-10.092,37.589-7.324,44.763c17.148-39.662,56.822-49.123,56.822-49.123s-50.029,35.45-55.184,79.809
					c-0.406,3.502,8.074,5.517,8.693,1.332c1.895-12.461,6.539-22.711,6.539-22.711c11.402,1.087,30.49,0.75,40.504-12.011
					c13.299-16.955,3.959-43.622,24.15-63.561C152.189,46.051,96.133,47.869,73.273,72.206z"/>
			</g>
		</g>
	</g>
	<g>
		<g>
			<path fill="#47AE54" stroke="#FFFFFF" stroke-width="2" stroke-miterlimit="10" d="M194.768,148.899
				c-2.534-5.82-5.349-11.609-8.445-17.347c6.004-2.538,12.219-4.851,18.63-6.915C140.979,97.782,68.834,97.951,4.965,125.146
				c0.04,0.094,0.08,0.188,0.12,0.282c6.617,2.096,13.025,4.457,19.212,7.059c-2.899,5.431-5.547,10.909-7.942,16.413
				C73.41,124.948,137.711,124.947,194.768,148.899L194.768,148.899L194.768,148.899z"/>
		</g>
	</g>
	<g>
		<g>
			<path fill="#FFFFFF" d="M39.539,130.68c1.767-0.536,3.534-1.051,5.304-1.542c0.499-0.14,0.842-0.393,1.029-0.763
				c0.187-0.369,0.233-1.07,0.147-2.106c0.384-0.104,0.77-0.206,1.153-0.308c0.35,1.694,0.706,3.387,1.069,5.078
				c-3.442,0.913-6.879,1.913-10.307,2.997c-0.102-0.293-0.203-0.587-0.305-0.882c0.28-0.969,0.96-2.538,2.102-4.688
				c1.007-1.908,1.646-3.283,1.864-4.139c0.31-1.162,0.318-2.252,0.021-3.264c-0.257-0.873-0.68-1.474-1.271-1.799
				c-0.59-0.324-1.284-0.372-2.079-0.141c-0.802,0.233-1.412,0.617-1.829,1.145c-0.416,0.527-0.561,0.986-0.434,1.376
				c0.052,0.159,0.149,0.263,0.299,0.314c0.149,0.06,0.465,0.068,0.944,0.028c1.037-0.07,1.66,0.248,1.879,0.947
				c0.146,0.475,0.085,0.917-0.186,1.332c-0.272,0.414-0.684,0.703-1.234,0.87c-0.576,0.174-1.121,0.112-1.64-0.19
				c-0.518-0.302-0.905-0.836-1.159-1.597c-0.352-1.064-0.238-2.084,0.355-3.056c0.728-1.191,1.976-2.052,3.725-2.556
				c1.562-0.448,2.936-0.429,4.098,0.052c1.165,0.479,1.888,1.269,2.188,2.354c0.16,0.58,0.191,1.143,0.099,1.688
				c-0.126,0.738-0.375,1.43-0.738,2.081c-0.365,0.651-1.043,1.529-2.013,2.648c-1.058,1.202-1.756,2.063-2.124,2.568
				C40.133,129.638,39.812,130.153,39.539,130.68z"/>
			<path fill="#FFFFFF" d="M49.174,115.045c1.904-0.127,3.577-0.346,5.028-0.665c1.123-0.247,2.026-0.552,2.706-0.919
				c0.273-0.152,0.436-0.234,0.485-0.244c0.116-0.023,0.187,0.036,0.215,0.178c0.097,0.463-0.009,1.003-0.313,1.617
				c-0.305,0.612-0.764,1.123-1.373,1.534c-0.61,0.412-1.423,0.729-2.446,0.96c-0.772,0.175-1.661,0.307-2.67,0.397
				c0.145,0.979,0.294,1.959,0.442,2.938c0.535-0.381,1.057-0.688,1.559-0.926c0.503-0.237,0.985-0.408,1.45-0.512
				c1.532-0.346,2.941-0.185,4.22,0.479c1.273,0.659,2.057,1.738,2.367,3.217c0.318,1.523,0.037,2.869-0.824,4.05
				c-0.864,1.185-2.156,1.961-3.901,2.358c-1.39,0.317-2.585,0.25-3.602-0.213c-1.019-0.46-1.657-1.159-1.91-2.102
				c-0.165-0.62-0.109-1.158,0.173-1.619c0.278-0.461,0.709-0.762,1.284-0.9c0.509-0.122,0.965-0.077,1.367,0.135
				c0.4,0.212,0.651,0.527,0.756,0.945c0.073,0.299,0.052,0.579-0.062,0.84c-0.114,0.256-0.387,0.552-0.816,0.881
				c-0.312,0.247-0.45,0.44-0.411,0.587c0.061,0.237,0.282,0.408,0.668,0.516c0.565,0.154,1.183,0.15,1.853-0.003
				c0.84-0.193,1.431-0.653,1.783-1.387c0.351-0.735,0.355-1.858,0.008-3.375c-0.292-1.277-0.747-2.158-1.375-2.634
				c-0.629-0.479-1.331-0.631-2.1-0.456c-0.355,0.082-0.728,0.229-1.108,0.446c-0.385,0.213-0.783,0.497-1.196,0.846
				c0.129,0.543,0.145,0.933,0.054,1.173c-0.095,0.236-0.277,0.387-0.542,0.45c-0.229,0.057-0.424,0.045-0.591-0.036
				s-0.273-0.207-0.318-0.383c-0.072-0.271,0.031-0.725,0.312-1.362C49.941,119.586,49.551,117.317,49.174,115.045z"/>
			<path fill="#FFFFFF" d="M67.609,111.335c1.048-0.168,2.04-0.044,2.972,0.372c0.929,0.416,1.765,1.199,2.506,2.352
				c0.738,1.152,1.216,2.544,1.446,4.179c0.231,1.644,0.158,3.107-0.199,4.389c-0.357,1.279-0.904,2.252-1.649,2.919
				c-0.744,0.671-1.606,1.082-2.597,1.243c-1.484,0.24-2.812-0.151-4.01-1.184c-1.496-1.275-2.496-3.088-2.96-5.458
				c-0.327-1.675-0.335-3.166-0.008-4.473c0.322-1.305,0.876-2.311,1.657-3.013C65.546,111.958,66.496,111.515,67.609,111.335z
				 M70.989,119.147c-0.489-3.099-1.034-5.102-1.658-5.996c-0.451-0.654-0.988-0.932-1.604-0.834
				c-0.741,0.12-1.204,0.716-1.38,1.783c-0.178,1.069-0.013,3.049,0.501,5.934c0.43,2.413,0.98,4.081,1.632,5.002
				c0.41,0.57,0.889,0.811,1.437,0.722c0.358-0.059,0.661-0.251,0.909-0.58c0.248-0.328,0.388-0.968,0.424-1.916
				C71.302,121.978,71.219,120.607,70.989,119.147z"/>
			<path fill="#FFFFFF" d="M82.057,109.457c1.049-0.104,2.024,0.081,2.923,0.555c0.897,0.471,1.678,1.306,2.342,2.501
				c0.662,1.194,1.048,2.615,1.174,4.259c0.126,1.656-0.038,3.11-0.475,4.367c-0.437,1.255-1.044,2.191-1.825,2.812
				c-0.779,0.622-1.664,0.98-2.656,1.079c-1.486,0.148-2.777-0.324-3.898-1.428c-1.4-1.364-2.274-3.237-2.584-5.63
				c-0.219-1.69-0.134-3.179,0.271-4.462c0.402-1.282,1.013-2.253,1.829-2.906C79.971,109.952,80.941,109.567,82.057,109.457z
				 M84.921,117.463c-0.289-3.125-0.707-5.153-1.269-6.087c-0.408-0.683-0.924-0.992-1.54-0.931
				c-0.741,0.073-1.238,0.641-1.479,1.694c-0.244,1.057-0.198,3.041,0.126,5.952c0.274,2.435,0.712,4.131,1.3,5.091
				c0.371,0.595,0.828,0.864,1.378,0.81c0.359-0.035,0.673-0.21,0.938-0.523c0.267-0.312,0.447-0.94,0.545-1.886
				C85.053,120.307,85.057,118.933,84.921,117.463z"/>
			<path fill="#FFFFFF" d="M97.848,113.744c1.523-0.137,3.049-0.257,4.576-0.361c0.194,0.648,0.31,1.297,0.349,1.943
				c0.462-0.685,1.062-1.215,1.802-1.593c0.736-0.377,1.567-0.563,2.473-0.557c1.456,0.01,2.626,0.494,3.499,1.439
				c0.873,0.944,1.276,2.267,1.227,3.958c-0.036,1.175-0.275,2.165-0.716,2.972c-0.439,0.806-1.032,1.407-1.779,1.809
				c-0.748,0.403-1.611,0.601-2.598,0.595c-0.787-0.006-1.485-0.172-2.101-0.503c-0.614-0.332-1.188-0.861-1.73-1.594
				c0.015,1.2,0.028,2.399,0.043,3.6c0.004,0.472,0.046,0.775,0.124,0.906c0.076,0.132,0.218,0.231,0.428,0.297
				c0.207,0.066,0.622,0.1,1.238,0.105c0.001,0.345,0.002,0.688,0.003,1.031c-2.117,0.007-4.237,0.045-6.356,0.114
				c-0.012-0.344-0.023-0.688-0.035-1.031c0.112-0.004,0.225-0.008,0.339-0.011c0.398-0.013,0.665-0.054,0.799-0.124
				c0.135-0.073,0.237-0.193,0.308-0.359c0.051-0.115,0.068-0.404,0.057-0.871c-0.085-3.172-0.171-6.344-0.252-9.516
				c-0.013-0.464-0.062-0.773-0.144-0.924c-0.086-0.152-0.21-0.261-0.375-0.324c-0.167-0.063-0.548-0.1-1.147-0.101
				C97.869,114.346,97.857,114.044,97.848,113.744z M105.541,114.664c-0.774-0.001-1.432,0.337-1.968,1.009
				c-0.535,0.673-0.792,1.653-0.775,2.938c0.016,1.271,0.304,2.24,0.865,2.908c0.559,0.672,1.187,1.008,1.895,1.008
				c0.693,0.001,1.252-0.286,1.682-0.865c0.562-0.763,0.856-1.794,0.873-3.092c0.017-1.194-0.201-2.143-0.654-2.847
				S106.361,114.665,105.541,114.664z"/>
			<path fill="#FFFFFF" d="M120.549,113.508c1.262,0.084,2.404,0.412,3.416,0.983c1.013,0.57,1.736,1.274,2.171,2.1
				c0.435,0.828,0.594,1.792,0.486,2.889c-0.173,1.755-0.959,3.035-2.329,3.864c-1.373,0.827-2.855,1.185-4.475,1.078
				c-1.147-0.076-2.178-0.378-3.107-0.91c-0.929-0.53-1.637-1.215-2.118-2.055c-0.484-0.842-0.71-1.776-0.669-2.806
				c0.06-1.555,0.708-2.832,1.967-3.826C117.146,113.831,118.71,113.389,120.549,113.508z M120.552,114.531
				c-0.831-0.056-1.514,0.232-2.042,0.86c-0.527,0.626-0.835,1.76-0.927,3.407c-0.097,1.708,0.074,2.898,0.505,3.572
				c0.432,0.675,1.043,1.036,1.843,1.088c0.812,0.056,1.492-0.23,2.046-0.858c0.555-0.627,0.901-1.751,1.033-3.378
				c0.137-1.671-0.025-2.858-0.481-3.557C122.069,114.969,121.409,114.588,120.552,114.531z"/>
			<path fill="#FFFFFF" d="M129.499,114.834c1.673,0.106,3.349,0.23,5.023,0.374c-0.367,2.825-0.738,5.648-1.116,8.472
				c-0.031,0.227,0.026,0.413,0.166,0.558c0.141,0.144,0.372,0.237,0.695,0.278c0.242,0.032,0.482,0.064,0.725,0.097
				c-0.047,0.331-0.094,0.66-0.142,0.99c-2.147-0.288-4.292-0.545-6.441-0.771c0.036-0.332,0.073-0.662,0.11-0.994
				c0.239,0.024,0.476,0.049,0.715,0.076c0.384,0.04,0.664-0.01,0.842-0.155c0.176-0.146,0.289-0.423,0.338-0.827
				c0.229-1.929,0.455-3.856,0.68-5.784c0.042-0.362-0.041-0.658-0.255-0.884c-0.212-0.224-0.526-0.361-0.94-0.405
				c-0.169-0.018-0.336-0.036-0.503-0.054C129.431,115.48,129.465,115.157,129.499,114.834z M133.279,109.418
				c0.548,0.064,1.002,0.292,1.353,0.677c0.351,0.388,0.493,0.822,0.432,1.305c-0.062,0.485-0.31,0.868-0.742,1.159
				c-0.431,0.289-0.917,0.401-1.459,0.337c-0.551-0.065-0.999-0.29-1.348-0.674c-0.351-0.386-0.502-0.817-0.447-1.295
				c0.053-0.483,0.295-0.873,0.727-1.167C132.226,109.467,132.719,109.352,133.279,109.418z"/>
			<path fill="#FFFFFF" d="M151.404,127.447c-0.073,0.326-0.147,0.652-0.222,0.978c-2.142-0.453-4.286-0.872-6.431-1.261
				c0.063-0.327,0.127-0.655,0.189-0.983c0.227,0.041,0.451,0.083,0.677,0.124c0.362,0.067,0.646,0.032,0.854-0.104
				c0.21-0.135,0.349-0.364,0.413-0.688c0.286-1.428,0.57-2.855,0.853-4.283c0.145-0.729,0.067-1.327-0.23-1.787
				c-0.3-0.459-0.754-0.747-1.363-0.855c-0.831-0.148-1.557,0.011-2.175,0.477c-0.616,0.464-1.015,1.231-1.201,2.299
				c-0.194,1.104-0.388,2.21-0.583,3.313c-0.057,0.325-0.011,0.587,0.139,0.787c0.15,0.199,0.371,0.324,0.65,0.373
				c0.274,0.047,0.545,0.093,0.816,0.142c-0.061,0.327-0.121,0.655-0.182,0.982c-2.231-0.391-4.464-0.747-6.697-1.068
				c0.051-0.33,0.102-0.66,0.15-0.989c0.292,0.041,0.584,0.084,0.875,0.128c0.342,0.05,0.606,0.003,0.806-0.141
				c0.2-0.146,0.328-0.378,0.381-0.703c0.317-1.972,0.635-3.941,0.945-5.912c0.055-0.34-0.034-0.628-0.259-0.872
				c-0.229-0.239-0.554-0.393-0.976-0.454c-0.159-0.023-0.319-0.048-0.478-0.07c0.045-0.307,0.091-0.615,0.137-0.924
				c1.576,0.151,3.152,0.318,4.729,0.503c0.064,0.637,0.069,1.38,0.01,2.236c0.784-0.676,1.582-1.144,2.395-1.4
				c0.811-0.257,1.631-0.312,2.452-0.156c1.116,0.208,1.936,0.708,2.444,1.489c0.499,0.779,0.622,1.753,0.374,2.915
				c-0.323,1.521-0.65,3.045-0.978,4.566c-0.076,0.353-0.042,0.621,0.102,0.812c0.141,0.189,0.404,0.324,0.785,0.404
				C151.006,127.362,151.205,127.405,151.404,127.447z"/>
			<path fill="#FFFFFF" d="M159.677,115.756c0.359,0.084,0.721,0.171,1.082,0.257c-0.331,1.341-0.665,2.681-0.999,4.021
				c1.23,0.296,2.461,0.602,3.693,0.916c-0.1,0.375-0.201,0.749-0.303,1.124c-1.223-0.315-2.449-0.618-3.675-0.912
				c-0.52,2.069-1.046,4.138-1.575,6.207c-0.106,0.41-0.072,0.756,0.101,1.039c0.17,0.281,0.446,0.466,0.819,0.56
				c1.071,0.264,1.886-0.494,2.441-2.286c0.346,0.086,0.688,0.176,1.033,0.265c-0.289,0.954-0.675,1.685-1.148,2.189
				c-0.477,0.505-1.049,0.842-1.714,1.016c-0.669,0.173-1.363,0.174-2.092-0.003c-0.637-0.152-1.159-0.403-1.565-0.746
				c-0.409-0.349-0.696-0.786-0.859-1.32c-0.164-0.536-0.183-1.078-0.049-1.628c0.483-2.011,0.961-4.02,1.434-6.03
				c-0.658-0.149-1.316-0.294-1.975-0.437c0.072-0.321,0.144-0.644,0.217-0.966c1.247,0.122,2.291-0.071,3.134-0.592
				C158.521,117.91,159.189,117.019,159.677,115.756z"/>
			<path fill="#FFFFFF" d="M173.244,123.999c0.346-0.192,0.693-0.382,1.041-0.573c0.243,0.073,0.485,0.148,0.728,0.223
				c-0.28,1.116-0.562,2.234-0.849,3.35c-0.317-0.099-0.632-0.196-0.949-0.292c-0.217-1.024-0.572-1.807-1.066-2.343
				c-0.49-0.532-1.174-0.929-2.037-1.178c-0.746-0.214-1.352-0.25-1.812-0.111c-0.461,0.143-0.746,0.402-0.858,0.782
				c-0.107,0.371-0.045,0.695,0.198,0.974c0.236,0.285,0.989,0.728,2.244,1.349c1.141,0.564,1.881,0.986,2.231,1.249
				c0.673,0.497,1.128,1.074,1.372,1.73c0.247,0.657,0.244,1.339,0.007,2.038c-0.303,0.887-0.957,1.505-1.952,1.865
				c-0.995,0.357-2.13,0.346-3.413-0.03c-0.617-0.182-1.157-0.412-1.619-0.688c-0.459-0.278-0.912-0.664-1.356-1.151
				c-0.358,0.214-0.716,0.43-1.072,0.644c-0.287-0.078-0.577-0.156-0.864-0.232c0.29-1.24,0.575-2.481,0.856-3.722
				c0.319,0.086,0.639,0.173,0.96,0.259c0.278,2.071,1.376,3.374,3.331,3.947c0.806,0.236,1.467,0.28,1.982,0.127
				c0.52-0.15,0.844-0.422,0.973-0.812c0.119-0.355,0.074-0.666-0.133-0.933c-0.21-0.266-0.857-0.682-1.954-1.235
				c-1.184-0.594-1.981-1.031-2.388-1.325c-0.702-0.488-1.181-1.021-1.438-1.608c-0.257-0.587-0.293-1.22-0.101-1.896
				c0.273-0.967,0.868-1.66,1.784-2.074c0.915-0.415,2.001-0.447,3.247-0.089c0.607,0.175,1.131,0.396,1.574,0.66
				C172.354,123.169,172.8,123.533,173.244,123.999z"/>
		</g>
	</g>
</g>
</svg>
