<?xml version="1.0" encoding="utf-8"?>
<!-- Generator: Adobe Illustrator 16.0.4, SVG Export Plug-In . SVG Version: 6.00 Build 0)  -->
<!DOCTYPE svg PUBLIC "-//W3C//DTD SVG 1.1//EN" "http://www.w3.org/Graphics/SVG/1.1/DTD/svg11.dtd">
<svg version="1.1" id="Livello_1" xmlns="http://www.w3.org/2000/svg" xmlns:xlink="http://www.w3.org/1999/xlink" x="0px" y="0px"
	 width="210px" height="200px" viewBox="0 0 210 200" enable-background="new 0 0 210 200" xml:space="preserve">
<g>
	<g>
		<circle fill="#27A94A" cx="105" cy="100" r="84"/>
		<circle fill="#00953E" stroke="#FFFFFF" stroke-width="5" stroke-miterlimit="10" cx="105" cy="100" r="75.216"/>
		<g id="Livello_10_34_">
			<g>
				<path fill="#6AB64D" stroke="#FFFFFF" stroke-width="4" stroke-miterlimit="10" d="M73.273,72.206
					c-16.871,17.962-10.092,37.589-7.324,44.763c17.148-39.662,56.822-49.123,56.822-49.123s-50.029,35.45-55.184,79.809
					c-0.406,3.502,8.074,5.517,8.693,1.332c1.895-12.461,6.539-22.711,6.539-22.711c11.402,1.087,30.49,0.75,40.504-12.011
					c13.299-16.955,3.959-43.622,24.15-63.561C152.189,46.051,96.133,47.869,73.273,72.206z"/>
			</g>
		</g>
	</g>
	<g>
		<g>
			<path fill="#47AE54" stroke="#FFFFFF" stroke-width="2" stroke-miterlimit="10" d="M194.768,148.899
				c-2.533-5.82-5.349-11.609-8.445-17.347c6.004-2.538,12.219-4.851,18.63-6.915C140.979,97.782,68.834,97.951,4.965,125.146
				c0.04,0.094,0.08,0.188,0.12,0.282c6.617,2.096,13.025,4.457,19.212,7.059c-2.9,5.431-5.547,10.909-7.942,16.413
				C73.41,124.948,137.711,124.947,194.768,148.899L194.768,148.899L194.768,148.899z"/>
		</g>
	</g>
	<g>
		<g>
			<path fill="#FFFFFF" d="M34.792,117.438c1.922-0.253,3.598-0.576,5.045-0.989c1.121-0.32,2.013-0.682,2.675-1.094
				c0.268-0.168,0.426-0.26,0.476-0.273c0.116-0.031,0.19,0.023,0.229,0.162c0.129,0.457,0.055,1.002-0.214,1.635
				s-0.699,1.173-1.288,1.623c-0.589,0.447-1.391,0.818-2.41,1.114c-0.771,0.226-1.66,0.413-2.674,0.571
				c0.211,0.968,0.422,1.937,0.639,2.902c0.517-0.412,1.025-0.754,1.516-1.022c0.491-0.271,0.971-0.474,1.431-0.607
				c1.526-0.443,2.964-0.372,4.296,0.206c1.331,0.579,2.189,1.605,2.6,3.062c0.422,1.498,0.229,2.862-0.562,4.099
				c-0.794,1.235-2.048,2.095-3.782,2.605c-1.381,0.406-2.595,0.417-3.653,0.021c-1.061-0.394-1.755-1.048-2.072-1.975
				c-0.208-0.606-0.188-1.148,0.065-1.629c0.25-0.477,0.668-0.806,1.24-0.981c0.508-0.155,0.968-0.141,1.39,0.044
				c0.419,0.185,0.695,0.485,0.826,0.896c0.095,0.295,0.092,0.573-0.006,0.841c-0.098,0.265-0.354,0.578-0.766,0.937
				c-0.299,0.263-0.425,0.469-0.377,0.611c0.076,0.23,0.313,0.389,0.709,0.47c0.583,0.115,1.207,0.076,1.874-0.121
				c0.835-0.247,1.4-0.745,1.708-1.503c0.304-0.756,0.234-1.878-0.216-3.368c-0.379-1.257-0.897-2.106-1.563-2.545
				c-0.668-0.435-1.386-0.542-2.152-0.315c-0.355,0.104-0.72,0.275-1.091,0.514c-0.374,0.241-0.759,0.548-1.154,0.926
				c0.165,0.536,0.209,0.924,0.131,1.165c-0.079,0.244-0.255,0.406-0.517,0.488c-0.229,0.069-0.429,0.069-0.603,0.001
				c-0.172-0.071-0.291-0.191-0.346-0.36c-0.09-0.267-0.015-0.728,0.226-1.382C35.865,121.927,35.323,119.684,34.792,117.438z"/>
			<path fill="#FFFFFF" d="M53.178,112.548c1.044-0.234,2.052-0.174,3.018,0.183c0.962,0.354,1.854,1.087,2.672,2.189
				c0.817,1.104,1.389,2.465,1.724,4.077c0.339,1.63,0.364,3.095,0.087,4.394c-0.276,1.303-0.766,2.307-1.469,3.022
				c-0.706,0.714-1.545,1.181-2.533,1.403c-1.477,0.336-2.843,0.029-4.116-0.923c-1.595-1.179-2.722-2.923-3.346-5.263
				c-0.438-1.65-0.544-3.138-0.298-4.462c0.242-1.323,0.738-2.364,1.48-3.116C51.138,113.301,52.068,112.799,53.178,112.548z
				 M57.083,120.134c-0.692-3.062-1.371-5.025-2.055-5.882c-0.497-0.624-1.055-0.869-1.67-0.731
				c-0.738,0.168-1.166,0.793-1.278,1.871c-0.111,1.078,0.184,3.043,0.889,5.891c0.591,2.382,1.257,4.01,1.973,4.891
				c0.45,0.542,0.948,0.752,1.495,0.629c0.357-0.081,0.648-0.293,0.877-0.638c0.228-0.345,0.325-0.991,0.302-1.939
				C57.582,122.938,57.407,121.575,57.083,120.134z"/>
			<path fill="#FFFFFF" d="M67.599,109.762c1.047-0.172,2.041-0.045,2.972,0.368c0.932,0.415,1.766,1.201,2.509,2.352
				c0.738,1.151,1.217,2.545,1.447,4.177c0.234,1.646,0.162,3.109-0.194,4.388c-0.356,1.281-0.905,2.253-1.647,2.924
				c-0.745,0.669-1.605,1.081-2.597,1.243c-1.483,0.24-2.812-0.148-4.009-1.18c-1.5-1.275-2.499-3.085-2.966-5.458
				c-0.328-1.673-0.339-3.163-0.012-4.469c0.323-1.307,0.875-2.314,1.656-3.018C65.536,110.387,66.483,109.94,67.599,109.762z
				 M70.983,117.574c-0.49-3.101-1.038-5.101-1.661-5.998c-0.451-0.653-0.99-0.933-1.605-0.833
				c-0.741,0.119-1.201,0.716-1.379,1.787c-0.178,1.067-0.011,3.046,0.506,5.933c0.432,2.412,0.983,4.076,1.636,5
				c0.411,0.568,0.888,0.81,1.438,0.721c0.358-0.057,0.661-0.253,0.909-0.58c0.246-0.331,0.386-0.969,0.423-1.916
				C71.299,120.401,71.213,119.03,70.983,117.574z"/>
			<path fill="#FFFFFF" d="M82.046,107.872c1.048-0.104,2.024,0.081,2.924,0.554c0.896,0.471,1.678,1.306,2.344,2.5
				c0.662,1.193,1.05,2.615,1.177,4.256c0.127,1.659-0.034,3.115-0.473,4.37c-0.436,1.257-1.041,2.191-1.823,2.814
				c-0.782,0.622-1.663,0.979-2.656,1.079c-1.488,0.149-2.777-0.321-3.898-1.424c-1.403-1.366-2.277-3.233-2.59-5.629
				c-0.216-1.689-0.134-3.178,0.27-4.461c0.401-1.281,1.01-2.254,1.828-2.908C79.962,108.369,80.93,107.985,82.046,107.872z
				 M84.916,115.878c-0.292-3.124-0.709-5.153-1.273-6.087c-0.409-0.68-0.926-0.992-1.541-0.931
				c-0.741,0.075-1.236,0.642-1.477,1.698c-0.241,1.056-0.2,3.04,0.128,5.952c0.275,2.436,0.717,4.129,1.304,5.09
				c0.37,0.594,0.827,0.864,1.379,0.809c0.359-0.035,0.672-0.212,0.938-0.524c0.268-0.313,0.446-0.941,0.543-1.885
				C85.049,118.721,85.051,117.347,84.916,115.878z"/>
			<path fill="#FFFFFF" d="M97.842,112.153c1.521-0.138,3.047-0.259,4.576-0.364c0.193,0.648,0.309,1.297,0.349,1.94
				c0.462-0.685,1.061-1.215,1.801-1.593c0.74-0.376,1.567-0.562,2.473-0.556c1.456,0.01,2.626,0.493,3.501,1.437
				c0.87,0.944,1.278,2.266,1.229,3.956c-0.034,1.175-0.275,2.165-0.715,2.973c-0.438,0.806-1.032,1.408-1.779,1.812
				c-0.75,0.403-1.61,0.6-2.597,0.594c-0.787-0.004-1.486-0.169-2.102-0.502c-0.613-0.328-1.19-0.861-1.731-1.593
				c0.016,1.199,0.03,2.399,0.046,3.599c0.006,0.475,0.047,0.776,0.124,0.907c0.076,0.133,0.22,0.232,0.427,0.296
				c0.21,0.067,0.625,0.103,1.239,0.105c0.001,0.345,0.004,0.688,0.004,1.031c-2.119,0.008-4.238,0.048-6.355,0.117
				c-0.014-0.343-0.025-0.688-0.037-1.031c0.111-0.005,0.226-0.007,0.339-0.011c0.401-0.012,0.663-0.054,0.799-0.125
				c0.133-0.072,0.24-0.19,0.308-0.358c0.051-0.115,0.068-0.405,0.056-0.871c-0.087-3.171-0.172-6.343-0.257-9.514
				c-0.012-0.467-0.062-0.773-0.145-0.926c-0.085-0.153-0.207-0.26-0.374-0.325c-0.164-0.062-0.548-0.096-1.147-0.097
				C97.861,112.754,97.852,112.453,97.842,112.153z M105.536,113.066c-0.775,0.001-1.432,0.338-1.968,1.01
				c-0.533,0.674-0.792,1.654-0.775,2.938c0.017,1.272,0.308,2.24,0.867,2.911c0.558,0.672,1.187,1.004,1.896,1.004
				c0.691,0.001,1.252-0.287,1.68-0.863c0.562-0.766,0.857-1.794,0.872-3.096c0.017-1.191-0.202-2.141-0.656-2.844
				C106.999,113.422,106.356,113.067,105.536,113.066z"/>
			<path fill="#FFFFFF" d="M120.543,111.905c1.262,0.082,2.402,0.412,3.417,0.981c1.014,0.571,1.735,1.273,2.171,2.099
				c0.436,0.829,0.596,1.792,0.488,2.89c-0.172,1.755-0.958,3.036-2.329,3.863c-1.372,0.829-2.853,1.185-4.474,1.079
				c-1.146-0.075-2.179-0.377-3.107-0.907c-0.928-0.532-1.635-1.213-2.119-2.055c-0.483-0.84-0.712-1.775-0.671-2.806
				c0.06-1.551,0.707-2.833,1.967-3.827C117.142,112.231,118.704,111.783,120.543,111.905z M120.547,112.929
				c-0.83-0.055-1.515,0.231-2.043,0.859c-0.524,0.626-0.832,1.762-0.924,3.407c-0.095,1.71,0.077,2.9,0.506,3.572
				c0.434,0.675,1.044,1.036,1.843,1.088c0.813,0.054,1.492-0.229,2.045-0.856c0.554-0.626,0.901-1.754,1.033-3.381
				c0.135-1.671-0.026-2.855-0.483-3.556C122.062,113.363,121.405,112.986,120.547,112.929z"/>
			<path fill="#FFFFFF" d="M129.495,113.227c1.673,0.106,3.349,0.232,5.022,0.376c-0.364,2.823-0.737,5.646-1.113,8.47
				c-0.03,0.229,0.025,0.413,0.166,0.558c0.142,0.145,0.372,0.239,0.696,0.28c0.24,0.031,0.481,0.063,0.724,0.096
				c-0.047,0.33-0.094,0.66-0.142,0.989c-2.147-0.289-4.292-0.545-6.44-0.77c0.036-0.331,0.072-0.662,0.108-0.994
				c0.238,0.025,0.478,0.053,0.716,0.077c0.385,0.041,0.665-0.01,0.841-0.156c0.177-0.147,0.289-0.423,0.338-0.828
				c0.228-1.927,0.454-3.857,0.679-5.785c0.041-0.362-0.043-0.656-0.256-0.881c-0.213-0.228-0.525-0.361-0.94-0.406
				c-0.168-0.017-0.335-0.035-0.502-0.053C129.426,113.875,129.459,113.551,129.495,113.227z M133.273,107.81
				c0.548,0.065,1.001,0.292,1.353,0.678c0.352,0.389,0.494,0.822,0.433,1.307c-0.063,0.481-0.31,0.869-0.742,1.157
				c-0.432,0.288-0.917,0.4-1.458,0.337c-0.552-0.066-0.999-0.289-1.35-0.675c-0.353-0.385-0.501-0.815-0.448-1.292
				c0.055-0.485,0.295-0.873,0.727-1.169C132.22,107.858,132.713,107.744,133.273,107.81z"/>
			<path fill="#FFFFFF" d="M151.402,125.837c-0.073,0.325-0.147,0.651-0.221,0.977c-2.141-0.451-4.286-0.872-6.431-1.26
				c0.062-0.326,0.127-0.653,0.188-0.981c0.227,0.041,0.452,0.082,0.678,0.124c0.359,0.066,0.645,0.031,0.854-0.104
				c0.213-0.137,0.35-0.366,0.413-0.689c0.287-1.428,0.567-2.854,0.852-4.283c0.144-0.732,0.069-1.327-0.229-1.788
				c-0.301-0.46-0.756-0.747-1.364-0.856c-0.829-0.147-1.557,0.012-2.175,0.478c-0.616,0.465-1.018,1.234-1.201,2.299
				c-0.191,1.104-0.387,2.21-0.582,3.316c-0.057,0.324-0.012,0.587,0.14,0.785c0.15,0.201,0.368,0.325,0.65,0.373
				c0.271,0.047,0.546,0.093,0.815,0.143c-0.06,0.326-0.122,0.654-0.182,0.981c-2.229-0.392-4.462-0.747-6.696-1.067
				c0.05-0.33,0.102-0.659,0.151-0.988c0.291,0.042,0.582,0.084,0.874,0.128c0.338,0.051,0.607,0.001,0.806-0.14
				c0.2-0.145,0.326-0.38,0.38-0.704c0.318-1.972,0.632-3.942,0.943-5.914c0.055-0.341-0.032-0.629-0.261-0.872
				c-0.227-0.239-0.552-0.39-0.974-0.452c-0.16-0.023-0.318-0.047-0.478-0.069c0.046-0.31,0.091-0.617,0.138-0.927
				c1.573,0.151,3.15,0.319,4.728,0.504c0.064,0.636,0.069,1.381,0.01,2.234c0.785-0.675,1.583-1.143,2.395-1.399
				c0.811-0.258,1.631-0.31,2.453-0.155c1.115,0.208,1.935,0.706,2.444,1.487c0.499,0.779,0.622,1.752,0.375,2.916
				c-0.324,1.523-0.649,3.045-0.977,4.566c-0.075,0.35-0.043,0.619,0.101,0.811c0.143,0.189,0.404,0.325,0.786,0.404
				C151.004,125.754,151.204,125.795,151.402,125.837z"/>
			<path fill="#FFFFFF" d="M159.672,114.146c0.362,0.084,0.722,0.17,1.083,0.257c-0.331,1.34-0.663,2.679-0.998,4.018
				c1.232,0.296,2.464,0.602,3.694,0.916c-0.102,0.375-0.202,0.749-0.304,1.124c-1.224-0.314-2.447-0.619-3.674-0.912
				c-0.52,2.07-1.045,4.14-1.576,6.209c-0.105,0.41-0.071,0.756,0.102,1.037c0.17,0.282,0.446,0.471,0.82,0.562
				c1.069,0.264,1.888-0.494,2.44-2.288c0.346,0.088,0.688,0.176,1.033,0.265c-0.289,0.958-0.676,1.686-1.148,2.19
				c-0.477,0.503-1.046,0.844-1.713,1.016c-0.669,0.175-1.363,0.173-2.092-0.003c-0.637-0.152-1.158-0.401-1.566-0.747
				c-0.409-0.345-0.695-0.785-0.858-1.319c-0.165-0.535-0.181-1.076-0.05-1.628c0.482-2.011,0.96-4.019,1.434-6.031
				c-0.658-0.148-1.316-0.293-1.976-0.436c0.072-0.321,0.145-0.644,0.217-0.965c1.247,0.122,2.288-0.072,3.133-0.592
				C158.519,116.296,159.185,115.406,159.672,114.146z"/>
			<path fill="#FFFFFF" d="M173.241,122.386c0.346-0.191,0.694-0.383,1.042-0.572c0.24,0.074,0.485,0.148,0.727,0.224
				c-0.279,1.117-0.562,2.233-0.848,3.351c-0.316-0.1-0.633-0.197-0.95-0.294c-0.215-1.025-0.571-1.808-1.065-2.342
				c-0.492-0.533-1.174-0.931-2.037-1.18c-0.746-0.214-1.351-0.25-1.812-0.108c-0.462,0.138-0.746,0.4-0.857,0.778
				c-0.111,0.375-0.046,0.699,0.197,0.977c0.238,0.282,0.988,0.728,2.244,1.349c1.138,0.564,1.88,0.983,2.231,1.247
				c0.67,0.496,1.128,1.075,1.373,1.732c0.244,0.655,0.245,1.336,0.005,2.038c-0.303,0.886-0.957,1.505-1.952,1.862
				c-0.995,0.36-2.128,0.347-3.411-0.03c-0.617-0.182-1.157-0.41-1.619-0.687c-0.46-0.279-0.911-0.66-1.357-1.151
				c-0.358,0.214-0.716,0.428-1.072,0.646c-0.288-0.08-0.576-0.156-0.863-0.234c0.29-1.239,0.575-2.479,0.856-3.721
				c0.317,0.086,0.64,0.171,0.959,0.259c0.278,2.072,1.376,3.374,3.332,3.946c0.806,0.236,1.465,0.28,1.982,0.127
				c0.52-0.15,0.841-0.42,0.972-0.81c0.118-0.355,0.074-0.666-0.133-0.934c-0.21-0.266-0.858-0.684-1.953-1.236
				c-1.184-0.594-1.983-1.03-2.389-1.323c-0.7-0.488-1.181-1.022-1.438-1.61c-0.258-0.585-0.295-1.218-0.101-1.894
				c0.277-0.968,0.868-1.661,1.784-2.076s2.001-0.447,3.248-0.089c0.607,0.174,1.128,0.396,1.574,0.66
				C172.352,121.557,172.797,121.922,173.241,122.386z"/>
		</g>
	</g>
</g>
</svg>
