<?xml version="1.0" encoding="utf-8"?>
<!-- Generator: Adobe Illustrator 16.0.4, SVG Export Plug-In . SVG Version: 6.00 Build 0)  -->
<!DOCTYPE svg PUBLIC "-//W3C//DTD SVG 1.1//EN" "http://www.w3.org/Graphics/SVG/1.1/DTD/svg11.dtd">
<svg version="1.1" id="Livello_1" xmlns="http://www.w3.org/2000/svg" xmlns:xlink="http://www.w3.org/1999/xlink" x="0px" y="0px"
	 width="210px" height="200px" viewBox="0 0 210 200" enable-background="new 0 0 210 200" xml:space="preserve">
<g>
	<g>
		<circle fill="#27A94A" cx="105" cy="100" r="84"/>
		<circle fill="#00953E" stroke="#FFFFFF" stroke-width="5" stroke-miterlimit="10" cx="105" cy="100" r="75.216"/>
		<g id="Livello_10_29_">
			<g>
				<path fill="#6AB64D" stroke="#FFFFFF" stroke-width="4" stroke-miterlimit="10" d="M73.273,72.206
					c-16.871,17.962-10.092,37.589-7.324,44.763c17.148-39.662,56.822-49.123,56.822-49.123s-50.029,35.45-55.184,79.809
					c-0.406,3.502,8.074,5.517,8.693,1.332c1.895-12.461,6.539-22.711,6.539-22.711c11.402,1.087,30.49,0.75,40.504-12.011
					c13.299-16.955,3.959-43.622,24.15-63.561C152.189,46.051,96.133,47.869,73.273,72.206z"/>
			</g>
		</g>
	</g>
	<g>
		<g>
			<path fill="#47AE54" stroke="#FFFFFF" stroke-width="2" stroke-miterlimit="10" d="M194.768,148.898
				c-2.534-5.819-5.349-11.609-8.446-17.346c6.004-2.538,12.219-4.851,18.63-6.915C140.979,97.781,68.834,97.951,4.965,125.146
				c0.04,0.094,0.08,0.188,0.12,0.282c6.617,2.096,13.026,4.457,19.211,7.059c-2.899,5.431-5.546,10.909-7.942,16.413
				C73.411,124.948,137.71,124.947,194.768,148.898L194.768,148.898L194.768,148.898z"/>
		</g>
	</g>
	<g>
		<g>
			<path fill="#FFFFFF" d="M45.937,129.065c1.778-0.537,3.559-1.048,5.342-1.536c0.503-0.137,0.848-0.389,1.038-0.758
				c0.191-0.369,0.243-1.072,0.161-2.108c0.388-0.103,0.777-0.204,1.165-0.303c0.341,1.695,0.688,3.392,1.044,5.084
				c-3.463,0.899-6.919,1.893-10.365,2.98c-0.103-0.293-0.205-0.587-0.306-0.882c0.281-0.971,0.966-2.538,2.122-4.691
				c1.021-1.909,1.671-3.284,1.897-4.139c0.316-1.164,0.334-2.25,0.039-3.265c-0.254-0.876-0.676-1.477-1.272-1.802
				c-0.594-0.324-1.295-0.375-2.099-0.143c-0.812,0.236-1.432,0.619-1.856,1.147c-0.423,0.528-0.571,0.988-0.445,1.378
				c0.05,0.157,0.15,0.262,0.301,0.314c0.152,0.059,0.469,0.066,0.954,0.028c1.049-0.073,1.679,0.247,1.895,0.946
				c0.146,0.475,0.08,0.917-0.195,1.331c-0.277,0.415-0.692,0.706-1.249,0.873c-0.581,0.176-1.131,0.113-1.653-0.19
				c-0.521-0.3-0.911-0.831-1.165-1.596c-0.354-1.063-0.234-2.084,0.37-3.058c0.739-1.193,2.006-2.059,3.78-2.562
				c1.583-0.45,2.97-0.428,4.142,0.055c1.172,0.484,1.897,1.277,2.191,2.362c0.158,0.582,0.185,1.146,0.084,1.689
				c-0.133,0.737-0.385,1.432-0.758,2.08c-0.373,0.649-1.06,1.528-2.044,2.646c-1.07,1.202-1.777,2.061-2.148,2.567
				C46.536,128.022,46.213,128.538,45.937,129.065z"/>
			<path fill="#FFFFFF" d="M59.827,112.539c1.059-0.227,2.077-0.156,3.045,0.21c0.968,0.364,1.858,1.106,2.667,2.219
				s1.361,2.48,1.676,4.098c0.317,1.635,0.32,3.099,0.024,4.396c-0.296,1.298-0.8,2.297-1.516,3.004
				c-0.716,0.706-1.565,1.164-2.558,1.377c-1.488,0.32-2.854,0.004-4.126-0.958c-1.589-1.192-2.711-2.944-3.315-5.286
				c-0.426-1.653-0.516-3.143-0.255-4.466c0.259-1.323,0.771-2.362,1.529-3.108C57.754,113.276,58.702,112.779,59.827,112.539z
				 M63.666,120.164c-0.657-3.072-1.312-5.041-1.992-5.905c-0.492-0.628-1.054-0.878-1.677-0.744
				c-0.748,0.159-1.189,0.781-1.313,1.86c-0.125,1.078,0.149,3.045,0.827,5.899c0.569,2.387,1.219,4.02,1.931,4.907
				c0.446,0.546,0.943,0.762,1.495,0.643c0.358-0.076,0.654-0.288,0.887-0.628c0.232-0.342,0.339-0.989,0.326-1.938
				C64.133,122.973,63.975,121.607,63.666,120.164z"/>
			<path fill="#FFFFFF" d="M74.441,109.925c1.062-0.152,2.062-0.015,2.994,0.418c0.931,0.432,1.761,1.232,2.483,2.396
				c0.723,1.164,1.175,2.567,1.372,4.203c0.199,1.651,0.098,3.112-0.287,4.384c-0.386,1.275-0.956,2.236-1.716,2.894
				c-0.759,0.655-1.631,1.053-2.627,1.197c-1.493,0.217-2.82-0.193-4.005-1.241c-1.483-1.299-2.463-3.122-2.894-5.499
				c-0.304-1.678-0.288-3.169,0.062-4.471c0.348-1.301,0.924-2.303,1.724-2.995C72.344,110.519,73.313,110.088,74.441,109.925z
				 M77.703,117.793c-0.433-3.108-0.945-5.116-1.557-6.025c-0.443-0.661-0.98-0.948-1.605-0.858
				c-0.75,0.107-1.228,0.697-1.426,1.766c-0.198,1.066-0.064,3.048,0.404,5.94c0.393,2.419,0.917,4.091,1.557,5.024
				c0.401,0.577,0.877,0.826,1.431,0.745c0.36-0.054,0.667-0.242,0.921-0.566c0.255-0.325,0.407-0.962,0.461-1.908
				C77.966,120.626,77.907,119.254,77.703,117.793z"/>
			<path fill="#FFFFFF" d="M90.627,113.537c1.536-0.195,3.074-0.372,4.615-0.532c0.219,0.643,0.358,1.286,0.421,1.927
				c0.442-0.697,1.03-1.25,1.764-1.653c0.735-0.4,1.563-0.615,2.481-0.64c1.469-0.038,2.669,0.408,3.58,1.325
				c0.912,0.915,1.361,2.225,1.365,3.916c0.003,1.176-0.208,2.173-0.623,2.992c-0.416,0.818-0.993,1.44-1.73,1.866
				c-0.737,0.428-1.599,0.651-2.59,0.679c-0.791,0.021-1.499-0.121-2.129-0.431c-0.63-0.309-1.229-0.82-1.801-1.533
				c0.059,1.198,0.119,2.397,0.178,3.596c0.023,0.473,0.077,0.773,0.159,0.902c0.082,0.128,0.229,0.223,0.44,0.28
				c0.211,0.06,0.628,0.08,1.249,0.062c0.014,0.344,0.028,0.687,0.042,1.03c-2.126,0.079-4.251,0.194-6.377,0.344
				c-0.026-0.343-0.052-0.685-0.078-1.028c0.114-0.008,0.227-0.015,0.34-0.024c0.401-0.027,0.667-0.077,0.799-0.153
				c0.131-0.077,0.229-0.199,0.294-0.37c0.045-0.115,0.053-0.408,0.022-0.872c-0.21-3.166-0.417-6.332-0.621-9.498
				c-0.03-0.467-0.09-0.772-0.18-0.921c-0.09-0.149-0.22-0.252-0.39-0.31c-0.169-0.056-0.557-0.075-1.163-0.055
				C90.67,114.137,90.649,113.837,90.627,113.537z M98.436,114.176c-0.781,0.025-1.434,0.387-1.951,1.076
				c-0.516,0.69-0.739,1.681-0.676,2.964c0.062,1.271,0.39,2.228,0.977,2.878c0.586,0.652,1.231,0.963,1.944,0.938
				c0.697-0.021,1.249-0.328,1.662-0.918c0.54-0.783,0.801-1.821,0.774-3.123c-0.025-1.19-0.276-2.133-0.757-2.821
				C99.926,114.482,99.266,114.147,98.436,114.176z"/>
			<path fill="#FFFFFF" d="M113.552,112.564c1.275,0.05,2.437,0.352,3.473,0.896c1.038,0.547,1.785,1.232,2.243,2.048
				c0.459,0.817,0.645,1.777,0.563,2.878c-0.13,1.757-0.888,3.056-2.245,3.916c-1.357,0.861-2.835,1.255-4.464,1.19
				c-1.153-0.044-2.197-0.317-3.147-0.821c-0.948-0.507-1.679-1.167-2.191-1.994c-0.512-0.827-0.769-1.755-0.76-2.786
				c0.013-1.552,0.625-2.853,1.865-3.881C110.126,112.98,111.691,112.494,113.552,112.564z M113.583,113.588
				c-0.841-0.032-1.521,0.271-2.037,0.913c-0.514,0.64-0.791,1.787-0.834,3.432c-0.046,1.712,0.161,2.898,0.614,3.558
				c0.454,0.662,1.078,1.006,1.881,1.038c0.818,0.031,1.494-0.269,2.033-0.909c0.539-0.642,0.857-1.775,0.947-3.406
				c0.093-1.673-0.099-2.854-0.581-3.542C115.126,113.984,114.449,113.623,113.583,113.588z"/>
			<path fill="#FFFFFF" d="M122.617,113.673c1.69,0.069,3.382,0.162,5.074,0.274c-0.309,2.831-0.623,5.659-0.941,8.49
				c-0.026,0.229,0.034,0.411,0.179,0.554c0.145,0.144,0.378,0.231,0.703,0.268c0.244,0.026,0.487,0.055,0.73,0.081
				c-0.04,0.332-0.081,0.663-0.121,0.992c-2.159-0.248-4.32-0.461-6.482-0.639c0.029-0.332,0.058-0.664,0.086-0.995
				c0.24,0.021,0.479,0.04,0.719,0.062c0.387,0.032,0.667-0.024,0.842-0.176c0.174-0.148,0.281-0.429,0.319-0.834
				c0.186-1.933,0.37-3.866,0.552-5.798c0.035-0.364-0.058-0.656-0.277-0.876c-0.218-0.223-0.538-0.35-0.957-0.386
				c-0.169-0.015-0.338-0.028-0.507-0.042C122.562,114.323,122.59,113.998,122.617,113.673z M126.306,108.18
				c0.558,0.055,1.021,0.272,1.383,0.651c0.363,0.382,0.517,0.812,0.465,1.298c-0.053,0.483-0.295,0.873-0.724,1.172
				c-0.43,0.297-0.917,0.418-1.466,0.364c-0.557-0.055-1.015-0.269-1.377-0.646c-0.363-0.378-0.524-0.806-0.482-1.282
				c0.043-0.487,0.277-0.881,0.707-1.185C125.242,108.25,125.74,108.125,126.306,108.18z"/>
			<path fill="#FFFFFF" d="M144.885,125.936c-0.07,0.326-0.14,0.651-0.21,0.978c-2.155-0.43-4.312-0.823-6.472-1.183
				c0.058-0.328,0.116-0.655,0.174-0.983c0.228,0.038,0.455,0.077,0.683,0.114c0.362,0.062,0.647,0.023,0.856-0.114
				c0.209-0.14,0.344-0.371,0.404-0.694c0.267-1.431,0.531-2.863,0.794-4.294c0.135-0.733,0.05-1.329-0.259-1.787
				c-0.309-0.455-0.771-0.736-1.386-0.837c-0.839-0.137-1.568,0.031-2.183,0.507c-0.614,0.474-1.002,1.248-1.17,2.316
				c-0.175,1.107-0.352,2.217-0.529,3.324c-0.052,0.324,0,0.587,0.153,0.784c0.155,0.197,0.374,0.318,0.659,0.362
				c0.274,0.043,0.548,0.087,0.821,0.131c-0.056,0.327-0.112,0.655-0.168,0.983c-2.244-0.357-4.49-0.68-6.738-0.962
				c0.045-0.329,0.088-0.659,0.133-0.99c0.294,0.038,0.587,0.075,0.88,0.113c0.34,0.044,0.608-0.006,0.808-0.153
				c0.196-0.147,0.321-0.385,0.367-0.709c0.283-1.977,0.563-3.952,0.84-5.93c0.047-0.342-0.044-0.629-0.278-0.867
				c-0.233-0.236-0.563-0.383-0.991-0.437c-0.161-0.02-0.322-0.042-0.483-0.062c0.04-0.311,0.08-0.619,0.12-0.929
				c1.592,0.125,3.184,0.269,4.778,0.43c0.076,0.634,0.092,1.38,0.049,2.233c0.778-0.687,1.574-1.164,2.388-1.434
				c0.813-0.266,1.64-0.33,2.47-0.187c1.129,0.195,1.962,0.686,2.486,1.461c0.515,0.773,0.653,1.745,0.419,2.913
				c-0.306,1.525-0.614,3.051-0.924,4.576c-0.071,0.352-0.034,0.62,0.112,0.811c0.146,0.187,0.41,0.319,0.795,0.396
				C144.485,125.856,144.685,125.896,144.885,125.936z"/>
			<path fill="#FFFFFF" d="M153.081,114.173c0.366,0.083,0.732,0.165,1.098,0.251c-0.319,1.342-0.642,2.683-0.966,4.025
				c1.245,0.287,2.49,0.587,3.733,0.898c-0.099,0.374-0.197,0.749-0.296,1.123c-1.236-0.309-2.473-0.606-3.711-0.892
				c-0.504,2.073-1.014,4.147-1.529,6.222c-0.102,0.409-0.066,0.756,0.109,1.036c0.175,0.279,0.452,0.466,0.83,0.556
				c1.078,0.258,1.891-0.507,2.436-2.304c0.348,0.086,0.694,0.174,1.041,0.261c-0.285,0.958-0.667,1.69-1.14,2.195
				c-0.475,0.509-1.047,0.85-1.714,1.026c-0.67,0.178-1.368,0.181-2.1,0.01c-0.641-0.148-1.167-0.392-1.579-0.735
				c-0.414-0.34-0.705-0.779-0.875-1.311c-0.171-0.534-0.195-1.076-0.067-1.629c0.464-2.014,0.923-4.029,1.376-6.044
				c-0.665-0.143-1.331-0.282-1.996-0.42c0.069-0.322,0.138-0.644,0.207-0.967c1.258,0.111,2.307-0.09,3.154-0.616
				C151.939,116.332,152.604,115.438,153.081,114.173z"/>
			<path fill="#FFFFFF" d="M166.844,122.381c0.348-0.19,0.698-0.382,1.049-0.571c0.246,0.075,0.49,0.149,0.735,0.227
				c-0.278,1.118-0.559,2.234-0.845,3.351c-0.32-0.1-0.64-0.197-0.96-0.295c-0.219-1.026-0.581-1.81-1.083-2.344
				c-0.498-0.535-1.188-0.931-2.061-1.18c-0.753-0.215-1.365-0.25-1.829-0.107c-0.464,0.14-0.751,0.4-0.861,0.781
				c-0.109,0.374-0.041,0.7,0.204,0.976c0.242,0.283,1.002,0.726,2.271,1.347c1.15,0.563,1.898,0.983,2.253,1.248
				c0.677,0.496,1.14,1.076,1.387,1.734c0.249,0.657,0.251,1.337,0.009,2.039c-0.304,0.886-0.963,1.503-1.963,1.861
				c-1,0.36-2.139,0.348-3.428-0.029c-0.623-0.181-1.165-0.408-1.629-0.684c-0.463-0.277-0.919-0.657-1.369-1.146
				c-0.359,0.214-0.717,0.43-1.074,0.647c-0.289-0.079-0.578-0.155-0.868-0.231c0.284-1.24,0.563-2.482,0.839-3.726
				c0.323,0.085,0.646,0.17,0.968,0.256c0.291,2.073,1.399,3.371,3.368,3.941c0.809,0.235,1.471,0.278,1.993,0.126
				c0.521-0.15,0.847-0.421,0.976-0.81c0.118-0.355,0.073-0.667-0.137-0.935c-0.21-0.266-0.864-0.683-1.969-1.236
				c-1.194-0.593-1.999-1.027-2.41-1.319c-0.708-0.487-1.193-1.021-1.457-1.608c-0.263-0.585-0.302-1.216-0.112-1.894
				c0.271-0.968,0.861-1.666,1.784-2.082c0.922-0.417,2.019-0.451,3.276-0.094c0.613,0.173,1.145,0.396,1.593,0.66
				C165.944,121.552,166.394,121.916,166.844,122.381z"/>
		</g>
	</g>
</g>
</svg>
