<?xml version="1.0" encoding="utf-8"?>
<!-- Generator: Adobe Illustrator 16.0.4, SVG Export Plug-In . SVG Version: 6.00 Build 0)  -->
<!DOCTYPE svg PUBLIC "-//W3C//DTD SVG 1.1//EN" "http://www.w3.org/Graphics/SVG/1.1/DTD/svg11.dtd">
<svg version="1.1" id="Livello_1" xmlns="http://www.w3.org/2000/svg" xmlns:xlink="http://www.w3.org/1999/xlink" x="0px" y="0px"
	 width="210px" height="200px" viewBox="0 0 210 200" enable-background="new 0 0 210 200" xml:space="preserve">
<g>
	<g>
		<circle fill="#27A94A" cx="105" cy="100" r="84"/>
		<circle fill="#00953E" stroke="#FFFFFF" stroke-width="5" stroke-miterlimit="10" cx="105" cy="100" r="75.216"/>
		<g id="Livello_10_5_">
			<g>
				<path fill="#6AB64D" stroke="#FFFFFF" stroke-width="4" stroke-miterlimit="10" d="M73.273,72.206
					c-16.871,17.962-10.092,37.589-7.324,44.763c17.148-39.662,56.822-49.123,56.822-49.123s-50.029,35.45-55.184,79.809
					c-0.406,3.502,8.074,5.517,8.693,1.332c1.895-12.461,6.539-22.711,6.539-22.711c11.402,1.087,30.49,0.75,40.504-12.011
					c13.299-16.955,3.959-43.622,24.15-63.561C152.189,46.051,96.133,47.869,73.273,72.206z"/>
			</g>
		</g>
	</g>
	<g>
		<g>
			<path fill="#47AE54" stroke="#FFFFFF" stroke-width="2" stroke-miterlimit="10" d="M194.768,148.899
				c-2.533-5.82-5.349-11.609-8.445-17.347c6.004-2.538,12.218-4.851,18.63-6.915C140.979,97.782,68.834,97.951,4.965,125.146
				c0.04,0.094,0.08,0.188,0.12,0.282c6.617,2.096,13.025,4.457,19.211,7.059c-2.898,5.431-5.546,10.909-7.941,16.413
				C73.41,124.948,137.71,124.947,194.768,148.899L194.768,148.899L194.768,148.899z"/>
		</g>
	</g>
	<g>
		<g>
			<path fill="#FFFFFF" d="M28.771,132.612c1.757-0.536,3.512-1.052,5.273-1.549c0.494-0.14,0.831-0.395,1.018-0.765
				c0.185-0.37,0.229-1.072,0.132-2.106c0.381-0.104,0.762-0.209,1.146-0.312c0.361,1.691,0.729,3.383,1.104,5.072
				c-3.426,0.93-6.847,1.935-10.263,3.013c-0.101-0.294-0.203-0.587-0.304-0.88c0.28-0.97,0.951-2.535,2.078-4.685
				c0.996-1.907,1.62-3.283,1.834-4.137c0.296-1.162,0.299-2.248-0.006-3.26c-0.26-0.872-0.682-1.474-1.272-1.797
				c-0.586-0.323-1.271-0.372-2.056-0.141c-0.791,0.233-1.395,0.615-1.805,1.142c-0.41,0.523-0.549,0.983-0.424,1.372
				c0.052,0.158,0.153,0.263,0.3,0.314c0.149,0.061,0.462,0.07,0.935,0.032c1.027-0.071,1.651,0.248,1.87,0.947
				c0.147,0.473,0.085,0.917-0.18,1.33c-0.27,0.412-0.675,0.702-1.22,0.868c-0.57,0.175-1.109,0.109-1.627-0.193
				c-0.514-0.303-0.899-0.836-1.154-1.601c-0.352-1.063-0.242-2.082,0.339-3.049c0.709-1.188,1.941-2.044,3.669-2.548
				c1.543-0.448,2.898-0.43,4.055,0.048c1.157,0.478,1.883,1.262,2.19,2.345c0.163,0.58,0.2,1.141,0.109,1.688
				c-0.117,0.739-0.354,1.43-0.714,2.081c-0.357,0.65-1.018,1.532-1.983,2.652c-1.042,1.203-1.734,2.063-2.097,2.568
				C29.358,131.57,29.042,132.086,28.771,132.612z"/>
			<path fill="#FFFFFF" d="M42.171,115.997c1.034-0.243,2.029-0.19,2.99,0.157c0.961,0.346,1.856,1.068,2.683,2.162
				c0.828,1.092,1.418,2.447,1.775,4.057c0.363,1.623,0.411,3.087,0.155,4.39c-0.259,1.304-0.729,2.315-1.425,3.038
				c-0.692,0.723-1.527,1.197-2.508,1.429c-1.472,0.348-2.836,0.055-4.118-0.89c-1.596-1.168-2.736-2.907-3.377-5.24
				c-0.451-1.647-0.566-3.135-0.34-4.459c0.226-1.324,0.705-2.366,1.43-3.121C40.16,116.764,41.075,116.256,42.171,115.997z
				 M46.148,123.545c-0.731-3.057-1.43-5.011-2.121-5.859c-0.5-0.622-1.054-0.861-1.665-0.716c-0.729,0.171-1.145,0.799-1.24,1.877
				s0.221,3.039,0.955,5.881c0.611,2.376,1.291,3.999,2.017,4.872c0.454,0.54,0.952,0.745,1.497,0.616
				c0.354-0.082,0.645-0.3,0.865-0.646c0.223-0.346,0.312-0.993,0.276-1.941C46.686,126.343,46.491,124.983,46.148,123.545z"/>
			<path fill="#FFFFFF" d="M55.048,125.491c0.539-0.106,1.033-0.018,1.484,0.262c0.45,0.279,0.725,0.668,0.822,1.158
				c0.099,0.5-0.006,0.961-0.312,1.384c-0.305,0.424-0.721,0.686-1.252,0.788c-0.522,0.103-1.006,0.017-1.458-0.259
				c-0.45-0.276-0.73-0.66-0.839-1.159c-0.104-0.489-0.005-0.949,0.299-1.378C54.098,125.861,54.518,125.595,55.048,125.491z"/>
			<path fill="#FFFFFF" d="M63.296,111.89c1.036-0.16,2.013-0.028,2.932,0.396c0.916,0.422,1.74,1.212,2.469,2.367
				c0.727,1.156,1.197,2.552,1.422,4.184c0.225,1.647,0.151,3.109-0.21,4.388c-0.361,1.277-0.91,2.245-1.653,2.911
				c-0.745,0.664-1.605,1.071-2.593,1.224c-1.479,0.229-2.798-0.175-3.976-1.219c-1.476-1.291-2.452-3.116-2.889-5.49
				c-0.311-1.678-0.305-3.168,0.029-4.469c0.332-1.301,0.88-2.301,1.658-2.994C61.257,112.492,62.198,112.058,63.296,111.89z
				 M66.603,119.727c-0.47-3.103-1.003-5.106-1.614-6.008c-0.443-0.658-0.972-0.939-1.581-0.847
				c-0.73,0.113-1.189,0.704-1.372,1.771s-0.03,3.046,0.459,5.937c0.406,2.416,0.944,4.086,1.582,5.015
				c0.403,0.574,0.878,0.819,1.425,0.734c0.357-0.055,0.657-0.246,0.906-0.574c0.249-0.325,0.392-0.966,0.434-1.912
				C66.899,122.558,66.825,121.187,66.603,119.727z"/>
			<path fill="#FFFFFF" d="M77.562,110.079c1.034-0.105,1.999,0.079,2.89,0.551c0.888,0.47,1.663,1.304,2.326,2.498
				c0.661,1.191,1.051,2.611,1.185,4.254c0.133,1.655-0.022,3.11-0.452,4.368c-0.427,1.256-1.029,2.194-1.805,2.817
				c-0.777,0.624-1.655,0.984-2.645,1.083c-1.48,0.149-2.767-0.325-3.879-1.431c-1.394-1.368-2.26-3.241-2.561-5.638
				c-0.216-1.689-0.128-3.177,0.272-4.458c0.397-1.28,1-2.25,1.807-2.901C75.506,110.572,76.459,110.189,77.562,110.079z
				 M80.419,118.081c-0.295-3.122-0.718-5.151-1.275-6.084c-0.404-0.682-0.916-0.992-1.525-0.931
				c-0.732,0.073-1.221,0.639-1.458,1.694c-0.238,1.055-0.194,3.04,0.132,5.95c0.273,2.436,0.71,4.132,1.294,5.093
				c0.368,0.594,0.825,0.865,1.371,0.81c0.36-0.037,0.668-0.211,0.935-0.524c0.265-0.313,0.442-0.942,0.537-1.887
				C80.558,120.924,80.557,119.551,80.419,118.081z"/>
			<path fill="#FFFFFF" d="M91.84,109.033c1.035-0.049,1.986,0.188,2.847,0.706c0.858,0.516,1.587,1.39,2.183,2.617
				c0.593,1.227,0.907,2.663,0.948,4.31c0.042,1.661-0.192,3.106-0.689,4.34c-0.498,1.231-1.146,2.135-1.956,2.717
				c-0.808,0.581-1.702,0.893-2.692,0.938c-1.482,0.069-2.733-0.471-3.78-1.635c-1.311-1.439-2.066-3.357-2.235-5.764
				c-0.121-1.702,0.044-3.181,0.514-4.438c0.465-1.259,1.116-2.192,1.954-2.8C89.769,109.415,90.737,109.085,91.84,109.033z
				 M94.251,117.178c-0.124-3.134-0.432-5.182-0.939-6.145c-0.365-0.702-0.859-1.039-1.469-1.011
				c-0.732,0.034-1.247,0.574-1.543,1.615c-0.291,1.042-0.355,3.024-0.191,5.948c0.139,2.445,0.478,4.162,1.007,5.153
				c0.332,0.614,0.772,0.907,1.318,0.882c0.36-0.018,0.68-0.176,0.959-0.474c0.283-0.298,0.493-0.917,0.642-1.854
				C94.235,120.023,94.31,118.652,94.251,117.178z"/>
			<path fill="#FFFFFF" d="M107.205,114.079c1.509-0.069,3.026-0.126,4.54-0.168c0.165,0.656,0.251,1.309,0.265,1.955
				c0.483-0.663,1.103-1.17,1.85-1.519c0.747-0.347,1.575-0.502,2.471-0.459c1.439,0.065,2.58,0.593,3.41,1.567
				c0.829,0.976,1.182,2.311,1.067,4c-0.08,1.172-0.352,2.153-0.822,2.942c-0.467,0.79-1.08,1.372-1.842,1.745
				c-0.761,0.374-1.629,0.539-2.61,0.495c-0.783-0.035-1.473-0.23-2.07-0.586c-0.597-0.354-1.147-0.909-1.653-1.662
				c-0.038,1.199-0.075,2.399-0.113,3.598c-0.016,0.475,0.014,0.776,0.085,0.91c0.07,0.136,0.209,0.24,0.413,0.314
				c0.206,0.075,0.617,0.127,1.231,0.157c-0.014,0.342-0.026,0.687-0.041,1.029c-2.113-0.077-4.231-0.13-6.346-0.152
				c0.004-0.344,0.008-0.688,0.012-1.031c0.112,0.001,0.228,0.003,0.339,0.004c0.396,0.006,0.666-0.025,0.803-0.091
				s0.245-0.18,0.321-0.343c0.057-0.113,0.088-0.403,0.097-0.869c0.058-3.172,0.116-6.344,0.173-9.517
				c0.009-0.466-0.027-0.775-0.103-0.93c-0.077-0.156-0.195-0.271-0.356-0.341c-0.159-0.07-0.539-0.121-1.13-0.148
				C107.197,114.681,107.2,114.38,107.205,114.079z M114.779,115.316c-0.765-0.031-1.432,0.279-1.989,0.93
				c-0.56,0.65-0.854,1.619-0.893,2.902c-0.039,1.273,0.206,2.253,0.735,2.944c0.526,0.693,1.137,1.053,1.843,1.081
				c0.689,0.027,1.258-0.237,1.707-0.799c0.589-0.741,0.923-1.76,0.991-3.058c0.06-1.19-0.114-2.147-0.538-2.869
				C116.216,115.728,115.593,115.349,114.779,115.316z"/>
			<path fill="#FFFFFF" d="M129.694,114.682c1.247,0.121,2.37,0.484,3.357,1.082c0.985,0.598,1.686,1.32,2.091,2.158
				c0.409,0.84,0.538,1.808,0.399,2.9c-0.225,1.75-1.041,3.01-2.434,3.798c-1.392,0.789-2.887,1.103-4.496,0.946
				c-1.141-0.111-2.159-0.446-3.068-1.007c-0.906-0.563-1.586-1.27-2.036-2.125c-0.449-0.856-0.641-1.799-0.564-2.827
				c0.118-1.551,0.805-2.807,2.088-3.758C126.312,114.899,127.875,114.506,129.694,114.682z M129.665,115.703
				c-0.822-0.08-1.51,0.187-2.055,0.797c-0.547,0.607-0.887,1.735-1.035,3.375c-0.154,1.706-0.023,2.901,0.381,3.588
				c0.409,0.688,1.006,1.068,1.801,1.146c0.807,0.077,1.493-0.185,2.065-0.796c0.571-0.609,0.954-1.725,1.135-3.348
				c0.188-1.666,0.064-2.855-0.367-3.567C131.155,116.186,130.516,115.787,129.665,115.703z"/>
			<path fill="#FFFFFF" d="M138.534,116.252c1.657,0.148,3.313,0.313,4.975,0.493c-0.435,2.814-0.877,5.628-1.323,8.443
				c-0.034,0.226,0.015,0.413,0.152,0.561c0.135,0.147,0.367,0.246,0.687,0.296c0.237,0.037,0.479,0.076,0.72,0.112
				c-0.056,0.328-0.11,0.657-0.165,0.986c-2.136-0.336-4.271-0.645-6.409-0.926c0.047-0.329,0.092-0.661,0.138-0.989
				c0.237,0.031,0.476,0.062,0.711,0.094c0.383,0.052,0.664,0.007,0.844-0.134c0.18-0.144,0.301-0.414,0.359-0.819
				c0.28-1.922,0.556-3.844,0.832-5.766c0.051-0.361-0.024-0.658-0.23-0.889c-0.204-0.23-0.514-0.374-0.923-0.429
				c-0.166-0.021-0.333-0.044-0.498-0.065C138.446,116.896,138.489,116.575,138.534,116.252z M142.426,110.93
				c0.542,0.076,0.984,0.313,1.321,0.707c0.336,0.395,0.467,0.831,0.394,1.314c-0.073,0.481-0.326,0.86-0.764,1.14
				c-0.437,0.28-0.92,0.381-1.455,0.306c-0.545-0.079-0.981-0.313-1.319-0.706c-0.336-0.395-0.472-0.828-0.408-1.303
				c0.069-0.484,0.314-0.867,0.752-1.151C141.382,110.953,141.872,110.85,142.426,110.93z"/>
			<path fill="#FFFFFF" d="M160.063,129.267c-0.079,0.325-0.156,0.649-0.233,0.974c-2.132-0.477-4.267-0.928-6.399-1.35
				c0.068-0.326,0.139-0.652,0.206-0.979c0.226,0.044,0.448,0.09,0.673,0.134c0.358,0.071,0.644,0.042,0.854-0.09
				c0.211-0.133,0.355-0.361,0.425-0.683c0.309-1.424,0.619-2.846,0.922-4.27c0.159-0.729,0.093-1.325-0.195-1.791
				c-0.289-0.464-0.737-0.756-1.34-0.875c-0.823-0.161-1.546-0.013-2.171,0.441c-0.621,0.456-1.034,1.217-1.241,2.278
				c-0.214,1.102-0.428,2.203-0.646,3.305c-0.064,0.322-0.022,0.587,0.123,0.788c0.146,0.203,0.36,0.331,0.643,0.384
				c0.271,0.051,0.541,0.104,0.811,0.155c-0.067,0.327-0.131,0.654-0.2,0.981c-2.22-0.429-4.441-0.828-6.663-1.195
				c0.058-0.328,0.117-0.656,0.174-0.985c0.291,0.048,0.578,0.097,0.87,0.146c0.338,0.057,0.603,0.016,0.808-0.124
				c0.2-0.139,0.333-0.372,0.394-0.695c0.359-1.965,0.714-3.929,1.069-5.894c0.061-0.338-0.02-0.63-0.238-0.876
				c-0.219-0.244-0.541-0.401-0.958-0.472c-0.158-0.026-0.315-0.053-0.473-0.079c0.053-0.307,0.104-0.615,0.157-0.923
				c1.561,0.184,3.121,0.38,4.682,0.591c0.052,0.636,0.04,1.38-0.035,2.233c0.79-0.662,1.598-1.115,2.406-1.36
				c0.81-0.243,1.625-0.285,2.438-0.118c1.104,0.223,1.907,0.733,2.4,1.519c0.482,0.785,0.589,1.76,0.324,2.921
				c-0.346,1.517-0.695,3.034-1.045,4.551c-0.081,0.349-0.051,0.62,0.09,0.812c0.142,0.191,0.397,0.33,0.777,0.413
				C159.669,129.179,159.865,129.223,160.063,129.267z"/>
			<path fill="#FFFFFF" d="M168.443,117.658c0.356,0.089,0.715,0.176,1.069,0.264c-0.348,1.338-0.691,2.674-1.041,4.01
				c1.221,0.305,2.438,0.617,3.655,0.938c-0.105,0.374-0.206,0.749-0.312,1.121c-1.213-0.319-2.424-0.63-3.638-0.935
				c-0.542,2.067-1.088,4.131-1.639,6.195c-0.11,0.41-0.077,0.755,0.09,1.04c0.165,0.282,0.44,0.47,0.813,0.564
				c1.063,0.272,1.886-0.48,2.452-2.271c0.343,0.091,0.684,0.181,1.026,0.272c-0.297,0.953-0.688,1.681-1.163,2.182
				c-0.478,0.502-1.05,0.836-1.717,1.005c-0.67,0.168-1.359,0.163-2.087-0.02c-0.631-0.158-1.153-0.41-1.555-0.76
				c-0.402-0.351-0.685-0.792-0.841-1.326c-0.157-0.537-0.168-1.08-0.029-1.629c0.506-2.007,1.009-4.011,1.504-6.016
				c-0.65-0.155-1.303-0.306-1.955-0.454c0.075-0.322,0.154-0.643,0.229-0.964c1.235,0.136,2.274-0.051,3.117-0.562
				C167.271,119.801,167.94,118.916,168.443,117.658z"/>
			<path fill="#FFFFFF" d="M181.814,125.933c0.344-0.192,0.688-0.383,1.035-0.575c0.241,0.075,0.48,0.148,0.719,0.223
				c-0.282,1.117-0.564,2.233-0.852,3.349c-0.314-0.098-0.628-0.194-0.94-0.291c-0.213-1.023-0.561-1.805-1.048-2.339
				c-0.485-0.532-1.161-0.928-2.014-1.176c-0.738-0.217-1.34-0.253-1.798-0.114c-0.458,0.14-0.746,0.4-0.858,0.779
				c-0.111,0.372-0.049,0.697,0.189,0.974c0.233,0.285,0.977,0.729,2.223,1.352c1.125,0.564,1.863,0.983,2.21,1.246
				c0.665,0.496,1.117,1.074,1.356,1.729c0.243,0.655,0.244,1.335,0.003,2.036c-0.305,0.887-0.951,1.505-1.945,1.866
				c-0.992,0.358-2.123,0.348-3.4-0.032c-0.612-0.183-1.15-0.413-1.61-0.689c-0.459-0.28-0.907-0.664-1.349-1.155
				c-0.358,0.213-0.717,0.427-1.072,0.641c-0.288-0.079-0.571-0.16-0.859-0.237c0.297-1.238,0.59-2.478,0.879-3.718
				c0.318,0.088,0.633,0.175,0.952,0.264c0.262,2.072,1.349,3.378,3.298,3.953c0.8,0.238,1.46,0.282,1.975,0.13
				c0.518-0.151,0.841-0.422,0.97-0.812c0.118-0.356,0.075-0.666-0.131-0.932c-0.206-0.267-0.852-0.683-1.938-1.236
				c-1.175-0.596-1.968-1.033-2.369-1.328c-0.696-0.488-1.167-1.024-1.419-1.612c-0.254-0.587-0.283-1.219-0.086-1.895
				c0.281-0.965,0.878-1.656,1.788-2.068c0.911-0.413,1.989-0.443,3.221-0.084c0.601,0.174,1.12,0.394,1.558,0.659
				S181.376,125.47,181.814,125.933z"/>
		</g>
	</g>
</g>
</svg>
