<?xml version="1.0" encoding="utf-8"?>
<!-- Generator: Adobe Illustrator 16.0.0, SVG Export Plug-In . SVG Version: 6.00 Build 0)  -->
<!DOCTYPE svg PUBLIC "-//W3C//DTD SVG 1.1//EN" "http://www.w3.org/Graphics/SVG/1.1/DTD/svg11.dtd">
<svg version="1.1" id="Livello_1" xmlns="http://www.w3.org/2000/svg" xmlns:xlink="http://www.w3.org/1999/xlink" x="0px" y="0px"
	 width="224.157px" height="236.048px" viewBox="0 0 224.157 236.048" enable-background="new 0 0 224.157 236.048"
	 xml:space="preserve">
<g>
	<circle fill="#FFFFFF" stroke="#00953E" stroke-miterlimit="10" cx="112.079" cy="93.027" r="84"/>
	<circle fill="#FFFFFF" stroke="#00953E" stroke-width="5" stroke-miterlimit="10" cx="112.08" cy="93.027" r="75.216"/>
	<path fill="none" d="M48.61,76.174h31.434v31.435H48.61V76.174z"/>
	<rect x="137.085" y="114.377" fill="none" width="24.543" height="24.956"/>
	<path fill="#6AB64D" d="M98.044,27.791c-1.9,12.684-12.439,17.483-25.268,17.134v13.188H94.47v47.195h17.504V27.791H98.044z"/>
	<rect x="114.294" y="75.55" fill="none" width="58.588" height="38.759"/>
	<text transform="matrix(1 0 0 1 114.2939 105.4795)" fill="#6AB64D" font-family="'Raleway-Bold'" font-size="41">st </text>
	<rect x="70.079" y="108.027" fill="none" width="100.402" height="38.759"/>
	<text transform="matrix(1 0 0 1 70.0791 135.0371)" fill="#6AB64D" font-family="'Raleway-Bold'" font-size="37">TIME </text>
</g>
<g>
	<g>
		<path fill="#FFFFFF" stroke="#00953E" stroke-width="5" stroke-miterlimit="10" d="M203.837,208.746
			c-1.189-9.247-2.857-18.545-5.008-27.853c7.422-6.014,15.252-11.731,23.476-17.112c-69.825-28.682-148.211-28.5-217.928,0.544
			c0.072,0.174,0.146,0.349,0.218,0.522c8.497,5.508,16.578,11.376,24.225,17.561c-1.982,8.803-3.534,17.594-4.659,26.342
			C81.715,185.107,146.281,185.105,203.837,208.746L203.837,208.746L203.837,208.746z"/>
	</g>
</g>
<g>
	<g>
		<path fill="#00953E" d="M61.179,160.423c3.229-1.088,6.47-2.075,9.721-2.964c0.083,0.291,0.162,0.584,0.244,0.876
			c-0.584,0.159-1.168,0.32-1.751,0.488c-0.378,0.107-0.633,0.24-0.77,0.398c-0.138,0.158-0.175,0.342-0.11,0.557
			c1.073,3.575,2.163,7.149,3.278,10.719c0.076,0.248,0.216,0.404,0.414,0.461c0.255,0.074,0.578,0.055,0.979-0.058
			c0.479-0.137,0.954-0.271,1.435-0.401c0.084,0.291,0.172,0.583,0.256,0.875c-2.951,0.809-5.895,1.711-8.824,2.702
			c-0.104-0.284-0.208-0.573-0.312-0.856c0.452-0.154,0.902-0.305,1.354-0.452c0.469-0.154,0.773-0.322,0.922-0.506
			c0.147-0.185,0.187-0.398,0.102-0.641c-1.198-3.502-2.37-7.004-3.524-10.515c-0.086-0.259-0.244-0.424-0.477-0.484
			c-0.23-0.064-0.55-0.027-0.958,0.104c-0.559,0.182-1.12,0.369-1.679,0.557C61.378,160.997,61.278,160.709,61.179,160.423z"/>
		<path fill="#00953E" d="M98.845,165.877c0.035,0.303,0.07,0.601,0.104,0.903c-2.23,0.242-4.457,0.535-6.68,0.878
			c-0.049-0.3-0.097-0.598-0.146-0.897c0.23-0.034,0.458-0.069,0.688-0.104c0.419-0.064,0.707-0.173,0.855-0.334
			c0.148-0.158,0.205-0.381,0.163-0.663c-0.194-1.311-0.386-2.618-0.576-3.929c-0.107-0.727-0.375-1.237-0.812-1.529
			c-0.436-0.291-1.003-0.386-1.688-0.278c-0.566,0.089-1.03,0.265-1.4,0.526c-0.366,0.26-0.657,0.646-0.862,1.153
			c-0.208,0.508-0.269,0.981-0.188,1.424c0.212,1.175,0.424,2.349,0.641,3.524c0.041,0.23,0.15,0.394,0.332,0.486
			c0.181,0.096,0.402,0.118,0.676,0.074c0.303-0.052,0.61-0.102,0.914-0.152c0.051,0.299,0.102,0.598,0.152,0.896
			c-2.264,0.368-4.521,0.786-6.775,1.257c-0.065-0.296-0.131-0.592-0.195-0.888c0.253-0.054,0.507-0.104,0.758-0.157
			c0.41-0.083,0.678-0.193,0.795-0.328c0.151-0.175,0.203-0.396,0.149-0.657c-0.277-1.347-0.551-2.693-0.825-4.041
			c-0.13-0.644-0.438-1.108-0.924-1.382c-0.483-0.275-1.048-0.347-1.686-0.214c-0.495,0.105-0.937,0.301-1.316,0.593
			c-0.377,0.291-0.673,0.674-0.873,1.156c-0.201,0.479-0.26,0.893-0.178,1.232c0.277,1.165,0.557,2.328,0.838,3.49
			c0.086,0.355,0.221,0.578,0.411,0.669c0.252,0.115,0.572,0.132,0.959,0.045c0.217-0.048,0.433-0.097,0.649-0.142
			c0.069,0.295,0.135,0.591,0.204,0.886c-2.265,0.49-4.524,1.036-6.777,1.633c-0.082-0.292-0.165-0.585-0.247-0.876
			c0.26-0.07,0.519-0.135,0.777-0.205c0.414-0.105,0.688-0.242,0.814-0.405c0.129-0.165,0.157-0.394,0.076-0.689
			c-0.471-1.771-0.937-3.544-1.4-5.318c-0.062-0.239-0.172-0.415-0.329-0.528c-0.156-0.109-0.372-0.172-0.648-0.182
			c-0.205-0.011-0.604,0.062-1.186,0.217c-0.077-0.286-0.157-0.573-0.233-0.858c1.582-0.489,3.17-0.953,4.763-1.392
			c0.33,0.57,0.605,1.201,0.831,1.894c0.604-0.958,1.247-1.669,1.915-2.139c0.667-0.47,1.442-0.79,2.312-0.964
			c0.934-0.186,1.747-0.152,2.427,0.1c0.68,0.25,1.235,0.718,1.655,1.401c0.64-0.941,1.327-1.644,2.057-2.106
			c0.725-0.462,1.521-0.754,2.38-0.879c1.194-0.172,2.171-0.008,2.933,0.479c0.761,0.495,1.202,1.276,1.334,2.344
			c0.178,1.446,0.359,2.896,0.542,4.343c0.04,0.298,0.146,0.502,0.326,0.611c0.179,0.106,0.438,0.143,0.786,0.104
			C98.358,165.932,98.602,165.9,98.845,165.877z"/>
		<path fill="#00953E" d="M99.2,157.609c1.59-0.239,3.18-0.456,4.775-0.646c0.235,0.576,0.388,1.157,0.464,1.741
			c0.444-0.648,1.052-1.17,1.804-1.553c0.758-0.386,1.615-0.6,2.565-0.638c1.525-0.061,2.767,0.327,3.722,1.149
			c0.951,0.822,1.425,2.011,1.439,3.549c0.01,1.07-0.201,1.977-0.623,2.726c-0.422,0.75-1.011,1.317-1.766,1.718
			c-0.754,0.396-1.634,0.614-2.653,0.657c-0.813,0.036-1.545-0.079-2.192-0.345c-0.652-0.267-1.274-0.714-1.875-1.345
			c0.078,1.088,0.158,2.177,0.237,3.265c0.027,0.426,0.089,0.703,0.176,0.815c0.085,0.115,0.241,0.196,0.455,0.244
			c0.216,0.048,0.645,0.054,1.281,0.023c0.02,0.313,0.038,0.625,0.056,0.937c-2.174,0.124-4.349,0.295-6.52,0.516
			c-0.033-0.311-0.066-0.621-0.101-0.933c0.116-0.011,0.233-0.022,0.349-0.035c0.408-0.042,0.681-0.097,0.814-0.172
			c0.133-0.075,0.231-0.188,0.296-0.346c0.044-0.106,0.046-0.374,0.007-0.795c-0.273-2.871-0.544-5.743-0.809-8.616
			c-0.039-0.422-0.106-0.697-0.203-0.83c-0.096-0.131-0.232-0.223-0.41-0.266c-0.176-0.045-0.576-0.048-1.204-0.005
			C99.257,158.153,99.229,157.882,99.2,157.609z M107.302,157.942c-0.812,0.041-1.482,0.387-2.006,1.028
			c-0.524,0.641-0.742,1.549-0.657,2.714c0.084,1.154,0.435,2.011,1.047,2.59c0.615,0.577,1.28,0.842,2.015,0.807
			c0.715-0.037,1.277-0.327,1.698-0.871c0.549-0.723,0.808-1.671,0.766-2.852c-0.038-1.084-0.305-1.934-0.812-2.553
			C108.846,158.189,108.157,157.899,107.302,157.942z"/>
		<path fill="#00953E" d="M129.234,165.358c0.146,0.248,0.29,0.496,0.434,0.745c-0.512,0.228-0.96,0.38-1.352,0.449
			c-0.392,0.073-0.817,0.091-1.273,0.055c-0.677-0.052-1.22-0.208-1.62-0.472c-0.405-0.264-0.758-0.735-1.07-1.41
			c-0.854,0.609-1.604,1.022-2.252,1.23c-0.652,0.21-1.379,0.304-2.184,0.278c-1.113-0.032-1.977-0.259-2.598-0.688
			c-0.623-0.43-0.934-0.97-0.93-1.62c0.008-0.982,0.597-1.771,1.797-2.344c0.961-0.449,3.066-0.887,6.349-1.171
			c0.026-0.44,0.052-0.877,0.076-1.316c0.031-0.52-0.165-0.954-0.59-1.309c-0.425-0.351-1.013-0.546-1.758-0.577
			c-0.571-0.024-1.078,0.053-1.519,0.227c-0.297,0.115-0.45,0.232-0.449,0.357c-0.005,0.066,0.046,0.163,0.152,0.299
			c0.225,0.3,0.328,0.593,0.321,0.879c-0.011,0.362-0.176,0.652-0.487,0.869c-0.313,0.213-0.724,0.314-1.23,0.305
			c-0.543-0.012-0.976-0.142-1.303-0.39c-0.328-0.248-0.487-0.564-0.484-0.948c0.01-0.634,0.449-1.185,1.34-1.651
			c1.104-0.575,2.493-0.841,4.136-0.767c1.241,0.057,2.329,0.267,3.269,0.629c0.602,0.229,1.074,0.592,1.416,1.092
			c0.345,0.5,0.489,1.096,0.434,1.782c-0.123,1.54-0.247,3.082-0.372,4.624c-0.026,0.35,0.032,0.609,0.178,0.777
			s0.359,0.264,0.636,0.287C128.528,165.6,128.841,165.526,129.234,165.358z M124.484,161.26c-1.76,0.088-2.952,0.342-3.58,0.712
			c-0.624,0.37-0.945,0.887-0.965,1.527c-0.014,0.455,0.118,0.81,0.393,1.062c0.276,0.254,0.669,0.389,1.179,0.408
			c0.788,0.031,1.453-0.168,2.001-0.604c0.552-0.434,0.852-1.049,0.899-1.849C124.437,162.099,124.46,161.681,124.484,161.26z"/>
		<path fill="#00953E" d="M136.267,154.28c0.381,0.049,0.764,0.098,1.146,0.148c-0.164,1.242-0.333,2.483-0.501,3.727
			c1.295,0.171,2.588,0.36,3.88,0.562c-0.056,0.348-0.111,0.693-0.167,1.042c-1.285-0.201-2.568-0.388-3.854-0.559
			c-0.263,1.919-0.524,3.839-0.792,5.759c-0.055,0.379,0.027,0.689,0.235,0.933c0.211,0.243,0.512,0.391,0.9,0.445
			c1.111,0.158,1.84-0.588,2.174-2.257c0.359,0.053,0.719,0.111,1.077,0.17c-0.175,0.889-0.473,1.578-0.886,2.07
			c-0.416,0.49-0.952,0.838-1.6,1.046c-0.648,0.208-1.352,0.261-2.103,0.158c-0.662-0.09-1.222-0.271-1.677-0.551
			c-0.458-0.28-0.803-0.653-1.041-1.122c-0.238-0.471-0.328-0.958-0.269-1.472c0.216-1.862,0.433-3.726,0.645-5.589
			c-0.691-0.076-1.383-0.149-2.074-0.219c0.029-0.297,0.06-0.595,0.091-0.894c1.291-0.002,2.324-0.271,3.121-0.812
			C135.366,156.324,135.933,155.465,136.267,154.28z"/>
		<path fill="#00953E" d="M147.468,156.077c0.383,0.075,0.762,0.149,1.141,0.228c-0.251,1.228-0.505,2.457-0.76,3.685
			c1.291,0.261,2.578,0.534,3.865,0.83c-0.081,0.345-0.16,0.686-0.241,1.027c-1.278-0.291-2.559-0.564-3.839-0.825
			c-0.396,1.897-0.794,3.794-1.2,5.691c-0.079,0.377-0.024,0.694,0.17,0.947c0.194,0.257,0.484,0.429,0.874,0.508
			c1.107,0.235,1.893-0.458,2.347-2.103c0.358,0.08,0.714,0.161,1.072,0.244c-0.237,0.877-0.587,1.543-1.04,2.005
			c-0.452,0.462-1.011,0.772-1.683,0.934c-0.668,0.159-1.373,0.163-2.126,0.011c-0.656-0.133-1.209-0.354-1.646-0.664
			c-0.438-0.31-0.762-0.708-0.966-1.191c-0.205-0.486-0.258-0.979-0.165-1.487c0.35-1.845,0.696-3.688,1.04-5.531
			c-0.689-0.124-1.379-0.245-2.067-0.361c0.051-0.295,0.102-0.59,0.152-0.886c1.296,0.086,2.354-0.109,3.19-0.596
			C146.424,158.054,147.052,157.238,147.468,156.077z"/>
		<path fill="#00953E" d="M160.622,162.578c1.304,0.372,2.441,0.946,3.39,1.702c0.949,0.759,1.566,1.567,1.856,2.415
			c0.289,0.846,0.26,1.743-0.076,2.694c-0.539,1.516-1.621,2.457-3.207,2.85c-1.585,0.399-3.187,0.357-4.832-0.113
			c-1.163-0.337-2.172-0.836-3.025-1.518c-0.858-0.68-1.453-1.445-1.797-2.298c-0.345-0.854-0.403-1.736-0.174-2.646
			c0.346-1.373,1.249-2.376,2.746-2.983C156.999,162.075,158.716,162.036,160.622,162.578z M160.433,163.49
			c-0.859-0.245-1.631-0.148-2.299,0.288c-0.669,0.435-1.2,1.381-1.605,2.825c-0.423,1.503-0.479,2.603-0.159,3.299
			c0.315,0.7,0.874,1.159,1.69,1.393c0.827,0.239,1.587,0.146,2.283-0.278c0.693-0.426,1.283-1.342,1.742-2.758
			c0.471-1.455,0.537-2.55,0.195-3.283C161.937,164.241,161.313,163.74,160.433,163.49z"/>
		<path fill="#00953E" d="M91.483,175.754c3.005-0.507,6.02-0.919,9.035-1.234c0.033,0.295,0.066,0.589,0.1,0.884
			c-1.791,2.648-3.466,5.334-5.011,8.042c0.915-0.136,1.835-0.265,2.753-0.382c0.598-0.076,1.064-0.337,1.408-0.783
			c0.345-0.446,0.552-1.186,0.618-2.225c0.319-0.033,0.636-0.068,0.954-0.102c0.067,1.218,0.143,2.435,0.216,3.652
			c-3.033,0.318-6.061,0.74-9.076,1.266c-0.058-0.298-0.116-0.596-0.173-0.893c1.469-2.747,3.066-5.47,4.787-8.163
			c-0.816,0.104-1.63,0.218-2.444,0.337c-0.567,0.083-1.009,0.341-1.32,0.764c-0.312,0.422-0.472,1.097-0.479,2.02
			c-0.322,0.053-0.645,0.106-0.967,0.162C91.749,177.983,91.615,176.869,91.483,175.754z"/>
		<path fill="#00953E" d="M113.813,178.376c-2.367,0.029-4.733,0.118-7.1,0.269c0.11,1.275,0.462,2.206,1.036,2.78
			c0.578,0.575,1.282,0.845,2.116,0.81c0.603-0.026,1.162-0.202,1.696-0.53c0.528-0.327,1.072-0.908,1.63-1.736
			c0.263,0.143,0.526,0.285,0.786,0.428c-0.592,0.984-1.258,1.691-2.011,2.133s-1.672,0.681-2.77,0.732
			c-1.594,0.079-2.913-0.291-3.986-1.123c-1.071-0.833-1.692-1.947-1.829-3.369c-0.137-1.42,0.272-2.655,1.254-3.689
			c0.982-1.034,2.27-1.604,3.831-1.678c1.081-0.054,2.02,0.104,2.805,0.467c0.787,0.358,1.398,0.91,1.836,1.643
			C113.544,176.241,113.778,177.198,113.813,178.376z M106.653,177.758c1.133-0.071,2.268-0.13,3.4-0.174
			c0.321-0.015,0.546-0.09,0.677-0.24c0.136-0.148,0.193-0.411,0.181-0.788c-0.027-0.756-0.241-1.334-0.649-1.731
			c-0.407-0.4-0.921-0.585-1.529-0.556c-0.724,0.033-1.259,0.346-1.604,0.926C106.786,175.776,106.628,176.631,106.653,177.758z"/>
		<path fill="#00953E" d="M122.801,182.166c-0.019,0.305-0.036,0.605-0.055,0.907c-2.273-0.124-4.55-0.188-6.826-0.195
			c0.002-0.303,0.003-0.605,0.003-0.908c0.283,0.003,0.569,0,0.853,0.006c0.351,0.004,0.61-0.056,0.771-0.182
			c0.163-0.123,0.247-0.295,0.252-0.509c0.035-1.804,0.067-3.605,0.102-5.409c0.009-0.436-0.098-0.756-0.321-0.962
			c-0.223-0.203-0.539-0.312-0.948-0.313c-0.197-0.004-0.395,0-0.591-0.004c0.001-0.285,0.003-0.572,0.003-0.859
			c1.496-0.062,2.994-0.104,4.494-0.119c-0.036,0.992-0.074,1.984-0.112,2.978c0.296-0.985,0.778-1.735,1.45-2.239
			c0.672-0.505,1.428-0.734,2.242-0.686c0.695,0.042,1.236,0.24,1.613,0.59c0.379,0.352,0.544,0.782,0.504,1.286
			c-0.034,0.436-0.203,0.775-0.497,1.026c-0.296,0.249-0.642,0.359-1.037,0.334c-0.35-0.023-0.644-0.158-0.882-0.406
			c-0.237-0.248-0.349-0.554-0.325-0.919c0.013-0.202,0.085-0.409,0.221-0.624c0.071-0.119,0.109-0.205,0.113-0.257
			c0.006-0.089-0.016-0.16-0.06-0.204c-0.046-0.046-0.119-0.07-0.225-0.076c-0.267-0.018-0.569,0.105-0.901,0.363
			c-0.512,0.399-0.952,1.038-1.321,1.919c-0.365,0.88-0.566,1.778-0.604,2.688c-0.027,0.658-0.056,1.314-0.082,1.972
			c-0.009,0.228,0.047,0.403,0.178,0.529c0.13,0.128,0.312,0.19,0.55,0.204C121.841,182.116,122.321,182.14,122.801,182.166z"/>
		<path fill="#00953E" d="M133.872,174.399c1.178,0.149,2.222,0.522,3.129,1.106c0.906,0.585,1.53,1.272,1.869,2.055
			c0.344,0.78,0.415,1.664,0.227,2.651c-0.303,1.578-1.127,2.68-2.44,3.34c-1.319,0.661-2.692,0.893-4.157,0.703
			c-1.035-0.133-1.957-0.462-2.771-0.989c-0.815-0.527-1.419-1.182-1.821-1.967c-0.397-0.784-0.561-1.644-0.473-2.577
			c0.131-1.407,0.791-2.541,2.016-3.381C130.672,174.503,132.159,174.182,133.872,174.399z M133.812,175.327
			c-0.771-0.099-1.428,0.122-1.954,0.663c-0.528,0.541-0.88,1.555-1.059,3.042c-0.185,1.546-0.101,2.634,0.253,3.27
			c0.354,0.635,0.889,0.995,1.613,1.088c0.738,0.095,1.381-0.126,1.928-0.656c0.55-0.537,0.949-1.53,1.188-3
			c0.243-1.508,0.182-2.59-0.201-3.255C135.199,175.816,134.606,175.429,133.812,175.327z"/>
	</g>
</g>
</svg>
