<?xml version="1.0" encoding="utf-8"?>
<!-- Generator: Adobe Illustrator 16.0.0, SVG Export Plug-In . SVG Version: 6.00 Build 0)  -->
<!DOCTYPE svg PUBLIC "-//W3C//DTD SVG 1.1//EN" "http://www.w3.org/Graphics/SVG/1.1/DTD/svg11.dtd">
<svg version="1.1" id="Livello_1" xmlns="http://www.w3.org/2000/svg" xmlns:xlink="http://www.w3.org/1999/xlink" x="0px" y="0px"
	 width="224.157px" height="236.048px" viewBox="0 0 224.157 236.048" enable-background="new 0 0 224.157 236.048"
	 xml:space="preserve">
<g>
	<circle fill="#FFFFFF" stroke="#0572B7" stroke-miterlimit="10" cx="112.079" cy="93.048" r="84"/>
	<circle fill="#FFFFFF" stroke="#0572B7" stroke-width="5" stroke-miterlimit="10" cx="112.08" cy="93.048" r="75.216"/>
	<path fill="none" d="M48.61,76.194h31.434v31.435H48.61V76.194z"/>
	<rect x="137.085" y="114.397" fill="none" width="24.543" height="24.956"/>
	<path fill="#0572B7" d="M98.044,27.812c-1.9,12.684-12.439,17.483-25.268,17.134v13.188H94.47v47.195h17.504V27.812H98.044z"/>
	<rect x="114.294" y="75.57" fill="none" width="58.588" height="38.759"/>
	<text transform="matrix(1 0 0 1 114.293 105.5)" fill="#0572B7" font-family="'Raleway-Bold'" font-size="41">st </text>
	<rect x="70.079" y="108.048" fill="none" width="100.402" height="38.759"/>
	<text transform="matrix(1 0 0 1 70.0791 135.0576)" fill="#0572B7" font-family="'Raleway-Bold'" font-size="37">TIME </text>
</g>
<g>
	<g>
		<g>
			<path fill="#FFFFFF" stroke="#0572B7" stroke-width="5" stroke-miterlimit="10" d="M202.478,208.767
				c-1.189-9.247-2.857-18.545-5.008-27.853c7.422-6.014,15.252-11.731,23.476-17.112c-69.825-28.682-148.211-28.5-217.928,0.544
				c0.072,0.174,0.146,0.349,0.218,0.522c8.497,5.508,16.578,11.376,24.225,17.561c-1.982,8.803-3.534,17.594-4.659,26.342
				C80.355,185.128,144.922,185.126,202.478,208.767L202.478,208.767L202.478,208.767z"/>
		</g>
	</g>
	<g>
		<g>
			<path fill="#0572B7" d="M43.011,160.163c3.42-1.033,6.846-1.989,10.277-2.868c1.746-0.448,3.243-0.417,4.484,0.078
				c1.242,0.497,1.985,1.293,2.245,2.376c0.198,0.824,0.068,1.615-0.378,2.373c-0.446,0.76-1.135,1.395-2.062,1.92
				c-0.929,0.523-1.882,0.915-2.859,1.168c-1.048,0.273-2.095,0.552-3.141,0.839c0.438,1.512,0.878,3.021,1.321,4.532
				c0.074,0.251,0.216,0.421,0.429,0.512c0.211,0.092,0.45,0.1,0.719,0.027c0.633-0.171,1.267-0.339,1.899-0.504
				c0.081,0.293,0.163,0.584,0.244,0.878c-2.922,0.762-5.841,1.586-8.751,2.469c-0.095-0.288-0.188-0.579-0.283-0.867
				c0.489-0.149,0.98-0.296,1.47-0.44c0.326-0.094,0.553-0.237,0.677-0.424s0.147-0.402,0.069-0.654
				c-1.099-3.515-2.18-7.031-3.245-10.55c-0.072-0.239-0.219-0.396-0.441-0.484c-0.222-0.085-0.465-0.089-0.725-0.012
				c-0.558,0.167-1.117,0.33-1.675,0.501C43.194,160.741,43.103,160.454,43.011,160.163z M51.33,165.192
				c0.701-0.19,1.403-0.381,2.106-0.566c0.736-0.195,1.354-0.492,1.858-0.898c0.504-0.405,0.83-0.822,0.978-1.252
				c0.146-0.431,0.113-1.058-0.1-1.885c-0.294-1.137-0.879-1.846-1.766-2.119c-0.646-0.192-1.647-0.114-2.995,0.242
				c-0.783,0.207-1.261,0.397-1.441,0.556c-0.18,0.16-0.233,0.364-0.161,0.616C50.312,161.653,50.819,163.426,51.33,165.192z"/>
			<path fill="#0572B7" d="M76.268,166.032c0.198,0.206,0.397,0.409,0.595,0.615c-0.41,0.346-0.787,0.602-1.129,0.765
				c-0.345,0.164-0.729,0.286-1.164,0.362c-0.64,0.114-1.183,0.089-1.622-0.071c-0.441-0.159-0.891-0.535-1.349-1.116
				c-0.638,0.789-1.23,1.367-1.787,1.715c-0.554,0.352-1.212,0.607-1.969,0.764c-1.05,0.216-1.914,0.186-2.6-0.096
				c-0.684-0.283-1.104-0.741-1.254-1.377c-0.227-0.96,0.143-1.851,1.122-2.668c0.786-0.646,2.638-1.529,5.579-2.563
				c-0.084-0.43-0.17-0.862-0.254-1.295c-0.102-0.511-0.387-0.89-0.86-1.136c-0.475-0.244-1.06-0.297-1.75-0.161
				c-0.527,0.104-0.975,0.291-1.338,0.56c-0.244,0.18-0.355,0.326-0.329,0.446c0.014,0.064,0.084,0.149,0.212,0.257
				c0.278,0.241,0.447,0.505,0.506,0.784c0.077,0.357-0.005,0.675-0.241,0.952c-0.235,0.277-0.591,0.472-1.065,0.567
				c-0.503,0.108-0.937,0.074-1.297-0.097c-0.361-0.17-0.583-0.444-0.671-0.819c-0.141-0.618,0.141-1.249,0.85-1.896
				c0.885-0.801,2.095-1.36,3.613-1.658c1.145-0.226,2.193-0.271,3.136-0.14c0.603,0.081,1.125,0.325,1.562,0.726
				s0.717,0.943,0.84,1.623c0.278,1.521,0.556,3.045,0.837,4.567c0.065,0.347,0.185,0.583,0.364,0.71
				c0.177,0.129,0.399,0.17,0.66,0.124C75.682,166.438,75.95,166.292,76.268,166.032z M70.855,163.195
				c-1.596,0.492-2.639,1.005-3.13,1.506c-0.49,0.5-0.665,1.07-0.526,1.701c0.098,0.446,0.306,0.759,0.624,0.943
				c0.318,0.184,0.715,0.229,1.196,0.132c0.742-0.146,1.31-0.496,1.711-1.043c0.402-0.547,0.523-1.217,0.369-2.002
				C71.018,164.02,70.938,163.606,70.855,163.195z"/>
			<path fill="#0572B7" d="M85.5,164.9c0.039,0.301,0.079,0.602,0.119,0.901c-2.447,0.311-4.895,0.661-7.339,1.051
				c-0.05-0.299-0.101-0.598-0.15-0.896c0.305-0.049,0.607-0.097,0.913-0.144c0.374-0.057,0.64-0.164,0.791-0.314
				c0.153-0.153,0.213-0.335,0.18-0.547c-0.281-1.78-0.562-3.566-0.839-5.347c-0.066-0.434-0.234-0.73-0.502-0.893
				s-0.615-0.212-1.043-0.146c-0.204,0.032-0.41,0.065-0.616,0.098c-0.047-0.283-0.093-0.566-0.14-0.85
				c1.548-0.314,3.097-0.615,4.647-0.899c0.14,0.984,0.281,1.966,0.422,2.95c0.127-1.024,0.493-1.848,1.099-2.466
				c0.604-0.621,1.336-0.983,2.188-1.087c0.726-0.092,1.321,0.002,1.78,0.273c0.457,0.271,0.717,0.66,0.774,1.165
				c0.05,0.436-0.055,0.799-0.312,1.102c-0.256,0.302-0.593,0.479-1.009,0.527c-0.37,0.044-0.703-0.034-0.998-0.233
				c-0.296-0.199-0.467-0.479-0.515-0.842c-0.026-0.2,0.012-0.418,0.108-0.652c0.051-0.133,0.075-0.224,0.068-0.275
				c-0.012-0.089-0.044-0.154-0.101-0.189c-0.057-0.034-0.138-0.048-0.246-0.033c-0.28,0.035-0.568,0.209-0.866,0.523
				c-0.454,0.484-0.793,1.195-1.015,2.13c-0.221,0.935-0.266,1.854-0.137,2.755c0.094,0.651,0.188,1.303,0.28,1.954
				c0.032,0.226,0.129,0.388,0.289,0.488c0.16,0.099,0.367,0.134,0.623,0.099C84.471,165.033,84.984,164.966,85.5,164.9z"/>
			<path fill="#0572B7" d="M100.378,161.106c0.304,0.102,0.608,0.205,0.912,0.309c-0.404,1.055-1.064,1.889-1.981,2.515
				c-0.917,0.627-2.024,0.984-3.335,1.091c-1.773,0.145-3.196-0.145-4.286-0.883c-1.088-0.738-1.718-1.811-1.874-3.23
				c-0.168-1.525,0.299-2.85,1.425-3.953c1.124-1.106,2.716-1.75,4.753-1.908c1.465-0.113,2.602,0.058,3.405,0.5
				c0.804,0.441,1.224,1.015,1.267,1.709c0.028,0.508-0.115,0.918-0.432,1.234s-0.748,0.49-1.293,0.526
				c-0.477,0.03-0.863-0.056-1.162-0.268c-0.297-0.209-0.461-0.501-0.489-0.87c-0.023-0.32,0.103-0.699,0.384-1.145
				c0.119-0.186,0.176-0.314,0.172-0.384c-0.01-0.13-0.141-0.237-0.389-0.325c-0.357-0.139-0.811-0.185-1.365-0.144
				c-1.032,0.08-1.758,0.415-2.168,1c-0.551,0.774-0.755,1.894-0.618,3.351c0.137,1.46,0.533,2.457,1.18,2.999
				c0.648,0.543,1.437,0.773,2.37,0.702c0.738-0.057,1.417-0.32,2.042-0.789C99.518,162.675,100.013,161.995,100.378,161.106z"/>
			<path fill="#0572B7" d="M102.136,149.85c1.765-0.161,3.526-0.302,5.294-0.424c0.067,2.368,0.136,4.739,0.205,7.107
				c0.761-0.832,1.477-1.399,2.134-1.708c0.659-0.311,1.387-0.469,2.177-0.477c1.097-0.012,1.938,0.264,2.516,0.818
				c0.656,0.639,0.977,1.541,0.971,2.707c-0.007,1.445-0.014,2.891-0.021,4.336c-0.002,0.297,0.076,0.523,0.233,0.66
				c0.155,0.142,0.382,0.214,0.683,0.215c0.242,0.003,0.487,0.004,0.73,0.008c-0.005,0.303-0.008,0.604-0.011,0.908
				c-2.117-0.025-4.237-0.021-6.352,0.014c-0.005-0.303-0.011-0.605-0.016-0.908c0.229-0.002,0.46-0.008,0.69-0.01
				c0.384-0.004,0.644-0.069,0.778-0.195c0.187-0.162,0.278-0.393,0.276-0.686c-0.012-1.42-0.025-2.839-0.037-4.258
				c-0.006-0.611-0.203-1.097-0.601-1.454c-0.396-0.357-0.89-0.532-1.482-0.521c-0.732,0.01-1.357,0.284-1.871,0.812
				c-0.514,0.526-0.755,1.233-0.729,2.119c0.033,1.13,0.066,2.258,0.1,3.388c0.011,0.293,0.097,0.508,0.264,0.647
				c0.165,0.139,0.398,0.203,0.701,0.196c0.257-0.007,0.513-0.012,0.769-0.018c0.007,0.301,0.014,0.606,0.021,0.907
				c-2.186,0.046-4.369,0.124-6.553,0.232c-0.016-0.302-0.031-0.604-0.047-0.907c0.305-0.016,0.609-0.031,0.915-0.043
				c0.324-0.015,0.565-0.102,0.725-0.257s0.233-0.372,0.222-0.654c-0.155-3.581-0.308-7.162-0.457-10.743
				c-0.014-0.311-0.145-0.553-0.395-0.721c-0.25-0.172-0.579-0.244-0.985-0.225c-0.266,0.012-0.533,0.026-0.8,0.039
				C102.166,150.454,102.152,150.152,102.136,149.85z"/>
			<path fill="#0572B7" d="M130.179,160.012c-2.513-0.171-5.024-0.302-7.538-0.391c-0.022,1.282,0.244,2.238,0.797,2.868
				c0.553,0.633,1.277,0.967,2.178,1.012c0.647,0.03,1.268-0.092,1.867-0.37c0.597-0.279,1.229-0.809,1.9-1.587
				c0.268,0.164,0.535,0.328,0.801,0.494c-0.715,0.93-1.495,1.58-2.343,1.95c-0.85,0.369-1.863,0.526-3.047,0.47
				c-1.724-0.078-3.098-0.576-4.146-1.52c-1.045-0.94-1.562-2.117-1.532-3.543c0.028-1.426,0.605-2.606,1.745-3.533
				c1.141-0.926,2.535-1.356,4.165-1.286c1.127,0.053,2.09,0.294,2.875,0.724c0.786,0.428,1.377,1.028,1.774,1.796
				C130.073,157.864,130.238,158.832,130.179,160.012z M122.674,158.733c1.202,0.043,2.401,0.093,3.602,0.155
				c0.339,0.017,0.583-0.039,0.736-0.176c0.153-0.134,0.243-0.393,0.264-0.769c0.042-0.754-0.129-1.35-0.519-1.783
				c-0.391-0.436-0.904-0.67-1.542-0.697c-0.756-0.033-1.347,0.223-1.769,0.767C123.026,156.775,122.768,157.611,122.674,158.733z"
				/>
			<path fill="#0572B7" d="M141.963,156.451c1.048-0.814,2.045-1.163,2.974-1.042c0.47,0.061,0.833,0.223,1.085,0.486
				c0.253,0.262,0.354,0.572,0.304,0.929c-0.045,0.315-0.188,0.555-0.428,0.716c-0.24,0.162-0.524,0.222-0.85,0.179
				c-0.458-0.061-0.763-0.305-0.913-0.738c-0.093-0.261-0.227-0.402-0.399-0.424c-0.217-0.026-0.54,0.13-0.962,0.468
				c0.759,0.805,1.077,1.602,0.979,2.383c-0.079,0.605-0.347,1.128-0.801,1.572c-0.453,0.442-1.093,0.763-1.914,0.96
				c-0.823,0.201-1.824,0.235-3.001,0.114c-0.406-0.047-0.812-0.095-1.219-0.141c-0.906-0.088-1.525-0.066-1.858,0.061
				c-0.341,0.125-0.523,0.311-0.545,0.557c-0.018,0.216,0.068,0.375,0.263,0.499c0.25,0.163,0.668,0.275,1.251,0.329
				c0.348,0.023,0.697,0.047,1.045,0.071c1.13,0.06,1.96,0.12,2.489,0.181c1.759,0.195,2.956,0.559,3.587,1.072
				c0.63,0.514,0.888,1.152,0.783,1.906c-0.124,0.906-0.614,1.58-1.464,2.032c-1.037,0.557-2.721,0.688-5.067,0.448
				c-2.001-0.205-3.388-0.531-4.164-1.008c-0.776-0.476-1.146-0.988-1.1-1.542c0.029-0.345,0.229-0.632,0.601-0.864
				c0.373-0.229,1.14-0.415,2.299-0.539c-0.729-0.194-1.269-0.466-1.616-0.807c-0.349-0.344-0.504-0.762-0.462-1.254
				c0.036-0.448,0.212-0.816,0.523-1.104c0.311-0.286,0.846-0.521,1.609-0.694c-0.67-0.387-1.168-0.815-1.486-1.293
				s-0.456-0.998-0.408-1.571c0.051-0.618,0.293-1.157,0.731-1.618c0.438-0.464,1.083-0.805,1.938-1.027
				c0.854-0.221,1.879-0.273,3.066-0.15c0.565,0.058,1.106,0.158,1.629,0.301C140.983,156.042,141.482,156.225,141.963,156.451z
				 M141.947,167.263c0.05-0.379-0.161-0.689-0.631-0.923c-0.32-0.163-1.062-0.314-2.22-0.44c-2.093-0.229-3.456-0.228-4.084-0.036
				c-0.63,0.19-0.958,0.476-0.992,0.844c-0.031,0.351,0.174,0.665,0.619,0.942c0.443,0.28,1.316,0.478,2.615,0.609
				c1.691,0.174,2.93,0.145,3.721-0.109C141.571,167.951,141.896,167.658,141.947,167.263z M138.673,156.444
				c-0.537-0.055-1.02,0.108-1.445,0.488c-0.425,0.38-0.674,0.965-0.751,1.749c-0.073,0.759,0.058,1.354,0.392,1.793
				c0.334,0.437,0.77,0.682,1.31,0.74c0.533,0.056,1.011-0.103,1.439-0.477c0.428-0.37,0.687-0.936,0.773-1.685
				c0.089-0.756-0.038-1.365-0.379-1.829C139.673,156.762,139.225,156.502,138.673,156.444z"/>
			<path fill="#0572B7" d="M156.592,158.617c1.106-0.746,2.13-1.032,3.055-0.854c0.468,0.09,0.824,0.274,1.06,0.555
				c0.238,0.279,0.318,0.596,0.246,0.944c-0.062,0.313-0.223,0.546-0.474,0.688c-0.253,0.147-0.541,0.188-0.866,0.125
				c-0.459-0.088-0.749-0.354-0.872-0.794c-0.076-0.268-0.201-0.415-0.373-0.448c-0.219-0.041-0.551,0.094-0.997,0.407
				c0.711,0.851,0.982,1.669,0.829,2.438c-0.118,0.602-0.42,1.105-0.904,1.521c-0.484,0.413-1.146,0.691-1.986,0.838
				c-0.839,0.146-1.845,0.118-3.021-0.074c-0.405-0.073-0.809-0.146-1.214-0.216c-0.903-0.145-1.527-0.161-1.87-0.057
				c-0.351,0.105-0.543,0.28-0.582,0.521c-0.033,0.208,0.044,0.382,0.232,0.516c0.24,0.182,0.652,0.313,1.231,0.406
				c0.35,0.044,0.697,0.09,1.045,0.137c1.13,0.131,1.961,0.244,2.489,0.336c1.756,0.304,2.934,0.742,3.533,1.295
				s0.818,1.205,0.663,1.952c-0.185,0.896-0.722,1.538-1.605,1.938c-1.077,0.489-2.778,0.519-5.118,0.128
				c-1.997-0.328-3.365-0.741-4.112-1.265c-0.747-0.527-1.085-1.059-1.001-1.607c0.05-0.343,0.27-0.619,0.658-0.826
				c0.39-0.206,1.171-0.345,2.342-0.396c-0.721-0.243-1.243-0.54-1.569-0.906c-0.328-0.361-0.456-0.79-0.383-1.278
				c0.066-0.444,0.265-0.802,0.597-1.069c0.33-0.27,0.882-0.469,1.659-0.594c-0.649-0.43-1.12-0.889-1.408-1.383
				c-0.288-0.495-0.393-1.025-0.309-1.594c0.089-0.607,0.368-1.136,0.838-1.57c0.468-0.435,1.137-0.737,2.01-0.904
				c0.87-0.167,1.902-0.154,3.088,0.041c0.562,0.095,1.101,0.227,1.616,0.403C155.634,158.146,156.124,158.361,156.592,158.617z
				 M155.878,169.407c0.074-0.376-0.117-0.7-0.573-0.961c-0.312-0.182-1.046-0.381-2.2-0.578c-2.088-0.357-3.454-0.442-4.098-0.291
				s-0.992,0.412-1.051,0.779c-0.056,0.35,0.133,0.673,0.56,0.979c0.427,0.306,1.288,0.559,2.585,0.772
				c1.686,0.276,2.933,0.326,3.743,0.123C155.455,170.07,155.801,169.798,155.878,169.407z M153.286,158.403
				c-0.535-0.087-1.03,0.045-1.481,0.397c-0.451,0.355-0.738,0.92-0.864,1.698c-0.124,0.751-0.028,1.355,0.276,1.815
				c0.309,0.455,0.729,0.731,1.268,0.819c0.531,0.09,1.024-0.039,1.477-0.385c0.455-0.345,0.749-0.889,0.886-1.633
				c0.135-0.746,0.05-1.366-0.264-1.851C154.271,158.784,153.84,158.496,153.286,158.403z"/>
			<path fill="#0572B7" d="M162.375,159.728c1.63,0.272,3.261,0.558,4.892,0.864c-0.594,2.522-1.193,5.045-1.8,7.565
				c-0.05,0.2-0.01,0.378,0.116,0.523c0.128,0.146,0.349,0.254,0.661,0.326c0.235,0.055,0.47,0.11,0.706,0.165
				c-0.072,0.294-0.146,0.589-0.22,0.883c-2.092-0.489-4.184-0.948-6.279-1.379c0.064-0.295,0.129-0.592,0.193-0.889
				c0.231,0.048,0.464,0.096,0.695,0.144c0.376,0.081,0.654,0.059,0.842-0.052c0.187-0.114,0.32-0.353,0.402-0.716
				c0.387-1.724,0.772-3.447,1.157-5.172c0.072-0.325,0.014-0.601-0.176-0.827c-0.188-0.226-0.483-0.382-0.888-0.466
				c-0.163-0.033-0.324-0.068-0.487-0.101C162.253,160.31,162.312,160.019,162.375,159.728z M166.529,155.211
				c0.532,0.116,0.957,0.369,1.267,0.756c0.311,0.388,0.416,0.796,0.315,1.228c-0.102,0.431-0.375,0.753-0.822,0.973
				c-0.446,0.219-0.933,0.268-1.457,0.153c-0.534-0.113-0.954-0.364-1.265-0.751c-0.312-0.384-0.42-0.791-0.329-1.219
				c0.094-0.431,0.362-0.759,0.81-0.982C165.494,155.145,165.989,155.095,166.529,155.211z"/>
			<path fill="#0572B7" d="M177.188,162.72c1.218,0.329,2.273,0.852,3.162,1.568c0.89,0.713,1.47,1.491,1.745,2.317
				c0.277,0.826,0.257,1.723-0.049,2.679c-0.489,1.532-1.498,2.515-3.001,2.973c-1.502,0.457-3.028,0.475-4.597,0.048
				c-1.11-0.3-2.067-0.779-2.877-1.44c-0.81-0.663-1.373-1.416-1.686-2.262c-0.315-0.844-0.359-1.726-0.126-2.635
				c0.352-1.369,1.221-2.382,2.634-3.014C173.806,162.322,175.411,162.238,177.188,162.72z M177.003,163.634
				c-0.803-0.217-1.524-0.099-2.154,0.353c-0.633,0.448-1.142,1.407-1.539,2.851c-0.411,1.506-0.469,2.602-0.172,3.289
				c0.297,0.686,0.829,1.134,1.603,1.346c0.788,0.211,1.509,0.097,2.169-0.349c0.66-0.444,1.207-1.38,1.638-2.806
				c0.441-1.464,0.503-2.556,0.183-3.271C178.408,164.332,177.83,163.856,177.003,163.634z"/>
			<path fill="#0572B7" d="M42.999,178.061c2.166-0.712,4.338-1.394,6.512-2.039c2.231,2.755,4.416,5.534,6.556,8.339
				c0.194-3.458,0.463-6.922,0.801-10.393c2.237-0.586,4.48-1.139,6.726-1.652c0.072,0.295,0.145,0.59,0.219,0.884
				c-0.487,0.109-0.972,0.226-1.456,0.339c-0.36,0.087-0.593,0.198-0.699,0.348c-0.106,0.147-0.123,0.361-0.051,0.637
				c0.928,3.572,1.869,7.139,2.823,10.707c0.072,0.275,0.191,0.438,0.357,0.508c0.248,0.103,0.545,0.111,0.896,0.029
				c0.403-0.096,0.808-0.188,1.21-0.282c0.074,0.294,0.149,0.589,0.226,0.882c-2.571,0.592-5.137,1.235-7.697,1.926
				c-0.088-0.292-0.176-0.582-0.263-0.874c0.485-0.133,0.973-0.258,1.456-0.388c0.267-0.07,0.451-0.191,0.551-0.367
				c0.1-0.174,0.115-0.385,0.045-0.629c-1.09-3.803-2.163-7.609-3.22-11.418c-0.505,4.803-0.871,9.597-1.097,14.375
				c-0.3,0.085-0.6,0.17-0.899,0.258c-2.995-3.9-6.081-7.752-9.255-11.553c1.139,3.35,2.292,6.697,3.462,10.041
				c0.201,0.574,0.569,0.984,1.099,1.228c0.531,0.245,1.188,0.288,1.977,0.132c0.098,0.289,0.194,0.578,0.291,0.866
				c-1.859,0.558-3.715,1.146-5.565,1.759c-0.107-0.287-0.215-0.571-0.319-0.858c0.683-0.29,1.15-0.69,1.398-1.212
				c0.249-0.521,0.268-1.089,0.05-1.699c-1.051-2.951-2.089-5.91-3.117-8.864c-0.132-0.378-0.293-0.605-0.488-0.679
				c-0.194-0.076-0.511-0.044-0.945,0.096c-0.424,0.139-0.849,0.277-1.272,0.416C43.205,178.634,43.103,178.348,42.999,178.061z"/>
			<path fill="#0572B7" d="M79.693,182.718c0.188,0.208,0.374,0.414,0.56,0.621c-0.372,0.341-0.712,0.588-1.025,0.747
				c-0.312,0.16-0.668,0.275-1.065,0.343c-0.589,0.104-1.089,0.07-1.499-0.096c-0.411-0.165-0.834-0.543-1.27-1.134
				c-0.571,0.78-1.107,1.337-1.61,1.68c-0.504,0.341-1.104,0.583-1.801,0.728c-0.964,0.197-1.762,0.154-2.403-0.142
				c-0.641-0.294-1.041-0.757-1.196-1.392c-0.233-0.96,0.087-1.838,0.972-2.638c0.711-0.63,2.405-1.476,5.107-2.461
				c-0.089-0.432-0.177-0.864-0.265-1.294c-0.103-0.513-0.376-0.893-0.821-1.146c-0.445-0.25-0.988-0.313-1.627-0.188
				c-0.486,0.096-0.896,0.276-1.229,0.535c-0.225,0.173-0.32,0.318-0.295,0.44c0.016,0.062,0.082,0.15,0.202,0.258
				c0.264,0.248,0.424,0.508,0.487,0.79c0.077,0.356,0.012,0.673-0.201,0.944c-0.213,0.274-0.536,0.454-0.974,0.547
				c-0.466,0.098-0.865,0.059-1.205-0.118c-0.339-0.176-0.551-0.454-0.642-0.827c-0.146-0.618,0.098-1.242,0.742-1.873
				c0.803-0.781,1.911-1.32,3.316-1.594c1.057-0.207,2.029-0.234,2.905-0.091c0.563,0.089,1.048,0.338,1.464,0.747
				c0.414,0.405,0.684,0.951,0.811,1.63c0.287,1.523,0.576,3.044,0.867,4.565c0.066,0.345,0.183,0.584,0.351,0.714
				c0.167,0.13,0.372,0.175,0.612,0.132C79.162,183.112,79.407,182.972,79.693,182.718z M74.632,179.809
				c-1.468,0.467-2.42,0.958-2.862,1.45s-0.59,1.055-0.447,1.684c0.101,0.447,0.302,0.762,0.601,0.952
				c0.301,0.188,0.668,0.239,1.108,0.15c0.681-0.135,1.198-0.471,1.557-1.012c0.359-0.54,0.458-1.203,0.297-1.988
				C74.801,180.633,74.716,180.221,74.632,179.809z"/>
			<path fill="#0572B7" d="M94.474,181.018c0.032,0.301,0.062,0.602,0.094,0.903c-1.941,0.186-3.881,0.396-5.819,0.634
				c-0.04-0.3-0.082-0.602-0.121-0.901c0.203-0.025,0.407-0.05,0.612-0.074c0.323-0.037,0.558-0.144,0.696-0.318
				c0.14-0.173,0.19-0.409,0.153-0.706c-0.166-1.312-0.328-2.625-0.493-3.938c-0.083-0.673-0.314-1.166-0.699-1.488
				c-0.384-0.319-0.852-0.444-1.399-0.376c-0.749,0.092-1.324,0.426-1.722,0.994c-0.396,0.567-0.521,1.342-0.376,2.312
				c0.146,1.009,0.297,2.019,0.446,3.027c0.043,0.298,0.159,0.51,0.345,0.645c0.186,0.131,0.406,0.184,0.662,0.148
				c0.244-0.033,0.49-0.064,0.736-0.096c0.041,0.299,0.084,0.6,0.126,0.9c-2.013,0.258-4.024,0.545-6.035,0.861
				c-0.051-0.299-0.104-0.598-0.155-0.896c0.262-0.041,0.524-0.082,0.787-0.123c0.304-0.045,0.521-0.157,0.651-0.336
				c0.129-0.177,0.172-0.415,0.123-0.71c-0.293-1.792-0.585-3.585-0.871-5.377c-0.05-0.308-0.204-0.538-0.468-0.686
				c-0.264-0.15-0.585-0.193-0.965-0.135c-0.143,0.022-0.287,0.046-0.43,0.068c-0.048-0.279-0.095-0.56-0.143-0.84
				c1.396-0.288,2.795-0.562,4.196-0.824c0.231,0.532,0.444,1.181,0.635,1.936c0.479-0.795,1.032-1.413,1.651-1.854
				s1.303-0.702,2.046-0.791c1.007-0.116,1.842,0.096,2.491,0.638c0.643,0.541,1.019,1.348,1.138,2.426
				c0.154,1.404,0.31,2.809,0.466,4.214c0.036,0.323,0.142,0.549,0.318,0.675c0.173,0.126,0.436,0.172,0.781,0.139
				C94.112,181.051,94.294,181.034,94.474,181.018z"/>
			<path fill="#0572B7" d="M95.487,172.656c1.496-0.19,2.994-0.366,4.496-0.526c0.182,2.581,0.362,5.164,0.547,7.745
				c0.014,0.208,0.097,0.364,0.247,0.47c0.152,0.104,0.371,0.146,0.662,0.129c0.219-0.014,0.438-0.025,0.655-0.039
				c0.02,0.302,0.039,0.604,0.058,0.906c-1.939,0.113-3.877,0.253-5.817,0.42c-0.027-0.301-0.057-0.603-0.085-0.904
				c0.216-0.019,0.43-0.039,0.646-0.055c0.346-0.026,0.584-0.122,0.713-0.283c0.131-0.16,0.18-0.426,0.147-0.795
				c-0.151-1.76-0.3-3.518-0.448-5.276c-0.028-0.331-0.156-0.58-0.383-0.743c-0.229-0.164-0.528-0.232-0.903-0.201
				c-0.15,0.015-0.302,0.025-0.452,0.039C95.542,173.248,95.513,172.951,95.487,172.656z M97.863,167.175
				c0.496-0.035,0.935,0.09,1.312,0.374c0.377,0.282,0.579,0.648,0.609,1.09c0.031,0.44-0.119,0.829-0.449,1.16
				c-0.33,0.332-0.736,0.517-1.226,0.552c-0.496,0.035-0.933-0.088-1.31-0.371s-0.586-0.641-0.623-1.076
				c-0.039-0.44,0.107-0.829,0.436-1.167C96.941,167.4,97.361,167.214,97.863,167.175z"/>
			<path fill="#0572B7" d="M108.087,171.934c0.869-0.025,1.736-0.044,2.604-0.059c0.007,0.353,0.013,0.702,0.019,1.055
				c-0.862,0.016-1.727,0.035-2.591,0.059c0.067,2.167,0.133,4.335,0.2,6.501c0.008,0.254,0.066,0.43,0.173,0.522
				c0.106,0.094,0.296,0.138,0.565,0.132c0.572-0.014,1.146-0.026,1.719-0.036c0.006,0.304,0.011,0.605,0.017,0.907
				c-2.335,0.04-4.669,0.121-7.003,0.237c-0.018-0.304-0.033-0.604-0.05-0.907c0.335-0.017,0.673-0.031,1.009-0.048
				c0.306-0.015,0.515-0.077,0.628-0.185c0.112-0.107,0.164-0.282,0.153-0.524c-0.099-2.167-0.196-4.331-0.293-6.498
				c-0.578,0.025-1.157,0.05-1.737,0.08c-0.019-0.353-0.037-0.703-0.056-1.054c0.582-0.028,1.164-0.057,1.747-0.08
				c-0.007-0.124-0.011-0.246-0.018-0.37c-0.054-1.221,0.1-2.228,0.469-3.019c0.369-0.793,0.911-1.39,1.63-1.79
				c0.717-0.397,1.615-0.613,2.685-0.634c0.993-0.019,1.771,0.184,2.318,0.602c0.55,0.42,0.823,0.945,0.827,1.575
				c0.004,0.502-0.162,0.913-0.492,1.239c-0.33,0.324-0.723,0.489-1.184,0.496c-0.432,0.006-0.794-0.114-1.091-0.36
				c-0.297-0.247-0.449-0.554-0.457-0.927c-0.008-0.385,0.206-0.727,0.642-1.021c0.211-0.146,0.316-0.273,0.314-0.377
				c0.001-0.092-0.058-0.165-0.17-0.224c-0.171-0.089-0.398-0.13-0.679-0.124c-0.37,0.006-0.712,0.115-1.02,0.325
				c-0.31,0.21-0.531,0.498-0.669,0.866c-0.197,0.545-0.288,1.125-0.269,1.728C108.048,170.658,108.069,171.297,108.087,171.934z"/>
			<path fill="#0572B7" d="M123.5,180.051c0.135,0.239,0.269,0.481,0.402,0.722c-0.437,0.254-0.821,0.426-1.161,0.518
				c-0.339,0.091-0.709,0.129-1.109,0.114c-0.594-0.018-1.066-0.153-1.426-0.4c-0.359-0.246-0.685-0.706-0.973-1.368
				c-0.726,0.639-1.368,1.079-1.931,1.307c-0.564,0.23-1.195,0.341-1.899,0.338c-0.973-0.004-1.73-0.215-2.28-0.633
				c-0.55-0.42-0.829-0.955-0.837-1.605c-0.012-0.984,0.492-1.776,1.521-2.373c0.825-0.47,2.643-0.943,5.471-1.351
				c0.012-0.439,0.021-0.877,0.032-1.317c0.013-0.521-0.165-0.95-0.542-1.287c-0.374-0.337-0.884-0.51-1.527-0.519
				c-0.49-0.005-0.925,0.085-1.303,0.27c-0.253,0.119-0.38,0.245-0.381,0.37c-0.001,0.064,0.045,0.164,0.139,0.293
				c0.199,0.295,0.297,0.584,0.295,0.871c-0.003,0.363-0.137,0.659-0.402,0.882c-0.265,0.227-0.618,0.334-1.059,0.333
				c-0.469-0.001-0.848-0.122-1.134-0.364c-0.287-0.242-0.432-0.559-0.435-0.94c-0.004-0.632,0.369-1.193,1.127-1.674
				c0.945-0.599,2.129-0.896,3.545-0.874c1.067,0.017,2.01,0.187,2.826,0.51c0.523,0.202,0.939,0.547,1.25,1.03
				c0.311,0.482,0.452,1.068,0.425,1.759c-0.061,1.546-0.12,3.09-0.181,4.635c-0.015,0.35,0.046,0.609,0.178,0.77
				c0.133,0.159,0.319,0.245,0.562,0.256C122.896,180.328,123.164,180.238,123.5,180.051z M119.257,176.169
				c-1.521,0.154-2.549,0.437-3.084,0.826c-0.535,0.386-0.804,0.907-0.807,1.551c-0.003,0.458,0.119,0.805,0.364,1.052
				c0.246,0.244,0.59,0.372,1.034,0.377c0.688,0.007,1.263-0.215,1.729-0.668c0.468-0.451,0.712-1.081,0.732-1.879
				C119.236,177.009,119.246,176.587,119.257,176.169z"/>
			<path fill="#0572B7" d="M129.162,168.575c0.328,0.021,0.656,0.043,0.983,0.066c-0.093,1.25-0.188,2.502-0.282,3.751
				c1.116,0.078,2.232,0.166,3.349,0.263c-0.032,0.35-0.063,0.699-0.097,1.05c-1.11-0.096-2.221-0.183-3.332-0.261
				c-0.147,1.931-0.296,3.864-0.444,5.795c-0.029,0.383,0.053,0.688,0.245,0.914s0.46,0.351,0.801,0.378
				c0.975,0.073,1.565-0.729,1.778-2.417c0.312,0.026,0.625,0.053,0.938,0.08c-0.107,0.902-0.33,1.611-0.667,2.136
				c-0.335,0.524-0.782,0.909-1.336,1.167c-0.555,0.258-1.16,0.358-1.823,0.314c-0.578-0.042-1.071-0.187-1.48-0.434
				c-0.409-0.249-0.726-0.6-0.95-1.053c-0.225-0.454-0.323-0.935-0.29-1.45c0.117-1.871,0.233-3.743,0.35-5.616
				c-0.598-0.033-1.194-0.067-1.793-0.096c0.016-0.299,0.032-0.598,0.048-0.896c1.108-0.078,1.989-0.403,2.651-0.998
				C128.469,170.675,128.922,169.782,129.162,168.575z"/>
			<path fill="#0572B7" d="M138.784,169.421c0.327,0.037,0.655,0.071,0.982,0.11c-0.151,1.245-0.303,2.489-0.456,3.734
				c1.115,0.129,2.23,0.264,3.346,0.407c-0.049,0.35-0.099,0.698-0.147,1.046c-1.108-0.144-2.217-0.278-3.326-0.406
				c-0.236,1.925-0.476,3.847-0.716,5.771c-0.048,0.382,0.021,0.689,0.204,0.925c0.183,0.234,0.443,0.37,0.783,0.411
				c0.972,0.117,1.604-0.658,1.896-2.336c0.312,0.041,0.624,0.08,0.937,0.121c-0.151,0.895-0.409,1.596-0.77,2.103
				c-0.361,0.509-0.826,0.876-1.394,1.109c-0.568,0.233-1.181,0.308-1.842,0.233c-0.578-0.064-1.063-0.23-1.462-0.498
				c-0.398-0.266-0.698-0.629-0.902-1.091c-0.203-0.464-0.279-0.95-0.223-1.462c0.205-1.865,0.409-3.729,0.611-5.596
				c-0.596-0.059-1.193-0.117-1.788-0.172c0.029-0.299,0.058-0.596,0.088-0.895c1.113-0.027,2.011-0.316,2.7-0.883
				C137.995,171.489,138.489,170.616,138.784,169.421z"/>
			<path fill="#0572B7" d="M144.473,173.917c1.518,0.13,3.037,0.276,4.558,0.439c-0.344,2.006-0.69,4.009-1.04,6.014
				c-0.096,0.559-0.012,1.025,0.257,1.402c0.266,0.376,0.656,0.606,1.174,0.695c0.728,0.121,1.363-0.044,1.906-0.507
				c0.541-0.46,0.889-1.051,1.03-1.773c0.193-0.979,0.385-1.959,0.575-2.938c0.068-0.346,0.011-0.627-0.168-0.846
				c-0.179-0.216-0.456-0.358-0.829-0.423c-0.164-0.029-0.329-0.058-0.494-0.086c0.054-0.29,0.107-0.583,0.161-0.875
				c1.537,0.184,3.073,0.385,4.611,0.602c-0.505,2.418-1.016,4.841-1.53,7.259c-0.068,0.327-0.017,0.602,0.162,0.83
				c0.178,0.227,0.443,0.378,0.804,0.447c0.146,0.029,0.295,0.059,0.443,0.089c-0.066,0.297-0.133,0.593-0.199,0.889
				c-1.336-0.229-2.675-0.446-4.013-0.648c-0.036-0.67,0.004-1.373,0.121-2.106c-0.826,0.666-1.575,1.107-2.254,1.322
				c-0.677,0.215-1.345,0.269-2.01,0.164c-0.654-0.105-1.188-0.322-1.592-0.646c-0.407-0.324-0.698-0.791-0.878-1.389
				c-0.18-0.599-0.205-1.298-0.079-2.097c0.19-1.197,0.381-2.395,0.569-3.592c0.062-0.392-0.005-0.69-0.2-0.894
				c-0.195-0.202-0.603-0.355-1.217-0.453C144.386,174.505,144.431,174.209,144.473,173.917z"/>
			<path fill="#0572B7" d="M164.553,186.131c-0.079,0.294-0.158,0.587-0.239,0.881c-2.23-0.546-4.465-1.054-6.703-1.523
				c0.069-0.295,0.138-0.592,0.206-0.888c0.278,0.059,0.557,0.119,0.835,0.178c0.345,0.072,0.61,0.064,0.798-0.023
				c0.188-0.087,0.309-0.238,0.359-0.448c0.425-1.758,0.849-3.516,1.271-5.275c0.102-0.425,0.066-0.761-0.104-1.005
				c-0.169-0.246-0.454-0.41-0.846-0.492c-0.188-0.041-0.379-0.08-0.567-0.121c0.062-0.276,0.127-0.561,0.191-0.839
				c1.449,0.234,2.9,0.484,4.352,0.749c-0.243,0.965-0.486,1.932-0.729,2.896c0.492-0.911,1.115-1.555,1.87-1.926
				c0.754-0.369,1.525-0.463,2.308-0.268c0.667,0.163,1.15,0.457,1.449,0.865s0.377,0.861,0.238,1.351
				c-0.12,0.422-0.348,0.728-0.687,0.922c-0.338,0.193-0.697,0.242-1.077,0.146c-0.338-0.087-0.598-0.271-0.779-0.558
				c-0.184-0.289-0.226-0.61-0.132-0.961c0.052-0.197,0.163-0.387,0.339-0.573c0.093-0.105,0.147-0.183,0.161-0.233
				c0.023-0.088,0.018-0.158-0.017-0.21c-0.035-0.052-0.104-0.092-0.202-0.115c-0.258-0.062-0.571,0.001-0.948,0.193
				c-0.575,0.298-1.136,0.845-1.676,1.64c-0.541,0.794-0.921,1.64-1.149,2.523c-0.165,0.639-0.329,1.278-0.494,1.917
				c-0.056,0.22-0.034,0.406,0.064,0.554c0.1,0.148,0.267,0.248,0.5,0.304C163.613,185.901,164.084,186.015,164.553,186.131z"/>
			<path fill="#0572B7" d="M179.965,190.272c0.062,0.269,0.124,0.536,0.184,0.805c-0.509,0.123-0.944,0.182-1.307,0.177
				c-0.364-0.006-0.739-0.071-1.132-0.195c-0.582-0.183-1.012-0.441-1.292-0.777c-0.279-0.337-0.464-0.864-0.552-1.581
				c-0.908,0.415-1.671,0.661-2.296,0.726c-0.623,0.067-1.281,0.003-1.973-0.192c-0.956-0.269-1.637-0.679-2.054-1.23
				c-0.416-0.555-0.533-1.144-0.347-1.771c0.279-0.948,1.008-1.573,2.196-1.866c0.951-0.227,2.878-0.188,5.796,0.197
				c0.14-0.418,0.279-0.839,0.42-1.258c0.165-0.497,0.112-0.959-0.159-1.386c-0.271-0.426-0.727-0.731-1.358-0.917
				c-0.483-0.143-0.939-0.168-1.364-0.096c-0.286,0.049-0.447,0.131-0.483,0.25c-0.021,0.062-0.002,0.171,0.051,0.32
				c0.11,0.337,0.121,0.645,0.036,0.918c-0.109,0.349-0.329,0.595-0.656,0.737c-0.328,0.142-0.707,0.153-1.142,0.031
				c-0.463-0.128-0.798-0.349-1.009-0.658c-0.211-0.311-0.264-0.649-0.152-1.022c0.18-0.609,0.711-1.045,1.598-1.303
				c1.105-0.32,2.361-0.279,3.754,0.128c1.049,0.306,1.935,0.73,2.646,1.263c0.46,0.343,0.771,0.785,0.939,1.334
				c0.166,0.55,0.132,1.154-0.098,1.809c-0.516,1.468-1.032,2.938-1.554,4.406c-0.117,0.334-0.135,0.597-0.053,0.788
				c0.084,0.19,0.246,0.325,0.481,0.401C179.282,190.376,179.576,190.36,179.965,190.272z M176.917,185.374
				c-1.55-0.267-2.646-0.278-3.288-0.05c-0.644,0.228-1.062,0.651-1.255,1.271c-0.138,0.438-0.121,0.806,0.048,1.11
				c0.17,0.303,0.468,0.517,0.907,0.644c0.676,0.196,1.309,0.141,1.904-0.168c0.595-0.307,1.023-0.843,1.281-1.606
				C176.648,186.175,176.784,185.775,176.917,185.374z"/>
		</g>
	</g>
</g>
</svg>
