<?xml version="1.0" encoding="utf-8"?>
<!-- Generator: Adobe Illustrator 16.0.4, SVG Export Plug-In . SVG Version: 6.00 Build 0)  -->
<!DOCTYPE svg PUBLIC "-//W3C//DTD SVG 1.1//EN" "http://www.w3.org/Graphics/SVG/1.1/DTD/svg11.dtd">
<svg version="1.1" id="Livello_1" xmlns="http://www.w3.org/2000/svg" xmlns:xlink="http://www.w3.org/1999/xlink" x="0px" y="0px"
	 width="224.157px" height="236.048px" viewBox="0 0 224.157 236.048" enable-background="new 0 0 224.157 236.048"
	 xml:space="preserve">
<g>
	<g>
		<circle fill="#FFFFFF" stroke="#0572B7" stroke-miterlimit="10" cx="112.079" cy="92.717" r="84"/>
		<circle fill="#FFFFFF" stroke="#0572B7" stroke-width="5" stroke-miterlimit="10" cx="112.08" cy="92.717" r="75.216"/>
		<path fill="none" d="M48.61,75.863h31.434v31.435H48.61V75.863z"/>
		<rect x="137.085" y="114.066" fill="none" width="24.543" height="24.956"/>
		<path fill="#0572B7" d="M98.044,27.48c-1.9,12.684-12.439,17.483-25.268,17.134v13.188H94.47v47.195h17.504V27.48H98.044z"/>
		<rect x="114.294" y="75.239" fill="none" width="58.588" height="38.759"/>
		<text transform="matrix(1 0 0 1 114.293 105.1689)" fill="#0572B7" font-family="'Raleway-Bold'" font-size="41">st </text>
		<rect x="70.079" y="107.717" fill="none" width="100.402" height="38.759"/>
		<text transform="matrix(1 0 0 1 70.0791 134.7266)" fill="#0572B7" font-family="'Raleway-Bold'" font-size="37">TIME </text>
	</g>
	<g>
		<g>
			<g>
				<path fill="#FFFFFF" stroke="#0572B7" stroke-width="5" stroke-miterlimit="10" d="M202.478,208.436
					c-1.189-9.247-2.857-18.545-5.008-27.853c7.422-6.014,15.252-11.731,23.476-17.112c-69.825-28.682-148.211-28.5-217.928,0.544
					c0.072,0.174,0.146,0.349,0.218,0.522c8.497,5.508,16.579,11.376,24.225,17.56c-1.982,8.804-3.534,17.595-4.659,26.342
					C80.355,184.798,144.922,184.795,202.478,208.436L202.478,208.436L202.478,208.436z"/>
			</g>
		</g>
		<g>
			<g>
				<path fill="#0572B7" d="M42.187,162.071c3.445-1.154,6.899-2.224,10.362-3.207c1.76-0.499,3.283-0.512,4.555-0.051
					c1.268,0.461,2.039,1.237,2.325,2.316c0.217,0.819,0.105,1.614-0.333,2.383c-0.436,0.771-1.117,1.428-2.046,1.979
					c-0.928,0.553-1.881,0.968-2.864,1.252c-1.055,0.302-2.108,0.615-3.159,0.934c0.481,1.498,0.966,2.996,1.453,4.494
					c0.082,0.252,0.23,0.415,0.446,0.5c0.214,0.085,0.458,0.087,0.728,0.006c0.635-0.19,1.27-0.377,1.905-0.561
					c0.09,0.29,0.179,0.579,0.27,0.871c-2.933,0.85-5.856,1.764-8.772,2.744c-0.104-0.286-0.208-0.572-0.311-0.858
					c0.491-0.165,0.981-0.329,1.473-0.489c0.326-0.108,0.549-0.254,0.671-0.446c0.119-0.186,0.138-0.411,0.053-0.656
					c-1.206-3.481-2.396-6.966-3.57-10.453c-0.079-0.235-0.235-0.392-0.46-0.469c-0.229-0.076-0.475-0.074-0.736,0.013
					c-0.562,0.186-1.125,0.371-1.688,0.559C42.387,162.645,42.285,162.357,42.187,162.071z M50.754,166.827
					c0.706-0.214,1.411-0.424,2.119-0.631c0.741-0.219,1.358-0.532,1.859-0.955c0.503-0.42,0.822-0.846,0.961-1.279
					c0.14-0.435,0.092-1.062-0.143-1.885c-0.322-1.129-0.934-1.82-1.838-2.066c-0.661-0.174-1.675-0.07-3.035,0.332
					c-0.787,0.232-1.271,0.433-1.45,0.6c-0.178,0.168-0.227,0.375-0.148,0.623C49.635,163.321,50.191,165.073,50.754,166.827z"/>
				<path fill="#0572B7" d="M75.979,167.046c0.204,0.199,0.405,0.4,0.608,0.604c-0.41,0.352-0.781,0.614-1.127,0.786
					c-0.341,0.17-0.731,0.301-1.166,0.384c-0.646,0.129-1.191,0.113-1.638-0.038c-0.449-0.151-0.908-0.513-1.382-1.089
					c-0.629,0.804-1.216,1.39-1.769,1.754c-0.554,0.363-1.212,0.634-1.973,0.809c-1.056,0.242-1.927,0.234-2.624-0.035
					c-0.7-0.267-1.133-0.714-1.296-1.347c-0.249-0.954,0.104-1.854,1.077-2.695c0.783-0.668,2.636-1.594,5.592-2.692
					c-0.093-0.431-0.187-0.858-0.279-1.29c-0.11-0.508-0.407-0.88-0.892-1.116c-0.486-0.234-1.078-0.275-1.774-0.123
					c-0.533,0.117-0.981,0.314-1.343,0.591c-0.247,0.184-0.353,0.334-0.325,0.455c0.015,0.063,0.087,0.147,0.22,0.25
					c0.286,0.237,0.462,0.496,0.526,0.773c0.084,0.358,0.008,0.674-0.225,0.959c-0.236,0.285-0.59,0.482-1.066,0.593
					c-0.509,0.118-0.946,0.098-1.314-0.066c-0.369-0.161-0.6-0.43-0.694-0.803c-0.155-0.61,0.116-1.254,0.821-1.915
					c0.879-0.825,2.095-1.413,3.627-1.747c1.155-0.25,2.216-0.318,3.172-0.207c0.611,0.069,1.144,0.301,1.593,0.694
					c0.45,0.392,0.743,0.928,0.878,1.605c0.306,1.518,0.612,3.035,0.922,4.551c0.07,0.345,0.196,0.581,0.379,0.704
					c0.182,0.125,0.405,0.162,0.669,0.11C75.394,167.462,75.661,167.312,75.979,167.046z M70.464,164.316
					c-1.606,0.528-2.648,1.062-3.136,1.575c-0.485,0.513-0.65,1.084-0.498,1.714c0.108,0.442,0.323,0.753,0.648,0.931
					c0.327,0.176,0.727,0.213,1.211,0.104c0.745-0.165,1.312-0.525,1.706-1.081c0.396-0.556,0.508-1.227,0.338-2.01
					C70.644,165.14,70.554,164.727,70.464,164.316z"/>
				<path fill="#0572B7" d="M85.274,165.762c0.044,0.301,0.089,0.601,0.133,0.898c-2.465,0.345-4.927,0.735-7.385,1.168
					c-0.056-0.297-0.11-0.595-0.167-0.894c0.307-0.055,0.612-0.107,0.918-0.16c0.376-0.062,0.644-0.176,0.795-0.328
					c0.15-0.154,0.21-0.337,0.173-0.549c-0.311-1.779-0.618-3.558-0.925-5.335c-0.074-0.429-0.245-0.725-0.521-0.884
					c-0.272-0.158-0.626-0.203-1.055-0.127c-0.209,0.035-0.416,0.072-0.623,0.107c-0.052-0.281-0.102-0.562-0.154-0.845
					c1.562-0.344,3.125-0.671,4.69-0.98c0.154,0.981,0.311,1.962,0.466,2.943c0.113-1.024,0.476-1.854,1.079-2.483
					c0.604-0.63,1.339-1.004,2.201-1.12c0.734-0.101,1.337-0.017,1.804,0.25c0.468,0.267,0.73,0.649,0.796,1.154
					c0.056,0.434-0.046,0.802-0.305,1.106c-0.257,0.304-0.595,0.486-1.014,0.54c-0.372,0.046-0.71-0.023-1.013-0.219
					c-0.302-0.195-0.477-0.472-0.527-0.835c-0.029-0.201,0.005-0.416,0.1-0.654c0.052-0.131,0.074-0.224,0.067-0.276
					c-0.013-0.09-0.048-0.151-0.105-0.188c-0.055-0.035-0.14-0.047-0.249-0.029c-0.28,0.038-0.571,0.22-0.868,0.536
					c-0.455,0.492-0.79,1.208-1.001,2.146c-0.213,0.939-0.242,1.855-0.102,2.757c0.103,0.649,0.205,1.3,0.308,1.949
					c0.036,0.226,0.136,0.384,0.298,0.483c0.161,0.097,0.372,0.127,0.631,0.09C84.237,165.907,84.757,165.835,85.274,165.762z"/>
				<path fill="#0572B7" d="M100.249,161.81c0.309,0.102,0.615,0.201,0.923,0.303c-0.401,1.056-1.064,1.894-1.982,2.527
					c-0.921,0.633-2.034,0.999-3.354,1.12c-1.786,0.161-3.225-0.112-4.329-0.841c-1.104-0.726-1.753-1.79-1.924-3.208
					c-0.185-1.524,0.271-2.854,1.4-3.972c1.127-1.115,2.734-1.781,4.794-1.956c1.479-0.127,2.633,0.039,3.448,0.473
					c0.816,0.438,1.245,1.003,1.289,1.7c0.033,0.509-0.111,0.92-0.43,1.237c-0.318,0.315-0.752,0.497-1.302,0.536
					c-0.482,0.034-0.873-0.051-1.176-0.26c-0.302-0.207-0.468-0.495-0.499-0.866c-0.025-0.317,0.098-0.702,0.379-1.147
					c0.118-0.185,0.177-0.315,0.172-0.385c-0.012-0.13-0.143-0.236-0.397-0.322c-0.359-0.132-0.82-0.178-1.381-0.132
					c-1.044,0.088-1.772,0.435-2.184,1.021c-0.552,0.778-0.747,1.9-0.597,3.356c0.152,1.456,0.561,2.452,1.217,2.986
					c0.658,0.536,1.453,0.764,2.396,0.682c0.742-0.062,1.426-0.327,2.053-0.805C99.391,163.383,99.885,162.702,100.249,161.81z"/>
				<path fill="#0572B7" d="M101.969,150.54c1.786-0.172,3.573-0.32,5.362-0.449c0.075,2.369,0.152,4.738,0.229,7.106
					c0.764-0.832,1.486-1.403,2.152-1.714c0.664-0.31,1.401-0.47,2.202-0.48c1.108-0.011,1.96,0.264,2.544,0.815
					c0.662,0.637,0.987,1.544,0.982,2.708c-0.008,1.446-0.016,2.89-0.022,4.336c-0.001,0.297,0.077,0.521,0.233,0.66
					c0.16,0.14,0.389,0.215,0.689,0.215c0.246,0.002,0.492,0.007,0.737,0.008c-0.003,0.304-0.008,0.606-0.013,0.909
					c-2.133-0.029-4.267-0.022-6.399,0.017c-0.005-0.303-0.013-0.604-0.018-0.908c0.232-0.004,0.463-0.009,0.695-0.012
					c0.388-0.003,0.648-0.068,0.784-0.195c0.188-0.164,0.282-0.396,0.279-0.686c-0.015-1.42-0.028-2.84-0.042-4.258
					c-0.005-0.612-0.209-1.099-0.609-1.453c-0.4-0.359-0.902-0.53-1.499-0.519c-0.74,0.014-1.373,0.286-1.889,0.815
					c-0.52,0.531-0.76,1.237-0.731,2.123c0.037,1.13,0.073,2.258,0.11,3.387c0.01,0.293,0.098,0.508,0.266,0.646
					c0.17,0.137,0.402,0.203,0.709,0.194c0.26-0.007,0.518-0.015,0.775-0.02c0.008,0.303,0.016,0.605,0.021,0.907
					c-2.2,0.052-4.402,0.14-6.602,0.26c-0.019-0.303-0.035-0.604-0.053-0.906c0.308-0.016,0.615-0.034,0.923-0.05
					c0.326-0.015,0.567-0.103,0.729-0.26c0.159-0.157,0.233-0.375,0.221-0.655c-0.171-3.582-0.34-7.161-0.505-10.741
					c-0.015-0.312-0.149-0.552-0.404-0.719c-0.254-0.164-0.587-0.241-0.998-0.22c-0.27,0.013-0.54,0.027-0.81,0.044
					C102.004,151.146,101.986,150.841,101.969,150.54z"/>
				<path fill="#0572B7" d="M130.326,160.72c-2.534-0.188-5.072-0.332-7.607-0.433c-0.028,1.283,0.237,2.237,0.794,2.872
					c0.554,0.633,1.282,0.973,2.19,1.021c0.653,0.037,1.279-0.083,1.884-0.359s1.245-0.802,1.927-1.573
					c0.27,0.164,0.538,0.332,0.806,0.499c-0.729,0.923-1.518,1.569-2.375,1.933c-0.859,0.365-1.88,0.517-3.072,0.455
					c-1.738-0.086-3.121-0.592-4.173-1.535c-1.053-0.944-1.572-2.121-1.54-3.547c0.031-1.425,0.615-2.604,1.771-3.529
					c1.153-0.925,2.565-1.352,4.216-1.27c1.142,0.056,2.109,0.303,2.903,0.738s1.39,1.038,1.785,1.808
					C130.231,158.567,130.394,159.543,130.326,160.72z M122.753,159.399c1.212,0.047,2.426,0.105,3.638,0.172
					c0.341,0.02,0.589-0.034,0.744-0.172c0.157-0.136,0.245-0.389,0.271-0.767c0.047-0.753-0.125-1.353-0.518-1.786
					c-0.39-0.437-0.91-0.673-1.557-0.705c-0.762-0.039-1.36,0.217-1.791,0.758C123.114,157.442,122.853,158.276,122.753,159.399z"/>
				<path fill="#0572B7" d="M142.267,157.279c1.068-0.803,2.082-1.135,3.021-1.003c0.476,0.067,0.839,0.236,1.092,0.503
					c0.253,0.268,0.35,0.577,0.298,0.933c-0.049,0.314-0.196,0.552-0.442,0.709c-0.246,0.159-0.532,0.216-0.862,0.166
					c-0.464-0.064-0.769-0.313-0.915-0.75c-0.093-0.264-0.223-0.406-0.399-0.429c-0.221-0.03-0.546,0.118-0.977,0.454
					c0.757,0.816,1.074,1.617,0.962,2.396c-0.086,0.605-0.363,1.127-0.826,1.562c-0.464,0.437-1.112,0.745-1.946,0.936
					c-0.834,0.188-1.842,0.21-3.028,0.079c-0.409-0.054-0.82-0.105-1.229-0.155c-0.913-0.098-1.539-0.08-1.876,0.043
					c-0.346,0.119-0.529,0.308-0.554,0.55c-0.021,0.212,0.065,0.379,0.262,0.503c0.251,0.167,0.671,0.281,1.258,0.341
					c0.351,0.026,0.702,0.054,1.054,0.082c1.139,0.072,1.974,0.145,2.51,0.209c1.773,0.214,2.976,0.597,3.605,1.117
					c0.626,0.523,0.883,1.164,0.768,1.918c-0.137,0.902-0.64,1.572-1.501,2.013c-1.049,0.541-2.746,0.655-5.104,0.387
					c-2.013-0.229-3.406-0.564-4.183-1.049c-0.778-0.485-1.146-0.996-1.095-1.551c0.029-0.344,0.234-0.63,0.612-0.859
					c0.377-0.227,1.149-0.403,2.32-0.519c-0.732-0.205-1.276-0.477-1.623-0.822c-0.35-0.347-0.503-0.765-0.456-1.258
					c0.041-0.45,0.218-0.813,0.534-1.099c0.317-0.286,0.858-0.513,1.631-0.681c-0.676-0.393-1.174-0.826-1.491-1.307
					c-0.318-0.479-0.451-1.004-0.4-1.574c0.057-0.616,0.305-1.152,0.752-1.612c0.445-0.461,1.101-0.799,1.968-1.01
					c0.865-0.213,1.902-0.252,3.104-0.117c0.569,0.063,1.116,0.172,1.643,0.321C141.278,156.854,141.783,157.046,142.267,157.279z
					 M142.132,168.091c0.055-0.381-0.154-0.693-0.625-0.932c-0.32-0.166-1.065-0.328-2.231-0.467
					c-2.109-0.253-3.48-0.263-4.116-0.08c-0.634,0.186-0.969,0.465-1.006,0.833c-0.036,0.35,0.171,0.667,0.615,0.949
					c0.443,0.281,1.319,0.491,2.627,0.637c1.702,0.191,2.947,0.175,3.748-0.066C141.745,168.776,142.076,168.484,142.132,168.091z
					 M138.936,157.231c-0.542-0.061-1.03,0.096-1.465,0.473c-0.432,0.376-0.688,0.957-0.772,1.74
					c-0.081,0.756,0.046,1.359,0.379,1.798c0.334,0.442,0.771,0.694,1.315,0.753c0.538,0.062,1.023-0.093,1.458-0.459
					c0.438-0.368,0.705-0.926,0.8-1.674c0.096-0.758-0.023-1.366-0.367-1.835C139.944,157.562,139.493,157.296,138.936,157.231z"/>
				<path fill="#0572B7" d="M157.042,159.687c1.129-0.727,2.173-0.988,3.107-0.791c0.475,0.101,0.829,0.291,1.062,0.577
					c0.237,0.286,0.312,0.603,0.234,0.952c-0.071,0.312-0.236,0.536-0.494,0.677c-0.26,0.142-0.551,0.175-0.88,0.106
					c-0.461-0.098-0.749-0.371-0.866-0.812c-0.074-0.269-0.195-0.421-0.371-0.456c-0.221-0.044-0.559,0.083-1.016,0.386
					c0.703,0.865,0.967,1.688,0.799,2.457c-0.129,0.596-0.445,1.102-0.94,1.502c-0.496,0.402-1.171,0.669-2.022,0.798
					c-0.852,0.13-1.866,0.087-3.048-0.13c-0.407-0.081-0.815-0.159-1.223-0.238c-0.91-0.158-1.54-0.189-1.888-0.088
					c-0.356,0.098-0.554,0.27-0.594,0.512c-0.035,0.213,0.04,0.385,0.227,0.52c0.24,0.186,0.652,0.326,1.238,0.427
					c0.35,0.052,0.701,0.102,1.052,0.155c1.138,0.147,1.974,0.281,2.506,0.381c1.766,0.336,2.948,0.801,3.544,1.365
					c0.594,0.564,0.803,1.219,0.634,1.966c-0.203,0.894-0.758,1.521-1.653,1.904c-1.095,0.469-2.809,0.461-5.156,0.032
					c-2.006-0.364-3.378-0.796-4.122-1.334c-0.746-0.536-1.078-1.076-0.987-1.623c0.057-0.34,0.279-0.611,0.676-0.815
					c0.394-0.204,1.182-0.323,2.366-0.357c-0.723-0.251-1.246-0.563-1.571-0.933c-0.325-0.366-0.448-0.797-0.367-1.285
					c0.072-0.443,0.275-0.799,0.613-1.06c0.339-0.263,0.898-0.452,1.686-0.567c-0.65-0.438-1.118-0.905-1.404-1.406
					c-0.285-0.499-0.382-1.032-0.291-1.598c0.1-0.611,0.386-1.129,0.867-1.558c0.479-0.427,1.161-0.722,2.046-0.87
					c0.885-0.152,1.929-0.122,3.126,0.096c0.567,0.104,1.111,0.247,1.628,0.433C156.081,159.195,156.571,159.422,157.042,159.687z
					 M156.14,170.466c0.081-0.375-0.106-0.703-0.562-0.973c-0.311-0.187-1.05-0.403-2.208-0.62c-2.101-0.4-3.479-0.501-4.127-0.364
					c-0.65,0.144-1.006,0.396-1.07,0.764c-0.06,0.347,0.123,0.676,0.55,0.988c0.426,0.312,1.289,0.579,2.592,0.815
					c1.693,0.307,2.946,0.383,3.769,0.192C155.7,171.122,156.055,170.854,156.14,170.466z M153.698,159.409
					c-0.539-0.098-1.041,0.025-1.505,0.371c-0.459,0.344-0.76,0.908-0.897,1.683c-0.134,0.751-0.05,1.356,0.254,1.821
					s0.726,0.744,1.267,0.842c0.536,0.097,1.034-0.02,1.498-0.357c0.466-0.335,0.773-0.875,0.922-1.616
					c0.148-0.747,0.072-1.366-0.239-1.855C154.688,159.807,154.254,159.51,153.698,159.409z"/>
				<path fill="#0572B7" d="M162.879,160.923c1.644,0.308,3.29,0.635,4.936,0.982c-0.653,2.508-1.311,5.016-1.977,7.523
					c-0.053,0.202-0.018,0.378,0.105,0.526c0.126,0.151,0.347,0.262,0.661,0.345c0.236,0.061,0.474,0.121,0.71,0.182
					c-0.08,0.293-0.161,0.586-0.241,0.879c-2.101-0.544-4.203-1.051-6.31-1.529c0.072-0.295,0.142-0.59,0.213-0.885
					c0.234,0.054,0.466,0.104,0.7,0.159c0.375,0.087,0.659,0.075,0.849-0.034c0.19-0.109,0.333-0.345,0.422-0.705
					c0.427-1.715,0.851-3.432,1.271-5.147c0.079-0.321,0.026-0.602-0.162-0.831c-0.186-0.23-0.484-0.394-0.889-0.486
					c-0.163-0.039-0.328-0.073-0.492-0.111C162.743,161.502,162.811,161.212,162.879,160.923z M167.173,156.504
					c0.538,0.126,0.961,0.394,1.271,0.787c0.31,0.395,0.405,0.809,0.295,1.237c-0.11,0.43-0.396,0.744-0.853,0.951
					c-0.458,0.207-0.949,0.244-1.479,0.118c-0.538-0.128-0.96-0.392-1.267-0.782c-0.308-0.393-0.413-0.801-0.312-1.227
					c0.104-0.43,0.381-0.754,0.838-0.965C166.124,156.414,166.626,156.371,167.173,156.504z"/>
				<path fill="#0572B7" d="M177.819,164.313c1.227,0.365,2.285,0.926,3.166,1.668c0.885,0.744,1.449,1.541,1.71,2.377
					c0.256,0.836,0.214,1.729-0.123,2.681c-0.537,1.517-1.586,2.466-3.116,2.876c-1.532,0.413-3.072,0.378-4.645-0.092
					c-1.115-0.335-2.069-0.84-2.871-1.525c-0.801-0.686-1.352-1.453-1.648-2.309c-0.3-0.854-0.322-1.736-0.066-2.639
					c0.386-1.365,1.286-2.352,2.73-2.943C174.398,163.813,176.028,163.778,177.819,164.313z M177.611,165.222
					c-0.81-0.241-1.543-0.146-2.193,0.289c-0.651,0.433-1.188,1.371-1.624,2.808c-0.452,1.493-0.537,2.593-0.253,3.286
					c0.283,0.697,0.808,1.158,1.585,1.392c0.791,0.237,1.522,0.144,2.201-0.282c0.676-0.43,1.259-1.346,1.729-2.757
					c0.484-1.449,0.573-2.541,0.268-3.269C179.015,165.961,178.441,165.47,177.611,165.222z"/>
				<path fill="#0572B7" d="M86.933,170.137c0.188-0.509,0.377-1.017,0.568-1.523c0.275-0.036,0.553-0.075,0.828-0.107
					c0.351,1.904,0.698,3.804,1.046,5.708c-0.333,0.042-0.665,0.086-0.998,0.128c-0.54-1.611-1.308-2.76-2.304-3.436
					c-0.995-0.677-2.068-0.929-3.204-0.753c-1.246,0.193-2.187,0.881-2.811,2.041c-0.62,1.162-0.715,2.853-0.292,5.059
					c0.447,2.337,1.208,3.993,2.26,4.985c0.841,0.776,1.902,1.058,3.206,0.854c1.304-0.197,2.328-0.803,3.093-1.822
					c0.55-0.737,0.869-1.76,0.953-3.064c0.319-0.041,0.639-0.082,0.957-0.121c-0.006,1.662-0.509,3.038-1.482,4.135
					c-0.973,1.098-2.254,1.764-3.866,2.016c-2.082,0.329-3.946-0.052-5.649-1.159c-1.699-1.105-2.806-2.708-3.262-4.846
					c-0.507-2.367-0.056-4.438,1.414-6.18c1.252-1.479,2.906-2.396,4.924-2.711c0.798-0.122,1.555-0.13,2.268-0.012
					C85.294,169.445,86.08,169.713,86.933,170.137z"/>
				<path fill="#0572B7" d="M102.98,177.461c-2.322,0.135-4.643,0.313-6.963,0.532c0.152,1.274,0.529,2.19,1.119,2.748
					c0.592,0.557,1.298,0.805,2.127,0.735c0.594-0.048,1.144-0.244,1.656-0.595c0.51-0.35,1.018-0.949,1.529-1.805
					c0.265,0.131,0.531,0.262,0.796,0.393c-0.535,1.011-1.16,1.748-1.887,2.219c-0.726,0.471-1.63,0.746-2.717,0.838
					c-1.583,0.133-2.905-0.195-3.995-1c-1.086-0.801-1.726-1.909-1.897-3.324c-0.172-1.417,0.196-2.658,1.121-3.717
					c0.926-1.059,2.157-1.66,3.67-1.787c1.048-0.088,1.967,0.036,2.745,0.366c0.78,0.329,1.4,0.853,1.863,1.563
					C102.609,175.344,102.886,176.284,102.98,177.461z M95.928,177.108c1.108-0.105,2.22-0.199,3.329-0.285
					c0.314-0.025,0.529-0.113,0.652-0.266c0.125-0.152,0.172-0.416,0.143-0.794c-0.06-0.751-0.293-1.323-0.709-1.705
					c-0.414-0.386-0.92-0.552-1.511-0.503c-0.703,0.061-1.213,0.387-1.528,0.977S95.866,175.986,95.928,177.108z"/>
				<path fill="#0572B7" d="M118.36,180.77c-0.007,0.302-0.014,0.605-0.021,0.908c-1.945-0.041-3.89-0.052-5.834-0.031
					c-0.003-0.302-0.006-0.604-0.01-0.908c0.204-0.002,0.409-0.002,0.615-0.005c0.327,0,0.569-0.081,0.728-0.237
					c0.159-0.157,0.238-0.388,0.239-0.685c-0.002-1.32-0.006-2.643-0.007-3.965c0-0.678-0.173-1.195-0.513-1.556
					c-0.341-0.357-0.789-0.54-1.345-0.532c-0.753,0.01-1.363,0.274-1.824,0.795c-0.462,0.52-0.677,1.273-0.652,2.256
					c0.027,1.018,0.054,2.037,0.079,3.057c0.009,0.3,0.095,0.525,0.264,0.677c0.167,0.153,0.38,0.229,0.635,0.222
					c0.245-0.005,0.494-0.008,0.739-0.013c0.004,0.303,0.011,0.604,0.016,0.908c-2.02,0.03-4.041,0.094-6.06,0.19
					c-0.016-0.304-0.031-0.604-0.047-0.908c0.265-0.012,0.526-0.023,0.791-0.035c0.306-0.012,0.534-0.102,0.684-0.264
					s0.217-0.389,0.205-0.691c-0.075-1.812-0.149-3.624-0.224-5.436c-0.012-0.31-0.141-0.557-0.382-0.732
					c-0.244-0.176-0.557-0.258-0.94-0.238c-0.145,0.006-0.289,0.013-0.434,0.02c-0.014-0.282-0.028-0.565-0.042-0.85
					c1.416-0.135,2.835-0.253,4.254-0.358c0.167,0.553,0.304,1.221,0.399,1.992c0.572-0.735,1.193-1.288,1.86-1.656
					s1.375-0.554,2.126-0.557c1.015-0.001,1.816,0.301,2.396,0.914c0.572,0.609,0.848,1.458,0.832,2.538
					c-0.02,1.413-0.038,2.824-0.058,4.237c-0.005,0.325,0.073,0.562,0.229,0.706c0.159,0.145,0.412,0.221,0.757,0.227
					C117.999,180.763,118.179,180.766,118.36,180.77z"/>
				<path fill="#0572B7" d="M123.572,168.942c0.33,0.016,0.66,0.03,0.989,0.046c-0.067,1.253-0.132,2.502-0.199,3.755
					c1.122,0.055,2.244,0.123,3.366,0.197c-0.025,0.351-0.051,0.703-0.075,1.052c-1.116-0.075-2.23-0.139-3.347-0.195
					c-0.102,1.935-0.208,3.87-0.312,5.804c-0.02,0.384,0.066,0.687,0.267,0.908c0.196,0.223,0.465,0.342,0.808,0.361
					c0.976,0.054,1.55-0.761,1.725-2.452c0.313,0.021,0.627,0.042,0.939,0.063c-0.089,0.9-0.296,1.617-0.621,2.146
					c-0.323,0.53-0.761,0.926-1.309,1.194c-0.549,0.269-1.152,0.387-1.813,0.35c-0.579-0.027-1.073-0.16-1.488-0.4
					s-0.74-0.583-0.976-1.031c-0.236-0.449-0.345-0.928-0.326-1.443c0.072-1.873,0.144-3.748,0.214-5.622
					c-0.6-0.021-1.198-0.038-1.799-0.055c0.008-0.298,0.018-0.598,0.025-0.897c1.109-0.101,1.986-0.45,2.637-1.059
					C122.925,171.055,123.359,170.152,123.572,168.942z"/>
				<path fill="#0572B7" d="M135.735,181.92c-0.036,0.3-0.072,0.604-0.11,0.902c-2.252-0.253-4.508-0.464-6.764-0.636
					c0.025-0.302,0.051-0.604,0.075-0.905c0.281,0.02,0.562,0.043,0.843,0.066c0.347,0.027,0.606-0.015,0.777-0.128
					c0.172-0.113,0.266-0.275,0.286-0.49c0.17-1.796,0.334-3.593,0.502-5.39c0.04-0.437-0.041-0.759-0.241-0.981
					c-0.203-0.219-0.501-0.345-0.901-0.376c-0.19-0.016-0.382-0.029-0.574-0.046c0.023-0.285,0.048-0.572,0.071-0.856
					c1.457,0.042,2.915,0.102,4.374,0.177c-0.104,0.988-0.209,1.977-0.313,2.964c0.354-0.967,0.876-1.685,1.565-2.148
					c0.688-0.466,1.435-0.653,2.224-0.562c0.675,0.078,1.188,0.305,1.536,0.672c0.349,0.369,0.486,0.805,0.418,1.309
					c-0.059,0.432-0.241,0.768-0.545,1c-0.304,0.234-0.65,0.328-1.034,0.282c-0.341-0.042-0.62-0.193-0.838-0.454
					c-0.218-0.262-0.308-0.572-0.263-0.934c0.025-0.202,0.109-0.405,0.255-0.611c0.076-0.115,0.119-0.199,0.125-0.25
					c0.013-0.091-0.005-0.164-0.045-0.207c-0.042-0.049-0.114-0.078-0.214-0.088c-0.261-0.031-0.561,0.075-0.902,0.312
					c-0.523,0.368-0.994,0.979-1.414,1.84c-0.418,0.856-0.675,1.742-0.772,2.646c-0.071,0.654-0.142,1.309-0.214,1.962
					c-0.025,0.227,0.021,0.407,0.14,0.539c0.12,0.133,0.296,0.212,0.53,0.237C134.786,181.815,135.261,181.867,135.735,181.92z"/>
				<path fill="#0572B7" d="M147.008,174.646c1.14,0.188,2.144,0.587,3.008,1.193c0.863,0.605,1.45,1.305,1.762,2.093
					c0.312,0.786,0.36,1.673,0.15,2.655c-0.336,1.572-1.177,2.658-2.502,3.284c-1.327,0.628-2.704,0.816-4.157,0.579
					c-1.027-0.172-1.929-0.532-2.715-1.094c-0.788-0.562-1.357-1.241-1.715-2.043c-0.354-0.805-0.468-1.667-0.333-2.597
					c0.203-1.399,0.911-2.501,2.147-3.289C143.888,174.641,145.349,174.376,147.008,174.646z M146.911,175.572
					c-0.748-0.123-1.396,0.076-1.937,0.596c-0.539,0.521-0.928,1.521-1.172,3.001c-0.253,1.541-0.214,2.629,0.107,3.276
					c0.325,0.646,0.843,1.028,1.558,1.146c0.731,0.118,1.373-0.079,1.936-0.596c0.564-0.518,0.991-1.504,1.273-2.964
					c0.291-1.497,0.266-2.585-0.084-3.258C148.246,176.102,147.684,175.697,146.911,175.572z"/>
			</g>
		</g>
	</g>
</g>
</svg>
