<?xml version="1.0" encoding="utf-8"?>
<!-- Generator: Adobe Illustrator 16.0.0, SVG Export Plug-In . SVG Version: 6.00 Build 0)  -->
<!DOCTYPE svg PUBLIC "-//W3C//DTD SVG 1.1//EN" "http://www.w3.org/Graphics/SVG/1.1/DTD/svg11.dtd">
<svg version="1.1" id="Livello_1" xmlns="http://www.w3.org/2000/svg" xmlns:xlink="http://www.w3.org/1999/xlink" x="0px" y="0px"
	 width="224.157px" height="236.048px" viewBox="0 0 224.157 236.048" enable-background="new 0 0 224.157 236.048"
	 xml:space="preserve">
<g>
	<g>
		<circle fill="#FFFFFF" stroke="#0572B7" stroke-miterlimit="10" cx="112.079" cy="92.717" r="84"/>
		<circle fill="#FFFFFF" stroke="#0572B7" stroke-width="5" stroke-miterlimit="10" cx="112.08" cy="92.717" r="75.216"/>
		<path fill="none" d="M48.61,75.863h31.434v31.435H48.61V75.863z"/>
		<rect x="137.085" y="114.066" fill="none" width="24.543" height="24.956"/>
		<path fill="#0572B7" d="M98.044,27.48c-1.9,12.684-12.439,17.483-25.268,17.134v13.188H94.47v47.195h17.504V27.48H98.044z"/>
		<rect x="114.294" y="75.239" fill="none" width="58.588" height="38.759"/>
		<text transform="matrix(1 0 0 1 114.293 105.1689)" fill="#0572B7" font-family="'Raleway-Bold'" font-size="41">st </text>
		<rect x="70.079" y="107.717" fill="none" width="100.402" height="38.759"/>
		<text transform="matrix(1 0 0 1 70.0791 134.7266)" fill="#0572B7" font-family="'Raleway-Bold'" font-size="37">TIME </text>
	</g>
	<g>
		<g>
			<g>
				<path fill="#FFFFFF" stroke="#0572B7" stroke-width="5" stroke-miterlimit="10" d="M202.478,208.436
					c-1.189-9.247-2.857-18.545-5.008-27.853c7.422-6.014,15.252-11.731,23.476-17.112c-69.825-28.682-148.211-28.5-217.928,0.544
					c0.072,0.174,0.146,0.349,0.218,0.522c8.497,5.508,16.579,11.376,24.225,17.561c-1.982,8.803-3.534,17.594-4.659,26.342
					C80.355,184.797,144.922,184.795,202.478,208.436L202.478,208.436L202.478,208.436z"/>
			</g>
		</g>
		<g>
			<g>
				<path fill="#0572B7" d="M40.731,162.367c3.515-1.179,7.041-2.269,10.574-3.272c1.795-0.51,3.346-0.529,4.639-0.074
					c1.29,0.455,2.072,1.232,2.357,2.308c0.219,0.819,0.1,1.614-0.351,2.389c-0.448,0.773-1.146,1.438-2.097,1.992
					c-0.949,0.556-1.924,0.978-2.928,1.268c-1.075,0.309-2.151,0.628-3.226,0.955c0.482,1.497,0.966,2.996,1.452,4.493
					c0.081,0.25,0.231,0.416,0.451,0.498c0.22,0.086,0.469,0.084,0.742,0.003c0.649-0.194,1.298-0.386,1.947-0.574
					c0.09,0.29,0.18,0.581,0.27,0.871c-2.997,0.865-5.983,1.804-8.963,2.804c-0.103-0.285-0.208-0.57-0.312-0.857
					c0.502-0.169,1.002-0.335,1.504-0.5c0.333-0.111,0.563-0.257,0.688-0.451c0.124-0.191,0.145-0.411,0.06-0.659
					c-1.206-3.481-2.396-6.966-3.569-10.453c-0.08-0.233-0.235-0.389-0.467-0.466c-0.232-0.079-0.481-0.069-0.749,0.017
					c-0.574,0.188-1.148,0.376-1.723,0.569C40.933,162.938,40.832,162.655,40.731,162.367z M49.429,167.083
					c0.721-0.219,1.442-0.435,2.163-0.646c0.756-0.221,1.391-0.542,1.902-0.965c0.515-0.423,0.841-0.854,0.986-1.288
					c0.142-0.436,0.101-1.064-0.136-1.886c-0.322-1.129-0.941-1.817-1.861-2.062c-0.673-0.172-1.705-0.06-3.093,0.35
					c-0.805,0.236-1.295,0.442-1.48,0.61c-0.184,0.166-0.234,0.374-0.155,0.625C48.31,163.575,48.866,165.328,49.429,167.083z"/>
				<path fill="#0572B7" d="M75.156,167.177c0.208,0.2,0.413,0.4,0.619,0.602c-0.418,0.355-0.801,0.619-1.153,0.792
					c-0.35,0.174-0.748,0.304-1.192,0.389c-0.66,0.127-1.218,0.118-1.672-0.031c-0.458-0.148-0.926-0.51-1.404-1.084
					c-0.646,0.808-1.249,1.396-1.814,1.764c-0.567,0.365-1.239,0.639-2.019,0.818c-1.075,0.247-1.968,0.243-2.677-0.023
					c-0.713-0.262-1.148-0.71-1.315-1.341c-0.25-0.956,0.118-1.856,1.115-2.705c0.8-0.672,2.694-1.607,5.717-2.721
					c-0.094-0.43-0.188-0.859-0.28-1.289c-0.11-0.509-0.413-0.881-0.904-1.113c-0.494-0.232-1.098-0.271-1.808-0.115
					c-0.545,0.117-1.002,0.32-1.374,0.598c-0.251,0.186-0.362,0.334-0.333,0.455c0.016,0.066,0.088,0.148,0.223,0.251
					c0.291,0.234,0.468,0.493,0.533,0.771c0.084,0.356,0.004,0.674-0.234,0.961c-0.24,0.284-0.603,0.485-1.091,0.599
					c-0.52,0.118-0.966,0.105-1.34-0.061c-0.376-0.161-0.609-0.429-0.704-0.801c-0.154-0.612,0.123-1.256,0.848-1.922
					c0.9-0.828,2.143-1.422,3.707-1.764c1.18-0.257,2.261-0.329,3.235-0.221c0.623,0.066,1.167,0.297,1.621,0.688
					c0.458,0.392,0.753,0.925,0.889,1.604c0.306,1.518,0.613,3.034,0.922,4.551c0.07,0.345,0.197,0.58,0.383,0.703
					c0.184,0.124,0.413,0.159,0.684,0.108C74.558,167.597,74.831,167.442,75.156,167.177z M69.541,164.468
					c-1.64,0.535-2.708,1.077-3.206,1.592c-0.497,0.516-0.67,1.089-0.518,1.717c0.106,0.445,0.326,0.751,0.657,0.928
					c0.332,0.178,0.74,0.209,1.234,0.1c0.763-0.17,1.342-0.531,1.747-1.091c0.407-0.562,0.524-1.229,0.354-2.014
					C69.721,165.29,69.63,164.876,69.541,164.468z"/>
				<path fill="#0572B7" d="M84.653,165.86c0.044,0.3,0.089,0.599,0.132,0.899c-2.518,0.353-5.034,0.749-7.546,1.192
					c-0.056-0.298-0.109-0.596-0.165-0.895c0.312-0.055,0.625-0.106,0.938-0.162c0.384-0.063,0.656-0.176,0.812-0.332
					c0.156-0.156,0.216-0.338,0.179-0.549c-0.31-1.777-0.617-3.557-0.923-5.335c-0.075-0.428-0.25-0.726-0.528-0.882
					c-0.277-0.158-0.638-0.201-1.077-0.124c-0.211,0.036-0.423,0.074-0.635,0.11c-0.052-0.282-0.104-0.563-0.153-0.846
					c1.593-0.35,3.19-0.682,4.788-0.997c0.154,0.982,0.31,1.961,0.466,2.943c0.12-1.029,0.49-1.854,1.108-2.487
					c0.618-0.632,1.37-1.006,2.249-1.128c0.751-0.103,1.364-0.018,1.84,0.245c0.475,0.266,0.746,0.648,0.81,1.154
					c0.057,0.432-0.051,0.801-0.314,1.107s-0.606,0.486-1.035,0.543c-0.383,0.051-0.726-0.021-1.033-0.217
					c-0.306-0.191-0.486-0.474-0.537-0.832c-0.029-0.199,0.007-0.419,0.105-0.656c0.053-0.134,0.075-0.224,0.068-0.275
					c-0.012-0.09-0.049-0.152-0.106-0.188s-0.141-0.043-0.255-0.028c-0.287,0.04-0.583,0.22-0.887,0.538
					c-0.465,0.495-0.81,1.212-1.028,2.15c-0.221,0.938-0.254,1.857-0.113,2.759c0.103,0.649,0.206,1.299,0.309,1.949
					c0.036,0.225,0.137,0.387,0.303,0.483c0.164,0.097,0.378,0.125,0.643,0.087C83.595,166.011,84.123,165.934,84.653,165.86z"/>
				<path fill="#0572B7" d="M99.955,161.876c0.314,0.1,0.629,0.201,0.941,0.301c-0.413,1.057-1.089,1.897-2.028,2.53
					c-0.942,0.634-2.081,1.005-3.429,1.126c-1.825,0.165-3.293-0.105-4.419-0.832c-1.128-0.723-1.785-1.785-1.957-3.203
					c-0.185-1.524,0.286-2.857,1.44-3.977c1.154-1.121,2.792-1.785,4.896-1.965c1.51-0.129,2.688,0.031,3.519,0.466
					c0.834,0.435,1.269,1.005,1.314,1.698c0.032,0.508-0.115,0.919-0.44,1.238c-0.325,0.318-0.769,0.498-1.33,0.537
					c-0.491,0.035-0.893-0.047-1.2-0.256c-0.308-0.207-0.478-0.496-0.508-0.866c-0.026-0.317,0.102-0.702,0.39-1.147
					c0.119-0.185,0.181-0.314,0.175-0.387c-0.012-0.131-0.145-0.235-0.403-0.32c-0.367-0.136-0.838-0.178-1.411-0.129
					c-1.064,0.09-1.812,0.436-2.23,1.025c-0.564,0.782-0.768,1.9-0.616,3.357c0.15,1.457,0.567,2.451,1.235,2.985
					c0.671,0.533,1.484,0.759,2.445,0.677c0.761-0.064,1.456-0.334,2.098-0.809C99.077,163.451,99.582,162.768,99.955,161.876z"/>
				<path fill="#0572B7" d="M101.726,150.603c1.821-0.174,3.646-0.323,5.472-0.453c0.074,2.367,0.152,4.738,0.228,7.105
					c0.781-0.833,1.517-1.405,2.199-1.715c0.678-0.311,1.43-0.47,2.247-0.481c1.13-0.011,1.999,0.263,2.597,0.815
					c0.676,0.641,1.008,1.544,1.002,2.709c-0.008,1.445-0.014,2.89-0.021,4.336c-0.001,0.301,0.08,0.52,0.239,0.66
					c0.161,0.141,0.397,0.213,0.704,0.216c0.251,0.001,0.502,0.005,0.752,0.008c-0.003,0.304-0.008,0.604-0.012,0.908
					c-2.18-0.028-4.359-0.023-6.539,0.017c-0.007-0.303-0.013-0.605-0.018-0.908c0.238-0.004,0.473-0.007,0.711-0.011
					c0.395-0.007,0.662-0.069,0.802-0.197c0.191-0.163,0.287-0.393,0.284-0.686c-0.014-1.419-0.028-2.839-0.042-4.258
					c-0.005-0.614-0.211-1.098-0.622-1.453c-0.408-0.357-0.92-0.53-1.529-0.518c-0.756,0.014-1.402,0.286-1.929,0.817
					c-0.531,0.529-0.778,1.236-0.748,2.122c0.036,1.129,0.073,2.259,0.11,3.388c0.009,0.293,0.102,0.506,0.271,0.646
					c0.171,0.139,0.412,0.2,0.724,0.194c0.265-0.008,0.528-0.014,0.792-0.021c0.008,0.303,0.015,0.605,0.022,0.908
					c-2.25,0.053-4.499,0.142-6.746,0.265c-0.018-0.301-0.035-0.604-0.053-0.906c0.314-0.019,0.629-0.034,0.942-0.051
					c0.333-0.017,0.581-0.104,0.746-0.261c0.162-0.155,0.239-0.376,0.226-0.656c-0.171-3.58-0.339-7.159-0.505-10.74
					c-0.014-0.312-0.15-0.552-0.411-0.719c-0.258-0.168-0.598-0.239-1.018-0.218c-0.275,0.014-0.552,0.03-0.827,0.044
					C101.76,151.208,101.742,150.906,101.726,150.603z"/>
				<path fill="#0572B7" d="M130.673,160.788c-2.59-0.192-5.18-0.34-7.77-0.441c-0.027,1.282,0.244,2.241,0.812,2.873
					c0.567,0.635,1.312,0.973,2.239,1.023c0.668,0.037,1.307-0.083,1.925-0.357s1.271-0.799,1.965-1.571
					c0.276,0.168,0.551,0.335,0.824,0.501c-0.742,0.923-1.547,1.564-2.423,1.93s-1.92,0.512-3.138,0.451
					c-1.775-0.09-3.19-0.593-4.266-1.539c-1.074-0.944-1.606-2.123-1.574-3.549c0.031-1.424,0.625-2.608,1.806-3.528
					c1.177-0.919,2.618-1.354,4.302-1.265c1.165,0.055,2.153,0.307,2.965,0.741c0.811,0.437,1.42,1.04,1.825,1.812
					C130.572,158.642,130.739,159.61,130.673,160.788z M122.938,159.459c1.238,0.046,2.476,0.108,3.714,0.177
					c0.349,0.021,0.602-0.038,0.76-0.172c0.159-0.132,0.253-0.391,0.275-0.767c0.048-0.755-0.129-1.349-0.53-1.787
					c-0.4-0.437-0.931-0.675-1.59-0.706c-0.777-0.039-1.39,0.215-1.828,0.756C123.304,157.502,123.038,158.335,122.938,159.459z"/>
				<path fill="#0572B7" d="M142.854,157.373c1.087-0.802,2.121-1.129,3.078-0.993c0.485,0.069,0.858,0.238,1.115,0.506
					c0.261,0.266,0.36,0.578,0.307,0.934c-0.048,0.313-0.198,0.551-0.447,0.708c-0.25,0.157-0.544,0.212-0.88,0.165
					c-0.473-0.068-0.786-0.32-0.936-0.755c-0.096-0.262-0.23-0.405-0.408-0.431c-0.225-0.03-0.559,0.119-0.997,0.453
					c0.773,0.818,1.101,1.619,0.989,2.398c-0.086,0.606-0.367,1.123-0.839,1.561c-0.473,0.435-1.134,0.742-1.983,0.93
					s-1.879,0.208-3.093,0.071c-0.417-0.054-0.836-0.105-1.254-0.157c-0.933-0.097-1.571-0.085-1.917,0.037
					c-0.354,0.123-0.54,0.304-0.563,0.551c-0.022,0.212,0.068,0.38,0.268,0.502c0.257,0.169,0.687,0.283,1.285,0.345
					c0.358,0.026,0.718,0.058,1.077,0.085c1.163,0.076,2.018,0.148,2.563,0.215c1.812,0.22,3.04,0.604,3.686,1.129
					c0.644,0.525,0.903,1.166,0.79,1.92c-0.138,0.903-0.65,1.573-1.526,2.01c-1.071,0.537-2.804,0.646-5.215,0.372
					c-2.058-0.229-3.481-0.573-4.276-1.059c-0.797-0.486-1.172-1-1.122-1.554c0.032-0.344,0.237-0.63,0.623-0.858
					c0.385-0.228,1.173-0.402,2.37-0.513c-0.75-0.204-1.305-0.48-1.66-0.826c-0.357-0.346-0.514-0.766-0.469-1.259
					c0.042-0.447,0.222-0.813,0.544-1.099c0.322-0.283,0.876-0.512,1.663-0.677c-0.688-0.395-1.199-0.829-1.524-1.31
					c-0.325-0.479-0.464-1.008-0.411-1.576c0.055-0.617,0.31-1.153,0.764-1.611c0.453-0.459,1.122-0.795,2.006-1.006
					c0.884-0.208,1.944-0.248,3.169-0.109c0.581,0.065,1.142,0.172,1.677,0.324C141.846,156.948,142.358,157.14,142.854,157.373z
					 M142.747,168.188c0.055-0.379-0.158-0.689-0.641-0.934c-0.33-0.169-1.092-0.328-2.282-0.473
					c-2.153-0.258-3.556-0.273-4.204-0.09c-0.647,0.184-0.987,0.462-1.026,0.831c-0.034,0.352,0.177,0.667,0.632,0.95
					c0.454,0.285,1.35,0.494,2.686,0.643c1.738,0.195,3.012,0.186,3.828-0.057C142.354,168.873,142.691,168.582,142.747,168.188z
					 M139.454,157.317c-0.551-0.062-1.051,0.093-1.494,0.469c-0.439,0.377-0.699,0.956-0.784,1.74
					c-0.082,0.759,0.051,1.355,0.391,1.799c0.343,0.442,0.788,0.691,1.345,0.758c0.55,0.064,1.043-0.09,1.487-0.457
					c0.446-0.367,0.719-0.924,0.813-1.673c0.096-0.756-0.029-1.368-0.38-1.837C140.483,157.649,140.024,157.38,139.454,157.317z"/>
				<path fill="#0572B7" d="M157.936,159.832c1.148-0.723,2.21-0.979,3.166-0.778c0.482,0.102,0.846,0.298,1.085,0.582
					c0.244,0.287,0.322,0.601,0.243,0.953c-0.07,0.312-0.237,0.538-0.5,0.677c-0.263,0.142-0.562,0.171-0.896,0.102
					c-0.472-0.1-0.769-0.372-0.888-0.817c-0.078-0.266-0.203-0.424-0.381-0.458c-0.224-0.045-0.57,0.08-1.033,0.383
					c0.721,0.87,0.992,1.693,0.825,2.463c-0.128,0.601-0.45,1.095-0.953,1.498c-0.505,0.402-1.191,0.667-2.06,0.791
					c-0.869,0.127-1.902,0.077-3.111-0.143c-0.418-0.083-0.833-0.165-1.25-0.244c-0.931-0.164-1.57-0.19-1.926-0.094
					c-0.363,0.095-0.564,0.268-0.606,0.51c-0.036,0.211,0.042,0.384,0.233,0.521c0.247,0.187,0.67,0.328,1.267,0.432
					c0.358,0.052,0.716,0.104,1.074,0.158c1.162,0.155,2.018,0.287,2.561,0.393c1.804,0.344,3.012,0.813,3.623,1.38
					c0.608,0.568,0.827,1.225,0.656,1.972c-0.201,0.891-0.766,1.523-1.679,1.9c-1.115,0.461-2.865,0.448-5.267,0.01
					c-2.049-0.373-3.453-0.811-4.215-1.351c-0.765-0.538-1.104-1.079-1.015-1.627c0.056-0.339,0.283-0.613,0.687-0.814
					c0.402-0.2,1.206-0.322,2.415-0.35c-0.738-0.258-1.274-0.566-1.607-0.938c-0.333-0.37-0.461-0.798-0.38-1.288
					c0.073-0.443,0.278-0.797,0.623-1.059c0.345-0.261,0.915-0.448,1.719-0.561c-0.665-0.441-1.146-0.909-1.438-1.412
					c-0.292-0.5-0.395-1.037-0.303-1.601c0.1-0.609,0.392-1.129,0.88-1.555c0.487-0.428,1.183-0.716,2.084-0.866
					c0.902-0.147,1.966-0.113,3.189,0.109c0.58,0.107,1.135,0.252,1.663,0.439C156.951,159.337,157.454,159.565,157.936,159.832z
					 M157.062,170.616c0.082-0.376-0.109-0.699-0.578-0.975c-0.318-0.189-1.073-0.408-2.258-0.631
					c-2.146-0.406-3.553-0.519-4.215-0.38c-0.663,0.138-1.025,0.396-1.09,0.76c-0.062,0.345,0.13,0.679,0.564,0.991
					c0.438,0.315,1.319,0.585,2.65,0.826c1.732,0.314,3.012,0.395,3.851,0.209C156.615,171.269,156.976,171.007,157.062,170.616z
					 M154.523,159.541c-0.55-0.098-1.063,0.021-1.533,0.365c-0.468,0.345-0.771,0.907-0.909,1.682
					c-0.135,0.753-0.047,1.356,0.266,1.822c0.311,0.466,0.742,0.748,1.296,0.849c0.548,0.1,1.055-0.018,1.526-0.353
					c0.476-0.335,0.785-0.874,0.935-1.614c0.149-0.746,0.067-1.367-0.252-1.857C155.535,159.942,155.091,159.646,154.523,159.541z"
					/>
				<path fill="#0572B7" d="M163.893,161.095c1.678,0.316,3.358,0.649,5.038,1.007c-0.651,2.509-1.312,5.018-1.977,7.523
					c-0.054,0.202-0.015,0.378,0.111,0.527c0.129,0.15,0.354,0.267,0.676,0.348c0.242,0.062,0.483,0.124,0.725,0.187
					c-0.08,0.293-0.16,0.586-0.241,0.878c-2.146-0.555-4.295-1.075-6.445-1.562c0.07-0.295,0.142-0.59,0.213-0.884
					c0.238,0.052,0.477,0.106,0.715,0.162c0.382,0.088,0.673,0.078,0.865-0.031c0.195-0.107,0.337-0.342,0.427-0.702
					c0.428-1.716,0.85-3.431,1.271-5.147c0.079-0.325,0.023-0.601-0.17-0.834c-0.19-0.234-0.496-0.397-0.908-0.491
					c-0.168-0.039-0.336-0.076-0.503-0.113C163.758,161.672,163.824,161.382,163.893,161.095z M168.249,156.69
					c0.55,0.132,0.983,0.396,1.3,0.794c0.316,0.398,0.417,0.811,0.307,1.239c-0.111,0.431-0.397,0.746-0.864,0.949
					c-0.465,0.206-0.967,0.243-1.508,0.111c-0.549-0.132-0.98-0.396-1.295-0.791c-0.315-0.395-0.425-0.803-0.322-1.229
					c0.103-0.43,0.384-0.753,0.849-0.961C167.181,156.595,167.692,156.559,168.249,156.69z"/>
				<path fill="#0572B7" d="M179.141,164.565c1.253,0.376,2.334,0.938,3.237,1.691c0.903,0.752,1.487,1.549,1.756,2.392
					c0.267,0.841,0.229,1.736-0.107,2.685c-0.538,1.516-1.598,2.467-3.157,2.863c-1.557,0.4-3.13,0.359-4.735-0.121
					c-1.138-0.342-2.115-0.853-2.938-1.545c-0.821-0.689-1.387-1.463-1.695-2.32c-0.312-0.859-0.339-1.74-0.083-2.644
					c0.385-1.362,1.299-2.347,2.768-2.935C175.656,164.046,177.312,164.02,179.141,164.565z M178.934,165.475
					c-0.826-0.247-1.571-0.151-2.233,0.276c-0.659,0.429-1.203,1.367-1.638,2.805c-0.453,1.491-0.531,2.59-0.238,3.29
					c0.291,0.701,0.831,1.166,1.625,1.403c0.808,0.243,1.552,0.153,2.242-0.27c0.688-0.424,1.271-1.337,1.745-2.752
					c0.485-1.449,0.567-2.544,0.251-3.272C180.368,166.222,179.782,165.729,178.934,165.475z"/>
				<path fill="#0572B7" d="M85.443,182.779c0.64,1.126,1.166,1.876,1.579,2.25c0.271,0.236,0.542,0.337,0.807,0.3
					c0.245-0.031,0.417-0.146,0.521-0.33c0.104-0.187,0.134-0.561,0.084-1.123c0.316-0.043,0.631-0.084,0.948-0.126
					c0.145,1.058-0.039,1.933-0.54,2.625c-0.502,0.691-1.191,1.102-2.08,1.23c-0.879,0.128-1.63-0.04-2.26-0.507
					c-0.626-0.469-1.139-1.391-1.529-2.766c-0.312,0.119-0.634,0.221-0.963,0.313c-0.329,0.091-0.675,0.169-1.031,0.231
					c-2.199,0.384-4.193,0.04-6.029-1.045c-1.837-1.086-3.03-2.672-3.53-4.801c-0.499-2.131-0.123-4.067,1.18-5.788
					c1.302-1.721,3.188-2.808,5.605-3.229c2.434-0.422,4.607-0.034,6.461,1.145c1.859,1.177,2.909,2.83,3.203,4.918
					c0.18,1.282,0.073,2.462-0.312,3.534C87.175,180.687,86.464,181.738,85.443,182.779z M84.045,180.608
					c0.162-1.217,0.125-2.596-0.126-4.131c-0.253-1.556-0.636-2.748-1.165-3.576c-0.526-0.825-1.168-1.398-1.918-1.709
					c-0.75-0.312-1.563-0.391-2.436-0.239c-0.869,0.15-1.605,0.508-2.206,1.074c-0.598,0.565-0.968,1.269-1.105,2.104
					c-0.184,1.175-0.102,2.562,0.235,4.155c0.407,1.917,1.024,3.368,1.835,4.345c-0.156-0.924,0.021-1.709,0.534-2.342
					c0.516-0.635,1.312-1.048,2.385-1.232c0.782-0.137,1.509-0.074,2.169,0.187C82.909,179.504,83.511,179.958,84.045,180.608z
					 M82.743,183.042c-0.023-0.177-0.05-0.354-0.073-0.532c-0.169-0.944-0.499-1.622-1.004-2.03c-0.501-0.41-1.086-0.555-1.751-0.44
					c-0.568,0.099-1.021,0.382-1.354,0.843c-0.332,0.461-0.438,0.977-0.323,1.547c0.106,0.53,0.4,1.001,0.868,1.412
					c0.601,0.148,1.174,0.176,1.724,0.08c0.411-0.071,0.772-0.18,1.092-0.326C82.239,183.45,82.514,183.267,82.743,183.042z"/>
				<path fill="#0572B7" d="M89.674,174.051c1.538-0.266,3.079-0.515,4.621-0.744c0.213,2.021,0.427,4.042,0.642,6.063
					c0.061,0.564,0.275,0.991,0.644,1.286c0.367,0.296,0.815,0.419,1.347,0.371c0.753-0.066,1.324-0.39,1.729-0.97
					c0.404-0.582,0.58-1.236,0.519-1.971c-0.081-0.993-0.163-1.987-0.244-2.979c-0.029-0.351-0.16-0.608-0.397-0.772
					c-0.235-0.164-0.544-0.233-0.932-0.2c-0.168,0.014-0.34,0.029-0.509,0.044c-0.027-0.296-0.054-0.591-0.08-0.887
					c1.562-0.211,3.126-0.404,4.692-0.58c0.163,2.464,0.327,4.926,0.492,7.388c0.021,0.331,0.153,0.582,0.39,0.759
					c0.234,0.175,0.538,0.253,0.907,0.231c0.153-0.008,0.305-0.017,0.458-0.024c0.017,0.301,0.034,0.604,0.053,0.906
					c-1.37,0.112-2.736,0.239-4.104,0.381c-0.222-0.639-0.378-1.325-0.469-2.062c-0.624,0.851-1.234,1.466-1.838,1.845
					c-0.604,0.381-1.244,0.601-1.926,0.667c-0.674,0.067-1.257-0.007-1.746-0.216c-0.491-0.213-0.908-0.58-1.252-1.113
					c-0.346-0.533-0.569-1.195-0.668-2c-0.147-1.203-0.295-2.405-0.441-3.608c-0.048-0.393-0.193-0.664-0.445-0.809
					c-0.245-0.146-0.692-0.188-1.327-0.124C89.75,174.64,89.712,174.345,89.674,174.051z"/>
				<path fill="#0572B7" d="M116.216,177.19c-2.379-0.022-4.756,0-7.134,0.062c0.058,1.281,0.373,2.219,0.932,2.815
					c0.56,0.597,1.262,0.887,2.111,0.876c0.61-0.009,1.187-0.167,1.734-0.48c0.546-0.314,1.108-0.879,1.694-1.697
					c0.263,0.148,0.521,0.296,0.782,0.445c-0.619,0.971-1.315,1.666-2.09,2.086c-0.776,0.42-1.718,0.637-2.835,0.653
					c-1.622,0.025-2.945-0.39-3.993-1.266c-1.045-0.874-1.612-2.018-1.68-3.442c-0.067-1.426,0.4-2.639,1.419-3.634
					c1.021-0.995,2.318-1.511,3.867-1.536c1.072-0.02,1.999,0.171,2.77,0.549c0.77,0.382,1.364,0.945,1.783,1.687
					C115.995,175.051,116.206,176.009,116.216,177.19z M109.057,176.364c1.137-0.031,2.273-0.051,3.411-0.062
					c0.322-0.002,0.547-0.074,0.685-0.22c0.141-0.143,0.206-0.405,0.203-0.782c-0.003-0.757-0.2-1.336-0.595-1.748
					c-0.394-0.41-0.897-0.611-1.502-0.604c-0.719,0.013-1.263,0.303-1.627,0.872C109.267,174.387,109.077,175.236,109.057,176.364z"
					/>
				<path fill="#0572B7" d="M125.241,181.085c-0.019,0.302-0.036,0.604-0.054,0.906c-2.312-0.127-4.625-0.216-6.938-0.26
					c0.006-0.303,0.015-0.605,0.02-0.908c0.289,0.005,0.576,0.012,0.864,0.019c0.355,0.008,0.619-0.045,0.784-0.17
					c0.17-0.123,0.254-0.29,0.262-0.505c0.058-1.803,0.115-3.606,0.171-5.408c0.015-0.436-0.087-0.758-0.306-0.967
					c-0.22-0.208-0.533-0.316-0.94-0.326c-0.197-0.004-0.393-0.009-0.588-0.012c0.005-0.288,0.013-0.573,0.018-0.86
					c1.488-0.038,2.977-0.06,4.467-0.066c-0.044,0.993-0.089,1.982-0.134,2.976c0.302-0.984,0.787-1.729,1.459-2.231
					c0.672-0.503,1.418-0.729,2.229-0.682c0.69,0.038,1.229,0.239,1.604,0.586c0.379,0.351,0.546,0.777,0.509,1.284
					c-0.032,0.436-0.196,0.777-0.491,1.027s-0.639,0.363-1.034,0.338c-0.352-0.022-0.644-0.157-0.882-0.406
					c-0.238-0.248-0.349-0.555-0.326-0.918c0.011-0.202,0.085-0.409,0.22-0.623c0.073-0.12,0.109-0.207,0.112-0.258
					c0.005-0.092-0.015-0.156-0.059-0.204c-0.046-0.044-0.119-0.071-0.223-0.077c-0.268-0.017-0.567,0.107-0.898,0.363
					c-0.51,0.396-0.951,1.035-1.325,1.914c-0.371,0.879-0.576,1.771-0.619,2.686c-0.032,0.655-0.062,1.312-0.095,1.97
					c-0.011,0.227,0.049,0.404,0.178,0.531c0.131,0.126,0.314,0.196,0.556,0.207C124.268,181.032,124.754,181.058,125.241,181.085z"
					/>
				<path fill="#0572B7" d="M139.738,180.014c0.263,0.154,0.525,0.312,0.788,0.467c-0.584,0.961-1.362,1.664-2.337,2.111
					c-0.972,0.448-2.067,0.604-3.301,0.475c-1.669-0.177-2.925-0.714-3.794-1.634c-0.863-0.92-1.248-2.086-1.129-3.508
					c0.129-1.533,0.809-2.748,2.062-3.633c1.254-0.884,2.861-1.234,4.792-1.022c1.392,0.153,2.423,0.527,3.09,1.106
					c0.667,0.578,0.948,1.22,0.85,1.906c-0.071,0.505-0.285,0.882-0.643,1.134s-0.792,0.348-1.31,0.284
					c-0.448-0.055-0.793-0.212-1.029-0.473c-0.238-0.26-0.334-0.572-0.288-0.943c0.038-0.315,0.231-0.668,0.577-1.054
					c0.147-0.162,0.226-0.272,0.234-0.347c0.018-0.126-0.084-0.262-0.299-0.39c-0.307-0.198-0.722-0.327-1.248-0.387
					c-0.982-0.104-1.721,0.093-2.214,0.595c-0.661,0.659-1.062,1.723-1.21,3.181c-0.148,1.457,0.026,2.509,0.522,3.157
					s1.182,1.018,2.061,1.115c0.695,0.077,1.374-0.06,2.048-0.408C138.63,181.399,139.225,180.82,139.738,180.014z"/>
				<path fill="#0572B7" d="M143.249,174.59c1.549,0.156,3.098,0.333,4.646,0.525c-0.452,2.548-0.908,5.104-1.369,7.653
					c-0.037,0.207,0.007,0.375,0.133,0.513c0.123,0.136,0.334,0.23,0.629,0.279c0.223,0.038,0.446,0.076,0.668,0.114
					c-0.057,0.301-0.113,0.596-0.17,0.895c-1.974-0.342-3.95-0.656-5.928-0.936c0.046-0.3,0.093-0.598,0.14-0.898
					c0.22,0.031,0.438,0.062,0.658,0.096c0.354,0.053,0.613,0.012,0.785-0.112c0.169-0.124,0.284-0.373,0.344-0.739
					c0.287-1.743,0.569-3.489,0.853-5.23c0.054-0.328-0.011-0.597-0.2-0.811c-0.188-0.211-0.473-0.35-0.857-0.402
					c-0.155-0.024-0.309-0.044-0.465-0.066C143.16,175.176,143.205,174.882,143.249,174.59z M146.968,169.808
					c0.51,0.08,0.92,0.301,1.231,0.666c0.31,0.365,0.427,0.768,0.35,1.201c-0.075,0.438-0.322,0.775-0.734,1.023
					c-0.413,0.248-0.867,0.331-1.368,0.253c-0.507-0.081-0.917-0.3-1.228-0.662c-0.31-0.362-0.433-0.759-0.366-1.19
					c0.068-0.439,0.308-0.783,0.721-1.035C145.983,169.812,146.452,169.729,146.968,169.808z"/>
				<path fill="#0572B7" d="M161.296,186.234c0.085,0.263,0.171,0.526,0.256,0.789c-0.499,0.157-0.931,0.251-1.295,0.269
					c-0.366,0.019-0.749-0.019-1.155-0.114c-0.598-0.14-1.053-0.369-1.366-0.683c-0.312-0.315-0.543-0.826-0.698-1.537
					c-0.874,0.482-1.621,0.782-2.241,0.894c-0.621,0.11-1.286,0.095-2-0.048c-0.985-0.197-1.711-0.551-2.181-1.072
					c-0.47-0.517-0.644-1.098-0.515-1.736c0.193-0.964,0.869-1.647,2.039-2.027c0.936-0.297,2.883-0.405,5.853-0.23
					c0.103-0.43,0.205-0.857,0.309-1.286c0.12-0.506,0.029-0.964-0.285-1.37c-0.311-0.402-0.795-0.68-1.452-0.816
					c-0.498-0.104-0.96-0.102-1.384,0.006c-0.281,0.067-0.438,0.162-0.464,0.285c-0.013,0.063,0.013,0.169,0.08,0.314
					c0.143,0.329,0.184,0.635,0.12,0.914c-0.077,0.355-0.276,0.618-0.594,0.783c-0.315,0.164-0.696,0.204-1.146,0.116
					c-0.478-0.094-0.835-0.285-1.078-0.581c-0.239-0.296-0.324-0.63-0.248-1.008c0.126-0.617,0.62-1.095,1.491-1.418
					c1.088-0.402,2.355-0.455,3.796-0.151c1.086,0.229,2.014,0.59,2.781,1.071c0.492,0.308,0.846,0.726,1.063,1.264
					c0.215,0.537,0.235,1.14,0.063,1.811c-0.387,1.502-0.776,3.004-1.167,4.506c-0.089,0.342-0.081,0.604,0.019,0.789
					c0.103,0.184,0.275,0.309,0.52,0.367C160.621,186.384,160.914,186.347,161.296,186.234z M157.792,181.565
					c-1.582-0.156-2.689-0.085-3.312,0.191c-0.628,0.274-1.008,0.729-1.147,1.359c-0.097,0.447-0.048,0.815,0.151,1.104
					c0.196,0.29,0.521,0.48,0.971,0.574c0.698,0.145,1.328,0.043,1.9-0.307c0.57-0.352,0.951-0.915,1.141-1.695
					C157.595,182.385,157.694,181.974,157.792,181.565z"/>
			</g>
		</g>
	</g>
</g>
</svg>
