<?xml version="1.0" encoding="utf-8"?>
<!-- Generator: Adobe Illustrator 16.0.4, SVG Export Plug-In . SVG Version: 6.00 Build 0)  -->
<!DOCTYPE svg PUBLIC "-//W3C//DTD SVG 1.1//EN" "http://www.w3.org/Graphics/SVG/1.1/DTD/svg11.dtd">
<svg version="1.1" id="Livello_1" xmlns="http://www.w3.org/2000/svg" xmlns:xlink="http://www.w3.org/1999/xlink" x="0px" y="0px"
	 width="224.157px" height="236.048px" viewBox="0 0 224.157 236.048" enable-background="new 0 0 224.157 236.048"
	 xml:space="preserve">
<g>
	<g>
		<circle fill="#FFFFFF" stroke="#0572B7" stroke-miterlimit="10" cx="112.079" cy="92.717" r="84"/>
		<circle fill="#FFFFFF" stroke="#0572B7" stroke-width="5" stroke-miterlimit="10" cx="112.08" cy="92.717" r="75.216"/>
		<path fill="none" d="M48.61,75.863h31.434v31.435H48.61V75.863z"/>
		<rect x="137.085" y="114.066" fill="none" width="24.543" height="24.956"/>
		<path fill="#0572B7" d="M98.044,27.48c-1.9,12.684-12.439,17.483-25.268,17.134v13.188H94.47v47.195h17.504V27.48H98.044z"/>
		<rect x="114.294" y="75.239" fill="none" width="58.588" height="38.759"/>
		<text transform="matrix(1 0 0 1 114.293 105.1689)" fill="#0572B7" font-family="'Raleway-Bold'" font-size="41">st </text>
		<rect x="70.079" y="107.717" fill="none" width="100.402" height="38.759"/>
		<text transform="matrix(1 0 0 1 70.0791 134.7266)" fill="#0572B7" font-family="'Raleway-Bold'" font-size="37">TIME </text>
	</g>
	<g>
		<g>
			<g>
				<path fill="#FFFFFF" stroke="#0572B7" stroke-width="5" stroke-miterlimit="10" d="M202.478,208.436
					c-1.189-9.247-2.857-18.545-5.008-27.853c7.422-6.014,15.252-11.731,23.476-17.112c-69.825-28.682-148.211-28.5-217.928,0.544
					c0.072,0.174,0.146,0.349,0.218,0.522c8.497,5.508,16.579,11.376,24.225,17.56c-1.982,8.804-3.534,17.595-4.659,26.342
					C80.355,184.798,144.922,184.795,202.478,208.436L202.478,208.436L202.478,208.436z"/>
			</g>
		</g>
		<g>
			<g>
				<path fill="#0572B7" d="M44.843,157c3.34-0.83,6.684-1.599,10.03-2.306c1.7-0.361,3.148-0.257,4.333,0.293
					c1.184,0.554,1.876,1.377,2.091,2.472c0.164,0.83,0.012,1.613-0.45,2.351c-0.46,0.735-1.151,1.343-2.073,1.822
					c-0.921,0.478-1.86,0.819-2.819,1.026c-1.026,0.219-2.056,0.445-3.082,0.678c0.361,1.529,0.724,3.06,1.089,4.588
					c0.061,0.254,0.192,0.431,0.395,0.533c0.2,0.102,0.435,0.125,0.698,0.064c0.624-0.139,1.248-0.275,1.873-0.41
					c0.066,0.297,0.134,0.59,0.201,0.887c-2.882,0.621-5.761,1.288-8.636,2.004c-0.078-0.293-0.155-0.586-0.233-0.879
					c0.483-0.118,0.967-0.24,1.45-0.357c0.321-0.08,0.547-0.203,0.677-0.385c0.129-0.18,0.164-0.396,0.1-0.648
					c-0.903-3.565-1.796-7.129-2.676-10.694c-0.06-0.239-0.196-0.408-0.406-0.506c-0.211-0.096-0.443-0.118-0.697-0.054
					c-0.546,0.133-1.092,0.267-1.638,0.402C44.993,157.586,44.918,157.293,44.843,157z M52.669,162.47
					c0.688-0.153,1.376-0.307,2.064-0.458c0.722-0.156,1.334-0.425,1.838-0.803c0.506-0.38,0.836-0.78,0.995-1.201
					c0.159-0.42,0.151-1.053-0.024-1.887c-0.242-1.148-0.784-1.882-1.631-2.197c-0.619-0.226-1.588-0.197-2.904,0.092
					c-0.762,0.166-1.233,0.328-1.414,0.479c-0.18,0.15-0.238,0.352-0.181,0.605C51.829,158.891,52.247,160.682,52.669,162.47z"/>
				<path fill="#0572B7" d="M76.926,164.348c0.19,0.212,0.378,0.42,0.565,0.632c-0.411,0.334-0.785,0.573-1.127,0.729
					c-0.339,0.154-0.723,0.261-1.147,0.322c-0.631,0.094-1.162,0.053-1.585-0.123c-0.428-0.178-0.856-0.562-1.285-1.162
					c-0.648,0.764-1.245,1.316-1.799,1.647c-0.555,0.331-1.203,0.561-1.952,0.688c-1.032,0.178-1.877,0.112-2.535-0.2
					c-0.661-0.31-1.053-0.784-1.175-1.424c-0.188-0.968,0.204-1.841,1.186-2.618c0.787-0.617,2.618-1.418,5.516-2.348
					c-0.07-0.436-0.141-0.868-0.211-1.303c-0.082-0.513-0.352-0.9-0.805-1.163c-0.454-0.264-1.021-0.336-1.695-0.227
					c-0.517,0.087-0.956,0.255-1.317,0.507c-0.244,0.165-0.354,0.312-0.334,0.434c0.012,0.063,0.076,0.152,0.199,0.263
					c0.262,0.252,0.417,0.523,0.467,0.804c0.063,0.358-0.027,0.674-0.265,0.941c-0.24,0.269-0.592,0.441-1.055,0.525
					c-0.494,0.086-0.916,0.036-1.259-0.15c-0.346-0.184-0.555-0.466-0.625-0.846c-0.116-0.622,0.177-1.242,0.888-1.855
					c0.884-0.766,2.076-1.273,3.561-1.516c1.118-0.182,2.138-0.189,3.05-0.024c0.584,0.102,1.084,0.36,1.499,0.778
					c0.416,0.416,0.675,0.965,0.776,1.648c0.228,1.531,0.459,3.061,0.69,4.59c0.054,0.347,0.163,0.588,0.336,0.723
					c0.168,0.132,0.384,0.181,0.643,0.144C76.342,164.734,76.607,164.595,76.926,164.348z M71.723,161.332
					c-1.572,0.437-2.602,0.903-3.098,1.389c-0.493,0.482-0.682,1.04-0.568,1.677c0.081,0.448,0.274,0.771,0.577,0.968
					c0.307,0.195,0.692,0.253,1.165,0.176c0.729-0.12,1.296-0.446,1.703-0.979c0.409-0.532,0.552-1.195,0.422-1.986
					C71.856,162.163,71.79,161.745,71.723,161.332z"/>
				<path fill="#0572B7" d="M85.989,163.47c0.033,0.3,0.065,0.601,0.098,0.903c-2.404,0.251-4.809,0.539-7.212,0.854
					c-0.042-0.298-0.082-0.6-0.124-0.899c0.299-0.04,0.597-0.08,0.896-0.117c0.368-0.046,0.629-0.144,0.783-0.292
					c0.152-0.146,0.216-0.326,0.188-0.541c-0.232-1.789-0.464-3.578-0.692-5.367c-0.056-0.432-0.211-0.733-0.47-0.904
					c-0.256-0.173-0.594-0.229-1.01-0.178c-0.202,0.027-0.403,0.052-0.604,0.08c-0.038-0.284-0.076-0.568-0.115-0.852
					c1.513-0.268,3.026-0.525,4.542-0.768c0.116,0.985,0.233,1.974,0.349,2.958c0.145-1.021,0.521-1.832,1.122-2.437
					c0.601-0.602,1.319-0.946,2.151-1.032c0.71-0.073,1.286,0.034,1.729,0.314c0.442,0.282,0.687,0.674,0.735,1.181
					c0.041,0.434-0.068,0.802-0.324,1.096c-0.257,0.296-0.586,0.464-0.994,0.503c-0.362,0.036-0.686-0.049-0.97-0.255
					c-0.286-0.206-0.445-0.492-0.485-0.854c-0.021-0.201,0.019-0.418,0.118-0.65c0.053-0.131,0.076-0.219,0.072-0.272
					c-0.009-0.089-0.042-0.155-0.096-0.191c-0.052-0.04-0.132-0.05-0.24-0.039c-0.271,0.026-0.556,0.194-0.852,0.503
					c-0.452,0.473-0.799,1.174-1.034,2.102c-0.237,0.928-0.296,1.844-0.189,2.749c0.076,0.653,0.153,1.307,0.231,1.961
					c0.027,0.228,0.116,0.39,0.271,0.494c0.154,0.104,0.355,0.142,0.607,0.114C84.978,163.576,85.483,163.522,85.989,163.47z"/>
				<path fill="#0572B7" d="M100.614,159.937c0.298,0.105,0.594,0.212,0.891,0.319c-0.407,1.049-1.062,1.877-1.967,2.49
					c-0.907,0.613-1.997,0.961-3.283,1.046c-1.743,0.118-3.136-0.195-4.189-0.955c-1.056-0.759-1.654-1.844-1.783-3.265
					c-0.139-1.531,0.338-2.842,1.453-3.926c1.112-1.082,2.672-1.701,4.659-1.826c1.427-0.091,2.535,0.095,3.314,0.545
					c0.78,0.451,1.185,1.027,1.219,1.724c0.025,0.506-0.12,0.917-0.433,1.229c-0.314,0.311-0.735,0.481-1.268,0.511
					c-0.468,0.026-0.844-0.071-1.134-0.283c-0.286-0.218-0.444-0.506-0.467-0.877c-0.019-0.32,0.107-0.697,0.387-1.139
					c0.116-0.184,0.177-0.312,0.172-0.382c-0.007-0.127-0.133-0.241-0.377-0.33c-0.345-0.143-0.788-0.199-1.33-0.162
					c-1.007,0.062-1.718,0.39-2.125,0.967c-0.549,0.765-0.764,1.877-0.649,3.338c0.113,1.462,0.485,2.464,1.113,3.018
					c0.626,0.551,1.396,0.799,2.312,0.739c0.725-0.046,1.393-0.299,2.01-0.762C99.756,161.494,100.247,160.824,100.614,159.937z"/>
				<path fill="#0572B7" d="M102.424,148.7c1.715-0.145,3.431-0.272,5.146-0.384c0.057,2.367,0.113,4.737,0.171,7.106
					c0.743-0.825,1.442-1.392,2.088-1.696c0.643-0.306,1.352-0.464,2.124-0.471c1.068-0.007,1.888,0.268,2.452,0.819
					c0.64,0.639,0.953,1.542,0.948,2.708c-0.005,1.445-0.01,2.891-0.017,4.336c-0.001,0.302,0.076,0.521,0.229,0.66
					c0.154,0.141,0.379,0.211,0.672,0.213c0.238,0.003,0.478,0.005,0.716,0.007c-0.002,0.304-0.007,0.606-0.01,0.908
					c-2.078-0.021-4.155-0.017-6.234,0.012c-0.004-0.302-0.008-0.606-0.012-0.908c0.226-0.003,0.451-0.005,0.677-0.009
					c0.377-0.003,0.631-0.066,0.764-0.192c0.182-0.164,0.275-0.393,0.272-0.687c-0.011-1.419-0.021-2.838-0.031-4.257
					c-0.004-0.614-0.196-1.097-0.585-1.456c-0.385-0.358-0.868-0.533-1.445-0.525c-0.715,0.012-1.327,0.276-1.828,0.805
					c-0.507,0.524-0.745,1.229-0.723,2.116c0.027,1.129,0.055,2.259,0.083,3.388c0.006,0.293,0.094,0.51,0.253,0.648
					c0.164,0.141,0.391,0.206,0.688,0.199c0.252-0.004,0.503-0.009,0.755-0.014c0.006,0.303,0.011,0.605,0.017,0.908
					c-2.146,0.037-4.288,0.1-6.432,0.189c-0.014-0.303-0.026-0.605-0.04-0.907c0.3-0.015,0.6-0.023,0.898-0.036
					c0.318-0.013,0.554-0.098,0.713-0.251c0.155-0.155,0.232-0.374,0.221-0.653c-0.127-3.582-0.254-7.163-0.378-10.745
					c-0.012-0.312-0.139-0.554-0.381-0.724c-0.241-0.17-0.56-0.247-0.956-0.233c-0.26,0.011-0.519,0.021-0.778,0.031
					C102.449,149.304,102.437,149.003,102.424,148.7z"/>
				<path fill="#0572B7" d="M129.784,158.818c-2.459-0.139-4.916-0.244-7.375-0.316c-0.016,1.281,0.251,2.236,0.797,2.863
					c0.545,0.627,1.256,0.956,2.142,0.992c0.638,0.026,1.242-0.104,1.827-0.39c0.584-0.282,1.198-0.821,1.847-1.606
					c0.264,0.159,0.527,0.322,0.79,0.483c-0.691,0.939-1.448,1.595-2.276,1.978c-0.83,0.379-1.823,0.545-2.985,0.5
					c-1.694-0.062-3.046-0.559-4.075-1.491c-1.031-0.935-1.54-2.112-1.515-3.536c0.024-1.423,0.581-2.609,1.691-3.541
					c1.107-0.932,2.464-1.378,4.056-1.314c1.1,0.039,2.036,0.273,2.807,0.694c0.771,0.42,1.354,1.014,1.747,1.774
					C129.657,156.671,129.829,157.643,129.784,158.818z M122.437,157.613c1.174,0.036,2.348,0.079,3.521,0.126
					c0.329,0.015,0.569-0.047,0.718-0.183c0.148-0.139,0.233-0.393,0.251-0.771c0.036-0.755-0.138-1.347-0.521-1.778
					c-0.383-0.429-0.887-0.659-1.511-0.681c-0.735-0.031-1.309,0.234-1.719,0.779C122.768,155.651,122.521,156.491,122.437,157.613z
					"/>
				<path fill="#0572B7" d="M141.233,155.052c1.006-0.837,1.969-1.21,2.874-1.112c0.46,0.049,0.815,0.203,1.064,0.459
					c0.251,0.258,0.355,0.563,0.314,0.92c-0.035,0.316-0.171,0.561-0.4,0.727c-0.231,0.168-0.507,0.234-0.825,0.199
					c-0.449-0.047-0.749-0.286-0.903-0.714c-0.096-0.259-0.228-0.396-0.397-0.415c-0.211-0.02-0.522,0.143-0.926,0.491
					c0.751,0.788,1.081,1.573,0.997,2.357c-0.065,0.608-0.317,1.139-0.751,1.592c-0.434,0.451-1.053,0.786-1.854,1.001
					c-0.801,0.219-1.777,0.276-2.93,0.178c-0.398-0.042-0.798-0.08-1.195-0.119c-0.888-0.073-1.493-0.037-1.817,0.095
					c-0.334,0.129-0.506,0.318-0.525,0.564c-0.016,0.213,0.073,0.377,0.265,0.495c0.248,0.162,0.657,0.262,1.229,0.307
					c0.342,0.017,0.685,0.034,1.025,0.053c1.106,0.04,1.921,0.086,2.44,0.132c1.727,0.157,2.904,0.494,3.531,0.993
					c0.625,0.498,0.895,1.129,0.809,1.886c-0.104,0.909-0.57,1.596-1.394,2.067c-1.007,0.578-2.659,0.75-4.971,0.553
					c-1.971-0.165-3.342-0.468-4.109-0.935c-0.771-0.468-1.139-0.974-1.101-1.525c0.023-0.343,0.215-0.636,0.578-0.873
					c0.361-0.239,1.11-0.431,2.247-0.576c-0.717-0.185-1.252-0.443-1.597-0.78c-0.347-0.338-0.504-0.752-0.47-1.246
					c0.032-0.449,0.195-0.818,0.497-1.111c0.301-0.292,0.823-0.533,1.565-0.721c-0.662-0.374-1.153-0.797-1.471-1.27
					c-0.317-0.472-0.456-0.994-0.418-1.563c0.043-0.614,0.272-1.164,0.694-1.63c0.42-0.471,1.045-0.823,1.876-1.06
					c0.829-0.235,1.827-0.306,2.985-0.206c0.55,0.045,1.08,0.137,1.588,0.268C140.271,154.662,140.762,154.838,141.233,155.052z
					 M141.423,165.858c0.042-0.384-0.171-0.684-0.638-0.909c-0.317-0.154-1.046-0.288-2.184-0.393
					c-2.058-0.184-3.394-0.162-4.007,0.041c-0.614,0.199-0.934,0.486-0.962,0.859c-0.026,0.351,0.183,0.66,0.622,0.932
					c0.44,0.27,1.299,0.453,2.579,0.563c1.665,0.141,2.88,0.082,3.652-0.187C141.067,166.554,141.38,166.253,141.423,165.858z
					 M138.026,155.113c-0.522-0.043-0.99,0.128-1.4,0.517c-0.408,0.388-0.642,0.977-0.705,1.761
					c-0.061,0.759,0.076,1.357,0.408,1.786c0.334,0.431,0.763,0.668,1.291,0.715c0.522,0.046,0.987-0.125,1.398-0.505
					c0.414-0.381,0.657-0.948,0.729-1.699c0.071-0.76-0.061-1.365-0.402-1.821C139.005,155.414,138.565,155.158,138.026,155.113z"/>
				<path fill="#0572B7" d="M155.516,156.801c1.054-0.782,2.04-1.105,2.942-0.962c0.458,0.07,0.808,0.243,1.044,0.514
					c0.241,0.271,0.328,0.579,0.269,0.935c-0.053,0.314-0.2,0.549-0.441,0.705s-0.521,0.206-0.839,0.157
					c-0.448-0.071-0.736-0.324-0.868-0.761c-0.084-0.262-0.209-0.41-0.377-0.435c-0.212-0.032-0.531,0.112-0.956,0.441
					c0.713,0.827,1.002,1.629,0.877,2.407c-0.097,0.604-0.379,1.121-0.838,1.55c-0.459,0.43-1.097,0.729-1.913,0.905
					c-0.814,0.175-1.798,0.182-2.948,0.025c-0.397-0.062-0.795-0.122-1.191-0.18c-0.887-0.117-1.496-0.116-1.828-0.001
					c-0.34,0.111-0.525,0.296-0.556,0.537c-0.026,0.209,0.053,0.382,0.239,0.509c0.239,0.174,0.644,0.295,1.215,0.37
					c0.341,0.032,0.684,0.067,1.024,0.104c1.108,0.096,1.923,0.185,2.441,0.258c1.722,0.248,2.887,0.646,3.49,1.175
					c0.601,0.528,0.835,1.175,0.708,1.925c-0.15,0.902-0.658,1.562-1.509,1.992c-1.04,0.528-2.708,0.612-5.016,0.297
					c-1.968-0.269-3.323-0.644-4.069-1.147c-0.747-0.503-1.089-1.025-1.021-1.58c0.042-0.343,0.251-0.621,0.628-0.841
					c0.373-0.218,1.136-0.373,2.282-0.46c-0.709-0.222-1.23-0.51-1.559-0.862c-0.331-0.354-0.465-0.778-0.403-1.268
					c0.055-0.445,0.239-0.807,0.557-1.085c0.316-0.277,0.853-0.491,1.607-0.64c-0.645-0.409-1.114-0.857-1.406-1.342
					c-0.294-0.488-0.406-1.016-0.337-1.584c0.074-0.612,0.333-1.146,0.781-1.593c0.445-0.448,1.091-0.771,1.936-0.961
					c0.843-0.192,1.847-0.212,3.005-0.052c0.549,0.075,1.075,0.189,1.579,0.349C154.571,156.364,155.052,156.56,155.516,156.801z
					 M155.131,167.604c0.062-0.379-0.135-0.691-0.591-0.939c-0.311-0.174-1.035-0.345-2.17-0.507
					c-2.054-0.291-3.394-0.336-4.02-0.167c-0.626,0.171-0.962,0.442-1.01,0.81c-0.047,0.35,0.147,0.671,0.573,0.963
					c0.427,0.295,1.276,0.521,2.557,0.695c1.66,0.228,2.883,0.232,3.673,0.003C154.736,168.281,155.067,167.994,155.131,167.604z
					 M152.295,156.696c-0.522-0.069-1,0.078-1.432,0.443c-0.429,0.366-0.694,0.942-0.8,1.723c-0.101,0.757,0.003,1.354,0.315,1.806
					c0.311,0.447,0.729,0.707,1.256,0.779c0.522,0.071,0.997-0.071,1.43-0.432c0.436-0.358,0.708-0.912,0.82-1.66
					c0.113-0.752,0.012-1.365-0.307-1.838C153.261,157.042,152.832,156.77,152.295,156.696z"/>
				<path fill="#0572B7" d="M161.166,157.699c1.591,0.205,3.182,0.426,4.774,0.66c-0.489,2.541-0.984,5.086-1.483,7.627
					c-0.039,0.202,0.004,0.376,0.132,0.517c0.13,0.141,0.349,0.24,0.658,0.299c0.231,0.044,0.463,0.089,0.694,0.133
					c-0.061,0.298-0.12,0.596-0.181,0.892c-2.06-0.396-4.12-0.77-6.181-1.119c0.052-0.3,0.105-0.597,0.158-0.896
					c0.229,0.038,0.457,0.077,0.686,0.117c0.366,0.062,0.64,0.032,0.817-0.087c0.18-0.121,0.302-0.363,0.369-0.729
					c0.32-1.735,0.638-3.472,0.953-5.211c0.06-0.326-0.004-0.601-0.197-0.817c-0.19-0.219-0.483-0.361-0.876-0.429
					c-0.158-0.027-0.318-0.054-0.477-0.081C161.065,158.282,161.115,157.99,161.166,157.699z M165.05,153.02
					c0.519,0.094,0.936,0.328,1.251,0.7c0.313,0.371,0.427,0.775,0.344,1.212c-0.082,0.434-0.339,0.771-0.764,1.005
					c-0.424,0.235-0.895,0.31-1.406,0.216c-0.521-0.095-0.936-0.324-1.249-0.697c-0.312-0.373-0.432-0.771-0.356-1.203
					c0.077-0.437,0.327-0.772,0.753-1.014C164.047,152.998,164.523,152.926,165.05,153.02z"/>
				<path fill="#0572B7" d="M175.632,160.012c1.19,0.262,2.236,0.731,3.125,1.396c0.892,0.661,1.485,1.404,1.791,2.212
					c0.305,0.807,0.329,1.702,0.076,2.673c-0.403,1.554-1.334,2.59-2.774,3.129c-1.438,0.536-2.924,0.634-4.471,0.288
					c-1.096-0.244-2.05-0.673-2.866-1.297c-0.816-0.622-1.395-1.347-1.731-2.176c-0.341-0.831-0.417-1.705-0.225-2.624
					c0.289-1.384,1.095-2.431,2.44-3.131C172.343,159.786,173.892,159.622,175.632,160.012z M175.491,160.931
					c-0.788-0.175-1.48-0.021-2.075,0.461c-0.594,0.481-1.051,1.457-1.377,2.92c-0.339,1.521-0.352,2.616-0.032,3.289
					c0.318,0.674,0.855,1.089,1.618,1.261c0.776,0.177,1.472,0.021,2.095-0.458c0.621-0.479,1.111-1.439,1.467-2.884
					c0.362-1.483,0.374-2.573,0.033-3.27C176.879,161.551,176.299,161.11,175.491,160.931z"/>
				<path fill="#0572B7" d="M42.588,176.34c0.11-0.527,0.222-1.057,0.336-1.586c0.267-0.074,0.533-0.146,0.801-0.218
					c0.631,1.835,1.263,3.671,1.896,5.507c-0.324,0.088-0.648,0.176-0.973,0.264c-0.78-1.521-1.71-2.552-2.798-3.09
					c-1.084-0.535-2.184-0.646-3.282-0.323c-1.205,0.353-2.043,1.15-2.498,2.383c-0.453,1.229-0.311,2.919,0.418,5.055
					c0.772,2.261,1.77,3.805,2.965,4.653c0.954,0.656,2.065,0.799,3.346,0.423c1.281-0.374,2.222-1.114,2.836-2.229
					c0.442-0.809,0.607-1.866,0.493-3.169c0.312-0.084,0.624-0.168,0.935-0.253c0.248,1.648-0.044,3.079-0.857,4.302
					c-0.812,1.222-2.001,2.061-3.588,2.528c-2.049,0.605-3.988,0.474-5.854-0.409c-1.864-0.88-3.19-2.335-3.935-4.402
					c-0.827-2.294-0.652-4.396,0.566-6.305c1.041-1.623,2.554-2.733,4.505-3.31c0.771-0.229,1.52-0.329,2.242-0.309
					C40.865,175.871,41.682,176.034,42.588,176.34z"/>
				<path fill="#0572B7" d="M59.639,181.259c-2.278,0.494-4.554,1.021-6.827,1.577c0.354,1.238,0.877,2.086,1.556,2.551
					c0.681,0.463,1.426,0.601,2.242,0.409c0.586-0.138,1.101-0.417,1.554-0.84c0.45-0.424,0.855-1.095,1.221-2.018
					c0.285,0.085,0.571,0.175,0.856,0.265c-0.359,1.079-0.858,1.904-1.505,2.482c-0.646,0.576-1.502,0.989-2.576,1.242
					c-1.561,0.368-2.939,0.242-4.156-0.396c-1.213-0.635-2.024-1.636-2.415-3.015c-0.391-1.377-0.216-2.658,0.535-3.839
					c0.753-1.178,1.876-1.951,3.349-2.3c1.021-0.243,1.948-0.258,2.771-0.049c0.824,0.208,1.521,0.63,2.099,1.262
					C58.916,179.225,59.348,180.113,59.639,181.259z M52.581,181.975c1.086-0.268,2.173-0.525,3.26-0.777
					c0.307-0.068,0.507-0.191,0.604-0.359c0.099-0.17,0.1-0.437,0.01-0.807c-0.183-0.732-0.508-1.266-0.98-1.578
					c-0.474-0.317-0.999-0.406-1.575-0.271c-0.686,0.164-1.139,0.561-1.356,1.19C52.325,180.002,52.339,180.871,52.581,181.975z"/>
				<path fill="#0572B7" d="M75.435,181.992c0.05,0.298,0.102,0.598,0.151,0.896c-1.926,0.301-3.852,0.622-5.773,0.966
					c-0.059-0.298-0.117-0.596-0.176-0.893c0.202-0.036,0.404-0.072,0.607-0.108c0.323-0.057,0.548-0.174,0.677-0.356
					c0.129-0.182,0.166-0.418,0.11-0.714c-0.243-1.302-0.487-2.604-0.73-3.904c-0.123-0.667-0.385-1.149-0.784-1.446
					c-0.4-0.298-0.872-0.399-1.414-0.301c-0.737,0.134-1.288,0.495-1.649,1.082c-0.361,0.588-0.443,1.365-0.245,2.33
					c0.206,1.001,0.412,2.001,0.619,3c0.062,0.294,0.188,0.504,0.383,0.626c0.191,0.122,0.415,0.161,0.668,0.113
					c0.243-0.047,0.487-0.092,0.73-0.135c0.06,0.297,0.119,0.594,0.179,0.893c-1.997,0.365-3.994,0.757-5.988,1.171
					c-0.066-0.296-0.134-0.592-0.202-0.888c0.26-0.054,0.521-0.108,0.78-0.16c0.302-0.063,0.513-0.185,0.634-0.37
					c0.12-0.186,0.147-0.421,0.082-0.715c-0.389-1.776-0.776-3.551-1.162-5.326c-0.066-0.308-0.233-0.527-0.502-0.663
					c-0.271-0.136-0.591-0.164-0.966-0.087c-0.143,0.029-0.283,0.059-0.424,0.088c-0.062-0.277-0.124-0.552-0.186-0.831
					c1.371-0.354,2.744-0.698,4.119-1.03c0.261,0.521,0.511,1.154,0.741,1.9c0.433-0.821,0.943-1.463,1.534-1.938
					c0.588-0.471,1.249-0.771,1.98-0.898c0.993-0.175,1.832-0.004,2.509,0.497c0.672,0.505,1.098,1.292,1.282,2.356
					c0.242,1.395,0.486,2.787,0.731,4.181c0.056,0.319,0.177,0.54,0.358,0.656c0.184,0.114,0.447,0.146,0.789,0.093
					C75.076,182.047,75.256,182.02,75.435,181.992z"/>
				<path fill="#0572B7" d="M78.283,169.445c0.321-0.044,0.644-0.087,0.966-0.129c0.174,1.241,0.349,2.483,0.525,3.725
					c1.1-0.145,2.2-0.285,3.301-0.418c0.045,0.348,0.09,0.699,0.135,1.047c-1.097,0.133-2.192,0.271-3.287,0.416
					c0.271,1.92,0.547,3.84,0.823,5.758c0.056,0.381,0.2,0.661,0.439,0.844c0.236,0.184,0.524,0.254,0.862,0.207
					c0.968-0.125,1.365-1.027,1.201-2.721c0.31-0.037,0.619-0.074,0.93-0.111c0.093,0.9,0.035,1.642-0.178,2.221
					c-0.211,0.578-0.559,1.052-1.043,1.413c-0.485,0.361-1.055,0.586-1.712,0.674c-0.574,0.078-1.088,0.032-1.542-0.126
					c-0.454-0.164-0.842-0.438-1.158-0.84c-0.319-0.396-0.52-0.853-0.599-1.361c-0.291-1.855-0.578-3.709-0.863-5.563
					c-0.589,0.086-1.177,0.173-1.765,0.26c-0.048-0.296-0.096-0.591-0.144-0.888c1.063-0.293,1.85-0.79,2.366-1.501
					C78.058,171.64,78.306,170.674,78.283,169.445z"/>
				<path fill="#0572B7" d="M92.676,179.914c0.028,0.302,0.057,0.603,0.083,0.904c-2.244,0.194-4.488,0.416-6.731,0.67
					c-0.036-0.301-0.074-0.601-0.11-0.902c0.278-0.032,0.559-0.064,0.837-0.094c0.345-0.035,0.589-0.127,0.732-0.271
					c0.146-0.143,0.203-0.321,0.179-0.535c-0.205-1.794-0.407-3.584-0.61-5.378c-0.049-0.435-0.194-0.738-0.431-0.917
					c-0.24-0.178-0.553-0.245-0.946-0.202c-0.188,0.021-0.377,0.042-0.564,0.062c-0.034-0.284-0.067-0.568-0.103-0.854
					c1.416-0.228,2.836-0.446,4.258-0.649c0.1,0.984,0.202,1.977,0.303,2.964c0.145-1.016,0.502-1.818,1.068-2.406
					c0.568-0.587,1.245-0.915,2.022-0.979c0.666-0.055,1.204,0.064,1.615,0.355s0.637,0.691,0.677,1.197
					c0.035,0.436-0.07,0.796-0.312,1.086c-0.244,0.289-0.555,0.451-0.937,0.48c-0.338,0.027-0.639-0.068-0.902-0.279
					c-0.266-0.212-0.414-0.504-0.447-0.865c-0.019-0.201,0.021-0.415,0.117-0.646c0.051-0.129,0.074-0.219,0.068-0.271
					c-0.007-0.089-0.037-0.155-0.086-0.192c-0.051-0.036-0.125-0.059-0.224-0.046c-0.257,0.021-0.524,0.182-0.804,0.481
					c-0.428,0.46-0.756,1.154-0.984,2.074c-0.227,0.922-0.293,1.836-0.2,2.743c0.066,0.655,0.133,1.308,0.2,1.963
					c0.023,0.226,0.106,0.394,0.25,0.502c0.146,0.104,0.331,0.151,0.566,0.128C91.731,179.998,92.204,179.954,92.676,179.914z"/>
				<path fill="#0572B7" d="M101.949,170.537c1.124-0.055,2.166,0.126,3.123,0.536c0.955,0.408,1.669,0.968,2.143,1.667
					c0.476,0.703,0.722,1.553,0.748,2.555c0.042,1.6-0.511,2.845-1.636,3.734c-1.129,0.894-2.409,1.369-3.865,1.438
					c-1.03,0.05-1.983-0.119-2.867-0.509c-0.884-0.388-1.586-0.937-2.105-1.649c-0.517-0.711-0.813-1.533-0.883-2.472
					c-0.105-1.409,0.342-2.628,1.355-3.647C98.975,171.171,100.312,170.613,101.949,170.537z M102.06,171.461
					c-0.74,0.036-1.314,0.362-1.717,0.981c-0.403,0.619-0.559,1.675-0.469,3.171c0.095,1.553,0.372,2.613,0.828,3.178
					c0.458,0.563,1.041,0.83,1.756,0.796c0.732-0.035,1.306-0.363,1.729-0.985c0.424-0.621,0.607-1.674,0.549-3.157
					c-0.062-1.522-0.327-2.577-0.809-3.16C103.447,171.699,102.822,171.425,102.06,171.461z"/>
				<path fill="#0572B7" d="M126.118,166.826c0.357-0.414,0.716-0.826,1.077-1.241c0.26,0.013,0.519,0.025,0.778,0.039
					c-0.058,1.663-0.114,3.325-0.172,4.988c-0.322-0.015-0.644-0.032-0.966-0.047c-0.428-1.457-1.096-2.562-2.002-3.31
					c-0.904-0.751-1.933-1.145-3.068-1.174c-0.967-0.027-1.763,0.193-2.377,0.651c-0.617,0.46-0.929,1.02-0.938,1.677
					c-0.006,0.393,0.105,0.751,0.337,1.079c0.231,0.33,0.607,0.614,1.128,0.855s1.433,0.501,2.736,0.789
					c1.523,0.342,2.568,0.65,3.14,0.909c0.911,0.42,1.576,0.951,2.004,1.598c0.425,0.644,0.608,1.412,0.556,2.303
					c-0.078,1.332-0.633,2.368-1.648,3.111c-1.226,0.895-2.688,1.318-4.412,1.26c-1.586-0.055-3.017-0.605-4.322-1.673
					c-0.412,0.47-0.821,0.939-1.229,1.411c-0.254-0.004-0.509-0.006-0.763-0.007c0.013-1.783,0.025-3.569,0.038-5.351
					c0.309,0.001,0.619,0.005,0.928,0.008c0.89,3.063,2.688,4.609,5.445,4.695c1.129,0.037,2.017-0.172,2.668-0.637
					c0.651-0.463,0.996-1.062,1.033-1.797c0.025-0.514-0.092-0.951-0.355-1.311c-0.264-0.361-0.685-0.661-1.266-0.897
					c-0.317-0.128-1.111-0.349-2.383-0.641c-1.714-0.402-2.941-0.787-3.674-1.172c-0.732-0.389-1.272-0.851-1.616-1.397
					c-0.342-0.546-0.514-1.209-0.508-1.99c0.011-1.313,0.509-2.381,1.505-3.201c0.994-0.814,2.333-1.208,4-1.161
					C123.392,165.237,124.843,165.787,126.118,166.826z"/>
				<path fill="#0572B7" d="M134.154,167.735c0.322,0.026,0.645,0.048,0.966,0.074c-0.103,1.249-0.206,2.498-0.311,3.747
					c1.103,0.088,2.205,0.182,3.307,0.281c-0.032,0.35-0.068,0.699-0.102,1.05c-1.098-0.101-2.194-0.191-3.293-0.278
					c-0.162,1.931-0.323,3.859-0.488,5.791c-0.032,0.382,0.047,0.688,0.238,0.915c0.188,0.226,0.453,0.357,0.791,0.383
					c0.97,0.083,1.562-0.72,1.783-2.405c0.31,0.027,0.62,0.056,0.931,0.085c-0.111,0.897-0.336,1.61-0.675,2.131
					c-0.335,0.523-0.781,0.906-1.335,1.161c-0.553,0.253-1.158,0.353-1.816,0.301c-0.576-0.045-1.065-0.194-1.471-0.445
					c-0.404-0.254-0.719-0.604-0.936-1.061c-0.221-0.452-0.312-0.938-0.275-1.452c0.137-1.87,0.272-3.741,0.407-5.611
					c-0.59-0.04-1.181-0.079-1.771-0.114c0.02-0.299,0.038-0.598,0.058-0.896c1.096-0.063,1.97-0.387,2.63-0.973
					C133.45,169.83,133.906,168.937,134.154,167.735z"/>
				<path fill="#0572B7" d="M145.7,172.129c1.122,0.136,2.123,0.485,2.998,1.049c0.874,0.562,1.482,1.231,1.827,2
					c0.348,0.769,0.438,1.649,0.286,2.643c-0.246,1.584-1.018,2.715-2.294,3.405c-1.28,0.688-2.634,0.946-4.086,0.771
					c-1.027-0.126-1.938-0.447-2.742-0.979c-0.804-0.53-1.396-1.187-1.781-1.975c-0.383-0.789-0.528-1.647-0.43-2.582
					c0.148-1.404,0.805-2.531,1.987-3.367C142.646,172.256,144.065,171.933,145.7,172.129z M145.646,173.057
					c-0.739-0.09-1.365,0.142-1.873,0.682c-0.509,0.541-0.851,1.557-1.027,3.047c-0.185,1.547-0.1,2.633,0.247,3.268
					c0.351,0.63,0.88,0.994,1.593,1.076c0.729,0.088,1.358-0.138,1.889-0.682c0.531-0.541,0.903-1.548,1.111-3.02
					c0.212-1.51,0.136-2.592-0.238-3.248C146.977,173.526,146.407,173.149,145.646,173.057z"/>
				<path fill="#0572B7" d="M158.753,182.918c-0.059,0.297-0.116,0.595-0.174,0.893c-2.235-0.396-4.471-0.764-6.71-1.102
					c0.05-0.3,0.099-0.598,0.147-0.898c0.277,0.043,0.557,0.084,0.835,0.127c0.345,0.055,0.605,0.028,0.784-0.07
					c0.181-0.101,0.287-0.254,0.324-0.469c0.306-1.779,0.61-3.559,0.912-5.34c0.072-0.432,0.019-0.761-0.162-0.996
					c-0.183-0.232-0.47-0.377-0.861-0.439c-0.188-0.029-0.375-0.058-0.562-0.085c0.045-0.284,0.09-0.567,0.137-0.851
					c1.435,0.147,2.869,0.307,4.304,0.478c-0.175,0.979-0.353,1.957-0.528,2.936c0.425-0.94,0.99-1.622,1.705-2.041
					c0.715-0.42,1.463-0.561,2.238-0.419c0.661,0.118,1.152,0.378,1.473,0.763c0.319,0.39,0.426,0.832,0.325,1.331
					c-0.087,0.427-0.289,0.75-0.606,0.966c-0.318,0.216-0.665,0.29-1.045,0.219c-0.337-0.063-0.603-0.231-0.8-0.503
					c-0.197-0.275-0.264-0.59-0.194-0.951c0.037-0.198,0.136-0.396,0.294-0.593c0.084-0.112,0.132-0.192,0.142-0.242
					c0.017-0.089,0.006-0.161-0.03-0.208c-0.039-0.05-0.107-0.084-0.204-0.103c-0.257-0.045-0.561,0.04-0.916,0.255
					c-0.542,0.335-1.055,0.916-1.531,1.745c-0.478,0.827-0.797,1.688-0.961,2.589c-0.119,0.647-0.238,1.296-0.357,1.943
					c-0.041,0.225-0.008,0.407,0.101,0.547c0.11,0.141,0.28,0.232,0.513,0.272C157.812,182.752,158.282,182.834,158.753,182.918z"/>
				<path fill="#0572B7" d="M164.956,175.688c1.488,0.231,2.978,0.471,4.467,0.728c-0.582,2.527-1.17,5.055-1.764,7.58
					c-0.048,0.202-0.016,0.375,0.101,0.518c0.113,0.141,0.313,0.242,0.601,0.306c0.216,0.046,0.431,0.094,0.647,0.142
					c-0.073,0.295-0.144,0.592-0.216,0.886c-1.913-0.424-3.829-0.822-5.747-1.199c0.064-0.296,0.128-0.594,0.191-0.89
					c0.213,0.041,0.425,0.084,0.638,0.125c0.344,0.068,0.6,0.045,0.773-0.074c0.173-0.119,0.299-0.357,0.38-0.721
					c0.384-1.727,0.765-3.455,1.144-5.182c0.07-0.324,0.021-0.598-0.146-0.818c-0.172-0.219-0.438-0.366-0.809-0.44
					c-0.147-0.03-0.296-0.06-0.444-0.088C164.833,176.268,164.896,175.978,164.956,175.688z M168.834,171.082
					c0.487,0.102,0.869,0.34,1.147,0.715c0.279,0.377,0.368,0.781,0.269,1.213c-0.099,0.432-0.355,0.761-0.768,0.991
					c-0.413,0.23-0.856,0.295-1.337,0.195c-0.484-0.098-0.868-0.339-1.146-0.714c-0.278-0.375-0.372-0.777-0.28-1.204
					c0.093-0.435,0.344-0.765,0.756-1C167.889,171.044,168.343,170.981,168.834,171.082z"/>
				<path fill="#0572B7" d="M180.854,185.382c0.234,0.188,0.468,0.378,0.7,0.564c-0.714,0.878-1.582,1.471-2.606,1.786
					c-1.021,0.316-2.118,0.326-3.307,0.026c-1.607-0.399-2.752-1.108-3.451-2.141c-0.696-1.028-0.881-2.239-0.536-3.627
					c0.372-1.492,1.226-2.604,2.58-3.304c1.354-0.699,2.963-0.829,4.802-0.361c1.325,0.334,2.271,0.841,2.831,1.497
					c0.562,0.659,0.738,1.323,0.542,1.995c-0.145,0.488-0.41,0.838-0.796,1.041c-0.387,0.205-0.825,0.242-1.319,0.111
					c-0.43-0.11-0.741-0.312-0.932-0.603c-0.191-0.289-0.237-0.614-0.137-0.971c0.086-0.308,0.326-0.634,0.723-0.968
					c0.167-0.137,0.261-0.244,0.279-0.312c0.036-0.127-0.041-0.265-0.231-0.424c-0.266-0.238-0.65-0.419-1.152-0.548
					c-0.936-0.234-1.683-0.138-2.239,0.292c-0.743,0.564-1.297,1.559-1.672,2.981c-0.375,1.418-0.369,2.485,0.014,3.194
					c0.382,0.709,0.995,1.168,1.842,1.383c0.667,0.172,1.354,0.125,2.065-0.13C179.562,186.608,180.229,186.115,180.854,185.382z"/>
				<path fill="#0572B7" d="M190.553,181.509c1.106,0.333,2.053,0.858,2.831,1.566c0.777,0.711,1.268,1.479,1.472,2.298
					c0.205,0.821,0.134,1.704-0.209,2.654c-0.549,1.518-1.544,2.492-2.966,2.944c-1.424,0.451-2.84,0.463-4.27,0.03
					c-1.012-0.304-1.867-0.785-2.575-1.451c-0.709-0.666-1.181-1.418-1.417-2.261c-0.235-0.843-0.222-1.716,0.053-2.618
					c0.415-1.358,1.284-2.352,2.633-2.965C187.451,181.092,188.939,181.025,190.553,181.509z M190.324,182.414
					c-0.729-0.221-1.401-0.106-2.016,0.337c-0.613,0.444-1.148,1.385-1.606,2.818c-0.478,1.491-0.6,2.575-0.37,3.263
					c0.233,0.686,0.698,1.132,1.401,1.344c0.719,0.218,1.395,0.106,2.033-0.334c0.642-0.439,1.206-1.365,1.694-2.777
					c0.499-1.448,0.626-2.528,0.372-3.242C191.581,183.111,191.076,182.639,190.324,182.414z"/>
			</g>
		</g>
	</g>
</g>
</svg>
