<?xml version="1.0" encoding="utf-8"?>
<!-- Generator: Adobe Illustrator 16.0.4, SVG Export Plug-In . SVG Version: 6.00 Build 0)  -->
<!DOCTYPE svg PUBLIC "-//W3C//DTD SVG 1.1//EN" "http://www.w3.org/Graphics/SVG/1.1/DTD/svg11.dtd">
<svg version="1.1" id="Livello_1" xmlns="http://www.w3.org/2000/svg" xmlns:xlink="http://www.w3.org/1999/xlink" x="0px" y="0px"
	 width="224.157px" height="236.048px" viewBox="0 0 224.157 236.048" enable-background="new 0 0 224.157 236.048"
	 xml:space="preserve">
<g>
	<circle fill="#FFFFFF" stroke="#0572B7" stroke-miterlimit="10" cx="112.079" cy="93.048" r="84"/>
	<circle fill="#FFFFFF" stroke="#0572B7" stroke-width="5" stroke-miterlimit="10" cx="112.08" cy="93.048" r="75.216"/>
	<path fill="none" d="M48.61,76.194h31.434v31.435H48.61V76.194z"/>
	<rect x="137.085" y="114.397" fill="none" width="24.543" height="24.956"/>
	<path fill="#0572B7" d="M98.044,27.812c-1.9,12.684-12.439,17.483-25.268,17.134v13.188H94.47v47.195h17.504V27.812H98.044z"/>
	<rect x="114.294" y="75.57" fill="none" width="58.588" height="38.759"/>
	<text transform="matrix(1 0 0 1 114.293 105.5)" fill="#0572B7" font-family="'Raleway-Bold'" font-size="41">st </text>
	<rect x="70.079" y="108.048" fill="none" width="100.402" height="38.759"/>
	<text transform="matrix(1 0 0 1 70.0791 135.0576)" fill="#0572B7" font-family="'Raleway-Bold'" font-size="37">TIME </text>
</g>
<g>
	<g>
		<g>
			<path fill="#FFFFFF" stroke="#0572B7" stroke-width="5" stroke-miterlimit="10" d="M202.478,208.767
				c-1.189-9.247-2.857-18.545-5.008-27.853c7.422-6.014,15.252-11.731,23.476-17.112c-69.825-28.682-148.211-28.5-217.928,0.544
				c0.072,0.174,0.146,0.349,0.218,0.522c8.497,5.508,16.578,11.376,24.225,17.561c-1.982,8.803-3.534,17.594-4.659,26.342
				C80.355,185.128,144.922,185.126,202.478,208.767L202.478,208.767L202.478,208.767z"/>
		</g>
	</g>
	<g>
		<g>
			<path fill="#0572B7" d="M42.798,160.743c3.426-1.062,6.858-2.047,10.299-2.953c1.746-0.46,3.254-0.438,4.502,0.047
				c1.248,0.486,1.999,1.279,2.265,2.359c0.202,0.825,0.08,1.613-0.366,2.376c-0.445,0.761-1.13,1.406-2.058,1.936
				c-0.929,0.532-1.881,0.927-2.86,1.188c-1.049,0.279-2.098,0.566-3.146,0.863c0.448,1.508,0.899,3.016,1.355,4.523
				c0.075,0.249,0.221,0.419,0.432,0.508c0.214,0.092,0.454,0.097,0.722,0.023c0.635-0.176,1.268-0.352,1.9-0.52
				c0.085,0.29,0.168,0.584,0.252,0.875c-2.924,0.786-5.844,1.634-8.757,2.54c-0.096-0.288-0.192-0.578-0.29-0.865
				c0.49-0.154,0.98-0.303,1.471-0.453c0.326-0.097,0.552-0.244,0.675-0.429c0.124-0.188,0.146-0.406,0.065-0.655
				c-1.125-3.506-2.234-7.016-3.328-10.526c-0.074-0.237-0.225-0.396-0.447-0.479c-0.224-0.081-0.466-0.087-0.727-0.006
				c-0.56,0.169-1.119,0.341-1.679,0.515C42.984,161.321,42.893,161.032,42.798,160.743z M51.181,165.706
				c0.702-0.198,1.405-0.394,2.108-0.585c0.738-0.201,1.356-0.504,1.859-0.911c0.504-0.41,0.828-0.829,0.974-1.26
				c0.144-0.43,0.107-1.061-0.111-1.885c-0.301-1.135-0.893-1.841-1.784-2.105c-0.648-0.188-1.653-0.105-3.006,0.265
				c-0.782,0.214-1.264,0.403-1.442,0.566c-0.181,0.161-0.232,0.368-0.159,0.619C50.137,162.177,50.655,163.94,51.181,165.706z"/>
			<path fill="#0572B7" d="M76.189,166.386c0.199,0.206,0.4,0.41,0.599,0.612c-0.41,0.349-0.785,0.603-1.129,0.771
				c-0.343,0.164-0.731,0.289-1.164,0.367c-0.641,0.115-1.185,0.095-1.626-0.062c-0.442-0.157-0.896-0.527-1.357-1.109
				c-0.634,0.794-1.228,1.369-1.781,1.725c-0.555,0.357-1.212,0.612-1.971,0.776c-1.051,0.224-1.915,0.198-2.604-0.081
				c-0.688-0.281-1.111-0.73-1.266-1.369c-0.232-0.957,0.134-1.851,1.11-2.676c0.786-0.652,2.638-1.545,5.582-2.596
				c-0.088-0.432-0.175-0.863-0.261-1.293c-0.104-0.512-0.393-0.889-0.869-1.13c-0.476-0.244-1.065-0.293-1.756-0.151
				c-0.529,0.107-0.974,0.298-1.339,0.566c-0.243,0.178-0.354,0.328-0.327,0.448c0.015,0.062,0.084,0.149,0.214,0.255
				c0.28,0.24,0.449,0.504,0.512,0.781c0.076,0.357-0.001,0.675-0.237,0.955c-0.237,0.278-0.589,0.471-1.066,0.574
				c-0.505,0.111-0.938,0.077-1.301-0.09c-0.364-0.167-0.589-0.441-0.677-0.815c-0.145-0.616,0.134-1.253,0.842-1.9
				c0.883-0.806,2.094-1.373,3.617-1.681c1.147-0.234,2.196-0.282,3.144-0.156c0.606,0.077,1.129,0.316,1.57,0.717
				c0.44,0.4,0.723,0.939,0.85,1.618c0.286,1.521,0.572,3.042,0.859,4.563c0.064,0.345,0.188,0.582,0.368,0.708
				c0.179,0.125,0.401,0.17,0.663,0.121C75.604,166.796,75.873,166.646,76.189,166.386z M70.751,163.577
				c-1.597,0.501-2.641,1.019-3.131,1.523c-0.489,0.505-0.66,1.075-0.52,1.704c0.102,0.442,0.312,0.758,0.632,0.94
				s0.72,0.227,1.199,0.125c0.744-0.152,1.31-0.506,1.71-1.055c0.399-0.55,0.521-1.219,0.361-2.002
				C70.918,164.4,70.834,163.989,70.751,163.577z"/>
			<path fill="#0572B7" d="M85.438,165.214c0.041,0.3,0.082,0.6,0.123,0.9c-2.453,0.32-4.903,0.679-7.35,1.082
				c-0.052-0.299-0.104-0.598-0.155-0.896c0.305-0.049,0.61-0.102,0.913-0.147c0.376-0.061,0.642-0.165,0.793-0.318
				c0.151-0.152,0.211-0.335,0.177-0.547c-0.288-1.781-0.576-3.562-0.86-5.344c-0.069-0.432-0.238-0.728-0.507-0.892
				c-0.269-0.162-0.618-0.21-1.046-0.14c-0.207,0.034-0.413,0.065-0.618,0.101c-0.048-0.283-0.096-0.566-0.144-0.849
				c1.551-0.321,3.103-0.628,4.657-0.921c0.145,0.982,0.289,1.965,0.435,2.947c0.123-1.023,0.488-1.85,1.093-2.471
				c0.603-0.621,1.337-0.986,2.19-1.096c0.73-0.09,1.324-0.004,1.785,0.268c0.462,0.271,0.721,0.656,0.78,1.162
				c0.051,0.433-0.051,0.801-0.309,1.104c-0.258,0.302-0.594,0.479-1.011,0.53c-0.371,0.046-0.704-0.032-1.002-0.229
				c-0.297-0.199-0.47-0.479-0.518-0.84c-0.026-0.2,0.009-0.418,0.106-0.654c0.051-0.132,0.075-0.225,0.067-0.274
				c-0.013-0.088-0.047-0.154-0.102-0.189c-0.056-0.033-0.139-0.046-0.247-0.031c-0.279,0.037-0.57,0.209-0.866,0.527
				c-0.453,0.486-0.793,1.197-1.012,2.134c-0.22,0.931-0.258,1.853-0.126,2.755c0.096,0.65,0.191,1.303,0.287,1.952
				c0.034,0.226,0.131,0.388,0.291,0.487c0.162,0.098,0.369,0.131,0.625,0.096C84.405,165.352,84.922,165.28,85.438,165.214z"/>
			<path fill="#0572B7" d="M100.338,161.376c0.305,0.103,0.611,0.204,0.914,0.308c-0.403,1.054-1.063,1.891-1.98,2.519
				c-0.918,0.623-2.025,0.992-3.339,1.099c-1.777,0.149-3.203-0.136-4.297-0.871c-1.094-0.736-1.727-1.807-1.888-3.224
				c-0.174-1.525,0.293-2.85,1.418-3.96c1.124-1.109,2.72-1.757,4.762-1.92c1.469-0.117,2.61,0.053,3.417,0.491
				c0.807,0.44,1.228,1.014,1.271,1.707c0.029,0.509-0.113,0.918-0.43,1.234c-0.318,0.315-0.749,0.49-1.296,0.53
				c-0.479,0.032-0.865-0.054-1.164-0.266c-0.299-0.21-0.463-0.502-0.493-0.87c-0.024-0.319,0.103-0.701,0.383-1.145
				c0.118-0.186,0.176-0.314,0.172-0.384c-0.012-0.13-0.141-0.235-0.391-0.324c-0.357-0.136-0.814-0.183-1.369-0.141
				c-1.037,0.082-1.763,0.421-2.172,1.007c-0.551,0.773-0.753,1.895-0.613,3.352c0.142,1.457,0.541,2.456,1.191,2.995
				c0.65,0.541,1.44,0.77,2.376,0.697c0.74-0.06,1.42-0.324,2.045-0.793C99.479,162.946,99.974,162.271,100.338,161.376z"/>
			<path fill="#0572B7" d="M102.083,150.115c1.768-0.165,3.537-0.306,5.31-0.432c0.071,2.37,0.141,4.739,0.213,7.107
				c0.763-0.832,1.478-1.397,2.139-1.71c0.661-0.311,1.39-0.469,2.183-0.479c1.099-0.013,1.942,0.262,2.522,0.817
				c0.657,0.639,0.979,1.54,0.975,2.706c-0.007,1.445-0.014,2.89-0.02,4.336c-0.002,0.302,0.076,0.52,0.233,0.66
				c0.156,0.139,0.387,0.213,0.685,0.215c0.244,0.002,0.488,0.006,0.731,0.008c-0.003,0.303-0.006,0.605-0.011,0.908
				c-2.121-0.023-4.242-0.019-6.363,0.017c-0.005-0.301-0.011-0.605-0.016-0.908c0.229-0.005,0.461-0.007,0.69-0.011
				c0.387-0.004,0.646-0.068,0.78-0.195c0.189-0.162,0.278-0.393,0.276-0.686c-0.013-1.418-0.025-2.838-0.039-4.258
				c-0.005-0.613-0.205-1.098-0.603-1.453c-0.397-0.358-0.895-0.529-1.486-0.521c-0.735,0.016-1.36,0.283-1.876,0.812
				c-0.516,0.53-0.756,1.236-0.729,2.121c0.034,1.13,0.069,2.258,0.104,3.388c0.009,0.293,0.096,0.506,0.264,0.646
				c0.166,0.141,0.398,0.202,0.703,0.195c0.258-0.006,0.513-0.014,0.77-0.019c0.008,0.304,0.014,0.606,0.021,0.908
				c-2.188,0.052-4.377,0.127-6.564,0.241c-0.017-0.303-0.033-0.604-0.049-0.906c0.306-0.016,0.611-0.03,0.917-0.046
				c0.325-0.015,0.567-0.102,0.727-0.258c0.159-0.157,0.233-0.375,0.221-0.654c-0.161-3.58-0.317-7.162-0.474-10.742
				c-0.012-0.313-0.145-0.553-0.396-0.72c-0.251-0.17-0.581-0.245-0.988-0.224c-0.268,0.013-0.535,0.026-0.802,0.041
				C102.114,150.72,102.098,150.419,102.083,150.115z"/>
			<path fill="#0572B7" d="M130.204,160.271c-2.517-0.176-5.035-0.308-7.554-0.397c-0.024,1.285,0.245,2.237,0.797,2.869
				c0.553,0.631,1.277,0.964,2.182,1.012c0.648,0.032,1.27-0.09,1.871-0.367c0.6-0.277,1.232-0.807,1.905-1.584
				c0.268,0.164,0.535,0.328,0.803,0.494c-0.719,0.928-1.498,1.577-2.35,1.947c-0.852,0.369-1.867,0.523-3.054,0.468
				c-1.728-0.08-3.104-0.581-4.152-1.521c-1.048-0.938-1.565-2.119-1.535-3.545c0.03-1.428,0.606-2.604,1.75-3.533
				c1.144-0.923,2.541-1.358,4.177-1.283c1.132,0.05,2.094,0.296,2.882,0.726c0.789,0.433,1.381,1.03,1.778,1.799
				C130.1,158.122,130.267,159.093,130.204,160.271z M122.683,158.985c1.205,0.044,2.406,0.096,3.611,0.158
				c0.341,0.02,0.584-0.041,0.738-0.175c0.155-0.137,0.242-0.392,0.265-0.769c0.043-0.752-0.129-1.35-0.519-1.783
				c-0.389-0.436-0.905-0.668-1.546-0.699c-0.759-0.034-1.35,0.221-1.772,0.766C123.037,157.027,122.78,157.863,122.683,158.985z"/>
			<path fill="#0572B7" d="M142.026,156.736c1.053-0.813,2.054-1.157,2.983-1.034c0.473,0.061,0.836,0.227,1.087,0.49
				c0.255,0.266,0.353,0.574,0.303,0.929c-0.047,0.315-0.189,0.557-0.43,0.716c-0.241,0.158-0.526,0.217-0.854,0.176
				c-0.46-0.061-0.765-0.309-0.914-0.741c-0.093-0.263-0.226-0.403-0.398-0.425c-0.219-0.028-0.541,0.126-0.967,0.465
				c0.76,0.809,1.079,1.604,0.976,2.385c-0.081,0.607-0.353,1.129-0.807,1.57c-0.454,0.442-1.097,0.757-1.921,0.955
				c-0.827,0.196-1.827,0.231-3.008,0.107c-0.406-0.049-0.814-0.098-1.221-0.146c-0.906-0.087-1.529-0.068-1.863,0.058
				c-0.344,0.125-0.523,0.309-0.546,0.555c-0.021,0.214,0.067,0.377,0.263,0.501c0.252,0.167,0.67,0.274,1.251,0.332
				c0.351,0.023,0.699,0.048,1.048,0.073c1.132,0.061,1.966,0.129,2.494,0.187c1.765,0.195,2.964,0.567,3.592,1.082
				s0.886,1.154,0.781,1.907c-0.128,0.906-0.621,1.58-1.473,2.03c-1.038,0.554-2.727,0.683-5.076,0.435
				c-2.003-0.212-3.393-0.537-4.169-1.017c-0.775-0.481-1.146-0.988-1.1-1.544c0.03-0.345,0.23-0.629,0.604-0.863
				c0.375-0.23,1.14-0.412,2.304-0.535c-0.732-0.197-1.271-0.469-1.619-0.811c-0.347-0.343-0.504-0.761-0.461-1.253
				c0.038-0.448,0.214-0.814,0.526-1.104c0.312-0.286,0.85-0.518,1.613-0.691c-0.672-0.388-1.17-0.818-1.487-1.296
				c-0.317-0.479-0.454-1.003-0.407-1.572c0.054-0.615,0.296-1.154,0.736-1.617c0.438-0.464,1.088-0.805,1.945-1.024
				c0.857-0.218,1.886-0.27,3.075-0.143c0.566,0.06,1.11,0.161,1.632,0.305C141.044,156.321,141.544,156.509,142.026,156.736z
				 M141.985,167.548c0.05-0.38-0.159-0.688-0.631-0.926c-0.321-0.161-1.061-0.315-2.222-0.445c-2.097-0.23-3.462-0.236-4.091-0.045
				c-0.632,0.191-0.962,0.47-0.996,0.841c-0.034,0.349,0.174,0.664,0.618,0.944c0.445,0.278,1.316,0.481,2.618,0.615
				c1.693,0.177,2.936,0.15,3.728-0.101C141.606,168.235,141.934,167.944,141.985,167.548z M138.726,156.72
				c-0.539-0.059-1.021,0.107-1.45,0.485c-0.427,0.381-0.677,0.964-0.755,1.747c-0.074,0.758,0.057,1.358,0.389,1.795
				c0.335,0.439,0.77,0.685,1.312,0.742c0.532,0.057,1.014-0.104,1.444-0.473c0.431-0.37,0.691-0.932,0.779-1.682
				c0.088-0.757-0.036-1.367-0.377-1.831C139.729,157.04,139.278,156.778,138.726,156.72z"/>
			<path fill="#0572B7" d="M156.69,158.955c1.112-0.742,2.139-1.024,3.066-0.841c0.472,0.094,0.826,0.281,1.062,0.56
				c0.235,0.281,0.317,0.597,0.243,0.946c-0.065,0.312-0.226,0.541-0.479,0.687c-0.255,0.143-0.545,0.184-0.87,0.12
				c-0.456-0.092-0.75-0.354-0.87-0.799c-0.077-0.268-0.201-0.418-0.373-0.449c-0.22-0.041-0.551,0.093-1.002,0.402
				c0.709,0.854,0.98,1.67,0.824,2.442c-0.12,0.601-0.428,1.103-0.913,1.517c-0.488,0.408-1.152,0.688-1.995,0.828
				c-0.842,0.148-1.85,0.115-3.027-0.085c-0.405-0.076-0.811-0.148-1.217-0.222c-0.905-0.147-1.529-0.167-1.873-0.062
				c-0.353,0.103-0.547,0.275-0.586,0.519c-0.034,0.213,0.044,0.381,0.231,0.517c0.241,0.18,0.653,0.318,1.234,0.41
				c0.35,0.046,0.696,0.093,1.046,0.142c1.134,0.134,1.967,0.253,2.493,0.346c1.757,0.308,2.938,0.756,3.535,1.311
				c0.6,0.555,0.814,1.208,0.658,1.955c-0.189,0.896-0.729,1.538-1.616,1.931c-1.08,0.486-2.786,0.506-5.128,0.106
				c-1.998-0.337-3.367-0.753-4.114-1.28c-0.746-0.527-1.083-1.06-0.999-1.61c0.052-0.341,0.272-0.618,0.662-0.822
				c0.391-0.206,1.174-0.342,2.348-0.388c-0.721-0.242-1.246-0.547-1.57-0.912c-0.326-0.364-0.455-0.794-0.38-1.28
				c0.069-0.445,0.27-0.801,0.602-1.067c0.331-0.267,0.886-0.465,1.664-0.588c-0.647-0.43-1.118-0.893-1.406-1.389
				c-0.289-0.496-0.392-1.027-0.306-1.594c0.092-0.613,0.371-1.132,0.844-1.568c0.471-0.434,1.143-0.736,2.018-0.896
				c0.876-0.163,1.91-0.151,3.099,0.053c0.562,0.096,1.103,0.234,1.619,0.41C155.73,158.479,156.223,158.695,156.69,158.955z
				 M155.935,169.743c0.075-0.377-0.113-0.698-0.57-0.964c-0.312-0.182-1.046-0.384-2.203-0.587
				c-2.091-0.366-3.459-0.456-4.104-0.308c-0.646,0.151-0.996,0.406-1.054,0.776c-0.057,0.348,0.129,0.674,0.557,0.98
				c0.426,0.307,1.289,0.563,2.586,0.782c1.688,0.284,2.937,0.338,3.75,0.139C155.511,170.406,155.854,170.132,155.935,169.743z
				 M153.376,158.727c-0.536-0.09-1.034,0.039-1.487,0.393c-0.452,0.352-0.742,0.918-0.872,1.694
				c-0.126,0.752-0.032,1.355,0.272,1.816c0.308,0.459,0.728,0.734,1.268,0.824c0.532,0.092,1.024-0.038,1.482-0.379
				c0.456-0.344,0.754-0.885,0.893-1.628c0.138-0.749,0.054-1.368-0.259-1.853C154.362,159.11,153.929,158.82,153.376,158.727z"/>
			<path fill="#0572B7" d="M162.487,160.094c1.634,0.279,3.269,0.577,4.901,0.891c-0.606,2.521-1.221,5.04-1.839,7.557
				c-0.05,0.203-0.012,0.374,0.114,0.523c0.128,0.147,0.347,0.258,0.661,0.331c0.235,0.057,0.472,0.111,0.707,0.168
				c-0.075,0.293-0.15,0.588-0.226,0.882c-2.093-0.501-4.188-0.972-6.287-1.413c0.065-0.295,0.133-0.591,0.198-0.887
				c0.232,0.049,0.465,0.097,0.697,0.146c0.374,0.08,0.654,0.064,0.843-0.049c0.188-0.115,0.322-0.35,0.407-0.712
				c0.396-1.722,0.79-3.444,1.182-5.168c0.075-0.322,0.02-0.602-0.171-0.827c-0.19-0.229-0.483-0.385-0.89-0.47
				c-0.163-0.034-0.326-0.069-0.488-0.103C162.362,160.673,162.424,160.383,162.487,160.094z M166.674,155.599
				c0.534,0.122,0.958,0.371,1.268,0.763c0.311,0.387,0.415,0.8,0.311,1.23c-0.103,0.432-0.38,0.754-0.829,0.967
				c-0.448,0.214-0.936,0.263-1.462,0.146c-0.533-0.118-0.955-0.372-1.265-0.758c-0.311-0.387-0.418-0.789-0.326-1.221
				c0.097-0.433,0.366-0.76,0.815-0.979C165.636,155.526,166.133,155.479,166.674,155.599z"/>
			<path fill="#0572B7" d="M177.333,163.176c1.221,0.338,2.275,0.871,3.164,1.592c0.887,0.722,1.465,1.502,1.736,2.331
				c0.273,0.828,0.249,1.727-0.065,2.68c-0.502,1.527-1.519,2.502-3.027,2.951c-1.51,0.443-3.038,0.453-4.608,0.015
				c-1.111-0.312-2.067-0.79-2.876-1.46c-0.809-0.666-1.367-1.423-1.678-2.271c-0.312-0.847-0.351-1.729-0.112-2.637
				c0.359-1.369,1.236-2.376,2.655-2.999C173.941,162.753,175.551,162.683,177.333,163.176z M177.143,164.089
				c-0.806-0.223-1.529-0.11-2.164,0.338c-0.636,0.448-1.154,1.396-1.559,2.842c-0.421,1.502-0.483,2.597-0.191,3.289
				c0.294,0.688,0.825,1.14,1.6,1.354c0.789,0.218,1.513,0.108,2.177-0.333s1.221-1.375,1.659-2.795c0.451-1.46,0.52-2.55,0.2-3.271
				C178.546,164.794,177.972,164.317,177.143,164.089z"/>
			<path fill="#0572B7" d="M44.327,178.176c3.153-1.045,6.314-2.017,9.484-2.914c1.611-0.458,3.019-0.436,4.207,0.046
				c1.19,0.484,1.926,1.27,2.227,2.347c0.229,0.817,0.15,1.605-0.227,2.36c-0.376,0.756-0.98,1.398-1.818,1.923
				c-0.838,0.527-1.703,0.917-2.602,1.177c-0.963,0.276-1.923,0.56-2.884,0.85c0.499,1.496,1.003,2.994,1.508,4.49
				c0.083,0.248,0.228,0.416,0.431,0.506c0.201,0.088,0.426,0.097,0.67,0.024c0.58-0.172,1.158-0.342,1.736-0.51
				c0.095,0.29,0.188,0.58,0.281,0.87c-2.672,0.771-5.334,1.601-7.99,2.483c-0.107-0.286-0.213-0.571-0.32-0.857
				c0.447-0.147,0.893-0.298,1.34-0.442c0.299-0.098,0.502-0.235,0.604-0.423c0.104-0.185,0.113-0.4,0.024-0.647
				c-1.247-3.479-2.478-6.962-3.69-10.445c-0.083-0.234-0.23-0.393-0.444-0.477c-0.214-0.082-0.44-0.087-0.681-0.007
				c-0.516,0.168-1.029,0.334-1.545,0.506C44.535,178.748,44.431,178.463,44.327,178.176z M52.433,183.116
				c0.645-0.193,1.289-0.388,1.935-0.574c0.677-0.201,1.236-0.496,1.685-0.903c0.448-0.406,0.729-0.821,0.842-1.249
				c0.114-0.428,0.049-1.054-0.197-1.873c-0.339-1.126-0.924-1.827-1.771-2.092c-0.614-0.188-1.549-0.105-2.795,0.26
				c-0.72,0.213-1.16,0.397-1.319,0.561c-0.159,0.16-0.199,0.367-0.117,0.614C51.271,179.612,51.85,181.364,52.433,183.116z"/>
			<path fill="#0572B7" d="M65.979,183.913c0.484-0.118,0.942-0.051,1.365,0.183c0.424,0.236,0.69,0.578,0.803,1.022
				c0.113,0.449,0.041,0.868-0.216,1.266c-0.258,0.396-0.621,0.647-1.1,0.762c-0.47,0.112-0.912,0.054-1.338-0.18
				c-0.424-0.232-0.698-0.573-0.821-1.02c-0.12-0.442-0.056-0.862,0.203-1.262C65.133,184.285,65.5,184.027,65.979,183.913z"/>
			<path fill="#0572B7" d="M67.063,171.935c1.602-0.423,3.203-0.829,4.81-1.217c0.887,4.247,1.786,8.495,2.703,12.74
				c0.048,0.229,0.168,0.395,0.354,0.494c0.186,0.103,0.426,0.121,0.724,0.065c0.202-0.039,0.406-0.079,0.608-0.116
				c0.062,0.297,0.123,0.594,0.186,0.891c-1.933,0.363-3.863,0.757-5.79,1.178c-0.069-0.295-0.144-0.59-0.214-0.886
				c0.221-0.048,0.441-0.096,0.659-0.142c0.303-0.067,0.511-0.187,0.623-0.369c0.112-0.18,0.135-0.422,0.064-0.73
				c-0.806-3.479-1.599-6.957-2.382-10.438c-0.073-0.324-0.232-0.553-0.478-0.685c-0.243-0.132-0.544-0.161-0.896-0.085
				c-0.256,0.056-0.514,0.112-0.771,0.167C67.199,172.512,67.13,172.225,67.063,171.935z"/>
			<path fill="#0572B7" d="M87.437,178.472c-2.312,0.299-4.621,0.639-6.929,1.018c0.246,1.263,0.692,2.146,1.325,2.663
				c0.635,0.518,1.361,0.71,2.188,0.587c0.593-0.09,1.128-0.322,1.613-0.708c0.483-0.385,0.946-1.022,1.394-1.908
				c0.277,0.112,0.552,0.222,0.827,0.335c-0.457,1.043-1.026,1.825-1.718,2.346c-0.691,0.522-1.576,0.86-2.661,1.026
				c-1.577,0.241-2.931,0.004-4.082-0.723c-1.148-0.729-1.873-1.785-2.147-3.188s0-2.664,0.852-3.784
				c0.848-1.116,2.035-1.803,3.54-2.033c1.04-0.161,1.966-0.1,2.77,0.175c0.805,0.277,1.463,0.753,1.979,1.43
				C86.903,176.386,87.253,177.306,87.437,178.472z M80.353,178.612c1.103-0.182,2.207-0.353,3.311-0.515
				c0.312-0.044,0.521-0.146,0.633-0.311c0.113-0.161,0.142-0.427,0.083-0.802c-0.117-0.749-0.395-1.296-0.837-1.651
				c-0.443-0.354-0.963-0.485-1.551-0.396c-0.694,0.106-1.183,0.47-1.454,1.079C80.264,176.629,80.205,177.494,80.353,178.612z"/>
			<path fill="#0572B7" d="M103.08,166.726c2.298,4.208,4.471,8.451,6.515,12.723c0.177,0.361,0.363,0.602,0.561,0.73
				c0.199,0.125,0.455,0.188,0.776,0.181c0.187-0.003,0.374-0.006,0.562-0.009c0.005,0.303,0.01,0.604,0.014,0.907
				c-2.397,0.036-4.794,0.11-7.189,0.231c-0.017-0.302-0.033-0.606-0.05-0.908c0.227-0.013,0.45-0.021,0.677-0.032
				c0.534-0.022,0.899-0.095,1.096-0.214c0.195-0.118,0.292-0.27,0.284-0.452c-0.008-0.14-0.057-0.306-0.147-0.492
				c-0.438-0.874-0.879-1.749-1.327-2.621c-1.959,0.091-3.918,0.205-5.876,0.353c-0.153,0.418-0.305,0.84-0.456,1.258
				c-0.189,0.522-0.273,0.912-0.253,1.156c0.036,0.421,0.233,0.75,0.589,0.988c0.355,0.234,0.82,0.336,1.396,0.295
				c0.165-0.011,0.326-0.021,0.49-0.032c0.021,0.302,0.045,0.603,0.065,0.906c-1.938,0.129-3.878,0.286-5.813,0.471
				c-0.032-0.301-0.062-0.602-0.096-0.903c0.111-0.012,0.223-0.021,0.334-0.032c0.375-0.033,0.695-0.178,0.959-0.421
				c0.373-0.348,0.65-0.774,0.831-1.278c1.477-4.262,3.08-8.509,4.806-12.735C102.244,166.771,102.663,166.747,103.08,166.726z
				 M101.517,170.476c-0.751,1.883-1.477,3.771-2.178,5.659c1.676-0.119,3.354-0.221,5.03-0.3
				C103.44,174.042,102.49,172.255,101.517,170.476z"/>
			<path fill="#0572B7" d="M114.305,178.2c0.492,0,0.909,0.163,1.255,0.492c0.345,0.328,0.514,0.72,0.51,1.174
				c-0.004,0.464-0.179,0.854-0.524,1.18c-0.344,0.322-0.755,0.484-1.239,0.484c-0.475,0.001-0.885-0.16-1.229-0.482
				c-0.346-0.325-0.522-0.718-0.526-1.178c-0.004-0.457,0.165-0.85,0.509-1.176C113.403,178.365,113.819,178.202,114.305,178.2z"/>
			<path fill="#0572B7" d="M118.404,167.737c0.006-0.304,0.012-0.604,0.018-0.907c2.819,0.051,5.641,0.155,8.459,0.315
				c-0.019,0.301-0.036,0.603-0.054,0.906c-0.473-0.026-0.947-0.053-1.421-0.075c-0.405-0.022-0.693,0.036-0.864,0.164
				c-0.168,0.129-0.262,0.345-0.275,0.652c-0.169,3.575-0.343,7.152-0.52,10.73c-0.021,0.436,0.039,0.718,0.178,0.844
				c0.14,0.128,0.481,0.2,1.021,0.23c0.739,0.038,1.478,0.081,2.217,0.125c0.824,0.052,1.62-0.264,2.397-0.943
				s1.431-1.81,1.964-3.386c0.319,0.025,0.639,0.053,0.958,0.08c-0.292,1.828-0.58,3.656-0.867,5.485
				c-4.487-0.377-8.98-0.607-13.475-0.688c0.007-0.301,0.012-0.604,0.019-0.908c0.451,0.01,0.901,0.021,1.353,0.029
				c0.299,0.008,0.524-0.056,0.684-0.197c0.159-0.14,0.239-0.338,0.248-0.599c0.118-3.683,0.232-7.359,0.346-11.04
				c0.009-0.266-0.067-0.461-0.23-0.587c-0.164-0.127-0.448-0.192-0.855-0.204C119.271,167.755,118.838,167.746,118.404,167.737z"/>
			<path fill="#0572B7" d="M144.305,178.861c-2.312-0.332-4.625-0.624-6.938-0.879c-0.132,1.276,0.034,2.247,0.49,2.911
				c0.454,0.666,1.094,1.045,1.921,1.149c0.594,0.074,1.177-0.013,1.756-0.248c0.578-0.241,1.208-0.725,1.897-1.458
				c0.232,0.184,0.465,0.361,0.696,0.543c-0.746,0.881-1.522,1.479-2.34,1.791c-0.816,0.314-1.767,0.406-2.851,0.273
				c-1.582-0.191-2.805-0.78-3.689-1.786c-0.883-1.005-1.266-2.216-1.119-3.635c0.143-1.418,0.773-2.558,1.905-3.405
				c1.132-0.852,2.462-1.186,3.969-1.007c1.043,0.122,1.915,0.431,2.607,0.909s1.189,1.114,1.489,1.904
				S144.466,177.69,144.305,178.861z M137.471,177.1c1.107,0.12,2.213,0.251,3.319,0.391c0.311,0.041,0.544-0.004,0.697-0.128
				c0.155-0.127,0.259-0.373,0.311-0.748c0.105-0.747-0.001-1.352-0.325-1.811c-0.324-0.458-0.782-0.723-1.371-0.795
				c-0.696-0.082-1.268,0.131-1.704,0.647C137.961,175.169,137.654,175.985,137.471,177.1z"/>
			<path fill="#0572B7" d="M152.961,175.058c1.132,0.205,2.131,0.621,2.983,1.24c0.853,0.616,1.426,1.33,1.724,2.119
				c0.301,0.795,0.331,1.677,0.106,2.657c-0.362,1.565-1.223,2.642-2.562,3.246c-1.339,0.605-2.724,0.773-4.177,0.511
				c-1.027-0.187-1.923-0.565-2.7-1.143s-1.336-1.265-1.675-2.075c-0.34-0.81-0.436-1.677-0.28-2.602
				c0.234-1.395,0.963-2.483,2.215-3.249C149.846,174.997,151.307,174.758,152.961,175.058z M152.848,175.981
				c-0.746-0.136-1.398,0.055-1.948,0.562c-0.551,0.512-0.958,1.506-1.23,2.98c-0.284,1.533-0.269,2.624,0.043,3.277
				c0.312,0.652,0.824,1.043,1.538,1.172c0.731,0.133,1.378-0.054,1.952-0.561c0.573-0.51,1.02-1.489,1.328-2.944
				c0.316-1.493,0.312-2.578-0.024-3.258C154.17,176.534,153.615,176.122,152.848,175.981z"/>
			<path fill="#0572B7" d="M171.636,188.417c-0.094,0.291-0.188,0.579-0.28,0.87c-1.909-0.549-3.825-1.073-5.741-1.563
				c0.084-0.293,0.168-0.586,0.252-0.877c0.202,0.051,0.403,0.105,0.605,0.156c0.32,0.082,0.584,0.073,0.784-0.038
				c0.203-0.107,0.345-0.307,0.431-0.596c0.375-1.274,0.748-2.55,1.12-3.823c0.19-0.653,0.17-1.199-0.065-1.635
				c-0.233-0.439-0.627-0.726-1.169-0.864c-0.741-0.19-1.417-0.094-2.015,0.288s-1.022,1.047-1.277,2.002
				c-0.264,0.987-0.528,1.977-0.795,2.965c-0.079,0.289-0.057,0.528,0.063,0.721c0.121,0.193,0.305,0.316,0.56,0.381
				c0.243,0.061,0.487,0.121,0.73,0.182c-0.082,0.293-0.164,0.586-0.246,0.879c-1.993-0.501-3.991-0.973-5.99-1.412
				c0.073-0.295,0.145-0.591,0.217-0.886c0.261,0.056,0.521,0.114,0.783,0.174c0.303,0.067,0.55,0.042,0.743-0.073
				c0.192-0.115,0.327-0.32,0.399-0.612c0.447-1.765,0.89-3.53,1.33-5.292c0.076-0.306,0.021-0.574-0.166-0.807
				s-0.47-0.394-0.849-0.478c-0.143-0.031-0.286-0.062-0.43-0.095c0.066-0.275,0.133-0.552,0.198-0.828
				c1.419,0.242,2.838,0.499,4.257,0.771c0.008,0.58-0.048,1.254-0.169,2.024c0.765-0.558,1.529-0.931,2.287-1.109
				c0.76-0.178,1.507-0.172,2.243,0.021c1.001,0.264,1.701,0.769,2.103,1.509c0.393,0.738,0.424,1.629,0.105,2.666
				c-0.418,1.356-0.839,2.712-1.26,4.069c-0.1,0.314-0.09,0.56,0.025,0.742c0.114,0.182,0.342,0.32,0.683,0.417
				C171.281,188.314,171.458,188.367,171.636,188.417z"/>
			<path fill="#0572B7" d="M175.971,181.062c1.503,0.381,3,0.777,4.499,1.189c-0.865,2.457-1.737,4.913-2.619,7.366
				c-0.07,0.197-0.055,0.375,0.045,0.527c0.099,0.153,0.293,0.271,0.576,0.367c0.216,0.068,0.429,0.138,0.642,0.209
				c-0.105,0.287-0.212,0.573-0.317,0.859c-1.896-0.622-3.797-1.219-5.7-1.784c0.096-0.289,0.192-0.577,0.288-0.867
				c0.211,0.061,0.422,0.125,0.634,0.188c0.338,0.104,0.604,0.103,0.793,0.004c0.186-0.101,0.343-0.325,0.463-0.68
				c0.574-1.683,1.145-3.362,1.711-5.046c0.107-0.314,0.086-0.596-0.065-0.83c-0.151-0.236-0.408-0.411-0.777-0.521
				c-0.149-0.043-0.299-0.087-0.447-0.133C175.786,181.628,175.879,181.345,175.971,181.062z M180.419,176.873
				c0.49,0.154,0.859,0.431,1.107,0.835c0.248,0.402,0.298,0.819,0.15,1.238c-0.146,0.42-0.446,0.719-0.893,0.906
				c-0.447,0.184-0.911,0.2-1.392,0.052c-0.489-0.153-0.856-0.432-1.103-0.831c-0.248-0.401-0.303-0.816-0.166-1.229
				c0.137-0.423,0.429-0.728,0.878-0.919C179.448,176.734,179.922,176.721,180.419,176.873z"/>
		</g>
	</g>
</g>
</svg>
