<?xml version="1.0" encoding="utf-8"?>
<!-- Generator: Adobe Illustrator 16.0.0, SVG Export Plug-In . SVG Version: 6.00 Build 0)  -->
<!DOCTYPE svg PUBLIC "-//W3C//DTD SVG 1.1//EN" "http://www.w3.org/Graphics/SVG/1.1/DTD/svg11.dtd">
<svg version="1.1" id="Livello_1" xmlns="http://www.w3.org/2000/svg" xmlns:xlink="http://www.w3.org/1999/xlink" x="0px" y="0px"
	 width="224.157px" height="236.048px" viewBox="0 0 224.157 236.048" enable-background="new 0 0 224.157 236.048"
	 xml:space="preserve">
<rect x="133.163" y="126.509" fill="none" width="24.543" height="24.957"/>
<g>
	<circle fill="#FFFFFF" stroke="#BC1818" stroke-miterlimit="10" cx="110.438" cy="96.159" r="84"/>
	<circle fill="#FFFFFF" stroke="#BC1818" stroke-width="5" stroke-miterlimit="10" cx="110.439" cy="96.159" r="75.216"/>
	<path fill="#E41815" d="M96.403,30.923c-1.9,12.684-12.439,17.484-25.268,17.135v13.188h21.693v47.195h17.504V30.923H96.403z"/>
	<rect x="112.653" y="78.683" fill="none" width="58.588" height="38.758"/>
	<text transform="matrix(1 0 0 1 112.6533 108.6123)" fill="#E41815" font-family="'Raleway-Bold'" font-size="41">st </text>
	<rect x="68.438" y="111.159" fill="none" width="100.402" height="38.76"/>
	<text transform="matrix(1 0 0 1 68.4395 138.1689)" fill="#E41815" font-family="'Raleway-Bold'" font-size="37">TIME </text>
</g>
<g>
	<g>
		<path fill="#FFFFFF" stroke="#BC1818" stroke-width="5" stroke-miterlimit="10" d="M202.478,215.533
			c-1.19-9.247-2.857-18.545-5.008-27.853c7.422-6.014,15.253-11.732,23.477-17.112c-69.826-28.681-148.212-28.5-217.929,0.544
			c0.072,0.174,0.146,0.348,0.218,0.522c8.497,5.509,16.579,11.376,24.225,17.56c-1.983,8.803-3.534,17.595-4.659,26.342
			C80.354,191.896,144.923,191.893,202.478,215.533L202.478,215.533L202.478,215.533z"/>
	</g>
</g>
<g>
	<g>
		<path fill="#BC1818" d="M45.035,169.528c1.667-0.687,2.472-2.602,1.78-4.275c-0.691-1.677-2.611-2.469-4.277-1.783
			c-1.675,0.69-2.471,2.602-1.781,4.277C41.448,169.421,43.362,170.218,45.035,169.528z"/>
	</g>
	<g>
		<path fill="#BC1818" d="M50.673,181.179l8.135-3.573l-1.318-3l-6.043,2.655l-5.77-4.084c-0.858-0.617-2.006-0.768-3.043-0.312
			c-0.279,0.123-0.539,0.285-0.764,0.471l-7.804,6.791l2.585,9.203l3-1.317l-1.461-6.645l3.029-2.635l4.708,28.39l2.999-1.318
			l-1.153-15.617l6.159,3.478l3.66,8.332l2.998-1.317l-4.689-10.674l-7.473-5.743l-0.875-5.319L50.673,181.179z"/>
	</g>
</g>
<g>
	<g>
		<path fill="#BC1818" d="M184.166,173.647c1.79,0.219,3.431-1.057,3.647-2.854c0.219-1.801-1.066-3.432-2.854-3.649
			c-1.798-0.22-3.429,1.057-3.649,2.855C181.092,171.795,182.37,173.429,184.166,173.647z"/>
	</g>
	<g>
		<path fill="#BC1818" d="M183.37,186.566l8.842,0.871l0.322-3.261l-6.569-0.646l-3.028-6.389c-0.445-0.957-1.371-1.652-2.498-1.764
			c-0.304-0.029-0.609-0.015-0.896,0.037l-10.131,2.094l-2.257,9.29l3.261,0.321l1.982-6.508l3.933-0.812l-9.811,27.053l3.261,0.321
			l6.647-14.178l3.665,6.049l-0.893,9.058l3.259,0.321l1.144-11.603l-3.699-8.669l1.844-5.065L183.37,186.566z"/>
	</g>
</g>
<g>
	<g>
		<path fill="#BC1818" d="M64.033,176.141c1.858-0.476,3.715-0.929,5.57-1.351c0.069,0.279,0.141,0.558,0.212,0.837
			c-0.107,0.024-0.214,0.049-0.321,0.073c-0.351,0.081-0.585,0.177-0.694,0.287c-0.117,0.109-0.152,0.229-0.12,0.355
			c0.021,0.087,0.074,0.176,0.153,0.257c1.108,1.195,2.204,2.398,3.283,3.608c0.298-1.419,0.615-2.838,0.953-4.258
			c-0.429-0.421-0.736-0.649-0.922-0.689c-0.212-0.054-0.543-0.03-0.991,0.066c-0.068-0.283-0.138-0.559-0.205-0.839
			c2.011-0.444,4.021-0.852,6.027-1.231c0.059,0.281,0.116,0.562,0.175,0.845c-0.119,0.021-0.237,0.042-0.356,0.066
			c-0.368,0.071-0.611,0.162-0.732,0.275c-0.12,0.114-0.163,0.241-0.134,0.381c0.037,0.167,0.127,0.333,0.275,0.495
			c0.978,1.15,1.948,2.309,2.9,3.469c0.33-1.36,0.681-2.718,1.045-4.076c0.025-0.116,0.025-0.236,0.003-0.358
			c-0.044-0.238-0.155-0.408-0.341-0.521c-0.182-0.11-0.401-0.144-0.649-0.099c-0.144,0.023-0.288,0.052-0.433,0.076
			c-0.057-0.281-0.11-0.562-0.166-0.845c1.428-0.257,2.858-0.496,4.282-0.721c0.048,0.282,0.098,0.566,0.145,0.849
			c-0.874,0.188-1.431,0.703-1.658,1.537c-0.699,2.604-1.335,5.208-1.903,7.816c-0.271,0.053-0.54,0.102-0.811,0.153
			c-1.505-1.862-3.04-3.711-4.61-5.539c-0.509,2.263-0.966,4.525-1.369,6.785c-0.274,0.062-0.549,0.124-0.822,0.188
			c-1.99-2.253-4.029-4.478-6.114-6.676c-0.228-0.233-0.438-0.372-0.619-0.426c-0.184-0.054-0.454-0.04-0.81,0.04
			C64.194,176.695,64.112,176.416,64.033,176.141z"/>
		<path fill="#BC1818" d="M97.976,178.511c0.174,0.223,0.349,0.441,0.52,0.664c-0.417,0.307-0.795,0.525-1.133,0.663
			c-0.342,0.134-0.72,0.217-1.137,0.256c-0.621,0.061-1.133-0.015-1.543-0.211c-0.411-0.196-0.814-0.604-1.213-1.227
			c-0.663,0.731-1.271,1.253-1.822,1.556c-0.553,0.306-1.197,0.502-1.933,0.597c-1.016,0.131-1.842,0.03-2.481-0.308
			c-0.643-0.338-1.016-0.826-1.125-1.469c-0.163-0.971,0.247-1.834,1.24-2.566c0.799-0.582,2.642-1.312,5.55-2.093
			c-0.052-0.438-0.1-0.874-0.151-1.312c-0.059-0.517-0.308-0.919-0.747-1.202c-0.441-0.283-1.002-0.388-1.682-0.307
			c-0.516,0.062-0.964,0.212-1.335,0.448c-0.248,0.156-0.364,0.294-0.349,0.419c0.008,0.066,0.07,0.155,0.188,0.271
			c0.251,0.264,0.396,0.538,0.435,0.822c0.049,0.361-0.051,0.67-0.298,0.93c-0.246,0.258-0.604,0.415-1.064,0.479
			c-0.496,0.064-0.912,0.002-1.248-0.2c-0.338-0.199-0.538-0.49-0.596-0.869c-0.096-0.626,0.217-1.233,0.947-1.819
			c0.911-0.729,2.122-1.188,3.617-1.359c1.125-0.132,2.146-0.086,3.044,0.123c0.579,0.133,1.062,0.42,1.455,0.858
			c0.391,0.438,0.619,1.001,0.686,1.688c0.148,1.541,0.301,3.081,0.458,4.619c0.037,0.349,0.135,0.593,0.295,0.739
			c0.161,0.145,0.365,0.204,0.622,0.182C97.388,178.864,97.652,178.741,97.976,178.511z M92.997,175.218
			c-1.573,0.354-2.608,0.779-3.115,1.237c-0.505,0.459-0.709,1.012-0.617,1.65c0.064,0.449,0.244,0.776,0.54,0.991
			c0.293,0.21,0.67,0.287,1.137,0.229c0.72-0.09,1.287-0.383,1.709-0.895c0.422-0.513,0.585-1.163,0.492-1.962
			C93.093,176.053,93.043,175.637,92.997,175.218z"/>
		<path fill="#BC1818" d="M98.573,165.112c1.717-0.194,3.434-0.367,5.155-0.515c0.197,4.328,0.405,8.654,0.622,12.984
			c0.013,0.233,0.105,0.413,0.278,0.54c0.173,0.128,0.416,0.185,0.729,0.169c0.214-0.008,0.428-0.016,0.644-0.023
			c0.013,0.304,0.024,0.603,0.036,0.907c-2.035,0.076-4.072,0.182-6.105,0.326c-0.026-0.302-0.049-0.604-0.073-0.906
			c0.233-0.014,0.465-0.033,0.697-0.048c0.318-0.021,0.552-0.114,0.697-0.275c0.145-0.161,0.207-0.398,0.187-0.712
			c-0.245-3.553-0.477-7.106-0.699-10.662c-0.019-0.327-0.146-0.578-0.376-0.745c-0.229-0.163-0.532-0.235-0.906-0.21
			c-0.272,0.019-0.547,0.037-0.82,0.058C98.616,165.703,98.594,165.408,98.573,165.112z"/>
		<path fill="#BC1818" d="M106.864,164.609c1.738-0.092,3.474-0.159,5.213-0.208c0.006,3.344,0.014,6.687,0.021,10.029
			c1.025-0.727,2.067-1.445,3.12-2.156c0.502-0.348,0.759-0.633,0.763-0.873c0.001-0.149-0.096-0.279-0.298-0.398
			c-0.201-0.115-0.526-0.176-0.98-0.183c-0.125,0-0.248-0.003-0.373-0.004c0.002-0.296,0.007-0.593,0.01-0.889
			c2.077,0.022,4.149,0.074,6.229,0.163c-0.015,0.298-0.024,0.591-0.041,0.889c-0.665-0.01-1.183,0.04-1.562,0.149
			c-0.517,0.147-1.006,0.379-1.468,0.694c-0.607,0.41-1.211,0.823-1.809,1.24c1.266,1.551,2.497,3.107,3.69,4.682
			c0.293,0.368,0.649,0.564,1.077,0.582c0.183,0.007,0.363,0.021,0.544,0.024c-0.018,0.305-0.031,0.604-0.048,0.907
			c-2.123-0.1-4.243-0.162-6.365-0.188c0.005-0.302,0.009-0.604,0.013-0.908c0.21,0.002,0.42,0.007,0.628,0.01
			c0.305,0.005,0.518-0.024,0.643-0.081c0.122-0.061,0.188-0.129,0.19-0.205c0.001-0.072-0.034-0.146-0.104-0.236
			c-0.796-1.034-1.605-2.062-2.432-3.086c-0.478,0.327-0.953,0.653-1.425,0.98c0.003,0.604,0.003,1.21,0.004,1.816
			c0,0.284,0.066,0.49,0.199,0.61c0.131,0.119,0.345,0.18,0.642,0.181c0.236,0,0.473,0.002,0.707,0.003
			c-0.002,0.304-0.005,0.604-0.006,0.908c-2.071-0.015-4.145,0.009-6.213,0.067c-0.011-0.3-0.02-0.605-0.028-0.907
			c0.258-0.009,0.514-0.015,0.771-0.021c0.37-0.008,0.638-0.098,0.807-0.257c0.167-0.163,0.247-0.403,0.24-0.731
			c-0.073-3.666-0.145-7.338-0.212-11.006c-0.004-0.246-0.099-0.435-0.286-0.559c-0.188-0.126-0.449-0.187-0.786-0.18
			c-0.351,0.007-0.698,0.016-1.049,0.027C106.881,165.201,106.874,164.906,106.864,164.609z"/>
		<path fill="#BC1818" d="M123.288,170.228c1.59,0.026,3.183,0.077,4.775,0.147c-0.224,2.58-0.457,5.154-0.695,7.735
			c-0.021,0.208,0.039,0.371,0.178,0.5c0.14,0.129,0.359,0.202,0.664,0.229c0.229,0.021,0.459,0.039,0.687,0.062
			c-0.031,0.302-0.062,0.604-0.095,0.904c-2.026-0.185-4.058-0.338-6.084-0.453c0.02-0.302,0.038-0.603,0.059-0.906
			c0.224,0.012,0.45,0.025,0.674,0.04c0.364,0.023,0.625-0.037,0.784-0.176c0.161-0.137,0.256-0.394,0.283-0.764
			c0.13-1.76,0.26-3.521,0.384-5.28c0.023-0.332-0.069-0.597-0.279-0.793c-0.213-0.196-0.513-0.309-0.908-0.331
			c-0.16-0.01-0.32-0.018-0.479-0.027C123.254,170.819,123.271,170.522,123.288,170.228z M126.624,165.159
			c0.528,0.039,0.968,0.228,1.316,0.564c0.35,0.34,0.508,0.729,0.469,1.171c-0.039,0.44-0.259,0.799-0.652,1.079
			c-0.396,0.279-0.853,0.398-1.369,0.359c-0.524-0.039-0.961-0.222-1.311-0.56c-0.349-0.339-0.513-0.72-0.484-1.157
			c0.026-0.439,0.24-0.807,0.636-1.089C125.624,165.243,126.09,165.12,126.624,165.159z"/>
		<path fill="#BC1818" d="M144.466,181.004c-0.062,0.296-0.125,0.594-0.186,0.893c-2.036-0.364-4.069-0.694-6.104-0.987
			c0.051-0.298,0.1-0.598,0.149-0.897c0.213,0.03,0.428,0.061,0.642,0.094c0.342,0.053,0.61,0.012,0.804-0.117
			c0.195-0.131,0.316-0.336,0.37-0.636c0.229-1.306,0.454-2.609,0.676-3.916c0.112-0.668,0.021-1.211-0.278-1.621
			c-0.299-0.41-0.741-0.657-1.323-0.741c-0.792-0.114-1.475,0.05-2.045,0.493c-0.568,0.44-0.918,1.148-1.058,2.124
			c-0.142,1.009-0.287,2.021-0.436,3.03c-0.046,0.3,0.01,0.535,0.157,0.711c0.148,0.18,0.354,0.282,0.625,0.318
			c0.258,0.038,0.517,0.069,0.774,0.106c-0.046,0.301-0.096,0.599-0.142,0.899c-2.115-0.289-4.226-0.547-6.339-0.764
			c0.037-0.3,0.069-0.602,0.104-0.903c0.276,0.028,0.553,0.058,0.829,0.087c0.32,0.036,0.571-0.02,0.754-0.154
			s0.296-0.352,0.331-0.65c0.23-1.801,0.454-3.602,0.672-5.404c0.037-0.311-0.056-0.572-0.279-0.781
			c-0.227-0.215-0.539-0.339-0.941-0.382c-0.154-0.016-0.305-0.032-0.457-0.048c0.031-0.28,0.062-0.566,0.094-0.845
			c1.497,0.081,3.002,0.188,4.505,0.309c0.085,0.578,0.116,1.251,0.094,2.031c0.714-0.636,1.46-1.082,2.22-1.341
			c0.759-0.257,1.536-0.327,2.325-0.206c1.071,0.163,1.866,0.595,2.373,1.295c0.503,0.699,0.648,1.576,0.45,2.644
			c-0.264,1.393-0.527,2.783-0.799,4.175c-0.062,0.321-0.021,0.564,0.116,0.735c0.142,0.172,0.394,0.287,0.756,0.35
			C144.087,180.937,144.276,180.97,144.466,181.004z"/>
		<path fill="#BC1818" d="M156.746,175.108c1.16-0.688,2.208-0.916,3.127-0.685c0.464,0.114,0.808,0.32,1.022,0.612
			c0.218,0.291,0.275,0.609,0.174,0.956c-0.088,0.308-0.269,0.524-0.531,0.66c-0.268,0.133-0.556,0.157-0.879,0.075
			c-0.453-0.117-0.722-0.391-0.812-0.841c-0.057-0.271-0.17-0.426-0.341-0.467c-0.215-0.052-0.558,0.065-1.028,0.353
			c0.646,0.887,0.854,1.712,0.638,2.477c-0.168,0.59-0.513,1.08-1.028,1.466c-0.516,0.388-1.197,0.63-2.043,0.733
			c-0.844,0.104-1.838,0.025-2.982-0.223c-0.394-0.094-0.788-0.185-1.182-0.275c-0.881-0.185-1.492-0.231-1.837-0.142
			c-0.354,0.087-0.555,0.253-0.61,0.495c-0.051,0.209,0.015,0.383,0.188,0.522c0.225,0.192,0.618,0.348,1.182,0.462
			c0.338,0.062,0.678,0.122,1.016,0.184c1.103,0.187,1.913,0.338,2.426,0.455c1.707,0.388,2.836,0.892,3.378,1.472
			c0.542,0.581,0.695,1.24,0.472,1.978c-0.27,0.885-0.865,1.493-1.771,1.846c-1.106,0.432-2.774,0.375-5.021-0.121
			c-1.918-0.421-3.208-0.887-3.895-1.443c-0.683-0.555-0.97-1.102-0.848-1.645c0.075-0.338,0.311-0.604,0.704-0.795
			c0.397-0.191,1.167-0.293,2.319-0.293c-0.686-0.271-1.174-0.597-1.469-0.972c-0.291-0.372-0.388-0.808-0.28-1.292
			c0.097-0.442,0.32-0.785,0.661-1.041c0.345-0.253,0.901-0.429,1.676-0.519c-0.608-0.456-1.04-0.937-1.291-1.442
			c-0.25-0.508-0.317-1.046-0.198-1.604c0.127-0.605,0.436-1.119,0.928-1.53c0.489-0.414,1.173-0.687,2.05-0.812
			c0.878-0.126,1.901-0.065,3.073,0.191c0.556,0.116,1.082,0.28,1.585,0.482C155.822,174.591,156.298,174.829,156.746,175.108z
			 M155.13,185.826c0.11-0.37-0.048-0.704-0.475-0.984c-0.293-0.197-0.995-0.431-2.112-0.687c-2.021-0.458-3.353-0.6-3.992-0.479
			c-0.642,0.122-1.003,0.368-1.088,0.731c-0.082,0.342,0.074,0.677,0.466,1c0.39,0.321,1.208,0.613,2.454,0.886
			c1.622,0.355,2.836,0.466,3.652,0.302C154.651,186.464,155.016,186.212,155.13,185.826z M153.462,174.727
			c-0.527-0.113-1.03-0.005-1.501,0.326c-0.474,0.331-0.794,0.88-0.975,1.652c-0.175,0.747-0.126,1.353,0.143,1.824
			c0.271,0.475,0.665,0.763,1.193,0.878c0.517,0.114,1.015,0.011,1.49-0.312c0.478-0.323,0.815-0.851,1.006-1.584
			c0.193-0.739,0.153-1.362-0.126-1.858C154.416,175.153,154.004,174.844,153.462,174.727z"/>
	</g>
</g>
</svg>
