<?xml version="1.0" encoding="utf-8"?>
<!-- Generator: Adobe Illustrator 16.0.0, SVG Export Plug-In . SVG Version: 6.00 Build 0)  -->
<!DOCTYPE svg PUBLIC "-//W3C//DTD SVG 1.1//EN" "http://www.w3.org/Graphics/SVG/1.1/DTD/svg11.dtd">
<svg version="1.1" id="Livello_1" xmlns="http://www.w3.org/2000/svg" xmlns:xlink="http://www.w3.org/1999/xlink" x="0px" y="0px"
	 width="224.157px" height="236.048px" viewBox="0 0 224.157 236.048" enable-background="new 0 0 224.157 236.048"
	 xml:space="preserve">
<g>
	<circle fill="#FFFFFF" stroke="#00953E" stroke-miterlimit="10" cx="112.079" cy="97.358" r="84"/>
	<circle fill="#FFFFFF" stroke="#00953E" stroke-width="5" stroke-miterlimit="10" cx="112.08" cy="97.358" r="75.216"/>
	<path fill="none" d="M48.61,80.505h31.434v31.435H48.61V80.505z"/>
	<rect x="137.085" y="118.708" fill="none" width="24.543" height="24.956"/>
	<path fill="#6AB64D" d="M98.044,32.122c-1.9,12.684-12.439,17.483-25.268,17.134v13.188H94.47v47.195h17.504V32.122H98.044z"/>
	<rect x="114.294" y="79.881" fill="none" width="58.588" height="38.759"/>
	<text transform="matrix(1 0 0 1 114.2939 109.8105)" fill="#6AB64D" font-family="'Raleway-Bold'" font-size="41">st </text>
	<rect x="70.079" y="112.358" fill="none" width="100.402" height="38.759"/>
	<text transform="matrix(1 0 0 1 70.0791 139.3682)" fill="#6AB64D" font-family="'Raleway-Bold'" font-size="37">TIME </text>
</g>
<g>
	<g>
		<g>
			<path fill="#FFFFFF" stroke="#00953E" stroke-width="5" stroke-miterlimit="10" d="M202.478,213.077
				c-1.189-9.247-2.857-18.545-5.008-27.853c7.422-6.014,15.252-11.731,23.476-17.112c-69.825-28.682-148.211-28.5-217.928,0.544
				c0.072,0.174,0.146,0.349,0.218,0.522c8.497,5.508,16.578,11.376,24.225,17.561c-1.982,8.803-3.534,17.594-4.659,26.342
				C80.355,189.438,144.922,189.437,202.478,213.077L202.478,213.077L202.478,213.077z"/>
		</g>
	</g>
	<g>
		<g>
			<path fill="#00953E" d="M71.185,157.903c0.287-0.51,0.578-1.022,0.873-1.533c0.302-0.069,0.604-0.139,0.905-0.208
				c0.417,1.612,0.835,3.225,1.257,4.837c-0.372,0.086-0.744,0.17-1.113,0.258c-0.92-1.258-2.004-2.105-3.268-2.527
				c-1.258-0.423-2.56-0.457-3.873-0.103c-1.123,0.302-1.969,0.787-2.538,1.438c-0.564,0.654-0.744,1.296-0.554,1.926
				c0.113,0.376,0.357,0.678,0.725,0.91c0.363,0.232,0.887,0.373,1.551,0.427c0.67,0.053,1.793-0.014,3.363-0.173
				c1.837-0.181,3.116-0.217,3.846-0.152c1.156,0.11,2.073,0.415,2.743,0.901c0.672,0.486,1.107,1.166,1.311,2.036
				c0.306,1.301-0.01,2.461-0.919,3.489c-1.101,1.243-2.604,2.101-4.544,2.61c-1.786,0.473-3.563,0.425-5.37-0.139
				c-0.312,0.59-0.613,1.18-0.916,1.77c-0.287,0.086-0.571,0.175-0.856,0.264c-0.573-1.697-1.143-3.4-1.708-5.1
				c0.353-0.109,0.703-0.214,1.053-0.322c1.996,2.603,4.511,3.443,7.62,2.621c1.274-0.336,2.2-0.818,2.787-1.469
				c0.586-0.649,0.795-1.331,0.615-2.045c-0.126-0.498-0.39-0.881-0.796-1.143c-0.402-0.26-0.973-0.414-1.701-0.453
				c-0.396-0.021-1.362,0.027-2.892,0.17c-2.062,0.182-3.575,0.244-4.53,0.13c-0.953-0.112-1.716-0.363-2.281-0.761
				c-0.568-0.399-0.973-0.965-1.215-1.713c-0.406-1.254-0.176-2.451,0.717-3.584c0.893-1.131,2.317-1.976,4.251-2.498
				C67.583,157.27,69.414,157.315,71.185,157.903z"/>
			<path fill="#00953E" d="M90.419,163.239c-2.639,0.365-5.272,0.792-7.905,1.279c0.271,1.253,0.769,2.125,1.485,2.615
				c0.716,0.489,1.538,0.654,2.478,0.5c0.676-0.111,1.287-0.366,1.842-0.77c0.555-0.4,1.088-1.055,1.611-1.957
				c0.313,0.104,0.622,0.207,0.936,0.312c-0.538,1.062-1.194,1.86-1.987,2.406c-0.791,0.543-1.798,0.918-3.027,1.126
				c-1.792,0.306-3.328,0.134-4.629-0.541c-1.305-0.672-2.121-1.697-2.427-3.093c-0.305-1.395,0.018-2.681,0.997-3.852
				c0.977-1.169,2.343-1.915,4.068-2.211c1.193-0.203,2.249-0.174,3.164,0.07c0.916,0.247,1.664,0.704,2.24,1.37
				C89.842,161.161,90.226,162.077,90.419,163.239z M82.345,163.644c1.258-0.23,2.521-0.451,3.779-0.656
				c0.354-0.059,0.596-0.168,0.726-0.334c0.128-0.166,0.167-0.438,0.104-0.809c-0.12-0.745-0.432-1.292-0.935-1.627
				c-0.503-0.338-1.089-0.454-1.767-0.338c-0.795,0.135-1.358,0.523-1.674,1.148C82.261,161.654,82.185,162.527,82.345,163.644z"/>
			<path fill="#00953E" d="M100.981,165.718c0.024,0.303,0.049,0.604,0.075,0.906c-2.563,0.201-5.123,0.463-7.685,0.78
				c-0.04-0.302-0.081-0.602-0.119-0.901c0.319-0.041,0.637-0.079,0.956-0.116c0.395-0.046,0.672-0.143,0.84-0.29
				c0.164-0.146,0.237-0.325,0.212-0.539c-0.213-1.792-0.422-3.584-0.63-5.376c-0.049-0.435-0.213-0.735-0.487-0.908
				c-0.271-0.172-0.638-0.231-1.09-0.177c-0.217,0.026-0.435,0.053-0.654,0.079c-0.037-0.282-0.073-0.567-0.109-0.853
				c1.645-0.274,3.295-0.521,4.945-0.749c0.099,0.987,0.195,1.976,0.293,2.965c0.183-1.021,0.614-1.827,1.285-2.424
				c0.671-0.595,1.462-0.928,2.368-0.993c0.771-0.055,1.395,0.062,1.861,0.357c0.468,0.293,0.713,0.695,0.747,1.202
				c0.027,0.436-0.105,0.796-0.396,1.085c-0.289,0.292-0.651,0.445-1.092,0.478c-0.389,0.027-0.737-0.066-1.036-0.278
				c-0.297-0.215-0.464-0.5-0.491-0.864c-0.018-0.202,0.036-0.418,0.15-0.647c0.062-0.13,0.092-0.22,0.088-0.271
				c-0.004-0.092-0.039-0.156-0.097-0.193c-0.054-0.037-0.144-0.052-0.258-0.044c-0.294,0.022-0.606,0.186-0.94,0.485
				c-0.506,0.466-0.902,1.16-1.184,2.088c-0.281,0.926-0.371,1.842-0.285,2.748c0.064,0.654,0.128,1.31,0.193,1.964
				c0.021,0.227,0.114,0.394,0.275,0.5c0.16,0.105,0.375,0.146,0.643,0.123C99.901,165.806,100.441,165.762,100.981,165.718z"/>
			<path fill="#00953E" d="M104.847,157.214c2.316-0.124,4.633-0.202,6.95-0.234c0.003,0.29,0.008,0.579,0.013,0.869
				c-0.189,0.004-0.381,0.006-0.569,0.01c-0.455,0.008-0.761,0.06-0.925,0.154c-0.162,0.096-0.242,0.228-0.238,0.396
				c0.007,0.182,0.1,0.401,0.287,0.658c1.018,1.426,2.012,2.859,2.979,4.303c0.823-1.357,1.666-2.711,2.53-4.058
				c0.135-0.203,0.207-0.401,0.207-0.604c0.007-0.553-0.576-0.852-1.746-0.877c0-0.289,0-0.58,0-0.869
				c1.693-0.001,3.391,0.023,5.085,0.073c-0.008,0.289-0.015,0.579-0.025,0.868c-0.46,0.024-0.82,0.102-1.069,0.231
				c-0.252,0.13-0.477,0.344-0.68,0.646c-1.654,2.529-3.238,5.08-4.749,7.65c-0.282,0.003-0.564,0.005-0.849,0.01
				c-1.73-2.564-3.545-5.104-5.437-7.611c-0.251-0.332-0.474-0.547-0.666-0.645c-0.19-0.097-0.438-0.135-0.741-0.12
				c-0.105,0.005-0.207,0.012-0.31,0.017C104.879,157.792,104.862,157.504,104.847,157.214z"/>
			<path fill="#00953E" d="M121.285,157.098c1.728,0.007,3.454,0.037,5.185,0.091c-0.181,2.584-0.362,5.163-0.547,7.746
				c-0.016,0.207,0.054,0.376,0.206,0.499c0.151,0.127,0.398,0.2,0.728,0.224c0.248,0.019,0.499,0.036,0.746,0.057
				c-0.025,0.301-0.051,0.603-0.074,0.905c-2.206-0.172-4.408-0.302-6.613-0.388c0.011-0.303,0.023-0.605,0.036-0.908
				c0.245,0.01,0.489,0.021,0.734,0.029c0.393,0.016,0.675-0.042,0.845-0.186c0.174-0.141,0.266-0.396,0.285-0.768
				c0.093-1.764,0.184-3.525,0.273-5.285c0.018-0.332-0.093-0.596-0.326-0.79c-0.232-0.192-0.562-0.3-0.994-0.317
				c-0.17-0.008-0.346-0.016-0.519-0.021C121.261,157.689,121.274,157.394,121.285,157.098z M124.784,151.985
				c0.571,0.033,1.053,0.219,1.441,0.553c0.389,0.333,0.568,0.727,0.535,1.166c-0.031,0.439-0.256,0.805-0.683,1.085
				c-0.424,0.28-0.916,0.409-1.477,0.375c-0.569-0.033-1.049-0.215-1.437-0.545c-0.387-0.33-0.574-0.714-0.553-1.15
				c0.019-0.441,0.242-0.81,0.664-1.099C123.7,152.083,124.204,151.954,124.784,151.985z"/>
			<path fill="#00953E" d="M131.489,157.787c3.351,0.323,6.695,0.741,10.039,1.254c-0.045,0.292-0.092,0.585-0.139,0.878
				c-2.678,2.067-5.267,4.193-7.757,6.375c1.034,0.117,2.069,0.245,3.104,0.383c0.674,0.092,1.262-0.035,1.767-0.368
				c0.502-0.335,0.942-0.992,1.316-1.972c0.356,0.051,0.712,0.109,1.068,0.162c-0.272,1.193-0.545,2.381-0.815,3.573
				c-3.416-0.524-6.838-0.946-10.265-1.259c0.028-0.302,0.061-0.604,0.089-0.904c2.431-2.238,4.956-4.42,7.576-6.547
				c-0.905-0.119-1.812-0.229-2.719-0.335c-0.633-0.075-1.182,0.055-1.637,0.377c-0.461,0.321-0.83,0.927-1.109,1.811
				c-0.361-0.036-0.723-0.071-1.084-0.106C131.112,160.001,131.301,158.896,131.489,157.787z"/>
			<path fill="#00953E" d="M144.354,159.498c1.729,0.229,3.458,0.485,5.188,0.768c-0.525,2.535-1.057,5.074-1.599,7.607
				c-0.044,0.202,0.003,0.381,0.14,0.522c0.138,0.145,0.366,0.252,0.699,0.316c0.249,0.051,0.495,0.103,0.74,0.154
				c-0.066,0.296-0.133,0.593-0.2,0.889c-2.189-0.459-4.381-0.879-6.576-1.25c0.055-0.3,0.106-0.598,0.163-0.896
				c0.244,0.043,0.488,0.084,0.73,0.126c0.391,0.068,0.685,0.043,0.872-0.074c0.19-0.117,0.32-0.361,0.391-0.725
				c0.334-1.734,0.662-3.469,0.99-5.206c0.061-0.325-0.01-0.603-0.222-0.824c-0.206-0.223-0.527-0.368-0.952-0.444
				c-0.173-0.029-0.346-0.059-0.518-0.088C144.253,160.083,144.304,159.79,144.354,159.498z M148.536,154.885
				c0.57,0.107,1.029,0.354,1.376,0.737c0.348,0.385,0.475,0.791,0.384,1.227c-0.086,0.436-0.365,0.761-0.828,0.985
				c-0.463,0.226-0.974,0.284-1.532,0.179c-0.57-0.106-1.023-0.349-1.369-0.729c-0.345-0.379-0.479-0.785-0.404-1.212
				c0.077-0.435,0.349-0.772,0.812-1.003C147.438,154.839,147.958,154.777,148.536,154.885z"/>
			<path fill="#00953E" d="M160.069,162.355c1.291,0.336,2.422,0.876,3.369,1.604c0.95,0.732,1.572,1.517,1.878,2.355
				c0.303,0.836,0.297,1.732-0.018,2.689c-0.499,1.531-1.546,2.5-3.107,2.941c-1.563,0.441-3.147,0.448-4.788,0.016
				c-1.16-0.302-2.168-0.783-3.023-1.442c-0.861-0.66-1.465-1.408-1.816-2.255c-0.355-0.846-0.425-1.725-0.21-2.64
				c0.324-1.379,1.202-2.399,2.669-3.039C156.489,161.944,158.176,161.864,160.069,162.355z M159.896,163.272
				c-0.853-0.222-1.61-0.105-2.263,0.346c-0.652,0.453-1.161,1.408-1.539,2.86c-0.395,1.509-0.428,2.605-0.101,3.299
				c0.325,0.687,0.888,1.137,1.696,1.349c0.828,0.215,1.573,0.104,2.256-0.339s1.241-1.373,1.668-2.802
				c0.438-1.461,0.482-2.56,0.131-3.281C161.39,163.981,160.772,163.499,159.896,163.272z"/>
			<path fill="#00953E" d="M75.43,183.526c-2.334,0.601-4.66,1.257-6.979,1.969c0.446,1.215,1.042,2.029,1.769,2.449
				c0.729,0.42,1.5,0.51,2.325,0.274c0.591-0.169,1.103-0.478,1.543-0.923c0.438-0.444,0.818-1.139,1.152-2.077
				c0.3,0.073,0.595,0.147,0.893,0.224c-0.321,1.094-0.79,1.945-1.42,2.554c-0.63,0.609-1.479,1.065-2.56,1.38
				c-1.567,0.457-2.985,0.42-4.281-0.13c-1.293-0.551-2.206-1.486-2.716-2.834c-0.507-1.345-0.417-2.643,0.293-3.882
				c0.712-1.24,1.849-2.095,3.376-2.543c1.06-0.307,2.03-0.379,2.902-0.218c0.869,0.16,1.619,0.546,2.245,1.15
				C74.598,181.522,75.077,182.396,75.43,183.526z M68.157,184.649c1.11-0.342,2.225-0.668,3.339-0.984
				c0.314-0.088,0.514-0.223,0.608-0.395c0.092-0.176,0.082-0.446-0.031-0.808c-0.227-0.725-0.589-1.236-1.098-1.524
				c-0.506-0.286-1.067-0.349-1.661-0.172c-0.708,0.203-1.159,0.636-1.354,1.281C67.771,182.694,67.835,183.562,68.157,184.649z"/>
			<path fill="#00953E" d="M79.998,183.941c0.494-0.112,0.96-0.048,1.384,0.192c0.428,0.238,0.691,0.583,0.802,1.027
				c0.109,0.45,0.033,0.873-0.232,1.265c-0.265,0.394-0.634,0.642-1.116,0.754c-0.476,0.108-0.921,0.044-1.351-0.189
				c-0.428-0.233-0.702-0.576-0.827-1.022c-0.123-0.442-0.049-0.862,0.215-1.262C79.135,184.308,79.51,184.052,79.998,183.941z"/>
			<path fill="#00953E" d="M104.185,182.534c0.021,0.301,0.044,0.604,0.067,0.905c-1.973,0.132-3.944,0.304-5.912,0.515
				c-0.035-0.302-0.071-0.602-0.108-0.902c0.204-0.021,0.408-0.043,0.611-0.063c0.373-0.037,0.625-0.132,0.763-0.283
				c0.134-0.15,0.189-0.367,0.158-0.652c-0.142-1.316-0.28-2.633-0.421-3.949c-0.076-0.729-0.301-1.253-0.682-1.571
				c-0.379-0.313-0.879-0.44-1.49-0.375c-0.502,0.055-0.922,0.202-1.25,0.441c-0.332,0.238-0.598,0.604-0.79,1.096
				c-0.192,0.494-0.256,0.963-0.196,1.406c0.164,1.183,0.327,2.365,0.494,3.549c0.03,0.232,0.13,0.4,0.284,0.506
				c0.158,0.106,0.356,0.146,0.594,0.115c0.271-0.033,0.539-0.063,0.81-0.094c0.039,0.299,0.077,0.599,0.116,0.9
				c-2.002,0.23-4.005,0.498-6.001,0.81c-0.051-0.301-0.105-0.597-0.156-0.897c0.223-0.035,0.447-0.067,0.671-0.102
				c0.364-0.055,0.6-0.148,0.708-0.273c0.137-0.166,0.186-0.379,0.145-0.645c-0.22-1.357-0.435-2.716-0.652-4.074
				c-0.107-0.648-0.363-1.133-0.792-1.438c-0.421-0.304-0.921-0.415-1.489-0.327c-0.441,0.069-0.834,0.235-1.174,0.496
				c-0.344,0.263-0.607,0.62-0.795,1.085c-0.19,0.462-0.246,0.867-0.18,1.213c0.227,1.176,0.455,2.352,0.683,3.526
				c0.07,0.358,0.189,0.59,0.353,0.694c0.223,0.133,0.505,0.172,0.846,0.114c0.192-0.033,0.385-0.062,0.576-0.095
				c0.055,0.298,0.109,0.596,0.164,0.896c-2.007,0.327-4.008,0.695-6.009,1.104c-0.068-0.298-0.138-0.593-0.206-0.889
				c0.23-0.048,0.461-0.094,0.689-0.14c0.371-0.072,0.612-0.185,0.729-0.339c0.114-0.153,0.14-0.379,0.075-0.676
				c-0.389-1.795-0.775-3.589-1.157-5.383c-0.05-0.24-0.146-0.427-0.281-0.548c-0.138-0.119-0.327-0.202-0.573-0.231
				c-0.182-0.026-0.531,0.014-1.055,0.121c-0.067-0.289-0.13-0.58-0.195-0.869c1.414-0.359,2.827-0.694,4.246-1.016
				c0.283,0.592,0.518,1.234,0.705,1.941c0.552-0.906,1.136-1.57,1.735-1.987c0.601-0.416,1.296-0.687,2.063-0.8
				c0.837-0.12,1.552-0.034,2.153,0.258c0.598,0.294,1.079,0.794,1.435,1.502c0.587-0.899,1.21-1.557,1.865-1.973
				c0.655-0.415,1.366-0.66,2.128-0.737c1.062-0.106,1.929,0.112,2.591,0.638c0.661,0.535,1.031,1.339,1.122,2.409
				c0.124,1.453,0.248,2.909,0.374,4.361c0.025,0.3,0.118,0.505,0.272,0.626c0.16,0.119,0.387,0.168,0.691,0.145
				C103.751,182.563,103.968,182.55,104.185,182.534z"/>
			<path fill="#00953E" d="M110.497,173.499c1.176-0.027,2.26,0.182,3.242,0.62c0.979,0.437,1.701,1.022,2.164,1.741
				c0.463,0.718,0.683,1.579,0.665,2.58c-0.025,1.602-0.648,2.817-1.827,3.672c-1.186,0.853-2.496,1.291-3.976,1.325
				c-1.046,0.024-2.01-0.161-2.901-0.562c-0.894-0.402-1.599-0.957-2.123-1.675c-0.521-0.718-0.821-1.542-0.883-2.479
				c-0.097-1.41,0.378-2.625,1.447-3.636C107.377,174.077,108.781,173.543,110.497,173.499z M110.587,174.425
				c-0.771,0.02-1.378,0.336-1.811,0.947c-0.43,0.609-0.613,1.666-0.549,3.162c0.067,1.555,0.333,2.616,0.785,3.191
				c0.456,0.571,1.045,0.85,1.772,0.832c0.746-0.018,1.338-0.328,1.788-0.939c0.454-0.611,0.677-1.654,0.665-3.141
				c-0.01-1.523-0.25-2.586-0.731-3.182C112.026,174.698,111.386,174.405,110.587,174.425z"/>
			<path fill="#00953E" d="M122.135,170.388c0.342,0.016,0.681,0.032,1.021,0.052c-0.073,1.252-0.146,2.502-0.218,3.755
				c1.151,0.062,2.303,0.135,3.454,0.223c-0.029,0.351-0.059,0.701-0.086,1.051c-1.144-0.084-2.286-0.159-3.431-0.221
				c-0.113,1.932-0.229,3.868-0.345,5.801c-0.021,0.383,0.065,0.688,0.267,0.91c0.2,0.223,0.468,0.344,0.815,0.365
				c0.988,0.062,1.578-0.745,1.773-2.437c0.318,0.022,0.637,0.047,0.957,0.071c-0.101,0.9-0.319,1.614-0.656,2.14
				c-0.335,0.524-0.777,0.921-1.338,1.184c-0.559,0.263-1.169,0.373-1.838,0.338c-0.586-0.034-1.085-0.167-1.503-0.406
				c-0.421-0.242-0.747-0.585-0.985-1.033c-0.239-0.449-0.35-0.931-0.33-1.444c0.074-1.872,0.147-3.748,0.218-5.62
				c-0.614-0.022-1.229-0.041-1.843-0.055c0.009-0.298,0.017-0.599,0.023-0.897c1.139-0.104,2.039-0.453,2.707-1.058
				C121.464,172.501,121.911,171.597,122.135,170.388z"/>
			<path fill="#00953E" d="M128.626,174.601c1.555,0.075,3.113,0.177,4.668,0.299c-0.334,2.568-0.672,5.137-1.014,7.705
				c-0.027,0.205,0.021,0.378,0.152,0.506c0.129,0.13,0.339,0.212,0.634,0.25c0.222,0.027,0.439,0.055,0.663,0.084
				c-0.043,0.298-0.088,0.601-0.132,0.9c-1.958-0.254-3.914-0.467-5.874-0.643c0.029-0.302,0.061-0.604,0.091-0.905
				c0.218,0.021,0.434,0.041,0.652,0.062c0.353,0.032,0.606-0.02,0.769-0.152c0.158-0.135,0.265-0.387,0.303-0.756
				c0.197-1.756,0.393-3.509,0.585-5.264c0.038-0.33-0.042-0.6-0.241-0.801c-0.199-0.202-0.489-0.322-0.876-0.357
				c-0.156-0.015-0.311-0.029-0.466-0.043C128.568,175.19,128.597,174.896,128.626,174.601z M132.105,169.642
				c0.517,0.056,0.94,0.259,1.271,0.609c0.33,0.348,0.467,0.748,0.41,1.184c-0.055,0.438-0.289,0.79-0.688,1.057
				c-0.404,0.266-0.852,0.371-1.359,0.314c-0.512-0.054-0.934-0.255-1.265-0.602c-0.33-0.348-0.472-0.738-0.429-1.171
				c0.047-0.439,0.269-0.797,0.669-1.069C131.118,169.692,131.583,169.588,132.105,169.642z"/>
			<path fill="#00953E" d="M142.778,175.984c1.17,0.208,2.196,0.63,3.073,1.259c0.875,0.628,1.464,1.346,1.765,2.14
				c0.301,0.796,0.328,1.685,0.087,2.661c-0.384,1.562-1.273,2.627-2.637,3.221c-1.366,0.595-2.762,0.758-4.229,0.494
				c-1.04-0.188-1.943-0.562-2.733-1.135c-0.792-0.569-1.359-1.257-1.715-2.062c-0.354-0.805-0.464-1.673-0.317-2.6
				c0.218-1.396,0.949-2.491,2.226-3.266C139.571,175.924,141.076,175.678,142.778,175.984z M142.666,176.908
				c-0.767-0.136-1.437,0.052-1.997,0.562c-0.563,0.513-0.97,1.506-1.238,2.982c-0.276,1.533-0.254,2.627,0.062,3.279
				c0.319,0.652,0.838,1.038,1.561,1.17c0.738,0.134,1.394-0.054,1.979-0.558c0.59-0.507,1.041-1.485,1.362-2.939
				c0.329-1.49,0.325-2.578-0.022-3.26C144.026,177.465,143.459,177.05,142.666,176.908z"/>
			<path fill="#00953E" d="M161.646,189.769c-0.107,0.285-0.215,0.573-0.323,0.858c-1.919-0.63-3.845-1.217-5.773-1.766
				c0.095-0.29,0.188-0.579,0.283-0.87c0.206,0.057,0.406,0.115,0.611,0.174c0.325,0.094,0.591,0.09,0.799-0.012
				c0.211-0.102,0.363-0.298,0.46-0.583c0.424-1.261,0.85-2.523,1.27-3.786c0.215-0.646,0.211-1.194-0.018-1.64
				c-0.231-0.445-0.623-0.747-1.184-0.905c-0.761-0.215-1.454-0.137-2.078,0.226c-0.623,0.366-1.074,1.021-1.355,1.97
				c-0.294,0.983-0.587,1.965-0.882,2.946c-0.089,0.288-0.072,0.529,0.047,0.724c0.115,0.192,0.304,0.326,0.558,0.395
				c0.247,0.066,0.493,0.134,0.736,0.201c-0.091,0.292-0.185,0.582-0.276,0.872c-2.009-0.558-4.021-1.066-6.038-1.538
				c0.077-0.294,0.157-0.588,0.233-0.882c0.265,0.062,0.527,0.124,0.792,0.186c0.306,0.072,0.56,0.054,0.756-0.06
				c0.199-0.113,0.335-0.315,0.418-0.605c0.487-1.757,0.973-3.514,1.449-5.27c0.084-0.304,0.027-0.573-0.158-0.811
				c-0.189-0.238-0.478-0.402-0.867-0.494c-0.146-0.034-0.295-0.068-0.44-0.104c0.071-0.275,0.143-0.551,0.213-0.825
				c1.457,0.27,2.919,0.56,4.378,0.87c-0.005,0.58-0.07,1.255-0.216,2.023c0.8-0.539,1.597-0.886,2.383-1.044
				c0.786-0.156,1.559-0.124,2.315,0.098c1.029,0.302,1.736,0.834,2.125,1.593c0.383,0.756,0.386,1.649,0.019,2.674
				c-0.477,1.342-0.96,2.683-1.444,4.023c-0.113,0.307-0.11,0.557-0.004,0.742c0.111,0.186,0.334,0.334,0.678,0.444
				C161.288,189.652,161.466,189.711,161.646,189.769z"/>
		</g>
	</g>
</g>
</svg>
