<?xml version="1.0" encoding="utf-8"?>
<!-- Generator: Adobe Illustrator 16.0.0, SVG Export Plug-In . SVG Version: 6.00 Build 0)  -->
<!DOCTYPE svg PUBLIC "-//W3C//DTD SVG 1.1//EN" "http://www.w3.org/Graphics/SVG/1.1/DTD/svg11.dtd">
<svg version="1.1" id="Livello_1" xmlns="http://www.w3.org/2000/svg" xmlns:xlink="http://www.w3.org/1999/xlink" x="0px" y="0px"
	 width="224.157px" height="236.048px" viewBox="0 0 224.157 236.048" enable-background="new 0 0 224.157 236.048"
	 xml:space="preserve">
<rect x="134.804" y="129.929" fill="none" width="24.543" height="24.957"/>
<g>
	<circle fill="#FFFFFF" stroke="#BC1818" stroke-miterlimit="10" cx="112.079" cy="99.579" r="84"/>
	<circle fill="#FFFFFF" stroke="#BC1818" stroke-width="5" stroke-miterlimit="10" cx="112.08" cy="99.579" r="75.216"/>
	<path fill="#E41815" d="M98.044,34.343c-1.9,12.684-12.439,17.484-25.268,17.135v13.188H94.47v47.195h17.504V34.343H98.044z"/>
	<rect x="114.294" y="82.103" fill="none" width="58.588" height="38.758"/>
	<text transform="matrix(1 0 0 1 114.2939 112.0322)" fill="#E41815" font-family="'Raleway-Bold'" font-size="41">st </text>
	<rect x="70.079" y="114.579" fill="none" width="100.402" height="38.76"/>
	<text transform="matrix(1 0 0 1 70.0801 141.5889)" fill="#E41815" font-family="'Raleway-Bold'" font-size="37">TIME </text>
</g>
<g>
	<g>
		<path fill="#FFFFFF" stroke="#BC1818" stroke-width="5" stroke-miterlimit="10" d="M202.478,218.146
			c-1.19-9.247-2.857-18.545-5.008-27.853c7.422-6.014,15.253-11.732,23.477-17.112c-69.826-28.681-148.212-28.5-217.929,0.544
			c0.072,0.174,0.145,0.349,0.218,0.522c8.497,5.508,16.578,11.376,24.225,17.56c-1.983,8.804-3.534,17.595-4.659,26.342
			C80.355,194.509,144.922,194.506,202.478,218.146L202.478,218.146L202.478,218.146z"/>
	</g>
</g>
<path fill="#BC1818" d="M79.321,177.055c-2.457-3.356-6.482-4.743-10.085-3.491l-2.592,0.972l-1.526-1.804
	c-2.962-3.5-4.46-5.201-4.842-5.5c-0.383-0.301-0.413-0.295-2.803,0.505c-2.113,0.708-2.435,0.855-2.534,1.162
	c-0.167,0.485-0.069,0.719,0.423,0.966c0.381,0.188,0.645,0.14,2.249-0.396c1.271-0.426,1.89-0.566,2.04-0.461
	c0.26,0.178,1.471,1.584,1.537,1.779c0.025,0.077-3.3,1.255-7.387,2.623l-7.438,2.49l-0.526-0.522
	c-0.296-0.29-0.548-0.558-0.561-0.595c-0.015-0.041,0.708-0.415,1.603-0.839c1.821-0.859,2.405-1.427,1.793-1.739
	c-0.274-0.143-0.861,0-3.408,0.818c-2.094,0.674-3.119,1.064-3.197,1.227c-0.063,0.129,0,0.509,0.143,0.84
	c0.229,0.535,0.379,0.832,0.865,0.602l0.736-0.355l1.63,1.55l-1.519,5.83c-2.449,0.079-4.52,0.603-6.561,2.106
	c-0.944,0.829-2.133,2.457-2.566,3.532c-0.567,1.399-0.748,3.296-0.463,4.873c0.032,0.175,0.07,0.351,0.115,0.52l0.383,1.144
	c1.321,3.164,4.586,5.445,8.082,5.434c1.622,0.002,1.658-0.004,3.166-0.567c1.128-0.422,1.645-0.72,2.506-1.435
	c1.252-1.041,1.738-1.824,2.691-3.965c0.963-2.176,0.485-4.128,0.377-4.655c0.108-0.086,1.34-0.546,2.738-1.014l2.547-0.853
	l0.453,1.273c0.248,0.699,0.499,1.611,0.559,1.766c0.086,0.215-0.037,0.115-0.562,0.334c-0.595,0.244-0.655,0.32-0.507,0.613
	c0.134,0.269,0.296,0.308,0.809,0.178c0.353-0.083,1.137-0.492,1.327-0.613l-1.253-3.881l0.63-1.701
	c0.352-0.98,0.674-1.872,0.711-1.979c0.039-0.115,0.218-0.615,0.4-1.117c0.179-0.499,1.023-2.843,1.876-5.209
	c0.85-2.361,1.593-4.313,1.659-4.336c0.068-0.021,0.251,0.098,0.411,0.27c0.977,1.008,1.55,1.708,1.777,2.15
	c0.23,0.43,0.218,0.529-0.104,0.795c-0.553,0.453-1.67,2.867-1.854,4.019c-0.229,1.433-0.131,3.134,0.258,4.294
	c0.575,1.715,2.677,4.158,4.25,4.939c4.285,2.138,9.006,0.879,11.57-3.074c0.857-1.495,1.414-3.262,1.387-4.996
	C80.694,180.3,79.944,177.9,79.321,177.055z M45.409,184.94c1.465,0.641,2.889,1.281,3.842,3.455l-5.115,1.794L45.409,184.94z
	 M44.782,198.062c-3.102,0.924-7.121-0.343-8.529-4.661c-1.398-4.269,2.187-8.747,7.493-8.698c-0.513,2.625-2.124,7.36-1.618,7.72
	c0.526,0.375,1.151-0.016,4.381-1.096l3.436-1.15C51.19,195.058,46.673,197.493,44.782,198.062z M50.968,187.794
	c-1.23-2.133-3.16-3.529-5.305-4.691l1.006-4.458c0.095-0.031,0.729,0.454,1.413,1.077c0.69,0.629,2.606,2.363,4.265,3.854
	c1.656,1.487,3.023,2.796,2.947,2.821L50.968,187.794z M59.054,178.965c-0.072,0.175-0.32,0.957-0.607,1.712l-1.605,4.203
	l-0.693-2.066c0.408-0.149,1.252-0.425,1.046-0.941c-0.199-0.523-1.313,0.011-2.106,0.317l1.09,2.99l-8.195-8.041l6.496-2.175
	c5.456-1.826,6.507-2.138,6.57-1.949C61.104,173.188,60.089,176.218,59.054,178.965z M78.223,185.124
	c-1.153,2.222-3.417,3.721-5.806,3.852c-3.596,0.195-6.849-2.277-7.416-5.639c-0.314-1.873-0.172-3.042,0.559-4.541
	c0.848-1.75,1.08-1.834,1.977-0.736c0.216,0.268,0.676,0.803,1.012,1.178c0.338,0.375,1.13,1.289,1.765,2.026
	c1.291,1.515,1.832,1.787,2.22,1.091c0.244-0.791-0.473-1.598-1.343-2.521c-0.434-0.401-3.025-3.617-3.106-3.856
	c0.257-0.508,1.201-0.619,1.741-0.78c1.555-0.445,1.984-0.501,2.911-0.397c1.371,0.156,3.423,1.18,4.377,2.188
	c0.631,0.667,1.029,0.876,1.658,2.688C79.605,181.442,78.979,183.41,78.223,185.124z"/>
<path fill="#BC1818" d="M190.482,190.95c-0.158-4.156-2.72-7.557-6.406-8.535l-2.691-0.643l-0.256-2.35
	c-0.499-4.558-0.788-6.807-0.938-7.268c-0.148-0.463-0.178-0.476-2.605-1.148c-2.147-0.596-2.496-0.653-2.75-0.454
	c-0.41,0.309-0.46,0.556-0.189,1.036c0.209,0.369,0.455,0.477,2.086,0.929c1.29,0.358,1.883,0.588,1.948,0.759
	c0.116,0.293,0.333,2.138,0.278,2.335c-0.021,0.079-3.438-0.805-7.591-1.956l-7.558-2.097l-0.144-0.728
	c-0.082-0.405-0.143-0.768-0.132-0.806c0.012-0.043,0.818,0.051,1.798,0.2c1.99,0.307,2.791,0.163,2.458-0.438
	c-0.146-0.271-0.713-0.481-3.281-1.229c-2.113-0.612-3.182-0.862-3.338-0.771c-0.124,0.072-0.284,0.422-0.351,0.776
	c-0.11,0.572-0.151,0.901,0.381,0.983l0.809,0.116l0.484,2.196l-4.521,3.983c-2.074-1.305-4.084-2.028-6.615-1.924
	c-1.248,0.158-3.143,0.844-4.104,1.492c-1.254,0.844-2.464,2.313-3.109,3.781c-0.072,0.162-0.138,0.33-0.195,0.495l-0.322,1.162
	c-0.674,3.361,0.756,7.077,3.659,9.024c1.345,0.91,1.377,0.924,2.942,1.301c1.171,0.281,1.766,0.323,2.879,0.213
	c1.621-0.163,2.462-0.54,4.449-1.781c2.016-1.266,2.712-3.15,2.916-3.648c0.139-0.012,1.416,0.297,2.838,0.691l2.588,0.718
	l-0.338,1.309c-0.184,0.72-0.487,1.616-0.523,1.776c-0.049,0.227-0.095,0.075-0.652-0.037c-0.629-0.13-0.723-0.1-0.763,0.225
	c-0.04,0.297,0.072,0.421,0.57,0.6c0.339,0.13,1.218,0.228,1.443,0.234l1.133-3.917l1.473-1.06c0.84-0.615,1.606-1.174,1.696-1.242
	c0.096-0.073,0.525-0.387,0.957-0.701c0.428-0.314,2.438-1.784,4.467-3.269c2.027-1.482,3.734-2.685,3.802-2.666
	c0.069,0.02,0.153,0.222,0.191,0.452c0.244,1.383,0.329,2.283,0.271,2.777c-0.05,0.486-0.117,0.561-0.531,0.601
	c-0.711,0.066-2.988,1.443-3.784,2.295c-0.991,1.059-1.86,2.524-2.188,3.704c-0.482,1.742-0.107,4.944,0.76,6.472
	c2.357,4.167,6.975,5.766,11.312,3.923c1.547-0.76,2.997-1.913,3.944-3.366C189.806,194.409,190.526,192.001,190.482,190.95z
	 M157.962,178.519c0.855,1.351,1.678,2.679,1.251,5.014l-5.243-1.373L157.962,178.519z M150.104,189.045
	c-3.089-0.97-5.712-4.267-4.464-8.636c1.229-4.318,6.705-6.027,11.076-3.018c-1.894,1.889-5.878,4.912-5.659,5.493
	c0.227,0.606,0.963,0.632,4.244,1.542l3.491,0.969C157.093,190.14,151.987,189.632,150.104,189.045z M160.974,183.994
	c0.173-2.458-0.646-4.693-1.773-6.856l3.327-3.133c0.097,0.026,0.351,0.784,0.569,1.684c0.221,0.906,0.838,3.417,1.379,5.58
	c0.541,2.159,0.941,4.009,0.865,3.987L160.974,183.994z M172.613,181.196c-0.155,0.106-0.8,0.615-1.461,1.081l-3.681,2.587
	l0.581-2.102c0.422,0.104,1.274,0.348,1.394-0.195c0.127-0.546-1.096-0.726-1.925-0.916l-0.769,3.088l-2.296-11.249l6.601,1.831
	c5.545,1.538,6.591,1.867,6.537,2.06C177.546,177.557,175.008,179.499,172.613,181.196z M185.06,197.024
	c-2.199,1.197-4.914,1.174-6.968-0.053c-3.09-1.851-4.403-5.72-2.993-8.822c0.787-1.729,1.559-2.619,3.004-3.453
	c1.68-0.977,1.92-0.916,2.05,0.496c0.029,0.344,0.11,1.043,0.179,1.541c0.071,0.501,0.217,1.701,0.33,2.668
	c0.224,1.978,0.519,2.505,1.23,2.146c0.645-0.521,0.5-1.59,0.297-2.841c-0.136-0.577-0.486-4.691-0.418-4.935
	c0.496-0.278,1.342,0.158,1.879,0.326c1.537,0.501,1.926,0.695,2.636,1.299c1.048,0.896,2.177,2.893,2.404,4.263
	c0.148,0.906,0.363,1.303-0.13,3.155C188.265,194.747,186.646,196.028,185.06,197.024z"/>
<g>
	<g>
		<path fill="#BC1818" d="M83.361,172.458c1.822-0.554,3.647-1.06,5.469-1.521c0.498,2.205,1.016,4.404,1.562,6.608
			c0.445-0.745,0.97-1.313,1.562-1.707c0.59-0.393,1.281-0.661,2.059-0.797c1.428-0.251,2.693,0,3.762,0.728
			c1.067,0.73,1.691,1.843,1.912,3.312c0.234,1.554-0.082,2.864-0.896,3.942c-0.826,1.082-1.943,1.739-3.434,2.017
			c-0.783,0.146-1.522,0.148-2.225,0.009c-0.704-0.139-1.377-0.422-2.021-0.848c-0.219,0.521-0.653,1.198-1.269,2.032
			c-0.241-0.044-0.479-0.09-0.72-0.135c-0.093-1.226-0.311-2.433-0.671-3.621c-0.825-2.717-1.605-5.439-2.346-8.166
			c-0.134-0.48-0.288-0.805-0.471-0.975c-0.186-0.169-0.399-0.266-0.641-0.285c-0.173-0.02-0.637,0.066-1.385,0.264
			C83.525,173.029,83.443,172.742,83.361,172.458z M92.834,176.681c-0.462,0.085-0.868,0.303-1.211,0.638
			c-0.344,0.335-0.558,0.767-0.642,1.296c-0.085,0.526,0.005,1.299,0.27,2.322c0.361,1.391,0.836,2.315,1.4,2.792
			c0.566,0.475,1.17,0.645,1.827,0.519c0.675-0.132,1.185-0.549,1.545-1.262c0.36-0.715,0.417-1.717,0.163-3.02
			c-0.254-1.302-0.682-2.215-1.3-2.726C94.269,176.728,93.576,176.541,92.834,176.681z"/>
		<path fill="#BC1818" d="M101.65,174.48c1.665-0.238,3.335-0.437,5.008-0.597c0.161,2.582,0.333,5.166,0.511,7.75
			c0.014,0.208,0.102,0.364,0.26,0.469c0.157,0.105,0.391,0.149,0.697,0.134c0.23-0.011,0.462-0.022,0.692-0.03
			c0.017,0.302,0.03,0.606,0.045,0.908c-2.033,0.085-4.069,0.234-6.101,0.45c-0.04-0.301-0.078-0.602-0.117-0.902
			c0.228-0.023,0.454-0.048,0.681-0.07c0.367-0.035,0.615-0.134,0.752-0.296c0.132-0.162,0.181-0.429,0.142-0.799
			c-0.186-1.757-0.364-3.513-0.536-5.27c-0.029-0.328-0.177-0.58-0.426-0.736c-0.255-0.162-0.586-0.223-1.003-0.18
			c-0.168,0.02-0.336,0.034-0.502,0.051C101.718,175.067,101.686,174.776,101.65,174.48z M104.332,168.941
			c0.568-0.041,1.064,0.075,1.489,0.361c0.426,0.281,0.647,0.648,0.673,1.089c0.025,0.441-0.151,0.828-0.526,1.161
			c-0.375,0.335-0.834,0.521-1.386,0.562c-0.555,0.044-1.047-0.071-1.473-0.348c-0.427-0.275-0.664-0.63-0.706-1.064
			c-0.042-0.44,0.121-0.829,0.498-1.178C103.278,169.182,103.758,168.986,104.332,168.941z"/>
		<path fill="#BC1818" d="M109.964,168.536c1.872-0.091,3.75-0.134,5.63-0.133c-0.082,3.343-0.169,6.685-0.268,10.027
			c1.083-0.701,2.192-1.381,3.326-2.045c0.54-0.321,0.825-0.597,0.842-0.839c0.011-0.146-0.088-0.285-0.293-0.41
			c-0.206-0.129-0.548-0.205-1.024-0.227c-0.13-0.006-0.262-0.017-0.393-0.02c0.016-0.296,0.031-0.59,0.046-0.887
			c2.194,0.101,4.389,0.269,6.587,0.509c-0.035,0.294-0.071,0.586-0.106,0.882c-0.699-0.056-1.253-0.041-1.659,0.046
			c-0.554,0.114-1.086,0.316-1.588,0.605c-0.66,0.376-1.312,0.757-1.958,1.148c1.24,1.604,2.409,3.232,3.498,4.876
			c0.267,0.389,0.612,0.604,1.044,0.652c0.182,0.021,0.366,0.042,0.55,0.062c-0.045,0.3-0.089,0.601-0.133,0.902
			c-2.129-0.251-4.262-0.429-6.392-0.537c0.02-0.301,0.039-0.604,0.059-0.907c0.212,0.013,0.424,0.024,0.635,0.035
			c0.308,0.014,0.525,0.002,0.654-0.053c0.128-0.056,0.197-0.121,0.203-0.197c0.005-0.072-0.023-0.151-0.091-0.24
			c-0.747-1.069-1.527-2.129-2.338-3.18c-0.505,0.306-1.01,0.62-1.502,0.936c-0.021,0.603-0.038,1.209-0.056,1.814
			c-0.01,0.285,0.052,0.492,0.18,0.617c0.129,0.122,0.343,0.188,0.643,0.199c0.238,0.007,0.478,0.017,0.715,0.025
			c-0.016,0.303-0.029,0.605-0.046,0.908c-2.082-0.085-4.158-0.101-6.236-0.049c-0.007-0.303-0.02-0.605-0.026-0.908
			c0.261-0.007,0.52-0.011,0.78-0.016c0.374-0.008,0.645-0.088,0.818-0.25c0.169-0.16,0.256-0.402,0.253-0.729
			c-0.02-3.667-0.039-7.341-0.059-11.007c-0.002-0.245-0.1-0.437-0.301-0.563c-0.199-0.129-0.482-0.193-0.843-0.186
			c-0.378,0.005-0.752,0.014-1.129,0.023C109.979,169.127,109.972,168.835,109.964,168.536z"/>
		<path fill="#BC1818" d="M137.562,181.536c-2.521-0.621-5.044-1.143-7.562-1.57c-0.232,1.27-0.13,2.25,0.302,2.947
			c0.434,0.7,1.079,1.134,1.954,1.309c0.626,0.128,1.261,0.104,1.917-0.076c0.651-0.18,1.393-0.593,2.241-1.244
			c0.233,0.209,0.463,0.418,0.692,0.627c-0.933,0.784-1.851,1.289-2.769,1.518c-0.915,0.228-1.938,0.225-3.078,0.001
			c-1.659-0.322-2.896-0.989-3.774-2.047c-0.872-1.054-1.223-2.28-0.998-3.696c0.224-1.41,0.962-2.52,2.269-3.296
			c1.307-0.774,2.829-1.015,4.522-0.692c1.175,0.222,2.145,0.625,2.888,1.181c0.745,0.56,1.248,1.253,1.504,2.081
			C137.923,179.404,137.887,180.391,137.562,181.536z M130.178,179.092c1.213,0.203,2.425,0.435,3.635,0.681
			c0.344,0.072,0.604,0.052,0.786-0.057c0.185-0.11,0.324-0.346,0.418-0.714c0.19-0.737,0.122-1.354-0.203-1.846
			c-0.322-0.494-0.827-0.807-1.483-0.933c-0.783-0.152-1.439,0.019-1.96,0.497C130.852,177.198,130.455,177.992,130.178,179.092z"/>
	</g>
</g>
</svg>
