<?xml version="1.0" encoding="utf-8"?>
<!-- Generator: Adobe Illustrator 16.0.0, SVG Export Plug-In . SVG Version: 6.00 Build 0)  -->
<!DOCTYPE svg PUBLIC "-//W3C//DTD SVG 1.1//EN" "http://www.w3.org/Graphics/SVG/1.1/DTD/svg11.dtd">
<svg version="1.1" id="Livello_1" xmlns="http://www.w3.org/2000/svg" xmlns:xlink="http://www.w3.org/1999/xlink" x="0px" y="0px"
	 width="783px" height="117px" viewBox="0 0 783 117" enable-background="new 0 0 783 117" xml:space="preserve">
<g>
	
		<line fill="#706F6F" stroke="#706F6F" stroke-width="4" stroke-miterlimit="10" x1="48.299" y1="77.312" x2="680.967" y2="77.312"/>
	<path fill="#A5A3A3" d="M210.018,20.161H195.01v36.271h8.575V44.343h6.433c7.109,0,12.866-5.412,12.866-12.091
		C222.884,25.57,217.127,20.161,210.018,20.161z M210.447,36.28h-6.862v-8.059h6.862c2.368,0,4.288,1.803,4.288,4.03
		C214.735,34.478,212.815,36.28,210.447,36.28z"/>
	<g>
		<circle fill="none" stroke="#B2B2B2" stroke-width="5" stroke-miterlimit="10" cx="722.42" cy="72.26" r="38.872"/>
		<g id="Livello_10_101_">
			<g>
				<path fill="#00984B" d="M706.879,63.565c-7.909,8.993-4.231,18.082-2.746,21.395c7.642-19.267,26.853-24.899,26.853-24.899
					s-23.787,18.231-25.481,39.372c-0.132,1.668,4.048,2.375,4.275,0.378c0.693-5.952,2.771-10.937,2.771-10.937
					c5.593,0.182,14.915-0.535,19.57-6.865c6.184-8.409,1.121-20.756,10.618-30.779C744.954,48.89,717.597,51.383,706.879,63.565z"
					/>
			</g>
		</g>
	</g>
	<path fill="#A5A5A4" d="M402.146,45.657c2.606-0.736,4.104-3.115,4.104-6.16V16.976c0-3.61-1.842-6.635-5.186-6.635h-4.833V9.259
		c1.004-0.334,0.876-0.896,0.876-1.537c0-1.021-0.8-1.853-1.823-1.853s-1.894,0.832-1.894,1.853c0,0.665,0.837,1.242,0.837,1.568
		v1.051h-4.009V9.259c0-0.334,0.857-0.896,0.857-1.537c0-1.021-0.813-1.853-1.836-1.853s-1.877,0.832-1.877,1.853
		c0,0.665,0.853,1.242,0.853,1.568v1.051h-4.643c-3.343,0-6.379,3.024-6.379,6.635v22.521c0,3.111,2.004,5.748,6.013,6.421v0.025
		l-9.16,10.488h5.021l6.57-9.017h13.586l6.569,9.017h5.022L402.146,45.657z M403.246,24.343c0,2.228-1.808,4.036-4.036,4.036
		h-14.973c-2.229,0-4.037-1.809-4.037-4.036v-3.952c0-2.229,1.808-4.035,4.037-4.035h14.973c2.229,0,4.036,1.807,4.036,4.034V24.343
		z M384.281,42.048c-1.487,0-2.692-1.205-2.692-2.688c0-1.486,1.205-2.691,2.692-2.691c1.486,0,2.688,1.205,2.688,2.691
		C386.97,40.843,385.768,42.048,384.281,42.048z M400.424,42.048c-1.483,0-2.689-1.205-2.689-2.688c0-1.486,1.206-2.691,2.689-2.691
		c1.486,0,2.69,1.205,2.69,2.691C403.114,40.843,401.91,42.048,400.424,42.048z"/>
	<path fill="#A5A5A4" d="M522.521,21.95c-1.388-2.372-3.038-2.891-5.691-3.571c-2.647-0.684-5.323-0.786-7.645-0.786
		c-2.322,0-4.996,0.103-7.646,0.786c-2.649,0.681-4.321,1.199-5.709,3.571c-1.39,2.371-2.426,14.438-2.426,15.062
		c0,0.623,0,13.627,0,13.627h1.653c0,0.826,0,3.646,0,3.676c0,1.17,1.729,2.116,2.896,2.116c1.167,0,2.897-0.946,2.897-2.116
		c0-0.03,0-2.85,0-3.676h16.947c0,0.826-0.004,3.271,0,3.302c0.267,2.116,2.249,2.303,3.418,2.303c1.167,0,1.975-0.759,1.975-1.929
		c0-0.03,0-2.85,0-3.676h1.745c0,0,0.002-12.327,0.002-13.007C524.938,36.952,523.908,24.321,522.521,21.95z M503.334,19.196h12.411
		v3.309h-12.411V19.196z M498.281,46.434c-1.336,0-2.422-1.085-2.422-2.423c0-1.339,1.086-2.424,2.422-2.424
		c1.34,0,2.424,1.085,2.424,2.424C500.705,45.349,499.621,46.434,498.281,46.434z M495.873,36.571c0,0,0.87-10.031,1.806-10.963
		c0.928-0.932,22.083-0.82,23.011,0.111c0.934,0.928,1.8,10.852,1.8,10.852H495.873z M520.084,46.434
		c-1.34,0-2.426-1.085-2.426-2.423c0-1.339,1.086-2.424,2.426-2.424c1.336,0,2.422,1.085,2.422,2.424
		C522.506,45.349,521.42,46.434,520.084,46.434z"/>
	<path fill="#A5A3A3" d="M125.236,31.871l-3.714-9.467c-0.697-1.806-2.205-3.346-5.05-3.346h-5.234h-8.924h-5.296
		c-2.852,0-4.369,1.54-5.063,3.346l-3.712,9.467c-1.469,0.185-4.065,1.899-4.065,5.131v12.047h3.6v3.845
		c0,4.746,6.781,4.689,6.781,0v-3.845h12.184h0.004h12.179v3.845c0,4.689,6.775,4.746,6.775,0v-3.845h3.606V37.002
		C129.308,33.771,126.702,32.056,125.236,31.871z M91.278,40.896c-1.731,0-3.131-1.426-3.131-3.196c0-1.759,1.399-3.19,3.131-3.19
		c1.724,0,3.13,1.432,3.13,3.19C94.408,39.47,93.002,40.896,91.278,40.896z M106.746,30.865h-0.004h-0.012H92.083l2.793-7.331
		c0.349-1.048,0.868-1.804,2.096-1.815h9.759h0.012h0.004h9.772c1.213,0.012,1.735,0.768,2.088,1.815l2.789,7.331H106.746z
		 M122.202,40.896c-1.725,0-3.133-1.426-3.133-3.196c0-1.759,1.407-3.19,3.133-3.19c1.73,0,3.129,1.432,3.129,3.19
		C125.331,39.47,123.933,40.896,122.202,40.896z"/>
	<g>
		<polygon fill="#A5A5A4" points="291.396,53.989 293.841,56.432 298.933,40.743 303.824,46.656 305.859,55.208 308.61,54.495 
			306.878,45.431 301.159,38.097 302.398,27.911 305.045,32.801 311.36,35.041 312.378,33.007 306.674,30.56 303.618,23.632 
			297.915,22.614 289.766,27.911 290.173,36.267 292.416,35.855 292.208,30.354 295.879,28.115 295.063,37.896 		"/>
		<circle fill="#A5A5A4" cx="302.301" cy="18.699" r="2.854"/>
	</g>
	<path fill="#A5A3A3" d="M626.998,43.713c-1.457-4.568-5.354-7.561-9.754-7.512l-3.188,0.115l-1.007-2.53
		c-1.962-4.912-2.975-7.321-3.284-7.788c-0.309-0.469-0.344-0.475-3.25-0.475c-2.572,0-2.976,0.045-3.197,0.343
		c-0.359,0.471-0.339,0.762,0.11,1.212c0.347,0.345,0.651,0.39,2.605,0.39c1.543,0,2.271,0.072,2.397,0.242
		c0.219,0.289,1.03,2.272,1.03,2.508c0,0.094-4.068,0.166-9.041,0.166h-9.045l-0.384-0.762c-0.219-0.426-0.394-0.811-0.394-0.858
		c0-0.053,0.924-0.193,2.057-0.331c2.308-0.272,3.153-0.678,2.6-1.244c-0.248-0.258-0.941-0.316-4.027-0.354
		c-2.537-0.03-3.801,0.023-3.946,0.172c-0.119,0.117-0.189,0.555-0.152,0.971c0.054,0.668,0.109,1.049,0.729,0.974l0.934-0.118
		l1.217,2.291l-3.797,5.82c-2.708-0.812-5.165-0.996-7.946-0.098c-1.337,0.561-3.232,1.906-4.1,2.923
		c-1.132,1.323-2.026,3.331-2.292,5.161c-0.03,0.203-0.05,0.408-0.063,0.608v1.393c0.285,3.944,3.023,7.634,6.848,8.903
		c1.775,0.594,1.819,0.6,3.674,0.537c1.389-0.047,2.06-0.185,3.265-0.65c1.75-0.683,2.568-1.359,4.396-3.351
		c1.85-2.029,2.042-4.339,2.115-4.954c0.152-0.055,1.665-0.107,3.367-0.107h3.098l0.028,1.559c0.017,0.855-0.045,1.948-0.033,2.136
		c0.013,0.267-0.084,0.112-0.738,0.159c-0.74,0.05-0.835,0.111-0.777,0.486c0.047,0.342,0.211,0.445,0.819,0.489
		c0.415,0.039,1.421-0.123,1.673-0.185l0.054-4.703l1.31-1.63c0.746-0.943,1.423-1.8,1.504-1.905
		c0.084-0.109,0.462-0.59,0.845-1.073c0.378-0.48,2.16-2.735,3.957-5.01c1.796-2.271,3.325-4.135,3.404-4.135
		c0.083,0,0.238,0.2,0.354,0.445c0.695,1.46,1.069,2.435,1.158,3.001c0.094,0.557,0.041,0.659-0.407,0.831
		c-0.77,0.294-2.875,2.525-3.499,3.716c-0.774,1.485-1.289,3.38-1.289,4.793c0,2.085,1.401,5.527,2.84,6.959
		c3.903,3.903,9.528,4.258,13.778,0.871c1.485-1.318,2.742-3.051,3.345-4.955C627.312,47.765,627.368,44.866,626.998,43.713z
		 M587.023,39.922c1.366,1.239,2.69,2.46,2.933,5.187l-6.247,0.091L587.023,39.922z M581.534,54.044
		c-3.731-0.125-7.663-2.98-7.622-8.22c0.031-5.181,5.594-8.769,11.376-6.772c-1.519,2.686-5.018,7.271-4.596,7.854
		c0.438,0.604,1.268,0.402,5.193,0.402h4.177C589.639,53.104,583.809,54.114,581.534,54.044z M592.058,45.079
		c-0.566-2.785-2.168-5.017-4.085-7.074l2.733-4.509c0.114,0,0.63,0.767,1.152,1.697c0.521,0.938,1.983,3.54,3.251,5.776
		c1.267,2.236,2.283,4.166,2.19,4.166L592.058,45.079z M604.13,38.383c-0.14,0.164-0.697,0.929-1.289,1.649l-3.293,4.012
		l-0.004-2.516c0.503-0.017,1.524-0.006,1.49-0.648c-0.027-0.645-1.44-0.468-2.42-0.425l0.096,3.671l-6.02-11.798h7.902
		c6.637,0,7.898,0.048,7.898,0.278C608.491,32.815,606.27,35.759,604.13,38.383z M622.843,52.137c-2.074,2.007-5.1,2.819-7.76,2.089
		c-4.004-1.104-6.657-5.001-6.048-8.883c0.342-2.163,0.929-3.392,2.274-4.764c1.566-1.604,1.854-1.609,2.433-0.082
		c0.14,0.377,0.441,1.126,0.675,1.659c0.234,0.536,0.764,1.823,1.186,2.862c0.861,2.13,1.354,2.625,2.032,2.007
		c0.556-0.776,0.066-1.923-0.546-3.248c-0.329-0.601-1.985-5.063-1.985-5.354c0.464-0.463,1.54-0.239,2.189-0.217
		c1.86,0.082,2.354,0.178,3.328,0.629c1.441,0.674,3.312,2.545,3.987,3.998c0.445,0.962,0.802,1.335,0.828,3.545
		C625.701,48.615,624.299,50.54,622.843,52.137z"/>
	<circle fill="#B2B2B2" cx="106.742" cy="77.312" r="13.295"/>
	<circle fill="#B2B2B2" cx="208.947" cy="78.253" r="13.295"/>
	<circle fill="#B2B2B2" cx="301.072" cy="77.438" r="13.295"/>
	<circle fill="#B2B2B2" cx="392.431" cy="77.438" r="13.295"/>
	<circle fill="#B2B2B2" cx="509.172" cy="77.238" r="13.295"/>
	<circle fill="#B2B2B2" cx="599.527" cy="77.238" r="13.295"/>
	<circle fill="none" stroke="#B2B2B2" stroke-width="5" stroke-miterlimit="10" cx="35.003" cy="77.312" r="13.295"/>
</g>
</svg>
