<?xml version="1.0" encoding="utf-8"?>
<!-- Generator: Adobe Illustrator 16.0.0, SVG Export Plug-In . SVG Version: 6.00 Build 0)  -->
<!DOCTYPE svg PUBLIC "-//W3C//DTD SVG 1.1//EN" "http://www.w3.org/Graphics/SVG/1.1/DTD/svg11.dtd">
<svg version="1.1" id="Livello_1" xmlns="http://www.w3.org/2000/svg" xmlns:xlink="http://www.w3.org/1999/xlink" x="0px" y="0px"
	 width="800px" height="600px" viewBox="0 0 800 600" enable-background="new 0 0 800 600" xml:space="preserve">
<g id="Livello_10_103_" opacity="0.3">
	<g>
		<path fill="#00984B" d="M523.44,135.523c10.953-0.6,14.529-8.836,15.742-11.935c-17.492,7.37-33.504-1.567-33.504-1.567
			s27.179,3.844,42.081-8.613c1.173-0.985-1.046-4.172-2.498-3.037c-4.335,3.366-8.923,5.208-8.923,5.208
			c-3.471-3.771-9.921-9.404-17.045-8.383c-9.462,1.358-14.283,12.588-26.925,12.813
			C489.415,120.063,508.601,136.338,523.44,135.523z"/>
	</g>
</g>
<g id="Livello_10_102_" opacity="0.3">
	<g>
		<path fill="#00984B" d="M432.277,44.578c-5.501-9.489-14.464-8.943-17.773-8.619c14.499,12.249,13.792,30.572,13.792,30.572
			s-8.897-25.966-26.756-33.602c-1.411-0.599-3.245,2.823-1.576,3.604c4.968,2.338,8.688,5.592,8.688,5.592
			c-1.788,4.804-3.884,13.106,0.256,18.992c5.501,7.818,17.695,7.023,23.629,18.189C433.923,81.916,439.73,57.436,432.277,44.578z"
			/>
	</g>
</g>
<g id="Livello_10_100_" opacity="0.3">
	<g>
		<path fill="#00984B" d="M39.039,304.697c-9.489,5.501-8.943,14.463-8.62,17.773c12.25-14.499,30.573-13.793,30.573-13.793
			s-25.966,8.897-33.603,26.757c-0.598,1.41,2.824,3.243,3.604,1.575c2.337-4.967,5.591-8.688,5.591-8.688
			c4.804,1.787,13.106,3.884,18.993-0.256c7.818-5.502,7.024-17.695,18.19-23.629C76.376,303.052,51.896,297.244,39.039,304.697z"/>
	</g>
</g>
<g id="Livello_10_99_" opacity="0.3">
	<g>
		<path fill="#00984B" d="M15.719,201.275c-9.49,5.5-8.944,14.463-8.621,17.773c12.25-14.498,30.573-13.792,30.573-13.792
			s-25.967,8.897-33.602,26.757c-0.599,1.41,2.824,3.244,3.604,1.574c2.338-4.967,5.592-8.688,5.592-8.688
			c4.804,1.789,13.106,3.885,18.993-0.256c7.818-5.499,7.023-17.694,18.189-23.628C53.056,199.63,28.576,193.822,15.719,201.275z"/>
	</g>
</g>
<g id="Livello_10_98_" opacity="0.3">
	<g>
		<path fill="#00984B" d="M139.468,367.38c-6.446,8.876-2.313,16.849-0.675,19.743c5.32-18.22,22.357-25.002,22.357-25.002
			s-20.131,18.66-19.872,38.08c0.024,1.531,3.896,1.821,3.933-0.02c0.124-5.488,1.59-10.21,1.59-10.21
			c5.116-0.313,13.556-1.763,17.258-7.933c4.918-8.197-0.751-19.023,7.05-28.975C172.932,350.74,148.199,355.354,139.468,367.38z"/>
	</g>
</g>
<g id="Livello_10_106_" opacity="0.3">
	<g>
		<path fill="#00984B" d="M94.786,116.324c-6.446,8.876-2.313,16.849-0.675,19.743c5.32-18.22,22.357-25.002,22.357-25.002
			s-20.131,18.659-19.871,38.08c0.024,1.532,3.896,1.821,3.933-0.021c0.124-5.488,1.59-10.209,1.59-10.209
			c5.117-0.313,13.556-1.763,17.258-7.934c4.918-8.197-0.751-19.022,7.05-28.974C128.25,99.685,103.518,104.299,94.786,116.324z"/>
	</g>
</g>
<g id="Livello_10_107_" opacity="0.3">
	<g>
		<path fill="#00984B" d="M257.76,100.583c-10.325,3.706-11.398,12.622-11.675,15.936c14.656-12.062,32.554-8.073,32.554-8.073
			s-27.143,4.086-37.863,20.281c-0.843,1.28,2.194,3.699,3.261,2.197c3.193-4.465,7.062-7.541,7.062-7.541
			c4.405,2.621,12.195,6.176,18.729,3.16c8.68-4.005,10.089-16.143,22.141-19.975C294.784,105.675,271.747,95.562,257.76,100.583z"
			/>
	</g>
</g>
<g id="Livello_10_97_" opacity="0.3">
	<g>
		<path fill="#00984B" d="M40.375,464.891c5.5,9.49,14.463,8.943,17.773,8.62c-14.499-12.249-13.792-30.572-13.792-30.572
			s8.897,25.966,26.756,33.602c1.411,0.599,3.245-2.823,1.576-3.604c-4.967-2.338-8.688-5.592-8.688-5.592
			c1.787-4.804,3.884-13.105-0.256-18.993c-5.501-7.818-17.695-7.023-23.629-18.189C38.728,427.555,32.92,452.035,40.375,464.891z"
			/>
	</g>
</g>
<g id="Livello_10_96_" opacity="0.3">
	<g>
		<path fill="#00984B" d="M593.617,203.008c-5.5-9.491-14.463-8.945-17.773-8.62c14.499,12.249,13.792,30.572,13.792,30.572
			s-8.896-25.967-26.756-33.603c-1.411-0.599-3.244,2.824-1.576,3.604c4.967,2.338,8.688,5.592,8.688,5.592
			c-1.788,4.804-3.885,13.106,0.255,18.993c5.5,7.817,17.695,7.024,23.628,18.19C595.264,240.344,601.072,215.863,593.617,203.008z"
			/>
	</g>
</g>
<g id="Livello_10_108_" opacity="0.3">
	<g>
		<path fill="#00984B" d="M540.977,368.579c-5.5-9.491-14.463-8.945-17.773-8.62c14.499,12.248,13.793,30.572,13.793,30.572
			s-8.896-25.967-26.756-33.603c-1.411-0.599-3.244,2.824-1.576,3.604c4.967,2.338,8.688,5.592,8.688,5.592
			c-1.787,4.804-3.885,13.106,0.256,18.993c5.5,7.817,17.695,7.023,23.628,18.19C542.623,405.914,548.431,381.435,540.977,368.579z"
			/>
	</g>
</g>
<g id="Livello_10_95_" opacity="0.3">
	<g>
		<path fill="#00984B" d="M84.59,565.475c-5.5-9.489-14.463-8.942-17.773-8.619c14.499,12.249,13.792,30.572,13.792,30.572
			s-8.897-25.966-26.756-33.602c-1.411-0.599-3.245,2.823-1.576,3.604c4.967,2.338,8.688,5.592,8.688,5.592
			c-1.788,4.805-3.884,13.106,0.256,18.992c5.5,7.819,17.695,7.023,23.628,18.189C86.236,602.812,92.044,578.332,84.59,565.475z"/>
	</g>
</g>
<g id="Livello_10_109_" opacity="0.3">
	<g>
		<path fill="#00984B" d="M756.977,35.578c-5.5-9.49-14.463-8.943-17.773-8.62c14.499,12.249,13.793,30.573,13.793,30.573
			s-8.897-25.967-26.756-33.603c-1.411-0.599-3.245,2.823-1.576,3.604c4.967,2.338,8.688,5.592,8.688,5.592
			c-1.788,4.805-3.885,13.107,0.255,18.993c5.5,7.818,17.695,7.023,23.628,18.189C758.623,72.916,764.431,48.436,756.977,35.578z"/>
	</g>
</g>
<g id="Livello_10_94_" opacity="0.3">
	<g>
		<path fill="#00984B" d="M640.058,275.959c-9.49,5.5-8.944,14.463-8.62,17.772c12.25-14.498,30.572-13.793,30.572-13.793
			s-25.966,8.898-33.602,26.757c-0.599,1.41,2.824,3.244,3.604,1.576c2.337-4.968,5.591-8.688,5.591-8.688
			c4.804,1.788,13.107,3.884,18.994-0.256c7.818-5.5,7.023-17.694,18.189-23.628C677.395,274.312,652.915,268.505,640.058,275.959z"
			/>
	</g>
</g>
<g id="Livello_10_93_" opacity="0.3">
	<g>
		<path fill="#00984B" d="M636.917,108.314c-5.389,9.554-0.371,17.002,1.587,19.689c3.202-18.708,19.351-27.395,19.351-27.395
			s-17.865,20.84-15.386,40.104c0.2,1.52,4.079,1.363,3.904-0.47c-0.504-5.468,0.412-10.324,0.412-10.324
			c5.047-0.897,13.265-3.302,16.238-9.856c3.948-8.704-2.923-18.812,3.69-29.588C668.259,87.956,644.216,95.369,636.917,108.314z"/>
	</g>
</g>
<g id="Livello_10_92_" opacity="0.3">
	<g>
		<path fill="#00984B" d="M725.875,357.085c-10.6-2.821-16.552,3.902-18.663,6.472c18.914-1.592,31.371,11.865,31.371,11.865
			s-24.652-12.069-42.68-4.84c-1.42,0.572-0.298,4.29,1.434,3.661c5.165-1.859,10.097-2.189,10.097-2.189
			c2.133,4.661,6.521,12.015,13.611,13.249c9.418,1.639,17.479-7.545,29.57-3.846C753.44,382.321,740.237,360.904,725.875,357.085z"
			/>
	</g>
</g>
<g id="Livello_10_105_" opacity="0.3">
	<g>
		<path fill="#00984B" d="M334.433,529.444c-10.935-0.859-15.574,6.83-17.187,9.738c18.316-4.98,32.998,6.004,32.998,6.004
			s-26.426-7.419-42.852,2.948c-1.294,0.821,0.482,4.272,2.072,3.343c4.745-2.762,9.536-3.978,9.536-3.978
			c2.94,4.199,8.584,10.639,15.78,10.572c9.56-0.089,15.828-10.578,28.388-9.124C366.104,549.289,349.249,530.608,334.433,529.444z"
			/>
	</g>
</g>
<g id="Livello_10_104_" opacity="0.3">
	<g>
		<path fill="#00984B" d="M541.103,479.949c-8.341,7.124-6.186,15.841-5.269,19.038c9.429-16.474,27.579-19.089,27.579-19.089
			s-23.933,13.441-28.216,32.386c-0.335,1.495,3.362,2.682,3.828,0.899c1.402-5.309,3.93-9.557,3.93-9.557
			c5.048,0.891,13.593,1.454,18.635-3.682c6.695-6.822,3.712-18.672,13.623-26.525C577.526,471.585,552.401,470.295,541.103,479.949
			z"/>
	</g>
</g>
<g id="Livello_10_118_" opacity="0.3">
	<g>
		<path fill="#00984B" d="M65.984,55.911c3.472-10.405-2.871-16.761-5.306-19.028C61.096,55.859,46.894,67.46,46.894,67.46
			s13.573-23.858,7.473-42.298c-0.484-1.453-4.264-0.562-3.743,1.205c1.535,5.27,1.56,10.213,1.56,10.213
			c-4.784,1.84-12.395,5.766-14.066,12.766c-2.218,9.298,6.45,17.912,2.009,29.75C39.09,81.862,61.282,70.009,65.984,55.911z"/>
	</g>
</g>
<g id="Livello_10_117_" opacity="0.3">
	<g>
		<path fill="#00984B" d="M736.329,195.349c-10.848,1.624-13.638,10.159-14.554,13.356c16.724-8.976,33.502-1.578,33.502-1.578
			s-27.418-1.279-41.088,12.518c-1.076,1.092,1.431,4.056,2.771,2.791c4.002-3.759,8.396-6.021,8.396-6.021
			c3.809,3.43,10.758,8.434,17.754,6.75c9.294-2.239,13.041-13.871,25.607-15.28C771.654,207.555,751.027,193.148,736.329,195.349z"
			/>
	</g>
</g>
<g id="Livello_10_116_" opacity="0.3">
	<g>
		<path fill="#00984B" d="M267.799,281.865c-10.849,1.621-13.639,10.157-14.554,13.354c16.724-8.976,33.502-1.577,33.502-1.577
			s-27.418-1.281-41.089,12.517c-1.076,1.092,1.433,4.056,2.771,2.791c4.001-3.759,8.396-6.022,8.396-6.022
			c3.809,3.43,10.758,8.435,17.755,6.751c9.293-2.239,13.042-13.87,25.608-15.278C303.123,294.07,282.496,279.662,267.799,281.865z"
			/>
	</g>
</g>
<g id="Livello_10_119_" opacity="0.3">
	<g>
		<path fill="#00984B" d="M172.223,502.731c-9.926-4.669-16.982,0.887-19.518,3.04c18.894,1.807,28.751,17.27,28.751,17.27
			s-22.104-16.274-41.132-12.375c-1.501,0.311-1.057,4.169,0.758,3.858c5.414-0.908,10.327-0.354,10.327-0.354
			c1.267,4.967,4.273,12.985,11.029,15.466c8.974,3.291,18.544-4.308,29.782,1.49C194.845,532.479,185.673,509.05,172.223,502.731z"
			/>
	</g>
</g>
<g id="Livello_10_115_" opacity="0.3">
	<g>
		<path fill="#00984B" d="M440.402,250.729c-10.848,1.622-13.639,10.158-14.555,13.355c16.724-8.976,33.503-1.578,33.503-1.578
			s-27.418-1.28-41.089,12.518c-1.076,1.091,1.432,4.055,2.771,2.791c4.001-3.759,8.396-6.021,8.396-6.021
			c3.809,3.429,10.758,8.434,17.755,6.75c9.292-2.238,13.041-13.871,25.607-15.279C475.725,262.934,455.099,248.527,440.402,250.729
			z"/>
	</g>
</g>
<g id="Livello_10_121_" opacity="0.3">
	<g>
		<path fill="#00984B" d="M410.483,422.26c-5.52,9.479-0.604,16.996,1.317,19.71c3.457-18.662,19.724-27.128,19.724-27.128
			s-18.148,20.593-15.933,39.889c0.178,1.522,4.06,1.42,3.91-0.416c-0.43-5.473,0.554-10.316,0.554-10.316
			c5.058-0.828,13.309-3.119,16.372-9.632c4.066-8.651-2.666-18.852,4.095-29.537C442.099,402.334,417.958,409.416,410.483,422.26z"
			/>
	</g>
</g>
<g id="Livello_10_122_" opacity="0.3">
	<g>
		<path fill="#00984B" d="M582.539,27.971c-5.52,9.479-0.604,16.996,1.317,19.71c3.457-18.662,19.724-27.128,19.724-27.128
			s-18.148,20.593-15.933,39.889c0.178,1.522,4.06,1.42,3.91-0.416c-0.43-5.473,0.554-10.316,0.554-10.316
			c5.058-0.828,13.309-3.119,16.372-9.632c4.066-8.651-2.666-18.852,4.095-29.537C614.155,8.045,590.014,15.127,582.539,27.971z"/>
	</g>
</g>
<g id="Livello_10_114_" opacity="0.3">
	<g>
		<path fill="#00984B" d="M156.186,50.282c1.623,10.848,10.158,13.638,13.354,14.554c-8.974-16.725-1.577-33.502-1.577-33.502
			s-1.279,27.418,12.518,41.088c1.091,1.076,4.056-1.432,2.792-2.771c-3.759-4-6.022-8.395-6.022-8.395
			c3.43-3.81,8.434-10.759,6.75-17.756c-2.238-9.293-13.869-13.041-15.279-25.606C168.391,14.959,153.984,35.585,156.186,50.282z"/>
	</g>
</g>
<g id="Livello_10_113_" opacity="0.3">
	<g>
		<path fill="#00984B" d="M356.973,171.717c6.901,8.525,15.673,6.6,18.893,5.769c-16.218-9.86-18.354-28.073-18.354-28.073
			s12.806,24.279,31.63,29.062c1.486,0.373,2.769-3.291,1-3.804c-5.27-1.542-9.449-4.181-9.449-4.181
			c1.022-5.022,1.811-13.55-3.19-18.726c-6.642-6.874-18.568-4.203-26.155-14.316C349.574,135.083,347.622,160.167,356.973,171.717z
			"/>
	</g>
</g>
<g id="Livello_10_112_" opacity="0.3">
	<g>
		<path fill="#00984B" d="M341.137,364.13c-6.522,8.818-2.46,16.826-0.848,19.735c5.478-18.173,22.574-24.806,22.574-24.806
			s-20.292,18.482-20.202,37.905c0.009,1.532,3.879,1.855,3.932,0.014c0.171-5.487,1.679-10.194,1.679-10.194
			c5.119-0.27,13.571-1.643,17.327-7.781c4.989-8.155-0.585-19.029,7.304-28.912C374.745,347.783,349.973,352.181,341.137,364.13z"
			/>
	</g>
</g>
<g id="Livello_10_111_" opacity="0.3">
	<g>
		<path fill="#00984B" d="M435.075,510.655c-4.822,9.851,0.621,16.994,2.732,19.563c2.107-18.863,17.723-28.475,17.723-28.475
			s-16.621,21.844-13.024,40.931c0.288,1.505,4.15,1.123,3.871-0.696c-0.823-5.428-0.19-10.33-0.19-10.33
			c4.986-1.189,13.051-4.068,15.636-10.784c3.435-8.922-4.012-18.61,1.961-29.754C465.18,488.506,441.608,497.307,435.075,510.655z"
			/>
	</g>
</g>
<g id="Livello_10_110_" opacity="0.3">
	<g>
		<path fill="#00984B" d="M648.399,556.959c3.556,10.377,12.454,11.579,15.765,11.903c-11.85-14.828-7.604-32.668-7.604-32.668
			s3.693,27.199,19.733,38.152c1.267,0.861,3.73-2.14,2.245-3.229c-4.421-3.257-7.441-7.171-7.441-7.171
			c2.686-4.366,6.353-12.104,3.433-18.682c-3.88-8.736-15.997-10.322-19.653-22.427C654.022,520.012,643.579,542.9,648.399,556.959z
			"/>
	</g>
</g>
<g id="Livello_10_120_" opacity="0.3">
	<g>
		<path fill="#00984B" d="M680.549,449.34c-6.663,8.713-2.728,16.784-1.162,19.719c5.767-18.084,22.966-24.444,22.966-24.444
			s-20.584,18.158-20.803,37.58c-0.015,1.531,3.849,1.917,3.931,0.077c0.258-5.485,1.84-10.169,1.84-10.169
			c5.123-0.187,13.596-1.427,17.449-7.505c5.118-8.073-0.282-19.035,7.762-28.791C714.412,433.527,689.574,437.531,680.549,449.34z"
			/>
	</g>
</g>
<g id="Livello_10_91_" opacity="0.3">
	<g>
		<path fill="#00984B" d="M177.051,199.644c-10.599-2.821-16.551,3.903-18.663,6.473c18.915-1.59,31.372,11.865,31.372,11.865
			s-24.652-12.069-42.68-4.841c-1.42,0.575-0.297,4.29,1.435,3.663c5.165-1.86,10.097-2.189,10.097-2.189
			c2.133,4.659,6.521,12.013,13.612,13.248c9.417,1.64,17.479-7.546,29.57-3.846C204.616,224.881,191.414,203.464,177.051,199.644z"
			/>
	</g>
</g>
<g id="Livello_10_90_" opacity="0.3">
	<g>
		<path fill="#00984B" d="M238.889,448.009c-6.243,9.019-1.932,16.896-0.229,19.753c4.907-18.337,21.786-25.503,21.786-25.503
			s-19.704,19.11-19.005,38.521c0.058,1.532,3.936,1.733,3.931-0.109c0-5.49,1.358-10.242,1.358-10.242
			c5.107-0.43,13.512-2.068,17.075-8.322c4.731-8.306-1.182-19,6.393-29.125C271.968,430.615,247.346,435.789,238.889,448.009z"/>
	</g>
</g>
</svg>
