<?xml version="1.0" encoding="utf-8"?>
<!-- Generator: Adobe Illustrator 16.0.4, SVG Export Plug-In . SVG Version: 6.00 Build 0)  -->
<!DOCTYPE svg PUBLIC "-//W3C//DTD SVG 1.1//EN" "http://www.w3.org/Graphics/SVG/1.1/DTD/svg11.dtd">
<svg version="1.1" id="Livello_1" xmlns="http://www.w3.org/2000/svg" xmlns:xlink="http://www.w3.org/1999/xlink" x="0px" y="0px"
	 width="210.001px" height="200px" viewBox="0 0 210.001 200" enable-background="new 0 0 210.001 200" xml:space="preserve">
<g>
	<circle fill="#2A398D" cx="104" cy="100" r="84"/>
	<circle fill="#2A398D" stroke="#FFFFFF" stroke-width="5" stroke-miterlimit="10" cx="104.001" cy="99.717" r="75.216"/>
	<g>
		<g>
			<path fill="#FFFFFF" d="M156.463,78.24c2.404,0.057,4.414-1.852,4.469-4.267c0.057-2.418-1.861-4.417-4.266-4.473
				c-2.414-0.055-4.414,1.85-4.471,4.269C152.141,76.185,154.049,78.184,156.463,78.24z"/>
		</g>
		<g>
			<path fill="#FFFFFF" d="M157.098,95.496h11.852v-4.369h-8.805l-4.855-8.088c-0.717-1.212-2.039-2.014-3.547-2.014
				c-0.41,0-0.811,0.06-1.188,0.168l-13.176,4.104L135.6,97.925h4.369l1.781-8.898l5.115-1.594l-9.486,37.201h4.371l6.971-19.692
				l5.658,7.552v12.14h4.369v-15.552l-6.047-11.025l1.787-6.966L157.098,95.496z"/>
		</g>
	</g>
	<path fill="#FFFFFF" d="M108.299,108.061c-1.768-5.548-6.5-9.177-11.838-9.119l-3.871,0.14l-1.225-3.073
		c-2.379-5.963-3.609-8.887-3.986-9.455c-0.373-0.568-0.418-0.575-3.943-0.575c-3.121,0-3.615,0.055-3.881,0.417
		c-0.438,0.572-0.412,0.923,0.133,1.471c0.42,0.419,0.791,0.471,3.162,0.471c1.875,0,2.76,0.09,2.912,0.296
		c0.266,0.352,1.25,2.758,1.25,3.047c0,0.112-4.939,0.198-10.975,0.198h-10.98l-0.467-0.925c-0.264-0.518-0.479-0.984-0.479-1.04
		c0-0.063,1.123-0.236,2.498-0.402c2.801-0.331,3.828-0.825,3.154-1.511c-0.301-0.311-1.143-0.383-4.889-0.43
		c-3.08-0.035-4.613,0.028-4.789,0.209c-0.143,0.143-0.227,0.674-0.186,1.179c0.066,0.812,0.135,1.272,0.883,1.184l1.135-0.146
		l1.477,2.781l-4.609,7.066c-3.285-0.985-6.27-1.208-9.645-0.122c-1.623,0.683-3.924,2.317-4.977,3.55
		c-1.377,1.608-2.459,4.042-2.783,6.266c-0.035,0.246-0.061,0.496-0.078,0.738v1.691c0.35,4.786,3.67,9.265,8.314,10.806
		c2.154,0.723,2.205,0.73,4.459,0.652c1.684-0.058,2.502-0.223,3.963-0.79c2.125-0.827,3.117-1.648,5.336-4.066
		c2.246-2.463,2.48-5.267,2.568-6.015c0.184-0.065,2.023-0.128,4.088-0.128h3.762l0.033,1.891c0.021,1.04-0.053,2.364-0.043,2.593
		c0.018,0.324-0.1,0.137-0.893,0.193c-0.9,0.06-1.014,0.135-0.945,0.59c0.057,0.415,0.254,0.54,0.994,0.596
		c0.504,0.046,1.727-0.15,2.033-0.227l0.062-5.707l1.592-1.981c0.904-1.144,1.727-2.185,1.824-2.312
		c0.102-0.133,0.564-0.717,1.027-1.303c0.459-0.584,2.623-3.319,4.803-6.081c2.182-2.758,4.037-5.021,4.133-5.021
		c0.1,0,0.291,0.243,0.428,0.54c0.846,1.773,1.299,2.957,1.404,3.645c0.115,0.674,0.053,0.8-0.494,1.008
		c-0.934,0.357-3.49,3.066-4.244,4.512c-0.943,1.801-1.566,4.102-1.566,5.817c0,2.531,1.703,6.711,3.447,8.448
		c4.738,4.739,11.568,5.168,16.727,1.059c1.803-1.603,3.33-3.702,4.062-6.017C108.68,112.979,108.75,109.461,108.299,108.061z
		 M59.773,103.459c1.658,1.502,3.264,2.987,3.561,6.295l-7.586,0.109L59.773,103.459z M53.109,120.6
		c-4.531-0.151-9.305-3.617-9.256-9.978c0.041-6.287,6.793-10.643,13.812-8.219c-1.846,3.258-6.092,8.828-5.578,9.531
		c0.531,0.734,1.537,0.489,6.305,0.489h5.072C62.947,119.461,55.869,120.688,53.109,120.6z M65.883,109.718
		c-0.686-3.379-2.629-6.09-4.959-8.586l3.318-5.473c0.139,0,0.766,0.929,1.398,2.06c0.635,1.14,2.408,4.296,3.947,7.012
		c1.537,2.712,2.771,5.058,2.66,5.058L65.883,109.718z M80.541,101.589c-0.172,0.201-0.848,1.128-1.568,2.003l-3.996,4.868
		l-0.004-3.052c0.611-0.018,1.852-0.009,1.809-0.787c-0.033-0.783-1.75-0.568-2.941-0.516l0.119,4.457l-7.307-14.321h9.59
		c8.057,0,9.592,0.056,9.592,0.334C85.834,94.831,83.135,98.403,80.541,101.589z M103.256,118.287
		c-2.52,2.435-6.189,3.421-9.422,2.534c-4.859-1.34-8.08-6.068-7.34-10.783c0.414-2.626,1.125-4.117,2.762-5.782
		c1.9-1.946,2.248-1.955,2.951-0.099c0.168,0.454,0.539,1.367,0.82,2.012c0.281,0.651,0.928,2.215,1.439,3.476
		c1.043,2.584,1.641,3.186,2.465,2.437c0.676-0.945,0.08-2.333-0.662-3.944c-0.4-0.729-2.41-6.148-2.41-6.501
		c0.564-0.562,1.869-0.289,2.658-0.262c2.26,0.101,2.857,0.216,4.039,0.765c1.752,0.818,4.02,3.09,4.84,4.852
		c0.541,1.168,0.977,1.623,1.006,4.305C106.727,114.014,105.021,116.346,103.256,118.287z"/>
	<g>
		<path fill="#FFFFFF" d="M81.648,40.337h9.492c0.129,0,0.25,0.023,0.363,0.07c0.115,0.047,0.215,0.113,0.299,0.198
			c0.086,0.085,0.152,0.185,0.199,0.299s0.07,0.236,0.07,0.365c0,0.193-0.059,0.375-0.176,0.545l-8.342,10.723h7.586
			c0.264,0.006,0.484,0.1,0.662,0.281c0.18,0.182,0.27,0.401,0.27,0.659s-0.09,0.476-0.27,0.655
			c-0.178,0.179-0.396,0.268-0.654,0.268h-9.5c-0.135,0-0.258-0.023-0.369-0.07s-0.211-0.113-0.295-0.198
			c-0.086-0.085-0.15-0.183-0.197-0.294s-0.07-0.234-0.07-0.369c0.006-0.223,0.07-0.416,0.193-0.58l8.322-10.688h-7.584
			c-0.252,0-0.471-0.091-0.656-0.272c-0.184-0.182-0.275-0.401-0.275-0.659s0.092-0.478,0.275-0.659
			C81.178,40.428,81.396,40.337,81.648,40.337z"/>
		<path fill="#FFFFFF" d="M102.426,52.537c0.258,0,0.477,0.091,0.658,0.272s0.273,0.401,0.273,0.659s-0.092,0.478-0.273,0.659
			s-0.4,0.272-0.658,0.272h-8.131c-0.135,0-0.258-0.023-0.369-0.07s-0.209-0.113-0.295-0.198c-0.084-0.085-0.15-0.183-0.197-0.294
			s-0.07-0.234-0.07-0.369V41.269c0-0.129,0.023-0.25,0.07-0.365s0.113-0.214,0.197-0.299c0.086-0.085,0.184-0.151,0.295-0.198
			s0.234-0.07,0.369-0.07h8.131c0.258,0,0.477,0.091,0.658,0.272s0.273,0.401,0.273,0.659s-0.092,0.478-0.273,0.659
			s-0.4,0.272-0.658,0.272h-7.199v4.236h5.168c0.258,0,0.479,0.091,0.66,0.272s0.271,0.401,0.271,0.659s-0.09,0.478-0.271,0.659
			s-0.402,0.272-0.66,0.272h-5.168v4.236H102.426z"/>
		<path fill="#FFFFFF" d="M104.605,53.468V41.269c0-0.129,0.023-0.25,0.07-0.365s0.111-0.214,0.197-0.299
			c0.084-0.085,0.184-0.151,0.295-0.198s0.234-0.07,0.369-0.07h3.393c0.592,0,1.148,0.114,1.674,0.343
			c0.523,0.229,0.98,0.539,1.371,0.932c0.389,0.393,0.699,0.851,0.928,1.375s0.342,1.083,0.342,1.674
			c0,0.387-0.049,0.763-0.145,1.129c-0.098,0.366-0.24,0.712-0.432,1.037c-0.189,0.325-0.428,0.627-0.711,0.905
			c-0.285,0.278-0.613,0.523-0.988,0.734l2.803,4.491c0.1,0.164,0.15,0.334,0.15,0.51c0,0.135-0.023,0.258-0.07,0.369
			s-0.113,0.209-0.199,0.294c-0.084,0.085-0.184,0.151-0.299,0.198c-0.113,0.047-0.234,0.07-0.363,0.07
			c-0.328,0-0.596-0.152-0.801-0.457l-3.102-4.966h-2.619v4.491c0,0.258-0.092,0.478-0.273,0.659s-0.4,0.272-0.658,0.272
			s-0.479-0.091-0.66-0.272S104.605,53.726,104.605,53.468z M106.469,42.201v4.913h2.461c0.34,0,0.658-0.064,0.957-0.193
			s0.559-0.306,0.777-0.532c0.221-0.226,0.395-0.486,0.523-0.782s0.193-0.611,0.193-0.945c0-0.34-0.064-0.659-0.193-0.958
			s-0.305-0.56-0.527-0.782s-0.482-0.398-0.781-0.527s-0.615-0.193-0.949-0.193H106.469z"/>
		<path fill="#FFFFFF" d="M129.258,47.369c0,1.939-0.689,3.598-2.066,4.975c-1.371,1.371-3.025,2.057-4.965,2.057
			c-1.945,0-3.604-0.686-4.975-2.057s-2.057-3.029-2.057-4.975c0-1.939,0.686-3.595,2.057-4.966
			c1.377-1.377,3.035-2.065,4.975-2.065c1.934,0,3.588,0.688,4.965,2.065c0.691,0.691,1.209,1.447,1.553,2.268
			C129.086,45.491,129.258,46.39,129.258,47.369z M122.227,42.201c-0.727,0-1.391,0.126-1.99,0.378
			c-0.602,0.252-1.156,0.633-1.666,1.143s-0.889,1.063-1.139,1.661c-0.248,0.598-0.373,1.26-0.373,1.986
			c0,1.43,0.504,2.648,1.512,3.656s2.227,1.512,3.656,1.512s2.648-0.504,3.656-1.512s1.512-2.227,1.512-3.656
			c0-1.424-0.504-2.64-1.512-3.647C124.869,42.708,123.65,42.201,122.227,42.201z"/>
		<path fill="#FFFFFF" d="M75.742,75.068c0,0.258-0.092,0.478-0.273,0.659S75.068,76,74.811,76s-0.479-0.091-0.66-0.272
			s-0.271-0.401-0.271-0.659V62.869c0-0.258,0.09-0.478,0.271-0.659s0.402-0.272,0.66-0.272s0.477,0.091,0.658,0.272
			s0.273,0.401,0.273,0.659V75.068z"/>
		<path fill="#FFFFFF" d="M77.518,75.068V62.869c0-0.129,0.023-0.25,0.07-0.365s0.111-0.214,0.197-0.299
			c0.084-0.085,0.184-0.151,0.295-0.198s0.234-0.07,0.369-0.07c0.363,0,0.639,0.167,0.826,0.501l5.273,10.538l5.273-10.538
			c0.211-0.334,0.486-0.501,0.826-0.501c0.129,0,0.25,0.023,0.363,0.07c0.115,0.047,0.215,0.113,0.299,0.198
			c0.086,0.085,0.152,0.185,0.199,0.299s0.07,0.236,0.07,0.365v12.199c0,0.258-0.092,0.478-0.273,0.659S90.906,76,90.648,76
			s-0.479-0.091-0.66-0.272s-0.271-0.401-0.271-0.659v-8.244l-4.359,8.71C85.176,75.845,84.906,76,84.549,76
			c-0.387,0-0.672-0.188-0.854-0.562l-4.314-8.613v8.244c0,0.258-0.092,0.478-0.273,0.659S78.707,76,78.449,76
			s-0.479-0.091-0.66-0.272S77.518,75.326,77.518,75.068z"/>
		<path fill="#FFFFFF" d="M92.934,75.068V62.869c0-0.129,0.023-0.25,0.07-0.365s0.111-0.214,0.197-0.299
			c0.084-0.085,0.184-0.151,0.295-0.198s0.234-0.07,0.369-0.07h2.707c0.422,0,0.83,0.056,1.225,0.167
			c0.396,0.111,0.768,0.27,1.113,0.475s0.662,0.45,0.949,0.734s0.531,0.599,0.732,0.945c0.203,0.346,0.361,0.716,0.475,1.112
			c0.115,0.396,0.172,0.804,0.172,1.226c0,1.277-0.459,2.376-1.379,3.296c-0.908,0.908-2.004,1.362-3.287,1.362h-1.775v3.814
			c0,0.258-0.092,0.478-0.273,0.659S94.123,76,93.865,76s-0.479-0.091-0.66-0.272S92.934,75.326,92.934,75.068z M94.797,63.801v5.59
			h1.775c0.381,0,0.738-0.073,1.076-0.22c0.336-0.146,0.633-0.346,0.887-0.598c0.256-0.252,0.457-0.548,0.607-0.888
			c0.148-0.34,0.225-0.703,0.225-1.09c0-0.393-0.076-0.759-0.225-1.099c-0.15-0.34-0.352-0.636-0.607-0.888
			c-0.254-0.252-0.551-0.45-0.891-0.593s-0.697-0.215-1.072-0.215H94.797z"/>
		<path fill="#FFFFFF" d="M100.562,74.646l4.693-12.076c0.188-0.422,0.482-0.633,0.887-0.633c0.416,0,0.713,0.211,0.889,0.633
			l4.711,12.12c0.047,0.117,0.07,0.243,0.07,0.378c0,0.258-0.092,0.478-0.273,0.659S111.139,76,110.881,76s-0.475-0.091-0.65-0.272
			c-0.094-0.094-0.164-0.193-0.211-0.299l-1.627-4.175h-4.5l-1.635,4.175c-0.047,0.105-0.117,0.205-0.211,0.299
			c-0.182,0.182-0.4,0.272-0.658,0.272s-0.477-0.091-0.656-0.272c-0.178-0.182-0.268-0.401-0.268-0.659
			C100.465,74.928,100.498,74.787,100.562,74.646z M107.672,69.391l-1.529-3.946l-1.529,3.946H107.672z"/>
		<path fill="#FFFFFF" d="M123.939,72.836c0.129,0,0.25,0.025,0.361,0.075s0.209,0.116,0.295,0.198
			c0.084,0.082,0.152,0.18,0.201,0.294c0.051,0.114,0.074,0.236,0.074,0.365c0,0.246-0.096,0.469-0.289,0.668
			C123.275,75.479,121.801,76,120.16,76c-1.945,0-3.604-0.686-4.975-2.057c-1.369-1.371-2.055-3.029-2.055-4.975
			c0-1.939,0.686-3.595,2.055-4.966c1.377-1.377,3.035-2.065,4.975-2.065c1.664,0,3.168,0.548,4.51,1.644
			c0.164,0.158,0.246,0.372,0.246,0.642c0,0.135-0.023,0.258-0.07,0.369s-0.113,0.209-0.197,0.294
			c-0.086,0.085-0.186,0.151-0.299,0.198c-0.115,0.047-0.236,0.07-0.365,0.07c-0.229,0-0.443-0.088-0.643-0.264
			c-0.445-0.352-0.936-0.621-1.471-0.809c-0.537-0.188-1.107-0.281-1.711-0.281c-1.43,0-2.65,0.507-3.664,1.521
			c-1.002,1.002-1.504,2.218-1.504,3.647c0,1.436,0.502,2.654,1.504,3.656c1.008,1.008,2.229,1.512,3.664,1.512
			c1.225,0,2.303-0.378,3.234-1.134C123.547,72.897,123.729,72.842,123.939,72.836z"/>
		<path fill="#FFFFFF" d="M135.867,63.801h-3.473v11.268c0,0.258-0.09,0.478-0.271,0.659S131.721,76,131.463,76
			s-0.477-0.091-0.658-0.272s-0.273-0.401-0.273-0.659V63.801h-3.471c-0.258,0-0.479-0.091-0.66-0.272s-0.271-0.401-0.271-0.659
			s0.09-0.478,0.271-0.659s0.402-0.272,0.66-0.272h8.807c0.258,0,0.477,0.091,0.658,0.272s0.273,0.401,0.273,0.659
			s-0.092,0.478-0.273,0.659S136.125,63.801,135.867,63.801z"/>
	</g>
	<g>
		<g>
			<path fill="#5B6AB0" stroke="#FFFFFF" stroke-width="2" stroke-miterlimit="10" d="M194.769,167.589
				c-2.534-5.82-5.349-11.609-8.445-17.346c6.004-2.538,12.218-4.851,18.63-6.916c-63.973-26.856-136.118-26.686-199.987,0.509
				c0.04,0.094,0.08,0.188,0.12,0.282c6.617,2.096,13.025,4.457,19.212,7.058c-2.899,5.432-5.547,10.909-7.942,16.414
				C73.411,143.639,137.712,143.638,194.769,167.589L194.769,167.589L194.769,167.589z"/>
		</g>
	</g>
	<g>
		<g>
			<path fill="#FFFFFF" d="M50.921,146.816c1.823-0.485,3.646-0.946,5.467-1.381c0.516-0.123,0.872-0.365,1.078-0.728
				c0.203-0.365,0.279-1.065,0.229-2.103c0.396-0.091,0.793-0.18,1.189-0.269c0.29,1.706,0.589,3.41,0.898,5.112
				c-3.535,0.799-7.073,1.693-10.607,2.681c-0.094-0.296-0.189-0.595-0.284-0.891c0.317-0.963,1.062-2.511,2.303-4.63
				c1.097-1.879,1.802-3.236,2.061-4.084c0.36-1.155,0.414-2.242,0.149-3.264c-0.229-0.882-0.636-1.497-1.227-1.839
				c-0.589-0.343-1.301-0.413-2.124-0.203c-0.829,0.212-1.475,0.576-1.92,1.093c-0.45,0.516-0.615,0.971-0.502,1.364
				c0.045,0.16,0.144,0.268,0.293,0.324c0.154,0.064,0.474,0.081,0.97,0.056c1.064-0.042,1.69,0.296,1.887,1.003
				c0.132,0.478,0.051,0.92-0.243,1.326c-0.294,0.406-0.726,0.684-1.295,0.836c-0.598,0.158-1.154,0.081-1.675-0.238
				c-0.521-0.315-0.896-0.86-1.127-1.631c-0.32-1.075-0.164-2.091,0.483-3.048c0.794-1.174,2.111-1.999,3.925-2.451
				c1.621-0.402,3.026-0.34,4.195,0.178c1.171,0.518,1.876,1.33,2.138,2.427c0.138,0.584,0.148,1.149,0.028,1.69
				c-0.158,0.734-0.438,1.42-0.836,2.057c-0.399,0.639-1.127,1.498-2.16,2.586c-1.123,1.171-1.87,2.012-2.262,2.506
				C51.562,145.791,51.218,146.299,50.921,146.816z"/>
			<path fill="#FFFFFF" d="M65.538,130.696c1.078-0.195,2.104-0.096,3.07,0.299c0.965,0.394,1.84,1.16,2.621,2.296
				c0.78,1.136,1.295,2.519,1.562,4.146c0.269,1.641,0.224,3.104-0.115,4.394c-0.342,1.29-0.88,2.273-1.626,2.959
				c-0.747,0.686-1.619,1.12-2.632,1.303c-1.515,0.277-2.888-0.08-4.145-1.08c-1.573-1.235-2.655-3.021-3.191-5.381
				c-0.378-1.666-0.419-3.157-0.108-4.473c0.308-1.315,0.86-2.339,1.652-3.063C63.417,131.374,64.391,130.903,65.538,130.696z
				 M69.166,138.431c-0.565-3.09-1.162-5.078-1.818-5.961c-0.479-0.642-1.038-0.909-1.672-0.794
				c-0.762,0.138-1.229,0.747-1.392,1.822c-0.163,1.074,0.046,3.051,0.642,5.923c0.498,2.402,1.107,4.057,1.8,4.961
				c0.435,0.561,0.933,0.789,1.491,0.687c0.369-0.066,0.67-0.267,0.919-0.603c0.247-0.335,0.374-0.977,0.391-1.927
				C69.549,141.253,69.434,139.884,69.166,138.431z"/>
			<path fill="#FFFFFF" d="M80.385,128.508c1.076-0.121,2.084,0.048,3.011,0.506c0.926,0.457,1.736,1.28,2.432,2.466
				c0.69,1.185,1.104,2.6,1.253,4.241c0.15,1.654,0.004,3.112-0.426,4.374c-0.43,1.262-1.034,2.208-1.822,2.841
				s-1.681,1.006-2.692,1.122c-1.516,0.173-2.843-0.275-4.011-1.357c-1.458-1.339-2.394-3.192-2.753-5.581
				c-0.253-1.687-0.19-3.176,0.207-4.468c0.394-1.292,1.008-2.272,1.839-2.942C78.25,129.04,79.241,128.639,80.385,128.508z
				 M83.431,136.468c-0.341-3.12-0.793-5.143-1.383-6.067c-0.427-0.675-0.96-0.977-1.593-0.905
				c-0.762,0.086-1.262,0.662-1.496,1.723c-0.234,1.061-0.164,3.044,0.218,5.95c0.321,2.43,0.801,4.117,1.417,5.068
				c0.39,0.588,0.86,0.85,1.423,0.786c0.366-0.042,0.681-0.222,0.95-0.54c0.265-0.317,0.441-0.949,0.524-1.895
				C83.608,139.309,83.591,137.936,83.431,136.468z"/>
			<path fill="#FFFFFF" d="M107.451,128.226c0.371,0.003,0.744,0.007,1.115,0.013c-0.021,1.379-0.041,2.757-0.06,4.135
				c1.267,0.019,2.535,0.047,3.801,0.088c-0.013,0.387-0.026,0.773-0.038,1.16c-1.261-0.041-2.521-0.07-3.78-0.087
				c-0.032,2.13-0.063,4.26-0.096,6.39c-0.008,0.423,0.105,0.751,0.341,0.989c0.23,0.235,0.541,0.358,0.925,0.365
				c1.101,0.023,1.712-0.893,1.835-2.759c0.354,0.01,0.71,0.021,1.063,0.033c-0.06,0.993-0.266,1.788-0.606,2.382
				c-0.345,0.595-0.816,1.048-1.423,1.363s-1.279,0.465-2.026,0.454c-0.652-0.01-1.218-0.138-1.695-0.384
				c-0.478-0.246-0.86-0.611-1.145-1.094c-0.286-0.485-0.431-1.008-0.432-1.574c-0.001-2.062-0.004-4.125-0.007-6.187
				c-0.675,0-1.351,0.004-2.028,0.011c-0.003-0.33-0.007-0.659-0.011-0.988c1.247-0.156,2.218-0.576,2.924-1.268
				C106.812,130.577,107.263,129.563,107.451,128.226z"/>
			<path fill="#FFFFFF" d="M121.721,142.054c-0.027,0.332-0.059,0.665-0.086,0.996c-2.55-0.202-5.097-0.357-7.646-0.463
				c0.016-0.333,0.032-0.666,0.045-0.998c0.317,0.013,0.637,0.027,0.955,0.042c0.391,0.019,0.679-0.037,0.866-0.168
				c0.19-0.129,0.292-0.313,0.304-0.548c0.111-1.981,0.221-3.962,0.329-5.944c0.025-0.479-0.079-0.836-0.317-1.07
				s-0.582-0.361-1.029-0.382c-0.216-0.01-0.432-0.02-0.649-0.028c0.013-0.315,0.027-0.631,0.04-0.944
				c1.645-0.006,3.289,0.006,4.936,0.039c-0.072,1.089-0.146,2.18-0.221,3.269c0.358-1.075,0.912-1.882,1.668-2.416
				c0.756-0.534,1.585-0.766,2.48-0.691c0.766,0.064,1.354,0.294,1.764,0.688c0.408,0.392,0.583,0.869,0.529,1.425
				c-0.048,0.479-0.239,0.849-0.57,1.118c-0.336,0.268-0.718,0.38-1.153,0.343c-0.39-0.033-0.708-0.19-0.965-0.47
				s-0.369-0.62-0.335-1.02c0.019-0.221,0.104-0.447,0.258-0.679c0.081-0.128,0.125-0.224,0.129-0.28
				c0.01-0.102-0.012-0.176-0.06-0.227c-0.05-0.05-0.132-0.079-0.246-0.09c-0.292-0.023-0.627,0.101-1.001,0.375
				c-0.574,0.424-1.078,1.115-1.512,2.071c-0.434,0.958-0.681,1.936-0.754,2.938c-0.052,0.722-0.104,1.443-0.156,2.164
				c-0.019,0.25,0.041,0.446,0.18,0.589c0.141,0.142,0.343,0.223,0.609,0.242C120.648,141.971,121.184,142.01,121.721,142.054z"/>
			<path fill="#FFFFFF" d="M127.843,133.519c1.716,0.11,3.43,0.241,5.147,0.392c-0.376,2.823-0.762,5.646-1.156,8.468
				c-0.029,0.228,0.026,0.414,0.168,0.558c0.142,0.146,0.382,0.24,0.709,0.284c0.248,0.032,0.495,0.065,0.74,0.1
				c-0.05,0.33-0.1,0.659-0.15,0.989c-2.188-0.301-4.379-0.564-6.569-0.792c0.039-0.332,0.076-0.663,0.113-0.994
				c0.243,0.025,0.486,0.051,0.729,0.078c0.393,0.043,0.679-0.008,0.86-0.155c0.18-0.145,0.298-0.421,0.346-0.826
				c0.238-1.928,0.47-3.856,0.699-5.784c0.044-0.363-0.044-0.658-0.264-0.884c-0.216-0.227-0.536-0.362-0.961-0.408
				c-0.172-0.018-0.343-0.036-0.515-0.054C127.773,134.167,127.809,133.843,127.843,133.519z M131.709,128.113
				c0.562,0.066,1.03,0.295,1.39,0.683c0.359,0.389,0.508,0.825,0.446,1.308s-0.319,0.866-0.761,1.155
				c-0.441,0.286-0.94,0.396-1.496,0.332c-0.564-0.068-1.024-0.293-1.385-0.68c-0.359-0.386-0.515-0.818-0.461-1.295
				c0.055-0.484,0.3-0.872,0.741-1.166C130.626,128.157,131.135,128.044,131.709,128.113z"/>
			<path fill="#FFFFFF" d="M136.97,134.718c1.577,0.145,3.158,0.307,4.738,0.487c0.075,0.675,0.069,1.332-0.014,1.974
				c0.603-0.586,1.315-0.997,2.145-1.229c0.83-0.232,1.712-0.261,2.645-0.082c1.489,0.285,2.604,0.984,3.315,2.078
				c0.717,1.096,0.871,2.473,0.482,4.124c-0.269,1.148-0.72,2.075-1.332,2.783c-0.615,0.708-1.344,1.188-2.19,1.439
				c-0.843,0.254-1.767,0.283-2.77,0.092c-0.8-0.152-1.477-0.446-2.035-0.886c-0.562-0.44-1.039-1.069-1.445-1.889
				c-0.223,1.181-0.448,2.364-0.674,3.544c-0.089,0.466-0.107,0.772-0.058,0.914c0.054,0.145,0.179,0.267,0.375,0.371
				c0.197,0.104,0.607,0.215,1.236,0.334c-0.07,0.337-0.137,0.676-0.207,1.014c-2.151-0.389-4.302-0.741-6.453-1.057
				c0.057-0.34,0.112-0.679,0.17-1.019c0.113,0.017,0.23,0.034,0.344,0.05c0.406,0.061,0.683,0.069,0.833,0.023
				c0.151-0.047,0.277-0.145,0.383-0.295c0.071-0.104,0.151-0.387,0.229-0.847c0.544-3.132,1.073-6.266,1.587-9.399
				c0.077-0.46,0.086-0.772,0.029-0.937c-0.057-0.165-0.16-0.294-0.321-0.388c-0.155-0.092-0.54-0.196-1.149-0.307
				C136.88,135.312,136.924,135.015,136.97,134.718z M144.652,137.045c-0.791-0.146-1.529,0.062-2.203,0.625
				c-0.677,0.561-1.125,1.477-1.358,2.743c-0.23,1.251-0.125,2.259,0.311,3.021c0.436,0.765,1.012,1.209,1.729,1.342
				c0.707,0.129,1.334-0.047,1.89-0.533c0.728-0.644,1.233-1.6,1.509-2.875c0.251-1.169,0.212-2.142-0.115-2.92
				C146.084,137.67,145.496,137.201,144.652,137.045z"/>
			<path fill="#FFFFFF" d="M161.682,140.042c0.348-0.203,0.696-0.403,1.045-0.604c0.253,0.067,0.507,0.135,0.757,0.204
				c-0.243,1.126-0.491,2.251-0.745,3.377c-0.327-0.09-0.658-0.179-0.984-0.267c-0.256-1.02-0.655-1.792-1.18-2.312
				c-0.522-0.521-1.236-0.896-2.131-1.118c-0.771-0.191-1.393-0.208-1.857-0.054c-0.467,0.155-0.749,0.424-0.848,0.808
				c-0.098,0.376-0.016,0.701,0.24,0.968c0.255,0.277,1.041,0.698,2.35,1.279c1.185,0.53,1.958,0.928,2.325,1.183
				c0.703,0.476,1.194,1.042,1.467,1.692c0.275,0.65,0.3,1.33,0.077,2.04c-0.281,0.895-0.934,1.531-1.939,1.919
				c-1.004,0.389-2.158,0.41-3.479,0.073c-0.638-0.163-1.195-0.375-1.674-0.636c-0.481-0.263-0.953-0.633-1.425-1.107
				c-0.357,0.226-0.714,0.452-1.07,0.68c-0.296-0.07-0.59-0.139-0.885-0.206c0.248-1.249,0.493-2.499,0.732-3.749
				c0.331,0.076,0.661,0.151,0.99,0.228c0.359,2.062,1.524,3.327,3.54,3.84c0.827,0.211,1.501,0.236,2.026,0.068
				c0.523-0.167,0.848-0.445,0.967-0.84c0.107-0.359,0.054-0.669-0.17-0.93c-0.221-0.259-0.9-0.656-2.037-1.177
				c-1.229-0.558-2.061-0.969-2.488-1.25c-0.732-0.464-1.241-0.984-1.527-1.562c-0.287-0.579-0.346-1.209-0.177-1.891
				c0.244-0.976,0.817-1.689,1.739-2.135c0.918-0.445,2.028-0.51,3.315-0.192c0.63,0.157,1.177,0.362,1.642,0.615
				C160.74,139.238,161.209,139.59,161.682,140.042z"/>
		</g>
	</g>
</g>
</svg>
