<?xml version="1.0" encoding="utf-8"?>
<!-- Generator: Adobe Illustrator 16.0.4, SVG Export Plug-In . SVG Version: 6.00 Build 0)  -->
<!DOCTYPE svg PUBLIC "-//W3C//DTD SVG 1.1//EN" "http://www.w3.org/Graphics/SVG/1.1/DTD/svg11.dtd">
<svg version="1.1" id="Livello_1" xmlns="http://www.w3.org/2000/svg" xmlns:xlink="http://www.w3.org/1999/xlink" x="0px" y="0px"
	 width="210.001px" height="200px" viewBox="0 0 210.001 200" enable-background="new 0 0 210.001 200" xml:space="preserve">
<g>
	<circle fill="#2A398D" cx="104" cy="100" r="84"/>
	<circle fill="#2A398D" stroke="#FFFFFF" stroke-width="5" stroke-miterlimit="10" cx="104.001" cy="99.717" r="75.216"/>
	<g>
		<g>
			<path fill="#FFFFFF" d="M156.463,78.24c2.404,0.057,4.414-1.852,4.469-4.267c0.057-2.418-1.861-4.417-4.266-4.473
				c-2.414-0.055-4.414,1.85-4.471,4.269C152.141,76.185,154.049,78.184,156.463,78.24z"/>
		</g>
		<g>
			<path fill="#FFFFFF" d="M157.098,95.496h11.852v-4.369h-8.805l-4.855-8.088c-0.717-1.212-2.039-2.014-3.547-2.014
				c-0.41,0-0.811,0.06-1.188,0.168l-13.176,4.104L135.6,97.925h4.369l1.781-8.898l5.115-1.594l-9.486,37.201h4.371l6.971-19.692
				l5.658,7.552v12.14h4.369v-15.552l-6.047-11.025l1.787-6.966L157.098,95.496z"/>
		</g>
	</g>
	<path fill="#FFFFFF" d="M108.299,108.061c-1.768-5.548-6.5-9.177-11.838-9.119l-3.871,0.14l-1.225-3.073
		c-2.379-5.963-3.609-8.887-3.986-9.455c-0.373-0.568-0.418-0.575-3.943-0.575c-3.121,0-3.615,0.055-3.881,0.417
		c-0.438,0.572-0.412,0.923,0.133,1.471c0.42,0.419,0.791,0.471,3.162,0.471c1.875,0,2.76,0.09,2.912,0.296
		c0.266,0.352,1.25,2.758,1.25,3.047c0,0.112-4.939,0.198-10.975,0.198h-10.98l-0.467-0.925c-0.264-0.518-0.479-0.984-0.479-1.04
		c0-0.063,1.123-0.236,2.498-0.402c2.801-0.331,3.828-0.825,3.154-1.511c-0.301-0.311-1.143-0.383-4.889-0.43
		c-3.08-0.035-4.613,0.028-4.789,0.209c-0.143,0.143-0.227,0.674-0.186,1.179c0.066,0.812,0.135,1.272,0.883,1.184l1.135-0.146
		l1.477,2.781l-4.609,7.066c-3.285-0.985-6.27-1.208-9.645-0.122c-1.623,0.683-3.924,2.317-4.977,3.55
		c-1.377,1.608-2.459,4.042-2.783,6.266c-0.035,0.246-0.061,0.496-0.078,0.738v1.691c0.35,4.786,3.67,9.265,8.314,10.806
		c2.154,0.723,2.205,0.73,4.459,0.652c1.684-0.058,2.502-0.223,3.963-0.79c2.125-0.827,3.117-1.648,5.336-4.066
		c2.246-2.463,2.48-5.267,2.568-6.015c0.184-0.065,2.023-0.128,4.088-0.128h3.762l0.033,1.891c0.021,1.04-0.053,2.364-0.043,2.593
		c0.018,0.324-0.1,0.137-0.893,0.193c-0.9,0.06-1.014,0.135-0.945,0.59c0.057,0.415,0.254,0.54,0.994,0.596
		c0.504,0.046,1.727-0.15,2.033-0.227l0.062-5.707l1.592-1.981c0.904-1.144,1.727-2.185,1.824-2.312
		c0.102-0.133,0.564-0.717,1.027-1.303c0.459-0.584,2.623-3.319,4.803-6.081c2.182-2.758,4.037-5.021,4.133-5.021
		c0.1,0,0.291,0.243,0.428,0.54c0.846,1.773,1.299,2.957,1.404,3.645c0.115,0.674,0.053,0.8-0.494,1.008
		c-0.934,0.357-3.49,3.066-4.244,4.512c-0.943,1.801-1.566,4.102-1.566,5.817c0,2.531,1.703,6.711,3.447,8.448
		c4.738,4.739,11.568,5.168,16.727,1.059c1.803-1.603,3.33-3.702,4.062-6.017C108.68,112.979,108.75,109.461,108.299,108.061z
		 M59.773,103.459c1.658,1.502,3.264,2.987,3.561,6.295l-7.586,0.109L59.773,103.459z M53.109,120.6
		c-4.531-0.151-9.305-3.617-9.256-9.978c0.041-6.287,6.793-10.643,13.812-8.219c-1.846,3.258-6.092,8.828-5.578,9.531
		c0.531,0.734,1.537,0.489,6.305,0.489h5.072C62.947,119.461,55.869,120.688,53.109,120.6z M65.883,109.718
		c-0.686-3.379-2.629-6.09-4.959-8.586l3.318-5.473c0.139,0,0.766,0.929,1.398,2.06c0.635,1.14,2.408,4.296,3.947,7.012
		c1.537,2.712,2.771,5.058,2.66,5.058L65.883,109.718z M80.541,101.589c-0.172,0.201-0.848,1.128-1.568,2.003l-3.996,4.868
		l-0.004-3.052c0.611-0.018,1.852-0.009,1.809-0.787c-0.033-0.783-1.75-0.568-2.941-0.516l0.119,4.457l-7.307-14.321h9.59
		c8.057,0,9.592,0.056,9.592,0.334C85.834,94.831,83.135,98.403,80.541,101.589z M103.256,118.287
		c-2.52,2.435-6.189,3.421-9.422,2.534c-4.859-1.34-8.08-6.068-7.34-10.783c0.414-2.626,1.125-4.117,2.762-5.782
		c1.9-1.946,2.248-1.955,2.951-0.099c0.168,0.454,0.539,1.367,0.82,2.012c0.281,0.651,0.928,2.215,1.439,3.476
		c1.043,2.584,1.641,3.186,2.465,2.437c0.676-0.945,0.08-2.333-0.662-3.944c-0.4-0.729-2.41-6.148-2.41-6.501
		c0.564-0.562,1.869-0.289,2.658-0.262c2.26,0.101,2.857,0.216,4.039,0.765c1.752,0.818,4.02,3.09,4.84,4.852
		c0.541,1.168,0.977,1.623,1.006,4.305C106.727,114.014,105.021,116.346,103.256,118.287z"/>
	<g>
		<path fill="#FFFFFF" d="M81.648,40.337h9.492c0.129,0,0.25,0.023,0.363,0.07c0.115,0.047,0.215,0.113,0.299,0.198
			c0.086,0.085,0.152,0.185,0.199,0.299s0.07,0.236,0.07,0.365c0,0.193-0.059,0.375-0.176,0.545l-8.342,10.723h7.586
			c0.264,0.006,0.484,0.1,0.662,0.281c0.18,0.182,0.27,0.401,0.27,0.659s-0.09,0.476-0.27,0.655
			c-0.178,0.179-0.396,0.268-0.654,0.268h-9.5c-0.135,0-0.258-0.023-0.369-0.07s-0.211-0.113-0.295-0.198
			c-0.086-0.085-0.15-0.183-0.197-0.294s-0.07-0.234-0.07-0.369c0.006-0.223,0.07-0.416,0.193-0.58l8.322-10.688h-7.584
			c-0.252,0-0.471-0.091-0.656-0.272c-0.184-0.182-0.275-0.401-0.275-0.659s0.092-0.478,0.275-0.659
			C81.178,40.428,81.396,40.337,81.648,40.337z"/>
		<path fill="#FFFFFF" d="M102.426,52.537c0.258,0,0.477,0.091,0.658,0.272s0.273,0.401,0.273,0.659s-0.092,0.478-0.273,0.659
			s-0.4,0.272-0.658,0.272h-8.131c-0.135,0-0.258-0.023-0.369-0.07s-0.209-0.113-0.295-0.198c-0.084-0.085-0.15-0.183-0.197-0.294
			s-0.07-0.234-0.07-0.369V41.269c0-0.129,0.023-0.25,0.07-0.365s0.113-0.214,0.197-0.299c0.086-0.085,0.184-0.151,0.295-0.198
			s0.234-0.07,0.369-0.07h8.131c0.258,0,0.477,0.091,0.658,0.272s0.273,0.401,0.273,0.659s-0.092,0.478-0.273,0.659
			s-0.4,0.272-0.658,0.272h-7.199v4.236h5.168c0.258,0,0.479,0.091,0.66,0.272s0.271,0.401,0.271,0.659s-0.09,0.478-0.271,0.659
			s-0.402,0.272-0.66,0.272h-5.168v4.236H102.426z"/>
		<path fill="#FFFFFF" d="M104.605,53.468V41.269c0-0.129,0.023-0.25,0.07-0.365s0.111-0.214,0.197-0.299
			c0.084-0.085,0.184-0.151,0.295-0.198s0.234-0.07,0.369-0.07h3.393c0.592,0,1.148,0.114,1.674,0.343
			c0.523,0.229,0.98,0.539,1.371,0.932c0.389,0.393,0.699,0.851,0.928,1.375s0.342,1.083,0.342,1.674
			c0,0.387-0.049,0.763-0.145,1.129c-0.098,0.366-0.24,0.712-0.432,1.037c-0.189,0.325-0.428,0.627-0.711,0.905
			c-0.285,0.278-0.613,0.523-0.988,0.734l2.803,4.491c0.1,0.164,0.15,0.334,0.15,0.51c0,0.135-0.023,0.258-0.07,0.369
			s-0.113,0.209-0.199,0.294c-0.084,0.085-0.184,0.151-0.299,0.198c-0.113,0.047-0.234,0.07-0.363,0.07
			c-0.328,0-0.596-0.152-0.801-0.457l-3.102-4.966h-2.619v4.491c0,0.258-0.092,0.478-0.273,0.659s-0.4,0.272-0.658,0.272
			s-0.479-0.091-0.66-0.272S104.605,53.726,104.605,53.468z M106.469,42.201v4.913h2.461c0.34,0,0.658-0.064,0.957-0.193
			s0.559-0.306,0.777-0.532c0.221-0.226,0.395-0.486,0.523-0.782s0.193-0.611,0.193-0.945c0-0.34-0.064-0.659-0.193-0.958
			s-0.305-0.56-0.527-0.782s-0.482-0.398-0.781-0.527s-0.615-0.193-0.949-0.193H106.469z"/>
		<path fill="#FFFFFF" d="M129.258,47.369c0,1.939-0.689,3.598-2.066,4.975c-1.371,1.371-3.025,2.057-4.965,2.057
			c-1.945,0-3.604-0.686-4.975-2.057s-2.057-3.029-2.057-4.975c0-1.939,0.686-3.595,2.057-4.966
			c1.377-1.377,3.035-2.065,4.975-2.065c1.934,0,3.588,0.688,4.965,2.065c0.691,0.691,1.209,1.447,1.553,2.268
			C129.086,45.491,129.258,46.39,129.258,47.369z M122.227,42.201c-0.727,0-1.391,0.126-1.99,0.378
			c-0.602,0.252-1.156,0.633-1.666,1.143s-0.889,1.063-1.139,1.661c-0.248,0.598-0.373,1.26-0.373,1.986
			c0,1.43,0.504,2.648,1.512,3.656s2.227,1.512,3.656,1.512s2.648-0.504,3.656-1.512s1.512-2.227,1.512-3.656
			c0-1.424-0.504-2.64-1.512-3.647C124.869,42.708,123.65,42.201,122.227,42.201z"/>
		<path fill="#FFFFFF" d="M75.742,75.068c0,0.258-0.092,0.478-0.273,0.659S75.068,76,74.811,76s-0.479-0.091-0.66-0.272
			s-0.271-0.401-0.271-0.659V62.869c0-0.258,0.09-0.478,0.271-0.659s0.402-0.272,0.66-0.272s0.477,0.091,0.658,0.272
			s0.273,0.401,0.273,0.659V75.068z"/>
		<path fill="#FFFFFF" d="M77.518,75.068V62.869c0-0.129,0.023-0.25,0.07-0.365s0.111-0.214,0.197-0.299
			c0.084-0.085,0.184-0.151,0.295-0.198s0.234-0.07,0.369-0.07c0.363,0,0.639,0.167,0.826,0.501l5.273,10.538l5.273-10.538
			c0.211-0.334,0.486-0.501,0.826-0.501c0.129,0,0.25,0.023,0.363,0.07c0.115,0.047,0.215,0.113,0.299,0.198
			c0.086,0.085,0.152,0.185,0.199,0.299s0.07,0.236,0.07,0.365v12.199c0,0.258-0.092,0.478-0.273,0.659S90.906,76,90.648,76
			s-0.479-0.091-0.66-0.272s-0.271-0.401-0.271-0.659v-8.244l-4.359,8.71C85.176,75.845,84.906,76,84.549,76
			c-0.387,0-0.672-0.188-0.854-0.562l-4.314-8.613v8.244c0,0.258-0.092,0.478-0.273,0.659S78.707,76,78.449,76
			s-0.479-0.091-0.66-0.272S77.518,75.326,77.518,75.068z"/>
		<path fill="#FFFFFF" d="M92.934,75.068V62.869c0-0.129,0.023-0.25,0.07-0.365s0.111-0.214,0.197-0.299
			c0.084-0.085,0.184-0.151,0.295-0.198s0.234-0.07,0.369-0.07h2.707c0.422,0,0.83,0.056,1.225,0.167
			c0.396,0.111,0.768,0.27,1.113,0.475s0.662,0.45,0.949,0.734s0.531,0.599,0.732,0.945c0.203,0.346,0.361,0.716,0.475,1.112
			c0.115,0.396,0.172,0.804,0.172,1.226c0,1.277-0.459,2.376-1.379,3.296c-0.908,0.908-2.004,1.362-3.287,1.362h-1.775v3.814
			c0,0.258-0.092,0.478-0.273,0.659S94.123,76,93.865,76s-0.479-0.091-0.66-0.272S92.934,75.326,92.934,75.068z M94.797,63.801v5.59
			h1.775c0.381,0,0.738-0.073,1.076-0.22c0.336-0.146,0.633-0.346,0.887-0.598c0.256-0.252,0.457-0.548,0.607-0.888
			c0.148-0.34,0.225-0.703,0.225-1.09c0-0.393-0.076-0.759-0.225-1.099c-0.15-0.34-0.352-0.636-0.607-0.888
			c-0.254-0.252-0.551-0.45-0.891-0.593s-0.697-0.215-1.072-0.215H94.797z"/>
		<path fill="#FFFFFF" d="M100.562,74.646l4.693-12.076c0.188-0.422,0.482-0.633,0.887-0.633c0.416,0,0.713,0.211,0.889,0.633
			l4.711,12.12c0.047,0.117,0.07,0.243,0.07,0.378c0,0.258-0.092,0.478-0.273,0.659S111.139,76,110.881,76s-0.475-0.091-0.65-0.272
			c-0.094-0.094-0.164-0.193-0.211-0.299l-1.627-4.175h-4.5l-1.635,4.175c-0.047,0.105-0.117,0.205-0.211,0.299
			c-0.182,0.182-0.4,0.272-0.658,0.272s-0.477-0.091-0.656-0.272c-0.178-0.182-0.268-0.401-0.268-0.659
			C100.465,74.928,100.498,74.787,100.562,74.646z M107.672,69.391l-1.529-3.946l-1.529,3.946H107.672z"/>
		<path fill="#FFFFFF" d="M123.939,72.836c0.129,0,0.25,0.025,0.361,0.075s0.209,0.116,0.295,0.198
			c0.084,0.082,0.152,0.18,0.201,0.294c0.051,0.114,0.074,0.236,0.074,0.365c0,0.246-0.096,0.469-0.289,0.668
			C123.275,75.479,121.801,76,120.16,76c-1.945,0-3.604-0.686-4.975-2.057c-1.369-1.371-2.055-3.029-2.055-4.975
			c0-1.939,0.686-3.595,2.055-4.966c1.377-1.377,3.035-2.065,4.975-2.065c1.664,0,3.168,0.548,4.51,1.644
			c0.164,0.158,0.246,0.372,0.246,0.642c0,0.135-0.023,0.258-0.07,0.369s-0.113,0.209-0.197,0.294
			c-0.086,0.085-0.186,0.151-0.299,0.198c-0.115,0.047-0.236,0.07-0.365,0.07c-0.229,0-0.443-0.088-0.643-0.264
			c-0.445-0.352-0.936-0.621-1.471-0.809c-0.537-0.188-1.107-0.281-1.711-0.281c-1.43,0-2.65,0.507-3.664,1.521
			c-1.002,1.002-1.504,2.218-1.504,3.647c0,1.436,0.502,2.654,1.504,3.656c1.008,1.008,2.229,1.512,3.664,1.512
			c1.225,0,2.303-0.378,3.234-1.134C123.547,72.897,123.729,72.842,123.939,72.836z"/>
		<path fill="#FFFFFF" d="M135.867,63.801h-3.473v11.268c0,0.258-0.09,0.478-0.271,0.659S131.721,76,131.463,76
			s-0.477-0.091-0.658-0.272s-0.273-0.401-0.273-0.659V63.801h-3.471c-0.258,0-0.479-0.091-0.66-0.272s-0.271-0.401-0.271-0.659
			s0.09-0.478,0.271-0.659s0.402-0.272,0.66-0.272h8.807c0.258,0,0.477,0.091,0.658,0.272s0.273,0.401,0.273,0.659
			s-0.092,0.478-0.273,0.659S136.125,63.801,135.867,63.801z"/>
	</g>
	<g>
		<g>
			<path fill="#5B6AB0" stroke="#FFFFFF" stroke-width="2" stroke-miterlimit="10" d="M194.769,167.589
				c-2.534-5.82-5.349-11.609-8.445-17.346c6.004-2.538,12.218-4.851,18.63-6.916c-63.973-26.856-136.118-26.686-199.987,0.509
				c0.04,0.094,0.08,0.188,0.12,0.282c6.617,2.096,13.025,4.457,19.211,7.058c-2.898,5.432-5.546,10.909-7.941,16.414
				C73.411,143.639,137.712,143.638,194.769,167.589L194.769,167.589L194.769,167.589z"/>
		</g>
	</g>
	<g>
		<g>
			<path fill="#FFFFFF" d="M49.51,135.039c1.979-0.199,3.713-0.476,5.214-0.845c1.159-0.286,2.089-0.62,2.786-1.012
				c0.28-0.162,0.449-0.246,0.498-0.259c0.119-0.027,0.195,0.029,0.228,0.17c0.11,0.461,0.014,1.004-0.289,1.629
				c-0.302,0.625-0.766,1.152-1.386,1.583c-0.625,0.431-1.458,0.776-2.514,1.043c-0.798,0.202-1.719,0.366-2.764,0.494
				c0.177,0.976,0.359,1.95,0.544,2.925c0.546-0.398,1.076-0.727,1.591-0.983c0.516-0.256,1.012-0.445,1.489-0.564
				c1.581-0.398,3.046-0.282,4.385,0.339c1.336,0.622,2.171,1.676,2.533,3.147c0.373,1.512,0.125,2.869-0.728,4.079
				c-0.853,1.209-2.156,2.03-3.941,2.486c-1.424,0.364-2.66,0.339-3.73-0.086c-1.07-0.424-1.759-1.098-2.055-2.033
				c-0.193-0.612-0.153-1.155,0.12-1.626s0.711-0.79,1.303-0.949c0.522-0.141,0.998-0.113,1.421,0.086
				c0.423,0.198,0.69,0.504,0.813,0.919c0.086,0.297,0.074,0.577-0.037,0.841c-0.108,0.262-0.38,0.566-0.812,0.914
				c-0.313,0.255-0.45,0.456-0.405,0.6c0.07,0.235,0.31,0.398,0.71,0.493c0.591,0.133,1.229,0.11,1.915-0.068
				c0.861-0.222,1.455-0.702,1.794-1.449s0.305-1.871-0.099-3.376c-0.342-1.27-0.837-2.136-1.501-2.592
				c-0.668-0.456-1.396-0.586-2.191-0.382c-0.365,0.094-0.746,0.256-1.136,0.484c-0.392,0.229-0.797,0.525-1.216,0.891
				c0.15,0.541,0.18,0.931,0.092,1.172c-0.09,0.241-0.273,0.399-0.546,0.473c-0.236,0.064-0.441,0.059-0.616-0.016
				c-0.176-0.075-0.291-0.199-0.343-0.371c-0.081-0.268,0.009-0.728,0.281-1.376C50.43,139.562,49.961,137.301,49.51,135.039z"/>
			<path fill="#FFFFFF" d="M68.542,130.739c1.078-0.197,2.104-0.097,3.072,0.297c0.966,0.391,1.84,1.157,2.622,2.293
				c0.782,1.134,1.299,2.518,1.565,4.145c0.269,1.642,0.226,3.105-0.112,4.395c-0.338,1.288-0.876,2.273-1.622,2.959
				c-0.746,0.688-1.616,1.121-2.63,1.306c-1.516,0.279-2.89-0.078-4.148-1.076c-1.574-1.235-2.656-3.019-3.195-5.377
				c-0.38-1.667-0.424-3.157-0.114-4.474c0.309-1.316,0.858-2.339,1.652-3.064C66.421,131.417,67.396,130.948,68.542,130.739z
				 M72.178,138.47c-0.568-3.089-1.166-5.076-1.826-5.958c-0.478-0.644-1.035-0.909-1.671-0.793
				c-0.763,0.139-1.229,0.748-1.391,1.822c-0.161,1.076,0.049,3.05,0.646,5.923c0.503,2.402,1.112,4.054,1.806,4.96
				c0.437,0.56,0.932,0.788,1.494,0.685c0.368-0.067,0.67-0.269,0.916-0.604c0.246-0.335,0.372-0.978,0.39-1.927
				C72.563,141.294,72.445,139.923,72.178,138.47z"/>
			<path fill="#FFFFFF" d="M83.392,128.54c1.075-0.124,2.082,0.044,3.01,0.503c0.929,0.455,1.738,1.279,2.435,2.464
				c0.69,1.186,1.108,2.6,1.256,4.24c0.152,1.656,0.004,3.113-0.423,4.375c-0.428,1.263-1.032,2.208-1.819,2.842
				c-0.788,0.635-1.683,1.007-2.693,1.124c-1.516,0.175-2.843-0.273-4.01-1.354c-1.462-1.338-2.395-3.19-2.758-5.579
				c-0.254-1.687-0.192-3.177,0.201-4.468c0.394-1.292,1.007-2.274,1.837-2.944C81.257,129.074,82.247,128.67,83.392,128.54z
				 M86.441,136.496c-0.342-3.118-0.795-5.143-1.386-6.065c-0.429-0.674-0.962-0.976-1.594-0.904
				c-0.762,0.086-1.264,0.664-1.495,1.724c-0.234,1.062-0.163,3.044,0.222,5.95c0.321,2.429,0.805,4.117,1.421,5.067
				c0.388,0.587,0.862,0.849,1.423,0.784c0.367-0.042,0.684-0.221,0.951-0.539s0.438-0.95,0.523-1.895
				C86.621,139.337,86.604,137.963,86.441,136.496z"/>
			<path fill="#FFFFFF" d="M110.461,128.239c0.372,0.003,0.743,0.008,1.115,0.013c-0.017,1.378-0.039,2.757-0.058,4.136
				c1.267,0.017,2.534,0.046,3.802,0.086c-0.014,0.387-0.026,0.773-0.038,1.16c-1.259-0.04-2.52-0.069-3.78-0.086
				c-0.029,2.131-0.062,4.261-0.094,6.391c-0.006,0.422,0.106,0.751,0.342,0.989c0.229,0.236,0.541,0.357,0.927,0.365
				c1.101,0.022,1.712-0.893,1.833-2.76c0.356,0.009,0.711,0.021,1.062,0.033c-0.059,0.995-0.264,1.788-0.604,2.382
				c-0.342,0.594-0.817,1.049-1.422,1.363c-0.606,0.314-1.279,0.465-2.027,0.455c-0.655-0.01-1.217-0.137-1.695-0.383
				c-0.477-0.247-0.858-0.611-1.144-1.094c-0.287-0.484-0.431-1.009-0.433-1.574c-0.003-2.062-0.007-4.125-0.01-6.188
				c-0.676,0.001-1.353,0.006-2.029,0.013c-0.002-0.329-0.01-0.659-0.011-0.988c1.246-0.157,2.217-0.577,2.923-1.269
				C109.823,130.59,110.272,129.576,110.461,128.239z"/>
			<path fill="#FFFFFF" d="M124.737,142.061c-0.027,0.331-0.058,0.664-0.085,0.996c-2.549-0.201-5.095-0.354-7.646-0.459
				c0.016-0.333,0.029-0.666,0.046-0.999c0.316,0.013,0.635,0.028,0.953,0.041c0.391,0.018,0.679-0.037,0.867-0.167
				c0.19-0.128,0.289-0.313,0.304-0.549c0.111-1.981,0.219-3.963,0.324-5.943c0.025-0.479-0.078-0.837-0.316-1.07
				c-0.239-0.234-0.58-0.364-1.029-0.382c-0.215-0.011-0.432-0.019-0.65-0.028c0.015-0.315,0.029-0.63,0.041-0.944
				c1.644-0.007,3.29,0.006,4.936,0.037c-0.073,1.091-0.146,2.18-0.219,3.27c0.357-1.075,0.909-1.882,1.666-2.417
				c0.755-0.534,1.586-0.766,2.48-0.692c0.763,0.062,1.355,0.293,1.764,0.688c0.409,0.392,0.585,0.869,0.53,1.424
				c-0.047,0.476-0.237,0.85-0.569,1.118c-0.333,0.267-0.718,0.382-1.154,0.344c-0.387-0.033-0.711-0.19-0.964-0.47
				c-0.259-0.28-0.372-0.618-0.336-1.02c0.02-0.22,0.101-0.448,0.259-0.68c0.078-0.129,0.123-0.222,0.127-0.28
				c0.012-0.101-0.012-0.175-0.058-0.226c-0.051-0.051-0.135-0.08-0.248-0.09c-0.293-0.023-0.627,0.101-1.002,0.375
				c-0.571,0.423-1.074,1.113-1.509,2.07c-0.434,0.958-0.681,1.938-0.753,2.938c-0.052,0.722-0.105,1.443-0.156,2.165
				c-0.019,0.25,0.042,0.447,0.182,0.589c0.14,0.143,0.341,0.222,0.608,0.241C123.664,141.978,124.202,142.018,124.737,142.061z"/>
			<path fill="#FFFFFF" d="M130.858,133.524c1.715,0.109,3.431,0.239,5.148,0.391c-0.376,2.824-0.759,5.646-1.155,8.468
				c-0.031,0.227,0.026,0.413,0.168,0.558c0.143,0.146,0.382,0.239,0.71,0.284c0.246,0.032,0.492,0.065,0.738,0.1
				c-0.049,0.329-0.097,0.66-0.147,0.989c-2.191-0.299-4.38-0.562-6.57-0.79c0.037-0.332,0.074-0.663,0.113-0.994
				c0.242,0.025,0.484,0.052,0.728,0.077c0.393,0.042,0.681-0.009,0.86-0.154c0.18-0.146,0.296-0.422,0.346-0.827
				c0.236-1.927,0.47-3.856,0.698-5.784c0.042-0.363-0.045-0.656-0.265-0.884c-0.217-0.225-0.538-0.361-0.963-0.407
				c-0.17-0.018-0.344-0.037-0.515-0.054C130.79,134.172,130.822,133.848,130.858,133.524z M134.723,128.116
				c0.563,0.067,1.027,0.296,1.391,0.683c0.359,0.39,0.509,0.826,0.445,1.308s-0.317,0.867-0.762,1.155
				c-0.442,0.287-0.941,0.398-1.494,0.331c-0.567-0.067-1.025-0.293-1.385-0.679c-0.361-0.388-0.518-0.816-0.464-1.293
				c0.055-0.486,0.302-0.874,0.743-1.167C133.642,128.161,134.146,128.047,134.723,128.116z"/>
			<path fill="#FFFFFF" d="M139.986,134.721c1.575,0.145,3.156,0.307,4.737,0.485c0.074,0.675,0.07,1.333-0.013,1.974
				c0.604-0.586,1.315-0.996,2.146-1.229c0.828-0.232,1.714-0.261,2.643-0.083c1.491,0.286,2.605,0.985,3.318,2.079
				c0.716,1.096,0.872,2.471,0.481,4.123c-0.271,1.148-0.717,2.075-1.331,2.783c-0.614,0.708-1.343,1.187-2.189,1.439
				c-0.847,0.254-1.765,0.285-2.771,0.093c-0.799-0.152-1.479-0.447-2.036-0.886c-0.56-0.44-1.04-1.069-1.447-1.888
				c-0.221,1.182-0.446,2.363-0.671,3.544c-0.089,0.467-0.105,0.771-0.057,0.915c0.053,0.144,0.179,0.267,0.373,0.37
				c0.199,0.104,0.609,0.214,1.237,0.334c-0.067,0.338-0.138,0.676-0.206,1.014c-2.15-0.388-4.302-0.739-6.453-1.057
				c0.057-0.339,0.113-0.679,0.169-1.019c0.113,0.017,0.229,0.034,0.344,0.051c0.409,0.061,0.688,0.067,0.833,0.023
				c0.151-0.047,0.277-0.145,0.384-0.296c0.071-0.105,0.149-0.387,0.228-0.846c0.543-3.133,1.07-6.266,1.586-9.4
				c0.074-0.46,0.082-0.771,0.027-0.936c-0.057-0.166-0.161-0.293-0.32-0.387c-0.156-0.091-0.539-0.195-1.15-0.307
				C139.895,135.316,139.94,135.019,139.986,134.721z M147.67,137.046c-0.791-0.146-1.531,0.062-2.204,0.625
				c-0.678,0.56-1.123,1.477-1.357,2.744c-0.231,1.252-0.126,2.258,0.311,3.021c0.438,0.764,1.011,1.209,1.73,1.342
				c0.705,0.13,1.332-0.048,1.89-0.534c0.728-0.645,1.236-1.601,1.507-2.875c0.253-1.168,0.212-2.143-0.114-2.92
				C149.1,137.67,148.513,137.201,147.67,137.046z"/>
			<path fill="#FFFFFF" d="M164.699,140.042c0.348-0.202,0.695-0.403,1.045-0.604c0.254,0.068,0.505,0.136,0.756,0.205
				c-0.242,1.125-0.49,2.251-0.743,3.377c-0.329-0.091-0.657-0.18-0.985-0.267c-0.256-1.02-0.653-1.791-1.179-2.312
				c-0.522-0.52-1.235-0.895-2.132-1.117c-0.77-0.192-1.391-0.208-1.857-0.054c-0.467,0.155-0.749,0.424-0.848,0.808
				c-0.099,0.377-0.017,0.699,0.24,0.969c0.256,0.276,1.043,0.697,2.349,1.279c1.187,0.531,1.959,0.929,2.327,1.182
				c0.704,0.477,1.193,1.042,1.467,1.693c0.275,0.651,0.297,1.331,0.076,2.04c-0.28,0.895-0.935,1.532-1.938,1.919
				c-1.005,0.39-2.161,0.41-3.481,0.073c-0.64-0.163-1.192-0.376-1.673-0.636c-0.48-0.264-0.955-0.633-1.427-1.106
				c-0.354,0.226-0.714,0.452-1.067,0.679c-0.297-0.068-0.589-0.137-0.887-0.205c0.25-1.249,0.494-2.499,0.733-3.749
				c0.33,0.075,0.661,0.151,0.989,0.228c0.36,2.064,1.525,3.327,3.541,3.839c0.827,0.211,1.503,0.236,2.026,0.067
				c0.522-0.167,0.849-0.445,0.966-0.839c0.108-0.36,0.053-0.67-0.17-0.93c-0.222-0.26-0.896-0.657-2.037-1.178
				c-1.229-0.557-2.061-0.968-2.486-1.25c-0.734-0.464-1.244-0.983-1.531-1.562c-0.284-0.578-0.344-1.209-0.174-1.891
				c0.242-0.977,0.814-1.69,1.738-2.135c0.918-0.445,2.03-0.511,3.315-0.191c0.628,0.155,1.178,0.36,1.64,0.614
				C163.758,139.238,164.228,139.589,164.699,140.042z"/>
		</g>
	</g>
</g>
</svg>
