<?xml version="1.0" encoding="utf-8"?>
<!-- Generator: Adobe Illustrator 16.0.4, SVG Export Plug-In . SVG Version: 6.00 Build 0)  -->
<!DOCTYPE svg PUBLIC "-//W3C//DTD SVG 1.1//EN" "http://www.w3.org/Graphics/SVG/1.1/DTD/svg11.dtd">
<svg version="1.1" id="Livello_1" xmlns="http://www.w3.org/2000/svg" xmlns:xlink="http://www.w3.org/1999/xlink" x="0px" y="0px"
	 width="210.001px" height="200px" viewBox="0 0 210.001 200" enable-background="new 0 0 210.001 200" xml:space="preserve">
<g>
	<circle fill="#2A398D" cx="104.001" cy="100" r="84"/>
	<circle fill="#2A398D" stroke="#FFFFFF" stroke-width="5" stroke-miterlimit="10" cx="104" cy="99.717" r="75.216"/>
	<g>
		<g>
			<path fill="#FFFFFF" d="M156.464,78.24c2.404,0.057,4.414-1.852,4.469-4.267c0.055-2.418-1.863-4.417-4.266-4.473
				c-2.416-0.055-4.416,1.85-4.473,4.269C152.142,76.185,154.05,78.184,156.464,78.24z"/>
		</g>
		<g>
			<path fill="#FFFFFF" d="M157.099,95.496h11.852v-4.369h-8.805l-4.855-8.088c-0.717-1.212-2.039-2.014-3.547-2.014
				c-0.41,0-0.812,0.06-1.189,0.168l-13.174,4.104l-1.781,12.628h4.371l1.781-8.898l5.113-1.594l-9.484,37.201h4.371l6.971-19.692
				l5.656,7.552v12.14h4.369v-15.552l-6.045-11.025l1.785-6.966L157.099,95.496z"/>
		</g>
	</g>
	<path fill="#FFFFFF" d="M108.298,108.061c-1.768-5.548-6.5-9.177-11.838-9.119l-3.871,0.14l-1.223-3.073
		c-2.381-5.963-3.611-8.887-3.986-9.455c-0.375-0.568-0.42-0.575-3.945-0.575c-3.121,0-3.613,0.055-3.881,0.417
		c-0.438,0.572-0.412,0.923,0.133,1.471c0.42,0.419,0.791,0.471,3.162,0.471c1.875,0,2.76,0.09,2.912,0.296
		c0.266,0.352,1.25,2.758,1.25,3.047c0,0.112-4.939,0.198-10.975,0.198h-10.98l-0.465-0.925c-0.264-0.518-0.48-0.984-0.48-1.04
		c0-0.063,1.123-0.236,2.498-0.402c2.801-0.331,3.828-0.825,3.154-1.511c-0.301-0.311-1.143-0.383-4.889-0.43
		c-3.078-0.035-4.613,0.028-4.789,0.209c-0.143,0.143-0.227,0.674-0.184,1.179c0.066,0.812,0.133,1.272,0.881,1.184l1.135-0.146
		l1.477,2.781l-4.609,7.066c-3.285-0.985-6.27-1.208-9.645-0.122c-1.623,0.683-3.924,2.317-4.977,3.55
		c-1.377,1.608-2.459,4.042-2.783,6.266c-0.035,0.246-0.059,0.496-0.076,0.738v1.691c0.348,4.786,3.668,9.265,8.312,10.806
		c2.154,0.723,2.207,0.73,4.459,0.652c1.684-0.058,2.502-0.223,3.965-0.79c2.125-0.827,3.117-1.648,5.334-4.066
		c2.246-2.463,2.48-5.267,2.568-6.015c0.186-0.065,2.023-0.128,4.088-0.128h3.762l0.033,1.891c0.021,1.04-0.053,2.364-0.043,2.593
		c0.018,0.324-0.1,0.137-0.893,0.193c-0.898,0.06-1.014,0.135-0.945,0.59c0.057,0.415,0.256,0.54,0.994,0.596
		c0.506,0.046,1.729-0.15,2.033-0.227l0.064-5.707l1.59-1.981c0.904-1.144,1.727-2.185,1.824-2.312
		c0.102-0.133,0.564-0.717,1.027-1.303c0.459-0.584,2.623-3.319,4.803-6.081c2.182-2.758,4.037-5.021,4.133-5.021
		c0.102,0,0.291,0.243,0.428,0.54c0.846,1.773,1.299,2.957,1.406,3.645c0.113,0.674,0.051,0.8-0.494,1.008
		c-0.936,0.357-3.49,3.066-4.246,4.512c-0.941,1.801-1.566,4.102-1.566,5.817c0,2.531,1.705,6.711,3.447,8.448
		c4.738,4.739,11.568,5.168,16.729,1.059c1.801-1.603,3.328-3.702,4.061-6.017C108.681,112.979,108.749,109.461,108.298,108.061z
		 M59.772,103.459c1.658,1.502,3.264,2.987,3.561,6.295l-7.586,0.109L59.772,103.459z M53.108,120.6
		c-4.531-0.151-9.305-3.617-9.254-9.978c0.039-6.287,6.791-10.643,13.812-8.219c-1.848,3.258-6.092,8.828-5.578,9.531
		c0.529,0.734,1.535,0.489,6.305,0.489h5.07C62.946,119.461,55.868,120.688,53.108,120.6z M65.884,109.718
		c-0.688-3.379-2.631-6.09-4.959-8.586l3.316-5.473c0.139,0,0.766,0.929,1.398,2.06c0.637,1.14,2.408,4.296,3.947,7.012
		c1.539,2.712,2.771,5.058,2.66,5.058L65.884,109.718z M80.54,101.589c-0.17,0.201-0.848,1.128-1.568,2.003l-3.996,4.868
		l-0.004-3.052c0.611-0.018,1.852-0.009,1.809-0.787c-0.033-0.783-1.75-0.568-2.941-0.516l0.119,4.457l-7.307-14.321h9.592
		c8.057,0,9.59,0.056,9.59,0.334C85.833,94.831,83.134,98.403,80.54,101.589z M103.255,118.287c-2.52,2.435-6.189,3.421-9.422,2.534
		c-4.857-1.34-8.078-6.068-7.338-10.783c0.412-2.626,1.123-4.117,2.76-5.782c1.9-1.946,2.248-1.955,2.951-0.099
		c0.168,0.454,0.539,1.367,0.82,2.012c0.281,0.651,0.928,2.215,1.439,3.476c1.045,2.584,1.641,3.186,2.465,2.437
		c0.676-0.945,0.082-2.333-0.662-3.944c-0.4-0.729-2.41-6.148-2.41-6.501c0.564-0.562,1.869-0.289,2.658-0.262
		c2.26,0.101,2.857,0.216,4.039,0.765c1.752,0.818,4.021,3.09,4.84,4.852c0.543,1.168,0.977,1.623,1.006,4.305
		C106.726,114.014,105.021,116.346,103.255,118.287z"/>
	<g>
		<path fill="#FFFFFF" d="M81.647,40.337h9.492c0.129,0,0.25,0.023,0.365,0.07c0.113,0.047,0.213,0.113,0.299,0.198
			c0.084,0.085,0.15,0.185,0.197,0.299s0.07,0.236,0.07,0.365c0,0.193-0.059,0.375-0.176,0.545l-8.342,10.723h7.586
			c0.264,0.006,0.484,0.1,0.664,0.281c0.178,0.182,0.268,0.401,0.268,0.659s-0.09,0.476-0.268,0.655
			c-0.18,0.179-0.398,0.268-0.656,0.268h-9.5c-0.135,0-0.258-0.023-0.369-0.07s-0.209-0.113-0.295-0.198
			c-0.084-0.085-0.15-0.183-0.197-0.294s-0.07-0.234-0.07-0.369c0.006-0.223,0.07-0.416,0.193-0.58l8.322-10.688h-7.584
			c-0.252,0-0.471-0.091-0.654-0.272c-0.186-0.182-0.277-0.401-0.277-0.659s0.092-0.478,0.277-0.659
			C81.177,40.428,81.396,40.337,81.647,40.337z"/>
		<path fill="#FFFFFF" d="M102.425,52.537c0.258,0,0.477,0.091,0.658,0.272s0.273,0.401,0.273,0.659s-0.092,0.478-0.273,0.659
			s-0.4,0.272-0.658,0.272h-8.131c-0.135,0-0.258-0.023-0.369-0.07s-0.209-0.113-0.293-0.198c-0.086-0.085-0.152-0.183-0.199-0.294
			s-0.07-0.234-0.07-0.369V41.269c0-0.129,0.023-0.25,0.07-0.365s0.113-0.214,0.199-0.299c0.084-0.085,0.182-0.151,0.293-0.198
			s0.234-0.07,0.369-0.07h8.131c0.258,0,0.477,0.091,0.658,0.272s0.273,0.401,0.273,0.659s-0.092,0.478-0.273,0.659
			s-0.4,0.272-0.658,0.272h-7.199v4.236h5.168c0.258,0,0.479,0.091,0.66,0.272s0.271,0.401,0.271,0.659s-0.09,0.478-0.271,0.659
			s-0.402,0.272-0.66,0.272h-5.168v4.236H102.425z"/>
		<path fill="#FFFFFF" d="M104.604,53.468V41.269c0-0.129,0.023-0.25,0.07-0.365s0.113-0.214,0.197-0.299
			c0.086-0.085,0.184-0.151,0.295-0.198s0.234-0.07,0.369-0.07h3.393c0.592,0,1.15,0.114,1.674,0.343
			c0.525,0.229,0.982,0.539,1.371,0.932c0.391,0.393,0.699,0.851,0.928,1.375s0.342,1.083,0.342,1.674
			c0,0.387-0.047,0.763-0.145,1.129c-0.096,0.366-0.24,0.712-0.43,1.037c-0.191,0.325-0.428,0.627-0.713,0.905
			c-0.283,0.278-0.613,0.523-0.988,0.734l2.803,4.491c0.1,0.164,0.15,0.334,0.15,0.51c0,0.135-0.023,0.258-0.07,0.369
			s-0.113,0.209-0.197,0.294c-0.086,0.085-0.186,0.151-0.299,0.198c-0.115,0.047-0.236,0.07-0.365,0.07
			c-0.328,0-0.596-0.152-0.801-0.457l-3.102-4.966h-2.619v4.491c0,0.258-0.092,0.478-0.273,0.659s-0.4,0.272-0.658,0.272
			s-0.479-0.091-0.66-0.272S104.604,53.726,104.604,53.468z M106.468,42.201v4.913h2.461c0.34,0,0.658-0.064,0.957-0.193
			s0.559-0.306,0.779-0.532c0.219-0.226,0.393-0.486,0.521-0.782s0.193-0.611,0.193-0.945c0-0.34-0.064-0.659-0.193-0.958
			s-0.305-0.56-0.527-0.782s-0.482-0.398-0.781-0.527s-0.615-0.193-0.949-0.193H106.468z"/>
		<path fill="#FFFFFF" d="M129.259,47.369c0,1.939-0.689,3.598-2.066,4.975c-1.371,1.371-3.025,2.057-4.965,2.057
			c-1.945,0-3.604-0.686-4.975-2.057s-2.057-3.029-2.057-4.975c0-1.939,0.686-3.595,2.057-4.966
			c1.377-1.377,3.035-2.065,4.975-2.065c1.934,0,3.588,0.688,4.965,2.065c0.691,0.691,1.209,1.447,1.551,2.268
			C129.087,45.491,129.259,46.39,129.259,47.369z M122.228,42.201c-0.727,0-1.391,0.126-1.992,0.378
			c-0.6,0.252-1.154,0.633-1.664,1.143s-0.891,1.063-1.139,1.661c-0.25,0.598-0.373,1.26-0.373,1.986
			c0,1.43,0.504,2.648,1.512,3.656s2.227,1.512,3.656,1.512s2.648-0.504,3.656-1.512s1.512-2.227,1.512-3.656
			c0-1.424-0.504-2.64-1.512-3.647C124.87,42.708,123.651,42.201,122.228,42.201z"/>
		<path fill="#FFFFFF" d="M75.741,75.068c0,0.258-0.092,0.478-0.273,0.659S75.067,76,74.81,76s-0.479-0.091-0.66-0.272
			s-0.271-0.401-0.271-0.659V62.869c0-0.258,0.09-0.478,0.271-0.659s0.402-0.272,0.66-0.272s0.477,0.091,0.658,0.272
			s0.273,0.401,0.273,0.659V75.068z"/>
		<path fill="#FFFFFF" d="M77.517,75.068V62.869c0-0.129,0.023-0.25,0.07-0.365s0.113-0.214,0.197-0.299
			c0.086-0.085,0.184-0.151,0.295-0.198s0.234-0.07,0.369-0.07c0.363,0,0.639,0.167,0.826,0.501l5.273,10.538l5.273-10.538
			c0.211-0.334,0.486-0.501,0.826-0.501c0.129,0,0.25,0.023,0.365,0.07c0.113,0.047,0.213,0.113,0.299,0.198
			c0.084,0.085,0.15,0.185,0.197,0.299s0.07,0.236,0.07,0.365v12.199c0,0.258-0.092,0.478-0.273,0.659S90.905,76,90.647,76
			s-0.479-0.091-0.66-0.272s-0.271-0.401-0.271-0.659v-8.244l-4.359,8.71C85.175,75.845,84.905,76,84.548,76
			c-0.387,0-0.672-0.188-0.854-0.562l-4.314-8.613v8.244c0,0.258-0.092,0.478-0.273,0.659S78.706,76,78.448,76
			s-0.479-0.091-0.66-0.272S77.517,75.326,77.517,75.068z"/>
		<path fill="#FFFFFF" d="M92.933,75.068V62.869c0-0.129,0.023-0.25,0.07-0.365s0.113-0.214,0.197-0.299
			c0.086-0.085,0.184-0.151,0.295-0.198s0.234-0.07,0.369-0.07h2.707c0.422,0,0.83,0.056,1.227,0.167
			c0.395,0.111,0.766,0.27,1.111,0.475s0.662,0.45,0.949,0.734s0.531,0.599,0.734,0.945c0.201,0.346,0.359,0.716,0.475,1.112
			c0.113,0.396,0.17,0.804,0.17,1.226c0,1.277-0.459,2.376-1.379,3.296c-0.908,0.908-2.004,1.362-3.287,1.362h-1.775v3.814
			c0,0.258-0.092,0.478-0.273,0.659S94.122,76,93.864,76s-0.479-0.091-0.66-0.272S92.933,75.326,92.933,75.068z M94.796,63.801v5.59
			h1.775c0.381,0,0.74-0.073,1.076-0.22c0.338-0.146,0.633-0.346,0.889-0.598c0.254-0.252,0.457-0.548,0.605-0.888
			c0.15-0.34,0.225-0.703,0.225-1.09c0-0.393-0.074-0.759-0.225-1.099c-0.148-0.34-0.352-0.636-0.605-0.888
			c-0.256-0.252-0.553-0.45-0.893-0.593s-0.697-0.215-1.072-0.215H94.796z"/>
		<path fill="#FFFFFF" d="M100.562,74.646l4.693-12.076c0.188-0.422,0.482-0.633,0.887-0.633c0.416,0,0.713,0.211,0.889,0.633
			l4.711,12.12c0.047,0.117,0.07,0.243,0.07,0.378c0,0.258-0.092,0.478-0.273,0.659S111.138,76,110.88,76s-0.475-0.091-0.65-0.272
			c-0.094-0.094-0.164-0.193-0.211-0.299l-1.627-4.175h-4.5l-1.635,4.175c-0.047,0.105-0.117,0.205-0.211,0.299
			c-0.182,0.182-0.4,0.272-0.658,0.272s-0.477-0.091-0.654-0.272c-0.18-0.182-0.27-0.401-0.27-0.659
			C100.464,74.928,100.497,74.787,100.562,74.646z M107.671,69.391l-1.529-3.946l-1.529,3.946H107.671z"/>
		<path fill="#FFFFFF" d="M123.94,72.836c0.129,0,0.25,0.025,0.361,0.075s0.209,0.116,0.293,0.198
			c0.086,0.082,0.152,0.18,0.203,0.294c0.049,0.114,0.074,0.236,0.074,0.365c0,0.246-0.096,0.469-0.289,0.668
			c-1.307,1.043-2.781,1.564-4.422,1.564c-1.945,0-3.604-0.686-4.975-2.057s-2.057-3.029-2.057-4.975
			c0-1.939,0.686-3.595,2.057-4.966c1.377-1.377,3.035-2.065,4.975-2.065c1.664,0,3.168,0.548,4.51,1.644
			c0.164,0.158,0.246,0.372,0.246,0.642c0,0.135-0.023,0.258-0.07,0.369s-0.113,0.209-0.199,0.294
			c-0.084,0.085-0.184,0.151-0.299,0.198c-0.113,0.047-0.234,0.07-0.363,0.07c-0.229,0-0.443-0.088-0.643-0.264
			c-0.445-0.352-0.936-0.621-1.473-0.809c-0.535-0.188-1.105-0.281-1.709-0.281c-1.43,0-2.65,0.507-3.664,1.521
			c-1.002,1.002-1.504,2.218-1.504,3.647c0,1.436,0.502,2.654,1.504,3.656c1.008,1.008,2.229,1.512,3.664,1.512
			c1.225,0,2.303-0.378,3.234-1.134C123.548,72.897,123.729,72.842,123.94,72.836z"/>
		<path fill="#FFFFFF" d="M135.868,63.801h-3.473v11.268c0,0.258-0.09,0.478-0.271,0.659S131.722,76,131.464,76
			s-0.477-0.091-0.658-0.272s-0.273-0.401-0.273-0.659V63.801h-3.471c-0.258,0-0.479-0.091-0.66-0.272s-0.271-0.401-0.271-0.659
			s0.09-0.478,0.271-0.659s0.402-0.272,0.66-0.272h8.807c0.258,0,0.477,0.091,0.658,0.272s0.273,0.401,0.273,0.659
			s-0.092,0.478-0.273,0.659S136.126,63.801,135.868,63.801z"/>
	</g>
	<g>
		<g>
			<path fill="#5B6AB0" stroke="#FFFFFF" stroke-width="2" stroke-miterlimit="10" d="M194.768,167.589
				c-2.533-5.82-5.349-11.609-8.445-17.346c6.004-2.538,12.218-4.851,18.63-6.916c-63.973-26.856-136.118-26.686-199.987,0.509
				c0.04,0.094,0.08,0.188,0.12,0.282c6.617,2.096,13.025,4.457,19.212,7.058c-2.899,5.432-5.547,10.909-7.942,16.414
				C73.41,143.639,137.71,143.638,194.768,167.589L194.768,167.589L194.768,167.589z"/>
		</g>
	</g>
	<g>
		<g>
			<path fill="#FFFFFF" d="M57.373,144.842c1.842-0.486,3.686-0.944,5.529-1.373c0.52-0.121,0.881-0.362,1.089-0.724
				c0.211-0.364,0.293-1.063,0.252-2.103c0.402-0.088,0.804-0.177,1.205-0.263c0.277,1.708,0.564,3.414,0.86,5.119
				c-3.567,0.778-7.134,1.662-10.7,2.659c-0.095-0.298-0.189-0.594-0.287-0.891c0.318-0.963,1.07-2.515,2.335-4.634
				c1.12-1.881,1.842-3.236,2.112-4.085c0.372-1.154,0.435-2.242,0.177-3.265c-0.225-0.883-0.63-1.5-1.229-1.843
				c-0.598-0.344-1.317-0.414-2.154-0.204c-0.847,0.211-1.504,0.577-1.964,1.096c-0.46,0.517-0.631,0.973-0.517,1.368
				c0.044,0.16,0.145,0.266,0.297,0.323c0.156,0.062,0.482,0.081,0.98,0.054c1.085-0.043,1.719,0.295,1.912,1.002
				c0.131,0.479,0.042,0.921-0.256,1.328c-0.301,0.407-0.737,0.684-1.318,0.837c-0.603,0.16-1.167,0.082-1.693-0.235
				c-0.524-0.315-0.906-0.859-1.138-1.63c-0.322-1.077-0.156-2.095,0.508-3.054c0.812-1.175,2.157-2.005,4.009-2.457
				c1.652-0.404,3.077-0.336,4.261,0.185c1.183,0.522,1.892,1.339,2.143,2.436c0.136,0.586,0.139,1.151,0.01,1.693
				c-0.169,0.734-0.456,1.417-0.867,2.054c-0.408,0.638-1.149,1.494-2.206,2.583c-1.146,1.168-1.899,2.007-2.3,2.502
				C58.024,143.816,57.676,144.323,57.373,144.842z"/>
			<path fill="#FFFFFF" d="M68.121,129.542c1.987-0.046,3.733-0.185,5.255-0.433c1.183-0.191,2.135-0.45,2.866-0.782
				c0.295-0.138,0.47-0.209,0.52-0.217c0.119-0.017,0.191,0.046,0.211,0.188c0.068,0.469-0.078,1.003-0.437,1.6
				c-0.355,0.596-0.862,1.084-1.521,1.463c-0.655,0.378-1.518,0.656-2.59,0.837c-0.809,0.137-1.736,0.228-2.785,0.275
				c0.092,0.986,0.186,1.97,0.284,2.956c0.577-0.356,1.131-0.64,1.665-0.853c0.532-0.215,1.041-0.361,1.524-0.443
				c1.604-0.269,3.051-0.036,4.321,0.694c1.271,0.73,2.004,1.85,2.226,3.345c0.229,1.536-0.147,2.868-1.1,3.999
				c-0.955,1.133-2.316,1.84-4.122,2.15c-1.436,0.247-2.653,0.123-3.67-0.384c-1.018-0.506-1.642-1.231-1.853-2.185
				c-0.137-0.624-0.051-1.161,0.261-1.61c0.314-0.449,0.771-0.73,1.373-0.844c0.527-0.1,0.993-0.033,1.395,0.198
				c0.402,0.23,0.644,0.558,0.726,0.98c0.058,0.301,0.021,0.581-0.109,0.835c-0.134,0.251-0.431,0.533-0.888,0.844
				c-0.331,0.229-0.484,0.419-0.452,0.566c0.048,0.238,0.271,0.421,0.657,0.546c0.572,0.18,1.202,0.207,1.896,0.086
				c0.869-0.151,1.5-0.583,1.9-1.297c0.404-0.716,0.475-1.837,0.212-3.369c-0.223-1.292-0.638-2.194-1.255-2.704
				c-0.619-0.508-1.334-0.696-2.137-0.557c-0.372,0.064-0.762,0.195-1.172,0.392c-0.405,0.198-0.834,0.461-1.281,0.793
				c0.104,0.55,0.101,0.941-0.012,1.173c-0.11,0.233-0.303,0.375-0.582,0.429c-0.236,0.045-0.438,0.024-0.606-0.063
				c-0.168-0.089-0.271-0.222-0.308-0.396c-0.059-0.273,0.072-0.725,0.399-1.349C68.646,134.121,68.375,131.833,68.121,129.542z"/>
			<path fill="#FFFFFF" d="M99.984,127.228c0.379-0.009,0.76-0.021,1.138-0.028c0.03,1.378,0.062,2.756,0.093,4.135
				c1.285-0.028,2.574-0.044,3.858-0.046c0.002,0.387,0.002,0.773,0.003,1.16c-1.278,0.002-2.558,0.018-3.836,0.046
				c0.05,2.131,0.098,4.26,0.149,6.39c0.009,0.423,0.135,0.747,0.38,0.976c0.246,0.227,0.56,0.337,0.951,0.332
				c1.11-0.016,1.691-0.951,1.75-2.821c0.358-0.002,0.716-0.002,1.073-0.002c-0.023,0.996-0.2,1.795-0.525,2.4
				c-0.324,0.606-0.786,1.076-1.383,1.411c-0.601,0.336-1.274,0.511-2.028,0.526c-0.658,0.014-1.232-0.093-1.725-0.321
				c-0.493-0.228-0.891-0.579-1.199-1.05c-0.309-0.474-0.478-0.991-0.501-1.556c-0.087-2.061-0.175-4.122-0.258-6.183
				c-0.688,0.028-1.375,0.058-2.062,0.092c-0.017-0.329-0.035-0.658-0.051-0.986c1.261-0.208,2.232-0.663,2.924-1.382
				C99.424,129.6,99.843,128.571,99.984,127.228z"/>
			<path fill="#FFFFFF" d="M114.907,140.589c-0.019,0.333-0.036,0.666-0.056,0.998c-2.572-0.135-5.145-0.212-7.717-0.236
				c0.003-0.333,0.007-0.666,0.012-0.999c0.319,0.003,0.64,0.006,0.959,0.012c0.397,0.005,0.687-0.059,0.872-0.195
				c0.186-0.134,0.28-0.323,0.285-0.558c0.045-1.983,0.09-3.967,0.134-5.949c0.01-0.48-0.107-0.834-0.356-1.061
				c-0.246-0.226-0.599-0.344-1.055-0.35c-0.221-0.002-0.439-0.006-0.659-0.008c0.004-0.314,0.007-0.629,0.011-0.944
				c1.666-0.059,3.336-0.096,5.006-0.111c-0.042,1.091-0.082,2.183-0.123,3.274c0.327-1.083,0.866-1.908,1.615-2.461
				c0.748-0.555,1.583-0.81,2.494-0.758c0.776,0.043,1.377,0.26,1.803,0.644c0.426,0.382,0.615,0.854,0.575,1.412
				c-0.035,0.479-0.219,0.855-0.546,1.132c-0.33,0.275-0.713,0.398-1.155,0.371c-0.394-0.023-0.725-0.172-0.991-0.445
				c-0.268-0.273-0.393-0.609-0.37-1.01c0.013-0.222,0.094-0.45,0.242-0.686c0.081-0.131,0.124-0.227,0.127-0.284
				c0.004-0.101-0.018-0.175-0.07-0.225c-0.051-0.049-0.134-0.077-0.25-0.083c-0.299-0.017-0.635,0.119-1.003,0.4
				c-0.568,0.439-1.059,1.143-1.468,2.111c-0.411,0.969-0.633,1.956-0.675,2.958c-0.029,0.723-0.06,1.445-0.089,2.168
				c-0.01,0.25,0.056,0.444,0.202,0.583c0.144,0.138,0.352,0.211,0.619,0.224C113.824,140.535,114.365,140.56,114.907,140.589z"/>
			<path fill="#FFFFFF" d="M120.858,131.906c1.738,0.071,3.479,0.166,5.222,0.284c-0.315,2.829-0.64,5.66-0.974,8.489
				c-0.027,0.229,0.031,0.414,0.182,0.554c0.146,0.142,0.385,0.231,0.718,0.27c0.249,0.028,0.498,0.056,0.748,0.086
				c-0.043,0.331-0.085,0.661-0.129,0.992c-2.21-0.259-4.42-0.477-6.63-0.655c0.029-0.332,0.06-0.663,0.088-0.995
				c0.246,0.02,0.49,0.041,0.737,0.06c0.394,0.033,0.681-0.024,0.861-0.173c0.177-0.15,0.285-0.428,0.325-0.834
				c0.191-1.933,0.378-3.864,0.562-5.797c0.035-0.364-0.06-0.657-0.284-0.878c-0.226-0.22-0.556-0.351-0.986-0.386
				c-0.174-0.014-0.347-0.029-0.522-0.042C120.803,132.556,120.831,132.23,120.858,131.906z M124.641,126.417
				c0.576,0.056,1.055,0.276,1.43,0.656c0.376,0.382,0.537,0.814,0.484,1.299s-0.303,0.873-0.745,1.169
				c-0.442,0.295-0.945,0.416-1.512,0.361c-0.573-0.057-1.045-0.271-1.421-0.65c-0.375-0.379-0.543-0.806-0.501-1.284
				c0.042-0.486,0.282-0.88,0.725-1.183C123.542,126.484,124.056,126.36,124.641,126.417z"/>
			<path fill="#FFFFFF" d="M130.129,132.926c1.599,0.118,3.2,0.258,4.804,0.417c0.091,0.674,0.096,1.332,0.024,1.975
				c0.598-0.594,1.313-1.013,2.149-1.255c0.837-0.242,1.73-0.278,2.675-0.111c1.514,0.27,2.653,0.962,3.391,2.051
				c0.735,1.092,0.91,2.468,0.534,4.122c-0.261,1.149-0.703,2.081-1.314,2.793c-0.611,0.712-1.342,1.197-2.19,1.457
				c-0.85,0.262-1.774,0.3-2.787,0.121c-0.809-0.144-1.493-0.43-2.063-0.863c-0.568-0.433-1.06-1.055-1.483-1.869
				c-0.204,1.185-0.411,2.369-0.619,3.553c-0.084,0.468-0.098,0.772-0.043,0.915c0.053,0.144,0.181,0.265,0.382,0.365
				c0.199,0.103,0.614,0.205,1.244,0.317c-0.065,0.338-0.13,0.678-0.194,1.016c-2.163-0.36-4.327-0.68-6.487-0.958
				c0.05-0.341,0.099-0.681,0.147-1.022c0.117,0.015,0.232,0.03,0.349,0.045c0.408,0.054,0.687,0.058,0.834,0.009
				c0.151-0.049,0.278-0.149,0.38-0.301c0.073-0.106,0.144-0.39,0.216-0.851c0.488-3.14,0.963-6.282,1.423-9.423
				c0.067-0.463,0.068-0.773,0.011-0.938c-0.062-0.163-0.172-0.292-0.332-0.382c-0.161-0.09-0.551-0.187-1.17-0.289
				C130.048,133.524,130.088,133.224,130.129,132.926z M137.948,135.149c-0.806-0.136-1.548,0.08-2.222,0.65
				c-0.673,0.57-1.112,1.492-1.327,2.761c-0.21,1.256-0.088,2.258,0.365,3.017c0.45,0.758,1.035,1.196,1.765,1.32
				c0.712,0.123,1.341-0.063,1.893-0.554c0.726-0.651,1.226-1.613,1.483-2.89c0.238-1.172,0.188-2.145-0.156-2.921
				C139.406,135.76,138.801,135.294,137.948,135.149z"/>
			<path fill="#FFFFFF" d="M155.229,138.066c0.353-0.202,0.705-0.403,1.058-0.603c0.256,0.067,0.512,0.136,0.767,0.205
				c-0.241,1.127-0.489,2.253-0.74,3.379c-0.332-0.09-0.665-0.181-0.997-0.269c-0.266-1.022-0.67-1.793-1.206-2.315
				c-0.533-0.521-1.262-0.896-2.168-1.118c-0.784-0.191-1.413-0.208-1.885-0.051c-0.47,0.157-0.754,0.427-0.851,0.812
				c-0.096,0.378-0.013,0.699,0.251,0.968c0.26,0.276,1.058,0.694,2.386,1.275c1.202,0.529,1.988,0.929,2.361,1.183
				c0.716,0.478,1.212,1.043,1.489,1.695c0.278,0.65,0.303,1.331,0.079,2.041c-0.282,0.895-0.938,1.53-1.951,1.918
				c-1.014,0.388-2.18,0.409-3.512,0.074c-0.641-0.162-1.203-0.373-1.688-0.632c-0.483-0.262-0.964-0.628-1.441-1.102
				c-0.358,0.228-0.716,0.456-1.072,0.685c-0.298-0.067-0.597-0.135-0.895-0.201c0.242-1.25,0.479-2.501,0.711-3.753
				c0.331,0.073,0.666,0.147,0.998,0.223c0.383,2.062,1.562,3.321,3.595,3.831c0.837,0.21,1.519,0.234,2.045,0.065
				c0.528-0.167,0.853-0.446,0.973-0.84c0.109-0.359,0.053-0.67-0.172-0.93c-0.227-0.26-0.912-0.658-2.063-1.178
				c-1.247-0.557-2.089-0.965-2.521-1.245c-0.745-0.462-1.263-0.979-1.557-1.557c-0.294-0.58-0.361-1.208-0.196-1.892
				c0.235-0.977,0.812-1.694,1.74-2.142c0.928-0.448,2.054-0.517,3.363-0.199c0.638,0.156,1.193,0.361,1.666,0.613
				C154.271,137.26,154.749,137.611,155.229,138.066z"/>
		</g>
	</g>
</g>
</svg>
