<?xml version="1.0" encoding="utf-8"?>
<!-- Generator: Adobe Illustrator 16.0.4, SVG Export Plug-In . SVG Version: 6.00 Build 0)  -->
<!DOCTYPE svg PUBLIC "-//W3C//DTD SVG 1.1//EN" "http://www.w3.org/Graphics/SVG/1.1/DTD/svg11.dtd">
<svg version="1.1" id="Livello_1" xmlns="http://www.w3.org/2000/svg" xmlns:xlink="http://www.w3.org/1999/xlink" x="0px" y="0px"
	 width="210px" height="200px" viewBox="0 0 210 200" enable-background="new 0 0 210 200" xml:space="preserve">
<g>
	<circle fill="#2A398D" cx="104" cy="100" r="84"/>
	<circle fill="#2A398D" stroke="#FFFFFF" stroke-width="5" stroke-miterlimit="10" cx="104" cy="99.717" r="75.216"/>
	<g>
		<g>
			<path fill="#FFFFFF" d="M156.463,78.24c2.404,0.057,4.414-1.852,4.469-4.267c0.055-2.418-1.863-4.417-4.267-4.473
				c-2.415-0.055-4.415,1.85-4.471,4.269C152.14,76.185,154.048,78.184,156.463,78.24z"/>
		</g>
		<g>
			<path fill="#FFFFFF" d="M157.097,95.496h11.852v-4.369h-8.805l-4.855-8.088c-0.716-1.212-2.038-2.014-3.546-2.014
				c-0.411,0-0.812,0.06-1.189,0.168l-13.174,4.104l-1.781,12.628h4.371l1.781-8.898l5.114-1.594l-9.485,37.201h4.371l6.97-19.692
				l5.658,7.552v12.14h4.369v-15.552l-6.046-11.025l1.786-6.966L157.097,95.496z"/>
		</g>
	</g>
	<path fill="#FFFFFF" d="M108.298,108.061c-1.768-5.548-6.5-9.177-11.839-9.119l-3.87,0.14l-1.224-3.073
		c-2.38-5.963-3.61-8.887-3.986-9.455c-0.375-0.568-0.418-0.575-3.944-0.575c-3.122,0-3.615,0.055-3.882,0.417
		c-0.437,0.572-0.412,0.923,0.133,1.471c0.42,0.419,0.792,0.471,3.163,0.471c1.874,0,2.759,0.09,2.912,0.296
		c0.265,0.352,1.25,2.758,1.25,3.047c0,0.112-4.939,0.198-10.975,0.198h-10.98l-0.466-0.925c-0.264-0.518-0.48-0.984-0.48-1.04
		c0-0.063,1.124-0.236,2.499-0.402c2.801-0.331,3.828-0.825,3.154-1.511c-0.301-0.311-1.143-0.383-4.889-0.43
		c-3.08-0.035-4.614,0.028-4.79,0.209c-0.143,0.143-0.227,0.674-0.184,1.179c0.066,0.812,0.133,1.272,0.882,1.184l1.135-0.146
		l1.477,2.781l-4.609,7.066c-3.286-0.985-6.27-1.208-9.646-0.122c-1.623,0.683-3.924,2.317-4.977,3.55
		c-1.377,1.608-2.458,4.042-2.783,6.266c-0.035,0.246-0.06,0.496-0.077,0.738v1.691c0.348,4.786,3.669,9.265,8.313,10.806
		c2.155,0.723,2.206,0.73,4.459,0.652c1.684-0.058,2.501-0.223,3.964-0.79c2.125-0.827,3.117-1.648,5.335-4.066
		c2.246-2.463,2.481-5.267,2.569-6.015c0.184-0.065,2.023-0.128,4.087-0.128h3.762l0.033,1.891c0.021,1.04-0.053,2.364-0.042,2.593
		c0.018,0.324-0.1,0.137-0.894,0.193c-0.899,0.06-1.013,0.135-0.944,0.59c0.056,0.415,0.254,0.54,0.994,0.596
		c0.505,0.046,1.728-0.15,2.034-0.227l0.063-5.707l1.59-1.981c0.904-1.144,1.728-2.185,1.824-2.312
		c0.102-0.133,0.565-0.717,1.027-1.303c0.459-0.584,2.623-3.319,4.804-6.081c2.182-2.758,4.036-5.021,4.132-5.021
		c0.101,0,0.291,0.243,0.428,0.54c0.846,1.773,1.298,2.957,1.405,3.645c0.115,0.674,0.051,0.8-0.494,1.008
		c-0.934,0.357-3.49,3.066-4.245,4.512c-0.943,1.801-1.567,4.102-1.567,5.817c0,2.531,1.705,6.711,3.448,8.448
		c4.739,4.739,11.568,5.168,16.728,1.059c1.801-1.603,3.329-3.702,4.062-6.017C108.68,112.979,108.749,109.461,108.298,108.061z
		 M59.772,103.459c1.659,1.502,3.265,2.987,3.562,6.295l-7.587,0.109L59.772,103.459z M53.108,120.6
		c-4.531-0.151-9.304-3.617-9.254-9.978c0.041-6.287,6.792-10.643,13.812-8.219c-1.847,3.258-6.092,8.828-5.578,9.531
		c0.531,0.734,1.536,0.489,6.305,0.489h5.071C62.947,119.461,55.868,120.688,53.108,120.6z M65.883,109.718
		c-0.687-3.379-2.63-6.09-4.959-8.586l3.318-5.473c0.139,0,0.765,0.929,1.398,2.06c0.635,1.14,2.408,4.296,3.947,7.012
		c1.538,2.712,2.771,5.058,2.66,5.058L65.883,109.718z M80.54,101.589c-0.17,0.201-0.848,1.128-1.567,2.003l-3.997,4.868
		l-0.003-3.052c0.61-0.018,1.851-0.009,1.808-0.787c-0.033-0.783-1.75-0.568-2.941-0.516l0.119,4.457l-7.307-14.321h9.591
		c8.057,0,9.59,0.056,9.59,0.334C85.833,94.831,83.134,98.403,80.54,101.589z M103.255,118.287c-2.519,2.435-6.19,3.421-9.421,2.534
		c-4.859-1.34-8.08-6.068-7.339-10.783c0.414-2.626,1.125-4.117,2.76-5.782c1.901-1.946,2.248-1.955,2.952-0.099
		c0.168,0.454,0.539,1.367,0.82,2.012c0.282,0.651,0.929,2.215,1.44,3.476c1.043,2.584,1.64,3.186,2.464,2.437
		c0.676-0.945,0.081-2.333-0.663-3.944c-0.4-0.729-2.41-6.148-2.41-6.501c0.564-0.562,1.87-0.289,2.658-0.262
		c2.26,0.101,2.858,0.216,4.04,0.765c1.751,0.818,4.02,3.09,4.84,4.852c0.542,1.168,0.976,1.623,1.006,4.305
		C106.726,114.014,105.021,116.346,103.255,118.287z"/>
	<g>
		<path fill="#FFFFFF" d="M81.647,40.337h9.492c0.129,0,0.25,0.023,0.365,0.07s0.214,0.113,0.299,0.198S91.954,40.79,92,40.904
			s0.07,0.236,0.07,0.365c0,0.193-0.059,0.375-0.176,0.545l-8.341,10.723h7.585c0.264,0.006,0.485,0.1,0.664,0.281
			s0.268,0.401,0.268,0.659s-0.089,0.476-0.268,0.655S91.406,54.4,91.148,54.4h-9.501c-0.135,0-0.258-0.023-0.369-0.07
			s-0.209-0.113-0.294-0.198s-0.151-0.183-0.198-0.294s-0.07-0.234-0.07-0.369c0.006-0.223,0.07-0.416,0.193-0.58l8.323-10.688
			h-7.585c-0.252,0-0.47-0.091-0.655-0.272s-0.277-0.401-0.277-0.659s0.092-0.478,0.277-0.659S81.395,40.337,81.647,40.337z"/>
		<path fill="#FFFFFF" d="M102.424,52.537c0.258,0,0.478,0.091,0.659,0.272s0.272,0.401,0.272,0.659s-0.091,0.478-0.272,0.659
			s-0.401,0.272-0.659,0.272h-8.13c-0.135,0-0.258-0.023-0.369-0.07s-0.209-0.113-0.294-0.198s-0.151-0.183-0.198-0.294
			s-0.07-0.234-0.07-0.369V41.269c0-0.129,0.023-0.25,0.07-0.365s0.113-0.214,0.198-0.299s0.183-0.151,0.294-0.198
			s0.234-0.07,0.369-0.07h8.13c0.258,0,0.478,0.091,0.659,0.272s0.272,0.401,0.272,0.659s-0.091,0.478-0.272,0.659
			s-0.401,0.272-0.659,0.272h-7.198v4.236h5.168c0.258,0,0.478,0.091,0.659,0.272s0.272,0.401,0.272,0.659s-0.091,0.478-0.272,0.659
			s-0.401,0.272-0.659,0.272h-5.168v4.236H102.424z"/>
		<path fill="#FFFFFF" d="M104.604,53.468V41.269c0-0.129,0.023-0.25,0.07-0.365s0.113-0.214,0.198-0.299s0.183-0.151,0.294-0.198
			s0.234-0.07,0.369-0.07h3.393c0.592,0,1.15,0.114,1.674,0.343s0.981,0.539,1.371,0.932s0.699,0.851,0.927,1.375
			s0.343,1.083,0.343,1.674c0,0.387-0.048,0.763-0.145,1.129s-0.24,0.712-0.431,1.037s-0.428,0.627-0.712,0.905
			s-0.614,0.523-0.989,0.734l2.804,4.491c0.1,0.164,0.149,0.334,0.149,0.51c0,0.135-0.023,0.258-0.07,0.369
			s-0.113,0.209-0.198,0.294s-0.185,0.151-0.299,0.198s-0.236,0.07-0.365,0.07c-0.328,0-0.595-0.152-0.8-0.457l-3.103-4.966h-2.619
			v4.491c0,0.258-0.091,0.478-0.272,0.659s-0.401,0.272-0.659,0.272s-0.478-0.091-0.659-0.272S104.604,53.726,104.604,53.468z
			 M106.467,42.201v4.913h2.461c0.34,0,0.659-0.064,0.958-0.193s0.558-0.306,0.778-0.532s0.394-0.486,0.523-0.782
			s0.193-0.611,0.193-0.945c0-0.34-0.064-0.659-0.193-0.958s-0.305-0.56-0.527-0.782s-0.483-0.398-0.782-0.527
			s-0.615-0.193-0.949-0.193H106.467z"/>
		<path fill="#FFFFFF" d="M129.257,47.369c0,1.939-0.688,3.598-2.065,4.975c-1.371,1.371-3.026,2.057-4.966,2.057
			c-1.945,0-3.604-0.686-4.975-2.057s-2.057-3.029-2.057-4.975c0-1.939,0.686-3.595,2.057-4.966
			c1.377-1.377,3.035-2.065,4.975-2.065c1.934,0,3.589,0.688,4.966,2.065c0.691,0.691,1.208,1.447,1.551,2.268
			S129.257,46.39,129.257,47.369z M122.226,42.201c-0.727,0-1.39,0.126-1.991,0.378s-1.156,0.633-1.666,1.143
			s-0.889,1.063-1.138,1.661s-0.374,1.26-0.374,1.986c0,1.43,0.504,2.648,1.512,3.656s2.227,1.512,3.656,1.512
			s2.648-0.504,3.656-1.512s1.512-2.227,1.512-3.656c0-1.424-0.504-2.64-1.512-3.647C124.869,42.708,123.65,42.201,122.226,42.201z"
			/>
		<path fill="#FFFFFF" d="M75.741,75.068c0,0.258-0.091,0.478-0.272,0.659S75.067,76,74.809,76s-0.478-0.091-0.659-0.272
			s-0.272-0.401-0.272-0.659V62.869c0-0.258,0.091-0.478,0.272-0.659s0.401-0.272,0.659-0.272s0.478,0.091,0.659,0.272
			s0.272,0.401,0.272,0.659V75.068z"/>
		<path fill="#FFFFFF" d="M77.516,75.068V62.869c0-0.129,0.023-0.25,0.07-0.365s0.113-0.214,0.198-0.299s0.183-0.151,0.294-0.198
			s0.234-0.07,0.369-0.07c0.363,0,0.639,0.167,0.826,0.501l5.273,10.538l5.273-10.538c0.211-0.334,0.486-0.501,0.826-0.501
			c0.129,0,0.25,0.023,0.365,0.07s0.214,0.113,0.299,0.198s0.151,0.185,0.198,0.299s0.07,0.236,0.07,0.365v12.199
			c0,0.258-0.091,0.478-0.272,0.659S90.905,76,90.647,76s-0.478-0.091-0.659-0.272s-0.272-0.401-0.272-0.659v-8.244l-4.359,8.71
			C85.174,75.845,84.905,76,84.547,76c-0.387,0-0.671-0.188-0.853-0.562l-4.315-8.613v8.244c0,0.258-0.091,0.478-0.272,0.659
			S78.706,76,78.448,76s-0.478-0.091-0.659-0.272S77.516,75.326,77.516,75.068z"/>
		<path fill="#FFFFFF" d="M92.932,75.068V62.869c0-0.129,0.023-0.25,0.07-0.365s0.113-0.214,0.198-0.299s0.183-0.151,0.294-0.198
			s0.234-0.07,0.369-0.07h2.707c0.422,0,0.831,0.056,1.226,0.167s0.766,0.27,1.112,0.475s0.662,0.45,0.949,0.734
			s0.532,0.599,0.734,0.945s0.36,0.716,0.475,1.112s0.171,0.804,0.171,1.226c0,1.277-0.46,2.376-1.38,3.296
			c-0.908,0.908-2.004,1.362-3.287,1.362h-1.775v3.814c0,0.258-0.091,0.478-0.272,0.659S94.122,76,93.864,76
			s-0.478-0.091-0.659-0.272S92.932,75.326,92.932,75.068z M94.795,63.801v5.59h1.775c0.381,0,0.74-0.073,1.077-0.22
			s0.633-0.346,0.888-0.598s0.457-0.548,0.606-0.888s0.224-0.703,0.224-1.09c0-0.393-0.075-0.759-0.224-1.099
			s-0.352-0.636-0.606-0.888s-0.552-0.45-0.892-0.593s-0.697-0.215-1.072-0.215H94.795z"/>
		<path fill="#FFFFFF" d="M100.561,74.646l4.693-12.076c0.188-0.422,0.483-0.633,0.888-0.633c0.416,0,0.712,0.211,0.888,0.633
			l4.711,12.12c0.047,0.117,0.07,0.243,0.07,0.378c0,0.258-0.091,0.478-0.272,0.659S111.137,76,110.879,76s-0.475-0.091-0.65-0.272
			c-0.094-0.094-0.164-0.193-0.211-0.299l-1.626-4.175h-4.5l-1.635,4.175c-0.047,0.105-0.117,0.205-0.211,0.299
			c-0.182,0.182-0.401,0.272-0.659,0.272s-0.476-0.091-0.655-0.272s-0.268-0.401-0.268-0.659
			C100.464,74.928,100.497,74.787,100.561,74.646z M107.671,69.391l-1.529-3.946l-1.529,3.946H107.671z"/>
		<path fill="#FFFFFF" d="M123.94,72.836c0.129,0,0.249,0.025,0.36,0.075s0.209,0.116,0.294,0.198s0.152,0.18,0.202,0.294
			s0.075,0.236,0.075,0.365c0,0.246-0.097,0.469-0.29,0.668c-1.307,1.043-2.78,1.564-4.421,1.564c-1.945,0-3.604-0.686-4.975-2.057
			s-2.057-3.029-2.057-4.975c0-1.939,0.686-3.595,2.057-4.966c1.377-1.377,3.035-2.065,4.975-2.065c1.664,0,3.167,0.548,4.509,1.644
			c0.164,0.158,0.246,0.372,0.246,0.642c0,0.135-0.023,0.258-0.07,0.369s-0.113,0.209-0.198,0.294s-0.185,0.151-0.299,0.198
			s-0.236,0.07-0.365,0.07c-0.229,0-0.442-0.088-0.642-0.264c-0.445-0.352-0.936-0.621-1.472-0.809s-1.106-0.281-1.709-0.281
			c-1.43,0-2.651,0.507-3.665,1.521c-1.002,1.002-1.503,2.218-1.503,3.647c0,1.436,0.501,2.654,1.503,3.656
			c1.008,1.008,2.229,1.512,3.665,1.512c1.225,0,2.303-0.378,3.234-1.134C123.547,72.897,123.729,72.842,123.94,72.836z"/>
		<path fill="#FFFFFF" d="M135.867,63.801h-3.472v11.268c0,0.258-0.091,0.478-0.272,0.659S131.721,76,131.463,76
			s-0.478-0.091-0.659-0.272s-0.272-0.401-0.272-0.659V63.801h-3.472c-0.258,0-0.478-0.091-0.659-0.272s-0.272-0.401-0.272-0.659
			s0.091-0.478,0.272-0.659s0.401-0.272,0.659-0.272h8.807c0.258,0,0.478,0.091,0.659,0.272s0.272,0.401,0.272,0.659
			s-0.091,0.478-0.272,0.659S136.125,63.801,135.867,63.801z"/>
	</g>
	<g>
		<g>
			<path fill="#5B6AB0" stroke="#FFFFFF" stroke-width="2" stroke-miterlimit="10" d="M194.769,167.589
				c-2.535-5.82-5.35-11.609-8.447-17.346c6.005-2.538,12.218-4.851,18.63-6.916c-63.972-26.855-136.117-26.686-199.987,0.509
				c0.04,0.094,0.08,0.188,0.12,0.282c6.617,2.096,13.026,4.457,19.211,7.058c-2.899,5.432-5.546,10.909-7.942,16.414
				C73.411,143.639,137.71,143.638,194.769,167.589L194.769,167.589L194.769,167.589z"/>
		</g>
	</g>
	<g>
		<g>
			<path fill="#FFFFFF" d="M59.353,133.046c2.066-0.214,3.874-0.492,5.439-0.859c1.213-0.284,2.185-0.613,2.92-1.001
				c0.296-0.158,0.472-0.245,0.524-0.255c0.124-0.026,0.201,0.032,0.232,0.171c0.103,0.462-0.014,1.006-0.343,1.63
				c-0.328,0.623-0.82,1.147-1.474,1.577c-0.652,0.429-1.525,0.772-2.623,1.039c-0.83,0.202-1.786,0.365-2.873,0.5
				c0.171,0.978,0.346,1.953,0.526,2.929c0.569-0.401,1.122-0.73,1.659-0.988c0.535-0.257,1.051-0.443,1.547-0.563
				c1.64-0.396,3.153-0.272,4.517,0.362s2.197,1.702,2.535,3.178c0.349,1.518,0.064,2.872-0.823,4.072
				c-0.891,1.2-2.225,2.005-4.048,2.457c-1.451,0.358-2.711,0.333-3.803-0.09s-1.798-1.093-2.099-2.028
				c-0.197-0.613-0.154-1.155,0.131-1.63c0.283-0.474,0.735-0.793,1.346-0.956c0.537-0.142,1.023-0.112,1.457,0.085
				c0.432,0.197,0.708,0.505,0.827,0.921c0.085,0.298,0.07,0.577-0.044,0.841c-0.115,0.263-0.397,0.569-0.841,0.915
				c-0.323,0.257-0.462,0.458-0.417,0.603c0.072,0.234,0.314,0.397,0.724,0.491c0.603,0.133,1.253,0.111,1.957-0.065
				c0.878-0.22,1.488-0.697,1.844-1.442c0.355-0.744,0.338-1.871-0.052-3.38c-0.329-1.272-0.824-2.143-1.501-2.604
				c-0.678-0.46-1.43-0.592-2.251-0.388c-0.38,0.094-0.775,0.256-1.181,0.485c-0.406,0.229-0.828,0.528-1.265,0.896
				c0.15,0.541,0.177,0.933,0.083,1.174c-0.095,0.242-0.284,0.4-0.566,0.476c-0.242,0.064-0.453,0.061-0.635-0.013
				c-0.181-0.074-0.298-0.198-0.351-0.369c-0.083-0.269,0.015-0.729,0.303-1.381C60.25,137.575,59.79,135.312,59.353,133.046z"/>
			<path fill="#FFFFFF" d="M92.146,128.588c0.388-0.03,0.777-0.058,1.165-0.086c0.098,1.376,0.198,2.75,0.299,4.126
				c1.315-0.092,2.63-0.17,3.946-0.231c0.019,0.386,0.038,0.773,0.057,1.159c-1.307,0.061-2.612,0.138-3.917,0.229
				c0.158,2.126,0.318,4.251,0.484,6.375c0.032,0.423,0.179,0.739,0.439,0.956c0.261,0.216,0.587,0.31,0.983,0.286
				c1.126-0.069,1.668-1.03,1.632-2.901c0.365-0.019,0.729-0.035,1.093-0.052c0.024,0.995-0.116,1.803-0.415,2.423
				s-0.743,1.11-1.331,1.474c-0.59,0.362-1.263,0.57-2.025,0.623c-0.668,0.046-1.256-0.032-1.767-0.234
				c-0.512-0.203-0.938-0.533-1.277-0.988c-0.341-0.457-0.541-0.965-0.598-1.527c-0.205-2.054-0.406-4.107-0.602-6.161
				c-0.702,0.063-1.403,0.131-2.105,0.204c-0.036-0.328-0.071-0.656-0.107-0.983c1.281-0.276,2.251-0.783,2.921-1.537
				C91.689,130.987,92.065,129.937,92.146,128.588z"/>
			<path fill="#FFFFFF" d="M107.964,141.284c-0.005,0.333-0.011,0.667-0.017,0.999c-2.605-0.04-5.21-0.015-7.815,0.074
				c-0.013-0.333-0.025-0.666-0.038-0.998c0.325-0.012,0.65-0.022,0.976-0.031c0.401-0.011,0.69-0.088,0.872-0.232
				c0.182-0.143,0.27-0.333,0.265-0.569c-0.045-1.984-0.089-3.966-0.133-5.95c-0.01-0.479-0.146-0.828-0.41-1.044
				c-0.262-0.216-0.627-0.317-1.092-0.305c-0.224,0.007-0.449,0.013-0.673,0.021c-0.011-0.314-0.022-0.63-0.033-0.944
				c1.7-0.132,3.402-0.238,5.106-0.319c0.004,1.093,0.007,2.185,0.012,3.276c0.288-1.097,0.801-1.939,1.544-2.522
				c0.742-0.583,1.583-0.868,2.513-0.848c0.793,0.017,1.416,0.211,1.863,0.581c0.448,0.368,0.658,0.833,0.637,1.392
				c-0.019,0.479-0.191,0.862-0.514,1.148c-0.326,0.287-0.712,0.424-1.162,0.412c-0.4-0.011-0.742-0.146-1.024-0.411
				c-0.285-0.263-0.423-0.595-0.416-0.996c0.004-0.223,0.078-0.453,0.22-0.694c0.076-0.135,0.114-0.231,0.115-0.289
				c0.002-0.1-0.024-0.175-0.077-0.222c-0.055-0.046-0.142-0.071-0.259-0.074c-0.305-0.006-0.642,0.141-1.008,0.437
				c-0.562,0.46-1.033,1.181-1.41,2.165c-0.378,0.984-0.56,1.979-0.561,2.981c0.001,0.723,0.001,1.446,0.001,2.169
				c0,0.252,0.077,0.442,0.229,0.576c0.152,0.133,0.365,0.199,0.637,0.2C106.865,141.27,107.415,141.276,107.964,141.284z"/>
			<path fill="#FFFFFF" d="M113.68,132.405c1.774,0.016,3.551,0.063,5.331,0.135c-0.236,2.838-0.479,5.676-0.73,8.512
				c-0.021,0.229,0.046,0.412,0.201,0.55c0.153,0.138,0.398,0.221,0.734,0.25c0.252,0.021,0.505,0.044,0.758,0.067
				c-0.034,0.33-0.067,0.663-0.101,0.995c-2.238-0.203-4.477-0.357-6.715-0.465c0.018-0.333,0.035-0.666,0.054-0.998
				c0.249,0.012,0.497,0.024,0.746,0.037c0.401,0.021,0.688-0.044,0.864-0.2s0.277-0.436,0.304-0.843
				c0.128-1.938,0.253-3.875,0.376-5.812c0.023-0.366-0.083-0.655-0.321-0.87c-0.236-0.213-0.576-0.333-1.016-0.356
				c-0.178-0.009-0.356-0.018-0.533-0.026C113.648,133.058,113.664,132.731,113.68,132.405z M117.362,126.808
				c0.59,0.039,1.085,0.246,1.481,0.616c0.396,0.373,0.573,0.801,0.533,1.287c-0.039,0.486-0.282,0.88-0.724,1.188
				c-0.443,0.308-0.952,0.44-1.53,0.402c-0.588-0.039-1.076-0.242-1.471-0.609c-0.395-0.367-0.581-0.79-0.554-1.27
				c0.027-0.486,0.259-0.888,0.702-1.203C116.24,126.906,116.763,126.767,117.362,126.808z"/>
			<path fill="#FFFFFF" d="M123.153,133.178c1.631,0.084,3.266,0.189,4.903,0.32c0.106,0.672,0.127,1.331,0.069,1.974
				c0.595-0.604,1.314-1.035,2.159-1.291c0.846-0.254,1.754-0.306,2.721-0.149c1.547,0.25,2.72,0.929,3.487,2.013
				c0.769,1.083,0.966,2.459,0.609,4.118c-0.249,1.153-0.684,2.086-1.292,2.806c-0.609,0.718-1.341,1.211-2.193,1.482
				c-0.852,0.272-1.787,0.324-2.811,0.159c-0.818-0.132-1.515-0.406-2.099-0.83c-0.583-0.422-1.093-1.037-1.539-1.842
				c-0.18,1.189-0.362,2.375-0.547,3.563c-0.073,0.469-0.081,0.774-0.023,0.915c0.058,0.142,0.188,0.261,0.391,0.358
				c0.203,0.098,0.624,0.194,1.261,0.295c-0.059,0.34-0.117,0.679-0.175,1.019c-2.181-0.322-4.363-0.595-6.545-0.823
				c0.042-0.342,0.083-0.684,0.124-1.025c0.117,0.012,0.234,0.024,0.35,0.037c0.413,0.045,0.693,0.042,0.842-0.01
				c0.149-0.051,0.274-0.155,0.373-0.31c0.069-0.108,0.135-0.392,0.195-0.855c0.414-3.15,0.813-6.301,1.2-9.452
				c0.057-0.463,0.052-0.775-0.014-0.937c-0.066-0.164-0.181-0.288-0.347-0.375c-0.166-0.086-0.564-0.177-1.198-0.263
				C123.087,133.775,123.12,133.478,123.153,133.178z M131.163,135.256c-0.822-0.125-1.573,0.105-2.245,0.686
				c-0.672,0.582-1.095,1.511-1.282,2.784c-0.186,1.26-0.038,2.262,0.435,3.011c0.472,0.75,1.07,1.177,1.81,1.292
				c0.722,0.11,1.355-0.083,1.905-0.583c0.721-0.663,1.21-1.629,1.451-2.911c0.221-1.173,0.152-2.149-0.213-2.918
				C132.659,135.846,132.035,135.389,131.163,135.256z"/>
			<path fill="#FFFFFF" d="M148.798,138.057c0.356-0.202,0.714-0.401,1.074-0.601c0.262,0.069,0.523,0.138,0.785,0.208
				c-0.24,1.127-0.486,2.254-0.738,3.38c-0.338-0.091-0.678-0.182-1.018-0.271c-0.274-1.022-0.692-1.797-1.242-2.32
				c-0.548-0.52-1.292-0.896-2.219-1.117c-0.8-0.189-1.442-0.203-1.92-0.045c-0.479,0.158-0.763,0.43-0.858,0.814
				c-0.092,0.378-0.003,0.7,0.266,0.969c0.268,0.274,1.083,0.69,2.438,1.27c1.228,0.528,2.028,0.929,2.41,1.183
				c0.729,0.479,1.236,1.048,1.521,1.7c0.285,0.653,0.312,1.334,0.086,2.042c-0.285,0.895-0.951,1.53-1.975,1.916
				c-1.026,0.388-2.203,0.408-3.55,0.077c-0.65-0.159-1.219-0.368-1.71-0.626c-0.49-0.261-0.978-0.625-1.465-1.095
				c-0.361,0.228-0.72,0.458-1.078,0.69c-0.302-0.065-0.604-0.13-0.905-0.194c0.232-1.252,0.458-2.505,0.678-3.76
				c0.338,0.071,0.677,0.145,1.016,0.216c0.409,2.061,1.61,3.312,3.669,3.816c0.847,0.209,1.535,0.232,2.07,0.063
				c0.534-0.167,0.863-0.446,0.982-0.841c0.109-0.36,0.052-0.67-0.179-0.931c-0.229-0.261-0.926-0.658-2.099-1.177
				c-1.267-0.553-2.125-0.96-2.566-1.237c-0.759-0.46-1.291-0.973-1.596-1.551c-0.305-0.575-0.38-1.207-0.221-1.891
				c0.228-0.979,0.803-1.7,1.744-2.153c0.94-0.454,2.085-0.526,3.424-0.21c0.652,0.154,1.222,0.36,1.706,0.613
				C147.813,137.249,148.303,137.602,148.798,138.057z"/>
		</g>
	</g>
</g>
</svg>
