<?xml version="1.0" encoding="utf-8"?>
<!-- Generator: Adobe Illustrator 16.0.4, SVG Export Plug-In . SVG Version: 6.00 Build 0)  -->
<!DOCTYPE svg PUBLIC "-//W3C//DTD SVG 1.1//EN" "http://www.w3.org/Graphics/SVG/1.1/DTD/svg11.dtd">
<svg version="1.1" id="Livello_1" xmlns="http://www.w3.org/2000/svg" xmlns:xlink="http://www.w3.org/1999/xlink" x="0px" y="0px"
	 width="210.001px" height="200px" viewBox="0 0 210.001 200" enable-background="new 0 0 210.001 200" xml:space="preserve">
<g>
	<circle fill="#2A398D" cx="104" cy="100" r="84"/>
	<circle fill="#2A398D" stroke="#FFFFFF" stroke-width="5" stroke-miterlimit="10" cx="104.001" cy="99.717" r="75.216"/>
	<g>
		<g>
			<path fill="#FFFFFF" d="M156.463,78.24c2.404,0.057,4.414-1.852,4.469-4.267c0.057-2.418-1.861-4.417-4.266-4.473
				c-2.414-0.055-4.414,1.85-4.471,4.269C152.141,76.185,154.049,78.184,156.463,78.24z"/>
		</g>
		<g>
			<path fill="#FFFFFF" d="M157.098,95.496h11.852v-4.369h-8.805l-4.855-8.088c-0.717-1.212-2.039-2.014-3.547-2.014
				c-0.41,0-0.811,0.06-1.188,0.168l-13.176,4.104L135.6,97.925h4.369l1.781-8.898l5.115-1.594l-9.486,37.201h4.371l6.971-19.692
				l5.658,7.552v12.14h4.369v-15.552l-6.047-11.025l1.787-6.966L157.098,95.496z"/>
		</g>
	</g>
	<path fill="#FFFFFF" d="M108.299,108.061c-1.768-5.548-6.5-9.177-11.838-9.119l-3.871,0.14l-1.225-3.073
		c-2.379-5.963-3.609-8.887-3.986-9.455c-0.373-0.568-0.418-0.575-3.943-0.575c-3.121,0-3.615,0.055-3.881,0.417
		c-0.438,0.572-0.412,0.923,0.133,1.471c0.42,0.419,0.791,0.471,3.162,0.471c1.875,0,2.76,0.09,2.912,0.296
		c0.266,0.352,1.25,2.758,1.25,3.047c0,0.112-4.939,0.198-10.975,0.198h-10.98l-0.467-0.925c-0.264-0.518-0.479-0.984-0.479-1.04
		c0-0.063,1.123-0.236,2.498-0.402c2.801-0.331,3.828-0.825,3.154-1.511c-0.301-0.311-1.143-0.383-4.889-0.43
		c-3.08-0.035-4.613,0.028-4.789,0.209c-0.143,0.143-0.227,0.674-0.186,1.179c0.066,0.812,0.135,1.272,0.883,1.184l1.135-0.146
		l1.477,2.781l-4.609,7.066c-3.285-0.985-6.27-1.208-9.645-0.122c-1.623,0.683-3.924,2.317-4.977,3.55
		c-1.377,1.608-2.459,4.042-2.783,6.266c-0.035,0.246-0.061,0.496-0.078,0.738v1.691c0.35,4.786,3.67,9.265,8.314,10.806
		c2.154,0.723,2.205,0.73,4.459,0.652c1.684-0.058,2.502-0.223,3.963-0.79c2.125-0.827,3.117-1.648,5.336-4.066
		c2.246-2.463,2.48-5.267,2.568-6.015c0.184-0.065,2.023-0.128,4.088-0.128h3.762l0.033,1.891c0.021,1.04-0.053,2.364-0.043,2.593
		c0.018,0.324-0.1,0.137-0.893,0.193c-0.9,0.06-1.014,0.135-0.945,0.59c0.057,0.415,0.254,0.54,0.994,0.596
		c0.504,0.046,1.727-0.15,2.033-0.227l0.062-5.707l1.592-1.981c0.904-1.144,1.727-2.185,1.824-2.312
		c0.102-0.133,0.564-0.717,1.027-1.303c0.459-0.584,2.623-3.319,4.803-6.081c2.182-2.758,4.037-5.021,4.133-5.021
		c0.1,0,0.291,0.243,0.428,0.54c0.846,1.773,1.299,2.957,1.404,3.645c0.115,0.674,0.053,0.8-0.494,1.008
		c-0.934,0.357-3.49,3.066-4.244,4.512c-0.943,1.801-1.566,4.102-1.566,5.817c0,2.531,1.703,6.711,3.447,8.448
		c4.738,4.739,11.568,5.168,16.727,1.059c1.803-1.603,3.33-3.702,4.062-6.017C108.68,112.979,108.75,109.461,108.299,108.061z
		 M59.773,103.459c1.658,1.502,3.264,2.987,3.561,6.295l-7.586,0.109L59.773,103.459z M53.109,120.6
		c-4.531-0.151-9.305-3.617-9.256-9.978c0.041-6.287,6.793-10.643,13.812-8.219c-1.846,3.258-6.092,8.828-5.578,9.531
		c0.531,0.734,1.537,0.489,6.305,0.489h5.072C62.947,119.461,55.869,120.688,53.109,120.6z M65.883,109.718
		c-0.686-3.379-2.629-6.09-4.959-8.586l3.318-5.473c0.139,0,0.766,0.929,1.398,2.06c0.635,1.14,2.408,4.296,3.947,7.012
		c1.537,2.712,2.771,5.058,2.66,5.058L65.883,109.718z M80.541,101.589c-0.172,0.201-0.848,1.128-1.568,2.003l-3.996,4.868
		l-0.004-3.052c0.611-0.018,1.852-0.009,1.809-0.787c-0.033-0.783-1.75-0.568-2.941-0.516l0.119,4.457l-7.307-14.321h9.59
		c8.057,0,9.592,0.056,9.592,0.334C85.834,94.831,83.135,98.403,80.541,101.589z M103.256,118.287
		c-2.52,2.435-6.189,3.421-9.422,2.534c-4.859-1.34-8.08-6.068-7.34-10.783c0.414-2.626,1.125-4.117,2.762-5.782
		c1.9-1.946,2.248-1.955,2.951-0.099c0.168,0.454,0.539,1.367,0.82,2.012c0.281,0.651,0.928,2.215,1.439,3.476
		c1.043,2.584,1.641,3.186,2.465,2.437c0.676-0.945,0.08-2.333-0.662-3.944c-0.4-0.729-2.41-6.148-2.41-6.501
		c0.564-0.562,1.869-0.289,2.658-0.262c2.26,0.101,2.857,0.216,4.039,0.765c1.752,0.818,4.02,3.09,4.84,4.852
		c0.541,1.168,0.977,1.623,1.006,4.305C106.727,114.014,105.021,116.346,103.256,118.287z"/>
	<g>
		<path fill="#FFFFFF" d="M81.648,40.337h9.492c0.129,0,0.25,0.023,0.363,0.07c0.115,0.047,0.215,0.113,0.299,0.198
			c0.086,0.085,0.152,0.185,0.199,0.299s0.07,0.236,0.07,0.365c0,0.193-0.059,0.375-0.176,0.545l-8.342,10.723h7.586
			c0.264,0.006,0.484,0.1,0.662,0.281c0.18,0.182,0.27,0.401,0.27,0.659s-0.09,0.476-0.27,0.655
			c-0.178,0.179-0.396,0.268-0.654,0.268h-9.5c-0.135,0-0.258-0.023-0.369-0.07s-0.211-0.113-0.295-0.198
			c-0.086-0.085-0.15-0.183-0.197-0.294s-0.07-0.234-0.07-0.369c0.006-0.223,0.07-0.416,0.193-0.58l8.322-10.688h-7.584
			c-0.252,0-0.471-0.091-0.656-0.272c-0.184-0.182-0.275-0.401-0.275-0.659s0.092-0.478,0.275-0.659
			C81.178,40.428,81.396,40.337,81.648,40.337z"/>
		<path fill="#FFFFFF" d="M102.426,52.537c0.258,0,0.477,0.091,0.658,0.272s0.273,0.401,0.273,0.659s-0.092,0.478-0.273,0.659
			s-0.4,0.272-0.658,0.272h-8.131c-0.135,0-0.258-0.023-0.369-0.07s-0.209-0.113-0.295-0.198c-0.084-0.085-0.15-0.183-0.197-0.294
			s-0.07-0.234-0.07-0.369V41.269c0-0.129,0.023-0.25,0.07-0.365s0.113-0.214,0.197-0.299c0.086-0.085,0.184-0.151,0.295-0.198
			s0.234-0.07,0.369-0.07h8.131c0.258,0,0.477,0.091,0.658,0.272s0.273,0.401,0.273,0.659s-0.092,0.478-0.273,0.659
			s-0.4,0.272-0.658,0.272h-7.199v4.236h5.168c0.258,0,0.479,0.091,0.66,0.272s0.271,0.401,0.271,0.659s-0.09,0.478-0.271,0.659
			s-0.402,0.272-0.66,0.272h-5.168v4.236H102.426z"/>
		<path fill="#FFFFFF" d="M104.605,53.468V41.269c0-0.129,0.023-0.25,0.07-0.365s0.111-0.214,0.197-0.299
			c0.084-0.085,0.184-0.151,0.295-0.198s0.234-0.07,0.369-0.07h3.393c0.592,0,1.148,0.114,1.674,0.343
			c0.523,0.229,0.98,0.539,1.371,0.932c0.389,0.393,0.699,0.851,0.928,1.375s0.342,1.083,0.342,1.674
			c0,0.387-0.049,0.763-0.145,1.129c-0.098,0.366-0.24,0.712-0.432,1.037c-0.189,0.325-0.428,0.627-0.711,0.905
			c-0.285,0.278-0.613,0.523-0.988,0.734l2.803,4.491c0.1,0.164,0.15,0.334,0.15,0.51c0,0.135-0.023,0.258-0.07,0.369
			s-0.113,0.209-0.199,0.294c-0.084,0.085-0.184,0.151-0.299,0.198c-0.113,0.047-0.234,0.07-0.363,0.07
			c-0.328,0-0.596-0.152-0.801-0.457l-3.102-4.966h-2.619v4.491c0,0.258-0.092,0.478-0.273,0.659s-0.4,0.272-0.658,0.272
			s-0.479-0.091-0.66-0.272S104.605,53.726,104.605,53.468z M106.469,42.201v4.913h2.461c0.34,0,0.658-0.064,0.957-0.193
			s0.559-0.306,0.777-0.532c0.221-0.226,0.395-0.486,0.523-0.782s0.193-0.611,0.193-0.945c0-0.34-0.064-0.659-0.193-0.958
			s-0.305-0.56-0.527-0.782s-0.482-0.398-0.781-0.527s-0.615-0.193-0.949-0.193H106.469z"/>
		<path fill="#FFFFFF" d="M129.258,47.369c0,1.939-0.689,3.598-2.066,4.975c-1.371,1.371-3.025,2.057-4.965,2.057
			c-1.945,0-3.604-0.686-4.975-2.057s-2.057-3.029-2.057-4.975c0-1.939,0.686-3.595,2.057-4.966
			c1.377-1.377,3.035-2.065,4.975-2.065c1.934,0,3.588,0.688,4.965,2.065c0.691,0.691,1.209,1.447,1.553,2.268
			C129.086,45.491,129.258,46.39,129.258,47.369z M122.227,42.201c-0.727,0-1.391,0.126-1.99,0.378
			c-0.602,0.252-1.156,0.633-1.666,1.143s-0.889,1.063-1.139,1.661c-0.248,0.598-0.373,1.26-0.373,1.986
			c0,1.43,0.504,2.648,1.512,3.656s2.227,1.512,3.656,1.512s2.648-0.504,3.656-1.512s1.512-2.227,1.512-3.656
			c0-1.424-0.504-2.64-1.512-3.647C124.869,42.708,123.65,42.201,122.227,42.201z"/>
		<path fill="#FFFFFF" d="M75.742,75.068c0,0.258-0.092,0.478-0.273,0.659S75.068,76,74.811,76s-0.479-0.091-0.66-0.272
			s-0.271-0.401-0.271-0.659V62.869c0-0.258,0.09-0.478,0.271-0.659s0.402-0.272,0.66-0.272s0.477,0.091,0.658,0.272
			s0.273,0.401,0.273,0.659V75.068z"/>
		<path fill="#FFFFFF" d="M77.518,75.068V62.869c0-0.129,0.023-0.25,0.07-0.365s0.111-0.214,0.197-0.299
			c0.084-0.085,0.184-0.151,0.295-0.198s0.234-0.07,0.369-0.07c0.363,0,0.639,0.167,0.826,0.501l5.273,10.538l5.273-10.538
			c0.211-0.334,0.486-0.501,0.826-0.501c0.129,0,0.25,0.023,0.363,0.07c0.115,0.047,0.215,0.113,0.299,0.198
			c0.086,0.085,0.152,0.185,0.199,0.299s0.07,0.236,0.07,0.365v12.199c0,0.258-0.092,0.478-0.273,0.659S90.906,76,90.648,76
			s-0.479-0.091-0.66-0.272s-0.271-0.401-0.271-0.659v-8.244l-4.359,8.71C85.176,75.845,84.906,76,84.549,76
			c-0.387,0-0.672-0.188-0.854-0.562l-4.314-8.613v8.244c0,0.258-0.092,0.478-0.273,0.659S78.707,76,78.449,76
			s-0.479-0.091-0.66-0.272S77.518,75.326,77.518,75.068z"/>
		<path fill="#FFFFFF" d="M92.934,75.068V62.869c0-0.129,0.023-0.25,0.07-0.365s0.111-0.214,0.197-0.299
			c0.084-0.085,0.184-0.151,0.295-0.198s0.234-0.07,0.369-0.07h2.707c0.422,0,0.83,0.056,1.225,0.167
			c0.396,0.111,0.768,0.27,1.113,0.475s0.662,0.45,0.949,0.734s0.531,0.599,0.732,0.945c0.203,0.346,0.361,0.716,0.475,1.112
			c0.115,0.396,0.172,0.804,0.172,1.226c0,1.277-0.459,2.376-1.379,3.296c-0.908,0.908-2.004,1.362-3.287,1.362h-1.775v3.814
			c0,0.258-0.092,0.478-0.273,0.659S94.123,76,93.865,76s-0.479-0.091-0.66-0.272S92.934,75.326,92.934,75.068z M94.797,63.801v5.59
			h1.775c0.381,0,0.738-0.073,1.076-0.22c0.336-0.146,0.633-0.346,0.887-0.598c0.256-0.252,0.457-0.548,0.607-0.888
			c0.148-0.34,0.225-0.703,0.225-1.09c0-0.393-0.076-0.759-0.225-1.099c-0.15-0.34-0.352-0.636-0.607-0.888
			c-0.254-0.252-0.551-0.45-0.891-0.593s-0.697-0.215-1.072-0.215H94.797z"/>
		<path fill="#FFFFFF" d="M100.562,74.646l4.693-12.076c0.188-0.422,0.482-0.633,0.887-0.633c0.416,0,0.713,0.211,0.889,0.633
			l4.711,12.12c0.047,0.117,0.07,0.243,0.07,0.378c0,0.258-0.092,0.478-0.273,0.659S111.139,76,110.881,76s-0.475-0.091-0.65-0.272
			c-0.094-0.094-0.164-0.193-0.211-0.299l-1.627-4.175h-4.5l-1.635,4.175c-0.047,0.105-0.117,0.205-0.211,0.299
			c-0.182,0.182-0.4,0.272-0.658,0.272s-0.477-0.091-0.656-0.272c-0.178-0.182-0.268-0.401-0.268-0.659
			C100.465,74.928,100.498,74.787,100.562,74.646z M107.672,69.391l-1.529-3.946l-1.529,3.946H107.672z"/>
		<path fill="#FFFFFF" d="M123.939,72.836c0.129,0,0.25,0.025,0.361,0.075s0.209,0.116,0.295,0.198
			c0.084,0.082,0.152,0.18,0.201,0.294c0.051,0.114,0.074,0.236,0.074,0.365c0,0.246-0.096,0.469-0.289,0.668
			C123.275,75.479,121.801,76,120.16,76c-1.945,0-3.604-0.686-4.975-2.057c-1.369-1.371-2.055-3.029-2.055-4.975
			c0-1.939,0.686-3.595,2.055-4.966c1.377-1.377,3.035-2.065,4.975-2.065c1.664,0,3.168,0.548,4.51,1.644
			c0.164,0.158,0.246,0.372,0.246,0.642c0,0.135-0.023,0.258-0.07,0.369s-0.113,0.209-0.197,0.294
			c-0.086,0.085-0.186,0.151-0.299,0.198c-0.115,0.047-0.236,0.07-0.365,0.07c-0.229,0-0.443-0.088-0.643-0.264
			c-0.445-0.352-0.936-0.621-1.471-0.809c-0.537-0.188-1.107-0.281-1.711-0.281c-1.43,0-2.65,0.507-3.664,1.521
			c-1.002,1.002-1.504,2.218-1.504,3.647c0,1.436,0.502,2.654,1.504,3.656c1.008,1.008,2.229,1.512,3.664,1.512
			c1.225,0,2.303-0.378,3.234-1.134C123.547,72.897,123.729,72.842,123.939,72.836z"/>
		<path fill="#FFFFFF" d="M135.867,63.801h-3.473v11.268c0,0.258-0.09,0.478-0.271,0.659S131.721,76,131.463,76
			s-0.477-0.091-0.658-0.272s-0.273-0.401-0.273-0.659V63.801h-3.471c-0.258,0-0.479-0.091-0.66-0.272s-0.271-0.401-0.271-0.659
			s0.09-0.478,0.271-0.659s0.402-0.272,0.66-0.272h8.807c0.258,0,0.477,0.091,0.658,0.272s0.273,0.401,0.273,0.659
			s-0.092,0.478-0.273,0.659S136.125,63.801,135.867,63.801z"/>
	</g>
	<g>
		<g>
			<path fill="#5B6AB0" stroke="#FFFFFF" stroke-width="2" stroke-miterlimit="10" d="M194.769,167.589
				c-2.534-5.82-5.349-11.609-8.446-17.346c6.005-2.538,12.219-4.851,18.631-6.916c-63.973-26.856-136.118-26.686-199.987,0.509
				c0.04,0.094,0.08,0.188,0.12,0.282c6.617,2.096,13.025,4.457,19.212,7.058c-2.899,5.432-5.547,10.909-7.942,16.414
				C73.411,143.639,137.711,143.638,194.769,167.589L194.769,167.589L194.769,167.589z"/>
		</g>
	</g>
	<g>
		<g>
			<path fill="#FFFFFF" d="M52.934,133.059c2.016-0.207,3.781-0.483,5.31-0.852c1.184-0.284,2.128-0.618,2.843-1.006
				c0.288-0.161,0.459-0.247,0.51-0.259c0.121-0.026,0.196,0.03,0.229,0.171c0.107,0.461,0.001,1.005-0.312,1.63
				c-0.313,0.625-0.788,1.15-1.423,1.58c-0.636,0.431-1.487,0.774-2.561,1.042c-0.81,0.202-1.747,0.366-2.809,0.497
				c0.175,0.976,0.352,1.951,0.534,2.926c0.556-0.4,1.099-0.728,1.62-0.986c0.523-0.257,1.028-0.444,1.514-0.563
				c1.605-0.397,3.091-0.279,4.439,0.348c1.348,0.627,2.182,1.688,2.535,3.16c0.36,1.515,0.098,2.871-0.769,4.076
				c-0.87,1.208-2.187,2.021-3.987,2.475c-1.435,0.362-2.682,0.337-3.758-0.087c-1.081-0.423-1.778-1.096-2.075-2.032
				c-0.194-0.612-0.154-1.154,0.125-1.628c0.276-0.472,0.72-0.792,1.321-0.951c0.528-0.141,1.006-0.113,1.437,0.085
				c0.424,0.198,0.697,0.506,0.817,0.92c0.086,0.298,0.073,0.577-0.039,0.842c-0.112,0.263-0.387,0.566-0.825,0.914
				c-0.318,0.256-0.455,0.457-0.41,0.602c0.071,0.233,0.311,0.398,0.717,0.491c0.594,0.133,1.237,0.109,1.931-0.066
				c0.869-0.222,1.468-0.7,1.815-1.446c0.343-0.746,0.318-1.871-0.079-3.378c-0.335-1.27-0.831-2.139-1.5-2.597
				c-0.67-0.458-1.412-0.588-2.217-0.385c-0.372,0.094-0.759,0.256-1.154,0.484c-0.398,0.231-0.81,0.527-1.235,0.894
				c0.147,0.541,0.177,0.933,0.088,1.173c-0.092,0.241-0.279,0.397-0.557,0.474c-0.237,0.064-0.445,0.059-0.623-0.014
				c-0.177-0.075-0.293-0.2-0.346-0.37c-0.082-0.269,0.012-0.728,0.289-1.379C53.844,137.583,53.377,135.323,52.934,133.059z"/>
			<path fill="#FFFFFF" d="M72.328,128.83c1.098-0.186,2.139-0.074,3.112,0.332c0.974,0.404,1.849,1.184,2.618,2.33
				c0.771,1.146,1.266,2.539,1.504,4.169c0.241,1.645,0.17,3.109-0.195,4.392c-0.365,1.282-0.926,2.259-1.687,2.936
				c-0.763,0.676-1.648,1.099-2.668,1.271c-1.526,0.261-2.905-0.11-4.162-1.12c-1.573-1.25-2.645-3.042-3.161-5.405
				c-0.364-1.669-0.391-3.161-0.059-4.476c0.327-1.313,0.902-2.334,1.718-3.052C70.162,129.487,71.16,129.026,72.328,128.83z
				 M75.881,136.605c-0.521-3.096-1.093-5.092-1.745-5.982c-0.474-0.649-1.039-0.922-1.684-0.812
				c-0.776,0.131-1.259,0.735-1.44,1.81c-0.182,1.073,0.004,3.05,0.566,5.931c0.472,2.408,1.065,4.066,1.75,4.979
				c0.432,0.565,0.931,0.798,1.496,0.702c0.369-0.063,0.68-0.26,0.933-0.592c0.254-0.331,0.391-0.973,0.422-1.922
				C76.223,139.435,76.128,138.062,75.881,136.605z"/>
			<path fill="#FFFFFF" d="M99.974,127.245c0.378-0.01,0.756-0.021,1.136-0.029c0.031,1.378,0.062,2.756,0.095,4.135
				c1.287-0.029,2.576-0.045,3.861-0.048c0.001,0.387,0.004,0.773,0.003,1.16c-1.279,0.003-2.559,0.02-3.837,0.048
				c0.05,2.13,0.1,4.26,0.153,6.39c0.01,0.423,0.137,0.746,0.382,0.975c0.244,0.228,0.562,0.337,0.95,0.332
				c1.11-0.016,1.692-0.952,1.748-2.822c0.358-0.002,0.717-0.002,1.075-0.003c-0.025,0.995-0.201,1.796-0.523,2.401
				c-0.325,0.606-0.786,1.077-1.384,1.412c-0.599,0.335-1.272,0.511-2.025,0.526c-0.659,0.015-1.234-0.092-1.726-0.319
				c-0.493-0.228-0.895-0.578-1.2-1.05c-0.311-0.473-0.479-0.99-0.504-1.556c-0.089-2.062-0.176-4.121-0.261-6.183
				c-0.688,0.027-1.374,0.059-2.062,0.093c-0.016-0.329-0.034-0.657-0.052-0.987c1.262-0.207,2.231-0.664,2.922-1.383
				C99.414,129.618,99.831,128.588,99.974,127.245z"/>
			<path fill="#FFFFFF" d="M114.905,140.598c-0.021,0.332-0.038,0.665-0.057,0.998c-2.573-0.133-5.146-0.21-7.718-0.232
				c0.004-0.333,0.006-0.666,0.011-0.999c0.32,0.002,0.642,0.006,0.963,0.011c0.394,0.006,0.687-0.058,0.87-0.196
				c0.187-0.135,0.28-0.32,0.287-0.558c0.043-1.983,0.086-3.968,0.128-5.95c0.011-0.478-0.106-0.834-0.356-1.06
				c-0.248-0.227-0.601-0.345-1.056-0.35c-0.22-0.003-0.44-0.006-0.66-0.007c0.004-0.315,0.007-0.63,0.009-0.945
				c1.667-0.06,3.336-0.098,5.007-0.114c-0.038,1.09-0.079,2.183-0.12,3.274c0.33-1.085,0.865-1.907,1.613-2.463
				c0.75-0.556,1.586-0.809,2.494-0.758c0.776,0.044,1.38,0.258,1.807,0.643c0.424,0.383,0.615,0.855,0.574,1.412
				c-0.033,0.478-0.215,0.855-0.545,1.131s-0.714,0.4-1.157,0.373c-0.393-0.024-0.721-0.173-0.989-0.445
				c-0.27-0.273-0.391-0.609-0.369-1.01c0.014-0.221,0.091-0.451,0.241-0.686c0.078-0.131,0.12-0.227,0.122-0.284
				c0.007-0.101-0.016-0.176-0.065-0.225c-0.052-0.049-0.136-0.077-0.252-0.083c-0.298-0.015-0.635,0.118-1.005,0.401
				c-0.566,0.439-1.057,1.145-1.467,2.112c-0.409,0.971-0.629,1.956-0.67,2.958c-0.029,0.722-0.058,1.446-0.089,2.168
				c-0.01,0.25,0.059,0.445,0.202,0.583c0.146,0.139,0.352,0.213,0.621,0.225C113.82,140.545,114.361,140.57,114.905,140.598z"/>
			<path fill="#FFFFFF" d="M120.85,131.912c1.74,0.07,3.481,0.165,5.226,0.282c-0.316,2.831-0.639,5.661-0.973,8.49
				c-0.027,0.229,0.034,0.412,0.182,0.555c0.148,0.143,0.388,0.232,0.72,0.269c0.25,0.028,0.497,0.058,0.748,0.086
				c-0.043,0.33-0.086,0.662-0.129,0.992c-2.21-0.257-4.42-0.476-6.631-0.651c0.03-0.332,0.06-0.664,0.088-0.996
				c0.246,0.02,0.489,0.04,0.736,0.061c0.396,0.034,0.682-0.024,0.861-0.174c0.178-0.15,0.286-0.426,0.328-0.834
				c0.188-1.932,0.377-3.865,0.56-5.797c0.034-0.363-0.062-0.657-0.288-0.878c-0.226-0.22-0.554-0.351-0.985-0.386
				c-0.174-0.014-0.349-0.028-0.522-0.042C120.797,132.561,120.823,132.237,120.85,131.912z M124.634,126.422
				c0.574,0.055,1.052,0.275,1.428,0.655c0.377,0.381,0.538,0.814,0.485,1.299c-0.053,0.484-0.304,0.874-0.745,1.17
				s-0.945,0.416-1.508,0.362c-0.576-0.056-1.047-0.271-1.423-0.65c-0.374-0.38-0.544-0.807-0.502-1.284
				c0.042-0.485,0.281-0.881,0.725-1.183C123.535,126.489,124.047,126.364,124.634,126.422z"/>
			<path fill="#FFFFFF" d="M130.122,132.929c1.601,0.118,3.204,0.257,4.808,0.416c0.089,0.674,0.096,1.332,0.022,1.974
				c0.599-0.593,1.315-1.013,2.15-1.255c0.838-0.243,1.729-0.28,2.677-0.111c1.512,0.269,2.653,0.961,3.39,2.05
				c0.738,1.092,0.908,2.467,0.534,4.121c-0.261,1.151-0.702,2.081-1.313,2.793c-0.612,0.711-1.343,1.198-2.19,1.458
				c-0.849,0.261-1.774,0.302-2.787,0.121c-0.808-0.143-1.493-0.429-2.061-0.862c-0.572-0.432-1.062-1.055-1.487-1.87
				c-0.204,1.186-0.409,2.371-0.617,3.554c-0.084,0.469-0.097,0.772-0.043,0.915c0.054,0.144,0.182,0.265,0.381,0.365
				c0.2,0.102,0.616,0.207,1.247,0.318c-0.064,0.339-0.13,0.677-0.193,1.016c-2.164-0.359-4.328-0.678-6.492-0.957
				c0.05-0.34,0.101-0.681,0.151-1.021c0.114,0.014,0.23,0.03,0.347,0.045c0.409,0.054,0.688,0.057,0.838,0.009
				c0.149-0.049,0.272-0.148,0.377-0.302c0.07-0.105,0.143-0.389,0.215-0.85c0.486-3.141,0.959-6.282,1.419-9.424
				c0.068-0.46,0.072-0.774,0.01-0.937c-0.059-0.164-0.17-0.291-0.333-0.382c-0.16-0.088-0.549-0.188-1.167-0.288
				C130.042,133.527,130.083,133.227,130.122,132.929z M137.942,135.15c-0.802-0.137-1.546,0.081-2.218,0.651
				c-0.676,0.57-1.111,1.493-1.325,2.762c-0.213,1.255-0.088,2.259,0.363,3.016c0.451,0.759,1.036,1.196,1.764,1.32
				c0.712,0.123,1.343-0.062,1.896-0.554c0.725-0.652,1.223-1.613,1.483-2.89c0.236-1.172,0.186-2.146-0.157-2.92
				C139.402,135.761,138.798,135.295,137.942,135.15z"/>
			<path fill="#FFFFFF" d="M155.229,138.064c0.352-0.201,0.704-0.403,1.058-0.602c0.255,0.068,0.512,0.136,0.769,0.206
				c-0.241,1.126-0.488,2.253-0.741,3.379c-0.334-0.09-0.666-0.179-1-0.27c-0.264-1.018-0.669-1.795-1.205-2.314
				c-0.532-0.521-1.259-0.896-2.169-1.118c-0.782-0.191-1.413-0.207-1.883-0.051c-0.473,0.156-0.754,0.428-0.852,0.811
				c-0.097,0.376-0.011,0.7,0.25,0.969c0.261,0.277,1.061,0.694,2.388,1.275c1.203,0.529,1.987,0.93,2.361,1.183
				c0.716,0.479,1.211,1.044,1.491,1.696c0.276,0.652,0.303,1.332,0.079,2.041c-0.283,0.896-0.941,1.53-1.954,1.918
				c-1.014,0.387-2.178,0.41-3.51,0.075c-0.642-0.162-1.204-0.372-1.688-0.632c-0.484-0.262-0.964-0.629-1.442-1.102
				c-0.359,0.227-0.718,0.454-1.071,0.683c-0.299-0.067-0.597-0.134-0.896-0.2c0.243-1.251,0.479-2.502,0.712-3.753
				c0.333,0.073,0.666,0.147,1,0.223c0.38,2.061,1.562,3.321,3.596,3.83c0.833,0.21,1.513,0.234,2.045,0.065
				c0.524-0.166,0.853-0.445,0.973-0.839c0.109-0.36,0.051-0.67-0.174-0.931c-0.224-0.26-0.91-0.657-2.063-1.177
				c-1.245-0.556-2.088-0.965-2.522-1.245c-0.742-0.463-1.262-0.979-1.557-1.557c-0.293-0.578-0.36-1.207-0.193-1.892
				c0.236-0.977,0.81-1.696,1.74-2.143c0.928-0.448,2.054-0.517,3.36-0.199c0.64,0.155,1.196,0.362,1.669,0.614
				C154.27,137.26,154.745,137.61,155.229,138.064z"/>
		</g>
	</g>
</g>
</svg>
