<?xml version="1.0" encoding="utf-8"?>
<!-- Generator: Adobe Illustrator 16.0.4, SVG Export Plug-In . SVG Version: 6.00 Build 0)  -->
<!DOCTYPE svg PUBLIC "-//W3C//DTD SVG 1.1//EN" "http://www.w3.org/Graphics/SVG/1.1/DTD/svg11.dtd">
<svg version="1.1" id="Livello_1" xmlns="http://www.w3.org/2000/svg" xmlns:xlink="http://www.w3.org/1999/xlink" x="0px" y="0px"
	 width="210.001px" height="200px" viewBox="0 0 210.001 200" enable-background="new 0 0 210.001 200" xml:space="preserve">
<g>
	<circle fill="#2A398D" cx="104" cy="100" r="84"/>
	<circle fill="#2A398D" stroke="#FFFFFF" stroke-width="5" stroke-miterlimit="10" cx="104.001" cy="99.717" r="75.216"/>
	<g>
		<g>
			<path fill="#FFFFFF" d="M156.463,78.24c2.404,0.057,4.414-1.852,4.469-4.267c0.057-2.418-1.861-4.417-4.266-4.473
				c-2.414-0.055-4.414,1.85-4.471,4.269C152.141,76.185,154.049,78.184,156.463,78.24z"/>
		</g>
		<g>
			<path fill="#FFFFFF" d="M157.098,95.496h11.852v-4.369h-8.805l-4.855-8.088c-0.717-1.212-2.039-2.014-3.547-2.014
				c-0.41,0-0.811,0.06-1.188,0.168l-13.176,4.104L135.6,97.925h4.369l1.781-8.898l5.115-1.594l-9.486,37.201h4.371l6.971-19.692
				l5.658,7.552v12.14h4.369v-15.552l-6.047-11.025l1.787-6.966L157.098,95.496z"/>
		</g>
	</g>
	<path fill="#FFFFFF" d="M108.299,108.061c-1.768-5.548-6.5-9.177-11.838-9.119l-3.871,0.14l-1.225-3.073
		c-2.379-5.963-3.609-8.887-3.986-9.455c-0.373-0.568-0.418-0.575-3.943-0.575c-3.121,0-3.615,0.055-3.881,0.417
		c-0.438,0.572-0.412,0.923,0.133,1.471c0.42,0.419,0.791,0.471,3.162,0.471c1.875,0,2.76,0.09,2.912,0.296
		c0.266,0.352,1.25,2.758,1.25,3.047c0,0.112-4.939,0.198-10.975,0.198h-10.98l-0.467-0.925c-0.264-0.518-0.479-0.984-0.479-1.04
		c0-0.063,1.123-0.236,2.498-0.402c2.801-0.331,3.828-0.825,3.154-1.511c-0.301-0.311-1.143-0.383-4.889-0.43
		c-3.08-0.035-4.613,0.028-4.789,0.209c-0.143,0.143-0.227,0.674-0.186,1.179c0.066,0.812,0.135,1.272,0.883,1.184l1.135-0.146
		l1.477,2.781l-4.609,7.066c-3.285-0.985-6.27-1.208-9.645-0.122c-1.623,0.683-3.924,2.317-4.977,3.55
		c-1.377,1.608-2.459,4.042-2.783,6.266c-0.035,0.246-0.061,0.496-0.078,0.738v1.691c0.35,4.786,3.67,9.265,8.314,10.806
		c2.154,0.723,2.205,0.73,4.459,0.652c1.684-0.058,2.502-0.223,3.963-0.79c2.125-0.827,3.117-1.648,5.336-4.066
		c2.246-2.463,2.48-5.267,2.568-6.015c0.184-0.065,2.023-0.128,4.088-0.128h3.762l0.033,1.891c0.021,1.04-0.053,2.364-0.043,2.593
		c0.018,0.324-0.1,0.137-0.893,0.193c-0.9,0.06-1.014,0.135-0.945,0.59c0.057,0.415,0.254,0.54,0.994,0.596
		c0.504,0.046,1.727-0.15,2.033-0.227l0.062-5.707l1.592-1.981c0.904-1.144,1.727-2.185,1.824-2.312
		c0.102-0.133,0.564-0.717,1.027-1.303c0.459-0.584,2.623-3.319,4.803-6.081c2.182-2.758,4.037-5.021,4.133-5.021
		c0.1,0,0.291,0.243,0.428,0.54c0.846,1.773,1.299,2.957,1.404,3.645c0.115,0.674,0.053,0.8-0.494,1.008
		c-0.934,0.357-3.49,3.066-4.244,4.512c-0.943,1.801-1.566,4.102-1.566,5.817c0,2.531,1.703,6.711,3.447,8.448
		c4.738,4.739,11.568,5.168,16.727,1.059c1.803-1.603,3.33-3.702,4.062-6.017C108.68,112.979,108.75,109.461,108.299,108.061z
		 M59.773,103.459c1.658,1.502,3.264,2.987,3.561,6.295l-7.586,0.109L59.773,103.459z M53.109,120.6
		c-4.531-0.151-9.305-3.617-9.256-9.978c0.041-6.287,6.793-10.643,13.812-8.219c-1.846,3.258-6.092,8.828-5.578,9.531
		c0.531,0.734,1.537,0.489,6.305,0.489h5.072C62.947,119.461,55.869,120.688,53.109,120.6z M65.883,109.718
		c-0.686-3.379-2.629-6.09-4.959-8.586l3.318-5.473c0.139,0,0.766,0.929,1.398,2.06c0.635,1.14,2.408,4.296,3.947,7.012
		c1.537,2.712,2.771,5.058,2.66,5.058L65.883,109.718z M80.541,101.589c-0.172,0.201-0.848,1.128-1.568,2.003l-3.996,4.868
		l-0.004-3.052c0.611-0.018,1.852-0.009,1.809-0.787c-0.033-0.783-1.75-0.568-2.941-0.516l0.119,4.457l-7.307-14.321h9.59
		c8.057,0,9.592,0.056,9.592,0.334C85.834,94.831,83.135,98.403,80.541,101.589z M103.256,118.287
		c-2.52,2.435-6.189,3.421-9.422,2.534c-4.859-1.34-8.08-6.068-7.34-10.783c0.414-2.626,1.125-4.117,2.762-5.782
		c1.9-1.946,2.248-1.955,2.951-0.099c0.168,0.454,0.539,1.367,0.82,2.012c0.281,0.651,0.928,2.215,1.439,3.476
		c1.043,2.584,1.641,3.186,2.465,2.437c0.676-0.945,0.08-2.333-0.662-3.944c-0.4-0.729-2.41-6.148-2.41-6.501
		c0.564-0.562,1.869-0.289,2.658-0.262c2.26,0.101,2.857,0.216,4.039,0.765c1.752,0.818,4.02,3.09,4.84,4.852
		c0.541,1.168,0.977,1.623,1.006,4.305C106.727,114.014,105.021,116.346,103.256,118.287z"/>
	<g>
		<path fill="#FFFFFF" d="M81.648,40.337h9.492c0.129,0,0.25,0.023,0.363,0.07c0.115,0.047,0.215,0.113,0.299,0.198
			c0.086,0.085,0.152,0.185,0.199,0.299s0.07,0.236,0.07,0.365c0,0.193-0.059,0.375-0.176,0.545l-8.342,10.723h7.586
			c0.264,0.006,0.484,0.1,0.662,0.281c0.18,0.182,0.27,0.401,0.27,0.659s-0.09,0.476-0.27,0.655
			c-0.178,0.179-0.396,0.268-0.654,0.268h-9.5c-0.135,0-0.258-0.023-0.369-0.07s-0.211-0.113-0.295-0.198
			c-0.086-0.085-0.15-0.183-0.197-0.294s-0.07-0.234-0.07-0.369c0.006-0.223,0.07-0.416,0.193-0.58l8.322-10.688h-7.584
			c-0.252,0-0.471-0.091-0.656-0.272c-0.184-0.182-0.275-0.401-0.275-0.659s0.092-0.478,0.275-0.659
			C81.178,40.428,81.396,40.337,81.648,40.337z"/>
		<path fill="#FFFFFF" d="M102.426,52.537c0.258,0,0.477,0.091,0.658,0.272s0.273,0.401,0.273,0.659s-0.092,0.478-0.273,0.659
			s-0.4,0.272-0.658,0.272h-8.131c-0.135,0-0.258-0.023-0.369-0.07s-0.209-0.113-0.295-0.198c-0.084-0.085-0.15-0.183-0.197-0.294
			s-0.07-0.234-0.07-0.369V41.269c0-0.129,0.023-0.25,0.07-0.365s0.113-0.214,0.197-0.299c0.086-0.085,0.184-0.151,0.295-0.198
			s0.234-0.07,0.369-0.07h8.131c0.258,0,0.477,0.091,0.658,0.272s0.273,0.401,0.273,0.659s-0.092,0.478-0.273,0.659
			s-0.4,0.272-0.658,0.272h-7.199v4.236h5.168c0.258,0,0.479,0.091,0.66,0.272s0.271,0.401,0.271,0.659s-0.09,0.478-0.271,0.659
			s-0.402,0.272-0.66,0.272h-5.168v4.236H102.426z"/>
		<path fill="#FFFFFF" d="M104.605,53.468V41.269c0-0.129,0.023-0.25,0.07-0.365s0.111-0.214,0.197-0.299
			c0.084-0.085,0.184-0.151,0.295-0.198s0.234-0.07,0.369-0.07h3.393c0.592,0,1.148,0.114,1.674,0.343
			c0.523,0.229,0.98,0.539,1.371,0.932c0.389,0.393,0.699,0.851,0.928,1.375s0.342,1.083,0.342,1.674
			c0,0.387-0.049,0.763-0.145,1.129c-0.098,0.366-0.24,0.712-0.432,1.037c-0.189,0.325-0.428,0.627-0.711,0.905
			c-0.285,0.278-0.613,0.523-0.988,0.734l2.803,4.491c0.1,0.164,0.15,0.334,0.15,0.51c0,0.135-0.023,0.258-0.07,0.369
			s-0.113,0.209-0.199,0.294c-0.084,0.085-0.184,0.151-0.299,0.198c-0.113,0.047-0.234,0.07-0.363,0.07
			c-0.328,0-0.596-0.152-0.801-0.457l-3.102-4.966h-2.619v4.491c0,0.258-0.092,0.478-0.273,0.659s-0.4,0.272-0.658,0.272
			s-0.479-0.091-0.66-0.272S104.605,53.726,104.605,53.468z M106.469,42.201v4.913h2.461c0.34,0,0.658-0.064,0.957-0.193
			s0.559-0.306,0.777-0.532c0.221-0.226,0.395-0.486,0.523-0.782s0.193-0.611,0.193-0.945c0-0.34-0.064-0.659-0.193-0.958
			s-0.305-0.56-0.527-0.782s-0.482-0.398-0.781-0.527s-0.615-0.193-0.949-0.193H106.469z"/>
		<path fill="#FFFFFF" d="M129.258,47.369c0,1.939-0.689,3.598-2.066,4.975c-1.371,1.371-3.025,2.057-4.965,2.057
			c-1.945,0-3.604-0.686-4.975-2.057s-2.057-3.029-2.057-4.975c0-1.939,0.686-3.595,2.057-4.966
			c1.377-1.377,3.035-2.065,4.975-2.065c1.934,0,3.588,0.688,4.965,2.065c0.691,0.691,1.209,1.447,1.553,2.268
			C129.086,45.491,129.258,46.39,129.258,47.369z M122.227,42.201c-0.727,0-1.391,0.126-1.99,0.378
			c-0.602,0.252-1.156,0.633-1.666,1.143s-0.889,1.063-1.139,1.661c-0.248,0.598-0.373,1.26-0.373,1.986
			c0,1.43,0.504,2.648,1.512,3.656s2.227,1.512,3.656,1.512s2.648-0.504,3.656-1.512s1.512-2.227,1.512-3.656
			c0-1.424-0.504-2.64-1.512-3.647C124.869,42.708,123.65,42.201,122.227,42.201z"/>
		<path fill="#FFFFFF" d="M75.742,75.068c0,0.258-0.092,0.478-0.273,0.659S75.068,76,74.811,76s-0.479-0.091-0.66-0.272
			s-0.271-0.401-0.271-0.659V62.869c0-0.258,0.09-0.478,0.271-0.659s0.402-0.272,0.66-0.272s0.477,0.091,0.658,0.272
			s0.273,0.401,0.273,0.659V75.068z"/>
		<path fill="#FFFFFF" d="M77.518,75.068V62.869c0-0.129,0.023-0.25,0.07-0.365s0.111-0.214,0.197-0.299
			c0.084-0.085,0.184-0.151,0.295-0.198s0.234-0.07,0.369-0.07c0.363,0,0.639,0.167,0.826,0.501l5.273,10.538l5.273-10.538
			c0.211-0.334,0.486-0.501,0.826-0.501c0.129,0,0.25,0.023,0.363,0.07c0.115,0.047,0.215,0.113,0.299,0.198
			c0.086,0.085,0.152,0.185,0.199,0.299s0.07,0.236,0.07,0.365v12.199c0,0.258-0.092,0.478-0.273,0.659S90.906,76,90.648,76
			s-0.479-0.091-0.66-0.272s-0.271-0.401-0.271-0.659v-8.244l-4.359,8.71C85.176,75.845,84.906,76,84.549,76
			c-0.387,0-0.672-0.188-0.854-0.562l-4.314-8.613v8.244c0,0.258-0.092,0.478-0.273,0.659S78.707,76,78.449,76
			s-0.479-0.091-0.66-0.272S77.518,75.326,77.518,75.068z"/>
		<path fill="#FFFFFF" d="M92.934,75.068V62.869c0-0.129,0.023-0.25,0.07-0.365s0.111-0.214,0.197-0.299
			c0.084-0.085,0.184-0.151,0.295-0.198s0.234-0.07,0.369-0.07h2.707c0.422,0,0.83,0.056,1.225,0.167
			c0.396,0.111,0.768,0.27,1.113,0.475s0.662,0.45,0.949,0.734s0.531,0.599,0.732,0.945c0.203,0.346,0.361,0.716,0.475,1.112
			c0.115,0.396,0.172,0.804,0.172,1.226c0,1.277-0.459,2.376-1.379,3.296c-0.908,0.908-2.004,1.362-3.287,1.362h-1.775v3.814
			c0,0.258-0.092,0.478-0.273,0.659S94.123,76,93.865,76s-0.479-0.091-0.66-0.272S92.934,75.326,92.934,75.068z M94.797,63.801v5.59
			h1.775c0.381,0,0.738-0.073,1.076-0.22c0.336-0.146,0.633-0.346,0.887-0.598c0.256-0.252,0.457-0.548,0.607-0.888
			c0.148-0.34,0.225-0.703,0.225-1.09c0-0.393-0.076-0.759-0.225-1.099c-0.15-0.34-0.352-0.636-0.607-0.888
			c-0.254-0.252-0.551-0.45-0.891-0.593s-0.697-0.215-1.072-0.215H94.797z"/>
		<path fill="#FFFFFF" d="M100.562,74.646l4.693-12.076c0.188-0.422,0.482-0.633,0.887-0.633c0.416,0,0.713,0.211,0.889,0.633
			l4.711,12.12c0.047,0.117,0.07,0.243,0.07,0.378c0,0.258-0.092,0.478-0.273,0.659S111.139,76,110.881,76s-0.475-0.091-0.65-0.272
			c-0.094-0.094-0.164-0.193-0.211-0.299l-1.627-4.175h-4.5l-1.635,4.175c-0.047,0.105-0.117,0.205-0.211,0.299
			c-0.182,0.182-0.4,0.272-0.658,0.272s-0.477-0.091-0.656-0.272c-0.178-0.182-0.268-0.401-0.268-0.659
			C100.465,74.928,100.498,74.787,100.562,74.646z M107.672,69.391l-1.529-3.946l-1.529,3.946H107.672z"/>
		<path fill="#FFFFFF" d="M123.939,72.836c0.129,0,0.25,0.025,0.361,0.075s0.209,0.116,0.295,0.198
			c0.084,0.082,0.152,0.18,0.201,0.294c0.051,0.114,0.074,0.236,0.074,0.365c0,0.246-0.096,0.469-0.289,0.668
			C123.275,75.479,121.801,76,120.16,76c-1.945,0-3.604-0.686-4.975-2.057c-1.369-1.371-2.055-3.029-2.055-4.975
			c0-1.939,0.686-3.595,2.055-4.966c1.377-1.377,3.035-2.065,4.975-2.065c1.664,0,3.168,0.548,4.51,1.644
			c0.164,0.158,0.246,0.372,0.246,0.642c0,0.135-0.023,0.258-0.07,0.369s-0.113,0.209-0.197,0.294
			c-0.086,0.085-0.186,0.151-0.299,0.198c-0.115,0.047-0.236,0.07-0.365,0.07c-0.229,0-0.443-0.088-0.643-0.264
			c-0.445-0.352-0.936-0.621-1.471-0.809c-0.537-0.188-1.107-0.281-1.711-0.281c-1.43,0-2.65,0.507-3.664,1.521
			c-1.002,1.002-1.504,2.218-1.504,3.647c0,1.436,0.502,2.654,1.504,3.656c1.008,1.008,2.229,1.512,3.664,1.512
			c1.225,0,2.303-0.378,3.234-1.134C123.547,72.897,123.729,72.842,123.939,72.836z"/>
		<path fill="#FFFFFF" d="M135.867,63.801h-3.473v11.268c0,0.258-0.09,0.478-0.271,0.659S131.721,76,131.463,76
			s-0.477-0.091-0.658-0.272s-0.273-0.401-0.273-0.659V63.801h-3.471c-0.258,0-0.479-0.091-0.66-0.272s-0.271-0.401-0.271-0.659
			s0.09-0.478,0.271-0.659s0.402-0.272,0.66-0.272h8.807c0.258,0,0.477,0.091,0.658,0.272s0.273,0.401,0.273,0.659
			s-0.092,0.478-0.273,0.659S136.125,63.801,135.867,63.801z"/>
	</g>
	<g>
		<g>
			<path fill="#5B6AB0" stroke="#FFFFFF" stroke-width="2" stroke-miterlimit="10" d="M194.769,167.589
				c-2.533-5.82-5.349-11.609-8.446-17.346c6.005-2.538,12.219-4.851,18.631-6.916c-63.973-26.856-136.118-26.686-199.987,0.509
				c0.04,0.094,0.08,0.188,0.12,0.282c6.617,2.096,13.025,4.457,19.212,7.058c-2.899,5.432-5.547,10.909-7.942,16.414
				C73.411,143.639,137.711,143.638,194.769,167.589L194.769,167.589L194.769,167.589z"/>
		</g>
	</g>
	<g>
		<g>
			<path fill="#FFFFFF" d="M46.941,137.324c1.299-0.439,2.37-0.877,3.213-1.323c0.844-0.446,1.677-0.995,2.506-1.648
				c0.309-0.078,0.615-0.153,0.923-0.229c1.104,4.252,2.245,8.499,3.429,12.743c0.07,0.25,0.202,0.423,0.395,0.519
				c0.197,0.098,0.429,0.113,0.705,0.044c0.728-0.179,1.455-0.351,2.183-0.521c0.084,0.325,0.169,0.647,0.254,0.971
				c-3.022,0.705-6.045,1.48-9.067,2.327c-0.103-0.319-0.205-0.64-0.307-0.959c0.572-0.161,1.142-0.316,1.713-0.472
				c0.439-0.119,0.723-0.285,0.857-0.504c0.133-0.217,0.143-0.521,0.027-0.907c-0.933-3.134-1.845-6.272-2.731-9.412
				c-0.062-0.223-0.19-0.37-0.39-0.444c-0.196-0.074-0.457-0.07-0.783,0.019c-0.881,0.236-1.765,0.478-2.646,0.726
				C47.128,137.943,47.034,137.633,46.941,137.324z"/>
			<path fill="#FFFFFF" d="M66.339,130.981c1.077-0.201,2.106-0.106,3.077,0.281c0.969,0.388,1.848,1.148,2.637,2.28
				c0.787,1.131,1.311,2.512,1.586,4.138c0.277,1.64,0.244,3.105-0.09,4.396c-0.333,1.291-0.868,2.276-1.609,2.967
				c-0.743,0.691-1.613,1.128-2.624,1.318c-1.518,0.287-2.893-0.062-4.158-1.054c-1.582-1.226-2.677-3.005-3.228-5.361
				c-0.389-1.664-0.439-3.155-0.137-4.473c0.299-1.318,0.846-2.343,1.637-3.073C64.218,131.671,65.19,131.197,66.339,130.981z
				 M70.017,138.695c-0.584-3.087-1.193-5.072-1.857-5.95c-0.481-0.642-1.044-0.904-1.678-0.785
				c-0.764,0.141-1.228,0.755-1.382,1.83c-0.157,1.074,0.063,3.05,0.677,5.919c0.514,2.4,1.132,4.048,1.832,4.951
				c0.439,0.557,0.938,0.784,1.499,0.678c0.365-0.069,0.669-0.272,0.914-0.608c0.246-0.337,0.368-0.98,0.379-1.928
				C70.415,141.516,70.293,140.148,70.017,138.695z"/>
			<path fill="#FFFFFF" d="M81.198,128.711c1.076-0.128,2.085,0.037,3.016,0.491c0.929,0.452,1.745,1.272,2.446,2.455
				c0.698,1.182,1.119,2.594,1.274,4.235c0.158,1.655,0.018,3.113-0.405,4.376c-0.424,1.264-1.025,2.211-1.809,2.849
				c-0.785,0.639-1.678,1.015-2.689,1.135c-1.516,0.181-2.846-0.262-4.019-1.336c-1.468-1.332-2.411-3.181-2.785-5.566
				c-0.265-1.686-0.208-3.175,0.182-4.469c0.388-1.292,0.997-2.281,1.826-2.953C79.062,129.255,80.053,128.847,81.198,128.711z
				 M84.286,136.656c-0.356-3.117-0.819-5.139-1.414-6.06c-0.43-0.672-0.967-0.972-1.6-0.897c-0.762,0.09-1.261,0.669-1.489,1.73
				c-0.23,1.062-0.149,3.046,0.248,5.95c0.332,2.428,0.821,4.114,1.444,5.061c0.391,0.587,0.866,0.845,1.428,0.779
				c0.366-0.045,0.682-0.226,0.946-0.544c0.267-0.319,0.438-0.952,0.517-1.897C84.478,139.496,84.453,138.122,84.286,136.656z"/>
			<path fill="#FFFFFF" d="M108.295,128.314c0.373,0.001,0.744,0.005,1.116,0.01c-0.016,1.377-0.031,2.756-0.047,4.135
				c1.269,0.014,2.535,0.039,3.806,0.077c-0.013,0.386-0.023,0.772-0.037,1.16c-1.26-0.036-2.521-0.062-3.781-0.076
				c-0.023,2.13-0.049,4.261-0.075,6.392c-0.005,0.422,0.11,0.751,0.344,0.987c0.233,0.235,0.543,0.357,0.929,0.363
				c1.101,0.019,1.709-0.898,1.826-2.765c0.354,0.008,0.709,0.019,1.062,0.029c-0.055,0.994-0.257,1.79-0.599,2.384
				c-0.342,0.597-0.814,1.052-1.417,1.368c-0.605,0.316-1.279,0.469-2.026,0.46c-0.654-0.008-1.22-0.134-1.696-0.378
				c-0.48-0.246-0.862-0.609-1.149-1.09c-0.287-0.483-0.435-1.007-0.437-1.572c-0.01-2.062-0.018-4.126-0.028-6.188
				c-0.677,0.001-1.354,0.008-2.031,0.019c-0.004-0.33-0.009-0.659-0.015-0.988c1.247-0.161,2.219-0.584,2.921-1.278
				C107.665,130.667,108.109,129.652,108.295,128.314z"/>
			<path fill="#FFFFFF" d="M122.614,142.101c-0.028,0.332-0.057,0.663-0.085,0.997c-2.549-0.196-5.098-0.342-7.646-0.442
				c0.014-0.333,0.027-0.667,0.042-0.999c0.317,0.013,0.636,0.026,0.954,0.039c0.392,0.017,0.679-0.039,0.867-0.17
				c0.189-0.129,0.289-0.314,0.302-0.549c0.104-1.981,0.21-3.962,0.31-5.944c0.024-0.479-0.081-0.835-0.319-1.07
				c-0.237-0.231-0.581-0.36-1.03-0.379c-0.217-0.008-0.434-0.018-0.651-0.026c0.014-0.314,0.026-0.629,0.039-0.945
				c1.646-0.01,3.291-0.002,4.938,0.025c-0.069,1.089-0.141,2.18-0.213,3.27c0.355-1.075,0.908-1.885,1.662-2.42
				c0.755-0.536,1.585-0.769,2.481-0.696c0.766,0.061,1.355,0.291,1.766,0.684c0.411,0.392,0.586,0.868,0.533,1.424
				c-0.048,0.477-0.238,0.85-0.568,1.119c-0.333,0.269-0.718,0.383-1.152,0.346c-0.388-0.032-0.709-0.188-0.967-0.467
				c-0.258-0.278-0.371-0.62-0.339-1.019c0.019-0.221,0.105-0.449,0.258-0.68c0.079-0.128,0.123-0.224,0.128-0.281
				c0.009-0.1-0.012-0.175-0.06-0.226c-0.05-0.05-0.132-0.08-0.247-0.089c-0.292-0.022-0.629,0.102-1.001,0.376
				c-0.573,0.424-1.073,1.117-1.506,2.074c-0.432,0.959-0.679,1.938-0.748,2.939c-0.049,0.722-0.1,1.444-0.149,2.165
				c-0.017,0.25,0.044,0.446,0.182,0.589c0.141,0.141,0.345,0.221,0.609,0.24C121.541,142.02,122.077,142.06,122.614,142.101z"/>
			<path fill="#FFFFFF" d="M128.717,133.553c1.716,0.106,3.433,0.233,5.152,0.382c-0.371,2.824-0.752,5.647-1.141,8.47
				c-0.031,0.228,0.026,0.413,0.17,0.558c0.143,0.145,0.38,0.24,0.709,0.282c0.246,0.034,0.493,0.065,0.739,0.099
				c-0.049,0.331-0.097,0.659-0.146,0.989c-2.19-0.297-4.381-0.556-6.572-0.78c0.039-0.33,0.074-0.662,0.111-0.993
				c0.244,0.024,0.485,0.05,0.729,0.076c0.392,0.041,0.681-0.009,0.859-0.156c0.18-0.147,0.297-0.422,0.345-0.827
				c0.234-1.928,0.461-3.857,0.688-5.785c0.041-0.363-0.045-0.658-0.267-0.883c-0.217-0.226-0.538-0.362-0.963-0.406
				c-0.172-0.019-0.343-0.036-0.516-0.053C128.648,134.201,128.683,133.876,128.717,133.553z M132.574,128.138
				c0.563,0.066,1.029,0.294,1.392,0.681c0.363,0.388,0.512,0.823,0.449,1.307c-0.062,0.483-0.318,0.868-0.758,1.156
				c-0.444,0.288-0.942,0.399-1.497,0.334c-0.565-0.066-1.026-0.291-1.387-0.676c-0.363-0.386-0.518-0.817-0.466-1.294
				c0.052-0.484,0.3-0.874,0.741-1.168C131.489,128.184,131.998,128.07,132.574,128.138z"/>
			<path fill="#FFFFFF" d="M137.852,134.735c1.578,0.143,3.158,0.302,4.74,0.48c0.075,0.675,0.073,1.332-0.011,1.974
				c0.603-0.586,1.316-0.998,2.146-1.231c0.831-0.232,1.711-0.262,2.645-0.085c1.49,0.283,2.607,0.982,3.321,2.076
				c0.718,1.095,0.873,2.472,0.484,4.123c-0.269,1.149-0.716,2.075-1.328,2.784c-0.614,0.708-1.345,1.187-2.188,1.441
				c-0.845,0.255-1.768,0.285-2.77,0.095c-0.799-0.152-1.479-0.444-2.037-0.884c-0.561-0.439-1.041-1.067-1.449-1.887
				c-0.221,1.183-0.444,2.365-0.667,3.546c-0.09,0.465-0.107,0.771-0.056,0.913c0.052,0.144,0.178,0.268,0.374,0.37
				c0.198,0.104,0.61,0.213,1.237,0.333c-0.068,0.338-0.136,0.676-0.205,1.014c-2.149-0.385-4.301-0.734-6.454-1.049
				c0.056-0.339,0.112-0.68,0.168-1.02c0.115,0.018,0.23,0.035,0.345,0.051c0.406,0.06,0.685,0.067,0.834,0.021
				c0.15-0.046,0.276-0.146,0.382-0.295c0.07-0.104,0.147-0.389,0.228-0.847c0.537-3.135,1.061-6.268,1.57-9.402
				c0.076-0.46,0.085-0.772,0.026-0.937c-0.056-0.165-0.162-0.293-0.321-0.387c-0.156-0.092-0.539-0.195-1.148-0.305
				C137.761,135.331,137.806,135.033,137.852,134.735z M145.541,137.053c-0.793-0.145-1.53,0.065-2.204,0.627
				c-0.674,0.563-1.122,1.479-1.354,2.746c-0.229,1.252-0.122,2.258,0.315,3.021c0.437,0.763,1.011,1.207,1.73,1.339
				c0.706,0.131,1.333-0.048,1.89-0.535c0.727-0.645,1.233-1.603,1.505-2.875c0.249-1.17,0.209-2.144-0.119-2.922
				C146.974,137.676,146.386,137.206,145.541,137.053z"/>
			<path fill="#FFFFFF" d="M162.579,140.042c0.348-0.202,0.697-0.403,1.046-0.603c0.252,0.065,0.506,0.135,0.756,0.204
				c-0.243,1.126-0.49,2.251-0.742,3.376c-0.328-0.089-0.658-0.178-0.985-0.267c-0.258-1.019-0.654-1.792-1.181-2.312
				c-0.525-0.519-1.237-0.894-2.133-1.117c-0.77-0.191-1.394-0.208-1.858-0.054c-0.468,0.155-0.75,0.425-0.847,0.809
				c-0.098,0.376-0.016,0.701,0.24,0.969c0.255,0.275,1.044,0.696,2.35,1.277c1.187,0.531,1.961,0.929,2.328,1.182
				c0.703,0.477,1.193,1.043,1.469,1.693c0.273,0.65,0.298,1.331,0.075,2.04c-0.28,0.896-0.933,1.531-1.938,1.919
				c-1.006,0.388-2.158,0.411-3.48,0.073c-0.636-0.163-1.195-0.375-1.673-0.636c-0.479-0.263-0.955-0.633-1.427-1.106
				c-0.357,0.226-0.712,0.453-1.068,0.68c-0.296-0.069-0.591-0.137-0.886-0.205c0.249-1.25,0.491-2.498,0.73-3.75
				c0.331,0.075,0.662,0.151,0.99,0.227c0.362,2.062,1.527,3.326,3.542,3.839c0.826,0.21,1.501,0.235,2.027,0.068
				c0.524-0.167,0.846-0.446,0.967-0.84c0.108-0.359,0.052-0.67-0.171-0.93c-0.221-0.258-0.898-0.656-2.037-1.177
				c-1.232-0.557-2.062-0.968-2.49-1.249c-0.73-0.463-1.244-0.984-1.529-1.562c-0.288-0.577-0.347-1.208-0.177-1.891
				c0.241-0.976,0.812-1.69,1.738-2.135c0.918-0.446,2.027-0.512,3.316-0.193c0.628,0.156,1.179,0.36,1.642,0.614
				C161.639,139.239,162.106,139.59,162.579,140.042z"/>
		</g>
	</g>
</g>
</svg>
