<?xml version="1.0" encoding="utf-8"?>
<!-- Generator: Adobe Illustrator 16.0.4, SVG Export Plug-In . SVG Version: 6.00 Build 0)  -->
<!DOCTYPE svg PUBLIC "-//W3C//DTD SVG 1.1//EN" "http://www.w3.org/Graphics/SVG/1.1/DTD/svg11.dtd">
<svg version="1.1" id="Livello_1" xmlns="http://www.w3.org/2000/svg" xmlns:xlink="http://www.w3.org/1999/xlink" x="0px" y="0px"
	 width="210px" height="200px" viewBox="0 0 210 200" enable-background="new 0 0 210 200" xml:space="preserve">
<g>
	<circle fill="#2A398D" cx="104" cy="100" r="84"/>
	<circle fill="#2A398D" stroke="#FFFFFF" stroke-width="5" stroke-miterlimit="10" cx="104" cy="99.717" r="75.216"/>
	<g>
		<g>
			<path fill="#FFFFFF" d="M156.463,78.24c2.404,0.057,4.414-1.852,4.469-4.267c0.055-2.418-1.863-4.417-4.267-4.473
				c-2.415-0.055-4.415,1.85-4.471,4.269C152.14,76.185,154.048,78.184,156.463,78.24z"/>
		</g>
		<g>
			<path fill="#FFFFFF" d="M157.097,95.496h11.852v-4.369h-8.805l-4.855-8.088c-0.716-1.212-2.038-2.014-3.546-2.014
				c-0.411,0-0.812,0.06-1.189,0.168l-13.174,4.104l-1.781,12.628h4.371l1.781-8.898l5.114-1.594l-9.485,37.201h4.371l6.97-19.692
				l5.658,7.552v12.14h4.369v-15.552l-6.046-11.025l1.786-6.966L157.097,95.496z"/>
		</g>
	</g>
	<path fill="#FFFFFF" d="M108.298,108.061c-1.768-5.548-6.5-9.177-11.839-9.119l-3.87,0.14l-1.224-3.073
		c-2.38-5.963-3.61-8.887-3.986-9.455c-0.375-0.568-0.418-0.575-3.944-0.575c-3.122,0-3.615,0.055-3.882,0.417
		c-0.437,0.572-0.412,0.923,0.133,1.471c0.42,0.419,0.792,0.471,3.163,0.471c1.874,0,2.759,0.09,2.912,0.296
		c0.265,0.352,1.25,2.758,1.25,3.047c0,0.112-4.939,0.198-10.975,0.198h-10.98l-0.466-0.925c-0.264-0.518-0.48-0.984-0.48-1.04
		c0-0.063,1.124-0.236,2.499-0.402c2.801-0.331,3.828-0.825,3.154-1.511c-0.301-0.311-1.143-0.383-4.889-0.43
		c-3.08-0.035-4.614,0.028-4.79,0.209c-0.143,0.143-0.227,0.674-0.184,1.179c0.066,0.812,0.133,1.272,0.882,1.184l1.135-0.146
		l1.477,2.781l-4.609,7.066c-3.286-0.985-6.27-1.208-9.646-0.122c-1.623,0.683-3.924,2.317-4.977,3.55
		c-1.377,1.608-2.458,4.042-2.783,6.266c-0.035,0.246-0.06,0.496-0.077,0.738v1.691c0.348,4.786,3.669,9.265,8.313,10.806
		c2.155,0.723,2.206,0.73,4.459,0.652c1.684-0.058,2.501-0.223,3.964-0.79c2.125-0.827,3.117-1.648,5.335-4.066
		c2.246-2.463,2.481-5.267,2.569-6.015c0.184-0.065,2.023-0.128,4.087-0.128h3.762l0.033,1.891c0.021,1.04-0.053,2.364-0.042,2.593
		c0.018,0.324-0.1,0.137-0.894,0.193c-0.899,0.06-1.013,0.135-0.944,0.59c0.056,0.415,0.254,0.54,0.994,0.596
		c0.505,0.046,1.728-0.15,2.034-0.227l0.063-5.707l1.59-1.981c0.904-1.144,1.728-2.185,1.824-2.312
		c0.102-0.133,0.565-0.717,1.027-1.303c0.459-0.584,2.623-3.319,4.804-6.081c2.182-2.758,4.036-5.021,4.132-5.021
		c0.101,0,0.291,0.243,0.428,0.54c0.846,1.773,1.298,2.957,1.405,3.645c0.115,0.674,0.051,0.8-0.494,1.008
		c-0.934,0.357-3.49,3.066-4.245,4.512c-0.943,1.801-1.567,4.102-1.567,5.817c0,2.531,1.705,6.711,3.448,8.448
		c4.739,4.739,11.568,5.168,16.728,1.059c1.801-1.603,3.329-3.702,4.062-6.017C108.68,112.979,108.749,109.461,108.298,108.061z
		 M59.772,103.459c1.659,1.502,3.265,2.987,3.562,6.295l-7.587,0.109L59.772,103.459z M53.108,120.6
		c-4.531-0.151-9.304-3.617-9.254-9.978c0.041-6.287,6.792-10.643,13.812-8.219c-1.847,3.258-6.092,8.828-5.578,9.531
		c0.531,0.734,1.536,0.489,6.305,0.489h5.071C62.947,119.461,55.868,120.688,53.108,120.6z M65.883,109.718
		c-0.687-3.379-2.63-6.09-4.959-8.586l3.318-5.473c0.139,0,0.765,0.929,1.398,2.06c0.635,1.14,2.408,4.296,3.947,7.012
		c1.538,2.712,2.771,5.058,2.66,5.058L65.883,109.718z M80.54,101.589c-0.17,0.201-0.848,1.128-1.567,2.003l-3.997,4.868
		l-0.003-3.052c0.61-0.018,1.851-0.009,1.808-0.787c-0.033-0.783-1.75-0.568-2.941-0.516l0.119,4.457l-7.307-14.321h9.591
		c8.057,0,9.59,0.056,9.59,0.334C85.833,94.831,83.134,98.403,80.54,101.589z M103.255,118.287c-2.519,2.435-6.19,3.421-9.421,2.534
		c-4.859-1.34-8.08-6.068-7.339-10.783c0.414-2.626,1.125-4.117,2.76-5.782c1.901-1.946,2.248-1.955,2.952-0.099
		c0.168,0.454,0.539,1.367,0.82,2.012c0.282,0.651,0.929,2.215,1.44,3.476c1.043,2.584,1.64,3.186,2.464,2.437
		c0.676-0.945,0.081-2.333-0.663-3.944c-0.4-0.729-2.41-6.148-2.41-6.501c0.564-0.562,1.87-0.289,2.658-0.262
		c2.26,0.101,2.858,0.216,4.04,0.765c1.751,0.818,4.02,3.09,4.84,4.852c0.542,1.168,0.976,1.623,1.006,4.305
		C106.726,114.014,105.021,116.346,103.255,118.287z"/>
	<g>
		<path fill="#FFFFFF" d="M81.647,40.337h9.492c0.129,0,0.25,0.023,0.365,0.07s0.214,0.113,0.299,0.198S91.954,40.79,92,40.904
			s0.07,0.236,0.07,0.365c0,0.193-0.059,0.375-0.176,0.545l-8.341,10.723h7.585c0.264,0.006,0.485,0.1,0.664,0.281
			s0.268,0.401,0.268,0.659s-0.089,0.476-0.268,0.655S91.406,54.4,91.148,54.4h-9.501c-0.135,0-0.258-0.023-0.369-0.07
			s-0.209-0.113-0.294-0.198s-0.151-0.183-0.198-0.294s-0.07-0.234-0.07-0.369c0.006-0.223,0.07-0.416,0.193-0.58l8.323-10.688
			h-7.585c-0.252,0-0.47-0.091-0.655-0.272s-0.277-0.401-0.277-0.659s0.092-0.478,0.277-0.659S81.395,40.337,81.647,40.337z"/>
		<path fill="#FFFFFF" d="M102.424,52.537c0.258,0,0.478,0.091,0.659,0.272s0.272,0.401,0.272,0.659s-0.091,0.478-0.272,0.659
			s-0.401,0.272-0.659,0.272h-8.13c-0.135,0-0.258-0.023-0.369-0.07s-0.209-0.113-0.294-0.198s-0.151-0.183-0.198-0.294
			s-0.07-0.234-0.07-0.369V41.269c0-0.129,0.023-0.25,0.07-0.365s0.113-0.214,0.198-0.299s0.183-0.151,0.294-0.198
			s0.234-0.07,0.369-0.07h8.13c0.258,0,0.478,0.091,0.659,0.272s0.272,0.401,0.272,0.659s-0.091,0.478-0.272,0.659
			s-0.401,0.272-0.659,0.272h-7.198v4.236h5.168c0.258,0,0.478,0.091,0.659,0.272s0.272,0.401,0.272,0.659s-0.091,0.478-0.272,0.659
			s-0.401,0.272-0.659,0.272h-5.168v4.236H102.424z"/>
		<path fill="#FFFFFF" d="M104.604,53.468V41.269c0-0.129,0.023-0.25,0.07-0.365s0.113-0.214,0.198-0.299s0.183-0.151,0.294-0.198
			s0.234-0.07,0.369-0.07h3.393c0.592,0,1.15,0.114,1.674,0.343s0.981,0.539,1.371,0.932s0.699,0.851,0.927,1.375
			s0.343,1.083,0.343,1.674c0,0.387-0.048,0.763-0.145,1.129s-0.24,0.712-0.431,1.037s-0.428,0.627-0.712,0.905
			s-0.614,0.523-0.989,0.734l2.804,4.491c0.1,0.164,0.149,0.334,0.149,0.51c0,0.135-0.023,0.258-0.07,0.369
			s-0.113,0.209-0.198,0.294s-0.185,0.151-0.299,0.198s-0.236,0.07-0.365,0.07c-0.328,0-0.595-0.152-0.8-0.457l-3.103-4.966h-2.619
			v4.491c0,0.258-0.091,0.478-0.272,0.659s-0.401,0.272-0.659,0.272s-0.478-0.091-0.659-0.272S104.604,53.726,104.604,53.468z
			 M106.467,42.201v4.913h2.461c0.34,0,0.659-0.064,0.958-0.193s0.558-0.306,0.778-0.532s0.394-0.486,0.523-0.782
			s0.193-0.611,0.193-0.945c0-0.34-0.064-0.659-0.193-0.958s-0.305-0.56-0.527-0.782s-0.483-0.398-0.782-0.527
			s-0.615-0.193-0.949-0.193H106.467z"/>
		<path fill="#FFFFFF" d="M129.257,47.369c0,1.939-0.688,3.598-2.065,4.975c-1.371,1.371-3.026,2.057-4.966,2.057
			c-1.945,0-3.604-0.686-4.975-2.057s-2.057-3.029-2.057-4.975c0-1.939,0.686-3.595,2.057-4.966
			c1.377-1.377,3.035-2.065,4.975-2.065c1.934,0,3.589,0.688,4.966,2.065c0.691,0.691,1.208,1.447,1.551,2.268
			S129.257,46.39,129.257,47.369z M122.226,42.201c-0.727,0-1.39,0.126-1.991,0.378s-1.156,0.633-1.666,1.143
			s-0.889,1.063-1.138,1.661s-0.374,1.26-0.374,1.986c0,1.43,0.504,2.648,1.512,3.656s2.227,1.512,3.656,1.512
			s2.648-0.504,3.656-1.512s1.512-2.227,1.512-3.656c0-1.424-0.504-2.64-1.512-3.647C124.869,42.708,123.65,42.201,122.226,42.201z"
			/>
		<path fill="#FFFFFF" d="M75.741,75.068c0,0.258-0.091,0.478-0.272,0.659S75.067,76,74.809,76s-0.478-0.091-0.659-0.272
			s-0.272-0.401-0.272-0.659V62.869c0-0.258,0.091-0.478,0.272-0.659s0.401-0.272,0.659-0.272s0.478,0.091,0.659,0.272
			s0.272,0.401,0.272,0.659V75.068z"/>
		<path fill="#FFFFFF" d="M77.516,75.068V62.869c0-0.129,0.023-0.25,0.07-0.365s0.113-0.214,0.198-0.299s0.183-0.151,0.294-0.198
			s0.234-0.07,0.369-0.07c0.363,0,0.639,0.167,0.826,0.501l5.273,10.538l5.273-10.538c0.211-0.334,0.486-0.501,0.826-0.501
			c0.129,0,0.25,0.023,0.365,0.07s0.214,0.113,0.299,0.198s0.151,0.185,0.198,0.299s0.07,0.236,0.07,0.365v12.199
			c0,0.258-0.091,0.478-0.272,0.659S90.905,76,90.647,76s-0.478-0.091-0.659-0.272s-0.272-0.401-0.272-0.659v-8.244l-4.359,8.71
			C85.174,75.845,84.905,76,84.547,76c-0.387,0-0.671-0.188-0.853-0.562l-4.315-8.613v8.244c0,0.258-0.091,0.478-0.272,0.659
			S78.706,76,78.448,76s-0.478-0.091-0.659-0.272S77.516,75.326,77.516,75.068z"/>
		<path fill="#FFFFFF" d="M92.932,75.068V62.869c0-0.129,0.023-0.25,0.07-0.365s0.113-0.214,0.198-0.299s0.183-0.151,0.294-0.198
			s0.234-0.07,0.369-0.07h2.707c0.422,0,0.831,0.056,1.226,0.167s0.766,0.27,1.112,0.475s0.662,0.45,0.949,0.734
			s0.532,0.599,0.734,0.945s0.36,0.716,0.475,1.112s0.171,0.804,0.171,1.226c0,1.277-0.46,2.376-1.38,3.296
			c-0.908,0.908-2.004,1.362-3.287,1.362h-1.775v3.814c0,0.258-0.091,0.478-0.272,0.659S94.122,76,93.864,76
			s-0.478-0.091-0.659-0.272S92.932,75.326,92.932,75.068z M94.795,63.801v5.59h1.775c0.381,0,0.74-0.073,1.077-0.22
			s0.633-0.346,0.888-0.598s0.457-0.548,0.606-0.888s0.224-0.703,0.224-1.09c0-0.393-0.075-0.759-0.224-1.099
			s-0.352-0.636-0.606-0.888s-0.552-0.45-0.892-0.593s-0.697-0.215-1.072-0.215H94.795z"/>
		<path fill="#FFFFFF" d="M100.561,74.646l4.693-12.076c0.188-0.422,0.483-0.633,0.888-0.633c0.416,0,0.712,0.211,0.888,0.633
			l4.711,12.12c0.047,0.117,0.07,0.243,0.07,0.378c0,0.258-0.091,0.478-0.272,0.659S111.137,76,110.879,76s-0.475-0.091-0.65-0.272
			c-0.094-0.094-0.164-0.193-0.211-0.299l-1.626-4.175h-4.5l-1.635,4.175c-0.047,0.105-0.117,0.205-0.211,0.299
			c-0.182,0.182-0.401,0.272-0.659,0.272s-0.476-0.091-0.655-0.272s-0.268-0.401-0.268-0.659
			C100.464,74.928,100.497,74.787,100.561,74.646z M107.671,69.391l-1.529-3.946l-1.529,3.946H107.671z"/>
		<path fill="#FFFFFF" d="M123.94,72.836c0.129,0,0.249,0.025,0.36,0.075s0.209,0.116,0.294,0.198s0.152,0.18,0.202,0.294
			s0.075,0.236,0.075,0.365c0,0.246-0.097,0.469-0.29,0.668c-1.307,1.043-2.78,1.564-4.421,1.564c-1.945,0-3.604-0.686-4.975-2.057
			s-2.057-3.029-2.057-4.975c0-1.939,0.686-3.595,2.057-4.966c1.377-1.377,3.035-2.065,4.975-2.065c1.664,0,3.167,0.548,4.509,1.644
			c0.164,0.158,0.246,0.372,0.246,0.642c0,0.135-0.023,0.258-0.07,0.369s-0.113,0.209-0.198,0.294s-0.185,0.151-0.299,0.198
			s-0.236,0.07-0.365,0.07c-0.229,0-0.442-0.088-0.642-0.264c-0.445-0.352-0.936-0.621-1.472-0.809s-1.106-0.281-1.709-0.281
			c-1.43,0-2.651,0.507-3.665,1.521c-1.002,1.002-1.503,2.218-1.503,3.647c0,1.436,0.501,2.654,1.503,3.656
			c1.008,1.008,2.229,1.512,3.665,1.512c1.225,0,2.303-0.378,3.234-1.134C123.547,72.897,123.729,72.842,123.94,72.836z"/>
		<path fill="#FFFFFF" d="M135.867,63.801h-3.472v11.268c0,0.258-0.091,0.478-0.272,0.659S131.721,76,131.463,76
			s-0.478-0.091-0.659-0.272s-0.272-0.401-0.272-0.659V63.801h-3.472c-0.258,0-0.478-0.091-0.659-0.272s-0.272-0.401-0.272-0.659
			s0.091-0.478,0.272-0.659s0.401-0.272,0.659-0.272h8.807c0.258,0,0.478,0.091,0.659,0.272s0.272,0.401,0.272,0.659
			s-0.091,0.478-0.272,0.659S136.125,63.801,135.867,63.801z"/>
	</g>
	<g>
		<g>
			<path fill="#5B6AB0" stroke="#FFFFFF" stroke-width="2" stroke-miterlimit="10" d="M194.768,167.589
				c-2.534-5.82-5.349-11.609-8.446-17.346c6.004-2.538,12.219-4.851,18.63-6.916c-63.973-26.855-136.118-26.686-199.987,0.509
				c0.04,0.094,0.08,0.188,0.12,0.282c6.617,2.096,13.026,4.457,19.211,7.058c-2.899,5.432-5.546,10.909-7.942,16.414
				C73.411,143.639,137.71,143.638,194.768,167.589L194.768,167.589L194.768,167.589z"/>
		</g>
	</g>
	<g>
		<g>
			<path fill="#FFFFFF" d="M64.583,135.364c1.391-0.464,2.537-0.914,3.445-1.369c0.909-0.454,1.811-1.008,2.714-1.663
				c0.329-0.078,0.66-0.153,0.989-0.23c1.017,4.271,2.09,8.536,3.219,12.796c0.066,0.25,0.198,0.426,0.397,0.522
				c0.199,0.1,0.438,0.117,0.721,0.054c0.753-0.169,1.506-0.33,2.26-0.486c0.076,0.326,0.154,0.651,0.231,0.977
				c-3.119,0.645-6.235,1.401-9.346,2.271c-0.106-0.319-0.21-0.638-0.316-0.958c0.59-0.165,1.181-0.325,1.771-0.482
				c0.453-0.12,0.749-0.288,0.889-0.506c0.139-0.219,0.152-0.521,0.039-0.909c-0.927-3.14-1.819-6.285-2.679-9.431
				c-0.061-0.222-0.194-0.371-0.399-0.443c-0.207-0.075-0.483-0.066-0.831,0.025c-0.941,0.245-1.882,0.5-2.822,0.763
				C64.771,135.984,64.676,135.673,64.583,135.364z"/>
			<path fill="#FFFFFF" d="M98.621,129.129c0.398-0.02,0.796-0.038,1.194-0.054c0.059,1.377,0.118,2.755,0.178,4.132
				c1.344-0.057,2.688-0.095,4.032-0.115c0.006,0.386,0.012,0.773,0.018,1.16c-1.333,0.019-2.666,0.057-3.999,0.113
				c0.094,2.13,0.19,4.257,0.288,6.386c0.02,0.422,0.158,0.744,0.415,0.967c0.255,0.222,0.582,0.326,0.982,0.313
				c1.139-0.036,1.722-0.979,1.753-2.849c0.37-0.009,0.74-0.013,1.109-0.018c-0.013,0.996-0.184,1.798-0.509,2.408
				c-0.324,0.61-0.791,1.086-1.396,1.431c-0.609,0.344-1.293,0.532-2.064,0.563c-0.675,0.028-1.264-0.065-1.773-0.281
				c-0.51-0.216-0.93-0.557-1.26-1.019c-0.331-0.464-0.52-0.979-0.561-1.542c-0.149-2.058-0.296-4.115-0.438-6.173
				c-0.717,0.047-1.432,0.1-2.148,0.158c-0.028-0.329-0.056-0.657-0.084-0.985c1.312-0.25,2.315-0.735,3.021-1.472
				C98.083,131.516,98.498,130.477,98.621,129.129z"/>
			<path fill="#FFFFFF" d="M114.235,142.371c-0.022,0.334-0.044,0.665-0.067,0.998c-2.634-0.157-5.266-0.236-7.898-0.238
				c0.001-0.333,0.002-0.666,0.001-0.999c0.33,0.001,0.657,0.003,0.987,0.006c0.406,0.002,0.703-0.062,0.892-0.201
				c0.189-0.136,0.287-0.323,0.291-0.559c0.038-1.982,0.074-3.967,0.109-5.95c0.009-0.479-0.116-0.833-0.376-1.059
				c-0.259-0.225-0.628-0.341-1.103-0.344c-0.229-0.002-0.457-0.003-0.687-0.003c0-0.315,0.001-0.63,0.001-0.945
				c1.74-0.072,3.482-0.114,5.229-0.125c-0.042,1.092-0.085,2.183-0.129,3.274c0.342-1.083,0.902-1.904,1.687-2.455
				c0.784-0.551,1.659-0.796,2.609-0.735c0.811,0.054,1.44,0.279,1.88,0.67c0.441,0.388,0.633,0.866,0.584,1.42
				c-0.043,0.479-0.239,0.852-0.583,1.123c-0.347,0.27-0.747,0.388-1.206,0.355c-0.409-0.029-0.75-0.183-1.025-0.458
				c-0.277-0.276-0.403-0.613-0.377-1.014c0.015-0.222,0.1-0.451,0.257-0.684c0.083-0.13,0.127-0.225,0.131-0.283
				c0.007-0.1-0.016-0.176-0.068-0.225c-0.054-0.05-0.141-0.078-0.261-0.086c-0.311-0.02-0.664,0.111-1.051,0.391
				c-0.594,0.434-1.107,1.136-1.536,2.102c-0.428,0.968-0.658,1.952-0.704,2.955c-0.032,0.722-0.064,1.446-0.097,2.167
				c-0.012,0.252,0.058,0.445,0.206,0.584c0.147,0.139,0.359,0.214,0.635,0.227C113.123,142.31,113.679,142.339,114.235,142.371z"/>
			<path fill="#FFFFFF" d="M120.51,133.78c1.818,0.11,3.639,0.255,5.464,0.432c-0.403,2.82-0.822,5.641-1.255,8.458
				c-0.035,0.227,0.021,0.414,0.169,0.561c0.147,0.147,0.39,0.245,0.731,0.294c0.255,0.035,0.511,0.074,0.767,0.112
				c-0.057,0.329-0.113,0.658-0.169,0.987c-2.261-0.337-4.522-0.617-6.785-0.84c0.037-0.331,0.074-0.662,0.111-0.994
				c0.251,0.025,0.503,0.05,0.755,0.076c0.406,0.042,0.702-0.007,0.89-0.153c0.187-0.146,0.307-0.42,0.357-0.826
				c0.244-1.928,0.48-3.856,0.711-5.784c0.043-0.362-0.049-0.658-0.281-0.885c-0.231-0.227-0.572-0.364-1.022-0.41
				c-0.181-0.019-0.363-0.037-0.544-0.055C120.443,134.428,120.477,134.105,120.51,133.78z M124.585,128.39
				c0.607,0.074,1.108,0.31,1.498,0.704c0.389,0.394,0.548,0.834,0.481,1.316c-0.067,0.482-0.339,0.863-0.812,1.145
				c-0.472,0.281-1.003,0.384-1.596,0.312c-0.603-0.072-1.095-0.303-1.483-0.69c-0.388-0.389-0.558-0.821-0.506-1.298
				c0.052-0.484,0.312-0.874,0.783-1.164C123.422,128.425,123.969,128.316,124.585,128.39z"/>
			<path fill="#FFFFFF" d="M130.197,135.107c1.675,0.189,3.354,0.408,5.036,0.655c0.064,0.679,0.042,1.337-0.063,1.977
				c0.654-0.561,1.428-0.94,2.318-1.132c0.893-0.19,1.837-0.174,2.827,0.059c1.585,0.372,2.751,1.147,3.462,2.293
				c0.713,1.147,0.802,2.539,0.294,4.165c-0.354,1.13-0.884,2.027-1.572,2.695c-0.689,0.667-1.482,1.1-2.38,1.302
				c-0.897,0.203-1.857,0.181-2.891-0.06c-0.825-0.193-1.514-0.519-2.076-0.984c-0.562-0.464-1.036-1.114-1.432-1.95
				c-0.273,1.172-0.55,2.347-0.831,3.52c-0.111,0.465-0.143,0.767-0.095,0.913c0.047,0.146,0.17,0.273,0.369,0.384
				c0.199,0.111,0.617,0.238,1.256,0.384c-0.087,0.334-0.174,0.67-0.262,1.005c-2.186-0.477-4.375-0.898-6.565-1.262
				c0.066-0.338,0.133-0.677,0.2-1.016c0.117,0.02,0.234,0.04,0.352,0.06c0.415,0.07,0.699,0.084,0.854,0.043
				c0.155-0.043,0.289-0.137,0.401-0.286c0.078-0.102,0.166-0.382,0.261-0.841c0.651-3.117,1.278-6.238,1.881-9.358
				c0.088-0.457,0.104-0.771,0.047-0.937c-0.057-0.167-0.168-0.301-0.334-0.398c-0.164-0.097-0.569-0.214-1.215-0.342
				C130.093,135.701,130.145,135.405,130.197,135.107z M138.321,137.746c-0.84-0.187-1.632-0.014-2.364,0.519
				c-0.735,0.533-1.233,1.43-1.519,2.688c-0.281,1.246-0.204,2.257,0.224,3.038c0.427,0.782,1.005,1.253,1.751,1.421
				c0.73,0.164,1.394,0.019,1.999-0.438c0.793-0.605,1.376-1.534,1.725-2.793c0.32-1.157,0.325-2.134,0.006-2.933
				C139.824,138.449,139.212,137.945,138.321,137.746z"/>
		</g>
	</g>
</g>
</svg>
