<?xml version="1.0" encoding="utf-8"?>
<!-- Generator: Adobe Illustrator 16.0.4, SVG Export Plug-In . SVG Version: 6.00 Build 0)  -->
<!DOCTYPE svg PUBLIC "-//W3C//DTD SVG 1.1//EN" "http://www.w3.org/Graphics/SVG/1.1/DTD/svg11.dtd">
<svg version="1.1" id="Livello_1" xmlns="http://www.w3.org/2000/svg" xmlns:xlink="http://www.w3.org/1999/xlink" x="0px" y="0px"
	 width="210px" height="200px" viewBox="0 0 210 200" enable-background="new 0 0 210 200" xml:space="preserve">
<g>
	<circle fill="#2A398D" cx="104" cy="100" r="84"/>
	<circle fill="#2A398D" stroke="#FFFFFF" stroke-width="5" stroke-miterlimit="10" cx="104" cy="99.717" r="75.216"/>
	<g>
		<g>
			<path fill="#FFFFFF" d="M156.463,78.24c2.404,0.057,4.414-1.852,4.469-4.267c0.056-2.418-1.862-4.417-4.266-4.473
				c-2.415-0.055-4.415,1.85-4.472,4.269C152.141,76.185,154.049,78.184,156.463,78.24z"/>
		</g>
		<g>
			<path fill="#FFFFFF" d="M157.098,95.496h11.852v-4.369h-8.805l-4.855-8.088c-0.717-1.212-2.039-2.014-3.547-2.014
				c-0.41,0-0.812,0.06-1.188,0.168l-13.175,4.104l-1.78,12.628h4.37l1.781-8.898l5.114-1.594l-9.485,37.201h4.371l6.971-19.692
				l5.657,7.552v12.14h4.369v-15.552l-6.046-11.025l1.786-6.966L157.098,95.496z"/>
		</g>
	</g>
	<path fill="#FFFFFF" d="M108.298,108.061c-1.768-5.548-6.5-9.177-11.838-9.119l-3.871,0.14l-1.224-3.073
		c-2.38-5.963-3.61-8.887-3.986-9.455c-0.374-0.568-0.419-0.575-3.944-0.575c-3.121,0-3.614,0.055-3.881,0.417
		c-0.438,0.572-0.412,0.923,0.133,1.471c0.42,0.419,0.791,0.471,3.162,0.471c1.875,0,2.76,0.09,2.912,0.296
		c0.266,0.352,1.25,2.758,1.25,3.047c0,0.112-4.939,0.198-10.975,0.198h-10.98l-0.466-0.925c-0.264-0.518-0.479-0.984-0.479-1.04
		c0-0.063,1.123-0.236,2.498-0.402c2.801-0.331,3.828-0.825,3.154-1.511c-0.301-0.311-1.143-0.383-4.889-0.43
		c-3.079-0.035-4.613,0.028-4.789,0.209c-0.143,0.143-0.227,0.674-0.185,1.179c0.066,0.812,0.134,1.272,0.882,1.184l1.135-0.146
		l1.477,2.781l-4.609,7.066c-3.285-0.985-6.27-1.208-9.645-0.122c-1.623,0.683-3.924,2.317-4.977,3.55
		c-1.377,1.608-2.459,4.042-2.783,6.266c-0.035,0.246-0.06,0.496-0.077,0.738v1.691c0.349,4.786,3.669,9.265,8.313,10.806
		c2.154,0.723,2.206,0.73,4.459,0.652c1.684-0.058,2.502-0.223,3.964-0.79c2.125-0.827,3.117-1.648,5.335-4.066
		c2.246-2.463,2.48-5.267,2.568-6.015c0.185-0.065,2.023-0.128,4.088-0.128h3.762l0.033,1.891c0.021,1.04-0.053,2.364-0.043,2.593
		c0.018,0.324-0.1,0.137-0.893,0.193c-0.899,0.06-1.014,0.135-0.945,0.59c0.057,0.415,0.255,0.54,0.994,0.596
		c0.505,0.046,1.728-0.15,2.033-0.227l0.063-5.707l1.591-1.981c0.904-1.144,1.727-2.185,1.824-2.312
		c0.102-0.133,0.564-0.717,1.027-1.303c0.459-0.584,2.623-3.319,4.803-6.081c2.182-2.758,4.037-5.021,4.133-5.021
		c0.101,0,0.291,0.243,0.428,0.54c0.846,1.773,1.299,2.957,1.405,3.645c0.114,0.674,0.052,0.8-0.494,1.008
		c-0.935,0.357-3.49,3.066-4.245,4.512c-0.942,1.801-1.566,4.102-1.566,5.817c0,2.531,1.704,6.711,3.447,8.448
		c4.738,4.739,11.568,5.168,16.728,1.059c1.802-1.603,3.329-3.702,4.062-6.017C108.68,112.979,108.75,109.461,108.298,108.061z
		 M59.773,103.459c1.658,1.502,3.264,2.987,3.561,6.295l-7.586,0.109L59.773,103.459z M53.109,120.6
		c-4.531-0.151-9.305-3.617-9.255-9.978c0.04-6.287,6.792-10.643,13.812-8.219c-1.847,3.258-6.092,8.828-5.578,9.531
		c0.53,0.734,1.536,0.489,6.305,0.489h5.071C62.947,119.461,55.869,120.688,53.109,120.6z M65.883,109.718
		c-0.687-3.379-2.63-6.09-4.959-8.586l3.317-5.473c0.139,0,0.766,0.929,1.398,2.06c0.636,1.14,2.408,4.296,3.947,7.012
		c1.538,2.712,2.771,5.058,2.66,5.058L65.883,109.718z M80.541,101.589c-0.171,0.201-0.848,1.128-1.568,2.003l-3.996,4.868
		l-0.004-3.052c0.611-0.018,1.852-0.009,1.809-0.787c-0.033-0.783-1.75-0.568-2.941-0.516l0.119,4.457l-7.307-14.321h9.591
		c8.057,0,9.591,0.056,9.591,0.334C85.833,94.831,83.134,98.403,80.541,101.589z M103.255,118.287
		c-2.52,2.435-6.189,3.421-9.422,2.534c-4.858-1.34-8.079-6.068-7.339-10.783c0.413-2.626,1.124-4.117,2.761-5.782
		c1.9-1.946,2.248-1.955,2.951-0.099c0.168,0.454,0.539,1.367,0.82,2.012c0.281,0.651,0.928,2.215,1.439,3.476
		c1.044,2.584,1.641,3.186,2.465,2.437c0.676-0.945,0.081-2.333-0.662-3.944c-0.4-0.729-2.41-6.148-2.41-6.501
		c0.564-0.562,1.869-0.289,2.658-0.262c2.26,0.101,2.857,0.216,4.039,0.765c1.752,0.818,4.021,3.09,4.84,4.852
		c0.542,1.168,0.977,1.623,1.006,4.305C106.726,114.014,105.021,116.346,103.255,118.287z"/>
	<g>
		<path fill="#FFFFFF" d="M81.648,40.337h9.492c0.129,0,0.25,0.023,0.364,0.07s0.214,0.113,0.299,0.198s0.151,0.185,0.198,0.299
			s0.07,0.236,0.07,0.365c0,0.193-0.059,0.375-0.176,0.545l-8.342,10.723h7.586c0.264,0.006,0.484,0.1,0.663,0.281
			s0.269,0.401,0.269,0.659s-0.09,0.476-0.269,0.655S91.406,54.4,91.148,54.4h-9.5c-0.135,0-0.258-0.023-0.369-0.07
			s-0.21-0.113-0.295-0.198s-0.15-0.183-0.197-0.294s-0.07-0.234-0.07-0.369c0.006-0.223,0.07-0.416,0.193-0.58l8.322-10.688h-7.584
			c-0.252,0-0.471-0.091-0.655-0.272s-0.276-0.401-0.276-0.659s0.092-0.478,0.276-0.659S81.396,40.337,81.648,40.337z"/>
		<path fill="#FFFFFF" d="M102.425,52.537c0.258,0,0.477,0.091,0.658,0.272s0.273,0.401,0.273,0.659s-0.092,0.478-0.273,0.659
			s-0.4,0.272-0.658,0.272h-8.131c-0.135,0-0.258-0.023-0.369-0.07s-0.209-0.113-0.294-0.198s-0.151-0.183-0.198-0.294
			s-0.07-0.234-0.07-0.369V41.269c0-0.129,0.023-0.25,0.07-0.365s0.113-0.214,0.198-0.299s0.183-0.151,0.294-0.198
			s0.234-0.07,0.369-0.07h8.131c0.258,0,0.477,0.091,0.658,0.272s0.273,0.401,0.273,0.659s-0.092,0.478-0.273,0.659
			s-0.4,0.272-0.658,0.272h-7.199v4.236h5.168c0.258,0,0.479,0.091,0.66,0.272s0.271,0.401,0.271,0.659s-0.09,0.478-0.271,0.659
			s-0.402,0.272-0.66,0.272h-5.168v4.236H102.425z"/>
		<path fill="#FFFFFF" d="M104.605,53.468V41.269c0-0.129,0.023-0.25,0.07-0.365s0.112-0.214,0.197-0.299s0.184-0.151,0.295-0.198
			s0.234-0.07,0.369-0.07h3.393c0.592,0,1.149,0.114,1.674,0.343s0.981,0.539,1.371,0.932s0.699,0.851,0.928,1.375
			s0.342,1.083,0.342,1.674c0,0.387-0.048,0.763-0.145,1.129s-0.24,0.712-0.431,1.037s-0.428,0.627-0.712,0.905
			s-0.613,0.523-0.988,0.734l2.803,4.491c0.1,0.164,0.15,0.334,0.15,0.51c0,0.135-0.023,0.258-0.07,0.369s-0.113,0.209-0.198,0.294
			s-0.185,0.151-0.299,0.198s-0.235,0.07-0.364,0.07c-0.328,0-0.596-0.152-0.801-0.457l-3.102-4.966h-2.619v4.491
			c0,0.258-0.092,0.478-0.273,0.659s-0.4,0.272-0.658,0.272s-0.479-0.091-0.66-0.272S104.605,53.726,104.605,53.468z
			 M106.468,42.201v4.913h2.461c0.34,0,0.658-0.064,0.957-0.193s0.559-0.306,0.778-0.532s0.394-0.486,0.522-0.782
			s0.193-0.611,0.193-0.945c0-0.34-0.064-0.659-0.193-0.958s-0.305-0.56-0.527-0.782s-0.482-0.398-0.781-0.527
			s-0.615-0.193-0.949-0.193H106.468z"/>
		<path fill="#FFFFFF" d="M129.258,47.369c0,1.939-0.689,3.598-2.066,4.975c-1.371,1.371-3.025,2.057-4.965,2.057
			c-1.945,0-3.604-0.686-4.975-2.057s-2.057-3.029-2.057-4.975c0-1.939,0.686-3.595,2.057-4.966
			c1.377-1.377,3.035-2.065,4.975-2.065c1.934,0,3.588,0.688,4.965,2.065c0.691,0.691,1.209,1.447,1.552,2.268
			S129.258,46.39,129.258,47.369z M122.227,42.201c-0.727,0-1.391,0.126-1.991,0.378s-1.155,0.633-1.665,1.143
			s-0.89,1.063-1.139,1.661s-0.373,1.26-0.373,1.986c0,1.43,0.504,2.648,1.512,3.656s2.227,1.512,3.656,1.512
			s2.648-0.504,3.656-1.512s1.512-2.227,1.512-3.656c0-1.424-0.504-2.64-1.512-3.647C124.87,42.708,123.651,42.201,122.227,42.201z"
			/>
		<path fill="#FFFFFF" d="M75.742,75.068c0,0.258-0.092,0.478-0.273,0.659S75.068,76,74.81,76s-0.479-0.091-0.66-0.272
			s-0.271-0.401-0.271-0.659V62.869c0-0.258,0.09-0.478,0.271-0.659s0.402-0.272,0.66-0.272s0.477,0.091,0.658,0.272
			s0.273,0.401,0.273,0.659V75.068z"/>
		<path fill="#FFFFFF" d="M77.517,75.068V62.869c0-0.129,0.023-0.25,0.07-0.365s0.112-0.214,0.197-0.299s0.184-0.151,0.295-0.198
			s0.234-0.07,0.369-0.07c0.363,0,0.639,0.167,0.826,0.501l5.273,10.538l5.273-10.538c0.211-0.334,0.486-0.501,0.826-0.501
			c0.129,0,0.25,0.023,0.364,0.07s0.214,0.113,0.299,0.198s0.151,0.185,0.198,0.299s0.07,0.236,0.07,0.365v12.199
			c0,0.258-0.092,0.478-0.273,0.659S90.906,76,90.648,76s-0.479-0.091-0.66-0.272s-0.271-0.401-0.271-0.659v-8.244l-4.359,8.71
			C85.175,75.845,84.906,76,84.548,76c-0.387,0-0.672-0.188-0.854-0.562l-4.314-8.613v8.244c0,0.258-0.092,0.478-0.273,0.659
			S78.707,76,78.449,76s-0.479-0.091-0.66-0.272S77.517,75.326,77.517,75.068z"/>
		<path fill="#FFFFFF" d="M92.933,75.068V62.869c0-0.129,0.023-0.25,0.07-0.365s0.112-0.214,0.197-0.299s0.184-0.151,0.295-0.198
			s0.234-0.07,0.369-0.07h2.707c0.422,0,0.83,0.056,1.226,0.167s0.767,0.27,1.112,0.475s0.662,0.45,0.949,0.734
			s0.531,0.599,0.733,0.945s0.36,0.716,0.475,1.112s0.171,0.804,0.171,1.226c0,1.277-0.459,2.376-1.379,3.296
			c-0.908,0.908-2.004,1.362-3.287,1.362h-1.775v3.814c0,0.258-0.092,0.478-0.273,0.659S94.123,76,93.865,76
			s-0.479-0.091-0.66-0.272S92.933,75.326,92.933,75.068z M94.796,63.801v5.59h1.775c0.381,0,0.739-0.073,1.076-0.22
			s0.633-0.346,0.888-0.598s0.457-0.548,0.606-0.888s0.225-0.703,0.225-1.09c0-0.393-0.075-0.759-0.225-1.099
			s-0.352-0.636-0.606-0.888s-0.552-0.45-0.892-0.593s-0.697-0.215-1.072-0.215H94.796z"/>
		<path fill="#FFFFFF" d="M100.562,74.646l4.693-12.076c0.188-0.422,0.482-0.633,0.887-0.633c0.416,0,0.713,0.211,0.889,0.633
			l4.711,12.12c0.047,0.117,0.07,0.243,0.07,0.378c0,0.258-0.092,0.478-0.273,0.659S111.138,76,110.88,76s-0.475-0.091-0.65-0.272
			c-0.094-0.094-0.164-0.193-0.211-0.299l-1.627-4.175h-4.5l-1.635,4.175c-0.047,0.105-0.117,0.205-0.211,0.299
			c-0.182,0.182-0.4,0.272-0.658,0.272s-0.477-0.091-0.655-0.272s-0.269-0.401-0.269-0.659
			C100.464,74.928,100.498,74.787,100.562,74.646z M107.671,69.391l-1.529-3.946l-1.529,3.946H107.671z"/>
		<path fill="#FFFFFF" d="M123.94,72.836c0.129,0,0.25,0.025,0.361,0.075s0.209,0.116,0.294,0.198s0.152,0.18,0.202,0.294
			s0.074,0.236,0.074,0.365c0,0.246-0.096,0.469-0.289,0.668c-1.307,1.043-2.781,1.564-4.422,1.564
			c-1.945,0-3.604-0.686-4.975-2.057c-1.37-1.371-2.056-3.029-2.056-4.975c0-1.939,0.686-3.595,2.056-4.966
			c1.377-1.377,3.035-2.065,4.975-2.065c1.664,0,3.168,0.548,4.51,1.644c0.164,0.158,0.246,0.372,0.246,0.642
			c0,0.135-0.023,0.258-0.07,0.369s-0.113,0.209-0.198,0.294s-0.185,0.151-0.299,0.198s-0.235,0.07-0.364,0.07
			c-0.229,0-0.443-0.088-0.643-0.264c-0.445-0.352-0.936-0.621-1.472-0.809s-1.106-0.281-1.71-0.281c-1.43,0-2.65,0.507-3.664,1.521
			c-1.002,1.002-1.504,2.218-1.504,3.647c0,1.436,0.502,2.654,1.504,3.656c1.008,1.008,2.229,1.512,3.664,1.512
			c1.225,0,2.303-0.378,3.234-1.134C123.547,72.897,123.729,72.842,123.94,72.836z"/>
		<path fill="#FFFFFF" d="M135.868,63.801h-3.473v11.268c0,0.258-0.09,0.478-0.271,0.659S131.721,76,131.463,76
			s-0.477-0.091-0.658-0.272s-0.273-0.401-0.273-0.659V63.801h-3.471c-0.258,0-0.479-0.091-0.66-0.272s-0.271-0.401-0.271-0.659
			s0.09-0.478,0.271-0.659s0.402-0.272,0.66-0.272h8.807c0.258,0,0.477,0.091,0.658,0.272s0.273,0.401,0.273,0.659
			s-0.092,0.478-0.273,0.659S136.125,63.801,135.868,63.801z"/>
	</g>
	<g>
		<g>
			<path fill="#5B6AB0" stroke="#FFFFFF" stroke-width="2" stroke-miterlimit="10" d="M194.768,167.589
				c-2.534-5.82-5.349-11.609-8.446-17.346c6.004-2.538,12.219-4.851,18.63-6.916c-63.973-26.855-136.118-26.686-199.987,0.509
				c0.04,0.094,0.08,0.188,0.12,0.282c6.617,2.096,13.026,4.457,19.211,7.058c-2.899,5.432-5.546,10.909-7.942,16.414
				C73.411,143.639,137.711,143.638,194.768,167.589L194.768,167.589L194.768,167.589z"/>
		</g>
	</g>
	<g>
		<g>
			<path fill="#FFFFFF" d="M52.438,135.354c1.324-0.445,2.415-0.885,3.275-1.334s1.714-1,2.562-1.652
				c0.313-0.077,0.626-0.155,0.94-0.23c1.083,4.257,2.208,8.509,3.379,12.758c0.069,0.25,0.201,0.423,0.396,0.52
				c0.197,0.098,0.431,0.113,0.708,0.046c0.735-0.175,1.47-0.345,2.206-0.511c0.083,0.324,0.166,0.648,0.248,0.972
				c-3.051,0.689-6.1,1.46-9.146,2.312c-0.104-0.319-0.207-0.639-0.309-0.959c0.576-0.161,1.153-0.319,1.729-0.475
				c0.442-0.119,0.73-0.287,0.866-0.504c0.135-0.218,0.145-0.521,0.029-0.908c-0.933-3.137-1.841-6.276-2.722-9.417
				c-0.062-0.222-0.193-0.369-0.391-0.444c-0.2-0.074-0.465-0.068-0.797,0.021c-0.897,0.239-1.795,0.484-2.693,0.736
				C52.625,135.974,52.532,135.664,52.438,135.354z"/>
			<path fill="#FFFFFF" d="M72.219,129.062c1.1-0.19,2.143-0.085,3.12,0.315c0.979,0.399,1.857,1.173,2.635,2.316
				c0.777,1.142,1.28,2.53,1.527,4.161c0.25,1.644,0.187,3.107-0.172,4.393c-0.359,1.285-0.914,2.264-1.674,2.945
				c-0.758,0.681-1.641,1.107-2.66,1.286c-1.528,0.269-2.91-0.095-4.175-1.097c-1.58-1.241-2.667-3.026-3.198-5.386
				c-0.375-1.667-0.408-3.159-0.086-4.477c0.322-1.316,0.893-2.339,1.706-3.063C70.054,129.732,71.051,129.265,72.219,129.062z
				 M75.819,136.819c-0.539-3.095-1.121-5.087-1.781-5.973c-0.477-0.648-1.042-0.915-1.689-0.803
				c-0.776,0.136-1.258,0.744-1.433,1.818s0.021,3.052,0.602,5.928c0.486,2.405,1.09,4.061,1.782,4.969
				c0.435,0.563,0.934,0.795,1.501,0.694c0.369-0.064,0.679-0.265,0.928-0.597c0.251-0.334,0.386-0.975,0.413-1.924
				C76.178,139.646,76.074,138.273,75.819,136.819z"/>
			<path fill="#FFFFFF" d="M99.9,127.346c0.38-0.011,0.759-0.024,1.139-0.033c0.035,1.377,0.072,2.755,0.11,4.134
				c1.288-0.034,2.576-0.055,3.864-0.062c0.002,0.387,0.005,0.773,0.007,1.16c-1.279,0.007-2.56,0.028-3.84,0.061
				c0.058,2.13,0.117,4.26,0.177,6.39c0.012,0.422,0.141,0.748,0.386,0.974c0.246,0.226,0.563,0.335,0.953,0.328
				c1.11-0.021,1.689-0.958,1.737-2.829c0.359-0.003,0.718-0.005,1.077-0.006c-0.021,0.994-0.194,1.796-0.516,2.403
				c-0.322,0.607-0.782,1.079-1.379,1.416c-0.598,0.338-1.271,0.516-2.024,0.534c-0.66,0.016-1.236-0.087-1.727-0.313
				c-0.495-0.227-0.896-0.575-1.207-1.045c-0.312-0.472-0.482-0.99-0.509-1.555c-0.097-2.06-0.193-4.121-0.287-6.181
				c-0.688,0.03-1.375,0.063-2.063,0.101c-0.019-0.329-0.037-0.658-0.056-0.987c1.262-0.211,2.232-0.671,2.919-1.395
				C99.349,129.722,99.763,128.69,99.9,127.346z"/>
			<path fill="#FFFFFF" d="M114.888,140.651c-0.018,0.333-0.036,0.665-0.054,0.998c-2.572-0.125-5.146-0.196-7.718-0.209
				c0.002-0.333,0.004-0.666,0.006-0.999c0.321,0.002,0.641,0.004,0.962,0.007c0.396,0.004,0.686-0.06,0.871-0.198
				c0.185-0.135,0.279-0.322,0.284-0.559c0.038-1.984,0.075-3.967,0.111-5.951c0.009-0.479-0.111-0.833-0.361-1.059
				c-0.248-0.227-0.602-0.343-1.058-0.346c-0.22-0.002-0.44-0.005-0.66-0.005c0.002-0.315,0.004-0.63,0.007-0.945
				c1.668-0.065,3.338-0.109,5.01-0.129c-0.036,1.091-0.073,2.182-0.111,3.275c0.325-1.086,0.859-1.911,1.608-2.469
				c0.748-0.557,1.583-0.813,2.494-0.764c0.777,0.042,1.38,0.256,1.808,0.638c0.427,0.381,0.619,0.852,0.58,1.41
				c-0.034,0.479-0.216,0.855-0.543,1.133c-0.33,0.277-0.713,0.402-1.155,0.376c-0.394-0.022-0.724-0.17-0.993-0.442
				c-0.27-0.273-0.394-0.608-0.373-1.009c0.011-0.221,0.091-0.45,0.24-0.687c0.079-0.132,0.12-0.226,0.123-0.284
				c0.005-0.101-0.018-0.175-0.069-0.225c-0.052-0.048-0.136-0.077-0.252-0.082c-0.298-0.015-0.633,0.119-1.003,0.403
				c-0.567,0.441-1.055,1.147-1.462,2.117c-0.407,0.971-0.625,1.957-0.662,2.959c-0.027,0.723-0.055,1.446-0.083,2.168
				c-0.009,0.251,0.06,0.445,0.205,0.583c0.145,0.138,0.353,0.211,0.621,0.222C113.804,140.602,114.346,140.625,114.888,140.651z"/>
			<path fill="#FFFFFF" d="M120.813,131.951c1.741,0.066,3.484,0.157,5.229,0.271c-0.309,2.831-0.626,5.662-0.953,8.492
				c-0.027,0.228,0.034,0.413,0.183,0.554c0.147,0.142,0.387,0.231,0.719,0.268c0.25,0.027,0.499,0.056,0.749,0.084
				c-0.042,0.331-0.084,0.663-0.126,0.992c-2.211-0.253-4.422-0.465-6.633-0.637c0.028-0.332,0.056-0.664,0.085-0.996
				c0.245,0.019,0.49,0.039,0.736,0.059c0.396,0.032,0.683-0.025,0.862-0.176c0.177-0.15,0.286-0.428,0.326-0.834
				c0.185-1.934,0.367-3.867,0.545-5.8c0.034-0.364-0.062-0.656-0.289-0.877c-0.227-0.22-0.556-0.35-0.987-0.383
				c-0.175-0.014-0.349-0.027-0.522-0.042C120.761,132.6,120.788,132.275,120.813,131.951z M124.586,126.451
				c0.576,0.055,1.056,0.272,1.433,0.653c0.377,0.381,0.538,0.813,0.486,1.298c-0.051,0.484-0.3,0.873-0.743,1.171
				c-0.441,0.297-0.944,0.418-1.51,0.364c-0.575-0.055-1.048-0.269-1.425-0.647c-0.376-0.377-0.545-0.805-0.505-1.282
				c0.041-0.485,0.28-0.881,0.722-1.185C123.487,126.521,124.001,126.396,124.586,126.451z"/>
			<path fill="#FFFFFF" d="M130.095,132.949c1.602,0.116,3.205,0.252,4.812,0.409c0.089,0.674,0.097,1.332,0.025,1.974
				c0.598-0.595,1.314-1.015,2.15-1.258c0.835-0.242,1.73-0.282,2.677-0.114c1.516,0.268,2.656,0.959,3.395,2.048
				c0.739,1.092,0.914,2.466,0.541,4.122c-0.259,1.151-0.701,2.081-1.312,2.794c-0.611,0.712-1.341,1.198-2.188,1.46
				c-0.848,0.263-1.775,0.302-2.787,0.124c-0.808-0.143-1.494-0.427-2.064-0.859c-0.57-0.431-1.063-1.055-1.488-1.867
				c-0.202,1.185-0.406,2.369-0.613,3.554c-0.082,0.467-0.095,0.773-0.041,0.915c0.054,0.144,0.182,0.265,0.381,0.364
				c0.2,0.102,0.616,0.206,1.247,0.316c-0.064,0.339-0.127,0.679-0.191,1.016c-2.163-0.356-4.326-0.671-6.491-0.946
				c0.05-0.34,0.099-0.682,0.148-1.022c0.116,0.015,0.231,0.029,0.348,0.044c0.408,0.052,0.687,0.056,0.836,0.007
				c0.149-0.049,0.275-0.149,0.377-0.303c0.071-0.106,0.143-0.389,0.214-0.851c0.481-3.14,0.949-6.283,1.402-9.426
				c0.067-0.461,0.069-0.772,0.008-0.937c-0.061-0.162-0.171-0.292-0.332-0.382s-0.551-0.187-1.171-0.286
				C130.016,133.546,130.055,133.248,130.095,132.949z M137.925,135.16c-0.805-0.136-1.548,0.083-2.221,0.653
				c-0.673,0.57-1.109,1.494-1.32,2.763c-0.209,1.256-0.084,2.259,0.37,3.017c0.453,0.757,1.037,1.194,1.765,1.318
				c0.713,0.121,1.343-0.064,1.895-0.557c0.724-0.653,1.222-1.615,1.479-2.892c0.236-1.171,0.184-2.145-0.161-2.92
				C139.386,135.768,138.78,135.304,137.925,135.16z"/>
			<path fill="#FFFFFF" d="M155.223,138.064c0.352-0.202,0.705-0.402,1.058-0.603c0.256,0.069,0.512,0.137,0.769,0.206
				c-0.242,1.127-0.488,2.254-0.74,3.378c-0.333-0.09-0.666-0.181-0.999-0.269c-0.266-1.021-0.67-1.793-1.208-2.315
				c-0.534-0.521-1.261-0.896-2.17-1.117c-0.785-0.192-1.414-0.207-1.886-0.051c-0.471,0.157-0.753,0.426-0.851,0.811
				c-0.094,0.377-0.011,0.701,0.252,0.969c0.26,0.276,1.059,0.692,2.388,1.275c1.205,0.528,1.989,0.928,2.364,1.182
				c0.715,0.478,1.212,1.044,1.49,1.696c0.28,0.652,0.304,1.332,0.08,2.041c-0.283,0.894-0.938,1.531-1.952,1.917
				c-1.014,0.388-2.178,0.409-3.511,0.075c-0.642-0.161-1.204-0.372-1.688-0.632c-0.485-0.262-0.964-0.628-1.443-1.101
				c-0.359,0.228-0.717,0.456-1.072,0.685c-0.298-0.068-0.597-0.135-0.894-0.2c0.24-1.251,0.476-2.502,0.707-3.754
				c0.333,0.073,0.667,0.146,1,0.223c0.384,2.062,1.564,3.32,3.597,3.828c0.836,0.21,1.517,0.234,2.045,0.066
				c0.528-0.166,0.853-0.447,0.973-0.841c0.108-0.359,0.052-0.668-0.173-0.93c-0.226-0.26-0.912-0.658-2.065-1.177
				c-1.246-0.555-2.089-0.965-2.522-1.243c-0.744-0.463-1.263-0.979-1.559-1.558c-0.295-0.578-0.362-1.208-0.197-1.892
				c0.235-0.976,0.81-1.695,1.739-2.144c0.928-0.449,2.054-0.518,3.364-0.2c0.639,0.154,1.196,0.36,1.669,0.614
				C154.262,137.259,154.741,137.612,155.223,138.064z"/>
		</g>
	</g>
</g>
</svg>
