<?xml version="1.0" encoding="utf-8"?>
<!-- Generator: Adobe Illustrator 16.0.0, SVG Export Plug-In . SVG Version: 6.00 Build 0)  -->
<!DOCTYPE svg PUBLIC "-//W3C//DTD SVG 1.1//EN" "http://www.w3.org/Graphics/SVG/1.1/DTD/svg11.dtd">
<svg version="1.1" id="Livello_1" xmlns="http://www.w3.org/2000/svg" xmlns:xlink="http://www.w3.org/1999/xlink" x="0px" y="0px"
	 width="210px" height="260px" viewBox="0 0 210 260" enable-background="new 0 0 210 260" xml:space="preserve">
<circle fill="#E41815" cx="40.21" cy="59.667" r="6.378"/>
<g>
	<circle fill="#E41815" cx="167.562" cy="56.452" r="6.378"/>
	<path fill="#BC1818" d="M89.647,67.277c-1.085,3.725-4.983,5.865-8.708,4.781l-13.072-3.805c-3.725-1.084-5.865-4.982-4.781-8.709
		l3.805-13.072c1.085-3.725,4.983-5.865,8.708-4.781l13.073,3.807c3.725,1.084,5.865,4.982,4.781,8.707L89.647,67.277z"/>
	<path fill="#BC1818" d="M147.103,62.332c0.975,3.754-1.279,7.588-5.034,8.562l-13.18,3.422c-3.754,0.975-7.588-1.279-8.562-5.035
		l-3.422-13.18c-0.975-3.754,1.279-7.588,5.034-8.562l13.179-3.422c3.756-0.975,7.59,1.279,8.564,5.035L147.103,62.332z"/>
	<path fill="#E41815" d="M156.313,61.666h-25.382c-0.338-0.568-0.802-1.176-1.375-1.764L106.827,36.51
		c-1.586-1.631-3.36-2.48-3.965-1.893L75.026,61.666H49.539c-2.276,0-4.12,1.844-4.12,4.121l11.329,32.615
		c0,2.275,1.846,4.121,4.12,4.121h86.519c2.275,0,4.119-1.846,4.119-4.121l8.928-32.615
		C160.434,63.51,158.588,61.666,156.313,61.666z"/>
	<circle fill="#BC1818" cx="65.139" cy="34.432" r="5.193"/>
	<circle fill="#BC1818" cx="147.329" cy="38.458" r="5.192"/>
	<polygon fill="#E41815" points="103.688,41.793 108.932,27.912 118.795,24.645 108.932,21.381 103.688,7.5 98.444,21.381 
		88.582,24.645 98.444,27.912 	"/>
	<circle fill="#BC1818" cx="105" cy="168.5" r="84"/>
	<circle fill="#BC1818" stroke="#FFFFFF" stroke-width="5" stroke-miterlimit="10" cx="105" cy="168.5" r="75.216"/>
	<circle fill="#E41815" cx="40.21" cy="56.876" r="6.378"/>
	<g>
		<path fill="#E41815" stroke="#FFFFFF" stroke-width="2" stroke-miterlimit="10" d="M130.72,127.922
			c-9.322-1.27-16.883-0.516-25.719,7.816c-9.145-6.408-13.385-7.691-21.609-7.691c-17.674,0-33.875,21.123-29.436,46.314
			c4.494,25.488,14.258,41.336,29.436,46.316c7.49,2.457,12.465-2.479,21.92-5.572c5.426,1.605,6.344,2.68,12.896,4.6
			c14.779,4.328,34.506-16.223,37.961-41.568S148.231,130.311,130.72,127.922z"/>
		<path fill="#E41815" stroke="#FFFFFF" stroke-width="2" stroke-miterlimit="10" d="M100.269,125.31
			c-1.344-6.299-3.051-9.148-1.164-9.553c1.887-0.402,3.729,0.201,5.076,6.498c1.346,6.299,2.424,11.5,0.537,11.902
			S101.614,131.604,100.269,125.31z"/>
	</g>
	<g>
		<g>
			<path fill="#D51116" stroke="#FFFFFF" stroke-width="2" stroke-miterlimit="10" d="M194.768,209.285
				c-2.533-5.82-5.349-11.609-8.445-17.347c6.004-2.538,12.218-4.851,18.629-6.915c-63.973-26.855-136.117-26.687-199.986,0.509
				c0.04,0.094,0.08,0.188,0.12,0.282c6.617,2.096,13.024,4.457,19.21,7.059c-2.898,5.432-5.546,10.908-7.941,16.414
				C73.41,185.334,137.71,185.333,194.768,209.285L194.768,209.285L194.768,209.285z"/>
		</g>
	</g>
	<g>
		<g>
			<path fill="#FFFFFF" d="M33.505,183.247c2.068-0.656,4.138-1.282,6.211-1.881c0.062,0.199,0.118,0.399,0.181,0.598
				c-0.438,0.126-0.881,0.256-1.32,0.384c-0.282,0.084-0.48,0.213-0.594,0.383c-0.107,0.174-0.137,0.357-0.076,0.553
				c0.568,1.816,1.143,3.63,1.724,5.445c1.151-2.065,2.345-4.123,3.58-6.173c0.211-0.357,0.283-0.66,0.215-0.902
				c-0.058-0.188-0.198-0.31-0.433-0.373c-0.237-0.062-0.579-0.028-1.043,0.1c-0.124,0.035-0.254,0.07-0.377,0.106
				c-0.058-0.2-0.117-0.398-0.174-0.6c1.862-0.522,3.723-1.023,5.587-1.501c0.055,0.204,0.108,0.401,0.159,0.604
				c-0.144,0.037-0.285,0.073-0.43,0.11c-0.378,0.097-0.755,0.299-1.152,0.608c-0.392,0.311-0.729,0.688-1.014,1.13
				c-0.775,1.233-1.533,2.473-2.277,3.713c2.049,1.504,4.059,3.03,6.036,4.581c0.333,0.261,0.646,0.427,0.938,0.497
				c0.293,0.069,0.616,0.059,0.965-0.03c0.158-0.041,0.315-0.081,0.473-0.122c0.053,0.201,0.107,0.402,0.164,0.604
				c-1.936,0.491-3.87,1.01-5.803,1.552c-0.06-0.199-0.119-0.398-0.181-0.598c0.222-0.061,0.442-0.125,0.664-0.185
				c0.479-0.136,0.794-0.258,0.929-0.377c0.138-0.117,0.189-0.233,0.158-0.345c-0.028-0.101-0.094-0.191-0.194-0.276
				c-1.658-1.27-3.334-2.522-5.039-3.759c-0.487,0.857-0.976,1.72-1.45,2.58c0.308,0.961,0.617,1.923,0.928,2.884
				c0.059,0.18,0.159,0.294,0.304,0.344c0.229,0.07,0.47,0.069,0.724-0.007c0.417-0.123,0.834-0.247,1.253-0.366
				c0.06,0.199,0.126,0.396,0.188,0.596c-1.955,0.568-3.912,1.16-5.863,1.782c-0.065-0.197-0.137-0.395-0.204-0.592
				c0.375-0.12,0.753-0.238,1.131-0.356c0.289-0.09,0.486-0.211,0.588-0.361c0.104-0.151,0.128-0.312,0.067-0.488
				c-1.033-3.109-2.061-6.221-3.066-9.335c-0.062-0.186-0.19-0.305-0.387-0.355c-0.194-0.052-0.496-0.017-0.884,0.105
				c-0.336,0.104-0.669,0.21-1.006,0.316C33.636,183.642,33.569,183.445,33.505,183.247z"/>
			<path fill="#FFFFFF" d="M48.988,183.521c1.115-0.313,2.229-0.618,3.348-0.914c0.535,2.165,1.08,4.33,1.627,6.492
				c0.046,0.18,0.122,0.295,0.235,0.347c0.163,0.076,0.346,0.087,0.549,0.04c0.308-0.072,0.619-0.144,0.925-0.215
				c0.051,0.201,0.099,0.403,0.148,0.604c-1.548,0.357-3.096,0.729-4.643,1.121c-0.05-0.199-0.11-0.4-0.163-0.602
				c0.29-0.074,0.576-0.145,0.864-0.217c0.251-0.062,0.43-0.166,0.518-0.312c0.092-0.145,0.104-0.327,0.047-0.547
				c-0.41-1.581-0.821-3.161-1.227-4.743c-0.081-0.302-0.228-0.505-0.461-0.61c-0.232-0.105-0.534-0.11-0.916-0.017
				c-0.229,0.058-0.461,0.115-0.692,0.173C49.092,183.921,49.042,183.722,48.988,183.521z M50.205,178.44
				c0.273-0.067,0.543-0.032,0.795,0.099c0.256,0.134,0.411,0.321,0.474,0.569c0.059,0.243,0.009,0.477-0.148,0.702
				c-0.162,0.225-0.378,0.369-0.659,0.438c-0.277,0.068-0.544,0.038-0.795-0.091c-0.248-0.128-0.407-0.315-0.467-0.556
				c-0.061-0.24-0.01-0.479,0.15-0.713C49.715,178.655,49.935,178.506,50.205,178.44z"/>
			<path fill="#FFFFFF" d="M54.979,182.088c0.923-0.264,1.852-0.518,2.779-0.771c0.219,0.451,0.424,0.988,0.623,1.616
				c0.253-0.632,0.612-1.14,1.067-1.521c0.457-0.383,1.015-0.64,1.665-0.768c0.563-0.111,1.051-0.105,1.472,0.021
				c0.417,0.124,0.788,0.383,1.099,0.766c0.313,0.387,0.52,0.847,0.622,1.378c0.238,1.238,0.484,2.477,0.727,3.714
				c0.054,0.277,0.159,0.459,0.319,0.553c0.154,0.093,0.395,0.108,0.707,0.051c0.192-0.035,0.385-0.07,0.579-0.104
				c0.037,0.204,0.079,0.406,0.116,0.61c-1.438,0.26-2.881,0.533-4.318,0.82c-0.041-0.203-0.087-0.408-0.129-0.609
				c0.139-0.026,0.274-0.055,0.411-0.082c0.387-0.076,0.646-0.184,0.773-0.328c0.126-0.145,0.168-0.33,0.122-0.557
				c-0.219-1.088-0.439-2.175-0.662-3.262c-0.145-0.709-0.368-1.213-0.678-1.509c-0.433-0.423-0.99-0.564-1.68-0.427
				c-0.684,0.137-1.196,0.5-1.542,1.086c-0.345,0.587-0.427,1.275-0.25,2.062c0.208,0.938,0.418,1.875,0.629,2.812
				c0.062,0.274,0.173,0.455,0.336,0.543c0.165,0.087,0.404,0.096,0.718,0.032c0.193-0.041,0.379-0.079,0.57-0.118
				c0.04,0.204,0.088,0.406,0.132,0.607c-1.442,0.298-2.887,0.608-4.329,0.935c-0.051-0.202-0.096-0.405-0.145-0.606
				c0.187-0.043,0.376-0.086,0.568-0.128c0.289-0.062,0.489-0.166,0.613-0.305c0.126-0.14,0.166-0.293,0.129-0.454
				c-0.378-1.631-0.758-3.264-1.127-4.895c-0.073-0.322-0.23-0.547-0.459-0.672c-0.234-0.124-0.535-0.146-0.902-0.063
				c-0.145,0.032-0.289,0.064-0.434,0.098C55.062,182.439,55.018,182.265,54.979,182.088z"/>
			<path fill="#FFFFFF" d="M72.884,179.204c0.519-0.641,1.038-0.997,1.548-1.067c0.303-0.043,0.566,0.01,0.791,0.157
				c0.229,0.147,0.352,0.349,0.389,0.601c0.029,0.204-0.017,0.379-0.132,0.532c-0.12,0.152-0.265,0.241-0.446,0.267
				c-0.339,0.048-0.602-0.113-0.779-0.477c-0.072-0.158-0.166-0.227-0.279-0.213c-0.208,0.029-0.408,0.183-0.614,0.466
				c0.305,0.286,0.527,0.538,0.655,0.765c0.135,0.224,0.217,0.471,0.258,0.746c0.07,0.475,0.006,0.913-0.189,1.312
				c-0.196,0.398-0.561,0.782-1.095,1.146c-0.535,0.364-1.065,0.588-1.59,0.671c-0.321,0.05-0.644,0.104-0.966,0.153
				c-0.688,0.109-1.13,0.253-1.33,0.421c-0.202,0.173-0.277,0.391-0.23,0.652c0.037,0.213,0.155,0.36,0.358,0.445
				c0.203,0.082,0.554,0.083,1.062,0c0.72-0.132,1.443-0.26,2.166-0.384c1.1-0.168,1.915-0.111,2.453,0.162
				c0.535,0.274,0.846,0.71,0.931,1.306c0.097,0.655-0.096,1.247-0.571,1.772c-0.664,0.741-1.731,1.222-3.226,1.458
				c-1.235,0.196-2.19,0.135-2.866-0.191c-0.534-0.257-0.842-0.593-0.919-1.013c-0.058-0.321,0.038-0.641,0.296-0.96
				s0.735-0.607,1.436-0.856c-0.6-0.033-1.071-0.155-1.409-0.355c-0.341-0.205-0.545-0.493-0.61-0.868
				c-0.063-0.352,0.001-0.671,0.193-0.973c0.191-0.3,0.57-0.592,1.128-0.876c-0.543-0.173-0.983-0.417-1.303-0.734
				c-0.319-0.32-0.522-0.712-0.606-1.18c-0.132-0.74,0.076-1.419,0.636-2.026c0.554-0.61,1.356-0.998,2.392-1.162
				c0.424-0.066,0.842-0.074,1.252-0.025C72.072,178.926,72.481,179.034,72.884,179.204z M72.208,186.729
				c-1.073,0.168-1.818,0.432-2.226,0.785c-0.408,0.354-0.576,0.729-0.506,1.119c0.064,0.369,0.293,0.634,0.668,0.788
				c0.497,0.21,1.164,0.245,1.994,0.114c0.988-0.156,1.709-0.421,2.163-0.808c0.455-0.384,0.654-0.769,0.596-1.151
				c-0.038-0.224-0.141-0.421-0.332-0.593c-0.187-0.172-0.464-0.281-0.817-0.333C73.39,186.603,72.875,186.625,72.208,186.729z
				 M70.48,179.428c-0.539,0.084-0.955,0.334-1.242,0.749c-0.289,0.412-0.376,0.943-0.267,1.585
				c0.118,0.686,0.379,1.189,0.792,1.513c0.41,0.321,0.88,0.442,1.411,0.357c0.534-0.084,0.938-0.333,1.224-0.756
				c0.285-0.419,0.372-0.974,0.268-1.662c-0.1-0.64-0.353-1.119-0.763-1.437C71.492,179.46,71.018,179.343,70.48,179.428z"/>
			<path fill="#FFFFFF" d="M85.445,177.028c1.149-0.105,2.142,0.19,2.982,0.879c0.836,0.691,1.295,1.654,1.391,2.882
				c0.063,0.849-0.049,1.586-0.341,2.208c-0.296,0.623-0.735,1.134-1.329,1.533c-0.596,0.398-1.246,0.631-1.966,0.697
				c-1.062,0.101-2.003-0.191-2.827-0.872c-0.827-0.679-1.312-1.622-1.45-2.83c-0.136-1.215,0.128-2.241,0.815-3.08
				C83.409,177.606,84.316,177.132,85.445,177.028z M85.501,177.614c-0.679,0.063-1.207,0.396-1.584,0.997
				c-0.376,0.601-0.501,1.503-0.372,2.707c0.127,1.227,0.438,2.102,0.916,2.624c0.479,0.526,1.049,0.755,1.709,0.695
				c0.683-0.065,1.218-0.395,1.59-0.999c0.378-0.603,0.515-1.548,0.404-2.836c-0.103-1.195-0.385-2.043-0.865-2.54
				C86.822,177.766,86.223,177.546,85.501,177.614z"/>
			<path fill="#FFFFFF" d="M93.668,176.649c0.707-0.039,1.418-0.077,2.127-0.111c0.011,0.24,0.021,0.48,0.035,0.721
				c-0.708,0.032-1.41,0.07-2.12,0.11c0.106,1.887,0.22,3.773,0.331,5.66c0.014,0.258,0.09,0.438,0.225,0.535
				c0.184,0.127,0.438,0.186,0.752,0.165c0.375-0.019,0.752-0.038,1.127-0.055c0.011,0.206,0.023,0.415,0.031,0.62
				c-1.681,0.081-3.36,0.18-5.039,0.297c-0.015-0.205-0.033-0.413-0.045-0.621c0.232-0.016,0.463-0.031,0.693-0.047
				c0.311-0.021,0.524-0.084,0.642-0.19c0.12-0.107,0.169-0.265,0.157-0.476c-0.13-1.933-0.253-3.865-0.379-5.798
				c-0.487,0.031-0.979,0.062-1.469,0.098c-0.019-0.239-0.034-0.48-0.051-0.72c0.49-0.034,0.982-0.068,1.473-0.098
				c-0.012-0.196-0.023-0.392-0.037-0.587c-0.09-1.364,0.16-2.428,0.749-3.183c0.592-0.757,1.358-1.16,2.298-1.207
				c0.697-0.032,1.25,0.096,1.656,0.381c0.401,0.286,0.617,0.677,0.635,1.168c0.014,0.318-0.068,0.578-0.249,0.77
				c-0.183,0.192-0.406,0.297-0.7,0.308c-0.258,0.01-0.471-0.052-0.648-0.194c-0.174-0.142-0.268-0.326-0.279-0.551
				c-0.014-0.259,0.087-0.478,0.302-0.654c0.171-0.14,0.257-0.244,0.254-0.309c-0.003-0.096-0.08-0.178-0.219-0.248
				c-0.142-0.071-0.353-0.101-0.63-0.086c-0.52,0.026-0.953,0.256-1.289,0.692c-0.34,0.438-0.479,1.065-0.432,1.888
				C93.599,175.502,93.636,176.076,93.668,176.649z"/>
			<path fill="#FFFFFF" d="M104.347,173.121c0.206-0.002,0.41-0.005,0.616-0.006c0.01,1.054,0.016,2.109,0.026,3.166
				c0.919-0.011,1.838-0.011,2.757-0.007c-0.003,0.254-0.005,0.51-0.002,0.763c-0.917-0.003-1.834-0.001-2.749,0.007
				c0.015,1.66,0.03,3.32,0.043,4.981c0.004,0.43,0.114,0.76,0.335,0.987c0.224,0.228,0.497,0.341,0.832,0.341
				c0.398-0.001,0.738-0.176,1.021-0.524c0.283-0.347,0.449-0.921,0.503-1.723c0.199,0.001,0.397,0.002,0.595,0.003
				c-0.043,1.033-0.297,1.798-0.763,2.298c-0.468,0.497-1.065,0.749-1.801,0.751c-0.681,0.003-1.214-0.168-1.603-0.512
				c-0.39-0.346-0.586-0.802-0.598-1.372c-0.027-1.737-0.055-3.476-0.08-5.214c-0.491,0.008-0.982,0.016-1.476,0.026
				c-0.001-0.191-0.01-0.385-0.013-0.579c0.673-0.118,1.184-0.384,1.531-0.799C104.035,175.089,104.314,174.23,104.347,173.121z"/>
			<path fill="#FFFFFF" d="M109.208,171.792c1.101-0.037,2.194-0.065,3.294-0.087c-0.048,1.994-0.095,3.988-0.141,5.982
				c0.46-0.521,0.953-0.902,1.475-1.15c0.521-0.247,1.075-0.36,1.65-0.339c0.545,0.019,1.033,0.157,1.458,0.414
				c0.335,0.202,0.607,0.543,0.823,1.024c0.213,0.481,0.303,1.039,0.274,1.682c-0.063,1.227-0.124,2.455-0.184,3.684
				c-0.013,0.237,0.039,0.413,0.169,0.525c0.124,0.115,0.322,0.18,0.598,0.193c0.236,0.012,0.47,0.024,0.706,0.036
				c-0.015,0.207-0.026,0.416-0.036,0.622c-1.483-0.081-2.961-0.148-4.443-0.2c0.006-0.207,0.014-0.414,0.022-0.621
				c0.164,0.006,0.327,0.01,0.491,0.018c0.376,0.017,0.639-0.032,0.788-0.14c0.147-0.106,0.23-0.272,0.238-0.5
				c0.053-1.229,0.106-2.456,0.159-3.685c0.027-0.646-0.121-1.157-0.447-1.532c-0.326-0.376-0.755-0.573-1.287-0.59
				c-0.415-0.015-0.809,0.076-1.17,0.27s-0.672,0.496-0.931,0.908c-0.257,0.408-0.39,0.848-0.402,1.311
				c-0.023,1.034-0.048,2.067-0.075,3.102c-0.006,0.277,0.055,0.471,0.171,0.592c0.124,0.119,0.325,0.182,0.604,0.189
				c0.235,0.006,0.472,0.013,0.707,0.019c-0.007,0.208-0.014,0.417-0.021,0.622c-1.45-0.045-2.899-0.072-4.35-0.089
				c0-0.207,0.006-0.413,0.007-0.622c0.162,0.001,0.329,0.006,0.494,0.007c0.334,0.003,0.574-0.054,0.716-0.177
				c0.144-0.121,0.219-0.312,0.222-0.57c0.054-3.088,0.109-6.178,0.162-9.266c0.005-0.332-0.082-0.58-0.276-0.747
				c-0.195-0.165-0.474-0.253-0.844-0.256c-0.209-0.003-0.419-0.005-0.628-0.007C109.207,172.206,109.208,172,109.208,171.792z"/>
			<path fill="#FFFFFF" d="M128.375,181.213c-1.994-0.186-3.994-0.347-5.994-0.482c-0.052,1.182,0.13,2.03,0.533,2.547
				c0.466,0.579,1.085,0.901,1.865,0.961c1.147,0.091,2.123-0.44,2.948-1.603c0.183,0.095,0.371,0.189,0.554,0.284
				c-1.018,1.481-2.316,2.15-3.93,2.026c-1.098-0.087-1.998-0.524-2.699-1.322c-0.706-0.799-1.028-1.782-0.954-2.95
				c0.076-1.255,0.518-2.254,1.334-2.978c0.815-0.726,1.789-1.046,2.911-0.96c0.827,0.062,1.521,0.315,2.089,0.752
				c0.566,0.438,0.965,1.031,1.196,1.78C128.391,179.794,128.44,180.441,128.375,181.213z M122.422,180.143
				c1.212,0.083,2.426,0.172,3.638,0.274c0.212,0.018,0.389-0.035,0.52-0.16c0.128-0.124,0.212-0.348,0.241-0.673
				c0.052-0.605-0.105-1.139-0.484-1.598c-0.379-0.458-0.846-0.712-1.412-0.753c-0.632-0.05-1.185,0.169-1.657,0.649
				C122.79,178.366,122.512,179.121,122.422,180.143z"/>
			<path fill="#FFFFFF" d="M135.116,177.977c1.247,0.15,2.488,0.311,3.733,0.482c-0.027,0.188-0.052,0.378-0.08,0.567
				c-0.164-0.023-0.328-0.047-0.49-0.067c-0.238-0.032-0.414-0.021-0.529,0.033c-0.113,0.055-0.178,0.142-0.193,0.255
				c-0.012,0.122-0.003,0.253,0.04,0.398c0.439,1.534,0.86,3.072,1.268,4.61c0.743-1.301,1.492-2.598,2.254-3.891
				c-0.164-0.477-0.323-0.778-0.483-0.912c-0.159-0.133-0.462-0.229-0.9-0.293c0.027-0.189,0.055-0.378,0.082-0.566
				c1.373,0.193,2.742,0.4,4.109,0.618c-0.031,0.188-0.06,0.376-0.092,0.565c-0.117-0.018-0.229-0.036-0.347-0.055
				c-0.312-0.049-0.535-0.049-0.664,0.009c-0.13,0.055-0.204,0.148-0.226,0.28c-0.021,0.099-0.006,0.217,0.025,0.355
				c0.41,1.547,0.805,3.093,1.184,4.641c0.719-1.202,1.447-2.402,2.176-3.599c0.148-0.239,0.238-0.448,0.27-0.628
				s-0.021-0.334-0.16-0.456c-0.139-0.125-0.428-0.233-0.857-0.32c0.033-0.188,0.064-0.377,0.097-0.565
				c1.104,0.185,2.204,0.374,3.306,0.573c-0.035,0.186-0.069,0.374-0.104,0.562c-0.42-0.015-0.755,0.047-0.995,0.179
				c-0.24,0.138-0.467,0.367-0.674,0.696c-1.186,1.918-2.354,3.846-3.501,5.779c-0.171-0.027-0.343-0.057-0.514-0.083
				c-0.467-1.909-0.952-3.819-1.462-5.728c-0.983,1.685-1.952,3.372-2.906,5.069c-0.168-0.024-0.34-0.048-0.508-0.072
				c-0.649-2.399-1.336-4.8-2.059-7.196c-0.068-0.227-0.154-0.385-0.269-0.474s-0.312-0.156-0.601-0.201
				C135.069,178.355,135.088,178.166,135.116,177.977z"/>
			<path fill="#FFFFFF" d="M156.774,185.659c-1.987-0.438-3.979-0.85-5.969-1.233c-0.203,1.166-0.137,2.028,0.202,2.594
				c0.396,0.635,0.975,1.029,1.753,1.189c1.146,0.234,2.197-0.168,3.175-1.221c0.174,0.118,0.344,0.234,0.521,0.353
				c-1.219,1.34-2.615,1.845-4.222,1.515c-1.092-0.221-1.938-0.771-2.539-1.651c-0.604-0.881-0.798-1.897-0.574-3.047
				c0.239-1.237,0.811-2.169,1.723-2.786c0.911-0.617,1.934-0.815,3.053-0.587c0.821,0.167,1.491,0.505,2.005,1.01
				s0.838,1.145,0.975,1.916C156.97,184.253,156.936,184.904,156.774,185.659z M150.923,183.848
				c1.208,0.234,2.415,0.478,3.623,0.729c0.215,0.045,0.396,0.015,0.542-0.094c0.15-0.106,0.256-0.32,0.329-0.638
				c0.134-0.595,0.042-1.143-0.279-1.645c-0.318-0.504-0.765-0.812-1.326-0.927c-0.625-0.128-1.213,0.02-1.751,0.438
				C151.521,182.129,151.145,182.842,150.923,183.848z"/>
			<path fill="#FFFFFF" d="M165.864,187.852c-1.982-0.52-3.966-1.013-5.954-1.478c-0.261,1.156-0.219,2.022,0.098,2.599
				c0.369,0.648,0.934,1.071,1.711,1.262c1.14,0.281,2.215-0.081,3.247-1.088c0.17,0.124,0.337,0.249,0.509,0.373
				c-1.279,1.29-2.714,1.733-4.312,1.34c-1.092-0.268-1.913-0.85-2.483-1.756c-0.571-0.905-0.724-1.928-0.45-3.067
				c0.295-1.228,0.906-2.134,1.85-2.715c0.943-0.58,1.979-0.735,3.095-0.462c0.816,0.201,1.485,0.566,1.976,1.092
				c0.497,0.526,0.796,1.179,0.902,1.957C166.125,186.452,166.063,187.103,165.864,187.852z M160.052,185.801
				c1.205,0.282,2.41,0.574,3.614,0.877c0.215,0.054,0.395,0.031,0.552-0.07c0.154-0.102,0.274-0.31,0.358-0.624
				c0.159-0.59,0.086-1.141-0.215-1.657c-0.3-0.515-0.734-0.842-1.292-0.979c-0.632-0.153-1.221-0.032-1.782,0.364
				C160.729,184.107,160.318,184.806,160.052,185.801z"/>
			<path fill="#FFFFFF" d="M169.294,180.02c1.112,0.249,2.222,0.504,3.337,0.769c-0.799,2.719-1.604,5.435-2.425,8.149
				c1.112-0.45,2.231-0.894,3.36-1.327c0.327-0.129,0.519-0.27,0.563-0.422c0.04-0.131-0.003-0.258-0.134-0.378
				c-0.201-0.173-0.562-0.342-1.086-0.507c0.059-0.184,0.113-0.37,0.172-0.557c1.498,0.436,3,0.886,4.495,1.352
				c-0.06,0.185-0.124,0.369-0.184,0.553c-0.901-0.232-1.644-0.233-2.228-0.004c-0.803,0.311-1.606,0.623-2.401,0.94
				c0.639,1.573,1.253,3.152,1.847,4.729c0.109,0.285,0.395,0.496,0.852,0.639c0.15,0.048,0.302,0.095,0.453,0.143
				c-0.067,0.198-0.136,0.395-0.202,0.593c-1.48-0.468-2.962-0.917-4.443-1.352c0.062-0.198,0.126-0.397,0.189-0.596
				c0.149,0.044,0.298,0.088,0.444,0.13c0.331,0.1,0.564,0.139,0.691,0.12c0.129-0.02,0.208-0.063,0.231-0.14
				c0.026-0.073,0.019-0.155-0.018-0.247c-0.434-1.166-0.885-2.331-1.347-3.494c-0.501,0.204-1,0.407-1.494,0.614
				c-0.189,0.629-0.38,1.257-0.572,1.887c-0.049,0.153-0.027,0.283,0.062,0.389c0.124,0.146,0.33,0.259,0.607,0.337
				c0.19,0.056,0.38,0.109,0.566,0.163c-0.062,0.199-0.122,0.397-0.186,0.597c-1.46-0.421-2.914-0.826-4.374-1.219
				c0.059-0.2,0.115-0.398,0.175-0.599c0.235,0.063,0.47,0.126,0.705,0.189c0.293,0.079,0.522,0.083,0.694,0.009
				c0.175-0.075,0.288-0.202,0.344-0.39c0.909-3.072,1.809-6.147,2.691-9.225c0.067-0.238,0.03-0.438-0.115-0.599
				c-0.212-0.229-0.535-0.403-0.969-0.52c-0.158-0.044-0.313-0.085-0.471-0.126C169.184,180.42,169.238,180.221,169.294,180.02z"/>
		</g>
	</g>
</g>
</svg>
