<?xml version="1.0" encoding="utf-8"?>
<!-- Generator: Adobe Illustrator 16.0.0, SVG Export Plug-In . SVG Version: 6.00 Build 0)  -->
<!DOCTYPE svg PUBLIC "-//W3C//DTD SVG 1.1//EN" "http://www.w3.org/Graphics/SVG/1.1/DTD/svg11.dtd">
<svg version="1.1" id="Livello_1" xmlns="http://www.w3.org/2000/svg" xmlns:xlink="http://www.w3.org/1999/xlink" x="0px" y="0px"
	 width="230px" height="200px" viewBox="0 0 230 200" enable-background="new 0 0 230 200" xml:space="preserve">
<g>
	<circle fill="#E41815" cx="114.706" cy="96.866" r="82.153"/>
	<g>
		<path fill="#BC1818" d="M101.276,24.818c-7.636,1.502-14.855,4.16-21.471,7.785l20.293,42.713h1.809l10.135-27.842L101.276,24.818
			z"/>
		<polygon fill="#BC1818" points="112.042,47.475 101.907,75.316 125.269,75.316 		"/>
	</g>
	<path fill="#C0C0C0" d="M116.018,88.373c-9.468,0-17.142-4.691-17.142-10.48c0-5.791,7.674-10.482,17.142-10.482
		c9.469,0,17.142,4.691,17.142,10.482C133.159,83.682,125.486,88.373,116.018,88.373z M116.018,63.219
		c-13.251,0-23.999,6.57-23.999,14.674s10.748,14.674,23.999,14.674s23.999-6.57,23.999-14.674S129.269,63.219,116.018,63.219z"/>
	<path fill="#D51116" d="M120.747,23.553l-8.705,23.922l-10.135,27.842l-0.213,0.584h25.169l17.136-47.076
		C136.74,25.898,128.922,24.074,120.747,23.553z"/>
	<g>
		<path fill="#C0C0C0" d="M115.291,81.08c-21.521,0-38.973,17.572-38.973,39.238s17.452,39.238,38.973,39.238
			c21.52,0,38.974-17.572,38.974-39.238S136.811,81.08,115.291,81.08z M115.291,148.346c-15.376,0-27.838-12.547-27.838-28.027
			s12.462-28.027,27.838-28.027c15.377,0,27.838,12.547,27.838,28.027S130.668,148.346,115.291,148.346z"/>
		<g>
			<path fill="#9A9898" d="M115.299,81.229c0,0-0.958,0.046-2.756,0.132c-0.447,0.034-0.955,0.019-1.499,0.1
				c-0.543,0.082-1.137,0.172-1.778,0.269c-0.64,0.109-1.336,0.175-2.062,0.338c-0.722,0.188-1.488,0.389-2.297,0.601
				c-3.197,0.929-7.064,2.378-10.888,5.059C90.188,90.342,86.285,94,83.226,98.818c-3.036,4.809-5.27,10.696-5.952,17.149
				c-0.113,0.802-0.083,1.623-0.132,2.441c-0.008,0.808-0.117,1.671-0.041,2.446c0.118,1.681,0.117,3.432,0.46,5.061
				c0.417,3.327,1.525,6.682,2.894,9.9c0.385,0.791,0.771,1.584,1.16,2.381s0.91,1.524,1.359,2.295l0.7,1.143
				c0.25,0.371,0.535,0.719,0.802,1.081c0.549,0.71,1.064,1.451,1.645,2.143c2.35,2.752,5.115,5.176,8.148,7.255
				c3.085,2.014,6.477,3.559,10.016,4.678c3.543,1.044,7.348,1.504,10.946,1.567c3.927-0.134,7.438-0.652,11.013-1.75
				c3.502-1.175,6.84-2.767,9.859-4.812c2.969-2.109,5.649-4.556,7.934-7.293c2.196-2.8,4.106-5.78,5.459-8.967
				c1.332-3.176,2.406-6.438,2.808-9.749c0.334-1.637,0.319-3.293,0.431-4.917l0.031-0.536l-0.023-0.631l-0.047-1.257
				c-0.05-0.823-0.021-1.692-0.134-2.461c-0.108-0.772-0.215-1.539-0.321-2.3c-0.06-0.381-0.089-0.762-0.171-1.141l-0.269-1.132
				c-0.175-0.754-0.349-1.502-0.521-2.244c-0.22-0.729-0.481-1.439-0.717-2.152c-0.94-2.855-2.279-5.455-3.696-7.874
				c-2.954-4.783-6.746-8.463-10.497-11.126c-3.742-2.726-7.563-4.231-10.733-5.207c-0.804-0.224-1.564-0.435-2.28-0.634
				c-0.723-0.174-1.418-0.248-2.056-0.365c-0.64-0.105-1.232-0.203-1.775-0.293c-0.543-0.089-1.045-0.079-1.491-0.119
				c-1.788-0.11-2.742-0.169-2.742-0.169L115.299,81.229z M115.291,80.93c0,0,0.963,0.039,2.768,0.111
				c0.45,0.031,0.959,0.011,1.509,0.089c0.55,0.079,1.15,0.165,1.8,0.257c0.646,0.105,1.353,0.166,2.087,0.326
				c0.732,0.176,1.51,0.363,2.331,0.561c3.248,0.882,7.198,2.239,11.216,4.791c4.011,2.518,8.173,6.099,11.58,10.941
				c3.391,4.857,5.976,10.864,6.858,17.789c0.139,0.86,0.128,1.662,0.2,2.504l0.08,1.255l0.039,0.631
				c-0.001-0.041,0.008,0.144,0.005,0.155l-0.004,0.082l-0.007,0.164l-0.016,0.328c-0.101,1.752-0.082,3.538-0.422,5.31
				c-0.414,3.579-1.537,7.121-2.96,10.571c-0.407,0.842-0.817,1.687-1.229,2.535c-0.412,0.848-0.96,1.625-1.438,2.444l-0.744,1.217
				c-0.265,0.395-0.565,0.767-0.848,1.152c-0.582,0.757-1.131,1.545-1.747,2.281c-2.487,2.939-5.44,5.511-8.672,7.718
				c-3.285,2.139-6.899,3.782-10.671,4.965c-3.762,1.106-7.906,1.605-11.654,1.647l-3.022-0.169
				c-0.99-0.018-1.964-0.195-2.938-0.355l-1.461-0.235l-0.73-0.119l-0.715-0.189l-2.854-0.762
				c-3.734-1.237-7.295-2.927-10.515-5.098c-3.168-2.237-6.036-4.831-8.458-7.755c-0.599-0.734-1.13-1.52-1.694-2.272
				c-0.273-0.383-0.565-0.753-0.821-1.146l-0.718-1.207c-0.46-0.813-0.991-1.584-1.386-2.423c-0.395-0.84-0.787-1.676-1.179-2.508
				c-1.386-3.407-2.476-6.856-2.874-10.419c-0.33-1.781-0.298-3.471-0.394-5.166c-0.007-0.229-0.022-0.384-0.021-0.672l0.039-0.643
				l0.079-1.279c0.072-0.847,0.064-1.696,0.201-2.524c0.869-6.665,3.318-12.68,6.601-17.481c3.302-4.809,7.353-8.411,11.282-10.976
				c3.938-2.598,7.841-4.012,11.062-4.94c0.815-0.209,1.588-0.407,2.314-0.594c0.73-0.17,1.435-0.24,2.08-0.354
				c0.647-0.102,1.247-0.195,1.796-0.281c0.55-0.086,1.053-0.072,1.501-0.109c1.797-0.097,2.755-0.147,2.755-0.147L115.291,80.93z"
				/>
			<path fill="#9A9898" d="M115.283,148.495c0,0-0.685-0.037-1.968-0.108c-0.32-0.026-0.68-0.017-1.072-0.078
				c-0.394-0.062-0.822-0.13-1.286-0.203c-0.462-0.081-0.966-0.133-1.488-0.254c-0.52-0.133-1.072-0.274-1.655-0.424
				c-2.305-0.662-5.099-1.667-7.928-3.511c-2.821-1.824-5.736-4.39-8.129-7.823c-2.38-3.43-4.158-7.744-4.806-12.535
				c-0.102-0.596-0.099-1.206-0.153-1.815c-0.021-0.623-0.127-1.199-0.077-1.873c0.064-1.214,0.036-2.412,0.271-3.706
				c0.282-2.578,1.057-5.056,2.05-7.517c1.025-2.449,2.479-4.745,4.159-6.899c1.74-2.113,3.804-3.99,6.086-5.611
				c2.32-1.572,4.888-2.8,7.583-3.7c1.371-0.371,2.739-0.781,4.159-0.954c0.704-0.118,1.407-0.247,2.123-0.263l2.201-0.127
				c2.651,0.017,5.702,0.37,8.417,1.161c2.731,0.846,5.354,2.026,7.738,3.567c2.347,1.59,4.495,3.444,6.3,5.573
				c1.75,2.164,3.277,4.484,4.367,6.975c1.029,2.504,1.838,5.074,2.135,7.669c0.244,1.284,0.23,2.579,0.301,3.849l0.01,0.238
				l0.006,0.118l0.002,0.06l-0.004,0.133l-0.03,0.45l-0.062,0.896c-0.055,0.604-0.05,1.167-0.152,1.795
				c-0.661,5.051-2.576,9.357-5.063,12.843c-2.499,3.469-5.524,6.012-8.427,7.789c-2.91,1.798-5.75,2.746-8.081,3.361
				c-0.589,0.138-1.147,0.268-1.673,0.39c-0.525,0.112-1.031,0.154-1.495,0.228c-0.465,0.064-0.895,0.124-1.289,0.178
				c-0.394,0.055-0.758,0.039-1.08,0.06c-1.292,0.046-1.98,0.071-1.98,0.071L115.283,148.495z M115.291,148.195
				c0,0,0.681-0.045,1.955-0.129c0.317-0.029,0.677-0.024,1.063-0.089c0.387-0.065,0.809-0.138,1.265-0.214
				c0.454-0.086,0.949-0.142,1.463-0.267c0.509-0.146,1.05-0.3,1.622-0.464c2.254-0.71,4.965-1.806,7.599-3.777
				c2.643-1.923,5.299-4.565,7.343-7.974c0.982-1.723,1.897-3.571,2.544-5.59c0.161-0.504,0.341-1.006,0.491-1.521
				c0.116-0.524,0.233-1.053,0.352-1.585c0.295-1.063,0.337-2.124,0.514-3.201c0.076-0.536,0.054-1.167,0.085-1.752l0.029-0.897
				l0.015-0.451c0.002-0.086,0,0.053-0.002,0.02l-0.003-0.054l-0.007-0.107l-0.012-0.214c-0.082-1.142-0.071-2.307-0.309-3.457
				c-0.285-2.327-1.045-4.617-1.982-6.847c-0.945-2.24-2.282-4.338-3.821-6.311c-1.603-1.927-3.478-3.656-5.562-5.149
				c-2.119-1.446-4.464-2.575-6.928-3.413c-2.525-0.782-4.943-1.154-7.774-1.264c-2.503,0.038-5.214,0.353-7.709,1.081
				c-2.5,0.782-4.899,1.865-7.084,3.28c-2.147,1.463-4.108,3.17-5.775,5.111c-1.608,1.982-3.02,4.104-4.028,6.386
				c-0.975,2.272-1.769,4.654-2.068,6.998c-0.246,1.142-0.251,2.401-0.338,3.6c-0.055,0.534,0.019,1.157,0.021,1.727
				c0.032,0.58,0.007,1.163,0.085,1.732c0.46,4.579,2.023,8.768,4.157,12.203c2.15,3.443,4.917,6.064,7.641,7.939
				c2.714,1.927,5.472,2.967,7.752,3.63c0.578,0.151,1.124,0.294,1.639,0.429c0.518,0.116,1.015,0.162,1.471,0.239
				c0.457,0.068,0.88,0.132,1.268,0.189s0.751,0.046,1.07,0.07c1.284,0.06,1.969,0.092,1.969,0.092L115.291,148.195z"/>
		</g>
	</g>
	<g>
		<circle fill="#C0C0C0" cx="115.291" cy="120.039" r="30.438"/>
		<path fill="#8C8C8C" d="M145.878,120.047c0,0-0.031,0.746-0.092,2.145c-0.024,0.351-0.012,0.741-0.07,1.171
			c-0.062,0.429-0.131,0.897-0.203,1.404c-0.086,0.505-0.129,1.058-0.239,1.634c-0.131,0.571-0.271,1.179-0.418,1.82
			c-0.075,0.322-0.153,0.652-0.231,0.99c-0.111,0.329-0.225,0.667-0.342,1.012c-0.238,0.688-0.422,1.439-0.736,2.172
			c-0.318,0.735-0.648,1.5-0.992,2.293c-0.391,0.77-0.833,1.552-1.274,2.373c-1.901,3.182-4.622,6.55-8.419,9.273
			c-3.784,2.71-8.646,4.66-13.977,5.239c-0.664,0.091-1.342,0.064-2.018,0.102l-1.019,0.031l-0.511,0.016l-0.127-0.001l-0.061-0.005
			l-0.123-0.009l-0.247-0.017c-1.319-0.122-2.616-0.159-4.045-0.479c-2.826-0.438-5.487-1.411-8.101-2.622
			c-2.607-1.233-4.982-2.954-7.234-4.822c-2.196-1.95-4.152-4.189-5.845-6.648c-1.65-2.491-2.946-5.229-3.927-8.097
			c-0.951-2.903-1.439-5.878-1.595-9.027c-0.038-2.921,0.264-6.144,1.056-9.108c0.879-2.957,2.109-5.811,3.748-8.41
			c1.688-2.562,3.699-4.887,5.981-6.867c2.325-1.918,4.821-3.603,7.515-4.807c2.687-1.188,5.481-2.084,8.301-2.431
			c1.396-0.274,2.805-0.274,4.188-0.354l0.26-0.01l0.129-0.005L115.275,88l0.144,0.005l0.49,0.029l0.977,0.06
			c0.66,0.056,1.271,0.044,1.958,0.154c1.354,0.24,2.746,0.363,3.985,0.758c0.633,0.17,1.26,0.338,1.883,0.506
			c0.609,0.208,1.199,0.459,1.791,0.684c1.199,0.415,2.285,1.034,3.374,1.578c0.556,0.253,1.047,0.611,1.548,0.936
			c0.498,0.327,0.991,0.652,1.479,0.974c3.789,2.753,6.504,6.129,8.4,9.318c1.928,3.201,2.909,6.31,3.571,8.851
			c0.146,0.643,0.285,1.251,0.416,1.823c0.108,0.575,0.151,1.126,0.234,1.63c0.072,0.506,0.139,0.974,0.199,1.402
			c0.058,0.429,0.045,0.824,0.067,1.176c0.057,1.406,0.086,2.156,0.086,2.156V120.047z M145.579,120.039
			c0,0-0.046-0.742-0.131-2.133c-0.03-0.346-0.024-0.737-0.091-1.159c-0.069-0.423-0.145-0.883-0.227-1.381
			c-0.086-0.497-0.154-1.036-0.296-1.596c-0.158-0.555-0.328-1.145-0.507-1.769c-0.761-2.462-1.997-5.404-4.147-8.264
			c-2.104-2.874-5.013-5.709-8.684-7.956c-1.869-1.06-3.839-2.12-6.027-2.838c-0.544-0.185-1.092-0.37-1.645-0.558
			c-0.566-0.139-1.138-0.277-1.713-0.419c-1.153-0.345-2.307-0.396-3.479-0.6c-0.583-0.091-1.271-0.069-1.908-0.11l-0.978-0.039
			l-0.491-0.02c0.016,0.001-0.123-0.005,0.02,0.001l-0.058,0.004l-0.117,0.008l-0.233,0.015c-1.245,0.086-2.516,0.063-3.771,0.315
			c-2.542,0.298-5.042,1.12-7.503,2.101c-2.458,1.022-4.755,2.495-6.918,4.181c-2.13,1.743-3.989,3.838-5.638,6.116
			c-1.607,2.315-2.857,4.892-3.799,7.598c-0.915,2.749-1.388,5.488-1.565,8.541c-0.015,2.824,0.267,5.811,1.024,8.621
			c0.838,2.796,2.022,5.489,3.618,7.913c0.394,0.606,0.85,1.171,1.28,1.748c0.224,0.283,0.425,0.583,0.664,0.852l0.731,0.791
			c0.502,0.513,0.938,1.087,1.488,1.544l1.608,1.399c2.236,1.736,4.654,3.175,7.2,4.167c2.533,0.957,5.166,1.702,7.702,1.908
			c1.224,0.207,2.605,0.148,3.914,0.192l0.246,0.008l0.123,0.004l0.062,0.002c0.034,0.002-0.08-0.005-0.004-0.005l0.471-0.033
			l0.938-0.067c0.62-0.06,1.242-0.053,1.848-0.162c4.879-0.64,9.272-2.364,12.947-4.605c3.664-2.275,6.568-5.117,8.668-7.999
			c2.149-2.864,3.388-5.809,4.144-8.274c0.179-0.624,0.347-1.214,0.505-1.77c0.141-0.56,0.208-1.097,0.292-1.593
			c0.08-0.497,0.154-0.957,0.222-1.378c0.065-0.422,0.059-0.817,0.088-1.166c0.081-1.397,0.125-2.144,0.125-2.144V120.039z"/>
	</g>
	<g>
		<path fill="#8C8C8C" d="M122.617,106.453c-2.936-0.4-5.317-0.162-8.1,2.461c-2.88-2.018-4.216-2.422-6.806-2.422
			c-5.565,0-10.669,6.652-9.27,14.586c1.414,8.029,4.489,13.02,9.27,14.588c2.358,0.773,3.926-0.781,6.903-1.756
			c1.708,0.506,1.997,0.844,4.062,1.449c4.655,1.363,10.867-5.109,11.955-13.092C131.721,114.285,128.132,107.205,122.617,106.453z"
			/>
		<path fill="#8C8C8C" d="M113.113,104.113c-0.424-1.982-0.962-2.881-0.367-3.008s1.175,0.064,1.599,2.047s0.764,3.621,0.169,3.748
			C113.921,107.027,113.537,106.096,113.113,104.113z"/>
	</g>
	<circle fill="none" stroke="#C0C0C0" stroke-width="5" stroke-miterlimit="10" cx="114.706" cy="96.865" r="75.216"/>
	<g>
		<g>
			<path fill="#BC1818" stroke="#C0C0C0" stroke-width="4" stroke-miterlimit="10" d="M218.509,150.44
				c-6.562-1.267-12.94-2.86-19.115-4.75c2.964-6.088,5.604-12.241,7.921-18.431c-52.148,29.121-114.772,31.745-168.899,7.72
				c-4.867-2.171-9.666-4.558-14.381-7.16c2.588,6.365,5.521,12.695,8.804,18.955c-5.812,1.755-11.8,3.237-17.947,4.421
				C78.367,185.695,155.179,185.457,218.509,150.44L218.509,150.44L218.509,150.44z"/>
		</g>
	</g>
	<g>
		<g>
			<path fill="#C0C0C0" d="M65.062,150.127c0.4-0.321,0.802-0.646,1.199-0.971c0.254,0.068,0.506,0.135,0.757,0.2
				c-0.34,1.71-0.677,3.42-1.006,5.131c-0.234-0.061-0.468-0.124-0.7-0.185c-0.105-1.685-0.499-2.999-1.189-3.95
				c-0.688-0.952-1.57-1.581-2.66-1.9c-0.915-0.266-1.716-0.24-2.422,0.077c-0.702,0.318-1.143,0.829-1.321,1.545
				c-0.11,0.442-0.095,0.867,0.046,1.271c0.145,0.402,0.414,0.779,0.809,1.123c0.396,0.344,1.188,0.822,2.376,1.42
				c1.671,0.84,2.826,1.518,3.461,2.056c0.635,0.536,1.069,1.113,1.315,1.734c0.246,0.62,0.294,1.284,0.152,1.994
				c-0.256,1.268-0.947,2.194-2.101,2.763c-1.151,0.569-2.514,0.64-4.071,0.191c-1.678-0.479-3.021-1.384-4.032-2.688
				c-0.511,0.306-1.03,0.608-1.544,0.909c-0.264-0.085-0.524-0.166-0.788-0.25c0.441-1.788,0.886-3.574,1.333-5.361
				c0.259,0.081,0.513,0.163,0.771,0.244c-0.065,1.572,0.332,2.954,1.181,4.136c0.854,1.181,1.961,1.967,3.294,2.351
				c1.081,0.308,2.021,0.276,2.818-0.091c0.796-0.367,1.274-0.949,1.436-1.741c0.096-0.449,0.049-0.876-0.134-1.28
				c-0.181-0.407-0.517-0.797-1.015-1.178c-0.496-0.379-1.506-0.953-3.02-1.743c-1.661-0.871-2.756-1.647-3.27-2.291
				c-0.732-0.912-0.939-1.954-0.646-3.121c0.308-1.215,0.994-2.074,2.052-2.585c1.053-0.514,2.246-0.571,3.582-0.183
				c0.637,0.185,1.229,0.464,1.759,0.834C64.016,148.958,64.541,149.473,65.062,150.127z"/>
			<path fill="#C0C0C0" d="M68.337,155.283c1.326,0.294,2.655,0.576,3.983,0.845c-0.464,2.569-0.921,5.138-1.374,7.708
				c-0.037,0.213-0.005,0.374,0.096,0.49c0.141,0.168,0.35,0.279,0.604,0.338c0.39,0.088,0.775,0.175,1.165,0.261
				c-0.04,0.241-0.08,0.479-0.12,0.719c-1.958-0.433-3.914-0.896-5.867-1.385c0.044-0.238,0.088-0.476,0.137-0.715
				c0.361,0.091,0.724,0.181,1.086,0.27c0.324,0.078,0.569,0.067,0.745-0.032c0.174-0.102,0.287-0.282,0.334-0.544
				c0.342-1.878,0.692-3.754,1.043-5.63c0.064-0.355,0.001-0.652-0.19-0.89c-0.191-0.234-0.514-0.409-0.961-0.518
				c-0.273-0.067-0.547-0.135-0.82-0.203C68.244,155.758,68.289,155.521,68.337,155.283z M72.097,150.616
				c0.311,0.073,0.569,0.245,0.762,0.516c0.197,0.271,0.271,0.554,0.215,0.847c-0.053,0.288-0.213,0.508-0.482,0.666
				c-0.27,0.157-0.565,0.199-0.887,0.123c-0.324-0.075-0.583-0.25-0.772-0.519c-0.195-0.269-0.264-0.546-0.207-0.832
				c0.055-0.285,0.22-0.509,0.499-0.669C71.502,150.589,71.791,150.545,72.097,150.616z"/>
			<path fill="#C0C0C0" d="M79.983,152.304c-0.672,4.358-1.334,8.718-1.98,13.079c-0.025,0.179,0.014,0.329,0.126,0.451
				c0.16,0.165,0.377,0.272,0.642,0.322c0.365,0.07,0.729,0.139,1.09,0.206c-0.033,0.24-0.069,0.481-0.101,0.724
				c-1.954-0.364-3.907-0.757-5.859-1.178c0.039-0.239,0.079-0.48,0.118-0.719c0.346,0.073,0.691,0.146,1.033,0.22
				c0.334,0.071,0.604,0.05,0.786-0.056c0.188-0.107,0.299-0.287,0.341-0.545c0.568-3.655,1.148-7.309,1.735-10.96
				c0.052-0.323-0.003-0.573-0.169-0.76c-0.224-0.259-0.526-0.425-0.902-0.505c-0.292-0.061-0.583-0.123-0.879-0.186
				c0.043-0.239,0.084-0.479,0.123-0.719C77.388,151.902,78.685,152.109,79.983,152.304z"/>
			<path fill="#C0C0C0" d="M81.823,158.188c1.642,0.297,3.282,0.573,4.924,0.83c-0.026,0.219-0.053,0.439-0.079,0.658
				c-0.659-0.09-1.086-0.103-1.28-0.04c-0.193,0.064-0.303,0.181-0.324,0.356c-0.02,0.146,0,0.291,0.056,0.443
				c0.662,1.932,1.348,3.861,2.054,5.788c1.024-1.611,2.038-3.227,3.031-4.854c0.043-0.086,0.078-0.173,0.084-0.264
				c0.053-0.475-0.434-0.837-1.445-1.103c0.025-0.22,0.047-0.439,0.074-0.659c1.381,0.2,2.766,0.386,4.15,0.561
				c-0.021,0.22-0.046,0.439-0.064,0.661c-0.425-0.014-0.774,0.049-1.039,0.184c-0.27,0.136-0.481,0.337-0.649,0.604
				c-1.5,2.416-3.024,4.813-4.583,7.191c-0.197-0.03-0.399-0.062-0.599-0.092c-1.053-2.855-2.063-5.714-3.028-8.574
				c-0.106-0.311-0.253-0.538-0.439-0.687c-0.186-0.147-0.501-0.265-0.934-0.35C81.761,158.623,81.791,158.404,81.823,158.188z"/>
			<path fill="#C0C0C0" d="M103.176,165.587c-2.438-0.182-4.876-0.406-7.315-0.674c-0.08,1.396,0.133,2.411,0.639,3.043
				c0.585,0.711,1.359,1.116,2.347,1.21c1.444,0.137,2.657-0.494,3.608-1.884c0.234,0.111,0.467,0.221,0.697,0.33
				c-1.168,1.774-2.789,2.578-4.832,2.38c-1.393-0.136-2.529-0.705-3.401-1.698c-0.868-0.992-1.238-2.179-1.111-3.559
				c0.136-1.481,0.703-2.623,1.687-3.435c0.984-0.811,2.132-1.15,3.451-1.023c0.971,0.092,1.791,0.392,2.472,0.91
				c0.684,0.516,1.175,1.213,1.487,2.096C103.12,163.903,103.213,164.67,103.176,165.587z M95.918,164.22
				c1.47,0.162,2.946,0.306,4.415,0.437c0.262,0.021,0.467-0.037,0.623-0.188c0.158-0.146,0.245-0.413,0.27-0.798
				c0.045-0.718-0.161-1.35-0.619-1.895c-0.461-0.544-1.019-0.847-1.684-0.911c-0.742-0.07-1.395,0.169-1.967,0.718
				C96.388,162.133,96.042,163.012,95.918,164.22z"/>
			<path fill="#C0C0C0" d="M104.831,161.03c1.209,0.026,2.415,0.039,3.619,0.043c-0.045,1.239-0.092,2.481-0.137,3.721
				c0.436-1.204,0.934-2.11,1.5-2.715c0.569-0.604,1.247-0.894,2.046-0.866c0.544,0.018,0.976,0.181,1.294,0.494
				c0.321,0.313,0.479,0.726,0.467,1.236c-0.004,0.412-0.121,0.73-0.347,0.955c-0.224,0.225-0.503,0.332-0.835,0.322
				c-0.326-0.011-0.584-0.119-0.779-0.321c-0.196-0.201-0.289-0.47-0.277-0.805c0.006-0.216,0.068-0.418,0.188-0.604
				c0.112-0.169,0.166-0.267,0.17-0.299c0.005-0.098-0.066-0.153-0.202-0.156c-0.292-0.01-0.631,0.136-1.013,0.437
				c-0.527,0.419-0.951,1.002-1.256,1.757c-0.475,1.171-0.729,2.114-0.753,2.827c-0.023,0.658-0.047,1.316-0.069,1.974
				c-0.008,0.222,0.073,0.396,0.247,0.523c0.177,0.126,0.474,0.198,0.901,0.218c0.439,0.02,0.879,0.037,1.318,0.053
				c-0.008,0.247-0.015,0.49-0.02,0.738c-2.152-0.081-4.307-0.194-6.458-0.341c0.011-0.244,0.024-0.489,0.036-0.735
				c0.343,0.024,0.687,0.045,1.029,0.066c0.348,0.022,0.61-0.022,0.793-0.133c0.182-0.11,0.281-0.251,0.283-0.422
				c0.085-1.951,0.164-3.906,0.248-5.857c0.02-0.445-0.07-0.775-0.27-0.994c-0.195-0.219-0.494-0.339-0.879-0.363
				c-0.295-0.018-0.59-0.037-0.882-0.057C104.806,161.493,104.819,161.263,104.831,161.03z"/>
			<path fill="#C0C0C0" d="M121.469,161.466c0.955-0.07,1.916-0.146,2.872-0.229c0.174,0.681,0.297,1.331,0.358,1.951
				c0.531-0.734,1.063-1.26,1.598-1.574c0.536-0.314,1.13-0.488,1.78-0.518c0.693-0.033,1.271,0.104,1.738,0.412
				c0.467,0.31,0.838,0.831,1.121,1.568c0.446-0.742,0.953-1.308,1.521-1.701s1.197-0.617,1.886-0.669
				c0.913-0.071,1.614,0.12,2.105,0.577c0.63,0.605,0.987,1.424,1.063,2.46c0.107,1.523,0.218,3.05,0.326,4.574
				c0.019,0.276,0.111,0.456,0.271,0.54c0.216,0.133,0.53,0.179,0.935,0.14c0.173-0.016,0.346-0.034,0.519-0.05
				c0.019,0.245,0.037,0.491,0.057,0.736c-1.74,0.172-3.482,0.323-5.222,0.451c-0.016-0.247-0.031-0.491-0.043-0.738
				c0.173-0.014,0.346-0.025,0.521-0.039c0.436-0.033,0.746-0.126,0.917-0.27c0.169-0.146,0.244-0.35,0.226-0.613
				c-0.098-1.528-0.195-3.055-0.296-4.582c-0.042-0.684-0.267-1.198-0.652-1.543c-0.389-0.344-0.88-0.495-1.474-0.45
				c-0.449,0.032-0.852,0.173-1.207,0.416c-0.354,0.247-0.626,0.577-0.812,0.997c-0.279,0.605-0.412,1.111-0.392,1.52
				c0.064,1.323,0.125,2.648,0.19,3.973c0.009,0.27,0.103,0.465,0.271,0.582c0.171,0.117,0.419,0.168,0.763,0.145
				c0.235-0.016,0.47-0.031,0.707-0.047c0.008,0.246,0.025,0.492,0.039,0.738c-1.768,0.12-3.532,0.218-5.303,0.294
				c-0.008-0.248-0.02-0.492-0.026-0.739c0.199-0.008,0.398-0.016,0.599-0.025c0.374-0.019,0.654-0.098,0.833-0.237
				c0.181-0.144,0.265-0.312,0.257-0.518c-0.059-1.418-0.115-2.836-0.176-4.254c-0.037-0.899-0.238-1.544-0.604-1.933
				c-0.364-0.391-0.84-0.57-1.43-0.546c-0.763,0.032-1.336,0.29-1.735,0.775c-0.565,0.69-0.837,1.479-0.817,2.372
				c0.031,1.229,0.058,2.456,0.089,3.684c0.008,0.283,0.083,0.474,0.224,0.575c0.206,0.132,0.514,0.191,0.936,0.177
				c0.178-0.004,0.357-0.013,0.531-0.019c0.004,0.245,0.015,0.493,0.022,0.739c-1.744,0.063-3.493,0.106-5.239,0.127
				c-0.004-0.247-0.005-0.493-0.008-0.739c0.26-0.003,0.523-0.007,0.785-0.011c0.293-0.005,0.52-0.074,0.678-0.208
				c0.156-0.134,0.233-0.304,0.229-0.508c-0.036-2.015-0.072-4.03-0.106-6.047c-0.006-0.332-0.104-0.581-0.293-0.742
				c-0.188-0.16-0.564-0.259-1.124-0.295C121.474,161.919,121.473,161.692,121.469,161.466z"/>
			<path fill="#C0C0C0" d="M150.335,163.745c-2.43,0.372-4.867,0.702-7.305,0.988c0.165,1.4,0.547,2.352,1.152,2.861
				c0.693,0.571,1.532,0.796,2.512,0.665c1.444-0.193,2.53-1.09,3.225-2.677c0.249,0.056,0.496,0.111,0.745,0.167
				c-0.844,2.017-2.305,3.178-4.345,3.444c-1.391,0.181-2.604-0.126-3.629-0.907c-1.024-0.785-1.586-1.873-1.704-3.264
				c-0.128-1.496,0.23-2.749,1.054-3.774c0.826-1.023,1.887-1.616,3.205-1.79c0.968-0.127,1.83-0.015,2.588,0.341
				c0.759,0.354,1.366,0.931,1.83,1.732C149.989,162.096,150.212,162.835,150.335,163.745z M142.966,164.036
				c1.472-0.173,2.942-0.364,4.41-0.566c0.26-0.038,0.453-0.144,0.58-0.326c0.127-0.18,0.166-0.463,0.126-0.849
				c-0.081-0.721-0.399-1.296-0.942-1.73s-1.15-0.608-1.812-0.52c-0.74,0.097-1.343,0.479-1.804,1.152
				C143.066,161.87,142.877,162.816,142.966,164.036z"/>
			<path fill="#C0C0C0" d="M156.189,152.563c1.265-0.298,2.528-0.608,3.789-0.932c0.704,4.159,1.393,8.316,2.069,12.476
				c0.082,0.486,0.238,0.812,0.482,0.976c0.24,0.165,0.573,0.2,0.99,0.111c0.239-0.051,0.478-0.103,0.715-0.155
				c0.041,0.242,0.083,0.486,0.124,0.729c-1.177,0.258-2.353,0.505-3.53,0.741c-0.184-0.604-0.369-1.206-0.553-1.809
				c-0.313,0.747-0.727,1.342-1.239,1.786c-0.517,0.442-1.122,0.729-1.821,0.857c-1.181,0.217-2.242-0.045-3.184-0.779
				c-0.939-0.735-1.497-1.823-1.678-3.259c-0.199-1.555,0.163-2.874,1.065-3.978c0.704-0.862,1.579-1.386,2.624-1.58
				c0.642-0.12,1.232-0.083,1.787,0.111c0.556,0.194,1.069,0.55,1.539,1.062c-0.274-1.718-0.547-3.436-0.823-5.153
				c-0.039-0.272-0.197-0.464-0.443-0.579c-0.254-0.113-0.621-0.123-1.102-0.03c-0.233,0.045-0.466,0.093-0.7,0.136
				C156.263,153.051,156.229,152.808,156.189,152.563z M156.451,158.504c-0.771,0.144-1.339,0.544-1.712,1.205
				c-0.374,0.66-0.468,1.678-0.281,3.052c0.206,1.491,0.577,2.501,1.141,3.027c0.562,0.525,1.214,0.719,1.966,0.58
				c0.802-0.149,1.436-0.62,1.897-1.411c0.465-0.79,0.588-1.839,0.385-3.146c-0.192-1.233-0.648-2.144-1.348-2.735
				C157.888,158.553,157.206,158.361,156.451,158.504z"/>
			<path fill="#C0C0C0" d="M176.134,161.797c0.17,0.143,0.344,0.287,0.512,0.429c-0.426,0.631-0.973,1.035-1.621,1.213
				c-0.498,0.135-0.944,0.13-1.333-0.019c-0.392-0.148-0.776-0.488-1.15-1.021c-0.563,0.825-1.085,1.412-1.574,1.76
				c-0.483,0.35-1.098,0.614-1.843,0.794c-1.054,0.256-1.898,0.243-2.52-0.031c-0.626-0.275-0.983-0.729-1.097-1.356
				c-0.168-0.946,0.317-1.868,1.442-2.783c1.121-0.914,2.684-1.73,4.686-2.468c-0.09-0.459-0.188-0.913-0.284-1.371
				c-0.1-0.489-0.401-0.85-0.908-1.087c-0.501-0.236-1.092-0.269-1.755-0.103c-0.617,0.154-1.127,0.4-1.529,0.741
				c-0.286,0.252-0.413,0.46-0.382,0.628c0.019,0.098,0.134,0.229,0.342,0.394c0.259,0.21,0.406,0.415,0.442,0.614
				c0.057,0.29-0.006,0.552-0.177,0.786c-0.169,0.232-0.432,0.392-0.766,0.472c-0.361,0.085-0.682,0.045-0.961-0.121
				c-0.284-0.163-0.449-0.418-0.513-0.761c-0.113-0.642,0.175-1.315,0.869-2.032c0.691-0.716,1.676-1.229,2.954-1.552
				c1.179-0.298,2.128-0.305,2.849-0.005c0.723,0.303,1.158,0.785,1.301,1.453c0.346,1.646,0.705,3.29,1.05,4.935
				c0.092,0.439,0.241,0.736,0.445,0.899c0.204,0.168,0.435,0.218,0.69,0.148C175.592,162.275,175.865,162.09,176.134,161.797z
				 M171.767,158.951c-1.779,0.703-3.006,1.385-3.677,2.081c-0.504,0.524-0.682,1.142-0.553,1.853
				c0.093,0.497,0.308,0.852,0.665,1.061c0.351,0.209,0.769,0.254,1.254,0.139c0.865-0.212,1.561-0.691,2.072-1.427
				c0.521-0.738,0.68-1.543,0.503-2.412C171.945,159.813,171.855,159.382,171.767,158.951z"/>
			<path fill="#C0C0C0" d="M178.352,146.863c1.084,4.327,2.151,8.657,3.194,12.988c0.044,0.181,0.137,0.299,0.284,0.355
				c0.215,0.072,0.445,0.066,0.712-0.015c0.357-0.112,0.719-0.226,1.081-0.341c0.06,0.239,0.119,0.479,0.178,0.717
				c-1.937,0.613-3.873,1.199-5.816,1.757c-0.054-0.238-0.106-0.479-0.161-0.72c0.345-0.1,0.683-0.198,1.027-0.299
				c0.338-0.097,0.568-0.242,0.7-0.432c0.129-0.188,0.165-0.41,0.106-0.667c-0.845-3.643-1.715-7.285-2.594-10.927
				c-0.082-0.316-0.223-0.525-0.448-0.615c-0.304-0.13-0.647-0.137-1.019-0.028c-0.292,0.084-0.579,0.169-0.872,0.253
				c-0.058-0.239-0.112-0.479-0.167-0.72C175.822,147.747,177.088,147.312,178.352,146.863z"/>
		</g>
	</g>
</g>
</svg>
