<?xml version="1.0" encoding="utf-8"?>
<!-- Generator: Adobe Illustrator 16.0.0, SVG Export Plug-In . SVG Version: 6.00 Build 0)  -->
<!DOCTYPE svg PUBLIC "-//W3C//DTD SVG 1.1//EN" "http://www.w3.org/Graphics/SVG/1.1/DTD/svg11.dtd">
<svg version="1.1" id="Livello_1" xmlns="http://www.w3.org/2000/svg" xmlns:xlink="http://www.w3.org/1999/xlink" x="0px" y="0px"
	 width="210px" height="200px" viewBox="0 0 210 200" enable-background="new 0 0 210 200" xml:space="preserve">
<g>
	<circle fill="#BC1818" cx="105" cy="100" r="84"/>
	<circle fill="#BC1818" stroke="#FFFFFF" stroke-width="5" stroke-miterlimit="10" cx="105" cy="100" r="75.216"/>
	<g>
		<path fill="#E41815" stroke="#FFFFFF" stroke-width="2" stroke-miterlimit="10" d="M130.72,59.422
			c-9.322-1.27-16.883-0.516-25.719,7.816c-9.145-6.408-13.385-7.691-21.609-7.691c-17.674,0-33.875,21.123-29.436,46.314
			c4.494,25.488,14.258,41.336,29.436,46.316c7.49,2.457,12.465-2.479,21.92-5.572c5.426,1.605,6.344,2.68,12.896,4.6
			c14.779,4.328,34.506-16.223,37.961-41.568S148.231,61.811,130.72,59.422z"/>
		<path fill="#E41815" stroke="#FFFFFF" stroke-width="2" stroke-miterlimit="10" d="M100.269,56.81
			c-1.344-6.299-3.051-9.148-1.164-9.553c1.887-0.402,3.729,0.201,5.076,6.498c1.346,6.299,2.424,11.5,0.537,11.902
			S101.614,63.104,100.269,56.81z"/>
	</g>
	<g>
		<g>
			<path fill="#D51116" stroke="#FFFFFF" stroke-width="2" stroke-miterlimit="10" d="M191.895,140.803
				c-2.533-5.82-5.349-11.609-8.445-17.347c6.004-2.538,12.218-4.851,18.63-6.915C138.106,89.685,65.961,89.854,2.092,117.05
				c0.04,0.094,0.08,0.188,0.12,0.282c6.617,2.096,13.025,4.457,19.211,7.058c-2.898,5.433-5.546,10.909-7.941,16.415
				C70.538,116.852,134.837,116.851,191.895,140.803L191.895,140.803L191.895,140.803z"/>
		</g>
	</g>
	<g>
		<g>
			<path fill="#FFFFFF" d="M38.159,112.41c2.112-0.708,4.232-1.382,6.355-2.02c0.068,0.219,0.137,0.438,0.205,0.657
				c-0.388,0.116-0.776,0.233-1.164,0.353c-0.407,0.125-0.653,0.271-0.737,0.435c-0.082,0.163-0.046,0.487,0.111,0.968
				c0.432,1.325,0.867,2.651,1.304,3.975c2.196-0.686,4.396-1.333,6.6-1.94c-0.386-1.338-0.771-2.679-1.153-4.018
				c-0.144-0.503-0.291-0.801-0.442-0.885c-0.15-0.084-0.444-0.067-0.881,0.056c-0.36,0.102-0.724,0.204-1.085,0.308
				c-0.065-0.22-0.131-0.439-0.195-0.659c2.11-0.604,4.227-1.176,6.344-1.712c0.058,0.222,0.115,0.443,0.173,0.665
				c-0.387,0.098-0.773,0.197-1.159,0.297c-0.288,0.075-0.483,0.16-0.582,0.256c-0.101,0.097-0.168,0.231-0.196,0.412
				c-0.013,0.11,0.039,0.378,0.154,0.801c0.857,3.135,1.726,6.267,2.606,9.397c0.128,0.453,0.244,0.715,0.354,0.789
				c0.22,0.156,0.546,0.178,0.98,0.065c0.32-0.083,0.642-0.165,0.962-0.246c0.061,0.221,0.12,0.441,0.179,0.663
				c-1.967,0.499-3.932,1.03-5.894,1.595c-0.066-0.218-0.134-0.438-0.201-0.657c0.338-0.098,0.676-0.193,1.015-0.289
				c0.402-0.113,0.643-0.292,0.729-0.537c0.049-0.135,0.004-0.439-0.137-0.915c-0.443-1.507-0.882-3.016-1.319-4.524
				c-2.192,0.605-4.384,1.248-6.568,1.933c0.502,1.517,1.006,3.032,1.514,4.547c0.152,0.452,0.282,0.715,0.388,0.784
				c0.222,0.144,0.523,0.154,0.904,0.037c0.361-0.112,0.726-0.222,1.088-0.332c0.07,0.218,0.142,0.436,0.211,0.655
				c-1.97,0.595-3.935,1.221-5.897,1.882c-0.078-0.216-0.156-0.433-0.235-0.648c0.377-0.127,0.754-0.253,1.132-0.376
				c0.199-0.066,0.346-0.156,0.438-0.271c0.091-0.113,0.143-0.248,0.149-0.407c-0.001-0.101-0.07-0.353-0.21-0.753
				c-1.077-3.088-2.139-6.179-3.187-9.271c-0.163-0.48-0.326-0.763-0.492-0.849c-0.166-0.084-0.455-0.059-0.869,0.078
				c-0.354,0.116-0.707,0.233-1.061,0.352C38.311,112.844,38.234,112.626,38.159,112.41z"/>
			<path fill="#FFFFFF" d="M65.85,114.663c-2.164,0.431-4.324,0.896-6.481,1.402c0.344,1.26,0.819,2.098,1.422,2.51
				c0.688,0.463,1.446,0.602,2.285,0.418c1.237-0.27,2.081-1.139,2.56-2.625c0.225,0.041,0.45,0.085,0.675,0.127
				c-0.58,1.883-1.715,2.999-3.446,3.379c-1.18,0.261-2.269,0.087-3.282-0.527c-1.015-0.612-1.689-1.542-2.013-2.796
				c-0.345-1.35-0.215-2.541,0.408-3.57c0.62-1.029,1.553-1.685,2.773-1.953c0.896-0.198,1.72-0.154,2.462,0.128
				c0.741,0.282,1.355,0.784,1.845,1.501C65.4,113.16,65.663,113.829,65.85,114.663z M59.214,115.433
				c1.309-0.307,2.619-0.599,3.933-0.877c0.232-0.049,0.396-0.16,0.494-0.334c0.098-0.172,0.108-0.437,0.032-0.788
				c-0.142-0.656-0.486-1.167-1.036-1.531c-0.551-0.364-1.133-0.479-1.745-0.344c-0.685,0.149-1.202,0.56-1.544,1.22
				C59.004,113.44,58.962,114.326,59.214,115.433z"/>
			<path fill="#FFFFFF" d="M77.322,116.055c0.139,0.152,0.278,0.306,0.416,0.46c-0.396,0.518-0.873,0.815-1.435,0.896
				c-0.431,0.062-0.809,0.007-1.138-0.172c-0.33-0.178-0.652-0.53-0.966-1.056c-0.507,0.698-0.964,1.185-1.385,1.461
				s-0.945,0.468-1.583,0.58c-0.907,0.158-1.631,0.098-2.179-0.185c-0.546-0.285-0.879-0.716-0.994-1.296
				c-0.174-0.873,0.229-1.706,1.226-2.484c0.997-0.777,2.41-1.422,4.23-1.904c-0.068-0.428-0.14-0.855-0.209-1.284
				c-0.073-0.456-0.336-0.818-0.791-1.078c-0.455-0.261-0.994-0.341-1.615-0.236c-0.573,0.097-1.049,0.29-1.424,0.579
				c-0.268,0.214-0.387,0.399-0.358,0.555c0.016,0.09,0.121,0.219,0.314,0.382c0.233,0.205,0.368,0.403,0.4,0.589
				c0.049,0.271-0.006,0.509-0.163,0.712c-0.156,0.205-0.387,0.334-0.693,0.39c-0.324,0.059-0.616,0.007-0.871-0.158
				c-0.258-0.162-0.417-0.403-0.479-0.721c-0.115-0.594,0.145-1.204,0.789-1.829c0.643-0.626,1.566-1.041,2.767-1.241
				c1.106-0.184,1.987-0.099,2.635,0.249c0.651,0.35,1.021,0.841,1.116,1.469c0.236,1.543,0.473,3.087,0.712,4.631
				c0.063,0.41,0.182,0.701,0.351,0.874c0.171,0.18,0.365,0.25,0.588,0.219C76.832,116.419,77.077,116.286,77.322,116.055z
				 M73.612,112.95c-1.612,0.471-2.712,1.015-3.308,1.607c-0.442,0.45-0.6,1.005-0.476,1.665c0.089,0.462,0.286,0.8,0.595,1.014
				c0.31,0.216,0.672,0.286,1.088,0.215c0.747-0.128,1.345-0.503,1.805-1.131c0.459-0.628,0.625-1.346,0.493-2.159
				C73.743,113.757,73.679,113.354,73.612,112.95z"/>
			<path fill="#FFFFFF" d="M80.641,102.788c0.474,4.114,0.954,8.228,1.443,12.34c0.021,0.169,0.09,0.295,0.209,0.371
				c0.173,0.104,0.374,0.143,0.603,0.118c0.314-0.034,0.63-0.068,0.945-0.102c0.024,0.228,0.049,0.454,0.074,0.682
				c-1.681,0.177-3.364,0.376-5.043,0.599c-0.031-0.227-0.062-0.453-0.094-0.68c0.299-0.04,0.598-0.078,0.896-0.117
				c0.292-0.037,0.5-0.131,0.626-0.28c0.124-0.151,0.176-0.349,0.143-0.591c-0.442-3.448-0.878-6.897-1.306-10.347
				c-0.04-0.303-0.155-0.513-0.357-0.628c-0.275-0.163-0.593-0.222-0.96-0.174c-0.284,0.036-0.569,0.073-0.854,0.111
				c-0.03-0.226-0.061-0.455-0.092-0.681C78.13,103.19,79.385,102.985,80.641,102.788z"/>
			<path fill="#FFFFFF" d="M86.276,103.851c0.226-0.02,0.452-0.039,0.679-0.058c0.097,1.161,0.194,2.321,0.294,3.481
				c1.005-0.084,2.011-0.159,3.018-0.228c0.02,0.28,0.038,0.56,0.058,0.839c-1.003,0.068-2.003,0.143-3.004,0.227
				c0.155,1.826,0.312,3.652,0.47,5.478c0.041,0.475,0.191,0.828,0.449,1.06c0.257,0.233,0.565,0.336,0.93,0.309
				c0.433-0.033,0.787-0.253,1.066-0.656c0.276-0.407,0.412-1.051,0.402-1.936c0.217-0.015,0.433-0.028,0.648-0.043
				c0.038,1.139-0.179,2.002-0.643,2.588c-0.465,0.585-1.089,0.906-1.89,0.968c-0.734,0.06-1.325-0.085-1.777-0.434
				c-0.45-0.348-0.71-0.834-0.77-1.46c-0.183-1.908-0.362-3.818-0.543-5.728c-0.539,0.049-1.076,0.101-1.613,0.154
				c-0.022-0.212-0.044-0.424-0.065-0.636c0.725-0.19,1.262-0.523,1.607-1.008C86.104,106.041,86.333,105.071,86.276,103.851z"/>
			<path fill="#FFFFFF" d="M91.52,101.998c1.205-0.124,2.41-0.237,3.62-0.341c0.092,2.199,0.187,4.399,0.281,6.599
				c0.462-0.604,0.973-1.063,1.527-1.372c0.553-0.309,1.147-0.473,1.78-0.487c0.599-0.015,1.143,0.106,1.624,0.359
				c0.374,0.2,0.696,0.56,0.965,1.075s0.403,1.127,0.41,1.834c0.013,1.355,0.028,2.713,0.042,4.07
				c0.002,0.262,0.075,0.451,0.217,0.568c0.14,0.118,0.362,0.177,0.66,0.174c0.256-0.001,0.511-0.002,0.765-0.003
				c0.001,0.229,0.001,0.457,0.001,0.686c-1.606,0.004-3.213,0.026-4.818,0.068c-0.007-0.228-0.013-0.456-0.02-0.685
				c0.179-0.005,0.357-0.01,0.536-0.014c0.407-0.01,0.688-0.078,0.843-0.206c0.153-0.129,0.228-0.317,0.223-0.567
				c-0.025-1.356-0.051-2.712-0.077-4.069c-0.014-0.714-0.21-1.266-0.591-1.657s-0.864-0.58-1.446-0.563
				c-0.458,0.013-0.878,0.14-1.26,0.378c-0.38,0.24-0.699,0.596-0.948,1.065c-0.252,0.472-0.364,0.963-0.342,1.475
				c0.051,1.139,0.1,2.277,0.149,3.417c0.014,0.306,0.092,0.519,0.229,0.641c0.139,0.123,0.362,0.179,0.667,0.167
				c0.255-0.01,0.51-0.02,0.767-0.027c0.007,0.229,0.016,0.456,0.023,0.685c-1.57,0.053-3.143,0.125-4.712,0.217
				c-0.014-0.227-0.029-0.456-0.042-0.684c0.178-0.01,0.357-0.021,0.535-0.031c0.361-0.021,0.617-0.103,0.762-0.247
				c0.147-0.145,0.212-0.36,0.197-0.646c-0.179-3.403-0.354-6.808-0.526-10.213c-0.019-0.364-0.142-0.632-0.362-0.801
				c-0.224-0.168-0.539-0.241-0.945-0.218c-0.232,0.013-0.462,0.026-0.692,0.04C91.548,102.455,91.532,102.227,91.52,101.998z"/>
			<path fill="#FFFFFF" d="M113.989,101.739c-0.211,4.135-0.426,8.27-0.645,12.404c-0.011,0.171,0.038,0.306,0.142,0.4
				c0.15,0.132,0.344,0.203,0.572,0.215c0.313,0.018,0.632,0.037,0.946,0.055c-0.015,0.228-0.028,0.457-0.042,0.685
				c-1.686-0.103-3.371-0.179-5.057-0.235c0.007-0.229,0.016-0.456,0.023-0.685c0.3,0.01,0.6,0.02,0.899,0.031
				c0.294,0.013,0.515-0.047,0.663-0.175c0.148-0.129,0.229-0.313,0.24-0.558c0.152-3.474,0.304-6.944,0.452-10.418
				c0.013-0.304-0.067-0.531-0.247-0.678c-0.242-0.204-0.548-0.314-0.914-0.329c-0.285-0.01-0.57-0.02-0.855-0.028
				c0.007-0.229,0.014-0.458,0.021-0.686C111.455,101.727,112.723,101.729,113.989,101.739z"/>
			<path fill="#FFFFFF" d="M124.889,112.101c-2.176-0.24-4.352-0.442-6.528-0.608c-0.07,1.304,0.114,2.24,0.55,2.815
				c0.499,0.645,1.166,1.004,2.014,1.081c1.245,0.112,2.313-0.46,3.23-1.73c0.199,0.108,0.398,0.216,0.598,0.322
				c-1.136,1.619-2.561,2.338-4.305,2.183c-1.189-0.107-2.156-0.598-2.912-1.483c-0.756-0.888-1.099-1.974-1.009-3.263
				c0.093-1.387,0.584-2.482,1.483-3.275c0.899-0.791,1.971-1.143,3.202-1.03c0.902,0.081,1.665,0.368,2.276,0.858
				c0.612,0.49,1.039,1.155,1.276,1.982C124.932,110.534,124.973,111.252,124.889,112.101z M118.412,110.845
				c1.322,0.102,2.643,0.215,3.964,0.343c0.233,0.024,0.423-0.033,0.569-0.169c0.146-0.137,0.237-0.382,0.274-0.739
				c0.069-0.669-0.095-1.258-0.503-1.771c-0.405-0.509-0.92-0.795-1.534-0.85c-0.69-0.061-1.302,0.173-1.825,0.7
				C118.832,108.887,118.52,109.715,118.412,110.845z"/>
			<path fill="#FFFFFF" d="M135.34,116.871c0.084,0.188,0.168,0.376,0.252,0.562c-0.542,0.372-1.092,0.513-1.653,0.421
				c-0.429-0.068-0.772-0.237-1.029-0.506c-0.255-0.268-0.453-0.701-0.585-1.294c-0.703,0.511-1.291,0.835-1.776,0.972
				c-0.485,0.139-1.048,0.162-1.686,0.076c-0.911-0.121-1.576-0.395-2.004-0.83c-0.427-0.434-0.607-0.941-0.533-1.53
				c0.108-0.882,0.75-1.554,1.938-1.996c1.186-0.44,2.726-0.63,4.609-0.542c0.067-0.427,0.134-0.855,0.201-1.284
				c0.072-0.457-0.067-0.88-0.419-1.265c-0.352-0.386-0.841-0.624-1.462-0.711c-0.574-0.08-1.088-0.039-1.531,0.124
				c-0.32,0.123-0.489,0.265-0.511,0.421c-0.012,0.091,0.047,0.244,0.18,0.457c0.157,0.268,0.224,0.495,0.197,0.682
				c-0.036,0.272-0.163,0.48-0.376,0.629c-0.212,0.148-0.471,0.201-0.777,0.162c-0.325-0.04-0.584-0.178-0.777-0.411
				c-0.193-0.232-0.27-0.509-0.229-0.83c0.074-0.599,0.509-1.104,1.312-1.506c0.803-0.402,1.808-0.522,3.008-0.352
				c1.108,0.159,1.922,0.505,2.433,1.029c0.512,0.529,0.712,1.108,0.608,1.734c-0.255,1.541-0.511,3.082-0.771,4.622
				c-0.068,0.41-0.049,0.723,0.058,0.938c0.106,0.222,0.271,0.351,0.492,0.386C134.757,117.071,135.032,117.017,135.34,116.871z
				 M132.779,112.801c-1.68-0.038-2.893,0.149-3.645,0.535c-0.559,0.294-0.884,0.777-0.971,1.442
				c-0.064,0.466,0.019,0.845,0.242,1.142c0.226,0.298,0.546,0.475,0.965,0.532c0.748,0.103,1.436-0.076,2.069-0.534
				c0.634-0.459,1.019-1.092,1.147-1.906C132.652,113.607,132.715,113.204,132.779,112.801z"/>
			<path fill="#FFFFFF" d="M137.729,109.536c1.524,0.266,3.047,0.549,4.569,0.849c-0.041,0.204-0.083,0.406-0.124,0.61
				c-0.609-0.107-1.006-0.132-1.189-0.078c-0.188,0.055-0.293,0.163-0.326,0.324c-0.026,0.133-0.018,0.27,0.021,0.415
				c0.485,1.811,0.948,3.622,1.385,5.435c1.062-1.455,2.145-2.9,3.241-4.338c0.052-0.076,0.086-0.156,0.105-0.239
				c0.097-0.433-0.313-0.808-1.234-1.112c0.045-0.203,0.086-0.405,0.131-0.607c1.28,0.267,2.56,0.547,3.839,0.839
				c-0.049,0.201-0.097,0.402-0.144,0.604c-0.397-0.054-0.728-0.026-0.993,0.076c-0.268,0.104-0.49,0.271-0.676,0.507
				c-1.666,2.117-3.295,4.253-4.886,6.405c-0.17-0.035-0.341-0.068-0.511-0.103c-0.642-2.673-1.338-5.345-2.089-8.013
				c-0.083-0.288-0.208-0.501-0.376-0.64c-0.168-0.138-0.453-0.247-0.854-0.322C137.656,109.944,137.691,109.739,137.729,109.536z"
				/>
			<path fill="#FFFFFF" d="M156.459,118.239c-2.149-0.604-4.303-1.169-6.459-1.696c-0.293,1.274-0.271,2.228,0.066,2.867
				c0.391,0.719,0.998,1.187,1.834,1.404c1.23,0.321,2.406-0.065,3.549-1.162c0.184,0.139,0.363,0.278,0.546,0.418
				c-1.425,1.405-2.983,1.874-4.708,1.427c-1.175-0.304-2.06-0.95-2.664-1.951c-0.604-1-0.758-2.127-0.449-3.385
				c0.333-1.353,1.01-2.35,2.048-2.983c1.037-0.632,2.173-0.793,3.391-0.48c0.896,0.231,1.612,0.645,2.146,1.231
				c0.531,0.586,0.848,1.312,0.945,2.169C156.773,116.702,156.689,117.414,156.459,118.239z M150.163,115.912
				c1.31,0.32,2.616,0.655,3.924,1.003c0.234,0.062,0.432,0.038,0.602-0.071c0.171-0.108,0.306-0.337,0.403-0.684
				c0.184-0.647,0.117-1.257-0.202-1.83c-0.321-0.571-0.791-0.939-1.399-1.097c-0.685-0.176-1.336-0.048-1.952,0.385
				C150.919,114.051,150.463,114.817,150.163,115.912z"/>
			<path fill="#FFFFFF" d="M158.637,119.905c0.076,1.126,0.302,1.959,0.681,2.498c0.382,0.541,0.937,0.924,1.672,1.154
				c0.682,0.215,1.25,0.244,1.713,0.088c0.462-0.157,0.769-0.446,0.916-0.867c0.085-0.243,0.09-0.477,0.018-0.703
				c-0.071-0.227-0.213-0.424-0.424-0.592c-0.211-0.166-0.791-0.5-1.746-0.989c-0.911-0.476-1.531-0.861-1.85-1.168
				c-0.323-0.307-0.54-0.661-0.649-1.064c-0.109-0.402-0.104-0.8,0.018-1.198c0.188-0.604,0.577-1.082,1.181-1.44
				c0.775-0.452,1.692-0.521,2.741-0.196c0.801,0.248,1.468,0.704,1.993,1.368c0.284-0.132,0.57-0.267,0.855-0.397
				c0.134,0.044,0.269,0.086,0.402,0.131c-0.25,0.994-0.501,1.987-0.756,2.979c-0.216-0.072-0.431-0.142-0.646-0.212
				c0.004-0.914-0.182-1.631-0.548-2.149s-0.91-0.889-1.63-1.111c-0.62-0.19-1.153-0.203-1.59-0.038
				c-0.439,0.166-0.717,0.445-0.84,0.836c-0.108,0.344-0.037,0.678,0.215,1.002c0.242,0.329,0.801,0.697,1.677,1.117
				c1.014,0.498,1.658,0.854,1.94,1.069c0.465,0.344,0.777,0.745,0.937,1.199c0.159,0.455,0.142,0.942-0.043,1.462
				c-0.256,0.714-0.778,1.218-1.563,1.515s-1.64,0.297-2.573,0.003c-0.866-0.271-1.581-0.785-2.155-1.543
				c-0.307,0.178-0.612,0.354-0.919,0.53c-0.166-0.048-0.331-0.097-0.496-0.146c0.279-1.107,0.557-2.216,0.83-3.323
				C158.211,119.78,158.424,119.843,158.637,119.905z"/>
		</g>
	</g>
</g>
</svg>
