<?xml version="1.0" encoding="utf-8"?>
<!-- Generator: Adobe Illustrator 16.0.0, SVG Export Plug-In . SVG Version: 6.00 Build 0)  -->
<!DOCTYPE svg PUBLIC "-//W3C//DTD SVG 1.1//EN" "http://www.w3.org/Graphics/SVG/1.1/DTD/svg11.dtd">
<svg version="1.1" id="Livello_1" xmlns="http://www.w3.org/2000/svg" xmlns:xlink="http://www.w3.org/1999/xlink" x="0px" y="0px"
	 width="210px" height="200px" viewBox="0 0 210 200" enable-background="new 0 0 210 200" xml:space="preserve">
<g>
	<circle fill="#BC1818" cx="105" cy="100" r="84"/>
	<circle fill="#BC1818" stroke="#FFFFFF" stroke-width="5" stroke-miterlimit="10" cx="105" cy="100" r="75.216"/>
	<g>
		<path fill="#E41815" stroke="#FFFFFF" stroke-width="2" stroke-miterlimit="10" d="M130.72,59.422
			c-9.322-1.27-16.883-0.516-25.719,7.816c-9.145-6.408-13.385-7.691-21.609-7.691c-17.674,0-33.875,21.123-29.436,46.314
			c4.494,25.488,14.258,41.336,29.436,46.316c7.49,2.457,12.465-2.479,21.92-5.572c5.426,1.605,6.344,2.68,12.896,4.6
			c14.779,4.328,34.506-16.223,37.961-41.568S148.231,61.811,130.72,59.422z"/>
		<path fill="#E41815" stroke="#FFFFFF" stroke-width="2" stroke-miterlimit="10" d="M100.269,56.81
			c-1.344-6.299-3.051-9.148-1.164-9.553c1.887-0.402,3.729,0.201,5.076,6.498c1.346,6.299,2.424,11.5,0.537,11.902
			S101.614,63.104,100.269,56.81z"/>
	</g>
	<g>
		<g>
			<path fill="#D51116" stroke="#FFFFFF" stroke-width="2" stroke-miterlimit="10" d="M191.895,140.803
				c-2.533-5.82-5.349-11.609-8.445-17.347c6.004-2.538,12.218-4.851,18.63-6.915C138.106,89.685,65.961,89.854,2.092,117.05
				c0.04,0.094,0.08,0.188,0.12,0.282c6.617,2.096,13.025,4.457,19.211,7.058c-2.898,5.433-5.546,10.909-7.941,16.415
				C70.538,116.852,134.837,116.851,191.895,140.803L191.895,140.803L191.895,140.803z"/>
		</g>
	</g>
	<g>
		<g>
			<path fill="#FFFFFF" d="M26.793,124.107c-0.165,0.438,1.302,0.131,4.423-0.823c0.467-0.143,0.768-0.354,0.893-0.644
				c0.131-0.288,0.156-0.987,0.09-2.096c0.221-0.063,0.438-0.13,0.656-0.193c0.273,1.244,0.552,2.483,0.831,3.725
				c-2.787,0.824-5.567,1.698-8.343,2.627c-0.058-0.157-0.113-0.312-0.168-0.469c0.56-1.256,1.137-2.51,1.727-3.765
				c1.012-2.021,1.636-3.273,1.818-3.766c0.263-0.703,0.42-1.349,0.456-1.938c0.039-0.591-0.012-1.1-0.146-1.531
				c-0.227-0.717-0.626-1.216-1.201-1.489c-0.573-0.275-1.259-0.29-2.054-0.04c-0.89,0.277-1.557,0.699-1.99,1.258
				c-0.436,0.558-0.576,1.048-0.431,1.471c0.05,0.146,0.13,0.241,0.237,0.289c0.104,0.049,0.296,0.062,0.574,0.034
				c0.703-0.072,1.143,0.165,1.326,0.71c0.101,0.297,0.074,0.576-0.08,0.841c-0.152,0.265-0.398,0.452-0.738,0.562
				c-0.393,0.127-0.792,0.076-1.2-0.153c-0.406-0.229-0.709-0.606-0.891-1.132c-0.206-0.59-0.224-1.181-0.047-1.776
				c0.175-0.596,0.556-1.16,1.147-1.694s1.293-0.929,2.091-1.179c0.794-0.247,1.581-0.323,2.356-0.226
				c0.776,0.098,1.411,0.344,1.9,0.736c0.492,0.394,0.826,0.882,1.006,1.467c0.123,0.403,0.164,0.838,0.127,1.301
				c-0.037,0.465-0.159,0.925-0.369,1.382c-0.357,0.79-0.752,1.493-1.186,2.112c-0.629,0.903-1.252,1.809-1.865,2.716
				C27.276,123.111,26.962,123.672,26.793,124.107z"/>
			<path fill="#FFFFFF" d="M36.958,109.712c1.29-0.341,2.482-0.167,3.569,0.518c1.346,0.839,2.288,2.392,2.861,4.641
				c0.53,2.089,0.494,3.787-0.1,5.097c-0.591,1.312-1.496,2.123-2.731,2.451c-1.193,0.314-2.312,0.132-3.385-0.554
				c-1.339-0.865-2.349-2.365-2.99-4.521c-0.612-2.05-0.611-3.818,0.029-5.312C34.722,110.837,35.647,110.059,36.958,109.712z
				 M37.191,110.332c-0.866,0.229-1.445,0.786-1.718,1.662c-0.276,0.875-0.076,2.482,0.604,4.817
				c0.66,2.283,1.352,3.738,2.051,4.371c0.702,0.631,1.452,0.841,2.26,0.626c0.812-0.217,1.341-0.729,1.59-1.552
				c0.293-0.976,0.146-2.581-0.443-4.822c-0.607-2.315-1.27-3.8-1.987-4.456C38.827,110.323,38.043,110.106,37.191,110.332z"/>
			<path fill="#FFFFFF" d="M48.258,106.991c1.29-0.281,2.47-0.052,3.516,0.681c1.296,0.902,2.162,2.494,2.626,4.766
				c0.432,2.109,0.313,3.806-0.337,5.087c-0.649,1.28-1.585,2.05-2.824,2.32c-1.198,0.26-2.303,0.025-3.331-0.708
				c-1.288-0.926-2.212-2.473-2.753-4.653c-0.513-2.075-0.427-3.843,0.274-5.303C45.992,108.013,46.94,107.278,48.258,106.991z
				 M48.461,107.621c-0.872,0.189-1.468,0.72-1.78,1.58c-0.313,0.863-0.187,2.475,0.377,4.839c0.552,2.311,1.164,3.796,1.829,4.459
				c0.666,0.661,1.401,0.906,2.211,0.729c0.817-0.178,1.367-0.669,1.65-1.476c0.337-0.962,0.267-2.574-0.216-4.836
				c-0.497-2.341-1.082-3.855-1.766-4.542C50.087,107.688,49.312,107.437,48.461,107.621z"/>
			<path fill="#FFFFFF" d="M59.891,104.128c1.173-0.251,2.35-0.494,3.522-0.729c0.341,2.175,0.686,4.349,1.031,6.524
				c0.39-0.652,0.841-1.165,1.352-1.533c0.514-0.368,1.077-0.599,1.701-0.687c0.592-0.083,1.137-0.025,1.645,0.171
				c0.395,0.154,0.758,0.477,1.081,0.955c0.325,0.479,0.535,1.072,0.628,1.771c0.179,1.345,0.358,2.691,0.541,4.036
				c0.033,0.258,0.132,0.439,0.284,0.539c0.155,0.1,0.38,0.133,0.679,0.095c0.253-0.032,0.505-0.063,0.759-0.095
				c0.029,0.227,0.059,0.453,0.088,0.68c-1.599,0.196-3.192,0.408-4.787,0.636c-0.034-0.226-0.067-0.452-0.101-0.678
				c0.175-0.024,0.355-0.05,0.531-0.076c0.403-0.055,0.673-0.157,0.812-0.302c0.134-0.146,0.188-0.342,0.153-0.589
				c-0.19-1.343-0.381-2.688-0.568-4.032c-0.104-0.706-0.358-1.233-0.782-1.577c-0.424-0.345-0.924-0.478-1.496-0.395
				c-0.449,0.065-0.846,0.238-1.199,0.519c-0.348,0.279-0.624,0.668-0.815,1.164c-0.194,0.497-0.248,0.997-0.169,1.503
				c0.183,1.126,0.361,2.252,0.545,3.379c0.05,0.301,0.15,0.505,0.303,0.61c0.151,0.106,0.383,0.137,0.685,0.09
				c0.253-0.038,0.506-0.076,0.759-0.113c0.038,0.227,0.068,0.451,0.105,0.679c-1.559,0.23-3.119,0.477-4.676,0.739
				c-0.04-0.225-0.081-0.45-0.119-0.676c0.177-0.029,0.354-0.059,0.53-0.089c0.359-0.06,0.604-0.169,0.732-0.328
				c0.129-0.162,0.169-0.381,0.122-0.665c-0.567-3.363-1.126-6.728-1.68-10.092c-0.061-0.36-0.209-0.613-0.447-0.757
				c-0.236-0.145-0.561-0.182-0.955-0.116c-0.225,0.038-0.45,0.076-0.678,0.114C59.967,104.579,59.93,104.354,59.891,104.128z"/>
			<path fill="#FFFFFF" d="M82.234,110.679c-2.159,0.179-4.314,0.388-6.473,0.625c0.177,1.293,0.538,2.18,1.074,2.663
				c0.61,0.542,1.337,0.771,2.179,0.688c1.239-0.12,2.17-0.888,2.812-2.308c0.217,0.067,0.431,0.135,0.646,0.203
				c-0.785,1.803-2.031,2.78-3.772,2.953c-1.184,0.118-2.229-0.185-3.139-0.918c-0.909-0.734-1.448-1.736-1.604-3.021
				c-0.166-1.378,0.105-2.546,0.833-3.488c0.724-0.943,1.704-1.48,2.914-1.602c0.89-0.089,1.686,0.052,2.37,0.417
				c0.684,0.367,1.227,0.937,1.62,1.704C81.968,109.134,82.145,109.83,82.234,110.679z M75.688,110.659
				c1.308-0.145,2.619-0.278,3.926-0.4c0.232-0.021,0.405-0.113,0.521-0.272c0.116-0.16,0.157-0.42,0.124-0.779
				c-0.062-0.668-0.336-1.217-0.828-1.642c-0.494-0.426-1.045-0.608-1.652-0.549c-0.68,0.068-1.229,0.412-1.638,1.025
				C75.728,108.657,75.58,109.53,75.688,110.659z"/>
			<path fill="#FFFFFF" d="M93.322,113.294c0.12,0.167,0.24,0.333,0.362,0.5c-0.443,0.473-0.947,0.721-1.51,0.746
				c-0.429,0.019-0.797-0.075-1.101-0.288c-0.307-0.211-0.583-0.595-0.836-1.149c-0.572,0.64-1.079,1.076-1.521,1.306
				c-0.444,0.229-0.981,0.365-1.621,0.406c-0.909,0.057-1.613-0.08-2.117-0.423c-0.504-0.341-0.777-0.809-0.826-1.397
				c-0.069-0.887,0.42-1.667,1.48-2.331s2.512-1.15,4.342-1.439c-0.021-0.432-0.049-0.863-0.068-1.297
				c-0.025-0.463-0.242-0.849-0.66-1.156c-0.415-0.308-0.934-0.442-1.548-0.407c-0.57,0.034-1.054,0.176-1.448,0.421
				c-0.284,0.185-0.42,0.355-0.409,0.514c0.009,0.09,0.096,0.229,0.265,0.413c0.205,0.23,0.311,0.44,0.327,0.628
				c0.017,0.274-0.063,0.505-0.237,0.691c-0.176,0.186-0.417,0.289-0.72,0.31c-0.325,0.023-0.601-0.062-0.834-0.252
				c-0.231-0.192-0.359-0.448-0.385-0.771c-0.045-0.6,0.274-1.18,0.97-1.729c0.691-0.55,1.637-0.863,2.824-0.932
				c1.094-0.064,1.945,0.112,2.543,0.524c0.598,0.416,0.906,0.943,0.937,1.576c0.07,1.56,0.143,3.118,0.214,4.679
				c0.02,0.414,0.105,0.716,0.252,0.904c0.148,0.195,0.334,0.287,0.557,0.278C92.8,113.607,93.059,113.499,93.322,113.294z
				 M90.007,109.827c-1.625,0.298-2.762,0.719-3.41,1.243c-0.483,0.397-0.7,0.933-0.651,1.602c0.036,0.469,0.189,0.826,0.469,1.073
				c0.278,0.247,0.625,0.357,1.044,0.331c0.75-0.046,1.378-0.357,1.896-0.931c0.518-0.575,0.76-1.272,0.717-2.095
				C90.049,110.643,90.029,110.233,90.007,109.827z"/>
			<path fill="#FFFFFF" d="M97.875,100.42c0.075,4.14,0.153,8.279,0.233,12.419c0.004,0.17,0.057,0.301,0.169,0.39
				c0.16,0.119,0.358,0.178,0.583,0.174c0.317-0.005,0.628-0.008,0.943-0.012c0.002,0.229,0.005,0.457,0.008,0.686
				c-1.681,0.019-3.359,0.056-5.039,0.109c-0.009-0.229-0.014-0.457-0.023-0.686c0.3-0.01,0.596-0.018,0.896-0.027
				c0.295-0.007,0.507-0.082,0.646-0.219c0.142-0.139,0.208-0.328,0.199-0.571c-0.09-3.476-0.179-6.95-0.267-10.424
				c-0.008-0.305-0.104-0.524-0.287-0.66c-0.25-0.188-0.558-0.278-0.918-0.268c-0.279,0.009-0.559,0.018-0.841,0.026
				c-0.008-0.229-0.015-0.458-0.022-0.686C95.394,100.578,96.634,100.495,97.875,100.42z"/>
			<path fill="#FFFFFF" d="M103.272,101.997c0.223,0.001,0.444,0.001,0.669,0.003c-0.006,1.164-0.013,2.329-0.021,3.494
				c0.993,0.005,1.988,0.016,2.98,0.033c-0.005,0.281-0.009,0.561-0.014,0.842c-0.992-0.018-1.979-0.029-2.971-0.034
				c-0.01,1.833-0.021,3.664-0.031,5.497c0,0.476,0.113,0.839,0.348,1.094c0.232,0.256,0.527,0.385,0.893,0.389
				c0.429,0.004,0.802-0.183,1.113-0.562c0.311-0.38,0.501-1.011,0.568-1.894c0.214,0.005,0.428,0.007,0.645,0.012
				c-0.062,1.139-0.353,1.979-0.862,2.522c-0.513,0.544-1.161,0.81-1.959,0.803c-0.731-0.007-1.303-0.201-1.72-0.589
				c-0.414-0.389-0.623-0.896-0.624-1.523c-0.003-1.917-0.005-3.835-0.007-5.753c-0.533,0.001-1.065,0.005-1.599,0.007
				c-0.001-0.213-0.001-0.426-0.004-0.64c0.729-0.12,1.284-0.405,1.665-0.857C102.909,104.163,103.222,103.217,103.272,101.997z"/>
			<path fill="#FFFFFF" d="M108.554,100.603c1.189-0.022,2.376-0.039,3.568-0.046c-0.084,2.198-0.166,4.398-0.252,6.599
				c0.506-0.566,1.043-0.982,1.614-1.248c0.567-0.264,1.169-0.382,1.79-0.35c0.596,0.028,1.115,0.191,1.572,0.479
				c0.354,0.228,0.644,0.609,0.871,1.142c0.225,0.532,0.314,1.154,0.269,1.858c-0.087,1.354-0.175,2.708-0.263,4.062
				c-0.02,0.263,0.04,0.455,0.173,0.583c0.134,0.127,0.349,0.203,0.645,0.222c0.255,0.016,0.507,0.034,0.76,0.052
				c-0.016,0.228-0.032,0.456-0.049,0.684c-1.6-0.11-3.198-0.206-4.8-0.285c0.012-0.229,0.024-0.456,0.035-0.685
				c0.181,0.009,0.354,0.018,0.533,0.027c0.406,0.02,0.689-0.025,0.854-0.143c0.162-0.116,0.252-0.298,0.266-0.549
				c0.078-1.354,0.155-2.709,0.234-4.064c0.04-0.712-0.108-1.277-0.456-1.696c-0.346-0.419-0.809-0.645-1.382-0.67
				c-0.451-0.023-0.879,0.074-1.271,0.28c-0.395,0.208-0.736,0.538-1.02,0.987c-0.287,0.449-0.435,0.931-0.456,1.442
				c-0.044,1.14-0.088,2.278-0.132,3.419c-0.012,0.305,0.048,0.523,0.175,0.656c0.126,0.134,0.345,0.205,0.648,0.219
				c0.253,0.01,0.509,0.021,0.763,0.032c-0.011,0.229-0.021,0.457-0.032,0.685c-1.565-0.07-3.132-0.123-4.696-0.162
				c0.006-0.229,0.012-0.457,0.018-0.686c0.179,0.006,0.354,0.01,0.533,0.014c0.361,0.01,0.621-0.051,0.777-0.183
				c0.156-0.134,0.238-0.342,0.249-0.629c0.109-3.406,0.217-6.813,0.323-10.222c0.014-0.364-0.083-0.642-0.289-0.826
				c-0.204-0.187-0.507-0.284-0.907-0.296c-0.227-0.007-0.456-0.011-0.681-0.017C108.546,101.06,108.548,100.83,108.554,100.603z"/>
			<path fill="#FFFFFF" d="M130.61,101.925c-0.457,4.114-0.924,8.229-1.396,12.345c-0.018,0.169,0.02,0.306,0.117,0.408
				c0.144,0.138,0.328,0.222,0.558,0.247c0.313,0.035,0.627,0.071,0.94,0.108c-0.027,0.227-0.055,0.454-0.083,0.682
				c-1.677-0.197-3.354-0.379-5.03-0.54c0.022-0.227,0.047-0.454,0.068-0.682c0.299,0.028,0.598,0.058,0.895,0.088
				c0.29,0.03,0.517-0.016,0.672-0.134c0.156-0.119,0.249-0.299,0.274-0.543c0.372-3.456,0.741-6.913,1.104-10.369
				c0.03-0.304-0.035-0.532-0.201-0.69c-0.225-0.221-0.52-0.349-0.879-0.384c-0.281-0.028-0.558-0.055-0.839-0.082
				c0.022-0.228,0.044-0.457,0.065-0.684C128.12,101.763,129.365,101.839,130.61,101.925z"/>
			<path fill="#FFFFFF" d="M140.821,112.835c-2.151-0.339-4.306-0.651-6.46-0.931c-0.142,1.297-0.01,2.243,0.392,2.839
				c0.461,0.671,1.109,1.065,1.951,1.185c1.238,0.178,2.334-0.346,3.311-1.571c0.193,0.116,0.386,0.232,0.579,0.35
				c-1.21,1.563-2.671,2.215-4.407,1.97c-1.184-0.166-2.123-0.709-2.825-1.635c-0.703-0.928-0.98-2.029-0.818-3.312
				c0.175-1.379,0.725-2.445,1.659-3.189c0.936-0.744,2.016-1.034,3.226-0.863c0.889,0.125,1.63,0.449,2.208,0.968
				c0.582,0.52,0.971,1.2,1.167,2.039C140.94,111.271,140.945,111.989,140.821,112.835z M134.448,111.26
				c1.307,0.171,2.613,0.353,3.92,0.544c0.232,0.033,0.422-0.013,0.574-0.142c0.148-0.128,0.258-0.37,0.311-0.726
				c0.102-0.662-0.033-1.261-0.408-1.791c-0.377-0.529-0.869-0.84-1.476-0.924c-0.682-0.096-1.297,0.108-1.845,0.605
				C134.975,109.327,134.62,110.139,134.448,111.26z"/>
			<path fill="#FFFFFF" d="M151.041,118.018c0.079,0.19,0.155,0.381,0.232,0.571c-0.554,0.354-1.111,0.474-1.669,0.363
				c-0.427-0.084-0.762-0.264-1.01-0.542s-0.426-0.718-0.535-1.316c-0.721,0.485-1.325,0.787-1.814,0.904
				c-0.494,0.117-1.057,0.118-1.689,0.007c-0.905-0.159-1.561-0.462-1.967-0.914c-0.406-0.451-0.562-0.971-0.461-1.553
				c0.15-0.878,0.818-1.519,2.021-1.91c1.2-0.391,2.742-0.518,4.609-0.361c0.084-0.425,0.167-0.85,0.251-1.275
				c0.091-0.454-0.032-0.882-0.365-1.279c-0.337-0.396-0.806-0.653-1.42-0.765c-0.565-0.101-1.075-0.082-1.522,0.063
				c-0.319,0.11-0.498,0.243-0.526,0.4c-0.014,0.089,0.038,0.245,0.159,0.464c0.146,0.271,0.199,0.504,0.166,0.688
				c-0.051,0.271-0.184,0.475-0.401,0.613c-0.217,0.14-0.479,0.182-0.78,0.13c-0.32-0.056-0.571-0.203-0.753-0.444
				c-0.181-0.241-0.243-0.521-0.188-0.839c0.102-0.596,0.556-1.08,1.369-1.448c0.813-0.367,1.814-0.448,2.996-0.231
				c1.09,0.198,1.882,0.574,2.367,1.116c0.488,0.548,0.663,1.134,0.535,1.755c-0.312,1.531-0.625,3.062-0.941,4.592
				c-0.083,0.408-0.075,0.72,0.023,0.938c0.097,0.226,0.259,0.359,0.477,0.402C150.452,118.197,150.73,118.154,151.041,118.018z
				 M148.641,113.859c-1.669-0.1-2.885,0.039-3.649,0.394c-0.571,0.271-0.914,0.739-1.031,1.399
				c-0.084,0.463-0.018,0.848,0.193,1.152c0.211,0.307,0.523,0.497,0.939,0.57c0.744,0.134,1.438-0.018,2.09-0.451
				s1.059-1.052,1.221-1.861C148.481,114.662,148.562,114.262,148.641,113.859z"/>
			<path fill="#FFFFFF" d="M153.679,110.766c1.501,0.312,3.001,0.639,4.5,0.979c-0.049,0.201-0.094,0.403-0.143,0.605
				c-0.6-0.124-0.992-0.158-1.178-0.109c-0.186,0.05-0.296,0.155-0.332,0.314c-0.029,0.132-0.025,0.271,0.007,0.415
				c0.426,1.823,0.831,3.646,1.216,5.469c1.102-1.426,2.217-2.845,3.344-4.257c0.053-0.074,0.09-0.152,0.111-0.236
				c0.109-0.43-0.289-0.812-1.193-1.141c0.049-0.201,0.1-0.402,0.146-0.604c1.262,0.297,2.522,0.602,3.781,0.92
				c-0.052,0.2-0.105,0.4-0.157,0.602c-0.395-0.061-0.72-0.041-0.986,0.057c-0.265,0.098-0.494,0.262-0.683,0.492
				c-1.709,2.079-3.388,4.177-5.038,6.287c-0.17-0.04-0.339-0.078-0.507-0.117c-0.567-2.689-1.178-5.38-1.834-8.069
				c-0.073-0.29-0.188-0.506-0.35-0.649c-0.162-0.143-0.439-0.26-0.836-0.349C153.593,111.172,153.637,110.969,153.679,110.766z"/>
			<path fill="#FFFFFF" d="M172.067,119.84c-2.129-0.623-4.262-1.215-6.396-1.779c-0.316,1.269-0.315,2.225,0.012,2.869
				c0.374,0.727,0.975,1.202,1.808,1.432c1.224,0.339,2.404-0.032,3.555-1.119c0.179,0.142,0.359,0.283,0.538,0.425
				c-1.434,1.392-2.996,1.841-4.716,1.368c-1.173-0.321-2.044-0.981-2.628-1.995c-0.585-1.011-0.717-2.144-0.378-3.394
				c0.359-1.344,1.058-2.33,2.099-2.944c1.041-0.615,2.168-0.759,3.37-0.431c0.88,0.241,1.585,0.662,2.103,1.254
				c0.518,0.593,0.819,1.319,0.905,2.177C172.397,118.307,172.306,119.018,172.067,119.84z M165.845,117.434
				c1.293,0.342,2.59,0.694,3.883,1.059c0.229,0.063,0.428,0.043,0.599-0.064c0.17-0.107,0.31-0.335,0.412-0.679
				c0.191-0.646,0.137-1.255-0.173-1.831c-0.307-0.575-0.768-0.947-1.367-1.112c-0.672-0.186-1.324-0.063-1.942,0.357
				C166.634,115.585,166.167,116.343,165.845,117.434z"/>
			<path fill="#FFFFFF" d="M174.215,121.523c0.066,1.126,0.286,1.959,0.659,2.501c0.375,0.542,0.929,0.928,1.662,1.161
				c0.678,0.216,1.25,0.248,1.706,0.092c0.461-0.158,0.764-0.444,0.913-0.867c0.086-0.242,0.094-0.476,0.021-0.703
				c-0.071-0.227-0.212-0.423-0.42-0.591c-0.21-0.165-0.782-0.501-1.731-0.992c-0.901-0.479-1.516-0.867-1.83-1.175
				c-0.32-0.309-0.53-0.663-0.635-1.067c-0.105-0.4-0.093-0.803,0.029-1.198c0.193-0.601,0.583-1.079,1.186-1.433
				c0.771-0.449,1.683-0.513,2.715-0.188c0.793,0.248,1.443,0.705,1.963,1.368c0.282-0.133,0.562-0.268,0.847-0.399
				c0.132,0.043,0.265,0.087,0.396,0.13c-0.248,0.993-0.504,1.985-0.759,2.978c-0.212-0.07-0.425-0.14-0.64-0.21
				c0.006-0.913-0.172-1.629-0.531-2.147c-0.359-0.516-0.896-0.888-1.604-1.111c-0.613-0.192-1.138-0.206-1.574-0.042
				c-0.435,0.163-0.716,0.441-0.841,0.831c-0.111,0.343-0.042,0.678,0.203,1.003c0.239,0.328,0.787,0.701,1.655,1.121
				c1.002,0.498,1.642,0.857,1.92,1.07c0.462,0.345,0.771,0.742,0.927,1.199c0.158,0.453,0.139,0.941-0.044,1.46
				c-0.257,0.716-0.774,1.218-1.557,1.515s-1.638,0.297-2.567-0.001c-0.861-0.274-1.574-0.791-2.143-1.554
				c-0.307,0.175-0.616,0.349-0.921,0.524c-0.167-0.05-0.329-0.1-0.495-0.149c0.288-1.105,0.573-2.211,0.856-3.317
				C173.79,121.396,174.003,121.458,174.215,121.523z"/>
		</g>
	</g>
</g>
</svg>
