<?xml version="1.0" encoding="utf-8"?>
<!-- Generator: Adobe Illustrator 16.0.0, SVG Export Plug-In . SVG Version: 6.00 Build 0)  -->
<!DOCTYPE svg PUBLIC "-//W3C//DTD SVG 1.1//EN" "http://www.w3.org/Graphics/SVG/1.1/DTD/svg11.dtd">
<svg version="1.1" id="Livello_1" xmlns="http://www.w3.org/2000/svg" xmlns:xlink="http://www.w3.org/1999/xlink" x="0px" y="0px"
	 width="210px" height="200px" viewBox="0 0 210 200" enable-background="new 0 0 210 200" xml:space="preserve">
<g>
	<circle fill="#BC1818" cx="105" cy="100" r="84"/>
	<circle fill="#BC1818" stroke="#FFFFFF" stroke-width="5" stroke-miterlimit="10" cx="105" cy="100" r="75.216"/>
	<g>
		<path fill="#E41815" stroke="#FFFFFF" stroke-width="2" stroke-miterlimit="10" d="M130.72,59.422
			c-9.322-1.27-16.883-0.516-25.719,7.816c-9.145-6.408-13.385-7.691-21.609-7.691c-17.674,0-33.875,21.123-29.436,46.314
			c4.494,25.488,14.258,41.336,29.436,46.316c7.49,2.457,12.465-2.479,21.92-5.572c5.426,1.605,6.344,2.68,12.896,4.6
			c14.779,4.328,34.506-16.223,37.961-41.568S148.231,61.811,130.72,59.422z"/>
		<path fill="#E41815" stroke="#FFFFFF" stroke-width="2" stroke-miterlimit="10" d="M100.269,56.81
			c-1.344-6.299-3.051-9.148-1.164-9.553c1.887-0.402,3.729,0.201,5.076,6.498c1.346,6.299,2.424,11.5,0.537,11.902
			S101.614,63.104,100.269,56.81z"/>
	</g>
</g>
</svg>
