<?xml version="1.0" encoding="utf-8"?>
<!-- Generator: Adobe Illustrator 16.0.0, SVG Export Plug-In . SVG Version: 6.00 Build 0)  -->
<!DOCTYPE svg PUBLIC "-//W3C//DTD SVG 1.1//EN" "http://www.w3.org/Graphics/SVG/1.1/DTD/svg11.dtd">
<svg version="1.1" id="Livello_1" xmlns="http://www.w3.org/2000/svg" xmlns:xlink="http://www.w3.org/1999/xlink" x="0px" y="0px"
	 width="210px" height="200px" viewBox="0 0 210 200" enable-background="new 0 0 210 200" xml:space="preserve">
<g>
	<circle fill="#BC1818" cx="105" cy="100" r="84"/>
	<circle fill="#BC1818" stroke="#FFFFFF" stroke-width="5" stroke-miterlimit="10" cx="105" cy="100" r="75.216"/>
	<g>
		<path fill="#E41815" stroke="#FFFFFF" stroke-width="2" stroke-miterlimit="10" d="M130.72,59.422
			c-9.322-1.27-16.883-0.516-25.719,7.816c-9.145-6.408-13.385-7.691-21.609-7.691c-17.674,0-33.875,21.123-29.436,46.314
			c4.494,25.488,14.258,41.336,29.436,46.316c7.49,2.457,12.465-2.479,21.92-5.572c5.426,1.605,6.344,2.68,12.896,4.6
			c14.779,4.328,34.506-16.223,37.961-41.568S148.231,61.811,130.72,59.422z"/>
		<path fill="#E41815" stroke="#FFFFFF" stroke-width="2" stroke-miterlimit="10" d="M100.269,56.81
			c-1.344-6.299-3.051-9.148-1.164-9.553c1.887-0.402,3.729,0.201,5.076,6.498c1.346,6.299,2.424,11.5,0.537,11.902
			S101.614,63.104,100.269,56.81z"/>
	</g>
	<g>
		<g>
			<path fill="#D51116" stroke="#FFFFFF" stroke-width="2" stroke-miterlimit="10" d="M191.895,140.803
				c-2.533-5.82-5.349-11.609-8.445-17.347c6.004-2.538,12.218-4.851,18.63-6.915C138.106,89.685,65.961,89.854,2.092,117.05
				c0.04,0.094,0.08,0.188,0.12,0.282c6.617,2.096,13.025,4.457,19.211,7.058c-2.898,5.433-5.546,10.909-7.941,16.415
				C70.538,116.852,134.837,116.851,191.895,140.803L191.895,140.803L191.895,140.803z"/>
		</g>
	</g>
	<g>
		<g>
			<path fill="#FFFFFF" d="M30.618,112.684c1.178,3.627,2.373,7.253,3.585,10.875c0.055,0.162,0.161,0.269,0.312,0.316
				c0.223,0.064,0.464,0.057,0.726-0.023c0.607-0.187,1.212-0.37,1.818-0.553c0.069,0.218,0.139,0.438,0.209,0.656
				c-2.24,0.671-4.479,1.379-6.711,2.124c-0.077-0.216-0.155-0.433-0.233-0.648c0.519-0.172,1.034-0.343,1.551-0.511
				c0.323-0.105,0.54-0.255,0.646-0.446c0.106-0.193,0.12-0.406,0.038-0.645c-0.938-2.729-1.865-5.464-2.783-8.195
				c-0.057-0.169-0.18-0.287-0.367-0.355c-0.189-0.068-0.402-0.062-0.638,0.014c-0.726,0.234-1.45,0.473-2.175,0.715
				c-0.069-0.198-0.141-0.397-0.209-0.597c0.982-0.458,1.761-0.882,2.334-1.282s1.053-0.833,1.438-1.3
				C30.313,112.779,30.466,112.732,30.618,112.684z"/>
			<path fill="#FFFFFF" d="M40.627,109.547c1.294-0.343,2.495-0.172,3.586,0.513c1.35,0.838,2.296,2.393,2.866,4.639
				c0.532,2.09,0.491,3.79-0.103,5.099c-0.594,1.312-1.498,2.124-2.733,2.452c-1.193,0.317-2.315,0.136-3.391-0.547
				c-1.344-0.86-2.355-2.359-3.008-4.514c-0.617-2.047-0.62-3.818,0.022-5.312C38.378,110.679,39.307,109.896,40.627,109.547z
				 M40.86,110.167c-0.873,0.232-1.451,0.791-1.726,1.666c-0.275,0.878-0.073,2.483,0.609,4.818c0.667,2.282,1.36,3.735,2.063,4.366
				c0.705,0.63,1.455,0.837,2.264,0.623c0.814-0.218,1.341-0.731,1.591-1.553c0.292-0.977,0.146-2.584-0.444-4.823
				c-0.61-2.314-1.269-3.803-1.99-4.455C42.506,110.155,41.715,109.94,40.86,110.167z"/>
			<path fill="#FFFFFF" d="M52.261,106.146c1.173-0.303,2.35-0.595,3.527-0.88c0.434,2.159,0.868,4.318,1.308,6.478
				c0.364-0.668,0.798-1.2,1.299-1.589c0.5-0.39,1.062-0.645,1.686-0.756c0.59-0.107,1.146-0.073,1.664,0.104
				c0.404,0.14,0.778,0.443,1.126,0.911c0.347,0.465,0.579,1.049,0.701,1.746c0.234,1.337,0.469,2.675,0.705,4.012
				c0.047,0.258,0.149,0.434,0.309,0.527c0.16,0.094,0.388,0.118,0.686,0.067c0.252-0.042,0.505-0.083,0.758-0.124
				c0.039,0.227,0.077,0.451,0.114,0.677c-1.594,0.257-3.187,0.533-4.78,0.824c-0.043-0.224-0.085-0.448-0.13-0.673
				c0.177-0.033,0.354-0.065,0.531-0.097c0.403-0.073,0.671-0.185,0.804-0.335s0.175-0.348,0.13-0.595
				c-0.246-1.335-0.49-2.672-0.734-4.007c-0.128-0.702-0.411-1.219-0.852-1.546s-0.948-0.438-1.521-0.333
				c-0.45,0.083-0.848,0.274-1.188,0.568s-0.6,0.696-0.774,1.197c-0.174,0.505-0.207,1.008-0.105,1.509
				c0.229,1.118,0.46,2.237,0.69,3.354c0.062,0.299,0.172,0.499,0.331,0.598c0.157,0.099,0.39,0.12,0.691,0.062
				c0.252-0.048,0.505-0.098,0.758-0.145c0.045,0.224,0.088,0.448,0.135,0.672c-1.557,0.296-3.114,0.608-4.667,0.938
				c-0.051-0.225-0.1-0.447-0.15-0.67c0.176-0.038,0.354-0.075,0.53-0.112c0.358-0.074,0.599-0.194,0.721-0.359
				c0.123-0.166,0.153-0.39,0.095-0.67c-0.715-3.337-1.421-6.675-2.119-10.013c-0.074-0.358-0.235-0.604-0.482-0.738
				c-0.246-0.131-0.569-0.157-0.97-0.074c-0.226,0.047-0.453,0.096-0.679,0.144C52.359,106.595,52.308,106.37,52.261,106.146z"/>
			<path fill="#FFFFFF" d="M75.018,111.81c-2.161,0.256-4.321,0.543-6.479,0.861c0.229,1.284,0.624,2.159,1.181,2.62
				c0.636,0.519,1.37,0.72,2.213,0.606c1.239-0.166,2.146-0.965,2.737-2.406c0.219,0.061,0.438,0.119,0.654,0.18
				c-0.725,1.831-1.938,2.85-3.677,3.086c-1.183,0.162-2.241-0.103-3.184-0.8c-0.942-0.698-1.522-1.681-1.729-2.958
				c-0.223-1.373,0.008-2.549,0.704-3.52c0.694-0.971,1.657-1.544,2.874-1.709c0.893-0.122,1.696-0.01,2.399,0.33
				c0.704,0.342,1.265,0.892,1.688,1.646C74.696,110.276,74.9,110.963,75.018,111.81z M68.44,112.028
				c1.311-0.193,2.619-0.375,3.931-0.545c0.232-0.029,0.401-0.126,0.513-0.292c0.11-0.163,0.144-0.427,0.097-0.782
				c-0.088-0.664-0.383-1.203-0.894-1.611c-0.508-0.407-1.072-0.57-1.681-0.487c-0.683,0.095-1.221,0.456-1.61,1.086
				C68.404,110.025,68.288,110.904,68.44,112.028z"/>
			<path fill="#FFFFFF" d="M86.229,114.056c0.126,0.163,0.254,0.325,0.379,0.488c-0.43,0.487-0.924,0.752-1.487,0.794
				c-0.43,0.031-0.802-0.053-1.113-0.254c-0.313-0.201-0.604-0.575-0.876-1.122c-0.555,0.659-1.044,1.109-1.479,1.354
				c-0.437,0.244-0.974,0.398-1.61,0.46c-0.909,0.089-1.62-0.025-2.137-0.351c-0.518-0.324-0.812-0.779-0.878-1.369
				c-0.103-0.885,0.36-1.68,1.403-2.381c1.042-0.697,2.481-1.232,4.311-1.581c-0.037-0.432-0.074-0.862-0.111-1.294
				c-0.04-0.463-0.271-0.839-0.7-1.135c-0.429-0.292-0.952-0.413-1.569-0.354c-0.57,0.053-1.052,0.209-1.442,0.469
				c-0.278,0.193-0.41,0.367-0.394,0.526c0.01,0.092,0.104,0.226,0.279,0.404c0.215,0.222,0.331,0.43,0.35,0.617
				c0.028,0.273-0.043,0.506-0.214,0.697c-0.171,0.192-0.406,0.303-0.713,0.335c-0.325,0.032-0.605-0.041-0.845-0.225
				c-0.239-0.183-0.38-0.436-0.415-0.756c-0.064-0.601,0.234-1.189,0.915-1.762c0.679-0.573,1.617-0.919,2.809-1.027
				c1.102-0.1,1.959,0.051,2.573,0.442c0.613,0.396,0.942,0.914,0.991,1.546c0.121,1.556,0.244,3.112,0.366,4.669
				c0.032,0.414,0.129,0.713,0.282,0.896c0.155,0.189,0.344,0.277,0.566,0.26C85.718,114.385,85.97,114.27,86.229,114.056z
				 M82.792,110.695c-1.622,0.349-2.749,0.81-3.381,1.355c-0.471,0.414-0.67,0.957-0.598,1.623c0.049,0.466,0.219,0.819,0.507,1.056
				c0.287,0.237,0.641,0.336,1.058,0.297c0.748-0.072,1.371-0.403,1.871-0.993c0.5-0.591,0.717-1.297,0.648-2.117
				C82.861,111.509,82.826,111.103,82.792,110.695z"/>
			<path fill="#FFFFFF" d="M90.407,101.05c0.199,4.135,0.4,8.272,0.604,12.407c0.01,0.168,0.069,0.298,0.182,0.384
				c0.164,0.115,0.361,0.167,0.589,0.157c0.313-0.014,0.63-0.027,0.944-0.04c0.009,0.229,0.02,0.456,0.028,0.686
				c-1.684,0.067-3.362,0.152-5.044,0.259c-0.016-0.228-0.029-0.455-0.044-0.684c0.299-0.019,0.597-0.037,0.896-0.055
				c0.291-0.017,0.505-0.097,0.64-0.238c0.135-0.144,0.196-0.334,0.183-0.578c-0.196-3.471-0.392-6.941-0.584-10.411
				c-0.018-0.305-0.118-0.521-0.309-0.65c-0.259-0.18-0.569-0.262-0.932-0.24c-0.281,0.019-0.562,0.035-0.845,0.053
				c-0.015-0.228-0.029-0.457-0.044-0.685C87.917,101.282,89.161,101.161,90.407,101.05z"/>
			<path fill="#FFFFFF" d="M95.88,102.472c0.224-0.005,0.447-0.01,0.672-0.016c0.025,1.166,0.051,2.33,0.076,3.494
				c0.998-0.021,1.995-0.036,2.992-0.045c0.004,0.28,0.006,0.561,0.009,0.841c-0.995,0.008-1.987,0.023-2.982,0.045
				c0.04,1.832,0.081,3.663,0.122,5.496c0.012,0.475,0.137,0.837,0.379,1.085c0.24,0.248,0.541,0.37,0.903,0.363
				c0.434-0.006,0.796-0.205,1.101-0.591c0.299-0.389,0.473-1.022,0.518-1.907c0.215-0.003,0.43-0.004,0.646-0.006
				c-0.029,1.141-0.297,1.988-0.794,2.545c-0.498,0.556-1.141,0.84-1.939,0.854c-0.733,0.014-1.312-0.167-1.738-0.544
				c-0.427-0.375-0.649-0.876-0.67-1.504c-0.058-1.916-0.114-3.834-0.17-5.75c-0.534,0.015-1.068,0.032-1.603,0.051
				c-0.009-0.212-0.016-0.425-0.023-0.639c0.728-0.144,1.276-0.442,1.647-0.904C95.576,104.648,95.862,103.692,95.88,102.472z"/>
			<path fill="#FFFFFF" d="M101.152,100.938c1.193-0.055,2.389-0.1,3.583-0.136c-0.028,2.201-0.058,4.402-0.088,6.604
				c0.491-0.579,1.023-1.008,1.588-1.287c0.564-0.278,1.162-0.409,1.788-0.392c0.593,0.016,1.123,0.164,1.589,0.443
				c0.361,0.218,0.66,0.596,0.9,1.122c0.238,0.527,0.342,1.145,0.312,1.852c-0.057,1.356-0.112,2.711-0.169,4.067
				c-0.011,0.261,0.052,0.454,0.186,0.579c0.135,0.124,0.352,0.193,0.649,0.206c0.254,0.013,0.507,0.023,0.762,0.036
				c-0.011,0.228-0.022,0.455-0.034,0.684c-1.602-0.075-3.203-0.135-4.806-0.177c0.007-0.229,0.011-0.457,0.018-0.686
				c0.179,0.006,0.356,0.01,0.534,0.016c0.405,0.011,0.689-0.043,0.851-0.163c0.162-0.119,0.244-0.304,0.252-0.554
				c0.048-1.356,0.094-2.712,0.14-4.068c0.024-0.714-0.139-1.275-0.497-1.686c-0.356-0.411-0.826-0.624-1.403-0.639
				c-0.454-0.012-0.877,0.093-1.268,0.311c-0.39,0.219-0.724,0.556-0.998,1.013c-0.275,0.455-0.413,0.942-0.421,1.453
				c-0.016,1.14-0.031,2.279-0.047,3.42c-0.004,0.305,0.062,0.522,0.192,0.652c0.132,0.13,0.351,0.197,0.655,0.202
				c0.253,0.004,0.509,0.009,0.763,0.014c-0.006,0.229-0.01,0.457-0.015,0.687c-1.567-0.032-3.136-0.048-4.703-0.046
				c0.001-0.229,0.001-0.458-0.001-0.686c0.178,0,0.355,0,0.533,0c0.363,0.001,0.621-0.067,0.774-0.204
				c0.153-0.138,0.231-0.347,0.232-0.634c0.022-3.408,0.043-6.817,0.064-10.227c0.003-0.364-0.102-0.638-0.311-0.819
				c-0.213-0.181-0.518-0.271-0.921-0.272c-0.227,0-0.455,0.001-0.685,0.001C101.152,101.396,101.152,101.167,101.152,100.938z"/>
			<path fill="#FFFFFF" d="M123.34,101.781c-0.383,4.123-0.771,8.246-1.167,12.368c-0.016,0.168,0.025,0.305,0.125,0.405
				c0.146,0.137,0.334,0.216,0.562,0.237c0.314,0.03,0.629,0.061,0.943,0.092c-0.025,0.227-0.048,0.454-0.072,0.683
				c-1.678-0.167-3.358-0.317-5.038-0.445c0.02-0.228,0.036-0.456,0.055-0.684c0.297,0.023,0.597,0.047,0.896,0.071
				c0.291,0.023,0.515-0.025,0.669-0.147c0.155-0.122,0.242-0.305,0.265-0.548c0.306-3.462,0.607-6.926,0.903-10.389
				c0.026-0.302-0.044-0.533-0.214-0.687c-0.23-0.216-0.527-0.337-0.89-0.367c-0.282-0.022-0.562-0.044-0.845-0.065
				c0.018-0.229,0.035-0.457,0.052-0.685C120.835,101.664,122.088,101.717,123.34,101.781z"/>
			<path fill="#FFFFFF" d="M133.764,112.526c-2.159-0.309-4.32-0.586-6.481-0.832c-0.122,1.302,0.025,2.246,0.438,2.834
				c0.475,0.662,1.128,1.045,1.971,1.152c1.239,0.157,2.33-0.381,3.287-1.619c0.195,0.112,0.39,0.227,0.585,0.341
				c-1.188,1.581-2.639,2.253-4.377,2.035c-1.185-0.147-2.132-0.675-2.853-1.589c-0.72-0.916-1.016-2.013-0.876-3.299
				c0.148-1.382,0.681-2.457,1.605-3.217c0.924-0.759,2.003-1.067,3.219-0.915c0.894,0.112,1.64,0.425,2.229,0.936
				c0.591,0.51,0.991,1.188,1.2,2.022C133.859,110.963,133.875,111.681,133.764,112.526z M127.357,111.05
				c1.312,0.149,2.624,0.311,3.934,0.482c0.234,0.031,0.423-0.019,0.573-0.149c0.151-0.13,0.249-0.374,0.3-0.73
				c0.094-0.666-0.053-1.259-0.438-1.785c-0.385-0.524-0.885-0.825-1.494-0.902c-0.684-0.085-1.296,0.13-1.839,0.636
				C127.852,109.109,127.507,109.927,127.357,111.05z"/>
			<path fill="#FFFFFF" d="M144.056,117.585c0.08,0.188,0.159,0.379,0.237,0.568c-0.549,0.359-1.105,0.487-1.664,0.381
				c-0.427-0.078-0.767-0.256-1.016-0.531c-0.25-0.275-0.434-0.711-0.55-1.309c-0.714,0.493-1.312,0.801-1.804,0.925
				c-0.491,0.122-1.053,0.132-1.688,0.027c-0.907-0.146-1.563-0.441-1.979-0.888c-0.413-0.446-0.574-0.962-0.483-1.547
				c0.137-0.878,0.8-1.53,1.996-1.936c1.199-0.407,2.736-0.553,4.61-0.417c0.079-0.427,0.159-0.853,0.236-1.278
				c0.084-0.456-0.043-0.882-0.381-1.276c-0.342-0.395-0.817-0.644-1.434-0.748c-0.57-0.095-1.078-0.067-1.526,0.082
				c-0.321,0.114-0.494,0.251-0.521,0.407c-0.016,0.092,0.04,0.245,0.164,0.462c0.149,0.271,0.208,0.501,0.176,0.687
				c-0.043,0.271-0.178,0.477-0.393,0.618c-0.218,0.143-0.475,0.187-0.78,0.14c-0.322-0.051-0.576-0.195-0.761-0.435
				c-0.184-0.237-0.251-0.517-0.201-0.836c0.093-0.597,0.542-1.088,1.353-1.466c0.811-0.379,1.812-0.471,3-0.268
				c1.096,0.187,1.894,0.552,2.388,1.09c0.495,0.542,0.678,1.125,0.559,1.748c-0.294,1.534-0.592,3.067-0.89,4.602
				c-0.079,0.407-0.068,0.72,0.034,0.938c0.099,0.223,0.262,0.355,0.481,0.397C143.468,117.771,143.745,117.725,144.056,117.585z
				 M141.605,113.453c-1.673-0.081-2.888,0.073-3.648,0.437c-0.565,0.279-0.904,0.75-1.013,1.413
				c-0.076,0.464-0.007,0.847,0.207,1.149c0.219,0.305,0.531,0.49,0.948,0.56c0.745,0.122,1.438-0.036,2.084-0.477
				c0.646-0.443,1.049-1.066,1.198-1.877C141.457,114.257,141.531,113.855,141.605,113.453z"/>
			<path fill="#FFFFFF" d="M146.616,110.306c1.51,0.299,3.017,0.612,4.522,0.939c-0.046,0.203-0.092,0.405-0.137,0.606
				c-0.602-0.118-0.996-0.149-1.182-0.099c-0.187,0.051-0.295,0.158-0.33,0.317c-0.029,0.132-0.026,0.269,0.011,0.415
				c0.445,1.819,0.867,3.639,1.268,5.458c1.09-1.434,2.195-2.861,3.313-4.28c0.052-0.076,0.09-0.156,0.108-0.238
				c0.105-0.432-0.297-0.812-1.205-1.131c0.047-0.202,0.095-0.404,0.142-0.605c1.268,0.287,2.533,0.585,3.799,0.895
				c-0.051,0.201-0.103,0.402-0.154,0.603c-0.393-0.058-0.722-0.035-0.987,0.062c-0.268,0.101-0.495,0.266-0.68,0.497
				c-1.697,2.092-3.359,4.199-4.992,6.322c-0.17-0.037-0.34-0.074-0.509-0.111c-0.592-2.685-1.228-5.369-1.911-8.052
				c-0.074-0.29-0.196-0.505-0.359-0.647c-0.162-0.144-0.446-0.256-0.84-0.342C146.535,110.714,146.576,110.51,146.616,110.306z"/>
			<path fill="#FFFFFF" d="M165.111,119.268c-2.135-0.617-4.274-1.2-6.416-1.753c-0.311,1.27-0.302,2.226,0.028,2.867
				c0.38,0.724,0.981,1.198,1.815,1.424c1.226,0.333,2.405-0.042,3.554-1.132c0.181,0.141,0.359,0.28,0.54,0.423
				c-1.433,1.395-2.993,1.852-4.715,1.387c-1.171-0.316-2.047-0.975-2.638-1.982c-0.59-1.009-0.729-2.138-0.4-3.391
				c0.354-1.347,1.042-2.336,2.084-2.957c1.039-0.618,2.172-0.771,3.376-0.445c0.888,0.238,1.593,0.657,2.115,1.246
				c0.523,0.589,0.83,1.318,0.918,2.176C165.438,117.733,165.348,118.444,165.111,119.268z M158.865,116.886
				c1.3,0.335,2.599,0.683,3.896,1.041c0.229,0.064,0.429,0.043,0.599-0.066c0.171-0.106,0.307-0.335,0.41-0.68
				c0.189-0.645,0.132-1.256-0.182-1.831s-0.772-0.943-1.378-1.107c-0.674-0.182-1.327-0.061-1.945,0.365
				C159.646,115.033,159.181,115.794,158.865,116.886z"/>
			<path fill="#FFFFFF" d="M167.269,120.946c0.07,1.126,0.29,1.959,0.665,2.5c0.378,0.542,0.932,0.927,1.665,1.159
				c0.679,0.217,1.247,0.247,1.708,0.09s0.767-0.444,0.915-0.866c0.085-0.242,0.092-0.477,0.019-0.704
				c-0.071-0.226-0.212-0.422-0.421-0.59c-0.21-0.168-0.786-0.5-1.735-0.992c-0.906-0.477-1.519-0.864-1.837-1.173
				c-0.319-0.309-0.534-0.663-0.64-1.066c-0.106-0.401-0.097-0.801,0.027-1.198c0.188-0.601,0.581-1.079,1.184-1.435
				c0.772-0.45,1.684-0.516,2.723-0.19c0.793,0.248,1.452,0.704,1.972,1.368c0.282-0.134,0.565-0.267,0.85-0.399
				c0.134,0.044,0.266,0.088,0.399,0.131c-0.251,0.993-0.504,1.985-0.759,2.979c-0.214-0.07-0.429-0.142-0.642-0.211
				c0.003-0.913-0.175-1.631-0.537-2.148c-0.361-0.516-0.9-0.889-1.612-1.11c-0.618-0.193-1.143-0.206-1.578-0.041
				c-0.437,0.163-0.717,0.441-0.841,0.832c-0.109,0.345-0.039,0.678,0.206,1.002c0.238,0.328,0.792,0.701,1.662,1.121
				c1.006,0.497,1.646,0.857,1.927,1.07c0.461,0.344,0.771,0.742,0.93,1.197c0.157,0.454,0.141,0.942-0.044,1.462
				c-0.255,0.715-0.775,1.219-1.56,1.516c-0.783,0.296-1.637,0.296-2.569,0c-0.863-0.274-1.577-0.79-2.146-1.552
				c-0.309,0.176-0.615,0.351-0.92,0.526c-0.165-0.049-0.329-0.098-0.496-0.147c0.286-1.106,0.568-2.213,0.848-3.32
				C166.844,120.819,167.056,120.882,167.269,120.946z"/>
		</g>
	</g>
</g>
</svg>
