<?xml version="1.0" encoding="utf-8"?>
<!-- Generator: Adobe Illustrator 16.0.0, SVG Export Plug-In . SVG Version: 6.00 Build 0)  -->
<!DOCTYPE svg PUBLIC "-//W3C//DTD SVG 1.1//EN" "http://www.w3.org/Graphics/SVG/1.1/DTD/svg11.dtd">
<svg version="1.1" id="Livello_1" xmlns="http://www.w3.org/2000/svg" xmlns:xlink="http://www.w3.org/1999/xlink" x="0px" y="0px"
	 width="210px" height="200px" viewBox="0 0 210 200" enable-background="new 0 0 210 200" xml:space="preserve">
<g>
	<circle fill="#BC1818" cx="105" cy="100" r="84"/>
	<circle fill="#BC1818" stroke="#FFFFFF" stroke-width="5" stroke-miterlimit="10" cx="105" cy="100" r="75.216"/>
	<g>
		<path fill="#E41815" stroke="#FFFFFF" stroke-width="2" stroke-miterlimit="10" d="M130.72,59.422
			c-9.322-1.27-16.883-0.516-25.719,7.816c-9.145-6.408-13.385-7.691-21.609-7.691c-17.674,0-33.875,21.123-29.436,46.314
			c4.494,25.488,14.258,41.336,29.436,46.316c7.49,2.457,12.465-2.479,21.92-5.572c5.426,1.605,6.344,2.68,12.896,4.6
			c14.779,4.328,34.506-16.223,37.961-41.568S148.231,61.811,130.72,59.422z"/>
		<path fill="#E41815" stroke="#FFFFFF" stroke-width="2" stroke-miterlimit="10" d="M100.269,56.81
			c-1.344-6.299-3.051-9.148-1.164-9.553c1.887-0.402,3.729,0.201,5.076,6.498c1.346,6.299,2.424,11.5,0.537,11.902
			S101.614,63.104,100.269,56.81z"/>
	</g>
	<g>
		<g>
			<path fill="#D51116" stroke="#FFFFFF" stroke-width="2" stroke-miterlimit="10" d="M191.895,140.803
				c-2.533-5.82-5.349-11.609-8.445-17.347c6.004-2.538,12.218-4.851,18.63-6.915C138.106,89.685,65.961,89.854,2.092,117.05
				c0.04,0.094,0.08,0.188,0.12,0.282c6.617,2.096,13.025,4.457,19.211,7.058c-2.898,5.433-5.546,10.909-7.941,16.415
				C70.538,116.852,134.837,116.851,191.895,140.803L191.895,140.803L191.895,140.803z"/>
		</g>
	</g>
	<g>
		<g>
			<path fill="#FFFFFF" d="M30.462,124.11c-0.169,0.439,1.307,0.133,4.429-0.818c0.469-0.143,0.767-0.354,0.895-0.643
				c0.13-0.286,0.159-0.985,0.097-2.096c0.218-0.063,0.437-0.127,0.656-0.191c0.27,1.242,0.547,2.486,0.822,3.727
				c-2.792,0.817-5.575,1.689-8.352,2.616c-0.057-0.155-0.113-0.312-0.169-0.467c0.562-1.256,1.139-2.511,1.731-3.766
				c1.014-2.02,1.645-3.273,1.829-3.766c0.265-0.703,0.422-1.348,0.462-1.938c0.039-0.59-0.007-1.102-0.143-1.533
				c-0.224-0.717-0.623-1.216-1.199-1.489c-0.576-0.275-1.266-0.292-2.062-0.043c-0.896,0.279-1.564,0.702-2.001,1.26
				c-0.437,0.559-0.58,1.049-0.437,1.472c0.051,0.144,0.128,0.24,0.24,0.289c0.103,0.05,0.298,0.061,0.575,0.034
				c0.705-0.073,1.146,0.167,1.33,0.71c0.098,0.296,0.071,0.577-0.083,0.841c-0.153,0.263-0.399,0.451-0.741,0.562
				c-0.393,0.127-0.795,0.076-1.204-0.153c-0.41-0.228-0.709-0.606-0.893-1.13c-0.205-0.59-0.222-1.183-0.044-1.778
				s0.562-1.161,1.156-1.696c0.596-0.534,1.297-0.929,2.103-1.179c0.8-0.249,1.589-0.323,2.368-0.225
				c0.776,0.098,1.413,0.346,1.903,0.739c0.492,0.393,0.825,0.886,1.003,1.469c0.122,0.403,0.165,0.838,0.122,1.301
				c-0.041,0.464-0.166,0.926-0.375,1.381c-0.357,0.79-0.757,1.492-1.193,2.111c-0.634,0.903-1.259,1.809-1.874,2.715
				C30.947,123.113,30.63,123.676,30.462,124.11z"/>
			<path fill="#FFFFFF" d="M37.769,110.514c1.773-0.115,3.183-0.299,4.245-0.568c0.497-0.127,0.955-0.287,1.368-0.481
				c0.416-0.192,0.722-0.373,0.911-0.538c0.1-0.08,0.166-0.125,0.199-0.134c0.065-0.017,0.112,0.02,0.134,0.109
				c0.051,0.207-0.031,0.518-0.243,0.931c-0.214,0.413-0.546,0.783-1.007,1.111c-0.458,0.328-1.021,0.574-1.684,0.747
				c-0.769,0.199-1.717,0.333-2.839,0.408c0.206,1.152,0.417,2.305,0.63,3.456c0.43-0.356,0.851-0.65,1.27-0.882
				c0.416-0.231,0.825-0.397,1.229-0.502c1.272-0.331,2.448-0.213,3.507,0.344c1.061,0.559,1.726,1.409,2.008,2.541
				c0.312,1.256,0.123,2.396-0.562,3.426c-0.682,1.029-1.723,1.721-3.134,2.09c-1.08,0.281-2.04,0.231-2.89-0.161
				c-0.848-0.393-1.395-0.982-1.63-1.78c-0.143-0.48-0.142-0.882,0-1.204c0.146-0.323,0.388-0.53,0.733-0.625
				c0.336-0.093,0.644-0.063,0.915,0.089c0.272,0.152,0.456,0.394,0.552,0.729c0.071,0.253,0.074,0.464,0.011,0.633
				c-0.065,0.168-0.223,0.339-0.473,0.509c-0.248,0.174-0.355,0.327-0.317,0.456c0.056,0.189,0.209,0.368,0.464,0.544
				c0.252,0.174,0.592,0.283,1.01,0.324c0.421,0.045,0.875,0,1.363-0.129c0.959-0.25,1.613-0.716,1.972-1.404
				c0.357-0.688,0.373-1.664,0.044-2.931c-0.298-1.149-0.788-1.929-1.479-2.321c-0.688-0.394-1.462-0.48-2.318-0.258
				c-0.389,0.102-0.759,0.269-1.111,0.502c-0.353,0.234-0.684,0.531-0.999,0.896c0.072,0.424,0.07,0.721-0.005,0.89
				c-0.076,0.17-0.204,0.279-0.384,0.329c-0.128,0.036-0.243,0.022-0.342-0.038c-0.102-0.062-0.175-0.165-0.217-0.312
				c-0.076-0.259-0.016-0.549,0.174-0.876c0.055-0.097,0.092-0.181,0.105-0.247c-0.174-0.884-0.344-1.769-0.514-2.653
				C38.267,112.486,38.035,111.48,37.769,110.514z"/>
			<path fill="#FFFFFF" d="M52.341,106.4c1.174-0.296,2.35-0.582,3.528-0.86c0.421,2.161,0.845,4.321,1.272,6.483
				c0.368-0.667,0.805-1.194,1.307-1.582c0.501-0.388,1.063-0.637,1.688-0.747c0.59-0.104,1.146-0.067,1.661,0.111
				c0.4,0.141,0.777,0.449,1.121,0.916c0.346,0.468,0.573,1.053,0.692,1.751c0.228,1.338,0.455,2.677,0.686,4.015
				c0.044,0.258,0.145,0.435,0.304,0.529c0.16,0.095,0.388,0.118,0.686,0.071c0.253-0.041,0.506-0.081,0.758-0.121
				c0.038,0.226,0.075,0.452,0.11,0.677c-1.594,0.25-3.188,0.518-4.781,0.802c-0.041-0.225-0.085-0.449-0.126-0.674
				c0.177-0.032,0.354-0.063,0.531-0.095c0.404-0.071,0.673-0.182,0.806-0.331c0.133-0.148,0.178-0.348,0.132-0.594
				c-0.24-1.336-0.478-2.674-0.714-4.011c-0.124-0.701-0.404-1.221-0.842-1.55c-0.438-0.328-0.947-0.443-1.52-0.34
				c-0.451,0.081-0.848,0.269-1.189,0.562c-0.34,0.293-0.602,0.692-0.779,1.193c-0.176,0.504-0.212,1.006-0.113,1.508
				c0.223,1.12,0.446,2.239,0.672,3.358c0.06,0.298,0.17,0.498,0.327,0.599s0.388,0.123,0.691,0.066
				c0.252-0.049,0.506-0.095,0.758-0.142c0.043,0.225,0.086,0.449,0.131,0.674c-1.557,0.286-3.114,0.59-4.669,0.911
				c-0.05-0.224-0.098-0.447-0.146-0.672c0.176-0.035,0.354-0.072,0.529-0.107c0.36-0.072,0.601-0.192,0.725-0.356
				c0.12-0.165,0.154-0.388,0.097-0.669c-0.696-3.341-1.385-6.682-2.063-10.023c-0.072-0.359-0.233-0.607-0.478-0.74
				c-0.248-0.135-0.567-0.161-0.969-0.08c-0.227,0.046-0.453,0.094-0.68,0.14C52.435,106.849,52.388,106.625,52.341,106.4z"/>
			<path fill="#FFFFFF" d="M75.051,112.177c-2.161,0.246-4.322,0.523-6.479,0.831c0.222,1.285,0.612,2.163,1.167,2.626
				c0.633,0.521,1.366,0.727,2.209,0.617c1.241-0.161,2.147-0.952,2.747-2.394c0.218,0.062,0.437,0.121,0.653,0.183
				c-0.73,1.827-1.948,2.842-3.688,3.069c-1.186,0.156-2.242-0.113-3.18-0.815c-0.938-0.703-1.514-1.688-1.715-2.966
				c-0.214-1.373,0.021-2.549,0.722-3.516c0.697-0.967,1.666-1.537,2.88-1.696c0.893-0.117,1.692-0.003,2.396,0.343
				c0.701,0.344,1.262,0.897,1.681,1.651C74.736,110.642,74.939,111.331,75.051,112.177z M68.476,112.365
				c1.31-0.188,2.621-0.362,3.932-0.526c0.232-0.029,0.401-0.126,0.515-0.289c0.109-0.165,0.143-0.424,0.099-0.781
				c-0.083-0.668-0.378-1.207-0.884-1.616c-0.509-0.408-1.067-0.575-1.678-0.495c-0.681,0.091-1.222,0.449-1.615,1.078
				C68.45,110.362,68.327,111.241,68.476,112.365z"/>
			<path fill="#FFFFFF" d="M86.249,114.471c0.125,0.164,0.251,0.325,0.376,0.489c-0.433,0.486-0.927,0.747-1.489,0.787
				c-0.43,0.03-0.801-0.055-1.113-0.258c-0.31-0.201-0.602-0.577-0.869-1.125c-0.557,0.657-1.049,1.105-1.485,1.348
				c-0.438,0.244-0.976,0.393-1.612,0.453c-0.908,0.086-1.62-0.031-2.136-0.36c-0.514-0.326-0.807-0.783-0.87-1.372
				c-0.101-0.883,0.37-1.679,1.414-2.375c1.044-0.693,2.484-1.222,4.313-1.562c-0.036-0.433-0.07-0.864-0.105-1.296
				c-0.036-0.46-0.269-0.841-0.694-1.138c-0.427-0.294-0.951-0.415-1.567-0.361c-0.571,0.052-1.053,0.205-1.444,0.464
				c-0.28,0.19-0.409,0.366-0.395,0.524c0.007,0.091,0.102,0.227,0.277,0.404c0.212,0.226,0.331,0.433,0.348,0.619
				c0.026,0.274-0.049,0.506-0.219,0.697c-0.17,0.192-0.409,0.302-0.713,0.332c-0.324,0.033-0.604-0.045-0.844-0.229
				c-0.24-0.185-0.375-0.437-0.411-0.758c-0.063-0.601,0.239-1.188,0.923-1.758c0.681-0.57,1.62-0.911,2.811-1.016
				c1.1-0.096,1.957,0.059,2.568,0.453c0.614,0.399,0.939,0.918,0.986,1.55c0.114,1.558,0.229,3.113,0.347,4.67
				c0.03,0.414,0.123,0.714,0.278,0.898c0.156,0.19,0.343,0.278,0.564,0.263C85.735,114.799,85.988,114.684,86.249,114.471z
				 M82.826,111.097c-1.623,0.343-2.749,0.798-3.385,1.341c-0.474,0.411-0.671,0.952-0.605,1.62c0.048,0.469,0.217,0.82,0.503,1.059
				c0.286,0.239,0.639,0.34,1.057,0.301c0.746-0.07,1.369-0.396,1.873-0.985s0.725-1.294,0.658-2.113
				C82.893,111.91,82.859,111.504,82.826,111.097z"/>
			<path fill="#FFFFFF" d="M90.475,101.48c0.183,4.136,0.367,8.272,0.556,12.409c0.009,0.17,0.067,0.298,0.18,0.385
				c0.165,0.116,0.359,0.168,0.59,0.16c0.315-0.014,0.629-0.026,0.943-0.037c0.01,0.229,0.019,0.457,0.026,0.685
				c-1.682,0.062-3.362,0.14-5.043,0.241c-0.014-0.229-0.028-0.457-0.043-0.685c0.3-0.017,0.598-0.034,0.896-0.051
				c0.293-0.016,0.505-0.095,0.642-0.236c0.136-0.141,0.199-0.335,0.185-0.577c-0.185-3.472-0.365-6.942-0.544-10.413
				c-0.014-0.305-0.117-0.522-0.307-0.652c-0.258-0.183-0.566-0.263-0.929-0.243c-0.281,0.016-0.563,0.033-0.845,0.049
				c-0.015-0.228-0.027-0.457-0.041-0.686C87.983,101.704,89.229,101.587,90.475,101.48z"/>
			<path fill="#FFFFFF" d="M95.938,102.923c0.224-0.006,0.447-0.008,0.67-0.014c0.021,1.164,0.044,2.33,0.065,3.494
				c0.997-0.019,1.993-0.029,2.992-0.036c0.001,0.28,0.004,0.561,0.004,0.841c-0.994,0.006-1.987,0.018-2.98,0.036
				c0.035,1.831,0.068,3.663,0.104,5.495c0.008,0.477,0.135,0.839,0.374,1.087c0.24,0.249,0.54,0.372,0.902,0.366
				c0.434-0.004,0.798-0.2,1.102-0.588c0.303-0.386,0.477-1.021,0.524-1.905c0.215-0.001,0.431-0.002,0.646-0.003
				c-0.035,1.141-0.304,1.987-0.803,2.542c-0.5,0.554-1.143,0.837-1.941,0.848c-0.734,0.012-1.311-0.17-1.735-0.549
				c-0.426-0.376-0.649-0.88-0.665-1.506c-0.05-1.917-0.102-3.836-0.149-5.751c-0.534,0.013-1.068,0.027-1.603,0.046
				c-0.008-0.212-0.015-0.427-0.021-0.64c0.729-0.139,1.279-0.438,1.651-0.898C95.625,105.098,95.918,104.145,95.938,102.923z"/>
			<path fill="#FFFFFF" d="M101.212,101.406c1.194-0.05,2.386-0.091,3.582-0.124c-0.035,2.201-0.071,4.4-0.107,6.603
				c0.492-0.577,1.023-1.006,1.591-1.282c0.566-0.275,1.162-0.407,1.788-0.386c0.594,0.019,1.123,0.168,1.588,0.447
				c0.358,0.22,0.657,0.597,0.895,1.125s0.339,1.146,0.307,1.853c-0.061,1.355-0.121,2.71-0.181,4.066
				c-0.011,0.262,0.05,0.455,0.184,0.58c0.136,0.125,0.351,0.194,0.649,0.209c0.254,0.012,0.508,0.024,0.762,0.036
				c-0.012,0.229-0.024,0.456-0.035,0.686c-1.603-0.082-3.204-0.145-4.807-0.191c0.007-0.229,0.013-0.457,0.021-0.685
				c0.178,0.004,0.357,0.011,0.534,0.016c0.407,0.014,0.689-0.041,0.851-0.16c0.16-0.119,0.244-0.302,0.255-0.553
				c0.051-1.356,0.101-2.712,0.151-4.068c0.026-0.713-0.137-1.275-0.493-1.687c-0.355-0.411-0.825-0.627-1.4-0.643
				c-0.452-0.013-0.876,0.091-1.268,0.307c-0.391,0.218-0.727,0.554-1.002,1.009c-0.275,0.457-0.417,0.939-0.425,1.451
				c-0.019,1.141-0.038,2.281-0.058,3.422c-0.006,0.306,0.058,0.521,0.19,0.652c0.131,0.129,0.349,0.198,0.654,0.204
				c0.253,0.005,0.51,0.011,0.763,0.017c-0.005,0.229-0.011,0.457-0.017,0.686c-1.569-0.037-3.134-0.057-4.702-0.061
				c-0.001-0.229,0-0.457,0.001-0.686c0.178,0.001,0.355,0,0.533,0.002c0.36,0.001,0.62-0.065,0.774-0.201
				c0.154-0.137,0.232-0.348,0.235-0.635c0.032-3.408,0.063-6.816,0.097-10.225c0.005-0.364-0.102-0.64-0.309-0.82
				c-0.211-0.182-0.515-0.273-0.918-0.275c-0.229-0.001-0.455-0.001-0.685-0.002C101.211,101.864,101.212,101.634,101.212,101.406z"
				/>
			<path fill="#FFFFFF" d="M123.385,102.31c-0.391,4.123-0.79,8.244-1.195,12.365c-0.015,0.17,0.024,0.305,0.124,0.406
				c0.145,0.136,0.335,0.218,0.562,0.239c0.312,0.031,0.626,0.062,0.942,0.095c-0.024,0.227-0.048,0.454-0.073,0.682
				c-1.679-0.172-3.357-0.324-5.038-0.457c0.019-0.229,0.037-0.456,0.057-0.685c0.299,0.023,0.597,0.048,0.896,0.073
				c0.291,0.025,0.515-0.023,0.67-0.145c0.154-0.123,0.244-0.303,0.265-0.547c0.313-3.462,0.626-6.925,0.93-10.387
				c0.027-0.303-0.042-0.533-0.213-0.688c-0.23-0.218-0.528-0.34-0.888-0.369c-0.282-0.023-0.564-0.046-0.845-0.068
				c0.019-0.228,0.037-0.456,0.054-0.684C120.884,102.188,122.135,102.244,123.385,102.31z"/>
			<path fill="#FFFFFF" d="M133.783,113.076c-2.159-0.312-4.319-0.593-6.479-0.844c-0.124,1.3,0.021,2.243,0.433,2.833
				c0.473,0.666,1.128,1.049,1.969,1.157c1.24,0.159,2.329-0.375,3.29-1.614c0.194,0.115,0.389,0.229,0.585,0.344
				c-1.194,1.579-2.64,2.248-4.382,2.025c-1.185-0.15-2.129-0.678-2.85-1.594c-0.718-0.918-1.011-2.016-0.869-3.301
				c0.154-1.382,0.686-2.455,1.613-3.212c0.926-0.759,2.003-1.063,3.22-0.909c0.895,0.112,1.639,0.429,2.228,0.939
				c0.591,0.512,0.988,1.188,1.196,2.024C133.883,111.513,133.896,112.229,133.783,113.076z M127.381,111.587
				c1.312,0.153,2.622,0.315,3.933,0.49c0.231,0.031,0.423-0.018,0.573-0.147c0.148-0.132,0.251-0.374,0.301-0.73
				c0.095-0.665-0.05-1.26-0.434-1.786c-0.382-0.524-0.885-0.826-1.492-0.904c-0.683-0.086-1.298,0.126-1.84,0.631
				C127.878,109.646,127.533,110.463,127.381,111.587z"/>
			<path fill="#FFFFFF" d="M144.066,118.15c0.08,0.189,0.159,0.38,0.238,0.569c-0.553,0.358-1.105,0.484-1.666,0.379
				c-0.427-0.082-0.765-0.256-1.015-0.533c-0.249-0.275-0.433-0.712-0.549-1.31c-0.715,0.492-1.314,0.799-1.804,0.922
				c-0.491,0.123-1.054,0.132-1.689,0.025c-0.906-0.149-1.562-0.444-1.977-0.892c-0.413-0.446-0.574-0.962-0.481-1.548
				c0.139-0.878,0.803-1.528,2-1.933c1.198-0.405,2.736-0.546,4.61-0.409c0.079-0.427,0.159-0.853,0.238-1.278
				c0.085-0.456-0.042-0.881-0.38-1.276c-0.341-0.396-0.817-0.645-1.432-0.749c-0.569-0.099-1.077-0.072-1.526,0.078
				c-0.321,0.115-0.493,0.25-0.521,0.406c-0.016,0.09,0.041,0.246,0.164,0.462c0.148,0.271,0.207,0.502,0.175,0.687
				c-0.046,0.271-0.177,0.478-0.394,0.618c-0.219,0.142-0.478,0.188-0.781,0.139c-0.322-0.052-0.576-0.196-0.76-0.436
				c-0.183-0.238-0.249-0.519-0.2-0.837c0.097-0.596,0.543-1.087,1.356-1.463c0.809-0.378,1.812-0.47,2.998-0.264
				c1.096,0.188,1.893,0.556,2.386,1.094c0.494,0.54,0.675,1.127,0.556,1.748c-0.297,1.534-0.596,3.068-0.896,4.602
				c-0.078,0.407-0.07,0.719,0.032,0.938c0.1,0.226,0.261,0.355,0.481,0.398C143.48,118.335,143.758,118.29,144.066,118.15z
				 M141.623,114.016c-1.674-0.084-2.889,0.067-3.648,0.431c-0.567,0.278-0.906,0.75-1.017,1.412
				c-0.076,0.463-0.009,0.846,0.207,1.149c0.213,0.305,0.53,0.49,0.946,0.561c0.745,0.125,1.438-0.034,2.085-0.474
				c0.646-0.44,1.05-1.063,1.201-1.874C141.473,114.818,141.549,114.417,141.623,114.016z"/>
			<path fill="#FFFFFF" d="M146.639,110.875c1.507,0.3,3.013,0.614,4.519,0.944c-0.045,0.203-0.092,0.404-0.137,0.606
				c-0.602-0.119-0.997-0.149-1.182-0.101c-0.186,0.051-0.295,0.157-0.33,0.317c-0.029,0.133-0.027,0.268,0.011,0.415
				c0.441,1.819,0.86,3.64,1.26,5.46c1.094-1.434,2.198-2.859,3.318-4.278c0.051-0.075,0.089-0.154,0.109-0.238
				c0.105-0.431-0.295-0.812-1.205-1.132c0.048-0.202,0.096-0.404,0.143-0.605c1.267,0.289,2.532,0.588,3.797,0.898
				c-0.052,0.2-0.103,0.401-0.153,0.603c-0.392-0.058-0.724-0.037-0.987,0.062c-0.267,0.099-0.494,0.264-0.681,0.496
				c-1.698,2.09-3.363,4.195-4.999,6.318c-0.169-0.039-0.34-0.076-0.508-0.113c-0.588-2.686-1.222-5.37-1.903-8.055
				c-0.074-0.289-0.193-0.505-0.356-0.647c-0.163-0.142-0.444-0.256-0.841-0.342C146.555,111.28,146.597,111.079,146.639,110.875z"
				/>
			<path fill="#FFFFFF" d="M165.121,119.852c-2.134-0.618-4.272-1.203-6.414-1.758c-0.312,1.27-0.301,2.226,0.026,2.868
				c0.381,0.726,0.98,1.197,1.814,1.425c1.227,0.335,2.404-0.04,3.555-1.13c0.181,0.14,0.36,0.282,0.54,0.422
				c-1.433,1.395-2.995,1.852-4.715,1.385c-1.173-0.315-2.048-0.976-2.639-1.983c-0.587-1.01-0.727-2.138-0.397-3.392
				c0.354-1.347,1.045-2.337,2.087-2.954c1.039-0.62,2.172-0.768,3.376-0.444c0.885,0.241,1.59,0.655,2.113,1.247
				c0.522,0.591,0.827,1.317,0.917,2.176C165.448,118.317,165.356,119.028,165.121,119.852z M158.878,117.466
				c1.3,0.337,2.598,0.685,3.895,1.044c0.231,0.063,0.429,0.043,0.6-0.066c0.17-0.107,0.307-0.335,0.41-0.68
				c0.19-0.646,0.132-1.255-0.182-1.831c-0.311-0.574-0.772-0.946-1.375-1.107c-0.676-0.182-1.328-0.061-1.945,0.364
				C159.66,115.614,159.193,116.374,158.878,117.466z"/>
			<path fill="#FFFFFF" d="M167.277,121.53c0.069,1.125,0.289,1.958,0.665,2.5c0.377,0.541,0.931,0.928,1.665,1.16
				c0.678,0.216,1.247,0.248,1.708,0.09c0.461-0.157,0.768-0.444,0.914-0.867c0.084-0.241,0.091-0.477,0.021-0.703
				s-0.213-0.422-0.422-0.59c-0.21-0.168-0.786-0.502-1.735-0.992c-0.904-0.478-1.519-0.866-1.836-1.174
				c-0.319-0.308-0.535-0.664-0.64-1.065c-0.104-0.403-0.097-0.804,0.027-1.198c0.188-0.602,0.581-1.08,1.184-1.436
				c0.775-0.449,1.684-0.516,2.724-0.19c0.793,0.249,1.45,0.704,1.971,1.369c0.282-0.134,0.565-0.267,0.85-0.399
				c0.133,0.044,0.265,0.086,0.397,0.131c-0.251,0.993-0.502,1.986-0.758,2.978c-0.214-0.069-0.429-0.141-0.642-0.211
				c0.006-0.913-0.175-1.628-0.536-2.146s-0.9-0.89-1.611-1.112c-0.616-0.191-1.142-0.207-1.578-0.04
				c-0.437,0.165-0.717,0.44-0.842,0.832c-0.11,0.344-0.04,0.677,0.207,1.002c0.239,0.329,0.792,0.699,1.661,1.121
				c1.006,0.496,1.645,0.857,1.926,1.07c0.463,0.343,0.771,0.743,0.93,1.197c0.157,0.455,0.143,0.942-0.044,1.462
				c-0.255,0.713-0.776,1.219-1.56,1.514c-0.783,0.299-1.635,0.297-2.569,0.002c-0.862-0.275-1.579-0.79-2.146-1.552
				c-0.306,0.174-0.612,0.35-0.92,0.525c-0.165-0.049-0.331-0.099-0.496-0.148c0.286-1.106,0.569-2.212,0.851-3.318
				C166.854,121.402,167.064,121.467,167.277,121.53z"/>
		</g>
	</g>
</g>
</svg>
