<?xml version="1.0" encoding="utf-8"?>
<!-- Generator: Adobe Illustrator 16.0.0, SVG Export Plug-In . SVG Version: 6.00 Build 0)  -->
<!DOCTYPE svg PUBLIC "-//W3C//DTD SVG 1.1//EN" "http://www.w3.org/Graphics/SVG/1.1/DTD/svg11.dtd">
<svg version="1.1" id="Livello_1" xmlns="http://www.w3.org/2000/svg" xmlns:xlink="http://www.w3.org/1999/xlink" x="0px" y="0px"
	 width="210px" height="200px" viewBox="0 0 210 200" enable-background="new 0 0 210 200" xml:space="preserve">
<g>
	<circle fill="#BC1818" cx="105" cy="100" r="84"/>
	<circle fill="#BC1818" stroke="#FFFFFF" stroke-width="5" stroke-miterlimit="10" cx="105" cy="100" r="75.216"/>
	<g>
		<path fill="#E41815" stroke="#FFFFFF" stroke-width="2" stroke-miterlimit="10" d="M130.72,59.422
			c-9.322-1.27-16.883-0.516-25.719,7.816c-9.145-6.408-13.385-7.691-21.609-7.691c-17.674,0-33.875,21.123-29.436,46.314
			c4.494,25.488,14.258,41.336,29.436,46.316c7.49,2.457,12.465-2.479,21.92-5.572c5.426,1.605,6.344,2.68,12.896,4.6
			c14.779,4.328,34.506-16.223,37.961-41.568S148.231,61.811,130.72,59.422z"/>
		<path fill="#E41815" stroke="#FFFFFF" stroke-width="2" stroke-miterlimit="10" d="M100.269,56.81
			c-1.344-6.299-3.051-9.148-1.164-9.553c1.887-0.402,3.729,0.201,5.076,6.498c1.346,6.299,2.424,11.5,0.537,11.902
			S101.614,63.104,100.269,56.81z"/>
	</g>
	<g>
		<g>
			<path fill="#D51116" stroke="#FFFFFF" stroke-width="2" stroke-miterlimit="10" d="M191.895,140.803
				c-2.533-5.82-5.349-11.609-8.445-17.347c6.004-2.538,12.218-4.851,18.63-6.915C138.106,89.685,65.961,89.854,2.092,117.05
				c0.04,0.094,0.08,0.188,0.12,0.282c6.617,2.096,13.025,4.457,19.211,7.058c-2.898,5.433-5.546,10.909-7.941,16.415
				C70.538,116.852,134.837,116.851,191.895,140.803L191.895,140.803L191.895,140.803z"/>
		</g>
	</g>
	<g>
		<g>
			<path fill="#FFFFFF" d="M26.441,114.059c1.783-0.212,3.197-0.468,4.252-0.793c0.492-0.152,0.948-0.336,1.355-0.552
				c0.412-0.217,0.705-0.41,0.891-0.587c0.096-0.086,0.162-0.134,0.194-0.144c0.064-0.02,0.112,0.015,0.139,0.102
				c0.063,0.205-0.003,0.52-0.196,0.942c-0.194,0.424-0.507,0.812-0.956,1.164c-0.444,0.353-0.997,0.63-1.659,0.836
				c-0.766,0.238-1.715,0.421-2.843,0.557c0.27,1.141,0.541,2.281,0.817,3.42c0.414-0.379,0.823-0.695,1.233-0.947
				c0.407-0.252,0.814-0.442,1.214-0.567c1.268-0.396,2.458-0.343,3.555,0.16c1.097,0.501,1.814,1.317,2.156,2.434
				c0.384,1.239,0.251,2.387-0.384,3.451c-0.633,1.065-1.646,1.811-3.047,2.254c-1.073,0.338-2.044,0.339-2.922-0.008
				c-0.873-0.348-1.46-0.908-1.739-1.691c-0.168-0.474-0.19-0.875-0.063-1.205c0.127-0.328,0.362-0.55,0.704-0.664
				c0.336-0.109,0.646-0.096,0.93,0.041c0.283,0.138,0.482,0.368,0.595,0.7c0.084,0.248,0.099,0.46,0.044,0.631
				c-0.054,0.173-0.206,0.35-0.449,0.533c-0.241,0.189-0.341,0.346-0.295,0.474c0.064,0.186,0.23,0.357,0.496,0.519
				c0.266,0.163,0.609,0.253,1.036,0.271c0.428,0.021,0.882-0.047,1.368-0.2c0.951-0.303,1.588-0.802,1.91-1.508
				c0.325-0.708,0.288-1.684-0.109-2.931c-0.363-1.136-0.898-1.886-1.614-2.242c-0.715-0.357-1.499-0.403-2.35-0.136
				c-0.388,0.12-0.751,0.31-1.096,0.561s-0.661,0.569-0.96,0.948c0.096,0.418,0.106,0.716,0.042,0.889
				c-0.067,0.173-0.191,0.289-0.369,0.35c-0.13,0.042-0.246,0.035-0.349-0.021c-0.104-0.056-0.182-0.156-0.234-0.299
				c-0.087-0.256-0.048-0.549,0.129-0.885c0.05-0.102,0.084-0.185,0.095-0.254c-0.222-0.874-0.442-1.748-0.659-2.623
				C27.047,116.003,26.756,115.008,26.441,114.059z"/>
			<path fill="#FFFFFF" d="M40.675,109.873c1.297-0.338,2.494-0.162,3.581,0.525c1.345,0.844,2.285,2.399,2.849,4.651
				c0.521,2.091,0.476,3.788-0.123,5.098c-0.599,1.308-1.507,2.118-2.742,2.441c-1.194,0.311-2.315,0.127-3.386-0.561
				c-1.34-0.867-2.345-2.369-2.987-4.525c-0.612-2.05-0.604-3.821,0.043-5.312C38.425,110.995,39.356,110.219,40.675,109.873z
				 M40.906,110.493c-0.873,0.229-1.454,0.784-1.73,1.66c-0.28,0.876-0.084,2.482,0.591,4.82c0.653,2.284,1.347,3.741,2.044,4.374
				c0.703,0.633,1.451,0.844,2.261,0.632c0.813-0.214,1.342-0.727,1.595-1.547c0.299-0.976,0.155-2.584-0.426-4.824
				c-0.6-2.316-1.251-3.808-1.971-4.463C42.553,110.488,41.76,110.271,40.906,110.493z"/>
			<path fill="#FFFFFF" d="M52.311,106.517c1.175-0.298,2.352-0.588,3.528-0.869c0.425,2.16,0.854,4.322,1.286,6.482
				c0.366-0.666,0.799-1.196,1.303-1.584c0.503-0.389,1.062-0.639,1.687-0.75c0.593-0.105,1.146-0.068,1.663,0.108
				c0.399,0.141,0.777,0.446,1.123,0.914c0.345,0.468,0.576,1.052,0.695,1.749c0.229,1.338,0.461,2.677,0.691,4.014
				c0.043,0.258,0.148,0.434,0.307,0.529c0.16,0.095,0.389,0.117,0.685,0.069c0.254-0.041,0.505-0.082,0.759-0.121
				c0.036,0.225,0.074,0.451,0.112,0.676c-1.595,0.253-3.188,0.522-4.782,0.811c-0.043-0.225-0.085-0.449-0.127-0.675
				c0.179-0.031,0.354-0.063,0.531-0.095c0.403-0.071,0.672-0.183,0.805-0.333c0.131-0.149,0.176-0.349,0.132-0.594
				c-0.241-1.338-0.482-2.673-0.722-4.009c-0.125-0.704-0.406-1.22-0.846-1.548c-0.438-0.328-0.948-0.443-1.52-0.338
				c-0.45,0.082-0.847,0.27-1.188,0.563c-0.343,0.293-0.601,0.692-0.777,1.194c-0.172,0.504-0.214,1.007-0.112,1.509
				c0.226,1.118,0.452,2.237,0.679,3.356c0.061,0.299,0.169,0.5,0.329,0.599c0.16,0.102,0.39,0.122,0.69,0.064
				c0.254-0.049,0.506-0.097,0.759-0.144c0.044,0.226,0.088,0.451,0.132,0.674c-1.558,0.29-3.115,0.599-4.668,0.92
				c-0.05-0.223-0.1-0.446-0.147-0.67c0.174-0.037,0.354-0.073,0.529-0.109c0.359-0.074,0.601-0.193,0.723-0.358
				c0.123-0.165,0.153-0.387,0.096-0.669c-0.703-3.338-1.396-6.68-2.083-10.02c-0.074-0.359-0.231-0.604-0.478-0.739
				c-0.245-0.134-0.572-0.159-0.97-0.077c-0.228,0.047-0.453,0.092-0.679,0.141C52.405,106.964,52.357,106.741,52.311,106.517z"/>
			<path fill="#FFFFFF" d="M75.038,112.253c-2.161,0.249-4.322,0.53-6.479,0.842c0.225,1.286,0.614,2.16,1.171,2.624
				c0.635,0.521,1.368,0.725,2.212,0.613c1.237-0.162,2.148-0.958,2.743-2.397c0.218,0.06,0.437,0.12,0.653,0.181
				c-0.729,1.829-1.945,2.845-3.685,3.076c-1.184,0.156-2.241-0.108-3.181-0.811c-0.941-0.7-1.518-1.685-1.721-2.963
				c-0.217-1.373,0.02-2.547,0.717-3.517c0.696-0.969,1.661-1.539,2.877-1.701c0.894-0.12,1.692-0.005,2.396,0.338
				c0.704,0.344,1.266,0.896,1.684,1.649C74.723,110.718,74.924,111.406,75.038,112.253z M68.462,112.451
				c1.31-0.188,2.62-0.365,3.931-0.532c0.234-0.028,0.402-0.125,0.515-0.29c0.11-0.164,0.144-0.425,0.098-0.781
				c-0.085-0.666-0.38-1.205-0.887-1.614c-0.507-0.407-1.069-0.573-1.679-0.492c-0.683,0.091-1.223,0.453-1.613,1.079
				C68.432,110.45,68.312,111.327,68.462,112.451z"/>
			<path fill="#FFFFFF" d="M86.24,114.53c0.127,0.163,0.254,0.326,0.378,0.489c-0.432,0.485-0.928,0.747-1.489,0.79
				c-0.431,0.029-0.8-0.055-1.112-0.257c-0.312-0.202-0.604-0.577-0.872-1.125c-0.556,0.657-1.046,1.107-1.482,1.35
				c-0.438,0.244-0.973,0.395-1.613,0.456c-0.909,0.086-1.618-0.03-2.136-0.356c-0.516-0.326-0.806-0.783-0.873-1.371
				c-0.1-0.883,0.368-1.68,1.41-2.377c1.047-0.694,2.483-1.226,4.313-1.57c-0.035-0.432-0.071-0.862-0.107-1.294
				c-0.039-0.46-0.269-0.842-0.696-1.137c-0.427-0.295-0.952-0.414-1.568-0.358c-0.569,0.05-1.054,0.206-1.443,0.465
				c-0.278,0.191-0.41,0.367-0.395,0.524c0.01,0.092,0.102,0.227,0.277,0.404c0.215,0.226,0.329,0.433,0.349,0.62
				c0.029,0.272-0.047,0.505-0.217,0.696s-0.408,0.301-0.713,0.333c-0.322,0.032-0.604-0.044-0.844-0.228
				c-0.239-0.184-0.378-0.436-0.412-0.757c-0.064-0.601,0.237-1.188,0.92-1.759c0.68-0.572,1.618-0.914,2.81-1.02
				c1.099-0.098,1.959,0.056,2.569,0.449c0.614,0.399,0.939,0.916,0.988,1.548c0.119,1.557,0.234,3.113,0.354,4.67
				c0.03,0.414,0.124,0.712,0.279,0.897c0.158,0.189,0.344,0.276,0.565,0.262C85.729,114.858,85.98,114.744,86.24,114.53z
				 M82.812,111.16c-1.624,0.347-2.747,0.802-3.383,1.347c-0.473,0.412-0.669,0.954-0.602,1.622
				c0.046,0.468,0.215,0.819,0.504,1.058c0.287,0.237,0.634,0.338,1.057,0.298c0.748-0.069,1.369-0.397,1.872-0.987
				c0.502-0.591,0.723-1.294,0.653-2.115C82.88,111.975,82.846,111.567,82.812,111.16z"/>
			<path fill="#FFFFFF" d="M90.451,101.535c0.186,4.136,0.378,8.271,0.571,12.408c0.007,0.17,0.069,0.298,0.181,0.384
				c0.162,0.117,0.362,0.168,0.589,0.158c0.315-0.013,0.63-0.025,0.944-0.037c0.009,0.229,0.018,0.457,0.027,0.686
				c-1.683,0.063-3.362,0.146-5.044,0.247c-0.013-0.229-0.029-0.456-0.042-0.685c0.297-0.019,0.598-0.035,0.895-0.053
				c0.294-0.016,0.504-0.095,0.642-0.236c0.136-0.143,0.196-0.335,0.184-0.578c-0.188-3.471-0.374-6.94-0.558-10.411
				c-0.016-0.305-0.12-0.521-0.307-0.652c-0.258-0.181-0.571-0.263-0.931-0.242c-0.28,0.017-0.565,0.034-0.845,0.051
				c-0.015-0.229-0.029-0.456-0.043-0.686C87.96,101.761,89.205,101.644,90.451,101.535z"/>
			<path fill="#FFFFFF" d="M95.917,102.971c0.223-0.007,0.447-0.01,0.671-0.015c0.023,1.164,0.047,2.329,0.069,3.493
				c0.997-0.02,1.993-0.032,2.992-0.038c0.003,0.279,0.003,0.56,0.005,0.841c-0.995,0.006-1.986,0.02-2.981,0.038
				c0.037,1.832,0.072,3.665,0.11,5.496c0.009,0.476,0.136,0.838,0.375,1.086c0.242,0.249,0.543,0.371,0.904,0.366
				c0.432-0.007,0.798-0.204,1.102-0.59c0.3-0.389,0.476-1.022,0.521-1.905c0.215-0.002,0.428-0.003,0.646-0.004
				c-0.034,1.139-0.304,1.987-0.8,2.543c-0.499,0.556-1.143,0.836-1.94,0.85c-0.733,0.012-1.312-0.17-1.737-0.547
				c-0.425-0.377-0.648-0.879-0.666-1.506c-0.054-1.918-0.104-3.834-0.157-5.751c-0.534,0.014-1.068,0.03-1.603,0.048
				c-0.008-0.213-0.015-0.426-0.021-0.639c0.728-0.142,1.277-0.439,1.649-0.9C95.608,105.146,95.896,104.188,95.917,102.971z"/>
			<path fill="#FFFFFF" d="M101.189,101.447c1.193-0.052,2.387-0.094,3.584-0.128c-0.034,2.2-0.067,4.401-0.102,6.603
				c0.492-0.577,1.024-1.005,1.59-1.283c0.563-0.277,1.163-0.408,1.788-0.389c0.595,0.017,1.123,0.167,1.588,0.446
				c0.36,0.221,0.656,0.594,0.896,1.124c0.239,0.528,0.339,1.146,0.31,1.853c-0.06,1.354-0.117,2.712-0.178,4.066
				c-0.011,0.262,0.05,0.455,0.186,0.579c0.133,0.126,0.353,0.194,0.648,0.208c0.254,0.013,0.508,0.024,0.762,0.037
				c-0.012,0.229-0.023,0.456-0.035,0.684c-1.602-0.079-3.202-0.141-4.806-0.186c0.009-0.229,0.012-0.457,0.02-0.686
				c0.179,0.006,0.356,0.01,0.535,0.016c0.406,0.014,0.688-0.04,0.849-0.159c0.161-0.12,0.246-0.305,0.255-0.555
				c0.048-1.356,0.099-2.712,0.147-4.067c0.025-0.715-0.138-1.276-0.494-1.688c-0.357-0.41-0.826-0.627-1.402-0.641
				c-0.454-0.013-0.875,0.091-1.267,0.309c-0.392,0.217-0.726,0.553-1.001,1.009c-0.273,0.456-0.417,0.94-0.424,1.452
				c-0.018,1.141-0.035,2.281-0.053,3.422c-0.005,0.304,0.059,0.521,0.19,0.652c0.128,0.131,0.351,0.197,0.653,0.203
				c0.254,0.005,0.511,0.01,0.764,0.016c-0.005,0.229-0.012,0.457-0.016,0.686c-1.567-0.035-3.136-0.053-4.703-0.056
				c-0.001-0.229,0.001-0.456,0-0.686c0.177,0,0.358,0.001,0.534,0.001c0.362,0.001,0.621-0.066,0.773-0.201
				c0.15-0.136,0.233-0.347,0.235-0.635c0.027-3.408,0.057-6.816,0.085-10.225c0.003-0.366-0.101-0.64-0.31-0.82
				c-0.209-0.182-0.518-0.271-0.918-0.274c-0.229,0-0.457-0.001-0.686-0.001C101.189,101.905,101.189,101.677,101.189,101.447z"/>
			<path fill="#FFFFFF" d="M123.369,102.33c-0.389,4.123-0.783,8.244-1.186,12.366c-0.016,0.169,0.023,0.306,0.124,0.405
				c0.146,0.137,0.335,0.217,0.562,0.239c0.313,0.03,0.63,0.061,0.943,0.093c-0.025,0.228-0.048,0.455-0.072,0.682
				c-1.679-0.169-3.358-0.321-5.039-0.453c0.018-0.229,0.036-0.455,0.057-0.683c0.299,0.022,0.598,0.048,0.896,0.071
				c0.291,0.023,0.515-0.024,0.669-0.146c0.154-0.122,0.245-0.303,0.266-0.547c0.311-3.46,0.617-6.924,0.92-10.387
				c0.027-0.304-0.043-0.532-0.214-0.688c-0.231-0.216-0.524-0.339-0.889-0.369c-0.281-0.023-0.562-0.045-0.844-0.066
				c0.019-0.229,0.036-0.457,0.054-0.685C120.865,102.209,122.117,102.264,123.369,102.33z"/>
			<path fill="#FFFFFF" d="M133.775,113.089c-2.158-0.311-4.318-0.59-6.48-0.84c-0.12,1.3,0.024,2.243,0.436,2.833
				c0.474,0.665,1.127,1.048,1.971,1.155c1.239,0.16,2.326-0.376,3.287-1.615c0.195,0.114,0.39,0.229,0.585,0.342
				c-1.191,1.58-2.64,2.25-4.38,2.029c-1.188-0.15-2.128-0.676-2.85-1.593c-0.719-0.915-1.014-2.015-0.873-3.299
				c0.152-1.381,0.684-2.456,1.611-3.214c0.926-0.758,2.004-1.064,3.219-0.912c0.893,0.113,1.64,0.428,2.229,0.938
				c0.591,0.512,0.988,1.188,1.199,2.023C133.874,111.525,133.889,112.243,133.775,113.089z M127.371,111.604
				c1.312,0.152,2.623,0.313,3.935,0.487c0.233,0.032,0.423-0.02,0.572-0.148c0.147-0.132,0.253-0.372,0.301-0.73
				c0.095-0.664-0.05-1.26-0.436-1.785c-0.386-0.524-0.883-0.827-1.492-0.903c-0.685-0.085-1.297,0.126-1.839,0.633
				C127.869,109.663,127.524,110.479,127.371,111.604z"/>
			<path fill="#FFFFFF" d="M144.062,118.157c0.08,0.189,0.159,0.379,0.237,0.568c-0.552,0.359-1.104,0.486-1.664,0.38
				c-0.429-0.079-0.767-0.258-1.016-0.532c-0.25-0.275-0.434-0.712-0.549-1.31c-0.719,0.491-1.313,0.8-1.806,0.923
				c-0.49,0.123-1.05,0.132-1.688,0.027c-0.906-0.15-1.562-0.442-1.978-0.891c-0.413-0.447-0.574-0.96-0.482-1.547
				c0.14-0.879,0.803-1.528,1.999-1.935s2.738-0.551,4.61-0.412c0.079-0.426,0.159-0.852,0.237-1.278
				c0.085-0.455-0.042-0.881-0.381-1.275c-0.342-0.396-0.816-0.646-1.432-0.75c-0.568-0.096-1.079-0.07-1.525,0.08
				c-0.322,0.113-0.494,0.251-0.521,0.406c-0.015,0.092,0.038,0.245,0.163,0.463c0.148,0.27,0.207,0.501,0.176,0.687
				c-0.048,0.271-0.177,0.478-0.395,0.618c-0.214,0.141-0.478,0.187-0.779,0.139c-0.324-0.051-0.578-0.196-0.76-0.436
				c-0.186-0.238-0.252-0.518-0.201-0.836c0.096-0.597,0.54-1.088,1.354-1.466c0.808-0.378,1.813-0.468,2.999-0.265
				c1.096,0.188,1.895,0.555,2.387,1.092c0.492,0.542,0.674,1.127,0.557,1.75c-0.297,1.534-0.596,3.066-0.895,4.601
				c-0.081,0.408-0.068,0.722,0.033,0.938c0.099,0.223,0.26,0.356,0.481,0.398C143.475,118.342,143.752,118.297,144.062,118.157z
				 M141.616,114.023c-1.669-0.082-2.89,0.069-3.648,0.434c-0.568,0.276-0.904,0.749-1.016,1.411
				c-0.077,0.465-0.008,0.848,0.208,1.15c0.216,0.304,0.528,0.489,0.947,0.56c0.745,0.125,1.438-0.036,2.084-0.475
				c0.646-0.44,1.049-1.064,1.2-1.875C141.467,114.827,141.543,114.426,141.616,114.023z"/>
			<path fill="#FFFFFF" d="M146.63,110.881c1.509,0.299,3.015,0.613,4.521,0.942c-0.046,0.202-0.092,0.405-0.137,0.606
				c-0.602-0.118-0.996-0.151-1.182-0.101s-0.292,0.157-0.33,0.317c-0.029,0.134-0.026,0.269,0.01,0.415
				c0.443,1.82,0.865,3.64,1.264,5.46c1.094-1.435,2.197-2.86,3.316-4.28c0.054-0.074,0.089-0.153,0.109-0.237
				c0.104-0.432-0.297-0.812-1.205-1.132c0.048-0.203,0.096-0.403,0.143-0.605c1.266,0.289,2.533,0.588,3.797,0.897
				c-0.053,0.201-0.102,0.401-0.153,0.604c-0.394-0.059-0.724-0.038-0.988,0.062s-0.493,0.265-0.681,0.496
				c-1.696,2.091-3.362,4.196-4.996,6.32c-0.169-0.038-0.338-0.075-0.508-0.113c-0.59-2.685-1.225-5.369-1.905-8.054
				c-0.075-0.289-0.196-0.504-0.357-0.646c-0.165-0.143-0.445-0.256-0.842-0.342C146.545,111.288,146.588,111.085,146.63,110.881z"
				/>
			<path fill="#FFFFFF" d="M165.117,119.852c-2.135-0.618-4.273-1.202-6.414-1.756c-0.312,1.27-0.301,2.227,0.026,2.868
				c0.378,0.726,0.982,1.198,1.815,1.425c1.226,0.333,2.404-0.041,3.555-1.131c0.182,0.141,0.357,0.28,0.54,0.422
				c-1.437,1.396-2.993,1.851-4.716,1.386c-1.174-0.315-2.046-0.975-2.639-1.983c-0.588-1.009-0.728-2.139-0.396-3.392
				c0.352-1.346,1.041-2.335,2.085-2.954c1.04-0.62,2.171-0.771,3.375-0.445c0.886,0.239,1.595,0.656,2.114,1.247
				c0.523,0.591,0.826,1.318,0.918,2.175C165.442,118.315,165.354,119.029,165.117,119.852z M158.874,117.468
				c1.3,0.335,2.598,0.683,3.895,1.043c0.229,0.063,0.427,0.042,0.6-0.066c0.17-0.107,0.308-0.334,0.409-0.68
				c0.189-0.646,0.132-1.255-0.182-1.831c-0.312-0.575-0.772-0.944-1.376-1.107c-0.675-0.183-1.327-0.062-1.944,0.364
				C159.654,115.616,159.189,116.376,158.874,117.468z"/>
			<path fill="#FFFFFF" d="M167.274,121.53c0.07,1.125,0.289,1.961,0.666,2.5c0.375,0.542,0.93,0.928,1.664,1.16
				c0.679,0.216,1.247,0.246,1.708,0.09c0.46-0.155,0.767-0.445,0.914-0.866c0.084-0.242,0.093-0.477,0.02-0.704
				c-0.069-0.226-0.211-0.422-0.421-0.59c-0.211-0.168-0.787-0.501-1.735-0.992c-0.904-0.479-1.521-0.865-1.836-1.174
				c-0.321-0.307-0.534-0.664-0.64-1.065c-0.108-0.401-0.098-0.801,0.026-1.198c0.19-0.602,0.583-1.079,1.184-1.435
				c0.776-0.451,1.686-0.515,2.724-0.19c0.792,0.247,1.452,0.706,1.971,1.368c0.283-0.133,0.567-0.267,0.851-0.399
				c0.133,0.043,0.264,0.087,0.397,0.131c-0.25,0.994-0.503,1.985-0.759,2.979c-0.214-0.07-0.427-0.141-0.641-0.211
				c0.005-0.914-0.176-1.629-0.536-2.147c-0.362-0.518-0.899-0.888-1.612-1.111c-0.616-0.192-1.143-0.206-1.578-0.041
				c-0.438,0.165-0.714,0.44-0.842,0.832c-0.108,0.343-0.039,0.677,0.207,1.002c0.239,0.328,0.793,0.7,1.662,1.121
				c1.004,0.497,1.645,0.858,1.926,1.07c0.459,0.343,0.771,0.742,0.93,1.197c0.157,0.455,0.143,0.943-0.044,1.462
				c-0.255,0.715-0.775,1.219-1.559,1.514c-0.784,0.298-1.637,0.297-2.569,0.002c-0.865-0.274-1.577-0.79-2.146-1.552
				c-0.309,0.176-0.614,0.35-0.921,0.526c-0.166-0.05-0.333-0.1-0.496-0.148c0.284-1.106,0.569-2.213,0.85-3.319
				C166.85,121.404,167.062,121.467,167.274,121.53z"/>
		</g>
	</g>
</g>
</svg>
