<?xml version="1.0" encoding="utf-8"?>
<!-- Generator: Adobe Illustrator 16.0.0, SVG Export Plug-In . SVG Version: 6.00 Build 0)  -->
<!DOCTYPE svg PUBLIC "-//W3C//DTD SVG 1.1//EN" "http://www.w3.org/Graphics/SVG/1.1/DTD/svg11.dtd">
<svg version="1.1" id="Livello_1" xmlns="http://www.w3.org/2000/svg" xmlns:xlink="http://www.w3.org/1999/xlink" x="0px" y="0px"
	 width="210px" height="200px" viewBox="0 0 210 200" enable-background="new 0 0 210 200" xml:space="preserve">
<g>
	<circle fill="#BC1818" cx="105" cy="100" r="84"/>
	<circle fill="#BC1818" stroke="#FFFFFF" stroke-width="5" stroke-miterlimit="10" cx="105" cy="100" r="75.216"/>
	<g>
		<path fill="#E41815" stroke="#FFFFFF" stroke-width="2" stroke-miterlimit="10" d="M130.72,59.422
			c-9.322-1.27-16.883-0.516-25.719,7.816c-9.145-6.408-13.385-7.691-21.609-7.691c-17.674,0-33.875,21.123-29.436,46.314
			c4.494,25.488,14.258,41.336,29.436,46.316c7.49,2.457,12.465-2.479,21.92-5.572c5.426,1.605,6.344,2.68,12.896,4.6
			c14.779,4.328,34.506-16.223,37.961-41.568S148.231,61.811,130.72,59.422z"/>
		<path fill="#E41815" stroke="#FFFFFF" stroke-width="2" stroke-miterlimit="10" d="M100.269,56.81
			c-1.344-6.299-3.051-9.148-1.164-9.553c1.887-0.402,3.729,0.201,5.076,6.498c1.346,6.299,2.424,11.5,0.537,11.902
			S101.614,63.104,100.269,56.81z"/>
	</g>
	<g>
		<g>
			<path fill="#D51116" stroke="#FFFFFF" stroke-width="2" stroke-miterlimit="10" d="M191.895,140.803
				c-2.533-5.82-5.349-11.609-8.445-17.347c6.004-2.538,12.218-4.851,18.63-6.915C138.106,89.685,65.961,89.854,2.092,117.05
				c0.04,0.094,0.08,0.188,0.12,0.282c6.617,2.096,13.025,4.457,19.211,7.058c-2.898,5.433-5.546,10.909-7.941,16.415
				C70.538,116.852,134.837,116.851,191.895,140.803L191.895,140.803L191.895,140.803z"/>
		</g>
	</g>
	<g>
		<g>
			<path fill="#FFFFFF" d="M26.935,113.27c1.184,3.625,2.385,7.25,3.599,10.87c0.056,0.162,0.161,0.267,0.313,0.315
				c0.223,0.066,0.463,0.059,0.726-0.023c0.604-0.189,1.211-0.373,1.813-0.557c0.07,0.218,0.143,0.438,0.211,0.655
				c-2.238,0.676-4.473,1.388-6.704,2.131c-0.077-0.216-0.155-0.433-0.232-0.648c0.515-0.172,1.034-0.343,1.549-0.511
				c0.325-0.105,0.537-0.254,0.646-0.446c0.104-0.192,0.12-0.407,0.038-0.644c-0.938-2.73-1.868-5.462-2.788-8.194
				c-0.056-0.169-0.178-0.286-0.367-0.355c-0.189-0.067-0.4-0.062-0.635,0.014c-0.723,0.235-1.443,0.471-2.165,0.713
				c-0.07-0.198-0.14-0.397-0.21-0.597c0.978-0.457,1.751-0.882,2.322-1.279c0.567-0.4,1.043-0.832,1.43-1.301
				C26.631,113.365,26.783,113.317,26.935,113.27z"/>
			<path fill="#FFFFFF" d="M36.89,110.116c1.289-0.349,2.483-0.181,3.575,0.497c1.351,0.832,2.306,2.38,2.891,4.624
				c0.544,2.087,0.515,3.785-0.073,5.1c-0.585,1.313-1.486,2.131-2.719,2.465c-1.192,0.322-2.313,0.146-3.392-0.534
				c-1.345-0.856-2.362-2.352-3.02-4.504c-0.623-2.046-0.631-3.816-0.001-5.312C34.657,111.256,35.577,110.471,36.89,110.116z
				 M37.125,110.735c-0.868,0.233-1.442,0.794-1.711,1.672c-0.269,0.876-0.06,2.481,0.632,4.814c0.675,2.279,1.374,3.73,2.078,4.359
				c0.706,0.627,1.46,0.831,2.266,0.613c0.815-0.22,1.336-0.739,1.581-1.561c0.288-0.978,0.132-2.585-0.47-4.82
				c-0.623-2.311-1.289-3.795-2.014-4.444C38.766,110.718,37.976,110.505,37.125,110.735z"/>
			<path fill="#FFFFFF" d="M48.188,107.334c1.293-0.287,2.471-0.066,3.522,0.662c1.299,0.893,2.182,2.482,2.651,4.752
				c0.442,2.109,0.336,3.804-0.312,5.088c-0.644,1.285-1.575,2.06-2.812,2.336c-1.197,0.266-2.303,0.036-3.338-0.691
				c-1.294-0.919-2.229-2.459-2.779-4.639c-0.523-2.072-0.449-3.841,0.246-5.304C45.921,108.366,46.87,107.626,48.188,107.334z
				 M48.393,107.962c-0.871,0.194-1.467,0.726-1.772,1.589c-0.309,0.864-0.174,2.478,0.4,4.838c0.566,2.307,1.188,3.789,1.855,4.449
				c0.672,0.66,1.406,0.897,2.216,0.719c0.815-0.184,1.361-0.674,1.644-1.484c0.331-0.964,0.253-2.574-0.24-4.836
				c-0.51-2.338-1.102-3.85-1.789-4.532C50.019,108.019,49.249,107.772,48.393,107.962z"/>
			<path fill="#FFFFFF" d="M59.817,104.411c1.174-0.257,2.348-0.505,3.523-0.745c0.35,2.174,0.706,4.347,1.062,6.521
				c0.387-0.653,0.835-1.169,1.345-1.54c0.51-0.37,1.08-0.603,1.699-0.693c0.588-0.086,1.14-0.031,1.646,0.163
				c0.396,0.152,0.757,0.472,1.085,0.95c0.329,0.478,0.54,1.069,0.637,1.77c0.183,1.344,0.372,2.689,0.558,4.033
				c0.036,0.261,0.133,0.439,0.287,0.539c0.156,0.099,0.384,0.13,0.68,0.09c0.253-0.032,0.506-0.064,0.759-0.098
				c0.029,0.228,0.06,0.454,0.091,0.681c-1.597,0.202-3.192,0.421-4.785,0.656c-0.037-0.226-0.07-0.451-0.105-0.678
				c0.178-0.026,0.354-0.054,0.532-0.078c0.404-0.058,0.675-0.16,0.812-0.306c0.136-0.146,0.185-0.342,0.15-0.59
				c-0.198-1.344-0.39-2.686-0.587-4.029c-0.104-0.706-0.363-1.232-0.789-1.574c-0.426-0.344-0.926-0.473-1.499-0.388
				c-0.451,0.066-0.85,0.242-1.198,0.523c-0.349,0.282-0.617,0.673-0.811,1.169c-0.192,0.496-0.243,0.997-0.161,1.502
				c0.188,1.126,0.371,2.252,0.56,3.378c0.049,0.301,0.153,0.504,0.306,0.609c0.154,0.104,0.383,0.133,0.686,0.087
				c0.253-0.04,0.507-0.079,0.76-0.117c0.036,0.226,0.071,0.452,0.107,0.677c-1.558,0.238-3.117,0.492-4.674,0.762
				c-0.041-0.226-0.082-0.45-0.123-0.675c0.179-0.031,0.353-0.062,0.53-0.091c0.361-0.061,0.604-0.173,0.732-0.333
				c0.127-0.16,0.168-0.382,0.118-0.665c-0.585-3.36-1.159-6.723-1.729-10.084c-0.062-0.36-0.208-0.612-0.45-0.755
				c-0.239-0.141-0.557-0.181-0.957-0.111c-0.227,0.038-0.453,0.078-0.678,0.117C59.896,104.863,59.858,104.637,59.817,104.411z"/>
			<path fill="#FFFFFF" d="M82.203,110.866c-2.158,0.188-4.315,0.404-6.472,0.651c0.184,1.291,0.548,2.178,1.085,2.658
				c0.617,0.539,1.338,0.764,2.183,0.679c1.238-0.127,2.167-0.895,2.805-2.317c0.215,0.065,0.43,0.132,0.645,0.199
				c-0.778,1.807-2.021,2.787-3.762,2.968c-1.187,0.124-2.229-0.178-3.143-0.904c-0.918-0.729-1.457-1.731-1.619-3.015
				c-0.172-1.379,0.094-2.545,0.819-3.493c0.721-0.945,1.697-1.488,2.91-1.613c0.891-0.093,1.686,0.045,2.373,0.409
				c0.686,0.362,1.231,0.931,1.627,1.695C81.929,109.324,82.114,110.018,82.203,110.866z M75.655,110.871
				c1.307-0.148,2.619-0.286,3.926-0.415c0.235-0.022,0.404-0.114,0.52-0.274c0.115-0.161,0.155-0.42,0.12-0.778
				c-0.063-0.668-0.343-1.215-0.835-1.64c-0.494-0.423-1.044-0.603-1.653-0.541c-0.685,0.07-1.228,0.416-1.636,1.03
				C75.688,108.871,75.541,109.743,75.655,110.871z"/>
			<path fill="#FFFFFF" d="M93.303,113.441c0.12,0.166,0.243,0.332,0.364,0.498c-0.441,0.475-0.943,0.726-1.506,0.752
				c-0.428,0.02-0.795-0.074-1.103-0.284c-0.307-0.21-0.587-0.593-0.841-1.147c-0.57,0.643-1.072,1.08-1.516,1.311
				c-0.444,0.232-0.979,0.369-1.619,0.413c-0.91,0.062-1.614-0.075-2.119-0.415c-0.502-0.34-0.78-0.805-0.831-1.395
				c-0.075-0.885,0.412-1.67,1.471-2.336c1.059-0.668,2.508-1.159,4.338-1.455c-0.026-0.433-0.049-0.863-0.073-1.297
				c-0.024-0.461-0.246-0.848-0.663-1.154s-0.938-0.439-1.551-0.4c-0.57,0.034-1.051,0.179-1.448,0.426
				c-0.283,0.186-0.418,0.356-0.406,0.514c0.01,0.092,0.097,0.231,0.266,0.413c0.205,0.23,0.314,0.439,0.33,0.627
				c0.018,0.274-0.06,0.506-0.235,0.692c-0.177,0.187-0.415,0.29-0.719,0.312c-0.325,0.024-0.601-0.059-0.835-0.25
				c-0.23-0.189-0.364-0.446-0.389-0.769c-0.047-0.603,0.27-1.182,0.964-1.732c0.693-0.552,1.636-0.87,2.823-0.942
				c1.098-0.068,1.945,0.106,2.545,0.515c0.6,0.416,0.91,0.939,0.943,1.574c0.076,1.559,0.151,3.118,0.23,4.677
				c0.022,0.414,0.106,0.716,0.255,0.903c0.149,0.195,0.337,0.287,0.557,0.277C92.782,113.756,93.042,113.647,93.303,113.441z
				 M89.976,109.985c-1.627,0.304-2.761,0.73-3.407,1.256c-0.479,0.4-0.696,0.937-0.645,1.604c0.036,0.469,0.192,0.826,0.473,1.071
				c0.278,0.245,0.627,0.354,1.045,0.327c0.749-0.05,1.376-0.363,1.894-0.938c0.516-0.577,0.756-1.276,0.71-2.098
				C90.022,110.802,89.997,110.393,89.976,109.985z"/>
			<path fill="#FFFFFF" d="M97.815,100.553c0.091,4.14,0.182,8.278,0.273,12.417c0.004,0.171,0.062,0.302,0.171,0.39
				c0.16,0.119,0.354,0.177,0.583,0.172c0.316-0.005,0.631-0.011,0.943-0.015c0.004,0.229,0.006,0.457,0.011,0.686
				c-1.679,0.024-3.362,0.065-5.04,0.126c-0.01-0.228-0.016-0.455-0.025-0.685c0.299-0.011,0.599-0.021,0.896-0.03
				c0.29-0.011,0.509-0.083,0.646-0.222c0.142-0.139,0.205-0.329,0.198-0.573c-0.102-3.475-0.202-6.947-0.302-10.422
				c-0.009-0.305-0.104-0.525-0.289-0.659c-0.256-0.188-0.559-0.276-0.92-0.265c-0.28,0.01-0.561,0.02-0.841,0.029
				c-0.009-0.229-0.017-0.457-0.024-0.686C95.333,100.72,96.573,100.631,97.815,100.553z"/>
			<path fill="#FFFFFF" d="M103.22,102.112c0.224,0.001,0.446,0,0.669,0.001c-0.001,1.166-0.006,2.33-0.009,3.494
				c0.995,0.002,1.989,0.011,2.982,0.025c-0.005,0.28-0.009,0.561-0.014,0.841c-0.991-0.015-1.982-0.022-2.971-0.025
				c-0.004,1.832-0.01,3.666-0.014,5.497c0,0.476,0.115,0.841,0.35,1.094c0.236,0.255,0.532,0.383,0.895,0.386
				c0.432,0.002,0.8-0.187,1.111-0.565c0.312-0.381,0.499-1.012,0.562-1.895c0.215,0.003,0.429,0.006,0.645,0.01
				c-0.059,1.139-0.343,1.981-0.854,2.525c-0.509,0.545-1.158,0.812-1.956,0.809c-0.735-0.004-1.304-0.197-1.722-0.586
				c-0.413-0.385-0.63-0.893-0.63-1.52c-0.01-1.919-0.018-3.835-0.024-5.753c-0.532,0.002-1.065,0.007-1.598,0.012
				c-0.002-0.214-0.005-0.426-0.007-0.64c0.728-0.125,1.285-0.41,1.663-0.862C102.866,104.28,103.173,103.333,103.22,102.112z"/>
			<path fill="#FFFFFF" d="M108.501,100.703c1.188-0.027,2.379-0.046,3.567-0.056c-0.077,2.2-0.153,4.399-0.231,6.599
				c0.503-0.566,1.04-0.984,1.609-1.252c0.57-0.266,1.165-0.385,1.791-0.355c0.593,0.03,1.114,0.189,1.574,0.477
				c0.352,0.227,0.648,0.605,0.872,1.141c0.229,0.531,0.317,1.15,0.274,1.857c-0.085,1.354-0.168,2.708-0.252,4.062
				c-0.019,0.261,0.043,0.456,0.173,0.582c0.132,0.128,0.349,0.201,0.646,0.22c0.254,0.017,0.508,0.032,0.761,0.05
				c-0.017,0.229-0.03,0.457-0.048,0.685c-1.6-0.108-3.199-0.198-4.8-0.274c0.011-0.229,0.022-0.456,0.033-0.685
				c0.178,0.009,0.356,0.017,0.534,0.025c0.404,0.021,0.689-0.027,0.852-0.144c0.167-0.117,0.251-0.3,0.265-0.55
				c0.076-1.354,0.15-2.71,0.225-4.064c0.038-0.714-0.111-1.278-0.461-1.695c-0.349-0.417-0.812-0.642-1.385-0.668
				c-0.454-0.019-0.876,0.075-1.27,0.284c-0.395,0.211-0.734,0.541-1.019,0.991s-0.432,0.932-0.451,1.443
				c-0.041,1.14-0.082,2.28-0.123,3.419c-0.01,0.305,0.046,0.522,0.177,0.656c0.128,0.133,0.347,0.204,0.649,0.216
				c0.253,0.01,0.508,0.021,0.762,0.031c-0.011,0.229-0.021,0.456-0.029,0.685c-1.565-0.065-3.132-0.114-4.697-0.149
				c0.004-0.229,0.012-0.457,0.016-0.686c0.178,0.005,0.355,0.009,0.532,0.013c0.362,0.008,0.62-0.054,0.776-0.186
				c0.16-0.133,0.238-0.343,0.249-0.629c0.1-3.406,0.2-6.814,0.296-10.222c0.01-0.366-0.087-0.642-0.292-0.827
				c-0.204-0.185-0.51-0.283-0.909-0.293c-0.229-0.005-0.453-0.011-0.682-0.015C108.491,101.161,108.497,100.933,108.501,100.703z"
				/>
			<path fill="#FFFFFF" d="M130.569,101.973c-0.45,4.117-0.906,8.232-1.372,12.348c-0.02,0.169,0.021,0.306,0.118,0.407
				c0.147,0.14,0.333,0.22,0.559,0.247c0.312,0.034,0.629,0.071,0.939,0.107c-0.027,0.227-0.055,0.454-0.082,0.68
				c-1.676-0.192-3.352-0.37-5.029-0.528c0.021-0.228,0.044-0.455,0.066-0.683c0.297,0.028,0.598,0.059,0.895,0.087
				c0.291,0.029,0.515-0.016,0.671-0.136c0.156-0.119,0.249-0.3,0.273-0.543c0.366-3.458,0.728-6.914,1.083-10.372
				c0.03-0.304-0.033-0.534-0.202-0.691c-0.224-0.219-0.521-0.345-0.88-0.38c-0.28-0.028-0.561-0.055-0.84-0.081
				c0.02-0.228,0.045-0.456,0.064-0.684C128.077,101.815,129.323,101.891,130.569,101.973z"/>
			<path fill="#FFFFFF" d="M140.802,112.864c-2.15-0.334-4.307-0.642-6.461-0.919c-0.141,1.298-0.008,2.243,0.396,2.838
				c0.459,0.671,1.113,1.062,1.952,1.181c1.238,0.175,2.333-0.348,3.308-1.575c0.194,0.115,0.388,0.232,0.58,0.349
				c-1.209,1.566-2.665,2.22-4.403,1.977c-1.181-0.164-2.122-0.704-2.829-1.63c-0.706-0.926-0.984-2.027-0.823-3.311
				c0.173-1.381,0.72-2.448,1.653-3.193c0.931-0.744,2.016-1.037,3.225-0.869c0.89,0.125,1.63,0.447,2.211,0.965
				c0.583,0.518,0.972,1.199,1.169,2.036C140.92,111.305,140.925,112.02,140.802,112.864z M134.426,111.301
				c1.308,0.168,2.614,0.348,3.921,0.537c0.234,0.035,0.423-0.012,0.574-0.143c0.153-0.128,0.255-0.371,0.31-0.727
				c0.103-0.663-0.034-1.26-0.411-1.789c-0.38-0.528-0.872-0.838-1.479-0.923c-0.68-0.094-1.295,0.109-1.842,0.609
				C134.95,109.367,134.596,110.179,134.426,111.301z"/>
			<path fill="#FFFFFF" d="M151.029,118.034c0.076,0.19,0.155,0.38,0.231,0.571c-0.557,0.354-1.107,0.475-1.668,0.365
				c-0.427-0.084-0.764-0.264-1.01-0.542c-0.248-0.277-0.427-0.715-0.537-1.314c-0.722,0.485-1.324,0.788-1.812,0.905
				c-0.491,0.12-1.054,0.121-1.689,0.01c-0.902-0.159-1.56-0.457-1.968-0.911c-0.41-0.45-0.562-0.969-0.464-1.552
				c0.152-0.877,0.819-1.52,2.019-1.913c1.202-0.392,2.738-0.521,4.609-0.367c0.081-0.426,0.167-0.851,0.249-1.275
				c0.089-0.455-0.031-0.882-0.366-1.279c-0.333-0.396-0.808-0.654-1.422-0.762c-0.565-0.103-1.075-0.08-1.522,0.063
				c-0.323,0.11-0.496,0.247-0.525,0.401c-0.017,0.092,0.039,0.244,0.16,0.464c0.142,0.271,0.201,0.502,0.167,0.688
				c-0.048,0.271-0.183,0.476-0.4,0.614c-0.216,0.139-0.481,0.182-0.78,0.131c-0.323-0.056-0.573-0.202-0.755-0.443
				c-0.181-0.239-0.245-0.521-0.189-0.839c0.099-0.596,0.556-1.08,1.368-1.45c0.812-0.369,1.812-0.449,2.996-0.235
				c1.091,0.2,1.883,0.572,2.369,1.114c0.489,0.546,0.665,1.131,0.537,1.754c-0.31,1.531-0.622,3.061-0.936,4.593
				c-0.085,0.406-0.076,0.72,0.024,0.938c0.099,0.225,0.258,0.357,0.478,0.402C150.44,118.215,150.718,118.172,151.029,118.034z
				 M148.624,113.879c-1.668-0.099-2.886,0.044-3.65,0.398c-0.57,0.271-0.911,0.74-1.029,1.401
				c-0.083,0.463-0.018,0.846,0.195,1.152c0.211,0.306,0.525,0.495,0.94,0.569c0.745,0.13,1.437-0.02,2.089-0.454
				c0.654-0.435,1.059-1.056,1.219-1.863C148.466,114.681,148.545,114.281,148.624,113.879z"/>
			<path fill="#FFFFFF" d="M153.658,110.779c1.5,0.311,3.001,0.635,4.501,0.974c-0.048,0.202-0.095,0.404-0.142,0.605
				c-0.601-0.122-0.993-0.158-1.177-0.107c-0.188,0.05-0.297,0.155-0.334,0.314c-0.027,0.132-0.028,0.27,0.008,0.416
				c0.429,1.822,0.834,3.645,1.222,5.468c1.1-1.427,2.213-2.847,3.34-4.26c0.052-0.073,0.09-0.154,0.111-0.237
				c0.107-0.431-0.292-0.812-1.194-1.139c0.049-0.202,0.098-0.403,0.146-0.604c1.264,0.296,2.52,0.602,3.782,0.918
				c-0.052,0.201-0.104,0.4-0.158,0.602c-0.39-0.062-0.722-0.04-0.985,0.057c-0.266,0.099-0.493,0.262-0.682,0.494
				c-1.708,2.08-3.383,4.178-5.033,6.289c-0.166-0.039-0.338-0.078-0.506-0.116c-0.57-2.688-1.186-5.379-1.843-8.066
				c-0.072-0.29-0.19-0.509-0.351-0.649c-0.162-0.143-0.441-0.262-0.836-0.349C153.57,111.185,153.614,110.981,153.658,110.779z"/>
			<path fill="#FFFFFF" d="M172.054,119.842c-2.128-0.622-4.262-1.214-6.396-1.776c-0.316,1.269-0.312,2.224,0.014,2.868
				c0.377,0.726,0.976,1.202,1.808,1.431c1.226,0.339,2.405-0.032,3.556-1.12c0.181,0.142,0.357,0.283,0.538,0.425
				c-1.435,1.391-2.995,1.844-4.717,1.371c-1.171-0.321-2.043-0.985-2.628-1.995c-0.584-1.012-0.719-2.141-0.381-3.393
				c0.361-1.345,1.055-2.33,2.098-2.945c1.04-0.616,2.172-0.761,3.37-0.433c0.881,0.242,1.585,0.66,2.103,1.253
				c0.515,0.591,0.821,1.318,0.907,2.176C172.386,118.309,172.296,119.02,172.054,119.842z M165.831,117.438
				c1.296,0.341,2.591,0.694,3.884,1.057c0.229,0.064,0.427,0.043,0.599-0.063c0.169-0.108,0.31-0.335,0.411-0.68
				c0.194-0.646,0.134-1.256-0.174-1.831s-0.768-0.945-1.368-1.111c-0.673-0.185-1.325-0.064-1.942,0.358
				C166.619,115.59,166.152,116.347,165.831,117.438z"/>
			<path fill="#FFFFFF" d="M174.203,121.523c0.066,1.127,0.284,1.96,0.66,2.502c0.379,0.541,0.93,0.929,1.661,1.161
				c0.679,0.216,1.246,0.249,1.707,0.091c0.461-0.156,0.765-0.446,0.913-0.866c0.086-0.241,0.093-0.478,0.021-0.703
				c-0.071-0.226-0.212-0.424-0.42-0.591c-0.209-0.168-0.785-0.501-1.731-0.992c-0.904-0.478-1.513-0.866-1.832-1.176
				c-0.317-0.308-0.529-0.664-0.635-1.066c-0.106-0.402-0.093-0.801,0.03-1.197c0.191-0.6,0.582-1.079,1.184-1.435
				c0.772-0.448,1.682-0.513,2.716-0.188c0.789,0.249,1.448,0.705,1.964,1.368c0.281-0.133,0.564-0.268,0.847-0.398
				c0.133,0.042,0.265,0.087,0.396,0.13c-0.249,0.993-0.503,1.985-0.759,2.978c-0.213-0.07-0.428-0.141-0.641-0.211
				c0.006-0.912-0.172-1.629-0.531-2.146s-0.893-0.889-1.605-1.111c-0.613-0.192-1.141-0.206-1.574-0.042
				c-0.438,0.163-0.715,0.439-0.84,0.831c-0.11,0.344-0.043,0.678,0.203,1.002c0.238,0.328,0.789,0.701,1.655,1.122
				c1.004,0.497,1.64,0.855,1.921,1.07c0.462,0.343,0.77,0.743,0.927,1.198c0.157,0.453,0.142,0.941-0.044,1.461
				c-0.256,0.715-0.777,1.219-1.557,1.515c-0.781,0.296-1.638,0.296-2.567,0c-0.862-0.274-1.578-0.793-2.142-1.554
				c-0.31,0.173-0.616,0.349-0.922,0.523c-0.165-0.051-0.33-0.1-0.494-0.149c0.287-1.105,0.572-2.212,0.855-3.317
				C173.779,121.396,173.991,121.461,174.203,121.523z"/>
		</g>
	</g>
</g>
</svg>
