<?xml version="1.0" encoding="utf-8"?>
<!-- Generator: Adobe Illustrator 16.0.0, SVG Export Plug-In . SVG Version: 6.00 Build 0)  -->
<!DOCTYPE svg PUBLIC "-//W3C//DTD SVG 1.1//EN" "http://www.w3.org/Graphics/SVG/1.1/DTD/svg11.dtd">
<svg version="1.1" id="Livello_1" xmlns="http://www.w3.org/2000/svg" xmlns:xlink="http://www.w3.org/1999/xlink" x="0px" y="0px"
	 width="230px" height="200px" viewBox="0 0 230 200" enable-background="new 0 0 230 200" xml:space="preserve">
<g>
	<path fill="#E41815" d="M197.243,98.036c-0.284,45.373-37.293,81.922-82.665,81.641c-45.371-0.285-81.923-37.295-81.639-82.666
		c0.283-45.369,37.293-81.924,82.665-81.639C160.977,15.655,197.526,52.667,197.243,98.036z"/>
	<path fill="#BC1818" d="M101.553,24.976c-7.636,1.504-14.855,4.162-21.472,7.785l20.294,42.715h1.809l10.134-27.844L101.553,24.976
		z"/>
	<polygon fill="none" points="112.317,47.632 102.184,75.476 125.545,75.476 	"/>
	<path fill="#A67D3C" d="M114.537,88.532c-9.468,0-17.142-4.691-17.142-10.482c0-5.789,7.674-10.48,17.142-10.48
		c9.469,0,17.143,4.691,17.143,10.48C131.68,83.841,124.006,88.532,114.537,88.532z M114.537,63.376
		c-13.251,0-23.998,6.572-23.998,14.674c0,8.104,10.747,14.676,23.998,14.676c13.252,0,24-6.572,24-14.676
		C138.537,69.948,127.789,63.376,114.537,63.376z"/>
	<g>
		<path fill="#A67D3C" d="M115.676,81.737c-21.52,0-38.973,17.572-38.973,39.238c0,21.668,17.453,39.238,38.973,39.238
			s38.974-17.57,38.974-39.238C154.649,99.31,137.195,81.737,115.676,81.737z M115.676,149.005
			c-15.376,0-27.838-12.549-27.838-28.029s12.462-28.027,27.838-28.027c15.377,0,27.839,12.547,27.839,28.027
			S131.053,149.005,115.676,149.005z"/>
		<g>
			<path fill="#C19751" d="M115.684,81.887c0,0-0.959,0.046-2.756,0.133c-0.447,0.033-0.955,0.018-1.499,0.1
				s-1.137,0.171-1.778,0.268c-0.639,0.109-1.336,0.174-2.062,0.338c-0.721,0.188-1.486,0.389-2.297,0.601
				c-3.197,0.929-7.064,2.378-10.887,5.059c-3.832,2.615-7.734,6.274-10.794,11.092c-3.036,4.809-5.27,10.696-5.952,17.149
				c-0.113,0.802-0.083,1.624-0.133,2.441c-0.006,0.808-0.115,1.672-0.04,2.446c0.118,1.681,0.118,3.433,0.46,5.061
				c0.417,3.328,1.525,6.682,2.893,9.901c0.386,0.79,0.773,1.584,1.162,2.381c0.387,0.796,0.909,1.524,1.358,2.294l0.7,1.144
				c0.25,0.371,0.535,0.719,0.801,1.08c0.551,0.71,1.065,1.451,1.646,2.143c2.35,2.752,5.115,5.176,8.148,7.256
				c3.085,2.013,6.478,3.558,10.016,4.677c3.543,1.044,7.349,1.504,10.946,1.567c3.928-0.134,7.438-0.652,11.013-1.75
				c3.502-1.175,6.84-2.767,9.859-4.811c2.97-2.11,5.649-4.557,7.935-7.294c2.195-2.8,4.105-5.78,5.459-8.966
				c1.331-3.177,2.405-6.438,2.807-9.75c0.334-1.637,0.318-3.293,0.432-4.917l0.03-0.536l-0.023-0.631l-0.047-1.257
				c-0.05-0.823-0.021-1.692-0.134-2.461c-0.107-0.772-0.215-1.539-0.321-2.3c-0.06-0.381-0.089-0.762-0.171-1.141l-0.269-1.131
				c-0.175-0.755-0.349-1.503-0.521-2.245c-0.22-0.729-0.481-1.438-0.717-2.151c-0.939-2.856-2.279-5.456-3.696-7.875
				c-2.954-4.783-6.746-8.463-10.497-11.126c-3.742-2.726-7.562-4.231-10.733-5.207c-0.804-0.224-1.564-0.435-2.28-0.634
				c-0.723-0.174-1.418-0.248-2.055-0.365c-0.641-0.105-1.233-0.203-1.775-0.293c-0.543-0.089-1.047-0.08-1.492-0.119
				c-1.788-0.11-2.742-0.169-2.742-0.169L115.684,81.887z M115.676,81.587c0,0,0.963,0.039,2.768,0.111
				c0.45,0.031,0.959,0.011,1.509,0.089c0.55,0.079,1.15,0.164,1.8,0.257c0.646,0.104,1.353,0.167,2.087,0.326
				c0.731,0.176,1.51,0.363,2.331,0.561c3.248,0.882,7.197,2.239,11.216,4.792c4.011,2.517,8.173,6.098,11.58,10.94
				c3.391,4.857,5.976,10.864,6.858,17.789c0.139,0.86,0.129,1.662,0.201,2.504l0.078,1.255l0.04,0.631
				c-0.001-0.041,0.008,0.144,0.005,0.155l-0.004,0.082l-0.007,0.164l-0.015,0.328c-0.102,1.752-0.084,3.538-0.423,5.31
				c-0.413,3.579-1.537,7.121-2.96,10.571c-0.407,0.842-0.816,1.687-1.229,2.535c-0.412,0.848-0.96,1.626-1.438,2.444l-0.745,1.217
				c-0.265,0.396-0.565,0.767-0.848,1.152c-0.581,0.758-1.131,1.546-1.747,2.282c-2.486,2.938-5.439,5.51-8.672,7.717
				c-3.285,2.139-6.899,3.782-10.67,4.965c-3.763,1.106-7.907,1.605-11.655,1.647l-3.022-0.169c-0.99-0.018-1.964-0.195-2.938-0.354
				l-1.461-0.236l-0.729-0.119l-0.716-0.189l-2.854-0.762c-3.734-1.237-7.295-2.927-10.515-5.098
				c-3.168-2.236-6.036-4.83-8.458-7.755c-0.599-0.734-1.13-1.519-1.694-2.272c-0.273-0.383-0.565-0.752-0.821-1.145l-0.718-1.208
				c-0.461-0.812-0.991-1.584-1.387-2.423c-0.394-0.839-0.786-1.675-1.178-2.508c-1.387-3.406-2.476-6.856-2.874-10.419
				c-0.331-1.78-0.298-3.471-0.394-5.166c-0.007-0.229-0.023-0.384-0.021-0.672l0.039-0.643l0.079-1.278
				c0.072-0.848,0.064-1.697,0.201-2.525c0.869-6.665,3.317-12.679,6.601-17.481c3.302-4.809,7.353-8.41,11.282-10.976
				c3.938-2.598,7.841-4.012,11.062-4.94c0.816-0.209,1.589-0.407,2.315-0.594c0.73-0.17,1.435-0.24,2.079-0.354
				c0.648-0.102,1.248-0.195,1.797-0.281c0.549-0.085,1.053-0.072,1.502-0.108c1.796-0.098,2.754-0.148,2.754-0.148L115.676,81.587z
				"/>
			<path fill="#C19751" d="M115.668,149.154c0,0-0.685-0.037-1.968-0.107c-0.32-0.027-0.679-0.018-1.072-0.079
				c-0.394-0.062-0.822-0.13-1.286-0.203c-0.461-0.081-0.966-0.133-1.488-0.254c-0.52-0.134-1.072-0.274-1.656-0.424
				c-2.304-0.663-5.098-1.668-7.928-3.511c-2.82-1.825-5.735-4.391-8.128-7.824c-2.38-3.43-4.159-7.745-4.806-12.536
				c-0.102-0.596-0.1-1.206-0.153-1.815c-0.021-0.623-0.127-1.199-0.077-1.873c0.064-1.213,0.036-2.412,0.271-3.705
				c0.281-2.578,1.057-5.057,2.049-7.518c1.025-2.449,2.479-4.745,4.159-6.899c1.74-2.114,3.804-3.991,6.087-5.611
				c2.319-1.572,4.887-2.8,7.582-3.7c1.371-0.371,2.74-0.781,4.16-0.955c0.703-0.117,1.407-0.246,2.123-0.262l2.201-0.127
				c2.65,0.018,5.702,0.37,8.416,1.161c2.732,0.846,5.354,2.026,7.739,3.567c2.347,1.591,4.495,3.445,6.301,5.573
				c1.749,2.165,3.276,4.484,4.367,6.976c1.028,2.504,1.838,5.073,2.134,7.669c0.244,1.284,0.23,2.579,0.301,3.849l0.01,0.238
				l0.006,0.118l0.002,0.06l-0.004,0.133l-0.031,0.45l-0.061,0.896c-0.055,0.604-0.05,1.167-0.152,1.795
				c-0.662,5.051-2.576,9.357-5.064,12.843c-2.498,3.469-5.523,6.013-8.427,7.789c-2.909,1.798-5.75,2.747-8.081,3.362
				c-0.589,0.138-1.147,0.268-1.672,0.39c-0.526,0.112-1.032,0.154-1.496,0.228c-0.465,0.064-0.895,0.124-1.289,0.178
				c-0.394,0.055-0.758,0.039-1.08,0.06c-1.291,0.046-1.98,0.071-1.98,0.071L115.668,149.154z M115.676,148.854
				c0,0,0.68-0.044,1.955-0.129c0.318-0.029,0.676-0.024,1.063-0.089c0.387-0.065,0.809-0.137,1.265-0.215
				c0.454-0.085,0.949-0.141,1.463-0.266c0.51-0.146,1.051-0.301,1.622-0.464c2.254-0.71,4.965-1.806,7.599-3.778
				c2.643-1.923,5.299-4.565,7.344-7.973c0.981-1.724,1.897-3.572,2.543-5.591c0.162-0.504,0.342-1.006,0.492-1.521
				c0.115-0.523,0.232-1.053,0.351-1.585c0.296-1.063,0.337-2.124,0.515-3.201c0.076-0.536,0.053-1.167,0.085-1.752l0.029-0.897
				l0.015-0.451c-0.001,0.015,0.004-0.114-0.002,0.02l-0.003-0.054l-0.007-0.107l-0.012-0.214c-0.082-1.142-0.071-2.307-0.309-3.457
				c-0.285-2.327-1.045-4.617-1.982-6.848c-0.945-2.239-2.282-4.337-3.821-6.31c-1.603-1.927-3.478-3.656-5.562-5.149
				c-2.119-1.447-4.465-2.576-6.928-3.413c-2.526-0.783-4.944-1.155-7.775-1.265c-2.502,0.038-5.214,0.353-7.709,1.081
				c-2.5,0.782-4.899,1.865-7.084,3.28c-2.146,1.463-4.107,3.17-5.775,5.111c-1.607,1.982-3.02,4.104-4.029,6.385
				c-0.974,2.273-1.768,4.656-2.068,7c-0.246,1.141-0.25,2.401-0.338,3.6c-0.055,0.533,0.02,1.157,0.021,1.727
				c0.032,0.58,0.007,1.163,0.085,1.731c0.46,4.58,2.024,8.769,4.157,12.204c2.15,3.443,4.917,6.064,7.641,7.939
				c2.715,1.927,5.472,2.967,7.752,3.63c0.578,0.151,1.124,0.295,1.639,0.43c0.518,0.116,1.015,0.162,1.471,0.239
				c0.457,0.068,0.88,0.132,1.268,0.189s0.751,0.046,1.07,0.07c1.284,0.06,1.969,0.092,1.969,0.092L115.676,148.854z"/>
		</g>
	</g>
	<g>
		<circle fill="#C19650" cx="115.676" cy="120.696" r="30.438"/>
		<path fill="#926F34" d="M146.264,120.704c0,0-0.031,0.746-0.092,2.146c-0.024,0.35-0.012,0.74-0.07,1.17
			c-0.062,0.43-0.131,0.898-0.203,1.404c-0.086,0.505-0.129,1.058-0.239,1.634c-0.131,0.571-0.271,1.179-0.418,1.821
			c-0.075,0.321-0.153,0.65-0.232,0.989c-0.11,0.329-0.224,0.667-0.341,1.012c-0.238,0.688-0.422,1.439-0.736,2.172
			c-0.318,0.735-0.648,1.5-0.992,2.293c-0.392,0.771-0.834,1.552-1.274,2.373c-1.901,3.182-4.622,6.55-8.419,9.273
			c-3.785,2.709-8.646,4.66-13.978,5.239c-0.663,0.091-1.341,0.064-2.017,0.102l-1.019,0.031l-0.512,0.016l-0.126-0.001
			l-0.062-0.005l-0.123-0.008l-0.246-0.018c-1.32-0.122-2.617-0.159-4.046-0.479c-2.825-0.438-5.487-1.41-8.101-2.623
			c-2.607-1.232-4.981-2.953-7.233-4.821c-2.197-1.95-4.152-4.189-5.846-6.649c-1.65-2.49-2.946-5.228-3.928-8.096
			c-0.95-2.903-1.438-5.879-1.594-9.027c-0.038-2.921,0.264-6.144,1.056-9.108c0.878-2.957,2.11-5.811,3.749-8.41
			c1.688-2.562,3.699-4.886,5.98-6.867c2.325-1.918,4.822-3.603,7.516-4.807c2.686-1.188,5.48-2.084,8.301-2.431
			c1.396-0.273,2.805-0.275,4.188-0.354l0.26-0.01l0.129-0.005l0.064-0.003l0.144,0.005l0.491,0.029l0.977,0.06
			c0.659,0.056,1.271,0.044,1.957,0.154c1.355,0.24,2.747,0.363,3.986,0.758c0.632,0.17,1.26,0.338,1.882,0.506
			c0.609,0.208,1.2,0.459,1.791,0.685c1.199,0.414,2.285,1.033,3.375,1.578c0.556,0.252,1.046,0.611,1.548,0.935
			c0.498,0.327,0.99,0.652,1.479,0.974c3.788,2.754,6.504,6.129,8.4,9.318c1.927,3.201,2.909,6.31,3.571,8.851
			c0.146,0.643,0.285,1.251,0.416,1.823c0.108,0.575,0.151,1.126,0.234,1.63c0.072,0.506,0.139,0.974,0.199,1.402
			c0.058,0.429,0.044,0.824,0.067,1.176c0.057,1.406,0.086,2.156,0.086,2.156V120.704z M145.965,120.696
			c0,0-0.046-0.741-0.131-2.133c-0.03-0.347-0.024-0.737-0.092-1.159c-0.068-0.423-0.144-0.883-0.226-1.381
			c-0.086-0.497-0.154-1.036-0.296-1.596c-0.158-0.555-0.328-1.145-0.507-1.769c-0.761-2.462-1.997-5.404-4.147-8.264
			c-2.104-2.874-5.014-5.709-8.684-7.956c-1.869-1.059-3.839-2.12-6.028-2.838c-0.543-0.185-1.092-0.37-1.645-0.557
			c-0.566-0.139-1.138-0.278-1.713-0.42c-1.153-0.344-2.307-0.396-3.479-0.6c-0.582-0.091-1.271-0.069-1.907-0.11l-0.979-0.039
			l-0.491-0.02c0.017,0.001-0.122-0.005,0.021,0.001l-0.059,0.004l-0.116,0.008l-0.233,0.015c-1.245,0.086-2.517,0.063-3.772,0.315
			c-2.542,0.298-5.042,1.12-7.502,2.101c-2.459,1.022-4.755,2.495-6.919,4.181c-2.129,1.744-3.988,3.838-5.638,6.116
			c-1.606,2.315-2.857,4.892-3.799,7.599c-0.915,2.748-1.388,5.487-1.565,8.54c-0.016,2.824,0.268,5.811,1.024,8.621
			c0.839,2.796,2.022,5.489,3.618,7.913c0.395,0.606,0.85,1.171,1.281,1.748c0.223,0.283,0.424,0.583,0.664,0.852l0.73,0.791
			c0.502,0.513,0.938,1.087,1.489,1.544l1.608,1.399c2.236,1.736,4.654,3.174,7.199,4.166c2.533,0.958,5.167,1.703,7.702,1.909
			c1.224,0.208,2.606,0.148,3.914,0.192l0.247,0.008l0.123,0.004l0.062,0.002c0.034,0.002-0.079-0.005-0.003-0.005l0.471-0.034
			l0.937-0.066c0.62-0.059,1.243-0.053,1.848-0.162c4.88-0.64,9.272-2.364,12.948-4.605c3.664-2.275,6.568-5.117,8.668-7.999
			c2.148-2.864,3.387-5.809,4.144-8.274c0.179-0.624,0.347-1.214,0.505-1.77c0.141-0.56,0.208-1.097,0.292-1.593
			c0.08-0.497,0.154-0.957,0.222-1.378c0.065-0.422,0.059-0.818,0.088-1.166c0.081-1.397,0.125-2.144,0.125-2.144V120.696z"/>
	</g>
	<g>
		<path fill="#A67D3C" d="M123.002,107.11c-2.936-0.4-5.316-0.162-8.1,2.463c-2.88-2.02-4.215-2.424-6.806-2.424
			c-5.565,0-10.669,6.652-9.27,14.588c1.414,8.027,4.489,13.018,9.27,14.586c2.358,0.773,3.926-0.781,6.904-1.756
			c1.708,0.506,1.997,0.844,4.061,1.449c4.655,1.363,10.868-5.109,11.956-13.092S128.518,107.862,123.002,107.11z"/>
		<path fill="#A67D3C" d="M113.498,104.771c-0.424-1.982-0.961-2.879-0.366-3.008c0.594-0.127,1.174,0.064,1.598,2.047
			c0.425,1.982,0.764,3.621,0.169,3.748C114.306,107.685,113.923,106.755,113.498,104.771z"/>
	</g>
	<path fill="#D51116" d="M121.023,23.712l-8.706,23.92l-10.134,27.844l-0.214,0.584h25.17l17.135-47.076
		C137.016,26.058,129.197,24.233,121.023,23.712z"/>
	<circle fill="none" stroke="#A67D3C" stroke-width="5" stroke-miterlimit="10" cx="115.091" cy="97.524" r="75.216"/>
	<g>
		<g>
			<path fill="#BC1818" stroke="#A67D3C" stroke-width="4" stroke-miterlimit="10" d="M218.189,152.812
				c-6.562-1.267-12.94-2.86-19.115-4.75c2.964-6.088,5.604-12.242,7.921-18.431c-52.148,29.121-114.772,31.745-168.899,7.72
				c-4.867-2.171-9.666-4.558-14.381-7.16c2.587,6.365,5.521,12.695,8.804,18.955c-5.812,1.755-11.8,3.237-17.947,4.422
				C78.048,188.067,154.859,187.829,218.189,152.812L218.189,152.812L218.189,152.812z"/>
		</g>
	</g>
	<g>
		<g>
			<path fill="#A67D3C" d="M50.288,146.214c2.498,1.03,5.011,2,7.544,2.908c1.487,0.533,2.553,1.232,3.191,2.123
				c0.639,0.89,0.848,1.804,0.607,2.747c-0.198,0.785-0.651,1.363-1.359,1.721c-0.71,0.359-1.684,0.502-2.915,0.416
				c1.344,0.771,2.304,1.559,2.871,2.387c0.564,0.826,0.741,1.689,0.521,2.591c-0.17,0.688-0.53,1.232-1.079,1.628
				c-0.55,0.396-1.36,0.617-2.427,0.654c-1.07,0.037-2.223-0.165-3.452-0.612c-2.617-0.948-5.215-1.958-7.798-3.03
				c0.071-0.229,0.144-0.457,0.217-0.687c0.42,0.175,0.84,0.347,1.261,0.519c0.381,0.152,0.675,0.21,0.884,0.17
				c0.211-0.04,0.336-0.129,0.38-0.271c1.108-3.631,2.216-7.261,3.325-10.894c0.078-0.259,0.056-0.484-0.066-0.682
				c-0.125-0.196-0.34-0.357-0.653-0.483c-0.425-0.171-0.846-0.344-1.269-0.518C50.143,146.671,50.216,146.442,50.288,146.214z
				 M52.758,154.195c0.939,0.36,1.887,0.712,2.832,1.056c0.869,0.316,1.635,0.327,2.277,0.036c0.646-0.293,1.103-0.977,1.39-2.051
				c0.175-0.665,0.19-1.226,0.048-1.682c-0.144-0.455-0.421-0.85-0.834-1.181c-0.412-0.333-1.182-0.698-2.307-1.112
				c-0.797-0.293-1.304-0.428-1.524-0.392c-0.223,0.033-0.373,0.188-0.452,0.458C53.711,150.95,53.234,152.573,52.758,154.195z
				 M52.554,154.888c-0.516,1.755-1.03,3.508-1.546,5.263c-0.072,0.246-0.048,0.462,0.081,0.647c0.124,0.186,0.401,0.361,0.827,0.52
				c0.62,0.233,1.246,0.464,1.868,0.69c1.24,0.451,2.227,0.529,2.95,0.245c0.723-0.283,1.22-0.946,1.486-1.979
				c0.25-0.947,0.134-1.796-0.32-2.547c-0.455-0.752-1.207-1.312-2.261-1.691C54.608,155.662,53.58,155.279,52.554,154.888z"/>
			<path fill="#A67D3C" d="M63.163,156.421c1.157,0.308,2.317,0.601,3.479,0.883c-0.268,1.193-0.539,2.388-0.807,3.581
				c0.637-1.068,1.283-1.832,1.939-2.29c0.653-0.458,1.361-0.582,2.128-0.375c0.521,0.143,0.907,0.398,1.16,0.775
				c0.252,0.376,0.332,0.814,0.231,1.308c-0.082,0.4-0.25,0.684-0.506,0.85c-0.255,0.166-0.543,0.207-0.864,0.123
				c-0.313-0.083-0.548-0.248-0.696-0.489c-0.152-0.241-0.193-0.524-0.123-0.847c0.043-0.209,0.142-0.389,0.289-0.543
				c0.141-0.137,0.211-0.221,0.217-0.252c0.02-0.095-0.035-0.16-0.166-0.196c-0.281-0.076-0.636-0.013-1.056,0.191
				c-0.587,0.285-1.097,0.758-1.529,1.418c-0.669,1.03-1.085,1.883-1.239,2.571c-0.142,0.634-0.287,1.268-0.426,1.9
				c-0.048,0.215,0,0.404,0.146,0.565c0.146,0.163,0.424,0.304,0.834,0.421c0.422,0.119,0.846,0.24,1.268,0.355
				c-0.052,0.237-0.1,0.475-0.151,0.712c-2.072-0.574-4.143-1.185-6.199-1.834c0.056-0.235,0.113-0.47,0.17-0.704
				c0.328,0.103,0.656,0.205,0.985,0.307c0.331,0.103,0.596,0.12,0.792,0.056c0.198-0.064,0.314-0.179,0.353-0.343
				c0.438-1.877,0.873-3.752,1.309-5.63c0.101-0.428,0.071-0.77-0.079-1.027s-0.412-0.444-0.78-0.558
				c-0.28-0.086-0.559-0.174-0.839-0.262C63.057,156.867,63.11,156.645,63.163,156.421z"/>
			<path fill="#A67D3C" d="M77.258,159.93c1.305,0.294,2.327,0.962,3.085,2.02c0.758,1.06,1.036,2.301,0.817,3.734
				c-0.149,0.988-0.481,1.793-1.002,2.406c-0.521,0.614-1.195,1.043-2.028,1.285c-0.831,0.242-1.694,0.263-2.581,0.062
				c-1.312-0.297-2.341-1.004-3.077-2.104c-0.738-1.1-0.959-2.354-0.686-3.752c0.272-1.405,0.942-2.431,1.987-3.093
				C74.817,159.826,75.974,159.641,77.258,159.93z M77.14,160.61c-0.774-0.175-1.467,0.003-2.087,0.531
				c-0.616,0.527-1.061,1.488-1.32,2.883c-0.265,1.421-0.207,2.521,0.184,3.299c0.389,0.778,0.994,1.263,1.806,1.446
				c0.84,0.189,1.579,0.008,2.206-0.541c0.629-0.549,1.062-1.576,1.301-3.076c0.225-1.391,0.131-2.449-0.262-3.177
				C78.57,161.249,77.963,160.796,77.14,160.61z"/>
			<path fill="#A67D3C" d="M83.262,161.446c1.091,0.142,2.183,0.272,3.271,0.394c0.059,0.59,0.07,1.271,0.035,2.043
				c0.53-0.584,1.106-0.992,1.746-1.229c0.638-0.236,1.331-0.297,2.085-0.188c0.651,0.095,1.181,0.287,1.598,0.585
				c0.417,0.296,0.73,0.717,0.948,1.265c0.217,0.546,0.297,1.138,0.232,1.774c-0.143,1.479-0.291,2.959-0.437,4.438
				c-0.03,0.331,0.024,0.577,0.182,0.738c0.153,0.158,0.427,0.266,0.818,0.313c0.241,0.028,0.481,0.059,0.72,0.087
				c-0.022,0.243-0.044,0.487-0.066,0.73c-1.802-0.213-3.601-0.452-5.396-0.72c0.029-0.241,0.055-0.486,0.083-0.728
				c0.171,0.025,0.343,0.05,0.512,0.075c0.478,0.069,0.818,0.048,1.022-0.062c0.203-0.11,0.318-0.302,0.348-0.574
				c0.137-1.299,0.276-2.6,0.413-3.897c0.088-0.85,0.014-1.498-0.222-1.945c-0.332-0.638-0.896-1.015-1.695-1.134
				c-0.793-0.118-1.486,0.069-2.092,0.572c-0.603,0.501-0.969,1.222-1.091,2.163c-0.146,1.12-0.29,2.24-0.434,3.36
				c-0.04,0.329,0.009,0.576,0.165,0.745c0.152,0.166,0.423,0.283,0.812,0.346c0.237,0.039,0.473,0.075,0.707,0.112
				c-0.029,0.243-0.059,0.485-0.088,0.728c-1.801-0.284-3.599-0.595-5.394-0.933c0.033-0.241,0.073-0.482,0.104-0.724
				c0.234,0.044,0.469,0.088,0.703,0.131c0.353,0.064,0.635,0.05,0.833-0.047c0.203-0.096,0.317-0.24,0.343-0.434
				c0.267-1.95,0.533-3.899,0.801-5.85c0.053-0.385-0.021-0.699-0.221-0.939c-0.2-0.239-0.512-0.398-0.937-0.478
				c-0.167-0.031-0.335-0.062-0.502-0.094C83.201,161.864,83.231,161.655,83.262,161.446z"/>
			<path fill="#A67D3C" d="M97.249,163.49c2.605,0.273,5.215,0.488,7.828,0.645c-0.008,0.195-0.017,0.392-0.026,0.587
				c-2.195,2.496-4.467,4.947-6.805,7.352c1.047,0.102,2.092,0.193,3.139,0.276c0.724,0.058,1.312-0.105,1.762-0.48
				c0.453-0.376,0.818-1.108,1.104-2.195c0.239,0.016,0.483,0.029,0.724,0.045c-0.134,1.197-0.268,2.395-0.403,3.592
				c-2.886-0.177-5.767-0.424-8.643-0.738c0.02-0.225,0.037-0.449,0.057-0.674c2.356-2.357,4.644-4.764,6.861-7.214
				c-0.878-0.063-1.754-0.134-2.633-0.211c-0.549-0.048-0.965-0.017-1.246,0.098c-0.28,0.114-0.532,0.323-0.756,0.626
				c-0.221,0.303-0.45,0.839-0.682,1.608c-0.264-0.026-0.524-0.055-0.79-0.082C96.91,165.646,97.08,164.568,97.249,163.49z"/>
			<path fill="#A67D3C" d="M116.043,169.113c-2.41,0.005-4.822-0.037-7.235-0.13c-0.007,1.4,0.257,2.401,0.789,2.994
				c0.611,0.67,1.407,1.019,2.38,1.037c1.433,0.03,2.594-0.692,3.452-2.152c0.237,0.092,0.471,0.184,0.708,0.274
				c-1.049,1.863-2.607,2.789-4.635,2.742c-1.38-0.031-2.532-0.521-3.443-1.448c-0.91-0.929-1.328-2.093-1.279-3.478
				c0.054-1.491,0.555-2.671,1.477-3.553c0.921-0.881,2.027-1.302,3.328-1.274c0.953,0.021,1.777,0.261,2.476,0.726
				c0.696,0.464,1.221,1.123,1.58,1.981C115.892,167.434,116.024,168.196,116.043,169.113z M108.828,168.286
				c1.453,0.056,2.909,0.093,4.363,0.112c0.257,0.004,0.461-0.074,0.604-0.233c0.145-0.159,0.217-0.432,0.219-0.818
				c0.008-0.722-0.235-1.334-0.716-1.845c-0.481-0.51-1.046-0.771-1.702-0.786c-0.736-0.017-1.363,0.27-1.89,0.86
				C109.18,166.168,108.884,167.07,108.828,168.286z"/>
			<path fill="#A67D3C" d="M124.179,164.229c0.939-0.102,1.88-0.214,2.819-0.33c0.188,0.674,0.327,1.32,0.411,1.936
				c0.499-0.755,1.007-1.299,1.524-1.633c0.517-0.335,1.093-0.527,1.734-0.585c0.682-0.06,1.258,0.053,1.724,0.343
				c0.471,0.291,0.855,0.795,1.156,1.521c0.413-0.759,0.895-1.346,1.438-1.762c0.546-0.415,1.151-0.666,1.83-0.748
				c0.894-0.109,1.587,0.048,2.09,0.484c0.642,0.575,1.027,1.376,1.14,2.406c0.17,1.519,0.335,3.034,0.503,4.551
				c0.028,0.274,0.126,0.451,0.29,0.526c0.219,0.122,0.527,0.154,0.928,0.097c0.168-0.023,0.341-0.05,0.511-0.075
				c0.028,0.244,0.058,0.49,0.086,0.733c-1.711,0.254-3.426,0.482-5.146,0.687c-0.022-0.244-0.047-0.489-0.069-0.734
				c0.173-0.021,0.341-0.041,0.512-0.062c0.438-0.054,0.736-0.158,0.896-0.311c0.156-0.152,0.227-0.358,0.2-0.622
				c-0.156-1.52-0.313-3.04-0.467-4.561c-0.07-0.68-0.304-1.184-0.7-1.511c-0.392-0.326-0.887-0.455-1.466-0.386
				c-0.439,0.053-0.83,0.207-1.171,0.467c-0.341,0.259-0.596,0.603-0.766,1.03c-0.255,0.614-0.368,1.126-0.333,1.531
				c0.106,1.319,0.218,2.639,0.326,3.958c0.024,0.27,0.117,0.459,0.288,0.57c0.171,0.112,0.424,0.15,0.759,0.113
				c0.234-0.025,0.467-0.051,0.698-0.077c0.022,0.245,0.044,0.49,0.065,0.735c-1.742,0.195-3.491,0.365-5.238,0.51
				c-0.016-0.246-0.033-0.49-0.049-0.736c0.198-0.016,0.393-0.032,0.59-0.05c0.373-0.03,0.646-0.124,0.817-0.27
				c0.171-0.147,0.249-0.323,0.235-0.526c-0.105-1.414-0.211-2.828-0.314-4.24c-0.068-0.896-0.289-1.532-0.66-1.906
				c-0.373-0.377-0.846-0.537-1.424-0.489c-0.747,0.061-1.311,0.341-1.685,0.841c-0.534,0.711-0.783,1.509-0.733,2.398
				c0.067,1.226,0.129,2.45,0.199,3.676c0.016,0.281,0.092,0.47,0.238,0.566c0.205,0.124,0.514,0.171,0.932,0.141
				c0.175-0.013,0.351-0.025,0.525-0.039c0.016,0.246,0.031,0.491,0.045,0.737c-1.727,0.131-3.456,0.236-5.185,0.318
				c-0.009-0.246-0.017-0.492-0.028-0.737c0.26-0.013,0.518-0.025,0.777-0.038c0.29-0.016,0.514-0.093,0.665-0.233
				c0.151-0.14,0.22-0.312,0.212-0.515c-0.096-2.012-0.186-4.022-0.279-6.034c-0.014-0.334-0.117-0.577-0.31-0.731
				c-0.191-0.153-0.563-0.237-1.116-0.256C124.197,164.682,124.188,164.455,124.179,164.229z"/>
			<path fill="#A67D3C" d="M152.653,165.223c-2.373,0.504-4.752,0.959-7.137,1.365c0.221,1.386,0.642,2.321,1.259,2.798
				c0.709,0.535,1.545,0.716,2.508,0.534c1.413-0.267,2.44-1.22,3.049-2.841c0.248,0.042,0.494,0.085,0.741,0.126
				c-0.727,2.058-2.12,3.296-4.117,3.668c-1.363,0.252-2.578,0.007-3.621-0.723c-1.044-0.731-1.649-1.793-1.818-3.175
				c-0.188-1.485,0.113-2.755,0.879-3.817c0.767-1.062,1.781-1.707,3.067-1.945c0.943-0.176,1.795-0.107,2.553,0.207
				c0.759,0.314,1.383,0.857,1.873,1.632C152.234,163.597,152.491,164.32,152.653,165.223z M145.424,165.895
				c1.441-0.246,2.875-0.508,4.311-0.789c0.257-0.051,0.439-0.168,0.555-0.355c0.116-0.187,0.143-0.471,0.084-0.854
				c-0.113-0.713-0.449-1.271-1.002-1.677c-0.556-0.404-1.156-0.546-1.802-0.426c-0.722,0.136-1.293,0.549-1.72,1.24
				C145.427,163.727,145.281,164.68,145.424,165.895z"/>
			<path fill="#A67D3C" d="M157.832,153.74c1.218-0.371,2.431-0.755,3.639-1.153c0.897,4.105,1.795,8.211,2.692,12.317
				c0.102,0.479,0.282,0.794,0.528,0.942c0.247,0.148,0.573,0.165,0.977,0.05c0.231-0.066,0.462-0.133,0.691-0.2
				c0.057,0.238,0.111,0.479,0.164,0.719c-1.137,0.331-2.277,0.651-3.421,0.959c-0.215-0.59-0.429-1.18-0.643-1.77
				c-0.267,0.763-0.64,1.382-1.119,1.855c-0.476,0.472-1.059,0.795-1.742,0.964c-1.146,0.285-2.21,0.087-3.172-0.594
				c-0.959-0.678-1.562-1.734-1.812-3.156c-0.271-1.539,0.02-2.878,0.848-4.027c0.652-0.9,1.475-1.471,2.487-1.726
				c0.62-0.155,1.201-0.153,1.751,0.007s1.069,0.484,1.559,0.969c-0.357-1.697-0.714-3.395-1.071-5.092
				c-0.056-0.269-0.211-0.453-0.462-0.552c-0.25-0.099-0.606-0.087-1.073,0.035c-0.226,0.059-0.45,0.117-0.676,0.175
				C157.93,154.223,157.881,153.98,157.832,153.74z M158.386,159.651c-0.743,0.188-1.276,0.62-1.612,1.3
				c-0.33,0.68-0.376,1.7-0.122,3.061c0.274,1.478,0.695,2.464,1.274,2.954c0.58,0.491,1.234,0.647,1.963,0.464
				c0.779-0.195,1.375-0.705,1.787-1.52c0.412-0.817,0.48-1.871,0.205-3.16c-0.258-1.219-0.744-2.099-1.465-2.648
				C159.791,159.615,159.117,159.468,158.386,159.651z"/>
			<path fill="#A67D3C" d="M177.781,161.665c0.175,0.131,0.354,0.261,0.527,0.391c-0.373,0.658-0.876,1.102-1.5,1.323
				c-0.479,0.171-0.912,0.194-1.302,0.075c-0.39-0.122-0.788-0.433-1.188-0.938c-0.495,0.86-0.975,1.479-1.426,1.861
				c-0.451,0.379-1.036,0.687-1.752,0.915c-1.016,0.326-1.844,0.367-2.469,0.135c-0.625-0.234-1.008-0.663-1.153-1.281
				c-0.219-0.933,0.202-1.884,1.245-2.869c1.04-0.986,2.518-1.898,4.417-2.771c-0.123-0.449-0.239-0.898-0.358-1.348
				c-0.13-0.48-0.446-0.82-0.949-1.022c-0.504-0.2-1.074-0.194-1.711,0.014c-0.594,0.194-1.07,0.473-1.444,0.839
				c-0.265,0.269-0.377,0.486-0.336,0.652c0.024,0.096,0.142,0.218,0.356,0.37c0.261,0.192,0.416,0.386,0.466,0.583
				c0.072,0.285,0.028,0.553-0.126,0.796c-0.153,0.244-0.395,0.418-0.719,0.52c-0.343,0.107-0.659,0.088-0.943-0.059
				c-0.281-0.146-0.464-0.388-0.544-0.726c-0.149-0.633,0.099-1.324,0.73-2.083c0.635-0.759,1.559-1.334,2.783-1.74
				c1.127-0.373,2.047-0.443,2.765-0.195c0.721,0.253,1.17,0.705,1.352,1.362c0.443,1.614,0.889,3.23,1.333,4.846
				c0.119,0.43,0.279,0.718,0.491,0.864c0.213,0.154,0.438,0.188,0.684,0.1C177.281,162.18,177.539,161.976,177.781,161.665z
				 M173.348,159.132c-1.691,0.821-2.845,1.583-3.456,2.32c-0.456,0.556-0.599,1.183-0.429,1.883
				c0.119,0.49,0.354,0.828,0.714,1.014c0.358,0.185,0.769,0.206,1.234,0.055c0.83-0.268,1.479-0.792,1.936-1.562
				c0.458-0.771,0.565-1.586,0.34-2.438C173.575,159.98,173.463,159.555,173.348,159.132z"/>
			<path fill="#A67D3C" d="M178.972,146.619c1.313,4.238,2.626,8.478,3.94,12.716c0.053,0.175,0.15,0.286,0.301,0.332
				c0.213,0.056,0.442,0.033,0.689-0.067c0.342-0.139,0.684-0.278,1.024-0.419c0.075,0.233,0.149,0.466,0.224,0.699
				c-1.833,0.758-3.681,1.484-5.532,2.18c-0.067-0.235-0.136-0.471-0.205-0.706c0.326-0.123,0.655-0.245,0.979-0.371
				c0.321-0.121,0.534-0.283,0.651-0.481c0.113-0.197,0.136-0.423,0.058-0.673c-1.072-3.568-2.147-7.137-3.221-10.705
				c-0.095-0.312-0.252-0.506-0.472-0.582c-0.302-0.106-0.63-0.092-0.983,0.043c-0.275,0.105-0.549,0.21-0.826,0.313
				c-0.066-0.235-0.137-0.471-0.205-0.706C176.593,147.682,177.782,147.157,178.972,146.619z"/>
		</g>
	</g>
</g>
</svg>
