<?xml version="1.0" encoding="utf-8"?>
<!-- Generator: Adobe Illustrator 16.0.0, SVG Export Plug-In . SVG Version: 6.00 Build 0)  -->
<!DOCTYPE svg PUBLIC "-//W3C//DTD SVG 1.1//EN" "http://www.w3.org/Graphics/SVG/1.1/DTD/svg11.dtd">
<svg version="1.1" id="Livello_1" xmlns="http://www.w3.org/2000/svg" xmlns:xlink="http://www.w3.org/1999/xlink" x="0px" y="0px"
	 width="230px" height="200px" viewBox="0 0 230 200" enable-background="new 0 0 230 200" xml:space="preserve">
<g>
	<circle fill="#E41815" cx="112.081" cy="95.501" r="82.153"/>
	<g>
		<path fill="#BC1818" d="M97.357,23.133c-7.636,1.504-14.855,4.16-21.471,7.785L96.18,73.631h1.809l10.134-27.84L97.357,23.133z"/>
		<polygon fill="#BC1818" points="108.122,45.791 97.988,73.631 121.35,73.631 		"/>
	</g>
	<path fill="#DAA620" d="M112.099,86.689c-9.469,0-17.142-4.691-17.142-10.48c0-5.791,7.673-10.482,17.142-10.482
		c9.468,0,17.142,4.691,17.142,10.482C129.24,81.998,121.566,86.689,112.099,86.689z M112.099,61.533
		c-13.251,0-23.999,6.572-23.999,14.676s10.748,14.674,23.999,14.674s23.999-6.57,23.999-14.674S125.35,61.533,112.099,61.533z"/>
	<path fill="#D51116" d="M116.828,21.869l-8.706,23.922l-10.134,27.84l-0.214,0.586h25.17l17.135-47.076
		C132.821,24.215,125.002,22.389,116.828,21.869z"/>
	<g>
		<path fill="#DAA620" d="M112.666,79.715c-21.521,0-38.974,17.572-38.974,39.238s17.453,39.238,38.974,39.238
			c21.519,0,38.973-17.572,38.973-39.238S134.185,79.715,112.666,79.715z M112.666,146.98c-15.377,0-27.839-12.547-27.839-28.027
			s12.462-28.027,27.839-28.027c15.376,0,27.838,12.547,27.838,28.027S128.042,146.98,112.666,146.98z"/>
		<g>
			<path fill="#C4941A" d="M112.674,79.864c0,0-0.958,0.046-2.756,0.132c-0.447,0.034-0.955,0.019-1.499,0.1
				c-0.543,0.082-1.137,0.172-1.778,0.269c-0.64,0.109-1.336,0.175-2.062,0.338c-0.722,0.188-1.488,0.389-2.297,0.601
				c-3.197,0.929-7.064,2.378-10.888,5.059c-3.832,2.615-7.734,6.273-10.794,11.091c-3.037,4.809-5.271,10.696-5.953,17.149
				c-0.113,0.802-0.083,1.623-0.133,2.441c-0.006,0.808-0.115,1.672-0.04,2.446c0.118,1.681,0.118,3.433,0.46,5.061
				c0.417,3.328,1.525,6.682,2.893,9.901c0.386,0.79,0.773,1.584,1.161,2.38c0.388,0.797,0.909,1.525,1.359,2.295l0.7,1.144
				c0.25,0.371,0.535,0.719,0.801,1.08c0.55,0.71,1.065,1.451,1.646,2.143c2.35,2.752,5.114,5.176,8.147,7.256
				c3.086,2.013,6.478,3.559,10.016,4.678c3.57,1.043,7.287,1.506,11.008,1.565c1.772-0.146,3.859-0.13,5.58-0.515l1.349-0.222
				l0.675-0.109l0.67-0.182l2.678-0.721c3.502-1.174,6.84-2.767,9.859-4.811c2.97-2.11,5.65-4.556,7.934-7.294
				c2.197-2.799,4.107-5.779,5.46-8.966c1.332-3.176,2.406-6.438,2.808-9.749c0.334-1.637,0.318-3.293,0.431-4.917l0.031-0.536
				l-0.023-0.631l-0.047-1.257c-0.05-0.823-0.021-1.692-0.134-2.462c-0.107-0.771-0.215-1.538-0.321-2.299
				c-0.06-0.382-0.089-0.762-0.171-1.141l-0.269-1.132c-0.175-0.754-0.349-1.502-0.521-2.244c-0.22-0.729-0.481-1.439-0.717-2.152
				c-0.939-2.856-2.279-5.455-3.696-7.875c-2.954-4.782-6.745-8.462-10.496-11.125c-3.742-2.727-7.563-4.231-10.733-5.208
				c-0.804-0.224-1.564-0.435-2.28-0.634c-0.723-0.174-1.418-0.248-2.056-0.365c-0.64-0.105-1.232-0.203-1.775-0.293
				c-0.543-0.089-1.045-0.079-1.491-0.119c-1.788-0.11-2.742-0.169-2.742-0.169L112.674,79.864z M112.666,79.564
				c0,0,0.963,0.039,2.768,0.111c0.45,0.031,0.959,0.011,1.509,0.089c0.55,0.079,1.15,0.165,1.8,0.257
				c0.646,0.105,1.353,0.166,2.087,0.326c0.732,0.176,1.51,0.363,2.331,0.561c3.247,0.882,7.198,2.24,11.216,4.792
				c4.011,2.517,8.172,6.098,11.58,10.941c3.39,4.857,5.975,10.864,6.857,17.788c0.139,0.861,0.129,1.662,0.201,2.505l0.078,1.255
				l0.04,0.631c-0.001-0.041,0.008,0.144,0.005,0.155l-0.004,0.082l-0.007,0.164l-0.015,0.328c-0.102,1.752-0.084,3.538-0.423,5.31
				c-0.414,3.579-1.538,7.121-2.96,10.57c-0.408,0.842-0.817,1.688-1.229,2.536c-0.412,0.847-0.961,1.625-1.438,2.444l-0.745,1.216
				c-0.265,0.396-0.565,0.768-0.848,1.152c-0.581,0.758-1.131,1.546-1.746,2.282c-2.487,2.939-5.44,5.51-8.672,7.717
				c-3.286,2.14-6.9,3.783-10.671,4.965l-2.878,0.719l-0.721,0.179l-0.746,0.109l-1.492,0.216c-0.996,0.146-1.998,0.307-2.941,0.306
				l-2.938,0.121c-3.955-0.116-7.894-0.671-11.66-1.832c-3.734-1.237-7.294-2.928-10.514-5.099c-3.169-2.236-6.037-4.83-8.458-7.755
				c-0.599-0.734-1.13-1.519-1.694-2.272c-0.273-0.383-0.565-0.752-0.821-1.145l-0.718-1.208c-0.461-0.813-0.991-1.584-1.387-2.423
				c-0.394-0.84-0.787-1.676-1.178-2.508c-1.387-3.406-2.477-6.856-2.874-10.419c-0.331-1.78-0.298-3.471-0.394-5.166
				c-0.007-0.229-0.023-0.384-0.021-0.672l0.039-0.643l0.08-1.278c0.071-0.848,0.063-1.697,0.2-2.525
				c0.87-6.665,3.318-12.679,6.601-17.481c3.303-4.808,7.354-8.41,11.283-10.975c3.938-2.598,7.841-4.012,11.062-4.94
				c0.815-0.209,1.588-0.407,2.314-0.594c0.73-0.17,1.435-0.24,2.08-0.354c0.647-0.102,1.247-0.195,1.796-0.281
				c0.55-0.086,1.053-0.072,1.501-0.109c1.797-0.097,2.755-0.147,2.755-0.147L112.666,79.564z"/>
			<path fill="#C4941A" d="M112.658,147.13c0,0-0.685-0.037-1.968-0.108c-0.32-0.025-0.68-0.018-1.072-0.078
				c-0.394-0.062-0.822-0.13-1.286-0.203c-0.462-0.081-0.966-0.133-1.488-0.254c-0.52-0.133-1.072-0.274-1.655-0.424
				c-2.305-0.662-5.099-1.667-7.928-3.51c-2.821-1.825-5.736-4.39-8.13-7.823c-2.38-3.43-4.159-7.745-4.806-12.536
				c-0.102-0.596-0.1-1.205-0.153-1.815c-0.021-0.622-0.127-1.199-0.077-1.873c0.064-1.213,0.036-2.411,0.271-3.705
				c0.282-2.578,1.058-5.057,2.05-7.517c1.025-2.449,2.479-4.745,4.159-6.9c1.74-2.113,3.804-3.99,6.086-5.61
				c2.319-1.573,4.888-2.801,7.583-3.701c2.719-0.846,5.563-1.255,8.422-1.346c1.507,0.082,2.73,0.024,4.242,0.292
				c1.474,0.147,2.847,0.527,4.236,0.871c2.732,0.845,5.354,2.025,7.738,3.567c2.347,1.59,4.495,3.444,6.301,5.572
				c1.749,2.165,3.277,4.484,4.367,6.976c1.028,2.503,1.838,5.073,2.135,7.668c0.243,1.285,0.23,2.579,0.301,3.849l0.01,0.238
				l0.006,0.119l0.002,0.06l-0.004,0.132l-0.03,0.45l-0.062,0.896c-0.055,0.604-0.05,1.168-0.152,1.795
				c-0.661,5.051-2.576,9.357-5.063,12.843c-2.498,3.469-5.524,6.013-8.427,7.79c-2.91,1.797-5.75,2.746-8.081,3.361
				c-0.589,0.138-1.147,0.268-1.673,0.39c-0.525,0.112-1.031,0.154-1.495,0.228c-0.465,0.064-0.895,0.123-1.289,0.178
				c-0.394,0.055-0.758,0.039-1.08,0.06c-1.292,0.046-1.98,0.071-1.98,0.071L112.658,147.13z M112.666,146.83
				c0,0,0.681-0.045,1.955-0.129c0.317-0.029,0.677-0.024,1.063-0.089c0.387-0.065,0.809-0.138,1.265-0.214
				c0.454-0.086,0.949-0.142,1.463-0.268c0.509-0.145,1.05-0.3,1.622-0.463c2.254-0.71,4.965-1.806,7.599-3.777
				c2.643-1.923,5.299-4.565,7.343-7.974c0.982-1.723,1.897-3.571,2.544-5.59c0.161-0.505,0.341-1.006,0.491-1.521
				c0.116-0.524,0.233-1.053,0.352-1.585c0.296-1.064,0.337-2.124,0.514-3.201c0.076-0.537,0.054-1.167,0.085-1.753l0.029-0.897
				l0.015-0.451c0.002-0.086,0,0.054-0.002,0.02L139,118.885l-0.007-0.106l-0.012-0.215c-0.082-1.142-0.072-2.307-0.309-3.456
				c-0.285-2.327-1.045-4.617-1.983-6.848c-0.944-2.24-2.282-4.337-3.821-6.31c-1.602-1.927-3.478-3.656-5.562-5.149
				c-2.118-1.446-4.464-2.576-6.927-3.413c-1.255-0.341-2.514-0.726-3.771-0.882c-1.183-0.275-2.717-0.272-3.943-0.38
				c-2.624,0.035-5.248,0.352-7.77,1.079c-2.5,0.782-4.899,1.865-7.084,3.28c-2.147,1.463-4.108,3.17-5.775,5.111
				c-1.608,1.982-3.02,4.104-4.029,6.386c-0.974,2.272-1.768,4.655-2.068,6.999c-0.246,1.142-0.25,2.401-0.338,3.6
				c-0.055,0.533,0.02,1.157,0.021,1.727c0.032,0.58,0.007,1.163,0.085,1.731c0.46,4.58,2.024,8.768,4.157,12.204
				c2.15,3.442,4.918,6.063,7.642,7.938c2.714,1.927,5.472,2.967,7.752,3.63c0.577,0.151,1.124,0.294,1.639,0.429
				c0.518,0.116,1.015,0.162,1.471,0.239c0.457,0.068,0.88,0.132,1.268,0.189s0.751,0.046,1.07,0.07
				c1.284,0.06,1.969,0.092,1.969,0.092L112.666,146.83z"/>
		</g>
	</g>
	<g>
		<circle fill="#C4941A" cx="112.666" cy="118.674" r="30.438"/>
		<path fill="#987314" d="M143.253,118.682c0,0-0.031,0.746-0.092,2.145c-0.024,0.351-0.012,0.741-0.07,1.171
			c-0.062,0.429-0.131,0.897-0.203,1.404c-0.086,0.505-0.129,1.058-0.239,1.634c-0.131,0.571-0.271,1.179-0.418,1.821
			c-0.075,0.321-0.153,0.651-0.232,0.989c-0.11,0.329-0.224,0.667-0.341,1.012c-0.238,0.688-0.422,1.439-0.736,2.172
			c-0.318,0.735-0.648,1.5-0.992,2.293c-0.392,0.77-0.834,1.552-1.274,2.373c-1.901,3.182-4.622,6.55-8.419,9.273
			c-3.785,2.709-8.646,4.66-13.978,5.239c-0.663,0.091-1.341,0.064-2.017,0.102l-1.019,0.031l-0.512,0.016l-0.126-0.001
			l-0.062-0.005l-0.123-0.009l-0.246-0.017c-1.32-0.122-2.616-0.159-4.045-0.479c-2.826-0.438-5.488-1.411-8.102-2.623
			c-2.606-1.233-4.981-2.953-7.233-4.821c-2.196-1.95-4.152-4.189-5.846-6.648c-1.65-2.491-2.946-5.229-3.928-8.097
			c-0.95-2.903-1.438-5.878-1.594-9.027c-0.038-2.921,0.264-6.144,1.056-9.108c0.878-2.957,2.11-5.811,3.749-8.41
			c1.688-2.562,3.699-4.887,5.98-6.867c2.325-1.918,4.822-3.603,7.516-4.807c2.687-1.188,5.48-2.084,8.301-2.431
			c1.396-0.273,2.805-0.274,4.188-0.354l0.26-0.01l0.129-0.005l0.064-0.003l0.144,0.005l0.491,0.029l0.977,0.06
			c0.659,0.056,1.271,0.044,1.958,0.154c1.354,0.24,2.746,0.363,3.985,0.758c0.632,0.17,1.26,0.338,1.882,0.506
			c0.61,0.208,1.2,0.459,1.791,0.684c1.2,0.415,2.285,1.034,3.375,1.578c0.556,0.253,1.046,0.611,1.548,0.936
			c0.498,0.327,0.99,0.652,1.479,0.974c3.788,2.753,6.504,6.129,8.4,9.318c1.927,3.201,2.909,6.31,3.571,8.851
			c0.146,0.643,0.285,1.251,0.416,1.823c0.108,0.575,0.151,1.126,0.234,1.63c0.072,0.506,0.139,0.974,0.199,1.402
			c0.058,0.429,0.044,0.824,0.067,1.176c0.057,1.406,0.086,2.156,0.086,2.156V118.682z M142.954,118.674
			c0,0-0.046-0.742-0.131-2.133c-0.03-0.346-0.024-0.737-0.092-1.159c-0.068-0.423-0.144-0.883-0.226-1.381
			c-0.086-0.497-0.154-1.036-0.296-1.596c-0.158-0.555-0.328-1.145-0.507-1.769c-0.761-2.462-1.997-5.404-4.147-8.264
			c-2.104-2.874-5.013-5.709-8.684-7.956c-1.869-1.06-3.839-2.12-6.027-2.838c-0.544-0.185-1.092-0.37-1.645-0.558
			c-0.567-0.139-1.139-0.277-1.714-0.419c-1.153-0.345-2.307-0.396-3.479-0.6c-0.582-0.091-1.271-0.069-1.907-0.11l-0.979-0.039
			l-0.491-0.02c-0.092-0.002,0.058-0.001,0.021,0.001l-0.059,0.004l-0.116,0.008l-0.233,0.015c-1.245,0.086-2.516,0.063-3.771,0.315
			c-2.543,0.298-5.043,1.12-7.503,2.101c-2.459,1.022-4.755,2.495-6.919,4.182c-2.129,1.742-3.988,3.837-5.638,6.115
			c-1.606,2.315-2.857,4.892-3.799,7.598c-0.915,2.749-1.388,5.488-1.565,8.541c-0.016,2.824,0.268,5.811,1.024,8.621
			c0.839,2.796,2.022,5.489,3.618,7.913c0.395,0.606,0.85,1.171,1.281,1.748c0.223,0.283,0.425,0.583,0.664,0.852l0.73,0.791
			c0.502,0.513,0.938,1.087,1.489,1.544l1.608,1.399c2.236,1.735,4.654,3.174,7.199,4.166c2.533,0.958,5.167,1.703,7.702,1.909
			c1.225,0.207,2.606,0.148,3.914,0.192l0.247,0.008l0.123,0.004l0.062,0.001c0.035,0.002-0.079-0.004-0.003-0.004l0.471-0.033
			l0.937-0.067c0.62-0.06,1.243-0.053,1.849-0.162c4.879-0.64,9.272-2.364,12.947-4.605c3.664-2.275,6.568-5.117,8.668-7.999
			c2.148-2.864,3.387-5.809,4.144-8.274c0.179-0.624,0.347-1.214,0.505-1.77c0.141-0.56,0.208-1.097,0.292-1.593
			c0.08-0.497,0.154-0.957,0.222-1.378c0.065-0.422,0.059-0.817,0.088-1.166c0.081-1.397,0.125-2.144,0.125-2.144V118.674z"/>
	</g>
	<g>
		<path fill="#816214" d="M119.991,105.088c-2.936-0.4-5.317-0.162-8.1,2.461c-2.88-2.018-4.215-2.422-6.806-2.422
			c-5.565,0-10.669,6.652-9.27,14.586c1.414,8.029,4.489,13.02,9.27,14.588c2.358,0.773,3.926-0.781,6.904-1.756
			c1.708,0.506,1.997,0.844,4.061,1.449c4.655,1.363,10.867-5.109,11.956-13.092C129.095,112.92,125.507,105.84,119.991,105.088z"/>
		<path fill="#816214" d="M110.487,102.748c-0.424-1.982-0.961-2.881-0.366-3.008c0.594-0.127,1.174,0.064,1.598,2.047
			s0.764,3.621,0.169,3.748C111.295,105.662,110.912,104.73,110.487,102.748z"/>
	</g>
	<circle fill="none" stroke="#DAA620" stroke-width="5" stroke-miterlimit="10" cx="112.08" cy="95.5" r="75.217"/>
	<g>
		<g>
			<path fill="#BC1818" stroke="#DAA620" stroke-width="4" stroke-miterlimit="10" d="M216.7,151.12
				c-6.562-1.267-12.94-2.86-19.115-4.75c2.963-6.088,5.604-12.241,7.921-18.431c-52.148,29.121-114.772,31.745-168.899,7.72
				c-4.867-2.171-9.666-4.558-14.381-7.16c2.587,6.365,5.521,12.695,8.804,18.955c-5.812,1.755-11.8,3.237-17.947,4.421
				C76.559,186.375,153.37,186.137,216.7,151.12L216.7,151.12L216.7,151.12z"/>
		</g>
	</g>
	<g>
		<g>
			<path fill="#DAA620" d="M72.487,152.653c0.4-0.389,0.796-0.778,1.192-1.17c0.235,0.062,0.47,0.123,0.706,0.184
				c-0.299,1.902-0.587,3.805-0.874,5.708c-0.234-0.061-0.473-0.121-0.705-0.184c-0.171-1.754-0.531-3.086-1.079-4.001
				c-0.699-1.165-1.627-1.915-2.803-2.262c-0.903-0.266-1.77-0.283-2.609-0.049c-0.841,0.233-1.578,0.74-2.221,1.525
				c-0.641,0.785-1.197,1.998-1.664,3.646c-0.453,1.599-0.604,2.914-0.451,3.944c0.156,1.035,0.527,1.878,1.131,2.529
				c0.598,0.652,1.389,1.127,2.352,1.413c1.311,0.392,2.399,0.369,3.26-0.05c0.862-0.417,1.396-1.123,1.623-2.103
				c0.103-0.438,0.203-0.878,0.305-1.317c0.045-0.209-0.007-0.393-0.166-0.56c-0.159-0.164-0.452-0.305-0.878-0.424
				c-0.456-0.128-0.913-0.257-1.37-0.389c0.053-0.221,0.109-0.439,0.162-0.66c2.26,0.648,4.521,1.253,6.791,1.812
				c-0.049,0.223-0.092,0.445-0.14,0.668c-0.31-0.075-0.613-0.153-0.926-0.23c-0.412-0.104-0.72-0.119-0.922-0.039
				c-0.202,0.078-0.331,0.237-0.383,0.47c-0.395,1.789-0.785,3.582-1.177,5.372c-0.25-0.063-0.498-0.132-0.747-0.196
				c-0.087-0.907-0.188-1.785-0.306-2.627c-0.737,0.627-1.539,1.025-2.41,1.195s-1.799,0.107-2.784-0.185
				c-1.411-0.417-2.634-1.125-3.66-2.104c-1.024-0.98-1.726-2.135-2.092-3.445c-0.366-1.312-0.335-2.649,0.068-4.011
				c0.409-1.37,1.11-2.479,2.088-3.343c0.977-0.864,2.121-1.43,3.427-1.715c1.309-0.28,2.533-0.256,3.684,0.086
				c0.654,0.192,1.256,0.474,1.805,0.844S71.853,151.913,72.487,152.653z"/>
			<path fill="#DAA620" d="M81.901,158.89c1.373,0.286,2.441,0.949,3.244,2.004c0.795,1.056,1.095,2.298,0.88,3.736
				c-0.15,0.995-0.495,1.802-1.034,2.421c-0.539,0.616-1.244,1.051-2.12,1.299c-0.871,0.246-1.781,0.273-2.715,0.075
				c-1.384-0.292-2.472-0.996-3.255-2.098c-0.781-1.102-1.022-2.355-0.741-3.756c0.285-1.408,0.985-2.44,2.082-3.104
				C79.341,158.796,80.554,158.607,81.901,158.89z M81.78,159.572c-0.817-0.17-1.542,0.008-2.191,0.541
				c-0.65,0.532-1.109,1.496-1.377,2.896c-0.271,1.423-0.211,2.524,0.21,3.304c0.416,0.779,1.059,1.263,1.911,1.441
				c0.883,0.188,1.66,0.002,2.314-0.552c0.658-0.554,1.104-1.586,1.347-3.091c0.225-1.396,0.127-2.456-0.292-3.182
				C83.286,160.205,82.643,159.753,81.78,159.572z"/>
			<path fill="#DAA620" d="M92.767,155.555c-0.568,4.398-1.123,8.799-1.666,13.199c-0.023,0.182,0.025,0.33,0.143,0.447
				c0.174,0.159,0.4,0.257,0.669,0.298c0.377,0.054,0.756,0.11,1.13,0.16c-0.03,0.244-0.058,0.487-0.083,0.729
				c-2.025-0.281-4.049-0.598-6.067-0.948c0.033-0.241,0.067-0.483,0.103-0.727c0.358,0.062,0.712,0.124,1.07,0.183
				c0.343,0.059,0.618,0.03,0.808-0.084c0.189-0.115,0.299-0.303,0.336-0.562c0.489-3.688,0.992-7.374,1.494-11.061
				c0.042-0.324-0.023-0.576-0.191-0.756c-0.23-0.247-0.545-0.405-0.929-0.469c-0.296-0.05-0.599-0.101-0.897-0.151
				c0.038-0.243,0.07-0.485,0.107-0.727C90.114,155.26,91.442,155.414,92.767,155.555z"/>
			<path fill="#DAA620" d="M101.52,156.79c1.308,0.068,2.62,0.123,3.926,0.164c-0.263,4.194-0.524,8.388-0.778,12.58
				c-0.029,0.49,0.06,0.849,0.264,1.074c0.202,0.227,0.522,0.355,0.958,0.384c0.249,0.015,0.494,0.035,0.743,0.05
				c-0.015,0.245-0.023,0.491-0.038,0.735c-1.221-0.078-2.443-0.17-3.671-0.272c-0.047-0.632-0.094-1.265-0.145-1.896
				c-0.478,0.628-1.026,1.086-1.633,1.367c-0.608,0.283-1.279,0.384-2.006,0.308c-1.222-0.129-2.225-0.687-2.992-1.663
				c-0.765-0.976-1.072-2.185-0.913-3.612c0.166-1.55,0.833-2.711,1.982-3.51c0.901-0.624,1.884-0.88,2.957-0.771
				c0.659,0.069,1.235,0.271,1.735,0.614c0.502,0.342,0.926,0.824,1.275,1.454c0.122-1.729,0.245-3.459,0.369-5.187
				c0.021-0.272-0.085-0.5-0.304-0.682c-0.222-0.18-0.579-0.29-1.071-0.337c-0.24-0.022-0.482-0.042-0.72-0.067
				C101.478,157.278,101.497,157.035,101.52,156.79z M100.399,162.57c-0.795-0.08-1.441,0.14-1.967,0.67
				c-0.519,0.527-0.853,1.477-0.984,2.851c-0.146,1.491-0.002,2.569,0.436,3.234s1.044,1.04,1.824,1.119
				c0.833,0.085,1.567-0.19,2.204-0.818c0.638-0.629,0.996-1.605,1.09-2.918c0.088-1.241-0.154-2.244-0.712-3.011
				C101.806,163.022,101.177,162.648,100.399,162.57z"/>
			<path fill="#DAA620" d="M115.065,162.895c0.982-0.038,1.965-0.085,2.949-0.14c0.158,0.688,0.271,1.338,0.322,1.962
				c0.563-0.72,1.115-1.229,1.673-1.531c0.556-0.302,1.171-0.455,1.836-0.469c0.709-0.017,1.306,0.134,1.774,0.454
				c0.475,0.319,0.841,0.852,1.122,1.595c0.473-0.732,1.002-1.289,1.587-1.669c0.588-0.382,1.236-0.593,1.941-0.632
				c0.936-0.054,1.652,0.147,2.152,0.614c0.64,0.614,1,1.438,1.066,2.479c0.096,1.526,0.195,3.056,0.293,4.582
				c0.016,0.276,0.109,0.46,0.275,0.544c0.225,0.135,0.541,0.188,0.962,0.154c0.179-0.016,0.359-0.029,0.538-0.044
				c0.016,0.245,0.036,0.492,0.052,0.738c-1.798,0.15-3.603,0.271-5.403,0.367c-0.011-0.247-0.023-0.492-0.034-0.739
				c0.177-0.01,0.356-0.019,0.538-0.029c0.456-0.025,0.773-0.111,0.95-0.254c0.172-0.143,0.257-0.345,0.24-0.609
				c-0.085-1.53-0.165-3.062-0.253-4.591c-0.04-0.685-0.257-1.201-0.652-1.555c-0.395-0.353-0.896-0.511-1.506-0.479
				c-0.465,0.026-0.875,0.154-1.242,0.392c-0.37,0.237-0.649,0.564-0.851,0.982c-0.3,0.596-0.438,1.101-0.427,1.509
				c0.044,1.327,0.089,2.653,0.132,3.979c0.008,0.272,0.103,0.467,0.271,0.589c0.17,0.121,0.435,0.178,0.785,0.162
				c0.242-0.011,0.486-0.022,0.732-0.034c0.008,0.246,0.021,0.495,0.03,0.74c-1.829,0.084-3.658,0.141-5.488,0.172
				c-0.005-0.246-0.012-0.492-0.013-0.739c0.207-0.004,0.413-0.009,0.618-0.012c0.392-0.007,0.682-0.079,0.866-0.217
				c0.188-0.136,0.276-0.306,0.274-0.511c-0.035-1.42-0.067-2.84-0.104-4.261c-0.02-0.898-0.217-1.55-0.586-1.947
				c-0.369-0.401-0.848-0.593-1.455-0.583c-0.783,0.013-1.377,0.254-1.798,0.729c-0.597,0.674-0.894,1.456-0.893,2.349
				c0.003,1.229,0.005,2.457,0.008,3.688c0.001,0.283,0.07,0.476,0.219,0.582c0.208,0.138,0.526,0.206,0.962,0.204
				c0.184-0.001,0.367-0.004,0.55-0.005c0.003,0.248,0.007,0.492,0.008,0.739c-1.807,0.017-3.614,0.006-5.421-0.031
				c0.01-0.245,0.006-0.493,0.011-0.739c0.271,0.007,0.54,0.012,0.812,0.016c0.303,0.006,0.543-0.057,0.706-0.188
				c0.165-0.129,0.245-0.296,0.249-0.5c0.014-2.018,0.023-4.033,0.039-6.051c0.001-0.337-0.091-0.586-0.281-0.753
				c-0.193-0.164-0.57-0.273-1.146-0.33C115.055,163.349,115.062,163.123,115.065,162.895z"/>
			<path fill="#DAA620" d="M144.676,165.668c-2.505,0.369-5.01,0.685-7.519,0.949c0.163,1.399,0.556,2.36,1.178,2.873
				c0.711,0.579,1.581,0.809,2.593,0.683c1.488-0.184,2.61-1.079,3.324-2.666c0.258,0.058,0.512,0.113,0.768,0.169
				c-0.863,2.018-2.372,3.175-4.481,3.432c-1.439,0.171-2.69-0.145-3.746-0.938c-1.053-0.795-1.63-1.895-1.74-3.285
				c-0.117-1.499,0.25-2.748,1.102-3.766c0.853-1.016,1.938-1.6,3.29-1.764c0.992-0.12,1.873-0.005,2.651,0.355
				c0.781,0.36,1.408,0.936,1.883,1.74C144.309,164.015,144.547,164.755,144.676,165.668z M137.093,165.918
				c1.515-0.159,3.027-0.338,4.538-0.536c0.265-0.032,0.47-0.143,0.596-0.322c0.131-0.182,0.174-0.464,0.128-0.851
				c-0.085-0.72-0.414-1.297-0.968-1.735c-0.561-0.438-1.182-0.614-1.86-0.531c-0.762,0.093-1.377,0.471-1.85,1.14
				C137.2,163.75,137.003,164.694,137.093,165.918z"/>
			<path fill="#DAA620" d="M150.584,154.468c1.287-0.304,2.569-0.624,3.847-0.957c0.787,4.154,1.559,8.311,2.318,12.466
				c0.086,0.486,0.262,0.809,0.512,0.972c0.26,0.16,0.592,0.195,1.025,0.101c0.246-0.056,0.494-0.109,0.737-0.167
				c0.044,0.243,0.093,0.486,0.14,0.729c-1.215,0.274-2.425,0.532-3.639,0.782c-0.201-0.603-0.397-1.202-0.594-1.806
				c-0.319,0.751-0.736,1.35-1.26,1.798c-0.525,0.447-1.148,0.739-1.874,0.871c-1.217,0.224-2.321-0.035-3.296-0.768
				c-0.971-0.733-1.555-1.823-1.748-3.26c-0.209-1.556,0.15-2.878,1.067-3.982c0.72-0.862,1.61-1.393,2.675-1.59
				c0.651-0.122,1.265-0.089,1.832,0.102c0.568,0.192,1.099,0.542,1.592,1.054c-0.303-1.719-0.609-3.434-0.915-5.152
				c-0.044-0.272-0.204-0.463-0.462-0.576c-0.262-0.113-0.63-0.119-1.123-0.023c-0.24,0.045-0.475,0.093-0.712,0.139
				C150.663,154.957,150.625,154.711,150.584,154.468z M150.919,160.413c-0.791,0.147-1.367,0.55-1.742,1.211
				c-0.378,0.661-0.467,1.682-0.264,3.057c0.215,1.492,0.615,2.504,1.199,3.026c0.582,0.523,1.266,0.714,2.035,0.57
				c0.823-0.153,1.477-0.63,1.945-1.425c0.467-0.796,0.587-1.848,0.355-3.152c-0.217-1.232-0.69-2.142-1.422-2.728
				C152.395,160.454,151.69,160.267,150.919,160.413z"/>
			<path fill="#DAA620" d="M171.243,163.401c0.18,0.139,0.357,0.277,0.541,0.415c-0.424,0.645-0.975,1.062-1.643,1.256
				c-0.517,0.148-0.97,0.153-1.379,0.015c-0.407-0.138-0.813-0.471-1.216-0.994c-0.562,0.838-1.092,1.436-1.584,1.795
				c-0.495,0.356-1.125,0.639-1.888,0.831c-1.084,0.276-1.962,0.276-2.607,0.012c-0.645-0.266-1.031-0.714-1.157-1.341
				c-0.189-0.943,0.293-1.873,1.433-2.809c1.135-0.935,2.725-1.776,4.765-2.558c-0.11-0.455-0.216-0.91-0.328-1.365
				c-0.116-0.489-0.441-0.846-0.962-1.07c-0.521-0.227-1.121-0.247-1.802-0.068c-0.63,0.166-1.144,0.421-1.551,0.768
				c-0.29,0.257-0.416,0.469-0.379,0.636c0.021,0.095,0.14,0.226,0.361,0.388c0.267,0.205,0.425,0.407,0.467,0.607
				c0.065,0.289,0.009,0.552-0.163,0.789c-0.173,0.238-0.434,0.399-0.778,0.484c-0.368,0.091-0.698,0.056-0.99-0.105
				c-0.288-0.16-0.477-0.413-0.542-0.754c-0.137-0.64,0.158-1.32,0.85-2.048c0.696-0.727,1.692-1.258,2.992-1.603
				c1.204-0.318,2.172-0.344,2.919-0.062c0.749,0.288,1.21,0.764,1.378,1.427c0.408,1.637,0.812,3.274,1.219,4.912
				c0.104,0.436,0.266,0.735,0.484,0.891c0.213,0.164,0.455,0.208,0.717,0.13C170.695,163.896,170.977,163.703,171.243,163.401z
				 M166.659,160.658c-1.815,0.742-3.066,1.445-3.737,2.154c-0.507,0.533-0.679,1.154-0.53,1.863
				c0.104,0.496,0.34,0.846,0.709,1.051c0.369,0.201,0.803,0.243,1.298,0.114c0.891-0.228,1.597-0.719,2.108-1.468
				c0.514-0.753,0.668-1.561,0.459-2.427C166.863,161.518,166.762,161.088,166.659,160.658z"/>
			<path fill="#DAA620" d="M173.017,148.4c1.271,4.297,2.523,8.596,3.756,12.895c0.051,0.177,0.151,0.294,0.307,0.347
				c0.227,0.063,0.466,0.052,0.734-0.038c0.37-0.125,0.734-0.249,1.105-0.377c0.069,0.235,0.142,0.475,0.211,0.711
				c-1.982,0.683-3.968,1.329-5.958,1.941c-0.063-0.237-0.126-0.477-0.189-0.716c0.353-0.109,0.703-0.216,1.053-0.328
				c0.343-0.107,0.585-0.259,0.71-0.452c0.128-0.194,0.157-0.416,0.088-0.671c-1.003-3.62-2.014-7.239-3.043-10.856
				c-0.086-0.318-0.246-0.521-0.479-0.604c-0.322-0.121-0.662-0.121-1.039-0.003c-0.293,0.092-0.589,0.186-0.881,0.275
				c-0.064-0.237-0.13-0.478-0.195-0.716C170.47,149.354,171.748,148.884,173.017,148.4z"/>
		</g>
	</g>
</g>
</svg>
